<?xml version="1.0" encoding="UTF-8" standalone="no"?>
<!-- Generator: Adobe Illustrator 13.0.0, SVG Export Plug-In . SVG Version: 6.00 Build 14948)  -->
<svg id="Layer_3" xmlns:rdf="http://www.w3.org/1999/02/22-rdf-syntax-ns#" xmlns="http://www.w3.org/2000/svg" xml:space="preserve" height="437.63" viewBox="0 0 300.747 437.629" width="300.75" version="1.2" y="0px" x="0px" xmlns:cc="http://creativecommons.org/ns#" xmlns:dc="http://purl.org/dc/elements/1.1/"><metadata id="metadata53"><rdf:RDF><cc:Work rdf:about=""><dc:format>image/svg+xml</dc:format><dc:type rdf:resource="http://purl.org/dc/dcmitype/StillImage"/><dc:title/></cc:Work></rdf:RDF></metadata>
<path id="line3" style="baseline-shift:baseline;block-progression:tb;color:#000000;direction:ltr;text-indent:0;text-align:start;enable-background:accumulate;text-transform:none;" fill="#f4f4f4" d="m79.531,38.688,0,2,141.84,0,0-2-141.84,0z"/>
<path id="path5" style="baseline-shift:baseline;block-progression:tb;color:#000000;direction:ltr;text-indent:0;text-align:start;enable-background:accumulate;text-transform:none;" fill="#f4f4f4" d="m4.375,112.28,0,266.91c0,29.185,23.658,52.875,52.844,52.875h186.28c29.184,0,52.875-23.689,52.875-52.875v-266.75h-2v266.75c0,28.106-22.771,50.875-50.875,50.875h-186.28c-28.106,0-50.845-22.77-50.845-50.87v-266.91h-2z"/>
<path id="path7" style="baseline-shift:baseline;block-progression:tb;color:#000000;direction:ltr;text-indent:0;text-align:start;enable-background:accumulate;text-transform:none;" fill="#f4f4f4" d="m51.406,159.78c-13.986,0-25.344,11.357-25.344,25.344v200.06c0,13.987,11.357,25.344,25.344,25.344h197.94c13.645,0,24.712-10.831,25.25-24.344h0.0937v-1-200.06c0-13.986-11.356-25.344-25.344-25.344h-197.94zm0,2,197.94,0c12.907,0,23.344,10.438,23.344,23.344v199.06,1c0,12.906-10.436,23.344-23.344,23.344h-197.94c-12.906,0-23.344-10.437-23.344-23.344v-200.06c0-12.906,10.438-23.344,23.344-23.344z"/>
<path id="circle9" style="baseline-shift:baseline;block-progression:tb;color:#000000;direction:ltr;text-indent:0;text-align:start;enable-background:accumulate;text-transform:none;" fill="#f4f4f4" d="M56.562,33.938c-31.23,0-56.562,25.332-56.562,56.562s25.332,56.562,56.563,56.562c31.23,0,56.562-25.332,56.562-56.562s-25.332-56.562-56.562-56.562zm0,2c30.149,0,54.562,24.413,54.562,54.562s-24.413,54.562-54.562,54.562-54.563-24.413-54.563-54.562,24.413-54.562,54.563-54.562z"/>
<path id="circle11" style="baseline-shift:baseline;block-progression:tb;color:#000000;direction:ltr;text-indent:0;text-align:start;enable-background:accumulate;text-transform:none;" fill="#f4f4f4" d="m244.19,33.938c-31.23,0-56.562,25.332-56.562,56.562s25.332,56.562,56.562,56.562,56.562-25.332,56.562-56.562-25.332-56.562-56.562-56.562zm0,2c30.149,0,54.562,24.413,54.562,54.562s-24.413,54.562-54.562,54.562-54.562-24.413-54.562-54.562,24.413-54.562,54.562-54.562z"/>
<path id="path13" style="baseline-shift:baseline;block-progression:tb;color:#000000;direction:ltr;text-indent:0;text-align:start;enable-background:accumulate;text-transform:none;" fill="#f4f4f4" d="m0,91.25,0,289.81c0,31.23,25.332,56.562,56.562,56.562h187.62c31.228,0,56.562-25.332,56.562-56.562v-288.25h-2v288.25c0,30.15-24.415,54.562-54.562,54.562h-187.62c-30.147,0-54.56-24.41-54.56-54.56v-289.81h-2z"/>
<path id="circle15" style="baseline-shift:baseline;block-progression:tb;color:#000000;direction:ltr;text-indent:0;text-align:start;enable-background:accumulate;text-transform:none;" fill="#f4f4f4" d="m150.37,228.59c-42.629,0-77.219,34.59-77.219,77.219s34.59,77.219,77.219,77.219,77.188-34.59,77.188-77.219-34.559-77.219-77.188-77.219zm0,2c41.548,0,75.188,33.671,75.188,75.219s-33.639,75.219-75.188,75.219c-41.548,0-75.219-33.671-75.219-75.219s33.671-75.219,75.219-75.219z"/>
<path id="circle17" style="baseline-shift:baseline;block-progression:tb;color:#000000;direction:ltr;text-indent:0;text-align:start;enable-background:accumulate;text-transform:none;" fill="#f4f4f4" d="m150.37,250.44c-30.572,0-55.375,24.803-55.375,55.375s24.803,55.375,55.375,55.375,55.375-24.803,55.375-55.375-24.803-55.375-55.375-55.375zm0,2c29.491,0,53.375,23.884,53.375,53.375s-23.884,53.375-53.375,53.375-53.375-23.884-53.375-53.375,23.884-53.375,53.375-53.375z"/>
<g id="g19" stroke="#f4f4f4" stroke-width="2" transform="translate(-5.3936733e-6,0)" fill="none">
	<path id="path21" d="m56.101,247.57,52.859-52.859s2.911-2.646,2.911-6.88c0-4.092-3.318-7.41-7.41-7.41h-54.512c-4.092,0-7.41,3.317-7.41,7.41v54.513c0,4.093,3.317,7.41,7.41,7.41,3.705,0,4.631-0.927,6.153-2.184z"/>
	<path id="path23" d="m244.65,247.57-52.858-52.859s-2.911-2.646-2.911-6.88c0-4.092,3.316-7.41,7.409-7.41h54.513c4.093,0,7.41,3.317,7.41,7.41v54.513c0,4.093-3.317,7.41-7.41,7.41-3.704,0-4.631-0.927-6.153-2.184z"/>
</g>
<path id="circle25" style="baseline-shift:baseline;block-progression:tb;color:#000000;direction:ltr;text-indent:0;text-align:start;enable-background:accumulate;text-transform:none;" fill="#f4f4f4" d="m56.562,49c-22.901,0-41.469,18.599-41.469,41.5s18.567,41.5,41.469,41.5c22.901,0,41.5-18.599,41.5-41.5s-18.599-41.5-41.5-41.5zm0,2c21.82,0,39.5,17.68,39.5,39.5s-17.68,39.5-39.5,39.5-39.469-17.68-39.469-39.5,17.648-39.5,39.469-39.5z"/>
<path id="circle27" style="baseline-shift:baseline;block-progression:tb;color:#000000;direction:ltr;text-indent:0;text-align:start;enable-background:accumulate;text-transform:none;" fill="#f4f4f4" d="m244.19,49c-22.901,0-41.5,18.599-41.5,41.5s18.599,41.5,41.5,41.5,41.469-18.599,41.469-41.5-18.567-41.5-41.469-41.5zm0,2c21.82,0,39.469,17.68,39.469,39.5s-17.648,39.5-39.469,39.5c-21.82,0-39.5-17.68-39.5-39.5s17.68-39.5,39.5-39.5z"/>
<path id="line29" style="baseline-shift:baseline;block-progression:tb;color:#000000;direction:ltr;text-indent:0;text-align:start;enable-background:accumulate;text-transform:none;" fill="#f4f4f4" d="m58.281,33.969,0,2,180.47,0,0-2-180.47,0z"/>
<path id="rect31" style="baseline-shift:baseline;block-progression:tb;color:#000000;direction:ltr;text-indent:0;text-align:start;enable-background:accumulate;text-transform:none;" fill="#f4f4f4" d="m139.5,0,0,1,0,7.0625,0,1,1,0,19.938,0,1,0,0-1,0-7.0625,0-1-1,0-19.938,0-1,0zm2,2,17.938,0,0,5.0625-17.938,0,0-5.0625z"/>
<path id="rect33" style="baseline-shift:baseline;block-progression:tb;color:#000000;direction:ltr;text-indent:0;text-align:start;enable-background:accumulate;text-transform:none;" fill="#f4f4f4" d="m138.97,13.188,0,1,0,7.0625,0,1,1,0,21,0,1,0,0-1,0-7.0625,0-1-1,0-21,0-1,0zm2,2,19,0,0,5.0625-19,0,0-5.0625z"/>
<path id="polyline35" style="baseline-shift:baseline;block-progression:tb;color:#000000;direction:ltr;text-indent:0;text-align:start;enable-background:accumulate;text-transform:none;" fill="#f4f4f4" d="m138.44,26.375,0,1,0,7.0625,2,0,0-6.0625,20.031,0,0,6.0625,2,0,0-7.0625,0-1-1,0-22.031,0-1,0z"/>
<g id="g37" stroke="#f4f4f4" stroke-width="2" transform="translate(-5.3936733e-6,0)" fill="none">
	<line id="line39" x2="143.8" y1="8.079" x1="143.8" y2="14.077"/>
	<line id="line41" x2="157.12" y1="8.079" x1="157.12" y2="13.901"/>
</g>
<g id="g43" stroke="#f4f4f4" stroke-width="2" transform="translate(-5.3936733e-6,0)" fill="none">
	<line id="line45" x2="143.8" y1="21.443" x1="143.8" y2="27.441"/>
	<line id="line47" x2="157.12" y1="21.443" x1="157.12" y2="27.265"/>
</g>
</svg>
