<?xml version="1.0" encoding="utf-8"?>
<!-- Generator: Adobe Illustrator 13.0.0, SVG Export Plug-In . SVG Version: 6.00 Build 14948)  -->
<!DOCTYPE svg [
	<!ENTITY ns_flows "http://ns.adobe.com/Flows/1.0/">
	<!ENTITY ns_extend "http://ns.adobe.com/Extensibility/1.0/">
	<!ENTITY ns_ai "http://ns.adobe.com/AdobeIllustrator/10.0/">
	<!ENTITY ns_graphs "http://ns.adobe.com/Graphs/1.0/">
	<!ENTITY ns_vars "http://ns.adobe.com/Variables/1.0/">
	<!ENTITY ns_imrep "http://ns.adobe.com/ImageReplacement/1.0/">
	<!ENTITY ns_sfw "http://ns.adobe.com/SaveForWeb/1.0/">
	<!ENTITY ns_custom "http://ns.adobe.com/GenericCustomNamespace/1.0/">
	<!ENTITY ns_adobe_xpath "http://ns.adobe.com/XPath/1.0/">
]>
<svg version="1.2" baseProfile="tiny" id="Layer_2" xmlns:x="&ns_extend;" xmlns:i="&ns_ai;" xmlns:graph="&ns_graphs;"
	 xmlns="http://www.w3.org/2000/svg" xmlns:xlink="http://www.w3.org/1999/xlink" xmlns:a="http://ns.adobe.com/AdobeSVGViewerExtensions/3.0/"
	 x="0px" y="0px" width="598.189px" height="350.26px" viewBox="0 0 598.189 350.26" xml:space="preserve">
<metadata  id="metadata55">
	<rdf:RDF>
		<cc:Work  rdf:about="">
			<dc:format>image/svg+xml</dc:format>
			<dc:type  rdf:resource="http://purl.org/dc/dcmitype/StillImage"></dc:type>
			<dc:title></dc:title>
		</cc:Work>
	</rdf:RDF>
	<sfw  xmlns="&ns_sfw;">
		<slices></slices>
		<sliceSourceBounds  height="331.133" width="323.317" y="374.234" x="800.283" bottomLeftOrigin="true"></sliceSourceBounds>
	</sfw>
</metadata>
<g>
	<path fill="none" stroke="#F4F4F4" stroke-width="5" d="M434.894,174.829c0-6.562-0.479-13.011-1.389-19.321l25.869-17.723
		c-2.113-9.099-4.987-17.906-8.554-26.349l-31.343,0.867c-6.059-11.502-13.736-22.017-22.73-31.244l10.507-29.53
		c-6.978-6.044-14.476-11.504-22.413-16.308l-24.828,19.109c-11.43-5.653-23.778-9.727-36.764-11.938L314.4,12.355
		c-4.571-0.385-9.192-0.592-13.864-0.592c-4.67,0-9.292,0.208-13.863,0.592l-8.849,30.038c-12.985,2.211-25.333,6.285-36.764,11.938
		l-24.827-19.109c-7.938,4.804-15.436,10.263-22.414,16.308l10.506,29.53c-8.995,9.228-16.672,19.742-22.731,31.245l-31.342-0.867
		c-3.566,8.443-6.44,17.25-8.554,26.349l25.869,17.722c-0.909,6.311-1.389,12.76-1.389,19.322c0,6.563,0.479,13.012,1.389,19.322
		L141.7,211.873c2.113,9.099,4.987,17.905,8.553,26.349l31.342-0.867c6.059,11.502,13.736,22.018,22.731,31.245l-10.506,29.529
		c6.978,6.045,14.475,11.504,22.414,16.308l24.827-19.109c11.43,5.653,23.779,9.727,36.764,11.938l8.849,30.037
		c4.571,0.386,9.193,0.593,13.863,0.593c4.671,0,9.293-0.207,13.863-0.593l8.85-30.037c12.984-2.212,25.334-6.285,36.764-11.938
		l24.827,19.109c7.938-4.804,15.437-10.264,22.413-16.308l-10.506-29.53c8.994-9.227,16.672-19.742,22.73-31.244l31.343,0.867
		c3.566-8.443,6.44-17.25,8.554-26.349l-25.869-17.723C434.414,187.84,434.894,181.392,434.894,174.829z M300.536,222.294
		c-26.214,0-47.464-21.25-47.464-47.465c0-26.214,21.25-47.465,47.464-47.465c26.215,0,47.466,21.251,47.466,47.465
		C348.002,201.044,326.751,222.294,300.536,222.294z"/>
</g>
</svg>
