<?xml version="1.0" encoding="UTF-8" standalone="no"?>
<!-- Generator: Adobe Illustrator 13.0.0, SVG Export Plug-In . SVG Version: 6.00 Build 14948)  -->
<svg id="Layer_3" xmlns:rdf="http://www.w3.org/1999/02/22-rdf-syntax-ns#" xmlns="http://www.w3.org/2000/svg" xml:space="preserve" height="413.34px" viewBox="0 0 402.935 413.345" width="402.94px" version="1.2" y="0px" x="0px" xmlns:cc="http://creativecommons.org/ns#" xmlns:dc="http://purl.org/dc/elements/1.1/"><metadata id="metadata11"><rdf:RDF><cc:Work rdf:about=""><dc:format>image/svg+xml</dc:format><dc:type rdf:resource="http://purl.org/dc/dcmitype/StillImage"/><dc:title/></cc:Work></rdf:RDF></metadata>
<g id="g3">
	<path id="path5" style="baseline-shift:baseline;block-progression:tb;color:#000000;direction:ltr;text-indent:0;text-align:start;enable-background:accumulate;text-transform:none;" fill="#f4f4f4" d="m201.47,0c-5.9206,0-11.771,0.2628-17.562,0.75l-0.6875,0.0625-0.1875,0.65625-11,37.312c-16.036,2.793-31.307,7.8097-45.469,14.75l-30.81-23.75-0.531-0.406-0.594,0.344c-10.06,6.089-19.563,13.027-28.406,20.687l-0.531,0.438,0.25,0.656,13.062,36.688c-11.077,11.446-20.583,24.402-28.125,38.592l-38.937-1.06-0.688-0.03-0.25,0.62c-4.5201,10.7-8.1647,21.88-10.844,33.41l-0.15625,0.66,0.5625,0.4,32.156,22.03c-1.093,7.8-1.719,15.78-1.719,23.88,0,8.0998,0.62593,16.046,1.7188,23.844l-32.156,22.03-0.5625,0.41,0.15625,0.65c2.679,11.54,6.3236,22.71,10.844,33.41l0.25,0.625,0.6875-0.0312,38.938-1.0625c7.5388,14.182,17.022,27.182,28.094,38.625l-13.031,36.656-0.25,0.65625,0.53125,0.4375c8.8437,7.661,18.344,14.599,28.406,20.688l0.59375,0.34375,0.53125-0.40625,30.812-23.75c14.162,6.9393,29.433,11.957,45.469,14.75l11,37.312,0.1875,0.65625,0.6875,0.0625c5.7921,0.4872,11.642,0.75,17.562,0.75,5.9206,0,11.771-0.2628,17.562-0.75l0.6875-0.0625,0.1875-0.65625,11-37.312c16.036-2.793,31.308-7.8097,45.469-14.75l30.812,23.75,0.53125,0.40625,0.59375-0.34375c10.061-6.0893,19.562-13.026,28.406-20.688l0.53-0.46-0.25-0.66-13.03-36.65c11.071-11.443,20.554-24.444,28.094-38.625l38.94,1.06,0.6875,0.0312,0.25-0.625c4.519-10.701,8.1657-21.874,10.844-33.406l0.15625-0.65625-0.5625-0.40625-32.156-22.031c1.0928-7.7979,1.7188-15.744,1.7188-23.844,0-8.0997-0.62503-16.077-1.7188-23.875l32.156-22.031,0.5625-0.40625-0.15625-0.65625c-2.678-11.532-6.3237-22.704-10.844-33.406l-0.25-0.625-0.6875,0.0312-38.938,1.0625c-7.54-14.16-17.05-27.116-28.12-38.562l13.06-36.688,0.25-0.65625-0.53125-0.4375c-8.8437-7.661-18.345-14.598-28.406-20.688l-0.59375-0.34375-0.53125,0.40625-30.812,23.75c-14.162-6.9403-29.432-11.957-45.469-14.75l-11-37.312-0.1875-0.65625-0.6875-0.0625c-5.79-0.48645-11.64-0.74925-17.56-0.74925zm0,2c5.6394,0,11.223,0.27033,16.75,0.71875l10.938,37.188,0.1875,0.59375,0.59375,0.125c16.282,2.7725,31.762,7.881,46.094,14.969l0.5625,0.28125,0.5-0.40625,30.75-23.656c9.56,5.827,18.59,12.419,27.04,19.686l-13,36.562-0.21875,0.59375,0.4375,0.4375c11.278,11.57,20.903,24.766,28.5,39.188l0.3125,0.53125h0.59375l38.844-1.0625c4.2642,10.194,7.7302,20.829,10.312,31.781l-32.031,21.938-0.53125,0.375,0.0937,0.59375c1.1404,7.9128,1.75,16.023,1.75,24.25,0,8.2273-0.61062,16.306-1.75,24.219l-0.0937,0.59375,0.53125,0.375,32.031,21.938c-2.5823,10.952-6.0492,21.588-10.312,31.781l-38.844-1.0625h-0.59375l-0.3125,0.53125c-7.5978,14.422-17.222,27.617-28.5,39.188l-0.4375,0.4375,0.21875,0.59375,13,36.562c-8.4441,7.2667-17.472,13.859-27.031,19.688l-30.75-23.656-0.5-0.40625-0.5625,0.28125c-14.331,7.0877-29.813,12.196-46.094,14.969l-0.59375,0.125-0.1875,0.59375-10.938,37.188c-5.527,0.44842-11.11,0.71875-16.75,0.71875-5.6403,0-11.222-0.27033-16.75-0.71875l-10.938-37.188-0.1875-0.59375-0.6-0.1c-16.28-2.77-31.76-7.88-46.09-14.97l-0.5625-0.28125-0.5,0.40625-30.75,23.656c-9.566-5.84-18.593-12.43-27.038-19.7l13-36.562,0.21875-0.59375-0.4375-0.4375c-11.278-11.57-20.903-24.765-28.5-39.188l-0.3125-0.53125h-0.625l-38.812,1.0625c-4.2654-10.19-7.7305-20.83-10.314-31.78l32.031-21.93,0.532-0.38-0.094-0.59c-1.139-7.92-1.75-16-1.75-24.22,0-8.2273,0.61062-16.337,1.75-24.25l0.09375-0.59375-0.53125-0.375-32.031-21.938c2.5825-10.96,6.0476-21.6,10.312-31.79l38.812,1.0625h0.625l0.3125-0.53125c7.5968-14.422,17.222-27.618,28.5-39.188l0.4375-0.4375-0.22-0.592-13-36.562c8.445-7.266,17.474-13.859,27.032-19.688l30.75,23.656,0.5,0.40625,0.5625-0.28125c14.34-7.087,29.82-12.196,46.1-14.968l0.59375-0.125,0.1875-0.59375,10.938-37.188c5.53-0.4477,11.11-0.718,16.75-0.718zm0,143.81c-33.604,0-60.875,27.272-60.875,60.875s27.272,60.844,60.875,60.844c33.604,0,60.875-27.239,60.875-60.844,0-33.604-27.271-60.875-60.875-60.875zm0,2c32.524,0,58.875,26.351,58.875,58.875s-26.351,58.844-58.875,58.844c-32.523,0-58.875-26.321-58.875-58.844s26.351-58.875,58.875-58.875z"/>
</g>
</svg>
