<?xml version="1.0" encoding="utf-8"?>
<!-- Generator: Adobe Illustrator 13.0.0, SVG Export Plug-In . SVG Version: 6.00 Build 14948)  -->
<!DOCTYPE svg [
	<!ENTITY ns_flows "http://ns.adobe.com/Flows/1.0/">
	<!ENTITY ns_extend "http://ns.adobe.com/Extensibility/1.0/">
	<!ENTITY ns_ai "http://ns.adobe.com/AdobeIllustrator/10.0/">
	<!ENTITY ns_graphs "http://ns.adobe.com/Graphs/1.0/">
	<!ENTITY ns_vars "http://ns.adobe.com/Variables/1.0/">
	<!ENTITY ns_imrep "http://ns.adobe.com/ImageReplacement/1.0/">
	<!ENTITY ns_sfw "http://ns.adobe.com/SaveForWeb/1.0/">
	<!ENTITY ns_custom "http://ns.adobe.com/GenericCustomNamespace/1.0/">
	<!ENTITY ns_adobe_xpath "http://ns.adobe.com/XPath/1.0/">
]>
<svg version="1.2" baseProfile="tiny" id="Layer_3" xmlns:x="&ns_extend;" xmlns:i="&ns_ai;" xmlns:graph="&ns_graphs;"
	 xmlns="http://www.w3.org/2000/svg" xmlns:xlink="http://www.w3.org/1999/xlink" xmlns:a="http://ns.adobe.com/AdobeSVGViewerExtensions/3.0/"
	 x="0px" y="0px" width="598.191px" height="350.257px" viewBox="0 0 598.191 350.257" xml:space="preserve">
<metadata>
	<sfw  xmlns="&ns_sfw;">
		<slices></slices>
		<sliceSourceBounds  x="804.974" y="378.561" width="315.891" height="316.885" bottomLeftOrigin="true"></sliceSourceBounds>
	</sfw>
</metadata>
<g>
	<path fill="#F4F4F4" d="M282.869,334.943l-3.683-0.437l-3.964-18.252c-3.448-0.651-6.845-1.433-10.191-2.33l0,0l-11.504,14.749
		l-3.501-1.204c-11.898-4.092-23.148-9.551-33.576-16.197l0,0l-3.118-1.991l4.356-18.189c-2.798-2.063-5.527-4.223-8.173-6.491l0,0
		l-16.764,8.286l-2.631-2.603c-8.843-8.739-16.653-18.524-23.248-29.135l0,0L164.915,258l11.824-14.503
		c-1.625-3.071-3.141-6.209-4.541-9.409l0,0l-18.732,0.189l-1.238-3.484c-4.11-11.548-6.938-23.723-8.271-36.335l0,0l-0.388-3.682
		l16.955-7.939c-0.07-1.718-0.113-3.453-0.115-5.209l0,0c0.002-1.759,0.045-3.497,0.115-5.214l0,0l-16.955-7.943l0.388-3.678
		c1.333-12.617,4.157-24.791,8.271-36.343l0,0l1.247-3.488l18.72,0.204c1.4-3.204,2.917-6.341,4.542-9.413l0,0L164.915,97.24
		l1.957-3.144c6.595-10.608,14.404-20.384,23.248-29.129l0,0l2.631-2.604l16.762,8.297c2.646-2.269,5.374-4.432,8.176-6.496l0,0
		l-4.356-18.192l3.118-1.988c10.418-6.646,21.674-12.109,33.572-16.197l0,0l3.497-1.203l11.514,14.753
		c3.348-0.896,6.746-1.675,10.192-2.326l0,0l3.969-18.261l3.674-0.436c6.097-0.72,12.315-1.13,18.645-1.13l0,0
		c6.325,0,12.535,0.41,18.626,1.121l0,0l3.678,0.436l3.972,18.265c3.444,0.651,6.843,1.427,10.191,2.322l0,0l11.504-14.748
		l3.505,1.203c11.901,4.092,23.158,9.551,33.585,16.201l0,0l3.116,1.988l-4.354,18.193c2.797,2.063,5.526,4.227,8.17,6.498l0,0
		l16.759-8.286l2.636,2.604c8.835,8.746,16.641,18.522,23.238,29.129l0,0l1.958,3.148l-11.815,14.504
		c1.628,3.074,3.141,6.214,4.539,9.417l0,0l18.722-0.208l1.245,3.49c4.117,11.556,6.947,23.721,8.279,36.338l0,0l0.394,3.678
		l-16.959,7.943c0.07,1.716,0.114,3.456,0.114,5.219l0,0c0,1.76-0.044,3.495-0.114,5.21l0,0l16.954,7.941l-0.389,3.682
		c-1.332,12.619-4.162,24.787-8.279,36.34l0,0l-1.245,3.485l-18.722-0.196c-1.4,3.198-2.917,6.339-4.541,9.415l0,0l11.817,14.502
		l-1.958,3.148c-6.598,10.601-14.403,20.38-23.238,29.119l0,0l-2.636,2.606l-16.763-8.288c-2.647,2.269-5.377,4.428-8.17,6.489l0,0
		l4.351,18.193l-3.119,1.987c-10.423,6.646-21.677,12.114-33.578,16.201l0,0l-3.501,1.204l-11.51-14.747
		c-3.349,0.898-6.745,1.677-10.189,2.328l0,0l-3.972,18.263l-3.68,0.432c-6.093,0.712-12.303,1.115-18.629,1.115l0,0
		C295.176,336.068,288.966,335.654,282.869,334.943L282.869,334.943z M301.505,325.689c4.631,0,9.213-0.233,13.751-0.66l0,0
		l3.878-17.835l3.489-0.568c5.389-0.876,10.668-2.089,15.834-3.615l0,0l3.386-1l11.24,14.405
		c8.668-3.223,16.954-7.237,24.772-11.955l0,0l-4.253-17.763l2.879-2.026c4.464-3.14,8.724-6.498,12.718-10.113l0,0l2.613-2.37
		l16.373,8.095c6.355-6.604,12.097-13.804,17.15-21.493l0,0L413.8,244.627l1.729-3.078c2.641-4.705,5.002-9.596,7.064-14.643l0,0
		l1.332-3.259l18.274,0.189c2.835-8.612,4.9-17.568,6.113-26.802l0,0l-16.563-7.761l0.211-3.514c0.16-2.735,0.274-5.438,0.274-8.124
		l0,0c0-2.691-0.114-5.399-0.274-8.13l0,0l-0.211-3.513l16.563-7.759c-1.213-9.235-3.278-18.187-6.113-26.802l0,0l-18.279,0.196
		l-1.331-3.264c-2.059-5.054-4.412-9.935-7.057-14.632l0,0l-1.737-3.083l11.54-14.167c-5.053-7.695-10.795-14.893-17.147-21.5l0,0
		l-16.368,8.089l-2.613-2.368c-4.006-3.626-8.262-6.989-12.711-10.116l0,0l-2.886-2.027l4.252-17.771
		c-7.816-4.713-16.104-8.724-24.779-11.949l0,0l-11.231,14.396l-3.383-0.993c-5.165-1.517-10.451-2.733-15.842-3.608l0,0
		l-3.489-0.57l-3.878-17.84c-4.537-0.427-9.12-0.663-13.746-0.663l0,0c-4.633,0-9.219,0.236-13.758,0.668l0,0l-3.874,17.841
		l-3.489,0.568c-5.399,0.88-10.686,2.095-15.844,3.614l0,0l-3.388,0.995l-11.237-14.403c-8.666,3.223-16.947,7.236-24.761,11.949
		l0,0l4.254,17.771l-2.893,2.027c-4.458,3.123-8.707,6.486-12.712,10.112l0,0l-2.623,2.368l-16.363-8.099
		c-6.355,6.605-12.101,13.8-17.152,21.493l0,0l11.544,14.167l-1.729,3.083c-2.644,4.708-5.007,9.59-7.063,14.636l0,0l-1.333,3.268
		l-18.28-0.2c-2.829,8.616-4.895,17.576-6.101,26.809l0,0l16.563,7.756l-0.212,3.521c-0.163,2.723-0.271,5.425-0.271,8.122l0,0
		c0,2.69,0.109,5.394,0.271,8.114l0,0l0.216,3.52l-16.566,7.764c1.207,9.226,3.276,18.186,6.102,26.8l0,0l18.283-0.19l1.333,3.268
		c2.052,5.035,4.416,9.923,7.059,14.632l0,0l1.729,3.08l-11.544,14.164c5.051,7.7,10.797,14.901,17.154,21.504l0,0l16.37-8.095
		l2.618,2.37c3.997,3.615,8.253,6.974,12.717,10.113l0,0l2.884,2.022l-4.253,17.769c7.814,4.713,16.096,8.723,24.763,11.948l0,0
		l11.234-14.404l3.388,1c5.166,1.519,10.445,2.743,15.831,3.613l0,0l3.493,0.561l3.879,17.842
		C292.295,325.451,296.877,325.689,301.505,325.689L301.505,325.689z M255.119,177.637c0.004-25.624,20.776-46.387,46.398-46.392
		l0,0c25.625,0.005,46.392,20.768,46.396,46.392l0,0c-0.004,25.631-20.771,46.392-46.396,46.396l0,0v-5.188v-5.192
		c19.889-0.034,35.979-16.118,36.014-36.015l0,0c-0.035-19.888-16.125-35.977-36.014-36.012l0,0
		c-19.887,0.036-35.98,16.124-36.015,36.012l0,0c0.035,19.896,16.128,35.98,36.015,36.015l0,0v5.192v5.188
		C275.895,224.029,255.123,203.268,255.119,177.637L255.119,177.637z"/>
</g>
</svg>
