<?xml version="1.0" encoding="UTF-8" standalone="no"?>
<!-- Generator: Adobe Illustrator 13.0.0, SVG Export Plug-In . SVG Version: 6.00 Build 14948)  -->
<svg id="Layer_3" xmlns:rdf="http://www.w3.org/1999/02/22-rdf-syntax-ns#" xmlns="http://www.w3.org/2000/svg" xml:space="preserve" height="266.68px" viewBox="0 0 609.543 266.684" width="609.54px" version="1.2" y="0px" x="0px" xmlns:cc="http://creativecommons.org/ns#" xmlns:dc="http://purl.org/dc/elements/1.1/"><metadata id="metadata83"><rdf:RDF><cc:Work rdf:about=""><dc:format>image/svg+xml</dc:format><dc:type rdf:resource="http://purl.org/dc/dcmitype/StillImage"/><dc:title/></cc:Work></rdf:RDF></metadata>
<path id="circle3" style="baseline-shift:baseline;block-progression:tb;color:#000000;direction:ltr;text-indent:0;text-align:start;enable-background:accumulate;text-transform:none;" fill="#f4f4f4" d="M96.438,71.156c-53.254,0-96.438,43.184-96.438,96.434,0,53.253,43.184,96.438,96.438,96.438,53.253,0,96.438-43.184,96.438-96.438,0-53.253-43.184-96.438-96.438-96.438zm0,2c52.172,0,94.438,42.265,94.438,94.438,0,52.172-42.265,94.438-94.438,94.438-52.177,0-94.442-42.26-94.442-94.44,0-52.17,42.265-94.434,94.438-94.434z"/>
<path id="circle5" style="baseline-shift:baseline;block-progression:tb;color:#000000;direction:ltr;text-indent:0;text-align:start;enable-background:accumulate;text-transform:none;" fill="#f4f4f4" d="m96.438,126.91c-22.456,0-40.688,18.231-40.688,40.688,0,22.456,18.231,40.688,40.688,40.688,22.456,0,40.688-18.231,40.688-40.688,0-22.456-18.231-40.688-40.688-40.688zm0,2c21.375,0,38.688,17.312,38.688,38.688,0,21.375-17.312,38.688-38.688,38.688-21.375,0-38.688-17.312-38.688-38.688,0-21.375,17.312-38.688,38.688-38.688z"/>
<path id="polygon7" style="baseline-shift:baseline;block-progression:tb;color:#000000;direction:ltr;text-indent:0;text-align:start;enable-background:accumulate;text-transform:none;" fill-rule="nonzero" d="m96.438,99.594-0.46875,1.8125-5.5625,21.094-0.15625,0.625,0.65625,0,11.094,0,0.65625,0-0.1875-0.625-5.5312-21.094-0.5-1.8125zm0,3.9062,4.9062,18.625-9.8125,0,4.9062-18.625z"/>
<path id="polygon9" style="baseline-shift:baseline;block-progression:tb;color:#000000;direction:ltr;text-indent:0;text-align:start;enable-background:accumulate;text-transform:none;" fill-rule="nonzero" d="m48.344,119.5,0.96875,1.625,10.969,18.844,0.34375,0.5625,0.4375-0.46875,7.875-7.8438l0.436-0.46-0.563-0.31-18.812-10.97-1.656-0.97zm2.75,2.75,16.656,9.7188-6.9062,6.9375-9.75-16.656z"/>
<path id="polygon11" style="baseline-shift:baseline;block-progression:tb;color:#000000;direction:ltr;text-indent:0;text-align:start;enable-background:accumulate;text-transform:none;" fill-rule="nonzero" d="m51.969,161.41-0.625,0.15625-21.062,5.5625-1.8438,0.46875,1.8438,0.46875,21.062,5.5625,0.625,0.15625,0-0.625,0-11.125,0-0.625zm-1,1.2812,0,9.8125-18.656-4.9062,18.656-4.9062z"/>
<path id="polygon13" style="baseline-shift:baseline;block-progression:tb;color:#000000;direction:ltr;text-indent:0;text-align:start;enable-background:accumulate;text-transform:none;" fill-rule="nonzero" d="m60.625,194.66-0.34375,0.5625-10.969,18.844-0.96875,1.625l1.657-0.96,18.812-10.97,0.5625-0.3125-0.4375-0.46875-7.875-7.8438-0.4375-0.46875zm0.21875,1.625,6.9062,6.9375-16.656,9.7188,9.75-16.656z"/>
<path id="polygon15" style="baseline-shift:baseline;block-progression:tb;color:#000000;direction:ltr;text-indent:0;text-align:start;enable-background:accumulate;text-transform:none;" fill-rule="nonzero" d="m90.25,212.06,0.15625,0.625,5.5625,21.094,0.46875,1.8125,0.5-1.8125,5.5312-21.094,0.1875-0.625-0.65625,0-11.094,0-0.65625,0zm1.2812,1,9.8125,0-4.9062,18.625-4.9062-18.625z"/>
<path id="polygon17" style="baseline-shift:baseline;block-progression:tb;color:#000000;direction:ltr;text-indent:0;text-align:start;enable-background:accumulate;text-transform:none;" fill-rule="nonzero" d="m132.28,194.66-0.46875,0.46875-7.8438,7.8438-0.46875,0.46875,0.5625,0.3125,18.844,10.969,1.625,0.96875-0.9375-1.625-11-18.844-0.3125-0.5625zm-0.21875,1.625,9.6875,16.625-16.625-9.6875,6.9375-6.9375z"/>
<path id="polygon19" style="baseline-shift:baseline;block-progression:tb;color:#000000;direction:ltr;text-indent:0;text-align:start;enable-background:accumulate;text-transform:none;" fill-rule="nonzero" d="m140.91,161.41,0,0.625,0,11.125,0,0.625,0.625-0.15625,21.094-5.5625,1.8438-0.46875-1.8438-0.46875-21.094-5.5625-0.625-0.15625zm1,1.2812,18.688,4.9062-18.688,4.9062,0-9.8125z"/>
<path id="polygon21" style="baseline-shift:baseline;block-progression:tb;color:#000000;direction:ltr;text-indent:0;text-align:start;enable-background:accumulate;text-transform:none;" fill-rule="nonzero" d="m144.53,119.5-1.625,0.96875-18.844,10.969-0.5625,0.3125,0.46875,0.46875,7.8438,7.8438,0.46875,0.46875,0.3125-0.5625,11-18.844,0.9375-1.625zm-2.7812,2.7812-9.6875,16.625-6.9375-6.9375,16.625-9.6875z"/>
<g id="g23" fill="#f4f4f4">
	<path id="circle25" style="baseline-shift:baseline;block-progression:tb;color:#000000;direction:ltr;text-indent:0;text-align:start;enable-background:accumulate;text-transform:none;" d="m304.94,87.938c-19.688,0-35.656,15.968-35.656,35.656s15.968,35.688,35.656,35.688,35.688-15.999,35.688-35.688c0-19.688-15.999-35.656-35.688-35.656zm0,2c18.607,0,33.688,15.049,33.688,33.656s-15.08,33.688-33.688,33.688c-18.607,0-33.656-15.08-33.656-33.688,0-18.607,15.049-33.656,33.656-33.656z"/>
	<path id="circle27" style="baseline-shift:baseline;block-progression:tb;color:#000000;direction:ltr;text-indent:0;text-align:start;enable-background:accumulate;text-transform:none;" d="m304.94,99.344c-13.382,0-24.25,10.868-24.25,24.25s10.868,24.25,24.25,24.25,24.25-10.868,24.25-24.25-10.868-24.25-24.25-24.25zm0,2c12.301,0,22.25,9.9487,22.25,22.25s-9.9487,22.25-22.25,22.25-22.25-9.9487-22.25-22.25,9.9487-22.25,22.25-22.25z"/>
</g>
<g id="g29" fill="#f4f4f4">
	<path id="circle31" style="baseline-shift:baseline;block-progression:tb;color:#000000;direction:ltr;text-indent:0;text-align:start;enable-background:accumulate;text-transform:none;" d="m395.44,87.938c-19.688,0-35.656,15.969-35.656,35.656,0,19.688,15.969,35.656,35.656,35.656,19.688,0,35.688-15.969,35.688-35.656,0-19.688-16-35.656-35.688-35.656zm0,2c18.607,0,33.688,15.05,33.688,33.656,0,18.607-15.081,33.656-33.688,33.656s-33.656-15.05-33.656-33.656c0-18.607,15.05-33.656,33.656-33.656z"/>
	<path id="circle33" style="baseline-shift:baseline;block-progression:tb;color:#000000;direction:ltr;text-indent:0;text-align:start;enable-background:accumulate;text-transform:none;" d="m395.44,99.344c-13.382,0-24.25,10.868-24.25,24.25s10.868,24.25,24.25,24.25,24.25-10.868,24.25-24.25-10.868-24.25-24.25-24.25zm0,2c12.301,0,22.25,9.9493,22.25,22.25s-9.9493,22.25-22.25,22.25-22.25-9.9493-22.25-22.25,9.9493-22.25,22.25-22.25z"/>
</g>
<g id="g35" fill="#f4f4f4">
	<path id="circle37" style="baseline-shift:baseline;block-progression:tb;color:#000000;direction:ltr;text-indent:0;text-align:start;enable-background:accumulate;text-transform:none;" d="m485.94,87.938c-19.688,0-35.656,15.969-35.656,35.656,0,19.688,15.969,35.656,35.656,35.656,19.688,0,35.688-15.969,35.688-35.656,0-19.688-16-35.656-35.688-35.656zm0,2c18.607,0,33.688,15.05,33.688,33.656,0,18.607-15.081,33.656-33.688,33.656s-33.656-15.05-33.656-33.656c0-18.607,15.05-33.656,33.656-33.656z"/>
	<path id="circle39" style="baseline-shift:baseline;block-progression:tb;color:#000000;direction:ltr;text-indent:0;text-align:start;enable-background:accumulate;text-transform:none;" d="m485.94,99.344c-13.382,0-24.25,10.868-24.25,24.25s10.868,24.25,24.25,24.25,24.25-10.868,24.25-24.25-10.868-24.25-24.25-24.25zm0,2c12.301,0,22.25,9.9487,22.25,22.25s-9.9487,22.25-22.25,22.25-22.25-9.9487-22.25-22.25,9.9487-22.25,22.25-22.25z"/>
</g>
<g id="g41" fill="#f4f4f4">
	<path id="circle43" style="baseline-shift:baseline;block-progression:tb;color:#000000;direction:ltr;text-indent:0;text-align:start;enable-background:accumulate;text-transform:none;" d="m573.88,0c-19.688,0-35.656,15.969-35.656,35.656,0,19.688,15.969,35.688,35.656,35.688,19.688,0,35.656-16,35.656-35.688-0.01-19.687-15.98-35.656-35.66-35.656zm0,2c18.607,0,33.656,15.05,33.656,33.656,0,18.607-15.05,33.688-33.656,33.688-18.607,0-33.656-15.081-33.656-33.688,0-18.606,15.05-33.656,33.66-33.656z"/>
	<path id="circle45" style="baseline-shift:baseline;block-progression:tb;color:#000000;direction:ltr;text-indent:0;text-align:start;enable-background:accumulate;text-transform:none;" d="m573.88,11.406c-13.382,0-24.25,10.868-24.25,24.25s10.868,24.281,24.25,24.281,24.25-10.899,24.25-24.281-10.868-24.25-24.25-24.25zm0,2c12.301,0,22.25,9.9487,22.25,22.25s-9.9487,22.281-22.25,22.281-22.25-9.98-22.25-22.281,9.9487-22.25,22.25-22.25z"/>
</g>
<g id="g47" fill="#f4f4f4">
	<path id="circle49" style="baseline-shift:baseline;block-progression:tb;color:#000000;direction:ltr;text-indent:0;text-align:start;enable-background:accumulate;text-transform:none;" d="m304.94,176.75c-19.688,0-35.656,15.999-35.656,35.688,0,19.688,15.968,35.656,35.656,35.656s35.688-15.968,35.688-35.656-15.999-35.688-35.688-35.688zm0,2c18.607,0,33.688,15.08,33.688,33.688,0,18.607-15.08,33.656-33.688,33.656-18.607,0-33.656-15.049-33.656-33.656s15.049-33.688,33.656-33.688z"/>
	<path id="circle51" style="baseline-shift:baseline;block-progression:tb;color:#000000;direction:ltr;text-indent:0;text-align:start;enable-background:accumulate;text-transform:none;" d="m304.94,188.19c-13.382,0-24.25,10.868-24.25,24.25s10.868,24.25,24.25,24.25,24.25-10.868,24.25-24.25-10.868-24.25-24.25-24.25zm0,2c12.301,0,22.25,9.9487,22.25,22.25s-9.9487,22.25-22.25,22.25-22.25-9.9487-22.25-22.25,9.9487-22.25,22.25-22.25z"/>
</g>
<g id="g53" fill="#f4f4f4">
	<path id="circle55" style="baseline-shift:baseline;block-progression:tb;color:#000000;direction:ltr;text-indent:0;text-align:start;enable-background:accumulate;text-transform:none;" d="m395.44,176.75c-19.688,0-35.656,16-35.656,35.688s15.969,35.656,35.656,35.656c19.688,0,35.688-15.969,35.688-35.656,0-19.688-16-35.688-35.688-35.688zm0,2c18.607,0,33.688,15.081,33.688,33.688s-15.081,33.656-33.688,33.656-33.656-15.05-33.656-33.656c0-18.607,15.05-33.688,33.656-33.688z"/>
	<path id="circle57" style="baseline-shift:baseline;block-progression:tb;color:#000000;direction:ltr;text-indent:0;text-align:start;enable-background:accumulate;text-transform:none;" d="m395.44,188.19c-13.382,0-24.25,10.868-24.25,24.25s10.868,24.25,24.25,24.25,24.25-10.868,24.25-24.25-10.868-24.25-24.25-24.25zm0,2c12.301,0,22.25,9.9493,22.25,22.25s-9.9493,22.25-22.25,22.25-22.25-9.9493-22.25-22.25,9.9493-22.25,22.25-22.25z"/>
</g>
<path id="circle59" style="baseline-shift:baseline;block-progression:tb;color:#000000;direction:ltr;text-indent:0;text-align:start;enable-background:accumulate;text-transform:none;" fill="#f4f4f4" d="m485.94,176.75c-19.688,0-35.656,16-35.656,35.688s15.969,35.656,35.656,35.656c19.688,0,35.688-15.969,35.688-35.656,0-19.688-16-35.688-35.688-35.688zm0,2c18.607,0,33.688,15.081,33.688,33.688s-15.081,33.656-33.688,33.656-33.656-15.05-33.656-33.656c0-18.607,15.05-33.688,33.656-33.688z"/>
<path id="circle61" style="baseline-shift:baseline;block-progression:tb;color:#000000;direction:ltr;text-indent:0;text-align:start;enable-background:accumulate;text-transform:none;" fill="#f4f4f4" d="m485.94,188.19c-13.382,0-24.25,10.868-24.25,24.25s10.868,24.25,24.25,24.25,24.25-10.868,24.25-24.25-10.868-24.25-24.25-24.25zm0,2c12.301,0,22.25,9.9487,22.25,22.25s-9.9487,22.25-22.25,22.25-22.25-9.9487-22.25-22.25,9.9487-22.25,22.25-22.25z"/>
<g id="g63" fill="#f4f4f4">
	<path id="line65" style="baseline-shift:baseline;block-progression:tb;color:#000000;direction:ltr;text-indent:0;text-align:start;enable-background:accumulate;text-transform:none;" d="m430.16,211.84,0,2,21.25,0,0-2-21.25,0z"/>
	<path id="line67" style="baseline-shift:baseline;block-progression:tb;color:#000000;direction:ltr;text-indent:0;text-align:start;enable-background:accumulate;text-transform:none;" d="m339.72,211.84,0,2,21.156,0,0-2-21.156,0z"/>
	<path id="polyline69" style="baseline-shift:baseline;block-progression:tb;color:#000000;direction:ltr;text-indent:0;text-align:start;enable-background:accumulate;text-transform:none;" d="m258.19,211.84,0,1,0,52.844,0,1,1,0,272.53,0,1,0,0-1,0-52.844,0-1-1,0-11.031,0,0,2,10.031,0,0,50.844-270.53,0,0-50.844,10.188,0,0-2-11.188,0-1,0z"/>
</g>
<g id="g71" fill="#f4f4f4">
	<path id="line73" style="baseline-shift:baseline;block-progression:tb;color:#000000;direction:ltr;text-indent:0;text-align:start;enable-background:accumulate;text-transform:none;" d="m430.16,123.5,0,2,21.25,0,0-2-21.25,0z"/>
	<path id="line75" style="baseline-shift:baseline;block-progression:tb;color:#000000;direction:ltr;text-indent:0;text-align:start;enable-background:accumulate;text-transform:none;" d="m339.72,123.5,0,2,21.156,0,0-2-21.156,0z"/>
	<path id="polyline77" style="baseline-shift:baseline;block-progression:tb;color:#000000;direction:ltr;text-indent:0;text-align:start;enable-background:accumulate;text-transform:none;" d="m258.19,70.656,0,1,0,52.844,0,1,1,0,11.188,0,0-2-10.188,0,0-50.844,270.53,0,0,50.844-10.031,0,0,2,11.031,0,1,0,0-1,0-52.844,0-1-1,0-272.53,0-1,0z"/>
</g>
</svg>
