<?xml version="1.0" encoding="UTF-8" standalone="no"?>
<svg
   xmlns:dc="http://purl.org/dc/elements/1.1/"
   xmlns:cc="http://creativecommons.org/ns#"
   xmlns:rdf="http://www.w3.org/1999/02/22-rdf-syntax-ns#"
   xmlns:svg="http://www.w3.org/2000/svg"
   xmlns="http://www.w3.org/2000/svg"
   xmlns:sodipodi="http://sodipodi.sourceforge.net/DTD/sodipodi-0.dtd"
   xmlns:inkscape="http://www.inkscape.org/namespaces/inkscape"
   viewBox="0 0 430.04346 223.68108"
   version="1.1"
   id="svg86"
   sodipodi:docname="controller.svg"
   inkscape:version="1.0.2 (e86c870879, 2021-01-15, custom)"
   width="430.04346"
   height="223.68108">
  <metadata
     id="metadata20">
    <rdf:RDF>
      <cc:Work
         rdf:about="">
        <dc:format>image/svg+xml</dc:format>
        <dc:type
           rdf:resource="http://purl.org/dc/dcmitype/StillImage" />
        <dc:title></dc:title>
      </cc:Work>
    </rdf:RDF>
  </metadata>
  <defs
     id="defs18" />
  <sodipodi:namedview
     pagecolor="#ffffff"
     bordercolor="#666666"
     borderopacity="1"
     objecttolerance="10"
     gridtolerance="10"
     guidetolerance="10"
     inkscape:pageopacity="0"
     inkscape:pageshadow="2"
     inkscape:window-width="3840"
     inkscape:window-height="2066"
     id="namedview16"
     showgrid="false"
     fit-margin-left="125"
     fit-margin-right="125"
     fit-margin-top="0"
     fit-margin-bottom="0"
     inkscape:zoom="25.720397"
     inkscape:cx="178.84466"
     inkscape:cy="165.08281"
     inkscape:window-x="-11"
     inkscape:window-y="-11"
     inkscape:window-maximized="1"
     inkscape:current-layer="svg86" />
  <path
     fill="#f4f4f4"
     d="m 212.78541,0.01361123 c -11.53,-0.04749998 -25.97933,-0.11630178 -39.34765,2.56054697 -13.36833,2.6768486 -25.73919,8.1294438 -32.83203,19.2343748 -1.91629,2.999533 -3.18385,6.050988 -5.46094,15.298828 -6.53622,26.537259 -7.73142,48.048405 -8.76563,68.855469 -1.29875,26.14116 -1.97174,43.59875 -0.69726,56.45899 1.27447,12.86023 4.56322,21.18373 11.09766,28.66601 h -0.002 c 0.48146,0.5523 0.9375,1.04297 0.9375,1.04297 l 0.004,0.004 0.002,0.002 c 8.12698,8.61796 19.50028,10.11341 26.4414,10.95312 19.29132,2.3337 30.30859,3.00586 30.30859,3.00586 25.03169,1.52576 37.33558,3.04466 44.87305,4.48438 16.2734,3.10758 18.01632,4.2548 24.76758,7.9414 0.25481,0.13923 0.82458,0.41314 1.73242,0.84375 0.90783,0.43062 2.08605,0.97826 3.32226,1.53321 2.47243,1.1099 5.04892,2.23309 6.53125,2.55078 0,0 8.15767,1.7048 17.36914,-4.13281 4.56977,-2.89592 7.37335,-9.27334 9.19532,-18.05664 1.82196,-8.78331 2.61561,-20.06247 2.75781,-32.96485 0.28439,-25.80475 -2.05637,-58.09406 -4.24024,-89.517577 -0.0821,-1.186799 -0.21308,-3.075827 -0.4707,-5.597656 -1.03208,-10.09209 -4.00842,-40.550272 -17.254,-56.716937 C 276.38542,8.3224886 267.31426,4.2253887 255.72291,2.1796269 244.13157,0.133865 229.96791,0.0846112 212.78541,0.01361123 Z m -0.008,2.00000007 c 17.18251,0.071 31.277,0.1367774 42.59766,2.1347656 11.32065,1.9979882 19.81533,5.8713721 26.13281,13.5820311 12.54643,15.313335 15.77854,45.560293 16.81055,55.652343 0.25438,2.490171 0.38485,4.348003 0.46679,5.533204 2.18414,31.427485 4.51723,63.692175 4.23438,89.357425 -0.14143,12.83262 -0.94073,24.01801 -2.7168,32.58008 -1.77607,8.56207 -4.57691,14.40985 -8.30664,16.77343 -8.62253,5.46439 -15.87891,3.86719 -15.87891,3.86719 -0.90666,-0.19431 -3.69223,-1.32432 -6.13281,-2.41992 -1.22029,-0.5478 -2.38679,-1.09043 -3.2832,-1.51563 -0.89642,-0.42519 -1.58917,-0.77019 -1.63086,-0.79297 h -0.002 c -6.73075,-3.67539 -9.00902,-5.02997 -25.34961,-8.15039 -7.67654,-1.46628 -20.05268,-2.98738 -45.125,-4.51562 h -0.002 c 0,0 -10.94278,-0.66779 -30.18945,-2.99609 -6.9111,-0.83608 -17.656,-2.31543 -25.22071,-10.33204 l -0.002,-0.002 c -0.001,-0.001 -0.003,-0.003 -0.004,-0.004 -0.005,-0.006 -0.4369,-0.47171 -0.89062,-0.99218 v -0.002 c -6.27424,-7.18453 -9.36293,-14.93317 -10.61296,-27.54669 -1.25002,-12.61352 -0.59512,-30.03126 0.70313,-56.16211 1.0338,-20.798937 2.22311,-42.127823 8.71289,-68.476563 2.26091,-9.182161 3.39741,-11.874706 5.20312,-14.701172 6.68416,-10.46507 18.45014,-15.728708 31.53907,-18.3496094 13.08892,-2.6209014 27.41726,-2.5689844 38.94726,-2.5214843 z"
     id="path52" />
  <path
     fill="#f4f4f4"
     d="m 247.59205,156.31244 c -6.70175,0 -12.15625,5.45449 -12.15625,12.15625 0,6.70176 5.4545,12.15625 12.15625,12.15625 6.70176,0 12.15625,-5.45449 12.15625,-12.15625 0,-6.70176 -5.45449,-12.15625 -12.15625,-12.15625 z m 0,2 c 5.62083,0 10.15625,4.53543 10.15625,10.15625 0,5.62082 -4.53542,10.15625 -10.15625,10.15625 -5.62082,0 -10.15625,-4.53543 -10.15625,-10.15625 0,-5.62082 4.53543,-10.15625 10.15625,-10.15625 z"
     id="path1623" />
  <path
     fill="#f4f4f4"
     d="m 278.88698,132.00775 c -6.70173,0 -12.15625,5.45452 -12.15625,12.15625 0,6.70174 5.45452,12.15625 12.15625,12.15625 6.70172,0 12.15625,-5.45451 12.15625,-12.15625 0,-6.70173 -5.45453,-12.15625 -12.15625,-12.15625 z m 0,2 c 5.62085,0 10.15625,4.5354 10.15625,10.15625 0,5.62086 -4.5354,10.15625 -10.15625,10.15625 -5.62085,0 -10.15625,-4.53539 -10.15625,-10.15625 0,-5.62085 4.5354,-10.15625 10.15625,-10.15625 z"
     id="path56" />
  <path
     fill="#f4f4f4"
     d="m 215.02174,24.597595 c -18.8161,0 -35.86829,5.705194 -48.26172,14.990235 -12.39342,9.28504 -20.14453,22.203884 -20.14453,36.509765 0,14.305882 7.75111,27.222775 20.14453,36.507815 12.39343,9.28504 29.44562,14.99219 48.26172,14.99219 18.8161,0 35.87025,-5.70715 48.26367,-14.99219 12.39343,-9.28504 20.14258,-22.201933 20.14258,-36.507815 0,-14.305881 -7.74915,-27.224725 -20.14258,-36.509765 -12.39342,-9.285041 -29.44757,-14.990235 -48.26367,-14.990235 z m 0,2 c 18.41121,0 35.06171,5.597495 47.06445,14.589844 12.00275,8.992349 19.3418,21.325639 19.3418,34.910156 0,13.584518 -7.33905,25.915855 -19.3418,34.908205 -12.00274,8.99235 -28.65324,14.5918 -47.06445,14.5918 -18.4112,0 -35.05975,-5.59945 -47.0625,-14.5918 -12.00275,-8.99235 -19.34375,-21.323687 -19.34375,-34.908205 0,-13.584517 7.341,-25.917807 19.34375,-34.910156 12.00275,-8.992349 28.6513,-14.589844 47.0625,-14.589844 z"
     id="path58" />
  <path
     fill="#f4f4f4"
     d="m 215.02369,43.347595 c -20.08177,0 -28.53204,0.173032 -35.54882,0.5 -4.03247,0.188035 -6.41147,0.358001 -7.93555,0.675782 -0.76204,0.15889 -1.33453,0.344478 -1.81445,0.716796 -0.47993,0.372319 -0.75311,1.002784 -0.78321,1.50586 -0.3777,6.253834 -0.31602,12.405104 -0.54492,28.710937 v 0.01563 0.01367 c 0.22892,16.305942 0.16713,22.457631 0.54492,28.71289 0.0305,0.50301 0.30328,1.1337 0.78321,1.50586 0.47993,0.37215 1.05242,0.55595 1.81445,0.71484 1.52405,0.31778 3.90358,0.48775 7.93555,0.67578 7.01579,0.32697 15.46705,0.50196 35.54882,0.50196 20.08178,0 28.5301,-0.17499 35.54688,-0.50196 4.03247,-0.18803 6.41342,-0.358 7.9375,-0.67578 0.76204,-0.15889 1.33453,-0.34252 1.81445,-0.71484 0.47993,-0.37232 0.75311,-1.00279 0.78321,-1.50586 0.37779,-6.254272 0.31405,-12.405948 0.54296,-28.71289 V 75.4726 75.45697 c -0.22891,-16.305941 -0.16517,-22.457631 -0.54296,-28.71289 -0.0305,-0.50301 -0.30328,-1.131753 -0.78321,-1.503907 -0.47993,-0.372153 -1.05438,-0.557909 -1.8164,-0.716796 -1.52406,-0.317776 -3.90358,-0.487747 -7.93555,-0.675782 -7.01579,-0.326969 -15.4651,-0.5 -35.54688,-0.5 z m 0,2 c 20.07023,0 28.47892,0.173016 35.45313,0.498047 4.00903,0.186965 6.38265,0.378494 7.62109,0.636719 0.61923,0.129112 0.93054,0.285544 0.99805,0.33789 0.0675,0.05235 0.007,-0.07057 0.0137,0.04492 0.37203,6.159798 0.31037,12.306869 0.53906,28.607422 -0.22864,16.299051 -0.16706,22.447105 -0.53906,28.605467 v 0.002 c -0.007,0.11542 0.0536,-0.009 -0.0137,0.043 -0.0673,0.0522 -0.37688,0.21073 -0.99609,0.33984 -1.23843,0.25822 -3.61352,0.4478 -7.62305,0.63477 -6.97522,0.32503 -15.3829,0.5 -35.45313,0.5 -20.07022,0 -28.48087,-0.17497 -35.45507,-0.5 -4.00903,-0.18697 -6.38265,-0.37654 -7.6211,-0.63477 -0.61922,-0.12911 -0.93054,-0.2875 -0.99804,-0.33984 -0.0675,-0.0524 -0.005,0.0706 -0.0117,-0.0449 -0.37183,-6.156531 -0.31276,-12.311329 -0.54102,-28.591893 v -0.01367 c -1.2e-4,-0.0089 1.3e-4,-0.0067 0,-0.01563 0.22826,-16.28156 0.16919,-22.436375 0.54102,-28.591797 0.007,-0.115424 -0.0555,0.0073 0.0117,-0.04492 0.0673,-0.05218 0.37883,-0.20878 0.99804,-0.33789 1.23843,-0.25822 3.61157,-0.449754 7.6211,-0.636719 6.97522,-0.325032 15.38485,-0.498047 35.45508,-0.498047 z"
     id="path60" />
  <path
     fill="#f4f4f4"
     d="m 170.6526,131.91596 c -15.5427,0 -28.16406,12.62135 -28.16406,28.16406 0,15.54271 12.62136,28.16406 28.16406,28.16406 15.5427,0 28.16406,-12.62135 28.16406,-28.16406 0,-15.54271 -12.62136,-28.16406 -28.16406,-28.16406 z m 0,2 c 14.46182,0 26.16406,11.70222 26.16406,26.16406 0,14.46183 -11.70224,26.16406 -26.16406,26.16406 -14.46182,0 -26.16406,-11.70223 -26.16406,-26.16406 0,-14.46184 11.70224,-26.16406 26.16406,-26.16406 z"
     id="path62" />
  <path
     fill="#f4f4f4"
     d="m 166.99245,134.664 c -2.5898,0.008 -4.70722,2.127 -4.71485,4.7168 v 12.11133 c -8.7e-4,0.12937 -0.085,0.21278 -0.21484,0.21289 h -12.10938 -0.002 c -2.58979,0.008 -4.70917,2.127 -4.71679,4.7168 v 0.002 7.31445 0.002 c 0.008,2.5898 2.127,4.70722 4.71679,4.71485 h 0.002 12.10938 c 0.13051,0 0.21289,0.0851 0.21289,0.21484 v 12.11133 c 0.008,2.58979 2.127,4.70917 4.7168,4.7168 h 0.002 7.31445 0.002 c 2.58979,-0.008 4.70721,-2.12701 4.71484,-4.7168 v -12.11133 c 0,-0.13051 0.0851,-0.21484 0.21484,-0.21484 h 12.11133 0.002 c 2.5898,-0.008 4.70722,-2.12505 4.71485,-4.71485 v -0.002 -7.31445 -0.002 c -0.008,-2.5898 -2.12505,-4.70918 -4.71485,-4.7168 h -0.002 -12.11133 c -0.13051,0 -0.21289,-0.0832 -0.21289,-0.21289 V 139.3808 c -0.008,-2.5898 -2.127,-4.70917 -4.71679,-4.7168 h -0.002 -7.31445 z m 0.004,2 h 7.30859 c 1.51308,0.004 2.7182,1.20957 2.72265,2.72266 v 12.10547 c 0,1.2103 1.00141,2.21289 2.21289,2.21289 h 12.10938 c 1.51151,0.005 2.71326,1.2092 2.71875,2.7207 v 7.3086 c -0.005,1.51308 -1.20762,2.71624 -2.7207,2.7207 h -12.10742 c -1.2103,0 -2.21484,1.00336 -2.21484,2.21484 v 12.10547 c -0.004,1.51243 -1.20659,2.71716 -2.71875,2.72266 h -7.30859 c -1.51309,-0.004 -2.71821,-1.20958 -2.72266,-2.72266 v -12.10547 c 0,-1.2103 -1.0014,-2.21484 -2.21289,-2.21484 h -12.10547 c -1.51243,-0.004 -2.71716,-1.20659 -2.72266,-2.71875 v -0.002 -7.30665 -0.002 c 0.005,-1.51216 1.21023,-2.71625 2.72266,-2.7207 h 12.10547 0.002 c 1.2101,-10e-4 2.21189,-1.00279 2.21289,-2.21289 v -12.10547 c 0.005,-1.51243 1.20659,-2.71716 2.71875,-2.72266 z"
     id="path64" />
  <path
     fill="#f4f4f4"
     d="m 170.6526,138.9765 c -0.64079,0 -1.28171,0.30299 -1.63281,0.91016 v 0.002 l -3.3418,5.78711 c -0.70174,1.21546 0.22933,2.82765 1.63282,2.82813 h 6.68164 0.002 c 1.40348,-4.8e-4 2.33455,-1.61267 1.63281,-2.82813 l -3.3418,-5.78711 v -0.002 c -0.3511,-0.60717 -0.99202,-0.91016 -1.63281,-0.91016 z m 0,2.08399 3.14258,5.44336 h -6.28516 z"
     id="path68" />
  <path
     fill="#f4f4f4"
     d="m 157.20143,154.86713 c -0.32216,-0.0105 -0.65121,0.0628 -0.95508,0.23828 l -5.78711,3.3418 c -1.21434,0.70219 -1.21434,2.56343 0,3.26562 l 5.78711,3.3418 c 1.21546,0.70174 2.82961,-0.22933 2.83008,-1.63281 v -6.6836 c -3.5e-4,-1.05261 -0.90853,-1.83952 -1.875,-1.87109 z m -0.125,2.06836 v 6.28906 l -5.44531,-3.14453 z"
     id="path72" />
  <path
     fill="#f4f4f4"
     d="m 184.10182,154.86713 c -0.96647,0.0316 -1.87465,0.81848 -1.875,1.87109 v 6.6836 c 4.7e-4,1.40348 1.61462,2.33455 2.83008,1.63281 l 5.78711,-3.3418 c 1.21434,-0.70219 1.21434,-2.56343 0,-3.26562 l -5.78711,-3.3418 c -0.30387,-0.17544 -0.63292,-0.24881 -0.95508,-0.23828 z m 0.125,2.06836 5.44531,3.14453 -5.44531,3.14453 z"
     id="path80" />
  <path
     fill="#f4f4f4"
     d="m 170.6526,154.20502 c -1.44097,0 -2.89538,0.47493 -4.01562,1.4707 -1.12025,0.99577 -1.85938,2.5293 -1.85938,4.4043 0,3.23283 2.64217,5.875 5.875,5.875 3.23283,0 5.875,-2.64217 5.875,-5.875 0,-1.875 -0.73913,-3.40853 -1.85937,-4.4043 -1.12025,-0.99577 -2.57466,-1.4707 -4.01563,-1.4707 z m 0,2 c 0.99653,0 1.97962,0.33757 2.6875,0.9668 0.70788,0.62922 1.1875,1.5332 1.1875,2.9082 0,2.15195 -1.72305,3.875 -3.875,3.875 -2.15195,0 -3.875,-1.72305 -3.875,-3.875 0,-1.375 0.47962,-2.27898 1.1875,-2.9082 0.70788,-0.62923 1.69097,-0.9668 2.6875,-0.9668 z"
     id="path82" />
  <path
     fill="#f4f4f4"
     d="m 280.32057,11.01947 c -1.73768,-0.01744 -2.13498,0.09948 -3.01758,0.164063 l -2.5,0.18164 1.9375,1.587891 c 1.74371,1.428692 3.34173,3.027402 4.76758,4.773437 v 0.002 c 10.38281,12.673994 14.42652,35.601724 16.05469,48.822265 l 1.99218,-0.113281 c 0.12866,-16.661297 -1.9017,-29.157729 -3.49609,-35.582031 -1.16445,-4.689408 -5.94286,-12.89639 -9.16797,-16.785157 h -0.002 c -0.88175,-1.062771 -2.03571,-2.375115 -3.97852,-2.851562 v -0.002 c -0.31086,-0.07594 -0.90222,-0.17992 -2.58984,-0.197266 z m -0.0195,2 c 1.62038,0.01666 1.92162,0.08856 2.13476,0.140625 1.3112,0.321553 2.06181,1.158318 2.91407,2.185547 2.93688,3.541234 7.79797,12.079595 8.76953,15.992188 1.00567,4.052556 2.15922,10.935329 2.84375,19.648437 -2.4315,-11.958088 -6.46287,-25.43624 -13.90625,-34.523437 l -0.002,-0.002 c -1.01722,-1.245451 -2.22672,-2.309552 -3.40039,-3.40625 0.25115,-0.0066 0.27262,-0.03891 0.64649,-0.03516 z"
     id="path84" />
  <path
     fill="#f4f4f4"
     d="m 170.65088,181.1834 c -0.64079,0 -1.28171,-0.30299 -1.63281,-0.91016 v -0.002 l -3.3418,-5.78711 c -0.70174,-1.21546 0.22933,-2.82765 1.63282,-2.82813 h 6.68164 0.002 c 1.40348,4.8e-4 2.33455,1.61267 1.63281,2.82813 l -3.3418,5.78711 v 0.002 c -0.3511,0.60717 -0.99202,0.91016 -1.63281,0.91016 z m 0,-2.08399 3.14258,-5.44336 h -6.28516 z"
     id="path68-1" />
</svg>
