<?xml version="1.0" encoding="utf-8"?>
<!-- Generator: Adobe Illustrator 13.0.0, SVG Export Plug-In . SVG Version: 6.00 Build 14948)  -->
<!DOCTYPE svg [
	<!ENTITY ns_flows "http://ns.adobe.com/Flows/1.0/">
	<!ENTITY ns_extend "http://ns.adobe.com/Extensibility/1.0/">
	<!ENTITY ns_ai "http://ns.adobe.com/AdobeIllustrator/10.0/">
	<!ENTITY ns_graphs "http://ns.adobe.com/Graphs/1.0/">
	<!ENTITY ns_vars "http://ns.adobe.com/Variables/1.0/">
	<!ENTITY ns_imrep "http://ns.adobe.com/ImageReplacement/1.0/">
	<!ENTITY ns_sfw "http://ns.adobe.com/SaveForWeb/1.0/">
	<!ENTITY ns_custom "http://ns.adobe.com/GenericCustomNamespace/1.0/">
	<!ENTITY ns_adobe_xpath "http://ns.adobe.com/XPath/1.0/">
]>
<svg version="1.2" baseProfile="tiny" id="Layer_3" xmlns:x="&ns_extend;" xmlns:i="&ns_ai;" xmlns:graph="&ns_graphs;"
	 xmlns="http://www.w3.org/2000/svg" xmlns:xlink="http://www.w3.org/1999/xlink" xmlns:a="http://ns.adobe.com/AdobeSVGViewerExtensions/3.0/"
	 x="0px" y="0px" width="598.191px" height="350.257px" viewBox="0 0 598.191 350.257" xml:space="preserve">
<metadata>
	<sfw  xmlns="&ns_sfw;">
		<slices></slices>
		<sliceSourceBounds  height="327.471" width="320.334" y="371.862" x="799.52" bottomLeftOrigin="true"></sliceSourceBounds>
	</sfw>
</metadata>
<path fill="#F4F4F4" d="M213.512,223.378l0.833-1.75c19.309,19.472,44.469,31.342,73.396,33.873l0,0l-0.174,1.992
	c-29.413-2.573-55.822-15.645-75.446-35.439L213.512,223.378z"/>
<path fill="#F4F4F4" d="M309.823,255.411c40.525-3.888,74.924-27.606,93.354-61.782l0,0h0.002l1.971,0.505
	c-18.737,34.747-53.924,59.312-95.135,63.27l0,0L309.823,255.411L309.823,255.411z"/>
<path fill="#F4F4F4" d="M414.846,162.212c1.93-8.52,2.77-16.479,2.77-25.584l0,0c0-0.912,0.085-0.842,0.063-1.75l0,0h0.003
	l1.901-1.023c0.021,0.92,0.031,1.846,0.031,2.772l0,0c0.002,9.254-1.035,18.268-2.998,26.931l0,0L414.846,162.212L414.846,162.212z"
	/>
<path fill="#F4F4F4" d="M298.284,17.295c-47.264,0-88.025,27.066-107.355,66.915l0,0v0.002l-1.879-0.467
	c19.651-40.516,61.181-68.45,109.234-68.45l0,0c57.373,0.002,105.446,39.819,118.086,93.337l0,0l-2.358-0.837
	C401.581,55.168,354.71,17.292,298.284,17.295L298.284,17.295z"/>
<path fill="#F4F4F4" d="M179.492,161.454l1.937,0.09c1.335,6.422,2.511,10.918,4.833,16.917l0,0l-1.168,1.961
	C182.732,174.323,180.85,167.985,179.492,161.454L179.492,161.454z"/>
<path fill="#F4F4F4" d="M240.283,130.962c0-21.668,0-99.667,0-99.667l0,0h2c0,0,0,19.5,0,41.709l0,0c0,22.206,0,47.125,0,57.958l0,0
	c0,15.468,6.267,29.46,16.402,39.598l0,0c10.138,10.135,24.132,16.401,39.598,16.401l0,0c15.466,0,29.46-6.267,39.598-16.401l0,0
	c10.136-10.138,16.402-24.132,16.402-39.598l0,0c0-23.167,0-100.166,0-100.166l0,0h2.001c-0.002,0.013-0.002,4.811,0,12.392l0,0
	c-0.002,7.581-0.002,17.929,0,29.002l0,0c-0.002,22.146-0.002,47.187,0,58.771l0,0c-0.002,32.034-25.97,58-58.001,58l0,0
	C266.249,188.961,240.283,162.996,240.283,130.962L240.283,130.962z"/>
<path fill="#F4F4F4" d="M266.534,144.503c-2.763,0-5.001-2.238-5.001-5.001l0,0V82.837c0-2.763,2.238-5.001,5.001-5.001l0,0h63.499
	c2.763,0,4.999,2.238,5.001,5.001l0,0v56.665h-0.002c0,2.763-2.236,5.001-4.999,5.001l0,0H266.534L266.534,144.503z M263.534,82.837
	v56.665c0.002,1.656,1.344,2.999,3,3l0,0h63.499c1.656-0.002,2.996-1.344,3.001-3l0,0h-0.002l0.002-56.665
	c-0.005-1.658-1.345-2.998-3.001-3.002l0,0h-63.499C264.877,79.839,263.536,81.179,263.534,82.837L263.534,82.837z"/>
<path fill="#F4F4F4" d="M263.974,148.438c-2.33-0.82-3.748-1.38-4.555-2.029l0,0c-1.626-1.626-2.636-3.882-2.636-6.363l0,0V81.753
	c0-2.483,1.01-4.739,2.694-6.417l0,0c0.75-0.595,2.167-1.157,4.498-1.977l0,0c2.298-0.787,5.359-1.694,8.913-2.554l0,0
	c7.109-1.721,16.175-3.26,24.959-3.26l0,0c11.596,0.004,25.542,2.857,32.836,4.884l0,0c2.455,0.692,4.07,1.225,4.903,1.71l0,0
	c2.521,1.593,4.195,4.409,4.198,7.613l0,0v58.292c-0.003,3.202-1.678,6.021-4.215,7.622l0,0c-0.816,0.477-2.432,1.008-4.887,1.702
	l0,0c-2.432,0.676-5.603,1.442-9.179,2.165l0,0c-7.155,1.444-15.927,2.717-23.658,2.719l0,0
	C284.671,154.248,270.858,150.795,263.974,148.438L263.974,148.438z M264.623,75.252c-2.192,0.731-3.75,1.475-3.789,1.551l0,0
	c-1.269,1.271-2.049,3.014-2.051,4.95l0,0v58.292c0.002,1.936,0.783,3.677,1.994,4.895l0,0c0.097,0.13,1.655,0.876,3.847,1.607l0,0
	c2.227,0.763,5.237,1.655,8.735,2.502l0,0c6.993,1.692,15.937,3.205,24.488,3.205l0,0c11.276,0.004,25.169-2.824,32.299-4.812l0,0
	c2.354-0.645,4.056-1.267,4.37-1.476l0,0c1.965-1.244,3.267-3.427,3.267-5.921l0,0V81.753c0-2.496-1.302-4.68-3.25-5.913l0,0
	c-0.331-0.219-2.033-0.841-4.387-1.485l0,0c-2.376-0.661-5.506-1.417-9.038-2.132l0,0c-7.063-1.428-15.745-2.68-23.261-2.678l0,0
	c-0.012,0-0.023,0-0.035,0l0,0C284.996,69.545,271.302,72.957,264.623,75.252L264.623,75.252z"/>
<path fill="#F4F4F4" d="M393.844,123.003c0.002-7.387,5.989-13.375,13.377-13.375l0,0c7.386,0,13.373,5.988,13.375,13.375l0,0
	c-0.002,7.386-5.989,13.374-13.375,13.375l0,0C399.833,136.377,393.846,130.389,393.844,123.003L393.844,123.003z M395.846,123.003
	c0.011,6.282,5.093,11.362,11.375,11.375l0,0c6.281-0.012,11.361-5.092,11.374-11.375l0,0c-0.013-6.282-5.093-11.364-11.374-11.374
	l0,0C400.938,111.64,395.856,116.722,395.846,123.003L395.846,123.003z"/>
<path fill="#F4F4F4" d="M393.844,177.253c0.002-7.388,5.989-13.375,13.377-13.375l0,0c7.386,0,13.373,5.987,13.375,13.375l0,0
	c-0.002,7.385-5.989,13.373-13.375,13.375l0,0C399.833,190.626,393.846,184.638,393.844,177.253L393.844,177.253z M395.846,177.253
	c0.011,6.279,5.093,11.363,11.375,11.374l0,0c6.279-0.011,11.361-5.095,11.374-11.374l0,0c-0.013-6.282-5.093-11.364-11.374-11.375
	l0,0C400.938,165.889,395.856,170.972,395.846,177.253L395.846,177.253z"/>
<path fill="#F4F4F4" d="M365.344,149.504c0.002-7.389,5.99-13.375,13.377-13.377l0,0c7.386,0.002,13.373,5.99,13.375,13.377l0,0
	c-0.002,7.385-5.989,13.373-13.375,13.375l0,0C371.332,162.877,365.346,156.889,365.344,149.504L365.344,149.504z M367.346,149.504
	c0.011,6.281,5.094,11.362,11.375,11.373l0,0c6.279-0.01,11.362-5.092,11.373-11.373l0,0c-0.011-6.283-5.092-11.365-11.373-11.375
	l0,0C372.438,138.139,367.356,143.221,367.346,149.504L367.346,149.504z"/>
<path fill="#F4F4F4" d="M420.344,149.503c0-7.388,5.99-13.374,13.376-13.376l0,0c7.387,0.002,13.374,5.988,13.376,13.376l0,0
	c-0.002,7.386-5.989,13.374-13.376,13.376l0,0C426.332,162.877,420.344,156.889,420.344,149.503L420.344,149.503z M422.345,149.503
	c0.011,6.281,5.095,11.363,11.375,11.375l0,0c6.281-0.013,11.363-5.094,11.373-11.375l0,0c-0.01-6.283-5.092-11.365-11.373-11.375
	l0,0C427.438,138.138,422.355,143.22,422.345,149.503L422.345,149.503z"/>
<g>
	<path fill="#F4F4F4" d="M191.722,342.766c-2.901-0.075-5.144-2.525-6.707-4.33l0,0c-13.808-16.521-25.661-42.857-30.04-61.243l0,0
		c-3.166-13.334-16.86-66.769-16.86-132.398l0,0c0-18.782,3.224-34.483,6.684-45.828l0,0c3.439-11.247,7.036-18.132,8.122-19.737
		l0,0c0.627-1.135,1.617-2.036,2.818-2.55l0,0c0.727-0.348,2.667-1.014,5.65-1.958l0,0c3.015-0.95,6.999-2.136,11.411-3.34l0,0
		c8.83-2.411,19.353-4.901,27.293-5.748l0,0h0.002l0.209,1.989c-11.597,1.229-29.36,6.18-38.315,9.006l0,0
		c-2.96,0.93-5.058,1.679-5.383,1.854l0,0l-0.04,0.019l-0.025,0.011c-0.806,0.34-1.473,0.95-1.886,1.716l0,0l-0.027,0.05
		l-0.034,0.048c-0.797,1.123-4.489,8.062-7.882,19.223l0,0c-3.411,11.186-6.596,26.693-6.596,45.245l0,0
		c0,65.37,13.638,118.603,16.806,131.935l0,0c4.271,18.033,16.104,44.277,29.626,60.423l0,0c1.408,1.741,3.613,3.691,5.173,3.614
		l0,0c0.657-0.011,1.278-0.23,2.035-1.049l0,0c0.743-0.818,1.54-2.27,2.236-4.551l0,0c3.147-10.256,8.152-32.624,14.01-49.861l0,0
		c5.886-17.318,21.102-43.045,23.045-47.11l0,0l1.802,0.866c-2.056,4.268-17.175,29.872-22.955,46.888l0,0
		c-5.809,17.098-10.802,39.396-13.991,49.806l0,0c-0.753,2.45-1.63,4.153-2.664,5.304l0,0c-1.013,1.139-2.262,1.707-3.479,1.707l0,0
		C191.749,342.766,191.735,342.766,191.722,342.766L191.722,342.766z"/>
	<path fill="#F4F4F4" d="M401.322,341.059c-1.036-1.15-1.911-2.854-2.664-5.306l0,0c-3.185-10.408-8.178-32.706-13.989-49.804l0,0
		c-5.777-17.016-20.898-42.62-22.955-46.888l0,0l1.803-0.866c1.942,4.065,17.158,29.792,23.045,47.11l0,0
		c5.857,17.237,10.865,39.605,14.01,49.864l0,0c0.696,2.28,1.491,3.729,2.234,4.548l0,0c0.755,0.818,1.378,1.038,2.036,1.049l0,0
		c1.562,0.075,3.767-1.873,5.174-3.614l0,0c13.525-16.146,25.354-42.39,29.626-60.423l0,0
		c3.168-13.332,16.807-66.565,16.807-131.935l0,0c0.002-18.552-3.185-34.059-6.596-45.245l0,0
		c-3.393-11.161-7.083-18.1-7.882-19.223l0,0l-0.036-0.05l-0.025-0.048c-0.411-0.766-1.08-1.376-1.948-1.746l0,0
		c-0.327-0.176-2.424-0.925-5.386-1.854l0,0c-2.987-0.942-6.95-2.121-11.337-3.319l0,0c-8.769-2.396-19.252-4.867-26.979-5.687l0,0
		l0.212-1.989c11.901,1.271,29.655,6.239,38.706,9.088l0,0c3.039,0.963,4.999,1.636,5.626,1.949l0,0
		c1.211,0.513,2.211,1.418,2.84,2.561l0,0c1.087,1.606,4.686,8.491,8.122,19.736l0,0c3.459,11.345,6.684,27.046,6.684,45.828l0,0
		c0,65.629-13.695,119.064-16.86,132.398l0,0c-4.377,18.386-16.231,44.723-30.04,61.243l0,0c-1.563,1.805-3.806,4.255-6.707,4.33
		l0,0c-0.013,0-0.026,0-0.04,0l0,0C403.583,342.766,402.335,342.198,401.322,341.059L401.322,341.059z"/>
</g>
<path fill="#F4F4F4" d="M298.282,283.961c-34.572,0-66.163,5.211-90.265,13.782l0,0v0.002l-0.67-1.886
	c24.378-8.668,56.161-13.896,90.935-13.896l0,0c34.808,0,66.621,5.239,91.01,13.923l0,0l-0.672,1.883
	C364.506,289.182,332.888,283.961,298.282,283.961L298.282,283.961z"/>
<path fill="#F4F4F4" d="M314.615,256.207h0.003l1.647-1.132c3.55,5.177,5.942,11.855,6.665,19.273l0,0l-1.991,0.193
	C320.25,267.434,317.951,261.065,314.615,256.207L314.615,256.207z"/>
<path fill="#F4F4F4" d="M273.633,274.369c0.72-7.416,3.109-14.095,6.654-19.273l0,0l1.65,1.128
	c-3.331,4.862-5.626,11.231-6.313,18.337l0,0v0.002L273.633,274.369L273.633,274.369z"/>
<path fill="#F4F4F4" d="M298.198,270.392c-7.576-0.013-13.408-0.84-14.466-1.129l0,0c-1.079-0.338-1.862-1.337-1.886-2.523l0,0
	c0-0.01,0-0.02,0-0.028l0,0c0-0.029,0-0.029,0-0.029l0,0c0-0.298,0.05-0.591,0.133-0.828l0,0c0.258-0.807,2.616-6.659,6.147-12.853
	l0,0c2.296-4.012,5.376-8.46,7.044-10.66l0,0c0.591-0.762,0.877-1.16,1.2-1.433l0,0c0.45-0.408,1.046-0.667,1.692-0.694l0,0
	c0.066-0.008,0.112-0.006,0.14-0.005l0,0c0.001,0,0.002,0,0.003,0l0,0c0.672,0.008,1.293,0.267,1.774,0.699l0,0
	c0.427,0.416,1.655,1.94,3.309,4.155l0,0c1.624,2.189,3.557,4.953,5.075,7.545l0,0c1.514,2.587,2.984,5.553,4.104,7.996l0,0
	c1.057,2.327,1.771,4.029,1.997,4.821l0,0c0.16,0.344,0.253,0.729,0.251,1.135l0,0v0.999h-0.188
	c-0.369,0.933-1.244,1.609-2.291,1.691l0,0v0.001c-0.634,0.048-6.979,1.14-14.02,1.14l0,0
	C298.212,270.392,298.205,270.392,298.198,270.392L298.198,270.392z M283.846,266.697c0,0.31,0.206,0.569,0.464,0.65l0,0
	c0.522,0.167,6.553,1.057,13.888,1.044l0,0c6.915-0.002,12.973-1.054,13.876-1.133l0,0l0.083,0.998l-0.075-0.998
	c0.351-0.025,0.636-0.325,0.637-0.687l0,0c-0.002-0.015-0.003-0.033-0.002-0.059l0,0c-0.007-0.094-0.032-0.182-0.075-0.264l0,0
	l-0.064-0.123l-0.029-0.137c-0.021-0.177-0.807-2.194-1.896-4.551l0,0c-1.1-2.397-2.55-5.322-4.012-7.819l0,0
	c-1.46-2.491-3.358-5.214-4.956-7.362l0,0c-1.57-2.125-2.955-3.796-3.05-3.875l0,0c-0.117-0.101-0.255-0.162-0.416-0.173l0,0
	l-0.044,0.001c-0.171,0.002-0.324,0.063-0.5,0.211l0,0l0,0.001c0,0,0.001,0.001-0.007,0.008l0,0
	c-0.009,0.01-0.023,0.025-0.041,0.044l0,0c-0.048,0.052-0.119,0.133-0.202,0.233l0,0c-0.168,0.203-0.395,0.49-0.662,0.842l0,0
	c-0.534,0.705-1.233,1.67-2.009,2.783l0,0c-1.549,2.229-3.407,5.065-4.892,7.663l0,0c-3.434,5.994-5.829,11.961-5.983,12.482l0,0
	c-0.019,0.053-0.029,0.104-0.034,0.164l0,0V266.697L283.846,266.697z"/>
<path fill="#F4F4F4" d="M199.839,226.259c-4.125,0-8.065-0.817-11.659-2.301l0,0l-0.499-0.206l-0.102-0.53l-0.076-0.391
	l0.002-14.795h-14.813l-0.879-0.056l-0.24-0.575c-1.494-3.605-2.319-7.561-2.319-11.7l0,0c0-4.123,0.817-8.058,2.298-11.648l0,0
	l0.126-0.309l0.288-0.171l0.345-0.205h15.194v-15.19l0.188-0.261l0.331-0.457l0.263-0.11c3.614-1.506,7.406-2.263,11.551-2.261l0,0
	c4.123,0,8.06,0.817,11.65,2.298l0,0l0.443,0.182l0.137,0.459l0.104,0.346v14.993h15.262l0.296,0.311l0.308,0.322l0.072,0.174
	c1.512,3.614,2.313,7.362,2.311,11.526l0,0c0,4.11-0.813,8.036-2.286,11.621l0,0l-0.085,0.209l-0.174,0.155l-0.387,0.348
	l-15.318-0.002v15.062l-0.145,0.238l-0.294,0.488l-0.302,0.126c-3.611,1.508-7.423,2.309-11.577,2.309l0,0
	C199.85,226.259,199.845,226.259,199.839,226.259L199.839,226.259z M199.839,224.259c3.719,0,7.094-0.672,10.333-1.955l0,0v-14.638
	c-0.013-0.437,0.149-0.982,0.569-1.306l0,0c0.412-0.313,0.803-0.318,1.03-0.324l0,0h14.727c1.242-3.203,1.924-6.686,1.924-10.331
	l0,0c-0.002-3.749-0.679-7.073-1.984-10.335l0,0h-14.619v-0.999v-0.556v0.556v0.999c-0.405,0.015-0.97-0.141-1.301-0.581l0,0
	c-0.318-0.429-0.339-0.84-0.345-1.171l0,0V169.02c-3.206-1.243-6.687-1.925-10.333-1.925l0,0c-3.733,0-7.093,0.641-10.335,1.924l0,0
	v14.585c-0.006,0.333-0.021,0.736-0.333,1.173l0,0c-0.329,0.449-0.904,0.61-1.307,0.594l0,0H173.18
	c-1.242,3.205-1.924,6.688-1.924,10.335l0,0c0,3.646,0.681,7.128,1.925,10.333l0,0h14.698c0.491-0.023,1.082,0.219,1.357,0.655l0,0
	c0.273,0.418,0.263,0.776,0.269,0.956l0,0v14.684C192.709,223.578,196.191,224.259,199.839,224.259L199.839,224.259z
	 M211.819,183.519v-0.146V183.519L211.819,183.519z"/>
<path fill="#F4F4F4" d="M191.462,195.676c0.002-4.625,3.75-8.373,8.376-8.376l0,0c4.625,0.003,8.374,3.751,8.376,8.376l0,0
	c-0.002,4.626-3.75,8.374-8.376,8.376l0,0C195.213,204.05,191.464,200.302,191.462,195.676L191.462,195.676z M193.464,195.676
	c0.006,3.52,2.853,6.369,6.375,6.375l0,0c3.522-0.006,6.369-2.855,6.375-6.375l0,0c-0.006-3.521-2.853-6.368-6.375-6.374l0,0
	C196.317,189.308,193.47,192.155,193.464,195.676L193.464,195.676z"/>
<path fill="#F4F4F4" d="M142.471,121.69c0-20.332,16.481-36.813,36.813-36.813l0,0c20.332,0,36.812,16.481,36.812,36.813l0,0
	c0,20.332-16.48,36.813-36.812,36.813l0,0C158.952,158.502,142.471,142.021,142.471,121.69L142.471,121.69z M154.667,97.075
	c-6.302,6.302-10.196,15-10.196,24.615l0,0c0,9.616,3.894,18.313,10.196,24.618l0,0c6.303,6.3,15,10.194,24.616,10.194l0,0
	c9.616,0,18.313-3.894,24.615-10.194l0,0c6.303-6.305,10.197-15.001,10.197-24.618l0,0c0-9.616-3.894-18.313-10.197-24.615l0,0
	c-6.303-6.303-15-10.197-24.615-10.197l0,0C169.667,86.878,160.97,90.772,154.667,97.075L154.667,97.075z"/>
<path fill="#F4F4F4" d="M153.596,121.69c0-14.188,11.5-25.686,25.688-25.688l0,0c14.186,0.002,25.686,11.5,25.686,25.688l0,0
	c0,14.187-11.5,25.687-25.686,25.688l0,0C165.096,147.377,153.596,135.877,153.596,121.69L153.596,121.69z M155.595,121.69
	c0.022,13.082,10.605,23.664,23.689,23.687l0,0c13.082-0.022,23.662-10.604,23.687-23.687l0,0
	c-0.025-13.082-10.605-23.664-23.687-23.687l0,0C166.2,98.027,155.618,108.609,155.595,121.69L155.595,121.69z"/>
</svg>
