<?xml version="1.0" encoding="utf-8"?><!-- Generator: Adobe Illustrator 16.0.0, SVG Export Plug-In . SVG Version: 6.00 Build 0) --><!DOCTYPE svg PUBLIC "-//W3C//DTD SVG 1.1//EN" "http://www.w3.org/Graphics/SVG/1.1/DTD/svg11.dtd"><svg version="1.1" id="Layer_1" xmlns:sketch="http://www.bohemiancoding.com/sketch/ns" xmlns="http://www.w3.org/2000/svg" xmlns:xlink="http://www.w3.org/1999/xlink" x="0px" y="0px" width="3086px" height="1000px" viewBox="0 0 3086 1000" enable-background="new 0 0 3086 1000" xml:space="preserve"><title>plex-logo-light</title><desc>Created with Sketch.</desc><path id="X" sketch:type="MSShapeGroup" fill="#494949" d="M3085.99,0h-290.001L2505.99,500l289.999,500h289.748l-289.748-499.75	L3085.99,0"/><radialGradient id="chevron_1_" cx="1244.3508" cy="920.0811" r="0.925" gradientTransform="matrix(610 0 0 -1000.5 -756323.625 921038.75)" gradientUnits="userSpaceOnUse"><stop offset="0" style="stop-color:#F9BE03"/><stop offset="1" style="stop-color:#CC7C19"/></radialGradient><path id="chevron" sketch:type="MSShapeGroup" fill="url(#chevron_1_)" d="M2186,0h290l320,500.25l-320,500.25h-290l319.999-500.25	L2186,0"/><path id="E" sketch:type="MSShapeGroup" fill="#494949" d="M2085.947,1000h-577.073V0h577.073v173.737h-364.607v219.562h339.255	V567.03h-339.255v257.864h364.607V1000"/><path id="L" sketch:type="MSShapeGroup" fill="#494949" d="M791.276,1000V0h212.04v824.895h405.609V1000H791.276"/><path id="Path" fill="#494949" d="M589.947,558.824c-67.268,57.007-162.91,85.501-286.938,85.501H212.04V1000H0V643.948v-173.61	l290,0.359c177.562-2.069,186.842-110.818,186.842-148.497c0-34.979,0-146.755-157.842-148.5L0,173.703V0h319.424	c121.293,0,213.515,26.107,276.677,78.321c63.152,52.213,94.733,130.071,94.733,233.581	C690.834,419.527,657.201,501.83,589.947,558.824z"/><rect id="Path_1_" x="0" y="110" fill="#494949" width="212.2" height="429"/></svg>