<?xml version="1.0" encoding="UTF-8" standalone="no"?>
<svg
   xmlns:dc="http://purl.org/dc/elements/1.1/"
   xmlns:cc="http://creativecommons.org/ns#"
   xmlns:rdf="http://www.w3.org/1999/02/22-rdf-syntax-ns#"
   xmlns:svg="http://www.w3.org/2000/svg"
   xmlns="http://www.w3.org/2000/svg"
   id="svg8"
   version="1.1"
   viewBox="0 0 315 100"
   height="100mm"
   width="315mm">
  <defs
     id="defs2" />
  <metadata
     id="metadata5">
    <rdf:RDF>
      <cc:Work
         rdf:about="">
        <dc:format>image/svg+xml</dc:format>
        <dc:type
           rdf:resource="http://purl.org/dc/dcmitype/StillImage" />
        <dc:title></dc:title>
      </cc:Work>
    </rdf:RDF>
  </metadata>
  <g
     transform="translate(0,-197)"
     id="layer1">
    <g
       style="fill:#0895FF"
       transform="translate(-0.37417734,2.4266454)"
       id="g163">
      <path
         style="fill:#0895FF;stroke-width:0.26458332"
         d="m 221.05006,294.16809 c -0.097,-0.097 -0.17639,-7.18123 -0.17639,-15.74271 v -15.56632 h 5.15937 5.15938 v 15.74271 15.74271 h -4.98298 c -2.74065,0 -5.06237,-0.0794 -5.15938,-0.17639 z m -213.882652,-0.2923 -5.082305,-0.0718 -0.180448,-0.96186 c -0.301972,-1.60966 0.166785,-22.17925 0.566208,-24.84585 0.877409,-5.85769 3.087264,-10.4505 6.8684323,-14.27488 2.6599407,-2.69034 4.5934837,-4.0553 7.5635317,-5.33937 3.769801,-1.62985 5.635828,-1.97342 11.527273,-2.12241 9.847842,-0.24904 15.342698,0.71278 19.90483,3.48413 1.857095,1.12812 5.070769,4.04731 5.858166,5.32134 0.31097,0.50316 0.707308,0.91484 0.880756,0.91484 0.173447,0 1.265062,-0.96282 2.425816,-2.13961 3.48262,-3.53071 7.358917,-5.78251 11.795929,-6.85244 4.655666,-1.12266 13.654667,-1.29974 18.58895,-0.36578 7.963003,1.50722 14.613283,6.4108 17.894213,13.19429 1.44794,2.9937 1.99377,4.97511 2.36883,8.59895 0.29719,2.87157 0.77845,15.33655 0.82743,21.43126 l 0.033,4.10104 -5.28102,0.0715 -5.281018,0.0715 -0.152043,-12.24234 c -0.135715,-10.92781 -0.209502,-12.50995 -0.687179,-14.7346 -1.445405,-6.73162 -5.033568,-10.69756 -11.326809,-12.51938 -1.808813,-0.52363 -2.635081,-0.59487 -6.693741,-0.57711 -3.878551,0.017 -4.967036,0.11275 -6.705058,0.59001 -5.737751,1.57556 -9.28026,4.78943 -11.100696,10.07087 -0.972368,2.82103 -1.216528,6.77063 -1.23285,19.94297 l -0.0114,9.19428 h -5.159372 -5.159375 l -0.02416,-1.38907 c -0.447836,-25.7656 -0.402079,-24.56581 -1.016468,-26.65245 -1.791129,-6.08314 -5.503258,-9.62003 -11.860817,-11.3009 -3.507539,-0.92735 -8.327573,-0.97482 -11.826415,-0.11648 -5.264652,1.29155 -9.013713,4.04406 -11.001426,8.0771 -1.806707,3.66578 -1.87485,4.28163 -2.06711,18.6818 l -0.171315,12.83229 z m 140.778462,-0.50295 c -0.24943,-0.99383 0.10632,-21.0469 0.43103,-24.29599 0.929,-9.29584 5.58352,-16.33025 13.36239,-20.19471 4.20765,-2.09031 7.5013,-2.70683 14.4794,-2.71031 11.30833,-0.006 16.9127,1.72407 22.26104,6.87053 4.47531,4.30639 6.89841,9.50779 7.5796,16.2703 0.36756,3.649 0.64857,18.74526 0.40809,21.92297 l -0.19522,2.57969 h -5.13468 -5.13469 l -0.005,-11.17865 c -0.003,-6.14826 -0.11542,-12.23112 -0.25075,-13.51747 -0.97456,-9.26346 -6.854,-14.56562 -17.07475,-15.39823 -3.503,-0.28536 -8.03969,0.52956 -11.23885,2.01882 -4.99889,2.32705 -7.87195,6.57533 -8.75123,12.94011 -0.18888,1.36721 -0.33505,6.76142 -0.37281,13.75833 l -0.0621,11.50938 -5.06071,0.0718 -5.06071,0.0718 -0.18031,-0.71844 z m 97.26946,-3.35969 v -4.13533 l 3.50573,-5.3e-4 c 4.85238,-8e-4 10.23723,-0.44527 12.82615,-1.05847 6.11966,-1.44947 10.19088,-5.47034 11.57298,-11.42989 0.52986,-2.28459 0.92528,-7.13826 0.93054,-11.42184 0.007,-5.92193 1.13007,-11.44153 3.18236,-15.64437 3.45826,-7.08207 9.13955,-10.8091 18.53769,-12.16105 5.57945,-0.80262 13.37024,-1.03985 16.84715,-0.51298 l 0.8599,0.1303 v 3.78701 3.78701 l -5.22552,0.1818 c -8.65719,0.3012 -11.44003,0.76878 -15.02275,2.52413 -3.99357,1.95665 -6.94841,5.85111 -7.94078,10.46586 -0.2327,1.08206 -0.50382,4.55848 -0.65212,8.36156 -0.27432,7.03443 -0.50967,9.22924 -1.33707,12.46986 -1.22365,4.79254 -3.07128,8.48436 -5.60282,11.1951 -4.99742,5.35118 -11.17475,7.18293 -25.13925,7.4545 l -7.34219,0.14278 v -4.13534 z M 123.24242,278.33719 v -15.47813 h 5.02708 5.02708 v 15.47813 15.47813 h -5.02708 -5.02708 z m 97.80764,-24.65035 c -0.097,-0.097 -0.17639,-1.82342 -0.17639,-3.83646 v -3.66007 h 5.15937 5.15938 v 3.83646 3.83646 h -4.98298 c -2.74065,0 -5.06237,-0.0794 -5.15938,-0.17639 z m -97.80764,-3.79236 v -3.70417 h 5.02708 5.02708 v 3.70417 3.70417 h -5.02708 -5.02708 z"
         id="path72" />
      <g
         style="fill:#0895FF"
         id="g154"
         transform="translate(54.577221,54.15391)">
        <path
           style="stroke-width:0.26458332;fill:#0895FF"
           d="M 32.014738,141.5563 H 78.74862 v 13.85888 H 33.861265 v 12.01181 H 32.014738 V 153.56812 H 76.901829 V 143.40283 H 32.014738 v -1.84653"
           id="path6945" />
        <path
           style="stroke-width:0.26458332;fill:#0895FF"
           d="m 137.12787,155.41518 v 12.01181 h -1.84679 v -13.85887 h 44.88656 v -10.16529 h -44.88656 v -1.84653 h 46.73362 v 13.85888 h -44.88683"
           id="path6947" />
        <path
           style="stroke-width:0.26458332;fill:#0895FF"
           d="m 102.57726,141.5563 v 24.02364 H 78.74862 v 1.84705 h 25.77782 v -24.02416 h 23.82917 v -1.84653 h -25.77835"
           id="path6949" />
      </g>
    </g>
  </g>
</svg>
