<?xml version="1.0" encoding="UTF-8" standalone="no"?>
<svg
   xmlns:dc="http://purl.org/dc/elements/1.1/"
   xmlns:cc="http://creativecommons.org/ns#"
   xmlns:rdf="http://www.w3.org/1999/02/22-rdf-syntax-ns#"
   xmlns:svg="http://www.w3.org/2000/svg"
   xmlns="http://www.w3.org/2000/svg"
   xmlns:xlink="http://www.w3.org/1999/xlink"
   xmlns:sodipodi="http://sodipodi.sourceforge.net/DTD/sodipodi-0.dtd"
   xmlns:inkscape="http://www.inkscape.org/namespaces/inkscape"
   width="1739.8773pt"
   height="286.31473pt"
   viewBox="0 0 1739.8773 286.31473"
   version="1.1"
   id="svg3944"
   sodipodi:docname="system.svg"
   inkscape:version="0.92.4 (5da689c313, 2019-01-14)">
  <metadata
     id="metadata3950">
    <rdf:RDF>
      <cc:Work
         rdf:about="">
        <dc:format>image/svg+xml</dc:format>
        <dc:type
           rdf:resource="http://purl.org/dc/dcmitype/StillImage" />
        <dc:title />
      </cc:Work>
    </rdf:RDF>
  </metadata>
  <defs
     id="defs3948" />
  <sodipodi:namedview
     pagecolor="#ffffff"
     bordercolor="#666666"
     borderopacity="1"
     objecttolerance="10"
     gridtolerance="10"
     guidetolerance="10"
     inkscape:pageopacity="0"
     inkscape:pageshadow="2"
     inkscape:window-width="2736"
     inkscape:window-height="1699"
     id="namedview3946"
     showgrid="false"
     inkscape:zoom="1.1147338"
     inkscape:cx="972.87802"
     inkscape:cy="190.87648"
     inkscape:window-x="-13"
     inkscape:window-y="-13"
     inkscape:window-maximized="1"
     inkscape:current-layer="svg3944" />
  <path
     style="opacity:1;fill:#777777;stroke-width:1.47563112;fill-opacity:0.94117647"
     inkscape:connector-curvature="0"
     id="path3919"
     d="m 290.92562,143.04016 c 0.76733,-16.45328 15.78925,-30.36849 32.18352,-30.27995 43.70819,-0.059 87.43114,0 131.13933,-0.0148 -0.14756,9.42928 -0.0885,18.87332 -0.10329,28.31736 -35.79881,0 -71.58287,0 -107.38168,-0.0148 -5.99106,-0.0148 -12.8675,0.75257 -16.94024,5.69594 -3.67432,4.30884 -3.33493,10.28515 -3.39395,15.5679 0.059,5.28276 -0.28037,11.22956 3.36443,15.5384 3.73335,4.57446 9.99003,5.63691 15.56791,5.69594 30.48654,0.0885 60.98784,-0.059 91.47437,0.059 16.37951,-0.0295 31.35717,13.87093 32.12449,30.32422 0.29513,11.80505 0.1033,23.63961 0.1033,35.45942 0.14756,12.83799 -8.20451,25.10048 -20.03907,29.95531 -7.55523,3.37919 -16.0106,2.5676 -24.06755,2.64138 -44.74113,0 -89.48227,0.0147 -134.23816,-0.1033 0,-9.39977 0,-18.81429 0,-28.21406 40.84547,-0.0148 81.67618,0.0147 122.52165,-0.0148 5.8435,-0.0295 12.4986,-0.75257 16.57134,-5.44508 4.05799,-4.53019 3.60054,-11.00821 3.64481,-16.65987 0.0295,-5.09093 -0.2361,-10.83114 -4.05799,-14.68253 -4.17603,-4.33836 -10.55076,-4.91386 -16.23194,-4.97288 -29.99958,-0.0295 -60.01392,0.0443 -90.02825,-0.0295 -16.42378,0.11805 -31.48997,-13.85618 -32.21303,-30.33898 -0.20659,-12.82323 -0.20659,-25.66122 0,-38.48446 z" />
  <path
     style="opacity:1;fill:#777777;stroke-width:1.47563112;fill-opacity:0.94117647"
     inkscape:connector-curvature="0"
     id="path3921"
     d="m 641.91923,112.09618 c 11.71652,0 23.43303,0 35.14954,0 0,17.36818 -0.0148,34.7216 0,52.08978 8.66195,0.0295 17.33866,0.14756 26.00062,0.11805 0,9.37025 0,18.74051 0,28.12553 -8.67671,0 -17.33867,-0.0148 -26.00062,0.0147 -0.0148,20.43749 -0.0148,40.87498 0,61.31247 7.64377,0 15.30229,0 22.96082,0 0,9.44404 0,18.87333 -0.0148,28.30261 -14.94814,-0.059 -29.89628,0.14756 -44.82967,-0.059 -7.24535,0.22135 -13.59056,-6.15338 -13.35446,-13.39873 -0.0885,-25.38085 0.059,-50.77646 0,-76.17207 -4.98764,0.0147 -9.96051,-0.0148 -14.94815,-0.0148 0,-9.42928 0,-18.87332 0.0148,-28.30261 5.00239,0 10.00478,-0.0147 15.02192,0 0.0148,-17.33866 0,-34.67733 0,-52.01599 z" />
  <path
     style="opacity:1;fill:#777777;stroke-width:1.47563112;fill-opacity:0.94117647"
     inkscape:connector-curvature="0"
     id="path3923"
     d="m 1297.6897,112.87826 c 10.1376,-3.46773 22.164,3.512 23.9642,14.10704 2.2725,10.04904 -5.445,20.67359 -15.5974,21.86885 -9.4735,1.63795 -19.4636,-5.20898 -21.0867,-14.74156 -2.0217,-9.00135 3.9104,-18.69624 12.7199,-21.23433 z" />
  <path
     style="opacity:1;fill:#777777;stroke-width:1.47563112;fill-opacity:0.94117647"
     inkscape:connector-curvature="0"
     id="path3925"
     d="m 865.10844,282.62011 c 0.0738,-56.1035 0.0885,-112.20699 0.19183,-168.31048 11.70176,0 23.41827,-0.0148 35.12002,0 0.0148,56.10349 0.0148,112.20698 0.0148,168.31048 -11.77554,0.0147 -23.55108,0 -35.32661,0 z" />
  <path
     style="opacity:1;fill:#777777;stroke-width:1.47563112;fill-opacity:0.94117647"
     inkscape:connector-curvature="0"
     id="path3927"
     d="m 918.96897,114.30963 c 11.71651,-0.0148 23.41827,0 35.13478,0 0.0148,56.10349 0,112.20698 0,168.31048 -11.77554,0 -23.55107,0.0147 -35.32661,0 0.1033,-56.1035 0.11805,-112.20699 0.19183,-168.31048 z" />
  <path
     style="opacity:1;fill:#777777;stroke-width:1.47563112;fill-opacity:0.94117647"
     inkscape:connector-curvature="0"
     id="path3929"
     d="m 490.2096,163.65473 c 27.4615,-0.0148 54.90823,0.0148 82.36973,-0.0148 7.11254,0 14.54972,-0.4722 21.24909,2.39053 12.12968,4.6925 20.83591,17.14683 20.59981,30.25043 0.0148,17.66331 0.0148,35.34137 0.0148,53.00467 0.20659,12.69043 -7.90938,24.83487 -19.50784,29.82251 -5.6074,2.65613 -11.9231,2.96601 -18.01746,2.90699 -21.13103,-0.11805 -42.26207,0.059 -63.39311,-0.0885 -12.52811,0.0295 -24.59877,-7.79133 -29.68969,-19.22747 -3.67433,-7.77658 -3.21688,-16.70415 -2.22821,-25.0267 0.35415,-3.24639 2.53809,-5.93204 5.14995,-7.73231 5.76972,-4.10226 12.88226,-5.41557 19.6259,-7.09779 24.14132,-5.99106 48.28265,-11.93785 72.40922,-17.98794 -1.43137,-7.82085 -8.73574,-12.8675 -16.4828,-12.7347 -24.02328,-0.3689 -48.06131,-0.0443 -72.09934,-0.16232 -0.0148,-9.42928 -0.0148,-18.87332 0,-28.3026 m 26.85649,83.44694 c 1.59368,4.23506 5.07617,7.87987 9.84246,8.02743 11.73126,0.67879 23.5068,0.0738 35.26758,0.30988 5.07617,-0.0443 11.53944,0.0443 14.46119,-4.95812 2.96601,-5.72545 1.94783,-12.51335 2.21344,-18.72576 -20.59981,5.10569 -41.19962,10.18186 -61.78467,15.34657 z" />
  <path
     style="opacity:1;fill:#777777;stroke-width:1.47563112;fill-opacity:0.94117647"
     inkscape:connector-curvature="0"
     id="path3931"
     d="m 713.64966,194.77579 c 0.32464,-16.49756 15.11047,-30.85545 31.53424,-31.04728 22.63618,-0.19183 45.28712,-0.0148 67.93806,-0.0738 11.45089,-0.38367 22.87228,5.56313 28.93712,15.31705 5.75496,8.78 5.90253,19.93578 4.22031,29.95531 -2.08064,7.08303 -9.99003,9.84246 -16.36475,11.77554 -26.87125,6.72888 -53.78676,13.29543 -80.64324,20.03907 1.38709,7.89462 8.78,12.89701 16.55658,12.76421 26.97453,0.3689 53.94907,0.0443 80.92361,0.16232 0.0148,9.42928 0.0148,18.87332 0,28.3026 -33.31975,0 -66.6395,0.0443 -99.97401,-0.0148 -12.57238,0.22135 -24.84963,-7.39291 -30.10287,-18.8438 -2.84797,-5.62216 -3.26115,-12.05591 -3.12834,-18.25356 0.13281,-16.68939 -0.11805,-33.39353 0.10329,-50.08292 m 37.77616,0.29513 c -3.0398,5.72544 -1.91832,12.5281 -2.16918,18.75527 20.55554,-5.09093 41.12584,-10.13759 61.66662,-15.31705 -1.59368,-4.0875 -4.81055,-7.79134 -9.4883,-7.98317 -11.30334,-0.90013 -22.68045,-0.16232 -34.02806,-0.42793 -5.5041,0.16232 -12.64615,-0.44269 -15.98108,4.97288 z" />
  <path
     style="opacity:1;fill:#777777;stroke-width:1.47563112;fill-opacity:0.94117647"
     inkscape:connector-curvature="0"
     id="path3933"
     d="m 977.90568,163.65473 c 30.61932,0.0295 61.25342,-0.0738 91.87282,0.0443 16.6451,-0.13281 31.7998,14.22508 32.2425,30.89971 0.2951,14.81534 0.015,29.61592 0.1181,44.43126 -0.074,7.20108 0.6197,14.68253 -2.0659,21.54421 -4.4859,12.42481 -17.0583,21.32287 -30.28,21.35238 -22.5771,0.11805 -45.169,0.0295 -67.7462,0.0295 -12.23298,0.28037 -24.24461,-6.77314 -29.80774,-17.67806 -4.29409,-7.9684 -4.16128,-17.39769 -3.20212,-26.14818 1.1805,-7.64377 9.31123,-10.97869 15.84828,-12.9708 27.15158,-6.89119 54.39178,-13.42824 81.52858,-20.31944 -1.151,-2.90699 -1.9626,-6.16813 -4.4121,-8.29304 -4.1908,-3.9547 -10.2999,-4.53019 -15.7745,-4.57446 -22.769,-0.0295 -45.5527,0.0148 -68.32172,-0.0148 -0.0148,-9.42928 -0.0148,-18.87332 0,-28.3026 m 26.81222,83.49121 c 1.3428,2.27247 2.3167,5.04666 4.781,6.38948 3.512,2.06588 7.7619,1.78551 11.7018,1.91832 10.8311,-0.14756 21.6475,0.11805 32.4639,-0.11805 4.1613,-0.0295 8.9866,-1.32807 10.9197,-5.40081 2.5528,-5.68118 1.6674,-12.11493 1.874,-18.16502 -20.5851,5.12044 -41.1996,10.12283 -61.7404,15.37608 z" />
  <path
     style="opacity:1;fill:#777777;stroke-width:1.47563112;fill-opacity:0.94117647"
     inkscape:connector-curvature="0"
     id="path3935"
     d="m 1102.2128,163.65473 c 13.1332,-0.0148 26.2663,-0.0148 39.3994,0.0148 15.6122,30.41275 30.9587,60.95832 46.7332,91.28254 16.2762,-30.08812 31.1801,-60.92881 46.9399,-91.2973 13.1331,0 26.2662,-0.0148 39.3993,0 -17.5452,34.60355 -35.1938,69.14807 -52.6948,103.76638 -5.1647,9.76868 -15.6417,16.49755 -26.6941,17.05829 -8.3374,0.17708 -17.1469,0.98868 -24.8792,-2.81845 -7.2453,-3.12834 -13.0151,-9.07513 -16.4533,-16.11389 -17.2353,-33.96903 -34.5297,-67.90855 -51.7504,-101.89233 z" />
  <path
     style="opacity:1;fill:#777777;stroke-width:1.47563112;fill-opacity:0.94117647"
     inkscape:connector-curvature="0"
     id="path3937"
     d="m 1285.6633,282.62011 c 0.044,-39.87155 0.03,-79.74311 0.2066,-119.61466 11.7017,0 23.4035,-0.0147 35.1053,0 0.015,39.87155 0,79.72835 0.015,119.5999 -11.7755,0.0443 -23.5511,0.0148 -35.3266,0.0148 z" />
  <path
     style="opacity:1;fill:#777777;stroke-width:1.47563112;fill-opacity:0.94117647"
     inkscape:connector-curvature="0"
     id="path3939"
     d="m 1337.7383,194.82006 c 0.2804,-16.54183 15.1105,-30.91447 31.5785,-31.09155 22.6362,-0.19183 45.2871,-0.0295 67.9381,-0.0738 11.4952,-0.36891 22.946,5.65167 28.9814,15.47937 5.6664,8.76525 5.814,19.86199 4.117,29.83726 -2.0954,7.00925 -9.8867,9.75392 -16.2024,11.67224 -26.9155,6.77315 -53.8753,13.33971 -80.7908,20.0981 1.3428,7.93889 8.8537,12.91177 16.6303,12.76421 26.945,0.38366 53.9048,0.0443 80.8646,0.16232 0,9.42928 0,18.87332 0,28.3026 -33.8362,-0.0443 -67.6577,0.11805 -101.4939,-0.0738 -16.5271,-0.17708 -31.4162,-14.62351 -31.6228,-31.23911 -0.1033,-18.60771 -0.118,-37.23017 0,-55.83788 m 37.3187,1.0477 c -2.3757,5.65166 -1.5936,11.99688 -1.8002,17.98794 20.585,-5.10568 41.1701,-10.1671 61.7404,-15.34656 -1.6822,-5.38606 -6.847,-8.61769 -12.4248,-8.27829 -11.8051,-0.22135 -23.6397,-0.13281 -35.4447,-0.0295 -4.5302,0 -9.99,1.09197 -12.0707,5.66643 z" />
  <path
     style="opacity:1;fill:#777777;stroke-width:1.47563112;fill-opacity:0.94117647"
     inkscape:connector-curvature="0"
     id="path3941"
     d="m 1469.2466,165.32219 c 13.1331,-0.0147 26.281,-0.0443 39.4436,0.0148 15.5531,30.19141 31.0473,60.41234 46.8513,90.4857 10.6245,-30.07336 20.6588,-60.35331 30.9882,-90.51521 12.0264,0.0147 24.0528,-0.0148 36.094,0.0147 10.2556,30.19141 20.3637,60.4271 30.9439,90.50046 15.8336,-30.05861 31.2834,-60.3238 46.8808,-90.51521 13.1479,-0.0148 26.281,0 39.4289,0 -17.4124,34.26415 -34.7954,68.5283 -52.2373,102.7777 -4.5892,8.79476 -12.5872,17.14684 -22.9904,18.0027 -6.8616,0.17708 -13.7971,0.54598 -20.6145,-0.35415 -11.2148,-2.49382 -18.2388,-12.82323 -22.8871,-22.5624 -6.8174,-15.199 -11.082,-31.35716 -16.5861,-47.04312 -4.9433,14.22508 -9.0751,28.74529 -14.6972,42.73428 -3.9843,9.39977 -9.2818,19.07991 -18.3569,24.40694 -7.1125,4.24981 -15.7155,2.71516 -23.5806,2.96601 -11.9674,0.56074 -21.7508,-8.75049 -26.7974,-18.79954 -17.2944,-34.04281 -34.6183,-68.07086 -51.8832,-102.11367 z" />
  <path
     id="path4111"
     d="m 69.085663,0.07571136 c 8.849253,-0.14998733 17.704387,-0.02352743 26.55364,-0.06470042 10.793207,0.0029409 21.589357,-0.00294093 32.379617,0.0029409 0.63524,-0.04705485 1.10873,0.43819828 1.62045,0.73229109 9.07277,6.02890267 17.41618,13.07536607 25.48314,20.37475007 17.16914,15.707497 32.73842,33.088382 47.30483,51.216263 13.54298,16.88975 26.38601,34.382394 37.76152,52.819064 2.84094,4.65549 5.60835,9.36098 8.19931,14.16351 1.81455,3.4056 3.66145,6.81119 5.14074,10.3756 0.10587,2.64095 0.0118,5.29073 0.0412,7.93462 -4.79959,-8.63456 -10.17855,-16.93974 -15.80454,-25.0567 C 224.68723,113.83081 210.02082,96.194064 193.931,79.963082 166.5392,52.271303 134.68306,28.823284 99.474273,12.054112 90.90735,8.0191582 82.163971,4.3224115 73.176494,1.316783 71.823667,0.86682102 70.4679,0.42274087 69.085663,0.07571136 Z"
     inkscape:connector-curvature="0"
     style="stroke-width:0.2940928" />
  <path
     id="path4113"
     d="m 161.88371,0.01101094 c 8.79926,0 17.59851,0 26.39777,0 6.71414,8.17578016 12.94008,16.74270406 19.01016,25.40373706 6.78178,9.778586 13.39004,19.683632 19.52188,29.88277 6.27888,10.463822 12.14015,21.174683 17.6985,32.03553 3.10268,6.137717 6.21124,12.284257 9.01983,18.560202 0.097,4.00848 0.0147,8.02579 0.0382,12.03721 C 241.72108,98.802668 229.34272,79.998373 216.33499,61.635218 209.65909,52.218367 202.8126,42.907388 195.34265,34.102249 185.04352,21.944453 174.00327,10.36896 161.88371,0.01101094 Z"
     inkscape:connector-curvature="0"
     style="stroke-width:0.2940928" />
  <path
     id="path4115"
     d="m 204.47423,0.01101094 c 16.36626,0.0029409 32.73253,-0.00294093 49.09879,0 0,16.66918006 0,33.33542006 0,50.00165906 -0.0353,4.970169 0.0706,9.943278 -0.0529,14.913447 C 247.8206,54.006451 241.20645,43.586743 234.25704,33.425836 228.74868,25.344166 222.79624,17.533061 216.02917,10.457188 212.42947,6.7133861 208.66214,3.0960445 204.47426,0.01101094 Z"
     inkscape:connector-curvature="0"
     style="stroke-width:0.2940928" />
  <g
     id="g4119"
     transform="matrix(0.29409281,0,0,0.29409281,-0.22907108,-0.28308187)">
    <path
       id="path4117"
       d="m 205.47,116.77 c 45.02,-3.94 90.45,1.66 134.13,12.71 53.38,13.69 104.45,35.6 152.36,62.71 64.85,36.84 124.08,83.29 176.49,136.29 48.06,48.74 90.45,103.27 124.24,162.86 29.31,51.93 52.3,107.87 63.81,166.54 7.13,36.83 9.58,74.83 4.46,112.09 -5.02,36.98 -18.18,73.27 -40.74,103.22 -21.71,29.22 -51.92,51.73 -85.61,65.32 C 693.73,955.15 648.77,959.6 605,956.64 543.62,952.38 483.86,934.35 427.99,909.08 363.84,879.94 304.45,840.84 250.76,795.31 194.9,747.75 144.91,693.15 103.5,632.54 61.85,571.27 28.48,503.55 11.41,431.2 0.8,385.41 -3.11,337.42 5.46,290.96 c 6.8,-37.26 22.48,-73.29 47.49,-101.95 22.68,-26.35 52.63,-46.02 85.27,-57.74 21.63,-7.84 44.36,-12.45 67.25,-14.5 z"
       inkscape:connector-curvature="0" />
  </g>
  <path
     id="path4121"
     d="m 21.54262,207.05823 c 11.131413,10.57852 22.72161,20.68355 34.835293,30.12393 7.690527,5.97302 15.62221,11.6549 23.971505,16.67506 16.095699,9.85211 32.606072,19.02486 49.416412,27.60061 H 4.4881776 c 4.4672698,-1.45576 8.6992654,-3.59381 12.6018774,-6.20242 6.764134,-4.53785 12.510708,-11.01671 14.966383,-18.88958 1.873371,-6.64944 1.026384,-13.68708 -0.291152,-20.35416 -2.155701,-10.03739 -5.805392,-19.70716 -10.222666,-28.95344 z"
     inkscape:connector-curvature="0"
     style="stroke-width:0.2940928" />
  <g
     transform="matrix(0.29409281,0,0,0.29409281,-0.22907108,-0.28308187)"
     id="g4127">
    <path
       style="fill:#0a12ff"
       inkscape:connector-curvature="0"
       d="m 194.25,313.18 c 18.77,-12.29 41.54,-17.35 63.78,-17.08 23.32,0.35 46.39,6.39 67.36,16.49 36.2,17.08 66.77,44.68 90.1,76.97 8.1,12.16 16.81,24.09 22.15,37.81 6.31,12.87 11.26,26.48 13.51,40.7 1.73,12.55 3.9,25.22 2.54,37.94 -1.05,9.84 -3.3,19.81 -8.49,28.35 -3.78,6.02 -7.71,12.14 -13.24,16.73 -4.99,4.4 -10.72,7.94 -16.83,10.57 -11.6,-15.47 -25.05,-29.47 -39.66,-42.11 -29.43,-26 -64.24,-46.64 -102.46,-56.47 -24.64,-6.17 -51.52,-7.67 -75.5,1.95 -10.9,-14.85 -21.18,-30.42 -27.75,-47.72 -6.78,-16.14 -10.08,-33.85 -8.59,-51.34 1.45,-9.67 4.26,-19.25 9.02,-27.81 6.32,-9.76 14.68,-18.15 24.06,-24.98 z"
       id="path4125" />
  </g>
  <g
     transform="matrix(0.29409281,0,0,0.29409281,-0.22907108,-0.28308187)"
     id="g4131">
    <path
       style="fill:#fb0f19"
       inkscape:connector-curvature="0"
       d="m 527.76,359.73 c 19.66,-7.15 41.35,-7.35 61.67,-3.05 34.75,7.45 66.75,25.22 93.34,48.56 27.46,24.34 50.18,54.8 62.41,89.61 6.41,16.51 8.96,34.45 8.02,52.11 -0.27,15.18 -4.51,30.5 -13.48,42.88 -7.03,10.33 -17.06,18.57 -28.54,23.48 -10.72,-16.34 -23.6,-31.26 -38.19,-44.27 -25.35,-23.03 -55.54,-41.61 -88.97,-50.02 -21.6,-5.41 -45.16,-6.21 -66,2.55 -5.72,-7.98 -10.44,-16.61 -15.63,-24.93 -5.17,-9.51 -10.55,-19.07 -13.54,-29.54 -3.52,-11.02 -5.67,-22.49 -6.18,-34.05 -1.78,-15.93 2.53,-32.14 10.33,-46 7.98,-12.78 20.66,-22.24 34.76,-27.33 z"
       id="path4129" />
  </g>
  <g
     transform="matrix(0.29409281,0,0,0.29409281,-0.22907108,-0.28308187)"
     id="g4135">
    <path
       style="fill:#2cd324"
       inkscape:connector-curvature="0"
       d="m 319.45,564.63 c 11.8,-0.78 23.67,-1.66 35.48,-0.31 20.87,1.76 41.88,7.46 59.31,19.41 12.04,8.34 22.65,19.88 26.8,34.21 4.66,13.83 1.88,29.28 -5.03,41.87 -6.34,12.68 -16.59,22.88 -27.42,31.8 -25.91,19.32 -57.6,29.94 -89.54,33.44 -12.96,1.87 -26.12,1.92 -39.16,1.1 -20.61,-1.54 -41.48,-6.05 -59.5,-16.52 -12.94,-7.52 -24.53,-19.2 -28.06,-34.14 -1.08,-6.13 -2.19,-12.44 -0.97,-18.63 2.56,-16.84 11.88,-31.89 23.55,-43.99 12.78,-13.85 29.06,-23.97 46.04,-31.87 18.47,-8.52 38.33,-13.88 58.5,-16.37 z"
       id="path4133" />
  </g>
  <g
     transform="matrix(0.29409281,0,0,0.29409281,-0.22907108,-0.28308187)"
     id="g4139">
    <path
       style="fill:#f8fa1a"
       inkscape:connector-curvature="0"
       d="m 614.43,617.54 c 18.84,-0.83 37.92,1.35 55.91,7.12 18.56,6.23 36.63,16.59 47.93,33 7.55,10.69 11.3,24.23 8.99,37.23 -1.98,14.65 -10.57,27.36 -20.4,37.98 -10.72,11.23 -24.41,19 -38.23,25.76 -31.25,14.54 -66.34,21.21 -100.72,18.22 -17.33,-1.85 -34.72,-6.5 -49.45,-16.08 -13.92,-8.99 -25.48,-23.04 -28.23,-39.74 -2.72,-12.43 -0.59,-25.55 4.87,-36.95 4.62,-9.47 10.47,-18.49 18.17,-25.77 26.71,-26.18 64.26,-39.09 101.16,-40.77 z"
       id="path4137" />
  </g>
  <path
     inkscape:connector-curvature="0"
     style="fill:#777777;stroke-width:6.4267478;fill-opacity:1"
     d="M 381.36475,89.448473 V 3.9727401 h -25.707 V 63.741496 L 317.73994,3.9727401 H 290.10492 V 89.448473 h 25.70699 V 27.751704 l 39.84584,61.696769 z"
     id="path4015" />
  <path
     inkscape:connector-curvature="0"
     style="fill:#777777;stroke-width:6.4267478;fill-opacity:1"
     d="M 423.13859,89.448473 V 31.607755 h -25.70697 v 57.840718 z"
     id="path4017" />
  <path
     inkscape:connector-curvature="0"
     style="fill:#777777;stroke-width:6.4267478;fill-opacity:1"
     d="M 423.13859,19.396934 V 3.9727401 H 397.43162 V 19.396934 Z"
     id="path4019" />
  <path
     inkscape:connector-curvature="0"
     style="fill:#777777;stroke-width:6.4267478;fill-opacity:1"
     d="M 513.11307,89.448473 V 49.602647 c 0,-8.354771 -16.06687,-19.922918 -24.42165,-19.922918 h -7.71209 c -5.78408,0 -12.21082,5.1414 -17.9949,7.712097 v -5.784071 h -25.70699 v 57.840718 h 25.70699 V 49.602647 c 0,-3.856048 8.99746,-8.354771 12.85351,-8.354771 3.85604,0 10.92546,4.498723 10.92546,8.354771 v 39.845826 z"
     id="3162" />
  <use
     y="0"
     x="0"
     style="fill:#777777;fill-opacity:1"
     transform="translate(215.08425,1.9915161)"
     width="467"
     height="187"
     xlink:href="#3162"
     href="#3162"
     id="use4022" />
  <path
     inkscape:connector-curvature="0"
     style="fill:#777777;stroke-width:6.4267478;fill-opacity:1"
     d="M 554.88692,89.448473 V 31.607755 H 568.3831 V 23.895657 H 554.88692 V 11.684836 h -26.34965 v 12.210821 h -13.49618 v 7.712098 h 13.49618 v 57.840718 z"
     id="path4024" />
  <path
     inkscape:connector-curvature="0"
     d="m 604.37288,29.679729 c -20.56558,0 -37.91781,14.138845 -37.91781,31.491064 0,17.994894 17.35223,32.133727 37.91781,32.133727 17.99491,0 32.77642,-10.282786 36.63247,-23.778952 h -26.34967 v 7.712095 c 0,6.426749 -4.49871,8.354773 -10.2828,8.354773 -5.78407,0 -9.64012,-1.928024 -9.64012,-8.354773 v -16.06687 h 47.55794 c 0,-17.352219 -16.70956,-31.491064 -37.91782,-31.491064 z m 0,5.784074 c 5.78409,0 10.2828,3.856048 10.2828,10.282796 v 5.784073 h -19.92292 v -5.784073 c 0,-6.426748 3.85605,-10.282796 9.64012,-10.282796 z"
     style="fill:#777777;stroke:none;stroke-width:70.69422913;fill-opacity:1"
     id="path4026" />
  <path
     inkscape:connector-curvature="0"
     d="m 857.58674,29.679729 c -21.20826,0 -37.91781,14.138845 -37.91781,31.491064 0,17.994894 16.70955,32.133727 37.91781,32.133727 20.5656,0 37.91782,-14.138833 37.91782,-32.133727 0,-17.352219 -17.35222,-31.491064 -37.91782,-31.491064 z m 0,5.784074 c 5.78408,0 9.64013,3.856048 9.64013,10.282796 v 31.491064 c 0,6.426749 -3.85605,8.354773 -9.64013,8.354773 -6.42674,0 -10.2828,-1.928024 -10.2828,-8.354773 V 45.746599 c 0,-6.426748 3.85606,-10.282796 10.2828,-10.282796 z"
     style="fill:#777777;stroke:none;stroke-width:70.69422913;fill-opacity:1"
     id="path4028" />
  <path
     inkscape:connector-curvature="0"
     style="fill:#777777;stroke-width:6.4267478;fill-opacity:1"
     d="M 783.67914,3.9727401 V 35.463803 c 0,0 -7.7121,-5.784074 -17.99489,-5.784074 -16.06687,0 -29.56303,14.138845 -29.56303,29.563039 0,16.066871 13.49616,32.133729 29.56303,32.133729 10.28279,0 17.99489,-3.856037 17.99489,-3.856037 v 1.928013 h 25.707 V 3.9727401 Z m -9.64012,35.3471109 c 5.78407,0 9.64012,4.498723 9.64012,10.282796 v 23.778968 c 0,5.784072 -3.85605,7.712095 -9.64012,7.712095 -6.42675,0 -10.2828,-1.928023 -10.2828,-7.712095 V 49.602647 c 0,-5.784073 3.85605,-10.282796 10.2828,-10.282796 z"
     id="path4030" />
  <path
     inkscape:connector-curvature="0"
     d="m 910.92875,17.468909 c 0,6.426748 -5.78407,12.21082 -12.21081,12.21082 -7.06944,0 -12.21082,-5.784072 -12.21082,-12.21082 0,-7.069422 5.14138,-12.8534949 12.21082,-12.8534949 6.42674,0 12.21081,5.7840729 12.21081,12.8534949 z m -8.99745,5.141399 -2.57069,-4.498725 h -4.49873 4.49873 c 3.85605,0 3.85605,-6.426747 0,-6.426747 h -4.49873 v 10.925472"
     style="fill:none;fill-opacity:0.5;stroke:#777777;stroke-width:2.05267239;stroke-opacity:1"
     id="path4032" />
  <path
     style="fill:#777777;fill-opacity:1;stroke:#777777;stroke-width:0.89707518;stroke-opacity:1"
     d="M 223.64084,372.81439 C 180.90638,366.19543 135.79239,343.43903 94.462015,307.65398 47.91313,267.35059 13.303531,212.26734 3.2528908,162.48919 1.5033996,153.82442 1.1795192,149.4688 1.1879654,134.71958 1.196635,119.58033 1.4687326,116.15544 3.2102198,109.26549 19.718636,43.952339 92.686892,26.398803 176.99293,67.459629 251.29072,103.64599 314.4022,176.58685 332.65031,247.36007 c 7.19807,27.9169 6.86894,52.77699 -0.98361,74.29348 -3.71025,10.16632 -8.98378,18.56271 -16.7914,26.73486 -12.76924,13.36541 -26.96639,20.66288 -47.60115,24.46743 -9.37018,1.72764 -32.35236,1.70581 -43.63331,-0.0414 z m 23.78702,-70.38899 c 22.66652,-5.38648 37.6445,-18.75214 37.64545,-33.59308 9e-4,-19.16793 -26.96959,-31.79198 -55.41503,-25.93774 -8.70567,1.79167 -14.27234,4.10234 -21.92167,9.09944 -22.80877,14.90037 -21.68553,40.66445 2.16801,49.72808 9.96264,3.78551 23.48657,4.03899 37.52324,0.7033 z M 130.93891,283.2441 c 29.05883,-5.68152 48.13434,-25.15392 41.54459,-42.40896 -4.85451,-12.71133 -20.22815,-20.41596 -40.34433,-20.21889 -17.95842,0.17593 -35.677762,6.8558 -46.587514,17.56266 -23.248321,22.81593 -8.759211,46.1176 28.791364,46.30283 5.50725,0.0272 12.97541,-0.52977 16.59589,-1.23764 z m 152.1304,-45.29954 c 7.17305,-5.19613 10.90118,-11.94423 11.80053,-21.35949 1.28478,-13.4505 -2.15523,-26.01331 -10.67799,-38.99562 -9.1942,-14.00509 -21.04873,-24.5926 -35.80935,-31.98202 -11.19971,-5.60677 -19.91314,-7.64775 -30.4212,-7.12566 -18.51155,0.91972 -29.39242,11.73007 -29.20023,29.01097 0.12212,10.97997 3.00486,19.85352 10.09894,31.0862 l 3.74152,5.92429 4.15844,-1.25151 c 13.15284,-3.95842 33.15293,1.69585 49.45864,13.98258 7.33268,5.52534 16.01772,14.25658 19.90113,20.007 1.23348,1.82649 2.48488,3.32365 2.78089,3.32703 0.29602,0.004 2.17192,-1.17732 4.16868,-2.62377 z M 167.48219,217.21362 c 12.73107,-9.22234 14.05678,-30.61566 3.2232,-52.01365 -9.32334,-18.41505 -25.42989,-34.56674 -42.88657,-43.00678 -9.41571,-4.55235 -17.85503,-6.51113 -27.974354,-6.49289 -26.066217,0.047 -41.499629,17.29728 -36.278256,40.54909 1.165008,5.18801 8.133486,19.343 11.360397,23.07625 l 2.49098,2.88184 4.933914,-1.38161 c 5.855982,-1.63982 17.274312,-1.18005 25.566639,1.02946 7.53039,2.00649 22.06986,9.16188 30.05202,14.78968 3.70044,2.60897 10.7649,8.89588 15.69882,13.9709 4.93391,5.07502 9.21294,9.24947 9.50896,9.27657 0.29601,0.0271 2.23293,-1.1784 4.30425,-2.67886 z"
     id="path876"
     inkscape:connector-curvature="0"
     transform="scale(0.75000001)" />
  <path
     style="fill:#777777;fill-opacity:1;stroke:#777777;stroke-width:0.89707518;stroke-opacity:1"
     d="m 15.070863,371.87527 c 12.499485,-6.36833 20.678551,-14.13069 25.812005,-24.49693 2.535846,-5.12077 2.900466,-6.82262 3.200966,-14.94048 0.488689,-13.20165 -3.622785,-31.17505 -10.734695,-46.92696 -1.427431,-3.16156 -2.490838,-5.85176 -2.363127,-5.97821 0.127713,-0.12645 5.681936,4.62181 12.342719,10.55168 14.038682,12.49819 33.619208,28.3403 45.559718,36.86123 14.674041,10.47163 31.705191,20.49666 75.545431,44.46824 l 6.72806,3.67886 -81.185301,-0.009 -81.1853023,-0.009 6.2795263,-3.19934 z"
     id="path878"
     inkscape:connector-curvature="0"
     transform="scale(0.75000001)" />
  <path
     style="fill:#777777;fill-opacity:1;stroke:#777777;stroke-width:0.89707518;stroke-opacity:1"
     d="M 334.79277,79.830624 C 329.68651,69.821518 314.30544,46.00787 304.48161,32.901553 297.21852,23.211607 286.10545,10.800954 279.88121,5.4287585 l -6.10636,-5.27044934 h 31.89727 31.89727 V 41.872305 c 0,22.942697 -0.19364,41.713995 -0.43031,41.713995 -0.23667,0 -1.29251,-1.690055 -2.34631,-3.755676 z"
     id="path880"
     inkscape:connector-curvature="0"
     transform="scale(0.75000001)" />
  <path
     style="fill:#777777;fill-opacity:1;stroke:#777777;stroke-width:0.89707518;stroke-opacity:1"
     d="M 323.23595,133.05181 C 286.0826,75.219954 260.27914,41.813217 230.4625,12.94163 L 217.26074,0.15830916 h 16.60751 16.60751 l 4.86878,6.05525744 c 12.67742,15.7667834 36.1571,50.0568354 48.57512,70.9397824 8.17777,13.752268 18.86395,33.623971 26.9957,50.200361 l 6.72823,13.71539 -0.26137,6.79779 -0.26137,6.79778 z"
     id="path882"
     inkscape:connector-curvature="0"
     transform="scale(0.75000001)" />
  <path
     style="fill:#777777;fill-opacity:1;stroke:#777777;stroke-width:0.89707518;stroke-opacity:1"
     d="M 334.05145,202.26558 C 323.03502,183.60477 303.32534,156.31145 286.56922,136.51373 273.3431,120.88679 246.27849,93.555595 230.93889,80.335439 191.22194,46.106127 146.08141,18.890071 102.98423,3.1892277 L 94.910553,0.24788633 132.8612,0.2030977 l 37.95065,-0.0447885 5.23217,3.5530972 c 13.94237,9.4680846 38.12457,31.1211676 56.78941,50.8500466 39.27293,41.511774 82.60838,100.544547 101.53461,138.313317 2.60305,5.19458 3.23721,7.41413 3.02338,10.58172 l -0.27057,4.00836 z"
     id="path884"
     inkscape:connector-curvature="0"
     transform="scale(0.75000001)" />
</svg>
