<?xml version="1.0" encoding="UTF-8" standalone="no"?>
<svg
   xmlns:dc="http://purl.org/dc/elements/1.1/"
   xmlns:cc="http://creativecommons.org/ns#"
   xmlns:rdf="http://www.w3.org/1999/02/22-rdf-syntax-ns#"
   xmlns:svg="http://www.w3.org/2000/svg"
   xmlns="http://www.w3.org/2000/svg"
   xmlns:xlink="http://www.w3.org/1999/xlink"
   xmlns:sodipodi="http://sodipodi.sourceforge.net/DTD/sodipodi-0.dtd"
   xmlns:inkscape="http://www.inkscape.org/namespaces/inkscape"
   width="1739.8773pt"
   height="286.31473pt"
   viewBox="0 0 1739.8773 286.31473"
   version="1.1"
   id="svg3944"
   sodipodi:docname="satellaview_system.svg"
   inkscape:version="0.92.4 (5da689c313, 2019-01-14)">
  <metadata
     id="metadata3950">
    <rdf:RDF>
      <cc:Work
         rdf:about="">
        <dc:format>image/svg+xml</dc:format>
        <dc:type
           rdf:resource="http://purl.org/dc/dcmitype/StillImage" />
        <dc:title></dc:title>
      </cc:Work>
    </rdf:RDF>
  </metadata>
  <defs
     id="defs3948" />
  <sodipodi:namedview
     pagecolor="#ffffff"
     bordercolor="#666666"
     borderopacity="1"
     objecttolerance="10"
     gridtolerance="10"
     guidetolerance="10"
     inkscape:pageopacity="0"
     inkscape:pageshadow="2"
     inkscape:window-width="2736"
     inkscape:window-height="1699"
     id="namedview3946"
     showgrid="false"
     inkscape:zoom="0.41235352"
     inkscape:cx="188.7553"
     inkscape:cy="341.87085"
     inkscape:window-x="-13"
     inkscape:window-y="-13"
     inkscape:window-maximized="1"
     inkscape:current-layer="svg3944" />
  <g
     id="#040707ff"
     transform="matrix(1.4756311,0,0,1.4756311,259.73078,61.924721)">
    <path
       d="m 21.14,54.97 c 0.52,-11.15 10.7,-20.58 21.81,-20.52 29.62,-0.04 59.25,0 88.87,-0.01 -0.1,6.39 -0.06,12.79 -0.07,19.19 -24.26,0 -48.51,0 -72.77,-0.01 -4.06,-0.01 -8.72,0.51 -11.48,3.86 -2.49,2.92 -2.26,6.97 -2.3,10.55 0.04,3.58 -0.19,7.61 2.28,10.53 2.53,3.1 6.77,3.82 10.55,3.86 20.66,0.06 41.33,-0.04 61.99,0.04 11.1,-0.02 21.25,9.4 21.77,20.55 0.2,8 0.07,16.02 0.07,24.03 0.1,8.7 -5.56,17.01 -13.58,20.3 -5.12,2.29 -10.85,1.74 -16.31,1.79 -30.32,0 -60.64,0.01 -90.97,-0.07 0,-6.37 0,-12.75 0,-19.12 27.68,-0.01 55.35,0.01 83.03,-0.01 3.96,-0.02 8.47,-0.51 11.23,-3.69 2.75,-3.07 2.44,-7.46 2.47,-11.29 0.02,-3.45 -0.16,-7.34 -2.75,-9.95 -2.83,-2.94 -7.15,-3.33 -11,-3.37 -20.33,-0.02 -40.67,0.03 -61.01,-0.02 C 31.84,101.69 21.63,92.22 21.14,81.05 21,72.36 21,63.66 21.14,54.97 Z"
       id="path3919"
       inkscape:connector-curvature="0"
       style="opacity:1;fill:#040707" />
    <path
       d="m 259,34 c 7.94,0 15.88,0 23.82,0 0,11.77 -0.01,23.53 0,35.3 5.87,0.02 11.75,0.1 17.62,0.08 0,6.35 0,12.7 0,19.06 -5.88,0 -11.75,-0.01 -17.62,0.01 -0.01,13.85 -0.01,27.7 0,41.55 5.18,0 10.37,0 15.56,0 0,6.4 0,12.79 -0.01,19.18 -10.13,-0.04 -20.26,0.1 -30.38,-0.04 -4.91,0.15 -9.21,-4.17 -9.05,-9.08 -0.06,-17.2 0.04,-34.41 0,-51.62 -3.38,0.01 -6.75,-0.01 -10.13,-0.01 0,-6.39 0,-12.79 0.01,-19.18 3.39,0 6.78,-0.01 10.18,0 0.01,-11.75 0,-23.5 0,-35.25 z"
       id="path3921"
       inkscape:connector-curvature="0"
       style="opacity:1;fill:#040707" />
    <path
       d="m 703.4,34.53 c 6.87,-2.35 15.02,2.38 16.24,9.56 1.54,6.81 -3.69,14.01 -10.57,14.82 -6.42,1.11 -13.19,-3.53 -14.29,-9.99 -1.37,-6.1 2.65,-12.67 8.62,-14.39 z"
       id="path3923"
       inkscape:connector-curvature="0"
       style="opacity:1;fill:#040707" />
    <path
       d="m 410.25,149.56 c 0.05,-38.02 0.06,-76.04 0.13,-114.06 7.93,0 15.87,-0.01 23.8,0 0.01,38.02 0.01,76.04 0.01,114.06 -7.98,0.01 -15.96,0 -23.94,0 z"
       id="path3925"
       inkscape:connector-curvature="0"
       style="opacity:1;fill:#040707" />
    <path
       d="m 446.75,35.5 c 7.94,-0.01 15.87,0 23.81,0 0.01,38.02 0,76.04 0,114.06 -7.98,0 -15.96,0.01 -23.94,0 0.07,-38.02 0.08,-76.04 0.13,-114.06 z"
       id="path3927"
       inkscape:connector-curvature="0"
       style="opacity:1;fill:#040707" />
    <path
       d="m 156.19,68.94 c 18.61,-0.01 37.21,0.01 55.82,-0.01 4.82,0 9.86,-0.32 14.4,1.62 8.22,3.18 14.12,11.62 13.96,20.5 0.01,11.97 0.01,23.95 0.01,35.92 0.14,8.6 -5.36,16.83 -13.22,20.21 -3.8,1.8 -8.08,2.01 -12.21,1.97 -14.32,-0.08 -28.64,0.04 -42.96,-0.06 -8.49,0.02 -16.67,-5.28 -20.12,-13.03 -2.49,-5.27 -2.18,-11.32 -1.51,-16.96 0.24,-2.2 1.72,-4.02 3.49,-5.24 3.91,-2.78 8.73,-3.67 13.3,-4.81 16.36,-4.06 32.72,-8.09 49.07,-12.19 -0.97,-5.3 -5.92,-8.72 -11.17,-8.63 -16.28,-0.25 -32.57,-0.03 -48.86,-0.11 -0.01,-6.39 -0.01,-12.79 0,-19.18 m 18.2,56.55 c 1.08,2.87 3.44,5.34 6.67,5.44 7.95,0.46 15.93,0.05 23.9,0.21 3.44,-0.03 7.82,0.03 9.8,-3.36 2.01,-3.88 1.32,-8.48 1.5,-12.69 -13.96,3.46 -27.92,6.9 -41.87,10.4 z"
       id="path3929"
       inkscape:connector-curvature="0"
       style="opacity:1;fill:#040707" />
    <path
       d="m 307.61,90.03 c 0.22,-11.18 10.24,-20.91 21.37,-21.04 15.34,-0.13 30.69,-0.01 46.04,-0.05 7.76,-0.26 15.5,3.77 19.61,10.38 3.9,5.95 4,13.51 2.86,20.3 -1.41,4.8 -6.77,6.67 -11.09,7.98 -18.21,4.56 -36.45,9.01 -54.65,13.58 0.94,5.35 5.95,8.74 11.22,8.65 18.28,0.25 36.56,0.03 54.84,0.11 0.01,6.39 0.01,12.79 0,19.18 -22.58,0 -45.16,0.03 -67.75,-0.01 -8.52,0.15 -16.84,-5.01 -20.4,-12.77 -1.93,-3.81 -2.21,-8.17 -2.12,-12.37 0.09,-11.31 -0.08,-22.63 0.07,-33.94 m 25.6,0.2 c -2.06,3.88 -1.3,8.49 -1.47,12.71 13.93,-3.45 27.87,-6.87 41.79,-10.38 -1.08,-2.77 -3.26,-5.28 -6.43,-5.41 -7.66,-0.61 -15.37,-0.11 -23.06,-0.29 -3.73,0.11 -8.57,-0.3 -10.83,3.37 z"
       id="path3931"
       inkscape:connector-curvature="0"
       style="opacity:1;fill:#040707" />
    <path
       d="m 486.69,68.94 c 20.75,0.02 41.51,-0.05 62.26,0.03 11.28,-0.09 21.55,9.64 21.85,20.94 0.2,10.04 0.01,20.07 0.08,30.11 -0.05,4.88 0.42,9.95 -1.4,14.6 -3.04,8.42 -11.56,14.45 -20.52,14.47 -15.3,0.08 -30.61,0.02 -45.91,0.02 -8.29,0.19 -16.43,-4.59 -20.2,-11.98 -2.91,-5.4 -2.82,-11.79 -2.17,-17.72 0.8,-5.18 6.31,-7.44 10.74,-8.79 18.4,-4.67 36.86,-9.1 55.25,-13.77 -0.78,-1.97 -1.33,-4.18 -2.99,-5.62 -2.84,-2.68 -6.98,-3.07 -10.69,-3.1 -15.43,-0.02 -30.87,0.01 -46.3,-0.01 -0.01,-6.39 -0.01,-12.79 0,-19.18 m 18.17,56.58 c 0.91,1.54 1.57,3.42 3.24,4.33 2.38,1.4 5.26,1.21 7.93,1.3 7.34,-0.1 14.67,0.08 22,-0.08 2.82,-0.02 6.09,-0.9 7.4,-3.66 1.73,-3.85 1.13,-8.21 1.27,-12.31 -13.95,3.47 -27.92,6.86 -41.84,10.42 z"
       id="path3933"
       inkscape:connector-curvature="0"
       style="opacity:1;fill:#040707" />
    <path
       d="m 570.93,68.94 c 8.9,-0.01 17.8,-0.01 26.7,0.01 10.58,20.61 20.98,41.31 31.67,61.86 11.03,-20.39 21.13,-41.29 31.81,-61.87 8.9,0 17.8,-0.01 26.7,0 -11.89,23.45 -23.85,46.86 -35.71,70.32 -3.5,6.62 -10.6,11.18 -18.09,11.56 -5.65,0.12 -11.62,0.67 -16.86,-1.91 -4.91,-2.12 -8.82,-6.15 -11.15,-10.92 -11.68,-23.02 -23.4,-46.02 -35.07,-69.05 z"
       id="path3935"
       inkscape:connector-curvature="0"
       style="opacity:1;fill:#040707" />
    <path
       d="m 695.25,149.56 c 0.03,-27.02 0.02,-54.04 0.14,-81.06 7.93,0 15.86,-0.01 23.79,0 0.01,27.02 0,54.03 0.01,81.05 -7.98,0.03 -15.96,0.01 -23.94,0.01 z"
       id="path3937"
       inkscape:connector-curvature="0"
       style="opacity:1;fill:#040707" />
    <path
       d="m 730.54,90.06 c 0.19,-11.21 10.24,-20.95 21.4,-21.07 15.34,-0.13 30.69,-0.02 46.04,-0.05 7.79,-0.25 15.55,3.83 19.64,10.49 3.84,5.94 3.94,13.46 2.79,20.22 -1.42,4.75 -6.7,6.61 -10.98,7.91 -18.24,4.59 -36.51,9.04 -54.75,13.62 0.91,5.38 6,8.75 11.27,8.65 18.26,0.26 36.53,0.03 54.8,0.11 0,6.39 0,12.79 0,19.18 -22.93,-0.03 -45.85,0.08 -68.78,-0.05 -11.2,-0.12 -21.29,-9.91 -21.43,-21.17 -0.07,-12.61 -0.08,-25.23 0,-37.84 m 25.29,0.71 c -1.61,3.83 -1.08,8.13 -1.22,12.19 13.95,-3.46 27.9,-6.89 41.84,-10.4 -1.14,-3.65 -4.64,-5.84 -8.42,-5.61 -8,-0.15 -16.02,-0.09 -24.02,-0.02 -3.07,0 -6.77,0.74 -8.18,3.84 z"
       id="path3939"
       inkscape:connector-curvature="0"
       style="opacity:1;fill:#040707" />
    <path
       d="m 819.66,70.07 c 8.9,-0.01 17.81,-0.03 26.73,0.01 10.54,20.46 21.04,40.94 31.75,61.32 7.2,-20.38 14,-40.9 21,-61.34 8.15,0.01 16.3,-0.01 24.46,0.01 6.95,20.46 13.8,40.95 20.97,61.33 10.73,-20.37 21.2,-40.88 31.77,-61.34 8.91,-0.01 17.81,0 26.72,0 -11.8,23.22 -23.58,46.44 -35.4,69.65 -3.11,5.96 -8.53,11.62 -15.58,12.2 -4.65,0.12 -9.35,0.37 -13.97,-0.24 -7.6,-1.69 -12.36,-8.69 -15.51,-15.29 -4.62,-10.3 -7.51,-21.25 -11.24,-31.88 -3.35,9.64 -6.15,19.48 -9.96,28.96 -2.7,6.37 -6.29,12.93 -12.44,16.54 -4.82,2.88 -10.65,1.84 -15.98,2.01 -8.11,0.38 -14.74,-5.93 -18.16,-12.74 C 843.1,116.2 831.36,93.14 819.66,70.07 Z"
       id="path3941"
       inkscape:connector-curvature="0"
       style="opacity:1;fill:#040707" />
  </g>
  <g
     transform="matrix(0.29409281,0,0,0.29409281,-0.22907108,-0.28308187)"
     id="g4123">
    <path
       inkscape:connector-curvature="0"
       d="m 235.69,1.22 c 30.09,-0.51 60.2,-0.08 90.29,-0.22 36.7,0.01 73.41,-0.01 110.1,0.01 2.16,-0.16 3.77,1.49 5.51,2.49 30.85,20.5 59.22,44.46 86.65,69.28 58.38,53.41 111.32,112.51 160.85,174.15 46.05,57.43 89.72,116.91 128.4,179.6 9.66,15.83 19.07,31.83 27.88,48.16 6.17,11.58 12.45,23.16 17.48,35.28 0.36,8.98 0.04,17.99 0.14,26.98 -16.32,-29.36 -34.61,-57.6 -53.74,-85.2 C 764.78,388.02 714.91,328.05 660.2,272.86 567.06,178.7 458.74,98.97 339.02,41.95 309.89,28.23 280.16,15.66 249.6,5.44 245,3.91 240.39,2.4 235.69,1.22 Z"
       id="path4111" />
    <path
       inkscape:connector-curvature="0"
       d="m 551.23,1 c 29.92,0 59.84,0 89.76,0 22.83,27.8 44,56.93 64.64,86.38 23.06,33.25 45.53,66.93 66.38,101.61 21.35,35.58 41.28,72 60.18,108.93 10.55,20.87 21.12,41.77 30.67,63.11 0.33,13.63 0.05,27.29 0.13,40.93 C 822.7,336.92 780.61,272.98 736.38,210.54 713.68,178.52 690.4,146.86 665,116.92 629.98,75.58 592.44,36.22 551.23,1 Z"
       id="path4113" />
    <path
       inkscape:connector-curvature="0"
       d="M 696.05,1 C 751.7,1.01 807.35,0.99 863,1 c 0,56.68 0,113.35 0,170.02 -0.12,16.9 0.24,33.81 -0.18,50.71 C 843.44,184.6 820.95,149.17 797.32,114.62 778.59,87.14 758.35,60.58 735.34,36.52 723.1,23.79 710.29,11.49 696.05,1 Z"
       id="path4115" />
    <g
       id="g4119">
      <path
         inkscape:connector-curvature="0"
         d="m 205.47,116.77 c 45.02,-3.94 90.45,1.66 134.13,12.71 53.38,13.69 104.45,35.6 152.36,62.71 64.85,36.84 124.08,83.29 176.49,136.29 48.06,48.74 90.45,103.27 124.24,162.86 29.31,51.93 52.3,107.87 63.81,166.54 7.13,36.83 9.58,74.83 4.46,112.09 -5.02,36.98 -18.18,73.27 -40.74,103.22 -21.71,29.22 -51.92,51.73 -85.61,65.32 C 693.73,955.15 648.77,959.6 605,956.64 543.62,952.38 483.86,934.35 427.99,909.08 363.84,879.94 304.45,840.84 250.76,795.31 194.9,747.75 144.91,693.15 103.5,632.54 61.85,571.27 28.48,503.55 11.41,431.2 0.8,385.41 -3.11,337.42 5.46,290.96 c 6.8,-37.26 22.48,-73.29 47.49,-101.95 22.68,-26.35 52.63,-46.02 85.27,-57.74 21.63,-7.84 44.36,-12.45 67.25,-14.5 z"
         id="path4117" />
    </g>
    <path
       inkscape:connector-curvature="0"
       d="m 74.03,705.02 c 37.85,35.97 77.26,70.33 118.45,102.43 26.15,20.31 53.12,39.63 81.51,56.7 54.73,33.5 110.87,64.69 168.03,93.85 H 16.04 c 15.19,-4.95 29.58,-12.22 42.85,-21.09 23,-15.43 42.54,-37.46 50.89,-64.23 6.37,-22.61 3.49,-46.54 -0.99,-69.21 -7.33,-34.13 -19.74,-67.01 -34.76,-98.45 z"
       id="path4121" />
  </g>
  <g
     transform="matrix(0.29409281,0,0,0.29409281,-0.22907108,-0.28308187)"
     id="g4127">
    <path
       style="fill:#0a12ff"
       inkscape:connector-curvature="0"
       d="m 194.25,313.18 c 18.77,-12.29 41.54,-17.35 63.78,-17.08 23.32,0.35 46.39,6.39 67.36,16.49 36.2,17.08 66.77,44.68 90.1,76.97 8.1,12.16 16.81,24.09 22.15,37.81 6.31,12.87 11.26,26.48 13.51,40.7 1.73,12.55 3.9,25.22 2.54,37.94 -1.05,9.84 -3.3,19.81 -8.49,28.35 -3.78,6.02 -7.71,12.14 -13.24,16.73 -4.99,4.4 -10.72,7.94 -16.83,10.57 -11.6,-15.47 -25.05,-29.47 -39.66,-42.11 -29.43,-26 -64.24,-46.64 -102.46,-56.47 -24.64,-6.17 -51.52,-7.67 -75.5,1.95 -10.9,-14.85 -21.18,-30.42 -27.75,-47.72 -6.78,-16.14 -10.08,-33.85 -8.59,-51.34 1.45,-9.67 4.26,-19.25 9.02,-27.81 6.32,-9.76 14.68,-18.15 24.06,-24.98 z"
       id="path4125" />
  </g>
  <g
     transform="matrix(0.29409281,0,0,0.29409281,-0.22907108,-0.28308187)"
     id="g4131">
    <path
       style="fill:#fb0f19"
       inkscape:connector-curvature="0"
       d="m 527.76,359.73 c 19.66,-7.15 41.35,-7.35 61.67,-3.05 34.75,7.45 66.75,25.22 93.34,48.56 27.46,24.34 50.18,54.8 62.41,89.61 6.41,16.51 8.96,34.45 8.02,52.11 -0.27,15.18 -4.51,30.5 -13.48,42.88 -7.03,10.33 -17.06,18.57 -28.54,23.48 -10.72,-16.34 -23.6,-31.26 -38.19,-44.27 -25.35,-23.03 -55.54,-41.61 -88.97,-50.02 -21.6,-5.41 -45.16,-6.21 -66,2.55 -5.72,-7.98 -10.44,-16.61 -15.63,-24.93 -5.17,-9.51 -10.55,-19.07 -13.54,-29.54 -3.52,-11.02 -5.67,-22.49 -6.18,-34.05 -1.78,-15.93 2.53,-32.14 10.33,-46 7.98,-12.78 20.66,-22.24 34.76,-27.33 z"
       id="path4129" />
  </g>
  <g
     transform="matrix(0.29409281,0,0,0.29409281,-0.22907108,-0.28308187)"
     id="g4135">
    <path
       style="fill:#2cd324"
       inkscape:connector-curvature="0"
       d="m 319.45,564.63 c 11.8,-0.78 23.67,-1.66 35.48,-0.31 20.87,1.76 41.88,7.46 59.31,19.41 12.04,8.34 22.65,19.88 26.8,34.21 4.66,13.83 1.88,29.28 -5.03,41.87 -6.34,12.68 -16.59,22.88 -27.42,31.8 -25.91,19.32 -57.6,29.94 -89.54,33.44 -12.96,1.87 -26.12,1.92 -39.16,1.1 -20.61,-1.54 -41.48,-6.05 -59.5,-16.52 -12.94,-7.52 -24.53,-19.2 -28.06,-34.14 -1.08,-6.13 -2.19,-12.44 -0.97,-18.63 2.56,-16.84 11.88,-31.89 23.55,-43.99 12.78,-13.85 29.06,-23.97 46.04,-31.87 18.47,-8.52 38.33,-13.88 58.5,-16.37 z"
       id="path4133" />
  </g>
  <g
     transform="matrix(0.29409281,0,0,0.29409281,-0.22907108,-0.28308187)"
     id="g4139">
    <path
       style="fill:#f8fa1a"
       inkscape:connector-curvature="0"
       d="m 614.43,617.54 c 18.84,-0.83 37.92,1.35 55.91,7.12 18.56,6.23 36.63,16.59 47.93,33 7.55,10.69 11.3,24.23 8.99,37.23 -1.98,14.65 -10.57,27.36 -20.4,37.98 -10.72,11.23 -24.41,19 -38.23,25.76 -31.25,14.54 -66.34,21.21 -100.72,18.22 -17.33,-1.85 -34.72,-6.5 -49.45,-16.08 -13.92,-8.99 -25.48,-23.04 -28.23,-39.74 -2.72,-12.43 -0.59,-25.55 4.87,-36.95 4.62,-9.47 10.47,-18.49 18.17,-25.77 26.71,-26.18 64.26,-39.09 101.16,-40.77 z"
       id="path4137" />
  </g>
  <path
     inkscape:connector-curvature="0"
     style="fill:#000000;stroke-width:6.4267478"
     d="M 381.36475,89.448473 V 3.9727401 h -25.707 V 63.741496 L 317.73994,3.9727401 H 290.10492 V 89.448473 h 25.70699 V 27.751704 l 39.84584,61.696769 z"
     id="path4015" />
  <path
     inkscape:connector-curvature="0"
     style="fill:#000000;stroke-width:6.4267478"
     d="M 423.13859,89.448473 V 31.607755 h -25.70697 v 57.840718 z"
     id="path4017" />
  <path
     inkscape:connector-curvature="0"
     style="fill:#000000;stroke-width:6.4267478"
     d="M 423.13859,19.396934 V 3.9727401 H 397.43162 V 19.396934 Z"
     id="path4019" />
  <path
     inkscape:connector-curvature="0"
     style="fill:#000000;stroke-width:6.4267478"
     d="M 513.11307,89.448473 V 49.602647 c 0,-8.354771 -16.06687,-19.922918 -24.42165,-19.922918 h -7.71209 c -5.78408,0 -12.21082,5.1414 -17.9949,7.712097 v -5.784071 h -25.70699 v 57.840718 h 25.70699 V 49.602647 c 0,-3.856048 8.99746,-8.354771 12.85351,-8.354771 3.85604,0 10.92546,4.498723 10.92546,8.354771 v 39.845826 z"
     id="3162" />
  <use
     y="0"
     x="0"
     style="fill:#000000"
     transform="translate(215.08425,1.9915161)"
     width="467"
     height="187"
     xlink:href="#3162"
     href="#3162"
     id="use4022" />
  <path
     inkscape:connector-curvature="0"
     style="fill:#000000;stroke-width:6.4267478"
     d="M 554.88692,89.448473 V 31.607755 H 568.3831 V 23.895657 H 554.88692 V 11.684836 h -26.34965 v 12.210821 h -13.49618 v 7.712098 h 13.49618 v 57.840718 z"
     id="path4024" />
  <path
     inkscape:connector-curvature="0"
     d="m 604.37288,29.679729 c -20.56558,0 -37.91781,14.138845 -37.91781,31.491064 0,17.994894 17.35223,32.133727 37.91781,32.133727 17.99491,0 32.77642,-10.282786 36.63247,-23.778952 h -26.34967 v 7.712095 c 0,6.426749 -4.49871,8.354773 -10.2828,8.354773 -5.78407,0 -9.64012,-1.928024 -9.64012,-8.354773 v -16.06687 h 47.55794 c 0,-17.352219 -16.70956,-31.491064 -37.91782,-31.491064 z m 0,5.784074 c 5.78409,0 10.2828,3.856048 10.2828,10.282796 v 5.784073 h -19.92292 v -5.784073 c 0,-6.426748 3.85605,-10.282796 9.64012,-10.282796 z"
     style="fill:#000000;stroke:none;stroke-width:70.69422913"
     id="path4026" />
  <path
     inkscape:connector-curvature="0"
     d="m 857.58674,29.679729 c -21.20826,0 -37.91781,14.138845 -37.91781,31.491064 0,17.994894 16.70955,32.133727 37.91781,32.133727 20.5656,0 37.91782,-14.138833 37.91782,-32.133727 0,-17.352219 -17.35222,-31.491064 -37.91782,-31.491064 z m 0,5.784074 c 5.78408,0 9.64013,3.856048 9.64013,10.282796 v 31.491064 c 0,6.426749 -3.85605,8.354773 -9.64013,8.354773 -6.42674,0 -10.2828,-1.928024 -10.2828,-8.354773 V 45.746599 c 0,-6.426748 3.85606,-10.282796 10.2828,-10.282796 z"
     style="fill:#000000;stroke:none;stroke-width:70.69422913"
     id="path4028" />
  <path
     inkscape:connector-curvature="0"
     style="fill:#000000;stroke-width:6.4267478"
     d="M 783.67914,3.9727401 V 35.463803 c 0,0 -7.7121,-5.784074 -17.99489,-5.784074 -16.06687,0 -29.56303,14.138845 -29.56303,29.563039 0,16.066871 13.49616,32.133729 29.56303,32.133729 10.28279,0 17.99489,-3.856037 17.99489,-3.856037 v 1.928013 h 25.707 V 3.9727401 Z m -9.64012,35.3471109 c 5.78407,0 9.64012,4.498723 9.64012,10.282796 v 23.778968 c 0,5.784072 -3.85605,7.712095 -9.64012,7.712095 -6.42675,0 -10.2828,-1.928023 -10.2828,-7.712095 V 49.602647 c 0,-5.784073 3.85605,-10.282796 10.2828,-10.282796 z"
     id="path4030" />
  <path
     inkscape:connector-curvature="0"
     d="m 910.92875,17.468909 c 0,6.426748 -5.78407,12.21082 -12.21081,12.21082 -7.06944,0 -12.21082,-5.784072 -12.21082,-12.21082 0,-7.069422 5.14138,-12.8534949 12.21082,-12.8534949 6.42674,0 12.21081,5.7840729 12.21081,12.8534949 z m -8.99745,5.141399 -2.57069,-4.498725 h -4.49873 4.49873 c 3.85605,0 3.85605,-6.426747 0,-6.426747 h -4.49873 v 10.925472"
     style="fill:none;fill-opacity:0.5;stroke:#000000;stroke-width:2.05267239"
     id="path4032" />
</svg>
