<?xml version="1.0" encoding="utf-8"?>
<!-- Generator: Adobe Illustrator 13.0.0, SVG Export Plug-In . SVG Version: 6.00 Build 14948)  -->
<!DOCTYPE svg [
	<!ENTITY ns_flows "http://ns.adobe.com/Flows/1.0/">
	<!ENTITY ns_extend "http://ns.adobe.com/Extensibility/1.0/">
	<!ENTITY ns_ai "http://ns.adobe.com/AdobeIllustrator/10.0/">
	<!ENTITY ns_graphs "http://ns.adobe.com/Graphs/1.0/">
	<!ENTITY ns_vars "http://ns.adobe.com/Variables/1.0/">
	<!ENTITY ns_imrep "http://ns.adobe.com/ImageReplacement/1.0/">
	<!ENTITY ns_sfw "http://ns.adobe.com/SaveForWeb/1.0/">
	<!ENTITY ns_custom "http://ns.adobe.com/GenericCustomNamespace/1.0/">
	<!ENTITY ns_adobe_xpath "http://ns.adobe.com/XPath/1.0/">
]>
<svg version="1.2" baseProfile="tiny" id="Layer_2" xmlns:x="&ns_extend;" xmlns:i="&ns_ai;" xmlns:graph="&ns_graphs;"
	 xmlns="http://www.w3.org/2000/svg" xmlns:xlink="http://www.w3.org/1999/xlink" xmlns:a="http://ns.adobe.com/AdobeSVGViewerExtensions/3.0/"
	 x="0px" y="0px" width="598.191px" height="350.257px" viewBox="0 0 598.191 350.257" xml:space="preserve">
<metadata>
	<sfw  xmlns="&ns_sfw;">
		<slices></slices>
		<sliceSourceBounds  height="336.34" width="140.85" y="369.661" x="891.896" bottomLeftOrigin="true"></sliceSourceBounds>
	</sfw>
</metadata>
<path fill="#F4F4F4" d="M281.099,198.691v-39.636l39.637-0.002v38.638v1H281.099L281.099,198.691z M319.735,197.691v-1.002V197.691
	L319.735,197.691z M283.099,161.057v35.632h35.637v-35.634L283.099,161.057L283.099,161.057z"/>
<path fill="#F4F4F4" d="M287.578,192.214v-26.682h26.678v25.681v1.001H287.578L287.578,192.214z M313.257,191.213v-1.001V191.213
	L313.257,191.213z M289.578,190.212h22.678v-22.679h-22.678V190.212L289.578,190.212z"/>
<path fill="#F4F4F4" d="M338.904,344.965c-0.05,0-0.107-0.001-0.17-0.004l0,0l0,0l-75.713-0.002c0,0-0.004,0-0.057,0.002l0,0
	c-1.528,0.025-2.554-1.357-2.589-2.784l0,0l-8.566-190.533c-0.153-1.471-0.894-2.08-2.778-2.167l0,0v-0.997l0.707,0.705
	l-1.414-1.415c0.031,0.031,0.017-0.208,0.707-0.294l0,0c2.499-0.088,4.677,1.494,4.776,4.061l0,0l8.564,190.524
	c0.12,0.813,0.302,0.873,0.594,0.9l0,0c0.004,0,0.048-0.002,0.088-0.002l0,0h75.703l0.046,0.004c0.025,0,0.06,0.003,0.104,0.003l0,0
	c0.335-0.027,0.272-0.047,0.36-0.133l0,0c0.076-0.099,0.172-0.409,0.197-0.753l0,0l8.563-190.56c0.095-2.55,2.279-4.13,4.776-4.042
	l0,0v1.998c-1.884,0.088-2.627,0.699-2.778,2.151l0,0l-8.567,190.585c-0.053,0.533-0.144,1.144-0.529,1.735l0,0
	c-0.364,0.585-1.129,1.02-1.948,1.02l0,0C338.954,344.967,338.929,344.966,338.904,344.965L338.904,344.965z"/>
<path fill="#F4F4F4" d="M230.492,149.478V8.627H371.34l0.002,139.849v1.002H230.492L230.492,149.478z M370.341,148.476v-1V148.476
	L370.341,148.476z M232.491,147.476h136.85l-0.002-136.848H232.493L232.491,147.476L232.491,147.476z"/>
<path fill="#F4F4F4" d="M254.88,129.38c-2.371-0.002-4.289-1.922-4.291-4.289l0,0V33.013c0.002-2.369,1.92-4.289,4.291-4.289l0,0
	h92.076c2.368,0.002,4.288,1.92,4.29,4.289l0,0v92.078c-0.002,2.369-1.922,4.287-4.29,4.289l0,0H254.88L254.88,129.38z
	 M252.59,33.013v92.078c0.002,1.262,1.024,2.286,2.291,2.289l0,0h92.076c1.262-0.002,2.286-1.026,2.288-2.289l0,0V33.013
	c0-1.262-1.026-2.286-2.288-2.288l0,0H254.88C253.614,30.727,252.592,31.751,252.59,33.013L252.59,33.013z"/>
<path fill="#F4F4F4" d="M322.609,105.535c0.012,0,0.022,0,0.034,0l0,0c-0.008,0-0.014,0-0.021,0l0,0
	C322.618,105.535,322.613,105.535,322.609,105.535L322.609,105.535z M322.606,105.535h-43.532c-2.54-0.002-4.596-2.057-4.596-4.594
	l0,0V57.404l0,0c0-0.001,0-0.001,0-0.002l0,0c0-2.539,2.059-4.592,4.596-4.594l0,0l43.534,0.002c2.537,0,4.594,2.057,4.594,4.592
	l0,0l0.002,43.539h-0.002c0,2.525-2.036,4.574-4.559,4.594l0,0c0.055-0.002,0.143-0.015,0.299-0.06l0,0
	c0.15-0.016,0.66-0.361,0.662-0.918l0,0c-0.026-0.522-0.225-0.629-0.276-0.713l0,0c-0.078-0.081-0.117-0.105-0.148-0.128l0,0
	l-0.216,0.308L322.606,105.535c0.001,0,0.002,0,0.003,0l0,0C322.608,105.535,322.607,105.535,322.606,105.535L322.606,105.535
	L322.606,105.535L322.606,105.535z M322.606,103.534c1.436-0.002,2.595-1.162,2.597-2.593l0,0V57.404
	c-0.004-1.434-1.161-2.593-2.595-2.595l0,0h-43.534c-1.402,0.002-2.543,1.11-2.595,2.498l0,0l-0.002,43.634
	c0.004,1.432,1.164,2.591,2.597,2.593l0,0h43.53H322.606L322.606,103.534z"/>
<polygon fill="#F4F4F4" points="259.176,37.903 285.358,37.903 277.066,45.683 284.451,53.067 283.037,54.481 274.193,45.636 
	280.303,39.904 261.177,39.902 261.177,59.027 266.821,53.008 276.038,62.225 276.04,62.225 274.624,63.639 266.868,55.881 
	259.176,64.084 259.176,37.903 "/>
<polygon fill="#F4F4F4" points="334.966,55.883 327.21,63.639 325.794,62.226 335.012,53.006 340.654,59.026 340.654,39.903 
	321.528,39.903 327.642,45.638 318.796,54.482 317.383,53.066 324.767,45.684 316.478,37.904 342.656,37.9 342.656,64.088 
	334.966,55.883 "/>
<polygon fill="#F4F4F4" points="316.475,120.203 324.768,112.419 317.384,105.039 318.795,103.624 327.641,112.465 321.529,118.202 
	340.655,118.202 340.653,99.077 335.013,105.097 325.795,95.879 327.209,94.463 334.967,102.218 342.653,94.015 342.657,120.203 
	316.475,120.203 "/>
<polygon fill="#F4F4F4" points="259.179,120.201 259.179,94.021 266.867,102.22 274.625,94.464 274.627,94.464 276.039,95.878 
	266.822,105.094 261.18,99.076 261.18,118.202 280.304,118.202 274.192,112.466 283.038,103.624 284.45,105.038 277.065,112.418 
	285.359,120.201 259.179,120.201 "/>
<path fill="#F4F4F4" d="M286.119,98.14c-2.37-0.002-4.289-1.921-4.289-4.287l0,0V64.254c0-2.368,1.919-4.287,4.289-4.287l0,0
	l29.596-0.002c2.368,0.002,4.289,1.919,4.291,4.289l0,0l-0.002,29.597c0,2.368-1.921,4.287-4.291,4.289l0,0H286.119L286.119,98.14z
	 M283.829,64.254v29.599c0.002,1.261,1.026,2.284,2.29,2.286l0,0h29.596c1.264-0.002,2.286-1.024,2.288-2.288l0,0l0.002-29.597
	c-0.002-1.263-1.026-2.286-2.29-2.288l0,0h-29.596C284.854,61.968,283.831,62.991,283.829,64.254L283.829,64.254z"/>
<path fill="#F4F4F4" d="M289.093,79.124c-0.003-0.033-0.004-0.076,0-0.13l0,0c0.034-6.503,5.312-11.763,11.823-11.766l0,0
	c6.532,0.002,11.824,5.294,11.824,11.824l0,0h0.002c-0.002,6.532-5.294,11.824-11.826,11.826l0,0
	C294.409,90.876,289.131,85.622,289.093,79.124L289.093,79.124z M300.916,88.876c5.426-0.008,9.816-4.398,9.825-9.825l0,0
	c-0.011-5.424-4.399-9.814-9.825-9.822l0,0c-5.426,0.008-9.814,4.398-9.824,9.822l0,0C291.102,84.48,295.49,88.868,300.916,88.876
	L300.916,88.876z M291.091,79.002c-0.003-0.078-0.01-0.1-0.013-0.106l0,0C291.081,78.916,291.088,78.95,291.091,79.002
	L291.091,79.002z"/>
<polygon fill="#F4F4F4" points="259.108,293.441 259.108,291.441 342.235,291.441 342.235,293.441 259.108,293.441 "/>
<path fill="#F4F4F4" d="M267.196,341.722c-1.175-0.048-1.921-0.068-2.651-0.633l0,0c-0.726-0.663-0.68-1.441-0.715-2.022l0,0
	l-2.175-44.072h78.524l-2.173,44.056c-0.036,0.598,0.01,1.378-0.718,2.041l0,0c-0.73,0.563-1.477,0.583-2.649,0.629l0,0
	l-0.021-0.998v1H267.196L267.196,341.722z M266.086,339.633c0.23,0.044,0.614,0.078,1.128,0.088l0,0h67.383
	c0.77-0.005,1.226-0.094,1.361-0.143l0,0c0.021-0.088,0.038-0.3,0.047-0.61l0,0l2.072-41.973h-74.324l2.072,41.985
	c0.006,0.296,0.03,0.505,0.047,0.595l0,0C265.914,339.591,265.984,339.614,266.086,339.633L266.086,339.633z"/>
<path fill="#F4F4F4" d="M270.667,79.052c0-5.197,1.314-10.095,3.625-14.367l0,0l1.759,0.951c-2.159,3.992-3.383,8.557-3.383,13.416
	l0,0c0,5.306,1.46,10.265,4.002,14.505l0,0l-1.716,1.029C272.233,90.045,270.667,84.727,270.667,79.052L270.667,79.052z"/>
<path fill="#F4F4F4" d="M286.009,105.379l0.987-1.739c4.11,2.333,8.856,3.663,13.922,3.663l0,0c5.303,0,10.258-1.46,14.495-3.999
	l0,0h0.002l1.026,1.714c-4.537,2.719-9.852,4.285-15.523,4.285l0,0C295.5,109.304,290.407,107.876,286.009,105.379L286.009,105.379z
	"/>
<path fill="#F4F4F4" d="M325.017,93.801c2.633-4.295,4.15-9.341,4.15-14.748l0,0c0-5.238-1.423-10.136-3.905-14.34l0,0h0.002
	l1.72-1.018c2.658,4.501,4.185,9.754,4.185,15.357l0,0c0,5.785-1.628,11.196-4.447,15.792l0,0L325.017,93.801L325.017,93.801z"/>
<path fill="#F4F4F4" d="M286.458,54.778c0,0,0.001,0,0.001-0.001l0,0l0,0.001H286.458L286.458,54.778z M285.434,53.06
	c4.528-2.703,9.829-4.258,15.483-4.258l0,0c5.536,0,10.731,1.489,15.197,4.089l0,0l-1.01,1.728
	c-4.169-2.427-9.013-3.817-14.188-3.817l0,0c-5.287,0-10.227,1.45-14.458,3.975l0,0L285.434,53.06L285.434,53.06z"/>
</svg>
