<?xml version="1.0" encoding="utf-8"?>
<!-- Generator: Adobe Illustrator 13.0.0, SVG Export Plug-In . SVG Version: 6.00 Build 14948)  -->
<svg version="1.2" baseProfile="tiny" id="Layer_2" xmlns="http://www.w3.org/2000/svg" xmlns:xlink="http://www.w3.org/1999/xlink"
	 x="0px" y="0px" width="590.999px" height="390.388px" viewBox="0 0 590.999 390.388" xml:space="preserve">
<g>
	<path fill="#F4F4F4" d="M101.341,224.605c-0.8,0-1.452-0.647-1.452-1.449l0,0v-27.583c0.002-0.802,0.649-1.447,1.452-1.45l0,0
		h27.581c0.805,0.002,1.45,0.648,1.452,1.45l0,0v27.583c-0.002,0.8-0.652,1.449-1.452,1.451l0,0L101.341,224.605L101.341,224.605z
		 M128.374,222.607v-26.483H101.89v26.481L128.374,222.607L128.374,222.607z"/>
	<path fill="#F4F4F4" d="M110.517,219.709c-3.539-0.002-6.403-2.869-6.406-6.403l0,0v-7.882c0.002-3.538,2.867-6.403,6.406-6.403
		l0,0h9.231c3.537,0,6.404,2.865,6.404,6.403l0,0v7.882c0,3.536-2.867,6.401-6.404,6.403l0,0H110.517L110.517,219.709z
		 M106.113,205.424v7.882c0.004,2.43,1.972,4.398,4.404,4.402l0,0h9.231c2.43-0.004,4.398-1.973,4.402-4.402l0,0h0.002l-0.002-7.882
		c-0.004-2.434-1.97-4.4-4.402-4.404l0,0h-9.231C108.083,201.024,106.117,202.991,106.113,205.424L106.113,205.424z"/>
</g>
<g>
	<path fill="#F4F4F4" d="M131.138,224.606c-0.802-0.002-1.45-0.651-1.452-1.451l0,0l0.002-27.581c0-0.802,0.646-1.45,1.45-1.45l0,0
		h27.583c0.802,0,1.448,0.648,1.45,1.45l0,0v27.581c-0.002,0.8-0.65,1.449-1.45,1.451l0,0H131.138L131.138,224.606z M158.17,222.606
		v-26.483h-26.483v26.483H158.17L158.17,222.606z"/>
	<path fill="#F4F4F4" d="M140.313,219.708c-3.539,0-6.404-2.865-6.404-6.401l0,0l-0.002-7.882c0.002-3.538,2.867-6.403,6.406-6.403
		l0,0h9.231c3.537,0,6.403,2.865,6.403,6.403l0,0v7.882c0,3.536-2.867,6.401-6.403,6.403l0,0L140.313,219.708L140.313,219.708z
		 M135.909,205.424v7.882c0.004,2.43,1.972,4.398,4.404,4.402l0,0h9.231c2.432-0.004,4.398-1.973,4.402-4.402l0,0h0.002
		l-0.002-7.882c-0.004-2.434-1.971-4.4-4.402-4.404l0,0h-9.231C137.881,201.024,135.913,202.991,135.909,205.424L135.909,205.424z"
		/>
</g>
<g>
	<path fill="#F4F4F4" d="M160.935,224.605c-0.8,0-1.45-0.647-1.452-1.449l0,0l0.002-27.583c0-0.802,0.647-1.447,1.45-1.45l0,0
		h27.583c0.802,0.002,1.448,0.648,1.45,1.45l0,0v27.583c0,0.802-0.649,1.449-1.45,1.451l0,0L160.935,224.605L160.935,224.605z
		 M187.966,222.607v-26.483h-26.483v26.481L187.966,222.607L187.966,222.607z"/>
	<path fill="#F4F4F4" d="M170.109,219.708c-3.537,0-6.403-2.865-6.403-6.401l0,0v-7.882c0-3.538,2.867-6.403,6.403-6.403l0,0h9.231
		c3.537,0,6.404,2.865,6.404,6.403l0,0v7.882c0,3.534-2.867,6.401-6.404,6.403l0,0L170.109,219.708L170.109,219.708z
		 M165.705,205.424v7.882c0.004,2.43,1.973,4.398,4.404,4.402l0,0h9.231c2.432-0.004,4.398-1.973,4.404-4.402l0,0v-7.882
		c-0.006-2.434-1.972-4.4-4.404-4.404l0,0h-9.231C167.678,201.024,165.709,202.991,165.705,205.424L165.705,205.424z"/>
</g>
<g>
	<path fill="#F4F4F4" d="M190.731,224.606c-0.8-0.002-1.45-0.651-1.452-1.451l0,0l0.002-27.581c0-0.8,0.646-1.45,1.45-1.45l0,0
		h27.583c0.802,0,1.448,0.648,1.45,1.45l0,0v27.581c-0.002,0.8-0.649,1.449-1.45,1.451l0,0H190.731L190.731,224.606z
		 M217.763,222.606v-26.483h-26.481l-0.002,26.483H217.763L217.763,222.606z"/>
	<path fill="#F4F4F4" d="M199.906,219.709c-3.537-0.002-6.403-2.867-6.403-6.403l0,0v-7.882c0-3.538,2.867-6.403,6.403-6.403l0,0
		h9.231c3.537,0,6.403,2.865,6.403,6.403l0,0v7.882c0,3.536-2.865,6.401-6.403,6.403l0,0H199.906L199.906,219.709z M195.501,205.424
		v7.882c0.006,2.43,1.972,4.398,4.404,4.402l0,0h9.231c2.432-0.004,4.4-1.973,4.404-4.402l0,0v-7.882
		c-0.004-2.434-1.972-4.4-4.404-4.404l0,0h-9.231C197.474,201.024,195.508,202.991,195.501,205.424L195.501,205.424z"/>
</g>
<g>
	<path fill="#F4F4F4" d="M220.527,224.605c-0.8,0-1.45-0.651-1.45-1.449l0,0v-27.583c0-0.8,0.647-1.447,1.45-1.45l0,0h27.583
		c0.802,0.002,1.45,0.65,1.45,1.45l0,0v27.583c-0.002,0.798-0.649,1.449-1.45,1.451l0,0L220.527,224.605L220.527,224.605z
		 M247.559,222.607v-26.483h-26.481v26.481L247.559,222.607L247.559,222.607z"/>
	<path fill="#F4F4F4" d="M229.702,219.709c-3.537-0.002-6.404-2.867-6.404-6.403l0,0v-7.882c0-3.538,2.867-6.403,6.404-6.403l0,0
		h9.231c3.539,0,6.404,2.865,6.404,6.403l0,0v7.882h0.002c-0.002,3.534-2.867,6.401-6.406,6.403l0,0H229.702L229.702,219.709z
		 M225.298,205.424v7.882c0.006,2.43,1.974,4.398,4.404,4.402l0,0h9.231c2.432-0.004,4.4-1.973,4.405-4.402l0,0v-7.882
		c-0.004-2.434-1.971-4.4-4.405-4.404l0,0h-9.231C227.27,201.024,225.304,202.991,225.298,205.424L225.298,205.424z"/>
</g>
<g>
	<path fill="#F4F4F4" d="M250.325,224.605c-0.8,0-1.45-0.651-1.452-1.449l0,0l0.002-27.583c0-0.8,0.646-1.447,1.45-1.45l0,0h27.583
		c0.802,0.002,1.448,0.65,1.45,1.45l0,0v27.583c-0.002,0.798-0.649,1.449-1.45,1.451l0,0L250.325,224.605L250.325,224.605z
		 M277.357,222.607v-26.483h-26.483v26.481L277.357,222.607L277.357,222.607z"/>
	<path fill="#F4F4F4" d="M259.5,219.708c-3.539,0-6.406-2.865-6.406-6.401l0,0v-7.882c0-3.538,2.867-6.403,6.406-6.403l0,0h9.231
		c3.537,0,6.404,2.865,6.404,6.403l0,0v7.882c-0.002,3.534-2.867,6.401-6.404,6.403l0,0L259.5,219.708L259.5,219.708z
		 M255.094,205.424l0.002,7.882c0.004,2.43,1.973,4.398,4.405,4.402l0,0h9.231c2.432-0.004,4.398-1.973,4.402-4.402l0,0h0.002
		l-0.002-7.882c-0.004-2.434-1.97-4.4-4.402-4.404l0,0H259.5C257.066,201.024,255.1,202.991,255.094,205.424L255.094,205.424z"/>
</g>
<g>
	<path fill="#F4F4F4" d="M280.12,224.605c-0.8,0-1.45-0.651-1.45-1.449l0,0v-27.583c0-0.8,0.647-1.447,1.45-1.45l0,0h27.583
		c0.804,0.002,1.447,0.648,1.449,1.45l0,0v27.583c0,0.802-0.649,1.449-1.449,1.451l0,0L280.12,224.605L280.12,224.605z
		 M307.152,222.607l0.002-26.483h-26.483l-0.002,26.481L307.152,222.607L307.152,222.607z"/>
	<path fill="#F4F4F4" d="M289.296,219.708c-3.539,0-6.403-2.865-6.406-6.401l0,0v-7.882c0.002-3.538,2.869-6.403,6.406-6.403l0,0
		h9.231c3.536,0,6.403,2.865,6.403,6.403l0,0v7.882c0,3.536-2.867,6.401-6.403,6.403l0,0L289.296,219.708L289.296,219.708z
		 M284.892,205.424v7.882c0.004,2.43,1.972,4.398,4.404,4.402l0,0h9.231c2.43-0.004,4.398-1.973,4.402-4.402l0,0h0.002l-0.002-7.882
		c-0.004-2.434-1.971-4.4-4.402-4.404l0,0h-9.231C286.864,201.024,284.896,202.991,284.892,205.424L284.892,205.424z"/>
</g>
<g>
	<path fill="#F4F4F4" d="M309.917,224.607c-0.8-0.003-1.449-0.651-1.451-1.452l0,0l0.002-27.582c0-0.8,0.646-1.448,1.449-1.45l0,0
		H337.5c0.802,0.002,1.449,0.647,1.451,1.45l0,0v27.582h-0.002c0,0.803-0.651,1.449-1.449,1.452l0,0H309.917L309.917,224.607z
		 M336.95,222.607v-26.484h-26.482v26.482L336.95,222.607L336.95,222.607z"/>
	<path fill="#F4F4F4" d="M319.093,219.708c-3.538,0-6.405-2.866-6.405-6.402l0,0v-7.881c0-3.538,2.867-6.404,6.405-6.404l0,0h9.232
		c3.534,0,6.4,2.866,6.4,6.404l0,0v7.881h0.002c-0.002,3.536-2.868,6.402-6.402,6.402l0,0H319.093L319.093,219.708z
		 M314.687,205.425l0.002,7.881c0.004,2.429,1.972,4.397,4.404,4.402l0,0h9.232c2.428-0.005,4.397-1.974,4.401-4.402l0,0v-7.881
		c-0.004-2.435-1.972-4.4-4.401-4.404l0,0l-9.232-0.002C316.661,201.025,314.693,202.991,314.687,205.425L314.687,205.425z"/>
</g>
<g>
	<path fill="#F4F4F4" d="M339.713,224.606c-0.801-0.002-1.45-0.651-1.452-1.45l0,0l0.002-27.583c0-0.801,0.646-1.449,1.45-1.451l0,0
		h27.583c0.803,0.002,1.448,0.649,1.451,1.451l0,0v27.583h-0.003c0,0.799-0.649,1.448-1.448,1.45l0,0H339.713L339.713,224.606z
		 M366.745,222.606l0.002-26.483h-26.483l-0.002,26.483H366.745L366.745,222.606z"/>
	<path fill="#F4F4F4" d="M348.889,219.708c-3.538,0-6.403-2.866-6.403-6.401l0,0l-0.002-7.882c0.002-3.538,2.867-6.403,6.405-6.405
		l0,0l9.23,0.002c3.537,0,6.403,2.865,6.403,6.403l0,0v7.882h0.002c-0.002,3.535-2.868,6.401-6.405,6.403l0,0L348.889,219.708
		L348.889,219.708z M344.484,205.424l0.002,7.882c0.004,2.43,1.971,4.397,4.403,4.402l0,0h9.23c2.431-0.005,4.399-1.973,4.403-4.402
		l0,0h0.003l-0.003-7.882c-0.004-2.433-1.973-4.399-4.403-4.403l0,0l-9.23-0.002C346.457,201.025,344.49,202.992,344.484,205.424
		L344.484,205.424z"/>
</g>
<g>
	<path fill="#F4F4F4" d="M369.51,224.605c-0.802,0-1.45-0.647-1.452-1.449l0,0l0.002-27.582c0.002-0.804,0.646-1.448,1.45-1.452l0,0
		l27.582,0.002c0.804,0,1.449,0.65,1.451,1.45l0,0v27.582h-0.002c0,0.798-0.649,1.449-1.449,1.451l0,0L369.51,224.605
		L369.51,224.605z M396.542,222.606v-26.482H370.06l-0.002,26.482H396.542L396.542,222.606z"/>
	<path fill="#F4F4F4" d="M378.686,219.708c-3.539,0-6.405-2.866-6.405-6.403l0,0v-7.881c0-3.537,2.868-6.403,6.405-6.403l0,0h9.23
		c3.537,0,6.403,2.866,6.403,6.403l0,0v7.881h0.002c-0.002,3.537-2.868,6.403-6.405,6.403l0,0H378.686L378.686,219.708z
		 M374.281,205.424v7.881c0.005,2.43,1.974,4.398,4.405,4.403l0,0h9.23c2.432-0.005,4.4-1.974,4.404-4.403l0,0v-7.881
		c-0.004-2.434-1.973-4.399-4.404-4.403l0,0l-9.23-0.002C376.252,201.025,374.286,202.991,374.281,205.424L374.281,205.424z"/>
</g>
<g>
	<path fill="#F4F4F4" d="M399.307,224.606c-0.801-0.002-1.449-0.651-1.451-1.45l0,0v-27.583c0-0.8,0.646-1.448,1.451-1.45l0,0
		h27.582c0.803,0.004,1.447,0.648,1.451,1.45l0,0v27.583h-0.002c0,0.801-0.648,1.45-1.449,1.45l0,0H399.307L399.307,224.606z
		 M426.34,222.606v-26.483h-26.483v26.483H426.34L426.34,222.606z"/>
	<path fill="#F4F4F4" d="M408.482,219.708c-3.537,0-6.403-2.866-6.403-6.403l0,0l-0.003-7.881c0.003-3.537,2.869-6.403,6.406-6.405
		l0,0l9.231,0.002c3.537,0,6.403,2.866,6.403,6.403l0,0v7.881h0.003c-0.003,3.537-2.869,6.403-6.406,6.403l0,0H408.482
		L408.482,219.708z M404.078,205.424v7.881c0.004,2.43,1.972,4.399,4.404,4.401l0,0l9.231,0.003c2.433-0.005,4.4-1.975,4.404-4.404
		l0,0v-7.881c-0.004-2.434-1.972-4.399-4.404-4.403l0,0l-9.231-0.002C406.049,201.025,404.082,202.991,404.078,205.424
		L404.078,205.424z"/>
</g>
<g>
	<path fill="#F4F4F4" d="M429.104,224.606c-0.802-0.002-1.449-0.652-1.452-1.449l0,0l0.003-27.583c0-0.802,0.646-1.45,1.449-1.452
		l0,0l27.581,0.002c0.803,0,1.449,0.648,1.451,1.45l0,0v27.583h-0.002c0,0.797-0.648,1.447-1.449,1.449l0,0H429.104L429.104,224.606
		z M456.135,222.607v-26.484h-26.481l-0.002,26.482L456.135,222.607L456.135,222.607z"/>
	<path fill="#F4F4F4" d="M438.278,219.708c-3.537,0-6.403-2.866-6.403-6.401l0,0v-7.881c0-3.537,2.866-6.403,6.403-6.406l0,0h9.231
		c3.537,0,6.403,2.869,6.403,6.406l0,0v7.881h0.002c-0.002,3.535-2.868,6.401-6.405,6.403l0,0L438.278,219.708L438.278,219.708z
		 M433.875,205.425v7.881c0.004,2.43,1.971,4.398,4.402,4.401l0,0h9.231c2.433-0.003,4.399-1.972,4.403-4.401l0,0h0.002
		l-0.002-7.881c-0.004-2.435-1.971-4.401-4.403-4.405l0,0h-9.231C435.846,201.024,433.879,202.991,433.875,205.425L433.875,205.425z
		"/>
</g>
<g>
	<path fill="#F4F4F4" d="M458.899,224.605c-0.801,0-1.449-0.65-1.451-1.45l0,0l0.002-27.582c0-0.8,0.646-1.449,1.449-1.451l0,0
		l27.584,0.002c0.802,0,1.448,0.648,1.45,1.449l0,0v27.582h-0.002c0,0.8-0.648,1.45-1.448,1.452l0,0L458.899,224.605
		L458.899,224.605z M485.931,222.607l0.002-26.483l-26.483-0.002l-0.002,26.483L485.931,222.607L485.931,222.607z"/>
	<path fill="#F4F4F4" d="M468.076,219.708c-3.539,0-6.403-2.865-6.403-6.402l0,0l-0.002-7.881c0.002-3.536,2.868-6.402,6.405-6.404
		l0,0h9.23c3.537,0.002,6.403,2.868,6.403,6.404l0,0v7.881h0.002c-0.002,3.537-2.868,6.402-6.405,6.404l0,0L468.076,219.708
		L468.076,219.708z M463.671,205.424v7.881c0.005,2.432,1.972,4.399,4.404,4.403l0,0h9.23c2.431-0.004,4.4-1.974,4.404-4.403l0,0
		v-7.881c-0.004-2.434-1.972-4.399-4.404-4.403l0,0l-9.23-0.002C465.643,201.025,463.676,202.991,463.671,205.424L463.671,205.424z"
		/>
</g>
<g>
	<path fill="#F4F4F4" d="M86.031,254.676c-0.801,0-1.451-0.647-1.451-1.449l0,0v-27.582c0-0.801,0.65-1.45,1.451-1.452l0,0
		l27.582,0.002c0.801,0,1.449,0.649,1.451,1.45l0,0v27.582h-0.002c0,0.802-0.65,1.449-1.449,1.451l0,0L86.031,254.676
		L86.031,254.676z M113.062,252.677v-26.483H86.579v26.483H113.062L113.062,252.677z"/>
	<path fill="#F4F4F4" d="M95.205,249.779c-3.537,0-6.404-2.865-6.404-6.402l0,0v-7.881c0-3.537,2.867-6.404,6.404-6.404l0,0h9.232
		c3.538,0,6.402,2.867,6.404,6.404l0,0v7.881c-0.002,3.537-2.867,6.402-6.404,6.404l0,0L95.205,249.779L95.205,249.779z
		 M90.801,235.496v7.881c0.004,2.433,1.971,4.4,4.404,4.402l0,0h9.232c2.433-0.002,4.398-1.97,4.402-4.402l0,0l0.002-7.881
		c-0.006-2.433-1.974-4.4-4.404-4.404l0,0h-9.232C92.774,231.095,90.805,233.065,90.801,235.496L90.801,235.496z"/>
</g>
<g>
	<path fill="#F4F4F4" d="M115.827,254.676c-0.801,0-1.451-0.649-1.451-1.449l0,0v-27.582c0-0.799,0.65-1.45,1.451-1.452l0,0
		l27.58,0.002c0.801,0,1.451,0.649,1.451,1.45l0,0v27.582c0,0.802-0.65,1.449-1.451,1.451l0,0L115.827,254.676L115.827,254.676z
		 M142.859,252.677v-26.483h-26.483v26.483H142.859L142.859,252.677z"/>
	<path fill="#F4F4F4" d="M125.001,249.779c-3.538,0-6.402-2.865-6.404-6.402l0,0l0.002-7.881c0-3.537,2.865-6.404,6.402-6.404l0,0
		h9.232c3.537,0,6.404,2.867,6.404,6.404l0,0v7.881c0,3.537-2.867,6.402-6.404,6.404l0,0L125.001,249.779L125.001,249.779z
		 M120.599,235.496v7.881c0.004,2.433,1.971,4.4,4.402,4.402l0,0l9.232,0.002c2.433-0.004,4.4-1.972,4.404-4.404l0,0v-7.881
		c-0.004-2.433-1.971-4.4-4.404-4.404l0,0h-9.232C122.57,231.095,120.603,233.063,120.599,235.496L120.599,235.496z"/>
</g>
<g>
	<path fill="#F4F4F4" d="M145.623,254.677c-0.799-0.002-1.451-0.647-1.451-1.448l0,0v-27.583c0.002-0.801,0.65-1.45,1.451-1.452l0,0
		h27.582c0.801,0.002,1.449,0.651,1.451,1.452l0,0v27.583c0,0.799-0.65,1.448-1.451,1.448l0,0H145.623L145.623,254.677z
		 M172.655,252.678l0.002-26.485h-26.485v26.485H172.655L172.655,252.678z"/>
	<path fill="#F4F4F4" d="M154.798,249.781c-3.537-0.002-6.404-2.867-6.404-6.404l0,0v-7.881c0-3.537,2.867-6.404,6.404-6.404l0,0
		h9.232c3.537,0,6.402,2.867,6.402,6.404l0,0v7.881c0,3.537-2.865,6.402-6.402,6.404l0,0H154.798L154.798,249.781z M150.395,235.496
		v7.881c0.004,2.433,1.971,4.4,4.404,4.402l0,0h9.232c2.43-0.002,4.397-1.97,4.402-4.402l0,0l0.002-7.881
		c-0.006-2.433-1.974-4.4-4.404-4.404l0,0h-9.232C152.366,231.095,150.399,233.063,150.395,235.496L150.395,235.496z"/>
</g>
<g>
	<path fill="#F4F4F4" d="M175.419,254.676c-0.801,0-1.451-0.647-1.451-1.449l0,0v-27.582c0.002-0.801,0.65-1.45,1.451-1.452l0,0
		l27.584,0.002c0.799,0,1.449,0.647,1.449,1.45l0,0v27.582c0,0.804-0.65,1.449-1.449,1.451l0,0L175.419,254.676L175.419,254.676z
		 M202.453,252.677v-26.483H175.97v26.483H202.453L202.453,252.677z"/>
	<path fill="#F4F4F4" d="M184.594,249.779c-3.537,0-6.402-2.865-6.404-6.402l0,0l0.002-7.881c0-3.537,2.865-6.404,6.402-6.404l0,0
		h9.232c3.538,0,6.404,2.867,6.404,6.404l0,0v7.881c0,3.537-2.867,6.402-6.404,6.404l0,0L184.594,249.779L184.594,249.779z
		 M180.19,235.496v7.881c0.006,2.433,1.973,4.4,4.404,4.402l0,0h9.232c2.433-0.002,4.4-1.97,4.404-4.402l0,0v-7.881
		c-0.004-2.433-1.972-4.4-4.404-4.404l0,0h-9.232C182.164,231.095,180.196,233.063,180.19,235.496L180.19,235.496z"/>
</g>
<g>
	<path fill="#F4F4F4" d="M205.216,254.676c-0.799,0-1.449-0.647-1.451-1.449l0,0l0.002-27.582c0-0.801,0.647-1.45,1.449-1.452l0,0
		l27.582,0.002c0.801,0,1.449,0.651,1.451,1.45l0,0v27.582c-0.002,0.8-0.652,1.449-1.451,1.451l0,0L205.216,254.676L205.216,254.676
		z M232.248,252.677l0.002-26.483h-26.483v26.483H232.248L232.248,252.677z"/>
	<path fill="#F4F4F4" d="M214.392,249.779c-3.537,0-6.404-2.865-6.404-6.402l0,0v-7.881c0-3.537,2.867-6.404,6.404-6.404l0,0h9.232
		c3.537,0,6.402,2.867,6.402,6.404l0,0v7.881c0,3.537-2.867,6.402-6.402,6.404l0,0L214.392,249.779L214.392,249.779z
		 M209.988,235.496v7.881c0.004,2.433,1.972,4.4,4.404,4.402l0,0l9.232,0.002c2.431-0.004,4.398-1.972,4.402-4.404l0,0v-7.881
		c-0.004-2.433-1.971-4.4-4.402-4.404l0,0h-9.232C211.959,231.095,209.992,233.063,209.988,235.496L209.988,235.496z"/>
</g>
<g>
	<path fill="#F4F4F4" d="M235.013,254.676c-0.799,0-1.451-0.647-1.451-1.449l0,0v-27.582c0.002-0.801,0.652-1.45,1.451-1.452l0,0
		l27.582,0.002c0.801,0,1.449,0.651,1.451,1.45l0,0v27.582c-0.002,0.8-0.65,1.449-1.451,1.451l0,0L235.013,254.676L235.013,254.676z
		 M262.044,252.677v-26.483h-26.481l-0.002,26.483H262.044L262.044,252.677z"/>
	<path fill="#F4F4F4" d="M244.188,249.779c-3.537,0-6.402-2.865-6.404-6.402l0,0l0.002-7.881c0-3.537,2.865-6.404,6.402-6.404l0,0
		h9.232c3.537,0,6.404,2.867,6.404,6.404l0,0v7.881c0,3.537-2.867,6.402-6.404,6.404l0,0L244.188,249.779L244.188,249.779z
		 M239.784,235.496v7.881c0.004,2.433,1.971,4.4,4.404,4.402l0,0l9.232,0.002c2.433-0.004,4.399-1.972,4.404-4.404l0,0v-7.881
		c-0.004-2.431-1.971-4.4-4.404-4.404l0,0h-9.232C241.757,231.095,239.788,233.063,239.784,235.496L239.784,235.496z"/>
</g>
<g>
	<path fill="#F4F4F4" d="M264.81,254.676c-0.799,0-1.451-0.646-1.451-1.449l0,0v-27.582c0.002-0.803,0.652-1.45,1.451-1.452l0,0
		l27.582,0.002c0.801,0,1.449,0.651,1.451,1.45l0,0v27.582h-0.002c0,0.8-0.648,1.449-1.449,1.451l0,0L264.81,254.676L264.81,254.676
		z M291.84,252.677l0.002-26.483h-26.484v26.483H291.84L291.84,252.677z"/>
	<path fill="#F4F4F4" d="M273.985,249.781c-3.537-0.002-6.404-2.867-6.404-6.404l0,0v-7.881c0-3.537,2.867-6.404,6.404-6.404l0,0
		h9.23c3.537,0,6.404,2.867,6.404,6.404l0,0v7.881c0,3.537-2.867,6.402-6.404,6.404l0,0H273.985L273.985,249.781z M269.582,235.496
		v7.881c0.004,2.433,1.971,4.4,4.404,4.402l0,0l9.23,0.002c2.433-0.004,4.4-1.972,4.404-4.404l0,0v-7.881
		c-0.004-2.431-1.971-4.4-4.404-4.404l0,0h-9.23C271.555,231.095,269.585,233.065,269.582,235.496L269.582,235.496z"/>
</g>
<g>
	<path fill="#F4F4F4" d="M294.606,254.676c-0.801,0-1.449-0.646-1.451-1.449l0,0v-27.582c0-0.803,0.65-1.45,1.451-1.452l0,0
		l27.582,0.002c0.801,0,1.449,0.651,1.451,1.45l0,0v27.582h-0.002c0,0.8-0.648,1.449-1.449,1.451l0,0L294.606,254.676
		L294.606,254.676z M321.637,252.677l0.002-26.483h-26.484v26.483H321.637L321.637,252.677z"/>
	<path fill="#F4F4F4" d="M303.781,249.779c-3.537,0-6.404-2.865-6.404-6.402l0,0v-7.881c0-3.537,2.867-6.404,6.404-6.404l0,0h9.232
		c3.537,0,6.402,2.867,6.404,6.404l0,0v7.881c-0.002,3.537-2.869,6.402-6.404,6.404l0,0L303.781,249.779L303.781,249.779z
		 M299.376,235.496v7.881c0.005,2.433,1.972,4.4,4.404,4.402l0,0l9.232,0.002c2.431-0.004,4.399-1.972,4.403-4.404l0,0v-7.881
		c-0.004-2.431-1.973-4.4-4.403-4.404l0,0h-9.232C301.35,231.095,299.381,233.065,299.376,235.496L299.376,235.496z"/>
</g>
<g>
	<path fill="#F4F4F4" d="M324.402,254.677c-0.8-0.002-1.448-0.65-1.45-1.45l0,0v-27.581c0.002-0.8,0.65-1.45,1.45-1.452l0,0h27.581
		c0.802,0.002,1.45,0.652,1.452,1.452l0,0v27.581h-0.002c0,0.8-0.648,1.448-1.45,1.45l0,0H324.402L324.402,254.677z
		 M351.434,252.678v-26.483l-26.481-0.002l-0.002,26.483L351.434,252.678L351.434,252.678z"/>
	<path fill="#F4F4F4" d="M333.578,249.779c-3.538,0-6.403-2.865-6.405-6.403l0,0l0.002-7.88c0-3.536,2.865-6.403,6.403-6.403l0,0
		h9.232c3.536,0,6.401,2.865,6.403,6.403l0,0v7.88c-0.002,3.538-2.869,6.403-6.403,6.405l0,0L333.578,249.779L333.578,249.779z
		 M329.174,235.496v7.88c0.004,2.433,1.971,4.399,4.403,4.403l0,0h9.232c2.431-0.004,4.397-1.971,4.401-4.403l0,0l0.002-7.88
		c-0.006-2.431-1.973-4.399-4.403-4.403l0,0h-9.232C331.145,231.096,329.178,233.063,329.174,235.496L329.174,235.496z"/>
</g>
<g>
	<path fill="#F4F4F4" d="M354.2,254.677c-0.8-0.002-1.449-0.65-1.451-1.449l0,0v-27.583c0.002-0.8,0.651-1.448,1.451-1.451l0,0
		h27.581c0.801,0.003,1.449,0.651,1.451,1.451l0,0v27.583h-0.002c0,0.799-0.648,1.447-1.449,1.449l0,0H354.2L354.2,254.677z
		 M381.23,252.677l0.002-26.483h-26.483v26.483H381.23L381.23,252.677z"/>
	<path fill="#F4F4F4" d="M363.375,249.778c-3.536,0-6.404-2.865-6.404-6.401l0,0v-7.879c0-3.539,2.865-6.406,6.404-6.406l0,0h9.231
		c3.537,0,6.402,2.867,6.404,6.406l0,0v7.879c-0.002,3.536-2.869,6.401-6.404,6.404l0,0L363.375,249.778L363.375,249.778z
		 M358.971,235.498v7.879c0.005,2.434,1.97,4.398,4.403,4.403l0,0h9.231c2.432-0.005,4.399-1.97,4.403-4.403l0,0v-7.879
		c-0.004-2.434-1.974-4.401-4.403-4.405l0,0l-9.231-0.002C360.943,231.096,358.976,233.064,358.971,235.498L358.971,235.498z"/>
</g>
<g>
	<path fill="#F4F4F4" d="M383.997,254.677c-0.801-0.002-1.45-0.649-1.452-1.45l0,0l0.002-27.582c0-0.799,0.649-1.45,1.45-1.452l0,0
		l27.582,0.002c0.8,0,1.448,0.651,1.45,1.45l0,0v27.582h-0.002c0,0.801-0.648,1.448-1.448,1.45l0,0H383.997L383.997,254.677z
		 M411.028,252.678v-26.484h-26.482v26.482L411.028,252.678L411.028,252.678z"/>
	<path fill="#F4F4F4" d="M393.171,249.781c-3.538,0-6.403-2.868-6.406-6.404l0,0l0.003-7.881c0-3.537,2.865-6.404,6.403-6.404l0,0
		h9.23c3.538,0,6.403,2.867,6.403,6.404l0,0v7.881c0,3.536-2.865,6.404-6.403,6.404l0,0H393.171L393.171,249.781z M388.767,235.496
		v7.881c0.005,2.432,1.971,4.399,4.404,4.402l0,0h9.23c2.434-0.003,4.399-1.971,4.404-4.402l0,0v-7.881
		c-0.005-2.432-1.971-4.4-4.404-4.404l0,0h-9.23C390.741,231.095,388.772,233.064,388.767,235.496L388.767,235.496z"/>
</g>
<g>
	<path fill="#F4F4F4" d="M413.792,254.676c-0.8,0-1.449-0.649-1.451-1.449l0,0l0.002-27.582c0-0.8,0.649-1.449,1.449-1.451l0,0
		h27.584c0.801,0.002,1.447,0.653,1.449,1.451l0,0v27.582h-0.002c0,0.8-0.646,1.449-1.447,1.451l0,0L413.792,254.676
		L413.792,254.676z M440.823,252.677l0.002-26.484h-26.482v26.484H440.823L440.823,252.677z"/>
	<path fill="#F4F4F4" d="M422.967,249.781c-3.537-0.002-6.404-2.867-6.404-6.404l0,0v-7.88c0-3.538,2.867-6.405,6.404-6.405l0,0
		h9.231c3.536,0,6.403,2.867,6.403,6.405l0,0v7.88c0,3.537-2.867,6.402-6.403,6.404l0,0H422.967L422.967,249.781z M418.564,235.497
		v7.88c0.004,2.432,1.971,4.399,4.403,4.403l0,0h9.231c2.432-0.004,4.401-1.972,4.403-4.403l0,0l0.002-7.88
		c-0.004-2.432-1.974-4.4-4.405-4.405l0,0h-9.231C420.535,231.096,418.568,233.065,418.564,235.497L418.564,235.497z"/>
</g>
<g>
	<path fill="#F4F4F4" d="M443.588,254.677c-0.801-0.003-1.448-0.649-1.45-1.45l0,0v-27.583c0.002-0.798,0.649-1.449,1.45-1.451l0,0
		l27.582,0.002c0.799,0,1.45,0.646,1.452,1.449l0,0v27.583h-0.002c0,0.803-0.651,1.447-1.45,1.45l0,0H443.588L443.588,254.677z
		 M470.621,252.678l0.002-26.483l-26.483-0.002l-0.002,26.483L470.621,252.678L470.621,252.678z"/>
	<path fill="#F4F4F4" d="M452.763,249.781c-3.536-0.002-6.403-2.867-6.403-6.404l0,0v-7.88c0-3.539,2.867-6.404,6.403-6.406l0,0
		h9.233c3.535,0.002,6.401,2.867,6.403,6.406l0,0v7.88c-0.002,3.537-2.868,6.402-6.403,6.404l0,0H452.763L452.763,249.781z
		 M448.361,235.497v7.88c0.003,2.433,1.971,4.398,4.402,4.402l0,0h9.233c2.43-0.004,4.397-1.97,4.402-4.402l0,0v-7.88
		c-0.005-2.433-1.973-4.4-4.402-4.404l0,0h-9.233C450.333,231.096,448.364,233.064,448.361,235.497L448.361,235.497z"/>
</g>
<g>
	<path fill="#F4F4F4" d="M474.51,254.676c-0.801,0-1.448-0.646-1.451-1.448l0,0v-27.584c0-0.801,0.65-1.45,1.451-1.45l0,0h27.583
		c0.8,0.002,1.449,0.651,1.451,1.45l0,0v27.584h-0.002c0,0.799-0.649,1.448-1.449,1.45l0,0L474.51,254.676L474.51,254.676z
		 M501.543,252.677v-26.482l-26.482-0.002l-0.002,26.484H501.543L501.543,252.677z"/>
	<path fill="#F4F4F4" d="M483.686,249.779c-3.538,0-6.404-2.866-6.404-6.402l0,0v-7.88c0-3.539,2.866-6.404,6.404-6.406l0,0h9.233
		c3.535,0.002,6.401,2.867,6.401,6.406l0,0v7.88c0,3.536-2.866,6.402-6.401,6.404l0,0L483.686,249.779L483.686,249.779z
		 M479.282,235.497v7.88c0.005,2.434,1.972,4.397,4.404,4.402l0,0h9.233c2.431-0.005,4.397-1.969,4.401-4.402l0,0l0.002-7.88
		c-0.006-2.433-1.973-4.401-4.403-4.405l0,0h-9.233C481.255,231.095,479.287,233.064,479.282,235.497L479.282,235.497z"/>
</g>
<g>
	<path fill="#F4F4F4" d="M93.836,284.749c-0.804,0-1.45-0.648-1.452-1.448l0,0v-27.583c0.002-0.799,0.652-1.449,1.452-1.451l0,0
		h27.581c0.8,0.002,1.45,0.652,1.452,1.451l0,0V283.3h-0.002c0,0.8-0.646,1.448-1.45,1.45l0,0L93.836,284.749L93.836,284.749z
		 M120.869,282.75v-26.484H94.385v26.482L120.869,282.75L120.869,282.75z"/>
	<path fill="#F4F4F4" d="M103.012,279.851c-3.538,0-6.405-2.865-6.405-6.403l0,0v-7.881c0-3.537,2.867-6.402,6.405-6.404l0,0
		l9.23,0.002c3.538,0,6.403,2.865,6.405,6.402l0,0v7.881c-0.002,3.536-2.867,6.403-6.405,6.405l0,0L103.012,279.851L103.012,279.851
		z M98.606,265.567v7.881c0.004,2.432,1.972,4.399,4.405,4.404l0,0h9.23c2.431-0.005,4.399-1.973,4.405-4.404l0,0l-0.002-7.881
		c-0.004-2.431-1.972-4.398-4.403-4.403l0,0h-9.23C100.579,261.168,98.61,263.136,98.606,265.567L98.606,265.567z"/>
</g>
<g>
	<path fill="#F4F4F4" d="M123.632,284.75c-0.804-0.002-1.45-0.647-1.452-1.45l0,0v-27.58c0-0.805,0.652-1.452,1.452-1.452l0,0
		h27.583c0.8,0,1.448,0.649,1.45,1.452l0,0v27.58h-0.002c0,0.803-0.646,1.448-1.448,1.45l0,0H123.632L123.632,284.75z
		 M150.665,282.75v-26.484h-26.484v26.484H150.665L150.665,282.75z"/>
	<path fill="#F4F4F4" d="M132.808,279.851c-3.538,0-6.405-2.867-6.405-6.403l0,0v-7.881c0-3.537,2.867-6.402,6.405-6.404l0,0
		l9.23,0.002c3.538,0,6.403,2.865,6.405,6.402l0,0v7.881c-0.002,3.536-2.867,6.403-6.405,6.405l0,0L132.808,279.851L132.808,279.851
		z M128.403,265.567v7.881c0.006,2.432,1.972,4.399,4.405,4.404l0,0h9.23c2.431-0.005,4.399-1.973,4.405-4.404l0,0l-0.002-7.881
		c-0.004-2.431-1.972-4.398-4.403-4.403l0,0h-9.23C130.375,261.168,128.409,263.136,128.403,265.567L128.403,265.567z"/>
</g>
<g>
	<path fill="#F4F4F4" d="M153.429,284.749c-0.804,0-1.45-0.648-1.452-1.448l0,0l0.002-27.583c0-0.799,0.648-1.449,1.45-1.451l0,0
		h27.583c0.8,0.002,1.45,0.649,1.45,1.451l0,0V283.3c-0.002,0.803-0.648,1.446-1.45,1.45l0,0L153.429,284.749L153.429,284.749z
		 M180.461,282.75v-26.484h-26.484v26.482L180.461,282.75L180.461,282.75z"/>
	<path fill="#F4F4F4" d="M162.604,279.853c-3.538-0.002-6.405-2.867-6.405-6.405l0,0v-7.881c0-3.537,2.867-6.402,6.405-6.404l0,0
		h9.232c3.536,0.002,6.403,2.867,6.403,6.404l0,0v7.881c0,3.538-2.867,6.403-6.403,6.405l0,0H162.604L162.604,279.853z
		 M158.199,265.567v7.881c0.006,2.432,1.974,4.399,4.405,4.404l0,0h9.232c2.429-0.005,4.397-1.973,4.404-4.404l0,0v-7.881
		c-0.006-2.431-1.975-4.398-4.404-4.403l0,0h-9.232C160.173,261.168,158.205,263.136,158.199,265.567L158.199,265.567z"/>
</g>
<g>
	<path fill="#F4F4F4" d="M183.227,284.749c-0.804-0.002-1.45-0.646-1.452-1.448l0,0v-27.583c0-0.802,0.65-1.449,1.452-1.451l0,0
		h27.581c0.8,0.002,1.45,0.652,1.45,1.451l0,0V283.3c0,0.8-0.648,1.448-1.45,1.45l0,0L183.227,284.749L183.227,284.749z
		 M210.257,282.75l0.002-26.484h-26.484v26.482L210.257,282.75L210.257,282.75z"/>
	<path fill="#F4F4F4" d="M192.401,279.851c-3.538,0-6.403-2.867-6.405-6.403l0,0v-7.881c0.002-3.537,2.867-6.402,6.405-6.404l0,0
		l9.232,0.002c3.536,0,6.401,2.867,6.403,6.402l0,0v7.881c-0.002,3.536-2.867,6.403-6.403,6.405l0,0L192.401,279.851
		L192.401,279.851z M187.996,265.567v7.881c0.006,2.432,1.974,4.399,4.405,4.404l0,0h9.232c2.431-0.005,4.397-1.973,4.401-4.404l0,0
		v-7.881c-0.004-2.431-1.97-4.398-4.401-4.403l0,0h-9.232C189.97,261.168,188.002,263.136,187.996,265.567L187.996,265.567z"/>
</g>
<g>
	<path fill="#F4F4F4" d="M213.021,284.75c-0.802-0.002-1.448-0.647-1.45-1.45l0,0v-27.58c0.002-0.803,0.65-1.452,1.45-1.452l0,0
		h27.583c0.802,0,1.45,0.649,1.45,1.452l0,0v27.58c-0.002,0.803-0.646,1.448-1.45,1.45l0,0H213.021L213.021,284.75z M240.053,282.75
		l0.002-26.484h-26.484v26.484H240.053L240.053,282.75z"/>
	<path fill="#F4F4F4" d="M222.197,279.853c-3.538-0.002-6.402-2.869-6.405-6.405l0,0v-7.881c0.002-3.537,2.867-6.402,6.405-6.404
		l0,0l9.232,0.002c3.536,0,6.403,2.865,6.403,6.402l0,0v7.881c0,3.536-2.867,6.403-6.403,6.405l0,0H222.197L222.197,279.853z
		 M217.792,265.567v7.881c0.006,2.432,1.974,4.399,4.405,4.404l0,0h9.232c2.431-0.005,4.397-1.973,4.404-4.404l0,0l-0.002-7.881
		c-0.004-2.431-1.97-4.398-4.401-4.403l0,0h-9.232C219.764,261.168,217.798,263.136,217.792,265.567L217.792,265.567z"/>
</g>
<g>
	<path fill="#F4F4F4" d="M242.819,284.749c-0.804,0-1.45-0.648-1.452-1.448l0,0l0.002-27.583c0-0.799,0.648-1.449,1.45-1.451l0,0
		H270.4c0.8,0.002,1.45,0.652,1.45,1.451l0,0V283.3c0,0.8-0.646,1.448-1.45,1.45l0,0L242.819,284.749L242.819,284.749z
		 M269.85,282.75l0.002-26.484h-26.484v26.482L269.85,282.75L269.85,282.75z"/>
	<path fill="#F4F4F4" d="M251.994,279.853c-3.538-0.002-6.402-2.869-6.402-6.405l0,0l-0.002-7.881
		c0.002-3.535,2.867-6.402,6.405-6.404l0,0l9.233,0.002c3.536,0,6.402,2.867,6.402,6.402l0,0v7.881c0,3.536-2.867,6.403-6.402,6.405
		l0,0H251.994L251.994,279.853z M247.59,265.567v7.881c0.004,2.432,1.97,4.399,4.403,4.404l0,0h9.233
		c2.431-0.005,4.397-1.973,4.403-4.404l0,0l-0.002-7.881c-0.004-2.431-1.97-4.398-4.401-4.403l0,0h-9.233
		C249.561,261.168,247.595,263.136,247.59,265.567L247.59,265.567z"/>
</g>
<g>
	<path fill="#F4F4F4" d="M272.615,284.749c-0.802,0-1.448-0.648-1.45-1.448l0,0v-27.583c0.002-0.799,0.65-1.449,1.45-1.451l0,0
		h27.583c0.802,0.002,1.447,0.652,1.449,1.451l0,0V283.3c-0.002,0.798-0.646,1.446-1.449,1.45l0,0L272.615,284.749L272.615,284.749z
		 M299.647,282.75v-26.484h-26.482v26.482L299.647,282.75L299.647,282.75z"/>
	<path fill="#F4F4F4" d="M281.79,279.853c-3.535-0.002-6.402-2.867-6.402-6.405l0,0l-0.002-7.881
		c0.002-3.537,2.87-6.402,6.405-6.404l0,0h9.23c3.538,0.002,6.405,2.867,6.405,6.404l0,0v7.881c0,3.538-2.867,6.403-6.405,6.405l0,0
		H281.79L281.79,279.853z M277.387,265.567v7.881c0.004,2.432,1.973,4.399,4.403,4.404l0,0h9.23
		c2.433-0.005,4.401-1.973,4.406-4.404l0,0v-7.881c-0.005-2.431-1.973-4.398-4.406-4.403l0,0h-9.23
		C279.359,261.168,277.391,263.136,277.387,265.567L277.387,265.567z"/>
</g>
<g>
	<path fill="#F4F4F4" d="M302.412,284.749c-0.804,0-1.45-0.648-1.452-1.448l0,0l0.002-27.583c0-0.799,0.648-1.449,1.45-1.451l0,0
		h27.583c0.8,0,1.448,0.649,1.45,1.451l0,0V283.3h-0.002c-0.002,0.803-0.646,1.446-1.448,1.45l0,0L302.412,284.749L302.412,284.749z
		 M329.444,282.75v-26.484H302.96v26.482L329.444,282.75L329.444,282.75z"/>
	<path fill="#F4F4F4" d="M311.586,279.851c-3.538,0-6.402-2.867-6.402-6.403l0,0l-0.003-7.881c0.003-3.535,2.867-6.402,6.405-6.404
		l0,0l9.232,0.002c3.536,0,6.403,2.865,6.403,6.402l0,0v7.881c0,3.538-2.867,6.403-6.403,6.405l0,0L311.586,279.851L311.586,279.851
		z M307.183,265.567v7.881c0.004,2.432,1.973,4.399,4.403,4.404l0,0h9.232c2.429-0.005,4.399-1.973,4.403-4.404l0,0v-7.881
		c-0.004-2.431-1.975-4.398-4.403-4.403l0,0h-9.232C309.156,261.168,307.187,263.136,307.183,265.567L307.183,265.567z"/>
</g>
<g>
	<path fill="#F4F4F4" d="M332.208,284.749c-0.802,0-1.45-0.646-1.452-1.448l0,0l0.002-27.583c0-0.802,0.65-1.449,1.45-1.451l0,0
		h27.583c0.8,0.002,1.447,0.652,1.449,1.451l0,0V283.3c0,0.8-0.647,1.448-1.449,1.45l0,0L332.208,284.749L332.208,284.749z
		 M359.24,282.75v-26.484h-26.482l-0.002,26.482L359.24,282.75L359.24,282.75z"/>
	<path fill="#F4F4F4" d="M341.383,279.853c-3.538-0.002-6.403-2.867-6.403-6.405l0,0l-0.002-7.881
		c0.002-3.537,2.867-6.402,6.405-6.404l0,0h9.23c3.537,0.002,6.404,2.869,6.404,6.404l0,0v7.881c0,3.536-2.867,6.403-6.404,6.405
		l0,0H341.383L341.383,279.853z M336.979,265.567v7.881c0.005,2.432,1.973,4.399,4.404,4.404l0,0h9.23
		c2.433-0.005,4.401-1.973,4.405-4.404l0,0l-0.002-7.881c-0.002-2.431-1.971-4.398-4.403-4.403l0,0h-9.23
		C338.952,261.168,336.984,263.136,336.979,265.567L336.979,265.567z"/>
</g>
<g>
	<path fill="#F4F4F4" d="M362.004,284.749c-0.804,0-1.449-0.649-1.451-1.448l0,0l0.002-27.582c0-0.799,0.649-1.45,1.449-1.453l0,0
		h27.582c0.799,0.003,1.45,0.654,1.452,1.453l0,0V283.3h-0.002c0,0.799-0.647,1.448-1.45,1.45l0,0L362.004,284.749L362.004,284.749z
		 M389.037,282.75l0.002-26.483l-26.483-0.002l-0.002,26.483L389.037,282.75L389.037,282.75z"/>
	<path fill="#F4F4F4" d="M371.181,279.852c-3.538,0-6.403-2.868-6.403-6.403l0,0l-0.003-7.881c0.003-3.538,2.868-6.403,6.406-6.405
		l0,0l9.23,0.002c3.538,0,6.403,2.865,6.403,6.403l0,0v7.881c0,3.535-2.865,6.403-6.403,6.403l0,0H371.181L371.181,279.852z
		 M366.776,265.568v7.881c0.004,2.431,1.972,4.398,4.405,4.402l0,0l9.23,0.003c2.431-0.007,4.398-1.975,4.402-4.405l0,0v-7.881
		c-0.004-2.432-1.972-4.4-4.402-4.403l0,0h-9.23C368.748,261.167,366.78,263.136,366.776,265.568L366.776,265.568z"/>
</g>
<g>
	<path fill="#F4F4F4" d="M391.8,284.75c-0.804-0.002-1.447-0.647-1.451-1.449l0,0l0.002-27.583c0-0.802,0.649-1.451,1.449-1.451l0,0
		h27.583c0.8,0.002,1.45,0.651,1.45,1.451l0,0V283.3c0,0.8-0.647,1.447-1.45,1.449l0,0H391.8L391.8,284.75z M418.833,282.75
		l0.002-26.482H392.35v26.482H418.833L418.833,282.75z"/>
	<path fill="#F4F4F4" d="M400.976,279.852c-3.538,0-6.403-2.866-6.403-6.404l0,0v-7.881c0-3.536,2.865-6.402,6.403-6.404l0,0
		l9.232,0.002c3.536,0,6.403,2.866,6.403,6.402l0,0v7.881c0,3.538-2.867,6.404-6.403,6.404l0,0H400.976L400.976,279.852z
		 M396.572,265.567v7.881c0.004,2.432,1.973,4.4,4.404,4.404l0,0h9.232c2.43-0.004,4.399-1.973,4.404-4.404l0,0l-0.002-7.881
		c-0.003-2.43-1.973-4.398-4.402-4.402l0,0l-9.232-0.002C398.544,261.168,396.576,263.137,396.572,265.567L396.572,265.567z"/>
</g>
<g>
	<path fill="#F4F4F4" d="M421.598,284.749c-0.805,0-1.451-0.649-1.451-1.449l0,0v-27.582c0.002-0.798,0.649-1.449,1.451-1.451l0,0
		h45.595c0.801,0,1.449,0.648,1.451,1.451l0,0v27.582h-0.002c-0.002,0.804-0.646,1.447-1.449,1.451l0,0L421.598,284.749
		L421.598,284.749z M466.643,282.75v-26.483l-44.496-0.002v26.483L466.643,282.75L466.643,282.75z"/>
	<path fill="#F4F4F4" d="M430.774,279.852c-3.539,0-6.405-2.868-6.405-6.403l0,0v-7.881c0-3.537,2.866-6.402,6.405-6.402l0,0h27.245
		c3.535,0,6.402,2.865,6.402,6.402l0,0v7.881c0,3.537-2.867,6.403-6.402,6.403l0,0H430.774L430.774,279.852z M426.368,265.568v7.881
		c0.006,2.431,1.973,4.398,4.406,4.404l0,0h27.245c2.429-0.006,4.397-1.974,4.401-4.404l0,0v-7.881
		c-0.004-2.431-1.973-4.4-4.401-4.404l0,0h-27.245C428.34,261.167,426.374,263.135,426.368,265.568L426.368,265.568z"/>
</g>
<g>
	<path fill="#F4F4F4" d="M469.408,284.75c-0.803-0.002-1.45-0.649-1.45-1.45l0,0v-27.581c0-0.802,0.649-1.45,1.45-1.452l0,0h27.581
		c0.802,0.002,1.45,0.65,1.45,1.452l0,0v27.581c0,0.801-0.646,1.448-1.45,1.45l0,0H469.408L469.408,284.75z M496.439,282.75
		l0.002-26.484h-26.482l-0.002,26.482L496.439,282.75L496.439,282.75z"/>
	<path fill="#F4F4F4" d="M478.583,279.852c-3.539,0-6.404-2.867-6.404-6.402l0,0l-0.002-7.882c0.002-3.537,2.867-6.404,6.406-6.404
		l0,0h9.232c3.535,0,6.402,2.867,6.402,6.404l0,0v7.882c0,3.535-2.867,6.402-6.402,6.402l0,0H478.583L478.583,279.852z
		 M474.178,265.568v7.882c0.005,2.429,1.973,4.398,4.405,4.402l0,0h9.232c2.429-0.004,4.398-1.974,4.403-4.402l0,0l-0.003-7.882
		c-0.002-2.432-1.972-4.399-4.4-4.403l0,0l-9.232-0.002C476.151,261.168,474.183,263.136,474.178,265.568L474.178,265.568z"/>
</g>
<g>
	<path fill="#F4F4F4" d="M93.76,314.821c-0.8,0-1.451-0.648-1.451-1.451l0,0v-27.581c0.002-0.802,0.648-1.45,1.451-1.45l0,0h43.343
		c0.802,0,1.451,0.648,1.451,1.45l0,0v27.581c0,0.803-0.65,1.449-1.451,1.451l0,0H93.76L93.76,314.821z M136.555,312.822v-26.484
		H94.311l-0.002,26.484H136.555L136.555,312.822z"/>
	<path fill="#F4F4F4" d="M102.935,309.923c-3.538,0-6.403-2.867-6.403-6.402l0,0v-7.881c0-3.538,2.865-6.405,6.403-6.405l0,0h24.994
		c3.538,0,6.403,2.867,6.403,6.405l0,0v7.881c0,3.535-2.865,6.402-6.403,6.402l0,0H102.935L102.935,309.923z M98.533,295.64v7.881
		c0.004,2.429,1.971,4.398,4.402,4.402l0,0h24.994c2.432-0.004,4.399-1.974,4.403-4.402l0,0h0.002v-7.881
		c-0.006-2.434-1.973-4.4-4.405-4.405l0,0h-24.994C100.503,291.24,98.537,293.207,98.533,295.64L98.533,295.64z"/>
</g>
<g>
	<path fill="#F4F4F4" d="M175.27,344.618c-0.801-0.002-1.45-0.652-1.452-1.45l0,0l0.002-27.583c0-0.8,0.648-1.448,1.45-1.45l0,0
		h241.937c0.799,0.002,1.448,0.65,1.45,1.45l0,0v27.583c-0.002,0.798-0.651,1.448-1.45,1.45l0,0H175.27L175.27,344.618z
		 M416.656,342.618v-26.483H175.82l-0.002,26.483H416.656L416.656,342.618z"/>
	<path fill="#F4F4F4" d="M184.444,339.72c-3.536,0-6.403-2.867-6.403-6.403l0,0v-7.88c0-3.538,2.867-6.405,6.403-6.405l0,0h223.586
		c3.538,0,6.403,2.867,6.405,6.405l0,0v7.88h-0.002c0,3.536-2.865,6.403-6.403,6.403l0,0H184.444L184.444,339.72z M180.041,325.437
		v7.88c0.004,2.43,1.974,4.399,4.404,4.403l0,0h223.586c2.433-0.004,4.4-1.972,4.404-4.403l0,0v-7.88
		c-0.004-2.434-1.972-4.401-4.404-4.405l0,0H184.444C182.012,321.036,180.044,323.003,180.041,325.437L180.041,325.437z"/>
</g>
<g>
	<path fill="#F4F4F4" d="M139.319,314.821c-0.8,0-1.451-0.648-1.451-1.451l0,0v-27.581c0.002-0.802,0.646-1.45,1.451-1.45l0,0H166.9
		c0.803,0,1.449,0.648,1.451,1.45l0,0v27.581c0,0.803-0.65,1.451-1.451,1.451l0,0H139.319L139.319,314.821z M166.35,312.822
		l0.002-26.484h-26.484v26.484H166.35L166.35,312.822z"/>
	<path fill="#F4F4F4" d="M148.494,309.924c-3.536-0.002-6.403-2.866-6.403-6.404l0,0v-7.881c0-3.536,2.865-6.403,6.403-6.405l0,0
		l9.232,0.002c3.536,0,6.403,2.867,6.403,6.403l0,0v7.881c0,3.538-2.867,6.402-6.403,6.404l0,0H148.494L148.494,309.924z
		 M144.089,295.639l0.002,7.881c0.004,2.432,1.971,4.398,4.403,4.402l0,0l9.232,0.002c2.432-0.006,4.399-1.973,4.403-4.404l0,0
		v-7.881c-0.004-2.432-1.971-4.4-4.403-4.402l0,0h-9.232C146.062,291.239,144.095,293.208,144.089,295.639L144.089,295.639z"/>
</g>
<g>
	<path fill="#F4F4F4" d="M169.116,314.82c-0.801,0-1.451-0.646-1.451-1.448l0,0v-27.584c0.002-0.803,0.648-1.448,1.451-1.451l0,0
		h27.581c0.803,0.003,1.449,0.648,1.451,1.451l0,0v27.584c0,0.802-0.65,1.448-1.451,1.45l0,0L169.116,314.82L169.116,314.82z
		 M196.148,312.821v-26.482l-26.484-0.002v26.484H196.148L196.148,312.821z"/>
	<path fill="#F4F4F4" d="M178.29,309.924c-3.538-0.002-6.403-2.869-6.403-6.404l0,0v-7.881c0-3.536,2.865-6.403,6.403-6.405l0,0
		h9.232c3.538,0.002,6.403,2.869,6.403,6.405l0,0v7.881c0,3.535-2.865,6.402-6.403,6.404l0,0H178.29L178.29,309.924z
		 M173.887,295.639v7.881c0.004,2.432,1.971,4.398,4.403,4.402l0,0h9.232c2.432-0.004,4.399-1.971,4.403-4.402l0,0v-7.881
		c-0.004-2.432-1.971-4.4-4.403-4.402l0,0h-9.232C175.858,291.239,173.891,293.208,173.887,295.639L173.887,295.639z"/>
</g>
<g>
	<path fill="#F4F4F4" d="M198.912,314.821c-0.801-0.002-1.449-0.65-1.451-1.451l0,0v-27.581c0.002-0.802,0.648-1.45,1.451-1.45l0,0
		h27.583c0.803,0,1.447,0.648,1.449,1.45l0,0v27.581c0,0.803-0.651,1.451-1.449,1.451l0,0H198.912L198.912,314.821z
		 M225.945,312.822v-26.484h-26.482l-0.002,26.484H225.945L225.945,312.822z"/>
	<path fill="#F4F4F4" d="M208.086,309.924c-3.536-0.002-6.403-2.866-6.403-6.404l0,0v-7.881c0-3.538,2.867-6.403,6.403-6.405l0,0
		l9.232,0.002c3.538,0,6.403,2.867,6.403,6.403l0,0v7.881c0,3.538-2.865,6.402-6.403,6.404l0,0H208.086L208.086,309.924z
		 M203.682,295.639l0.002,7.881c0.004,2.432,1.971,4.398,4.403,4.402l0,0l9.232,0.002c2.432-0.006,4.399-1.973,4.403-4.404l0,0
		h0.002v-7.881c-0.006-2.432-1.973-4.4-4.405-4.402l0,0h-9.232C205.655,291.239,203.688,293.208,203.682,295.639L203.682,295.639z"
		/>
</g>
<g>
	<path fill="#F4F4F4" d="M228.709,314.821c-0.801-0.002-1.451-0.648-1.451-1.451l0,0v-27.581c0-0.802,0.648-1.45,1.451-1.45l0,0
		h27.581c0.805,0.002,1.449,0.65,1.451,1.45l0,0v27.581h-0.002c0,0.801-0.646,1.451-1.449,1.451l0,0H228.709L228.709,314.821z
		 M255.74,312.822v-26.484h-26.482v26.484H255.74L255.74,312.822z"/>
	<path fill="#F4F4F4" d="M237.885,309.922c-3.538,0-6.405-2.864-6.405-6.402l0,0v-7.881c0-3.538,2.867-6.403,6.405-6.405l0,0
		l9.23,0.002c3.538,0,6.403,2.865,6.403,6.403l0,0v7.881h0.002c-0.002,3.538-2.867,6.402-6.405,6.404l0,0L237.885,309.922
		L237.885,309.922z M233.48,295.639v7.881c0.004,2.432,1.973,4.398,4.405,4.402l0,0l9.23,0.002c2.432-0.006,4.399-1.973,4.405-4.404
		l0,0v-7.881c-0.006-2.432-1.974-4.4-4.405-4.402l0,0l-9.23-0.003C235.453,291.239,233.484,293.208,233.48,295.639L233.48,295.639z"
		/>
</g>
<g>
	<path fill="#F4F4F4" d="M258.505,314.82c-0.8,0-1.449-0.648-1.451-1.448l0,0v-27.584c0-0.8,0.648-1.448,1.451-1.451l0,0h27.581
		c0.803,0,1.451,0.651,1.451,1.451l0,0v27.584c0,0.8-0.652,1.448-1.451,1.45l0,0L258.505,314.82L258.505,314.82z M285.538,312.821
		v-26.482l-26.482-0.002l-0.002,26.484H285.538L285.538,312.821z"/>
	<path fill="#F4F4F4" d="M267.681,309.922c-3.538,0-6.403-2.864-6.405-6.402l0,0v-7.881c0.002-3.538,2.867-6.403,6.405-6.405l0,0
		l9.23,0.002c3.538,0,6.403,2.867,6.403,6.403l0,0v7.881c0,3.535-2.865,6.402-6.403,6.404l0,0L267.681,309.922L267.681,309.922z
		 M263.276,295.639v7.881c0.004,2.432,1.973,4.398,4.405,4.402l0,0l9.23,0.002c2.432-0.006,4.399-1.973,4.403-4.404l0,0h0.002
		v-7.881c-0.006-2.432-1.974-4.4-4.405-4.402l0,0l-9.23-0.003C265.25,291.239,263.28,293.208,263.276,295.639L263.276,295.639z"/>
</g>
<g>
	<path fill="#F4F4F4" d="M288.301,314.82c-0.801,0-1.449-0.646-1.451-1.448l0,0l0.002-27.584c0.002-0.803,0.646-1.448,1.449-1.451
		l0,0h27.583c0.803,0.003,1.449,0.651,1.451,1.451l0,0v27.584h-0.002c0,0.8-0.648,1.448-1.449,1.45l0,0L288.301,314.82
		L288.301,314.82z M315.333,312.821v-26.482l-26.482-0.002v26.484H315.333L315.333,312.821z"/>
	<path fill="#F4F4F4" d="M297.477,309.922c-3.538,0-6.405-2.864-6.405-6.402l0,0v-7.881c0-3.538,2.867-6.403,6.405-6.405l0,0h9.233
		c3.535,0.002,6.4,2.867,6.4,6.405l0,0v7.881h0.002c-0.002,3.538-2.867,6.402-6.402,6.404l0,0L297.477,309.922L297.477,309.922z
		 M293.071,295.639l0.002,7.881c0.004,2.432,1.973,4.398,4.404,4.402l0,0h9.233c2.429-0.004,4.396-1.971,4.4-4.402l0,0h0.002v-7.881
		c-0.006-2.432-1.974-4.4-4.402-4.402l0,0l-9.233-0.003C295.045,291.239,293.077,293.208,293.071,295.639L293.071,295.639z"/>
</g>
<g>
	<path fill="#F4F4F4" d="M318.098,314.82c-0.801,0-1.449-0.648-1.451-1.448l0,0v-27.584c0-0.8,0.646-1.448,1.451-1.451l0,0h27.583
		c0.803,0.003,1.449,0.651,1.449,1.451l0,0v27.584c0,0.8-0.648,1.448-1.449,1.45l0,0L318.098,314.82L318.098,314.82z
		 M345.13,312.821v-26.482l-26.482-0.002l-0.002,26.484H345.13L345.13,312.821z"/>
	<path fill="#F4F4F4" d="M327.274,309.924c-3.538-0.002-6.405-2.869-6.405-6.404l0,0v-7.881c0-3.536,2.867-6.403,6.405-6.405l0,0
		l9.23,0.002c3.538,0,6.403,2.867,6.403,6.403l0,0v7.881c0,3.535-2.865,6.402-6.403,6.404l0,0H327.274L327.274,309.924z
		 M322.869,295.639v7.881c0.004,2.432,1.972,4.398,4.405,4.402l0,0l9.23,0.002c2.432-0.006,4.398-1.973,4.402-4.404l0,0h0.003
		v-7.881c-0.007-2.432-1.974-4.4-4.405-4.402l0,0h-9.23C324.84,291.239,322.873,293.208,322.869,295.639L322.869,295.639z"/>
</g>
<g>
	<path fill="#F4F4F4" d="M347.895,314.82c-0.799,0-1.449-0.648-1.451-1.448l0,0v-27.584c0-0.8,0.648-1.451,1.451-1.451l0,0h27.583
		c0.803,0.003,1.447,0.648,1.449,1.451l0,0v27.584c-0.002,0.802-0.65,1.448-1.449,1.45l0,0L347.895,314.82L347.895,314.82z
		 M374.928,312.821v-26.482l-26.484-0.002v26.484H374.928L374.928,312.821z"/>
	<path fill="#F4F4F4" d="M357.07,309.922c-3.538,0-6.403-2.864-6.403-6.402l0,0v-7.881c0-3.538,2.865-6.403,6.403-6.405l0,0
		l9.233,0.002c3.535,0,6.402,2.865,6.402,6.403l0,0v7.881c0,3.538-2.867,6.402-6.402,6.404l0,0L357.07,309.922L357.07,309.922z
		 M352.666,295.639v7.881c0.004,2.432,1.973,4.398,4.404,4.402l0,0l9.233,0.002c2.429-0.006,4.398-1.973,4.402-4.404l0,0v-7.881
		c-0.004-2.432-1.974-4.4-4.402-4.402l0,0l-9.233-0.003C354.638,291.239,352.669,293.208,352.666,295.639L352.666,295.639z"/>
</g>
<g>
	<path fill="#F4F4F4" d="M377.692,314.82c-0.802,0-1.45-0.648-1.45-1.448l0,0v-27.584c0-0.8,0.646-1.448,1.45-1.451l0,0h27.581
		c0.803,0.003,1.449,0.651,1.451,1.451l0,0v27.584h-0.002c0,0.8-0.648,1.448-1.449,1.45l0,0L377.692,314.82L377.692,314.82z
		 M404.723,312.821v-26.482l-26.482-0.002v26.484H404.723L404.723,312.821z"/>
	<path fill="#F4F4F4" d="M386.867,309.923c-3.539,0-6.403-2.867-6.403-6.403l0,0v-7.881c0-3.538,2.864-6.403,6.403-6.405l0,0h9.23
		c3.538,0.002,6.403,2.869,6.403,6.405l0,0v7.881h0.002c-0.002,3.536-2.867,6.403-6.405,6.403l0,0H386.867L386.867,309.923z
		 M382.461,295.639l0.002,7.881c0.004,2.43,1.972,4.398,4.403,4.402l0,0h9.23c2.434-0.004,4.399-1.971,4.403-4.402l0,0h0.002v-7.881
		c-0.006-2.432-1.972-4.399-4.405-4.403l0,0h-9.23C384.435,291.24,382.467,293.208,382.461,295.639L382.461,295.639z"/>
</g>
<g>
	<path fill="#F4F4F4" d="M407.487,314.82c-0.8,0-1.448-0.648-1.45-1.448l0,0v-27.583c0-0.801,0.646-1.449,1.45-1.451l0,0h27.583
		c0.803,0.002,1.447,0.646,1.449,1.451l0,0v27.583c0,0.802-0.648,1.448-1.449,1.45l0,0L407.487,314.82L407.487,314.82z
		 M434.519,312.822l0.002-26.484h-26.484v26.482L434.519,312.822L434.519,312.822z"/>
	<path fill="#F4F4F4" d="M416.664,309.922c-3.538,0-6.405-2.865-6.405-6.401l0,0v-7.882c0-3.538,2.867-6.403,6.405-6.405l0,0
		l9.23,0.002c3.538,0,6.403,2.865,6.403,6.403l0,0v7.882h0.002c-0.002,3.536-2.867,6.401-6.405,6.403l0,0L416.664,309.922
		L416.664,309.922z M412.257,295.639l0.002,7.882c0.004,2.429,1.972,4.398,4.404,4.402l0,0h9.23c2.431-0.004,4.4-1.974,4.404-4.402
		l0,0v-7.882c-0.004-2.432-1.974-4.399-4.404-4.404l0,0h-9.23C414.231,291.24,412.263,293.208,412.257,295.639L412.257,295.639z"/>
</g>
<g>
	<path fill="#F4F4F4" d="M437.285,314.821c-0.802,0-1.449-0.646-1.451-1.45l0,0v-27.583c0.002-0.804,0.647-1.448,1.451-1.45l0,0
		h45.594c0.805,0.002,1.45,0.65,1.452,1.45l0,0v27.583h-0.002c0,0.8-0.648,1.45-1.45,1.45l0,0H437.285L437.285,314.821z
		 M482.33,312.822v-26.483l-44.495-0.002l-0.002,26.485H482.33L482.33,312.822z"/>
	<path fill="#F4F4F4" d="M446.459,309.922c-3.537,0-6.404-2.866-6.404-6.402l0,0v-7.881c0-3.537,2.867-6.404,6.404-6.404l0,0h27.245
		c3.538,0,6.402,2.867,6.402,6.404l0,0v7.881h0.002c-0.002,3.536-2.866,6.402-6.404,6.405l0,0L446.459,309.922L446.459,309.922z
		 M442.055,295.639v7.881c0.005,2.43,1.973,4.398,4.404,4.402l0,0l27.245,0.002c2.432-0.006,4.398-1.973,4.402-4.404l0,0h0.002
		v-7.881c-0.006-2.433-1.973-4.399-4.404-4.403l0,0h-27.245C444.028,291.24,442.06,293.208,442.055,295.639L442.055,295.639z"/>
</g>
<path fill="#F4F4F4" d="M71.936,346.157V188.102c0.002-3.539,2.868-6.404,6.405-6.404l0,0h434.317c3.537,0,6.402,2.867,6.404,6.404
	l0,0v158.055h-0.002c0,3.537-2.865,6.402-6.402,6.402l0,0L78.34,352.562C74.803,352.559,71.938,349.694,71.936,346.157
	L71.936,346.157z M73.937,188.102v158.055c0.004,2.431,1.972,4.399,4.404,4.404l0,0h434.317c2.432-0.005,4.399-1.972,4.403-4.404
	l0,0V188.102c-0.004-2.432-1.972-4.399-4.403-4.403l0,0H78.34C75.908,183.702,73.941,185.669,73.937,188.102L73.937,188.102z"/>
<path fill="#F4F4F4" d="M8.769,364.043c-2.791,0-5.053-2.262-5.053-5.052l0,0V173.917c0-2.791,2.262-5.053,5.053-5.053l0,0H582.23
	c2.79,0,5.053,2.262,5.053,5.053l0,0v185.075c0,2.79-2.263,5.052-5.053,5.052l0,0H8.769L8.769,364.043z M5.717,173.917
	L5.714,358.992c0.004,1.685,1.368,3.048,3.055,3.052l0,0H582.23c1.687-0.004,3.05-1.367,3.055-3.052l0,0h-0.003l0.003-185.075
	c-0.005-1.687-1.368-3.05-3.055-3.052l0,0L8.769,170.862C7.082,170.866,5.719,172.229,5.717,173.917L5.717,173.917z"/>
<path fill="#F4F4F4" d="M5.053,390.388C2.263,390.386,0,388.125,0,385.335l0,0V5.055C0,2.263,2.263,0.002,5.053,0l0,0h580.893
	c2.79,0.002,5.051,2.263,5.053,5.055l0,0v380.28h-0.002c0,2.79-2.261,5.051-5.051,5.053l0,0H5.053L5.053,390.388z M2.001,5.055
	v380.28c0.002,1.686,1.366,3.048,3.052,3.052l0,0h580.893c1.686-0.004,3.048-1.366,3.052-3.052l0,0V5.055
	c-0.004-1.688-1.366-3.052-3.052-3.054l0,0H5.053C3.367,2.003,2.003,3.367,2.001,5.055L2.001,5.055z"/>
<path fill="#F4F4F4" d="M199.428,113.628c-0.803,0-1.45-0.649-1.452-1.45l0,0l0.002-16.886c0-0.801,0.645-1.45,1.45-1.452l0,0
	h189.813c0.803,0.002,1.448,0.651,1.45,1.452l0,0v16.886h-0.002c0,0.801-0.647,1.45-1.448,1.45l0,0H199.428L199.428,113.628z
	 M388.689,111.629l0.002-15.787L199.978,95.84v15.789H388.689L388.689,111.629z"/>
<path fill="#F4F4F4" d="M8.881,76.298c-3.04,0-5.502-2.463-5.502-5.502l0,0V16.309c0-3.04,2.463-5.502,5.502-5.502l0,0h573.236
	c3.04,0,5.503,2.462,5.503,5.502l0,0v54.487h0.002c-0.002,3.04-2.465,5.502-5.505,5.502l0,0H8.881L8.881,76.298z M5.377,16.309
	l0.002,54.487c0.002,1.934,1.568,3.5,3.502,3.502l0,0h573.236c1.935-0.002,3.5-1.568,3.502-3.502l0,0h0.003l-0.003-54.487
	c-0.002-1.934-1.567-3.5-3.502-3.502l0,0H8.881C6.947,12.809,5.381,14.375,5.377,16.309L5.377,16.309z"/>
<g>
	<path fill="#F4F4F4" d="M48.792,23.338c-1.05,0-1.9-0.851-1.9-1.9l0,0V18.06c0-1.05,0.851-1.898,1.9-1.9l0,0h235.971
		c1.05,0.002,1.898,0.851,1.898,1.9l0,0v3.378c0,1.05-0.849,1.9-1.898,1.9l0,0H48.792L48.792,23.338z M284.662,21.339V18.16H48.89
		v3.179H284.662L284.662,21.339z"/>
	<g>
		<polygon fill="#F4F4F4" points="119.73,22.226 119.73,17.273 121.73,17.273 121.73,22.226 119.73,22.226 		"/>
		<polygon fill="#F4F4F4" points="122.77,22.226 122.77,17.271 124.77,17.271 124.77,22.226 122.77,22.226 		"/>
	</g>
	<g>
		<polygon fill="#F4F4F4" points="160.372,22.227 160.372,17.273 162.374,17.273 162.374,22.227 160.372,22.227 		"/>
		<polygon fill="#F4F4F4" points="163.413,22.226 163.413,17.273 165.413,17.273 165.413,22.226 163.413,22.226 		"/>
	</g>
	<g>
		<polygon fill="#F4F4F4" points="221.618,22.226 221.618,17.272 223.618,17.272 223.618,22.226 221.618,22.226 		"/>
		<polygon fill="#F4F4F4" points="224.657,22.227 224.657,17.273 226.658,17.273 226.658,22.227 224.657,22.227 		"/>
	</g>
	<polygon fill="#F4F4F4" points="115.902,22.338 115.902,17.047 117.902,17.047 117.902,22.338 115.902,22.338 	"/>
	<polygon fill="#F4F4F4" points="52.295,22.339 52.295,17.047 54.295,17.047 54.295,22.339 52.295,22.339 	"/>
	<g>
		<path fill="#F4F4F4" d="M48.792,32.57c-1.05,0-1.9-0.851-1.9-1.9l0,0v-3.378c0-1.05,0.851-1.899,1.9-1.901l0,0h235.971
			c1.05,0.002,1.898,0.851,1.898,1.901l0,0v3.378c0,1.05-0.849,1.9-1.898,1.9l0,0H48.792L48.792,32.57z M284.662,30.571v-3.179
			L48.89,27.39v3.181H284.662L284.662,30.571z"/>
		<g>
			<polygon fill="#F4F4F4" points="119.731,31.458 119.731,26.505 121.731,26.505 121.731,31.458 119.731,31.458 			"/>
			<polygon fill="#F4F4F4" points="122.77,31.458 122.77,26.504 124.77,26.504 124.77,31.458 122.77,31.458 			"/>
		</g>
		<g>
			<polygon fill="#F4F4F4" points="160.372,31.458 160.372,26.504 162.374,26.504 162.374,31.458 160.372,31.458 			"/>
			<polygon fill="#F4F4F4" points="163.413,31.457 163.413,26.503 165.413,26.503 165.413,31.457 163.413,31.457 			"/>
		</g>
		<g>
			<polygon fill="#F4F4F4" points="221.618,31.458 221.618,26.504 223.618,26.504 223.618,31.458 221.618,31.458 			"/>
			<polygon fill="#F4F4F4" points="224.657,31.458 224.657,26.504 226.658,26.504 226.658,31.458 224.657,31.458 			"/>
		</g>
		<polygon fill="#F4F4F4" points="115.904,31.57 115.904,26.28 117.904,26.28 117.904,31.57 115.904,31.57 		"/>
		<polygon fill="#F4F4F4" points="52.294,31.57 52.294,26.28 54.295,26.28 54.295,31.57 52.294,31.57 		"/>
	</g>
	<g>
		<path fill="#F4F4F4" d="M48.792,41.802c-1.05,0-1.9-0.851-1.9-1.901l0,0v-3.376c0-1.052,0.851-1.9,1.9-1.902l0,0h235.971
			c1.05,0.002,1.898,0.851,1.898,1.902l0,0v3.376c0,1.05-0.849,1.901-1.898,1.901l0,0H48.792L48.792,41.802z M284.662,39.802v-3.179
			H48.89v3.179H284.662L284.662,39.802z"/>
		<g>
			<polygon fill="#F4F4F4" points="119.731,40.69 119.731,35.734 121.731,35.734 121.731,40.69 119.731,40.69 			"/>
			<polygon fill="#F4F4F4" points="122.771,40.69 122.771,35.734 124.771,35.734 124.771,40.69 122.771,40.69 			"/>
		</g>
		<g>
			<polygon fill="#F4F4F4" points="160.372,40.689 160.372,35.736 162.374,35.736 162.374,40.689 160.372,40.689 			"/>
			<polygon fill="#F4F4F4" points="163.413,40.689 163.413,35.736 165.413,35.736 165.413,40.689 163.413,40.689 			"/>
		</g>
		<g>
			<polygon fill="#F4F4F4" points="221.618,40.69 221.618,35.736 223.618,35.736 223.618,40.69 221.618,40.69 			"/>
			<polygon fill="#F4F4F4" points="224.657,40.69 224.657,35.736 226.658,35.736 226.658,40.69 224.657,40.69 			"/>
		</g>
		<polygon fill="#F4F4F4" points="115.904,40.803 115.904,35.511 117.904,35.511 117.904,40.803 115.904,40.803 		"/>
		<polygon fill="#F4F4F4" points="52.295,40.803 52.295,35.511 54.295,35.511 54.295,40.803 52.295,40.803 		"/>
	</g>
	<g>
		<path fill="#F4F4F4" d="M48.792,51.033c-1.05,0-1.9-0.851-1.9-1.9l0,0v-3.378c0-1.05,0.851-1.898,1.9-1.901l0,0h235.971
			c1.05,0.002,1.898,0.851,1.898,1.901l0,0v3.378c0,1.05-0.849,1.9-1.898,1.9l0,0H48.792L48.792,51.033z M284.662,49.034v-3.179
			L48.89,45.854v3.179L284.662,49.034L284.662,49.034z"/>
		<g>
			<polygon fill="#F4F4F4" points="119.729,49.92 119.729,44.967 121.73,44.967 121.73,49.92 119.729,49.92 			"/>
			<polygon fill="#F4F4F4" points="122.771,49.92 122.771,44.967 124.771,44.967 124.771,49.92 122.771,49.92 			"/>
		</g>
		<g>
			<polygon fill="#F4F4F4" points="160.372,49.92 160.372,44.967 162.374,44.967 162.374,49.92 160.372,49.92 			"/>
			<polygon fill="#F4F4F4" points="163.413,49.92 163.413,44.967 165.413,44.967 165.413,49.92 163.413,49.92 			"/>
		</g>
		<g>
			<polygon fill="#F4F4F4" points="221.618,49.92 221.618,44.968 223.618,44.968 223.618,49.92 221.618,49.92 			"/>
			<polygon fill="#F4F4F4" points="224.657,49.921 224.657,44.967 226.658,44.967 226.658,49.921 224.657,49.921 			"/>
		</g>
		<polygon fill="#F4F4F4" points="115.902,50.033 115.902,44.743 117.903,44.743 117.903,50.033 115.902,50.033 		"/>
		<polygon fill="#F4F4F4" points="52.295,50.033 52.295,44.743 54.295,44.743 54.295,50.033 52.295,50.033 		"/>
	</g>
	<g>
		<path fill="#F4F4F4" d="M48.792,60.265c-1.05,0-1.9-0.851-1.9-1.901l0,0v-3.375c0-1.052,0.851-1.901,1.9-1.903l0,0h235.971
			c1.05,0.002,1.898,0.851,1.898,1.903l0,0v3.375c0,1.05-0.849,1.901-1.898,1.901l0,0H48.792L48.792,60.265z M284.662,58.266v-3.178
			H48.89v3.178H284.662L284.662,58.266z"/>
		<g>
			<polygon fill="#F4F4F4" points="119.731,59.152 119.731,54.199 121.73,54.199 121.73,59.152 119.731,59.152 			"/>
			<polygon fill="#F4F4F4" points="122.771,59.152 122.771,54.199 124.771,54.199 124.771,59.152 122.771,59.152 			"/>
		</g>
		<g>
			<polygon fill="#F4F4F4" points="160.372,59.154 160.372,54.2 162.374,54.2 162.374,59.154 160.372,59.154 			"/>
			<polygon fill="#F4F4F4" points="163.413,59.153 163.413,54.199 165.413,54.199 165.413,59.153 163.413,59.153 			"/>
		</g>
		<g>
			<polygon fill="#F4F4F4" points="221.618,59.152 221.618,54.2 223.618,54.2 223.618,59.152 221.618,59.152 			"/>
			<polygon fill="#F4F4F4" points="224.657,59.153 224.657,54.198 226.658,54.198 226.658,59.153 224.657,59.153 			"/>
		</g>
		<polygon fill="#F4F4F4" points="115.903,59.266 115.903,53.974 117.903,53.974 117.903,59.266 115.903,59.266 		"/>
		<polygon fill="#F4F4F4" points="52.295,59.266 52.295,53.974 54.294,53.974 54.294,59.266 52.295,59.266 		"/>
	</g>
	<g>
		<path fill="#F4F4F4" d="M48.792,69.497c-1.05,0-1.9-0.851-1.9-1.9l0,0v-3.378c0-1.05,0.851-1.898,1.9-1.9l0,0h235.971
			c1.05,0.002,1.898,0.851,1.898,1.9l0,0v3.378c0,1.05-0.849,1.9-1.898,1.9l0,0H48.792L48.792,69.497z M284.662,67.498v-3.179H48.89
			v3.179H284.662L284.662,67.498z"/>
		<g>
			<polygon fill="#F4F4F4" points="119.73,68.385 119.73,63.431 121.73,63.431 121.73,68.385 119.73,68.385 			"/>
			<polygon fill="#F4F4F4" points="122.771,68.385 122.771,63.431 124.771,63.431 124.771,68.385 122.771,68.385 			"/>
		</g>
		<g>
			<polygon fill="#F4F4F4" points="160.372,68.385 160.372,63.431 162.374,63.431 162.374,68.385 160.372,68.385 			"/>
			<polygon fill="#F4F4F4" points="163.413,68.385 163.413,63.43 165.413,63.43 165.413,68.385 163.413,68.385 			"/>
		</g>
		<g>
			<polygon fill="#F4F4F4" points="221.618,68.384 221.618,63.432 223.618,63.432 223.618,68.384 221.618,68.384 			"/>
			<polygon fill="#F4F4F4" points="224.657,68.384 224.657,63.432 226.658,63.432 226.658,68.384 224.657,68.384 			"/>
		</g>
		<polygon fill="#F4F4F4" points="115.903,68.498 115.903,63.206 117.904,63.206 117.904,68.498 115.903,68.498 		"/>
		<polygon fill="#F4F4F4" points="52.294,68.498 52.294,63.206 54.294,63.206 54.294,68.498 52.294,68.498 		"/>
	</g>
	<g>
		<path fill="#F4F4F4" d="M306.153,23.338c-1.051,0-1.9-0.85-1.9-1.901l0,0v-3.376c0-1.051,0.85-1.901,1.9-1.901l0,0h235.97
			c1.051,0,1.9,0.852,1.9,1.901l0,0v3.376c-0.002,1.049-0.85,1.901-1.9,1.901l0,0H306.153L306.153,23.338z M542.023,21.34v-3.179
			L306.25,18.159v3.179L542.023,21.34L542.023,21.34z"/>
		<g>
			<g>
				<polygon fill="#F4F4F4" points="359.941,22.189 359.941,17.084 361.942,17.084 361.942,22.189 359.941,22.189 				"/>
				<polygon fill="#F4F4F4" points="363.093,22.188 363.093,17.085 365.095,17.085 365.095,22.188 363.093,22.188 				"/>
			</g>
			<g>
				<polygon fill="#F4F4F4" points="421.561,22.189 421.561,17.086 423.562,17.086 423.562,22.189 421.561,22.189 				"/>
				<polygon fill="#F4F4F4" points="424.715,22.188 424.715,17.085 426.714,17.085 426.714,22.188 424.715,22.188 				"/>
			</g>
			<g>
				<polygon fill="#F4F4F4" points="483.181,22.188 483.181,17.085 485.18,17.085 485.18,22.188 483.181,22.188 				"/>
				<polygon fill="#F4F4F4" points="486.335,22.188 486.335,17.085 488.333,17.085 488.333,22.188 486.335,22.188 				"/>
			</g>
		</g>
	</g>
	<g>
		<path fill="#F4F4F4" d="M306.153,32.576c-1.051-0.002-1.9-0.852-1.9-1.901l0,0v-3.376c0-1.051,0.85-1.901,1.9-1.903l0,0
			l235.97,0.002c1.051,0,1.898,0.852,1.9,1.901l0,0v3.376c-0.002,1.049-0.85,1.901-1.9,1.901l0,0H306.153L306.153,32.576z
			 M542.023,30.575v-3.179H306.25v3.179H542.023L542.023,30.575z"/>
		<g>
			<g>
				<polygon fill="#F4F4F4" points="359.941,31.425 359.941,26.322 361.942,26.322 361.942,31.425 359.941,31.425 				"/>
				<polygon fill="#F4F4F4" points="363.093,31.425 363.093,26.322 365.095,26.322 365.095,31.425 363.093,31.425 				"/>
			</g>
			<g>
				<polygon fill="#F4F4F4" points="421.561,31.425 421.561,26.321 423.562,26.321 423.562,31.425 421.561,31.425 				"/>
				<polygon fill="#F4F4F4" points="424.715,31.425 424.715,26.322 426.714,26.322 426.714,31.425 424.715,31.425 				"/>
			</g>
			<g>
				<polygon fill="#F4F4F4" points="483.181,31.427 483.181,26.321 485.18,26.321 485.18,31.427 483.181,31.427 				"/>
				<polygon fill="#F4F4F4" points="486.335,31.427 486.335,26.323 488.333,26.323 488.333,31.427 486.335,31.427 				"/>
			</g>
		</g>
	</g>
	<g>
		<path fill="#F4F4F4" d="M306.153,41.812c-1.051,0-1.9-0.85-1.9-1.899l0,0v-3.378c0-1.051,0.85-1.899,1.9-1.901l0,0h235.97
			c1.051,0,1.9,0.852,1.9,1.901l0,0v3.378c-0.002,1.047-0.85,1.899-1.9,1.901l0,0L306.153,41.812L306.153,41.812z M542.023,39.813
			v-3.179H306.25v3.179H542.023L542.023,39.813z"/>
		<g>
			<g>
				<polygon fill="#F4F4F4" points="359.941,40.663 359.941,35.56 361.942,35.56 361.942,40.663 359.941,40.663 				"/>
				<polygon fill="#F4F4F4" points="363.093,40.664 363.093,35.559 365.095,35.559 365.095,40.664 363.093,40.664 				"/>
			</g>
			<g>
				<polygon fill="#F4F4F4" points="421.561,40.663 421.561,35.559 423.562,35.559 423.562,40.663 421.561,40.663 				"/>
				<polygon fill="#F4F4F4" points="424.715,40.662 424.715,35.559 426.714,35.559 426.714,40.662 424.715,40.662 				"/>
			</g>
			<g>
				<polygon fill="#F4F4F4" points="483.181,40.664 483.181,35.561 485.18,35.561 485.18,40.664 483.181,40.664 				"/>
				<polygon fill="#F4F4F4" points="486.335,40.663 486.335,35.559 488.333,35.559 488.333,40.663 486.335,40.663 				"/>
			</g>
		</g>
	</g>
	<g>
		<path fill="#F4F4F4" d="M306.153,51.05c-1.051,0-1.9-0.85-1.9-1.899l0,0v-3.378c0-1.051,0.85-1.901,1.9-1.901l0,0h235.97
			c1.051,0,1.898,0.852,1.9,1.901l0,0v3.378c-0.002,1.049-0.85,1.897-1.9,1.899l0,0H306.153L306.153,51.05z M542.023,49.051v-3.179
			H306.25v3.177L542.023,49.051L542.023,49.051z"/>
		<g>
			<g>
				<polygon fill="#F4F4F4" points="359.941,49.901 359.941,44.796 361.942,44.796 361.942,49.901 359.941,49.901 				"/>
				<polygon fill="#F4F4F4" points="363.093,49.901 363.093,44.796 365.095,44.796 365.095,49.901 363.093,49.901 				"/>
			</g>
			<g>
				<polygon fill="#F4F4F4" points="421.561,49.9 421.561,44.797 423.562,44.797 423.562,49.9 421.561,49.9 				"/>
				<polygon fill="#F4F4F4" points="424.715,49.901 424.715,44.796 426.714,44.796 426.714,49.901 424.715,49.901 				"/>
			</g>
			<g>
				<polygon fill="#F4F4F4" points="483.181,49.9 483.181,44.797 485.18,44.797 485.18,49.9 483.181,49.9 				"/>
				<polygon fill="#F4F4F4" points="486.335,49.9 486.335,44.797 488.333,44.797 488.333,49.9 486.335,49.9 				"/>
			</g>
		</g>
	</g>
	<g>
		<path fill="#F4F4F4" d="M306.153,60.288c-1.051,0-1.9-0.852-1.9-1.901l0,0v-3.378c0-1.049,0.85-1.899,1.9-1.901l0,0l235.97,0.002
			c1.051,0,1.9,0.852,1.9,1.899l0,0v3.378c-0.002,1.049-0.85,1.901-1.9,1.901l0,0H306.153L306.153,60.288z M542.023,58.287v-3.179
			H306.25v3.179H542.023L542.023,58.287z"/>
		<g>
			<g>
				<polygon fill="#F4F4F4" points="359.941,59.139 359.941,54.034 361.942,54.034 361.942,59.139 359.941,59.139 				"/>
				<polygon fill="#F4F4F4" points="363.093,59.139 363.093,54.034 365.095,54.034 365.095,59.139 363.093,59.139 				"/>
			</g>
			<g>
				<polygon fill="#F4F4F4" points="421.561,59.138 421.561,54.035 423.562,54.035 423.562,59.138 421.561,59.138 				"/>
				<polygon fill="#F4F4F4" points="424.715,59.139 424.715,54.033 426.714,54.033 426.714,59.139 424.715,59.139 				"/>
			</g>
			<g>
				<polygon fill="#F4F4F4" points="483.181,59.137 483.181,54.034 485.18,54.034 485.18,59.137 483.181,59.137 				"/>
				<polygon fill="#F4F4F4" points="486.335,59.139 486.335,54.033 488.333,54.033 488.333,59.139 486.335,59.139 				"/>
			</g>
		</g>
	</g>
	<g>
		<path fill="#F4F4F4" d="M306.236,69.524c-1.049,0-1.899-0.85-1.899-1.899l0,0v-3.378c0-1.051,0.849-1.901,1.899-1.901l0,0h235.972
			c1.049,0.002,1.898,0.852,1.9,1.901l0,0v3.378c-0.002,1.049-0.852,1.897-1.9,1.899l0,0H306.236L306.236,69.524z M542.108,67.526
			v-3.179H306.335v3.177L542.108,67.526L542.108,67.526z"/>
		<g>
			<g>
				<polygon fill="#F4F4F4" points="360.026,68.376 360.026,63.271 362.027,63.271 362.027,68.376 360.026,68.376 				"/>
				<polygon fill="#F4F4F4" points="363.179,68.375 363.179,63.271 365.178,63.271 365.178,68.375 363.179,68.375 				"/>
			</g>
			<g>
				<polygon fill="#F4F4F4" points="421.645,68.376 421.645,63.272 423.646,63.272 423.646,68.376 421.645,68.376 				"/>
				<polygon fill="#F4F4F4" points="424.798,68.375 424.798,63.272 426.798,63.272 426.798,68.375 424.798,68.375 				"/>
			</g>
			<g>
				<polygon fill="#F4F4F4" points="483.265,68.376 483.265,63.271 485.266,63.271 485.266,68.376 483.265,68.376 				"/>
				<polygon fill="#F4F4F4" points="486.418,68.375 486.418,63.271 488.418,63.271 488.418,68.375 486.418,68.375 				"/>
			</g>
		</g>
	</g>
</g>
</svg>
