<?xml version="1.0" encoding="utf-8"?>
<!-- Generator: Adobe Illustrator 13.0.0, SVG Export Plug-In . SVG Version: 6.00 Build 14948)  -->
<!DOCTYPE svg [
	<!ENTITY ns_flows "http://ns.adobe.com/Flows/1.0/">
	<!ENTITY ns_extend "http://ns.adobe.com/Extensibility/1.0/">
	<!ENTITY ns_ai "http://ns.adobe.com/AdobeIllustrator/10.0/">
	<!ENTITY ns_graphs "http://ns.adobe.com/Graphs/1.0/">
	<!ENTITY ns_vars "http://ns.adobe.com/Variables/1.0/">
	<!ENTITY ns_imrep "http://ns.adobe.com/ImageReplacement/1.0/">
	<!ENTITY ns_sfw "http://ns.adobe.com/SaveForWeb/1.0/">
	<!ENTITY ns_custom "http://ns.adobe.com/GenericCustomNamespace/1.0/">
	<!ENTITY ns_adobe_xpath "http://ns.adobe.com/XPath/1.0/">
]>
<svg version="1.2" baseProfile="tiny" id="Lines" xmlns:x="&ns_extend;" xmlns:i="&ns_ai;" xmlns:graph="&ns_graphs;"
	 xmlns="http://www.w3.org/2000/svg" xmlns:xlink="http://www.w3.org/1999/xlink" xmlns:a="http://ns.adobe.com/AdobeSVGViewerExtensions/3.0/"
	 x="0px" y="0px" width="598.191px" height="350.257px" viewBox="0 0 598.191 350.257" xml:space="preserve">
<metadata>
	<sfw  xmlns="&ns_sfw;">
		<slices></slices>
		<sliceSourceBounds  height="321.999" width="310.001" y="382.501" x="805.999" bottomLeftOrigin="true"></sliceSourceBounds>
	</sfw>
</metadata>
<path fill="#F4F4F4" d="M415.096,183.462v-25.334h37.499v-138c-0.009-4.418-3.582-7.992-8-8l0,0H154.596
	c-4.42,0.008-7.994,3.582-8,8l0,0l-0.002,138h37.501v24.75h-2v-22.75h-37.5V20.127c0-5.522,4.477-9.999,10.001-9.999l0,0h289.999
	c5.523,0,10.001,4.477,10.001,9.999l0,0v140.001l-37.5-0.002v23.336H415.096L415.096,183.462z"/>
<path fill="#F4F4F4" d="M154.596,332.127c-5.525,0-10-4.478-10-10l0,0v-149h1.999v149c0.008,4.419,3.583,7.991,8.001,8.001l0,0
	h289.999c4.419-0.01,7.991-3.582,8.001-8.001l0,0v-149h1.999v149c0,5.522-4.478,10-10,10l0,0H154.596L154.596,332.127z"/>
<path fill="#F4F4F4" d="M156.26,184.462v-0.002v-0.999v-1.001l286.67,0.002c5.337-0.011,9.654-4.328,9.663-9.667l0,0
	c-0.009-5.337-4.326-9.657-9.663-9.666l0,0H156.26c-5.337,0.008-9.655,4.328-9.666,9.666l0,0c0.011,5.339,4.328,9.657,9.666,9.667
	l0,0v0.999v0.999c-6.441,0-11.664-5.222-11.666-11.666l0,0c0.002-6.444,5.225-11.666,11.666-11.666l0,0h286.67
	c6.441,0,11.663,5.222,11.663,11.666l0,0c0,6.444-5.222,11.666-11.663,11.667l0,0H156.26L156.26,184.462z"/>
<path fill="#F4F4F4" d="M223.763,151.794c-2.764,0-5-2.238-5.002-5l0,0V31.461c0.002-2.761,2.238-5,5.002-5l0,0H375.43
	c2.762,0,4.997,2.238,4.997,5l0,0v115.333c0,2.761-2.235,5-4.997,5l0,0H223.763L223.763,151.794z M220.761,31.461v115.333
	c0.004,1.657,1.345,2.996,3.002,3l0,0H375.43c1.655-0.004,2.996-1.343,3-3l0,0V31.461c-0.004-1.657-1.345-2.996-3-3l0,0H223.763
	C222.106,28.465,220.765,29.805,220.761,31.461L220.761,31.461z"/>
<path fill="#F4F4F4" d="M229.096,144.795c-1.658-0.002-3-1.342-3.002-3l0,0l0.002-105.334c0-1.657,1.342-3,3-3l0,0h140.999
	c1.657,0,2.999,1.344,2.999,3l0,0v105.334c0,1.655-1.342,3-2.999,3l0,0H229.096L229.096,144.795z M228.096,36.461l-0.002,105.334
	c0.002,0.549,0.45,0.998,1.002,1l0,0h140.999c0.554-0.002,0.998-0.448,1-1l0,0V36.461c-0.002-0.552-0.446-0.998-1-1l0,0H229.096
	C228.544,35.463,228.096,35.909,228.096,36.461L228.096,36.461z"/>
<path fill="#F4F4F4" d="M218.346,312.253V192.501c0-2.208,1.79-3.998,4-3.998l0,0l154.499-0.002c2.21,0.002,4,1.792,4,4l0,0v119.752
	c0,2.208-1.79,3.998-4,3.998l0,0l-154.499,0.002C220.136,316.251,218.346,314.461,218.346,312.253L218.346,312.253z
	 M220.345,192.501v119.752c0.002,1.104,0.897,1.997,2.001,1.999l0,0h154.499c1.104-0.002,1.997-0.896,1.999-1.999l0,0h0.002
	l-0.002-119.752c-0.002-1.104-0.895-1.997-1.999-1.999l0,0H222.346C221.242,190.504,220.347,191.398,220.345,192.501
	L220.345,192.501z"/>
<path fill="#F4F4F4" d="M227.97,307.752c-1.105,0-1.999-0.896-1.999-1.999l0,0v-106.75c0-1.107,0.894-2.001,1.999-2.001l0,0h143.25
	c1.104,0,1.999,0.894,1.999,2.001l0,0v106.75c0,1.104-0.895,1.999-1.999,1.999l0,0H227.97L227.97,307.752z M227.97,199.003v106.75
	h143.25v-106.75v-0.002H227.97V199.003L227.97,199.003z"/>
<path fill="#F4F4F4" d="M173.846,262.001c-1.105,0-2.001-0.894-2.001-1.999l0,0V247.94h-12.063c-1.105,0-1.999-0.896-1.999-1.999
	l0,0V232.69c0-1.105,0.894-2,1.999-2l0,0h12.063v-12.063c0-1.104,0.896-1.998,2.001-1.998l0,0h13.249c1.105,0,2,0.894,2,1.998l0,0
	v12.063h12.063c1.105,0,1.999,0.895,1.999,2l0,0v13.251c0,1.104-0.893,1.999-1.999,1.999l0,0h-12.063v12.063
	c0,1.105-0.896,1.999-2,1.999l0,0H173.846L173.846,262.001z M173.846,260.002h13.249v-12.188c0.006-0.306,0.025-0.743,0.353-1.2l0,0
	c0.334-0.468,0.956-0.692,1.502-0.674l0,0h12.208V232.69h-12.146c-0.395,0-0.891-0.083-1.317-0.455l0,0
	c-0.43-0.376-0.608-0.955-0.6-1.481l0,0v-12.127h-13.249v12.167c-0.002,0.376-0.075,0.842-0.417,1.266l0,0
	c-0.343,0.428-0.929,0.644-1.458,0.631l0,0h-12.188v13.249h12.085c0.391,0.015,0.823-0.008,1.34,0.345l0,0
	c0.53,0.393,0.648,1.022,0.638,1.469l0,0V260.002L173.846,260.002z"/>
<path fill="#F4F4F4" d="M407.764,214.793c0-5.247,4.253-9.5,9.499-9.5l0,0c5.247,0,9.5,4.253,9.5,9.5l0,0
	c0,5.246-4.253,9.499-9.5,9.499l0,0C412.017,224.292,407.764,220.04,407.764,214.793L407.764,214.793z M409.762,214.793
	c0.008,4.142,3.359,7.493,7.501,7.501l0,0c4.143-0.008,7.493-3.359,7.5-7.501l0,0c-0.007-4.143-3.357-7.493-7.5-7.5l0,0
	C413.121,207.3,409.77,210.651,409.762,214.793L409.762,214.793z"/>
<path fill="#F4F4F4" d="M407.764,250.294c0-5.249,4.253-9.502,9.499-9.502l0,0c5.247,0,9.5,4.253,9.5,9.502l0,0
	c0,5.245-4.253,9.498-9.5,9.498l0,0C412.017,259.792,407.764,255.54,407.764,250.294L407.764,250.294z M409.762,250.294
	c0.008,4.141,3.359,7.491,7.501,7.5l0,0c4.143-0.009,7.493-3.359,7.5-7.5l0,0c-0.007-4.145-3.357-7.493-7.5-7.501l0,0
	C413.121,242.801,409.77,246.15,409.762,250.294L409.762,250.294z"/>
<path fill="#F4F4F4" d="M390.096,232.627c0-5.246,4.255-9.5,9.501-9.5l0,0c5.246,0,9.5,4.254,9.5,9.5l0,0
	c0,5.246-4.254,9.499-9.5,9.499l0,0C394.351,242.126,390.096,237.874,390.096,232.627L390.096,232.627z M392.097,232.627
	c0.008,4.143,3.358,7.492,7.5,7.501l0,0c4.142-0.009,7.492-3.358,7.5-7.501l0,0c-0.008-4.142-3.358-7.494-7.5-7.5l0,0
	C395.455,225.133,392.104,228.486,392.097,232.627L392.097,232.627z"/>
<path fill="#F4F4F4" d="M425.932,232.626c0-5.245,4.252-9.499,9.5-9.499l0,0c5.245,0,9.499,4.254,9.499,9.499l0,0
	c0,5.248-4.254,9.5-9.499,9.5l0,0C430.184,242.126,425.932,237.875,425.932,232.626L425.932,232.626z M427.931,232.626
	c0.008,4.144,3.357,7.493,7.501,7.502l0,0c4.141-0.009,7.493-3.358,7.499-7.502l0,0c-0.006-4.141-3.358-7.492-7.499-7.499l0,0
	C431.288,225.134,427.938,228.486,427.931,232.626L427.931,232.626z"/>
<path fill="#F4F4F4" d="M390.43,290.127c0-2.947,2.386-5.334,5.334-5.334l0,0c2.943,0,5.331,2.387,5.331,5.334l0,0
	c0,2.945-2.388,5.332-5.331,5.332l0,0C392.815,295.459,390.43,293.073,390.43,290.127L390.43,290.127z M392.428,290.127
	c0.004,1.84,1.493,3.329,3.336,3.332l0,0c1.84-0.003,3.327-1.492,3.331-3.332l0,0c-0.004-1.842-1.491-3.331-3.331-3.335l0,0
	C393.921,286.796,392.432,288.286,392.428,290.127L392.428,290.127z"/>
<path fill="#F4F4F4" d="M390.43,307.794c0-2.947,2.387-5.333,5.333-5.333l0,0c2.945,0,5.332,2.386,5.332,5.333l0,0
	c0,2.945-2.387,5.333-5.332,5.333l0,0C392.816,313.127,390.43,310.74,390.43,307.794L390.43,307.794z M392.428,307.794
	c0.005,1.84,1.493,3.328,3.335,3.332l0,0c1.841-0.004,3.33-1.492,3.332-3.332l0,0c-0.002-1.842-1.491-3.33-3.332-3.334l0,0
	C393.921,304.464,392.433,305.953,392.428,307.794L392.428,307.794z"/>
<g>
	<path fill="#F4F4F4" d="M185.136,157.628c-1.657,0-2.999-1.343-2.999-2.999l0,0v-5.251c0-1.658,1.342-2.999,2.999-2.999l0,0h5.251
		c1.656,0,2.998,1.341,3,2.999l0,0v5.251c-0.002,1.656-1.344,2.999-3,2.999l0,0H185.136L185.136,157.628z M184.137,149.377v5.251
		c0,0.55,0.447,0.997,0.999,0.999l0,0h5.251c0.55-0.002,0.997-0.449,1-0.999l0,0v-5.251c-0.002-0.552-0.45-0.999-1-0.999l0,0h-5.251
		C184.584,148.378,184.137,148.826,184.137,149.377L184.137,149.377z"/>
	<path fill="#F4F4F4" d="M408.804,157.627c-1.657,0-2.999-1.343-2.999-2.999l0,0v-5.251c0-1.656,1.342-2.999,2.999-2.999l0,0h5.251
		c1.656,0,2.997,1.341,2.999,2.999l0,0v5.251c-0.002,1.658-1.343,2.999-2.999,2.999l0,0H408.804L408.804,157.627z M407.803,149.377
		v5.251c0.002,0.552,0.448,0.999,1.001,0.999l0,0h5.251c0.549,0,0.997-0.448,0.999-0.999l0,0v-5.251
		c-0.002-0.55-0.45-0.999-0.999-1.001l0,0h-5.251C408.251,148.379,407.805,148.825,407.803,149.377L407.803,149.377z"/>
</g>
<g>
	<path fill="#F4F4F4" d="M185.137,33.628c-1.658,0-3-1.344-3-3l0,0v-5.251c0-1.656,1.342-3,3-3l0,0h5.25c1.658,0,3,1.343,3,3l0,0
		v5.251c0,1.656-1.341,3-3,3l0,0H185.137L185.137,33.628z M184.136,25.377v5.251c0.002,0.55,0.449,0.999,1,0.999l0,0h5.25
		c0.552,0,0.999-0.449,1-0.999l0,0v-5.251c-0.002-0.55-0.448-0.999-1-1l0,0h-5.25C184.585,24.379,184.138,24.827,184.136,25.377
		L184.136,25.377z"/>
	<path fill="#F4F4F4" d="M408.804,33.627c-1.657,0-2.999-1.343-2.999-2.999l0,0v-5.251c0-1.656,1.342-2.999,2.999-2.999l0,0h5.251
		c1.656,0,2.997,1.341,2.999,2.999l0,0v5.251c-0.002,1.658-1.343,2.999-2.999,2.999l0,0H408.804L408.804,33.627z M407.803,25.378
		v5.251c0.002,0.553,0.448,0.999,1.001,0.999l0,0h5.251c0.549,0,0.997-0.448,0.999-0.999l0,0v-5.251
		c-0.002-0.551-0.45-0.999-0.999-1.001l0,0h-5.251C408.251,24.379,407.805,24.825,407.803,25.378L407.803,25.378z"/>
</g>
<path fill="#F4F4F4" d="M434.263,178.796c0,0.553-0.448,1-1,1h-0.332c-0.552,0-1-0.447-1-1v-12c0-0.552,0.448-1,1-1h0.332
	c0.552,0,1,0.448,1,1V178.796z"/>
<path fill="#F4F4F4" d="M439.597,178.796c0,0.553-0.448,1-1,1h-0.332c-0.552,0-1-0.447-1-1v-12c0-0.552,0.448-1,1-1h0.332
	c0.552,0,1,0.448,1,1V178.796z"/>
<path fill="#F4F4F4" d="M301.346,174.378c0,0.829-0.672,1.5-1.5,1.5l0,0c-0.829,0-1.5-0.671-1.5-1.5v-5.25
	c0-0.829,0.671-1.5,1.5-1.5l0,0c0.828,0,1.5,0.671,1.5,1.5V174.378z"/>
<g>
	<g>
		<circle fill="#F4F4F4" cx="405.564" cy="85.941" r="1.563"/>
		<circle fill="#F4F4F4" cx="417.189" cy="85.941" r="1.563"/>
		<circle fill="#F4F4F4" cx="428.814" cy="85.941" r="1.563"/>
		<circle fill="#F4F4F4" cx="405.564" cy="97.316" r="1.563"/>
		<circle fill="#F4F4F4" cx="417.189" cy="97.316" r="1.563"/>
		<circle fill="#F4F4F4" cx="428.814" cy="97.316" r="1.563"/>
	</g>
	<g>
		<circle fill="#F4F4F4" cx="170.377" cy="85.941" r="1.563"/>
		<circle fill="#F4F4F4" cx="182.002" cy="85.941" r="1.563"/>
		<circle fill="#F4F4F4" cx="193.627" cy="85.941" r="1.563"/>
		<circle fill="#F4F4F4" cx="170.377" cy="97.316" r="1.563"/>
		<circle fill="#F4F4F4" cx="182.002" cy="97.316" r="1.563"/>
		<circle fill="#F4F4F4" cx="193.627" cy="97.316" r="1.563"/>
	</g>
</g>
</svg>
