<?xml version="1.0" encoding="UTF-8" standalone="no"?>
<!-- Generator: Adobe Illustrator 13.0.0, SVG Export Plug-In . SVG Version: 6.00 Build 14948)  -->
<svg id="Layer_3" xmlns:rdf="http://www.w3.org/1999/02/22-rdf-syntax-ns#" xmlns="http://www.w3.org/2000/svg" xml:space="preserve" height="259.2px" viewBox="0 0 616.698 259.199" width="616.7px" version="1.2" y="0px" x="0px" xmlns:cc="http://creativecommons.org/ns#" xmlns:dc="http://purl.org/dc/elements/1.1/"><metadata id="metadata93"><rdf:RDF><cc:Work rdf:about=""><dc:format>image/svg+xml</dc:format><dc:type rdf:resource="http://purl.org/dc/dcmitype/StillImage"/><dc:title/></cc:Work></rdf:RDF></metadata>
<path id="path3" style="baseline-shift:baseline;block-progression:tb;color:#000000;direction:ltr;text-indent:0;text-align:start;enable-background:accumulate;text-transform:none;" fill="#f4f4f4" d="m27.438,20.25c-5.5524,0-10.062,4.5101-10.062,10.062v34.875,161.44c0,5.5533,4.5101,10.094,10.062,10.094h559.81c5.5524,0,10.062-4.5404,10.062-10.094v-106.03c0-5.5514-4.5092-10.062-10.062-10.062h-334.03c-3.5718,0-5.7006-0.8948-7-2.3125s-1.874-3.5227-1.875-6.25v-71.656c0-5.5526-4.5101-10.062-10.062-10.062h-45.375c-5.5524,0-10.094,4.5101-10.094,10.062v18.875c0,1.6396-0.25669,3.0642-0.875,3.9688-0.61831,0.90454-1.5753,1.4688-3.625,1.4688h-87.156c-1.4638,0-2.4266-0.27808-3.0938-1-0.66715-0.72192-1.1562-2.0644-1.1562-4.4375v-18.875c-0.008-5.565-4.549-10.075-10.102-10.075h-45.375zm0,2,45.375,0c4.4716,0,8.0938,3.5909,8.0938,8.0625v18.875c0,2.6429,0.53365,4.5327,1.6875,5.7812,1.1538,1.2486,2.8023,1.6562,4.5625,1.6562h87.156c2.4883,0,4.2876-0.89004,5.2812-2.3438,0.99369-1.4537,1.2188-3.2703,1.2188-5.0938v-18.875c0-4.4716,3.6222-8.0625,8.0938-8.0625h45.375c4.4716,0,8.0625,3.5911,8.0625,8.0625v71.656c0.001,3.0047,0.64067,5.6674,2.4062,7.5938,1.7656,1.9263,4.5565,2.9688,8.4688,2.9688h334.03c4.4727,0,8.0625,3.5919,8.0625,8.0625v106.03c0,4.4727-3.5909,8.0938-8.0625,8.0938h-559.81c-4.4716,0-8.0625-3.6211-8.0625-8.0938v-161.44-34.875c0-4.4716,3.5909-8.0625,8.0625-8.0625z"/>
<path id="path5" stroke="#F4F4F4" stroke-width="2" d="M179.82,122.51" fill="none"/>
<path id="path7" style="baseline-shift:baseline;block-progression:tb;color:#000000;direction:ltr;text-indent:0;text-align:start;enable-background:accumulate;text-transform:none;" fill="#f4f4f4" d="m254.56,25.75c-5.5533,0-10.062,4.5101-10.062,10.062v63.062c0,5.5526,4.5101,10.062,10.062,10.062h104.38c5.5523,0,10.062-4.5092,10.062-10.062v-63.062c0-5.556-4.51-10.066-10.06-10.066h-104.38zm0,2,104.38,0c4.4727,0,8.0625,3.5908,8.0625,8.0625v63.062c0,4.4727-3.5908,8.0625-8.0625,8.0625h-104.38c-4.4716,0-8.0625-3.5911-8.0625-8.0625v-63.062c0-4.4716,3.5898-8.0625,8.0625-8.0625z"/>
<path id="circle9" style="baseline-shift:baseline;block-progression:tb;color:#000000;direction:ltr;text-indent:0;text-align:start;enable-background:accumulate;text-transform:none;" fill="#f4f4f4" d="m256.47,31.938c-3.4421,0-6.25,2.8391-6.25,6.2812s2.8079,6.25,6.25,6.25,6.2812-2.8079,6.2812-6.25-2.8391-6.2812-6.2812-6.2812zm0,2c2.3613,0,4.2812,1.92,4.2812,4.2812,0,2.3613-1.92,4.25-4.2812,4.25-2.3613,0-4.25-1.8887-4.25-4.25s1.8887-4.2812,4.25-4.2812z"/>
<path id="circle11" style="baseline-shift:baseline;block-progression:tb;color:#000000;direction:ltr;text-indent:0;text-align:start;enable-background:accumulate;text-transform:none;" fill="#f4f4f4" d="m280.84,31.938c-3.4421,0-6.25,2.8391-6.25,6.2812s2.8079,6.25,6.25,6.25,6.25-2.8079,6.25-6.25-2.8079-6.2812-6.25-6.2812zm0,2c2.3613,0,4.25,1.92,4.25,4.2812,0,2.3613-1.8887,4.25-4.25,4.25s-4.25-1.8887-4.25-4.25,1.8887-4.2812,4.25-4.2812z"/>
<path id="circle13" style="baseline-shift:baseline;block-progression:tb;color:#000000;direction:ltr;text-indent:0;text-align:start;enable-background:accumulate;text-transform:none;" fill="#f4f4f4" d="m305.19,31.938c-3.4421,0-6.25,2.8391-6.25,6.2812s2.8079,6.25,6.25,6.25,6.2812-2.8079,6.2812-6.25-2.8391-6.2812-6.2812-6.2812zm0,2c2.3613,0,4.2812,1.92,4.2812,4.2812,0,2.3613-1.92,4.25-4.2812,4.25-2.3613,0-4.25-1.8887-4.25-4.25s1.8887-4.2812,4.25-4.2812z"/>
<path id="circle15" style="baseline-shift:baseline;block-progression:tb;color:#000000;direction:ltr;text-indent:0;text-align:start;enable-background:accumulate;text-transform:none;" fill="#f4f4f4" d="m329.56,31.938c-3.4421,0-6.25,2.8391-6.25,6.2812s2.8079,6.25,6.25,6.25,6.25-2.8079,6.25-6.25-2.8079-6.2812-6.25-6.2812zm0,2c2.3613,0,4.25,1.92,4.25,4.2812,0,2.3613-1.8887,4.25-4.25,4.25s-4.25-1.8887-4.25-4.25,1.8887-4.2812,4.25-4.2812z"/>
<path id="circle17" style="baseline-shift:baseline;block-progression:tb;color:#000000;direction:ltr;text-indent:0;text-align:start;enable-background:accumulate;text-transform:none;" fill="#f4f4f4" d="m268.44,45.812c-3.4421,0-6.2812,2.8079-6.2812,6.25s2.8391,6.25,6.2812,6.25,6.25-2.8079,6.25-6.25-2.8079-6.25-6.25-6.25zm0,2c2.3613,0,4.25,1.8887,4.25,4.25s-1.8887,4.25-4.25,4.25-4.2812-1.8887-4.2812-4.25,1.92-4.25,4.2812-4.25z"/>
<path id="circle19" style="baseline-shift:baseline;block-progression:tb;color:#000000;direction:ltr;text-indent:0;text-align:start;enable-background:accumulate;text-transform:none;" fill="#f4f4f4" d="m292.78,45.812c-3.4421,0-6.25,2.8079-6.25,6.25s2.8079,6.25,6.25,6.25,6.25-2.8079,6.25-6.25-2.8079-6.25-6.25-6.25zm0,2c2.3613,0,4.25,1.8887,4.25,4.25s-1.8887,4.25-4.25,4.25-4.25-1.8887-4.25-4.25,1.8887-4.25,4.25-4.25z"/>
<path id="circle21" style="baseline-shift:baseline;block-progression:tb;color:#000000;direction:ltr;text-indent:0;text-align:start;enable-background:accumulate;text-transform:none;" fill="#f4f4f4" d="m317.16,45.812c-3.4421,0-6.2812,2.8079-6.2812,6.25s2.8391,6.25,6.2812,6.25,6.25-2.8079,6.25-6.25-2.8079-6.25-6.25-6.25zm0,2c2.3613,0,4.25,1.8887,4.25,4.25s-1.8887,4.25-4.25,4.25-4.2812-1.8887-4.2812-4.25,1.92-4.25,4.2812-4.25z"/>
<path id="circle23" style="baseline-shift:baseline;block-progression:tb;color:#000000;direction:ltr;text-indent:0;text-align:start;enable-background:accumulate;text-transform:none;" fill="#f4f4f4" d="m341.5,45.812c-3.4421,0-6.25,2.8079-6.25,6.25s2.8079,6.25,6.25,6.25,6.25-2.8079,6.25-6.25-2.8079-6.25-6.25-6.25zm0,2c2.3613,0,4.25,1.8887,4.25,4.25s-1.8887,4.25-4.25,4.25-4.25-1.8887-4.25-4.25,1.8887-4.25,4.25-4.25z"/>
<path id="circle25" style="baseline-shift:baseline;block-progression:tb;color:#000000;direction:ltr;text-indent:0;text-align:start;enable-background:accumulate;text-transform:none;" fill="#f4f4f4" d="m268.44,73.5c-3.4421,0-6.2812,2.8079-6.2812,6.25s2.8391,6.25,6.2812,6.25,6.25-2.8079,6.25-6.25-2.8079-6.25-6.25-6.25zm0,2c2.3613,0,4.25,1.8887,4.25,4.25s-1.8887,4.25-4.25,4.25-4.2812-1.8887-4.2812-4.25,1.92-4.25,4.2812-4.25z"/>
<path id="circle27" style="baseline-shift:baseline;block-progression:tb;color:#000000;direction:ltr;text-indent:0;text-align:start;enable-background:accumulate;text-transform:none;" fill="#f4f4f4" d="m292.78,73.5c-3.4421,0-6.25,2.8079-6.25,6.25s2.8079,6.25,6.25,6.25,6.25-2.8079,6.25-6.25-2.8079-6.25-6.25-6.25zm0,2c2.3613,0,4.25,1.8887,4.25,4.25s-1.8887,4.25-4.25,4.25-4.25-1.8887-4.25-4.25,1.8887-4.25,4.25-4.25z"/>
<path id="circle29" style="baseline-shift:baseline;block-progression:tb;color:#000000;direction:ltr;text-indent:0;text-align:start;enable-background:accumulate;text-transform:none;" fill="#f4f4f4" d="m317.16,73.5c-3.4421,0-6.2812,2.8079-6.2812,6.25s2.8391,6.25,6.2812,6.25,6.25-2.8079,6.25-6.25-2.8079-6.25-6.25-6.25zm0,2c2.3613,0,4.25,1.8887,4.25,4.25s-1.8887,4.25-4.25,4.25-4.2812-1.8887-4.2812-4.25,1.92-4.25,4.2812-4.25z"/>
<path id="circle31" style="baseline-shift:baseline;block-progression:tb;color:#000000;direction:ltr;text-indent:0;text-align:start;enable-background:accumulate;text-transform:none;" fill="#f4f4f4" d="m341.5,73.5c-3.4421,0-6.25,2.8079-6.25,6.25s2.8079,6.25,6.25,6.25,6.25-2.8079,6.25-6.25-2.8079-6.25-6.25-6.25zm0,2c2.3613,0,4.25,1.8887,4.25,4.25s-1.8887,4.25-4.25,4.25-4.25-1.8887-4.25-4.25,1.8887-4.25,4.25-4.25z"/>
<path id="circle33" style="baseline-shift:baseline;block-progression:tb;color:#000000;direction:ltr;text-indent:0;text-align:start;enable-background:accumulate;text-transform:none;" fill="#f4f4f4" d="m353.91,31.938c-3.4421,0-6.25,2.8391-6.25,6.2812s2.8079,6.25,6.25,6.25,6.2812-2.8079,6.2812-6.25-2.8391-6.2812-6.2812-6.2812zm0,2c2.3613,0,4.2812,1.92,4.2812,4.2812,0,2.3613-1.92,4.25-4.2812,4.25-2.3613,0-4.25-1.8887-4.25-4.25s1.8887-4.2812,4.25-4.2812z"/>
<path id="circle35" style="baseline-shift:baseline;block-progression:tb;color:#000000;direction:ltr;text-indent:0;text-align:start;enable-background:accumulate;text-transform:none;" fill="#f4f4f4" d="m256.47,59.281c-3.4421,0-6.25,2.8391-6.25,6.2812s2.8079,6.25,6.25,6.25,6.2812-2.8079,6.2812-6.25-2.8391-6.2812-6.2812-6.2812zm0,2c2.3613,0,4.2812,1.92,4.2812,4.2812,0,2.3613-1.92,4.25-4.2812,4.25-2.3613,0-4.25-1.8887-4.25-4.25s1.8887-4.2812,4.25-4.2812z"/>
<path id="circle37" style="baseline-shift:baseline;block-progression:tb;color:#000000;direction:ltr;text-indent:0;text-align:start;enable-background:accumulate;text-transform:none;" fill="#f4f4f4" d="m280.84,59.281c-3.4421,0-6.25,2.8391-6.25,6.2812s2.8079,6.25,6.25,6.25,6.25-2.8079,6.25-6.25-2.8079-6.2812-6.25-6.2812zm0,2c2.3613,0,4.25,1.92,4.25,4.2812,0,2.3613-1.8887,4.25-4.25,4.25s-4.25-1.8887-4.25-4.25,1.8887-4.2812,4.25-4.2812z"/>
<path id="circle39" style="baseline-shift:baseline;block-progression:tb;color:#000000;direction:ltr;text-indent:0;text-align:start;enable-background:accumulate;text-transform:none;" fill="#f4f4f4" d="m305.19,59.281c-3.4421,0-6.25,2.8391-6.25,6.2812s2.8079,6.25,6.25,6.25,6.2812-2.8079,6.2812-6.25-2.8391-6.2812-6.2812-6.2812zm0,2c2.3613,0,4.2812,1.92,4.2812,4.2812,0,2.3613-1.92,4.25-4.2812,4.25-2.3613,0-4.25-1.8887-4.25-4.25s1.8887-4.2812,4.25-4.2812z"/>
<path id="circle41" style="baseline-shift:baseline;block-progression:tb;color:#000000;direction:ltr;text-indent:0;text-align:start;enable-background:accumulate;text-transform:none;" fill="#f4f4f4" d="m329.56,59.281c-3.4421,0-6.25,2.8391-6.25,6.2812s2.8079,6.25,6.25,6.25,6.25-2.8079,6.25-6.25-2.8079-6.2812-6.25-6.2812zm0,2c2.3613,0,4.25,1.92,4.25,4.2812,0,2.3613-1.8887,4.25-4.25,4.25s-4.25-1.8887-4.25-4.25,1.8887-4.2812,4.25-4.2812z"/>
<path id="circle43" style="baseline-shift:baseline;block-progression:tb;color:#000000;direction:ltr;text-indent:0;text-align:start;enable-background:accumulate;text-transform:none;" fill="#f4f4f4" d="m353.91,59.281c-3.4421,0-6.25,2.8391-6.25,6.2812s2.8079,6.25,6.25,6.25,6.2812-2.8079,6.2812-6.25-2.8391-6.2812-6.2812-6.2812zm0,2c2.3613,0,4.2812,1.92,4.2812,4.2812,0,2.3613-1.92,4.25-4.2812,4.25-2.3613,0-4.25-1.8887-4.25-4.25s1.8887-4.2812,4.25-4.2812z"/>
<path id="circle45" style="baseline-shift:baseline;block-progression:tb;color:#000000;direction:ltr;text-indent:0;text-align:start;enable-background:accumulate;text-transform:none;" fill="#f4f4f4" d="m256.47,86.656c-3.4421,0-6.25,2.8079-6.25,6.25s2.8079,6.25,6.25,6.25,6.2812-2.8079,6.2812-6.25-2.8391-6.25-6.2812-6.25zm0,2c2.3613,0,4.2812,1.8887,4.2812,4.25s-1.92,4.25-4.2812,4.25c-2.3613,0-4.25-1.8887-4.25-4.25s1.8887-4.25,4.25-4.25z"/>
<path id="circle47" style="baseline-shift:baseline;block-progression:tb;color:#000000;direction:ltr;text-indent:0;text-align:start;enable-background:accumulate;text-transform:none;" fill="#f4f4f4" d="m280.84,86.656c-3.4421,0-6.25,2.8079-6.25,6.25s2.8079,6.25,6.25,6.25,6.25-2.8079,6.25-6.25-2.8079-6.25-6.25-6.25zm0,2c2.3613,0,4.25,1.8887,4.25,4.25s-1.8887,4.25-4.25,4.25-4.25-1.8887-4.25-4.25,1.8887-4.25,4.25-4.25z"/>
<path id="circle49" style="baseline-shift:baseline;block-progression:tb;color:#000000;direction:ltr;text-indent:0;text-align:start;enable-background:accumulate;text-transform:none;" fill="#f4f4f4" d="m305.19,86.656c-3.4421,0-6.25,2.8079-6.25,6.25s2.8079,6.25,6.25,6.25,6.2812-2.8079,6.2812-6.25-2.8391-6.25-6.2812-6.25zm0,2c2.3613,0,4.2812,1.8887,4.2812,4.25s-1.92,4.25-4.2812,4.25c-2.3613,0-4.25-1.8887-4.25-4.25s1.8887-4.25,4.25-4.25z"/>
<path id="circle51" style="baseline-shift:baseline;block-progression:tb;color:#000000;direction:ltr;text-indent:0;text-align:start;enable-background:accumulate;text-transform:none;" fill="#f4f4f4" d="m329.56,86.656c-3.4421,0-6.25,2.8079-6.25,6.25s2.8079,6.25,6.25,6.25,6.25-2.8079,6.25-6.25-2.8079-6.25-6.25-6.25zm0,2c2.3613,0,4.25,1.8887,4.25,4.25s-1.8887,4.25-4.25,4.25-4.25-1.8887-4.25-4.25,1.8887-4.25,4.25-4.25z"/>
<path id="circle53" style="baseline-shift:baseline;block-progression:tb;color:#000000;direction:ltr;text-indent:0;text-align:start;enable-background:accumulate;text-transform:none;" fill="#f4f4f4" d="m353.91,86.656c-3.4421,0-6.25,2.8079-6.25,6.25s2.8079,6.25,6.25,6.25,6.2812-2.8079,6.2812-6.25-2.8391-6.25-6.2812-6.25zm0,2c2.3613,0,4.2812,1.8887,4.2812,4.25s-1.92,4.25-4.2812,4.25c-2.3613,0-4.25-1.8887-4.25-4.25s1.8887-4.25,4.25-4.25z"/>
<path id="path55" style="baseline-shift:baseline;block-progression:tb;color:#000000;direction:ltr;text-indent:0;text-align:start;enable-background:accumulate;text-transform:none;" fill="#f4f4f4" d="m90.5,34.812c-2.1233,0-3.875,1.7517-3.875,3.875v8.3438c0,2.1233,1.7517,3.875,3.875,3.875h80.969c2.1233,0,3.8438-1.7517,3.8438-3.875v-8.3438c0-2.1233-1.7204-3.875-3.8438-3.875h-80.969zm0,2,80.969,0c1.0427,0,1.8438,0.83232,1.8438,1.875v8.3438c0,1.0427-0.80107,1.875-1.8438,1.875h-80.969c-1.0427,0-1.875-0.83232-1.875-1.875v-8.3438c0-1.0427,0.83232-1.875,1.875-1.875z"/>
<path id="path57" style="baseline-shift:baseline;block-progression:tb;color:#000000;direction:ltr;text-indent:0;text-align:start;enable-background:accumulate;text-transform:none;" fill="#f4f4f4" d="m102.44,34.812c-2.1233,0-3.875,1.7517-3.875,3.875v7.875c0,2.1233,1.7517,3.875,3.875,3.875h31.281c2.1233,0,3.875-1.7517,3.875-3.875v-7.875c0-2.1233-1.7517-3.875-3.875-3.875h-31.281zm0,2,31.281,0c1.0427,0,1.875,0.83232,1.875,1.875v7.875c0,1.0427-0.83232,1.875-1.875,1.875h-31.281c-1.0427,0-1.875-0.83232-1.875-1.875v-7.875c0-1.0427,0.83232-1.875,1.875-1.875z"/>
<path id="circle59" style="baseline-shift:baseline;block-progression:tb;color:#000000;direction:ltr;text-indent:0;text-align:start;enable-background:accumulate;text-transform:none;" fill="#f4f4f4" d="m436.97,147.47c-19.732,0-35.75,16.018-35.75,35.75s16.018,35.75,35.75,35.75,35.75-16.018,35.75-35.75-16.018-35.75-35.75-35.75zm0,2c18.651,0,33.75,15.099,33.75,33.75s-15.099,33.75-33.75,33.75-33.75-15.099-33.75-33.75,15.099-33.75,33.75-33.75z"/>
<path id="circle61" style="baseline-shift:baseline;block-progression:tb;color:#000000;direction:ltr;text-indent:0;text-align:start;enable-background:accumulate;text-transform:none;" fill="#f4f4f4" d="m436.97,154.06c-16.104,0-29.188,13.052-29.188,29.156s13.083,29.188,29.188,29.188c16.104,0,29.188-13.083,29.188-29.188,0-16.104-13.083-29.156-29.188-29.156zm0,2c15.024,0,27.188,12.133,27.188,27.156,0,15.024-12.164,27.188-27.188,27.188s-27.188-12.164-27.188-27.188,12.164-27.156,27.188-27.156z"/>
<path id="circle63" style="baseline-shift:baseline;block-progression:tb;color:#000000;direction:ltr;text-indent:0;text-align:start;enable-background:accumulate;text-transform:none;" fill="#f4f4f4" d="m519.38,147.47c-19.732,0-35.75,16.018-35.75,35.75s16.018,35.75,35.75,35.75,35.75-16.018,35.75-35.75-16.018-35.75-35.75-35.75zm0,2c18.651,0,33.75,15.099,33.75,33.75s-15.099,33.75-33.75,33.75-33.75-15.099-33.75-33.75,15.099-33.75,33.75-33.75z"/>
<path id="circle65" style="baseline-shift:baseline;block-progression:tb;color:#000000;direction:ltr;text-indent:0;text-align:start;enable-background:accumulate;text-transform:none;" fill="#f4f4f4" d="m519.38,154.06c-16.104,0-29.188,13.052-29.188,29.156s13.083,29.188,29.188,29.188c16.104,0,29.156-13.083,29.156-29.188,0-16.104-13.052-29.156-29.156-29.156zm0,2c15.024,0,27.156,12.133,27.156,27.156,0,15.024-12.133,27.188-27.156,27.188-15.024,0-27.188-12.164-27.188-27.188s12.164-27.156,27.188-27.156z"/>
<path id="path67" style="baseline-shift:baseline;block-progression:tb;color:#000000;direction:ltr;text-indent:0;text-align:start;enable-background:accumulate;text-transform:none;" fill="#f4f4f4" d="m79.875,88.875c-4.7615,0-8.6562,3.8644-8.6562,8.625v24.781c0,1.6143-0.16435,2.3569-0.25,2.4688-0.04282,0.0559-0.05346,0.0955-0.3125,0.15625-0.25904,0.0607-0.7342,0.0937-1.375,0.0937h-25.562c-4.7623,0-8.625,3.8949-8.625,8.6562v39.812c0,4.7615,3.8635,8.625,8.625,8.625h25.312c0.81541,0,1.4158,0.0182,1.7812,0.0625,0.36548,0.0443,0.45369,0.13523,0.40625,0.0937-0.04744-0.0415-0.02654-0.128,0,0.0937,0.02654,0.22175,0,0.64515,0,1.2188v26.031c0,4.7615,3.8948,8.6562,8.6562,8.6562h39.812c4.7615,0,8.625-3.8948,8.625-8.6562v-25.938c0-0.45023,0.0248-0.82172,0.0625-1.0312,0.0377-0.20953,0.0654-0.22117,0.0937-0.25,0.0567-0.0576,0.53921-0.30483,1.9375-0.28125h0.0312,25.375c4.7615,0,8.6562-3.8635,8.6562-8.625v-39.812c0-4.7615-3.8948-8.6562-8.6562-8.6562h-25.469c-0.61301,0-1.0482-0.0256-1.3125-0.0937-0.26435-0.0681-0.34184-0.1389-0.40625-0.21875-0.12882-0.1597-0.31299-0.86188-0.3125-2.3438v-24.844c0-4.7606-3.8635-8.625-8.625-8.625h-39.812zm0,2,39.812,0c3.6805,0,6.625,2.9456,6.625,6.625v24.844c-0.00051,1.5731,0.0183,2.6867,0.75,3.5938,0.36584,0.45353,0.92154,0.76527,1.4688,0.90625,0.54721,0.14098,1.122,0.15625,1.8125,0.15625h25.469c3.6805,0,6.6562,2.9757,6.6562,6.6562v39.812c0,3.6805-2.9757,6.625-6.6562,6.625h-25.375c-1.5667-0.0264-2.6522,0.1089-3.4062,0.875-0.377,0.38305-0.54402,0.86294-0.625,1.3125-0.081,0.44956-0.0937,0.89973-0.0937,1.375v25.938c0,3.6805-2.9445,6.6562-6.625,6.6562h-39.812c-3.6805,0-6.6562-2.9757-6.6562-6.6562v-26.031c0-0.5559,0.02296-0.98453-0.03125-1.4375s-0.22581-0.99865-0.65625-1.375-0.92748-0.49686-1.4688-0.5625c-0.54127-0.0656-1.1947-0.0937-2.0312-0.0937h-25.312c-3.6805,0-6.625-2.9445-6.625-6.625v-39.812c0-3.6807,2.9433-6.6562,6.625-6.6562h25.562c0.6977,0,1.2684,0.003,1.8125-0.125,0.54411-0.12755,1.11-0.43757,1.4688-0.90625,0.7176-0.93737,0.65625-2.0188,0.65625-3.6875v-24.781c0-3.6794,2.9757-6.625,6.6562-6.625z"/>
<path id="path69" style="baseline-shift:baseline;block-progression:tb;color:#000000;direction:ltr;text-indent:0;text-align:start;enable-background:accumulate;text-transform:none;" fill="#f4f4f4" d="m79.688,94.844c-1.3027,0-2.375,1.0723-2.375,2.375v33.469c0,0.22068-0.04367,0.28125-0.125,0.28125h-33.625c-1.303,0-2.375,1.1033-2.375,2.4062v40.125c0,1.3027,1.072,2.375,2.375,2.375h33.562,0.03125c0.12135,0.009,0.20288,0.0448,0.1875,0.0312-0.01788-0.0157-0.03125-0.0673-0.03125,0.0312v34.188c0,1.303,1.0723,2.375,2.375,2.375h40.156c1.3027,0,2.375-1.072,2.375-2.375v-34.188c0-0.0388-0.0997-0.0625,0.1875-0.0625h33.594c1.303,0,2.375-1.0723,2.375-2.375v-40.125c0-1.303-1.072-2.4062-2.375-2.4062h-33.625c-0.0688,0-0.15625-0.0536-0.15625-0.25v-33.5c0-1.3027-1.0723-2.375-2.375-2.375h-40.156zm0,2,40.156,0c0.22132,0,0.375,0.15368,0.375,0.375v33.5c0,1.1576,0.9011,2.25,2.1562,2.25h33.625c0.22303,0,0.375,0.18322,0.375,0.40625v40.125c0,0.22132-0.15197,0.375-0.375,0.375h-33.594c-1.2088,0-2.1875,1.0073-2.1875,2.0625v34.188c0,0.22303-0.15368,0.375-0.375,0.375h-40.156c-0.22132,0-0.375-0.15197-0.375-0.375v-34.188c0-0.56247-0.22887-1.1555-0.65625-1.5312-0.42738-0.37572-0.9607-0.5305-1.5-0.53125h-33.594c-0.22303,0-0.375-0.15368-0.375-0.375v-40.125c0-0.22303,0.15197-0.40625,0.375-0.40625h33.625c1.2707,0,2.125-1.1519,2.125-2.2812v-33.469c0-0.22132,0.15368-0.375,0.375-0.375z"/>
<path id="circle71" style="baseline-shift:baseline;block-progression:tb;color:#000000;direction:ltr;text-indent:0;text-align:start;enable-background:accumulate;text-transform:none;" fill="#f4f4f4" d="m99.781,138.03c-8.5535,0-15.531,6.9777-15.531,15.531,0,8.5535,6.9777,15.5,15.531,15.5,8.5535,0,15.5-6.9465,15.5-15.5s-6.9465-15.531-15.5-15.531zm0,2c7.4727,0,13.5,6.0586,13.5,13.531,0,7.4727-6.0273,13.5-13.5,13.5s-13.531-6.0273-13.531-13.5,6.0586-13.531,13.531-13.531z"/>
<path id="path73" stroke="#F4F4F4" stroke-width="2" d="M76.17,150.84" fill="none"/>
<path id="polygon75" style="baseline-shift:baseline;block-progression:tb;color:#000000;direction:ltr;text-indent:0;text-align:start;enable-background:accumulate;text-transform:none;" fill="#f4f4f4" d="m63.031,139.09-1.6875,1.7188-12.031,12.031-0.71875,0.71875,0.71875,0.6875,12.031,12.062,1.6875,1.6875,0-2.4062,0-2.4375,10.625,0,1,0,0-1,0-17.188,0-1-1,0-10.625,0,0-2.4375,0-2.4375zm-2,4.8438,0,1.0312,0,1,1,0,10.625,0,0,15.188-10.625,0-1,0,0,1,0,1-9.5938-9.5938,9.5938-9.625z"/>
<path id="polygon77" style="baseline-shift:baseline;block-progression:tb;color:#000000;direction:ltr;text-indent:0;text-align:start;enable-background:accumulate;text-transform:none;" fill="#f4f4f4" d="m90.188,178.66,0,1,0,10.625-2.4375,0-2.4375,0,1.7188,1.7188,12.031,12.031,0.71875,0.71875,0.6875-0.71875,12.062-12.031,1.6875-1.7188-2.4062,0-2.4375,0,0-10.625,0-1-1,0-17.188,0-1,0zm2,2,15.188,0,0,10.625,0,1,1,0,1,0-9.625,9.625-9.5938-9.625,1.0312,0,1,0,0-1,0-10.625z"/>
<path id="polygon79" style="baseline-shift:baseline;block-progression:tb;color:#000000;direction:ltr;text-indent:0;text-align:start;enable-background:accumulate;text-transform:none;" fill="#f4f4f4" d="m136.5,139.09,0,2.4375,0,2.4375-10.625,0-1,0,0,1,0,17.188,0,1,1,0,10.625,0,0,2.4375,0,2.4062,1.7188-1.6875l12.03-12.07,0.72-0.69-0.72-0.72-12.03-12.03-1.72-1.72zm2,4.8438,9.625,9.625-9.625,9.5938,0-1,0-1-1,0-10.625,0,0-15.188,10.625,0,1,0,0-1,0-1.0312z"/>
<path id="polygon81" style="baseline-shift:baseline;block-progression:tb;color:#000000;direction:ltr;text-indent:0;text-align:start;enable-background:accumulate;text-transform:none;" fill="#f4f4f4" d="m99.781,102.38-0.71875,0.71875-12.031,12.031-1.7188,1.6875,2.4375,0,2.4375,0,0,10.625,0,1,1,0,17.188,0,1,0,0-1,0-10.625,2.4375,0,2.4062,0-1.6875-1.6875-12.062-12.031-0.6875-0.71875zm-0.03125,2.8125,9.625,9.625-1,0-1,0,0,1,0,10.625-15.188,0,0-10.625,0-1-1,0-1.0312,0,9.5938-9.625z"/>
<path id="path83" style="baseline-shift:baseline;block-progression:tb;color:#000000;direction:ltr;text-indent:0;text-align:start;enable-background:accumulate;text-transform:none;" fill="#f4f4f4" d="M21.188,0c-11.701,0-21.188,9.7626-21.188,21.75v215.69c0,11.988,9.4867,21.75,21.188,21.75h574.34c11.701,0,21.156-9.7617,21.156-21.75v-215.69c0-11.987-9.46-21.75-21.16-21.75h-574.34zm0,2,574.34,0c10.589,0,19.156,8.8134,19.156,19.75v215.69c0,10.938-8.5671,19.75-19.156,19.75h-574.34c-10.592,0-19.19-8.81-19.19-19.75v-215.69c0-10.937,8.598-19.75,19.188-19.75z"/>
<path id="path85" style="baseline-shift:baseline;block-progression:tb;color:#000000;direction:ltr;text-indent:0;text-align:start;enable-background:accumulate;text-transform:none;" fill="#f4f4f4" d="m308.62,124.94c-6.8394,0-12.406,5.5679-12.406,12.406v1h1,22.812,1v-1c0-6.8384-5.5678-12.406-12.406-12.406zm0,2c5.404,0,9.6959,4.1427,10.219,9.4062h-20.438c0.52286-5.2636,4.8137-9.4062,10.219-9.4062z"/>
<path id="path87" style="baseline-shift:baseline;block-progression:tb;color:#000000;direction:ltr;text-indent:0;text-align:start;enable-background:accumulate;text-transform:none;" fill="#f4f4f4" d="m308.62,121.41c-8.7836,0-15.906,7.154-15.906,15.938h2c0-7.7025,6.2038-13.938,13.906-13.938,7.7035,0,13.938,6.235,13.938,13.938h2c0-8.7835-7.153-15.938-15.938-15.938z"/>
</svg>
