<?xml version="1.0" encoding="UTF-8" standalone="no"?>
<!-- Created with Inkscape (http://www.inkscape.org/) -->
<svg id="Ebene_1" xmlns:rdf="http://www.w3.org/1999/02/22-rdf-syntax-ns#" xmlns="http://www.w3.org/2000/svg" xml:space="preserve" height="129.61" width="106.16" version="1.2" xmlns:cc="http://creativecommons.org/ns#" xmlns:dc="http://purl.org/dc/elements/1.1/" viewBox="0 0 106.165 129.60972"><metadata id="metadata27"><rdf:RDF><cc:Work rdf:about=""><dc:format>image/svg+xml</dc:format><dc:type rdf:resource="http://purl.org/dc/dcmitype/StillImage"/><dc:title/></cc:Work></rdf:RDF></metadata>
<g id="g3162" transform="matrix(0.21198622,0,0,0.21198622,-35.5732,-32.444887)" stroke="#000" stroke-miterlimit="4" stroke-dasharray="none" stroke-width="4.71728772" fill="none"><g id="g3088" stroke="#000" stroke-miterlimit="4" stroke-dasharray="none" stroke-width="4.71728772"><path id="path3096" d="m569.17,335.35c1.5315-0.55206,4.126-1.4707,5.8136-2.252,1.6877-0.78128,3.1251-1.1964,4.3124-2.4357,1.1872-1.2393,2.1133-3.4479,2.811-5,0.69769-1.552,0.20862-3.2183,1.3753-4.3123,1.1667-1.0941,3.437-1.262,5.6247-2.252,2.1876-0.98993,5.6159-2.5731,7.5013-3.6877s2.5092-0.87533,3.811-3,3.0521-7.738,4-9.748c0.94794-2.01,0.46893-1.2498,1.6877-2.3123,1.2187-1.0626,3.8119-2.5315,5.6246-4.063,1.8128-1.5315,3.8766-3.5424,5.252-5.126s2.2292-2.8027,3-4.3753c0.77081-1.5726,1.4165-3.6024,1.6247-5.0604,0.20826-1.458-0.81274-2.552-0.3753-3.6877,0.43744-1.1356,1.8333-2.0634,3-3.126,1.1666-1.0626,2.6876-1.4786,4-3.2494,1.3123-1.7708,3.2388-4.6667,3.874-7.3753,0.63513-2.7087-0.59448-6.5223-0.063-8.8766,0.5315-2.3543,2.1789-3.4786,3.252-5.2493,1.0731-1.7708,2.3115-3.4068,3.1863-5.3753,0.87488-1.9685,2.0214-4.0503,2.063-6.4357s-2.0114-5.668-1.8137-7.8766c0.19775-2.2087,2.0521-3.8338,3-5.3753,0.94793-1.5416,2.1457-2.0201,2.6877-3.874,0.54199-1.8539,1.1369-4.6037,0.56427-7.2494-0.57257-2.6457-3.5831-6.2078-4-8.6247-0.41687-2.4169,1.0508-3.8556,1.4987-5.8766,0.44793-2.021,1.3452-3.8434,1.189-6.2493-0.15613-2.406-0.76117-5.9571-2.126-8.1864-1.3648-2.2292-3.8753-3.9702-6.063-5.189-2.1877-1.2187-4.5424-1.6964-7.063-2.1234-2.5206-0.42694-5.5709,0.64523-8.0604-0.43832s-4.241-4.511-6.8766-6.063c-2.6356-1.5521-5.8539-2.6973-8.937-3.2494-3.0831-0.55206-7.2909-0.0941-9.5617-0.063s-2.6981,0.7909-4.063,0.24935c-1.3648-0.54157-2.4072-2.4261-4.126-3.4987-1.7187-1.0726-3.8115-2.416-6.1863-2.937-2.3749-0.521-6.3337-0.24103-8.063-0.18898-1.7292,0.0521-1.0936,1.0844-2.3123,0.50131-1.2188-0.58311-3.2603-3.0936-5-4-1.7398-0.90639-2.9069-1.1776-5.4384-1.4383-2.5315-0.26071-7.3027-0.52187-9.7506-0.12598-2.448,0.39589-3.5101,2.0949-4.937,2.5013-1.4269,0.40639-2.8334,0.19773-3.6247-0.063-0.79132-0.26072-0.47766-1.147-1.1234-1.5013-0.64569-0.35434-2.1255-0.22923-2.7507-0.62468-0.62512-0.39544,0.85431-1.3836-1-1.748-1.8543-0.36439-6.7927-1.2716-10.126-0.43832-3.3333,0.83334-7.6658,4.4488-9.874,5.4383s-2.2502,0.7384-3.3753,0.49869c-1.1251-0.23972-1.4064-1.6557-3.3753-1.937-1.969-0.28127-5.4799-0.78171-8.4383,0.24934-2.9584,1.0311-7.4374,4.9265-9.3124,5.937-1.8749,1.0105-1.3018,0.2406-1.937,0.12599-0.63516-0.1146-0.0822-0.68853-1.874-0.81365-1.7918-0.12511-6.0538-0.61417-8.8766,0.063-2.8228,0.67715-5.9252,2.5206-8.0604,4s-3.5214,3.7305-4.7507,4.8766c-1.2292,1.1461-0.64523,1.5941-2.6247,2-1.9794,0.40595-6.3145-0.73097-9.252,0.4357-2.9374,1.1667-5.5499,4.0433-8.3727,6.5643s-5.9182,5.5096-8.5643,8.5617-5.5206,6.8863-7.3123,9.7506c-1.7918,2.8644-2.178,4.9777-3.4383,7.4357s-2.6444,3.885-4.1234,7.3123c-1.479,3.4274-3.563,11.668-4.7507,13.252-1.1876,1.5836-1.2296-1.0004-2.3753-3.7506s-2.801-8.9589-4.4987-12.751c-1.6977-3.7918-2.979-6.0315-5.6877-10-2.7086-3.9685-7.1789-10.03-10.564-13.811-3.3854-3.7813-7.1439-6.72-9.748-8.8766s-3.5744-3.3548-5.8766-4.063c-2.3023-0.70822-5.4891,0.87578-7.937-0.18634s-4.5634-4.4571-6.7507-6.1864c-2.1872-1.7292-3.1854-3.3762-6.3727-4.189-3.1872-0.81278-9.8443-0.46893-12.751-0.68767-2.9064-0.21872-3.1876,0.042-4.6876-0.62466-1.5-0.66668-2.5936-2.5731-4.3124-3.3753-1.7187-0.80226-4.0521-1.2091-6-1.4383-1.9479-0.22923-4.0105-0.24978-5.6876,0.063-1.6772,0.31277-3.0836,1.7822-4.3753,1.8136-1.2918,0.0315-2.073-0.97856-3.3753-1.6247-1.3023-0.64612-3.2926-1.8145-4.4383-2.252-1.1457-0.43745-1.717-0.0604-2.4357-0.37271-0.71875-0.31233-0.0954-1.2616-1.8766-1.5013-1.7813-0.23972-7.0818-0.17673-8.811,0.063s-0.6579,1.042-1.5643,1.3753c-0.90637,0.33333-3.2283,0.21872-3.874,0.62467-0.64566,0.40596,0.69772,1.5508,0,1.811-0.69772,0.26027-2.6968,0.1461-4.1863-0.24934-1.4895-0.39546-1.8338-1.8736-4.7507-2.1234-2.9169-0.24979-9.5525-0.33333-12.751,0.62468-3.1982,0.95799-4.9799,4.2795-6.4383,5.1234-1.4584,0.84384-0.54156-0.008-2.3124-0.0604-1.7708-0.0521-5.2397-1.1789-8.3123-0.25197-3.0726,0.92694-7.9361,4.7616-10.123,5.8136-2.1872,1.0521-0.76028,0.43615-3,0.49869-2.2397,0.0626-7.5214-0.44662-10.438-0.12335-2.9169,0.32327-5.063,1.1986-7.063,2.063-2,0.86439-3.4786,1.9151-4.937,3.1234-1.4584,1.2082-1.699,3.4073-3.8136,4.126-2.1146,0.71872-5.9886-0.28215-8.874,0.18636-2.8854,0.4685-6.2196,1.364-8.4383,2.6247s-3.7909,3.0958-4.874,4.9396-1.3123,4.5507-1.6247,6.1234c-0.31233,1.5726-0.37445,2.0206-0.24934,3.3124s0.56256,3.084,1,4.4383,1.4059,2.542,1.6247,3.6877c0.21874,1.1457,0.31278,1.9991-0.31233,3.1864-0.62511,1.1872-2.7612,2.2078-3.4383,3.937-0.67716,1.7292-0.67673,4.6881-0.62467,6.4383,0.052,1.7502,0.53063,2.4899,0.93701,4.063,0.40639,1.573,0.73053,3.8338,1.5013,5.3753,0.77076,1.5416,2.832,2.4366,3.1234,3.874,0.29133,1.4374-1.2402,2.9173-1.3753,4.7506-0.13518,1.8333-0.74848,3.0516,0.5643,6.2494,1.3128,3.1977,5.9895,10.281,7.3123,12.937,1.3228,2.6562,0.3644,0.98951,0.62468,3,0.26027,2.0105-0.55251,5.7397,0.937,9.063s6.3228,8.5538,8,10.877c1.6772,2.3228,1.7712,2.0083,2.063,3.0604,0.29178,1.0521-0.78084,1.2725-0.31235,3.252,0.46851,1.9794,1.0608,5.9374,3.1234,8.6247,2.0626,2.6872,7.0748,5.853,9.252,7.4987s2.801,0.97943,3.811,2.3753c1.0101,1.3959,1.4471,4,2.2493,6,0.80228,2,0.78304,3.9895,2.5643,6s5.3526,4.6776,8.1234,6.063,6.7721,1.0932,8.5013,2.2493c1.7292,1.1562,1.0407,3.0936,1.874,4.6877,0.83334,1.5941,1.0945,3.3036,3.126,4.8766,2.0315,1.5731,6.8548,3.7284,9.063,4.5617,2.2082,0.83331,3.2384,0.0634,4.1864,0.43829,0.94793,0.37491,1.7616,0.96765,1.5013,1.811-0.26029,0.84338-1.6982,2.343-3.063,3.2494-1.3648,0.90637-2.9178,0.84512-5.126,2.189-2.2082,1.3438-5.4672,3.6658-8.1234,5.874s-4.8552,4.5004-7.8137,7.3753c-2.9584,2.8749-7.0411,6.3635-9.937,9.874s-5.3342,7.3347-7.4383,11.189-3.4991,7.6557-5.1864,11.937c-1.6872,4.2813-3.7388,9.3863-4.937,13.751-1.1982,4.3644-1.7725,7.4773-2.252,12.436-0.47943,4.9584-0.44749,13.742-0.62466,17.315-0.17717,3.5731,0.21785,2.4047-0.43833,4.1234-0.65616,1.7187-1.7384,4.2931-3.4987,6.189s-4.4173,2.9366-7.063,5.1863c-2.6457,2.2498-5.9571,5.2813-8.811,8.3123-2.8539,3.0311-5.2183,5.3325-8.3124,9.874-3.094,4.5416-7.3141,10.844-10.252,17.375-2.9379,6.5315-5.8648,15.262-7.3753,21.814s-1.5836,9.3946-1.6877,17.499c-0.10411,8.1041-0.23927,21.084,1.063,31.126s2.584,18.438,6.7507,29.126,10.458,24.729,18.249,35c7.7918,10.271,18.168,18.916,28.501,26.625,10.333,7.7082,27.269,14.958,33.499,19.625,6.2292,4.6666,2.8036,4.9589,3.8766,8.3753,1.0731,3.4164,0.88495,6.9882,2.5617,12.123,1.6767,5.1352,4.2384,12.729,7.4987,18.688,3.2603,5.9584,7.1982,11.636,12.063,17.063,4.8648,5.4274,10.657,10.918,17.126,15.501,6.469,4.5836,13.438,8.4584,21.688,12,8.2498,3.5416,18.843,6.916,27.811,9.2494,8.9685,2.3333,18.99,3.8237,26,4.7506,7.0105,0.92694,7.521,0.6654,16.063,0.81103,8.542,0.14569,25.252,0.13562,35.189,0.063,9.9374-0.0726,17.446-0.12378,24.436-0.49866,6.9895-0.37488,11.157-0.75067,17.501-1.7507,6.3438-1,11.051-1.2388,20.562-4.2493,9.5105-3.0105,26.324-8.3447,36.501-13.814,10.177-5.4689,17.999-12.385,24.562-19,6.5626-6.6146,10.762-12.802,14.814-20.688,4.0521-7.8854,7.7699-20.479,9.4987-26.625,1.7288-6.1457-0.18854-7.9991,0.87403-10.249,1.0626-2.2502,1.7721-1.2725,5.5013-3.252,3.7292-1.9794,9.1658-3.5206,16.874-8.6247s21.636-14.948,29.375-22c7.7397-7.052,12.49-13.781,17.063-20.312,4.5731-6.5311,7.521-12.655,10.375-18.874,2.8544-6.2187,5.011-11.938,6.7507-18.438,1.7398-6.5,2.7607-13.853,3.6877-20.562,0.92694-6.7082,1.6242-13.042,1.874-19.688,0.24975-6.6461,0.41644-14.126-0.37537-20.189-0.79175-6.0625-2.7607-10.989-4.3753-16.186-1.6146-5.1977-3.0521-10.302-5.3123-15-2.2603-4.6977-5.4786-9.1133-8.2494-13.186-2.7708-4.0731-5.521-7.9912-8.3753-11.252s-6.1881-6.1772-8.7507-8.3124-4.5416-2.374-6.6246-4.4987c-2.0831-2.1247-4.822-5.7178-5.874-8.2494-1.0521-2.5315-0.30274-4.1479-0.43836-6.9396-0.13556-2.7918-0.16705-6.3946-0.3753-9.811-0.20826-3.4164-0.14478-6.6251-0.87403-10.688-0.72918-4.0626-2.1159-9.3228-3.5013-13.688-1.3854-4.3648-2.332-7.72-4.811-12.501-2.479-4.7813-6.8859-11.843-10.063-16.186-3.1772-4.3434-6.0731-6.9471-9-9.874s-5.7283-5.3023-8.5617-7.6876c-2.8333-2.3854-5.9173-4.885-8.4383-6.6247s-5.1877-2.9178-6.6877-3.8136c-1.5-0.8959-2.1872-0.97812-2.3123-1.5617-0.12512-0.58356,0.73883-1.4396,1.5616-1.9396,0.82288-0.5,1.8439-0.50833,3.3754-1.0604z" stroke="#000" stroke-dasharray="none" stroke-miterlimit="4" stroke-width="4.71728772" fill="none"/><path id="path3098" style="baseline-shift:baseline;block-progression:tb;color:#000000;direction:ltr;text-indent:0;text-align:start;enable-background:accumulate;text-transform:none;" fill="#f4f4f4" d="m529.19,151.88c-1.0962,0.0405-2.2173,0.17151-3.2812,0.4375-2.212,0.55301-4.2287,1.8001-6.0625,2.9688s-3.5364,2.302-4.1875,2.5938c-1.0311,0.46202-1.4107,0.53836-1.3125,0.53125,0.0982-0.007,0.0959-0.0339-0.625-0.1875,0.324,0.069,0.33314,0.15973-0.25-0.375s-1.7638-1.3457-3.2812-1.5625c-1.9698-0.28139-5.8012-0.95621-9.5312,0.34375-2.0016,0.69759-3.886,2.0192-5.6562,3.2812-1.7452,1.2442-3.3978,2.4809-3.9375,2.7812-0.65514-0.52401-1.5747-0.86634-2.5938-0.9375-1.625-0.11346-5.9968-0.73789-9.5938,0.125-3.3859,0.81221-6.5834,2.7775-8.8438,4.3438-2.663,1.8452-4.2818,4.395-5.0312,5.0938-0.79326,0.73962-1.1182,1.3352-1.125,1.375-0.0214-0.0109-0.0636-0.0326-0.375,0.0312-0.23324,0.0478-1.8645-0.001-3.6562-0.0937-1.7918-0.0925-3.8858-0.17103-5.9688,0.65625-3.7277,1.4806-6.3966,4.5912-9.0938,7-2.8747,2.5673-6.038,5.6171-8.7812,8.7812-2.7328,3.152-5.6086,7.0076-7.5,10.031-1.9876,3.1774-2.4634,5.4813-3.5625,7.625-1.1095,2.1639-2.5908,3.7373-4.1875,7.4375-0.8523,1.9751-1.7141,4.8633-2.5625,7.5312-0.15838,0.49807-0.28456,0.87632-0.4375,1.3438-0.99209-2.6106-2.5624-8.2474-4.3125-12.156-1.737-3.8796-3.1286-6.32-5.875-10.344-2.7594-4.0429-7.2173-10.117-10.75-14.062-3.559-3.9752-7.4439-7.0081-10-9.125-1.2476-1.0332-2.1299-1.8603-3.125-2.625-0.99514-0.76467-2.1431-1.4384-3.5625-1.875-1.9158-0.58932-3.5672-0.1995-4.9062-0.0312-1.3391,0.16825-2.2929,0.14939-2.7812-0.0625-0.60974-0.26455-1.632-1.1406-2.6875-2.2812-1.0556-1.1407-2.17-2.4928-3.5625-3.5938-0.94477-0.74693-1.7155-1.569-2.8125-2.4375-1.097-0.86854-2.5314-1.7014-4.4375-2.1875-2.0518-0.52323-4.5263-0.58118-7-0.625-2.4737-0.0438-4.9297-0.0327-6.1562-0.125-1.5288-0.11505-2.4268-0.12343-2.875-0.15625-0.44816-0.0328-0.43553-0.0165-1.0312-0.28125-0.18193-0.0809-0.69094-0.48791-1.375-1.1562-0.68406-0.66834-1.5718-1.5646-2.9062-2.1875-2.1832-1.0191-4.6662-1.4147-6.7188-1.6562-2.1236-0.2499-4.3369-0.28634-6.375,0.0937-1.3762,0.25663-2.351,0.87721-3.0625,1.2812-0.71155,0.40404-1.1643,0.50553-0.9375,0.5-0.0201,0.00049-0.008,0.0449-0.375-0.1875-0.36665-0.2324-0.98497-0.73043-1.9062-1.1875-1.1453-0.56821-3.0534-1.7318-4.6562-2.3438-0.82953-0.31674-1.5625-0.36714-2.0312-0.375-0.24071-0.34982-0.47219-0.72757-0.90625-1-0.58349-0.36621-1.2077-0.56645-1.875-0.65625-2.4484-0.3295-7.1458-0.25954-9.4688,0.0625-0.64237,0.089-1.2614,0.2497-1.9062,0.71875-0.29842,0.21708-0.33964,0.50533-0.53125,0.8125-0.19161,0.0173-0.4453,0.0768-1.0312,0.125-0.39907,0.0328-0.80336,0.0849-1.25,0.15625-0.44664,0.0714-0.91323,0.0641-1.6562,0.53125-0.49814,0.31321-0.82465,0.90966-1.0312,1.5-0.45244-0.0554-0.91372-0.12118-1.2812-0.21875-0.0839-0.0223-0.26284-0.16265-1.0938-0.75-0.83091-0.58735-2.2178-1.2795-4.0625-1.4375-3.1753-0.27192-9.5316-0.50742-13.625,0.71875-2.2015,0.65946-3.7389,2.0516-4.875,3.2188-1.0514,1.0801-1.8302,1.8682-1.9062,1.9688-0.38846-0.10448-0.75875-0.20514-1.2188-0.21875-0.43098-0.0127-1.8481-0.27909-3.4688-0.46875-1.6206-0.18966-3.5694-0.29819-5.5938,0.3125-2.0679,0.62384-4.0833,1.891-6,3.125s-3.7685,2.4757-4.4688,2.8125c-0.40114,0.19295-0.55083,0.26426-0.71875,0.34375-0.35608-0.0442-0.76362-0.0787-1.3438-0.0625-0.88956,0.0249-2.7875-0.076-4.7812-0.15625-1.9937-0.0802-4.0956-0.16249-5.8438,0.0312-3.2543,0.36066-5.687,1.3719-7.7188,2.25-2.2504,0.9726-3.9871,2.1895-5.5312,3.4688-1.2215,1.0119-1.7104,2.1345-2.125,2.7812-0.41455,0.64674-0.54834,0.80523-0.9375,0.9375-0.32595,0.11078-1.6499,0.16274-3.2188,0.0625s-3.4114-0.27236-5.2812,0.0312c-3.071,0.49863-6.5347,1.3811-9.2188,2.9062-2.6574,1.51-4.5082,3.6672-5.75,5.7812-1.5202,2.5878-1.6517,5.5933-1.9062,6.875-0.31736,1.598-0.41863,2.5503-0.28125,3.9688,0.15579,1.6085,0.64186,3.4417,1.125,4.9375,0.62644,1.9395,1.4967,3.2254,1.5312,3.4062,0.20163,1.056,0.30008,0.96762-0.0625,1.6562,0.0736-0.13983-0.43236,0.42217-1.1875,1.0938-0.75514,0.67158-1.7868,1.5918-2.375,3.0938-1.0104,2.5802-0.83565,5.515-0.78125,7.3438,0.0642,2.16,0.66101,3.2816,1,4.5938,0.34547,1.3372,0.62248,3.7138,1.6875,5.8438,0.67983,1.3597,1.6427,2.0976,2.25,2.6562,0.60734,0.55866,0.73801,0.8742,0.6875,0.625-0.0455-0.22429-0.0328,0.0479-0.375,0.78125-0.34216,0.7334-0.95031,1.822-1.0625,3.3438-0.10234,1.388-0.74072,3.6813,0.75,7.3125,0.79773,1.9432,2.3039,4.4496,3.8125,6.9688,1.5086,2.5191,3.0226,5.0409,3.5625,6.125,0.25117,0.50433,0.32653,0.69847,0.40625,0.875-0.0495,0.4353-0.068,0.85005,0,1.375,0.0662,0.51109-0.0482,2.0015-0.0312,3.75s0.21133,3.8605,1.1562,5.9688c0.9453,2.1091,2.5779,4.2531,4.2188,6.3125,1.6408,2.0594,3.299,3.9979,4,4.9688,0.86585,1.1992,1.4002,1.8181,1.5938,2.0625-0.0152,0.0356-0.0108-0.02-0.0312,0.0312-0.25223,0.63241-0.51918,2.0048-0.1875,3.4062,0.40882,1.7272,0.95163,6.0984,3.5625,9.5,1.3208,1.7208,3.1844,3.213,5.0312,4.5938,1.8469,1.3808,3.6818,2.6072,4.6562,3.3438,1.2972,0.98049,2.4095,1.4336,2.9062,1.625,0.49673,0.19143,0.14087-0.11675,0.40625,0.25,0.38274,0.52894,1.0133,3.1181,1.9688,5.5,0.59621,1.4863,0.70097,4.0926,3,6.6875,2.1324,2.4068,5.715,5.0606,8.8438,6.625,1.8509,0.92546,3.7416,1.1916,5.3125,1.4375,1.5708,0.2459,2.848,0.59641,2.9375,0.65625,0.23831,0.15934,0.14128,0.0174,0.25,0.625,0.10872,0.60759,0.12176,1.8064,0.84375,3.1875,0.60631,1.1598,1.1418,3.6367,3.75,5.6562,2.6358,2.041,7.2839,3.9992,9.6875,4.9062,1.2885,0.48622,2.3416,0.49235,3.1562,0.46875-0.33979,0.30728-0.67166,0.62569-1,0.84375-0.6372,0.42315-2.4076,0.54057-5.0625,2.1562-2.3586,1.4353-5.6458,3.7676-8.4062,6.0625-2.7811,2.3121-5.0095,4.6547-7.9375,7.5-2.8646,2.7837-7.0248,6.3043-10.125,10.062-3.0174,3.6578-5.5306,7.6114-7.6875,11.562-2.2066,4.042-3.6373,7.968-5.3125,12.219-1.6826,4.2695-3.7442,9.3943-5,13.969-1.223,4.4549-1.856,7.7998-2.3438,12.844-0.50608,5.234-0.45799,14.069-0.625,17.438-0.0892,1.7984-0.033,2.5716-0.0312,2.7188-0.0224,0.0644-0.0974,0.25665-0.25,0.65625-0.62785,1.6446-1.6674,3.9686-3.0312,5.4375-1.2479,1.344-3.8778,2.4779-6.8438,5-2.7023,2.298-6.0599,5.3462-9,8.4688-2.8167,2.9915-5.3624,5.4903-8.5625,10.188-3.1038,4.5559-7.3858,10.934-10.438,17.719-3.02,6.7141-5.9739,15.495-7.5312,22.25-1.5403,6.6813-1.6458,9.8888-1.75,18-0.10419,8.1103-0.24452,21.149,1.0938,31.469,1.3061,10.071,2.616,18.763,6.875,29.688,4.2046,10.785,10.515,24.954,18.562,35.562,8.016,10.566,18.564,19.333,28.969,27.094,5.3776,4.0115,12.271,7.7559,18.594,11.125,6.3227,3.3691,12.143,6.4302,14.906,8.5,1.4648,1.0974,2.2666,1.8816,2.625,2.3438,0.35842,0.46215,0.30824,0.44946,0.3125,0.53125,0.004,0.0818-0.0601,0.45333-0.15625,1.2188-0.0961,0.76542-0.0974,1.8882,0.28125,3.0938,0.90862,2.8929,0.76945,6.6648,2.5625,12.156,1.6838,5.1568,4.2406,12.82,7.6562,19.062,3.3414,6.1066,7.3868,11.966,12.375,17.531,4.9582,5.5316,10.879,11.13,17.531,15.844,6.6093,4.683,13.745,8.6524,22.125,12.25,8.4232,3.616,19.058,6.9848,28.125,9.3438,9.146,2.3795,19.266,3.8808,26.312,4.8125,7.0824,0.93645,7.8202,0.69897,16.312,0.84375,8.5963,0.14662,25.295,0.13525,35.25,0.0625,9.9369-0.0726,17.494-0.1209,24.562-0.5,7.0236-0.37671,11.308-0.77066,17.719-1.7812,6.2236-0.98105,11.216-1.2765,20.906-4.3438,9.5122-3.011,26.338-8.2898,36.906-13.969,10.464-5.6229,18.481-12.741,25.125-19.438,6.7263-6.7796,11.124-13.222,15.25-21.25,4.2506-8.2718,7.9162-20.877,9.6562-27.062,0.9427-3.3512,0.92277-5.7959,0.78125-7.4375s-0.22188-2.065-0.0312-2.4688c0.3884-0.82252-0.10865-0.31145,0.40625-0.5s2.0011-0.5621,4.0625-1.6562c3.3385-1.772,9.1108-3.4847,17.062-8.75,7.7817-5.1528,21.683-14.954,29.656-22.219,7.9368-7.2315,12.83-14.183,17.406-20.719,4.6972-6.7084,7.7275-12.974,10.594-19.219,2.8952-6.3076,5.0988-12.176,6.875-18.812,1.795-6.7066,2.8229-14.134,3.75-20.844,0.93254-6.7487,1.6524-13.183,1.9062-19.938,0.25077-6.6731,0.42333-14.242-0.40625-20.594-0.83553-6.3977-2.8588-11.48-4.4375-16.562-1.6025-5.1587-3.0572-10.397-5.4375-15.344-2.3892-4.9656-5.6985-9.4425-8.4375-13.469-2.7834-4.0916-5.586-8.0997-8.5625-11.5-2.9947-3.4212-6.3988-6.3952-9-8.5625-1.4774-1.231-2.8307-1.925-3.875-2.5-1.0443-0.57504-1.7827-1.0165-2.5938-1.8438-1.876-1.9134-4.5761-5.5777-5.375-7.5-0.3816-0.91821-0.40782-1.4719-0.375-2.375,0.0328-0.90314,0.2041-2.1218,0.125-3.75-0.13165-2.7113-0.1615-6.3412-0.375-9.8438-0.20103-3.2979-0.13464-6.6702-0.90625-10.969-0.7585-4.2259-2.1804-9.5469-3.5938-14-1.3737-4.3279-2.3639-7.9112-4.9375-12.875-2.568-4.9528-6.9985-11.981-10.281-16.469-3.3152-4.5321-6.3473-7.2848-9.2188-10.156-3.0079-3.0079-5.8812-5.4236-8.7188-7.8125-2.8574-2.4057-5.9749-4.9524-8.625-6.7812-2.5897-1.7871-5.08-2.9394-6.4062-3.6875,0.36855-0.0862,0.6298-0.16452,1.375-0.40625a2.3589,2.3589,0,0,0,0.4375,-0.125c1.5173-0.54694,4.1157-1.4402,6-2.3125,1.5134-0.7006,3.3681-1.2327,5.0312-2.9688,1.7318-1.8077,2.5754-4.1556,3.25-5.6562,0.56276-1.2519,0.62823-2.3269,0.71875-2.9375,0.0905-0.61064,0.0974-0.59914,0.125-0.625,0.0704-0.066,0.58572-0.34476,1.5-0.625s2.1726-0.58683,3.5-1.1875c2.2049-0.99775,5.5974-2.5584,7.7188-3.8125,0.78094-0.46168,1.304-0.6257,2.1562-1.1562,0.85229-0.53055,1.7096-1.3859,2.4688-2.625,0.88833-1.4498,1.5839-3.3974,2.3125-5.3438,0.72857-1.9463,1.461-3.9108,1.8125-4.6562,0.98083-2.0798-0.31432-0.30367,1.0938-1.5312,0.78108-0.68101,3.5019-2.2639,5.5938-4.0312,1.9162-1.6188,4.0382-3.6558,5.5312-5.375,1.4514-1.6712,2.4508-3.1481,3.3125-4.9062,0.89471-1.8254,1.5824-3.9197,1.8438-5.75,0.19211-1.3449-0.18068-2.4103-0.34375-2.9688-0.16307-0.55844-0.0624-0.46242-0.15625-0.21875-0.0127,0.0328,1.0212-0.9858,2.375-2.2188,0.63867-0.58171,2.5863-1.2646,4.3125-3.5938,1.3873-1.8719,3.4894-4.8731,4.2812-8.25,0.45096-1.9232,0.22581-3.7404,0.0625-5.3438-0.16331-1.6033-0.24447-3.002-0.125-3.5312,0.33647-1.4904,1.5705-2.2551,2.9688-4.5625,0.98993-1.6336,2.2991-3.3448,3.3125-5.625,0.81493-1.8336,2.2269-4.2268,2.2812-7.3438,0.0329-1.8879-0.61433-3.4601-1.0938-4.8438-0.47942-1.3836-0.74371-2.5961-0.71875-2.875,0.0901-1.0066,1.3768-2.2631,2.6562-4.3438,0.29882-0.48596,0.67264-0.85322,1.25-1.5s1.3005-1.6451,1.6875-2.9688c0.58781-2.0106,1.3093-5.1002,0.59375-8.4062-0.42076-1.9442-1.4374-3.5412-2.3125-5.0625-0.87515-1.5213-1.5764-3.0062-1.6562-3.4688-0.1163-0.6743-0.0184-1.0422,0.28125-1.7812,0.29967-0.73902,0.87135-1.7299,1.1875-3.1562,0.36877-1.6638,1.449-3.872,1.25-6.9375-0.17192-2.6492-0.6836-6.3342-2.4688-9.25-1.7518-2.8613-4.5857-4.7211-6.9375-6.0312-2.5874-1.4414-5.2448-1.9401-7.8125-2.375-1.7353-0.29393-3.2659-0.074-4.5625,0s-2.277,0.006-2.9375-0.28125c-0.59594-0.25939-1.5323-1.1137-2.5938-2.2812-1.0614-1.1675-2.2561-2.6109-4.0312-3.6562-2.9219-1.7206-6.3588-2.9296-9.7188-3.5312-3.6724-0.65757-8.0063-0.12105-10-0.0937-1.3963,0.0191-2.4337,0.27583-2.875,0.375-0.44126,0.0992-0.06,0.13144-0.3125,0.0312-0.002-0.00078-0.46411-0.3442-1.0938-1-0.62964-0.6558-1.4522-1.5611-2.6562-2.3125-1.6978-1.0596-3.9857-2.578-6.9062-3.2188-3.0835-0.67646-7.073-0.29765-8.6562-0.25-0.5927,0.0179-1.127,0.17573-1.625,0.375-0.24547-0.20602-0.62878-0.49285-1.3125-1.125-0.89419-0.82676-1.8928-1.8092-3.2188-2.5-1.9521-1.017-3.6574-1.4173-6.2812-1.6875-2.6722-0.27521-7.2889-0.59285-10.375-0.0937-1.6959,0.27426-2.9581,1.0268-3.8125,1.625-0.8544,0.59822-1.3461,0.92926-1.375,0.9375-0.62234,0.17724-1.2015,0.0505-1.6875-0.0312-0.2345-0.45445-0.59839-0.96903-1.2812-1.3438-0.8634-0.47381-1.3232-0.40987-1.7812-0.4375-0.10596-0.36573-0.22983-0.75497-0.5-1.0625-0.68194-0.77625-1.4365-0.98356-2.1562-1.125-1.4287-0.28075-4.5862-0.96519-7.875-0.84375zm2.6562,4.875c1.3682,0.11518,2.4328,0.3073,3.375,0.46875,0.0192,0.0751,0.004,0.10844,0.0312,0.1875,0.19735,0.56281,0.65046,1.0946,1.0938,1.375,1.1182,0.70733,1.7991,0.62318,2.3438,0.6875,0.19223,0.0227,0.0579-0.0314,0.1875,0,0.0814,0.18532,0.103,0.2884,0.28125,0.53125,0.34403,0.46869,0.97472,0.9523,1.5938,1.1562,1.225,0.40362,2.9758,0.67022,5,0.0937,1.398-0.39814,2.1671-1.1419,2.8125-1.5938,0.64537-0.45187,1.1229-0.72212,1.875-0.84375,1.8097-0.29268,6.7343-0.12121,9.125,0.125,2.4392,0.25121,3.0664,0.39175,4.5938,1.1875,0.41376,0.21557,1.3213,0.98038,2.1875,1.7812,0.8662,0.80087,1.5394,1.611,2.875,2.25,0.47709,0.22828,1.0335,0.5043,1.9062,0.40625,0.79271-0.089,1.2924-0.53849,1.5-0.71875-0.13777,0.0646-0.1936,0.0683,0,0.0625,1.8753-0.0565,5.8025-0.24054,7.4688,0.125,1.8292,0.4013,3.7292,1.5394,5.4688,2.625,0.51474,0.32123,1.0563,0.90376,1.7188,1.5938,0.66246,0.68999,1.4184,1.553,2.7812,2.0938,1.1124,0.44136,2.3812,0.37187,3.0625,0.21875,0.68133-0.15312,1.0318-0.26927,1.9062-0.28125,2.5479-0.0349,6.5999-0.4153,9.0938,0.0312,2.8064,0.50249,5.8069,1.554,8.1562,2.9375,0.86051,0.50673,1.8419,1.5762,2.9375,2.7812,1.0956,1.2051,2.2939,2.5821,4.1875,3.4062,1.829,0.79606,3.6127,0.74074,5.0938,0.65625,1.4811-0.0845,2.746-0.16426,3.5312-0.0312,2.4734,0.41896,4.5245,0.84769,6.3125,1.8438,2.0236,1.1273,4.2097,2.7779,5.1875,4.375,0.94445,1.5426,1.6409,4.9311,1.7812,7.0938,0.11337,1.7464-0.59791,3.2156-1.125,5.5938-0.13179,0.59462-0.52683,1.3164-0.96875,2.4062s-0.86307,2.6324-0.5625,4.375c0.33713,1.9543,1.3413,3.4746,2.2188,5,0.87747,1.5254,1.6607,3.0173,1.8125,3.7188,0.4297,1.9853-0.0351,4.3966-0.53125,6.0938-0.15502,0.53026-0.2935,0.71488-0.6875,1.1562-0.394,0.44137-1.1009,1.1007-1.75,2.1562-0.61646,1.0025-3.0384,2.9643-3.3438,6.375-0.17274,1.9298,0.48151,3.4688,0.96875,4.875s0.85243,2.69,0.84375,3.1875c-0.0288,1.6539-0.90892,3.4278-1.8438,5.5312-0.73637,1.6569-1.9063,3.1858-3.0625,5.0938-0.74786,1.2341-2.8047,2.7505-3.5312,5.9688-0.41201,1.8251-0.12859,3.4933,0.0312,5.0625,0.15984,1.5692,0.21542,2.9958,0.0312,3.7812-0.47848,2.0404-2.2314,4.8303-3.4688,6.5-0.89852,1.2124-1.9929,1.3628-3.6875,2.9062-0.9796,0.89217-2.7375,1.7272-3.625,4.0312-0.5313,1.3793-0.15476,2.613,0.0312,3.25,0.18601,0.63699,0.2349,0.85566,0.21875,0.96875-0.15502,1.0857-0.75934,3.0239-1.4062,4.3438-0.67979,1.387-1.357,2.379-2.6562,3.875-1.2575,1.4479-3.2906,3.4308-5,4.875-1.5336,1.2957-4,2.6184-5.6562,4.0625-1.0294,0.89748-1.3662,1.1534-2.2812,3.0938-0.59639,1.2646-1.2285,3.106-1.9375,5-0.70899,1.894-1.524,3.8564-1.9375,4.5312-0.54262,0.88559-0.64982,0.93412-0.90625,1.0938-0.25643,0.15963-0.98931,0.44081-2.0938,1.0938-1.6494,0.97508-5.1109,2.5804-7.2812,3.5625-0.86028,0.38929-1.8468,0.67526-2.9062,1-1.0595,0.32474-2.2475,0.65947-3.3438,1.6875-1.1391,1.0682-1.4627,2.491-1.5938,3.375-0.13104,0.884-0.17757,1.3874-0.3125,1.6875-0.72085,1.6034-1.7324,3.673-2.375,4.3438-0.71139,0.74256-1.7318,1.0755-3.5938,1.9375-1.4348,0.66426-3.8463,1.5316-5.4062,2.0938-0.061,0.022-0.1606,0.0415-0.21875,0.0625-1.224,0.4412-2.2596,0.33769-3.8125,1.2812-0.60885,0.36998-1.1697,0.80945-1.6875,1.4062-0.51779,0.5968-1.2829,1.4202-0.9375,3.0312,0.12168,0.56753,0.47258,1.1973,0.84375,1.5625,0.37117,0.36523,0.7033,0.54202,0.96875,0.6875,0.5309,0.29096,0.95261,0.46082,1.5938,0.84375,1.7751,1.0602,4.2718,2.138,6.5625,3.7188,2.3919,1.6506,5.4408,4.1349,8.25,6.5,2.8292,2.3818,5.5602,4.7165,8.4062,7.5625,2.9824,2.9824,5.7421,5.439,8.7812,9.5938,3.0715,4.199,7.4849,11.265,9.875,15.875,2.3844,4.5988,3.2591,7.7232,4.6562,12.125,1.3574,4.2766,2.7064,9.507,3.4062,13.406,0.68689,3.8265,0.62826,6.8712,0.84375,10.406,0.203,3.3303,0.23553,6.909,0.375,9.7812,0.0565,1.1636-0.0801,2.1392-0.125,3.375s0.0795,2.7305,0.75,4.3438c1.3052,3.1408,4.0847,6.6641,6.375,9,1.272,1.2974,2.5496,2.0469,3.6562,2.6562,1.1066,0.60934,2.0399,1.0959,3.125,2,2.524,2.103,5.7861,4.9622,8.5,8.0625,2.7321,3.1211,5.4294,6.9767,8.1875,11.031,2.8026,4.1199,5.9311,8.4452,8.0625,12.875,2.1402,4.4483,3.5607,9.4507,5.1875,14.688,1.6505,5.3133,3.5645,10.054,4.3125,15.781,0.75404,5.7734,0.59248,13.162,0.34375,19.781-0.24574,6.5376-0.92241,12.801-1.8438,19.469-0.92679,6.7071-1.9405,13.988-3.625,20.281-1.7032,6.3635-3.8115,11.933-6.625,18.062-2.8424,6.1927-5.7074,12.146-10.156,18.5-4.5695,6.526-9.176,13.034-16.719,19.906-7.5062,6.8393-21.459,16.726-29.094,21.781-7.4648,4.9429-12.568,6.3444-16.688,8.5312-1.6679,0.88528-2.3997,0.99497-3.4375,1.375s-2.4196,1.5098-3.0938,2.9375c-0.87194,1.8465-0.52557,3.4909-0.40625,4.875s0.19237,2.9555-0.59375,5.75c-1.7175,6.1056-5.4902,18.688-9.3438,26.188-3.9786,7.7423-7.9761,13.644-14.375,20.094-6.4816,6.533-14.109,13.279-24,18.594-9.7863,5.2589-26.585,10.615-36.094,13.625-9.3312,2.9538-13.755,3.1686-20.219,4.1875-6.2766,0.98941-10.326,1.3457-17.281,1.7188-6.9108,0.37066-14.374,0.4274-24.312,0.5-9.9197,0.0725-26.637,0.0823-35.125-0.0625-8.5917-0.14648-8.8739,0.10493-15.812-0.8125-6.9744-0.92217-16.928-2.4004-25.719-4.6875-8.8702-2.3078-19.392-5.6579-27.469-9.125-8.1192-3.4855-14.921-7.2659-21.25-11.75-6.2859-4.4539-11.947-9.8331-16.719-15.156-4.7414-5.2897-8.5708-10.815-11.75-16.625-3.1049-5.6745-5.6741-13.168-7.3438-18.281-1.5604-4.779-1.2938-8.1538-2.5312-12.094-0.15788-0.50265-0.14348-0.69767-0.0937-1.0938,0.0497-0.39608,0.23962-1.0608,0.1875-2.0625-0.0521-1.0017-0.49647-2.1756-1.2812-3.1875-0.78478-1.0119-1.8815-1.9828-3.5312-3.2188-3.4664-2.5969-9.2452-5.5254-15.531-8.875-6.286-3.3496-13.013-7.0532-17.969-10.75-10.27-7.65-20.47-16.18-28.04-26.15-7.5356-9.9331-13.809-23.847-17.938-34.438-4.0743-10.451-5.3265-18.55-6.625-28.562-1.2662-9.7643-1.1353-22.714-1.0312-30.812,0.10402-8.097,0.14431-10.577,1.625-17,1.4637-6.349,4.363-15.026,7.2188-21.375,2.8241-6.2785,6.9782-12.473,10.062-17,2.988-4.3859,5.1714-6.5231,8.0625-9.5938,2.7677-2.9395,6.036-5.9234,8.625-8.125,2.3254-1.9774,5.0086-2.9272,7.2812-5.375,2.1567-2.3228,3.2843-5.1759,3.9688-6.9688,0.16041-0.42016,0.26872-0.65559,0.375-1s0.18282-0.83693,0.1875-1.1562c0.009-0.63864-0.0537-0.97487,0.0312-2.6875,0.18733-3.778,0.17222-12.536,0.625-17.219,0.47118-4.873,0.98295-7.7574,2.1562-12.031,1.1405-4.1543,3.1831-9.207,4.875-13.5,1.6992-4.3118,3.0608-8.0208,5.0625-11.688,2.0513-3.7576,4.4131-7.4493,7.1875-10.812,2.6915-3.2628,6.6977-6.7214,9.75-9.6875,2.9889-2.9045,5.1562-5.1456,7.6875-7.25,2.5519-2.1215,5.7859-4.4039,7.8438-5.6562,1.7615-1.072,3.095-0.86041,5.1875-2.25,0.86379-0.57366,1.687-1.2741,2.375-2,0.68797-0.72589,1.2814-1.3166,1.6562-2.5312,0.38028-1.2322-0.19498-2.7001-0.875-3.4062-0.68002-0.70611-1.3766-1.0223-2.0312-1.2812-1.2592-0.49798-2.1343-0.24995-2.625-0.21875-0.49071,0.0312-0.82749,0.0704-1.5938-0.21875-2.0128-0.75961-7.0103-3.1136-8.4375-4.2188-1.4548-1.1265-1.4396-2.0967-2.5-4.125-0.11134-0.21298-0.1561-0.76381-0.34375-1.8125s-0.82159-2.7532-2.3125-3.75c-1.6397-1.0963-3.2264-1.1629-4.7812-1.4062-1.5548-0.24338-3.0489-0.50883-3.9688-0.96875-2.4129-1.2064-5.9761-3.917-7.4062-5.5312-1.2635-1.4261-1.1166-2.7988-2.125-5.3125-0.64907-1.6181-0.89385-4.2372-2.5312-6.5-0.74468-1.0292-1.9193-1.6704-2.5312-1.9062-0.61197-0.23584-0.90125-0.30358-1.7812-0.96875-1.2028-0.90914-2.9683-2.0897-4.6875-3.375s-3.3832-2.721-4.125-3.6875c-1.5142-1.9728-2.1593-5.4871-2.6875-7.7188-0.13681-0.57805-0.094-0.32679,0-0.5625s0.6374-1.4971,0.28125-2.7812c-0.17951-0.64726-0.58319-1.424-0.9375-1.875-0.35431-0.45102-0.67199-0.83401-1.4688-1.9375-0.97621-1.352-2.5887-3.1888-4.1562-5.1562s-3.0808-4.0983-3.625-5.3125c-0.54459-1.215-0.70467-2.613-0.71875-4.0625-0.0141-1.4495,0.16286-2.8443-0.0312-4.3438-0.0467-0.36099,0.008-0.38985-0.0312-0.1875-0.0393,0.20235-0.12331,0.55479,0.0625-0.1875s-0.0275-1.4781-0.1875-1.875c-0.15997-0.39689-0.35-0.79108-0.6875-1.4688-0.78292-1.572-2.2613-3.9516-3.75-6.4375s-2.985-5.0892-3.5-6.3438c-1.1348-2.7643-0.54302-2.9088-0.375-5.1875,0.023-0.31163,0.24046-0.89452,0.625-1.7188,0.38454-0.82423,1.0243-2.0258,0.6875-3.6875-0.34185-1.6867-1.4049-2.5226-2.0938-3.1562-0.68881-0.6336-1.1278-1.1306-1.2188-1.3125-0.47656-0.9531-0.84519-3.0974-1.3125-4.9062-0.47377-1.8339-0.83517-2.1907-0.875-3.5312-0.0497-1.6716,0.12482-4.6217,0.46875-5.5,0.089-0.22724,0.4553-0.71344,1.0938-1.2812,0.63845-0.56781,1.52-1.1104,2.2188-2.4375,0.88764-1.6858,0.79835-3.4834,0.5625-4.7188-0.40292-2.1105-1.4703-3.1996-1.7188-3.9688-0.39174-1.2128-0.78057-2.9625-0.875-3.9375-0.11284-1.1651-0.0885-1.0777,0.21875-2.625,0.37012-1.8636,0.69767-4.3064,1.3438-5.4062,0.9244-1.5736,2.2199-3.051,4-4.0625,1.7534-0.99628,4.9564-1.9054,7.6562-2.3438,1.0156-0.1649,2.5694-0.0721,4.1875,0.0312,1.6181,0.10339,3.2738,0.29544,5.0625-0.3125,1.7254-0.58645,2.776-1.9092,3.375-2.8438,0.59901-0.93452,0.95055-1.5224,1.1875-1.7188,1.3727-1.1372,2.5941-1.9938,4.3438-2.75,1.9682-0.85067,3.8268-1.6204,6.4062-1.9062,1.1688-0.12953,3.1887-0.0779,5.125,0s3.7748,0.19399,5.125,0.15625c0.45894-0.0128,0.63563-0.008,0.6875,0,0.0519,0.008,0.007,0.05,0.59375,0.0937,0.58685,0.0437,1.1833-0.14293,1.5-0.28125,0.31674-0.13832,0.61871-0.30394,1.1562-0.5625,1.487-0.71523,3.17-1.9156,5-3.0938,1.83-1.1781,3.7765-2.2906,4.7812-2.5938,1.0483-0.31625,2.3628-0.31128,3.6875-0.15625s2.5352,0.49183,3.875,0.53125c0.17348,0.005,0.0966-0.0223,0.0625-0.0312,0.31586,0.20648,1.564,0.53634,2.1875,0.375,0.62351-0.16134,0.89173-0.35029,1.3125-0.59375,1.53-0.88522,2.1748-1.9935,3.0938-2.9375,0.9189-0.94403,1.8471-1.6702,2.8438-1.9688,2.3029-0.68985,9.2166-0.79016,11.875-0.5625,1.0722,0.0918,1.3072,0.28073,1.75,0.59375,0.44283,0.31302,1.1881,1.0956,2.5938,1.4688,0.94328,0.25043,1.9478,0.38301,2.875,0.4375,0.92725,0.0545,1.6042,0.17742,2.75-0.25,0.46857-0.1748,1.0703-0.60687,1.4062-1.2188,0.17751-0.32327,0.11971-0.55357,0.15625-0.84375,0.6604-0.0348,1.3137-0.008,2.3125-0.375,0.51326-0.18875,0.97167-0.7381,1.3438-1.25,1.3762-0.14213,6.4933-0.19703,7.7188-0.0625,0.24657,0.42297,0.75649,1.0302,1.4062,1.3125,0.88707,0.38547,1.6899,0.3442,2,0.34375,0.31011-0.00045,0.3227,0.002,0.5625,0.0937,0.6886,0.26291,2.7594,1.4322,4.2188,2.1562,0.381,0.18903,0.79624,0.51122,1.4688,0.9375,0.67251,0.42628,1.7283,0.96851,3,0.9375,1.5186-0.037,2.4224-0.70828,3.1562-1.125,0.73388-0.41672,1.2927-0.69386,1.5938-0.75,1.3162-0.24547,3.2278-0.23981,5-0.0312,1.8434,0.21691,4.027,0.66454,5.2812,1.25,0.38427,0.17937,0.89507,0.62916,1.5625,1.2812,0.66743,0.65209,1.4632,1.5079,2.7812,2.0938,0.90428,0.4019,1.7997,0.62934,2.5938,0.6875,0.79407,0.0582,1.4974,0.0213,2.875,0.125,1.6798,0.12643,4.028,0.11412,6.4062,0.15625,2.3783,0.0421,4.8021,0.1792,5.9375,0.46875,1.2811,0.32669,1.9418,0.72205,2.6875,1.3125,0.74575,0.59045,1.57,1.4552,2.8125,2.4375,0.79473,0.62831,1.839,1.8704,3,3.125s2.4118,2.5774,4.25,3.375c1.9596,0.85023,3.8394,0.58741,5.2812,0.40625,1.4419-0.18116,2.5197-0.2439,2.9062-0.125,0.88287,0.27159,1.3772,0.57438,2.0938,1.125,0.71658,0.55062,1.6122,1.3766,2.9688,2.5,2.6521,2.1963,6.2882,5.0689,9.5,8.6562,3.2382,3.6168,7.7171,9.6684,10.375,13.562,2.671,3.9133,3.8416,5.921,5.5,9.625,1.539,3.4372,3.1486,9.5185,4.4688,12.688,0.47593,1.1425,0.69184,2.3024,1.125,3.4375,0.10829,0.28378,0.22974,0.57441,0.46875,0.9375s0.65755,0.90855,1.5,1.1875,1.8395,0.0129,2.3438-0.3125c0.50429-0.32539,0.75717-0.64498,1-0.96875,0.68746-0.9166,0.93342-1.7586,1.3438-2.875,0.41033-1.1164,0.85111-2.4286,1.2812-3.7812,0.86027-2.7053,1.7796-5.6414,2.4062-7.0938,1.3613-3.1545,2.6514-4.4042,4.0625-7.1562,1.4214-2.7723,1.7165-4.7298,3.3125-7.2812,1.6922-2.7052,4.5655-6.4854,7.125-9.4375,2.5489-2.94,5.5727-5.869,8.3438-8.3438,2.9484-2.6332,5.5091-5.3035,7.6562-6.1562,0.85453-0.33939,2.395-0.42658,4-0.34375,1.605,0.0828,3.1288,0.38937,4.875,0.0312,1.2017-0.24644,2.3506-0.82726,2.9375-1.5312,0.58687-0.70399,0.44626-0.72102,0.8125-1.0625,1.709-1.5934,2.8926-3.5425,4.5-4.6562,2.0099-1.3927,4.9902-3.0829,7.25-3.625,2.0486-0.49145,6.1977-0.16801,8.1562-0.0312,0.17474,0.0122,0.12708,0.005,0.15625,0,0.10582,0.0967,0.2925,0.12451,0.4375,0.21875,0.0252,0.0164,0.0365,0.0464,0.0625,0.0625-0.0487-0.03,0.12028,0.3312,0.875,0.6875,0.8143,0.38442,1.6652,0.24592,2.1562,0.0937,0.49104-0.15217,0.87159-0.33684,1.4062-0.625,1.3612-0.73364,2.8224-1.9289,4.5-3.125s3.5119-2.354,4.4688-2.6875c2.1868-0.76214,5.3756-0.40615,7.3438-0.125,0.45149,0.0645,0.41899,0.0715,0.75,0.375,0.33101,0.30353,1.0196,1.2225,2.4688,1.5312,0.40425,0.0861,0.98498,0.31901,1.9375,0.25,0.95252-0.069,1.6979-0.37877,2.875-0.90625,1.5571-0.69773,3.1259-1.8427,4.8438-2.9375,1.7178-1.0948,3.535-2.0947,4.6562-2.375,1.2054-0.30135,3.0333-0.27215,4.7812-0.125zm-40.281,6.375c0.0606,0.0215,0.0628-0.0294,0.125,0,0.64381,0.30394,0.79588,0.63576,0.5625,0.375-0.0916-0.1023-0.44362-0.19826-0.65625-0.34375-0.007-0.008-0.023-0.0231-0.0312-0.0312z"/><path id="path3100" d="m386.39,281.07c4.549,0.91251,7.6684-4.9598,10.772-8.2152,3.1032-3.2555,6.2354-6.5407,7.8478-11.318,1.6124-4.7769,3.1046-9.9199,1.8268-17.344-1.2778-7.4239-5.021-18.772-9.4934-27.199-4.4724-8.4278-14.207-20.385-17.341-23.367-3.1338-2.9821-0.85303,4.2428-1.4619,5.4751-0.60892,1.2323-1.4462,1.6295-2.1916,1.9186-0.74542,0.28916-1.5661,0.19686-2.2809-0.18371-0.71478-0.38059,1.0197,1.171-2.0079-2.0998s-13.328-15.395-16.157-17.525c-2.8298-2.1295-0.60892,3.5158-0.82153,4.748-0.21259,1.2323-0.0892,1.7787-0.45407,2.6457-0.36481,0.86702-1.0958,2.1912-1.7349,2.5564-0.6391,0.36527-1.5214-0.0604-2.0997-0.36482-0.57831-0.30447,0.19684,0.12029-1.3701-1.4619s-5.6584-5.9169-8.0315-8.0315-5.0967-4.6256-6.2074-4.6562c-1.1106-0.0306-0.25894,3.1032-0.45669,4.4724-0.19773,1.3692-0.1518,2.7537-0.72965,3.7428-0.57785,0.98906-1.4751,2.4501-2.7375,2.1916-1.2625-0.25853-2.3421-1.8565-4.8373-3.7428s-7.4409-5.8403-10.134-7.5748c-2.6929-1.7345-5.2021-2.7861-6.0236-2.832-0.82153-0.0459,0.74451,1.8718,1.0945,2.5564,0.34994,0.6846,0.8377,0.57744,1.0052,1.5512,0.16754,0.97376,0.25851,3.1501,0,4.2914-0.25855,1.1413-0.60807,2.4348-1.5512,2.5564-0.94315,0.12161-1.9016-0.7161-4.1076-1.8268s-5.6601-3.3771-9.1286-4.8373-9.7354-3.7262-11.682-3.9239c-1.9471-0.19772-0.38016,1.9773,0,2.7375,0.38012,0.76028,1.7183,1.2004,2.2808,1.8242,0.56256,0.6238,0.91208,1.0057,1.0945,1.9186,0.18241,0.91295,0.1518,2.7375,0,3.5591-0.15179,0.82151-0.30227,1.2484-0.91076,1.3701-0.60849,0.12161-0.53412,0.1203-2.7402-0.64041-2.206-0.76073-6.8906-2.9046-10.496-3.9239s-9.4628-2.2069-11.136-2.1916c-1.6737,0.0153,0.5315,1.5381,1.0945,2.2835,0.56299,0.74541,1.9029,0.89589,2.2835,2.189,0.38056,1.2931,0.62378,4.5958,0,5.5696-0.6238,0.97376-0.71524,0.88146-3.7428,0.27297-3.0276-0.60848-9.7524-3.3456-14.423-3.9239-4.6702-0.5783-12.305-0.83901-13.598,0.45406-1.2931,1.2931,6.3574,5.783,5.8399,7.3045-0.51751,1.5214-4.4116,1.5656-8.9449,1.8242-4.5332,0.25853-15.836-1.5508-18.255-0.27297-2.4186,1.2778,2.4195,5.1251,3.7428,7.9396s3.3451,6.3307,4.1968,8.9475,2.5411,5.78,0.91338,6.7533c-1.6277,0.97333-9.706-2.2371-10.68-0.91337-0.97375,1.3237,2.0682,5.6457,4.8373,8.8556,2.769,3.21,10.514,8.0919,11.777,10.404,1.2629,2.3123-2.3736,2.9374-4.1995,3.4698-1.8259,0.53236-5.4322-0.44271-6.7559-0.27559-1.3237,0.1671-3.0879-1.0193-1.1863,1.2782s9.6898,9.6466,12.596,12.507c2.9059,2.86,4.0031,3.5735,4.8399,4.6536,0.83684,1.08,0.36395,1.3246,0.1811,1.8268-0.18284,0.5022,0.22791,0.97333-1.2782,1.1864-1.5061,0.21302-6.3136-0.0297-7.7585,0.0919-1.4449,0.12162-2.3106-0.86834-0.91076,0.63779s5.6894,5.5691,9.3097,8.399c3.6203,2.8298,11.028,6.7393,12.412,8.58,1.3841,1.8408-2.4191,2.0236-4.1076,2.4646-1.6885,0.44095-5.0656-0.19903-6.0236,0.18109-0.95801,0.38016-1.748,0.48688,0.27559,2.0998,2.0236,1.6128,8.9151,5.8128,11.866,7.5774,2.951,1.7646,3.8775,1.9912,5.8399,3.0105,1.9624,1.0192,4.5954,2.329,5.9344,3.105,1.339,0.77603,1.8718,0.98861,2.0997,1.5512,0.2279,0.56256,0.74365,1.3224-0.73227,1.8242-1.476,0.50174-6.5564,0.94269-8.1234,1.1863-1.5669,0.24366-1.3543-0.13516-1.2782,0.27561,0.0761,0.41073-1.3841,0.72876,1.7349,2.189s12.841,5.1422,16.979,6.5722c4.1378,1.43,6.4331,1.1557,7.8478,2.0079,1.4147,0.85214,1.4921,2.0858,0.64041,3.105-0.85169,1.0193-4.7769,2.2651-5.7506,3.0105-0.97376,0.74542-2.161,0.73141-0.0919,1.4619,2.0691,0.73053,7.608,2.2673,12.507,2.9213,4.8985,0.65399,13.842,0.22705,16.885,1.0026,3.0424,0.77561,1.9326,2.4186,1.3701,3.6509-0.56253,1.2323-3.8784,2.8298-4.7454,3.7428-0.86703,0.91293-1.43,1.4458-0.45669,1.7349,0.97333,0.28916,1.748,0.41077,6.2966,0,4.5486-0.41073,13.556-0.867,20.995-2.4645,7.4392-1.5976,16.643-3.3478,23.64-7.1208,6.9978-3.773,14.072-10.482,18.346-15.517,4.2747-5.0354,7.119-11.151,7.3018-14.696,0.18286-3.5446-1.8539-2.556-6.2047-6.5722s-13.237-12.216-19.9-17.525c-6.6636-5.3093-12.992-9.5844-20.081-14.331-7.0892-4.7463-14.726-9.5376-22.454-14.147-7.7279-4.6094-17.144-9.7515-23.913-13.509-6.7695-3.7576-13.584-7.1352-16.703-9.0367-3.119-1.9016-3.836-2.601-2.0105-2.3727,1.8254,0.22835,3.1811-0.2126,12.963,3.7428,9.7822,3.9554,35.887,15.487,45.73,19.99,9.8425,4.5026,5.5061,2.3102,13.325,7.0262,7.8193,4.7161,25.238,15.444,33.591,21.27,8.3521,5.8268,11.973,12.778,16.522,13.69z" stroke="#000" stroke-dasharray="none" stroke-miterlimit="4" stroke-width="4.71728772" fill="none"/><path id="path3102" style="baseline-shift:baseline;block-progression:tb;color:#000000;direction:ltr;text-indent:0;text-align:start;enable-background:accumulate;text-transform:none;" fill="#f4f4f4" d="m310.41,170.56c-0.53854-0.0301-1.6622,0.19199-2.2812,1.0625-0.61906,0.87051-0.4877,1.6235-0.40625,2.0312,0.1629,0.81558,0.40981,1.1069,0.625,1.4688,0.43038,0.72377,0.97398,1.5387,0.90625,1.4062,0.30253,0.59184,0.58665,0.7918,0.78125,0.96875,0.0857,0.62061,0.11823,2.8973,0.0312,3.2812-0.0358,0.15785-0.0562,0.20401-0.0937,0.34375-0.52338-0.28949-1.1862-0.66764-2.2188-1.1875-1.9382-0.97581-5.4932-3.3247-9.25-4.9062-1.8003-0.75791-4.2642-1.7074-6.5625-2.5-2.2983-0.79256-4.191-1.4291-5.8125-1.5938-0.44378-0.0451-0.90653-0.0718-1.4688,0.0937-0.56222,0.16555-1.2388,0.61857-1.625,1.2188-0.77246,1.2004-0.43718,2.1632-0.25,2.75,0.37435,1.1736,0.98728,2.0371,1,2.0625,0.60374,1.2075,1.4188,1.5817,1.9375,1.9062,0.51872,0.32454,0.84442,0.61151,0.6875,0.4375,0.56734,0.6291,0.43749,0.34328,0.53125,0.8125,0.0363,0.18183,0.0143,1.0499,0,1.7812-0.24732-0.0837-0.20599-0.0646-0.5625-0.1875-1.8878-0.65098-6.701-2.8595-10.625-3.9688-1.8937-0.53535-4.2877-1.0976-6.4688-1.5312-2.181-0.4337-3.8927-0.76298-5.3125-0.75-0.39038,0.004-0.80629,0.0106-1.4062,0.28125-0.59996,0.27064-1.4198,1.1822-1.5312,2.0625-0.1115,0.88035,0.15836,1.3857,0.34375,1.7188,0.18539,0.33301,0.36619,0.52835,0.53125,0.71875,0.66023,0.76159,1.4268,1.474,1.2812,1.2812,0.77785,1.0299,1.5308,1.2869,1.8125,1.4688,0.28169,0.18188,0.10814,0.0177,0.0937-0.0312,0.0752,0.25536,0.25568,1.3797,0.28125,2.3125,0.008,0.30695-0.0163,0.52973-0.0312,0.78125-0.36732-0.0609-0.37633-0.0432-1.25-0.21875-1.1747-0.2361-3.6962-1.0625-6.375-1.9062-2.6788-0.84375-5.6016-1.7346-8.25-2.0625-2.4478-0.3031-5.58-0.4942-8.375-0.46875-1.3975,0.0127-2.6914,0.0739-3.8438,0.25-1.1524,0.17614-2.1406,0.17182-3.3125,1.3438-0.81408,0.81409-0.9414,2.3122-0.6875,3.0625,0.2539,0.75029,0.60836,1.1968,0.96875,1.625,0.72078,0.85643,1.6144,1.5968,2.4688,2.3438,0.44654,0.39041,0.73507,0.67895,1.125,1.0312-1.3814,0.17923-3.2958,0.28233-5.4688,0.40625-1.8431,0.10511-5.8531-0.26773-9.5938-0.53125-1.8703-0.13176-3.7186-0.23404-5.3125-0.21875-1.5939,0.0153-2.8337-0.0625-4.3125,0.71875-0.66205,0.34976-1.3257,0.98393-1.6562,1.7812-0.33056,0.79732-0.29803,1.6011-0.15625,2.2188,0.28356,1.2354,0.89638,2.0459,1.5,2.875,1.2072,1.6583,2.6645,3.3762,3.0312,4.1562,1.395,2.9672,3.3896,6.524,4.0938,8.6875,0.46974,1.4432,1.0531,2.8355,1.3125,3.7812-0.0141-0.002-0.0171,0.002-0.0312,0-0.85241-0.12207-2.0383-0.39674-3.2188-0.65625-1.1804-0.25951-2.3753-0.53443-3.5-0.65625-0.56235-0.0609-1.0887-0.081-1.7188,0-0.63009,0.081-1.5635,0.27428-2.2812,1.25-0.95383,1.2966-0.69254,2.6036-0.40625,3.5625,0.28629,0.95893,0.76107,1.8278,1.3125,2.75,1.1029,1.8445,2.615,3.7908,4.0625,5.4688,1.7086,1.9807,4.3521,3.9417,6.7812,5.8438,1.2146,0.95105,2.3453,1.8879,3.2188,2.6562,0.50952,0.44821,0.61674,0.58658,0.875,0.875-0.6133,0.2194-1.3562,0.4451-2.1875,0.6875-0.14086,0.0411-1.393,0.0862-2.625-0.0625s-2.2585-0.46955-3.75-0.28125c0.0777-0.01-0.092,0.009-0.34375-0.0312-0.25174-0.0405-0.47204-0.18047-1.25-0.15625-0.38898,0.0121-1.2698,0.0458-2,1.0312-0.73015,0.98546-0.47935,2.0288-0.3125,2.4688,0.33371,0.88,0.66146,1.1769,1.1875,1.8125,1.1716,1.4156,3.534,3.7253,6.0938,6.2188,2.5598,2.4934,5.2342,5.0692,6.6562,6.4688,2.4846,2.4454,3.239,3.0364,3.875,3.6875-0.70386,0.0209-1.3089,0.0437-2.3438,0.0312-1.5592-0.0187-3.0228-0.0901-4.0938,0-0.0751,0.006-0.16312-0.008-0.28125-0.0312-0.11813-0.0235-0.10871-0.035-0.5625-0.125-0.11345-0.0225-0.26609-0.0814-0.65625-0.0625-0.19508,0.009-0.47093,0.0362-0.875,0.21875-0.40407,0.18256-0.93516,0.64495-1.1875,1.2188-0.50468,1.1476-0.0711,1.7628,0.0625,2.0312,0.13364,0.26843,0.21002,0.37627,0.28125,0.46875,0.28493,0.36992,0.43648,0.50405,0.78125,0.875,1.5956,1.7168,5.8227,5.7085,9.5938,8.6562,2.0099,1.5711,4.7927,3.264,7.25,4.8125,1.086,0.68437,2.0484,1.3044,2.875,1.875-0.37095,0.0738-0.5927,0.12055-0.96875,0.21875-0.20242,0.0529-1.4035,0.0878-2.5625,0.0312-0.5795-0.0283-1.1703-0.0629-1.75-0.0625-0.57971,0.00042-1.0768-0.0414-1.9688,0.3125-0.17136,0.068-0.4339,0.13863-0.84375,0.34375s-1.2795,0.66118-1.5625,1.875,0.29213,2.1029,0.6875,2.5938c0.39537,0.49084,0.80068,0.85475,1.375,1.3125,2.504,1.9957,9.1474,5.9694,12.125,7.75,3.0613,1.8306,4.149,2.1486,5.9688,3.0938,1.694,0.87982,3.6303,1.8351,4.9688,2.5625-0.40427,0.061-0.49345,0.10537-0.90625,0.15625-1.6191,0.19955-3.2038,0.38315-4.1562,0.53125-0.61608,0.0958-0.51145,0.0453-0.65625,0.0312-0.0362-0.004,0.0197-0.11386-0.75,0.0312-0.19241,0.0363-0.4433,0.10429-0.78125,0.3125-0.16897,0.1041-0.53062,0.4368-0.53125,0.4375s-0.3746,0.59289-0.375,0.59375-0.15629,0.41685-0.1875,0.59375c-0.009,0.0503,0.005,0.0789,0,0.125-0.16304,0.35849-0.31632,0.83234-0.25,1.4375,0.11601,1.0586,0.76164,1.7169,1.3125,2.1562,0.55086,0.43932,1.1577,0.77855,2.0312,1.1875,3.4447,1.6127,12.978,5.2218,17.219,6.6875,3.8564,1.3328,6.024,1.5431,6.8125,1.6875-0.38017,0.19638-0.83182,0.3998-1.3438,0.625-1.1686,0.51408-2.2084,0.77054-3.4062,1.6875-0.0569,0.0436-0.17015,0.14096-0.375,0.25s-0.43331,0.0295-1.125,0.8125c-0.34585,0.39149-0.80189,1.4706-0.53125,2.375,0.27064,0.90445,0.76729,1.2033,1.0625,1.4062,0.59042,0.40594,0.94944,0.51333,1.5312,0.71875,2.336,0.82475,7.821,2.344,12.969,3.0312,2.7026,0.36082,6.1876,0.42826,9.4062,0.5,3.2186,0.0717,6.334,0.24321,7.2188,0.46875-0.0679,0.18822-0.0395,0.0508-0.1875,0.375,0.28587-0.62623-0.45748,0.37147-1.4062,1-0.94877,0.62853-1.9119,1.0467-2.9062,2.0938-0.41576,0.43777-0.84733,0.64597-1.3438,1.75-0.24821,0.55201-0.39262,1.7938,0.1875,2.6562,0.58012,0.86241,1.2576,1.0725,1.75,1.2188,0.56389,0.16752,1.3844,0.35689,2.4375,0.375,1.0532,0.0181,2.4118-0.0729,4.7188-0.28125,4.4266-0.39972,13.55-0.83976,21.281-2.5,7.3945-1.588,16.791-3.3366,24.281-7.375,7.4414-4.0121,14.595-10.836,19.031-16.062,4.5504-5.3602,7.6032-11.432,7.8438-16.094,0.057-1.1055-0.0499-2.1579-0.53125-3.125-0.48136-0.96708-1.2504-1.6182-1.9062-2.0625-1.3117-0.88865-2.5615-1.4318-4.5312-3.25-4.3513-4.0166-13.241-12.215-20.031-17.625-6.7502-5.3783-13.125-9.688-20.219-14.438-7.1302-4.7737-14.804-9.5912-22.562-14.219-7.789-4.6458-17.212-9.8121-23.969-13.562,11.892,5.05,29.721,12.815,37.844,16.531,9.8676,4.5141,5.221,2.158,13.094,6.9062,7.7914,4.6992,25.233,15.464,33.438,21.188,3.9463,2.7531,6.83,5.7984,9.375,8.4062,2.545,2.6079,4.774,4.9966,8.0625,5.6562a2.3589,2.3589,0,0,0,0.6875,0.0312c0.0214,0.002,0.0412-0.002,0.0625,0,2.9879,0.25839,5.5099-1.3907,7.3125-3.2188,1.9571-1.9848,3.5397-4.2868,4.875-5.6875,3.1032-3.2554,6.5714-6.8754,8.375-12.219,1.6355-4.8452,3.267-10.563,1.9062-18.469-1.3403-7.7868-5.0908-19.185-9.7188-27.906-4.7037-8.8636-14.165-20.498-17.812-23.969-0.51226-0.48745-0.97424-0.89872-1.7812-1.1875-0.80701-0.28878-2.4037-0.0281-3.0938,0.78125-0.69009,0.80934-0.72911,1.4498-0.78125,1.9688-0.0521,0.51892-0.0301,0.97132,0,1.4375,0.0601,0.93237,0.17815,1.8647,0.25,2.5938,0.028,0.28397,0.0567,0.48291,0.0625,0.65625-0.2052,0.37409-0.25269,0.41997-0.78125,0.625-0.0313,0.0121-0.15141,0.00059-0.25-0.0312-0.30724-0.35651-0.74219-0.87132-1.4688-1.6562-1.4326-1.5477-4.8017-5.432-8.125-9.1562-1.6617-1.8621-3.3097-3.6693-4.75-5.1875s-2.5763-2.6719-3.5938-3.4375c-0.49454-0.37215-0.96103-0.69874-1.75-0.875s-2.1991,0.17751-2.8125,0.96875c-0.61338,0.79124-0.63327,1.4216-0.65625,1.9062-0.023,0.4846,0.008,0.90802,0.0625,1.3125,0.10892,0.80897,0.31141,1.5895,0.4375,2.2188,0.12609,0.62929,0.0411,1.3548,0.15625,0.6875-0.12922,0.74903-0.15571,1.3182-0.1875,1.625-0.0318,0.30684-0.0481,0.31737-0.125,0.5-0.11597,0.27561-0.30542,0.67567-0.5,1-0.23185-0.29447-0.3444-0.49577-0.84375-1-1.4959-1.5105-5.5619-5.8724-8.125-8.1562-1.175-1.047-2.4817-2.2198-3.6875-3.1875-0.6029-0.48383-1.1852-0.8876-1.7812-1.25-0.59607-0.3624-1.1112-0.7811-2.25-0.8125-0.68865-0.019-1.5914,0.32904-2.0938,0.84375-0.50238,0.51471-0.67899,1.0372-0.78125,1.4375-0.20452,0.80053-0.15418,1.3756-0.125,1.9375,0.0584,1.1238,0.119,2.3228,0.125,2.2812-0.23726,1.643-0.33951,2.792-0.40625,2.9062-0.20558,0.35188-0.39473,0.59379-0.5625,0.8125-0.11162-0.0774-0.0943-0.0744-0.53125-0.46875-0.68362-0.61706-1.6586-1.5561-3.0312-2.5938-2.4263-1.8342-7.3217-5.7813-10.281-7.6875-1.4444-0.9303-2.8171-1.6804-4-2.2188-1.1829-0.53837-1.8774-0.89725-3.1562-0.96875zm-19.91,6.47c2.1629,0.74854,4.5127,1.6518,6.1562,2.3438,3.1802,1.3388,6.4949,3.5357,8.9688,4.7812,1.0128,0.50993,1.7445,0.9464,2.5,1.3438,0.7555,0.39735,1.7467,0.88036,3,0.71875,1.4869-0.19173,2.4335-1.3877,2.8438-2.2188,0.41028-0.83105,0.55005-1.5495,0.6875-2.1562,0.34156-1.5079,0.27623-2.9781,0.125-4.25,0.0805,0.0508,0.13786,0.0729,0.21875,0.125,2.4263,1.5627,7.436,5.5304,10,7.4688,1.1225,0.84859,1.9232,1.6569,2.7188,2.375,0.7956,0.71813,1.625,1.5181,3.0625,1.8125,1.5944,0.32649,3.033-0.52935,3.7812-1.2812,0.74821-0.7519,1.1668-1.5144,1.4688-2.0312,1.089-1.8639,0.87305-3.4983,1.0312-4.5938,0.0534-0.36989-0.0336-0.52368-0.0312-0.84375,0.88879,0.74931,1.8194,1.5804,2.7812,2.4375,2.1832,1.9453,6.2995,6.2835,7.9375,7.9375,0.72089,0.72793,0.75825,0.8421,0.6875,0.71875-0.0177-0.0308-0.0521-0.0493,0.0312,0.0937,0.0833,0.14301,0.3357,0.46655,0.5625,0.65625,0.45359,0.37939,0.51952,0.33426,0.65625,0.40625,0.32571,0.17146,0.83189,0.43961,1.5312,0.625,0.69936,0.18539,1.7755,0.32929,2.8438-0.28125,1.0492-0.59967,1.3812-1.2454,1.7812-1.875,0.40006-0.62957,0.70315-1.2555,0.9375-1.8125,0.28801-0.68439,0.41787-1.3838,0.46875-1.875,0.0509-0.49117,0.0729-0.79799,0.15625-1.2812,0.0397-0.23026-0.0429-0.25548-0.0312-0.4375,0.0433,0.0454,0.0501,0.0478,0.0937,0.0937,1.3815,1.4563,3.042,3.2497,4.6875,5.0938,3.2911,3.6881,6.5613,7.4957,8.1562,9.2188,0.74378,0.80353,1.195,1.3105,1.4375,1.5938,0.12124,0.14163,0.19427,0.21856,0.21875,0.25,0.0245,0.0314,0.0585,0.18059-0.15625-0.25-0.014-0.028-0.0445-0.0839-0.0625-0.125,0.0778,0.17105,0.14912,0.29356,0.21875,0.375,0.0541,0.0633,0.1216,0.20887,0.1875,0.28125,0.0479,0.0526,0.12002,0.10099,0.21875,0.1875,0.0494,0.0433,0.086,0.0856,0.1875,0.15625,0.0507,0.0353,0.13374,0.0774,0.21875,0.125,0.085,0.0476,0.34337,0.15612,0.34375,0.15625s0.74971,0.15624,0.75,0.15625c0.00003,0,0.0854,0.004,0.125,0,1.023,0.30321,2.1086,0.38728,3.1875-0.0312,0.86922-0.33716,2.5686-1.2408,3.4688-3.0625,0.40138-0.81229,0.34271-1.268,0.34375-1.7188,3.9342,4.4698,10.715,12.996,14.25,19.656,4.3169,8.1348,8.0347,19.439,9.25,26.5,1.1948,6.9419-0.12938,11.479-1.7188,16.188-1.4212,4.2105-4.2404,7.182-7.3438,10.438-1.768,1.8547-3.2969,4.1192-4.8125,5.6562-1.5156,1.5371-2.5653,2.1189-3.7812,1.875-1.2605-0.25285-3.1029-1.7601-5.5938-4.3125s-5.6254-5.9263-10.031-9c-8.5001-5.93-25.871-16.611-33.719-21.344-7.7659-4.6839-3.745-2.6651-13.562-7.1562-9.8919-4.5252-35.937-16.025-45.844-20.031-4.9544-2.0033-7.8304-2.9179-9.8125-3.375-1.9821-0.45706-3.0629-0.44921-3.7188-0.53125-0.58466-0.0731-0.89057-0.34934-2.1562,0.21875-0.31642,0.14202-0.76223,0.40487-1.0938,0.90625-0.33152,0.50138-0.43353,1.1755-0.375,1.6562,0.11706,0.96146,0.48845,1.2718,0.71875,1.5312,0.92119,1.0376,1.7744,1.4616,3.375,2.4375,3.3629,2.0503,10.075,5.3398,16.781,9.0625,6.7826,3.765,16.208,8.9271,23.875,13.5,7.6975,4.5912,15.295,9.3436,22.344,14.062,7.0844,4.743,13.329,8.9785,19.906,14.219,6.5372,5.2086,15.431,13.39,19.781,17.406,2.3811,2.1979,4.345,3.1803,5.0938,3.6875,0.37435,0.25362,0.32744,0.28002,0.3125,0.25-0.0149-0.03,0.0657,0.11445,0.0312,0.78125-0.12522,2.4273-2.7197,8.6018-6.7188,13.312-4.1128,4.8447-11.133,11.435-17.688,14.969-6.5056,3.5076-15.516,5.2678-23,6.875-7.1472,1.5348-16.048,2.0158-20.719,2.4375-0.3459,0.0312-0.35469,0.006-0.65625,0.0312,0.69292-0.45937,1.3684-1.0093,1.9062-2.1875,0.2024-0.44337,0.96031-1.3585,0.875-3.0938-0.0426-0.86764-0.48938-1.9087-1.2188-2.5625-0.72937-0.65377-1.6067-1.0296-2.5938-1.2812-2.1577-0.55003-5.0116-0.52157-8.25-0.59375-3.2384-0.0722-6.7104-0.14433-8.9062-0.4375-2.7787-0.37097-5.5923-1.046-8.0312-1.6875,0.35877-0.16654,0.71649-0.31304,1.0625-0.5,0.60969-0.32944,1.1796-0.61755,1.8125-1.375,0.74864-0.89589,1.2843-2.1592,1.0625-3.5-0.22183-1.3408-1.1593-2.4492-2.2812-3.125-2.5722-1.5494-4.5172-0.9071-8.3125-2.2188-3.1699-1.0955-9.0308-3.4098-13.156-5.0938,1.3898-0.16744,2.7173-0.27332,3.8438-0.65625,0.58037-0.19731,1.1444-0.4735,1.6562-0.96875,0.51187-0.49525,0.88085-1.2927,0.9375-1.9688,0.11329-1.3521-0.41728-1.9813-0.4375-2.0312-0.3153-0.77829-0.98908-1.4077-1.5-1.75-0.51092-0.34231-0.96082-0.57069-1.5938-0.9375-1.5035-0.87133-4.1012-2.1538-6.0312-3.1562-2.105-1.0933-2.8781-1.2388-5.7188-2.9375-2.1612-1.2923-5.7886-3.6246-8.5938-5.4688,0.61804-0.0136,1.1586,0.0852,1.8438-0.0937,0.50252-0.13123,1.9746-0.28133,3.375-0.75,0.70022-0.23434,1.5398-0.47987,2.2812-1.5938,0.3707-0.55694,0.59916-1.4079,0.5-2.125-0.0992-0.71709-0.41545-1.2426-0.75-1.6875-0.71236-0.9474-1.5151-1.5306-2.5312-2.25-1.0161-0.71945-2.2199-1.463-3.4688-2.25-2.4977-1.5739-5.2334-3.2725-6.8438-4.5312-2.0629-1.6125-3.5327-3.12-5.375-4.8438,1.3054,0.0192,2.5914,0.0524,3.625-0.0937,0.51062-0.0722,0.95943-0.16922,1.4688-0.40625,0.50932-0.23703,1.0974-0.72243,1.4062-1.3125,0.25333-0.48406,0.26195-0.78603,0.28125-1,0.004-0.0469,0.06-0.19133,0.0625-0.21875,0.0417,0.0174,0.22089-0.0653,0.34375-0.9375,0.15081-1.0705-0.33455-2.1281-0.9375-2.9062-1.1401-1.4715-2.2283-2.1168-5.0625-4.9062-1.4839-1.4605-4.1513-3.9983-6.6875-6.4688-1.2783-1.2452-1.8724-1.8872-2.9062-2.9375,1.2047,0.14957,2.5072,0.26989,3.9688-0.15625,0.74715-0.21785,2.2339-0.4591,3.6875-1.2188,0.72682-0.37982,1.5595-0.93937,2.0938-2.0312,0.53426-1.0919,0.3779-2.5585-0.1875-3.5938-0.63449-1.1617-1.4796-1.9148-2.5-2.8125-1.0204-0.89766-2.2118-1.8215-3.4375-2.7812-2.4513-1.9194-5.0646-3.9895-6.125-5.2188-1.3216-1.532-2.7268-3.3626-3.5938-4.8125-0.0485-0.0811-0.0488-0.10871-0.0937-0.1875,0.5531,0.10404,1.0133,0.17116,1.6562,0.3125,1.1643,0.25596,2.3808,0.52274,3.5312,0.6875,1.1505,0.16476,2.1466,0.57121,3.7812-0.40625,1.0441-0.62434,1.6639-1.8394,1.7812-2.8125,0.11738-0.97311-0.0488-1.7958-0.25-2.5625-0.40249-1.5334-1.0671-2.9871-1.4375-4.125-0.99926-3.0701-3.0298-6.5569-4.2812-9.2188-0.9565-2.0344-2.562-3.649-3.5-4.9375-0.009-0.0127,0.009-0.0186,0-0.0312,0.38583-0.0542,0.32903-0.0573,0.875-0.0625,1.3472-0.0129,3.0819,0.0902,4.9062,0.21875,3.6487,0.25704,7.5286,0.65342,10.219,0.5,2.2359-0.12751,4.3634-0.17205,6.1875-0.4375,0.91206-0.13272,1.7535-0.32056,2.5938-0.6875,0.84028-0.36694,1.8313-1.0504,2.25-2.2812,0.40691-1.1963-0.0247-2.1063-0.34375-2.6562-0.31902-0.54997-0.65051-0.9442-1.0312-1.3438-0.76149-0.7991-1.668-1.5539-2.5-2.2812-0.10994-0.0961-0.14304-0.15508-0.25-0.25,0.54862-0.0357,0.98438-0.0879,1.625-0.0937,2.5134-0.0229,5.5276,0.1623,7.75,0.4375,2.0217,0.25035,4.7982,1.0535,7.4062,1.875,2.6081,0.82149,4.9909,1.6589,6.8438,2.0312,1.4957,0.30061,2.1714,0.55524,3.3438,0.5,0.58615-0.0276,1.4164-0.28775,1.9375-0.71875,0.52108-0.431,0.72705-0.81402,0.90625-1.0938,0.52016-0.812,0.60666-1.4539,0.6875-2.0938,0.0808-0.63984,0.0801-1.2636,0.0625-1.9062-0.0352-1.2853-0.16334-2.4623-0.46875-3.5-0.0686-0.23316-0.21062-0.38904-0.3125-0.59375,1.801,0.37891,3.7074,0.84041,5.1562,1.25,3.2869,0.9292,7.8507,3.0045,10.375,3.875,1.0949,0.37756,1.5845,0.57359,2.1875,0.71875,0.60304,0.14516,1.4935,0.0575,1.7812,0,0.78776-0.15745,1.7678-0.82061,2.1875-1.5312,0.41968-0.71064,0.50582-1.2428,0.59375-1.7188,0.25488-1.3794,0.27939-2.914-0.0312-4.4688-0.18658-0.93372-0.61828-1.6443-1.0625-2.25z"/><path id="path3104" d="m456.25,281.08c-4.5495,0.9126-7.6692-4.9603-10.773-8.2161-3.1035-3.2558-6.236-6.5413-7.8486-11.319-1.6126-4.7774-3.1049-9.9209-1.8269-17.346,1.2779-7.4246,5.0215-18.774,9.4944-27.202,4.4729-8.4287,14.209-20.387,17.343-23.37,3.1342-2.9824,0.85312,4.2432,1.4621,5.4756,0.60897,1.2324,1.4464,1.6296,2.1918,1.9188,0.74548,0.28918,1.5662,0.19687,2.2811-0.18375,0.71484-0.38061-1.0198,1.1712,2.008-2.0999,3.0279-3.2711,13.329-15.397,16.159-17.527,2.8301-2.1297,0.60898,3.5161,0.8216,4.7485,0.21261,1.2324,0.0892,1.7788,0.4541,2.6459,0.36487,0.86711,1.0959,2.1914,1.7351,2.5567,0.63919,0.36531,1.5216-0.0604,2.1-0.36487,0.57834-0.30449-0.19687,0.12031,1.3702-1.4621s5.6589-5.9175,8.0323-8.0323,5.0972-4.626,6.208-4.6566,0.25901,3.1036,0.45673,4.4729c0.19775,1.3693,0.15182,2.754,0.72974,3.7432,0.57794,0.98915,1.4752,2.4504,2.7378,2.1918,1.2626-0.25856,2.3423-1.8567,4.8377-3.7432,2.4954-1.8864,7.4417-5.8409,10.135-7.5756,2.6932-1.7346,5.2026-2.7864,6.0242-2.8323,0.82159-0.0459-0.74463,1.872-1.0946,2.5567-0.34997,0.68468-0.83783,0.5775-1.0054,1.5514-0.16754,0.97385-0.25854,3.1504,0,4.2918,0.25855,1.1414,0.60809,2.4351,1.5513,2.5567,0.94324,0.12163,1.9018-0.71617,4.108-1.827s5.6607-3.3774,9.1295-4.8378c3.4689-1.4603,9.7363-3.7265,11.684-3.9243,1.9473-0.19774,0.38019,1.9775,0,2.7378-0.38018,0.76036-1.7184,1.2005-2.2811,1.8243-0.56262,0.62385-0.91217,1.0058-1.0946,1.9188-0.18243,0.91304-0.15179,2.7378,0,3.5594,0.1518,0.82161,0.30231,1.2486,0.91089,1.3702,0.60852,0.12161,0.53412,0.1203,2.7404-0.64049,2.2062-0.76079,6.8913-2.9049,10.497-3.9243,3.6058-1.0194,9.4638-2.2071,11.138-2.1918,1.6738,0.0153-0.53155,1.5382-1.0946,2.2837-0.56305,0.74547-1.9031,0.89597-2.2837,2.1892-0.38062,1.2932-0.62384,4.5962,0,5.5701,0.62384,0.97386,0.71527,0.88154,3.7432,0.27299,3.0278-0.60854,9.7534-3.3459,14.424-3.9243,4.6707-0.57837,12.307-0.83911,13.6,0.45412,1.2932,1.2932-6.358,5.7836-5.8405,7.3052,0.51758,1.5216,4.4121,1.5658,8.9458,1.8243,4.5337,0.25856,15.838-1.5509,18.256-0.27299,2.4189,1.2779-2.4197,5.1256-3.7432,7.9404-1.3234,2.8148-3.3455,6.3313-4.1973,8.9484-0.85181,2.6171-2.5414,5.7806-0.91345,6.754,1.6279,0.9734,9.707-2.2373,10.681-0.91348,0.97381,1.3238-2.0685,5.6462-4.8378,8.8565s-10.515,8.0927-11.778,10.405c-1.263,2.3126,2.3738,2.9378,4.1999,3.4702,1.8261,0.53243,5.4327-0.44273,6.7566-0.27562,1.3239,0.16712,3.0883-1.0194,1.1865,1.2784-1.9017,2.2977-9.6908,9.6475-12.597,12.508-2.9062,2.8603-4.0035,3.5738-4.8404,4.654-0.83692,1.0802-0.36402,1.3247-0.1811,1.8269,0.18287,0.50226-0.22796,0.97342,1.2783,1.1865,1.5063,0.21304,6.3143-0.0297,7.7593,0.0919,1.4451,0.12164,2.3108-0.86841,0.91089,0.63788-1.4,1.5062-5.69,5.5697-9.3107,8.3998s-11.029,6.74-12.413,8.5809c-1.3842,1.841,2.4193,2.0238,4.108,2.4648,1.6887,0.44101,5.0662-0.19906,6.0242,0.18112,0.95812,0.38019,1.7482,0.48694-0.27558,2.1-2.0239,1.613-8.9161,5.8134-11.867,7.5782-2.9513,1.7648-3.8779,1.9915-5.8404,3.0108-1.9626,1.0194-4.5958,2.3292-5.935,3.1053s-1.872,0.98871-2.0999,1.5513c-0.22796,0.5626-0.74377,1.3225,0.73236,1.8243,1.4761,0.50181,6.5571,0.94281,8.1242,1.1865,1.5671,0.24368,1.3545-0.1352,1.2783,0.2756-0.0761,0.4108,1.3842,0.72885-1.735,2.1892-3.1193,1.4603-12.843,5.1427-16.981,6.5728-4.1382,1.4301-6.4337,1.1558-7.8486,2.0081-1.4148,0.85224-1.4922,2.0859-0.64044,3.1053,0.85174,1.0194,4.7773,2.2653,5.7512,3.0108,0.97381,0.74549,2.1612,0.73148,0.0919,1.4621-2.0693,0.73059-7.6088,2.2675-12.508,2.9215-4.899,0.65405-13.843,0.22705-16.886,1.0027-3.0427,0.77567-1.9328,2.4189-1.3702,3.6513,0.56262,1.2324,3.8788,2.8301,4.7458,3.7432,0.86713,0.91303,1.4302,1.4459,0.45679,1.7351-0.97345,0.28919-1.7482,0.4108-6.2972,0s-13.557-0.86713-20.997-2.4648-16.644-3.3481-23.643-7.1215c-6.9985-3.7734-14.073-10.483-18.348-15.519-4.2752-5.0359-7.1197-11.152-7.3026-14.697-0.18286-3.545,1.8541-2.5562,6.2054-6.5728,4.3512-4.0166,13.238-12.217,19.902-17.527,6.6643-5.3098,12.993-9.5854,20.083-14.332,7.09-4.7468,14.728-9.5386,22.456-14.148,7.7286-4.6098,17.146-9.7525,23.916-13.511,6.7702-3.758,13.586-7.1359,16.705-9.0376,3.1193-1.9018,3.8363-2.6013,2.0107-2.373-1.8256,0.22837-3.1814-0.21262-12.965,3.7432-9.7831,3.9558-35.891,15.488-45.734,19.992-9.8435,4.5031-5.5066,2.3104-13.327,7.027-7.8201,4.7166-25.241,15.445-33.594,21.272-8.353,5.8274-11.975,12.779-16.524,13.692z" stroke="#000" stroke-dasharray="none" stroke-miterlimit="4" stroke-width="4.71728772" fill="none"/><path id="path3106" style="baseline-shift:baseline;block-progression:tb;color:#000000;direction:ltr;text-indent:0;text-align:start;enable-background:accumulate;text-transform:none;" fill="#f4f4f4" d="m532.25,170.53c-1.2789,0.0715-1.9733,0.46158-3.1562,1-1.183,0.53842-2.5555,1.2884-4,2.2188-2.9598,1.9064-7.8547,5.8531-10.281,7.6875-1.3728,1.0378-2.3476,1.9766-3.0312,2.5938-0.41553,0.37507-0.4079,0.35307-0.53125,0.4375-0.16781-0.21876-0.35687-0.46056-0.5625-0.8125-0.0668-0.11436-0.20022-1.2319-0.4375-2.875,0.006,0.0414,0.0979-1.1886,0.15625-2.3125,0.0292-0.56194,0.0483-1.1057-0.15625-1.9062-0.10227-0.40029-0.27886-0.92279-0.78125-1.4375s-1.3738-0.86272-2.0625-0.84375c-1.1388,0.0314-1.6852,0.41882-2.2812,0.78125-0.5961,0.36243-1.1783,0.79737-1.7812,1.2812-1.2059,0.96775-2.4812,2.1404-3.6562,3.1875-2.5634,2.2841-6.629,6.6456-8.125,8.1562-0.4994,0.50428-0.61189,0.70551-0.84375,1-0.19488-0.32463-0.41507-0.72391-0.53125-1-0.0769-0.18266-0.062-0.19312-0.0937-0.5-0.0318-0.30688-0.0895-0.8759-0.21875-1.625,0.11511,0.66722,0.0614-0.0582,0.1875-0.6875,0.1261-0.62935,0.29732-1.441,0.40625-2.25,0.0545-0.40452,0.11673-0.79662,0.0937-1.2812-0.023-0.48463-0.0429-1.115-0.65625-1.9062-0.61339-0.79125-2.0548-1.1763-2.8438-1-0.78899,0.17627-1.2554,0.50282-1.75,0.875-1.0175,0.76567-2.1221,1.9191-3.5625,3.4375s-3.1194,3.3564-4.7812,5.2188c-3.3237,3.7246-6.6922,7.6084-8.125,9.1562-0.74056,0.80005-1.1617,1.2992-1.4688,1.6562-0.0914,0.0273-0.18862,0.0429-0.21875,0.0312-0.53069-0.20585-0.60543-0.24607-0.8125-0.625,0.006-0.17337,0.0345-0.37225,0.0625-0.65625,0.0718-0.72915,0.22113-1.6613,0.28125-2.5938,0.0301-0.46622,0.0209-0.91855-0.0312-1.4375s-0.0599-1.1594-0.75-1.9688c-0.69011-0.80935-2.318-1.1013-3.125-0.8125-0.80704,0.28879-1.2377,0.70002-1.75,1.1875-3.6481,3.4714-13.108,15.104-17.812,23.969-4.6284,8.7217-8.4096,20.15-9.75,27.938-1.3609,7.9066,0.30187,13.654,1.9375,18.5,1.8038,5.3439,5.2716,8.9318,8.375,12.188,1.3354,1.4009,2.9177,3.7025,4.875,5.6875,1.7666,1.7916,4.2158,3.3942,7.125,3.2188a2.3589,2.3589,0,0,0,0.0312,0,2.3589,2.3589,0,0,0,0.90625,-0.0312c3.2887-0.65972,5.5173-3.0481,8.0625-5.6562s5.397-5.6529,9.3438-8.4062c8.205-5.7241,25.677-16.488,33.469-21.188,7.8735-4.7488,3.2252-2.3917,13.094-6.9062,8.1233-3.7162,25.951-11.481,37.844-16.531-6.757,3.7507-16.179,8.9162-23.969,13.562-7.7592,4.628-15.432,9.4446-22.562,14.219-7.0948,4.75-13.499,9.0587-20.25,14.438-6.7907,5.4105-15.68,13.639-20.031,17.656-1.97,1.8184-3.2195,2.33-4.5312,3.2188-0.65589,0.44436-1.4249,1.0954-1.9062,2.0625-0.48139,0.96712-0.58828,2.0194-0.53125,3.125,0.24051,4.6623,3.3242,10.733,7.875,16.094,4.4371,5.2267,11.589,12.081,19.031,16.094,7.4907,4.0387,16.855,5.7556,24.25,7.3438,7.7319,1.6604,16.854,2.1002,21.281,2.5,2.3072,0.20835,3.6968,0.29936,4.75,0.28125,1.0532-0.0181,1.8735-0.20746,2.4375-0.375,0.49241-0.14629,1.1699-0.32505,1.75-1.1875,0.58008-0.86245,0.43572-2.1042,0.1875-2.6562-0.49645-1.104-0.92795-1.3434-1.3438-1.7812-0.9944-1.0472-1.9574-1.4652-2.9062-2.0938-0.94887-0.6286-1.6921-1.6261-1.4062-1-0.148-0.32418-0.11955-0.18675-0.1875-0.375,0.88494-0.22559,3.9998-0.397,7.2188-0.46875,3.2189-0.0718,6.6721-0.1079,9.375-0.46875,5.1482-0.68732,10.664-2.2377,13-3.0625,0.58187-0.20544,0.94081-0.28153,1.5312-0.6875,0.29522-0.20298,0.79189-0.53304,1.0625-1.4375s-0.18541-1.9835-0.53125-2.375c-0.69169-0.78296-0.92014-0.70345-1.125-0.8125s-0.34933-0.17518-0.40625-0.21875c-1.1979-0.91698-2.2062-1.2046-3.375-1.7188-0.5132-0.22575-0.99441-0.42827-1.375-0.625,0.76636-0.14385,2.9551-0.34359,6.8438-1.6875,4.2415-1.4658,13.774-5.0747,17.219-6.6875,0.8736-0.40899,1.4804-0.74815,2.0312-1.1875,0.55088-0.43935,1.1965-1.0976,1.3125-2.1562,0.0666-0.60802-0.0861-1.0788-0.25-1.4375-0.005-0.0461,0.009-0.0747,0-0.125-0.0312-0.17695-0.1871-0.59289-0.1875-0.59375s-0.37437-0.59305-0.375-0.59375-0.36223-0.3334-0.53125-0.4375c-0.33804-0.20821-0.6201-0.27626-0.8125-0.3125-0.76959-0.14498-0.68258-0.003-0.71875,0-0.14467,0.014-0.0401,0.0333-0.65625-0.0625-0.95253-0.14812-2.5682-0.33168-4.1875-0.53125-0.38624-0.0476-0.46331-0.0681-0.84375-0.125,1.3401-0.7275,3.251-1.7178,4.9375-2.5938,1.82-0.94529,2.9072-1.263,5.9688-3.0938,2.9778-1.7807,9.6208-5.7541,12.125-7.75,0.57436-0.45778,0.97961-0.82163,1.375-1.3125s0.97053-1.3487,0.6875-2.5625-1.1526-1.7011-1.5625-1.9062c-0.40987-0.20512-0.67235-0.27574-0.84375-0.34375-0.89202-0.35397-1.389-0.31208-1.9688-0.3125-0.57977-0.00042-1.1704,0.0342-1.75,0.0625-1.1591,0.0566-2.36,0.0216-2.5625-0.0312-0.37608-0.0982-0.59777-0.14495-0.96875-0.21875,0.82667-0.57067,1.7888-1.1906,2.875-1.875,2.4575-1.5486,5.2399-3.2413,7.25-4.8125,3.7715-2.948,7.998-6.9394,9.5938-8.6562,0.34481-0.37099,0.49631-0.50505,0.78125-0.875,0.0712-0.0925,0.14761-0.20031,0.28125-0.46875s0.56714-0.88371,0.0625-2.0312c-0.25232-0.57377-0.78344-1.0362-1.1875-1.2188-0.40406-0.18257-0.67991-0.20929-0.875-0.21875-0.39018-0.0189-0.54279,0.04-0.65625,0.0625-0.45382,0.09-0.44434,0.10151-0.5625,0.125-0.11816,0.0235-0.23734,0.0376-0.3125,0.0312-1.071-0.0901-2.5031-0.0187-4.0625,0-1.0258,0.0123-1.6392-0.0107-2.3438-0.0312,0.63609-0.65115,1.3901-1.2419,3.875-3.6875,1.4222-1.3997,4.0962-3.9751,6.6562-6.4688s4.922-4.8031,6.0938-6.2188c0.5261-0.63562,0.85378-0.93249,1.1875-1.8125,0.16686-0.44001,0.41764-1.4833-0.3125-2.4688-0.73014-0.98547-1.611-1.0191-2-1.0312-0.77799-0.0242-0.99822,0.11571-1.25,0.15625-0.25178,0.0405-0.42143,0.0214-0.34375,0.0312-1.4915-0.18828-2.5178,0.13254-3.75,0.28125s-2.484,0.10361-2.625,0.0625c-0.8314-0.24241-1.5741-0.46807-2.1875-0.6875,0.2583-0.28846,0.36543-0.42675,0.875-0.875,0.87355-0.76844,2.004-1.7051,3.2188-2.6562,2.4294-1.9023,5.0725-3.8628,6.7812-5.8438,1.4476-1.6781,2.9595-3.6241,4.0625-5.4688,0.55148-0.92232,1.0262-1.791,1.3125-2.75,0.28632-0.95899,0.54758-2.2658-0.40625-3.5625-0.71778-0.97572-1.6511-1.169-2.2812-1.25-0.63012-0.081-1.1564-0.0609-1.7188,0-1.1248,0.12183-2.3194,0.39671-3.5,0.65625s-2.3662,0.50291-3.2188,0.625c-0.0142,0.002-0.0172-0.002-0.0312,0,0.25946-0.94587,0.8428-2.3069,1.3125-3.75,0.70426-2.1637,2.6986-5.72,4.0938-8.6875,0.36685-0.78026,1.8239-2.4978,3.0312-4.1562,0.60367-0.82921,1.2164-1.6396,1.5-2.875,0.14179-0.61771,0.17432-1.4214-0.15625-2.2188-0.33057-0.79734-0.99418-1.4315-1.6562-1.7812-1.4789-0.7813-2.7184-0.70346-4.3125-0.71875-1.5941-0.0153-3.442,0.087-5.3125,0.21875-3.741,0.26354-7.7504,0.60513-9.5938,0.5-2.1731-0.12393-4.0872-0.19576-5.4688-0.375,0.38998-0.35234,0.67841-0.64081,1.125-1.0312,0.85442-0.747,1.7479-1.5185,2.4688-2.375,0.36042-0.42825,0.71484-0.84343,0.96875-1.5938,0.25391-0.75032,0.1266-2.2484-0.6875-3.0625-1.172-1.172-2.16-1.1676-3.3125-1.3438-1.1525-0.17616-2.4774-0.26852-3.875-0.28125-2.7953-0.0255-5.927,0.19686-8.375,0.5-2.6487,0.32798-5.571,1.1874-8.25,2.0312-2.679,0.84383-5.1689,1.7014-6.3438,1.9375-0.87377,0.17561-0.88263,0.15782-1.25,0.21875-0.0149-0.25155-0.0397-0.47427-0.0312-0.78125,0.0256-0.93289,0.20609-2.0571,0.28125-2.3125-0.0144,0.0488-0.18798,0.1819,0.0937,0,0.28173-0.1819,1.0346-0.40759,1.8125-1.4375-0.14553,0.19269,0.62098-0.51961,1.2812-1.2812,0.16507-0.19041,0.34585-0.41698,0.53125-0.75s0.45525-0.8384,0.34375-1.7188c-0.1115-0.88035-0.93128-1.7606-1.5312-2.0312-0.59997-0.27064-1.0158-0.27768-1.4062-0.28125-1.4199-0.013-3.1313,0.31626-5.3125,0.75s-4.6061,0.99586-6.5,1.5312c-3.9243,1.1094-8.7058,3.3177-10.594,3.9688-0.36847,0.12706-0.34188,0.10235-0.59375,0.1875-0.0143-0.73145-0.0363-1.5994,0-1.7812,0.0938-0.46932-0.0361-0.18338,0.53125-0.8125-0.15684,0.17392,0.19999-0.11294,0.71875-0.4375s1.3338-0.69874,1.9375-1.9062c0.0127-0.0255,0.62563-0.8888,1-2.0625,0.18718-0.58685,0.52247-1.5809-0.25-2.7812-0.38624-0.60019-1.0628-1.022-1.625-1.1875-0.56224-0.16555-1.025-0.13882-1.4688-0.0937-1.6216,0.16468-3.514,0.80111-5.8125,1.5938-2.2985,0.79264-4.762,1.742-6.5625,2.5-3.7571,1.5817-7.3428,3.9303-9.2812,4.9062-1.0213,0.51422-1.6642,0.8974-2.1875,1.1875-0.0388-0.14353-0.0568-0.18061-0.0937-0.34375-0.087-0.38406-0.0545-2.6605,0.0312-3.2812,0.19463-0.17697,0.4787-0.37684,0.78125-0.96875-0.0678,0.13258,0.47583-0.68244,0.90625-1.4062,0.21521-0.36191,0.46208-0.65318,0.625-1.4688,0.0815-0.40778,0.18154-1.192-0.4375-2.0625-0.61904-0.87055-1.7114-1.0926-2.25-1.0625zm19.875,6.5312c-0.43775,0.60225-0.87869,1.2989-1.0625,2.2188-0.31068,1.5549-0.25484,3.0894,0,4.4688,0.0879,0.47597,0.14279,1.0081,0.5625,1.7188,0.41971,0.71068,1.431,1.3738,2.2188,1.5312,0.28774,0.0575,1.1782,0.11392,1.7812-0.0312,0.60304-0.14517,1.0925-0.3099,2.1875-0.6875,2.5245-0.87055,7.0877-2.9769,10.375-3.9062,1.4487-0.40955,3.3554-0.83985,5.1562-1.2188-0.0984,0.19994-0.24573,0.33563-0.3125,0.5625-0.30546,1.0378-0.43352,2.2458-0.46875,3.5312-0.0176,0.6427-0.0184,1.2664,0.0625,1.9062,0.0809,0.63989,0.16733,1.2817,0.6875,2.0938,0.17921,0.27975,0.38515,0.63148,0.90625,1.0625s1.3513,0.72238,1.9375,0.75c1.1724,0.0552,1.8479-0.19936,3.3438-0.5,1.853-0.37241,4.2354-1.2409,6.8438-2.0625,2.6084-0.82158,5.3843-1.5934,7.4062-1.8438,2.2227-0.27523,5.2364-0.49164,7.75-0.46875,0.65335,0.006,1.0992,0.088,1.6562,0.125-0.11356,0.10087-0.16425,0.14771-0.28125,0.25-0.83205,0.72745-1.7384,1.4821-2.5,2.2812-0.38078,0.39958-0.71221,0.79376-1.0312,1.3438-0.31904,0.54999-0.75064,1.4599-0.34375,2.6562,0.41869,1.2309,1.4097,1.9143,2.25,2.2812,0.84033,0.36696,1.6816,0.52352,2.5938,0.65625,1.8243,0.26546,3.9514,0.34122,6.1875,0.46875,2.6904,0.15343,6.5697-0.27418,10.219-0.53125,1.8245-0.12853,3.5589-0.20043,4.9062-0.1875,0.54603,0.005,0.48912,0.008,0.875,0.0625-0.009,0.0125,0.009,0.0187,0,0.0312-0.93811,1.2886-2.5434,2.903-3.5,4.9375-1.2516,2.6621-3.2819,6.1484-4.2812,9.2188-0.37042,1.1381-1.035,2.5914-1.4375,4.125-0.20126,0.76678-0.36739,1.5581-0.25,2.5312,0.11739,0.97316,0.73707,2.2194,1.7812,2.8438,1.6347,0.97748,2.6306,0.57103,3.7812,0.40625s2.3668-0.46276,3.5312-0.71875c0.643-0.14136,1.1031-0.20844,1.6562-0.3125-0.0497,0.0877-0.0395,0.12805-0.0937,0.21875-0.86705,1.4501-2.2721,3.2491-3.5938,4.7812-1.0605,1.2294-3.6734,3.3304-6.125,5.25-1.2258,0.95981-2.417,1.8835-3.4375,2.7812-1.0206,0.89774-1.8655,1.6507-2.5,2.8125-0.56542,1.0353-0.72178,2.5018-0.1875,3.5938,0.53428,1.0919,1.3669,1.6202,2.0938,2,1.4537,0.7597,2.9403,1.0321,3.6875,1.25,1.4616,0.42617,2.7639,0.30583,3.9688,0.15625-1.034,1.0504-1.6278,1.6922-2.9062,2.9375-2.5365,2.4707-5.2034,5.0081-6.6875,6.4688-2.8345,2.7897-3.9223,3.4346-5.0625,4.9062-0.60297,0.77823-1.0883,1.8356-0.9375,2.9062,0.15081,1.0706,0.49634,1.4036,0.40625,1.1562,0.0193,0.21397,0.0279,0.51592,0.28125,1,0.30882,0.5901,0.89691,1.0755,1.4062,1.3125,0.50934,0.23703,0.95809,0.33402,1.4688,0.40625,1.0337,0.1462,2.3195,0.11291,3.625,0.0937-1.8425,1.724-3.3119,3.2311-5.375,4.8438-1.6106,1.2589-4.3459,2.9572-6.8438,4.5312-1.249,0.78703-2.4526,1.5617-3.4688,2.2812-1.0162,0.71952-1.8189,1.2713-2.5312,2.2188-0.33457,0.44497-0.65084,1.0016-0.75,1.7188-0.0992,0.7171,0.12929,1.5368,0.5,2.0938,0.74142,1.1139,1.581,1.3594,2.2812,1.5938,1.4005,0.4687,2.8724,0.61876,3.375,0.75,0.69057,0.18034,1.2213,0.0809,1.8438,0.0937-2.8055,1.8443-6.4324,4.1763-8.5938,5.4688-2.841,1.6989-3.6136,1.8441-5.7188,2.9375-1.9302,1.0025-4.5276,2.2848-6.0312,3.1562-0.63301,0.36685-1.0828,0.59516-1.5938,0.9375-0.51096,0.34234-1.1847,1.0029-1.5,1.7812-0.0203,0.05-0.55081,0.64784-0.4375,2,0.0566,0.67608,0.42559,1.4735,0.9375,1.9688,0.51191,0.49526,1.0758,0.77144,1.6562,0.96875,1.1266,0.38298,2.4538,0.48879,3.8438,0.65625-4.126,1.6841-9.986,3.9981-13.156,5.0938-3.7957,1.3118-5.7401,0.66931-8.3125,2.2188-1.122,0.67587-2.0594,1.7842-2.2812,3.125-0.22184,1.3408,0.31382,2.6041,1.0625,3.5,0.63295,0.75751,1.2028,1.0455,1.8125,1.375,0.34379,0.18577,0.70605,0.33442,1.0625,0.5-2.4403,0.6421-5.2808,1.3161-8.0625,1.6875-2.1961,0.2932-5.6362,0.36531-8.875,0.4375-3.2388,0.0722-6.1234,0.0749-8.2812,0.625-0.9871,0.25164-1.8331,0.5962-2.5625,1.25s-1.2074,1.6948-1.25,2.5625c-0.0853,1.7354,0.67256,2.6503,0.875,3.0938,0.53635,1.1748,1.2153,1.7286,1.9062,2.1875-0.29106-0.0241-0.29306-0.001-0.625-0.0312-4.671-0.42181-13.571-0.90252-20.719-2.4375-7.4847-1.6073-16.525-3.367-23.031-6.875-6.5549-3.5342-13.543-10.124-17.656-14.969-3.9994-4.7112-6.6248-10.885-6.75-13.312-0.0344-0.6669,0.0462-0.81122,0.0312-0.78125-0.0149,0.03-0.0306,0.004,0.34375-0.25,0.7488-0.50731,2.7124-1.4894,5.0938-3.6875,4.3508-4.0162,13.212-12.197,19.75-17.406,6.5777-5.2408,12.852-9.4752,19.938-14.219,7.049-4.7194,14.646-9.4708,22.344-14.062,7.6675-4.5734,17.06-9.7347,23.844-13.5,6.7072-3.7231,13.449-7.012,16.812-9.0625,1.6008-0.97599,2.4538-1.3999,3.375-2.4375,0.2303-0.25941,0.60169-0.5698,0.71875-1.5312,0.0585-0.48072-0.0435-1.1549-0.375-1.6562-0.33152-0.50139-0.77732-0.76422-1.0938-0.90625-1.2657-0.56811-1.5716-0.29189-2.1562-0.21875-0.65591,0.0821-1.7364,0.0741-3.7188,0.53125-1.9823,0.45711-4.8576,1.3715-9.8125,3.375-9.9082,4.0063-35.951,15.506-45.844,20.031-9.8184,4.4916-5.7958,2.4719-13.562,7.1562-7.8481,4.7334-25.218,15.413-33.719,21.344-4.4063,3.074-7.5401,6.4473-10.031,9-2.4911,2.5527-4.3643,4.0596-5.625,4.3125-1.2162,0.24396-2.2654-0.33776-3.7812-1.875s-3.0444-3.8014-4.8125-5.6562c-3.1036-3.2559-5.8911-6.2266-7.3125-10.438-1.5895-4.7091-2.945-9.2448-1.75-16.188,1.2154-7.0617,4.9326-18.364,9.25-26.5,3.5272-6.6466,10.308-15.142,14.25-19.625-0.00054,0.44323-0.0195,0.8892,0.375,1.6875,0.90022,1.8218,2.5682,2.7253,3.4375,3.0625,1.0703,0.41519,2.1708,0.2961,3.1875,0,0.0413,0.005,0.12497,0.0312,0.125,0.0312,0.00029-0.00001,0.74962-0.15612,0.75-0.15625s0.29001-0.1087,0.375-0.15625c0.085-0.0476,0.13677-0.0897,0.1875-0.125,0.10146-0.0706,0.16939-0.113,0.21875-0.15625,0.0987-0.0865,0.13963-0.13492,0.1875-0.1875,0.0659-0.0724,0.13336-0.21793,0.1875-0.28125,0.092-0.10759,0.16636-0.20305,0.28125-0.5-0.0436,0.12009-0.0981,0.19617-0.125,0.25-0.2148,0.43068-0.18073,0.28145-0.15625,0.25,0.0245-0.0315,0.0975-0.10836,0.21875-0.25,0.24251-0.28328,0.69365-0.79014,1.4375-1.5938,1.5951-1.7232,4.8961-5.5303,8.1875-9.2188,1.6457-1.8442,3.2746-3.6686,4.6562-5.125,0.0585-0.0616,0.0672-0.0645,0.125-0.125,0.0104,0.19368-0.0743,0.21895-0.0312,0.46875,0.0834,0.48331,0.0741,0.82129,0.125,1.3125s0.18072,1.1906,0.46875,1.875c0.23436,0.55695,0.53742,1.1829,0.9375,1.8125,0.40008,0.62962,0.76321,1.2753,1.8125,1.875,1.0682,0.61053,2.1443,0.46665,2.8438,0.28125,0.69941-0.1854,1.2055-0.45352,1.5312-0.625,0.13674-0.072,0.1714-0.0268,0.625-0.40625,0.2268-0.18971,0.47921-0.51325,0.5625-0.65625,0.0833-0.143,0.0802-0.12459,0.0625-0.0937-0.0707,0.12335-0.0335,0.009,0.6875-0.71875,1.6381-1.6542,5.7228-5.992,7.9062-7.9375,0.96319-0.85826,1.9228-1.6876,2.8125-2.4375,0.003,0.31746-0.0841,0.47742-0.0312,0.84375,0.15822,1.0956-0.0578,2.7298,1.0312,4.5938,0.30198,0.51684,0.7205,1.2793,1.4688,2.0312,0.74825,0.75194,2.1868,1.6078,3.7812,1.2812,1.4375-0.29438,2.2668-1.1256,3.0625-1.8438,0.79567-0.7182,1.5961-1.4951,2.7188-2.3438,2.5643-1.9385,7.5422-5.9058,9.9688-7.4688,0.0891-0.0574,0.16135-0.0692,0.25-0.125-0.15123,1.2719-0.21659,2.7107,0.125,4.2188,0.13745,0.60682,0.27718,1.3564,0.6875,2.1875,0.41032,0.83112,1.3568,1.9958,2.8438,2.1875,1.2534,0.16162,2.2444-0.29011,3-0.6875,0.75557-0.39739,1.4558-0.86502,2.4688-1.375,2.474-1.2456,5.8195-3.411,9-4.75,1.6337-0.68775,3.9727-1.5666,6.125-2.3125zm36.188,123.84c-0.009,0.0681,0.0346,0.0905,0.0312,0.15625-0.0146,0.008-0.0159,0.0229-0.0312,0.0312-0.00009-0.0185-0.0003-0.045,0-0.0625,0.001-0.0605-0.004-0.0757,0-0.125z"/><path id="path3108" d="m356.63,373.25,0,0c0-20.561,28.774-37.228,64.268-37.228s64.268,16.668,64.268,37.228c0,20.561-28.774,37.228-64.268,37.228s-64.268-16.668-64.268-37.228z" stroke="#000" stroke-dasharray="none" stroke-miterlimit="4" stroke-width="4.71728772" fill="none"/><path id="path3110" style="baseline-shift:baseline;block-progression:tb;color:#000000;direction:ltr;text-indent:0;text-align:start;enable-background:accumulate;text-transform:none;" fill="#f4f4f4" d="m420.91,333.66c-18.116,0-34.545,4.2209-46.625,11.219-12.08,6.9978-20,16.994-20,28.375s7.9196,21.377,20,28.375c12.08,6.9978,28.509,11.219,46.625,11.219s34.545-4.2209,46.625-11.219c12.08-6.9978,20-16.994,20-28.375s-7.9196-21.377-20-28.375c-12.08-6.9978-28.509-11.219-46.625-11.219zm0,4.7188c17.378,0,33.07,4.1176,44.25,10.594,11.18,6.4762,17.656,15.101,17.656,24.281s-6.4763,17.805-17.656,24.281c-11.18,6.4762-26.872,10.594-44.25,10.594s-33.101-4.1176-44.281-10.594c-11.18-6.47-17.63-15.1-17.63-24.28,0-9.1801,6.4451-17.805,17.625-24.281,11.18-6.4762,26.903-10.594,44.281-10.594z"/><path id="path3112" d="m446.49,516.32,0,0c-19.108-37.46-9.2091-80.779,22.11-96.756,15.04-7.6725,33.109-7.8847,50.233-0.58997,17.123,7.2947,31.898,21.499,41.074,39.488,19.108,37.46,9.2091,80.779-22.11,96.756s-72.199-1.438-91.307-38.898z" stroke="#000" stroke-dasharray="none" stroke-miterlimit="4" stroke-width="4.71728772" fill="none"/><path id="path3114" style="baseline-shift:baseline;block-progression:tb;color:#000000;direction:ltr;text-indent:0;text-align:start;enable-background:accumulate;text-transform:none;" fill="#f4f4f4" d="m492.91,411.31c-8.8829,0.10518-17.522,2.1503-25.375,6.1562-32.677,16.67-42.717,61.497-23.125,99.906s61.791,56.607,94.469,39.938c32.677-16.67,42.717-61.528,23.125-99.938-9.4134-18.454-24.561-33.027-42.25-40.562-8.8445-3.7678-17.961-5.6052-26.844-5.5zm0.0625,4.6875c8.1926-0.0954,16.659,1.5981,24.938,5.125,16.558,7.0538,30.967,20.883,39.906,38.406,18.624,36.51,8.8675,78.309-21.094,93.594-29.961,15.284-69.501-1.3647-88.125-37.875s-8.8675-78.309,21.094-93.594c7.1873-3.6665,15.089-5.5609,23.281-5.6562z"/><path id="path3116" d="m394.09,520.7,0,0c19.108-37.46,9.2091-80.779-22.11-96.756-15.04-7.6725-33.109-7.8847-50.233-0.59-17.123,7.2947-31.898,21.499-41.074,39.488-19.108,37.46-9.2091,80.779,22.11,96.756s72.199-1.4379,91.307-38.898z" stroke="#000" stroke-dasharray="none" stroke-miterlimit="4" stroke-width="4.71728772" fill="none"/><path id="path3118" style="baseline-shift:baseline;block-progression:tb;color:#000000;direction:ltr;text-indent:0;text-align:start;enable-background:accumulate;text-transform:none;" fill="#f4f4f4" d="m347.69,415.69c-8.8829-0.10518-18.03,1.7322-26.875,5.5-17.689,7.5357-32.837,22.14-42.25,40.594-19.592,38.409-9.5212,83.236,23.156,99.906s74.876-1.4971,94.469-39.906c19.592-38.409,9.5524-83.268-23.125-99.938-7.8528-4.006-16.492-6.0511-25.375-6.1562zm-0.0937,4.6875c8.1926,0.0954,16.125,1.9898,23.312,5.6562,29.961,15.284,39.718,57.083,21.094,93.594-18.624,36.51-58.195,53.159-88.156,37.875s-39.686-57.083-21.062-93.594c8.9388-17.524,23.317-31.321,39.875-38.375,8.2789-3.5269,16.745-5.2516,24.938-5.1562z"/><path id="path3120" d="m530.42,350.9c-3.4685-0.66931-5.3845-1.1242-9.3097-1.3675-3.9252-0.24323-9.9816-0.31977-14.241-0.0919-4.2598,0.22791-8.9904,0.83551-11.318,1.4593-2.3272,0.62378-2.6912,0.83813-2.6457,2.2834s0.46936,2.9506,2.9186,6.3885,8.0954,10.116,11.777,14.239c3.6816,4.1229,5.7791,6.1172,10.312,10.499,4.5333,4.3815,11.958,11.318,16.887,15.79,4.9291,4.4724,7.5,6.9068,12.688,11.045,5.1876,4.1378,13.464,10.207,18.438,13.782,4.9746,3.5752,7.7279,5.5546,11.409,7.6693,3.6816,2.1146,8.2153,4.0905,10.68,5.0184,2.4645,0.92783,3.0123,0.91339,4.1076,0.54855,1.0954-0.36483,2.0692-0.31891,2.4646-2.7375,0.39545-2.4186,0.19727-7.6667-0.0919-11.774-0.28918-4.1076-0.4414-7.9576-1.6431-12.871-1.2017-4.9138-3.3613-11.591-5.567-16.612-2.2056-5.0201-4.5936-9.2948-7.6666-13.509-3.073-4.2144-6.8465-8.308-10.772-11.777-3.9252-3.469-8.2918-6.4812-12.78-9.0368-4.4877-2.5556-9.8723-4.8058-14.147-6.2966s-8.0328-1.979-11.501-2.6483z" stroke="#000" stroke-dasharray="none" stroke-miterlimit="4" stroke-width="4.71728772" fill="none"/><path id="path3122" style="baseline-shift:baseline;block-progression:tb;color:#000000;direction:ltr;text-indent:0;text-align:start;enable-background:accumulate;text-transform:none;" fill="#f4f4f4" d="m506.75,347.09c-4.3902,0.23488-9.0832,0.79965-11.812,1.5312-1.1992,0.32142-2.0532,0.41763-3.0938,1.2812-0.52029,0.43181-0.9858,1.1613-1.1562,1.7812-0.17045,0.61998-0.13954,1.1005-0.125,1.5625,0.0584,1.8543,0.7803,4.0894,3.3438,7.6875,2.6056,3.6574,8.2112,10.264,11.938,14.438,3.7263,4.173,5.9085,6.2477,10.438,10.625,4.5642,4.4114,11.983,11.348,16.938,15.844,4.916,4.4605,7.5692,6.9741,12.812,11.156,5.2647,4.1993,13.536,10.254,18.531,13.844,4.9745,3.5751,7.8014,5.6342,11.594,7.8125,3.8565,2.2151,8.426,4.1754,11.031,5.1562,1.29,0.48564,2.167,0.79633,3.125,0.90625,0.95803,0.10992,1.9118-0.0958,2.5625-0.3125,0.32076-0.10683,1.1768-0.17755,2.1875-0.96875s1.5959-2.1091,1.8438-3.625c0.50337-3.0787,0.23125-8.1398-0.0625-12.312-0.286-4.0624-0.42923-8.1359-1.6875-13.281-1.2394-5.0683-3.4314-11.794-5.7188-17-2.2594-5.1427-4.7286-9.5796-7.9062-13.938-3.1862-4.3695-7.072-8.5743-11.125-12.156-4.068-3.5951-8.5477-6.6881-13.156-9.3125-4.6754-2.6624-10.172-4.969-14.562-6.5-4.5294-1.5796-8.4457-2.0691-11.812-2.7188a2.3589,2.3589,0,0,0,-0.25,-0.0312c-3.2723-0.63531-5.4257-1.1303-9.375-1.375-4.0442-0.2506-10.093-0.32949-14.5-0.0937zm0.25,4.7188c4.1126-0.22,10.163-0.17336,13.969,0.0625,3.7913,0.23492,5.4949,0.66738,9,1.3438a2.3589,2.3589,0,0,0,0.25,0.0312c3.4897,0.66402,7.0089,1.1611,10.938,2.5312,4.1594,1.4506,9.4499,3.6763,13.75,6.125,4.3669,2.4868,8.5925,5.4072,12.375,8.75,3.7973,3.3559,7.4776,7.3471,10.438,11.406,2.9684,4.0708,5.2545,8.165,7.4062,13.062,2.1239,4.834,4.2736,11.459,5.4375,16.219,1.145,4.6823,1.3014,8.316,1.5938,12.469,0.28459,4.0425,0.38128,9.4602,0.0937,11.219-0.14759,0.90271-0.24487,0.8058-0.0937,0.6875,0.15112-0.1183-0.007-0.0392-0.78125,0.21875-0.44469,0.14812-0.32545,0.11736-0.53125,0.0937-0.2058-0.0236-0.82543-0.18281-2-0.625-2.3238-0.87484-6.8371-2.8296-10.344-4.8438-3.5707-2.051-6.2128-3.9872-11.188-7.5625-4.9541-3.5605-13.233-9.6112-18.344-13.688-5.1321-4.0934-7.6514-6.4843-12.594-10.969-4.9033-4.449-12.31-11.367-16.812-15.719-4.5375-4.3855-6.5507-6.3022-10.188-10.375-3.6367-4.0728-9.3322-10.813-11.625-14.031-2.1405-3.0045-2.3502-3.8841-2.4062-4.8125,0.17391-0.061,0.11723-0.0324,0.8125-0.21875,1.9251-0.51602,6.7142-1.1541,10.844-1.375z"/><path id="path3124" d="m246.25,398.62c-1.2106,3.3187-1.9635,5.1385-2.8258,8.9757s-1.8978,9.8052-2.348,14.047c-0.45013,4.2423-0.59997,9.0095-0.3529,11.406,0.24708,2.3968,0.40104,2.7901,1.8354,2.9743,1.4343,0.18417,2.9878,0.004,6.7706-1.8693,3.7828-1.8735,11.272-6.39,15.926-9.3716,4.6545-2.9817,6.9562-4.7367,12.001-8.5184s13.07-10.013,18.268-14.172c5.1974-4.1581,8.0085-6.3108,12.916-10.777,4.9079-4.4665,12.212-11.676,16.531-16.022,4.3187-4.3453,6.7096-6.7501,9.381-10.05,2.6715-3.3,5.3411-7.4634,6.6479-9.7498s1.3793-2.8295,1.1927-3.9689c-0.18661-1.1394,0.0131-2.0936-2.3124-2.8674-2.3255-0.77383-7.5388-1.41-11.64-1.7755-4.1017-0.36557-7.9272-0.82547-12.97-0.41779-5.0424,0.40769-11.978,1.4817-17.285,2.8639-5.3065,1.3821-9.9058,3.0625-14.554,5.4289-4.6483,2.3664-9.2884,5.4434-13.336,8.7693-4.0474,3.3259-7.7138,7.16-10.948,11.186-3.2347,4.0261-6.31,8.9862-8.4596,12.971-2.1496,3.9846-3.2273,7.6179-4.4379,10.937z" stroke="#000" stroke-dasharray="none" stroke-miterlimit="4" stroke-width="4.71728772" fill="none"/><path id="path3126" style="baseline-shift:baseline;block-progression:tb;color:#000000;direction:ltr;text-indent:0;text-align:start;enable-background:accumulate;text-transform:none;" fill="#f4f4f4" d="m322.22,344.03c-2.1752-0.11302-4.5163-0.11969-7.1562,0.0937-5.2009,0.42051-12.184,1.4729-17.688,2.9062-5.436,1.4158-10.225,3.1781-15.031,5.625-4.8195,2.4535-9.5707,5.597-13.75,9.0312-4.1945,3.4468-7.9595,7.3967-11.281,11.531-3.3699,4.1944-6.5112,9.2517-8.7188,13.344-2.2776,4.2219-3.3874,8.0286-4.5625,11.25-1.1978,3.2837-2.0145,5.2819-2.9062,9.25-0.88844,3.9535-1.9405,9.9548-2.4062,14.344-0.4639,4.3721-0.63351,9.0642-0.34375,11.875,0.12731,1.235,0.0935,2.117,0.78125,3.2812,0.34389,0.58215,0.97738,1.1397,1.5625,1.4062,0.58512,0.26657,1.0728,0.34738,1.5312,0.40625,1.8404,0.23631,4.166-0.16442,8.125-2.125,4.0243-1.9931,11.445-6.4508,16.156-9.4688,4.7111-3.0179,7.085-4.8469,12.125-8.625,5.0792-3.8075,13.119-10.039,18.344-14.219,5.1835-4.147,8.0708-6.3607,13.031-10.875,4.9808-4.5328,12.289-11.731,16.625-16.094,4.3186-4.3452,6.7793-6.8507,9.5312-10.25,2.7984-3.4568,5.4624-7.6454,6.8438-10.062,0.68397-1.1967,1.1459-2.009,1.4062-2.9375,0.26038-0.92851,0.20461-1.8857,0.0937-2.5625-0.0546-0.33359-0.004-1.2204-0.625-2.3438-0.62102-1.1234-1.8237-1.9213-3.2812-2.4062-2.9601-0.985-8.0208-1.5037-12.188-1.875-2.0283-0.18078-4.0435-0.38698-6.2188-0.5zm-0.22,4.72c2.0236,0.1064,3.9579,0.28396,6.0312,0.46875,4.0367,0.35975,9.4028,1.1248,11.094,1.6875,0.86797,0.28881,0.7491,0.35545,0.65625,0.1875-0.0928-0.16795-0.0382,0.007,0.0937,0.8125,0.0758,0.46256,0.0559,0.33176,0,0.53125s-0.3147,0.7853-0.9375,1.875c-1.2321,2.1559-3.8617,6.2943-6.4062,9.4375-2.591,3.2006-4.9312,5.5296-9.25,9.875-4.3008,4.3274-11.602,11.537-16.438,15.938-4.8553,4.4186-7.57,6.5182-12.781,10.688-5.1701,4.1364-13.208,10.369-18.219,14.125-5.0495,3.7852-7.2771,5.4608-11.875,8.4062-4.5978,2.9454-12.146,7.4961-15.688,9.25-3.2837,1.6262-4.2056,1.7132-5.125,1.625-0.0302-0.17394-0.0186-0.1147-0.0937-0.84375-0.20438-1.9827-0.0926-6.8249,0.34375-10.938,0.43459-4.0957,1.4763-10.029,2.3125-13.75,0.83287-3.7063,1.5266-5.3338,2.75-8.6875,1.2461-3.416,2.2598-6.8778,4.2812-10.625,2.0916-3.8771,5.1193-8.7672,8.2188-12.625,3.1476-3.9177,6.7248-7.6388,10.625-10.844,3.9155-3.2176,8.429-6.2208,12.906-8.5,4.49-2.2858,8.8856-3.9016,14.062-5.25,5.1098-1.3309,12.022-2.3864,16.906-2.7812,2.4024-0.19424,4.5077-0.1689,6.5312-0.0625z"/><path id="path3128" d="m635.67,490.65c-1.4152-2.647-2.7857-5.1872-4.3832-7.7585s-3.5442-5.4939-5.2021-7.6693-3.0569-3.6794-4.7454-5.3832c-1.6885-1.7039-3.5752-3.3185-5.3858-4.8399s-3.9261-3.1479-5.4777-4.2887c-1.5516-1.1409-2.6303-1.8412-3.832-2.5564-1.2017-0.71521-2.1606-1.4917-3.378-1.7349-1.2174-0.24322-2.6334-0.43963-3.9265,0.27561-1.2931,0.71521-2.4628,1.8556-3.832,4.0157s-3.227,4.5332-4.3832,8.9449c-1.1562,4.4116-2.2498,11.227-2.5538,17.525-0.30402,6.2983-0.16797,11.837,0.72967,20.265,0.89765,8.4282,2.6632,21.314,4.6562,30.304,1.993,8.9908,4.9746,17.723,7.3018,23.64,2.3272,5.9178,4.5013,8.9301,6.6614,11.866,2.1601,2.9362,4.5953,4.6251,6.2992,5.7507s2.4025,1.4895,3.9239,1.0026c1.5214-0.48688,2.892-1.5206,5.2047-3.9239,2.3128-2.4033,6.238-6.6776,8.6719-10.496,2.434-3.8185,4.3801-8.657,5.9318-12.415,1.5516-3.7576,2.5109-6.769,3.3779-10.131,0.86701-3.3622,1.4594-5.9038,1.8242-10.042,0.36481-4.1382,0.56256-10.543,0.36481-14.787-0.19769-4.2445-0.9278-7.4396-1.5512-10.68-0.62335-3.2401-1.1395-5.947-2.189-8.7611-1.0494-2.8141-2.6925-5.4764-4.1076-8.1234z" stroke="#000" stroke-dasharray="none" stroke-miterlimit="4" stroke-width="4.71728772" fill="none"/><path id="path3130" style="baseline-shift:baseline;block-progression:tb;color:#000000;direction:ltr;text-indent:0;text-align:start;enable-background:accumulate;text-transform:none;" fill="#f4f4f4" d="m601.25,453.84c-0.9558,0.0196-2.0168,0.20287-3.0625,0.78125-1.6952,0.93759-3.1941,2.4564-4.6875,4.8125-1.2709,2.005-3.3956,4.8147-4.6562,9.625-1.2147,4.6351-2.3117,11.511-2.625,18-0.30886,6.3987-0.15651,12.113,0.75,20.625,0.90533,8.5004,2.6552,21.394,4.6875,30.562,2.0307,9.161,5.041,17.985,7.4062,24,2.4106,6.1297,4.8,9.4584,6.9688,12.406,2.4057,3.27,5.1281,5.1585,6.875,6.3125,0.87807,0.58004,1.6422,1.0972,2.6875,1.4062,1.0454,0.30905,2.2582,0.20238,3.2812-0.125,2.0528-0.65692,3.755-2.0359,6.1562-4.5312,2.3571-2.4494,6.3458-6.7601,8.9688-10.875,2.6131-4.0995,4.5804-9.0407,6.125-12.781,1.5904-3.8516,2.613-6.9977,3.5-10.438,0.87391-3.389,1.498-6.1297,1.875-10.406,0.37696-4.276,0.58129-10.697,0.375-15.125-0.20769-4.4592-0.98061-7.8129-1.5938-11-0.62294-3.238-1.1473-6.1154-2.2812-9.1562-1.1609-3.113-2.8828-5.8488-4.25-8.4062-1.4179-2.652-2.8229-5.2259-4.4688-7.875-1.628-2.6204-3.5768-5.5975-5.3125-7.875-1.728-2.2674-3.2502-3.8597-4.9688-5.5938-1.7825-1.7986-3.7092-3.469-5.5312-5-1.8695-1.5709-4.0045-3.2065-5.5938-4.375-1.6008-1.177-2.7812-1.9435-4.0312-2.6875-1.0308-0.61355-2.1952-1.6457-4.125-2.0312-0.66137-0.13213-1.513-0.26959-2.4688-0.25zm1.5625,4.875c0.50505,0.10091,1.2525,0.65188,2.625,1.4688,1.1533,0.68644,2.1226,1.3328,3.625,2.4375,1.514,1.1132,3.6233,2.7156,5.375,4.1875,1.7992,1.5119,3.6241,3.0784,5.2188,4.6875,1.6586,1.6736,2.9747,3.0728,4.5625,5.1562,1.5801,2.0734,3.4954,4.9465,5.0625,7.4688,1.5492,2.4934,2.9,4.9831,4.3125,7.625,1.463,2.7366,3.0308,5.3285,3.9688,7.8438,0.96488,2.5874,1.47,5.1328,2.0938,8.375,0.63356,3.2932,1.3123,6.3139,1.5,10.344,0.18921,4.0614,0.009,10.468-0.34375,14.469-0.35262,3.9999-0.92114,6.3521-1.7812,9.6875-0.84699,3.2846-1.7371,6.1488-3.25,9.8125-1.5587,3.7748-3.4952,8.4938-5.75,12.031-2.245,3.522-6.1065,7.7677-8.375,10.125-2.2242,2.3113-3.2287,2.9957-4.2188,3.3125-0.49841,0.1595-0.42097,0.12635-0.53125,0.0937-0.11028-0.0326-0.54921-0.26699-1.375-0.8125-1.6608-1.0971-3.8042-2.5852-5.7188-5.1875-2.1514-2.9243-4.1311-5.6066-6.375-11.312-2.2891-5.8209-5.2323-14.461-7.1875-23.281-1.9536-8.8133-3.7038-21.706-4.5938-30.062-0.88877-8.345-1.0179-13.708-0.71875-19.906,0.2949-6.1081,1.3711-12.843,2.4688-17.031,1.0517-4.0129,2.6263-5.9661,4.0938-8.2812,1.245-1.9641,2.0777-2.7259,2.9688-3.2188,0.49487-0.27372,1.2317-0.25342,2.3438-0.0312z"/><path id="path3132" d="m198.82,492.37c1.4151-2.647,2.7856-5.1872,4.3832-7.7586,1.5976-2.5713,3.5442-5.4939,5.2021-7.6693s3.0569-3.6794,4.7454-5.3832,3.5752-3.3184,5.3858-4.8399c1.8106-1.5214,3.9261-3.1479,5.4777-4.2887,1.5516-1.1409,2.6304-1.8412,3.832-2.5564,1.2017-0.71524,2.1605-1.4917,3.378-1.7349,1.2174-0.24319,2.6334-0.4396,3.9265,0.27561s2.4628,1.8556,3.832,4.0157,3.227,4.5332,4.3832,8.9449c1.1562,4.4116,2.2498,11.227,2.5538,17.525,0.30403,6.2983,0.16799,11.837-0.72966,20.265-0.89763,8.4283-2.6632,21.314-4.6562,30.304-1.993,8.9908-4.9746,17.723-7.3018,23.64-2.3272,5.9178-4.5013,8.93-6.6614,11.866-2.1601,2.9362-4.5954,4.6251-6.2992,5.7507-1.7039,1.1256-2.4024,1.4895-3.9239,1.0026-1.5214-0.48688-2.892-1.5206-5.2047-3.9239-2.3128-2.4033-6.238-6.6776-8.6719-10.496-2.434-3.8184-4.3801-8.657-5.9318-12.415-1.5516-3.7576-2.5109-6.769-3.378-10.131-0.867-3.3622-1.4593-5.9038-1.8241-10.042-0.36482-4.1382-0.56256-10.543-0.36482-14.787,0.19772-4.2445,0.92781-7.4396,1.5512-10.68,0.62335-3.2402,1.1395-5.9471,2.189-8.7612,1.0494-2.8141,2.6925-5.4764,4.1076-8.1234z" stroke="#000" stroke-dasharray="none" stroke-miterlimit="4" stroke-width="4.71728772" fill="none"/><path id="path3134" style="baseline-shift:baseline;block-progression:tb;color:#000000;direction:ltr;text-indent:0;text-align:start;enable-background:accumulate;text-transform:none;" fill="#f4f4f4" d="m233.25,455.56c-0.95578-0.0196-1.8386,0.11789-2.5,0.25-1.9298,0.38555-3.0942,1.4177-4.125,2.0312-1.2501,0.74402-2.3992,1.5105-4,2.6875-1.5892,1.1685-3.7242,2.804-5.5938,4.375-1.822,1.531-3.78,3.2014-5.5625,5-1.7185,1.7341-3.2095,3.3264-4.9375,5.5938-1.7357,2.2775-3.7157,5.2547-5.3438,7.875-1.6459,2.6492-3.0197,5.223-4.4375,7.875-1.3673,2.5574-3.0891,5.2933-4.25,8.4062-1.134,3.0408-1.6583,5.9182-2.2812,9.1562-0.61317,3.1871-1.386,6.5409-1.5938,11-0.20627,4.4277-0.002,10.849,0.375,15.125,0.37701,4.2766,1.0011,7.0172,1.875,10.406,0.88703,3.4398,1.8784,6.586,3.4688,10.438,1.5446,3.7405,3.5119,8.6818,6.125,12.781,2.6229,4.115,6.6117,8.4256,8.9688,10.875,2.4013,2.4953,4.1347,3.8743,6.1875,4.5312,1.023,0.32738,2.2359,0.43405,3.2812,0.125,1.0454-0.30905,1.7782-0.82621,2.6562-1.4062,1.7468-1.154,4.5006-3.0425,6.9062-6.3125,2.1688-2.9479,4.5582-6.2765,6.9688-12.406,2.3653-6.0146,5.3755-14.839,7.4062-24,2.0324-9.1684,3.7822-22.062,4.6875-30.562,0.90652-8.5115,1.0589-14.226,0.75-20.625-0.31319-6.4886-1.4103-13.365-2.625-18-1.2607-4.8104-3.4166-7.62-4.6875-9.625-1.4934-2.3561-2.9923-3.8749-4.6875-4.8125-1.0456-0.57835-2.0755-0.76166-3.0312-0.78125zm-1.5625,4.875c1.1121-0.22216,1.8176-0.24247,2.3125,0.0312,0.891,0.49282,1.755,1.2546,3,3.2188,1.4675,2.3152,3.0421,4.2683,4.0938,8.2812,1.0976,4.1882,2.1739,10.923,2.4688,17.031,0.29919,6.198,0.17003,11.561-0.71875,19.906-0.88995,8.3562-2.6714,21.249-4.625,30.062-1.9552,8.8206-4.8984,17.46-7.1875,23.281-2.2439,5.7059-4.2235,8.3881-6.375,11.312-1.9145,2.6023-4.0267,4.0904-5.6875,5.1875-0.82579,0.54551-1.296,0.7799-1.4062,0.8125-0.11027,0.0326-0.002,0.0657-0.5-0.0937-0.99007-0.31683-1.9945-1.0012-4.2188-3.3125-2.2685-2.3573-6.13-6.603-8.375-10.125-2.2548-3.5374-4.1913-8.2565-5.75-12.031-1.5128-3.6637-2.4342-6.5279-3.2812-9.8125-0.8601-3.3355-1.3974-5.6876-1.75-9.6875-0.35267-4.0004-0.56421-10.407-0.375-14.469,0.18772-4.0299,0.89768-7.0506,1.5312-10.344,0.62375-3.2423,1.0976-5.7876,2.0625-8.375,0.93797-2.5152,2.537-5.1073,4-7.8438,1.4124-2.6419,2.7633-5.1315,4.3125-7.625,1.5671-2.5223,3.4824-5.3954,5.0625-7.4688,1.5879-2.0835,2.8727-3.4826,4.5312-5.1562,1.5946-1.6091,3.4508-3.1757,5.25-4.6875,1.7516-1.4719,3.8297-3.0743,5.3438-4.1875,1.5024-1.1047,2.503-1.7511,3.6562-2.4375,1.3725-0.81691,2.1199-1.3678,2.625-1.4688z"/><path id="path3136" d="m294.36,615.16c-6.7397,3.8128-8.2524,5.168-12.315,8.189s-9.3836,7.7288-12.06,9.937c-2.6768,2.2082-3.2914,2.0311-4,3.3124-0.70867,1.2812-0.19992,1.0315-0.25198,4.3753-0.0521,3.3438-0.34164,10.594-0.0604,15.688,0.28128,5.0936,0.9252,10.103,1.748,14.874,0.82285,4.7708,1.5223,8.8237,3.189,13.751,1.6667,4.927,4.1133,10.905,6.811,15.811,2.6977,4.9064,5.7918,9.3561,9.3753,13.627,3.5836,4.2712,7.9799,8.4689,12.126,12s7.1465,5.9676,12.751,9.1863c5.6041,3.2188,14.864,7.647,20.874,10.126s9.5092,3.269,15.186,4.748c5.6772,1.479,10.158,3.0529,18.877,4.126,8.7187,1.0731,21.457,1.9895,33.436,2.3123,11.979,0.32287,28.74-0.0731,38.438-0.37531,9.6982-0.30224,13.073-0.67804,19.751-1.4383,6.6772-0.76032,13.791-1.8736,20.312-3.1234s13.418-2.7502,18.814-4.3753c5.3959-1.6251,8.5411-3.0836,13.562-5.3753,5.0206-2.2918,11.593-5.3443,16.562-8.3754,4.9685-3.0311,9.5931-6.6133,13.249-9.811,3.6562-3.1977,5.6772-5.6666,8.6877-9.3753s6.5836-7.7931,9.3753-12.877c2.7918-5.0836,5.594-11.625,7.3753-17.625s2.6768-12.021,3.3124-18.375c0.63562-6.3539,0.62641-15.019,0.50128-19.748-0.12512-4.7288-0.27252-6.1662-1.252-8.6246-0.97943-2.4584-1.9164-3.5008-4.6247-6.126-2.7082-2.6251-7.2498-6.6457-11.625-9.6247-4.3749-2.979-8.4996-5.2699-14.625-8.2493-6.1251-2.9794-14.563-6.5022-22.126-9.6273-7.5626-3.1251-14.708-6.3525-23.249-9.1234-8.5416-2.7708-20.208-5.7305-28-7.5013-7.7918-1.7708-12.397-2.332-18.751-3.1234-6.3539-0.79132-12.415-1.3119-19.373-1.6246-6.958-0.3128-14.271-0.62689-22.375-0.25195-8.1046,0.37488-17.668,1.126-26.252,2.5013-8.5836,1.3753-16.041,3.1675-25.249,5.7507-9.2082,2.5831-20.313,5.6754-30,9.748-9.6872,4.0726-21.384,10.875-28.123,14.688z" stroke="#000" stroke-dasharray="none" stroke-miterlimit="4" stroke-width="4.71728772" fill="none"/><path id="path3138" style="baseline-shift:baseline;block-progression:tb;color:#000000;direction:ltr;text-indent:0;text-align:start;enable-background:accumulate;text-transform:none;" fill="#f4f4f4" d="m415.66,580c-3.7486-0.0714-7.6659-0.0654-11.781,0.125-8.1642,0.37764-17.779,1.1339-26.5,2.5312-8.6889,1.3922-16.277,3.2166-25.531,5.8125-9.2048,2.5822-20.394,5.6869-30.281,9.8438-9.927,4.1733-21.664,11.016-28.375,14.812a2.3589,2.3589,0,0,0,-0.375,0.25c-6.3828,3.6376-8.2764,5.1853-12.188,8.0938-4.2127,3.1327-9.534,7.8626-12.125,10-1.2461,1.028-1.9066,1.4294-2.5625,1.875-0.65593,0.44564-1.4836,1.1913-2,2.125-0.43862,0.79301-0.73205,1.9716-0.6875,2.6875,0.0446,0.71586,0.14918,1.228,0.125,2.7812-0.0508,3.2608-0.35544,10.538-0.0625,15.844,0.28751,5.2065,0.94647,10.316,1.7812,15.156,0.82287,4.7709,1.5529,8.9846,3.2812,14.094,1.7056,5.0422,4.1714,11.131,6.9688,16.219,2.7745,5.046,5.9839,9.623,9.6562,14,3.705,4.4159,8.1843,8.6855,12.406,12.281,4.166,3.548,7.3591,6.1439,13.094,9.4375,5.767,3.3123,15.02,7.7191,21.156,10.25,6.1451,2.5347,9.8221,3.3727,15.469,4.8438,5.5751,1.4524,10.288,3.0922,19.188,4.1875,8.8336,1.0872,21.602,2.0189,33.656,2.3438,12.09,0.32587,28.875-0.0721,38.594-0.375,9.742-0.30361,13.258-0.70828,19.938-1.4688,6.7472-0.76829,13.922-1.8955,20.5-3.1562,6.5618-1.2576,13.488-2.7367,19.031-4.4062,5.5267-1.6645,8.8598-3.2107,13.875-5.5,5.0329-2.2974,11.656-5.354,16.812-8.5,5.1183-3.1225,9.8215-6.7905,13.562-10.062,3.7848-3.3102,5.9555-5.9442,8.9688-9.6562,2.969-3.6576,6.6811-7.8582,9.625-13.219,2.8822-5.2481,5.7223-11.895,7.5625-18.094,1.8425-6.206,2.7635-12.387,3.4062-18.812,0.65699-6.5675,0.62706-15.261,0.5-20.062-0.12608-4.7651-0.33994-6.761-1.4062-9.4375-1.086-2.726-2.4504-4.2844-5.1875-6.9375-2.7902-2.7046-7.3742-6.7677-11.938-9.875-4.48-3.0506-8.728-5.4322-14.906-8.4375-6.2337-3.0323-14.713-6.56-22.281-9.6875-7.5175-3.1065-14.721-6.3699-23.406-9.1875-8.6722-2.8131-20.369-5.7474-28.219-7.5312-7.8826-1.7915-12.618-2.3965-18.969-3.1875-6.4105-0.79838-12.549-1.3097-19.562-1.625-3.4807-0.15647-7.0639-0.30357-10.812-0.375zm-0.0937,4.6875c3.6735,0.0701,7.2102,0.24992,10.688,0.40625,6.9021,0.31024,12.89,0.80949,19.188,1.5938,6.3569,0.79176,10.83,1.3436,18.531,3.0938,7.734,1.7576,19.37,4.7091,27.781,7.4375,8.3974,2.7241,15.486,5.9187,23.094,9.0625,7.5567,3.1227,15.984,6.6359,22,9.5625,6.072,2.9536,10.043,5.1863,14.312,8.0938,4.1865,2.8507,8.6864,6.7982,11.312,9.3438,2.6794,2.5972,3.1896,3.1216,4.0625,5.3125,0.89255,2.2404,0.96959,3.1201,1.0938,7.8125,0.1232,4.6557,0.11425,13.328-0.5,19.469-0.62847,6.2824-1.4986,12.144-3.2188,17.938-1.7223,5.8014-4.4861,12.237-7.1875,17.156-2.6396,4.8065-6.073,8.7715-9.125,12.531-3.0078,3.7053-4.8787,5.9773-8.4062,9.0625-3.5714,3.1236-8.1188,6.6541-12.938,9.5938-4.78,2.9161-11.304,5.9638-16.312,8.25-5.0259,2.2942-7.9849,3.6643-13.25,5.25-5.2483,1.5807-12.114,3.0706-18.594,4.3125-6.4638,1.2389-13.518,2.3414-20.125,3.0938-6.6752,0.76003-9.9082,1.1366-19.562,1.4375-9.6777,0.30157-26.413,0.69487-38.281,0.375-11.904-0.32079-24.615-1.2536-33.219-2.3125-8.5384-1.0509-12.783-2.5569-18.562-4.0625-5.7077-1.487-9.0312-2.2017-14.906-4.625-5.8842-2.4271-15.153-6.8748-20.594-10-5.4736-3.1437-8.28-5.4234-12.406-8.9375-4.0702-3.4664-8.3816-7.5923-11.844-11.719-3.4948-4.1654-6.4728-8.4832-9.0938-13.25-2.5981-4.7252-5.0286-10.626-6.6562-15.438-1.6051-4.7448-2.2709-8.6356-3.0938-13.406-0.81084-4.7014-1.4437-9.613-1.7188-14.594-0.26954-4.8816,0.009-12.104,0.0625-15.531,0.0279-1.7906-0.10536-2.8095-0.125-3.125-0.0196-0.31552-0.1763,0.36324,0.0937-0.125,0.19228-0.34766,0.002-0.16185,0.5-0.5,0.49772-0.33815,1.5069-0.97603,2.9375-2.1562,2.7625-2.279,8.0564-6.9344,11.969-9.8438,4.1086-3.0552,5.3996-4.2619,12.062-8.0312a2.3589,2.3589,0,0,0,0.1875,-0.125c6.7901-3.8437,18.312-10.496,27.688-14.438,9.4868-3.9884,20.507-7.0722,29.719-9.6562,9.1625-2.5703,16.491-4.3291,24.969-5.6875,8.4458-1.3532,17.955-2.0966,26-2.4688,3.9892-0.18455,7.7953-0.22633,11.469-0.15625z"/><path id="path3140" d="m353.65,648.63,0,0c0-22.283,5.5206-40.346,12.331-40.346,3.2703,0,6.4067,4.2507,8.7192,11.817,2.3124,7.5664,3.6116,17.829,3.6116,28.529,0,22.283-5.5207,40.346-12.331,40.346-3.2703,0-6.4067-4.2507-8.7191-11.817-2.3125-7.5664-3.6116-17.829-3.6116-28.529z" fill-rule="nonzero" stroke="#000" stroke-miterlimit="4" stroke-dasharray="none" stroke-width="4.71728772" fill="#FFF"/><path id="path3142" style="baseline-shift:baseline;block-progression:tb;color:#000000;direction:ltr;text-indent:0;text-align:start;enable-background:accumulate;text-transform:none;" fill="#f4f4f4" d="m365.97,605.94c-2.7452,0-4.9734,1.7527-6.6875,4.125s-3.1165,5.5328-4.2812,9.3438c-2.3294,7.622-3.7188,17.883-3.7188,29.219,0,10.891,1.3042,21.318,3.7188,29.219,1.2072,3.9502,2.647,7.1268,4.375,9.4688s3.9367,4.0312,6.5938,4.0312c2.7452,0,5.0046-1.784,6.7188-4.1562,1.7141-2.3723,3.1165-5.5328,4.2812-9.3438,2.3294-7.622,3.7188-17.883,3.7188-29.219,0-10.891-1.3043-21.318-3.7188-29.219-1.2073-3.9502-2.647-7.0955-4.375-9.4375s-3.9679-4.0312-6.625-4.0312zm0,4.7188c0.61324,0,1.6079,0.41875,2.8438,2.0938s2.5198,4.415,3.625,8.0312c2.2104,7.2325,3.5312,17.334,3.5312,27.844,0,10.947-1.3978,20.863-3.5312,27.844-1.0667,3.4903-2.3262,6.2577-3.5625,7.9688-1.2363,1.711-2.2464,2.1875-2.9062,2.1875-0.61323,0-1.5766-0.45-2.8125-2.125s-2.5198-4.415-3.625-8.0312c-2.22-7.23-3.54-17.34-3.54-27.85,0-10.947,1.3978-20.863,3.5312-27.844,1.0667-3.4903,2.3262-6.2265,3.5625-7.9375s2.2152-2.1875,2.875-2.1875z"/><path id="path3144" d="m353.6,634.49,0,0c0,30.093,5.5418,54.488,12.378,54.488s12.378-24.395,12.378-54.488c-8.123,9.0814-16.633,9.0814-24.756,0z" stroke="#000" stroke-dasharray="none" stroke-miterlimit="4" stroke-width="4.71728772" fill="none"/><path id="path3146" stroke-linejoin="round" d="m353.6,634.49,0,0c0,30.093,5.5418,54.488,12.378,54.488s12.378-24.395,12.378-54.488c-8.123,9.0814-16.633,9.0814-24.756,0z" stroke="#f4f4f4" stroke-linecap="butt" stroke-miterlimit="4" stroke-dasharray="none" stroke-width="4.71728771999999990"/><path id="path3148" d="m456.65,648.63,0,0c0-22.283,5.5206-40.346,12.331-40.346,3.2703,0,6.4067,4.2507,8.7192,11.817,2.3124,7.5664,3.6116,17.829,3.6116,28.529,0,22.283-5.5207,40.346-12.331,40.346-3.2703,0-6.4067-4.2507-8.7191-11.817-2.3125-7.5664-3.6116-17.829-3.6116-28.529z" fill-rule="nonzero" stroke="#000" stroke-miterlimit="4" stroke-dasharray="none" stroke-width="4.71728772" fill="#FFF"/><path id="path3150" style="baseline-shift:baseline;block-progression:tb;color:#000000;direction:ltr;text-indent:0;text-align:start;enable-background:accumulate;text-transform:none;" fill="#f4f4f4" d="m468.97,605.94c-2.7452,0-4.9734,1.7527-6.6875,4.125s-3.1165,5.5328-4.2812,9.3438c-2.3294,7.622-3.7188,17.883-3.7188,29.219,0,10.891,1.3042,21.318,3.7188,29.219,1.2072,3.9502,2.647,7.1268,4.375,9.4688s3.9367,4.0312,6.5938,4.0312c2.7452,0,5.0046-1.784,6.7188-4.1562,1.7141-2.3723,3.1165-5.5328,4.2812-9.3438,2.3294-7.622,3.7188-17.883,3.7188-29.219,0-10.891-1.3043-21.318-3.7188-29.219-1.2073-3.9502-2.647-7.0955-4.375-9.4375s-3.9679-4.0312-6.625-4.0312zm0,4.7188c0.61324,0,1.6079,0.41875,2.8438,2.0938s2.5198,4.415,3.625,8.0312c2.2104,7.2325,3.5312,17.334,3.5312,27.844,0,10.947-1.3978,20.863-3.5312,27.844-1.0667,3.4903-2.3262,6.2577-3.5625,7.9688-1.2363,1.711-2.2464,2.1875-2.9062,2.1875-0.61323,0-1.5766-0.45-2.8125-2.125s-2.5198-4.415-3.625-8.0312c-2.22-7.23-3.54-17.34-3.54-27.85,0-10.947,1.3978-20.863,3.5312-27.844,1.0667-3.4903,2.3262-6.2265,3.5625-7.9375s2.2152-2.1875,2.875-2.1875z"/><path id="path3152" d="m456.6,634.49,0,0c0,30.093,5.5418,54.488,12.378,54.488s12.378-24.395,12.378-54.488c-8.123,9.0814-16.633,9.0814-24.756,0z" stroke="#000" stroke-dasharray="none" stroke-miterlimit="4" stroke-width="4.71728772" fill="none"/><path id="path3154" stroke-linejoin="round" d="m456.6,634.49,0,0c0,30.093,5.5418,54.488,12.378,54.488s12.378-24.395,12.378-54.488c-8.123,9.0814-16.633,9.0814-24.756,0z" stroke="#f4f4f4" stroke-linecap="butt" stroke-miterlimit="4" stroke-dasharray="none" stroke-width="4.71728771999999990"/></g></g></svg>
