<?xml version="1.0" encoding="utf-8"?>
<!-- Generator: Adobe Illustrator 13.0.0, SVG Export Plug-In . SVG Version: 6.00 Build 14948)  -->
<!DOCTYPE svg [
	<!ENTITY ns_flows "http://ns.adobe.com/Flows/1.0/">
	<!ENTITY ns_extend "http://ns.adobe.com/Extensibility/1.0/">
	<!ENTITY ns_ai "http://ns.adobe.com/AdobeIllustrator/10.0/">
	<!ENTITY ns_graphs "http://ns.adobe.com/Graphs/1.0/">
	<!ENTITY ns_vars "http://ns.adobe.com/Variables/1.0/">
	<!ENTITY ns_imrep "http://ns.adobe.com/ImageReplacement/1.0/">
	<!ENTITY ns_sfw "http://ns.adobe.com/SaveForWeb/1.0/">
	<!ENTITY ns_custom "http://ns.adobe.com/GenericCustomNamespace/1.0/">
	<!ENTITY ns_adobe_xpath "http://ns.adobe.com/XPath/1.0/">
]>
<svg version="1.2" baseProfile="tiny" id="Layer_2" xmlns:x="&ns_extend;" xmlns:i="&ns_ai;" xmlns:graph="&ns_graphs;"
	 xmlns="http://www.w3.org/2000/svg" xmlns:xlink="http://www.w3.org/1999/xlink" xmlns:a="http://ns.adobe.com/AdobeSVGViewerExtensions/3.0/"
	 x="0px" y="0px" width="598.191px" height="350.257px" viewBox="0 0 598.191 350.257" xml:space="preserve">
<metadata>
	<sfw  xmlns="&ns_sfw;">
		<slices></slices>
		<sliceSourceBounds  height="320.672" width="562.668" y="374.665" x="673.666" bottomLeftOrigin="true"></sliceSourceBounds>
	</sfw>
</metadata>
<path fill="#F4F4F4" d="M28.842,295.708c-4.099-16.083-16.586-50.962-16.58-110.748l0,0l0.002-10.332
	C12.253,109.219,29.57,67.796,35.096,51.337l0,0c5.539-16.884,21.091-29.221,39.659-30.004l0,0
	c18.504-0.295,98.828-2.039,184.507-2.039l0,0h79.335c11.515,0,22.771-0.004,33.685-0.002l0,0
	c74.392,0.002,132.889,0.145,151.439,2.58l0,0c16.291,2.678,29.537,14.357,34.471,29.765l0,0c0.703,2.2,1.238,4.479,1.587,6.807l0,0
	c0.745,4.688,2.092,18.341,3.701,36.737l0,0c4.658,53.359,11.445,146.229,11.449,172.114l0,0
	c-0.002,15.287-8.725,28.541-21.403,35.013l0,0c-12.142,7.273-65.34,29.635-128.932,29.654l0,0
	c-42.696-0.003-86.715-1.663-115.826-6.347l0,0c-0.004,0-0.009-0.001-0.013-0.002l0,0c-0.643-0.01-1.306-0.015-1.983-0.015l0,0
	c-33.201-0.004-109.07,10.721-133.124,12.029l0,0c-24.687,1.334-57.696,2.334-85.386,2.336l0,0
	C60.204,339.961,36.498,321.326,28.842,295.708L28.842,295.708z M74.815,23.331c-17.691,0.744-32.534,12.524-37.82,28.635l0,0
	c-5.566,16.578-22.725,57.571-22.733,122.663l0,0v10.332c0.008,59.548,12.377,94.006,16.506,110.215l0,0
	c7.399,24.746,30.34,42.787,57.495,42.787l0,0c27.643,0,60.634-1,85.278-2.331l0,0c21.894-1.183,87.544-10.316,124.1-11.823l0,0
	c-23.591-3.823-58.609-9.257-82.385-9.254l0,0c-8.482-0.006-15.537,0.705-19.98,2.348l0,0l-0.692-1.88
	c4.889-1.786,12.074-2.462,20.673-2.468l0,0c28.139,0.004,71.391,7.476,93.669,11.063l0,0c0.233,0.004,0.464,0.008,0.691,0.013l0,0
	h0.002l-0.002,0.098c28.896,4.584,72.604,6.235,114.979,6.233l0,0c63.076,0.021,116.206-22.327,127.961-29.399l0,0
	c12.096-6.18,20.374-18.755,20.372-33.267l0,0c0.004-25.679-6.784-118.64-11.441-171.94l0,0c-1.602-18.366-2.96-32.071-3.685-36.607
	l0,0c-0.333-2.23-0.843-4.4-1.515-6.5l0,0c-4.704-14.697-17.354-25.851-32.856-28.395l0,0c-18.171-2.4-76.806-2.563-151.148-2.561
	l0,0c-10.914,0-22.168,0.004-33.685,0.004l0,0h-79.335C173.606,21.294,93.305,23.036,74.815,23.331L74.815,23.331z"/>
<path fill="#F4F4F4" d="M160.009,291.374c-1.671-4.94-19.072-63.81-19.08-129.411l0,0c-0.013-68.137,17.991-113.225,19.69-119.298
	l0,0c1.381-6.297,6.621-11.137,13.178-11.93l0,0c6.572-0.397,32.784-1.106,90.049-1.106l0,0
	c120.614,0.009,194.821,14.465,197.77,15.274l0,0l0.04,0.011l0.035,0.013c2.936,1.07,5.252,3.404,6.301,6.349l0,0
	c0.621,1.383,2.167,6.683,4.307,14.833l0,0c2.161,8.263,4.856,19.303,7.493,31.443l0,0c5.269,24.284,10.3,52.919,10.304,72.577l0,0
	c-0.008,26.371-4.346,86.812-6.383,96.745l0,0c-0.135,0.597-0.204,0.976-0.393,1.367l0,0c-0.888,4.114-3.713,7.923-7.919,9.003l0,0
	v-0.001v0.001v-0.001c-1.366,0.41-7.6,1.576-17.063,3.202l0,0c-9.6,1.643-22.379,3.709-36.089,5.736l0,0
	c-27.429,4.051-58.545,7.942-75.527,7.945l0,0c-2.853,0-5.172-2.271-5.248-5.104l0,0l-0.269-0.991
	c-1.482-4.862-6.007-8.405-11.359-8.403l0,0h-22.249c-4.232,0-7.939,2.209-10.046,5.541l0,0c-0.428,0.882-0.665,2.063-1.527,3.155
	l0,0l-0.029,0.035l-0.029,0.031c-1.041,1.07-2.506,1.737-4.119,1.737l0,0c-1.453,0-2.79-0.543-3.801-1.437l0,0l-0.073-0.064
	l-2.639-3.354l-0.025-0.042c-2.098-3.366-5.828-5.604-10.085-5.604l0,0h-72.624c-6.56,0.013-11.864,5.317-11.877,11.875l0,0v2.418
	c0,3.521-2.853,6.374-6.375,6.374l0,0l-11.749,0.002C166.783,300.294,161.836,296.576,160.009,291.374L160.009,291.374z
	 M173.978,32.726c-5.643,0.679-10.209,4.899-11.42,10.422l0,0c-1.787,6.373-19.616,50.949-19.629,118.815l0,0
	c-0.008,65.228,17.371,124.055,18.973,128.758l0,0c1.55,4.411,5.752,7.577,10.695,7.575l0,0h11.749
	c2.416-0.004,4.371-1.957,4.375-4.375l0,0v-2.418c0-7.662,6.21-13.874,13.876-13.874l0,0h72.624c4.953,0,9.307,2.6,11.759,6.504l0,0
	l2.453,3.116c0.655,0.549,1.492,0.879,2.413,0.879l0,0c1.042,0,1.974-0.42,2.657-1.103l0,0c0.482-0.591,0.735-1.619,1.277-2.787l0,0
	l0.025-0.055l0.03-0.044c2.449-3.908,6.806-6.511,11.763-6.511l0,0h22.249c6.252,0,11.54,4.133,13.281,9.85l0,0l0.343,1.264v0.137
	c0.004,1.796,1.454,3.246,3.252,3.25l0,0c25.105,0.005,82.541-8.733,111.278-13.655l0,0c9.543-1.63,16.081-2.883,16.843-3.149l0,0
	l0.044-0.017l0.027-0.005c3.282-0.807,5.744-4.009,6.472-7.592l0,0l0.038-0.187l0.102-0.155l-0.003-0.001
	c0.013-0.035,0.035-0.099,0.061-0.181l0,0c0.049-0.166,0.107-0.41,0.171-0.717l0,0c0.126-0.612,0.269-1.472,0.42-2.533l0,0
	c0.301-2.126,0.64-5.069,0.994-8.614l0,0c0.715-7.092,1.499-16.597,2.229-26.893l0,0c1.461-20.59,2.699-44.354,2.699-58.302l0,0
	c0.009-29.031-11.268-78.819-17.732-103.515l0,0c-2.136-8.193-3.816-13.786-4.203-14.535l0,0l-0.024-0.05l-0.02-0.057
	c-0.837-2.382-2.714-4.282-5.077-5.154l0,0c-3.22-0.843-77.393-15.198-197.193-15.19l0,0
	C206.61,31.628,180.375,32.339,173.978,32.726L173.978,32.726z"/>
<path fill="#F4F4F4" d="M181.262,252.296c-2.525-0.002-4.742-1.34-5.969-3.343l0,0l-0.029-0.049l-0.023-0.048
	c-0.365-0.799-1.185-3.481-2.34-8.012l0,0c-1.141-4.5-2.555-10.713-3.932-18.188l0,0c-2.756-14.951-5.374-34.948-5.374-56.363l0,0
	v-12.999c0.002-32.124,5.885-61.058,9.306-74.553l0,0c1.156-4.53,1.976-7.212,2.34-8.011l0,0l0.023-0.051l0.029-0.046
	c1.227-2.003,3.443-3.341,5.969-3.341l0,0h270.333c2.523,0,4.74,1.338,5.969,3.341l0,0l0.027,0.048l0.023,0.048
	c0.364,0.799,1.187,3.481,2.34,8.011l0,0c1.142,4.501,2.555,10.713,3.935,18.189l0,0c2.756,14.949,5.371,34.949,5.371,56.364l0,0
	v12.999h0.002c-0.002,32.122-5.887,61.055-9.308,74.55l0,0c-1.153,4.53-1.976,7.213-2.34,8.012l0,0l-0.023,0.048l-0.027,0.049
	c-1.229,2.003-3.445,3.341-5.969,3.343l0,0H181.262L181.262,252.296z M181.262,250.295h270.333c1.786,0,3.346-0.933,4.234-2.341l0,0
	c0.233-0.534,1.11-3.33,2.188-7.602l0,0c1.131-4.455,2.536-10.629,3.905-18.058l0,0c2.739-14.859,5.34-34.749,5.338-56l0,0h0.002
	l-0.002-12.999c0.002-31.88-5.852-60.69-9.243-74.061l0,0c-1.077-4.271-1.954-7.067-2.188-7.602l0,0
	c-0.889-1.408-2.448-2.339-4.234-2.339l0,0H181.262c-1.786,0-3.348,0.932-4.236,2.339l0,0c-0.233,0.535-1.111,3.331-2.188,7.602l0,0
	c-1.13,4.455-2.534,10.629-3.903,18.058l0,0c-2.741,14.861-5.339,34.749-5.339,56.003l0,0v12.999
	c-0.002,31.877,5.851,60.688,9.243,74.058l0,0c1.077,4.271,1.955,7.066,2.188,7.602l0,0
	C177.915,249.363,179.477,250.295,181.262,250.295L181.262,250.295z"/>
<path fill="#F4F4F4" d="M182.595,242.959c-1.105,0-1.999-0.894-2.001-1.996l0,0l0.002-162.335c0-1.105,0.894-1.999,1.999-2.001l0,0
	h269c1.105,0,1.999,0.896,2.001,2.001l0,0v162.335h-0.002c0,1.103-0.894,1.996-1.999,1.996l0,0H182.595L182.595,242.959z
	 M182.595,240.963h269V78.628h-269V240.963L182.595,240.963z"/>
<path fill="#F4F4F4" d="M71.676,301.999c-15.797-1.281-28.914-12.028-33.665-26.555l0,0c-5.025-14.678-12.411-51.385-12.417-107.482
	l0,0c0.015-49.541,14.26-98.24,19.365-110.23l0,0c5.08-12.43,16.423-21.63,30.11-23.675l0,0
	c13.653-2.089,75.965-11.428,173.525-11.428l0,0c123.073,0,216.363,14.994,233.998,17.501l0,0l-0.141,0.99l0.161-0.986
	c18.424,2.997,32.48,18.979,32.48,38.247l0,0c-0.005,19.166,1.859,41.099,3.03,46.796l0,0c1.146,5.479,4.094,10.3,8.226,13.835l0,0
	c8.682,8.016,18.975,17.684,24.489,23.574l0,0c5.653,5.905,9.365,13.6,10.477,22.116l0,0c1.406,10.775,2.651,37.232,2.78,46.678l0,0
	c-0.002,16.943-10.874,31.347-26.044,36.618l0,0c-14.985,4.957-96.754,25.611-182.875,32.628l0,0
	c-9.319,0.762-13.108,1.987-15.485,3.05l0,0c-2.336,1.046-3.717,2.202-7.528,2.45l0,0c-3.141,0.214-49.291,1.001-148.067,1.003l0,0
	C140.79,307.127,87.085,302.875,71.676,301.999L71.676,301.999z M75.369,36.033c-12.977,1.937-23.743,10.668-28.564,22.47l0,0
	c-4.976,11.627-19.223,60.333-19.208,109.458l0,0c-0.006,55.902,7.39,92.501,12.313,106.848l0,0
	c4.507,13.785,16.952,23.985,31.905,25.194l0,0c15.433,0.878,69.087,5.124,112.282,5.124l0,0
	c98.722,0.002,145.003-0.793,147.93-0.997l0,0c3.438-0.252,4.186-1.082,6.85-2.28l0,0c2.623-1.181,6.711-2.454,16.139-3.22l0,0
	c85.879-6.984,167.684-27.651,182.396-32.528l0,0c14.367-4.993,24.687-18.654,24.687-34.711l0,0
	c-0.123-9.319-1.379-35.86-2.764-46.432l0,0c-1.059-8.101-4.581-15.398-9.945-21l0,0c-5.433-5.803-15.728-15.479-24.365-23.453l0,0
	c-4.429-3.791-7.616-8.998-8.857-14.926l0,0c-1.228-6.045-3.064-27.869-3.068-47.202l0,0c0.002-18.273-13.34-33.432-30.805-36.272
	l0,0v0c-17.697-2.517-110.814-17.479-233.696-17.479l0,0C151.156,24.627,88.971,33.954,75.369,36.033L75.369,36.033z"/>
<polygon fill="#F4F4F4" points="555.429,67.254 555.429,65.252 559.804,65.252 559.804,67.254 555.429,67.254 "/>
<polygon fill="#F4F4F4" points="550.096,61.877 550.096,59.878 559.221,59.878 559.221,61.877 550.096,61.877 "/>
<polygon fill="#F4F4F4" points="558.388,75.169 558.388,73.17 560.554,73.17 560.554,75.169 558.388,75.169 "/>
<polygon fill="#F4F4F4" points="556.762,69.795 556.762,67.794 560.054,67.794 560.054,69.795 556.762,69.795 "/>
<polygon fill="#F4F4F4" points="557.471,83.086 557.471,81.087 561.304,81.087 561.304,83.086 557.471,83.086 "/>
<polygon fill="#F4F4F4" points="558.47,77.712 558.47,75.711 560.929,75.711 560.929,77.712 558.47,77.712 "/>
<polygon fill="#F4F4F4" points="552.302,91.002 552.302,89.002 562.012,89.002 562.012,91.002 552.302,91.002 "/>
<polygon fill="#F4F4F4" points="556.429,85.627 556.429,83.628 561.637,83.628 561.637,85.627 556.429,85.627 "/>
<path fill="#F4F4F4" d="M520.221,76.254c0-10.709,8.766-19.356,19.563-19.375l0,0c10.796,0.02,19.56,8.666,19.562,19.375l0,0
	c-0.002,10.708-8.766,19.354-19.562,19.374l0,0C528.986,95.608,520.221,86.961,520.221,76.254L520.221,76.254z M522.22,76.254
	c0.018,9.586,7.854,17.375,17.563,17.375l0,0c9.707,0,17.544-7.788,17.563-17.375l0,0c-0.019-9.59-7.855-17.376-17.563-17.376l0,0
	C530.074,58.877,522.237,66.664,522.22,76.254L522.22,76.254z"/>
<path fill="#F4F4F4" d="M560.335,94.345c-0.814-0.392-2.118-0.587-3.662-0.583l0,0c-4.612-0.011-11.118,1.611-15.035,1.781l0,0
	l-0.083-1.998c3.542-0.129,10.132-1.775,15.118-1.784l0,0c1.696,0.004,3.238,0.18,4.516,0.774l0,0
	c1.278,0.568,2.279,1.765,2.404,3.33l0,0l-1.993,0.191C561.487,95.166,561.147,94.763,560.335,94.345L560.335,94.345z
	 M541.635,95.544c0.001,0,0.002,0,0.003,0l0,0v0H541.635L541.635,95.544z"/>
<path fill="#F4F4F4" d="M558.293,60.314c-0.907-0.046-1.552-0.475-2.569-1.094l0,0c-0.771-0.521-3.118-1.157-7.074-1.141l0,0
	c-3.513,0-8.32,0.454-14.608,1.696l0,0l-0.389-1.96c6.388-1.264,11.314-1.734,14.997-1.734l0,0c4.17,0.015,6.705,0.558,8.151,1.455
	l0,0c0.354,0.229,0.667,0.411,0.916,0.54l0,0c-0.005-0.025-0.01-0.05-0.015-0.076l0,0l1.956-0.409
	c0.076,0.377,0.127,0.708,0.127,1.043l0,0c-0.002,0.341-0.04,0.716-0.313,1.104l0,0c-0.261,0.383-0.763,0.578-1.128,0.578l0,0
	C558.326,60.315,558.31,60.315,558.293,60.314L558.293,60.314z M534.039,59.776c0,0,0.001,0,0.002,0l0,0v0H534.039L534.039,59.776z"
	/>
<path fill="#F4F4F4" d="M538.428,243.451l-0.051-0.04l-13.964-14.43c-1.11-0.929-1.818-2.333-1.818-3.895l0,0
	c0-1.402,0.569-2.679,1.477-3.585l0,0l14.117-14.582l0.047-0.04c1.801-1.534,4.143-2.46,6.692-2.46l0,0
	c4.255,0.002,7.91,2.57,9.482,6.22l0,0c1.663,3.65,1.795,9.024,1.81,15.552l0,0c0.013,8.198-0.683,11.197-2.373,14.449l0,0
	c-1.791,3.057-5.118,5.111-8.919,5.111l0,0C542.469,245.751,540.199,244.889,538.428,243.451L538.428,243.451z M544.928,243.751
	c3.068,0,5.744-1.655,7.166-4.077l0,0c1.488-2.909,2.113-5.309,2.126-13.483l0,0c0.015-6.474-0.227-11.744-1.636-14.734l0,0
	c-1.278-2.965-4.226-5.039-7.656-5.037l0,0c-2.046,0-3.91,0.734-5.361,1.955l0,0l-14.068,14.529
	c-0.56,0.562-0.903,1.327-0.903,2.183l0,0c0,0.967,0.44,1.82,1.136,2.391l0,0l-0.631,0.775l-0.719,0.695l0.719-0.695l0.631-0.775
	l0.047,0.036l13.959,14.424C541.163,243.074,542.96,243.751,544.928,243.751L544.928,243.751z"/>
<g>
	<g>
		<path fill="#F4F4F4" d="M87.568,228.711c-1.401-0.012-2.673-0.596-3.567-1.513l0,0l-14.456-14.271l-0.029-0.035
			c-1.494-1.792-2.396-4.103-2.394-6.615l0,0c0-0.021-0.002-0.066,0-0.102l0,0c0.043-4.252,2.648-7.882,6.313-9.419l0,0
			c3.226-1.438,7.77-1.659,13.264-1.672l0,0c0.75,0,1.519,0.006,2.305,0.017l0,0c8.199,0.066,11.19,0.793,14.425,2.514l0,0
			c3.013,1.805,5.024,5.105,5.024,8.867l0,0c0,0.041,0,0.058,0,0.104l0,0c-0.025,2.458-0.909,4.718-2.368,6.477l0,0l-0.033,0.041
			l-14.561,13.816c-0.921,1.088-2.3,1.78-3.829,1.79l0,0l-0.017,0.002H87.568L87.568,228.711z M85.417,225.79
			c0.544,0.551,1.281,0.896,2.112,0.922l0,0c0.048-0.004,0.073-0.003,0.083-0.003l0,0c0.006,0.002,0.011,0.002,0.011,0.002l0,0
			c0.954,0,1.798-0.43,2.367-1.11l0,0l0.037-0.046l14.551-13.807c1.157-1.414,1.856-3.209,1.877-5.144l0,0
			c-0.002-0.06-0.002-0.104-0.002-0.122l0,0c0-3.035-1.621-5.692-4.004-7.124l0,0c-2.895-1.515-5.289-2.165-13.468-2.258l0,0
			c-0.778-0.011-1.54-0.015-2.281-0.015l0,0c-5.421-0.011-9.822,0.292-12.465,1.504l0,0c-2.976,1.252-5.078,4.176-5.113,7.648l0,0
			c0,0,0,0,0,0.039l0,0c0.002,2.02,0.716,3.863,1.911,5.308l0,0L85.417,225.79L85.417,225.79z"/>
		<path fill="#F4F4F4" d="M73.46,282.928c-3.689-1.546-6.295-5.177-6.337-9.399l0,0c-0.002-0.069-0.002-0.117-0.002-0.136l0,0
			c0-2.508,0.9-4.823,2.396-6.612l0,0l0.023-0.027l14.45-14.268c0.894-0.915,2.142-1.495,3.519-1.522l0,0
			c0.058-0.006,0.084-0.004,0.096-0.003l0,0c0.008,0,0.01,0,0.013,0l0,0c1.542,0,2.936,0.692,3.867,1.786l0,0l14.57,13.824
			l0.034,0.041c1.458,1.759,2.343,4.019,2.366,6.522l0,0c0,0,0,0.015,0,0.057l0,0c0,3.758-2.012,7.063-5.073,8.896l0,0
			c-3.187,1.696-6.179,2.421-14.38,2.487l0,0c-0.779,0.004-1.542,0.011-2.29,0.013l0,0C81.21,284.574,76.665,284.355,73.46,282.928
			L73.46,282.928z M69.121,273.393c0,0.039,0,0.052,0.002,0.083l0,0c0.031,3.434,2.135,6.358,5.135,7.619l0,0
			c2.621,1.199,7.024,1.502,12.452,1.491l0,0c0.737,0,1.496-0.006,2.272-0.011l0,0c8.177-0.094,10.571-0.743,13.417-2.232l0,0
			c2.433-1.461,4.054-4.119,4.054-7.152l0,0c0-0.021,0-0.061,0-0.081l0,0c-0.021-1.968-0.716-3.761-1.868-5.175l0,0l-14.515-13.774
			l0.687-0.724l0.769-0.64l-0.769,0.64l-0.687,0.724l-0.048-0.044l-0.033-0.042c-0.571-0.684-1.418-1.114-2.373-1.114l0,0h-0.021
			h-0.008c-0.854,0.011-1.615,0.36-2.183,0.938l0,0L71.03,268.091C69.837,269.533,69.121,271.378,69.121,273.393L69.121,273.393z"/>
	</g>
	<g>
		<path fill="#F4F4F4" d="M121.041,260.502c-2.459-0.022-4.719-0.909-6.479-2.365l0,0l-0.046-0.04l-13.811-14.557
			c-1.098-0.931-1.795-2.325-1.793-3.872l0,0c0.001-0.002-0.004-0.015,0-0.09l0,0c0.024-1.386,0.604-2.642,1.512-3.531l0,0
			l14.26-14.444l0.048-0.038c1.788-1.495,4.098-2.396,6.607-2.395l0,0c0.009,0,0.052-0.003,0.124,0.002l0,0
			c4.247,0.05,7.869,2.653,9.404,6.313l0,0c1.438,3.232,1.658,7.783,1.668,13.288l0,0c0,0.741-0.004,1.5-0.01,2.278l0,0
			c-0.069,8.199-0.794,11.192-2.516,14.427l0,0c-1.807,3.01-5.108,5.022-8.87,5.022l0,0c-0.025-0.002-0.025,0-0.025,0l0,0
			l-0.038,0.002H121.041L121.041,260.502z M121.03,258.501c0.036-0.001,0.064-0.001,0.082-0.001l0,0c0.017,0,0.025,0,0.029,0l0,0
			c3.037,0.002,5.693-1.62,7.127-4.003l0,0c1.514-2.896,2.167-5.289,2.258-13.465l0,0c0.006-0.774,0.012-1.526,0.012-2.26l0,0
			c0.011-5.434-0.291-9.842-1.504-12.488l0,0c-1.25-2.977-4.175-5.081-7.606-5.112l0,0l-0.052-0.002l-0.035-0.004v0.002v0.002
			c-2.01,0-3.848,0.711-5.288,1.898l0,0l-14.215,14.396c-0.565,0.557-0.916,1.316-0.924,2.173l0,0l-0.002,0.057
			c0.008,0.941,0.438,1.78,1.115,2.345l0,0l-0.64,0.769l-0.725,0.688l0.725-0.688l0.64-0.769l0.042,0.035l13.808,14.553
			C117.285,257.778,119.069,258.474,121.03,258.501L121.03,258.501z"/>
		<path fill="#F4F4F4" d="M54.493,260.502l-0.027-0.002c-0.002,0.002,0,0-0.033,0.002l0,0c-3.76-0.002-7.061-2.015-8.895-5.072l0,0
			c-1.695-3.187-2.42-6.18-2.488-14.377l0,0c-0.008-0.782-0.013-1.545-0.013-2.286l0,0c0.011-5.503,0.231-10.052,1.66-13.257l0,0
			c1.541-3.679,5.155-6.279,9.393-6.338l0,0c0.087-0.006,0.132-0.002,0.144-0.002l0,0c2.509-0.002,4.821,0.899,6.612,2.395l0,0
			l0.033,0.029l14.26,14.443c0.926,0.907,1.51,2.179,1.522,3.581l0,0l0.002,0.068l-0.002,0.018c-0.01,1.526-0.699,2.906-1.783,3.828
			l0,0l-13.817,14.561l-0.05,0.044c-1.757,1.456-4.018,2.343-6.477,2.365l0,0H54.493L54.493,260.502z M54.198,221.17l-0.052,0.002
			c-3.432,0.031-6.356,2.136-7.615,5.137l0,0c-1.203,2.62-1.506,7.03-1.494,12.458l0,0c0,0.735,0.002,1.489,0.013,2.264l0,0
			c0.091,8.178,0.741,10.571,2.231,13.417l0,0c1.46,2.433,4.117,4.055,7.152,4.055l0,0c0.007,0,0.044-0.003,0.107,0l0,0
			c1.961-0.026,3.749-0.724,5.158-1.876l0,0l13.766-14.507l0.042-0.046l0.044-0.035c0.683-0.569,1.111-1.415,1.111-2.368l0,0
			c0.001,0-0.001-0.013,0.001-0.067l0,0c-0.017-0.842-0.366-1.59-0.934-2.149l0,0L59.515,223.06c-1.44-1.183-3.276-1.89-5.281-1.892
			l0,0c-0.005,0-0.01,0-0.014,0l0,0L54.198,221.17L54.198,221.17z"/>
	</g>
</g>
<path fill="#F4F4F4" d="M499.328,267.185c-3.131-1.655-5.329-4.89-5.494-8.68l0,0c-0.006-0.152-0.011-0.307-0.011-0.463l0,0
	c-0.002-2.287,0.748-4.42,2.027-6.139l0,0l0.042-0.057l13.8-14.566c0.879-1.153,2.255-1.924,3.813-1.991l0,0
	c0.06-0.004,0.135-0.008,0.229-0.008l0,0c1.313,0,2.525,0.505,3.42,1.327l0,0l15.189,13.478l0.036,0.038
	c1.608,1.731,2.638,4.031,2.748,6.58l0,0c0.006,0.154,0.008,0.307,0.011,0.452l0,0c-0.003,4.063-2.366,7.62-5.813,9.288l0,0
	c-3.574,1.822-8.939,2.188-15.458,2.486l0,0c-1.632,0.069-3.052,0.104-4.306,0.104l0,0c-0.043,0-0.084,0-0.127,0l0,0
	C504.45,269.035,501.958,268.413,499.328,267.185L499.328,267.185z M495.821,258.042c0,0.118,0.004,0.239,0.01,0.37l0,0
	c0.134,3.064,1.903,5.665,4.383,6.981l0,0c2.4,1.096,4.388,1.63,9.347,1.641l0,0c1.218,0,2.61-0.031,4.219-0.104l0,0
	c6.469-0.267,11.724-0.735,14.648-2.274l0,0c2.799-1.355,4.71-4.228,4.708-7.5l0,0c0-0.127-0.002-0.249-0.007-0.367l0,0
	c-0.088-2.044-0.905-3.877-2.188-5.275l0,0l-15.127-13.422c-0.555-0.507-1.281-0.81-2.08-0.812l0,0c-0.027,0-0.07,0.002-0.136,0.007
	l0,0c-0.968,0.042-1.801,0.518-2.34,1.238l0,0l-0.036,0.049l-13.802,14.568C496.412,254.522,495.823,256.216,495.821,258.042
	L495.821,258.042z"/>
<path fill="#F4F4F4" d="M80.297,121.621"/>
<path fill="#F4F4F4" d="M58.191,268.206l20.165-26.272l0.044-0.045c0.27-0.235,0.582-1.077,0.567-1.986l0,0
	c0.004-0.836-0.229-1.707-0.565-2.175l0,0l-20.379-26.079l1.397-1.408l26.192,20.104c0.752,0.495,1.51,0.72,2.243,0.72l0,0
	c0.707,0,1.404-0.204,2.081-0.64l0,0l26.042-20.353l1.408,1.396l-20.163,26.269c-0.389,0.439-0.709,1.283-0.703,2.154l0,0
	c0,0.73,0.204,1.462,0.653,2.057l0,0l20.379,26.079l-1.396,1.41l-26.2-20.111c-0.38-0.299-1.373-0.549-2.31-0.534l0,0
	c-0.925-0.026-1.84,0.271-1.969,0.433l0,0l-26.079,20.379L58.191,268.206L58.191,268.206z M64.567,263.182l19.845-15.505
	c0.877-0.701,2.011-0.861,3.236-0.888l0,0c1.218,0.014,2.485,0.218,3.504,0.932l0,0l19.982,15.338l-15.546-19.893
	c-0.755-1.004-1.067-2.177-1.067-3.275l0,0c0.006-1.318,0.42-2.558,1.152-3.416l0,0l15.336-19.982l-19.905,15.557l-0.04,0.027
	c-0.979,0.645-2.086,0.99-3.208,0.987l0,0c-1.163,0.003-2.327-0.367-3.377-1.072l0,0l0.555-0.83l-0.607,0.792l-19.984-15.338
	l15.565,19.919c0.686,0.99,0.955,2.202,0.958,3.367l0,0c-0.014,1.229-0.282,2.437-1.076,3.32l0,0L64.567,263.182L64.567,263.182z"/>
<path fill="#F4F4F4" d="M33.913,239.837c0.002-29.755,24.122-53.874,53.876-53.876l0,0c29.755,0.002,53.875,24.121,53.875,53.876
	l0,0c0,29.755-24.12,53.874-53.875,53.876l0,0C58.034,293.711,33.915,269.592,33.913,239.837L33.913,239.837z M51.106,203.157
	c-9.387,9.39-15.191,22.353-15.193,36.681l0,0c0,14.328,5.806,27.29,15.193,36.681l0,0c9.391,9.39,22.355,15.193,36.683,15.193l0,0
	c14.328,0,27.29-5.804,36.681-15.193l0,0c9.389-9.391,15.193-22.353,15.193-36.681l0,0c0-14.328-5.804-27.291-15.193-36.681l0,0
	c-9.392-9.389-22.353-15.193-36.681-15.193l0,0C73.459,187.963,60.497,193.768,51.106,203.157L51.106,203.157z"/>
<g>
	<g>
		<path fill="#F4F4F4" d="M90.826,80.863c-1.364-0.01-2.603-0.579-3.473-1.469l0,0L73.374,65.591l-0.028-0.035
			c-1.449-1.737-2.325-3.981-2.323-6.415l0,0c0-0.021-0.002-0.067,0-0.102l0,0c0.042-4.125,2.571-7.646,6.125-9.136l0,0
			c3.129-1.394,7.521-1.607,12.833-1.618l0,0c0.728,0,1.471,0.004,2.233,0.012l0,0c7.928,0.065,10.83,0.768,13.965,2.437l0,0
			c2.922,1.75,4.873,4.955,4.873,8.602l0,0c0,0.041,0,0.057,0,0.1l0,0c-0.022,2.386-0.882,4.579-2.294,6.283l0,0l-0.041,0.049
			L94.645,79.119c-0.905,1.068-2.263,1.744-3.768,1.744l0,0C90.877,80.863,90.871,80.863,90.826,80.863L90.826,80.863z
			 M90.877,78.863c0.913,0,1.719-0.411,2.264-1.063l0,0l0.039-0.046l14.076-13.356c1.109-1.361,1.777-3.086,1.799-4.939l0,0
			c-0.002-0.063-0.002-0.104-0.002-0.122l0,0c0-2.922-1.561-5.48-3.855-6.858l0,0c-2.794-1.463-5.099-2.091-13.005-2.181l0,0
			c-0.754-0.008-1.492-0.012-2.211-0.012l0,0c-5.239-0.01-9.488,0.285-12.035,1.451l0,0c-2.865,1.205-4.891,4.02-4.924,7.362l0,0
			c0,0,0,0.002,0,0.043l0,0c0,1.933,0.682,3.698,1.82,5.087l0,0l13.925,13.753c0.532,0.541,1.26,0.874,2.03,0.882l0,0
			c0.021,0,0.037-0.001,0.048-0.001l0,0C90.87,78.862,90.877,78.863,90.877,78.863L90.877,78.863z"/>
		<path fill="#F4F4F4" d="M77.172,133.283c-3.58-1.501-6.106-5.022-6.147-9.114l0,0c-0.004-0.071-0.002-0.119-0.002-0.137l0,0
			c0-2.435,0.874-4.679,2.324-6.414l0,0l0.029-0.035l13.966-13.79c0.87-0.89,2.085-1.455,3.426-1.482l0,0
			c0.053-0.004,0.081-0.004,0.093-0.002l0,0c0.006,0,0.01,0,0.01,0l0,0c1.507,0,2.868,0.678,3.774,1.747l0,0l14.072,13.353
			l0.041,0.047c1.414,1.706,2.271,3.899,2.295,6.328l0,0c0,0,0,0.014,0,0.055l0,0c0,3.646-1.954,6.849-4.922,8.628l0,0
			c-3.087,1.643-5.99,2.345-13.919,2.41l0,0c-0.757,0.006-1.497,0.012-2.221,0.012l0,0C84.676,134.879,80.28,134.666,77.172,133.283
			L77.172,133.283z M73.021,124.033c0,0.041,0,0.045,0.002,0.082l0,0c0.031,3.304,2.058,6.121,4.947,7.336l0,0
			c2.524,1.156,6.777,1.451,12.021,1.438l0,0c0.714,0,1.45-0.004,2.203-0.01l0,0c7.904-0.09,10.21-0.718,12.955-2.152l0,0
			c2.342-1.407,3.903-3.967,3.903-6.888l0,0c0-0.021,0-0.06,0-0.078l0,0c-0.02-1.9-0.691-3.628-1.805-4.992l0,0l-14.025-13.307
			l0.688-0.724l0.769-0.641l-0.769,0.641l-0.688,0.724l-0.047-0.045l-0.035-0.041c-0.546-0.655-1.356-1.066-2.271-1.066l0,0h-0.024
			c-0.818,0.01-1.544,0.344-2.089,0.896l0,0L74.85,118.938C73.707,120.325,73.023,122.097,73.021,124.033L73.021,124.033z"/>
	</g>
	<g>
		<path fill="#F4F4F4" d="M116.906,109.306l-0.049-0.041l-13.351-14.071c-1.067-0.906-1.746-2.265-1.746-3.77l0,0
			c0.001,0-0.004-0.023,0.003-0.108l0,0c0.027-1.34,0.591-2.556,1.47-3.417l0,0l13.806-13.979l0.031-0.026
			c1.736-1.448,3.978-2.321,6.409-2.321l0,0c0.021,0,0.069-0.002,0.106,0.002l0,0c4.126,0.039,7.647,2.568,9.139,6.124l0,0
			c1.395,3.133,1.605,7.535,1.615,12.857l0,0c0,0.72-0.004,1.454-0.01,2.205l0,0c-0.065,7.929-0.769,10.833-2.438,13.967l0,0
			c-1.752,2.921-4.955,4.873-8.602,4.873l0,0c-0.041,0-0.055,0-0.1,0.002l0,0C120.804,111.581,118.611,110.72,116.906,109.306
			L116.906,109.306z M123.164,109.604c0.065-0.002,0.104-0.002,0.125-0.002l0,0c2.921,0,5.481-1.561,6.86-3.855l0,0
			c1.462-2.795,2.091-5.1,2.18-13.002l0,0c0.006-0.749,0.01-1.479,0.01-2.188l0,0c0.012-5.25-0.281-9.51-1.45-12.06l0,0
			c-1.204-2.864-4.021-4.892-7.36-4.924l0,0c0,0.002-0.008,0-0.051,0.002l0,0c-1.94,0-3.712,0.687-5.1,1.834l0,0l-13.734,13.907
			c-0.541,0.534-0.875,1.261-0.883,2.081l0,0v0.057l-0.001,0.011c0.014,0.894,0.421,1.69,1.064,2.227l0,0l-0.638,0.769l-0.724,0.688
			l0.724-0.688l0.638-0.769l0.045,0.035l13.358,14.078C119.59,108.913,121.314,109.583,123.164,109.604L123.164,109.604z"/>
		<path fill="#F4F4F4" d="M50.158,106.681c-1.642-3.086-2.344-5.991-2.409-13.918l0,0c-0.01-0.755-0.015-1.493-0.015-2.213l0,0
			c0.013-5.32,0.223-9.72,1.61-12.827l0,0c1.499-3.58,5.02-6.109,9.108-6.148l0,0c0.075-0.004,0.12-0.002,0.143-0.002l0,0
			c2.434,0,4.675,0.873,6.414,2.321l0,0l0.039,0.033L78.832,87.89c0.902,0.883,1.469,2.121,1.481,3.533l0,0c0,0,0,0.004,0.002,0.004
			l0,0c0,1.504-0.68,2.861-1.746,3.767l0,0L65.22,109.265l-0.051,0.041c-1.706,1.414-3.898,2.274-6.324,2.294l0,0
			c0,0-0.019,0-0.059,0.002l0,0C55.139,111.601,51.937,109.648,50.158,106.681L50.158,106.681z M58.511,73.574
			c-3.305,0.031-6.122,2.058-7.335,4.947l0,0c-1.159,2.523-1.452,6.782-1.44,12.029l0,0c0,0.714,0.004,1.442,0.012,2.193l0,0
			c0.09,7.905,0.716,10.209,2.152,12.957l0,0c1.406,2.342,3.965,3.902,6.887,3.902l0,0c0.018,0,0.061,0,0.082,0l0,0
			c1.892-0.018,3.618-0.688,4.98-1.798l0,0l13.315-14.033l0.035-0.037l0.051-0.043c0.655-0.545,1.065-1.354,1.065-2.264l0,0
			c0,0-0.002-0.015,0-0.033l0,0c-0.008-0.818-0.343-1.544-0.896-2.089l0,0L63.69,75.399c-1.39-1.142-3.158-1.826-5.095-1.828l0,0
			C58.554,73.572,58.55,73.572,58.511,73.574L58.511,73.574z"/>
	</g>
</g>
<path fill="#F4F4F4" d="M62.394,118.998l19.501-25.407l0.043-0.043c0.251-0.216,0.553-1.023,0.537-1.897l0,0
	c0.006-0.804-0.219-1.64-0.537-2.083l0,0L62.232,64.353l1.397-1.409l25.339,19.447c0.719,0.472,1.438,0.681,2.137,0.681l0,0
	c0.675,0,1.344-0.197,1.995-0.616l0,0l25.174-19.674l1.409,1.395l-19.498,25.401c-0.369,0.421-0.678,1.229-0.671,2.063l0,0
	c0,0.699,0.196,1.399,0.625,1.967l0,0l19.706,25.217l-1.397,1.409l-25.33-19.445c-0.357-0.28-1.315-0.522-2.216-0.51l0,0
	c-0.89-0.027-1.772,0.263-1.882,0.41l0,0l-25.218,19.706L62.394,118.998L62.394,118.998z M68.773,113.973l18.979-14.829
	c0.864-0.688,1.962-0.837,3.151-0.864l0,0c1.183,0.012,2.41,0.21,3.408,0.906l0,0l19.114,14.67l-14.872-19.03
	c-0.735-0.977-1.04-2.118-1.04-3.186l0,0c0.008-1.282,0.411-2.485,1.123-3.322l0,0l14.674-19.12L94.262,84.085l-0.039,0.027
	c-0.952,0.627-2.028,0.962-3.118,0.962l0,0c-1.131,0-2.265-0.359-3.286-1.043l0,0l0.558-0.832l-0.61,0.792l-19.114-14.67
	l14.891,19.056c0.668,0.964,0.927,2.142,0.933,3.273l0,0c-0.016,1.207-0.28,2.389-1.071,3.255l0,0L68.773,113.973L68.773,113.973z"
	/>
<path fill="#F4F4F4" d="M38.913,91.589c0.002-28.79,23.338-52.125,52.125-52.125l0,0c28.788,0,52.124,23.336,52.125,52.125l0,0
	c-0.002,28.788-23.338,52.124-52.125,52.124l0,0C62.25,143.712,38.915,120.376,38.913,91.589L38.913,91.589z M55.595,56.144
	c-9.072,9.075-14.681,21.6-14.681,35.445l0,0c0,13.844,5.609,26.369,14.681,35.443l0,0c9.075,9.072,21.598,14.68,35.443,14.68l0,0
	c13.844,0,26.369-5.607,35.443-14.68l0,0c9.072-9.074,14.682-21.599,14.682-35.443l0,0c0-13.846-5.609-26.371-14.682-35.445l0,0
	c-9.074-9.072-21.6-14.679-35.443-14.681l0,0C77.192,41.464,64.669,47.071,55.595,56.144L55.595,56.144z"/>
<path fill="#F4F4F4" d="M309.597,303.392v-0.933v-0.932h17.869c5.19-0.011,9.39-4.209,9.399-9.4l0,0
	c-0.01-5.192-4.209-9.392-9.399-9.402l0,0h-17.869c-5.192,0.011-9.392,4.21-9.402,9.402l0,0c0.011,5.191,4.21,9.39,9.402,9.4l0,0
	v0.932V303.392c-6.222,0-11.267-5.044-11.267-11.265l0,0c0-6.224,5.045-11.267,11.267-11.267l0,0h17.869
	c6.222,0,11.265,5.043,11.265,11.267l0,0c0,6.221-5.043,11.265-11.265,11.265l0,0H309.597L309.597,303.392z"/>
<path fill="#F4F4F4" d="M254.845,301.461v-1.003v-0.999h17.667c3.636-0.007,6.578-2.946,6.584-6.582l0,0
	c-0.006-3.637-2.948-6.578-6.584-6.584l0,0h-17.667c-3.634,0.006-6.576,2.947-6.582,6.584l0,0c0.006,3.636,2.948,6.575,6.582,6.582
	l0,0v0.999V301.461c-4.741-0.003-8.582-3.844-8.582-8.584l0,0c0-4.741,3.841-8.584,8.582-8.584l0,0h17.667
	c4.741,0,8.583,3.843,8.583,8.584l0,0c0,4.74-3.843,8.581-8.583,8.584l0,0H254.845L254.845,301.461z"/>
<path fill="#F4F4F4" d="M204.68,301.461v-1.003v-0.999h17.667c3.634-0.007,6.576-2.946,6.582-6.582l0,0
	c-0.006-3.637-2.948-6.578-6.582-6.584l0,0H204.68c-3.636,0.006-6.578,2.947-6.584,6.584l0,0c0.006,3.636,2.948,6.575,6.584,6.582
	l0,0v0.999V301.461c-4.741-0.003-8.583-3.844-8.583-8.584l0,0c0-4.741,3.841-8.584,8.583-8.584l0,0h17.667
	c4.741,0,8.582,3.843,8.582,8.584l0,0c0,4.74-3.841,8.581-8.582,8.584l0,0H204.68L204.68,301.461z"/>
</svg>
