<?xml version="1.0" encoding="UTF-8" standalone="no"?>
<!-- Generator: Adobe Illustrator 21.0.0, SVG Export Plug-In . SVG Version: 6.00 Build 0)  -->

<svg
   xmlns:dc="http://purl.org/dc/elements/1.1/"
   xmlns:cc="http://creativecommons.org/ns#"
   xmlns:rdf="http://www.w3.org/1999/02/22-rdf-syntax-ns#"
   xmlns:svg="http://www.w3.org/2000/svg"
   xmlns="http://www.w3.org/2000/svg"
   xmlns:sodipodi="http://sodipodi.sourceforge.net/DTD/sodipodi-0.dtd"
   xmlns:inkscape="http://www.inkscape.org/namespaces/inkscape"
   version="1.1"
   id="Layer_1"
   x="0px"
   y="0px"
   viewBox="0 0 337.52856 42.415882"
   xml:space="preserve"
   sodipodi:docname="system.svg"
   inkscape:version="0.92.4 (5da689c313, 2019-01-14)"
   width="337.52856"
   height="42.415882"><metadata
   id="metadata37"><rdf:RDF><cc:Work
       rdf:about=""><dc:format>image/svg+xml</dc:format><dc:type
         rdf:resource="http://purl.org/dc/dcmitype/StillImage" /><dc:title /></cc:Work></rdf:RDF></metadata><defs
   id="defs35" /><sodipodi:namedview
   pagecolor="#ffffff"
   bordercolor="#666666"
   borderopacity="1"
   objecttolerance="10"
   gridtolerance="10"
   guidetolerance="10"
   inkscape:pageopacity="0"
   inkscape:pageshadow="2"
   inkscape:window-width="2736"
   inkscape:window-height="1699"
   id="namedview33"
   showgrid="false"
   inkscape:zoom="6.123934"
   inkscape:cx="169.00606"
   inkscape:cy="102.14307"
   inkscape:window-x="-13"
   inkscape:window-y="-13"
   inkscape:window-maximized="1"
   inkscape:current-layer="layer1" />
<style
   type="text/css"
   id="style2">
	.st0{fill:#FFE700;}
	.st1{fill:#00A2E7;}
</style>




<g
   inkscape:groupmode="layer"
   id="layer1"
   inkscape:label="Layer 1"
   transform="translate(-6.28492,-169.89188)"><path
     inkscape:connector-curvature="0"
     d="m 134.88826,184.60776 c -1.6,0 -2.9,0.6 -4,1.7 -1.1,1.1 -1.7,2.5 -1.7,4 0,1.6 0.6,2.9 1.7,4 1.1,1.1 2.5,1.7 4,1.7 1.6,0 2.9,-0.6 4,-1.7 1.1,-1.1 1.7,-2.4 1.7,-4 0,-1.6 -0.6,-2.9 -1.7,-4 -1.1,-1.2 -2.4,-1.7 -4,-1.7 z m 108.7,-14 c -5.9,-0.2 -10.8,1.6 -14.9,5.6 -4,3.9 -6,8.9 -6,14.8 0,5.3 1.5,9.8 4.6,13.7 3.9,4.9 9.5,7.3 16.6,7.3 7.2,0 12.7,-2.5 16.6,-7.6 3,-3.8 4.4,-8.3 4.4,-13.3 0,-5.9 -2,-10.8 -6,-14.8 -3.8,-4.1 -9,-5.9 -15.3,-5.7 z m 9.4,31.7 c -1,2.8 -2.3,4.8 -4,6 -1.4,1 -3,1.5 -5,1.5 -3,0 -5.3,-1.1 -7,-3.4 -2.4,-3.3 -3.6,-8.3 -3.6,-15.1 0,-5.7 0.8,-10.1 2.3,-13.2 1.9,-3.7 4.7,-5.6 8.3,-5.6 2,0 3.7,0.5 5.2,1.6 1.5,1.1 2.8,2.9 3.7,5.5 1,2.6 1.5,6.6 1.5,11.8 0,4.5 -0.5,8.1 -1.4,10.9 z m -66.6,-8 h -19.4 v 1 h 1 c 1,0 1.8,0.2 2.4,0.6 0.7,0.4 1.1,0.8 1.3,1.3 0.2,0.5 0.3,1.5 0.3,3.1 v 8.3 c -1.1,0.4 -2.1,0.7 -3.1,0.9 -1,0.2 -2,0.3 -2.9,0.3 -2.8,0 -5.1,-0.7 -7.1,-2 -2,-1.4 -3.4,-3.5 -4.3,-6.3 -0.9,-2.9 -1.3,-6.2 -1.3,-10 0,-3.2 0.4,-6.2 1.2,-9.2 0.8,-3 2.2,-5.3 4.2,-7 2,-1.7 4.5,-2.5 7.4,-2.5 3.1,0 6,1 8.6,3 2.6,2 4.6,4.9 5.9,8.8 h 1 v -14.1 h -1 c -0.4,1.1 -0.8,1.9 -1.3,2.3 -0.5,0.4 -1,0.6 -1.5,0.6 -0.4,0 -1.5,-0.4 -3.4,-1.1 -1.9,-0.7 -3.3,-1.2 -4.2,-1.3 -1.6,-0.3 -3.4,-0.5 -5.4,-0.5 -6.4,0 -11.7,2.1 -15.9,6.2 -4.2,4.1 -6.3,9.2 -6.3,15.2 0,3.3 0.7,6.4 2.1,9.1 1.1,2.1 2.6,4 4.5,5.7 1.9,1.7 4.1,3 6.6,4.1 2.5,1 5.6,1.5 9.4,1.5 3,0 5.8,-0.3 8.6,-0.9 2.8,-0.6 5.4,-1.4 8,-2.6 v -8.3 c 0,-1.5 0.1,-2.4 0.3,-2.8 0.3,-0.7 0.8,-1.2 1.3,-1.5 0.6,-0.3 1.6,-0.5 3.1,-0.6 v -1.3 z m -80.9,-23.7 c -5.900004,-0.2 -10.800003,1.6 -14.900003,5.6 -4,3.9 -6,8.9 -6,14.8 0,5.3 1.5,9.8 4.6,13.7 3.9,4.9 9.499999,7.3 16.600003,7.3 7.2,0 12.7,-2.5 16.6,-7.6 3,-3.8 4.4,-8.3 4.4,-13.3 0,-5.9 -2,-10.8 -6,-14.8 -3.8,-4.1 -8.9,-5.9 -15.3,-5.7 z m 9.4,31.7 c -1,2.8 -2.3,4.8 -4,6 -1.4,1 -3,1.5 -5,1.5 -3,0 -5.3,-1.1 -7.000004,-3.4 -2.399999,-3.3 -3.599999,-8.3 -3.599999,-15.1 0,-5.7 0.8,-10.1 2.3,-13.2 1.899999,-3.7 4.700003,-5.6 8.300003,-5.6 2,0 3.7,0.5 5.2,1.6 1.5,1.1 2.8,2.9 3.7,5.5 1,2.6 1.5,6.6 1.5,11.8 0,4.5 -0.5,8.1 -1.4,10.9 z m 100.2,4 c -2.2,1.7 -5.2,2.6 -8.9,2.6 h -2.4 c -1.1,0 -2,-0.2 -2.5,-0.5 -0.5,-0.3 -0.9,-0.7 -1,-1.2 -0.2,-0.5 -0.3,-1.8 -0.3,-4 v -11.2 c 1.9,0 3.4,0.3 4.4,0.8 1,0.5 1.9,1.5 2.6,2.9 0.8,1.5 1.2,3.3 1.5,5.6 h 1.1 v -20.9 h -1.1 c -0.3,3.1 -1,5.4 -2.2,7 -1.1,1.6 -3,2.4 -5.5,2.4 h -0.8 v -16.3 h 4.1 c 3,0 5.1,0.2 6.2,0.5 1.9,0.6 3.3,1.5 4.4,2.8 1,1.3 1.8,3.3 2.4,6.2 h 1.1 v -11.8 h -33.4 v 1 h 1.3 c 1.3,0 2.3,0.3 3,0.8 0.5,0.4 0.9,0.9 1.1,1.6 0.1,0.4 0.1,1.5 0.1,3.4 v 26.3 c 0,2 -0.1,3.3 -0.3,3.7 -0.3,0.7 -0.7,1.1 -1.2,1.4 -0.7,0.4 -1.6,0.6 -2.8,0.6 h -1.3 v 1 h 34.4 l 1.8,-12.7 h -1.1 c -0.8,3.6 -2.4,6.3 -4.7,8 z m -138.000003,0 c -2.2,1.7 -5.2,2.6 -8.9,2.6 h -2.4 c -1.1,0 -2,-0.2 -2.5,-0.5 -0.5,-0.3 -0.9,-0.7 -1,-1.2 -0.2,-0.5 -0.3,-1.8 -0.3,-4 v -11.2 c 1.9,0 3.4,0.3 4.4,0.8 1,0.5 1.9,1.5 2.6,2.9 0.8,1.5 1.2,3.3 1.5,5.6 h 1.1 v -20.9 h -1.2 c -0.3,3.1 -1,5.4 -2.2,7 -1.1,1.6 -3,2.4 -5.5,2.4 h -0.8 v -16.3 h 4.1 c 3,0 5.1,0.2 6.2,0.5 1.9,0.6 3.3,1.5 4.4,2.8 1,1.3 1.8,3.3 2.4,6.2 h 1.1 v -11.8 h -45.8 v 1 c 2.2,0 3.8,0.5 4.8,1.7 0.7,0.8 1,2.5 1,4.9 v 17.1 l -19.7,-24.7 H 6.2882574 v 1 c 1.2,0 2.1,0.2 2.8000001,0.6 0.6,0.3 1.3999995,1 2.1999995,2.1 l 0.9,1.1 v 28.1 c 0,2.1 -0.4,3.7 -1.3,4.6 -0.8999995,0.9 -2.3999996,1.4 -4.5999996,1.4 v 1 H 20.488257 v -1 h -0.9 c -1.4,0 -2.6,-0.4 -3.6,-1.2 -1,-0.8 -1.6,-2.4 -1.6,-4.7 v -25.4 l 26.9,33.2 h 1 v -33.2 c 0,-1.9 0.2,-3.2 0.5,-4 0.3,-0.8 0.8,-1.3 1.3,-1.7 0.6,-0.3 1.7,-0.6 3.4,-0.8 h 0.6 c 1.3,0 2.3,0.3 3,0.8 0.5,0.4 0.9,0.9 1.1,1.6 0.1,0.4 0.1,1.5 0.1,3.4 v 26.3 c 0,2 -0.1,3.3 -0.3,3.7 -0.3,0.7 -0.7,1.1 -1.2,1.4 -0.7,0.4 -1.6,0.6 -2.8,0.6 h -1.3 v 1 h 34.4 l 1.8,-12.7 h -1.1 c -0.9,3.5 -2.5,6.2 -4.7,7.9 z m 248.800003,-31.9 c -1.3,-0.6 -3.4,-0.8 -6.4,-0.8 v 29.4 c 0,1.5 0.1,2.4 0.2,2.8 0.1,0.3 0.4,0.6 0.7,0.8 0.5,0.3 1.2,0.4 2.1,0.4 3,0 5.3,-1 6.9,-3.1 2.1,-2.8 3.2,-7.4 3.2,-13.3 0,-4.7 -0.7,-8.4 -2.2,-11.3 -1.2,-2.1 -2.7,-4.1 -4.5,-4.9 z m 2.2,28.5 c -1.3,1.7 -3.1,2.5 -5.6,2.5 -0.9,0 -1.2,-0.2 -1.3,-0.2 v 0 c 0,-0.2 -0.1,-0.7 -0.1,-2.2 v -27.8 c 2.4,0.1 3.6,0.4 4.2,0.7 1.5,0.7 2.7,2.4 3.7,4.3 1.3,2.6 2,6.1 2,10.5 0,5.3 -1,9.7 -2.9,12.2 z m 13.1,-23.3 c -1.8,-3.2 -4.6,-6.2 -8.1,-7.8 -2.9,-1.3 -6.6,-1.9 -11.2,-1.9 h -16.5 -4 l -0.2,1.4 c -0.1,0.8 -0.3,1 -0.4,1.1 -0.1,0.1 -0.2,0.2 -0.4,0.2 -0.1,0 -0.6,-0.1 -2.6,-0.9 -3,-1.2 -6,-1.8 -8.7,-1.8 -3.7,0 -7.3,0.9 -10.6,2.8 -3.3,1.9 -6,4.5 -8,7.9 -2,3.4 -3,7 -3,10.7 0,3.6 0.9,7 2.7,10.1 1.8,3.2 4.4,5.7 7.7,7.4 3.2,1.7 7,2.5 11.1,2.5 3.2,0 6,-0.5 8.4,-1.6 2.4,-1 4.7,-2.7 6.9,-5 l 0.4,-0.5 v -8.1 l -2.8,3.3 c -2,2.3 -3.9,3.9 -5.6,4.8 -1.7,0.9 -3.5,1.3 -5.6,1.3 -2.4,0 -4.4,-0.6 -5.8,-1.7 -1.5,-1.2 -2.6,-2.9 -3.3,-5.3 -0.8,-2.5 -1.2,-5.4 -1.2,-8.5 0,-3.1 0.5,-5.9 1.6,-8.4 0.8,-1.9 1.9,-3.3 3.6,-4.4 1.6,-1.1 3.4,-1.7 5.4,-1.7 2.4,0 4.4,0.7 6.3,2.3 1.9,1.5 3.2,3.8 3.9,6.8 l 0.3,1.2 h 3.9 v -11.8 h 1.3 c 0.9,0 1.4,0.2 1.6,0.3 0.4,0.2 0.5,0.4 0.5,0.5 0,0.1 0.2,1.6 0.2,3.8 v 24.1 c 0,2 -0.1,2.6 -0.1,2.8 -0.1,0.2 -0.3,0.4 -0.6,0.6 -0.2,0.1 -0.6,0.3 -1.6,0.3 h -2.8 v 4.1 h 17.9 c 2.5,0 4.3,-0.1 5.5,-0.4 2.6,-0.5 4.9,-1.2 6.7,-2.1 1.9,-0.9 3.6,-2.2 5,-3.7 1.4,-1.6 2.6,-3.5 3.5,-5.9 0.9,-2.3 1.3,-5.3 1.3,-8 0.2,-4 -0.8,-7.6 -2.6,-10.8 z m -37.3,4.7 h -1 c -0.8,-3.3 -2.3,-5.9 -4.4,-7.6 -2.2,-1.8 -4.6,-2.6 -7.3,-2.6 -2.3,0 -4.4,0.7 -6.3,2 -1.9,1.3 -3.3,3 -4.2,5.1 -1.1,2.7 -1.7,5.7 -1.7,9.1 0,3.3 0.4,6.2 1.2,8.9 0.8,2.7 2.1,4.7 3.9,6.1 1.8,1.4 4,2.1 6.8,2.1 2.3,0 4.4,-0.5 6.3,-1.5 1.9,-1 3.9,-2.7 6,-5.2 v 3.2 c -2,2.1 -4.2,3.7 -6.4,4.7 -2.2,1 -4.8,1.4 -7.8,1.4 -3.9,0 -7.4,-0.8 -10.4,-2.3 -3,-1.6 -5.4,-3.8 -7,-6.7 -1.6,-2.9 -2.5,-6 -2.5,-9.4 0,-3.5 0.9,-6.8 2.7,-9.9 1.8,-3.1 4.3,-5.6 7.4,-7.3 3.1,-1.7 6.4,-2.6 9.9,-2.6 2.6,0 5.3,0.6 8.1,1.7 1.7,0.6 2.7,1 3.2,1 0.6,0 1.1,-0.2 1.5,-0.6 0.4,-0.4 0.7,-1.1 0.8,-2 h 1 v 12.4 z m 37.2,13.6 c -0.8,2.2 -1.9,4 -3.2,5.4 -1.3,1.4 -2.8,2.5 -4.5,3.4 -1.7,0.9 -3.8,1.5 -6.3,2 -1.1,0.2 -2.8,0.3 -5.2,0.3 h -16.3 v -0.9 h 1.2 c 1.1,0 1.9,-0.2 2.4,-0.5 0.6,-0.3 1,-0.8 1.2,-1.4 0.2,-0.4 0.2,-1.5 0.2,-3.4 v -24.1 c 0,-1.9 -0.1,-3.9 -0.3,-4.4 -0.2,-0.5 -0.6,-0.9 -1.2,-1.2 -0.6,-0.4 -1.4,-0.5 -2.4,-0.5 h -1.2 v -1.1 h 16.3 c 4.4,0 7.9,0.6 10.5,1.8 3.3,1.5 5.7,4.1 7.4,7.1 1.7,2.9 2.5,6.3 2.5,10 0.2,2.6 -0.3,5.3 -1.1,7.5 z"
     id="path10" /><path
     style="fill:#777777;fill-opacity:1;stroke:#777777;stroke-width:0.16329373;stroke-opacity:1"
     d="m 103.52634,211.86403 c -6.521102,-0.66589 -11.254643,-3.17638 -14.747946,-7.82177 -1.124421,-1.49526 -2.696665,-4.6829 -3.221662,-6.53175 -1.483559,-5.22458 -1.088107,-11.0294 1.058258,-15.53416 1.03566,-2.17363 1.900716,-3.42163 3.595692,-5.18743 2.965192,-3.0891 6.185576,-4.89706 10.213068,-5.73373 1.77027,-0.36776 6.08754,-0.50078 8.39879,-0.25877 5.18821,0.54323 8.45643,2.08848 11.88061,5.61728 2.59458,2.67386 3.98288,4.8919 4.95421,7.91516 0.82741,2.57535 1.01973,4.13321 0.93179,7.54801 -0.0695,2.69965 -0.13133,3.22654 -0.58124,4.95414 -0.57862,2.22181 -1.84507,4.9782 -3.08821,6.72137 -3.16026,4.4314 -7.35157,7.0723 -12.69832,8.00105 -1.45949,0.25351 -5.44386,0.43836 -6.69504,0.3106 z m 4.72873,-2.27488 c 3.2881,-0.85644 5.84282,-3.91646 7.01672,-8.40453 0.80697,-3.08524 0.98699,-4.91667 0.98712,-10.04257 1.3e-4,-5.02072 -0.13676,-6.61869 -0.81132,-9.47103 -1.42956,-6.04484 -4.6923,-9.22127 -9.47185,-9.22127 -2.47387,0 -4.54471,0.86131 -6.286807,2.61483 -2.090887,2.1046 -3.268609,4.88652 -4.030168,9.51976 -0.383578,2.33364 -0.474463,9.14424 -0.15833,11.86476 0.873718,7.51889 3.662962,12.10597 8.001065,13.15824 1.19082,0.28885 3.61031,0.27959 4.75357,-0.0182 z"
     id="path4681"
     inkscape:connector-curvature="0" /><path
     style="fill:#777777;fill-opacity:1;stroke:#777777;stroke-width:0.16329373;stroke-opacity:1"
     d="m 27.903004,195.35512 -13.453397,-16.60688 -0.04178,13.45578 c -0.04596,14.80205 -0.05561,14.63695 0.940382,16.08458 0.701041,1.01893 2.197395,1.73631 3.841839,1.84184 1.152141,0.0739 1.219779,0.0997 1.219779,0.46504 v 0.38676 h -7.02163 -7.0216301 v -0.40823 c 0,-0.35659 0.071296,-0.40824 0.5634905,-0.40824 1.6892484,0 3.5917196,-0.79563 4.3258956,-1.80913 0.986987,-1.3625 0.989188,-1.40175 0.989188,-17.63997 V 175.9859 l -0.643594,-0.83155 C 10.093033,173.20528 8.9259623,172.41492 7.22386,172.1897 6.4625921,172.08896 6.3665679,172.03289 6.3665679,171.68906 v -0.3872 h 6.9931511 6.993151 l 9.866927,12.36695 9.866926,12.36694 0.04967,-1.30379 c 0.02732,-0.71709 0.02372,-5.23509 -0.008,-10.04001 -0.05145,-7.7954 -0.08855,-8.82951 -0.344428,-9.6025 -0.547459,-1.65382 -2.090487,-2.6675 -4.424457,-2.90662 -0.984552,-0.10087 -1.069713,-0.1403 -1.069713,-0.49528 v -0.38569 h 22.861122 22.861122 v 5.79693 5.79693 h -0.486771 c -0.398947,0 -0.504043,-0.081 -0.582516,-0.44906 -0.575359,-2.69847 -1.837431,-5.4109 -2.992483,-6.43139 -2.334521,-2.06256 -4.575345,-2.59016 -11.002076,-2.59045 l -3.061758,-1.4e-4 v 8.24634 8.24633 l 0.775645,-0.003 c 1.122668,-0.004 2.816482,-0.39863 3.756478,-0.87496 1.964995,-0.99574 3.538235,-4.04467 3.897761,-7.55383 l 0.10649,-1.03941 h 0.548977 0.548979 v 10.36916 10.36915 h -0.482482 c -0.431555,0 -0.492646,-0.0646 -0.57877,-0.61235 -0.61589,-3.91679 -1.909433,-6.56051 -3.732825,-7.62909 -0.799829,-0.46873 -2.187432,-0.83444 -3.73802,-0.98516 l -1.102233,-0.10714 0.005,6.58557 c 0.0052,6.78228 0.120597,8.65814 0.575365,9.3522 0.528625,0.80678 1.554953,1.12203 3.913339,1.20201 5.225685,0.17723 8.851755,-0.86004 11.432803,-3.27045 1.731288,-1.61683 3.122593,-3.99502 3.823706,-6.53594 0.191893,-0.69545 0.26248,-0.77565 0.682682,-0.77565 0.257762,0 0.468952,0.0551 0.469309,0.12247 0.0011,0.21021 -1.635045,11.69604 -1.721331,12.08374 l -0.08177,0.36741 H 63.842849 46.700119 v -0.40823 c 0,-0.39827 0.02919,-0.40824 1.195065,-0.40824 2.258951,0 3.595861,-0.67365 4.141071,-2.08664 0.280604,-0.72722 0.297497,-1.68894 0.297497,-16.93708 0,-8.89134 -0.05509,-16.36249 -0.122423,-16.60255 -0.178485,-0.63635 -0.882586,-1.40511 -1.653525,-1.80538 -1.020398,-0.52978 -3.230713,-0.59299 -5.009194,-0.14325 -1.105181,0.27947 -1.485288,0.46063 -1.979925,0.94363 -1.272814,1.24287 -1.190497,-0.10201 -1.240116,20.26108 l -0.04427,18.16642 h -0.463951 c -0.418507,0 -1.781708,-1.62664 -13.917348,-16.60688 z"
     id="path4683"
     inkscape:connector-curvature="0" /><path
     style="fill:#777777;fill-opacity:1;stroke:#777777;stroke-width:0.16329373;stroke-opacity:1"
     d="m 133.56084,195.73594 c -1.56636,-0.42234 -3.00078,-1.59417 -3.76534,-3.07606 -0.54477,-1.05589 -0.61233,-3.01735 -0.14647,-4.25245 0.45936,-1.21787 1.70494,-2.58503 2.87805,-3.15898 1.20424,-0.58919 2.78664,-0.70689 4.07124,-0.30283 1.2632,0.39733 2.72886,1.74359 3.36822,3.09385 0.62906,1.32851 0.65822,3.16888 0.0702,4.43172 -0.74075,1.5909 -2.05976,2.74431 -3.69297,3.22932 -1.0216,0.30338 -1.75454,0.31271 -2.78295,0.0354 z"
     id="path4685"
     inkscape:connector-curvature="0" /><path
     style="fill:#777777;fill-opacity:1;stroke:#777777;stroke-width:0.16329373;stroke-opacity:1"
     d="m 162.23043,212.11921 c -3.19433,-0.28273 -5.40361,-0.86779 -7.8381,-2.07568 -5.26315,-2.61137 -9.13689,-6.87012 -10.75342,-11.82222 -0.73265,-2.24444 -0.97793,-4.28342 -0.86926,-7.22628 0.101,-2.73527 0.31204,-3.99861 1.02046,-6.10898 1.91705,-5.71079 6.76604,-10.66533 12.59598,-12.87015 2.29764,-0.86894 4.31466,-1.22358 7.50898,-1.32025 4.24593,-0.12849 6.05293,0.14912 10.01086,1.53799 3.24783,1.13968 3.83718,1.28798 4.47872,1.12696 0.64611,-0.16216 1.4579,-0.97345 1.8837,-1.88255 0.33253,-0.70997 0.45495,-0.82936 0.85042,-0.82936 h 0.46197 v 6.93998 6.93999 h -0.47722 c -0.4075,0 -0.50606,-0.0895 -0.67462,-0.61235 -0.10858,-0.3368 -0.52153,-1.28347 -0.91768,-2.10372 -1.73286,-3.58795 -4.22394,-6.12754 -7.57651,-7.72406 -1.87002,-0.89051 -3.00029,-1.16538 -5.22325,-1.27024 -6.33519,-0.29884 -10.69533,3.21596 -12.40957,10.00362 -0.94927,3.75869 -1.27697,7.66431 -0.97866,11.66395 0.44789,6.00501 1.71883,9.71321 4.17168,12.17162 2.01362,2.01818 4.41192,2.9969 7.69079,3.13854 2.18087,0.0942 3.47042,-0.0693 5.59166,-0.7088 l 1.362,-0.41064 -0.0651,-5.41974 c -0.0463,-3.85616 -0.12441,-5.56107 -0.27064,-5.90963 -0.52562,-1.25286 -1.9305,-2.03708 -3.65376,-2.03957 l -1.10223,-0.002 v -0.48988 -0.48988 h 9.72583 9.72583 l -0.0507,0.61235 -0.0507,0.61235 -1.03313,0.11395 c -0.56823,0.0627 -1.27983,0.19537 -1.58134,0.29487 -0.70676,0.23325 -1.64296,1.27267 -1.86433,2.06985 -0.10479,0.37737 -0.17361,2.61219 -0.17416,5.65544 l -9.8e-4,5.03152 -1.02058,0.46041 c -2.40546,1.08516 -6.9131,2.27612 -10.24112,2.70579 -2.32408,0.30005 -6.25909,0.41278 -8.2519,0.2364 z"
     id="path4687"
     inkscape:connector-curvature="0" /><path
     style="fill:#777777;fill-opacity:1;stroke:#777777;stroke-width:0.16329373;stroke-opacity:1"
     d="m 184.68332,210.49236 v -0.48988 l 1.34717,-9.8e-4 c 0.74095,-4.9e-4 1.62793,-0.0789 1.97108,-0.17416 0.81136,-0.2253 1.83246,-1.15681 2.10216,-1.9177 0.17003,-0.47965 0.21322,-3.92582 0.21322,-17.01253 0,-15.44695 -0.0171,-16.44238 -0.29162,-16.94494 -0.63937,-1.17062 -2.16087,-1.83384 -4.20699,-1.83384 -0.92765,0 -0.97173,-0.0185 -0.97173,-0.40823 v -0.40824 h 16.65596 16.65596 v 5.80728 5.80727 l -0.50948,-0.0512 c -0.48457,-0.0487 -0.52363,-0.10708 -0.79879,-1.19447 -0.9726,-3.84359 -2.38802,-5.85064 -5.02006,-7.11836 -1.70369,-0.82058 -2.79421,-0.97556 -7.59246,-1.07899 l -4.36811,-0.0942 v 8.26904 8.26904 l 0.8573,-0.003 c 2.1067,-0.007 4.25924,-0.82452 5.26521,-1.99977 1.17459,-1.37225 2.12695,-3.90732 2.45296,-6.52949 0.11178,-0.8991 0.13672,-0.93894 0.5878,-0.93894 h 0.47106 v 10.36916 10.36915 h -0.47311 c -0.45656,0 -0.47974,-0.0386 -0.66223,-1.10224 -0.47983,-2.79676 -1.28077,-4.78918 -2.46695,-6.13675 -1.0843,-1.23182 -2.28593,-1.70893 -5.02691,-1.99593 l -1.03605,-0.10848 0.0645,7.40687 c 0.057,6.53752 0.0974,7.48353 0.34432,8.06004 0.60325,1.40845 1.95968,1.79678 5.82722,1.66826 2.69302,-0.0895 4.46334,-0.38428 6.17365,-1.02804 3.43461,-1.29278 5.85265,-3.97109 7.08775,-7.85066 0.50935,-1.5999 0.55997,-1.68657 0.98597,-1.68779 0.24699,-6.5e-4 0.44935,0.0538 0.44971,0.12119 0.001,0.21021 -1.63504,11.69604 -1.72133,12.08374 l -0.0818,0.36741 h -17.14273 -17.14273 z"
     id="path4689"
     inkscape:connector-curvature="0" /><path
     style="fill:#777777;fill-opacity:1;stroke:#777777;stroke-width:0.16329373;stroke-opacity:1"
     d="m 240.93801,211.79454 c -6.45499,-0.73015 -11.4056,-3.67803 -14.73597,-8.77464 -2.38766,-3.65393 -3.37196,-7.17832 -3.36286,-12.04114 0.006,-3.03921 0.3114,-4.99942 1.13923,-7.30473 1.89704,-5.28283 6.378,-9.85184 11.51645,-11.74274 2.15011,-0.79121 4.01463,-1.1229 6.92056,-1.23113 7.81465,-0.29107 12.92294,1.64098 17.15888,6.48979 3.15924,3.61634 4.70834,7.22295 5.14159,11.97065 0.60778,6.66024 -1.69989,12.99627 -6.35232,17.44117 -2.74035,2.61811 -6.03517,4.26158 -9.91405,4.94517 -1.80073,0.31735 -5.74538,0.44738 -7.51151,0.2476 z m 5.38191,-2.20539 c 4.08886,-1.06501 6.64439,-4.89422 7.71313,-11.55733 0.42127,-2.62644 0.42205,-11.283 0.001,-13.95463 -1.20575,-7.65497 -4.62006,-11.62744 -9.99377,-11.62744 -3.67963,0 -6.54833,1.93422 -8.40166,5.66482 -1.53544,3.09071 -2.29366,7.50498 -2.29394,13.35507 -5.1e-4,10.28676 2.89524,16.70971 8.16455,18.10947 1.19485,0.31741 3.61095,0.32245 4.81038,0.01 z"
     id="path4691"
     inkscape:connector-curvature="0" /><path
     style="fill:#777777;fill-opacity:1;stroke:#777777;stroke-width:0.16329373;stroke-opacity:1"
     d=""
     id="path4693"
     inkscape:connector-curvature="0" /><path
     style="fill:#777777;fill-opacity:1;stroke:#777777;stroke-width:0.16329373;stroke-opacity:1"
     d="m 286.98684,211.11649 c -4.08808,-0.23092 -7.93534,-1.48039 -11.08568,-3.60027 -1.3826,-0.93036 -3.69754,-3.22254 -4.65869,-4.61289 -2.39556,-3.4653 -3.60594,-7.32978 -3.60594,-11.51299 0,-5.798 2.17139,-10.90236 6.42761,-15.10957 1.95364,-1.93115 3.39463,-2.97818 5.63202,-4.09225 3.11603,-1.55157 5.57944,-2.10835 9.33185,-2.10919 3.26199,-7.3e-4 4.88212,0.31085 8.55546,1.64536 1.33756,0.48594 2.59613,0.88352 2.79682,0.88352 0.52309,0 0.68391,-0.27176 0.90204,-1.52431 l 0.19329,-1.11 12.51415,0.0685 c 13.55486,0.0742 13.34061,0.0611 16.75979,1.02454 5.41503,1.52587 9.86756,6.08172 11.984,12.26206 0.78177,2.28291 1.04676,4.38724 0.94271,7.48649 -0.1431,4.26281 -0.76606,6.8851 -2.35674,9.92047 -2.42975,4.6365 -6.16596,7.34647 -12.23664,8.87556 -3.07073,0.77346 -4.98826,0.88 -15.84659,0.88046 l -9.34856,4e-4 v -2.04117 -2.04117 l 2.00035,-6.6e-4 c 1.68497,-4.9e-4 2.08147,-0.0501 2.51489,-0.31436 0.50175,-0.30594 0.51733,-0.35165 0.62632,-1.83644 0.0615,-0.83748 0.0871,-7.73523 0.057,-15.32834 -0.0508,-12.7897 -0.0757,-13.83755 -0.33901,-14.23927 -0.33933,-0.51772 -1.15009,-0.77426 -2.45095,-0.77552 l -0.93894,-8.7e-4 v 5.87858 5.87857 h -1.93354 -1.93354 l -0.20594,-0.93894 c -0.3259,-1.48579 -1.18606,-3.63151 -1.865,-4.65234 -1.30468,-1.96168 -3.58087,-3.66834 -5.73748,-4.30191 -1.44919,-0.42574 -3.92433,-0.40144 -5.38869,0.0529 -2.16763,0.67256 -4.27681,2.21862 -5.3813,3.94458 -1.77862,2.77941 -2.52927,5.86327 -2.53521,10.41529 -0.005,3.53346 0.34191,5.85743 1.3105,8.78885 1.40287,4.24576 3.95251,6.27505 8.23895,6.55746 2.65047,0.17462 5.15276,-0.44055 7.19749,-1.76947 1.86021,-1.209 3.09937,-2.35267 5.31426,-4.90476 l 2.10303,-2.42321 v 3.9623 3.96229 l -1.17187,1.12632 c -4.59523,4.4166 -9.28327,6.02641 -16.3822,5.62541 z m 5.74429,-1.28866 c 3.20994,-0.43889 6.06844,-1.8624 9.15626,-4.55972 l 1.34717,-1.17681 v -1.72486 -1.72487 l -1.7071,1.72582 c -3.51562,3.55416 -6.4253,4.89787 -10.62157,4.90508 -3.3742,0.006 -5.66187,-0.85909 -7.67994,-2.90352 -1.86915,-1.89357 -2.97034,-4.39206 -3.70507,-8.40642 -0.51067,-2.79014 -0.50895,-8.20824 0.003,-10.56652 0.93058,-4.28377 2.4425,-6.95428 5.09869,-9.00587 1.74797,-1.3501 4.22608,-2.14899 6.66607,-2.14899 4.4364,0 8.11807,2.35538 10.20974,6.53175 0.38233,0.7634 0.83654,1.884 1.00934,2.49023 0.29044,1.01896 0.34826,1.10223 0.76528,1.10223 h 0.4511 v -6.28681 -6.2868 h -0.55718 c -0.52819,0 -0.56327,0.0361 -0.67435,0.69356 -0.16041,0.94946 -1.11606,1.91884 -1.89267,1.91985 -0.30245,4e-4 -1.94608,-0.47416 -3.65249,-1.05457 -3.59283,-1.22203 -5.30245,-1.5576 -7.93918,-1.55832 -8.56645,-0.002 -16.07306,5.32952 -18.90257,13.42632 -0.72089,2.06285 -1.02965,3.95148 -1.03305,6.31891 -0.0125,8.6919 5.28676,15.6128 13.58659,17.7443 0.85321,0.21911 1.99219,0.46194 2.53106,0.53962 1.42574,0.20552 6.05549,0.20945 7.54052,0.006 z m 35.56771,-1.27595 c 0.80758,-0.20025 2.00485,-0.54419 2.6606,-0.76431 7.12102,-2.39045 11.30232,-8.54162 11.30232,-16.62702 0,-4.86837 -0.94272,-8.41359 -3.13815,-11.80143 -3.068,-4.73433 -7.02987,-7.04737 -13.22561,-7.72144 -0.92801,-0.10097 -5.5165,-0.17252 -11.06315,-0.17252 h -9.47747 v 0.5431 0.5431 l 1.64064,0.1662 c 1.40172,0.14199 1.74057,0.23633 2.32693,0.64783 1.23197,0.86459 1.16705,-0.0841 1.17188,17.12349 0.004,15.26176 0.002,15.35333 -0.33726,16.0008 -0.50191,0.95687 -1.51812,1.43043 -3.26651,1.5222 l -1.37238,0.072 v 0.47808 0.47809 l 10.65491,-0.0621 c 10.36393,-0.0604 10.69502,-0.072 12.12325,-0.42614 z"
     id="path4695"
     inkscape:connector-curvature="0" /><path
     style="fill:#777777;fill-opacity:1;stroke:#777777;stroke-width:0.16329373;stroke-opacity:1"
     d="m 320.78864,206.67088 c -0.26943,-0.11894 -0.63685,-0.38093 -0.81647,-0.58222 -0.3212,-0.35994 -0.32734,-0.62981 -0.37204,-16.35169 l -0.0454,-15.9857 1.59674,0.006 c 1.72655,0.006 3.70495,0.29994 4.61767,0.68569 2.09725,0.88638 4.54953,4.19915 5.60786,7.57559 0.72119,2.30088 0.95229,4.00108 1.04192,7.66551 0.2422,9.9018 -2.33786,15.75227 -7.48145,16.9647 -1.2839,0.30264 -3.48699,0.31454 -4.14879,0.0224 z m 4.73488,-1.73167 c 2.70865,-1.04835 4.50312,-4.33401 5.23758,-9.58996 0.21046,-1.5061 0.24995,-2.69712 0.18285,-5.51355 -0.0957,-4.01688 -0.37156,-5.74385 -1.32138,-8.27255 -0.74286,-1.97772 -1.46247,-3.13178 -2.80046,-4.49119 -1.31971,-1.34084 -1.96962,-1.61127 -4.38029,-1.82263 l -1.40824,-0.12347 v 15.05694 c 0,11.88791 0.043,15.0762 0.20412,15.14842 0.11226,0.0503 0.9022,0.068 1.7554,0.0392 1.13648,-0.0383 1.81311,-0.1536 2.53042,-0.43122 z"
     id="path4697"
     inkscape:connector-curvature="0" /></g></svg>