<?xml version="1.0" encoding="UTF-8" standalone="no"?>
<!-- Generator: Adobe Illustrator 13.0.0, SVG Export Plug-In . SVG Version: 6.00 Build 14948)  -->
<svg id="Layer_3" xmlns:rdf="http://www.w3.org/1999/02/22-rdf-syntax-ns#" xmlns="http://www.w3.org/2000/svg" xml:space="preserve" height="321.2px" viewBox="0 0 609.555 321.198" width="609.56px" version="1.2" y="0px" x="0px" xmlns:cc="http://creativecommons.org/ns#" xmlns:dc="http://purl.org/dc/elements/1.1/"><metadata id="metadata53"><rdf:RDF><cc:Work rdf:about=""><dc:format>image/svg+xml</dc:format><dc:type rdf:resource="http://purl.org/dc/dcmitype/StillImage"/><dc:title/></cc:Work></rdf:RDF></metadata>
<path id="ellipse3" style="baseline-shift:baseline;block-progression:tb;color:#000000;direction:ltr;text-indent:0;text-align:start;enable-background:accumulate;text-transform:none;" fill="#f4f4f4" d="M223.97,73.705c-38.3-35.404-104.61-25.642-148.12,21.441-43.519,47.084-48.062,113.97-9.759,149.37,38.303,35.41,104.65,25.64,148.17-21.44s48.02-113.97,9.71-149.38zm-1.3576,1.4688c37.33,34.496,33.1,100.11-9.82,146.55-42.93,46.44-108.02,55.83-145.34,21.33-37.322-34.49-33.056-100.1,9.87-146.55,42.925-46.441,107.98-55.826,145.3-21.33z"/>
<path id="ellipse5" style="baseline-shift:baseline;block-progression:tb;color:#000000;direction:ltr;text-indent:0;text-align:start;enable-background:accumulate;text-transform:none;" fill="#f4f4f4" d="M208.2,85.914c-31.45-29.073-86.06-20.843-121.98,18.016-35.92,38.86-39.843,93.94-8.393,123.02,31.45,29.07,86.06,20.84,121.98-18.02s39.84-93.94,8.39-123.02zm-1.3576,1.4686c30.462,28.159,26.827,81.971-8.5035,120.19-35.331,38.22-88.692,46.063-119.15,17.904-30.464-28.15-26.829-81.96,8.501-120.18,35.329-38.224,88.689-46.067,119.15-17.908z"/>
<path id="path7" style="baseline-shift:baseline;block-progression:tb;color:#000000;direction:ltr;text-indent:0;text-align:start;enable-background:accumulate;text-transform:none;" fill="#f4f4f4" d="m296.41,0c-34.97,0-73.008,4.3634-110,14.688-0.71852,0.20867-1.3672,0.7521-1.5,1.4688-0.13283,0.71665,0.17496,1.3144,0.5625,1.75,0,0,6.1257,7.0735,9.7812,10.469,1.658,1.5395,3.1822,3.8186,6.0312,5.3125s6.9198,2.0566,13.406,0.5c12.444-2.9865,60.147-9.3438,78.188-9.3438h23.812c18.04,0,65.742,6.3572,78.188,9.3438,6.486,1.5566,10.526,0.99393,13.375-0.5s4.4049-3.773,6.0625-5.3125c3.6478-3.387,9.5-10.094,9.5-10.094l-1.5312-1.3125s-5.8543,6.7265-9.3125,9.9375c-1.8944,1.7594-3.2715,3.7972-5.625,5.0312-2.3535,1.2341-5.798,1.8009-12,0.3125-12.933-3.1035-60.154-9.4062-78.656-9.4062h-23.812c-18.503,0-65.725,6.3028-78.656,9.4062-6.2026,1.4884-9.6465,0.92157-12-0.3125s-3.73-3.2718-5.625-5.0312c-3.44-3.194-9.55-10.225-9.6-10.284,36.77-10.256,74.62-14.625,109.41-14.625h16.71c35.726,0,74.674,4.6688,112.38,15.531-0.28208,0.32745-8.1816,9.4845-11.531,12.594-1.8603,1.7268-3.4685,3.7456-6.0938,5s-6.3351,1.8308-12.531,0.34375c-12.94-3.104-60.16-9.407-78.66-9.407h-23.812c-18.502,0-65.724,6.3028-78.656,9.4062-6.1967,1.487-9.9059,0.91054-12.531-0.34375-2.6254-1.2543-4.2336-3.2728-6.0938-5-3.4314-3.1861-11.75-12.531-11.75-12.531-1.09-1.239-2.76-1.381-4.1-0.968-42.96,12.879-84.162,33.974-117,65.875-31.239,30.35-52.968,70.69-60.156,109.78-7.1882,39.095,0.20576,77.05,27.438,102.31,30.007,27.836,56.031,30.239,79.469,23.281,23.438-6.9575,44.366-23.066,64.75-32,19.761-8.66,66.65-29.594,111-29.594h39.062c44.35,0,91.239,20.934,111,29.594,20.384,8.9341,41.281,25.043,64.719,32,23.438,6.9575,49.494,4.5544,79.5-23.281,27.232-25.262,34.626-63.218,27.438-102.31-7.19-39.09-28.92-79.43-60.16-109.78-62.7-60.912-155.84-82.5-233.69-82.5h-16.719zm129.62,17.656c43.862,12.709,86.012,33.872,119.38,66.281,30.936,30.052,52.491,70.058,59.594,108.69,7.1026,38.629-0.211,75.794-26.844,100.5-29.63,27.486-54.592,29.653-77.531,22.844-22.939-6.8093-43.773-22.821-64.5-31.906-19.739-8.65-66.835-29.781-111.81-29.781h-39.062c-44.978,0-92.074,21.131-111.81,29.781-20.727,9.0849-41.561,25.097-64.5,31.906-22.951,6.81-47.914,4.64-77.544-22.85-26.632-24.7-33.946-61.87-26.844-100.5,7.1025-38.62,28.658-78.63,59.594-108.68,32.555-31.626,73.444-52.6,116.15-65.407,0.80059-0.24651,1.588-0.14277,2.0312,0.375,0,0,8.2004,9.2756,11.875,12.688,1.6928,1.5718,3.5091,3.87,6.5938,5.3438,3.0846,1.4737,7.3827,2.0267,13.875,0.46875,12.445-2.9865,60.148-9.3438,78.188-9.3438h23.812c18.04,0,65.742,6.3572,78.188,9.3438,6.4919,1.558,10.791,1.0051,13.875-0.46875,3.0845-1.4738,4.901-3.7725,6.5938-5.3438,3.6963-3.431,11.812-12.938,11.812-12.938l-1.125-1z"/>
<path id="path9" style="baseline-shift:baseline;block-progression:tb;color:#000000;direction:ltr;text-indent:0;text-align:start;enable-background:accumulate;text-transform:none;" fill="#f4f4f4" d="m431.38,49.281c-24.661,0.62955-47.689,9.6345-64.531,27.406-38.497,40.621-29.842,111.28,18.969,157.84,48.81,46.561,119.6,51.651,158.09,11.031,38.497-40.621,29.873-111.28-18.938-157.84-27.46-26.192-61.89-39.248-93.59-38.439zm0.15625,2c31.121-0.77944,64.97,12.03,92.062,37.875,48.165,45.945,56.44,115.36,18.844,155.03-37.597,39.67-107.09,34.851-155.25-11.094-48.165-45.945-56.472-115.36-18.875-155.03,16.449-17.356,39.014-26.175,63.219-26.781z"/>
<path id="path11" style="baseline-shift:baseline;block-progression:tb;color:#000000;direction:ltr;text-indent:0;text-align:start;enable-background:accumulate;text-transform:none;" fill="#f4f4f4" d="m439.12,73.062c-19.847,0.5426-38.528,7.9569-52.25,22.5-26.541,28.132-25.752,73.581-0.75,108.84l1.63-1.15c-24.546-34.619-25.226-78.978,0.5625-106.31,23.702-25.122,62.767-28.453,96.531-11l0.91-1.784c-15.06-7.783-31.19-11.516-46.63-11.094z"/>
<path id="path13" style="baseline-shift:baseline;block-progression:tb;color:#000000;direction:ltr;text-indent:0;text-align:start;enable-background:accumulate;text-transform:none;" fill="#f4f4f4" d="M513.41,104.59,512,106c8.4047,8.486,15.08,17.972,20,27.906l1.81-0.91c-5.0157-10.127-11.851-19.768-20.406-28.406z"/>
<path id="path15" style="baseline-shift:baseline;block-progression:tb;color:#000000;direction:ltr;text-indent:0;text-align:start;enable-background:accumulate;text-transform:none;" fill="#f4f4f4" d="m542,180.28c-0.94352,17.123-7.1988,33.209-19.031,45.75-23.923,25.355-63.492,28.511-97.469,10.5l-0.9375,1.7812c34.631,18.357,75.254,15.189,99.875-10.906,12.18-12.9,18.59-29.49,19.56-47.02l-2-0.0937z"/>
<path id="circle17" style="baseline-shift:baseline;block-progression:tb;color:#000000;direction:ltr;text-indent:0;text-align:start;enable-background:accumulate;text-transform:none;" fill="#f4f4f4" d="m141.78,93.656c-33.196,0-60.125,26.929-60.125,60.125s26.929,60.125,60.125,60.125,60.125-26.929,60.125-60.125-26.929-60.125-60.125-60.125zm0,2c32.116,0,58.125,26.009,58.125,58.125s-26.009,58.125-58.125,58.125-58.125-26.009-58.125-58.125,26.009-58.125,58.125-58.125z"/>
<path id="path19" style="baseline-shift:baseline;block-progression:tb;color:#000000;direction:ltr;text-indent:0;text-align:start;enable-background:accumulate;text-transform:none;" fill="#f4f4f4" d="m144.19,101.84c-4.2373-0.19519-8.3858,0.1294-12.375,0.90625-0.0101,0.002-0.0212-0.002-0.0312,0v0.0312c-0.60133,0.10876-1.2443,0.41917-1.625,0.96875-0.38933,0.56204-0.52542,1.2606-0.5625,2.0625l-0.78125,16.469c-0.25387,5.4949-1.8577,9.4694-4.6875,12.062-2.8298,2.5931-6.9784,3.8808-12.531,3.625l-16.156-0.75c-0.81046-0.0369-1.4397-0.051-2.0938,0.21875-0.65402,0.26972-1.1572,0.87955-1.4062,1.5312v0.0625,0.0312c-1.1553,3.9259-1.8658,8.044-2.0625,12.312-0.18753,4.0768,0.09867,8.0577,0.8125,11.906v0.0312c0.3122,1.4476,1.718,2.5975,3.6562,2.6875l16,0.71875c5.3559,0.2467,9.329,1.9514,11.938,4.9062,2.6085,2.9549,3.918,7.2613,3.6562,12.938l-0.6875,15.219c-0.0452,0.97193,0.0118,1.7269,0.3125,2.4062,0.30065,0.67936,0.88587,1.1782,1.5,1.4375l0.0625,0.0312h0.0625c3.8929,1.1348,7.9584,1.8376,12.188,2.0312,4.135,0.19161,8.193-0.10643,12.094-0.84375h0.0312l0.0312-0.0312c0.66881-0.16888,1.3401-0.54903,1.7812-1.1875,0.44115-0.63847,0.64203-1.4543,0.6875-2.4375l0.71875-15.156c0.2565-5.5642,1.9666-9.7586,4.8125-12.531,2.846-2.7727,6.8631-4.1733,11.969-3.9375l16.375,0.75c0.8966,0.0413,1.6523,0.0451,2.375-0.3125,0.72266-0.35758,1.2081-1.0591,1.5-1.875v-0.0312-0.0312c1.081-3.7956,1.7479-7.796,1.9375-11.906,0.19059-4.1278-0.10951-8.168-0.84375-12.062v-0.0312l-0.05-0.06c-0.17-0.55933-0.42985-1.1798-0.96875-1.6562-0.5389-0.47646-1.3001-0.74055-2.1875-0.78125l-16.9-0.78c-5.0484-0.23275-8.9222-1.8972-11.5-4.75s-3.9295-6.9638-3.6875-12.219l0.75-16.125c0.0352-0.76323,0.12692-1.4226-0.0625-2.125-0.18942-0.70242-0.84353-1.3672-1.625-1.625h-0.0312c-3.9526-1.1717-8.1051-1.896-12.406-2.0938zm-0.0937,2c4.1388,0.19027,8.1381,0.90497,11.938,2.0312,0.24377,0.0771,0.23778,0.0576,0.28125,0.21875,0.0488,0.18108,0.0358,0.72523,0,1.5l-0.75,16.125c-0.26003,5.6471,1.233,10.352,4.2188,13.656,2.9857,3.3042,7.4254,5.155,12.875,5.4062l16.906,0.78125c0.57358,0.0263,0.8194,0.14921,0.96875,0.28125,0.14188,0.12544,0.23269,0.37169,0.34375,0.71875,0.006,0.0183,0.0255,0.0122,0.0312,0.0312,0.6887,3.705,0.96262,7.5406,0.78125,11.469-0.18146,3.9346-0.81449,7.7441-1.8438,11.375-0.20506,0.57309-0.30066,0.66683-0.46875,0.75-0.16809,0.0832-0.61085,0.16167-1.4062,0.125l-16.375-0.75c-5.5273-0.25523-10.186,1.3022-13.469,4.5-3.2823,3.1978-5.1328,7.9422-5.4062,13.875l-0.72,15.15c-0.0345,0.7468-0.1919,1.1865-0.34375,1.4062-0.15185,0.21978-0.29981,0.29288-0.625,0.375-3.7306,0.70036-7.6048,0.9959-11.562,0.8125-4.0349-0.18478-7.91-0.83115-11.625-1.9062-0.01-0.003-0.0216,0.003-0.0312,0-0.30166-0.12969-0.3537-0.18563-0.4375-0.375-0.0874-0.19739-0.16382-0.69618-0.125-1.5312l0.6875-15.219c0.27824-6.0338-1.1298-10.915-4.1562-14.344-3.0265-3.4284-7.6057-5.2982-13.344-5.5625l-16-0.75c-1.2712-0.059-1.6619-0.55242-1.7812-1.0625-0.0019-0.0101,0.0019-0.0212,0-0.0312-0.68209-3.6901-0.96123-7.5249-0.78125-11.438,0.1882-4.084,0.8381-8.0266,1.9375-11.781,0.01249-0.0327,0.02062-0.004,0.03125-0.0312,0.0028-0.01-0.0028-0.0216,0-0.0312,0.09471-0.2327,0.14359-0.29987,0.25-0.34375,0.12373-0.051,0.55371-0.0956,1.2812-0.0625l16.125,0.75c5.9082,0.27219,10.662-1.1264,13.969-4.1562,3.3064-3.0299,5.0736-7.6217,5.3438-13.469l0.78125-16.438c0.0269-0.58211,0.14033-0.88679,0.21875-1,0.0784-0.11321,0.0894-0.15099,0.3125-0.1875h0.0312c3.8435-0.75087,7.8495-1.0633,11.938-0.875z"/>
<path id="circle21" style="baseline-shift:baseline;block-progression:tb;color:#000000;direction:ltr;text-indent:0;text-align:start;enable-background:accumulate;text-transform:none;" fill="#f4f4f4" d="m141.78,141.75c-6.6211,0-12,5.4102-12,12.031,0,6.6211,5.3789,12,12,12s12-5.3789,12-12-5.3789-12.031-12-12.031zm0,2c5.5402,0,10,4.491,10,10.031,0,5.5402-4.4598,10-10,10s-10-4.4598-10-10,4.4598-10.031,10-10.031z"/>
<path id="polygon23" style="baseline-shift:baseline;block-progression:tb;color:#000000;direction:ltr;text-indent:0;text-align:start;enable-background:accumulate;text-transform:none;" fill="#f4f4f4" d="m108.19,116.91,0.59375,2,1.9688,6.625,0.46875,1.5312,1.1562-1.0938,4.4375-4.0312,1.1875-1.0625-1.4688-0.59375-6.4375-2.5938-1.9062-0.78125zm3.0938,3.4062,3.0312,1.2188-2.125,1.9062-0.90625-3.125z"/>
<path id="polygon25" style="baseline-shift:baseline;block-progression:tb;color:#000000;direction:ltr;text-indent:0;text-align:start;enable-background:accumulate;text-transform:none;" fill="#f4f4f4" d="m108.88,177.56-0.59375,1.4688-2.5938,6.4062-0.75,1.9375,1.9688-0.59375,6.625-1.9688,1.5312-0.46875-1.0625-1.1875-4.0625-4.4062-1.0625-1.1875zm0.65625,3.6875,1.9062,2.0938-3.125,0.9375,1.2188-3.0312z"/>
<path id="polygon27" style="baseline-shift:baseline;block-progression:tb;color:#000000;direction:ltr;text-indent:0;text-align:start;enable-background:accumulate;text-transform:none;" fill="#f4f4f4" d="m172.34,180.5-1.1562,1.0625-4.4375,4.0312-1.1875,1.0625,1.5,0.625,6.4062,2.5625,1.9375,0.78125-0.625-2-1.9688-6.625-0.46875-1.5zm-1,3.5938,0.9375,3.125l-3.03-1.22,2.0938-1.9062z"/>
<path id="polygon29" style="baseline-shift:baseline;block-progression:tb;color:#000000;direction:ltr;text-indent:0;text-align:start;enable-background:accumulate;text-transform:none;" fill="#f4f4f4" d="m178.66,120.16-2,0.59375-6.625,2-1.5312,0.4375,1.0625,1.1875,4.0625,4.4375,1.0625,1.1562,0.59375-1.4688,2.5938-6.4062,0.78125-1.9375zm-3.4375,3.125-1.1875,3-1.9062-2.0938,3.0938-0.90625z"/>
<path id="circle31" style="baseline-shift:baseline;block-progression:tb;color:#000000;direction:ltr;text-indent:0;text-align:start;enable-background:accumulate;text-transform:none;" fill="#f4f4f4" d="m413.5,183.56c-15.864,0-28.75,12.886-28.75,28.75s12.886,28.75,28.75,28.75,28.719-12.886,28.719-28.75-12.855-28.75-28.719-28.75zm0,2c14.783,0,26.719,11.967,26.719,26.75s-11.936,26.75-26.719,26.75-26.75-11.967-26.75-26.75,11.967-26.75,26.75-26.75z"/>
<path id="circle33" style="baseline-shift:baseline;block-progression:tb;color:#000000;direction:ltr;text-indent:0;text-align:start;enable-background:accumulate;text-transform:none;" fill="#f4f4f4" d="m466.62,151.41c-15.864,0-28.75,12.886-28.75,28.75s12.886,28.75,28.75,28.75,28.719-12.886,28.719-28.75-12.855-28.75-28.719-28.75zm0,2c14.783,0,26.719,11.967,26.719,26.75s-11.936,26.75-26.719,26.75-26.75-11.967-26.75-26.75,11.967-26.75,26.75-26.75z"/>
<path id="circle35" style="baseline-shift:baseline;block-progression:tb;color:#000000;direction:ltr;text-indent:0;text-align:start;enable-background:accumulate;text-transform:none;" fill="#f4f4f4" d="m524.12,131.12c-15.864,0-28.75,12.886-28.75,28.75s12.886,28.719,28.75,28.719,28.75-12.855,28.75-28.719-12.886-28.75-28.75-28.75zm0,2c14.783,0,26.75,11.967,26.75,26.75s-11.967,26.719-26.75,26.719-26.75-11.936-26.75-26.719,11.967-26.75,26.75-26.75z"/>
<path id="circle37" style="baseline-shift:baseline;block-progression:tb;color:#000000;direction:ltr;text-indent:0;text-align:start;enable-background:accumulate;text-transform:none;" fill="#f4f4f4" d="m392.84,121.97c-11.566,0-20.969,9.403-20.969,20.969s9.403,20.969,20.969,20.969,20.969-9.403,20.969-20.969-9.403-20.969-20.969-20.969zm0,2c10.485,0,18.969,8.4839,18.969,18.969s-8.4839,18.969-18.969,18.969-18.969-8.4839-18.969-18.969,8.4839-18.969,18.969-18.969z"/>
<path id="circle39" style="baseline-shift:baseline;block-progression:tb;color:#000000;direction:ltr;text-indent:0;text-align:start;enable-background:accumulate;text-transform:none;" fill="#f4f4f4" d="m441.56,96.594c-11.566,0-20.938,9.403-20.938,20.969s9.3718,20.969,20.938,20.969,20.969-9.403,20.969-20.969-9.403-20.969-20.969-20.969zm0,2c10.485,0,18.969,8.4839,18.969,18.969s-8.4839,18.969-18.969,18.969-18.938-8.4839-18.938-18.969,8.4527-18.969,18.938-18.969z"/>
<path id="circle41" style="baseline-shift:baseline;block-progression:tb;color:#000000;direction:ltr;text-indent:0;text-align:start;enable-background:accumulate;text-transform:none;" fill="#f4f4f4" d="m493,82.719c-11.566,0-20.969,9.403-20.969,20.969s9.403,20.969,20.969,20.969,20.969-9.403,20.969-20.969-9.403-20.969-20.969-20.969zm0,2c10.485,0,18.969,8.4839,18.969,18.969s-8.4839,18.969-18.969,18.969-18.969-8.4839-18.969-18.969,8.4839-18.969,18.969-18.969z"/>
<path id="path43" style="baseline-shift:baseline;block-progression:tb;color:#000000;direction:ltr;text-indent:0;text-align:start;enable-background:accumulate;text-transform:none;" fill="#f4f4f4" d="m278.06,133.41c-4.7916,0-8.6875,3.8961-8.6875,8.6875s3.8959,8.6875,8.6875,8.6875h35.688c4.7924,0,8.7188-3.8961,8.7188-8.6875s-3.9263-8.6875-8.7188-8.6875h-35.688zm0,2,35.688,0c3.7116,0,6.7188,2.9769,6.7188,6.6875s-3.0072,6.6875-6.7188,6.6875h-35.688c-3.7104,0-6.6875-2.9769-6.6875-6.6875s2.9771-6.6875,6.6875-6.6875z"/>
<path id="path45" style="baseline-shift:baseline;block-progression:tb;color:#000000;direction:ltr;text-indent:0;text-align:start;enable-background:accumulate;text-transform:none;" fill="#f4f4f4" d="m278.06,129.34c-7.0344,0-12.75,5.7156-12.75,12.75s5.7156,12.75,12.75,12.75h35.688c7.0344,0,12.75-5.7155,12.75-12.75s-5.7156-12.75-12.75-12.75h-35.688zm0,2,35.688,0c5.9536,0,10.75,4.7965,10.75,10.75s-4.7964,10.75-10.75,10.75h-35.688c-5.9536,0-10.75-4.7964-10.75-10.75s4.7964-10.75,10.75-10.75z"/>
<path id="path47" style="baseline-shift:baseline;block-progression:tb;color:#000000;direction:ltr;text-indent:0;text-align:start;enable-background:accumulate;text-transform:none;" fill="#f4f4f4" d="m184.91,16.5c-0.098,0.08002-0.30114,0.2117-0.5625,0.3125-0.52271,0.2016-1.2631,0.2979-1.5312,0.28125l-0.125,2c0.74683,0.04635,1.5812-0.1001,2.375-0.40625,0.39689-0.15308,0.78097-0.34418,1.125-0.625s0.70714-0.7084,0.75-1.3125l-2-0.15625c0.0114-0.1601,0.0668-0.17377-0.0312-0.09375z"/>
</svg>
