<svg height="152.55933mm" viewBox="0 0 495.59044 91.5356" width="825.98407mm" xmlns="http://www.w3.org/2000/svg" xmlns:xlink="http://www.w3.org/1999/xlink"><linearGradient id="a"><stop offset="0" stop-color="#f36917"/><stop offset=".5" stop-color="#c24a13"/><stop offset="1" stop-color="#682c19"/></linearGradient><linearGradient id="b" gradientTransform="matrix(-.00002 -177.22168 177.22168 -.00002 220.3335 -349.88965)" gradientUnits="userSpaceOnUse" spreadMethod="pad" x1="0" x2="1" xlink:href="#a" y1="0" y2="0"/><linearGradient id="c"><stop offset="0" stop-color="#f0f9e8"/><stop offset=".51123" stop-color="#599b77"/><stop offset="1" stop-color="#458055"/></linearGradient><linearGradient id="d" gradientTransform="matrix(-.14835 106.23462 -106.23462 -.14835 270.9917 -507.11768)" gradientUnits="userSpaceOnUse" spreadMethod="pad" x1="0" x2="1" xlink:href="#c" y1="0" y2="0"/><linearGradient id="e" gradientTransform="matrix(0 -91.23962 91.23962 0 305.83301 -398.5498)" gradientUnits="userSpaceOnUse" spreadMethod="pad" x1="0" x2="1" xlink:href="#a" y1="0" y2="0"/><linearGradient id="f" gradientTransform="matrix(0 104.76566 -104.76566 0 336.41602 -506.84961)" gradientUnits="userSpaceOnUse" spreadMethod="pad" x1="0" x2="1" xlink:href="#c" y1="0" y2="0"/><linearGradient id="g" gradientTransform="matrix(0 -77.85007 77.85007 0 373.66699 -412.03418)" gradientUnits="userSpaceOnUse" spreadMethod="pad" x1="0" x2="1" xlink:href="#a" y1="0" y2="0"/><g stroke-width=".683014"><path d="m187.66699-350.22363s42.83301-176.88819 42.83301-176.88819 22.50049 90.55518 22.50049 90.55518-21.3335 86.66699-21.3335 86.66699-44-.33398-44-.33398z" fill="url(#b)" transform="matrix(.51650193306 0 0 .51650193306 -96.9303629449 272.254274084)"/><path d="m230.5-527.11182h43.5s37.33398 146.89014 37.33398 146.89014h-44.00048s-36.8335-146.89014-36.8335-146.89014z" fill="url(#d)" transform="matrix(.51650193306 0 0 .51650193306 -96.9303629449 272.254274084)"/><path d="m300.33203-509.66699s22.00195 85.4458 22.00195 85.4458-11 43.99951-11 43.99951-22.00146-86.99951-22.00146-86.99951 10.99951-42.4458 10.99951-42.4458z" fill="url(#e)" transform="matrix(.51650193306 0 0 .51650193306 -96.9303629449 272.254274084)"/><path d="m300.33203-509.66699s28.73535 111.66601 28.73535 111.66601h43.43262s-29.23047-111.66601-29.23047-111.66601z" fill="url(#f)" transform="matrix(.51650193306 0 0 .51650193306 -96.9303629449 272.254274084)"/><path d="m397-492.22314s-24.5 94.22216-24.5 94.22216-22.16602-84.55517-22.16602-84.55517 3.33301-9.66699 3.33301-9.66699z" fill="url(#g)" transform="matrix(.51650193306 0 0 .51650193306 -96.9303629449 272.254274084)"/></g><g fill="#242021" stroke-width=".296031" transform="matrix(1.1916954 0 0 1.1916954 -49.578793 406.189488)"><path d="m179.13232-291.16309c-1.15869-1.66504-1.3164-2.53711 4.67481-23.16504-10.0835.083-11 0-11 0s2-5.42675 2-5.42675h29.33301s-1.66651 5.42675-1.66651 5.42675h-9s.008.0391-6.6665 24.18555c-5.84131-.0205-6.73193.33399-7.67481-1.02051z"/><path d="m216.14014-314.66113s-5.33301 19.66601-5.33301 19.66601h5.33301s5.33349-19.66601 5.33349-19.66601zm15.15918-3.83594c.9956 1.50293.5 2.33398-6.82569 28.35449-22.67431.14551-22.17431-.0205-23.34131-1.35449-1.32128-1.51074-.5-2.50684 6.67481-28.25781 23.0415.003 22.5-.24024 23.49219 1.25781z"/><path d="m230.80713-290.14258c-.57617-.47656.75049-2.0498 8-29.6123 36.7915-.12207 34.7915-.49024 36.0415 1.38476.71485 1.07227.61719 1.70606-6.375 28.22754-12-.10254-10.25 0-10.25 0s6-25.51855 6-25.51855h-3.4165s-6.66699 25.51855-6.66699 25.51855h-10.33301s7-25.51855 7-25.51855h-3.3335s-7 25.51855-7 25.51855z"/><path d="m273.59863-291.24512c-.375-1.375 0-1.13183 7.20899-28.50976 10.41601-.24707 9.99902 0 9.99902 0s-.34082 1.75781-8.33301 29.6123c-7.125-.10254-8.52148.19629-8.875-1.10254z"/><path d="m288.14063-290.14258s1.583-5.57129 1.583-5.57129h15.875s.20801-1.11426 2.20801-8.61426c-14.33301-.042-14.71582.66895-15.83301-1.16699-.50781-.83593.15918-1.50879 3.5-14.25976 22.3252.084 26.33301 0 26.33301 0s-1.33301 4.75976-1.33301 4.75976-15 .125-15 .125-.1748-.29297-2 5.54199c15-.042 14.37012.0781 15.125.83301 1.125 1.125.75 1.75-3.79199 18.35254-28.16699.14746-26.66601 0-26.66601 0z"/><path d="m327.22363-319.75488c-8.25 28.04297-8.04883 27.69726-7.125 28.88476.875 1.125 2.25.64942 37.375.75196 7-27.10254 7.83301-29.63672 7.83301-29.63672h-10.33301s-7.16699 25.92675-7.16699 25.92675h-3.66699s7.16699-25.92675 7.16699-25.92675h-10s-7.16601 25.75976-7.16601 25.75976h-3.667s7.167-25.75976 7.167-25.75976-1.667 0-10.417 0z"/><path d="m394.47363-319.75488c3.83399 27.75293 3.95899 28.05175 4.83399 28.92675.75.75.79101.70801 20.04101.70801 7.125-28.125.375-1.50683 7.45801-29.63476h-10.33301s-6.125 25.46875-6.125 25.46875h-2.208s-3-25.46875-3-25.46875-2.542-.12207-10.667 0z"/><path d="m457.47363-319.75488s-1.125.003-25.333 0c-7.292 28.50293-7.292 28.3623-6.667 29.13476s1.5.5 25.33301.47754c.54199-3.47754.66699-5.22754.66699-5.22754h-15.375s2.042-8.625 2.042-8.625 13.458-.125 13.458-.125 1.20801-5.20801 1.20801-5.20801h-13.33301s1.5-5.66699 1.5-5.66699h15.5s1-4.75976 1-4.75976z"/><g stroke-width=".296031"><path d="m378.47363-314.90137s-2.96289 11.21875-2.96289 11.21875h6.91309s-.90039-11.21875-.90039-11.21875zm15.66602 24.78321h-10.33301s-.91699-7.37696-.91699-7.37696h-8.08399s-2.16503 7.37696-2.16503 7.37696h-10.16797s.00097-.88477 8.16699-29.63672c16.70898-.12305 17.33398-.11524 18.20898 1.38476.75 1.125.88086 2.79883 5.29102 28.25196z"/><path d="m157.80664-314.90137s-2.96289 11.21875-2.96289 11.21875h6.91309s-.90039-11.21875-.90039-11.21875zm15.66602 24.78321h-10.33301s-.91699-7.37696-.91699-7.37696h-8.08399s-2.16504 7.37696-2.16504 7.37696h-10.16797s.00098-.88477 8.167-29.63672c16.70898-.12305 17.33398-.11524 18.20898 1.38476.75 1.125.88086 2.79883 5.29102 28.25196z"/></g></g></svg>