<svg height="148.35271" viewBox="0 0 678.87756 148.3527" width="678.87756" xmlns="http://www.w3.org/2000/svg" xmlns:xlink="http://www.w3.org/1999/xlink"><linearGradient id="a" gradientUnits="userSpaceOnUse" x1="148.3185" x2="151.97664" y1="162.58894" y2="52.277431"><stop offset="0" stop-color="#373969"/><stop offset=".43662432" stop-color="#a7bbf1"/><stop offset="1" stop-color="#2170cc"/></linearGradient><filter id="b" color-interpolation-filters="sRGB" height="1.065701" width="1.012439" x="-.006014" y="-.034737"><feGaussianBlur in="SourceGraphic" result="blur" stdDeviation="1"/><feDiffuseLighting diffuseConstant="1" result="diffuse" surfaceScale="10"><feDistantLight azimuth="220" elevation="30"/></feDiffuseLighting><feComposite in="diffuse" in2="diffuse" k1="1" k2="0" k3="0" k4="0" operator="arithmetic" result="composite1"/><feComposite in="composite1" in2="SourceGraphic" k1="1" k2="0" k3="1" k4="0" operator="arithmetic" result="composite2"/></filter><filter id="c" color-interpolation-filters="sRGB" height="1.030873" width="1.041755" x="-.021358" y="-.015054"><feGaussianBlur in="SourceAlpha" result="blur" stdDeviation=".5"/><feSpecularLighting in="blur" result="specular" specularConstant="3.33927989" specularExponent="25" surfaceScale="10"><feDistantLight azimuth="211" elevation="26"/></feSpecularLighting><feComposite in="specular" in2="SourceGraphic" k1="0" k2="1" k3="1" k4="0" operator="arithmetic" result="composite1"/><feComposite in="composite1" in2="SourceAlpha" operator="in" result="composite2"/></filter><linearGradient id="d" gradientUnits="userSpaceOnUse" x1="32.776211" x2="32.776211" y1="168.2742" y2="30.92944"><stop offset="0" stop-color="#ff7a01"/><stop offset=".35918856" stop-color="#fffc00"/><stop offset=".60327649" stop-color="#ff0"/><stop offset="1" stop-color="#ff7501"/></linearGradient><g transform="translate(16.837343 -24.351286)"><text fill="#ef00eb" font-family="TrasksHand" font-size="2" stroke="#0105ff" stroke-width="2.5" transform="matrix(.93210688 -.36218332 .36218332 .93210688 0 0)" x="-33.660976" y="143.63191"><tspan fill="#fafafa" fill-opacity=".4" font-size="2" stroke="none" stroke-width="2.5" x="-33.660976" y="143.63191">John Loreth 2022</tspan></text><g stroke="#010000" stroke-width="1.25"><path d="m82.231183 111.03443q-.746668 6.72001-.746668 9.89335-1.86667.56-2.986672.56.746668 1.12 2.613338 3.17334-.560001 1.30667-1.680003 4.10667-3.73334.37334-10.826686 1.30667v5.78668q0 2.24-.560002 6.34668-.373334 4.10667-.373334 6.16001 0 5.04001.933336 17.36003-2.800006 1.30667-5.04001 2.24l-1.86667-2.42667 1.306669-3.17334-.373334-5.04001.746668-1.49333-1.493336-3.36001-3.360006 5.22668 1.120002 5.60001-1.493336-2.05334q-1.86667 3.36001-6.160011 9.89335l-2.800005-2.24q-2.240004 2.05334-3.546673 2.8-1.86667-13.81335-3.733341-36.40006-4.293341.37333-38.8267371 13.25336l1.4933361-7.84002q.746668-.74667 2.4266711-2.05334-.9333351-1.30666-1.3066691-2.61333l-2.2400041-1.12001q.933335-1.49333 2.0533371-3.92l-.933335-1.68001q-2.9866722.37334-4.66667523.74667-.18666701-.93333-1.49333607-2.8l2.42667111-4.66668 1.30666909-.93333.186667-3.73334-5.4133433 3.17334-.746668 2.8q-1.680003-2.42667-2.9866721-4.48001-.933335-.56-4.4800085-2.61334 4.1066745-9.33335 19.9733701-36.960063 7.0933459-12.320023 22.2133739-36.026733.933335 1.86667 2.240004 5.600011 1.493336-1.120002 3.920007-4.106675v-2.800005q3.920007-1.306669 7.280014-1.680003l2.053337 9.893352 2.240004-5.413344-.186667-4.853342.746668-1.493336-.560001-1.120002 4.853342-2.240004q0 .186667 2.426671 6.160011 2.240004-2.986672 5.413343-6.533345.933335-.186667 8.026682-2.800005 0 1.306669-.186667 3.920007 0 2.800005 0 4.293341 1.306669-.186667 5.226676-1.493336-5.413343 52.453429-5.413343 68.880121 2.986672-.37333 8.773349-1.49333-.746668 1.68-1.680003 5.04001 1.120002 0 6.160011-.56zm-27.626717-60.106779-1.306669-2.426671-2.240004 3.73334 1.680003 7.093346q.746668-1.306669 1.120002-4.480008.373334-3.173339.746668-3.920007zm-14.560027 64.026779q-.746668-8.58668-1.680003-25.386709-9.146683 13.066689-17.920032 31.546729 10.453352-3.73334 19.600035-6.16002zm19.600036 25.76005-.933335-1.86667-1.680003 2.80001 1.120002 5.78667 1.120002-2.98667-.186667-2.98667zm-3.920007 8.58668-1.120002-2.42667-2.426671 3.92001 1.493336 7.09335 1.680003-3.73334-.186667-3.92001zm-49.653424-43.30674-4.1066741 2.05333-2.24000414 7.09335 3.36000614-2.61334 1.6800031-3.36 1.120002-.56z"/><path d="m78.680276 105.03443q-.746668 6.72001-.746668 9.89335-1.86667.56-2.986672.56.746668 1.12 2.613338 3.17334-.560001 1.30667-1.680003 4.10667-3.73334.37334-10.826687 1.30667v5.78668q0 2.24-.560001 6.34668-.373334 4.10667-.373334 6.16001 0 5.04001.933335 17.36003-2.800005 1.30667-5.040009 2.24l-1.86667-2.42667 1.306669-3.17334-.373334-5.04001.746668-1.49333-1.493336-3.36001-3.360006 5.22668 1.120002 5.60001-1.493336-2.05334q-1.86667 3.36001-6.160011 9.89335l-2.800005-2.24q-2.240004 2.05334-3.546674 2.8-1.86667-13.81335-3.73334-36.40006-4.293341.37333-38.82673724 13.25336l1.49333604-7.84002q.746668-.74667 2.4266711-2.05334-.933335-1.30666-1.306669-2.61333l-2.24000413-1.12001q.93333504-1.49333 2.05333713-3.92l-.9333351-1.68001q-2.9866721.37334-4.6666752.74667-.186667-.93333-1.493336-2.8l2.4266711-4.66668 1.306669-.93333.186667-3.73334-5.4133432 3.17334-.746668 2.8q-1.6800031-2.42667-2.9866725-4.48001-.933335-.56-4.480008-2.61334 4.106674-9.33335 19.97337-36.960063 7.093346-12.320023 22.213374-36.026733.933335 1.86667 2.240004 5.600011 1.493336-1.120002 3.920007-4.106675v-2.800005q3.920007-1.306669 7.280013-1.680003l2.053337 9.893352 2.240005-5.413344-.186667-4.853342.746668-1.493336-.560001-1.120002 4.853342-2.240004q0 .186667 2.426671 6.160011 2.240004-2.986672 5.413343-6.533345.933335-.186667 8.026681-2.800005 0 1.306669-.186667 3.920007 0 2.800005 0 4.293341 1.306669-.186667 5.226677-1.493336-5.413344 52.453429-5.413344 68.880121 2.986673-.37333 8.77335-1.49333-.746668 1.68-1.680003 5.04001 1.120002 0 6.160011-.56zm-27.626717-60.106779-1.306669-2.426671-2.240004 3.73334 1.680003 7.093346q.746668-1.306669 1.120002-4.480008.373334-3.173339.746668-3.920007zm-14.560027 64.026779q-.746668-8.58668-1.680003-25.386709-9.146683 13.066691-17.920033 31.546729 10.453353-3.73334 19.600036-6.16002zm19.600036 25.76005-.933335-1.86667-1.680003 2.80001 1.120002 5.78667 1.120002-2.98667-.186667-2.98667zm-3.920007 8.58668-1.120002-2.42667-2.426671 3.92001 1.493336 7.09335 1.680003-3.73334-.186667-3.92001zm-49.6534241-43.306742-4.1066742 2.053332-2.2400041 7.09335 3.36000616-2.61334 1.68000304-3.36 1.1200021-.56z" fill="url(#d)" filter="url(#c)"/><g transform="scale(.99569185 1.0043268)"><path d="m147.87655 76.02389-2.88-.36-5.04 4.32 3.84-.24 2.76-1.68h1.2l-.24 2.52-2.04.6 1.68 2.4-1.08 3.24q-2.52.72-7.92 1.8-.36 22.08-5.28 70.8l-.48 1.32q-24.36-1.08-43.319997-11.64l3-2.76.72-1.8 6.24 1.92-2.16-2.88-3-1.44-.6-.96q3.72-3 3.72-3.6 0-.72-.6-2.28-.48-1.56-.48-2.28 0 0 .12-.72 10.559997 5.28 21.959997 8.16 0-24.48-1.92-44.4-10.08 4.8-21.719997 10.92.24-2.04.84-6.24 1.08-1.08 2.52-2.88-.36-.24-3.12-1.68l.24-.72 1.68.36 5.039997-4.08-3.839997.12-2.76 1.44q0-3.72.48-5.16-.6-1.08-1.44-3.12 8.039997-3.48 24.239997-10.44 13.44-6.12 26.16-9.96-.36 1.32-.96 3.96 1.92-.24 4.2-.72-.12.84-.12 1.68 0 1.2.12 3.36.24 2.16.24 3.12zm-9.6 5.16-1.8-.24-2.16 1.92 1.68-.12 1.32-.72h.48zm-2.4-3.48-2.88-.24-3.6 2.76 2.64-.12 1.92-.96h.96zm-30.48 67.44-1.56-2.4-2.04-1.08-.36-.72-1.799997-.12 1.319997 2.76zm2.16 4.8-1.44-1.44-1.68-.6-.6-.48-1.2.12 1.32 1.92z"/><path d="m205.52664 146.10389q-2.28 1.8-4.8 3.36l-.36-2.88-2.4 2.28-.24-1.68.36-.84-1.08-1.56-1.32 2.88.72 2.4-2.04 1.92q-.84-3.48-1.92-9.84-1.2 5.28-2.16 10.44h-.84l-1.68-12.36q-9 5.28-19.44 13.44 0 1.8.24 3.36-1.08.36-3.36 1.44l-1.32-1.56q-1.56 1.32-4.56 3.72l-.12-2.4-1.44 2.16-1.68-1.32-2.52 1.68q-5.4-47.28-5.4-79.92 2.28-.84 4.56-1.68l-.12.12 1.56 6.12 1.44-3.48-.36-3.12.48-.96 3-1.2 1.56 3.6q1.2-1.2 3.48-3.84.6-.36 5.16-1.8 0 3.12-.12 4.92 1.68-.24 3.36-.72-3.6 33.72-3.6 52.08 5.52-3.72 16.44-10.92-2.64-18.84-3.72-46.44.72-.36 1.56-.36.48 0 1.44.36.96.24 1.56.24 2.04 0 4.32-2.76 2.4-2.88 4.32-2.88l-1.32 2.16 1.68 6.36 1.2-3.6-.24-3.12.48-.96-.24-.36q.84.36 1.68.36 1.56 0 3.72-2.52 2.64-2.88 3.6-3.48-.96 29.16-.96 44.16 0 21.36 1.44 39zm-47.16-56.4-.24-1.92.24-.6-.72-1.2-1.08 2.16 1.2 3.48zm39 45.36-.36-1.8.36-.48-.84-1.2-.96 1.92 1.08 3.72zm4.32 6.36-.36-2.4.36-.84-.84-1.32-1.56 2.52 1.56 4.56z"/><path d="m278.17675 111.90389q-3.84 1.92-7.8 3.96 0 24.36 3.48 43.44-1.56.6-4.08 2.52l-.24-1.92q-1.8 1.32-5.16 4.2l-1.8-6.6-1.44 7.68h-.72q-.84-3.6-2.4-10.92-14.04 5.16-22.2 5.16-8.88 0-15.36-5.16l-.36-4.68-6.12-4.92.96 3.72q-5.52-8.16-5.52-19.8 0-21.6 15.12-38.88 14.64-16.68 36.24-21.48l-.12 4.68-3.24 4.2.72 2.04-2.76 2.4-1.44.36-.96 2.64 5.04-.6 1.2-1.68 1.08 3.12-4.44 3 4.2 4.32q-17.28 7.56-24.96 21.84-4.92 9.12-4.92 15 0 5.16 3.72 8.28 3.72 3.12 8.76 3.12 4.68 0 11.76-3-1.2-5.64-1.92-11.64-.12.12-14.52 10.44.48-3 1.8-6.36l-3.12-1.92-.72-4.92q10.2-10.2 31.56-23.4l.24 2.16q3.36-1.8 9.72-4.92 0 3.72.36 7.44l.12.24-.96.24-1.8 1.44-.6.12-.84 1.44 2.52-.24 1.68-1.56q0 2.76.24 5.4zm-24.6-36.48-2.64.84-1.92 1.56-.6.24-.6 1.56 2.88-.36zm-7.32 9.72-1.92.48-1.32 1.08-.36.12-.48 1.2 2.04-.24zm18.72 59.28-2.64.84-1.92 1.56-.72.36-.6 1.44 3-.36zm-45.96 1.08-.12-2.88-3.6-2.76.72 2.52 1.32 1.68.12.72z"/><path d="m335.9467 105.78389q-.6 5.16-1.92 15.36l-2.4.84q1.32 8.16 4.2 21.6-.48.24-1.08.24-.36 0-2.16-.24-1.44-.12-2.28 0l.24-1.56-.72-1.92.24-.84-1.08-.96-.84 3 1.44 2.64q-.72.48-1.08 1.68l-1.92.48q0 .48.48 3.24-2.4.84-7.08 2.88-3.48-12.96-6.24-24.24-5.16 1.68-15.84 7.08-2.04 12.6-2.88 20.16-1.8.96-4.92 3 0-1.2.24-2.88-5.04 3.84-6.24 3.84-1.92 0-1.56-3.36-1.08 2.16-3 6.6h-.24q.36-4.44.48-20.4.12-12.72 1.44-20.16 0-1.08.96-1.92 1.08-.96 1.08-2.76 0-1.32-.48-3.84-.48-2.64-.48-3.96 0-7.68 3.84-30.12 2.64-1.08 8.04-2.76 2.52 0 6-1.2v9.24l1.92-3.6.24-3.36.6-.96-.6-1.68q.96-1.2 4.2-3.36 1.44-.6 4.92-1.92-.72 3.12-1.32 6 4.2-1.08 3.72-1.08.6 0 1.08.48.6.48.84.48.36 0 .6-.12.72-.84 2.4-2.64 2.4-2.04 7.56-4.44.36 18.96 3.12 39.36.12 0 6.48-1.92zm-17.76-24.72-.6-1.92.12-.72-1.08-.96-.96 2.76 2.04 3.6zm-20.76 6.24-.36-1.2-1.44 2.04.36 3.36 1.08-1.8v-1.92zm12.96 25.8q-2.52-11.76-3.72-21.36-1.68 6.48-3.36 12.96-1.68 7.56-2.28 13.08z"/><path d="m402.23674 96.42389q0 6.84-2.28 14.4-6.24 19.44-22.8 33.36-16.56 13.92-36.84 16.56l1.32-5.16 3.24-1.32-.36-2.04h2.4l4.2-4.32-3.6.6-2.28 1.68-1.08.12-.12.12-1.2-6.48 4.32-.72q-2.64-20.76-3.6-42.24-3.84 2.04-8.64 5.52l.6-5.88h1.8l5.16-5.28-4.08.72-2.76 2.04-1.08-4.8 2.4-4.08-3.6-4.2-.96-4.68q19.08-11.04 38.04-11.04 19.32 0 26.52 10.56l.12 5.76 4.56 4.32q.6 3.12.6 6.48zm-4.68-1.68-.6-2.88-1.68-2.04-.12-.96-1.56-.84v3.12zm-47.76-12.72-1.92.24-1.2 1.08-.72.12-.6.96h2.04zm30.72 24.84q0-12.84-15.24-12.6-2.04 17.4-2.04 41.16 7.32-5.16 12-12.48 5.28-8.16 5.28-16.08zm-35.04-20.4-2.76.6-1.8 1.32h-.96l-.84 1.56h2.88zm11.04 62.16-2.16.24-1.68 1.2-.48.12-.72 1.08h2.4z"/><path d="m482.5669 101.82389q0 20.28-15.48 39-16.2 19.56-35.88 19.56-7.56 0-14.16-3.6l-1.08-3.6-5.76-2.88 1.08 2.28q-9.12-9-9.12-24.72 0-20.88 15.24-39.24 15.96-19.2 36.48-19.2 9 0 15.6 4.8l2.76 5.4-1.68-.12-1.08-3.12-5.52-3 1.56 3.36 2.64 2.04.36.6-1.68-.12v5.04l-.84.6-.72-1.92-5.76-3 1.68 3.36 2.76 2.04v.24l-3 1.56-2.88 4.56 4.56-3.12 5.88-.36.36.72 1.68 1.32.24.48 1.56.36-.84-2.52-2.04-.84-.24-1.92 3-.6-1.32-2.4 6.12 2.4 1.2-1.44q4.32 8.16 4.32 18zm-13.92-6.48-.6-1.8-2.88-1.44.96 1.68 1.2.84.12.48zm-9.6-9.12-.6-2.4-3.96-1.92 1.2 2.16 1.8 1.32.24.6zm4.2 25.08q0-7.32-4.08-12.24-4.08-5.04-11.16-5.04-11.04 0-19.68 10.68-8.16 9.96-8.16 21.36 0 7.08 3.96 12 4.2 5.28 11.4 5.28 11.16 0 19.68-10.68 8.04-10.2 8.04-21.36zm-40.92 32.76-.6-2.16-3.24-1.68.96 1.92 1.56 1.2.24.48zm1.32 8.76-.6-2.28-3.36-1.68 1.08 1.92 1.32 1.2.24.48zm-5.64-2.88-1.2-3.84-5.76-2.76 1.68 3.24 2.64 1.92.36.96z"/><path d="m558.93685 145.50389-2.16-.72q.36 2.64 1.44 7.44-.84 0-7.44-.96l3.24 2.88 3.48 1.08.84.96h.12l.24 1.2q-17.4-4.68-23.04-6.36-12.96-3.6-22.92-7.32.12 3.48.6 10.32-.96.48-3.24 1.56-2.28-2.4-3.48-3.6l-1.92 3-2.4-5.04-.6 3.84.6 3-.24.84-1.08-.48q-.84.6-2.4 2.04-4.32-36.36-5.04-59.04-4.56 3-8.16 6-.48-1.68-1.2-5.04l2.52.12 4.8-4.56-3.84.48-2.52 1.8-1.08.12-.36.48-.6-2.52q.48-.12.48-.36 0-.12-.6-.48-.6-.48-.84-.96l.6-.36q-.12-.12-.12-.36 0-.24 2.04-1.32 2.04-1.2 2.04-1.56 0-.24-.12-.6-.24-.6-1.68-.6-1.44-.12-1.32-1.08-1.68.48-2.64.48-.96 0-.72-.12 0 0 0-.24l.6-2.88v-1.92q.36-.12 2.64-1.8 8.88-6.84 19.92-10.8 11.64-4.56 22.08-4.56 10.56 0 17.4 4.68 7.56 5.4 7.56 15.48 0 20.88-25.08 38.28 16.8 8.4 33.12 13.92.24 1.92.48 5.64zm-28.8-50.64q0-6.6-7.8-6.6-2.76 0-6.6 1.08-1.92 18-1.92 23.28 16.32-9.96 16.32-17.76zm-34.68-10.68-3.84.48-2.64 1.68h-1.2l-1.2 2.04 4.08.24zm1.08 7.92-1.8.24q-1.56.96-2.28.96l-.6 1.08 2.16.12zm49.2 57.72-1.32-1.92-4.2-.48 1.8 1.44 1.92.6.48.48zm-43.44-9.96-1.56-3.24-.36 2.04.36 1.68-.12.72.96.96zm4.8 6.24-1.92-4.2-.48 2.52.48 2.28-.24.84 1.2 1.2z"/><path d="m614.7869 65.58389q-.72 1.32-.84 4.32-.12 3-.6 4.44l-1.44-.36-3 2.52 2.28-.12 1.56-1.08q-.96 2.04-1.68 3.84 1.2-.36 3.6-.96-1.56 3.84-2.04 6-15.36 3.96-26.64 8.16-.36 2.64-1.08 10.08 4.32-1.68 12.84-5.4l.12 2.28q5.4-1.8 11.4-3.36-.84 6.36-1.32 14.4-11.28 3.36-24.36 8.28-.6 9.6-.6 22.68 11.88-6 24.12-10.32-.36 1.32-.84 3.36 1.08-.36 3.36-1.08-.24 1.56-.24 2.52l-2.16-.24-4.92 3.96 3.6-.24 2.76-1.44h.6l-.12 1.92-1.8.6q.48.72 1.56 1.92-.36 1.08-.96 2.88-11.64 3.12-21.36 7.8-1.08.72-3.6 1.8l.12 1.44q-1.2.24-3.36.96l-.48-.36q-6.48 3.48-13.8 8.04 0-4.92 2.64-7.44l-.12-.48q-.96-.12-2.28-.84.6-1.8 1.08-2.64-.6-.84-1.2-2.52l1.44-.84q-1.44-11.16-2.4-22.56-2.88 1.56-4.68 2.28.84-1.92 2.88-6-1.68-1.2-3.12-2.28 0-.96 0-2.76 0-1.56 0-2.4 1.68-1.2 3.96-2.76-.48-5.52-.48-11.16-4.2 2.28-8.28 4.08v-3.84q.84-1.56 2.64-4.8l.72-.72 1.8-.96h.72l.96-1.08-2.52-.36-2.4 1.92q-.84-.84-2.04-2.88.36-.84.36-3.36.12-2.52.48-3.36h-1.8v-.72q2.88-1.8 8.76-5.16 11.28-5.76 30.12-11.76l1.8 1.44q8.4-2.4 20.28-5.28zm-44.76 23.28-3.96-.48-4.8 4.08 3.6-.24 2.76-1.56h.96zm28.32 54.12-2.16-.36-3 2.28 2.28-.12 1.44-.84h.72z"/><path d="m664.27701 83.70389q-24.48 14.76-24.48 24.48 0 3.48 6 6.24 9.12 4.32 11.04 5.88 6 4.68 6 12.72 0 8.04-7.68 17.64-5.64 7.44-14.28 14.04-.96-.48-1.08-1.44-.12-.84-1.2-1.08-.96-.24-2.88-.24l-.84-2.64 1.08-.12 3.84-3.96-2.52.84-2.16 1.56-.72.12-.48.72-5.64-.36q15.36-10.8 15.36-16.92 0-3.12-4.32-5.64-3.48-1.68-6.84-3.12-1.92-.96-3-3-.72-1.44-1.92-1.44-1.2 0-3.48.6-6.48-3.96-8.88-6.24-4.44-4.2-4.44-9.48 0-12.84 17.52-27.96 13.32-11.52 29.28-19.08.24.36 1.2 1.92.6.96.6 1.68 0 1.08-3 7.32l5.64.96-1.08 2.52-1.32.36-2.04 1.68-.72.12-1.2 1.92 2.64.24 2.16-2.76zm-12.72-1.8-2.04.36-1.56 1.2h-.48l-1.08 1.2h2.04zm-5.76 5.4-1.44.24-1.08.84h-.48l-.6.96h1.44zm1.92 61.8q-.96.96-2.88 2.16l-.36 1.08 1.56-.48zm-3.6 6.48-1.8.6-1.32.96-.6.12-.6 1.2 1.8-.24z"/></g><g fill="url(#a)" filter="url(#b)" transform="scale(.99569185 1.0043268)"><path d="m143.85925 70.049753-2.88-.36-5.04 4.32 3.84-.24 2.76-1.68h1.2l-.24 2.52-2.04.6 1.68 2.4-1.08 3.24q-2.52.72-7.92 1.8-.36 22.079997-5.28 70.799997l-.48 1.32q-24.36-1.08-43.32-11.64l3-2.76.72-1.8 6.24 1.92-2.16-2.88-3-1.44-.6-.96q3.72-3 3.72-3.6 0-.72-.6-2.28-.48-1.56-.48-2.28 0 0 .12-.72 10.56 5.28 21.96 8.16 0-24.48-1.92-44.399997-10.08 4.8-21.72 10.919997.24-2.039997.84-6.239997 1.08-1.08 2.52-2.88-.36-.24-3.12-1.68l.24-.72 1.68.36 5.04-4.08-3.84.12-2.76 1.44q0-3.72.48-5.16-.6-1.08-1.44-3.12 8.04-3.48 24.24-10.44 13.44-6.12 26.16-9.96-.36 1.32-.96 3.96 1.92-.24 4.2-.72-.12.84-.12 1.68 0 1.2.12 3.36.24 2.16.24 3.12zm-9.6 5.16-1.8-.24-2.16 1.92 1.68-.12 1.32-.72h.48zm-2.4-3.48-2.88-.24-3.6 2.76 2.64-.12 1.92-.96h.96zm-30.48 67.439997-1.56-2.4-2.04-1.08-.36-.72-1.8-.12 1.32 2.76zm2.16 4.8-1.44-1.44-1.68-.6-.6-.48-1.2.12 1.32 1.92z"/><path d="m201.50934 140.12975q-2.28 1.8-4.8 3.36l-.36-2.88-2.4 2.28-.24-1.68.36-.84-1.08-1.56-1.32 2.88.72 2.4-2.04 1.92q-.84-3.48-1.92-9.84-1.2 5.28-2.16 10.44h-.84l-1.68-12.36q-9 5.28-19.44 13.44 0 1.8.24 3.36-1.08.36-3.36 1.44l-1.32-1.56q-1.56 1.32-4.56 3.72l-.12-2.4-1.44 2.16-1.68-1.32-2.52 1.68q-5.4-47.28-5.4-79.919997 2.28-.84 4.56-1.68l-.12.12 1.56 6.12 1.44-3.48-.36-3.12.48-.96 3-1.2 1.56 3.6q1.2-1.2 3.48-3.84.6-.36 5.16-1.8 0 3.12-.12 4.92 1.68-.24 3.36-.72-3.6 33.719997-3.6 52.079997 5.52-3.72 16.44-10.92-2.64-18.839997-3.72-46.439997.72-.36 1.56-.36.48 0 1.44.36.96.24 1.56.24 2.04 0 4.32-2.76 2.4-2.88 4.32-2.88l-1.32 2.16 1.68 6.36 1.2-3.6-.24-3.12.48-.96-.24-.36q.84.36 1.68.36 1.56 0 3.72-2.52 2.64-2.88 3.6-3.48-.96 29.16-.96 44.159997 0 21.36 1.44 39zm-47.16-56.399997-.24-1.92.24-.6-.72-1.2-1.08 2.16 1.2 3.48zm39 45.359997-.36-1.8.36-.48-.84-1.2-.96 1.92 1.08 3.72zm4.32 6.36-.36-2.4.36-.84-.84-1.32-1.56 2.52 1.56 4.56z"/><path d="m274.15945 105.92975q-3.84 1.92-7.8 3.96 0 24.36 3.48 43.44-1.56.6-4.08 2.52l-.24-1.92q-1.8 1.32-5.16 4.2l-1.8-6.6-1.44 7.68h-.72q-.84-3.6-2.4-10.92-14.04 5.16-22.2 5.16-8.88 0-15.36-5.16l-.36-4.68-6.12-4.92.96 3.72q-5.52-8.16-5.52-19.8 0-21.6 15.12-38.879997 14.64-16.68 36.24-21.48l-.12 4.68-3.24 4.2.72 2.04-2.76 2.4-1.44.36-.96 2.64 5.04-.6 1.2-1.68 1.08 3.12-4.44 3 4.2 4.32q-17.28 7.56-24.96 21.839997-4.92 9.12-4.92 15 0 5.16 3.72 8.28 3.72 3.12 8.76 3.12 4.68 0 11.76-3-1.2-5.64-1.92-11.64-.12.12-14.52 10.44.48-3 1.8-6.36l-3.12-1.92-.72-4.92q10.2-10.2 31.56-23.399997l.24 2.16q3.36-1.8 9.72-4.92 0 3.72.36 7.44l.12.24-.96.24-1.8 1.439997-.6.12-.84 1.44 2.52-.24 1.68-1.56q0 2.76.24 5.4zm-24.6-36.479997-2.64.84-1.92 1.56-.6.24-.6 1.56 2.88-.36zm-7.32 9.72-1.92.48-1.32 1.08-.36.12-.48 1.2 2.04-.24zm18.72 59.279997-2.64.84-1.92 1.56-.72.36-.6 1.44 3-.36zm-45.96 1.08-.12-2.88-3.6-2.76.72 2.52 1.32 1.68.12.72z"/><path d="m331.9294 99.809753q-.6 5.159997-1.92 15.359997l-2.4.84q1.32 8.16 4.2 21.6-.48.24-1.08.24-.36 0-2.16-.24-1.44-.12-2.28 0l.24-1.56-.72-1.92.24-.84-1.08-.96-.84 3 1.44 2.64q-.72.48-1.08 1.68l-1.92.48q0 .48.48 3.24-2.4.84-7.08 2.88-3.48-12.96-6.24-24.24-5.16 1.68-15.84 7.08-2.04 12.6-2.88 20.16-1.8.96-4.92 3 0-1.2.24-2.88-5.04 3.84-6.24 3.84-1.92 0-1.56-3.36-1.08 2.16-3 6.6h-.24q.36-4.44.48-20.4.12-12.72 1.44-20.16 0-1.08.96-1.92 1.08-.96 1.08-2.76 0-1.32-.48-3.84-.48-2.64-.48-3.96 0-7.679997 3.84-30.119997 2.64-1.08 8.04-2.76 2.52 0 6-1.2v9.24l1.92-3.6.24-3.36.6-.96-.6-1.68q.96-1.2 4.2-3.36 1.44-.6 4.92-1.92-.72 3.12-1.32 6 4.2-1.08 3.72-1.08.6 0 1.08.48.6.48.84.48.36 0 .6-.12.72-.84 2.4-2.64 2.4-2.04 7.56-4.44.36 18.96 3.12 39.359997.12 0 6.48-1.919997zm-17.76-24.72-.6-1.92.12-.72-1.08-.96-.96 2.76 2.04 3.6zm-20.76 6.24-.36-1.2-1.44 2.04.36 3.36 1.08-1.8v-1.92zm12.96 25.799997q-2.52-11.759997-3.72-21.359997-1.68 6.48-3.36 12.96-1.68 7.559997-2.28 13.079997z"/><path d="m398.21944 90.449753q0 6.84-2.28 14.399997-6.24 19.44-22.8 33.36-16.56 13.92-36.84 16.56l1.32-5.16 3.24-1.32-.36-2.04h2.4l4.2-4.32-3.6.6-2.28 1.68-1.08.12-.12.12-1.2-6.48 4.32-.72q-2.64-20.76-3.6-42.239997-3.84 2.04-8.64 5.519997l.6-5.879997h1.8l5.16-5.28-4.08.72-2.76 2.04-1.08-4.8 2.4-4.08-3.6-4.2-.96-4.68q19.08-11.04 38.04-11.04 19.32 0 26.52 10.56l.12 5.76 4.56 4.32q.6 3.12.6 6.48zm-4.68-1.68-.6-2.88-1.68-2.04-.12-.96-1.56-.84v3.12zm-47.76-12.72-1.92.24-1.2 1.08-.72.12-.6.96h2.04zm30.72 24.839997q0-12.839997-15.24-12.599997-2.04 17.399997-2.04 41.159997 7.32-5.16 12-12.48 5.28-8.16 5.28-16.08zm-35.04-20.399997-2.76.6-1.8 1.32h-.96l-.84 1.56h2.88zm11.04 62.159997-2.16.24-1.68 1.2-.48.12-.72 1.08h2.4z"/><path d="m478.5496 95.849753q0 20.279997-15.48 38.999997-16.2 19.56-35.88 19.56-7.56 0-14.16-3.6l-1.08-3.6-5.76-2.88 1.08 2.28q-9.12-9-9.12-24.72 0-20.88 15.24-39.239997 15.96-19.2 36.48-19.2 9 0 15.6 4.8l2.76 5.4-1.68-.12-1.08-3.12-5.52-3 1.56 3.36 2.64 2.04.36.6-1.68-.12v5.04l-.84.6-.72-1.92-5.76-3 1.68 3.36 2.76 2.04v.24l-3 1.56-2.88 4.56 4.56-3.12 5.88-.36.36.72 1.68 1.32.24.48 1.56.36-.84-2.52-2.04-.84-.24-1.92 3-.6-1.32-2.4 6.12 2.4 1.2-1.44q4.32 8.16 4.32 18zm-13.92-6.48-.6-1.8-2.88-1.44.96 1.68 1.2.84.12.48zm-9.6-9.12-.6-2.4-3.96-1.92 1.2 2.16 1.8 1.32.24.6zm4.2 25.079997q0-7.319997-4.08-12.239997-4.08-5.04-11.16-5.04-11.04 0-19.68 10.68-8.16 9.959997-8.16 21.359997 0 7.08 3.96 12 4.2 5.28 11.4 5.28 11.16 0 19.68-10.68 8.04-10.2 8.04-21.36zm-40.92 32.76-.6-2.16-3.24-1.68.96 1.92 1.56 1.2.24.48zm1.32 8.76-.6-2.28-3.36-1.68 1.08 1.92 1.32 1.2.24.48zm-5.64-2.88-1.2-3.84-5.76-2.76 1.68 3.24 2.64 1.92.36.96z"/><path d="m554.91955 139.52975-2.16-.72q.36 2.64 1.44 7.44-.84 0-7.44-.96l3.24 2.88 3.48 1.08.84.96h.12l.24 1.2q-17.4-4.68-23.04-6.36-12.96-3.6-22.92-7.32.12 3.48.6 10.32-.96.48-3.24 1.56-2.28-2.4-3.48-3.6l-1.92 3-2.4-5.04-.6 3.84.6 3-.24.84-1.08-.48q-.84.6-2.4 2.04-4.32-36.36-5.04-59.039997-4.56 3-8.16 5.999997-.48-1.679997-1.2-5.039997l2.52.12 4.8-4.56-3.84.48-2.52 1.8-1.08.12-.36.48-.6-2.52q.48-.12.48-.36 0-.12-.6-.48-.6-.48-.84-.96l.6-.36q-.12-.12-.12-.36 0-.24 2.04-1.32 2.04-1.2 2.04-1.56 0-.24-.12-.6-.24-.6-1.68-.6-1.44-.12-1.32-1.08-1.68.48-2.64.48-.96 0-.72-.12 0 0 0-.24l.6-2.88v-1.92q.36-.12 2.64-1.8 8.88-6.84 19.92-10.8 11.64-4.56 22.08-4.56 10.56 0 17.4 4.68 7.56 5.4 7.56 15.48 0 20.879997-25.08 38.279997 16.8 8.4 33.12 13.92.24 1.92.48 5.64zm-28.8-50.639997q0-6.6-7.8-6.6-2.76 0-6.6 1.08-1.92 17.999997-1.92 23.279997 16.32-9.959997 16.32-17.759997zm-34.68-10.68-3.84.48-2.64 1.68h-1.2l-1.2 2.04 4.08.24zm1.08 7.92-1.8.24q-1.56.96-2.28.96l-.6 1.08 2.16.12zm49.2 57.719997-1.32-1.92-4.2-.48 1.8 1.44 1.92.6.48.48zm-43.44-9.96-1.56-3.24-.36 2.04.36 1.68-.12.72.96.96zm4.8 6.24-1.92-4.2-.48 2.52.48 2.28-.24.84 1.2 1.2z"/><path d="m610.7696 59.609753q-.72 1.32-.84 4.32-.12 3-.6 4.44l-1.44-.36-3 2.52 2.28-.12 1.56-1.08q-.96 2.04-1.68 3.84 1.2-.36 3.6-.96-1.56 3.84-2.04 6-15.36 3.96-26.64 8.16-.36 2.64-1.08 10.08 4.32-1.68 12.84-5.4l.12 2.28q5.4-1.8 11.4-3.36-.84 6.36-1.32 14.399997-11.28 3.36-24.36 8.28-.6 9.6-.6 22.68 11.88-6 24.12-10.32-.36 1.32-.84 3.36 1.08-.36 3.36-1.08-.24 1.56-.24 2.52l-2.16-.24-4.92 3.96 3.6-.24 2.76-1.44h.6l-.12 1.92-1.8.6q.48.72 1.56 1.92-.36 1.08-.96 2.88-11.64 3.12-21.36 7.8-1.08.72-3.6 1.8l.12 1.44q-1.2.24-3.36.96l-.48-.36q-6.48 3.48-13.8 8.04 0-4.92 2.64-7.44l-.12-.48q-.96-.12-2.28-.84.6-1.8 1.08-2.64-.6-.84-1.2-2.52l1.44-.84q-1.44-11.16-2.4-22.56-2.88 1.56-4.68 2.28.84-1.92 2.88-6-1.68-1.2-3.12-2.28 0-.96 0-2.76 0-1.56 0-2.4 1.68-1.2 3.96-2.76-.48-5.52-.48-11.159997-4.2 2.28-8.28 4.079997v-3.839997q.84-1.56 2.64-4.8l.72-.72 1.8-.96h.72l.96-1.08-2.52-.36-2.4 1.92q-.84-.84-2.04-2.88.36-.84.36-3.36.12-2.52.48-3.36h-1.8v-.72q2.88-1.8 8.76-5.16 11.28-5.76 30.12-11.76l1.8 1.44q8.4-2.4 20.28-5.28zm-44.76 23.28-3.96-.48-4.8 4.08 3.6-.24 2.76-1.56h.96zm28.32 54.119997-2.16-.36-3 2.28 2.28-.12 1.44-.84h.72z"/><path d="m660.25971 77.729753q-24.48 14.76-24.48 24.479997 0 3.48 6 6.24 9.12 4.32 11.04 5.88 6 4.68 6 12.72 0 8.04-7.68 17.64-5.64 7.44-14.28 14.04-.96-.48-1.08-1.44-.12-.84-1.2-1.08-.96-.24-2.88-.24l-.84-2.64 1.08-.12 3.84-3.96-2.52.84-2.16 1.56-.72.12-.48.72-5.64-.36q15.36-10.8 15.36-16.92 0-3.12-4.32-5.64-3.48-1.68-6.84-3.12-1.92-.96-3-3-.72-1.44-1.92-1.44-1.2 0-3.48.6-6.48-3.96-8.88-6.24-4.44-4.2-4.44-9.48 0-12.839997 17.52-27.959997 13.32-11.52 29.28-19.08.24.36 1.2 1.92.6.96.6 1.68 0 1.08-3 7.32l5.64.96-1.08 2.52-1.32.36-2.04 1.68-.72.12-1.2 1.92 2.64.24 2.16-2.76zm-12.72-1.8-2.04.36-1.56 1.2h-.48l-1.08 1.2h2.04zm-5.76 5.4-1.44.24-1.08.84h-.48l-.6.96h1.44zm1.92 61.799997q-.96.96-2.88 2.16l-.36 1.08 1.56-.48zm-3.6 6.48-1.8.6-1.32.96-.6.12-.6 1.2 1.8-.24z"/></g></g></g></svg>