<svg enable-background="new 0 0 566.929 129.21" height="148.49655" viewBox="0 0 485.41313 118.79724" width="606.76642" xmlns="http://www.w3.org/2000/svg"><g transform="translate(59.958584 -7.220403)"><g transform="translate(-274)"><path d="m310.11386 52.034115-11.7961-1.108358-2.13755 23.671368 11.87527 1.02919q.63335.07917 1.2667.07917 4.11676 0 7.44183-2.770896 3.72092-3.166738 4.11676-8.075182.0792-.633348.0792-1.266695 0-4.11676-2.7709-7.441835-3.16673-3.720917-8.07518-4.11676zm7.20433 54.230395h-.15834q.23751-.95003.31668-1.97922.0792-.55417.0792-1.10835 0-4.195931-2.85007-7.600175-3.16674-3.720917-8.07518-4.11676l-11.7961-1.029189-3.48341 39.425894q-.31668 3.56258-3.72092 3.56258h-.55418l-11.7961-1.02919q-3.64175-.31668-3.64175-3.72092v-.55418l8.31269-94.685471q.31667-3.562581 3.72092-3.562581h.55418l27.62979 2.375054q13.06279 1.187527 21.53382 10.608573 7.521 8.471024 7.521 19.158766 0 1.266695-.0792 2.612559-1.10836 12.191941-11.08358 20.108787-.39584.316674-.95002.712516.47501.395842.79168.870853 7.521 8.391856 7.521 19.079594 0 1.2667-.0792 2.61256l-2.29589 25.65058q-.31667 3.56258-3.72092 3.56258h-.55418l-11.7961-1.02919q-3.64174-.31667-3.64174-3.72092v-.55417z" fill="#f3010f" stroke-width="2.5" transform="matrix(.99541819 -.06162638 .06300598 1.0007022 0 0)"/><path d="m286.26562 12.382813c-2.89121.06631-5.85599 1.727671-6.86523 4.539062-.96792 2.443371-.54562 5.121547-.73437 7.679687-.73229 30.41039-1.48957 60.819766-2.19336 91.230468.009 2.96276 1.69418 6.03851 4.58203 7.06055 2.48727.97029 5.20554.55285 7.80664.74219 2.90416.0284 5.89906.28584 8.8457.082 2.98287-.34335 5.69865-2.63918 6.23242-5.64453.47506-2.29528.22452-4.65563.38086-6.98047.25374-10.21992.50798-20.440244.76172-30.660159 2.80221.07469 5.56746.100499 8.31445.24414 4.29317.125272 7.82385 4.520105 7.1543 8.740235-.28487 2.054069-.6505 4.096503-.95312 6.148437.83167-.418951.95674.02969.81445.804688-.16443 7.020049-.41687 14.039529-.49219 21.060549.1322 2.94912 2.03068 5.87531 4.93946 6.72656 2.42842.79647 5.02255.42719 7.52929.60937 2.82702.0279 5.76051.27158 8.64258.0918 3.01911-.3046 5.78906-2.61167 6.33203-5.64844.47607-2.29569.23154-4.65692.38867-6.98242.16502-7.4944.46162-14.988581.51367-22.484372-.1585-6.797642-2.4862-13.544584-6.71289-18.888672-.3836-.498766-.78884-.981774-1.20117-1.457032 5.05423-5.253001 8.32439-12.236635 8.86133-19.527343.63877-7.452908-1.25786-15.145339-5.57227-21.28711-4.97658-7.176254-12.59826-12.56823-21.14648-14.507782-3.71158-.931456-7.55122-1.076809-11.35937-1.109375-8.28965-.194133-16.57911-.425939-24.86915-.582031zm.53907 3.990234 27.65429.673828c8.71851.255565 16.08632 3.35198 22.10352 9.289063 5.34684 5.34232 8.24443 11.576866 8.69336 18.707031.0532.845056.0819 1.718014.0859 2.61914-.22341 8.179205-3.47849 15.115213-9.76563 20.806641-.24938.227527-.55121.484636-.90234.771484.33185.244565.61365.51838.84375.822266 5.34351 5.289505 8.24052 11.500697 8.68945 18.630859.0532.84506.08 1.718017.084 2.619141l-.66797 25.81055c-.0605 2.38973-1.22134 3.65311-3.48047 3.79297l-.55078.0352-11.80664-.30273c-2.43001-.0617-3.71639-1.22894-3.85938-3.5l-.0352-.55469.66993-25.810547-.15821.0098c.11772-.643556.18015-1.310139.18946-2 .0293-.37296.033-.743569.01-1.113281-.17624-2.799253-1.28207-5.275691-3.3164-7.429688-2.25778-2.35225-5.02295-3.560626-8.29688-3.623047l-11.80664-.302734-.98437 39.667967c-.0605 2.38973-1.21945 3.65506-3.47852 3.79492l-.55273.0352-11.80664-.30274c-2.43002-.0617-3.71639-1.22893-3.85938-3.5l-.0352-.55469 2.3086-95.263664c.0605-2.389731 1.22139-3.655061 3.48047-3.794922zm15.35547 20.205078-.63672 23.818359 11.88476.298828c.42362.02679.84728.02599 1.26758 0 2.73193-.169133 5.14226-1.245299 7.23242-3.230468 2.33624-2.265512 3.53333-5.043128 3.58985-8.333985.0259-.425782.0246-.85091-.002-1.273437-.17292-2.746434-1.24809-5.170958-3.22656-7.275391-2.25777-2.35225-5.02489-3.560626-8.29883-3.623047zm3.89062 4.125c2.5905.08398 5.18099.167969 7.77149.251953 4.01299-.103951 7.67839 3.442952 7.6914 7.460938.13798 2.590316-.97328 5.245855-3.10351 6.779296-1.54924 1.210812-3.55803 1.710324-5.5 1.486329-2.42713-.06092-4.85412-.122672-7.28125-.183594.14062-5.264974.28125-10.529948.42187-15.794922z" fill="#845f23" stroke-width="2.5"/><path d="m288.04297 12.402344c-1.79663.09183-3.5924.791761-4.91992 1.998047-.2068.507301-.33187 1.100012-.34961 1.800781l-2.3086 95.263668.0352.55469c.0995 1.57993.76636 2.6124 1.97266 3.12305l2.30078-94.941408c.0605-2.389731 1.22139-3.655061 3.48047-3.794922l.55078-.0332 27.65429.673828c8.71851.255565 16.08632 3.35198 22.10352 9.289063 1.90766 1.906051 3.4893 3.931097 4.77344 6.064453-1.45563-3.647863-3.70991-7.003512-6.77344-10.064453-6.0172-5.937082-13.38501-9.033498-22.10352-9.289063zm37.07617 29.189453c.19578.730266.32769 1.483261.37695 2.265625.0266.422528.0279.847657.002 1.273437-.0518 3.015978-1.07444 5.595231-3.04102 7.75-.51161.898823-1.19296 1.699764-2.04687 2.314453-1.54924 1.210812-3.55803 1.710324-5.5 1.486329-.028-.000703-.056-.0013-.084-.002-.0507.0038-.0994.01247-.15039.01562-.4203.02602-.84395.0268-1.26758 0l-9.77929-.246093-.10547 3.947265 11.88476.298828c.42362.02679.84728.02599 1.26758 0 2.73193-.169133 5.14226-1.245299 7.23242-3.230468 2.33624-2.265512 3.53333-5.043128 3.58985-8.333985.0259-.425782.0246-.85091-.002-1.273437-.146-2.318887-.94391-4.404614-2.37695-6.265625zm12.53711 26.800781c-.0275.02503-.0525.05119-.0801.07617-.24938.227527-.55121.484636-.90234.771484.33185.244565.61365.51838.84375.822266 1.91429 1.894941 3.50086 3.913528 4.78711 6.044922-1.09234-2.74323-2.64216-5.315311-4.64844-7.714844zm-13.44531 12.958984c.20372.750415.34003 1.524534.39062 2.328126.0233.369712.0195.740316-.01 1.113281-.009.689861-.0717 1.35645-.18946 2l.15821-.0098-.66993 25.810551.0352.55469c.0995 1.58097.76483 2.61471 1.97266 3.125l.66211-25.490241-.15821.0098c.11772-.643556.18015-1.310139.18946-2 .0293-.37296.0328-.743569.01-1.113281-.147-2.334855-.95078-4.442232-2.39062-6.328126z" fill="#bb000f" transform="translate(-2)"/><path d="m284.26562 8.3828125c-2.89121.066307-5.85599 1.7276715-6.86523 4.5390625-.96792 2.443371-.54562 5.121547-.73437 7.679687-.73229 30.41039-1.48957 60.819766-2.19336 91.230468.009 2.96276 1.69418 6.03851 4.58203 7.06055 2.48727.97029 5.20554.55285 7.80664.74219 2.90416.0284 5.89906.28584 8.8457.082 2.98287-.34335 5.69865-2.63918 6.23242-5.64453.47506-2.29528.22452-4.65563.38086-6.98047.25374-10.219923.50798-20.440244.76172-30.660159 2.80221.07469 5.56746.100499 8.31445.24414 4.29317.125272 7.82385 4.520105 7.1543 8.740235-.28487 2.054069-.6505 4.096503-.95312 6.148437.83167-.418951.95674.02969.81445.804688-.16443 7.020047-.41687 14.039529-.49219 21.060549.1322 2.94912 2.03068 5.87531 4.93946 6.72656 2.42842.79647 5.02255.42719 7.52929.60937 2.82702.0279 5.76051.27158 8.64258.0918 3.01911-.3046 5.78906-2.61167 6.33203-5.64844.47607-2.29569.23154-4.65692.38867-6.98242.16502-7.4944.46162-14.988581.51367-22.484372-.1585-6.797642-2.4862-13.544584-6.71289-18.888672-.3836-.498766-.78884-.981774-1.20117-1.457032 5.05423-5.253001 8.32439-12.236635 8.86133-19.527343.63877-7.452908-1.25786-15.145339-5.57227-21.28711-4.97658-7.176254-12.59826-12.56823-21.14648-14.507782-3.71158-.9314564-7.55122-1.0768086-11.35937-1.1093752-8.28965-.1941325-16.57911-.4259392-24.86915-.5820313zm.53907 3.9902345 27.65429.673828c8.71851.255565 16.08632 3.35198 22.10352 9.289063 5.34684 5.34232 8.24443 11.576866 8.69336 18.707031.0532.845056.0819 1.718014.0859 2.61914-.22341 8.179205-3.47849 15.115213-9.76563 20.806641-.24938.227527-.55121.484636-.90234.771484.33185.244565.61365.51838.84375.822266 5.34351 5.289505 8.24052 11.500697 8.68945 18.630859.0532.84506.08 1.718017.084 2.619141l-.66797 25.81055c-.0605 2.38973-1.22134 3.65311-3.48047 3.79297l-.55078.0352-11.80664-.30273c-2.43001-.0617-3.71639-1.22894-3.85938-3.5l-.0352-.55469.66993-25.810547-.15821.0098c.11772-.643556.18015-1.310139.18946-2 .0293-.37296.033-.743569.01-1.113281-.17624-2.799253-1.28207-5.275691-3.3164-7.429688-2.25778-2.35225-5.02295-3.560626-8.29688-3.623047l-11.80664-.302734-.98437 39.667967c-.0605 2.38973-1.21945 3.65506-3.47852 3.79492l-.55273.0352-11.80664-.30274c-2.43002-.0617-3.71639-1.22893-3.85938-3.5l-.0352-.55469 2.3086-95.263664c.0605-2.389731 1.22139-3.655061 3.48047-3.794922zm15.35547 20.205078-.63672 23.818359 11.88476.298828c.42362.02679.84728.02599 1.26758 0 2.73193-.169133 5.14226-1.245299 7.23242-3.230468 2.33624-2.265512 3.53333-5.043128 3.58985-8.333985.0259-.425782.0246-.85091-.002-1.273437-.17292-2.746434-1.24809-5.170958-3.22656-7.275391-2.25777-2.35225-5.02489-3.560626-8.29883-3.623047zm3.89062 4.125c2.5905.08398 5.18099.167969 7.77149.251953 4.01299-.103951 7.67839 3.442952 7.6914 7.460938.13798 2.590316-.97328 5.245855-3.10351 6.779296-1.54924 1.210812-3.55803 1.710324-5.5 1.486329-2.42713-.06092-4.85412-.122672-7.28125-.183594.14062-5.264974.28125-10.529948.42187-15.794922z" fill="#fad60b" stroke-width="2.5"/></g><g transform="translate(-99.870811 -.13527)"><path d="m74.5247 74.847839h-11.71875v39.062501q0 3.90625-3.90625 3.90625h-11.71875q-3.90625 0-3.90625-3.90625v-93.750001q0-3.90625 3.90625-3.90625h27.34375q12.96875 0 22.109375 8.59375 9.140625 8.59375 9.140625 20.703125 0 12.109375-9.140625 20.703125-9.140625 8.59375-22.109375 8.59375zm0-39.0625h-11.71875v23.4375h11.71875q4.84375 0 8.28125-3.4375 3.4375-3.4375 3.4375-8.28125 0-4.84375-3.4375-8.28125-3.4375-3.4375-8.28125-3.4375z" fill="#f3010f" stroke-width="2.5" transform="matrix(.99945684 -.03295479 .03295479 .99945684 0 0)"/><path d="m76.409874 13.79738c-9.25043.34414-18.507225.58484-27.755859.95117-2.941674.2707-5.758186 2.34929-6.425781 5.30469-.630047 2.45713-.116883 5.00354-.154297 7.5.989752 29.915526 1.960256 59.832061 2.980469 89.74609.190634 3.10122 2.462489 6.07359 5.58789 6.6543 2.415186.51535 4.889067.0578 7.330078.0801 2.836143-.13243 5.77737-.0647 8.644532-.41406 3.050815-.53834 5.594271-3.21513 5.816406-6.33203.235372-2.37543-.09732-4.75887-.0918-7.13868l-.972653-29.5508c4.110433-.177161 8.347095-.100872 12.472656-.681641 7.33189-1.078415 14.275089-4.564094 19.509765-9.8125 5.19476-5.063244 8.87021-11.822411 9.64844-19.085937 1.01291-8.292794-1.13889-17.056692-6.43164-23.595702-5.60281-7.15082-13.984903-12.14082-23.025393-13.31055-2.361523-.32189-4.753054-.35703-7.132813-.31445zm2.216797 3.97266c7.962674.0733 14.886647 2.69899 20.773438 7.8789 6.279241 5.52524 9.552321 12.32209 9.818361 20.390626.26604 8.068532-2.55149 15.067268-8.45313 20.994141-5.901634 5.926873-13.173313 9.033438-21.81445 9.318359l-11.712891.384766 1.28711 39.041018c.08582 2.60275-1.172639 3.94738-3.775391 4.0332l-11.710937.38672c-2.602753.0858-3.947384-1.17264-4.033203-3.77539l-3.089844-93.69922c-.08582-2.60275 1.172638-3.94738 3.77539-4.0332l27.328125-.90039c.540071-.0178 1.076577-.0244 1.607422-.0195zm-.96289 19.53906-11.712891.38672.773438 23.425778 11.710937-.386719c3.227413-.106417 5.949162-1.343041 8.164063-3.708985 2.2149-2.365943 3.268525-5.163212 3.162109-8.390625-.106417-3.227412-1.341088-5.947208-3.707031-8.162109-2.365944-2.2149-5.163213-3.27048-8.390625-3.16406zm1.011718 3.999998c3.791662.250872 7.105442 3.657476 7.095703 7.488281.169518 3.23849-1.992342 6.374398-5.021484 7.474609-1.978174.737069-4.12554.41885-6.1875.589844-1.324537.04365-2.650072.08721-3.974609.130859l-.50586-15.43164c2.865727-.07415 5.745895-.228931 8.59375-.251953z" fill="#845f23"/><g transform="translate(115.48214 136.41066)"><path d="m-39.072266-122.61328c-9.25043.34414-18.507225.58484-27.755859.95117-1.641568.15106-3.229474.88085-4.441406 1.99609-.213415.55228-.322463 1.2025-.296875 1.97852l3.089844 93.699219c.05911 1.79267.729306 2.931979 1.982421 3.449219l-3.072265-93.148438c-.08582-2.60275 1.172638-3.94738 3.77539-4.0332l27.328125-.90039c.540071-.0178 1.076577-.0244 1.607422-.0195 7.962674.0733 14.886647 2.69899 20.773438 7.8789 2.405788 2.11691 4.36549 4.42188 5.888672 6.91211-1.618751-4.06468-4.24339-7.70455-7.888672-10.91211-5.601197-4.92861-12.144455-7.53826-19.625-7.84375-.455062.001-.91074-.0159-1.365235-.008zm10.947266 28.111327c.229606.866849.372788 1.770945.404297 2.726562.104392 3.166003-.915495 5.914949-3.044922 8.251953-.896866 1.529935-2.289022 2.775384-3.966797 3.384766-1.978174.737069-4.12554.41885-6.1875.589844-1.324537.04365-2.650072.08721-3.974609.130859l-.002-.06445-3.996094.13086.134766 4.0625 11.710937-.386719c3.227413-.106417 5.949162-1.343041 8.164063-3.708985 2.2149-2.365943 3.268525-5.163212 3.162109-8.390625-.08454-2.564019-.894041-4.801944-2.404297-6.726562z" fill="#bb000f"/><path d="m-41.072266-126.61328c-9.25043.34414-18.507225.58484-27.755859.95117-2.941674.2707-5.758186 2.34929-6.425781 5.30469-.630047 2.45713-.116883 5.00354-.154297 7.5.989752 29.915526 1.960256 59.832061 2.980469 89.746092.190634 3.10122 2.462489 6.073587 5.58789 6.654297 2.415186.51535 4.889067.05778 7.330078.08008 2.836143-.13243 5.77737-.06473 8.644532-.414063 3.050815-.53834 5.594271-3.215131 5.816406-6.332031.235372-2.37543-.09732-4.758862-.0918-7.138672l-.972653-29.550783c4.110433-.177161 8.347095-.100872 12.472656-.681641 7.33189-1.078415 14.275089-4.564094 19.509766-9.8125 5.1947596-5.063244 8.8702071-11.822411 9.6484371-19.085937 1.01291-8.292794-1.1388906-17.056692-6.4316401-23.595702-5.602805-7.15082-13.984901-12.14082-23.025391-13.31055-2.361523-.32189-4.753054-.35703-7.132813-.31445zm2.216797 3.97266c7.962674.0733 14.886647 2.69899 20.773438 7.8789 6.279243 5.52524 9.5523178 12.32209 9.8183591 20.390626.2660413 8.068532-2.5514881 15.067268-8.4531251 20.994141s-13.173316 9.033438-21.814453 9.318359l-11.712891.384766 1.28711 39.041016c.08582 2.602752-1.172639 3.947383-3.775391 4.033203l-11.710937.386718c-2.602753.08582-3.947384-1.172638-4.033203-3.77539l-3.089844-93.699219c-.08582-2.60275 1.172638-3.94738 3.77539-4.0332l27.328125-.90039c.540071-.0178 1.076577-.0244 1.607422-.0195zm-.96289 19.53906-11.712891.38672.773438 23.425778 11.710937-.386719c3.227413-.106417 5.949162-1.343041 8.164063-3.708985 2.2149-2.365943 3.268525-5.163212 3.162109-8.390625-.106417-3.227412-1.341088-5.947208-3.707031-8.162109-2.365944-2.2149-5.163213-3.27048-8.390625-3.16406zm1.011718 3.999998c3.791662.250872 7.105442 3.657476 7.095703 7.488281.169518 3.23849-1.992342 6.374398-5.021484 7.474609-1.978174.737069-4.12554.41885-6.1875.589844-1.324537.04365-2.650072.08721-3.974609.130859l-.50586-15.43164c2.865727-.07415 5.745895-.228931 8.59375-.251953z" fill="#fad60b"/></g></g><g transform="matrix(.99546967 .09507967 -.09507967 .99546967 -215.649852 -42.010733)"><path d="m423.80249 119.11326v23.75054h39.58423q3.95842 0 3.95842 3.95842v11.87527q0 3.95842-3.95842 3.95842h-55.41792q-3.95842 0-3.95842-3.95842v-95.002143q0-3.958423 3.95842-3.958423h55.41792q3.95842 0 3.95842 3.958423v11.875268q0 3.958423-3.95842 3.958423h-39.58423v23.750532h31.66738q3.95842 0 3.95842 3.95843v7.91684q0 3.95842-3.95842 3.95842z" fill="#f3010f" stroke-width="2.5" transform="matrix(.9916639 -.10610376 .10771839 .99688077 0 0)"/><path d="m468.25 10.353516c-18.45599 1.916118-36.90044 3.954317-55.35547 5.880859-2.65699.220804-5.41382 1.513331-6.61523 4.013672-1.39971 2.684298-.5846 5.758442-.34375 8.603515 3.31068 30.579842 6.59408 61.164499 9.93945 91.740238.45403 3.01104 2.84116 5.75079 5.93164 6.16406 2.22758.3931 4.40731-.19318 6.58789-.33203 17.30655-1.86339 34.6193-3.67078 51.91992-5.58399 3.09163-.45535 5.85913-3.00117 6.16407-6.17968.30752-2.42657-.32106-4.83675-.47657-7.25196-.37051-2.96133-.4991-5.96498-1.11133-8.888669-.79237-2.959477-3.60694-5.259987-6.69921-5.27539-2.34011-.07624-4.64657.434484-6.97461.59375l-30.01172 3.210937c-.56641-5.240885-1.13281-10.481771-1.69922-15.722656 9.4853-1.033029 18.98028-1.987161 28.45703-3.087891 3.05803-.520522 5.72776-3.102538 5.99219-6.251953.26241-2.359553-.31712-4.700168-.49414-7.044922-.2878-2.728913-.29039-5.80673-2.26953-7.949218-1.6135-1.830459-4.15181-2.652404-6.54688-2.341797-3.80821.337046-7.60325.816549-11.4082 1.195312l-16.29492 1.742188c-.56641-5.240886-1.13282-10.481771-1.69922-15.722657 12.06981-1.306321 24.14826-2.547735 36.21093-3.912109 3.09355-.485146 5.81747-3.075971 6.08594-6.257813.27264-2.428746-.34455-4.835621-.50195-7.251953-.36232-2.928206-.49867-5.895658-1.09961-8.787109-.77355-2.868336-3.43234-5.131336-6.42578-5.273437-.41935-.03918-.841-.04282-1.26172-.0293zm.63477 3.99414c2.03469.07336 3.17705 1.260623 3.42578 3.5625l1.27929 11.837891c.28426 2.630717-.88305 4.085232-3.5 4.365234l-39.2539 4.201172 2.55859 23.675781 31.4043-3.359375c2.61694-.280002 4.0673.894669 4.35156 3.525391l.85156 7.892578c.28427 2.630715-.8811 4.085232-3.49804 4.365234l-31.4043 3.361329 2.55859 23.675779 39.25391-4.199217c2.61695-.280003 4.06925.894675 4.35351 3.525387l1.27735 11.83789c.28427 2.63072-.88109 4.08719-3.49805 4.36719l-54.95508 5.87891c-2.61694.28-4.06925-.89468-4.35351-3.52539l-10.23242-94.707034c-.28427-2.630717.88109-4.085232 3.49804-4.365234l54.95703-5.88086c.32712-.035.63512-.04564.92579-.03516z" fill="#845f23" stroke-width="2.5"/><path d="m467.54688 10.427734c-18.2213 1.894806-36.43172 3.904568-54.65235 5.806641-1.86383.15489-3.76553.85082-5.15625 2.107422-.24576.62693-.3322 1.381784-.23437 2.287109l10.23242 94.707034c.17854 1.65235.81916 2.72837 1.91797 3.23242l-10.15039-93.939454c-.28427-2.630717.88109-4.085232 3.49804-4.365234l54.95703-5.88086c.32712-.035.63512-.04564.92579-.03516.57777.02083 1.07592.141312 1.50976.341797l-.084-.779297c-.21999-2.035848-1.14668-3.189756-2.76367-3.482422zm-3.1504 44.248047c-3.72487.335666-7.43792.799393-11.16015 1.169922l-16.29492 1.742188c-.007-.06312-.0127-.126336-.0195-.189453l-3.97657.425781.44922 4.166015 31.4043-3.359375c.97322-.10413 1.78303-.0053 2.43359.292969l-.082-.767578c-.21956-2.031887-1.14277-3.184987-2.75391-3.480469zm12.02149 38.609375c-1.73714.12017-3.46296.43382-5.20117.552735l-30.01172 3.210937c-.007-.06312-.0127-.126336-.0195-.189453l-3.97657.425781.44922 4.166014 39.25391-4.199217c.97325-.104133 1.78464-.0054 2.43555.292969l-.082-.767578c-.22356-2.069026-1.18117-3.223624-2.84765-3.492188z" fill="#bb000f"/><path d="m466.25 6.3535156c-18.45599 1.9161186-36.90044 3.9543174-55.35547 5.8808594-2.65699.220804-5.41382 1.513331-6.61523 4.013672-1.39971 2.684298-.5846 5.758442-.34375 8.603515 3.31068 30.579842 6.59408 61.164499 9.93945 91.740238.45403 3.01104 2.84116 5.75079 5.93164 6.16406 2.22758.3931 4.40731-.19318 6.58789-.33203 17.30655-1.86339 34.6193-3.67078 51.91992-5.58399 3.09163-.45535 5.85913-3.00117 6.16407-6.17968.30752-2.42657-.32106-4.83675-.47657-7.25196-.37051-2.96133-.4991-5.964985-1.11133-8.888669-.79237-2.959477-3.60694-5.259987-6.69921-5.27539-2.34011-.07624-4.64657.434484-6.97461.59375l-30.01172 3.210937c-.56641-5.240885-1.13281-10.481771-1.69922-15.722656 9.4853-1.033029 18.98028-1.987161 28.45703-3.087891 3.05803-.520522 5.72776-3.102538 5.99219-6.251953.26241-2.359553-.31712-4.700168-.49414-7.044922-.2878-2.728913-.29039-5.80673-2.26953-7.949218-1.6135-1.830459-4.15181-2.652404-6.54688-2.341797-3.80821.337046-7.60325.816549-11.4082 1.195312l-16.29492 1.742188c-.56641-5.240886-1.13282-10.481771-1.69922-15.722657 12.06981-1.306321 24.14826-2.547735 36.21093-3.912109 3.09355-.485146 5.81747-3.075971 6.08594-6.257813.27264-2.428746-.34455-4.835621-.50195-7.251953-.36232-2.928206-.49867-5.895658-1.09961-8.787109-.77355-2.8683357-3.43234-5.1313361-6.42578-5.2734375-.41935-.03918-.841-.042822-1.26172-.029297zm.63477 3.9941404c2.03469.07336 3.17705 1.260623 3.42578 3.5625l1.27929 11.837891c.28426 2.630717-.88305 4.085232-3.5 4.365234l-39.2539 4.201172 2.55859 23.675781 31.4043-3.359375c2.61694-.280002 4.0673.894669 4.35156 3.525391l.85156 7.892578c.28427 2.630715-.8811 4.085232-3.49804 4.365234l-31.4043 3.361329 2.55859 23.675781 39.25391-4.199219c2.61695-.280003 4.06925.894675 4.35351 3.525391l1.27735 11.837886c.28427 2.63072-.88109 4.08719-3.49805 4.36719l-54.95508 5.87891c-2.61694.28-4.06925-.89468-4.35351-3.52539l-10.23242-94.707034c-.28427-2.630717.88109-4.085232 3.49804-4.365234l54.95703-5.88086c.32712-.035.63512-.04564.92579-.03516z" fill="#fad60b" stroke-width="2.5"/></g><g transform="translate(88)"><path d="m62.80595 74.847839v39.062501q0 3.90625-3.90625 3.90625h-11.71875q-3.90625 0-3.90625-3.90625v-93.750001q0-3.90625 3.90625-3.90625h54.6875q3.90625 0 3.90625 3.90625v11.71875q0 3.90625-3.90625 3.90625h-39.0625v23.4375h31.25q3.90625 0 3.90625 3.90625v7.8125q0 3.90625-3.90625 3.90625z" fill="#f3010f" stroke-width="2.5" transform="matrix(.99945684 -.03295479 .03295479 .99945684 0 0)"/><path d="m104.2168 10.892578c-18.501768.621444-37.006265 1.188613-55.505862 1.857422-3.09993.224687-6.032946 2.545103-6.572266 5.673828-.482273 2.385006-.02964 4.820892-.06055 7.228516.9911 29.911677 1.955351 59.824515 2.984375 89.734376.221767 3.10408 2.538456 6.05039 5.675781 6.58789 2.38625.48094 4.823703.0335 7.232422.0586 2.840582-.13463 5.786867-.061 8.658203-.41601 3.007672-.54183 5.533109-3.15127 5.792969-6.22657.258144-2.37533-.08679-4.76171-.07813-7.14257l-.976554-29.646498c9.422145-.325756 18.848914-.579835 28.267582-.972656 3.10117-.290635 5.96155-2.69812 6.42773-5.83789.40699-2.325922.009-4.691475.0117-7.033204-.0663-2.723635.10797-5.796185-1.78516-8.003906-1.49001-1.870746-3.92913-2.783848-6.28515-2.642578-2.220595-.0083-4.418137.163651-6.576176.195313l-20.841796.685547-.50586-15.433594c11.992514-.407948 23.988703-.755593 35.978512-1.216797 3.10716-.255242 6.00325-2.624467 6.50586-5.763672.44661-2.390733.0121-4.824539.0352-7.234375-.13072-2.803899-.0641-5.719217-.41211-8.554688-.53032-2.94519-3.03432-5.420816-6.02734-5.783203-.64303-.09807-1.29349-.129861-1.94336-.113281zm.13281 3.996094c2.60275-.08582 3.94543 1.172638 4.03125 3.77539l.38672 11.712891c.0858 2.602752-1.17264 3.94543-3.77539 4.03125l-39.041018 1.287109.771484 23.425782 31.234375-1.029297c2.602749-.08582 3.947389 1.172638 4.033199 3.775391l.25586 7.80664c.0858 2.602753-1.17263 3.947384-3.77539 4.033203l-31.232419 1.03125 1.28711 39.041019c.08582 2.60275-1.172639 3.94738-3.775391 4.0332l-11.712891.38477c-2.602752.0858-3.94543-1.17264-4.03125-3.77539l-3.089843-93.699224c-.08582-2.602752 1.172638-3.947383 3.77539-4.033203z" fill="#845f23" stroke-width="2.5"/><path d="m102.34961 12.888672-54.658204 1.800781c-2.602752.08582-3.86121 1.430451-3.77539 4.033203l3.089843 93.699224c.06356 1.92776.82132 3.11354 2.265625 3.5664-.151404-.45492-.245979-.9706-.265625-1.5664l-3.089843-93.699224c-.08582-2.602752 1.172638-3.947383 3.77539-4.033203l54.658204-1.800781c.67505-.02226 1.262.05039 1.76758.208984-.51007-1.533563-1.75988-2.275184-3.76758-2.208984zm-6.392579 43.203125-29.302734.964844.06836 2.064453 31.234375-1.029297c.67505-.02226 1.261802.05039 1.767578.208984-.510071-1.533563-1.759874-2.275184-3.767579-2.208984z" fill="#bb000f"/><path d="m102.2168 8.8925781c-18.501768.6214438-37.006265 1.1886129-55.505862 1.8574219-3.09993.224687-6.032946 2.545103-6.572266 5.673828-.482273 2.385006-.02964 4.820892-.06055 7.228516.9911 29.911677 1.955351 59.824515 2.984375 89.734376.221767 3.10408 2.538456 6.05039 5.675781 6.58789 2.38625.48094 4.823703.0335 7.232422.0586 2.840582-.13463 5.786867-.061 8.658203-.41601 3.007672-.54183 5.533109-3.15127 5.792969-6.22657.258144-2.37533-.08679-4.76171-.07813-7.14257l-.976554-29.646498c9.422145-.325756 18.848914-.579835 28.267578-.972656 3.101174-.290635 5.961554-2.69812 6.427734-5.83789.40699-2.325922.009-4.691475.0117-7.033204-.0663-2.723635.10797-5.796185-1.78516-8.003906-1.49001-1.870746-3.929133-2.783848-6.285154-2.642578-2.220591-.0083-4.418133.163651-6.576172.195313l-20.841796.685547-.50586-15.433594c11.992514-.407948 23.988703-.755593 35.978512-1.216797 3.10716-.255242 6.00325-2.624467 6.50586-5.763672.44661-2.390733.0121-4.824539.0352-7.234375-.13072-2.803899-.0641-5.719217-.41211-8.554688-.53032-2.94519-3.03432-5.4208156-6.02734-5.7832026-.64303-.098071-1.29349-.1298612-1.94336-.1132813zm.13281 3.9960939c2.60275-.08582 3.94543 1.172638 4.03125 3.77539l.38672 11.712891c.0858 2.602752-1.17264 3.94543-3.77539 4.03125l-39.041018 1.287109.771484 23.425782 31.234375-1.029297c2.602753-.08582 3.947384 1.172638 4.033203 3.775391l.255856 7.80664c.0858 2.602753-1.172632 3.947384-3.775387 4.033203l-31.232422 1.03125 1.28711 39.041019c.08582 2.60275-1.172639 3.94738-3.775391 4.0332l-11.712891.38477c-2.602752.0858-3.94543-1.17264-4.03125-3.77539l-3.089843-93.699224c-.08582-2.602752 1.172638-3.947383 3.77539-4.033203z" fill="#fad60b" stroke-width="2.5"/></g><g transform="matrix(.99213592 .12516516 -.12516516 .99213592 63.02893 -43.898996)"><g stroke-width="2.5"><path d="m361.71951 125.51262q0 3.95842-3.87925 3.95842h-11.95444q-3.95842 0-3.95842-3.95842v-95.002148q0-3.958423 3.95842-3.958423h11.87527q3.95842 0 3.95842 3.958423z" fill="#f3010f" transform="matrix(.99649149 -.04074225 .04201076 1.0018032 0 0)"/><path d="m359.52148 12.025391c-4.43842.220549-8.88892.273678-13.31836.626953-3.06333.457377-5.74188 3.007568-6.06835 6.134765-.31582 2.362739.0917 4.740948.0937 7.111329 1.27387 30.304163 2.52139 60.60999 3.83593 90.912112.25625 3.03768 2.46298 5.93055 5.52539 6.54101 2.43076.56059 4.92747.0525 7.38672.0625 2.97857-.16955 5.97981-.11332 8.93946-.5 3.01531-.57279 5.50626-3.24309 5.7207-6.33008.2307-2.41224-.13336-4.82892-.14844-7.24414-1.26818-30.136638-2.51325-60.275139-3.8125-90.410152-.21561-3.034232-2.37242-5.947382-5.41016-6.623047-.89287-.242595-1.82275-.298384-2.74414-.28125zm.0996 3.998047c2.62969-.107517 4.00047 1.16098 4.11133 3.804687l3.99024 95.173825c.11086 2.64371-1.12213 4.01769-3.69922 4.12305l-11.91211.48828c-2.6297.10751-4.00047-1.16098-4.11133-3.80469l-3.99023-95.173824c-.11087-2.643708 1.14765-4.019437 3.77734-4.126954z" fill="#845f23"/><path d="m357.52148 8.0253906c-4.43842.2205494-8.88892.2736785-13.31836.6269532-3.06333.4573772-5.74188 3.0075682-6.06835 6.1347652-.31582 2.362739.0917 4.740948.0937 7.111329 1.27387 30.304163 2.52139 60.60999 3.83593 90.912112.25625 3.03768 2.46298 5.93055 5.52539 6.54101 2.43076.56059 4.92747.0525 7.38672.0625 2.97857-.16955 5.97981-.11332 8.93946-.5 3.01531-.57279 5.50626-3.24309 5.7207-6.33008.2307-2.41224-.13336-4.82892-.14844-7.24414-1.26818-30.136638-2.51325-60.275139-3.8125-90.410152-.21561-3.034232-2.37242-5.9473819-5.41016-6.6230474-.89287-.2425944-1.82275-.2983832-2.74414-.28125zm.0996 3.9980474c2.62969-.107517 4.00047 1.16098 4.11133 3.804687l3.99024 95.173825c.11086 2.64371-1.12213 4.01769-3.69922 4.12305l-11.91211.48828c-2.6297.10751-4.00047-1.16098-4.11133-3.80469l-3.99023-95.173824c-.11087-2.643708 1.14765-4.019437 3.77734-4.126954z" fill="#fad60b"/></g><path d="m358.61523 12.060547c-4.13793.18634-8.28393.262549-12.41211.591797-1.45957.217925-2.82246.921595-3.89453 1.925781-.22266.571474-.33275 1.247719-.29882 2.056641l3.99023 95.173824c.0752 1.79253.74341 2.93715 1.97656 3.46485l-3.96679-94.638674c-.11087-2.643708 1.14765-4.019436 3.77734-4.126954l11.83398-.484374c.84606-.03459 1.54742.08959 2.13282.339843l-.0215-.535156c-.0959-2.286163-1.13773-3.538791-3.11719-3.767578z" fill="#bb000f"/></g><g transform="translate(-26)"><path d="m402.90444 100.19478q0 3.95842-3.95842 3.95842h-11.87527q-3.95842 0-3.95842-3.95842v-79.168458h-17.8129q-3.95843 0-3.95843-3.958423v-11.875268q0-3.9584227 3.95843-3.9584227h55.41791q3.95843 0 3.95843 3.9584227v11.875268q0 3.958423-3.95843 3.958423h-17.8129z" fill="#f3010f" stroke-width="2.5" transform="matrix(.99681389 .03189578 -.03101725 1.0022038 0 0)"/><path d="m365.43555 12.892578c-3.184-.0115-6.33576 2.196844-7.05078 5.365234-.60462 2.367648-.32476 4.835407-.50391 7.25-.0446 2.866811-.30931 5.836399-.13867 8.753907.33905 3.082511 2.82801 5.81118 5.92773 6.255859 2.33765.398751 4.72365.21331 7.08203.375 2.78802.08888 5.57527.178693 8.36328.267578-.77591 25.395785-1.60066 50.790651-2.33007 76.187504.0308 3.08243 2.07386 6.15477 5.12695 6.95507 2.35865.69646 4.84878.38203 7.26953.57227 2.91322.0453 5.91377.31694 8.87109.1543 3.05485-.33517 5.76235-2.78216 6.23633-5.84766.42494-2.33734.22384-4.72723.38867-7.08789.72191-23.348013 1.44411-46.696913 2.16602-70.044922 5.01874.135292 10.03721.386556 15.05664.417969 3.01151-.198555 5.87283-2.361718 6.54102-5.363281.60043-2.362138.3213-4.823803.5-7.232422.0461-2.867519.30676-5.837182.14062-8.75586-.3454-3.055127-2.78832-5.772253-5.86133-6.238281-2.35945-.415955-4.77077-.226172-7.15234-.390625-16.8783-.529941-33.75453-1.108196-50.63281-1.59375zm.66211 3.996094 55.24023 1.767578c2.63055.08417 3.90607 1.448986 3.82422 4.09375l-.36914 11.900391c-.0819 2.644764-1.43782 3.925968-4.06836 3.841797l-17.75586-.56836-2.45508 79.341792c-.0818 2.64476-1.43782 3.92597-4.06836 3.8418l-11.83789-.3789c-2.63054-.0842-3.90607-1.44899-3.82422-4.09375l2.45703-79.341801-17.75781-.56836c-2.63054-.08417-3.90411-1.448985-3.82226-4.09375l.36914-11.902343c.0819-2.644765 1.43781-3.924016 4.06836-3.839844z" fill="#845f23" stroke-width="2.5"/><path d="m365.0957 12.919922c-1.74976.0802-3.45151.813866-4.72851 2.001953-.2005.509076-.31621 1.106101-.33789 1.806641l-.36914 11.902343c-.0599 1.935298.61534 3.177968 2.00781 3.742188l.36133-11.644531c.0819-2.644765 1.43781-3.924016 4.06836-3.839844l55.24023 1.767578c.70577.02258 1.30576.144624 1.81641.351562l.008-.257812c.0819-2.644764-1.19368-4.009579-3.82422-4.09375zm16.02344 24.304687-2.33594 75.410161c-.0599 1.93518.61552 3.17792 2.00782 3.74218l2.44921-79.083981z" fill="#bb000f"/><path d="m363.43555 8.8925781c-3.184-.011497-6.33576 2.1968439-7.05078 5.3652339-.60462 2.367648-.32476 4.835407-.50391 7.25-.0446 2.866811-.30931 5.836399-.13867 8.753907.33905 3.082511 2.82801 5.81118 5.92773 6.255859 2.33765.398751 4.72365.21331 7.08203.375 2.78802.08888 5.57527.178693 8.36328.267578-.77591 25.395785-1.60066 50.790651-2.33007 76.187504.0308 3.08243 2.07386 6.15477 5.12695 6.95507 2.35865.69646 4.84878.38203 7.26953.57227 2.91322.0453 5.91377.31694 8.87109.1543 3.05485-.33517 5.76235-2.78216 6.23633-5.84766.42494-2.33734.22384-4.72723.38867-7.08789.72191-23.348013 1.44411-46.696913 2.16602-70.044922 5.01874.135292 10.03721.386556 15.05664.417969 3.01151-.198555 5.87283-2.361718 6.54102-5.363281.60043-2.362138.3213-4.823803.5-7.232422.0461-2.867519.30676-5.837182.14062-8.75586-.3454-3.055127-2.78832-5.772253-5.86133-6.238281-2.35945-.415955-4.77077-.226172-7.15234-.390625-16.8783-.5299413-33.75453-1.1081957-50.63281-1.5937499zm.66211 3.9960939 55.24023 1.767578c2.63055.08417 3.90607 1.448986 3.82422 4.09375l-.36914 11.900391c-.0819 2.644764-1.43782 3.925968-4.06836 3.841797l-17.75586-.56836-2.45508 79.341792c-.0818 2.64476-1.43782 3.92597-4.06836 3.8418l-11.83789-.3789c-2.63054-.0842-3.90607-1.44899-3.82422-4.09375l2.45703-79.341801-17.75781-.56836c-2.63054-.08417-3.90411-1.448985-3.82226-4.09375l.36914-11.902343c.0819-2.644765 1.43781-3.924016 4.06836-3.839844z" fill="#fad60b" stroke-width="2.5"/></g><g transform="translate(-26)"><g stroke-width="2.5"><path d="m361.71951 125.51262q0 3.95842-3.87925 3.95842h-11.95444q-3.95842 0-3.95842-3.95842v-95.002148q0-3.958423 3.95842-3.958423h11.87527q3.95842 0 3.95842 3.958423z" fill="#f3010f" transform="matrix(.99649149 -.04074225 .04201076 1.0018032 0 0)"/><path d="m359.52148 12.025391c-4.43842.220549-8.88892.273678-13.31836.626953-3.06333.457377-5.74188 3.007568-6.06835 6.134765-.31582 2.362739.0917 4.740948.0937 7.111329 1.27387 30.304163 2.52139 60.60999 3.83593 90.912112.25625 3.03768 2.46298 5.93055 5.52539 6.54101 2.43076.56059 4.92747.0525 7.38672.0625 2.97857-.16955 5.97981-.11332 8.93946-.5 3.01531-.57279 5.50626-3.24309 5.7207-6.33008.2307-2.41224-.13336-4.82892-.14844-7.24414-1.26818-30.136638-2.51325-60.275139-3.8125-90.410152-.21561-3.034232-2.37242-5.947382-5.41016-6.623047-.89287-.242595-1.82275-.298384-2.74414-.28125zm.0996 3.998047c2.62969-.107517 4.00047 1.16098 4.11133 3.804687l3.99024 95.173825c.11086 2.64371-1.12213 4.01769-3.69922 4.12305l-11.91211.48828c-2.6297.10751-4.00047-1.16098-4.11133-3.80469l-3.99023-95.173824c-.11087-2.643708 1.14765-4.019437 3.77734-4.126954z" fill="#845f23"/><path d="m357.52148 8.0253906c-4.43842.2205494-8.88892.2736785-13.31836.6269532-3.06333.4573772-5.74188 3.0075682-6.06835 6.1347652-.31582 2.362739.0917 4.740948.0937 7.111329 1.27387 30.304163 2.52139 60.60999 3.83593 90.912112.25625 3.03768 2.46298 5.93055 5.52539 6.54101 2.43076.56059 4.92747.0525 7.38672.0625 2.97857-.16955 5.97981-.11332 8.93946-.5 3.01531-.57279 5.50626-3.24309 5.7207-6.33008.2307-2.41224-.13336-4.82892-.14844-7.24414-1.26818-30.136638-2.51325-60.275139-3.8125-90.410152-.21561-3.034232-2.37242-5.9473819-5.41016-6.6230474-.89287-.2425944-1.82275-.2983832-2.74414-.28125zm.0996 3.9980474c2.62969-.107517 4.00047 1.16098 4.11133 3.804687l3.99024 95.173825c.11086 2.64371-1.12213 4.01769-3.69922 4.12305l-11.91211.48828c-2.6297.10751-4.00047-1.16098-4.11133-3.80469l-3.99023-95.173824c-.11087-2.643708 1.14765-4.019437 3.77734-4.126954z" fill="#fad60b"/></g><path d="m358.61523 12.060547c-4.13793.18634-8.28393.262549-12.41211.591797-1.45957.217925-2.82246.921595-3.89453 1.925781-.22266.571474-.33275 1.247719-.29882 2.056641l3.99023 95.173824c.0752 1.79253.74341 2.93715 1.97656 3.46485l-3.96679-94.638674c-.11087-2.643708 1.14765-4.019436 3.77734-4.126954l11.83398-.484374c.84606-.03459 1.54742.08959 2.13282.339843l-.0215-.535156c-.0959-2.286163-1.13773-3.538791-3.11719-3.767578z" fill="#bb000f"/></g><g transform="translate(-28)"><path d="m310.11386 52.034115-11.7961-1.108358-2.13755 23.671368 11.87527 1.02919q.63335.07917 1.2667.07917 4.11676 0 7.44183-2.770896 3.72092-3.166738 4.11676-8.075182.0792-.633348.0792-1.266695 0-4.11676-2.7709-7.441835-3.16673-3.720917-8.07518-4.11676zm7.20433 54.230395h-.15834q.23751-.95003.31668-1.97922.0792-.55417.0792-1.10835 0-4.195931-2.85007-7.600175-3.16674-3.720917-8.07518-4.11676l-11.7961-1.029189-3.48341 39.425894q-.31668 3.56258-3.72092 3.56258h-.55418l-11.7961-1.02919q-3.64175-.31668-3.64175-3.72092v-.55418l8.31269-94.685471q.31667-3.562581 3.72092-3.562581h.55418l27.62979 2.375054q13.06279 1.187527 21.53382 10.608573 7.521 8.471024 7.521 19.158766 0 1.266695-.0792 2.612559-1.10836 12.191941-11.08358 20.108787-.39584.316674-.95002.712516.47501.395842.79168.870853 7.521 8.391856 7.521 19.079594 0 1.2667-.0792 2.61256l-2.29589 25.65058q-.31667 3.56258-3.72092 3.56258h-.55418l-11.7961-1.02919q-3.64174-.31667-3.64174-3.72092v-.55417z" fill="#f3010f" stroke-width="2.5" transform="matrix(.99541819 -.06162638 .06300598 1.0007022 0 0)"/><path d="m286.26562 12.382813c-2.89121.06631-5.85599 1.727671-6.86523 4.539062-.96792 2.443371-.54562 5.121547-.73437 7.679687-.73229 30.41039-1.48957 60.819766-2.19336 91.230468.009 2.96276 1.69418 6.03851 4.58203 7.06055 2.48727.97029 5.20554.55285 7.80664.74219 2.90416.0284 5.89906.28584 8.8457.082 2.98287-.34335 5.69865-2.63918 6.23242-5.64453.47506-2.29528.22452-4.65563.38086-6.98047.25374-10.21992.50798-20.440244.76172-30.660159 2.80221.07469 5.56746.100499 8.31445.24414 4.29317.125272 7.82385 4.520105 7.1543 8.740235-.28487 2.054069-.6505 4.096503-.95312 6.148437.83167-.418951.95674.02969.81445.804688-.16443 7.020049-.41687 14.039529-.49219 21.060549.1322 2.94912 2.03068 5.87531 4.93946 6.72656 2.42842.79647 5.02255.42719 7.52929.60937 2.82702.0279 5.76051.27158 8.64258.0918 3.01911-.3046 5.78906-2.61167 6.33203-5.64844.47607-2.29569.23154-4.65692.38867-6.98242.16502-7.4944.46162-14.988581.51367-22.484372-.1585-6.797642-2.4862-13.544584-6.71289-18.888672-.3836-.498766-.78884-.981774-1.20117-1.457032 5.05423-5.253001 8.32439-12.236635 8.86133-19.527343.63877-7.452908-1.25786-15.145339-5.57227-21.28711-4.97658-7.176254-12.59826-12.56823-21.14648-14.507782-3.71158-.931456-7.55122-1.076809-11.35937-1.109375-8.28965-.194133-16.57911-.425939-24.86915-.582031zm.53907 3.990234 27.65429.673828c8.71851.255565 16.08632 3.35198 22.10352 9.289063 5.34684 5.34232 8.24443 11.576866 8.69336 18.707031.0532.845056.0819 1.718014.0859 2.61914-.22341 8.179205-3.47849 15.115213-9.76563 20.806641-.24938.227527-.55121.484636-.90234.771484.33185.244565.61365.51838.84375.822266 5.34351 5.289505 8.24052 11.500697 8.68945 18.630859.0532.84506.08 1.718017.084 2.619141l-.66797 25.81055c-.0605 2.38973-1.22134 3.65311-3.48047 3.79297l-.55078.0352-11.80664-.30273c-2.43001-.0617-3.71639-1.22894-3.85938-3.5l-.0352-.55469.66993-25.810547-.15821.0098c.11772-.643556.18015-1.310139.18946-2 .0293-.37296.033-.743569.01-1.113281-.17624-2.799253-1.28207-5.275691-3.3164-7.429688-2.25778-2.35225-5.02295-3.560626-8.29688-3.623047l-11.80664-.302734-.98437 39.667967c-.0605 2.38973-1.21945 3.65506-3.47852 3.79492l-.55273.0352-11.80664-.30274c-2.43002-.0617-3.71639-1.22893-3.85938-3.5l-.0352-.55469 2.3086-95.263664c.0605-2.389731 1.22139-3.655061 3.48047-3.794922zm15.35547 20.205078-.63672 23.818359 11.88476.298828c.42362.02679.84728.02599 1.26758 0 2.73193-.169133 5.14226-1.245299 7.23242-3.230468 2.33624-2.265512 3.53333-5.043128 3.58985-8.333985.0259-.425782.0246-.85091-.002-1.273437-.17292-2.746434-1.24809-5.170958-3.22656-7.275391-2.25777-2.35225-5.02489-3.560626-8.29883-3.623047zm3.89062 4.125c2.5905.08398 5.18099.167969 7.77149.251953 4.01299-.103951 7.67839 3.442952 7.6914 7.460938.13798 2.590316-.97328 5.245855-3.10351 6.779296-1.54924 1.210812-3.55803 1.710324-5.5 1.486329-2.42713-.06092-4.85412-.122672-7.28125-.183594.14062-5.264974.28125-10.529948.42187-15.794922z" fill="#845f23" stroke-width="2.5"/><path d="m288.04297 12.402344c-1.79663.09183-3.5924.791761-4.91992 1.998047-.2068.507301-.33187 1.100012-.34961 1.800781l-2.3086 95.263668.0352.55469c.0995 1.57993.76636 2.6124 1.97266 3.12305l2.30078-94.941408c.0605-2.389731 1.22139-3.655061 3.48047-3.794922l.55078-.0332 27.65429.673828c8.71851.255565 16.08632 3.35198 22.10352 9.289063 1.90766 1.906051 3.4893 3.931097 4.77344 6.064453-1.45563-3.647863-3.70991-7.003512-6.77344-10.064453-6.0172-5.937082-13.38501-9.033498-22.10352-9.289063zm37.07617 29.189453c.19578.730266.32769 1.483261.37695 2.265625.0266.422528.0279.847657.002 1.273437-.0518 3.015978-1.07444 5.595231-3.04102 7.75-.51161.898823-1.19296 1.699764-2.04687 2.314453-1.54924 1.210812-3.55803 1.710324-5.5 1.486329-.028-.000703-.056-.0013-.084-.002-.0507.0038-.0994.01247-.15039.01562-.4203.02602-.84395.0268-1.26758 0l-9.77929-.246093-.10547 3.947265 11.88476.298828c.42362.02679.84728.02599 1.26758 0 2.73193-.169133 5.14226-1.245299 7.23242-3.230468 2.33624-2.265512 3.53333-5.043128 3.58985-8.333985.0259-.425782.0246-.85091-.002-1.273437-.146-2.318887-.94391-4.404614-2.37695-6.265625zm12.53711 26.800781c-.0275.02503-.0525.05119-.0801.07617-.24938.227527-.55121.484636-.90234.771484.33185.244565.61365.51838.84375.822266 1.91429 1.894941 3.50086 3.913528 4.78711 6.044922-1.09234-2.74323-2.64216-5.315311-4.64844-7.714844zm-13.44531 12.958984c.20372.750415.34003 1.524534.39062 2.328126.0233.369712.0195.740316-.01 1.113281-.009.689861-.0717 1.35645-.18946 2l.15821-.0098-.66993 25.810551.0352.55469c.0995 1.58097.76483 2.61471 1.97266 3.125l.66211-25.490241-.15821.0098c.11772-.643556.18015-1.310139.18946-2 .0293-.37296.0328-.743569.01-1.113281-.147-2.334855-.95078-4.442232-2.39062-6.328126z" fill="#bb000f" transform="translate(-2)"/><path d="m284.26562 8.3828125c-2.89121.066307-5.85599 1.7276715-6.86523 4.5390625-.96792 2.443371-.54562 5.121547-.73437 7.679687-.73229 30.41039-1.48957 60.819766-2.19336 91.230468.009 2.96276 1.69418 6.03851 4.58203 7.06055 2.48727.97029 5.20554.55285 7.80664.74219 2.90416.0284 5.89906.28584 8.8457.082 2.98287-.34335 5.69865-2.63918 6.23242-5.64453.47506-2.29528.22452-4.65563.38086-6.98047.25374-10.219923.50798-20.440244.76172-30.660159 2.80221.07469 5.56746.100499 8.31445.24414 4.29317.125272 7.82385 4.520105 7.1543 8.740235-.28487 2.054069-.6505 4.096503-.95312 6.148437.83167-.418951.95674.02969.81445.804688-.16443 7.020047-.41687 14.039529-.49219 21.060549.1322 2.94912 2.03068 5.87531 4.93946 6.72656 2.42842.79647 5.02255.42719 7.52929.60937 2.82702.0279 5.76051.27158 8.64258.0918 3.01911-.3046 5.78906-2.61167 6.33203-5.64844.47607-2.29569.23154-4.65692.38867-6.98242.16502-7.4944.46162-14.988581.51367-22.484372-.1585-6.797642-2.4862-13.544584-6.71289-18.888672-.3836-.498766-.78884-.981774-1.20117-1.457032 5.05423-5.253001 8.32439-12.236635 8.86133-19.527343.63877-7.452908-1.25786-15.145339-5.57227-21.28711-4.97658-7.176254-12.59826-12.56823-21.14648-14.507782-3.71158-.9314564-7.55122-1.0768086-11.35937-1.1093752-8.28965-.1941325-16.57911-.4259392-24.86915-.5820313zm.53907 3.9902345 27.65429.673828c8.71851.255565 16.08632 3.35198 22.10352 9.289063 5.34684 5.34232 8.24443 11.576866 8.69336 18.707031.0532.845056.0819 1.718014.0859 2.61914-.22341 8.179205-3.47849 15.115213-9.76563 20.806641-.24938.227527-.55121.484636-.90234.771484.33185.244565.61365.51838.84375.822266 5.34351 5.289505 8.24052 11.500697 8.68945 18.630859.0532.84506.08 1.718017.084 2.619141l-.66797 25.81055c-.0605 2.38973-1.22134 3.65311-3.48047 3.79297l-.55078.0352-11.80664-.30273c-2.43001-.0617-3.71639-1.22894-3.85938-3.5l-.0352-.55469.66993-25.810547-.15821.0098c.11772-.643556.18015-1.310139.18946-2 .0293-.37296.033-.743569.01-1.113281-.17624-2.799253-1.28207-5.275691-3.3164-7.429688-2.25778-2.35225-5.02295-3.560626-8.29688-3.623047l-11.80664-.302734-.98437 39.667967c-.0605 2.38973-1.21945 3.65506-3.47852 3.79492l-.55273.0352-11.80664-.30274c-2.43002-.0617-3.71639-1.22893-3.85938-3.5l-.0352-.55469 2.3086-95.263664c.0605-2.389731 1.22139-3.655061 3.48047-3.794922zm15.35547 20.205078-.63672 23.818359 11.88476.298828c.42362.02679.84728.02599 1.26758 0 2.73193-.169133 5.14226-1.245299 7.23242-3.230468 2.33624-2.265512 3.53333-5.043128 3.58985-8.333985.0259-.425782.0246-.85091-.002-1.273437-.17292-2.746434-1.24809-5.170958-3.22656-7.275391-2.25777-2.35225-5.02489-3.560626-8.29883-3.623047zm3.89062 4.125c2.5905.08398 5.18099.167969 7.77149.251953 4.01299-.103951 7.67839 3.442952 7.6914 7.460938.13798 2.590316-.97328 5.245855-3.10351 6.779296-1.54924 1.210812-3.55803 1.710324-5.5 1.486329-2.42713-.06092-4.85412-.122672-7.28125-.183594.14062-5.264974.28125-10.529948.42187-15.794922z" fill="#fad60b" stroke-width="2.5"/></g><g transform="matrix(.99925056 .03870802 -.03870802 .99925056 -341.087816 -17.175965)"><path d="m423.80249 119.11326v23.75054h39.58423q3.95842 0 3.95842 3.95842v11.87527q0 3.95842-3.95842 3.95842h-55.41792q-3.95842 0-3.95842-3.95842v-95.002143q0-3.958423 3.95842-3.958423h55.41792q3.95842 0 3.95842 3.958423v11.875268q0 3.958423-3.95842 3.958423h-39.58423v23.750532h31.66738q3.95842 0 3.95842 3.95843v7.91684q0 3.95842-3.95842 3.95842z" fill="#f3010f" stroke-width="2.5" transform="matrix(.9916639 -.10610376 .10771839 .99688077 0 0)"/><path d="m468.25 10.353516c-18.45599 1.916118-36.90044 3.954317-55.35547 5.880859-2.65699.220804-5.41382 1.513331-6.61523 4.013672-1.39971 2.684298-.5846 5.758442-.34375 8.603515 3.31068 30.579842 6.59408 61.164499 9.93945 91.740238.45403 3.01104 2.84116 5.75079 5.93164 6.16406 2.22758.3931 4.40731-.19318 6.58789-.33203 17.30655-1.86339 34.6193-3.67078 51.91992-5.58399 3.09163-.45535 5.85913-3.00117 6.16407-6.17968.30752-2.42657-.32106-4.83675-.47657-7.25196-.37051-2.96133-.4991-5.96498-1.11133-8.888669-.79237-2.959477-3.60694-5.259987-6.69921-5.27539-2.34011-.07624-4.64657.434484-6.97461.59375l-30.01172 3.210937c-.56641-5.240885-1.13281-10.481771-1.69922-15.722656 9.4853-1.033029 18.98028-1.987161 28.45703-3.087891 3.05803-.520522 5.72776-3.102538 5.99219-6.251953.26241-2.359553-.31712-4.700168-.49414-7.044922-.2878-2.728913-.29039-5.80673-2.26953-7.949218-1.6135-1.830459-4.15181-2.652404-6.54688-2.341797-3.80821.337046-7.60325.816549-11.4082 1.195312l-16.29492 1.742188c-.56641-5.240886-1.13282-10.481771-1.69922-15.722657 12.06981-1.306321 24.14826-2.547735 36.21093-3.912109 3.09355-.485146 5.81747-3.075971 6.08594-6.257813.27264-2.428746-.34455-4.835621-.50195-7.251953-.36232-2.928206-.49867-5.895658-1.09961-8.787109-.77355-2.868336-3.43234-5.131336-6.42578-5.273437-.41935-.03918-.841-.04282-1.26172-.0293zm.63477 3.99414c2.03469.07336 3.17705 1.260623 3.42578 3.5625l1.27929 11.837891c.28426 2.630717-.88305 4.085232-3.5 4.365234l-39.2539 4.201172 2.55859 23.675781 31.4043-3.359375c2.61694-.280002 4.0673.894669 4.35156 3.525391l.85156 7.892578c.28427 2.630715-.8811 4.085232-3.49804 4.365234l-31.4043 3.361329 2.55859 23.675779 39.25391-4.199217c2.61695-.280003 4.06925.894675 4.35351 3.525387l1.27735 11.83789c.28427 2.63072-.88109 4.08719-3.49805 4.36719l-54.95508 5.87891c-2.61694.28-4.06925-.89468-4.35351-3.52539l-10.23242-94.707034c-.28427-2.630717.88109-4.085232 3.49804-4.365234l54.95703-5.88086c.32712-.035.63512-.04564.92579-.03516z" fill="#845f23" stroke-width="2.5"/><path d="m467.54688 10.427734c-18.2213 1.894806-36.43172 3.904568-54.65235 5.806641-1.86383.15489-3.76553.85082-5.15625 2.107422-.24576.62693-.3322 1.381784-.23437 2.287109l10.23242 94.707034c.17854 1.65235.81916 2.72837 1.91797 3.23242l-10.15039-93.939454c-.28427-2.630717.88109-4.085232 3.49804-4.365234l54.95703-5.88086c.32712-.035.63512-.04564.92579-.03516.57777.02083 1.07592.141312 1.50976.341797l-.084-.779297c-.21999-2.035848-1.14668-3.189756-2.76367-3.482422zm-3.1504 44.248047c-3.72487.335666-7.43792.799393-11.16015 1.169922l-16.29492 1.742188c-.007-.06312-.0127-.126336-.0195-.189453l-3.97657.425781.44922 4.166015 31.4043-3.359375c.97322-.10413 1.78303-.0053 2.43359.292969l-.082-.767578c-.21956-2.031887-1.14277-3.184987-2.75391-3.480469zm12.02149 38.609375c-1.73714.12017-3.46296.43382-5.20117.552735l-30.01172 3.210937c-.007-.06312-.0127-.126336-.0195-.189453l-3.97657.425781.44922 4.166014 39.25391-4.199217c.97325-.104133 1.78464-.0054 2.43555.292969l-.082-.767578c-.22356-2.069026-1.18117-3.223624-2.84765-3.492188z" fill="#bb000f"/><path d="m466.25 6.3535156c-18.45599 1.9161186-36.90044 3.9543174-55.35547 5.8808594-2.65699.220804-5.41382 1.513331-6.61523 4.013672-1.39971 2.684298-.5846 5.758442-.34375 8.603515 3.31068 30.579842 6.59408 61.164499 9.93945 91.740238.45403 3.01104 2.84116 5.75079 5.93164 6.16406 2.22758.3931 4.40731-.19318 6.58789-.33203 17.30655-1.86339 34.6193-3.67078 51.91992-5.58399 3.09163-.45535 5.85913-3.00117 6.16407-6.17968.30752-2.42657-.32106-4.83675-.47657-7.25196-.37051-2.96133-.4991-5.964985-1.11133-8.888669-.79237-2.959477-3.60694-5.259987-6.69921-5.27539-2.34011-.07624-4.64657.434484-6.97461.59375l-30.01172 3.210937c-.56641-5.240885-1.13281-10.481771-1.69922-15.722656 9.4853-1.033029 18.98028-1.987161 28.45703-3.087891 3.05803-.520522 5.72776-3.102538 5.99219-6.251953.26241-2.359553-.31712-4.700168-.49414-7.044922-.2878-2.728913-.29039-5.80673-2.26953-7.949218-1.6135-1.830459-4.15181-2.652404-6.54688-2.341797-3.80821.337046-7.60325.816549-11.4082 1.195312l-16.29492 1.742188c-.56641-5.240886-1.13282-10.481771-1.69922-15.722657 12.06981-1.306321 24.14826-2.547735 36.21093-3.912109 3.09355-.485146 5.81747-3.075971 6.08594-6.257813.27264-2.428746-.34455-4.835621-.50195-7.251953-.36232-2.928206-.49867-5.895658-1.09961-8.787109-.77355-2.8683357-3.43234-5.1313361-6.42578-5.2734375-.41935-.03918-.841-.042822-1.26172-.029297zm.63477 3.9941404c2.03469.07336 3.17705 1.260623 3.42578 3.5625l1.27929 11.837891c.28426 2.630717-.88305 4.085232-3.5 4.365234l-39.2539 4.201172 2.55859 23.675781 31.4043-3.359375c2.61694-.280002 4.0673.894669 4.35156 3.525391l.85156 7.892578c.28427 2.630715-.8811 4.085232-3.49804 4.365234l-31.4043 3.361329 2.55859 23.675781 39.25391-4.199219c2.61695-.280003 4.06925.894675 4.35351 3.525391l1.27735 11.837886c.28427 2.63072-.88109 4.08719-3.49805 4.36719l-54.95508 5.87891c-2.61694.28-4.06925-.89468-4.35351-3.52539l-10.23242-94.707034c-.28427-2.630717.88109-4.085232 3.49804-4.365234l54.95703-5.88086c.32712-.035.63512-.04564.92579-.03516z" fill="#fad60b" stroke-width="2.5"/></g></g></svg>