<svg height="158.06723" viewBox="0 0 97.801212 20.54874" width="752.31702" xmlns="http://www.w3.org/2000/svg"><g stroke-width=".41145" transform="translate(.724103 -2.218423)"><text fill="#ef00eb" font-family="TrasksHand" font-size=".32916" stroke="#0105ff" transform="matrix(.50052614 -.86572143 .86572143 .50052614 0 0)" x="-13.219823" y="12.383411"><tspan fill="#fafafa" fill-opacity=".4" font-size=".32916" stroke="none" stroke-width=".41145" x="-13.219823" y="12.383411">John Loreth 2022</tspan></text><path d="m32.414062 2.2207031c-1.313686.1222167-1.813882 1.6563433-1.614881 2.7878843.02831.9775921.639542 1.9402499 1.468397 2.3976626-1.158841-.3551039-2.161444.6669308-2.886719 1.4296875-.627388.8410235-1.454257 1.8141845-1.300781 2.9062505-.08722.572912-.687584.975993-1.010639 1.455476-.310803.353117-.641887.692245-1.016705.978117-.01111-1.526636.671427-3.116123 1.117188-4.6074216.034497-1.0362505-1.005407-1.9723348-2.035156-1.7910156-1.148182-.9413538-2.742774-.2078063-3.763495.5710745-2.032728 1.4696769-3.437423 3.6667367-4.302912 5.9933787-.279476-.183636-.6239-.241544-.953125-.230469.121532-2.318715.663486-4.5444072 1.179688-6.7968749.088751-1.2680539-.944137-2.7925817-2.345703-2.4980469-.512518.1509412-.779702.7016003-1.309948.7954331-.826884.5331544-.532706 1.7126776-1.211202 2.3553166-1.083572 1.608759-2.125225 3.2530611-3.3714284 4.7437821-.1651485-1.698441-.4356349-3.3554768-.0800781-5.007813.5735801-1.2425342-.1423662-2.8483521-1.4863281-3.1875-.8326234-.3072446-1.6171504.2310721-2.0605469.90625-.453554.4853568-1.2378256.5283121-1.5898437 1.15625-.5467397.6589033-.4709734 1.6087642-.0078126 2.2773438-.6812855 1.7209472-1.5498132 3.4078342-2.4877167 5.0179352-.2171294.503276-.95316059.247914-1.32595703.633238-1.15013517.72876-.83138649 2.489817.05586128 3.309764.72524819.798816 2.01654225 1.285541 2.95312505.542969 1.1518351-.919125 1.6564173-2.381441 2.2910156-3.662109.2029523 1.294172.581115 2.807231 1.7792968 3.521484 1.360126.543284 2.5881243-.632274 3.4498628-1.537222.484458-.495745.93209-1.026006 1.350919-1.578012-.249818.80419-.667489 1.730821-.04297 2.480468.878677 1.221181 2.746866 1.347758 3.890612.427165.449427-.293392.838302-.671057 1.181653-1.081461.521374 1.401885 2.457612 2.039024 3.646581 1.061029.670316-.336261 1.254092-.99608 1.814357-1.361811.463922 1.373299 2.095057 2.295289 3.472656 1.65625.655648-.20277 1.269242-.709982 1.783203-1.033203.555543 1.094998 2.013823 1.644369 3.097865 1.116523 2.497931-.765683 4.226003-2.906061 5.73612-4.915351.578173-.792005.888322-2.214724-.111328-2.808594-.948629-.469625-1.85424.392907-2.368906 1.110525-.70937.761681-1.426764 1.52536-2.256094 2.159006.470476-1.555941 1.364686-2.964757 1.835937-4.5058589.04729-.7427748-.371063-1.4830916-1.005859-1.8613281.808701.389202 1.978351.070696 2.121093-.9121094.08487-.7871064.07259-1.5804743.196671-2.3636701.101676-.9489173-.589651-1.8226081-1.52684-1.9663903-.308369-.080327-.632104-.09242-.949128-.084002zm22.41211 0c-1.315402.1218736-1.811531 1.6585655-1.614881 2.7898374.03792 1.0095431.653695 1.9808584 1.554334 2.4406314-1.149363-.5176533-2.126878.5819202-2.884766 1.2910156-.350982.338033-.670136.8556138-.916015 1.1933594-.6495-1.104127-2.269135-1.2821059-3.22371-.4771807-.942087.4953353-1.608462 1.4587808-1.726399 2.5113358-.543617 1.150333-1.570553 2.057726-2.766688 2.483423-.133925-1.308483.506934-2.590673 1.214535-3.659776.702698-.9872983 1.617888-1.8863297 2.722965-2.3949115.584102.1787665 1.156616.6092021 1.803175.3731631 1.182883-.228848 2.509346-1.3615597 2.171434-2.6739444-.516871-1.4583568-2.381673-1.8287766-3.730248-1.4809757-3.25053.6598884-5.925577 3.0879001-7.51228 5.9241135-1.083343 2.032572-1.512603 4.760335-.08164 6.734021.300782.368046.683592.670004 1.111276.877529-1.259205.317237-2.244297 1.99547-1.296115 3.103154.952871 1.087352 2.49907 1.368713 3.863689 1.511665 2.446587-.10496 4.313382-2.218442 5.105967-4.388097.760711-1.953337.85969-4.124619 1.760257-6.020294.313639-.542893.207637.267432.02353.511708-.488715 1.46722-1.208544 3.256708-.162371 4.660483.695199 1.101936 2.21439 1.26194 3.317737.719812.783651-.248359 1.525134-.841253 2.137304-1.233197.580322 1.199255 2.06778 1.855152 3.33273 1.389943 1.88765-.374441 3.502045-1.643053 4.57352-3.208302-.0267 1.648602 1.294227 3.2237 2.986321 3.267738 1.597144.08786 3.136161-.590947 4.451179-1.443519.565713 1.326044 2.404692 1.916082 3.567942.987564.690946-.334561 1.283511-.991615 1.853933-1.386002.457603 1.349812 2.029806 2.267582 3.404297 1.697266.631586-.21177 1.161378-.623021 1.71289-.982422.865788 1.286881 2.721969 1.406781 4.002011.706306.816299-.273525 1.641662-.807524 2.312442-1.194588.524887 1.288413 2.062534 2.045666 3.390058 1.555357 2.88062-.610546 5.250426-3.144153 5.746478-6.031642.192744-1.410881-.209602-3.0156299-1.396297-3.8967614-.104169-1.4559754-2.023084-2.0185347-3.134766-1.2773437-.468085.3348599-.916108.6878559-1.488281.8046875-.428962.4007915-.964391.0719088-1.482887.1870444-.537783.0160659-1.076051.0292613-1.612816.0668618.548398-.9550294 1.143797-2.2865986.28556-3.2561183-.765443-1.0768941-2.420567-.8219471-3.158304.1475605-.859534.9557015-.954752 2.3071966-1.50421 3.4269172-.828713.1411727-1.748086.3554204-2.292968 1.0507812.068461-1.0577869-.98374-2.0363717-2.035156-1.8515624-1.148306-.9446468-2.722517-.1965594-3.763672.5429687-1.887381 1.2929203-2.823148 3.5227525-4.665244 4.8651905-.817003.662834-1.772404 1.357134-2.826944 1.457075-.244014-.789151.22976-1.631149.529297-2.359375.185844-.262495.418813-.899298.699219-.804687 1.056494.983761 2.791293.09881 3.193403-1.128757.494029-1.0838464-.045248-2.5264429-1.243098-2.839159-1.800658-.6268869-3.645074.4921777-4.944446 1.6632281-.556752.5317602-1.038752 1.1402679-1.433594 1.8007809-.145938-.973602-.620747-1.9225474-1.40625-2.5332028-.118841-1.5472379-2.282896-2.0306744-3.33533-1.0764654-.543088.5538104-1.461679.4475981-1.888732 1.1564655-.508227.6465687-.51196 1.5197107-1.070696 2.1437377-.692099 1.305632-1.773514 2.330833-2.902507 3.256731.45541-1.485568 1.295562-2.917468 1.833984-4.4003906.109489-.8097628-.373337-1.6332444-1.085937-2.0078125.817772.4273875 2.05387.1445669 2.205078-.8789063.081841-.7878302.079287-1.5806527.194717-2.3656232.102797-.9474843-.588027-1.8179832-1.522593-1.9637643-.308871-.081197-.633717-.0929509-.951421-.084675zm26.048828 8.5234379c.02849.647163.521711 1.206159 1.115234 1.421875-.584784.69783-1.123959 1.451909-1.853515 2.009765-.01153-1.171945.368481-2.385546.738281-3.43164zm7.974609.669921c-.36154.656486-.647462 1.350592-.921875 2.046876-.801966.147296-1.450587.921182-2.208984.980468.139079-.873096.466198-1.765614.828125-2.595703.766538-.150666 1.54146-.262608 2.302734-.431641zm-44.498047 6.650387c-.169259.338178-.399044.926872-.808593.917969-.249709-.203601-1.077688-.577671-.367955-.58936.416033-.124694.832043-.259015 1.223424-.449703l-.0361.09326z" fill="#333"/><g fill="#f4c401"><g transform="scale(.98222981 1.0180917)"><path d="m8.7267655 14.254553c-.1735769 0-.3719505-.421543-.5207307-1.586988-.1735769-1.537396-.2727637-3.1987746-.247967-4.2154393 0-.7934944.1239835-1.0662581.3223571-1.5373954.3223571-.7439009-.5207307-1.5869887-1.1902416-1.5869887-.3967472 0-.743901.5455274-.8430878.6943076-.1239835.2231703-.1983735.2727637-.4711372.3719504-.4215439.1735769-1.239835.5455274-1.2646317 1.0414614 0 .2975604.1983736.7191043.3719505.9670713.1239835.1487802.1239835.4215439-.1487802.9670713-1.0662581 2.3804834-2.6036535 5.0089334-2.7524337 5.2073064-.1983736.272764-.5455274.347154-.8182911.322358-.59512074-.04959-.91747784.347153-.91747784.843087-.0495934.520731.91747784 1.710973 1.71097224 1.710973.3471538 0 .6695109-.247967 1.1158515-.793495.8182911-1.066258 2.1077195-4.091455 2.7772304-5.728037.1239835-.322357.2231702-.322357.2479669-.07439 0 .694307.099187 1.314225.1735769 2.330889.07439 1.091055.495934 3.893082 1.6861756 3.893082.5703241 0 1.4134119-.743901 1.7853624-1.091055 1.0414618-.942274 2.6532468-3.07479 4.0170658-5.10812.173576-.247967.272763-.272763.22317-.04959-.371951 1.686175-.595121 2.802027-.892681 4.339422-.07439.371951-.148781.570324-.272764.768698-.173577.322357-.123984.619917.09919.818291.37195.322357.793494.570324 1.289428.570324.29756 0 .619918-.07439.917478-.22317.892681-.495934 1.810159-1.487802 1.834956-1.958939 0-.347154-.396747-.396748-1.140648-.223171-.272764.07439-.471138.0248-.471138-.247967.0248-.247967.0248-.669511.07439-1.264631.04959-.570324.421544-3.8682855 1.016665-5.480071.471137-1.239835-.22317-2.2812963-.843088-2.2812963-.173577 0-.322357.1239835-.471137.3471538-.123984.1983736-.29756.2727637-.495934.2727637s-.421544.1239834-.446341.7191042c-.0248.247967-.173577.6199175-.52073 1.1406482-.396747.5951208-3.074791 4.4634064-4.0418623 5.4304774-.5455274.520731-.7191043.694307-.8926812.694307z"/><path d="m24.423108 8.1545653c-.272764 0-1.339022.099187-2.702841 1.2894284-1.041461.9422743-2.082923 2.1573133-2.727637 3.4715383-.793494 1.512598-.942274 2.306093-.942274 2.802027 0 .942274.967071 1.463005 1.264631 1.463005.520731 0 1.041462-.22317 1.710973-.719104.694307-.495934 2.008532-1.686176 2.306093-2.03333.14878-.14878.198373-.14878.22317.07439 0 .272764 0 .495934.04959.867885.09919 1.016665.768698 1.810159 1.686176 1.810159 1.562192 0 3.967472-2.33089 5.058527-4.488203.22317-.471137.347153-.917478.22317-1.140648-.09919-.173577-.347154-.198373-.619918.04959-1.562192 2.157312-3.248367 3.669911-3.818691 3.669911-.371951 0-.619918-.347154-.619918-1.215038 0-1.487802.446341-3.025198 1.091055-4.4882028.07439-.2231703.198374-.5207307-.495934-.9174779-.22317-.1487802-.396747-.099187-.595121.07439-.14878.099187-.272763.099187-.322357-.049593-.148777-.1983699-.421541-.520727-.768694-.520727zm-.917478 1.8597527c.322357 0 .52073.29756.59512.52073.07439.247967 0 .570325-.14878.818292-.09919.173576-.495934.867884-.843088 1.264631-.743901.867885-1.091054 1.339022-1.512598 1.686176-.371951.322357-.743901.570324-.942275.570324-.198373 0-.247967-.347154-.173577-.669511.14878-.669511.843088-2.058126 1.686176-3.049994.719104-.843088 1.115851-1.140648 1.339022-1.140648z"/><path d="m33.250741 3.145632c-.545527 0-.843088.2727637-.892681 1.0414614-.0248.5703241.04959.9670713.123983 1.239835.123984.4463406.520731.8926812 1.066258 1.0910547.471138.1735769.818291.1487802.818291-.3471537 0-.5951208 0-1.2150383.148781-2.0581261.123983-.6199175-.545528-.9670713-1.264632-.9670713zm-3.099588 14.109322c.421544 0 .892682-.09919 1.512599-.347154 1.438209-.570324 3.744302-2.802027 4.711373-4.364219.322357-.520731.396747-.917478.272764-1.140648-.09919-.173577-.347154-.198374-.644714.123983-1.388616 1.562193-3.843489 3.793895-4.636983 3.793895-.471138 0-.520731-.347153-.272764-1.115851.595121-1.909346 1.215038-3.297961 1.983736-4.6369828.247967-.4711373 0-1.0166647-.322357-1.2646317-.123984-.099187-.272764-.1487802-.421544-.1487802-.719104 0-2.281296 1.6613789-2.678043 2.6780437-.148781.37195-.09919.595121 0 .818291.123983.22317.123983.37195 0 .719104-.198374.446341-.619918 1.810159-.768698 2.40528-.173577.595121-.173577 1.041461.04959 1.487802.347154.768698.843088.991868 1.215038.991868z"/></g><g transform="scale(.9822298 1.0180917)"><path d="m40.620195 14.13057c0 .545527.09919 1.016665.347154 1.636582.247967.595121 1.066258 1.413412 1.934142 1.413412.644715 0 1.215039-.123984 1.859753-.421544.595121-.29756 1.611785-.867884 1.884549-1.091055.198374-.173577.29756-.14878.173577.198374-.09919.29756-.247967.892681-.545528 1.760566-.570324 1.611785-1.339021 2.082922-1.909345 2.082922-.247967 0-.570324-.123983-.867885-.44634-.247967-.223171-.743901-.570324-1.140648-.570324-.322357 0-.719104.123983-1.140648.59512-.371951.371951-.322357.843088.04959 1.140649.694308.545527 2.231703.967071 3.198774.967071.471138 0 1.016665-.198374 1.537396-.520731 1.091055-.669511 2.107719-1.884549 2.47967-2.92601.347154-.967072.991868-3.297961 1.264631-4.58739.198374-.892681.570325-1.760565 1.140649-2.33089.247967-.22317.347153-.44634.173576-.694307-.29756-.421544-.59512-.5951209-.942274-.5951209-.446341 0-1.363819.5703239-1.735769.9174779-.247967.247967-.396747.495934-.421544.892681-.04959.818291-.892681 1.760566-1.636582 2.430077-.843088.768697-2.033329 1.264631-2.529263 1.264631-.421544 0-.818292-.37195-.818292-1.413411 0-1.314226.843088-3.248368 2.231703-4.7113734 1.314225-1.3886152 2.529264-1.8845492 2.826824-1.8845492.272764 0 .471137.07439.768698.247967.247967.1487802.619917.2727637 1.041461.1735769.297561-.07439.917478-.5455274 1.140648-.7934944.322357-.3471538.173577-.7934943-.22317-1.066258-.37195-.247967-.892681-.4215439-1.463005-.4215439-.917478 0-2.33089.3967472-3.669912 1.2150382-3.173977 1.983736-5.008933 4.9097468-5.008933 7.5381968z"/><path d="m56.068548 3.145632c-.545527 0-.843088.2727637-.892681 1.0414614-.0248.5703241.04959.9670713.123983 1.239835.123984.4463406.520731.8926812 1.066258 1.0910547.471138.1735769.818291.1487802.818291-.3471537 0-.5951208 0-1.2150383.148781-2.0581261.123983-.6199175-.545528-.9670713-1.264632-.9670713zm-3.099587 14.109322c.421543 0 .892681-.09919 1.512598-.347154 1.438209-.570324 3.744302-2.802027 4.711373-4.364219.322357-.520731.396747-.917478.272764-1.140648-.09919-.173577-.347154-.198374-.644714.123983-1.388616 1.562193-3.843489 3.793895-4.636983 3.793895-.471137 0-.520731-.347153-.272764-1.115851.595121-1.909346 1.215038-3.297961 1.983736-4.6369828.247967-.4711373 0-1.0166647-.322357-1.2646317-.123984-.0991868-.272764-.1487802-.421544-.1487802-.719104 0-2.281296 1.6613789-2.678043 2.6780437-.148781.37195-.09919.595121 0 .818291.123983.22317.123983.37195 0 .719104-.198374.446341-.619918 1.810159-.768698 2.40528-.173577.595121-.173577 1.041461.04959 1.487802.347154.768698.843088.991868 1.215039.991868z"/><path d="m57.358012 15.147235c0 1.165444.743901 2.082922 1.636582 2.082922 1.785363 0 3.397148-.991868 4.58739-2.40528 1.016664-1.140648 1.388615-2.330889 1.388615-3.322757 0-.967072-.347154-2.0581263-1.239835-2.5044669-.173577-.07439-.198374-.1487802-.198374-.2975604 0-.3471538-.04959-.9670713-.991868-.9670713-.421544 0-.793494.1487802-1.140648.495934-.247967.247967-.421544.3719505-.743901.3719505-.272764 0-.471137.1239835-.644714.2975604-.173577.1983736-.29756.3719505-.322357.6695109-.0248.4463408-.22317.6695108-.421544.9422748-.29756.37195-.942275 1.339022-1.314225 2.182109-.446341 1.091055-.595121 1.785363-.595121 2.454874zm2.33089-.421544c0-1.041462.991868-3.049994 2.107719-4.364219.14878-.198374.396747-.4215443.570324-.4215443.446341 0 .619918.6943073.619918 1.3142253 0 .867884-.843088 2.77723-1.562192 3.570724-.471137.520731-.892681.719105-1.215038.719105-.223171 0-.520731-.297561-.520731-.818291z"/><path d="m71.442568 8.1545653c-1.314225 0-2.876417.9422746-3.893082 2.0829227-1.215038 1.363819-1.810159 3.223571-1.810159 4.339422 0 1.95894 1.165445 2.603654 2.355687 2.603654 2.33089 0 5.18251-1.958939 6.967872-4.265032.322357-.421544.446341-.867885.322357-1.091055-.09919-.173577-.347153-.198374-.619917.04959-1.661379 1.636582-3.917879 3.521132-5.678444 3.521132-.545528 0-.991868-.495934-.991868-1.239835 0-.694308.198373-1.760566 1.041461-3.025198.694308-1.041461 1.388615-1.4134116 1.636582-1.4134116.148781 0 .272764.1239835.247967.4463406-.0248.247967.04959.421544.198374.495934.123983.07439.421544.09919.743901-.04959.471137-.223171.917478-.694308.917478-1.3638189 0-.5207307-.495934-1.0910548-1.438209-1.0910548z"/><path d="m79.4767 8.1545653c-.272764 0-1.339022.099187-2.70284 1.2894284-1.041462.9422743-2.082923 2.1573133-2.727637 3.4715383-.793495 1.512598-.942275 2.306093-.942275 2.802027 0 .942274.967072 1.463005 1.264632 1.463005.520731 0 1.041461-.22317 1.710972-.719104.694308-.495934 2.008533-1.686176 2.306093-2.03333.14878-.14878.198374-.14878.223171.07439 0 .272764 0 .495934.04959.867885.09919 1.016665.768698 1.810159 1.686175 1.810159 1.562193 0 3.967472-2.33089 5.058527-4.488203.22317-.471137.347154-.917478.22317-1.140648-.09919-.173577-.347153-.198373-.619917.04959-1.562192 2.157312-3.248368 3.669911-3.818692 3.669911-.37195 0-.619917-.347154-.619917-1.215038 0-1.487802.44634-3.025198 1.091055-4.4882028.07439-.2231703.198373-.5207307-.495934-.9174779-.223171-.1487802-.396748-.099187-.595121.07439-.14878.099187-.272764.099187-.322357-.049593-.148778-.1983699-.421541-.520727-.768695-.520727zm-.917478 1.8597527c.322357 0 .520731.29756.595121.52073.07439.247967 0 .570325-.14878.818292-.09919.173576-.495934.867884-.843088 1.264631-.743901.867885-1.091055 1.339022-1.512599 1.686176-.37195.322357-.743901.570324-.942274.570324-.198374 0-.247967-.347154-.173577-.669511.14878-.669511.843088-2.058126 1.686175-3.049994.719105-.843088 1.115852-1.140648 1.339022-1.140648z"/><path d="m86.890941 15.246421c-.644714 0-.743901-.471137-.619918-1.215038.09919-.719104.619918-2.182109.967072-2.975604.123983-.247967.22317-.322357.545527-.37195 2.206906-.297561 3.669911-.6943079 4.091455-.9174782.347154-.1983736.644715-.7686977.04959-.7686977-.669511 0-2.454873.099187-3.570725.1239835-.14878 0-.37195.024797-.29756-.1735769.09919-.2231703.495938-1.2646317 1.041465-2.2564997.247967-.4215438.22317-.8678844-.14878-1.2398349-.198374-.1983736-.347154-.2727637-.595121-.2727637-.37195 0-1.066258.3719505-1.289428.8430878-.247967.5207306-1.016665 2.7028402-1.140649 2.9508072-.09919.2727637-.247967.3223571-.471137.3719505-.495934.099187-.917478.1983736-1.215038.247967-.347154.07439-.495934.1983736-.719104.4711371-.198374.22317-.223171.595121-.04959.768698.14878.123983.347154.272764.619918.247967.322357-.04959.669511-.07439.867884-.09919.247967-.0248.247967.07439.173577.247967-.123983.347154-.942274 2.752434-1.190241 3.446741-.198374.520731-.272764.818291-.272764 1.115852 0 .867884.867884 1.388615 1.586989 1.388615.322357 0 .644714-.04959 1.066258-.198374 1.983736-.644714 3.0004-1.537395 3.446741-2.008532.421544-.446341.322357-1.115852-.247967-.743901-.595121.37195-1.785362 1.016664-2.62845 1.016664z"/><path d="m90.213704 15.147235c0 1.165444.743901 2.082922 1.636582 2.082922 1.785363 0 3.397148-.991868 4.58739-2.40528 1.016664-1.140648 1.388615-2.330889 1.388615-3.322757 0-.967072-.347154-2.0581263-1.239835-2.5044669-.173577-.07439-.198374-.1487802-.198374-.2975604 0-.3471538-.04959-.9670713-.991868-.9670713-.421544 0-.793494.1487802-1.140648.495934-.247967.247967-.421544.3719505-.743901.3719505-.272764 0-.471137.1239835-.644714.2975604-.173577.1983736-.297561.3719505-.322357.6695109-.0248.4463408-.223171.6695108-.421544.9422748-.297561.37195-.942275 1.339022-1.314225 2.182109-.446341 1.091055-.595121 1.785363-.595121 2.454874zm2.33089-.421544c0-1.041462.991868-3.049994 2.107719-4.364219.14878-.198374.396747-.4215443.570324-.4215443.446341 0 .619918.6943073.619918 1.3142253 0 .867884-.843088 2.77723-1.562192 3.570724-.471138.520731-.892681.719105-1.215039.719105-.22317 0-.52073-.297561-.52073-.818291z"/></g></g></g></svg>