<svg height="155.83167" viewBox="0 0 110.06369 25.646776" width="668.75494" xmlns="http://www.w3.org/2000/svg"><g stroke-width=".41145" transform="translate(7.519016 -1.140866)"><text fill="#ef00eb" font-family="TrasksHand" font-size=".32916" stroke="#0105ff" transform="matrix(.28783532 -.95767992 .95767992 .28783532 0 0)" x="-11.734547" y="8.837206"><tspan fill="#fafafa" fill-opacity=".4" font-size=".32916" stroke="none" stroke-width=".41145" x="-11.734547" y="8.837206">John Loreth 2022</tspan></text><path d="m93.126953 1.1464844c-1.283637.2333504-1.482054 1.7166088-1.959038 2.6983069-.513003 1.2815539-1.026006 2.5631079-1.539009 3.8446618-2.549785-.1183251-4.658362 1.7901167-5.929085 3.8273469-.641229.970588-1.341039 1.925598-2.258415 2.655075-.039371-1.518305.599033-2.929609 1.041669-4.3444545.290558-1.1139344-.870633-2.2508836-1.973309-2.0520299-1.143961-.9353224-2.732376-.2088058-3.74943.5657636-1.700326 1.2288007-2.974977 2.9753788-3.84432 4.8697838.184471-.641697-.035321-1.446862.558593-1.886719 1.071757-1.4076147.173848-3.74711-1.605137-3.9956954-1.854377-.2718239-3.596485.8234525-4.973651 1.9467382-.824958.6994387-1.569602 1.4969832-2.18293 2.3888002.030683-1.218786-.498894-2.4577736-1.425782-3.226562-.182635-1.4312166-2.064863-2.0114974-3.162109-1.203125-.43568.4140858-.988032.5425644-1.513672.7753906-.728106.4082736-.976835 1.2509104-1.22861 1.9713767-.505976.7855757-.996377 1.5841417-1.386624 2.4348737.457879-1.614757.750049-3.3260587 1.523437-4.8183598.612273-.7721546.678916-2.0038293-.168609-2.6385691-.829294-.7669634-2.254465-.9566031-3.100922-.1055715-.52204.4965624-1.339615.2059542-1.855469.7402344-.833705.5549391-.954626 1.8315515-.180338 2.4916695.455446.2906538.68814.5572824.368868 1.095683-.904858 3.1973995-1.624264 6.4946695-3.109846 9.4843185-.222112.477651-.68663.430239-1.023996.13536-1.109039-.531148-2.82626-.263211-3.191407 1.074219-.356457 1.492184 1.10795 2.702266 2.462891 2.886719 1.641494.26342 3.244327-.588892 4.494141-1.572266 1.771505-1.59649 2.412894-3.984638 3.076172-6.185547-.252037 1.592578.82972 3.443265 2.541073 3.530665 2.097254-.02084 4.042207-1.226572 5.324161-2.835352-.147621 1.331258.879758 2.898142 2.339844 2.716797.93534-.136115 1.784744-.616685 2.580078-1.103516-.364353 1.663764-.927301 3.441008-2.001953 4.775391-.505831.552981-1.281354 1.584193-2.089844.925781-.853745-1.012104-2.561513-1.119605-3.478516-.13086-.95625.754214-1.06681 2.450735.07617 3.091797 1.013537.682608 2.309566.695353 3.479599.813033 2.965416-.173689 5.410821-2.483107 6.593713-5.084356.777465-1.619182 1.190379-3.380739 1.561454-5.129067.261403 1.468425 2.060414 2.380843 3.373047 1.61914.804932-.364091 1.558832-1.110004 2.177734-1.564453.457177 1.341943 2.024455 2.267138 3.392578 1.685547.49398-.103955.981556-.569042 1.384766-.666015.690383 1.009019 2.128596 1.095211 3.132988.531201.984553-.389449 1.858161-1.014892 2.640449-1.720655.271863 1.25126 1.587595 2.24329 2.872477 1.841733.871302-.102789 1.685691-.756943 2.336508-1.11517.63989 1.139711 2.107074 1.663871 3.328288 1.201798 2.893369-.675928 5.27693-3.27387 5.66781-6.221329.12311-1.344244-.28134-2.8474987-1.41602-3.6718754-.09816-1.4632143-2.025705-2.0446236-3.143106-1.2896103-.465361.3394325-.917359.6915955-1.497517.7896103-1.094518.4861275-.924344 1.9179019-1.680535 2.6961834-.704865 1.200016-1.547767 2.306996-2.577278 3.247176.371286-3.12017 1.491757-6.0654674 2.709001-8.9249815.414375-.8057868.759248-1.7848466.248031-2.6336123-.386828-.7434252-1.17799-1.3004037-2.039063-1.2324218zm-87.392578 3.1445312c-1.6504107.1591578-2.3865475 1.8674653-2.9263342 3.2088181-.433387 1.0502199-.8580191 2.1071172-1.2279627 3.1818073-.5782757-1.0489588-1.25128076-2.0873558-1.71679685-3.1777348.61703644-1.2543958-.41161356-2.9157343-1.83007815-2.8261718-.9038456-.0268149-1.7226576.5991664-2.0312658 1.4167605-.7867632.6631919-1.3653852 1.9419431-.5566248 2.8117551-.7598563 1.919483-1.6272356 3.821183-2.390625 5.75-.3262794.957777-.9341079 2.060847-.2890625 3.027344.5447785 1.023434 1.9527529 1.418654 2.9187626.743192 1.3063054-.716693 1.7238105-2.326673 1.6374339-3.715068.092833-.740886.3936959-1.433059.6840379-2.114062 1.00937615 1.739466 1.8948996 3.568483 3.0506169 5.211871.9333281.956714 2.7975031.85986 3.3907893-.430621.4641916-.678914.1778072-1.525093-.0500965-2.208603.2609425-2.186025 1.1414399-4.244371 2.0339038-6.2352975.27998-.5504997 1.1113049-.4331306 1.3404115-1.0639117.4351744-1.0090034.0166794-2.2342369-.6699219-3.0292969-.3559195-.3627769-.8532606-.5881221-1.3671875-.5507813zm14.109375 2.5761719c-1.562712.091804-2.308833 1.7192712-2.691027 3.0246508-.387594.9879257-.379147 2.2142807-1.353895 2.8679277-.402185.385066-.798667.781839-1.257812 1.099609.287889-1.53165 1.052764-2.916134 1.567291-4.3627414.279507-1.6180451-2.009715-3.0648976-3.207916-1.7622586-.653506.8099182-1.193257 1.7005797-1.746094 2.580078.544531-1.3094999-.664362-2.6971808-1.9804689-2.7695311-.9576452-.1417097-1.7212288.5921955-2.0566406 1.4199219-1.0292642 1.9146742-1.7344528 3.9936502-2.2890625 6.0878902-.2691087 1.315981.2951887 3.092501 1.7910156 3.314454 1.5335341.147223 2.6826305-1.109402 3.7888094-1.967841.105978.274994.197398.899535.484628 1.235419.630512 1.041482 2.019909.944012 2.996747.522382.735765-.269357 1.404593-.695204 2.030597-1.161054.48171 1.022189 2.093024 1.483333 2.813466.455924.759221-.887603 1.372601-2.014211 2.067393-2.860221-.207913 1.499011.198807 3.452658 1.800456 4.00466 1.569494.509786 3.175106-.416389 4.289388-1.463645.990023 1.520625 3.130122 1.611628 4.672052.977453.769482-.257422 1.49241-.641546 2.165839-1.090734.558265 1.330907 2.404476 1.921578 3.565988.991471.691571-.336381 1.286727-.991577 1.853934-1.387955.448998 1.326324 2.004476 2.287663 3.359194 1.670224 2.196846-.752903 3.650219-2.751206 4.810727-4.654599.462134-.815846.830135-2.13051-.06445-2.78711-.877127-.54553-1.958069.138448-2.326982.982774-.616649.7966-1.381226 1.832536-2.114424 2.304336-.00079-1.623499.734952-3.123376 1.117964-4.6566338-.02121-1.0043631-1.0349-1.8790806-2.03398-1.7046944-1.096517-.9114877-2.626448-.2464351-3.638524.4623098-1.951414 1.2542832-2.879468 3.5341914-4.733104 4.8954944-.823764.689433-1.816431 1.437812-2.899856 1.480086-.196253-.857628.270823-1.739033.639774-2.500705.172343-.185797.390647-.873328.639523-.60281 1.11116.958515 2.832561-.0026 3.201172-1.261719.441128-1.1144139-.180139-2.5222412-1.394699-2.7784509-1.849265-.5453791-3.677079.623497-4.984211 1.827279-1.02367 1.0049369-1.633909 2.3320759-2.236271 3.6003829-.584331.597799-1.108905 1.268286-1.798885 1.75118.257135-1.734138 1.078366-3.30702 1.716964-4.9184446.751737-1.4850395-1.070517-3.2167968-2.533092-2.5803163-.69617.3238462-1.000365 1.1297017-1.709096 1.4621408-.262238.1896172-.214526-.544025-.450528-.6980158-.391642-.6325484-1.111686-1.0978365-1.871904-1.0485676zm78.554688 5.5683595c-.195906.550127-.472904 1.067539-.78711 1.558594.226864-.608215.503227-1.19964.841797-1.753907-.01823.06511-.03646.130209-.05469.195313zm-37.816407-.03125c-.194653.572719-.49839 1.099529-.80664 1.617187.222251-.617694.503451-1.216155.851562-1.773437l-.02763.09611z" fill="#333"/><g fill="#f4c401" transform="scale(.9822298 1.0180917)"><g><path d="m-2.0308741 5.5509119c-.2727637 0-.5951208.1239835-.7686977.2975604-.1239835.1487802-.2727637.3471538-.2727637.4711373 0 .1239834-.099187.2727636-.3223571.4215438-.3223571.2231703-.5455274.5703241-.6199175.7934944-.099187.3471538.07439.5455274.2975604.7686977.1487802.1487802.2231703.3223571.099187.5951208-.247967.6199175-1.735769 4.0666587-2.6532469 6.1495817-.1239835.272763-.3719504.942274-.3719504 1.215038 0 .843088.570324 1.190242 1.0910547 1.190242.3223571 0 .7934944-.173577 1.1654449-.595121.5455274-.644714.6199175-.967071.6199175-2.157313 0-.14878 0-.347154.099187-.793494.1983736-.843088.9422746-2.47967 1.3886152-3.372352.099187-.173576.1983736-.22317.3471538.0248.3471538.545528 1.48780193 2.653247 2.30609302 3.967472.79349438 1.264632.99186798 1.785362 1.14064818 1.983736.1983736.272764.7191043.669511 1.239835.669511.3967472 0 .6199175-.22317.8430878-.520731.2231702-.29756.2479669-.669511.1239835-.867884-.1487806-.223174-.2975608-.371954-.2975608-.595124 0-.347154 0-.644714.2231703-1.512599.570324-2.157313 1.1654448-3.6947079 2.1325161-5.6040538.1735769-.3719505.4711373-.5455274.743901-.5703241.3719505-.024797.5703241-.1983736.5703241-.495934 0-.4463406-.2727637-1.8349557-1.1654449-1.8349557-.2975604 0-.6199175.1239835-.9422746.4463406-.3471538.3471538-.743901.9670712-1.3886151 2.55406-.5951208 1.3638185-1.1406482 2.826824-1.6365822 4.339422-.0991868.272764-.1487802.322358-.2975604.049594-.2231703-.396747-2.40527986-4.0914556-2.6780436-4.5873896-.1487802-.2727637-.2231703-.5207307-.2231703-.6447142 0-.099187.07439-.1983736.1735769-.4215439.12398354-.1735769.19837364-.4463406 0-.7686976-.1983736-.3471538-.4463405-.5951208-.9670712-.5951208z"/><path d="m14.062175 15.048048c-.371951 0-.421544-.322357-.371951-.867885.123984-1.041461.619918-2.653247 1.140648-3.719505.247967-.4959336.396748-.7686973.495934-.9918676.297561-.6447142-.347153-1.4134119-.967071-1.4134119-.29756 0-.595121.1983736-.991868.7934944-.44634.6943076-1.487802 2.4796701-2.653247 3.8434881-1.1902413 1.289429-1.8845489 1.909346-2.1573126 1.909346-.2975604 0-.4215439-.272764-.1735769-1.066258.2975604-1.016665.495934-1.487802.6943076-1.859752.1735769-.322357.4711373-.471138.7191043-.793495.2231706-.29756.7191046-1.1406479.7191046-1.463005 0-.4463406-.7439013-1.0662581-1.3638188-1.0662581-.2975604 0-.6199175.1983736-.8678845.5703241-.2975604.5455274-1.0662581 2.008533-1.6613789 3.769098-.6943075 1.834956-.7686976 2.454874-.7686976 2.851621 0 .793494.5207306 1.562192 1.0414613 1.562192.3719505 0 .7686977-.09919 1.2894284-.421544 1.487802-.942275 3.1243841-2.529263 3.5211311-2.950807.14878-.14878.322357-.04959.247967.22317-.07439.272764-.14878.545527-.22317.942275-.29756 1.438208.14878 2.281296.917478 2.281296.37195 0 1.066258-.173577 1.760565-.520731.867885-.421544 2.33089-1.339022 4.215439-3.818691.371951-.471138.520731-1.016665.371951-1.314226-.09919-.22317-.29756-.22317-.495934-.0248-1.463005 1.636582-3.595522 3.545928-4.438609 3.545928z"/><path d="m20.310963 7.7082247c-.446341 0-1.016665.247967-1.438209 1.1654449-.421544.8678845-1.190241 3.2731644-1.810159 6.1743784-.123983.495934-.09919 1.041461.07439 1.239835.198374.272763.421544.471137.743901.471137.14878 0 .396747-.07439.669511-.495934 1.115852-1.686176 2.355687-3.273164 3.793895-4.686576.371951-.347154.495934-.446341.570324-.347154.04959.07439 0 .247967-.09919.520731-.14878.421544-.322357 1.066258-.52073 2.008532-.520731 2.40528.322357 3.694709 1.562192 3.694709 1.264631 0 3.347554-1.041462 5.40568-4.58739.396748-.619917.421544-1.041461.297561-1.215038-.09919-.123984-.297561-.07439-.421544.07439-1.487802 1.760566-3.595522 3.992269-4.488203 3.992269-.396747 0-.793494-.495934-.421544-1.983736.247967-.991868.719105-2.33089 1.115852-3.198775.22317-.495934.471137-.9174774.570324-1.1406477.173577-.4711373.22317-.8182911-.22317-1.2646317-.198374-.1735769-.471138-.2727637-.768698-.2727637-.247967 0-.421544.1487802-.570324.3719505-.123984.247967-.297561.3967472-.396747.4711373-.223171.1239835-.421544.247967-1.091055.743901-.793495.5455274-2.281297 1.9837363-2.727637 2.4796703-.22317.29756-.396747.198373-.297561-.07439.148781-.421544.371951-1.314226.694308-1.8597529.22317-.3967472.446341-.6447142.669511-.6447142.14878 0 .29756-.1487802.29756-.3223571 0-.5207307-.495934-1.3142251-1.190241-1.3142251z"/><path d="m33.453247 8.1545653c-1.314225 0-2.876417.9422746-3.893081 2.0829227-1.215039 1.363819-1.810159 3.223571-1.810159 4.339422 0 1.95894 1.165444 2.603654 2.355686 2.603654 2.33089 0 5.18251-1.958939 6.967873-4.265032.322357-.421544.44634-.867885.322357-1.091055-.09919-.173577-.347154-.198374-.619918.04959-1.661379 1.636582-3.917878 3.521132-5.678444 3.521132-.545527 0-.991868-.495934-.991868-1.239835 0-.694308.198374-1.760566 1.041461-3.025198.694308-1.041461 1.388616-1.4134116 1.636583-1.4134116.14878 0 .272763.1239835.247967.4463406-.0248.247967.04959.421544.198373.495934.123984.07439.421544.09919.743901-.04959.471137-.223171.917478-.694308.917478-1.3638189 0-.5207307-.495934-1.0910548-1.438209-1.0910548z"/><path d="m41.487379 8.1545653c-.272763 0-1.339022.099187-2.70284 1.2894284-1.041461.9422743-2.082923 2.1573133-2.727637 3.4715383-.793494 1.512598-.942275 2.306093-.942275 2.802027 0 .942274.967072 1.463005 1.264632 1.463005.520731 0 1.041462-.22317 1.710972-.719104.694308-.495934 2.008533-1.686176 2.306093-2.03333.148781-.14878.198374-.14878.223171.07439 0 .272764 0 .495934.04959.867885.09919 1.016665.768698 1.810159 1.686176 1.810159 1.562192 0 3.967472-2.33089 5.058526-4.488203.223171-.471137.347154-.917478.223171-1.140648-.09919-.173577-.347154-.198373-.619918.04959-1.562192 2.157312-3.248367 3.669911-3.818691 3.669911-.371951 0-.619918-.347154-.619918-1.215038 0-1.487802.446341-3.025198 1.091055-4.4882028.07439-.2231703.198373-.5207307-.495934-.9174779-.22317-.1487802-.396747-.099187-.595121.07439-.14878.099187-.272764.099187-.322357-.049593-.14878-.1983736-.421544-.5207307-.768698-.5207307zm-.917478 1.8597527c.322357 0 .520731.29756.595121.52073.07439.247967 0 .570325-.14878.818292-.09919.173576-.495934.867884-.843088 1.264631-.743901.867885-1.091055 1.339022-1.512598 1.686176-.371951.322357-.743901.570324-.942275.570324s-.247967-.347154-.173577-.669511c.14878-.669511.843088-2.058126 1.686176-3.049994.719104-.843088 1.115851-1.140648 1.339021-1.140648z"/></g><g><path d="m56.626241 5.1789614c-.371951 0-.570324.1735769-.768698.3471538-.29756.2975604-.421544.3719505-.793494.4215439-.421544.07439-.743901.1239835-.991868.247967-.22317.099187-.446341.2727636-.446341.570324 0 .4215439.520731.8182911 1.091055.9174779.173577.024797.198374.07439.173577.2231703-1.289428 4.6617797-1.859752 6.5959217-2.727637 8.9764057-.37195 1.016664-.719104 1.735769-1.190242 2.281296-.421543.396747-.793494.570324-1.041461.570324s-.471137-.09919-.644714-.198374c-.22317-.123983-.892681-.37195-1.289428-.37195-.421544 0-.991868.347154-.991868.743901 0 .37195.322357.892681.644714 1.066258.52073.272764 1.165445.495934 1.636582.495934.29756 0 .644714-.123984.991868-.22317.272764-.07439.669511-.247967.991868-.371951.247967-.123983 1.091055-.545527 1.859752-1.413412.892682-.991868 1.735769-3.223571 2.55406-6.223971 1.190242-4.3394227 1.314225-4.8353567 1.586989-5.5296643.123984-.3471538.347154-.7191043.495934-.8926812.173577-.1735769.371951-.4711372.22317-.8678844-.14878-.4215439-.818291-.7686977-1.363818-.7686977z"/><path d="m57.270922 15.147235c0 1.165444.743901 2.082922 1.636582 2.082922 1.785363 0 3.397148-.991868 4.58739-2.40528 1.016664-1.140648 1.388615-2.330889 1.388615-3.322757 0-.967072-.347154-2.0581263-1.239835-2.5044669-.173577-.0743901-.198374-.1487802-.198374-.2975604 0-.3471538-.04959-.9670713-.991868-.9670713-.421544 0-.793494.1487802-1.140648.495934-.247967.247967-.421544.3719505-.743901.3719505-.272764 0-.471137.1239835-.644714.2975604-.173577.1983736-.29756.3719505-.322357.6695109-.0248.4463408-.22317.6695108-.421544.9422748-.29756.37195-.942275 1.339022-1.314225 2.182109-.446341 1.091055-.595121 1.785363-.595121 2.454874zm2.33089-.421544c0-1.041462.991868-3.049994 2.107719-4.364219.14878-.198374.396747-.4215443.570324-.4215443.446341 0 .619918.6943073.619918 1.3142253 0 .867884-.843088 2.77723-1.562192 3.570724-.471138.520731-.892681.719105-1.215038.719105-.223171 0-.520731-.297561-.520731-.818291z"/><path d="m72.545699 8.1049719c-.545527 0-1.562192.2975604-2.2565.6943076-.843087.495934-2.206906 1.3886155-3.347554 2.8764175s-1.661379 2.975604-1.661379 3.942675c0 .694307.495934 1.512599 1.091055 1.512599.694308 0 1.760566-.545528 2.281296-.867885.843088-.520731 1.562192-1.140648 1.859753-1.388615.14878-.123984.247967-.14878.22317.04959-.04959.347154-.123983 1.041462-.396747 2.132516-.396747 1.611786-.867885 3.297961-1.884549 4.73617-1.115852 1.586989-2.10772 2.033329-2.826824 2.033329-.446341 0-.843088-.272763-1.190242-.545527-.322357-.272764-.768697-.545527-1.140648-.545527-.52073 0-1.487802.694307-1.487802 1.289428 0 .669511 1.115852 1.115851 1.686176 1.115851.396747 0 .570324.04959.818291.123984.272764.07439.719104.09919 1.066258.09919.644714 0 2.231703-.595121 3.273164-1.413412 1.190242-.917478 2.603654-2.727637 3.347555-5.678444.272763-1.066258.942274-3.669912 1.388615-6.298362.04959-.247967.09919-.595121-.0248-.719104-.07439-.04959-.0248-.14878.173577-.272764.421544-.29756.743901-.793494.743901-1.314225 0-.5455274-.396747-1.5621921-1.735769-1.5621921zm-4.835356 6.2983621c0-.644715.669511-1.934143 1.190241-2.603654.892681-1.140648 2.008533-1.760566 3.025198-1.760566.52073 0 .843087.297561.843087.471138 0 .09919-.07439.22317-.123983.272763-.09919.07439-.22317.09919-.322357.123984-.272764.07439-.570324.272764-.843088.669511-.14878.22317-.471137.793494-1.314225 1.611785-.347154.371951-1.586989 1.611786-2.18211 1.611786-.173576 0-.272763-.173577-.272763-.396747z"/><path d="m80.803002 8.1545653c-.272764 0-1.339022.099187-2.702841 1.2894284-1.041461.9422743-2.082922 2.1573133-2.727637 3.4715383-.793494 1.512598-.942274 2.306093-.942274 2.802027 0 .942274.967071 1.463005 1.264631 1.463005.520731 0 1.041462-.22317 1.710973-.719104.694307-.495934 2.008532-1.686176 2.306093-2.03333.14878-.14878.198373-.14878.22317.07439 0 .272764 0 .495934.04959.867885.09919 1.016665.768698 1.810159 1.686176 1.810159 1.562192 0 3.967472-2.33089 5.058527-4.488203.22317-.471137.347154-.917478.22317-1.140648-.09919-.173577-.347154-.198373-.619917.04959-1.562192 2.157312-3.248368 3.669911-3.818692 3.669911-.371951 0-.619918-.347154-.619918-1.215038 0-1.487802.446341-3.025198 1.091055-4.4882028.07439-.2231703.198374-.5207307-.495934-.9174779-.22317-.1487802-.396747-.099187-.595121.07439-.14878.099187-.272763.099187-.322357-.049593-.14878-.1983736-.421544-.5207307-.768697-.5207307zm-.917478 1.8597527c.322357 0 .52073.29756.59512.52073.07439.247967 0 .570325-.14878.818292-.09919.173576-.495934.867884-.843087 1.264631-.743901.867885-1.091055 1.339022-1.512599 1.686176-.371951.322357-.743901.570324-.942275.570324-.198373 0-.247967-.347154-.173577-.669511.148781-.669511.843088-2.058126 1.686176-3.049994.719104-.843088 1.115851-1.140648 1.339022-1.140648z"/><path d="m91.118456 8.5017191c-1.363818 0-2.70284.5703241-4.041862 2.0333289-1.859752 2.03333-2.47967 4.017066-2.47967 5.083324 0 1.239835.570324 1.611785 1.115852 1.611785.545527 0 1.537395-.322357 2.62845-1.066258.619917-.421544 1.810159-1.463005 2.40528-2.206906.123983-.173577.22317-.14878.198373.04959-.04959.297561-.09919.619918-.123983 1.165445-.04959.867885.37195 1.909346 1.388615 1.909346 1.934143 0 4.413812-2.727637 5.18251-4.314626.22317-.471137.347154-.917477.22317-1.140648-.14878-.247967-.44634-.198373-.743901.223171-.471137.694307-2.802027 3.347554-3.570724 3.347554-.371951 0-.545528-.446341-.471138-1.239835.09919-1.239835.644715-3.744302 1.363819-5.7280376.818291-2.2317029 1.438208-3.3971478 1.785362-4.2402356.247967-.6199175.247967-.9422746-.09919-1.3638185-.396747-.4711373-.644714-.5455274-.917477-.5455274-.173577 0-.347154.099187-.545528.5207307-.29756.6199175-1.413412 3.2731644-2.454873 5.8520211-.04959.1487802-.09919.1487802-.22317.1239835-.198374-.049593-.396748-.07439-.619918-.07439zm-.495934 1.4382086c.198374 0 .371951.1239833.446341.2727633.09919.173577.123983.371951-.0248.694308-.14878.37195-1.239835 2.132516-2.082923 2.975604-.793494.768698-1.388615 1.091055-1.686175 1.091055-.173577 0-.322357-.173577-.322357-.421544 0-.371951.123983-.917478 1.190241-2.40528.942275-1.339022 2.03333-2.2069063 2.47967-2.2069063z"/><path d="m95.780278 15.147235c0 1.165444.743901 2.082922 1.636582 2.082922 1.785363 0 3.39715-.991868 4.58739-2.40528 1.01666-1.140648 1.38861-2.330889 1.38861-3.322757 0-.967072-.34715-2.0581263-1.23983-2.5044669-.17358-.07439-.19837-.1487802-.19837-.2975604 0-.3471538-.0496-.9670713-.99187-.9670713-.42155 0-.7935.1487802-1.14065.495934-.247967.247967-.421544.3719505-.743901.3719505-.272764 0-.471137.1239835-.644714.2975604-.173577.1983736-.29756.3719505-.322357.6695109-.0248.4463408-.22317.6695108-.421544.9422748-.29756.37195-.942275 1.339022-1.314225 2.182109-.446341 1.091055-.595121 1.785363-.595121 2.454874zm2.33089-.421544c0-1.041462.991868-3.049994 2.107722-4.364219.14878-.198374.39674-.4215443.57032-.4215443.44634 0 .61992.6943073.61992 1.3142253 0 .867884-.84309 2.77723-1.562193 3.570724-.471137.520731-.892681.719105-1.215038.719105-.223171 0-.520731-.297561-.520731-.818291z"/></g></g></g></svg>