<svg height="169.52933" viewBox="0 0 105.4587 27.901137" width="640.77472" xmlns="http://www.w3.org/2000/svg"><g transform="translate(-10.356889 -271.66517)"><text fill="#ef00eb" font-family="TrasksHand" font-size=".32916" stroke="#0105ff" stroke-width=".41145" transform="matrix(.98025561 .19773452 -.19773452 .98025561 0 0)" x="115.73999" y="268.51627"><tspan fill="#fafafa" fill-opacity=".4" font-size=".32916" stroke="none" stroke-width=".41145" x="115.73999" y="268.51627">John Loreth 2022</tspan></text><path d="m381.15625-1.0371094c-.0334-.033291-.48766.34214956-2.38672 1.81640628-1.02383.88240632-1.65546 1.94846642-2.19922 3.10156252-1.33323 2.7750425-5.3121 12.3092126-9.19726 21.8496096-.19404-.02891-.32503-.06641-.57617-.06641-6.77957 0-13.59628 3.058372-19.67383 9.685547-2.71688 2.964662-4.11452 5.696727-5.43164 8.046875-.44107.375874-.85094.560012-1.27149.863282 1.06246-2.038148 1.8457-4.38392 1.8457-7.109375 0-2.828145-.97492-5.518507-2.8496-7.433594-1.65828-1.693833-3.8886-2.33175-5.99414-2.642578a.81763243.81763243 0 0 0 -.16211-.140625c-.0461-.02691-.0765-.0425-.10352-.05078-1.36718-1.647344-3.43439-3.144531-6.05273-3.144531-4.02989 0-7.01188 2.320037-9.41797 4.458985-2.15144 1.912554-3.82241 3.929046-5.02735 5.535156.0254-.313852.0957-.632254.0957-.945313 0-2.867452-1.4248-4.965861-2.72461-6.414062-.65868-.733833-1.3561-1.360833-2.11914-1.875-.59288-.399534-1.53655-1.166016-3.39454-1.166016-1.54256 0-3.0116.515008-4.10546 1.248047-1.03629.694413-1.70641 1.463026-2.23633 2.044922-.006.0064-.0518.05488-.11719.132812-.004.0046-.004.001-.008.0059-1.74168 2.087509-2.76092 3.862935-3.6836 5.5-1.44585 2.565354-1.49566 5.194348-1.17382 6.960937.0106.06773.0249.145658.0449.236329a.81763243.81763243 0 0 0 .008.02148c.0404.160743.0544.207636.0586.207031-.0338.114747-.27785.659223-.91601 1.720703l.10351-.125a.81763243.81763243 0 0 0 -.13281.175782.81763243.81763243 0 0 0 -.008.0078c-.7001 1.203099-1.11829 1.751387-1.64649 2.554688.23024-2.029834.51561-4.118264.5625-5.94336.0571-2.278186-.0432-5.020452-.69531-7.625-.32295-1.290066-.78397-2.648165-1.74219-3.941406-1.02619-1.385008-2.874-2.671875-5.08593-2.671875-2.83265 0-4.87552 1.617252-6.17774 3.025391-1.26325 1.365959-2.11266 2.804485-2.76172 3.935546l.0449-.03711a.81763243.81763243 0 0 0 -.13282.177734.81763243.81763243 0 0 0 -.008.01367c-1.24762 2.219566-1.79537 4.485045-1.18164 6.628907a.81763243.81763243 0 0 0 0 .02148c.0311.101367.0551.143551.0605.15625.27105.811578.27563.271541.1914 2.037109a.81763243.81763243 0 0 0 0 .03711v.0078c-.00018.02249-.00021.04365 0 .06641l-.16211 5.476563c-2.08909 2.405858-4.16231 4.66204-5.75 6.097656-.0698.06316-.11194.08299-.17773.140625.18226-4.999181 1.70834-10.418116 4.05273-15.730469a.81763243.81763243 0 0 0 .008-.02344c.0554-.131301.0991-.247878.13281-.353516a.81763243.81763243 0 0 0 .006-.06641c.0467-.131414.25288-.655967.36328-1.359375.11535-.734929.14908-1.693971-.16992-2.730469-.60944-1.980094-2.16717-3.331589-3.96485-4.392578-.0169-.01-.0279-.02717-.0449-.03711-1.0714-.679446-2.55484-1.193666-4.10351-.945313-.16794.02816-.24409.09858-.36914.15625-1.01909-.954973-2.42611-1.898437-4.62891-1.898437-2.12276 0-7.49275.801025-13.80469 6.291015.002-.0016-.005.0066-.0137.01367-.003.0025-.005.0053-.008.0078-.006.0046-.0177.0057-.0293.01563-.009.008-.0248.03086-.0449.05078l-.006.0078c-.008.0078-.0233.02137-.0234.02148a.81763243.81763243 0 0 0 -.008.0078c-5.96769 6.595276-11.50078 13.458715-18.36523 19.03125-.53799.42652-.93949.637449-1.41797.966797 2.36931-7.669379 6.6395-20.771202 13.7832-34.548828l-.14063.185547a.81763243.81763243 0 0 0 .23633-.560547l-.082.361328c1.10249-2.148283 2.21372-4.185214 2.16406-6.894531-.0502-2.7362268-1.6851-5.053221-3.70703-6.828125l-.006-.00781c-.0105-.00926-.0207-.020075-.0312-.029297-1.32974-1.2673512-3.12282-1.86718748-4.67187-1.86718748-2.22579 0-4.36331 1.21426768-5.86133 3.03320308-.002.00272.002.00513 0 .00781-.002.00189-.006-.00185-.008 0-.002.00276-.006.00509-.008.00781-.007.00937.0004.013056-.006.021484-.006.00775-.0108.00676-.0156.013672a.81763243.81763243 0 0 0 -.0215.023437c-.0105.013266-.0188.03744-.0293.050781-.002.00329-.0149.022115-.0156.023438-1.27717 1.6329071-2.46486 3.9127421-4.34765 7.9277344-1.60946 3.432151-3.85291 8.758856-6.31836 14.814453-.34454-1.17993-.86773-2.399726-1.7793-3.617187-2.12878-2.878488-5.20888-4.739284-8.2539-6.111328-2.75114-1.239723-5.4383-1.938474-8.00782-2.089844-2.59236-2.519395-5.06863-4.044922-7.95117-4.044922-2.6284 0-4.50143 1.523578-5.58789 2.798828-.7838.919937-1.16913 1.776418-1.51367 2.546875-3.12867 1.116813-6.71581 2.76019-9.5957 5.203125-.0115.0054-.13467.08192-.23633.177734-1.39761 1.242445-2.47845 2.893083-2.64258 4.828126-.16416 1.935269.67491 3.602106 1.71875 4.679687.004.0042.0117.0036.0156.0078.001.0014-.001.0045 0 .0059 1.75859 1.878765 3.8507 2.26686 5.32227 2.333984-2.30669 7.228271-5.05182 15.70723-6.5332 21.355469a.81763243.81763243 0 0 0 -.0215.0078c-.0263.0107-.0651.02411-.11132.04297-1.77111.720151-3.50153 1.688463-4.6875 3.513672-1.26672 1.949443-1.25128 4.508666-.39844 6.423828a.81763243.81763243 0 0 0 .008.02148c.0552.114179.0613.118364.043.08008 1.76962 3.692938 5.75313 6.429687 10.57812 6.429687 2.24181 0 4.37296-.493091 6.1875-2.273437.15944-.02948.27236-.05859.53125-.05859 5.04059 0 9.10904-.91434 12.02539-3.048828v.0078c1.34698-.971527 3.04883-2.377987 3.21875-5.115234.0986-1.587099-.63908-3.260739-1.875-4.275391-1.11492-.915363-2.32049-1.221585-3.35937-1.357421h-.008c-1.61637-.219478-3.40423-.450017-4.91602-.671876.22199-.696491.45326-1.41279.70117-2.148437.44109.189619.93709.355431 1.54297.355469 1.11347 0 2.49625-.153572 4.01563-.517578.007.000037.014.000113.0215 0 .01-.000152.0193.000453.0293 0 .0169-.0041.028-.0037.0449-.0078.009-.0022.0128-.0057.0215-.0078a.81763243.81763243 0 0 0 .0156 0l-.0293.01563c.0204-.0042.0339-.01147.0508-.01563a.81763243.81763243 0 0 0 .0156-.0059c.002-.000529.006.000492.008 0a.81763243.81763243 0 0 0 .0293-.0078c.007-.0018.0126.000302.0137 0a.81763243.81763243 0 0 0 .008 0c4.54382-1.225739 9.11976-3.769398 11.79688-5.66211 1.29627-.825675 2.52381-1.87968 3.69726-3.041015-2.35548 7.35292-3.78711 12.937003-3.78711 15.642578 0 2.673411.80341 5.217241 2.3711 7.234375 1.58854 2.044006 4.10948 3.542969 6.99023 3.542969 5.35724 0 9.91377-2.751127 14.00391-6.046875.58939 1.341354 1.30959 2.572834 2.29492 3.447265.88536.785688 1.8095 1.368062 2.70117 1.794922.81495.390161 1.71732.804688 3.12305.804688 3.31681 0 6.37183-1.462414 9.45703-3.736328a.81763243.81763243 0 0 0 .0137-.02148c.0133-.0095.0316-.02755.0449-.03711 1.54317-1.10778 3.40996-2.6823 5.17383-4.236328.65916 1.914406 1.58899 3.724395 2.97656 5.123046 1.74505 1.75903 4.09394 2.908204 6.85743 2.908204 3.78477 0 7.00603-1.88579 9.94922-4.171875.80426-.624718 1.43248-1.365597 2.08984-2.080079.18066.384794.36173.763195.58398 1.105469-3.33255 4.105437-6.44136 8.043637-8.35742 10.513672-.0387.04944-.0699.09739-.10351.146485a.81763243.81763243 0 0 0 0 .01562c-3.15879 4.433538-4.61175 6.506465-5.64649 8.642579a.81763243.81763243 0 0 0 -.0742.103515c.0887-.176428.0444-.06896 0-.02148-.0444.04747-.10653.111172-.15429.154297-.0351.03171-.10656.08435-.18555.164062-1.32846.557896-3.52945 1.860604-5.78711 4.759766a.81763243.81763243 0 0 0 -.0664.06641.81763243.81763243 0 0 0 -.008.01563.81763243.81763243 0 0 0 -.16211.480469v-.236328c-1.38614 1.845921-2.58317 3.850662-3.24805 6.289062-.00073.0024.00073.0054 0 .0078-.75584 2.522305.18159 5.129226 1.78711 6.671876 1.53794 1.47764 3.55147 2.21484 5.6543 2.21484 2.90235 0 6.27257-1.31504 8.25391-4.28125.61568-.921673.90727-1.408178 1.10547-1.623044.2032-.22046.3873-.329622 1.10156-.650391a.81763243.81763243 0 0 0 .20508-.148437l-.16211.126953c.0242-.01236.0255-.0141.0449-.02344 1.07589-.511332 3.22824-1.519249 5.30664-2.958984 1.99015-1.378696 4.83529-3.410065 4.99023-7.324219l.008-.0293a.81763243.81763243 0 0 0 0-.0293v-.0078c.001-.02215.007-.04396.008-.06641a.81763243.81763243 0 0 0 0-.04297v-.0078c0-.978519-.37021-1.76137-.75977-2.451172.0608-.08081.10135-.132606.1836-.24414.29217-.396359.70688-.948817 1.18945-1.556641.97918-1.233298 2.33881-2.897801 4.00781-4.931641 3.3336-4.062349 7.91665-9.601331 13.36914-16.314453a.81763243.81763243 0 0 0 .0137-.01367c2.34159-2.847119 4.7527-6.508255 7.00585-10.179688-.21016 1.271169-.37695 2.519386-.37695 3.683594 0 8.426721 6.54217 14.232422 13.43555 14.232422 7.09114 0 13.34799-3.068834 19.04492-6.777344.22437 1.44325.51756 2.932418 1.52148 4.111328 1.72653 2.027376 4.19214 2.865234 6.29688 2.865234 3.79412 0 8.16686-1.708022 13.13086-5.085937 1.35613-.920353 2.8256-2.410167 4.31836-3.869141.15972 1.252762.42304 2.534245 1.18945 3.779297 1.53695 2.497701 4.48 4.570313 8.03906 4.570313 5.86727 0 10.95423-3.550896 15.25-7.492188 4.26497-3.912907 7.75133-8.463876 9.69336-12.410156l.0215-.03711c.005-.0096.008-.01588.0156-.0293.00019-.000265-.0358.0445-.0664.08203-.0168.0206-.0372.04503-.0371.04492-.001.0016-.008.01375-.008.01367l-1.15039-.648438c.23687.03352.57422.08008.57422.08008s-.43411-.08667-.64062-.125l-.0371-.01563c.17835.03738.67773.140625.67773.140625.00012-.000264.74762.280003.76172.28125.00011 0 .006.000038.006 0 .53567-1.133404 1.00023-2.293245 1.27734-3.558593.2623-1.198904.55656-2.942169-.48632-4.841797l-.008-.01563c-.001-.0029.001-.0051 0-.0078a.81763243.81763243 0 0 0 -.008-.0078c-.0229-.04316-.0537-.100957-.0508-.0957a.81763243.81763243 0 0 0 -.0234-.0293c-.56141-.933846-1.49277-1.642047-2.53906-2.095703-1.0447-.453015-2.23722-.662281-3.37305-.369141-1.91886.495307-3.09963 1.734978-4.00781 2.990234-.00053.000492-.001.0072-.008.01367-.007.0062-.0157.0078-.0156.0078-.001.0014.001.0064 0 .0078-.0106.01047-.0237.01682-.0352.0293-.0155.01682-.0295.03939-.0449.05859-.002.0027-.006.0051-.008.0078-.0154.0195-.03.03701-.0449.05859a.81763243.81763243 0 0 0 -.006.0078c-.51798.761763-3.52788 4.441261-6.38672 7.34375-.80719.819514-1.51375 1.398806-2.27343 2.082031.62596-4.860284 2.51295-13.526443 5.04296-20.492188 3.27515-8.912579 5.6758-13.374282 7.24805-17.177734.0127-.02525-.008.01213 0-.0059a.81763243.81763243 0 0 0 .0742-.296876l-.0449.222657c.59437-1.483805 1.11151-3.0419429 1.0039-4.8789067-.10639-1.8175748-.92499-3.4435374-1.93359-4.71875a.81763243.81763243 0 0 0 -.0215-.042969c-.00065-.00132-.0516-.071243-.0899-.1269532-.0173-.025209-.0264-.046688-.0371-.058594-.002-.00174-.004.00166-.006 0l-.0371-.037109-.0156-.013672c-.008-.00971-.0133-.019621-.0215-.029297-.008-.00699-.008-.00939-.0156-.015625-.99069-1.1589544-2.00567-2.09979458-3.22461-2.7460938-1.29868-.68866773-2.66165-.87890625-3.64648-.87890625-2.47127.86931497-1.36041-.32146863-1.41602-.37695315zm-356.103516 13.0898434c-2.282018 0-4.819535 1.012938-6.408203 2.996094-.06866.08568-.692199.635824-1.513672 1.09961-.823237.464768-1.895695.92636-3.0625 1.189453a.81763243.81763243 0 0 0 -.0078.0078c-.815135.168114-1.925058.474039-2.990235 1.386719-1.2208323 1.04606-1.8886676 2.692395-1.8886714 4.193359 0 2.832907 1.8645744 4.577871 3.1953124 5.5.233227.161462.339038.164594.53125.242188-1.919943 6.900132-5.1469435 17.15355-7.6035155 22.736328-1.428223.501127-2.6459068 1.357301-3.5566406 2.251953-.00268.0025-.00514.0053-.00781.0078-.00231.0023-.0055.0055-.00781.0078-1.37691595 1.298646-2.08162623 2.917402-2.33203128 4.451172-.24815244 1.519975-.16320833 3.17508.72265626 4.796875.3108548.625512.60437029 1.254876.82617187 1.720703.11719185.246047.21788605.4441.27343745.560547.029597.06202.055544.108516.082031.162109-.00652-.009-.026784-.02993.021484.06055a.81763243.81763243 0 0 0 .021484.03711c.650041 2.383748 2.6179615 4.06275 4.5996094 4.589843 1.9302426.513449 3.8817594.259681 5.6035154-.722656.609952-.348057 1.069687-.559661 1.357422-.671875.102297-.03987.167983-.05736.236328-.08008.0065.000945.0082-.0011.01563 0a.81763243.81763243 0 0 0 .02149 0c.129067.01648.342335.04382.626953.08789.56307.08757 1.412149.230659 2.591797.435547a.81763243.81763243 0 0 0 .05078.0078l.08984.0059c.02476.0031.000285.0052.0293.0078 2.419363.342387 5.546882.546875 8.482422.546875 6.650083 0 13.293931-2.026295 18.410157-6.142578.58981 1.338708 1.309451 2.572683 2.294921 3.447265.885359.785651 1.809491 1.368062 2.701172 1.794922.814946.390161 1.717328.804688 3.123047.804688 3.316823 0 6.37183-1.462414 9.457031-3.736328a.81763243.81763243 0 0 0 .01367-.02148c.01326-.0095.03162-.02755.04492-.03711 1.545551-1.109518 3.415328-2.687656 5.181641-4.244141.65712 1.914066 1.582812 3.722997 2.96875 5.123047 1.742978 1.760731 4.091692 2.916016 6.857422 2.916016 3.503002 0 6.578362-1.726819 9.46289-3.816407.950744 1.761071 2.341601 3.05243 3.816407 3.771485 1.960834.956069 4.077946 1.460937 6.193359 1.460937 1.81344 0 3.523604-.479616 5.271484-1.171875.007-.0016.0221-.0062.0293-.0078.0297-.01183.0582-.01735.0879-.0293.006-.0023.008.0028.0156 0a.81763243.81763243 0 0 0 .0371-.02344l.0371-.01367.0137-.0078c2.69689-1.111597 6.19647-2.83207 8.57813-5.035156a.81763243.81763243 0 0 0 .008-.01367.81763243.81763243 0 0 0 .25781-.583985v.289063c1.01609-1.015521 1.76357-2.140245 2.35547-3.330078.63715-1.280769 1.24609-2.718728 1.24609-4.599609 0-4.144139-2.09692-7.719166-4.6582-10.984376a.81763243.81763243 0 0 0 -.006-.0293c-.76514-1.038917-1.33067-2.022915-1.70508-2.789063-.12397-.253682-.19474-.434223-.27343-.628906.32063-.230702.73248-.533362 1.46875-.839844 1.69796-.706809 4.2381-1.201683 6.58398-1.306641.11885.78361.33408 1.654007 1.13086 2.449219.0861.08765.1702.170694.26563.251953a.81763243.81763243 0 0 0 .006.01367c.65234.542476 2.13372 1.326898 3.97266 1.632813-1.16846 3.396737-2.60075 7.592084-3.26367 9.447265-.87626 2.299011-1.38672 4.121606-1.38672 6.03125 0 3.190073 1.68592 5.855711 3.76367 7.470704 2.03616 1.582714 4.4603 2.392578 6.91797 2.392578 1.74597 0 3.62343-.32404 5.68359-1.041016 8.80018-2.860422 13.65602-6.976334 15.86329-9.300781l.008-.0078a.81763243.81763243 0 0 0 .008-.0078.81763243.81763243 0 0 0 .2207-.546875v.207006c1.4621-1.668321 2.44396-3.740943 1.81641-6.289062-.39326-1.596775-1.78142-3.345861-3.8457-3.779297-1.86335-.39137-3.38161.288965-4.45117.974609a.81763243.81763243 0 0 0 -.0371.02148c.0269-.01958-.0304.01934-.0156.0078-1.63354 1.008416-4.80372 2.319865-6.8418 2.886719.16317-.894917.62459-2.603592 1.26954-4.541016.63883-1.919055 1.38289-3.876327 2-5.365234 4.27393-.599282 7.99232-1.281225 10.81445-1.949219 2.9796-.70526 4.95972-1.262879 6.61328-2.132813l.0234-.0078c.046-.02396.0843-.04719.0801-.04492a.81763243.81763243 0 0 0 .0371-.01367c1.63652-.933279 2.94491-2.245288 3.52149-4.451172.33149-1.268296.27648-3.210151-1.07031-4.71875-1.30167-1.458066-3.0421-1.771484-4.31055-1.771484-2.05029 0-6.00094.185234-9.61914.332031.4618-1.106381.83427-2.088731 1.66797-3.601562a.81763243.81763243 0 0 0 .0879-.28125c1.57042-3.037304 1.21681-7.137996-1.4082-9.757813-1.30423-1.301745-3.37098-2.339844-5.38868-2.339844-2.04994 0-3.60478.738865-5.05078 1.623047-1.47507.901985-3.03439 2.171658-4.00781 4.222657-.74787 1.570318-1.69358 4.16413-2.67188 6.791015-.49074 1.317695-.96782 2.592325-1.34374 3.587891-.16028.424365-.30537.801377-.41993 1.085937-1.35223.277418-2.45396.505814-3.28515.664063-.51517-1.371553-1.27802-2.753949-2.65821-3.712891-1.99303-1.384819-4.62105-2.169884-7.74414-2.169922-4.67007 0-10.22198 1.838482-14.386715 5.431641-.0026.002-.0053.0058-.0078.0078-.0068.0058-.01474.0098-.02148.01563-3.428036 2.746734-7.261587 7.025864-7.486329 12.660157-2.604007 3.332749-5.259061 6.373004-7.367187 8.347656-.535948.502035-.901237.756697-1.34961 1.123047.163628-5.025525 1.697511-10.479414 4.060547-15.833985a.81763243.81763243 0 0 0 .0059-.02344c.05527-.130696.09863-.245799.132812-.353516a.81763243.81763243 0 0 0 .0078-.06641c.04667-.131414.250924-.655967.361328-1.359375.115355-.734929.149078-1.693971-.169922-2.730469-.609437-1.980094-2.165207-3.331589-3.962891-4.392578-.01694-.01-.02794-.02717-.04492-.03711-1.074879-.681525-2.550368-1.191965-4.095704-.945313a.81763243.81763243 0 0 0 -.0078 0c-.167785.0282-.244231.09869-.369141.15625-1.019078-.954973-2.42611-1.898437-4.628906-1.898437-2.122466 0-7.499245.799891-13.8125 6.291015.0021-.0016-.0052.0066-.01367.01367-.0029.0025-.0049.0053-.0078.0078-.0059.0046-.01768.0057-.0293.01563-.0051.0043-.0097.01785-.02148.0293l-.02344.02148-.0059.0078c-.0078.0078-.02332.02137-.02344.02148-4.512386 4.085405-9.025756 9.307177-11.994141 15.28125-.001.0012-.0069-.0011-.0078 0-.005.0059-.01557.02141-.01563.02148-.000102.000151-.02164.04281-.03711.07422-.0012.0025.0013.0052 0 .0078-.0015.003-.0063.0028-.0078.0059-.03521.07151-.07218.155948-.07227.15625-1.168301 2.251502-1.830662 3.982617-2.414062 5.617187-1.339034-.132094-2.444556.172152-3.367188.56836.000821-.000265-.02051.0077-.02148.0078-.0095.0016-.08359.01856-.207031.0957l.11914-.05859c-2.780848 1.181518-6.742289 1.785156-10.033203 1.785156-1.499728 0-4.022016-.228213-6.24414-.560547-.799423-.11966-1.228535-.245286-1.734375-.369141.546837-1.298985 1.058837-2.519351 2.265625-5.5.0042-.0082.005-.0077.0078-.01367a.81763243.81763243 0 0 0 .0293-.07422c4.284605-11.103723 5.844579-15.565781 6.554688-17.591797a.81763243.81763243 0 0 0 .0078-.05078c.234969-.654085.666844-1.588361 1.078125-2.40625.207405-.41246.411318-.7991.582031-1.09961.163537-.287886.309013-.5028.31836-.517578.000408-.000642.01386-.02171.01367-.02148a.81763243.81763243 0 0 0 .04492-.03711c1.7972-2.193524 2.197087-5.175687 1.248047-7.544921-.843885-2.106709-2.359203-3.559534-3.978515-4.597657-1.621251-1.039408-3.531584-1.779297-5.691407-1.779297zm308.023436 14.896485c.0443.0099.17172.04341.19141.05078l.0156.05859a.81763243.81763243 0 0 0 -.0293 0c-.0663-.0237-.10923-.100796-.17774-.109375zm-136.21875 2.708984c.85476.282406 3.1887 1.632647 2.39258 1.224609-.0122.05601.0189.03748-.0234.140626-.1205.293555-.38996.680772-.66992 1.019531s-.56561.62996-.73828.804687c-.0306.03095-.0565.05366-.082.08008-.71573.532763-1.82042 1.194119-2.82813 1.808594.72055-1.934098 1.43677-3.848871 1.94922-5.078125zm115.70508 4.982422c.32919.208857 1.20979.784089.9375.605469l-.75391-.324219c-.00013.000151-.12382-.06287-.20703-.111328.009-.05696.0148-.11304.0234-.169922zm74.37891 6.615234s.02.01292.0215.01367a.81763243.81763243 0 0 0 -.10351.324219zm-25.89063 1.085938v.002c-.17159.272126-.32141.522373-.52539.826172-1.55531 2.315376-3.50156 4.881064-4.91601 6.296875-.0227.02268-.0378.02716-.0586.04492.42418-.760517.83318-1.497992 1.77149-2.804688.003-.0038.004-.01185.008-.01563l.008-.0078c.002-.0038.004-.0032.008-.0078l.008-.01563c1.23084-1.743534 2.4959-3.139789 3.69726-4.318359zm-314.36328 3.503906a.81763243.81763243 0 0 0 -.220703.539063l.132812-.41211zm231.97656 39.265625v.117188l-.11133.132812a.81763243.81763243 0 0 0 .11133-.25z" fill="#333" stroke-width="2.5" transform="matrix(.26458333 0 0 .26458333 10.547501 271.9401)"/><g fill="#f4c401" stroke-width=".661458"><path d="m18.630087 287.38886c-.996092 0-2.745983-.26883-3.284411-.4839-.242293-.0806-.269214-.29571-.18845-.45701.134607-.29571.430742-1.02155.942249-2.28506 1.130699-2.93025 1.53452-4.08621 1.72297-4.62387.161528-.45701.457663-1.1022.726877-1.4248.242293-.29572.269214-.61831.161529-.88714-.215371-.53766-.942249-.99468-1.53452-.99468-.349978 0-.619192.10754-.834564.37637-.323056.40325-.996091.80649-1.830655.99467-.269214.0538-.430743.1613-.430743.40325 0 .43013.646114.75272 1.023014.83337.161528.0269.18845.13442.08077.4839-.511506 1.90868-1.53452 5.18841-2.315241 6.88204-.107686.26883-.21537.3226-.349977.3226-.269214 0-.484586.13442-.7538.40325-.323057.2957-.3769.83337-.215372 1.12908.161529.3226.349979.6452.403821.88715.107686.51077.726879.59141 1.103779.37636.376899-.21507.673035-.34948.942249-.34948.188449 0 .457663.0538 1.076856.16129.565349.0806 1.372991.13442 2.099869.13442 1.857577 0 3.768996-.56454 4.845852-1.80117.403821-.43012.3769-.9409-.296135-.64519-.942249.40324-2.09987.56455-3.095961.56455z"/><path d="m29.741455 279.45837c-.296135 0-1.453756.10753-2.934433 1.39791-1.130698 1.02156-2.261398 2.33882-2.961354 3.76363-.861485 1.63987-1.023013 2.50012-1.023013 3.03778 0 1.02155 1.049934 1.5861 1.372992 1.5861.565349 0 1.130698-.24195 1.857577-.77961.753798-.53766 2.180633-1.82804 2.503689-2.2044.16153-.16131.215372-.16131.242293.0806 0 .29572 0 .53766.05385.94091.107684 1.1022.834563 1.96246 1.830654 1.96246 1.696049 0 4.307425-2.52701 5.491967-4.86583.242293-.51078.3769-.99467.242293-1.23662-.107686-.18818-.3769-.21507-.673035.0538-1.696049 2.33883-3.526704 3.97869-4.145897 3.97869-.403821 0-.673035-.37636-.673035-1.31727 0-1.61298.484586-3.27973 1.184542-4.86582.08077-.24195.215371-.56454-.538428-.99467-.242293-.1613-.430742-.10754-.646114.0806-.161528.10753-.296135.10753-.349978-.0538-.161529-.21506-.457664-.56454-.834564-.56454zm-.996091 2.01622c.349977 0 .565349.3226.646114.56455.08077.26883 0 .61831-.16153.88713-.107684.18819-.538428.94091-.915326 1.37104-.807644.9409-1.184542 1.45168-1.642207 1.82804-.403821.34948-.807642.61832-1.023013.61832s-.269214-.37637-.18845-.72584c.161528-.72584.915328-2.2313 1.830656-3.30662.780721-.91402 1.211463-1.23662 1.453756-1.23662z"/><path d="m40.149111 279.43147c-.883941 0-2.276817.45701-3.107184 1.18285-.776797.61831-1.607164 1.66675-1.607164 2.63454 0 .34948.133929.80649.26786 1.12909.187502.40324.616079 1.15596.88394 1.50544.375005.51078.61608.99468.61608 1.2635 0 .1613-.214288.37637-.562508.37637-.375005 0-.535721-.0538-.803582-.1613-.241074-.18818-.428577-.18818-.669651-.0538-.241075.10754-.589294.32261-.964298.75273-.187503.16129-.214289.37636-.214289.56454.107144.59143 1.125015.99468 1.848238.99468.294647 0 .61608-.0806 1.017871-.24195.589293-.24195 1.607164-.8065 1.955383-1.12909.321433-.29571.669651-.96778.669651-1.37103 0-.69896-.40179-1.47857-1.01787-2.25818-.455363-.6183-.803582-1.20973-.803582-1.72051 0-.83338 1.848239-1.53233 3.508975-1.53233.455363 0 .857154-.21507.857154-.72584 0-.3226-.107144-.59143-.455363-.83337-.348219-.24195-.75001-.37637-1.419661-.37637z"/><path d="m45.750711 287.1469c-.70033 0-.808073-.51077-.673394-1.31726.107743-.77961.673394-2.36571 1.050496-3.22597.134679-.26883.242422-.34948.592588-.40324 2.397285-.3226 3.986498-.75272 4.444406-.99468.377101-.21506.700331-.83337.05387-.83337-.727266 0-2.666644.10753-3.878755.13442-.161614 0-.404037.0269-.32323-.18819.107744-.24194.538716-1.37103 1.131304-2.44635.269358-.45701.242422-.9409-.161614-1.34415-.215488-.21507-.377102-.29572-.64646-.29572-.404037 0-1.158239.40325-1.400662.91402-.269358.56455-1.104367 2.93026-1.239046 3.19909-.107744.29572-.269358.34947-.511781.40324-.538716.10754-.996624.21507-1.319854.26884-.377101.0806-.538716.21506-.781138.51078-.215486.24194-.242422.64518-.05387.83337.161614.13441.377101.29571.673394.26882.350166-.0537.727267-.0806.942753-.10753.269358-.0269.269358.0806.188551.26884-.134679.37636-1.02356 2.98401-1.292918 3.73673-.215487.56455-.296294.88714-.296294 1.20974 0 .94091.942753 1.50545 1.723891 1.50545.350165 0 .700331-.0538 1.158239-.21506 2.154864-.69897 3.259232-1.66675 3.744077-2.17753.457908-.48389.350165-1.20974-.269358-.80648-.64646.40324-1.939378 1.10219-2.855195 1.10219z"/><path d="m66.815271 279.94225c0-.32259-.107743-.88714-.430973-1.31727-.754203-1.02156-2.69358-1.77428-3.663269-1.77428-.215486 0-.296293-.0538-.457909-.21507-.592586-.59142-1.104367-.80649-1.40066-.80649-.511781 0-.861946.61832-.996625.96779-.08081.16131-.134679.21507-.377102.3226-.781138.26883-1.750827.72585-2.37035 1.26351-.457909.40324-.377101.75272-.188551.94091.215487.24194.538716.29571.754203.29571.18855 0 .861945-.37637 1.265982-.59143.296294-.1613.296294-.0537.161615.34947-.646459 2.07-1.831634 5.67233-2.289543 7.47349-.134679.29571-.323229.43013-.619523.53766-.727267.29571-.969689.67207-.754202 1.15597.296293.61831.915817 1.07533 1.804698 1.07533.377101 0 .781138-.16131.942753-.34949.215486-.24194.565652-.26883.835009-.26883 1.158241 0 2.127929-.29571 2.531966-.59143.484844-.34948.592588-.7796-.02694-.86025-.592588-.0806-1.616149-.1613-2.100994-.29571-.3771-.10754-.484844-.21507-.323229-.6452.377101-1.47856.915817-3.0109 1.48147-4.57012.646458-1.77428.888881-2.44635 1.21211-3.17219.107743-.24195.269358-.29572.484845-.29572.646458 0 2.127927.43013 2.127927 1.58611 0 1.1022-1.427597 1.69363-2.343414 2.31193-.565652.37637-1.077431.75273-1.292919 1.02156-.161614.18818-.323228.51078-.323228.75273 0 .29571.296293.45701.511779.45701s.511781-.0269.83501-.10753c.996624-.26884 2.235672-.94091 2.801323-1.34415 1.02356-.6452 2.208736-2.09689 2.208737-3.30662z"/><path d="m66.294761 287.49638c0 .96779.592588 1.74739 1.373726 1.74739 2.478093 0 5.818133-3.41414 6.59927-5.00023.215487-.43014.296295-.83338.188551-1.04844-.107743-.18819-.32323-.21507-.565651.0806-1.777764 2.15064-3.824884 3.73673-4.659894 3.73673-.430973 0-.646459-.37636-.215486-1.77428.619523-2.01622 1.804698-5.6992 3.797948-9.54346.565651-1.10221.70033-1.58611-.188551-2.33883-.134679-.13442-.296293-.18819-.484844-.18819-.215486 0-.457909.10754-.700332.40325-.404037.51078-1.346789 2.39259-2.989873 6.5057-1.831634 4.57011-2.154864 6.6401-2.154864 7.41971z"/><path d="m83.978741 286.17911c-.08081 1.80116.215487 2.58077.700331 2.58077h.188551c.05387 0 .02694.0537-.08081.18818-1.212111 1.45169-2.127928 2.66142-2.774387 3.4948-.861945 1.20974-1.212111 1.72051-1.427598 2.17752-.134679.26884-.3771.4839-.592587.56455-.215487.0806-.619524.26883-1.15824.96779-.350165.45701-.592587.86025-.727266 1.37103-.161615.51078.350166.94091.915817.94091.511781 0 .942753-.1613 1.265983-.6452.32323-.48389.51178-.75272 1.050496-.99466.565652-.26884 2.074056-.99468 2.100992-1.77429 0-.24194-.161615-.43013-.404037-.51077-.08081-.10754.05387-.29572.296294-.61831.269358-.45702 2.235672-2.76896 5.117801-6.31752 1.239048-1.50545 2.882131-4.32816 3.366976-5.51102.242422-.59142.377101-1.15597.377101-1.47856 0-.69896-.808074-1.39792-1.077432-1.39792-.377101 0-.592588.21506-.861946.51078-.404037.4839-.619523.86026-.861946 1.29038-.242421.43013-.242421.80649-.188549 1.1022.08081.32261.05387.67208-.350167 1.34415-1.454532 2.50013-2.316478 3.41416-2.424221 3.41416-.18855 0-.350166-.32261-.296294-.99468.05387-.88714.350165-2.8496.377102-3.89804.02694-1.07532-.134679-2.63454-.888882-2.63454-.619523 0-1.104368.75273-1.427597 1.31728-.242423.43013-.269358.72583-.215487.91401.05387.1613.134679.37637.107743.94091z"/><path d="m79.066732 279.45837c-.296137 0-1.453756.10753-2.934434 1.39791-1.130699 1.02156-2.261398 2.33882-2.961354 3.76363-.861485 1.63987-1.023014 2.50012-1.023014 3.03778 0 1.02155 1.049935 1.5861 1.372992 1.5861.565349 0 1.130699-.24195 1.857577-.77961.753799-.53766 2.180633-1.82804 2.503691-2.2044.161528-.16131.21537-.16131.242292.0806 0 .29572 0 .53766.05384.94091.107686 1.1022.834563 1.96246 1.830656 1.96246 1.696047 0 4.307424-2.52701 5.491966-4.86583.242292-.51078.376899-.99467.242292-1.23662-.107685-.18818-.376899-.21507-.673035.0538-1.696048 2.33883-3.526704 3.97869-4.145896 3.97869-.403821 0-.673036-.37636-.673036-1.31727 0-1.61298.484586-3.27973 1.184542-4.86582.08077-.24195.215372-.56454-.538428-.99467-.242292-.1613-.430742-.10754-.646114.0806-.161528.10753-.296135.10753-.349977-.0538-.161528-.21506-.457665-.56454-.834563-.56454zm-.996093 2.01622c.349979 0 .565349.3226.646114.56455.08077.26883 0 .61831-.161528.88713-.107686.18819-.538428.94091-.915328 1.37104-.807642.9409-1.184542 1.45168-1.642206 1.82804-.403821.34948-.807642.61832-1.023013.61832s-.269214-.37637-.18845-.72584c.161529-.72584.915328-2.2313 1.830655-3.30662.780721-.91402 1.211463-1.23662 1.453756-1.23662z"/><path d="m92.163595 286.58236c0 1.69363 1.212111 2.66141 2.451157 2.66141 3.151489 0 6.518458-2.28505 8.350098-4.62387.35016-.45701.48484-.94091.35016-1.18286-.10773-.18817-.3771-.21506-.64645.0806-2.747455 2.76896-5.225549 3.6561-6.841697 3.6561-.781138 0-1.212111-.40325-1.212111-.99468 0-.37636.08081-.6183.215486-.88714.08081-.18817.161616-.21506.350166-.13441.242422.10753.538716.21506.83501.21506 1.454533 0 2.397286-.69895 2.962938-1.2635.538716-.59143 1.023558-1.37103 1.023558-2.33882 0-1.02156-.646457-1.61298-1.562274-1.66675-.188551-.0269-.32323-.13442-.404037-.24195-.161615-.3226-.430973-.53765-.942753-.53765-1.131304 0-2.531966 1.61297-3.070682 2.36569-1.185174 1.69363-1.858569 3.68298-1.858569 4.89272zm3.636333-2.76896c-.350166 0-.404037-.0806-.296295-.40324.32323-.83338 1.212111-2.15064 1.750827-2.15064.350166 0 .619524.21507.619524.59143 0 .75272-1.239047 1.96245-2.074056 1.96245z"/><path d="m107.59544 279.83471c-1.48147 0-2.93601.61832-4.39055 2.20441-2.02018 2.20442-2.69358 4.35506-2.69358 5.51103 0 1.34415.61953 1.74739 1.21212 1.74739.59258 0 1.67002-.34948 2.85519-1.15596.6734-.45702 1.96632-1.58611 2.61277-2.3926.13468-.18817.24243-.16129.21549.0537-.0538.32259-.10774.67208-.13468 1.2635-.0538.94091.40404 2.07 1.50841 2.07 2.10099 0 4.79457-2.95714 5.62958-4.67765.24242-.51078.37711-.99468.24242-1.23662-.16161-.26883-.48484-.21507-.80807.24194-.51178.75274-3.04375 3.62921-3.87876 3.62921-.40404 0-.59258-.48389-.51178-1.34415.10774-1.34415.70034-4.05934 1.48147-6.20998.88888-2.41947 1.56228-3.68297 1.93938-4.597.26936-.67207.26936-1.02154-.10774-1.47856-.43098-.51077-.70033-.59143-.99663-.59143-.18855 0-.3771.10754-.59258.56455-.32324.67207-1.53535 3.54856-2.66664 6.34439-.0539.1613-.10775.1613-.24243.13442-.21548-.0537-.43097-.0806-.67339-.0806zm-.53872 1.55922c.21548 0 .40404.13442.48484.29571.10774.18819.13468.40325-.0269.75274-.16162.40324-1.34679 2.31193-2.26261 3.22595-.86194.83338-1.50841 1.18286-1.83163 1.18286-.18856 0-.35017-.18818-.35017-.45701 0-.40324.13467-.99467 1.29292-2.60765 1.02355-1.45169 2.20873-2.3926 2.69358-2.3926z"/></g></g></svg>