<svg height="158.32037" viewBox="0 0 107.49814 26.056367" width="653.1665" xmlns="http://www.w3.org/2000/svg"><g stroke-width=".41145" transform="translate(6.771701 -.731311)"><text fill="#ef00eb" font-family="TrasksHand" font-size=".32916" stroke="#0105ff" transform="matrix(.45110812 -.89246931 .89246931 .45110812 0 0)" x="14.998524" y="55.510101"><tspan fill="#fafafa" fill-opacity=".4" font-size=".32916" stroke="none" stroke-width=".41145" x="14.998524" y="55.510101">John Loreth 2022</tspan></text><path d="m3.3085938.73828125c-1.5358982.21197803-2.0508875 1.87590235-3.01288482 2.85244985-.26453358.3308912-.44351525.7377809-.49688086 1.1592689-.71487782-.6172144-1.70642602-.4139201-2.48129132-.0459417-.9141072.2723144-2.0010517 1.112582-1.6319899 2.1826605.00804 1.2004706-.7257994 2.2448493-1.0021759 3.3893872-.6767412 2.018325-1.4349606 4.091213-1.4550722 6.238027.2906702 1.583987 2.3221568 2.147115 3.6340477 1.462046 1.4510054-.510704 2.62042873-1.608377 3.64937225-2.68907-.27726802 1.075697-.28102447 2.51039.84182255 3.105779.9792117.649216 2.4299626.371724 3.0074995-.681552.4379525-.495606.913731-.956784 1.4104436-1.392977.1455249 1.239989 1.2821995 2.38901 2.5917968 2.123047 1.2035443-.108398 2.2536318-.790017 3.1972658-1.496094.642883 1.531824 2.708274 1.907557 4.07702 1.157343.88811-.304628 1.746057-.811397 2.495245-1.311639.408691 1.279462 1.920637 2.167975 3.191871 1.6206.988794-.184565 1.924951-.929217 2.657739-1.37646.338178 1.03159 1.673957 1.765759 2.617187 1.013672.910769-.584265 1.433499-1.56634 2.095703-2.388672-.148221 1.048987.21295 2.571691 1.478479 2.669395 1.519709.04422 2.367561-1.49168 3.308631-2.436973.375275-.666604.286341.11911.412109.449219.283833 1.374026 1.669489 2.443621 3.080648 2.140578.690914-.0933 1.329444-.417282 1.901774-.802687.939782 1.389199 2.997429 1.405212 4.307051.550721 1.245357-.56491 2.452805-1.677749 2.36873-3.158143-.02312-1.330784-1.142043-2.309102-1.591796-3.408204 1.023878-.908318 2.775682-.113386 3.623046-1.302734.825665-1.1983473-.234983-2.9065062-1.618501-2.966269-2.515894-.4667569-5.142965 1.3066515-5.940691 3.675129-.13792.550173.0144 1.157186-.516496 1.534802-.57844.699703-1.072012 1.338361-1.830562 1.877432.09555-1.337835.460687-2.749804 1.441407-3.722656 1.060865-1.2608061-.261703-3.2544774-1.781637-3.2061388-1.118366.0371616-1.793993 1.1040046-2.530709 1.8084747-.344598.4655446-.424194.4531612-.378377-.1224425-.006326-1.1904645-1.247466-2.2767519-2.423989-1.7949275-1.16113.4315063-1.896335 1.5143542-2.768101 2.3384712.356546-1.5853201-1.596821-3.2933465-3.080078-2.4648437-1.033669.8085485-1.484064 2.1735349-1.734808 3.4045406.05466.472327.408189.969762-.0523 1.361084-.551372.709398-1.292431 1.239133-1.9375 1.855469.471777-1.559263 1.355688-2.970784 1.847857-4.5103125.07695-.8117332-.444153-1.6099507-1.170123-1.9506249.791682.4379472 2.046621.2589506 2.260569-.7502537.148981-.7781328.04609-1.5813982.2199-2.3591213.118269-.9336023-.485584-1.8643686-1.428587-2.0377406-.93779-.3387174-2.127206.0006687-2.473758 1.0064906-.546688 1.4469055-.104555 3.3786337 1.359375 4.1113282-.855797-.4187859-1.700942.1868563-2.324219.7304687-.784709.0321324-1.626868-.0081492-2.432707.0820899-.440838.0148236.311277-.7295008.323332-1.0391212.598531-1.1052666-.025738-2.750791-1.354791-2.8856731-1.314242-.2305782-2.345515.9052387-2.725652 2.049464-.290771.7171934-.461503 1.4790437-.788697 2.1819123-.712723.1393007-1.464458.2965894-2.03711.7734375.681665-1.790487 1.515251-3.5242489 2.259875-5.2831876.372069-1.4355827-1.2055-3.19165918-2.660265-2.4589999-1.196319.6667293-1.4779011 2.1437024-2.0604946 3.2752666-1.1615275 2.7007657-2.2548518 5.440917-3.0352089 8.279421-.4180679-.056323-.8299082.066929-1.2226563.195312.3602002-2.072845 1.2077577-4.0284283 2.2128907-5.8613278.425309-1.486128-1.0693286-3.1323397-2.5761719-2.9082031.8848469-.5735087 1.5363526-1.8167832.8398438-2.7792969-.4612188-.7050816-1.3163929-1.12978431-2.15625-1.06249995zm52.1015622 3.55273435c-.855939.068456-1.362226 1.0225386-2.257812.9257813-1.218747.2341348-2.001882 1.8609196-1.009766 2.7988281.355762.3382543.851017.5103184.466842 1.0690142-.915532 3.2289108-1.636517 6.5606738-3.136205 9.5807818-.222112.477651-.68663.430239-1.023996.13536-1.109227-.531526-2.825651-.262464-3.191407 1.074219-.356457 1.492184 1.10795 2.702266 2.462891 2.886719 1.641494.26342 3.244327-.588892 4.494141-1.572266 2.109608-1.944119 2.652766-4.898713 3.456918-7.522534.571335-2.004542.920092-4.1130551 1.802715-6.0034391.610048-.7516405.762815-1.9643251-.0487-2.6380893-.525947-.5232725-1.282869-.7673641-2.015621-.734375zm35.394532-.00195c-1.469589.075118-2.335387 1.603801-2.614843 2.8189561-.237894.4676714-.252231 1.1707141-.645906 1.4865463-.791326.08808-1.744702.4853935-2.19433.9874663.042515-1.0434424-1.002273-1.9866264-2.037109-1.8046905-1.144499-.9392573-2.734212-.2090043-3.752786.5645724-1.698148 1.2302737-2.975757 2.9741618-3.842917 4.8690218.183966-.647451-.036403-1.459106.570312-1.896485 1.094333-1.4544691.082332-3.8757841-1.769531-4.0078124-1.986511-.1739694-3.804049 1.0315651-5.20825 2.3159743-1.443428 1.3484211-2.495448 3.0832811-4.137453 4.2230881.240474-1.52661 1.089132-2.861095 1.542549-4.3136808.28207-1.5016468-1.617997-2.9718734-2.927315-1.9929597-.979019.6846216-1.315898 1.9075395-2.02539 2.8203125.472795-1.0728759-.237194-2.2978152-1.292927-2.6599109-.961053-.4156317-2.217045-.0004871-2.586767 1.0215054-1.127755 1.9915215-1.863816 4.1885795-2.442572 6.3923115-.218846 1.272395.288792 2.949104 1.706545 3.23392 1.594475.234562 2.769838-1.108819 3.926268-1.968295.04887 1.162062 1.077635 2.312252 2.308593 2.066406 1.057192-.08028 2.022961-.730448 2.878907-1.191406.509899 1.01313 1.845479 1.516912 2.859224.941325.627917-.208597 1.210626-.529058 1.763822-.88859-.495779 2.145376-1.238524 4.511794-3.130657 5.826239-.600525.345376-1.026792-.214694-1.449421-.53913-1.016602-.701921-2.47241-.45285-3.223027.519503-.762873.806138-.722415 2.285898.303105 2.861356 1.013538.682628 2.309565.69531 3.479601.813069 2.940048-.169864 5.366576-2.446144 6.562532-5.013591.795147-1.639283 1.219578-3.423757 1.592633-5.197915.2652 1.465831 2.057797 2.377317 3.371094 1.61914.805071-.366132 1.555831-1.105591 2.177734-1.566406.461631 1.347894 2.032587 2.26365 3.40625 1.69336.631033-.211735 1.159087-.62499 1.710938-.982422.870249 1.292351 2.750432 1.41333 4.025742.685996.617734-.232889 1.213261-.524451 1.776992-.867637.413231 1.473997 2.299573 1.954797 3.618764 1.481788 1.134417-.404304 2.295477-1.068983 2.945526-2.113176.664401-1.180123.261472-2.631549-.536946-3.63619-.175304-.390179-.906443-.969114-.536788-1.342844 1.007266-.731061 2.525813-.03777 3.359006-1.093292.90952-1.0051692.0993-2.6227317-1.085809-2.9641148-1.466344-.5469592-3.056919.093117-4.3243.8045477-.955827-.3094687-2.018761.0173851-2.960937-.0136719.670018-.9533397 1.217495-2.4590317.232953-3.4016053-.350797-.3817157-.868691-.6276463-1.393109-.5905822zm-87.3964849 1.1796844c-.5772993.9980892-.9333936 2.1172355-1.6784912 3.0218892-1.17358844 1.5838878-2.47674304 3.0704438-3.7668213 4.5581888.5476252-2.120475 1.56922257-4.0760707 2.36625326-6.1029206.20388498-.2298976-.07145141-1.0369873.42866864-.7291105 1.0092782.2140408 1.9519419-.3613948 2.7578125-.8964844l-.058627.081012zm81.5703129 5.269531c.02754.648673.515998 1.210048 1.109375 1.431641-.577703.701074-1.119834 1.449181-1.847657 2.005859-.01082-1.177377.365246-2.367047.738282-3.4375zm-73.851563.333985c.134535.468568.504355.852834.943359 1.050781-.583008.637191-1.167255 1.289522-1.884765 1.779297.259733-.989408.578129-1.962509.916015-2.927735l.02516.09678zm81.650391.466796c-.101548 1.115545.421372 2.16548 1.005859 3.078126-.420278.06533-.257592-.599324-.600551-.800263-.472568-.613632-1.361539-.510438-1.893488-.04131-.466559.258908-.919827.573363-1.453226.675559.114953-.897561.479637-1.749943.787109-2.585938.704314-.189656 1.454847-.228041 2.167969-.425781l-.0136.09907zm-74 .07813c.162199.508692.03829.991088-.166016 1.458984.05875.585936-.666532.240667-.982935.563114-.571113.246018-1.107901.717939-1.702612.817745.119302-.934293.461368-1.764062.820313-2.621093.660319-.192744 1.374237-.131585 2.021484-.390626l.0057.09984zm22.679687 3.304687c-.04483.195111-.07202-.09816 0 0z" fill="#333"/><g fill="#f4c401" transform="scale(.9822298 1.0180917)"><g><path d="m5.0857786 5.4269284c-.2727637 0-.6447142.1735769-.8678845.5951208-.1487802.3223571-.3471538.7191042-.5207306 1.1902415-.1735769.3719505-.7686977 1.3390218-1.9093459 2.6780436-1.95893927 2.3804827-2.72763696 3.1987747-3.3227577 3.7690987-.6447142.570324-1.0910548.768697-1.4630053.768697-.2231703 0-.4711373-.29756-.1239835-1.636582.3719505-1.438208 1.4630053-4.0666586 2.38048314-5.9264111.54552739-1.066258-.0247967-1.6117854-.49593404-1.6117854-.4959339 0-1.1158514.247967-1.5373953.4463406-.5703241.2727637-.8182911.495934-.6695109.8430877.1735769.495934.07439.9174779-.099187 1.3638185-1.1158515 2.9260107-1.8845492 5.0337297-2.3308898 7.3894167-.049593.272763-.07439.545527-.024797.793494.049593.22317.1983736.421544.3719505.570324.247967.198374.6199175.297561.8678845.297561.6695109 0 1.3390218-.223171 1.8597525-.520731.6199175-.322357 1.2646317-.793494 2.47966993-1.958939 1.11585148-1.091055 2.43007657-2.727637 2.55406007-2.876417.1239835-.148781.247967-.173577.1735769.07439-.5455274 1.785362-.8430878 3.273164-.991868 4.041862-.1735769.892681-.07439 1.289428.7191043 1.611785.3223571.14878.4711373.123984.6695109.123984.1487802 0 .3223571-.09919.5207307-.297561.5207311-.644714 1.7853628-1.859752 2.8516209-2.653247.4215439-.322357.4711373-.694307-.1239835-.619917-.8182911.123983-1.3390218.37195-1.8845492.595121-.2231703.099186-.2727637.024796-.247967-.322357.1983736-2.33089 1.1902416-5.0337304 2.1821096-6.5711258.3471538-.4711373.3719505-.8430878.2727637-1.0662581-.247967-.4711372-.7686977-1.0910547-1.2894284-1.0910547zm-4.31462569-.5207307c0 .2975604.42154389.3471538.69430759.2727637.6199175-.1983736 1.6365822-.6695109 2.8764171-1.6613789.4711373-.3967472.743901-.7191043.3471538-1.2646317-.247967-.3471538-.6943076-.5703241-1.1654448-.5703241-.3471538 0-.6943076.2231703-1.0166647.6447142-.3967472.5207307-.9422746 1.2646317-1.3886152 1.7853624-.24796699.2975604-.34715379.5455274-.34715379.7934944z"/><path d="m6.8463516 15.568778c0 .892682.5455274 1.611786 1.2646317 1.611786 2.2812967 0 5.3560867-3.149181 6.0751917-4.612186.198373-.396747.272763-.768698.173577-.967071-.09919-.173577-.297561-.198374-.520731.07439-1.636582 1.983736-3.521131 3.446741-4.2898291 3.446741-.3967472 0-.5951208-.347154-.1983736-1.636582.5703241-1.859753 1.6613787-5.2569006 3.4963347-8.8028286.520731-1.0166647.644714-1.4630053-.173577-2.1573129-.123983-.1239835-.272764-.1735769-.446341-.1735769-.198373 0-.421543.099187-.644714.3719505-.37195.4711373-1.239835 2.2069063-2.7524334 6.0008013-1.6861756 4.2154386-1.983736 6.1247846-1.983736 6.8438886z"/><path d="m15.822785 15.246421c-.644714 0-.743901-.471137-.619917-1.215038.09919-.719104.619917-2.182109.967071-2.975604.123984-.247967.223171-.322357.545528-.37195 2.206906-.297561 3.669911-.6943079 4.091455-.9174782.347154-.1983736.644714-.7686977.04959-.7686977-.66951 0-2.454873.099187-3.570724.1239835-.14878 0-.371951.024797-.297561-.1735769.09919-.2231703.495934-1.2646317 1.041462-2.2564997.247967-.4215438.22317-.8678844-.14878-1.2398349-.198374-.1983736-.347154-.2727637-.595121-.2727637-.371951 0-1.066258.3719505-1.289429.8430878-.247967.5207306-1.016664 2.7028402-1.140648 2.9508072-.09919.2727637-.247967.3223571-.471137.3719505-.495934.099187-.917478.1983736-1.215038.247967-.347154.07439-.495934.1983736-.719105.4711371-.198373.22317-.22317.595121-.04959.768698.14878.123983.347154.272764.619917.247967.322358-.04959.669511-.07439.867885-.09919.247967-.0248.247967.07439.173577.247967-.123984.347154-.942275 2.752434-1.190242 3.446741-.198373.520731-.272763.818291-.272763 1.115852 0 .867884.867884 1.388615 1.586988 1.388615.322357 0 .644714-.04959 1.066258-.198374 1.983736-.644714 3.000401-1.537395 3.446742-2.008532.421544-.446341.322357-1.115852-.247967-.743901-.595121.37195-1.785363 1.016664-2.628451 1.016664z"/><path d="m23.782552 3.145632c-.545528 0-.843088.2727637-.892682 1.0414614-.0248.5703241.04959.9670713.123984 1.239835.123983.4463406.520731.8926812 1.066258 1.0910547.471137.1735769.818291.1487802.818291-.3471537 0-.5951208 0-1.2150383.14878-2.0581261.123984-.6199175-.545527-.9670713-1.264631-.9670713zm-3.099588 14.109322c.421544 0 .892681-.09919 1.512599-.347154 1.438208-.570324 3.744301-2.802027 4.711373-4.364219.322357-.520731.396747-.917478.272763-1.140648-.09919-.173577-.347153-.198374-.644714.123983-1.388615 1.562193-3.843488 3.793895-4.636983 3.793895-.471137 0-.52073-.347153-.272763-1.115851.59512-1.909346 1.215038-3.297961 1.983736-4.6369828.247967-.4711373 0-1.0166647-.322357-1.2646317-.123984-.099187-.272764-.1487802-.421544-.1487802-.719105 0-2.281297 1.6613789-2.678044 2.6780437-.14878.37195-.09919.595121 0 .818291.123984.22317.123984.37195 0 .719104-.198374.446341-.619917 1.810159-.768698 2.40528-.173576.595121-.173576 1.041461.04959 1.487802.347154.768698.843088.991868 1.215038.991868z"/><path d="m33.180516 8.1545653c-.247967 0-.644714.1983736-1.066258.5703241-.421544.3471538-.719104.6199175-1.487802 1.4134116-.917478.942275-1.611785 1.760566-2.653247 2.926011-.37195.421544-.52073.247967-.29756-.446341.322357-1.066258.743901-2.231703 1.041461-2.8764169.322357-.6695109-.07439-1.1406482-.59512-1.5621921-.247967-.1983736-.471138-.2727637-.694308-.2727637-.669511 0-1.339022 1.8349558-1.537395 2.4300767-.09919.322357.07439.471137.173576.471137.123984 0 .148781.123984.07439.371951-.446341 1.686175-.818292 2.85162-.917478 3.595521-.198374 1.686176.52073 2.306093.892681 2.306093.247967 0 .520731-.123983.967071-.619917.471137-.520731 2.926011-3.669912 3.297961-4.091456.272764-.322357.545528-.471137.644714-.421544.123984.07439.07439.297561-.0248.545528-.247967.719104-.471138 1.463005-.644715 2.157313-.347153 1.314225-.123983 2.405279.471138 2.405279.347154 0 .719104-.22317 1.215038-.694307.545527-.520731 2.70284-2.975604 3.297961-3.669912.272764-.322357.396747-.29756.29756.04959-.07439.272763-.173576.892681-.22317 1.314225-.247967 2.182109.545528 3.173977 1.810159 3.173977 1.215039 0 3.273165-1.314225 5.058527-4.438609.37195-.644714.446341-1.066258.322357-1.239835-.09919-.14878-.29756-.123983-.520731.14878-2.256499 2.851621-3.446741 3.769099-4.141048 3.769099-.595121 0-.719105-.669511-.570325-1.661379.198374-1.413412.595121-2.355687.843088-2.826824.223171-.446341.471138-.644714.644714-.793494.223171-.1983739.347154-.3471541.347154-.6447145 0-.5455274-.570324-1.1654449-1.140648-1.1654449-.29756 0-.694308.247967-1.091055.6447142-.471137.4711373-3.025197 3.2731642-3.793895 4.0418622-.14878.123983-.272763.22317-.396747.173577-.09919-.04959-.04959-.247967.09919-.619918.272764-.719104.867884-2.082923 1.041461-2.578857.495936-1.3886107-.396745-1.8845447-.743899-1.8845447z"/><path d="m46.000409 8.1297686c-.818291 0-2.10772.4215439-2.876417 1.0910548-.719104.5703241-1.487802 1.5373956-1.487802 2.4300766 0 .322357.123983.743901.247967 1.041461.173577.371951.570324 1.066258.818291 1.388616.347154.471137.570324.917477.570324 1.165444 0 .148781-.198374.347154-.520731.347154-.347153 0-.495934-.04959-.743901-.14878-.22317-.173577-.396747-.173577-.619917-.04959-.22317.09919-.545528.29756-.892681.694307-.173577.14878-.198374.347154-.198374.520731.09919.545527 1.041461.917478 1.710972.917478.272764 0 .570324-.07439.942275-.223171.545527-.22317 1.487802-.743901 1.810159-1.041461.29756-.272764.619917-.892681.619917-1.264632 0-.644714-.37195-1.363818-.942274-2.082922-.421544-.570324-.743901-1.115852-.743901-1.586989 0-.768698 1.710972-1.413412 3.248368-1.413412.421543 0 .793494-.1983736.793494-.6695109 0-.2975604-.09919-.5455274-.421544-.7686977-.322357-.2231733-.694308-.3471568-1.314225-.3471568z"/></g><g><path d="m56.626241 5.1789614c-.371951 0-.570324.1735769-.768698.3471538-.29756.2975604-.421544.3719505-.793494.4215439-.421544.07439-.743901.1239835-.991868.247967-.22317.099187-.446341.2727636-.446341.570324 0 .4215439.520731.8182911 1.091055.9174779.173577.024797.198374.07439.173577.2231703-1.289428 4.6617797-1.859752 6.5959217-2.727637 8.9764057-.37195 1.016664-.719104 1.735769-1.190242 2.281296-.421543.396747-.793494.570324-1.041461.570324s-.471137-.09919-.644714-.198374c-.22317-.123983-.892681-.37195-1.289428-.37195-.421544 0-.991868.347154-.991868.743901 0 .37195.322357.892681.644714 1.066258.52073.272764 1.165445.495934 1.636582.495934.29756 0 .644714-.123984.991868-.22317.272764-.07439.669511-.247967.991868-.371951.247967-.123983 1.091055-.545527 1.859752-1.413412.892682-.991868 1.735769-3.223571 2.55406-6.223971 1.190242-4.3394227 1.314225-4.8353567 1.586989-5.5296643.123984-.3471538.347154-.7191043.495934-.8926812.173577-.1735769.371951-.4711372.22317-.8678844-.14878-.4215439-.818291-.7686977-1.363818-.7686977z"/><path d="m65.602619 15.048048c-.37195 0-.421544-.322357-.37195-.867885.123983-1.041461.619917-2.653247 1.140648-3.719505.247967-.4959336.396747-.7686973.495934-.9918676.29756-.6447142-.347154-1.4134119-.967072-1.4134119-.29756 0-.59512.1983736-.991868.7934944-.44634.6943076-1.487801 2.4796701-2.653246 3.8434881-1.190242 1.289429-1.88455 1.909346-2.157313 1.909346-.297561 0-.421544-.272764-.173577-1.066258.29756-1.016665.495934-1.487802.694307-1.859752.173577-.322357.471138-.471138.719105-.793495.22317-.29756.719104-1.1406479.719104-1.463005 0-.4463406-.743901-1.0662581-1.363818-1.0662581-.297561 0-.619918.1983736-.867885.5703241-.29756.5455274-1.066258 2.008533-1.661379 3.769098-.694307 1.834956-.768697 2.454874-.768697 2.851621 0 .793494.52073 1.562192 1.041461 1.562192.37195 0 .768698-.09919 1.289428-.421544 1.487802-.942275 3.124384-2.529263 3.521132-2.950807.14878-.14878.322357-.04959.247967.22317-.07439.272764-.148781.545527-.223171.942275-.29756 1.438208.148781 2.281296.917478 2.281296.371951 0 1.066258-.173577 1.760566-.520731.867884-.421544 2.33089-1.339022 4.215439-3.818691.37195-.471138.52073-1.016665.37195-1.314226-.09919-.22317-.29756-.22317-.495934-.0248-1.463005 1.636582-3.595521 3.545928-4.438609 3.545928z"/><path d="m75.397315 8.1049719c-.545527 0-1.562192.2975604-2.2565.6943076-.843087.495934-2.206906 1.3886155-3.347554 2.8764175s-1.661379 2.975604-1.661379 3.942675c0 .694307.495934 1.512599 1.091055 1.512599.694307 0 1.760566-.545528 2.281296-.867885.843088-.520731 1.562192-1.140648 1.859753-1.388615.14878-.123984.247967-.14878.22317.04959-.04959.347154-.123984 1.041462-.396747 2.132516-.396747 1.611786-.867885 3.297961-1.884549 4.73617-1.115852 1.586989-2.10772 2.033329-2.826824 2.033329-.446341 0-.843088-.272763-1.190242-.545527-.322357-.272764-.768697-.545527-1.140648-.545527-.520731 0-1.487802.694307-1.487802 1.289428 0 .669511 1.115852 1.115851 1.686176 1.115851.396747 0 .570324.04959.818291.123984.272764.07439.719104.09919 1.066258.09919.644714 0 2.231703-.595121 3.273164-1.413412 1.190242-.917478 2.603654-2.727637 3.347555-5.678444.272763-1.066258.942274-3.669912 1.388615-6.298362.04959-.247967.09919-.595121-.0248-.719104-.07439-.04959-.0248-.14878.173577-.272764.421544-.29756.743901-.793494.743901-1.314225 0-.5455274-.396747-1.5621921-1.735769-1.5621921zm-4.835356 6.2983621c0-.644715.669511-1.934143 1.190241-2.603654.892681-1.140648 2.008533-1.760566 3.025198-1.760566.52073 0 .843087.297561.843087.471138 0 .09919-.07439.22317-.123983.272763-.09919.07439-.22317.09919-.322357.123984-.272764.07439-.570324.272764-.843088.669511-.14878.22317-.471137.793494-1.314225 1.611785-.347154.371951-1.586989 1.611786-2.18211 1.611786-.173577 0-.272763-.173577-.272763-.396747z"/><path d="m83.654616 8.1545653c-.272764 0-1.339022.099187-2.702841 1.2894284-1.041461.9422743-2.082922 2.1573133-2.727637 3.4715383-.793494 1.512598-.942274 2.306093-.942274 2.802027 0 .942274.967071 1.463005 1.264631 1.463005.520731 0 1.041462-.22317 1.710973-.719104.694307-.495934 2.008532-1.686176 2.306093-2.03333.14878-.14878.198373-.14878.22317.07439 0 .272764 0 .495934.04959.867885.09919 1.016665.768698 1.810159 1.686176 1.810159 1.562192 0 3.967472-2.33089 5.058527-4.488203.22317-.471137.347154-.917478.22317-1.140648-.09919-.173577-.347154-.198373-.619917.04959-1.562192 2.157312-3.248368 3.669911-3.818692 3.669911-.371951 0-.619918-.347154-.619918-1.215038 0-1.487802.446341-3.025198 1.091055-4.4882028.07439-.2231703.198374-.5207307-.495934-.9174779-.22317-.1487802-.396747-.099187-.595121.07439-.14878.099187-.272763.099187-.322357-.049593-.14878-.1983736-.421544-.5207307-.768697-.5207307zm-.917478 1.8597527c.322357 0 .52073.29756.59512.52073.07439.247967 0 .570325-.14878.818292-.09919.173576-.495934.867884-.843087 1.264631-.743901.867885-1.091055 1.339022-1.512599 1.686176-.371951.322357-.743901.570324-.942275.570324-.198373 0-.247967-.347154-.173577-.669511.148781-.669511.843088-2.058126 1.686176-3.049994.719104-.843088 1.115851-1.140648 1.339022-1.140648z"/><path d="m91.068858 15.246421c-.644714 0-.743901-.471137-.619917-1.215038.09919-.719104.619917-2.182109.967071-2.975604.123984-.247967.22317-.322357.545527-.37195 2.206907-.297561 3.669912-.6943079 4.091456-.9174782.347154-.1983736.644714-.7686977.04959-.7686977-.669511 0-2.454873.099187-3.570724.1239835-.148781 0-.371951.024797-.297561-.1735769.09919-.2231703.495937-1.2646317 1.041464-2.2564997.247967-.4215438.223171-.8678844-.14878-1.2398349-.198373-.1983736-.347153-.2727637-.59512-.2727637-.371951 0-1.066259.3719505-1.289429.8430878-.247967.5207306-1.016665 2.7028402-1.140648 2.9508072-.09919.2727637-.247967.3223571-.471137.3719505-.495934.099187-.917478.1983736-1.215039.247967-.347153.07439-.495934.1983736-.719104.4711371-.198373.22317-.22317.595121-.04959.768698.14878.123983.347153.272764.619917.247967.322357-.04959.669511-.07439.867885-.09919.247967-.0248.247967.07439.173577.247967-.123984.347154-.942275 2.752434-1.190242 3.446741-.198374.520731-.272764.818291-.272764 1.115852 0 .867884.867885 1.388615 1.586989 1.388615.322357 0 .644714-.04959 1.066258-.198374 1.983736-.644714 3.000401-1.537395 3.446741-2.008532.421544-.446341.322357-1.115852-.247967-.743901-.59512.37195-1.785362 1.016664-2.62845 1.016664z"/><path d="m99.797293 8.1297686c-.818291 0-2.107719.4215439-2.876417 1.0910548-.719104.5703241-1.487802 1.5373956-1.487802 2.4300766 0 .322357.123984.743901.247967 1.041461.173577.371951.570324 1.066258.818291 1.388616.347154.471137.570325.917477.570325 1.165444 0 .148781-.198374.347154-.520731.347154-.347154 0-.495934-.04959-.743901-.14878-.22317-.173577-.396747-.173577-.619918-.04959-.22317.09919-.545527.29756-.892681.694307-.173577.14878-.198373.347154-.198373.520731.09919.545527 1.041461.917478 1.710972.917478.272764 0 .570324-.07439.942274-.223171.545528-.22317 1.487802-.743901 1.81016-1.041461.29756-.272764.619917-.892681.619917-1.264632 0-.644714-.371951-1.363818-.942275-2.082922-.421543-.570327-.743901-1.115855-.743901-1.586992 0-.768698 1.710973-1.413412 3.24837-1.413412.42154 0 .79349-.1983736.79349-.6695109 0-.2975604-.0992-.5455274-.42154-.7686977-.32236-.2231703-.69431-.3471538-1.314227-.3471538z"/></g></g></g></svg>