<svg height="129.69481" viewBox="0 0 116.47852 21.345172" width="707.73193" xmlns="http://www.w3.org/2000/svg"><g stroke-width=".41145" transform="translate(7.764774 -1.421992)"><text fill="#ef00eb" font-family="TrasksHand" font-size=".32916" stroke="#0105ff" transform="matrix(.72345074 -.690376 .690376 .72345074 0 0)" x="21.561668" y="39.340435"><tspan fill="#fafafa" fill-opacity=".4" font-size=".32916" stroke="none" stroke-width=".41145" x="21.561668" y="39.340435">John Loreth 2022</tspan></text><path d="m10.605469 1.4296875c-1.4209557.2822014-1.8179124 1.8627947-2.3710954 2.9848906-1.2314736 2.8536249-2.4021949 5.7431589-3.2363267 8.7416719-.3036967-.07899-.8673591.243596-.9709574.07697.3407185-2.07206 1.2697599-3.9872676 2.2076723-5.8347052.3958726-1.5907993-1.4656617-3.3949097-3.0179649-2.6699992-1.250818.706631-1.3193901 2.3290638-2.1973758 3.3567053-1.21559232 1.7565501-2.6579892 3.3464431-4.0448117 4.9655601.5496816-2.117889 1.5587802-4.076683 2.36718748-6.097656.49185254-1.043142-.16621295-2.3679643-1.30273438-2.5761719-.8704895-.1213655-1.7133424.3259708-2.4804687.6855469-.7240477.3843817-1.099873 1.2297429-.8698399 2.0198913.020382.8419054-.5202672 1.5820316-.7152046 2.392571-.7849114 2.2714567-1.6711537 4.5937257-1.7383236 7.0159027.2766512 1.599305 2.3243205 2.178252 3.6445779 1.484974 1.449171-.512431 2.6099946-1.603693 3.64168078-2.68873-.26916098 1.066115-.28433015 2.485327.8196827 3.089288.94847342.648559 2.38219342.427973 2.97440092-.5972.3928122-.411062.8884209-1.014258 1.2859945-1.251853.228779 1.194449 1.4033724 2.21265 2.65625 1.90625 1.1601651-.156988 2.1866263-.794336 3.1015625-1.490235.553581 1.359318 2.374463 1.902437 3.599768 1.303859 1.064936-.307912 2.072973-.809655 2.960779-1.47378.406984 1.283137 1.90136 2.188778 3.201317 1.636944.986303-.187531 1.924077-.925978 2.654152-1.375226.341331 1.023726 1.659745 1.763688 2.605468 1.021485.917314-.583538 1.442625-1.570481 2.107422-2.396485-.148222 1.048987.212949 2.571691 1.478479 2.669395 1.456152.04694 2.304967-1.382637 3.196477-2.311054.381773-.617263.438413-.311451.506841.24081.247983 1.348058 1.531735 2.450535 2.933347 2.246517 1.025009-.07193 1.94414-.719786 2.705169-1.285121.546646 1.111252 2.020227 1.685187 3.115468 1.147859 2.473079-.753206 4.185847-2.867352 5.691172-4.847078.606905-.801733.961522-2.257972-.06445-2.876953-.948779-.469766-1.853877.393246-2.369256 1.110196-.708886.760252-1.424876 1.52342-2.253791 2.155429.468221-1.558996 1.363895-2.96712 1.839844-4.5097654.04992-.7770307-.425058-1.5395456-1.109375-1.8925781.818593.4352764 2.067774.1570659 2.21875-.8730469.0872-.7874152.06744-1.5822598.194721-2.3656232.101538-.9502779-.591297-1.8254778-1.528707-1.9647762-.919615-.301092-2.038644.073809-2.373045 1.0354776-.546548 1.446252-.09995 3.3797473 1.363281 4.109375-1.148172-.5143187-2.123891.5836185-2.880859 1.2910156-.703928.8000302-1.409111 1.7919406-1.404297 2.8906246.250281.390156-.111754.557161-.325993.831054-.607048.716092-1.17789 1.490789-1.965023 2.022462.138307-1.066273.289637-2.240394.960938-3.115234.629718-.600761 1.134309-1.496487.7243-2.3662792-.402639-1.2223732-2.084299-1.9735091-3.110432-1.009915-.713271.4961093-1.267781 1.1763413-1.824809 1.8332251.252573-1.1884834-.651217-2.5787683-1.9375-2.4921875-1.24985.1456698-2.019667 1.2944044-2.893698 2.0743756-.436195.585563-.272554.1002918-.325052-.3556256-.260522-1.315074-1.924796-2.5159844-3.176875-1.6779238-.971139.8293717-1.422195 2.1396283-1.659495 3.3480894.05466.472327.408189.969762-.0523 1.361084-.554245.706036-1.289351 1.242559-1.9375 1.855469.466265-1.565311 1.365446-2.976071 1.850064-4.5203243.07008-.8086053-.447728-1.6020116-1.172329-1.9406131.791395.4378221 2.048114.2590046 2.260569-.7502537.149232-.7780758.04593-1.581415.219899-2.3591213.118269-.9336023-.485585-1.8643686-1.428588-2.0377406-.938567-.3393387-2.127623.00135-2.473757 1.0084438-.544519 1.4471989-.103918 3.3764283 1.359375 4.109375-.852515-.4151248-1.70077.1818094-2.31836.7304687-.752632.037238-1.564053-.014528-2.338779.07557-.646843.1361165.193292-.676495.209185-1.0014115.606925-1.0922049.030543-2.737674-1.290328-2.910096-1.260154-.2448398-2.326405.7715198-2.70814 1.8916488-.334303.7605377-.504119 1.583356-.856313 2.3368668-.714037.1364589-1.470163.2910965-2.041015.7734375.680567-1.8311758 1.582364-3.5802059 2.289062-5.3925781.197474-1.2479797-.858856-2.6475174-2.179687-2.5234375zm55.412109.7910156c-1.314536.1219667-1.811855 1.6566352-1.614881 2.7878843.03911 1.0091374.652669 1.9832547 1.554334 2.4425845-1.149362-.5176533-2.126878.5819202-2.884765 1.2910156-.350983.338033-.670136.8556138-.916016 1.1933594-.6495-1.104127-2.269134-1.2821059-3.22371-.4771807-.942087.4953353-1.608462 1.4587808-1.726399 2.5113358-.542111 1.1484-1.566817 2.059842-2.764735 2.477564-.143044-1.267269.494609-2.503503 1.145534-3.552804.714379-1.0307678 1.657328-1.9881888 2.811498-2.4921182.637866.2374762 1.300669.6346083 2 .3183593 1.168414-.3109094 2.460993-1.5878621 1.859374-2.8671875-.736287-1.3739462-2.57649-1.5668322-3.939453-1.1777344-3.200706.794997-5.829568 3.2375445-7.335937 6.1132808-.995807 2.007517-1.343175 4.673382.101562 6.554688.293781.335135.65285.614863 1.054688.808594-1.259205.317237-2.244296 1.99547-1.296115 3.103154.952871 1.087352 2.49907 1.368713 3.863689 1.511665 2.446588-.10496 4.313383-2.218442 5.105967-4.388097.760712-1.953337.85969-4.124619 1.760257-6.020294.31364-.542893.207637.267432.02353.511708-.488715 1.46722-1.208544 3.256708-.162371 4.660483.695199 1.101936 2.21439 1.26194 3.317738.719812.783651-.248359 1.525133-.841253 2.137303-1.233197.580323 1.199255 2.06778 1.855152 3.33273 1.389943 1.887651-.374441 3.502045-1.643053 4.57352-3.208302-.0267 1.648602 1.294227 3.2237 2.986321 3.267738 1.597144.08786 3.136161-.590947 4.451179-1.443519.565714 1.326044 2.404692 1.916082 3.567942.987564.690947-.334561 1.283511-.991615 1.853933-1.386002.457603 1.349812 2.029806 2.267582 3.404297 1.697266.631586-.21177 1.161378-.623021 1.71289-.982422.872254 1.297617 2.737886 1.399867 4.024341.700804.828232-.291243 1.639506-.797295 2.333081-1.245726.419155 1.274738 1.917456 2.177866 3.210086 1.600069 2.52348-.717794 4.26542-2.870348 5.78992-4.873507.6069-.801733.96152-2.257972-.0645-2.876953-.94878-.469766-1.85387.393246-2.36925 1.110196-.70889.760252-1.42488 1.52342-2.25379 2.155429.46845-1.552159 1.35342-2.958182 1.83639-4.4910273.0695-.8040973-.44225-1.5958962-1.16257-1.9347537.79226.4298072 2.03914.2492687 2.25081-.7561131.14923-.7780758.0459-1.581415.2199-2.3591213.11726-.935069-.48721-1.8728602-1.43262-2.0392231-.93819-.3372854-2.12324.00643-2.46973 1.0099263-.54631 1.4461525-.10014 3.3752981 1.35938 4.109375-.85252-.4151248-1.70077.1818094-2.31836.7304687-.75263.037238-1.56405-.014528-2.338782.07557-.646801.1361165.193334-.676495.209227-1.0014115.570175-1.0356793.093409-2.469833-1.042457-2.8662903-1.363967-.4522396-2.643622.7617808-3.034843 1.9887337-.256973.734386-.465598 1.4910202-.787246 2.2018356-.828714.1411727-1.748087.3554204-2.292969 1.0507812.068461-1.0577869-.98374-2.0363717-2.035156-1.8515624-1.148306-.9446468-2.722516-.1965594-3.763672.5429687-1.887381 1.2929203-2.823147 3.5227525-4.665244 4.8651905-.817003.662834-1.772404 1.357134-2.826944 1.457075-.244014-.789151.22976-1.631149.529297-2.359375.185844-.262495.418813-.899298.699219-.804687 1.056494.983761 2.791294.09881 3.193403-1.128757.494029-1.0838464-.045247-2.5264429-1.243098-2.839159-1.800657-.6268869-3.645074.4921777-4.944446 1.6632281-.556752.5317602-1.038752 1.1402679-1.433593 1.8007809-.145939-.973602-.620748-1.9225474-1.40625-2.5332028-.118842-1.5472379-2.282897-2.0306744-3.33533-1.0764654-.543089.5538104-1.46168.4475981-1.888733 1.1564655-.508227.6465687-.51196 1.5197107-1.070696 2.1437377-.691819 1.305249-1.773216 2.329801-2.900554 3.256731.464285-1.534682 1.311391-2.928025 1.837891-4.4277344.08945-.8023247-.385923-1.6097109-1.091797-1.9804687.81765.4286911 2.053916.1443887 2.205078-.8789063.08184-.7878302.07929-1.5806527.194717-2.3656232.102797-.9474843-.588027-1.8179832-1.522593-1.9637643-.30887-.081197-.633717-.092951-.951421-.084675zm26.048828 8.5234379c.02849.647163.521712 1.206159 1.115235 1.421875-.584785.69783-1.12396 1.451909-1.853516 2.009765-.01153-1.171945.368481-2.385546.738281-3.43164zm-82.1523435.310547c.1340295.474354.5067255.865887.9511715 1.066406-.584017.640758-1.1724239 1.295921-1.8925778 1.787109.2656079-.99097.5832838-1.967298.921875-2.935547zm89.8535155.386718c.06589.523287.175791 1.070308-.136719 1.539063.03216.55791-.435861.393782-.816656.578144-.65284.237892-1.231008.77356-1.892328.904278.103989-.913677.480025-1.789177.810547-2.625.662634-.185926 1.392184-.12459 2.035156-.396485zm-82.197266.173828c.15551.49761.05081.973357-.162109 1.425782.089.56886-.568897.309-.875774.543684-.620508.24038-1.180625.762409-1.813679.878191.110346-.938314.469956-1.747863.804688-2.626953.665929-.162078 1.380075-.14107 2.037109-.390626l.0057.09984zm37.972657 6.449219c-.16926.338178-.399044.926872-.808594.917969-.249708-.203601-1.077688-.577671-.367955-.58936.416033-.124694.832044-.259015 1.223424-.449703l-.0361.09326z" fill="#333"/><g fill="#f4c401" transform="scale(.9822298 1.0180917)"><g><path d="m4.0804323 5.4269284c-.2727637 0-.6447142.1735769-.8678845.5951208-.1487802.3223571-.3471537.7191042-.5207306 1.1902415-.1735769.3719505-.7686977 1.3390218-1.90934591 2.6780436-1.95893929 2.3804827-2.72763699 3.1987747-3.32275769 3.7690987-.6447142.570324-1.0910548.768697-1.4630053.768697-.2231703 0-.4711373-.29756-.1239835-1.636582.3719505-1.438208 1.4630053-4.0666586 2.3804831-5.9264111.5455274-1.066258-.024797-1.6117854-.495934-1.6117854-.4959339 0-1.1158514.247967-1.5373953.4463406-.5703241.2727637-.8182911.495934-.6695109.8430877.1735769.495934.07439.9174779-.099187 1.3638185-1.1158515 2.9260107-1.8845492 5.0337297-2.3308898 7.3894167-.049593.272763-.07439.545527-.024797.793494.049593.22317.1983736.421544.3719505.570324.247967.198374.6199175.297561.8678845.297561.6695109 0 1.3390218-.223171 1.8597525-.520731.6199175-.322357 1.2646317-.793494 2.4796699-1.958939 1.11585151-1.091055 2.4300766-2.727637 2.5540601-2.876417.1239835-.148781.247967-.173577.1735769.07439-.54552741 1.785362-.84308781 3.273164-.991868 4.041862-.1735769.892681-.0743901 1.289428.7191043 1.611785.3223571.14878.4711373.123984.6695109.123984.1487802 0 .3223571-.09919.5207307-.297561.5207312-.644714 1.7853628-1.859752 2.8516209-2.653247.4215439-.322357.4711373-.694307-.1239835-.619917-.8182911.123983-1.3390218.37195-1.8845492.595121-.2231703.099186-.2727636.024796-.247967-.322357.1983736-2.33089 1.1902416-5.0337304 2.1821096-6.5711258.3471538-.4711373.3719505-.8430878.2727637-1.0662581-.247967-.4711372-.7686977-1.0910547-1.2894284-1.0910547z"/><path d="m5.617816 15.568778c0 .892682.5455274 1.611786 1.2646316 1.611786 2.2812964 0 5.3560874-3.149181 6.0751914-4.612186.198374-.396747.272764-.768698.173577-.967071-.09919-.173577-.29756-.198374-.520731.07439-1.636582 1.983736-3.5211311 3.446741-4.2898288 3.446741-.3967472 0-.5951208-.347154-.1983736-1.636582.5703241-1.859753 1.6613789-5.2569006 3.4963344-8.8028286.520731-1.0166647.644714-1.4630053-.173577-2.1573129-.123983-.1239835-.272763-.1735769-.44634-.1735769-.198374 0-.421544.099187-.644714.3719505-.3719509.4711373-1.2398354 2.2069063-2.7524341 6.0008013-1.6861755 4.2154386-1.9837359 6.1247846-1.9837359 6.8438886z"/><path d="m14.594249 15.246421c-.644714 0-.743901-.471137-.619918-1.215038.09919-.719104.619918-2.182109.967072-2.975604.123983-.247967.22317-.322357.545527-.37195 2.206906-.297561 3.669912-.6943079 4.091455-.9174782.347154-.1983736.644715-.7686977.04959-.7686977-.669511 0-2.454873.099187-3.570725.1239835-.14878 0-.37195.024797-.29756-.1735769.09919-.2231703.495934-1.2646317 1.041461-2.2564997.247967-.4215438.22317-.8678844-.14878-1.2398349-.198374-.1983736-.347154-.2727637-.595121-.2727637-.37195 0-1.066258.3719505-1.289428.8430878-.247967.5207306-1.016665 2.7028402-1.140648 2.9508072-.09919.2727637-.247967.3223571-.471138.3719505-.495934.099187-.917478.1983736-1.215038.247967-.347154.07439-.495934.1983736-.719104.4711371-.198374.22317-.223171.595121-.04959.768698.148781.123983.347154.272764.619918.247967.322357-.04959.669511-.07439.867884-.09919.247967-.0248.247967.07439.173577.247967-.123983.347154-.942274 2.752434-1.190241 3.446741-.198374.520731-.272764.818291-.272764 1.115852 0 .867884.867884 1.388615 1.586989 1.388615.322357 0 .644714-.04959 1.066258-.198374 1.983736-.644714 3.0004-1.537395 3.446741-2.008532.421544-.446341.322357-1.115852-.247967-.743901-.595121.37195-1.785362 1.016664-2.62845 1.016664z"/><path d="m22.554015 3.145632c-.545527 0-.843088.2727637-.892681 1.0414614-.0248.5703241.04959.9670713.123983 1.239835.123984.4463406.520731.8926812 1.066258 1.0910547.471138.1735769.818291.1487802.818291-.3471537 0-.5951208 0-1.2150383.148781-2.0581261.123983-.6199175-.545528-.9670713-1.264632-.9670713zm-3.099588 14.109322c.421544 0 .892682-.09919 1.512599-.347154 1.438209-.570324 3.744302-2.802027 4.711373-4.364219.322357-.520731.396747-.917478.272764-1.140648-.09919-.173577-.347154-.198374-.644714.123983-1.388616 1.562193-3.843489 3.793895-4.636983 3.793895-.471138 0-.520731-.347153-.272764-1.115851.595121-1.909346 1.215038-3.297961 1.983736-4.6369828.247967-.4711373 0-1.0166647-.322357-1.2646317-.123984-.099187-.272764-.1487802-.421544-.1487802-.719104 0-2.281296 1.6613789-2.678044 2.6780437-.14878.37195-.09919.595121 0 .818291.123984.22317.123984.37195 0 .719104-.198373.446341-.619917 1.810159-.768697 2.40528-.173577.595121-.173577 1.041461.04959 1.487802.347154.768698.843088.991868 1.215038.991868z"/><path d="m31.95198 8.1545653c-.247967 0-.644715.1983736-1.066258.5703241-.421544.3471538-.719105.6199175-1.487802 1.4134116-.917478.942275-1.611786 1.760566-2.653247 2.926011-.371951.421544-.520731.247967-.297561-.446341.322357-1.066258.743901-2.231703 1.041462-2.8764169.322357-.6695109-.07439-1.1406482-.595121-1.5621921-.247967-.1983736-.471137-.2727637-.694308-.2727637-.669511 0-1.339021 1.8349558-1.537395 2.4300767-.09919.322357.07439.471137.173577.471137.123983 0 .14878.123984.07439.371951-.446341 1.686175-.818291 2.85162-.917478 3.595521-.198374 1.686176.520731 2.306093.892681 2.306093.247967 0 .520731-.123983.967072-.619917.471137-.520731 2.92601-3.669912 3.297961-4.091456.272763-.322357.545527-.471137.644714-.421544.123983.07439.07439.297561-.0248.545528-.247967.719104-.471137 1.463005-.644714 2.157313-.347154 1.314225-.123984 2.405279.471137 2.405279.347154 0 .719104-.22317 1.215038-.694307.545528-.520731 2.702841-2.975604 3.297961-3.669912.272764-.322357.396748-.29756.297561.04959-.07439.272763-.173577.892681-.22317 1.314225-.247967 2.182109.545527 3.173977 1.810159 3.173977 1.215038 0 3.273164-1.314225 5.058526-4.438609.371951-.644714.446341-1.066258.322357-1.239835-.09919-.14878-.29756-.123983-.52073.14878-2.2565 2.851621-3.446741 3.769099-4.141049 3.769099-.595121 0-.719104-.669511-.570324-1.661379.198373-1.413412.595121-2.355687.843088-2.826824.22317-.446341.471137-.644714.644714-.793494.22317-.1983739.347154-.3471541.347154-.6447145 0-.5455274-.570324-1.1654449-1.140649-1.1654449-.29756 0-.694307.247967-1.091054.6447142-.471138.4711373-3.025198 3.2731642-3.793895 4.0418622-.148781.123983-.272764.22317-.396748.173577-.09919-.04959-.04959-.247967.09919-.619918.272764-.719104.867885-2.082923 1.041462-2.578857.495934-1.3886107-.396748-1.8845447-.743901-1.8845447z"/><path d="m44.127166 3.145632c-.545528 0-.843088.2727637-.892682 1.0414614-.0248.5703241.04959.9670713.123984 1.239835.123983.4463406.520731.8926812 1.066258 1.0910547.471137.1735769.818291.1487802.818291-.3471537 0-.5951208 0-1.2150383.14878-2.0581261.123984-.6199175-.545527-.9670713-1.264631-.9670713zm-3.099588 14.109322c.421544 0 .892681-.09919 1.512599-.347154 1.438208-.570324 3.744301-2.802027 4.711373-4.364219.322357-.520731.396747-.917478.272763-1.140648-.09919-.173577-.347153-.198374-.644714.123983-1.388615 1.562193-3.843488 3.793895-4.636983 3.793895-.471137 0-.52073-.347153-.272763-1.115851.59512-1.909346 1.215038-3.297961 1.983736-4.6369828.247967-.4711373 0-1.0166647-.322357-1.2646317-.123984-.099187-.272764-.1487802-.421544-.1487802-.719105 0-2.281297 1.6613789-2.678044 2.6780437-.14878.37195-.09919.595121 0 .818291.123984.22317.123984.37195 0 .719104-.198373.446341-.619917 1.810159-.768698 2.40528-.173576.595121-.173576 1.041461.04959 1.487802.347154.768698.843088.991868 1.215038.991868z"/></g><g><path d="m52.014055 14.13057c0 .545527.09919 1.016665.347154 1.636582.247967.595121 1.066258 1.413412 1.934142 1.413412.644714 0 1.215038-.123984 1.859753-.421544.59512-.29756 1.611785-.867884 1.884549-1.091055.198373-.173577.29756-.14878.173577.198374-.09919.29756-.247967.892681-.545528 1.760566-.570324 1.611785-1.339021 2.082922-1.909346 2.082922-.247967 0-.570324-.123983-.867884-.44634-.247967-.223171-.743901-.570324-1.140648-.570324-.322357 0-.719104.123983-1.140648.59512-.371951.371951-.322357.843088.04959 1.140649.694308.545527 2.231703.967071 3.198774.967071.471138 0 1.016665-.198374 1.537396-.520731 1.091054-.669511 2.107719-1.884549 2.47967-2.92601.347153-.967072.991868-3.297961 1.264631-4.58739.198374-.892681.570324-1.760565 1.140648-2.33089.247967-.22317.347154-.44634.173577-.694307-.29756-.421544-.59512-.5951209-.942274-.5951209-.446341 0-1.363819.5703239-1.735769.9174779-.247967.247967-.396747.495934-.421544.892681-.04959.818291-.892681 1.760566-1.636582 2.430077-.843088.768697-2.03333 1.264631-2.529264 1.264631-.421543 0-.818291-.37195-.818291-1.413411 0-1.314226.843088-3.248368 2.231703-4.7113734 1.314225-1.3886152 2.529264-1.8845492 2.826824-1.8845492.272764 0 .471137.07439.768698.247967.247967.1487802.619917.2727637 1.041461.1735769.29756-.07439.917478-.5455274 1.140648-.7934944.322357-.3471538.173577-.7934943-.22317-1.066258-.371948-.247967-.892678-.4215439-1.463002-.4215439-.917478 0-2.33089.3967472-3.669912 1.2150382-3.173977 1.983736-5.008933 4.9097468-5.008933 7.5381968z"/><path d="m67.462408 3.145632c-.545528 0-.843088.2727637-.892681 1.0414614-.0248.5703241.04959.9670713.123983 1.239835.123984.4463406.520731.8926812 1.066258 1.0910547.471138.1735769.818291.1487802.818291-.3471537 0-.5951208 0-1.2150383.14878-2.0581261.123984-.6199175-.545527-.9670713-1.264631-.9670713zm-3.099588 14.109322c.421544 0 .892682-.09919 1.512599-.347154 1.438209-.570324 3.744302-2.802027 4.711373-4.364219.322357-.520731.396747-.917478.272764-1.140648-.09919-.173577-.347154-.198374-.644715.123983-1.388615 1.562193-3.843488 3.793895-4.636982 3.793895-.471138 0-.520731-.347153-.272764-1.115851.595121-1.909346 1.215038-3.297961 1.983736-4.6369828.247967-.4711373 0-1.0166647-.322357-1.2646317-.123984-.0991868-.272764-.1487802-.421544-.1487802-.719104 0-2.281296 1.6613789-2.678044 2.6780437-.14878.37195-.09919.595121 0 .818291.123984.22317.123984.37195 0 .719104-.198373.446341-.619917 1.810159-.768697 2.40528-.173577.595121-.173577 1.041461.04959 1.487802.347154.768698.843088.991868 1.215038.991868z"/><path d="m68.751872 15.147235c0 1.165444.743901 2.082922 1.636582 2.082922 1.785362 0 3.397148-.991868 4.58739-2.40528 1.016664-1.140648 1.388615-2.330889 1.388615-3.322757 0-.967072-.347154-2.0581263-1.239835-2.5044669-.173577-.07439-.198374-.1487802-.198374-.2975604 0-.3471538-.04959-.9670713-.991868-.9670713-.421544 0-.793494.1487802-1.140648.495934-.247967.247967-.421544.3719505-.743901.3719505-.272764 0-.471137.1239835-.644714.2975604-.173577.1983736-.297561.3719505-.322357.6695109-.0248.4463408-.223171.6695108-.421544.9422748-.297561.37195-.942275 1.339022-1.314225 2.182109-.446341 1.091055-.595121 1.785363-.595121 2.454874zm2.33089-.421544c0-1.041462.991868-3.049994 2.107719-4.364219.14878-.198374.396747-.4215443.570324-.4215443.446341 0 .619918.6943073.619918 1.3142253 0 .867884-.843088 2.77723-1.562192 3.570724-.471138.520731-.892682.719105-1.215039.719105-.22317 0-.52073-.297561-.52073-.818291z"/><path d="m82.836428 8.1545653c-1.314225 0-2.876417.9422746-3.893082 2.0829227-1.215038 1.363819-1.810159 3.223571-1.810159 4.339422 0 1.95894 1.165445 2.603654 2.355687 2.603654 2.330889 0 5.18251-1.958939 6.967872-4.265032.322357-.421544.446341-.867885.322357-1.091055-.09919-.173577-.347154-.198374-.619917.04959-1.661379 1.636582-3.917879 3.521132-5.678444 3.521132-.545528 0-.991868-.495934-.991868-1.239835 0-.694308.198373-1.760566 1.041461-3.025198.694308-1.041461 1.388615-1.4134116 1.636582-1.4134116.14878 0 .272764.1239835.247967.4463406-.0248.247967.04959.421544.198374.495934.123983.07439.421544.09919.743901-.04959.471137-.223171.917478-.694308.917478-1.3638189 0-.5207307-.495934-1.0910548-1.438209-1.0910548z"/><path d="m90.87056 8.1545653c-.272764 0-1.339022.099187-2.70284 1.2894284-1.041462.9422743-2.082923 2.1573133-2.727637 3.4715383-.793495 1.512598-.942275 2.306093-.942275 2.802027 0 .942274.967071 1.463005 1.264632 1.463005.52073 0 1.041461-.22317 1.710972-.719104.694308-.495934 2.008533-1.686176 2.306093-2.03333.14878-.14878.198374-.14878.22317.07439 0 .272764 0 .495934.04959.867885.09919 1.016665.768697 1.810159 1.686175 1.810159 1.562192 0 3.967472-2.33089 5.058527-4.488203.22317-.471137.347154-.917478.22317-1.140648-.09919-.173577-.347153-.198373-.619917.04959-1.562192 2.157312-3.248368 3.669911-3.818692 3.669911-.37195 0-.619917-.347154-.619917-1.215038 0-1.487802.44634-3.025198 1.091054-4.4882028.07439-.2231703.198374-.5207307-.495934-.9174779-.22317-.1487802-.396747-.099187-.59512.07439-.148781.099187-.272764.099187-.322357-.049593-.148777-.1983699-.42154-.520727-.768694-.520727zm-.917478 1.8597527c.322357 0 .520731.29756.595121.52073.07439.247967 0 .570325-.14878.818292-.09919.173576-.495934.867884-.843088 1.264631-.743901.867885-1.091055 1.339022-1.512599 1.686176-.37195.322357-.743901.570324-.942274.570324-.198374 0-.247967-.347154-.173577-.669511.14878-.669511.843087-2.058126 1.686175-3.049994.719104-.843088 1.115852-1.140648 1.339022-1.140648z"/><path d="m98.284801 15.246421c-.644715 0-.743901-.471137-.619918-1.215038.09919-.719104.619918-2.182109.967071-2.975604.123984-.247967.223171-.322357.545528-.37195 2.206908-.297561 3.669908-.6943079 4.091458-.9174782.34715-.1983736.64471-.7686977.0496-.7686977-.66951 0-2.45487.099187-3.570724.1239835-.14878 0-.371951.024797-.297561-.1735769.09919-.2231703.495934-1.2646317 1.041465-2.2564997.24796-.4215438.22317-.8678844-.14878-1.2398349-.19838-.1983736-.347157-.2727637-.595124-.2727637-.371951 0-1.066258.3719505-1.289428.8430878-.247967.5207306-1.016665 2.7028402-1.140649 2.9508072-.09919.2727637-.247967.3223571-.471137.3719505-.495934.099187-.917478.1983736-1.215038.247967-.347154.07439-.495934.1983736-.719105.4711371-.198373.22317-.22317.595121-.04959.768698.14878.123983.347154.272764.619918.247967.322357-.04959.66951-.07439.867884-.09919.247967-.0248.247967.07439.173577.247967-.123984.347154-.942275 2.752434-1.190242 3.446741-.198373.520731-.272763.818291-.272763 1.115852 0 .867884.867884 1.388615 1.586988 1.388615.322358 0 .644715-.04959 1.066259-.198374 1.983735-.644714 3.0004-1.537395 3.44674-2.008532.42154-.446341.32235-1.115852-.24797-.743901-.59512.37195-1.785359 1.016664-2.628446 1.016664z"/><path d="m106.24457 3.145632c-.54553 0-.84309.2727637-.89268 1.0414614-.0248.5703241.0496.9670713.12398 1.239835.12398.4463406.52073.8926812 1.06626 1.0910547.47113.1735769.81829.1487802.81829-.3471537 0-.5951208 0-1.2150383.14878-2.0581261.12398-.6199175-.54553-.9670713-1.26463-.9670713zm-3.09959 14.109322c.42154 0 .89268-.09919 1.5126-.347154 1.43821-.570324 3.7443-2.802027 4.71137-4.364219.32236-.520731.39675-.917478.27276-1.140648-.0992-.173577-.34715-.198374-.64471.123983-1.38861 1.562193-3.84349 3.793895-4.63698 3.793895-.47114 0-.52073-.347153-.27277-1.115851.59512-1.909346 1.21504-3.297961 1.98374-4.6369828.24797-.4711373 0-1.0166647-.32236-1.2646317-.12398-.099187-.27276-.1487802-.42154-.1487802-.71911 0-2.2813 1.6613789-2.67804 2.6780437-.14878.37195-.0992.595121 0 .818291.12398.22317.12398.37195 0 .719104-.19838.446341-.61992 1.810159-.7687 2.40528-.17358.595121-.17358 1.041461.0496 1.487802.34715.768698.84309.991868 1.21504.991868z"/></g></g></g></svg>