<svg height="150.3692pt" viewBox="0 0 772.92778 165.40612" width="702.66162pt" xmlns="http://www.w3.org/2000/svg"><g transform="translate(-74.351582 -58.286561)"><text fill="#ef00eb" font-family="TrasksHand" font-size="1.65" stroke="#0105ff" stroke-width="2.0625" transform="matrix(.68882011 -.72493231 .72493231 .68882011 0 0)" x="156.46751" y="328.59732"><tspan fill="#fafafa" fill-opacity=".4" font-size="1.65" stroke="none" stroke-width="2.0625" x="156.46751" y="328.59732">John Loreth 2022</tspan></text><path d="m740.36523 58.294922c-3.88612-.0052-7.24535 2.811844-8.8805 6.185143-3.93514 8.354922-7.34949 16.938584-10.91661 25.45256-1.43052 3.456865-2.84208 6.921051-4.25367 10.385735-7.9835-.323173-15.93149 2.3123-22.47137 6.82893-6.72406 4.61045-12.19209 10.82418-16.8458 17.4656-1.34222 1.87089-2.50332 3.86896-3.77901 5.77818-3.54796 4.19756-7.22566 8.33284-11.51124 11.79838.18893-7.13714 2.02247-14.1337 4.54688-20.77929.47402-1.24039 1.05475-2.69436 1.60931-4.00292.95686-1.97162 1.54824-4.17517 1.24647-6.37709-.24121-2.51182-1.56739-4.81936-3.46516-6.45398-2.03061-1.83407-4.47854-3.39458-7.21671-3.83987-1.01789-.12339-2.05259-.0383-3.05282.17386-2.60102-2.230751-6.17654-3.389577-9.57889-2.732487-7.24465.910361-13.77082 4.748327-19.25417 9.405177-4.77827 4.09741-9.00186 8.81065-12.86592 13.76887-1.8158 2.40428-3.48559 4.91845-5.0061 7.51937.11901-.71809.20658-1.44263.17969-2.17187 4.04188-3.81744 6.36894-9.67715 5.19691-15.21437-1.19031-6.56817-6.64658-12.162272-13.24119-13.353209-5.3907-1.143392-10.93783.192204-16.01059 2.044679-5.65934 2.02619-10.70351 5.39457-15.50628 8.94657-5.50527 4.12812-10.49193 8.95848-14.69666 14.41031-.53616-6.20035-2.9372-12.50428-7.70481-16.67677-.5263-.53846-1.27367-.91837-1.74558-1.45501-.55934-3.82776-3.02301-7.438843-6.66427-8.919338-3.79603-1.641958-8.24549-1.61568-12.09733-.169552-2.61183.99056-4.91904 2.683006-6.86419 4.65427-1.52766-.0406-3.24032.44716-4.69376 1.13264-3.84388 1.86509-6.76376 5.6029-7.59572 9.79448-.177 1.08961-.11389 2.33117-.96756 3.16029-1.29233 1.81806-2.6244 3.60843-3.86405 5.46337 1.64337-5.71734 3.03574-11.52526 5.1883-17.08052.73091-1.83701 1.92414-3.42674 3.18865-4.923388 2.91644-4.146787 2.68015-10.264764-.74406-14.05358-3.2712-3.861085-8.3965-5.878859-13.39614-5.910483-3.6033.03309-6.97376 1.817251-9.48216 4.323784-.43899.518703-1.01089.830899-1.69815.857544-4.04021.58371-8.31779 1.508241-11.41065 4.3647-3.09311 2.6679-4.04005 7.297287-2.6203 11.066101.98596 2.719932 3.14751 4.874652 5.53784 6.420912.43215.31913 1.22387.45327.76725 1.12017-5.24713 18.70995-10.32005 37.51605-17.29933 55.67413-1.41185 3.49031-2.91658 7.07852-5.50485 9.87456-.60416.48483-1.16542 1.05853-1.89359 1.35591-1.73747-.68895-3.33581-1.72056-5.16843-2.16758-3.81041-1.36036-8.13574-2.10964-12.00849-.55376-3.99027 1.42669-7.53692 4.78466-8.2469 9.08658-.61579 4.37961 1.49894 8.67894 4.40234 11.83398 2.62776 2.68443 6.26724 3.96485 9.73134 5.18394 3.87784 1.2854 8.14352 1.71874 12.10234.52398 4.49182-1.16575 8.91149-2.72001 13.02041-4.8898 7.11826-3.90891 13.2574-9.72489 17.14396-16.89038 3.52635-6.38345 6.04693-13.25896 8.36718-20.1543 1.28502 6.05076 5.39718 11.69247 11.27451 13.94659 3.84719 1.49671 8.10209 1.07061 12.07801.40166 9.45357-1.60898 18.00996-6.79619 24.73236-13.51156.66126-.64253 1.28424-1.32281 1.91708-1.99294.30792 5.26956 2.94047 10.51288 7.35742 13.5039 2.75534 1.9416 6.31678 2.30697 9.55717 1.65523 5.7092-1.15934 11.00332-3.78876 15.90767-6.86616-2.0512 8.05958-4.34158 16.18509-8.53021 23.43382-2.48089 4.30268-5.51459 8.3682-9.35483 11.5514-1.75985 1.37336-3.81575 2.65462-6.10519 2.74329-1.7672-.33059-3.02624-1.76835-4.47508-2.71942-2.95186-2.28922-6.40889-4.24228-10.23195-4.36066-2.72408-.14263-5.39776.71874-7.72489 2.09229-3.97564 2.19298-7.46865 5.68976-8.79074 10.11865-1.01448 3.7691.20709 7.99352 3.02111 10.68676 3.1888 3.32039 7.66868 5.15213 12.15988 5.83183 1.98648.20829 4.03883.0864 5.94205.78425 3.47668.79012 7.09218.99471 10.63808.65771 4.28452-.5907 8.35065-2.19801 12.29066-3.91978 7.16778-3.24264 13.6966-7.97443 18.76084-14.01784 7.99446-9.28745 13.16923-20.71552 16.23958-32.50742 1.01175-3.72021 1.90707-7.47085 2.80913-11.21863 2.36548 3.94454 6.29084 7.06087 10.81055 8.08984 3.22545.65762 6.56069-.16154 9.55885-1.36389 5.7107-2.43194 10.40533-6.61743 15.07982-10.59509 1.80613 5.11979 5.80208 9.58725 11.021 11.32687 3.82763 1.34582 8.05184 1.02849 11.84619-.26828 3.14907-1.04388 6.05872-2.69385 8.79687-4.54688 2.18235 3.42026 5.99851 5.80007 10.08648 5.95744 4.70512.31178 9.23536-1.41317 13.47937-3.24546 5.50899-2.51525 10.48467-6.06079 15.05329-10.00885 1.29256 4.85633 4.57413 9.43474 9.37199 11.28767 4.27452 1.69638 9.08129 1.14774 13.32883-.34413 4.31797-1.47013 8.24821-3.89096 11.85582-6.65057 2.62988 4.70295 7.40423 8.45767 12.888 8.91721 3.77057.3489 7.56382-.27177 11.2252-1.13921 7.1621-1.8415 13.71762-5.65993 19.23251-10.54167-.22379 2.87412.89408 5.76285 2.90932 7.80957 3.13831 3.38997 7.6994 5.07796 12.17936 5.74923 3.9836.53103 8.04834-.29678 11.67956-1.95689 4.34285-1.84201 8.48252-4.17867 12.31322-6.92871 3.27396-2.61753 5.56877-6.36222 6.73038-10.36537.78968-2.74818.71947-5.68804-.0462-8.43283-1.24343-5.11105-4.28106-9.51724-7.41105-13.64994-1.02279-1.47826-2.13784-2.94336-2.7159-4.66647 1.00902-.74051 2.38235-1.35095 3.41211-1.71484 3.06337-1.03039 6.24949-1.72852 9.49055-1.80919 2.38427-.1537 4.88347-.088 7.05757-1.23609 3.33472-1.56119 5.87331-4.89433 6.1257-8.60707.55113-4.71874-1.9297-9.58032-6.01757-11.97851-4.96137-3.195403-11.21215-3.664547-16.89924-2.605392-7.93626 1.398364-15.45711 5.209532-21.12486 10.961842-1.33841 1.33924-2.58976 2.76792-3.71418 4.29199-1.54757-3.20216-3.84565-6.07979-6.78711-8.10352-.5543-3.81161-2.94311-7.458733-6.57113-8.962798-4.30931-1.936887-9.46254-1.637556-13.68119.39365-2.00534 1.010992-3.75629 2.454636-5.37073 4.000788-1.61868.0532-3.20985.41951-4.66332 1.14123-4.34729 2.06809-7.49062 6.52869-7.85825 11.34341-.0659 1.16419-1.07266 1.89593-1.62871 2.83499-2.44932 3.30259-4.68608 6.75971-6.67394 10.3581-1.18578 1.88549-2.79632 3.45108-4.21577 5.15658-2.69374 3.06206-5.51248 6.0219-8.55962 8.736 1.03528-7.43673 2.70572-14.77146 4.71484-22.00195.37841-1.28435.82781-2.89992 1.24024-4.20898 3.08464-9.98581 7.22197-19.720478 11.59498-29.248111 1.72625-4.013491 3.97709-8.048054 3.90993-12.545211-.0212-3.581071-1.88324-6.876423-4.31187-9.401768-2.59455-2.873473-6.25531-4.964589-10.22039-4.806868zm-433.62304 5.435547c-4.39181.05094-8.57138 2.558692-10.888 6.256804-4.75209 6.502576-9.43442 13.059801-14.29405 19.481446-1.77653 2.880217-2.9172 6.529401-1.66952 9.834015.22707.519534.64687 1.018506-.0718 1.281856-4.17252 3.14043-7.70761 7.05316-10.87653 11.18265-1.02919 1.37572-2.00655 2.79038-2.93056 4.23862 1.34574-4.18758.79194-9.06752-1.96161-12.57907-3.09004-4.096182-8.27255-6.257735-13.3347-6.243199-7.02238-.145696-13.76019 2.580255-19.69002 6.142579-5.92891 3.60686-11.13573 8.37928-15.29687 13.92969-.22809-4.45196-2.02262-8.94594-5.48502-11.86016-2.444-2.15104-5.55104-3.51651-8.75717-3.97968-2.83107-4.048404-8.18818-5.751605-12.9468-4.912179-5.43225.876113-10.04239 4.241219-13.99018 7.893509-8.54259 7.88045-14.57118 18.18185-18.44029 29.0712-1.65665 4.84231-2.87478 9.8988-3.00147 15.03375-.008.59115.005 1.18279.0369 1.77309-3.42292-4.21444-6.58986-8.63538-9.63713-13.12825-1.56488-2.33677-3.07887-4.708-4.51912-7.1237 6.44437-3.58022 12.7876-7.81222 17.1838-13.84632 2.64125-3.71397 4.09046-8.32941 3.66435-12.89801-.24378-4.966026-2.32062-9.861965-5.94776-13.300594-5.41925-5.474816-12.99844-8.384837-20.57422-9.125-2.70662-3.969122-7.42339-6.163002-12.09355-6.72479-3.27033-.393985-6.76576.355423-9.29737 2.546366-1.81023 1.477943-3.18025 3.422409-4.25165 5.483111-6.44964.865257-13.035212 2.425645-18.456386 6.187709-3.414831 2.475732-5.879448 6.607844-5.471353 10.921666.411948 4.592712 3.535348 8.619892 7.451171 10.876952 1.858907.99516 3.989422 1.46104 6.09375 1.37695-.843657 2.31446-1.685786 4.63083-2.630859 6.90625-2.505868 1.24993-4.698888 3.3034-5.634687 5.99463-1.213951 3.23345-.493157 6.72332-.05281 10.03076-1.530802 4.5233-3.225565 8.9939-4.898437 13.46876-3.291376.82135-6.722632 2.37088-8.511719 5.40624-2.013848 3.55127-1.341517 8.07458.763672 11.42774 3.013354 5.11601 8.839889 8.18497 14.695583 8.45114 3.186596.2309 6.455412-.34968 9.302465-1.82223 4.68501-.14415 9.50215-.55442 13.83203-2.48633 2.98332-1.3843 5.80169-3.54499 7.23632-6.57227 1.30462-3.02165.31042-6.76154-2.22463-8.82877-2.26002-1.85265-5.11395-2.77349-7.88865-3.54818.77323-2.12572 1.5903-4.23516 2.42383-6.33789 4.82572 7.26188 9.44755 14.76749 15.64815 20.96986 4.37594 4.50695 9.65633 8.47018 15.87607 9.91491 4.54384 1.09767 9.44391.70758 13.70839-1.23436 2.19669-.91928 4.27638-2.10649 6.22638-3.47072 4.34707 2.27837 9.41131 2.82676 14.23688 2.24644 10.20401-.87532 19.95003-4.70915 28.71429-9.88121 2.77545 4.62243 7.44729 8.04759 12.70312 9.26953 6.72414 1.68956 13.79738.49603 20.28032-1.62673 5.95216-1.94788 11.54646-4.97026 16.73921-8.38499 3.31374 5.98773 9.55343 10.41087 16.43571 11.00136 4.74964.46072 9.52324-.3116 14.14772-1.35205 7.25014-1.75104 14.11546-4.87788 20.45564-8.77431 1.5272 3.98858 4.58335 7.69776 8.81377 8.89747 3.33063.92482 6.95182-.0345 9.68729-2.06024 3.6514-2.53315 6.18205-6.26604 9.02222-9.60891 1.80548-2.22916 3.59819-4.46844 5.38492-6.71269-.47949 4.22497-.20808 8.68273 1.62635 12.57497 1.62745 3.41141 5.12843 6.00215 8.98302 5.99534 4.12656.0634 7.88176-2.11017 10.93579-4.70798 4.11208-3.55746 7.59329-7.76135 11.26837-11.75131.85899-.95491 1.71358-1.91436 2.57124-2.87079.34066 5.51644 2.01556 11.24356 5.99331 15.25357 2.83204 2.92886 6.72754 4.7248 10.76959 5.12938 5.32072.61788 10.65312-1.02246 15.24895-3.62895 7.74775-4.24428 14.02549-10.69539 19.4184-17.60024 3.80918-4.96532 7.22964-10.25219 9.9868-15.87427 1.52476-3.33232 2.37421-7.31747.85638-10.80683-1.66851-3.75394-6.52023-5.8307-10.31527-4.08142-3.14505 1.16057-4.98833 4.11684-7.03358 6.5758-5.53455 6.6761-11.05895 13.51489-18.01224 18.7858-.62397.66533-.35667-.25726-.34008-.68838.86394-6.77575 2.39772-13.60481 5.71428-19.6347 1.31298-2.36212 3.95394-3.59466 5.32577-5.92304 2.56792-3.8786 2.23941-9.13387-.0811-13.04578-2.57396-4.52326-7.50322-7.935702-12.82422-7.806641-4.30684.151883-8.04565 2.746551-11.06658 5.617341-3.10425 2.94838-5.87713 6.21985-8.84326 9.30301-.32959.28657-1.04942 1.39346-.73476.32679.64827-4.59781-.60954-9.59079-3.95032-12.92177-3.00221-3.140703-7.78795-4.754428-11.99102-3.303887-4.57705 1.412868-8.12058 4.806247-11.61556 7.918007-2.92034 2.66967-5.73256 5.53627-8.44108 8.3691.90837-4.47993-.80767-9.25052-4.04966-12.40685-2.8837-3.131091-6.66412-5.857243-11.04668-6.118973-3.00222-.206087-6.04501.963951-8.1288 3.137159-3.43762 3.222284-5.3708 7.622114-7.24361 11.855464-2.13339-5.00045-7.0424-8.62942-12.4082-9.37109-.35443-.50659-.74665-.98697-1.17188-1.435551 5.95633-3.838615 11.29139-8.534969 16.62109-13.179688 2.05063-1.861878 3.94536-4.078318 4.61796-6.830947.89771-3.097223.32171-6.575858-1.60351-9.175838-3.1285-4.463315-8.67692-6.950528-14.07499-6.751027zm-177.67969 40.824221c.73583.19677 1.50987.48435 2.06641.99023-1.17297 1.6128-2.72788 2.92298-4.36524 4.04883.68046-1.70836 1.39472-3.40414 2.18164-5.06641l.0974.0227zm132.9082 18.6289c-1.80154 3.69141-3.37873 7.50197-4.61718 11.41797-2.30016 1.83936-4.58832 3.66794-6.98308 5.30426-4.16949 2.85426-8.67039 5.41065-13.61889 6.60403-.79072.1602-1.62192.29307-2.41952.21671-.65134-1.18567-.33828-2.62266-.2919-3.91389.51475-4.95091 2.59068-9.6078 5.15157-13.82398 1.03911-1.67266 2.20268-3.27353 3.53096-4.72892 1.88662 2.48261 5.04832 3.8426 8.14567 3.64846 4.45002-.0891 8.63738-2.40354 11.57698-5.66409-.1582.31315-.3164.6263-.47461.93945zm511.98047 9.27149c-1.31896 3.20718-2.85112 6.34375-4.80664 9.21484 1.39047-3.79335 3.30545-7.48946 5.45117-10.96484-.21484.58333-.42968 1.16666-.64453 1.75zm-247.49023-.0254c-1.30541 3.16818-2.8009 6.27548-4.72461 9.11914-.321.5042.21143-.69645.3146-.99158 1.40107-3.41555 3.11437-6.69838 5.04673-9.84241-.21224.57162-.42448 1.14323-.63672 1.71485zm-215.59571 1.92383c-.35006.45471.17485-.40144 0 0zm488.30274 7.84375c.52014.87469 1.05319 1.74219 1.60156 2.59961-1.47818.0536-2.93816.43607-4.27539 1.0625.84993-1.38511 1.62972-2.81418 2.3125-4.28907.12044.20899.24089.41797.36133.62696z" fill="#333" stroke-width="1.875"/><g fill="#f4c401"><g stroke-width="1.875"><path d="m261.35594 148.9315c0 10.8358 7.47385 17.02771 15.11376 17.02771 19.43197 0 40.19262-14.61977 51.48643-29.58349 2.15911-2.92396 2.98955-6.01994 2.15911-7.5679-.66434-1.20396-2.3252-1.37596-3.98604.516-16.94072 17.71569-32.22053 23.39161-42.18565 23.39161-4.8165 0-7.47385-2.57996-7.47385-6.3639 0-2.40795.49825-3.95594 1.32867-5.67587.49825-1.20397.99652-1.37599 2.15912-.86001 1.49477.68798 3.32169 1.37598 5.14864 1.37598 8.9686 0 14.78158-4.47192 18.26937-8.08389 3.3217-3.78392 6.31123-8.77184 6.31123-14.96373 0-6.53588-3.98603-10.31981-9.63291-10.6638-1.16261-.17203-1.99304-.86001-2.49128-1.54798-.99655-2.06397-2.65738-3.43995-5.813-3.43995-6.97557 0-15.61201 10.31983-18.93371 15.13573-7.30775 10.83582-11.45989 23.56362-11.45989 31.30349zm22.42152-17.71571c-2.15912 0-2.49129-.516-1.82694-2.57996 1.99303-5.33191 7.47383-13.75976 10.79552-13.75976 2.15912 0 3.81995 1.37599 3.81995 3.78394 0 4.81591-7.6399 12.55578-12.78853 12.55578zm2.15911-34.915397c0 1.719952 2.15908 2.063953 4.15211 1.547972 3.98606-1.03199 10.96164-5.159907 23.7502-16.68371 2.49128-2.235966 3.15563-4.815913 1.49476-7.051881-1.82692-2.235965-4.48429-3.783934-7.97209-3.783934-3.65386 0-4.98255 1.719966-6.97558 4.643917-6.31124 8.599849-9.96512 13.931765-12.95464 17.543705-.83043 1.203976-1.49476 2.92394-1.49476 3.783931z"/><path d="m153.27313 105.28274c0-2.38-.17-4.93-1.7-7.650003-3.23-5.44-11.22-10.2-21.59-10.37-1.36 0-1.53-.17-1.53-.85 0-1.7-1.36-3.06-3.06-4.08-1.87-1.19-4.08-1.7-6.12-1.7-3.23 0-4.76 2.72-6.12 5.27-.85 1.7-1.19 2.38-2.55 2.55-6.8.68-12.750003 2.21-16.830003 4.76-1.87 1.19-4.25 3.57-3.23 6.63.51 1.530003 1.36 2.550003 2.72 3.740003 1.36 1.36 3.4 1.53 5.1 1.19 1.02-.34 2.550003-1.53 3.230003-2.55 1.36-1.87 3.4-3.060003 5.95-3.230003 1.02 0 1.19.51.34 2.720003-4.08 11.05-5.44 15.3-7.31 19.72-.680003 1.36-1.190003 2.21-2.550003 2.72-1.02.51-2.55 1.19-2.89 2.89-.51 1.7.17 5.1.34 5.78 0 .34.34 1.87 0 3.06-1.36 4.08-3.4 9.52-5.44 14.96-.68 2.04-1.19 2.72-2.55 3.06-2.72.51-4.42 1.19-5.61 2.04s-1.19 2.72-.34 4.59c2.21 4.42 6.46 6.12 11.05 6.12 1.87 0 3.57-.51 4.42-1.02 1.02-.68 1.7-.85 2.72-.85 5.780003 0 10.880003-1.02 13.260003-2.72 2.21-1.7 2.89-2.55 2.04-3.4-1.02-1.19-5.61-2.55-10.37-3.57-1.87-.34-2.04-.68-1.36-2.38 1.53-4.59 4.25-11.73 6.46-16.83.85-1.87 1.7-2.21 2.89-2.21s2.21.34 3.4 1.7c1.36 1.53 9.52 14.79 13.77 19.89 8.16 9.69 13.94 13.26 21.08 13.26 4.93 0 12.58-4.76 14.79-8.16 1.36-2.21.68-4.08-1.19-2.72-2.21 1.36-5.44 2.21-7.31 2.21-1.53 0-4.25-.51-7.82-3.91-3.74-3.91-13.94-18.19-18.02-26.01-1.02-1.87-1.19-2.72 1.19-3.91 7.48-3.91 20.74-11.39 20.74-20.74zm-15.13.51c0 2.55-4.42 7.99-11.56 11.56-4.76 2.38-9.01 3.74-10.03 3.74-.85 0-.51-1.36-.17-2.38 1.53-4.59 4.93-13.94 7.48-18.870003.85-1.87 1.36-2.21 2.89-2.21 5.44 0 11.39 3.060003 11.39 8.160003z"/><path d="m159.6955 148.80274c0 10.71 7.65 16.83 15.47 16.83 19.89 0 41.14-14.45 52.7-29.24 2.21-2.89 3.06-5.95 2.21-7.48-.68-1.19-2.38-1.36-4.08.51-17.34 17.51-32.98 23.12-43.18 23.12-4.93 0-7.65-2.55-7.65-6.29 0-2.38.51-3.91 1.36-5.61.51-1.19 1.02-1.36 2.21-.85 1.53.68 3.4 1.36 5.27 1.36 9.18 0 15.13-4.42 18.7-7.99 3.4-3.74 6.46-8.67 6.46-14.79 0-6.46-4.08-10.2-9.86-10.54-1.19-.17-2.04-.85-2.55-1.53-1.02-2.04-2.72-3.4-5.95-3.4-7.14 0-15.98 10.2-19.38 14.96-7.48 10.71-11.73 23.29-11.73 30.94zm22.95-17.51c-2.21 0-2.55-.51-1.87-2.55 2.04-5.27 7.65-13.6 11.05-13.6 2.21 0 3.91 1.36 3.91 3.74 0 4.76-7.82 12.41-13.09 12.41z"/><path d="m250.2678 103.75274c-9.01 0-19.72 6.46-26.69 14.28-8.33 9.35-12.41 22.1-12.41 29.75 0 13.43 7.99 17.85 16.15 17.85 15.98 0 35.53-13.43 47.77-29.24 2.21-2.89 3.06-5.95 2.21-7.48-.68-1.19-2.38-1.36-4.25.34-11.39 11.22-26.86 24.14-38.93 24.14-3.74 0-6.8-3.4-6.8-8.5 0-4.76 1.36-12.07 7.14-20.74 4.76-7.14 9.52-9.69 11.22-9.69 1.02 0 1.87.85 1.7 3.06-.17 1.7.34 2.89 1.36 3.4.85.51 2.89.68 5.1-.34 3.23-1.53 6.29-4.76 6.29-9.35 0-3.57-3.4-7.48-9.86-7.48z"/><path d="m368.68269 103.75274c-1.7 0-4.42 1.36-7.31 3.91-2.89 2.38-4.93 4.25-10.2 9.69-6.29 6.46-11.05 12.07-18.19 20.06-2.55 2.89-3.57 1.7-2.04-3.06 2.21-7.31 5.1-15.3 7.14-19.72 2.21-4.59-.51-7.82-4.08-10.71-1.7-1.36-3.23-1.87-4.76-1.87-4.59 0-9.18 12.58-10.54 16.66-.68 2.21.51 3.23 1.19 3.23.85 0 1.02.85.51 2.55-3.06 11.56-5.61 19.55-6.29 24.65-1.36 11.56 3.57 15.81 6.12 15.81 1.7 0 3.57-.85 6.63-4.25 3.23-3.57 20.06-25.16 22.61-28.05 1.87-2.21 3.74-3.23 4.42-2.89.85.51.51 2.04-.17 3.74-1.7 4.93-3.23 10.03-4.42 14.79-2.38 9.01-.85 16.49 3.23 16.49 2.38 0 4.93-1.53 8.33-4.76 3.74-3.57 18.53-20.4 22.61-25.16 1.87-2.21 2.72-2.04 2.04.34-.51 1.87-1.19 6.12-1.53 9.01-1.7 14.96 3.74 21.76 12.41 21.76 8.33 0 22.44-9.01 34.68-30.43 2.55-4.42 3.06-7.31 2.21-8.5-.68-1.02-2.04-.85-3.57 1.02-15.47 19.55-23.63 25.84-28.39 25.84-4.08 0-4.93-4.59-3.91-11.39 1.36-9.69 4.08-16.15 5.78-19.38 1.53-3.06 3.23-4.42 4.42-5.44 1.53-1.36 2.38-2.38 2.38-4.42 0-3.74-3.91-7.99-7.82-7.99-2.04 0-4.76 1.7-7.48 4.42-3.23 3.23-20.74 22.44-26.01 27.71-1.02.85-1.87 1.53-2.72 1.19-.68-.34-.34-1.7.68-4.25 1.87-4.93 5.95-14.28 7.14-17.68 3.4-9.52-2.72-12.92-5.1-12.92z"/></g><g stroke-width="4.62665" transform="matrix(.4052611 0 0 .4052611 23.047447 34.834116)"><path d="m1169.4101 124.17001c-6 0-9.2 2.8-12.4 5.6-4.8 4.8-6.8 6-12.8 6.8-6.8 1.2-12 2-16 4-3.6 1.6-7.2 4.4-7.2 9.2 0 6.8 8.4 13.2 17.6 14.8 2.8.4 3.2 1.2 2.8 3.6-20.8 75.2-30 106.4-44 144.8-6 16.4-11.6 28-19.2 36.8-6.8 6.4-12.8 9.2-16.8 9.2s-7.6-1.6-10.4-3.2c-3.6-2-14.4-6-20.8-6-6.8 0-16 5.6-16 12 0 6 5.2 14.4 10.4 17.2 8.4 4.4 18.8 8 26.4 8 4.8 0 10.4-2 16-3.6 4.4-1.2 10.8-4 16-6 4-2 17.6-8.8 30-22.8 14.4-16 28-52 41.2-100.4 19.2-70 21.2-78 25.6-89.2 2-5.6 5.6-11.6 8-14.4 2.8-2.8 6-7.6 3.6-14-2.4-6.8-13.2-12.4-22-12.4z"/><path d="m1172.8726 284.97001c0 18.8 12 33.6 26.4 33.6 28.8 0 54.8-16 74-38.8 16.4-18.4 22.4-37.6 22.4-53.6 0-15.6-5.6-33.2-20-40.4-2.8-1.2-3.2-2.4-3.2-4.8 0-5.6-.8-15.6-16-15.6-6.8 0-12.8 2.4-18.4 8-4 4-6.8 6-12 6-4.4 0-7.6 2-10.4 4.8-2.8 3.2-4.8 6-5.2 10.8-.4 7.2-3.6 10.8-6.8 15.2-4.8 6-15.2 21.6-21.2 35.2-7.2 17.6-9.6 28.8-9.6 39.6zm37.6-6.8c0-16.8 16-49.2 34-70.4 2.4-3.2 6.4-6.8 9.2-6.8 7.2 0 10 11.2 10 21.2 0 14-13.6 44.8-25.2 57.6-7.6 8.4-14.4 11.6-19.6 11.6-3.6 0-8.4-4.8-8.4-13.2z"/><path d="m1414.7814 171.37001c-8.8 0-25.2 4.8-36.4 11.2-13.6 8-35.6 22.4-54 46.4s-26.8 48-26.8 63.6c0 11.2 8 24.4 17.6 24.4 11.2 0 28.4-8.8 36.8-14 13.6-8.4 25.2-18.4 30-22.4 2.4-2 4-2.4 3.6.8-.8 5.6-2 16.8-6.4 34.4-6.4 26-14 53.2-30.4 76.4-18 25.6-34 32.8-45.6 32.8-7.2 0-13.6-4.4-19.2-8.8-5.2-4.4-12.4-8.8-18.4-8.8-8.4 0-24 11.2-24 20.8 0 10.8 18 18 27.2 18 6.4 0 9.2.8 13.2 2 4.4 1.2 11.6 1.6 17.2 1.6 10.4 0 36-9.6 52.8-22.8 19.2-14.8 42-44 54-91.6 4.4-17.2 15.2-59.2 22.4-101.6.8-4 1.6-9.6-.4-11.6-1.2-.8-.4-2.4 2.8-4.4 6.8-4.8 12-12.8 12-21.2 0-8.8-6.4-25.2-28-25.2zm-78 101.6c0-10.4 10.8-31.2 19.2-42 14.4-18.4 32.4-28.4 48.8-28.4 8.4 0 13.6 4.8 13.6 7.6 0 1.6-1.2 3.6-2 4.4-1.6 1.2-3.6 1.6-5.2 2-4.4 1.2-9.2 4.4-13.6 10.8-2.4 3.6-7.6 12.8-21.2 26-5.6 6-25.6 26-35.2 26-2.8 0-4.4-2.8-4.4-6.4z"/><path d="m1541.9814 172.17001c-4.4 0-21.6 1.6-43.6 20.8-16.8 15.2-33.6 34.8-44 56-12.8 24.4-15.2 37.2-15.2 45.2 0 15.2 15.6 23.6 20.4 23.6 8.4 0 16.8-3.6 27.6-11.6 11.2-8 32.4-27.2 37.2-32.8 2.4-2.4 3.2-2.4 3.6 1.2 0 4.4 0 8 .8 14 1.6 16.4 12.4 29.2 27.2 29.2 25.2 0 64-37.6 81.6-72.4 3.6-7.6 5.6-14.8 3.6-18.4-1.6-2.8-5.6-3.2-10 .8-25.2 34.8-52.4 59.2-61.6 59.2-6 0-10-5.6-10-19.6 0-24 7.2-48.8 17.6-72.4 1.2-3.6 3.2-8.4-8-14.8-3.6-2.4-6.4-1.6-9.6 1.2-2.4 1.6-4.4 1.6-5.2-.8-2.4-3.2-6.8-8.4-12.4-8.4zm-14.8 30c5.2 0 8.4 4.8 9.6 8.4 1.2 4 0 9.2-2.4 13.2-1.6 2.8-8 14-13.6 20.4-12 14-17.6 21.6-24.4 27.2-6 5.2-12 9.2-15.2 9.2s-4-5.6-2.8-10.8c2.4-10.8 13.6-33.2 27.2-49.2 11.6-13.6 18-18.4 21.6-18.4z"/><path d="m1708.3819 177.77001c-22 0-43.6 9.2-65.2 32.8-30 32.8-40 64.8-40 82 0 20 9.2 26 18 26s24.8-5.2 42.4-17.2c10-6.8 29.2-23.6 38.8-35.6 2-2.8 3.6-2.4 3.2.8-.8 4.8-1.6 10-2 18.8-.8 14 6 30.8 22.4 30.8 31.2 0 71.2-44 83.6-69.6 3.6-7.6 5.6-14.8 3.6-18.4-2.4-4-7.2-3.2-12 3.6-7.6 11.2-45.2 54-57.6 54-6 0-8.8-7.2-7.6-20 1.6-20 10.4-60.4 22-92.4 13.2-36 23.2-54.8 28.8-68.4 4-9.999997 4-15.199997-1.6-21.999997-6.4-7.6-10.4-8.8-14.8-8.8-2.8 0-5.6 1.6-8.8 8.4-4.8 10-22.8 52.799997-39.6 94.399997-.8 2.4-1.6 2.4-3.6 2-3.2-.8-6.4-1.2-10-1.2zm-8 23.2c3.2 0 6 2 7.2 4.4 1.6 2.8 2 6-.4 11.2-2.4 6-20 34.4-33.6 48-12.8 12.4-22.4 17.6-27.2 17.6-2.8 0-5.2-2.8-5.2-6.8 0-6 2-14.8 19.2-38.8 15.2-21.6 32.8-35.6 40-35.6z"/><path d="m1783.5826 284.97001c0 18.8 12 33.6 26.4 33.6 28.8 0 54.8-16 74-38.8 16.4-18.4 22.4-37.6 22.4-53.6 0-15.6-5.6-33.2-20-40.4-2.8-1.2-3.2-2.4-3.2-4.8 0-5.6-.8-15.6-16-15.6-6.8 0-12.8 2.4-18.4 8-4 4-6.8 6-12 6-4.4 0-7.6 2-10.4 4.8-2.8 3.2-4.8 6-5.2 10.8-.4 7.2-3.6 10.8-6.8 15.2-4.8 6-15.2 21.6-21.2 35.2-7.2 17.6-9.6 28.8-9.6 39.6zm37.6-6.8c0-16.8 16-49.2 34-70.4 2.4-3.2 6.4-6.8 9.2-6.8 7.2 0 10 11.2 10 21.2 0 14-13.6 44.8-25.2 57.6-7.6 8.4-14.4 11.6-19.6 11.6-3.6 0-8.4-4.8-8.4-13.2z"/><path d="m1989.5112 171.77001c-13.2 0-34 6.8-46.4 17.6-11.6 9.2-24 24.8-24 39.2 0 5.2 2 12 4 16.8 2.8 6 9.2 17.2 13.2 22.4 5.6 7.6 9.2 14.8 9.2 18.8 0 2.4-3.2 5.6-8.4 5.6-5.6 0-8-.8-12-2.4-3.6-2.8-6.4-2.8-10-.8-3.6 1.6-8.8 4.8-14.4 11.2-2.8 2.4-3.2 5.6-3.2 8.4 1.6 8.8 16.8 14.8 27.6 14.8 4.4 0 9.2-1.2 15.2-3.6 8.8-3.6 24-12 29.2-16.8 4.8-4.4 10-14.4 10-20.4 0-10.4-6-22-15.2-33.6-6.8-9.2-12-18-12-25.6 0-12.4 27.6-22.8 52.4-22.8 6.8 0 12.8-3.2 12.8-10.8 0-4.8-1.6-8.8-6.8-12.4s-11.2-5.6-21.2-5.6z"/></g></g></g></svg>