<svg height="155.83167" viewBox="0 0 146.83907 25.646775" width="892.20483" xmlns="http://www.w3.org/2000/svg"><g stroke-width=".41145" transform="translate(44.294397 -1.140866)"><text fill="#ef00eb" font-family="TrasksHand" font-size=".32916" stroke="#0105ff" transform="matrix(.37580441 -.926699 .926699 .37580441 0 0)" x="-2.45554" y="29.75523"><tspan fill="#fafafa" fill-opacity=".4" font-size=".32916" stroke="none" stroke-width=".41145" x="-2.45554" y="29.75523">John Loreth 2022</tspan></text><path d="m93.126953 1.1464844c-1.283637.2333504-1.482054 1.7166088-1.959038 2.6983069-.513003 1.2815539-1.026006 2.5631079-1.539009 3.8446618-2.549785-.1183251-4.658362 1.7901167-5.929085 3.8273469-.641229.970588-1.341039 1.925598-2.258415 2.655075-.039371-1.518305.599033-2.929609 1.041669-4.3444545.290558-1.1139344-.870633-2.2508836-1.973309-2.0520299-1.143961-.9353224-2.732376-.2088058-3.74943.5657636-1.700326 1.2288007-2.974977 2.9753788-3.84432 4.8697838.184471-.641697-.035321-1.446862.558593-1.886719 1.071757-1.4076147.173848-3.74711-1.605137-3.9956954-1.854377-.2718239-3.596485.8234525-4.973651 1.9467382-.824958.6994387-1.569602 1.4969832-2.18293 2.3888002.030683-1.218786-.498894-2.4577736-1.425782-3.226562-.182635-1.4312166-2.064863-2.0114974-3.162109-1.203125-.43568.4140858-.988032.5425644-1.513672.7753906-.728106.4082736-.976835 1.2509104-1.22861 1.9713767-.505976.7855757-.996377 1.5841417-1.386624 2.4348737.457879-1.614757.750049-3.3260587 1.523437-4.8183598.612273-.7721546.678916-2.0038293-.168609-2.6385691-.829294-.7669634-2.254465-.9566031-3.100922-.1055715-.52204.4965624-1.339615.2059542-1.855469.7402344-.833705.5549391-.954626 1.8315515-.180338 2.4916695.455446.2906538.68814.5572824.368868 1.095683-.904858 3.1973995-1.624264 6.4946695-3.109846 9.4843185-.222112.477651-.68663.430239-1.023996.13536-1.109227-.531526-2.825651-.262464-3.191407 1.074219-.356457 1.492184 1.10795 2.702266 2.462891 2.886719 1.641494.26342 3.244327-.588892 4.494141-1.572266 1.771505-1.59649 2.412894-3.984638 3.076172-6.185547-.252037 1.592578.82972 3.443265 2.541073 3.530665 2.097254-.02084 4.042207-1.226572 5.324161-2.835352-.147621 1.331258.879758 2.898142 2.339844 2.716797.93534-.136115 1.784744-.616685 2.580078-1.103516-.364353 1.663764-.927301 3.441008-2.001953 4.775391-.505831.552981-1.281354 1.584193-2.089844.925781-.853745-1.012104-2.561513-1.119605-3.478516-.13086-.95625.754214-1.06681 2.450735.07617 3.091797 1.013537.682608 2.309566.695353 3.479599.813033 2.965416-.173689 5.410821-2.483107 6.593713-5.084356.777465-1.619182 1.190379-3.380739 1.561454-5.129067.261403 1.468425 2.060414 2.380843 3.373047 1.61914.804932-.364091 1.558832-1.110004 2.177734-1.564453.457177 1.341943 2.024455 2.267138 3.392578 1.685547.49398-.103955.981556-.569042 1.384766-.666015.690383 1.009019 2.128596 1.095211 3.132988.531201.984553-.389449 1.858161-1.014892 2.640449-1.720655.271863 1.25126 1.587595 2.24329 2.872477 1.841733.871302-.102789 1.685691-.756943 2.336508-1.11517.63989 1.139711 2.107074 1.663871 3.328288 1.201798 2.893369-.675928 5.27693-3.27387 5.66781-6.221329.12311-1.344244-.28134-2.8474987-1.41602-3.6718754-.09816-1.4632143-2.025705-2.0446236-3.143106-1.2896103-.465361.3394325-.917359.6915955-1.497517.7896103-1.094518.4861275-.924344 1.9179019-1.680535 2.6961834-.704865 1.200016-1.547767 2.306996-2.577278 3.247176.371286-3.12017 1.491757-6.0654674 2.709001-8.9249815.414375-.8057868.759248-1.7848466.248031-2.6336123-.386828-.7434252-1.17799-1.3004037-2.039063-1.2324218zm-119.064453.2832031c-1.453732.3025287-1.830044 1.9304804-2.407065 3.0724339-1.226777 2.8234206-2.341651 5.7002436-3.214029 8.6541286-.295658-.07617-.854905.248476-.950808.07707.342017-2.075222 1.272279-3.9907462 2.209188-5.842575.386797-1.5824925-1.453153-3.3713361-3.000567-2.6700399-1.268082.6970428-1.335775 2.3409965-2.22253 3.3705334-1.21215 1.757147-2.654135 3.3457375-4.043095 4.9614975.553455-2.042291 1.479716-3.9600902 2.301265-5.9001016.407151-.874508.259393-2.0593145-.660452-2.5419726-.957711-.6078329-2.059133-.014618-2.959962.4028693-.718155.3490265-1.245057 1.1717308-.948128 1.9651872-.07544 1.2264155-.773334 2.3081908-1.074674 3.4866507-.655969 1.957067-1.372241 3.973933-1.38604 6.054476.294163 1.584111 2.325767 2.139723 3.637091 1.455996 1.450009-.510011 2.612064-1.610999 3.643634-2.686777-.270479 1.06618-.286775 2.483479.817502 3.085753.943636.648204 2.376112.435865 2.970454-.586094.391895-.413986.897045-1.023471 1.290169-1.259424.229131 1.19313 1.406941 2.212771 2.658203 1.902344 1.162224-.153169 2.180836-.798192 3.103516-1.482422.553103 1.358761 2.373345 1.893848 3.595862 1.297999 1.065243-.304903 2.079334-.818359 2.962732-1.471827.40754 1.28261 1.900122 2.186497 3.199364 1.634991.987213-.188481 1.922809-.921253 2.654151-1.377179.339314 1.026616 1.661095 1.765442 2.607422 1.023438.916288-.584835 1.4388143-1.573627 2.107422-2.396485-.1489617 1.050032.2125065 2.575703 1.480521 2.670329 1.4548256.04431 2.2976227-1.384251 3.1919661-2.308786.3274889-.49235.4556267-.450219.4848176.140181.2164205 1.388685 1.5210161 2.557395 2.96215912 2.344123.89238225-.08236 1.70509089-.536238 2.40202058-1.076315.7461143 1.126068 2.4517592 1.369983 3.4839787.496096.624012-.361335 1.1545694-.866193 1.6976619-1.328128.4398501 1.338586 2.0049925 2.317883 3.36896 1.695615 2.196846-.752903 3.650219-2.751206 4.810728-4.654599.462133-.815846.830134-2.13051-.06445-2.78711-.876823-.545227-1.958603.137835-2.326538.983113-.635665.836563-1.282706 1.683782-2.112915 2.339153-.0055-1.528478.659875-3.106075 1.117188-4.5917968.04251-1.0434413-1.002277-1.9866253-2.0371136-1.8046894-1.1415464-.9365918-2.7275419-.2100814-3.7500595.5531655-2.3313127 1.6853867-3.5314929 4.3995267-5.73431552 6.1909747.10118223-1.361765.46022115-2.802946 1.46406952-3.788621 1.0344893-1.2583961-.2893898-3.2208303-1.79062804-3.1792358-1.16210516.027314-1.82731536 1.1757526-2.60312896 1.8780134-.4283751.6806964-.278064.0633089-.3386987-.3450398-.0644046-1.2148072-1.4308479-2.1506368-2.5597388-1.5885539-1.0510387.5137876-1.7911687 1.4725402-2.6054688 2.2832031.3468661-1.5688147-1.5553126-3.2508049-3.0410156-2.4902344-1.042671.7597905-1.44682 2.0958286-1.785156 3.2812504-.005.526301.463452 1.074531-.05153 1.51799-.540498.712792-1.288836 1.231278-1.926988 1.849197.467568-1.564262 1.362851-2.976503 1.84811-4.5203243.07192-.8038218-.441402-1.5983565-1.162563-1.9347537.792259.4298072 2.039136.2492687 2.250804-.7561131.149231-.7780758.04592-1.581415.219899-2.3591213.117265-.935069-.487211-1.8728602-1.432618-2.0392231-.938186-.3372854-2.123243.00643-2.469726 1.0099263-.546595 1.4462267-.09966 3.3748911 1.359375 4.109375-.852275-.4149929-1.700875.1821441-2.318359.7304687-.752632.037238-1.564053-.014528-2.33878.07557-.619426.1357405.141041-.5997407.168203-.911087.627965-1.0602711.170764-2.7070022-1.121983-2.9729379-1.248682-.3264831-2.40257.6399357-2.79421 1.7730902-.362999.7848834-.530781 1.6445051-.897605 2.4279431-.710365.1373641-1.464222.2888481-2.033203.7675782.675008-1.7860138 1.511028-3.5114123 2.253819-5.2636996.30107-1.2775823-.792302-2.7831285-2.158116-2.6464567zm54.101562 2.9589844c-1.26937-.027838-1.919169 1.3725151-1.917968 2.4726562-.316805 1.1110443-1.580954 1.4563278-2.314213 2.2379036-.842597.6639902-1.708797 1.2996223-2.519772 2.0023303.019493-1.4989057.576718-2.9340154.664063-4.4179682-.067194-1.3794734-1.592872-2.754111-2.957031-2.0429688-1.268596.8424271-1.777774 2.4604098-1.88184 3.8993941.128753.5215372.408749 1.015264.213293 1.5598629-.186141 2.602592-.156378 5.355015.949797 7.765352.628779.971274 2.160445 1.066187 2.882221.145111.749127-.818806.923318-2.013205 1.777071-2.760262 1.475885-1.737328 3.279186-3.118798 4.953989-4.677817-1.035638 1.837437-1.937528 4.155387-.998047 6.21289.78871 1.51352 2.739063 2.052528 4.294094 1.514884 1.383008-.283902 2.681579-.908896 3.834812-1.714102-.231019 1.109956.902457 2.165081 1.989398 1.816776.73209-.197208 1.255753-.79341 1.782087-1.301152 1.714403 1.272337 4.265994 1.98832 6.173271.703737 1.449005-.999287 2.80594-2.622452 2.666572-4.477174-.308617-1.140117-2.150354-1.005998-2.374355.127734-.617178 1.262724-2.534301 1.67684-3.57291.811719.800664-.792069 1.439252-1.760837 2.363281-2.427734 1.551181.199737 2.723921-1.774062 1.839844-3.0507815-.704608-1.112183-2.324138-1.3871734-3.425781-.7128906-1.716107.0698868-3.607176-.8767724-5.191407.1679687-.977323.6601757-1.636053 2.0754974-.964843 3.1660154-.479247.458995-.964288.91381-1.486329 1.324219.863041-1.235451 1.095545-3.27539-.222656-4.2910156-.455503-.4041089-1.12377-.3737132-1.482231-.8726503-.855264-.6686638-2.035393-.3300212-2.8498.2320253.577117-1.4250438-.37668-3.2706951-1.962891-3.4003906-.08707-.00181-.174912-.015854-.261719-.013672zm-54.791015 6.6542971c.136796.478845.503846.880818.957031 1.080078-.575037.64805-1.178408 1.284706-1.892578 1.78125.265126-.987893.583294-1.960823.921875-2.925781zm7.654297.398437c.06557.521951.177976 1.067378-.134766 1.535156.03047.557709-.427838.400693-.812934.581614-.659146.23415-1.230072.772815-1.898003.904715.103988-.913677.480024-1.789177.810547-2.625.662015-.188516 1.396782-.123008 2.035156-.396485zm117.371094.994141c-.195906.550127-.472904 1.067539-.78711 1.558594.226864-.608215.503227-1.19964.841797-1.753907-.01823.06511-.03646.130209-.05469.195313zm-37.816407-.03125c-.194653.572719-.49839 1.099529-.80664 1.617187.222251-.617694.503451-1.216155.851562-1.773437l-.02763.09611z" fill="#333"/><g fill="#f4c401" transform="scale(.9822298 1.0180917)"><g><path d="m-33.117299 5.4269284c-.272763 0-.644714.1735769-.867884.5951208-.14878.3223571-.347154.7191042-.520731 1.1902415-.173577.3719505-.768698 1.3390218-1.909346 2.6780436-1.958939 2.3804827-2.727637 3.1987747-3.322757 3.7690987-.644715.570324-1.091055.768697-1.463006.768697-.22317 0-.471137-.29756-.123983-1.636582.37195-1.438208 1.463005-4.0666586 2.380483-5.9264111.545527-1.066258-.0248-1.6117854-.495934-1.6117854-.495934 0-1.115852.247967-1.537395.4463406-.570325.2727637-.818292.495934-.669511.8430877.173577.495934.07439.9174779-.09919 1.3638185-1.115852 2.9260107-1.884549 5.0337297-2.33089 7.3894167-.04959.272763-.07439.545527-.0248.793494.04959.22317.198374.421544.371951.570324.247967.198374.619917.297561.867884.297561.669511 0 1.339022-.223171 1.859753-.520731.619917-.322357 1.264632-.793494 2.47967-1.958939 1.115851-1.091055 2.430076-2.727637 2.55406-2.876417.123983-.148781.247967-.173577.173577.07439-.545528 1.785362-.843088 3.273164-.991868 4.041862-.173577.892681-.07439 1.289428.719104 1.611785.322357.14878.471137.123984.669511.123984.14878 0 .322357-.09919.520731-.297561.52073-.644714 1.785362-1.859752 2.85162-2.653247.421544-.322357.471137-.694307-.123983-.619917-.818291.123983-1.339022.37195-1.88455.595121-.22317.09919-.272763.0248-.247967-.322357.198374-2.33089 1.190242-5.0337304 2.18211-6.5711258.347154-.4711373.37195-.8430878.272764-1.0662581-.247967-.4711372-.768698-1.0910547-1.289429-1.0910547z"/><path d="m-31.579915 15.568778c0 .892682.545527 1.611786 1.264632 1.611786 2.281296 0 5.356087-3.149181 6.075191-4.612186.198374-.396747.272764-.768698.173577-.967071-.09919-.173577-.29756-.198374-.520731.07439-1.636582 1.983736-3.521131 3.446741-4.289829 3.446741-.396747 0-.595121-.347154-.198373-1.636582.570324-1.859753 1.661378-5.2569006 3.496334-8.8028286.520731-1.0166647.644714-1.4630053-.173577-2.1573129-.123983-.1239835-.272763-.1735769-.44634-.1735769-.198374 0-.421544.099187-.644714.3719505-.371951.4711373-1.239835 2.2069063-2.752434 6.0008013-1.686176 4.2154386-1.983736 6.1247846-1.983736 6.8438886z"/><path d="m-22.603482 15.246421c-.644714 0-.743901-.471137-.619918-1.215038.09919-.719104.619918-2.182109.967072-2.975604.123983-.247967.22317-.322357.545527-.37195 2.206906-.297561 3.669912-.6943079 4.091455-.9174782.347154-.1983736.644715-.7686977.04959-.7686977-.669511 0-2.454873.099187-3.570725.1239835-.14878 0-.37195.024797-.29756-.1735769.09919-.2231703.495934-1.2646317 1.041461-2.2564997.247967-.4215438.22317-.8678844-.14878-1.2398349-.198374-.1983736-.347154-.2727637-.595121-.2727637-.37195 0-1.066258.3719505-1.289428.8430878-.247967.5207306-1.016665 2.7028402-1.140648 2.9508072-.09919.2727637-.247967.3223571-.471138.3719505-.495934.099187-.917478.1983736-1.215038.247967-.347154.07439-.495934.1983736-.719104.4711371-.198374.22317-.223171.595121-.04959.768698.148781.123983.347154.272764.619918.247967.322357-.04959.669511-.07439.867884-.09919.247967-.0248.247967.07439.173577.247967-.123983.347154-.942274 2.752434-1.190241 3.446741-.198374.520731-.272764.818291-.272764 1.115852 0 .867884.867884 1.388615 1.586989 1.388615.322357 0 .644714-.04959 1.066258-.198374 1.983736-.644714 3.0004-1.537395 3.446741-2.008532.421544-.446341.322357-1.115852-.247967-.743901-.595121.37195-1.785362 1.016664-2.62845 1.016664z"/><path d="m-14.643716 3.145632c-.545527 0-.843088.2727637-.892681 1.0414614-.0248.5703241.04959.9670713.123983 1.239835.123984.4463406.520731.8926812 1.066258 1.0910547.471138.1735769.818291.1487802.818291-.3471537 0-.5951208 0-1.2150383.148781-2.0581261.123983-.6199175-.545528-.9670713-1.264632-.9670713zm-3.099588 14.109322c.421544 0 .892682-.09919 1.512599-.347154 1.438209-.570324 3.744302-2.802027 4.711373-4.364219.322357-.520731.396747-.917478.272764-1.140648-.09919-.173577-.347154-.198374-.644714.123983-1.388616 1.562193-3.843489 3.793895-4.636983 3.793895-.471138 0-.520731-.347153-.272764-1.115851.595121-1.909346 1.215038-3.297961 1.983736-4.6369828.247967-.4711373 0-1.0166647-.322357-1.2646317-.123984-.099187-.272764-.1487802-.421544-.1487802-.719104 0-2.281296 1.6613789-2.678044 2.6780437-.14878.37195-.09919.595121 0 .818291.123984.22317.123984.37195 0 .719104-.198373.446341-.619917 1.810159-.768697 2.40528-.173577.595121-.173577 1.041461.04959 1.487802.347154.768698.843088.991868 1.215038.991868z"/><path d="m-5.2457514 8.1545653c-.247967 0-.6447142.1983736-1.0662581.5703241-.4215439.3471538-.7191042.6199175-1.4878019 1.4134116-.9174779.942275-1.6117855 1.760566-2.6532466 2.926011-.371951.421544-.520731.247967-.297561-.446341.322357-1.066258.743901-2.231703 1.0414617-2.8764169.3223571-.6695109-.07439-1.1406482-.5951207-1.5621921-.247967-.1983736-.471137-.2727637-.694308-.2727637-.669511 0-1.339021 1.8349558-1.537395 2.4300767-.09919.322357.07439.471137.173577.471137.123983 0 .14878.123984.07439.371951-.446341 1.686175-.818291 2.85162-.917478 3.595521-.198374 1.686176.520731 2.306093.892681 2.306093.247967 0 .520731-.123983.967072-.619917.471137-.520731 2.9260101-3.669912 3.2979606-4.091456.2727637-.322357.5455274-.471137.6447142-.421544.1239835.07439.07439.297561-.024797.545528-.247967.719104-.4711373 1.463005-.6447142 2.157313-.3471538 1.314225-.1239835 2.405279.4711373 2.405279.3471538 0 .7191043-.22317 1.2150382-.694307.5455274-.520731 2.7028403-2.975604 3.2979611-3.669912.2727637-.322357.3967472-.29756.2975604.04959-.07439.272763-.1735769.892681-.2231703 1.314225-.247967 2.182109.5455274 3.173977 1.810159 3.173977 1.21503832 0 3.2731644-1.314225 5.0585267-4.438609.3719505-.644714.4463406-1.066258.3223571-1.239835-.099187-.14878-.2975604-.123983-.5207307.14878-2.2564996 2.851621-3.44674119 3.769099-4.14104877 3.769099-.59512083 0-.71910433-.669511-.57032413-1.661379.19837363-1.413412.59512083-2.355687.84308782-2.826824.2231703-.446341.47113729-.644714.64471419-.793494.2231703-.1983739.34715379-.3471541.34715379-.6447145 0-.5455274-.57032409-1.1654449-1.14064817-1.1654449-.2975604 0-.69430763.247967-1.09105483.6447142-.4711372.4711373-3.0251973 3.2731642-3.793895 4.0418622-.1487802.123983-.2727637.22317-.3967472.173577-.099187-.04959-.049593-.247967.099187-.619918.2727637-.719104.8678845-2.082923 1.0414614-2.578857.495934-1.3886147-.3967472-1.8845487-.743901-1.8845487z"/><path d="m8.4172365 8.1545653c-.2727637 0-1.3390218.099187-2.7028402 1.2894284-1.0414614.9422743-2.0829228 2.1573133-2.727637 3.4715383-.7934944 1.512598-.9422746 2.306093-.9422746 2.802027 0 .942274.9670713 1.463005 1.2646317 1.463005.5207307 0 1.0414614-.22317 1.7109723-.719104.6943076-.495934 2.0085326-1.686176 2.306093-2.03333.1487802-.14878.1983736-.14878.2231703.07439 0 .272764 0 .495934.049593.867885.099187 1.016665.7686977 1.810159 1.6861756 1.810159 1.5621924 0 3.9674724-2.33089 5.0585274-4.488203.22317-.471137.347153-.917478.22317-1.140648-.09919-.173577-.347154-.198373-.619918.04959-1.562192 2.157312-3.248367 3.669911-3.818691 3.669911-.3719511 0-.6199181-.347154-.6199181-1.215038 0-1.487802.4463406-3.025198 1.0910551-4.4882028.07439-.2231663.198374-.5207267-.495934-.9174739-.2231702-.1487802-.3967471-.0991868-.5951207.0743901-.1487802.0991868-.2727637.0991868-.3223571-.0495934-.1487802-.1983736-.4215439-.5207307-.7686977-.5207307zm-.9174779 1.8597527c.3223571 0 .5207307.29756.5951208.52073.07439.247967 0 .570325-.1487802.818292-.099187.173576-.495934.867884-.8430878 1.264631-.743901.867885-1.0910548 1.339022-1.5125986 1.686176-.3719505.322357-.743901.570324-.9422746.570324s-.247967-.347154-.1735769-.669511c.1487802-.669511.8430878-2.058126 1.6861755-3.049994.7191043-.843088 1.1158515-1.140648 1.3390218-1.140648z"/></g><g><path d="m20.224184 5.3277416c-.843087 0-1.537395 1.9341425-1.661379 2.6780435-.123983.6447142.371951.743901.297561 1.2150383-.371951 2.0333296-.198374 5.3064936.44634 7.2406366.173577.495934.520731.917478.892682.917478.29756 0 .991868-.421544 1.091054-.818292.09919-.396747.793495-1.909345 3.149181-3.942675 1.611786-1.388615 3.992269-3.446741 4.860153-4.3146255.471138-.4711373.818291-1.0662581.818291-1.5621921 0-.818291-.694307-1.4630052-1.388615-1.4630052-.396747 0-.619917.1983736-.719104.3719505-.123984.1983736-.22317.6447142-.29756 1.2894283-.07439.5455274-.322358.9174779-.942275 1.4134119-1.487802 1.1654449-4.587389 3.3227581-5.455274 4.3146261-.198374.22317-.29756.198373-.396747-.04959-.07439-.22317-.123984-.694307-.14878-1.091055-.0248-.495934.198373-2.9260101.59512-4.0666583.247967-.7687017.024797-1.3390257-.272763-1.6861795-.198374-.247967-.446341-.4463406-.867885-.4463406z"/><path d="m28.084733 14.725691c0 1.562192 1.115852 2.454873 2.2565 2.454873 2.901214 0 6.000801-2.10772 7.686977-4.265032.322357-.421544.44634-.867885.322357-1.091055-.09919-.173577-.347154-.198374-.595121.07439-2.529263 2.55406-4.81056 3.372351-6.298362 3.372351-.719104 0-1.115851-.37195-1.115851-.917478 0-.347154.07439-.570324.198373-.818291.07439-.173577.148781-.198373.322357-.123983.223171.09919.495934.198373.768698.198373 1.339022 0 2.206906-.644714 2.727637-1.165445.495934-.545527.942275-1.264631.942275-2.157313 0-.9422741-.595121-1.4878015-1.438209-1.5373949-.173577-.024797-.29756-.1239835-.37195-.2231703-.148781-.2975604-.396748-.495934-.867885-.495934-1.041461 0-2.33089 1.487802-2.826824 2.1821092-1.091054 1.562192-1.710972 3.397148-1.710972 4.513zm3.347555-2.55406c-.322358 0-.371951-.07439-.272764-.371951.29756-.768698 1.115851-1.9837358 1.611785-1.9837358.322357 0 .570324.1983738.570324.5455278 0 .694307-1.140648 1.810159-1.909345 1.810159z"/><path d="m43.905017 15.444795c-1.041462 0-2.40528-.818291-2.678044-1.066258-.123984-.123984-.07439-.247967.09919-.446341.545527-.669511 2.231703-2.40528 2.578857-2.752433.471137-.471138.818291-.570324 1.016664-.570324.09919 0 .322357.04959.421544.04959.198374 0 .371951-.173577.545528-.396747.173576-.247967.471137-.6199177.09919-1.1158517-.29756-.4215439-.867884-.6199175-1.339021-.6199175-.223171 0-.446341.07439-.619918.1983736-.123983.099187-.322357.1983736-.644714.1983736-.347154 0-.644714-.024797-1.140648-.07439-1.264632-.1735769-1.884549-.2727637-2.47967-.2727637-.892681 0-1.165445.2727637-1.735769.9670713-.272764.3471538-.322357.8430874-.0248 1.2398344.173577.247967.669511.942275 1.016665 1.115852.396747.198374.719104.14878.570324-.22317-.173577-.495934-.173577-.793495-.04959-1.066258.09919-.198374.272764-.347154.545528-.347154.29756 0 1.016664.07439 1.710972.14878.29756.04959.347154.14878.09919.396747-.669511.694308-1.487802 1.586989-2.33089 2.40528-.14878.14878-.247967.123984-.421544.0248-.123983-.07439-.322357-.09919-.495934-.09919-.347154 0-.967071.471137-.967071 1.537395 0 .173577 0 .223171-.14878.446341-.198374.198373-.793495.991868-.793495 1.413412 0 .247967.148781.396747.247967.495934.148781.14878.545528.22317.892682-.0248.29756-.22317 1.091054-.917478 1.289428-1.115851.22317-.272764.322357-.272764.570324-.123984 1.512599.892681 2.55406 1.438209 3.818692 1.438209 2.182109 0 3.793895-2.231703 4.091455-3.496335.09919-.520731-.247967-.619917-.44634-.247967-.446341.867884-1.388616 1.983736-3.297961 1.983736z"/></g><g><path d="m56.626241 5.1789614c-.371951 0-.570324.1735769-.768698.3471538-.29756.2975604-.421544.3719505-.793494.4215439-.421544.07439-.743901.1239835-.991868.247967-.22317.099187-.446341.2727636-.446341.570324 0 .4215439.520731.8182911 1.091055.9174779.173577.024797.198374.07439.173577.2231703-1.289428 4.6617797-1.859752 6.5959217-2.727637 8.9764057-.37195 1.016664-.719104 1.735769-1.190242 2.281296-.421543.396747-.793494.570324-1.041461.570324s-.471137-.09919-.644714-.198374c-.22317-.123983-.892681-.37195-1.289428-.37195-.421544 0-.991868.347154-.991868.743901 0 .37195.322357.892681.644714 1.066258.52073.272764 1.165445.495934 1.636582.495934.29756 0 .644714-.123984.991868-.22317.272764-.07439.669511-.247967.991868-.371951.247967-.123983 1.091055-.545527 1.859752-1.413412.892682-.991868 1.735769-3.223571 2.55406-6.223971 1.190242-4.3394227 1.314225-4.8353567 1.586989-5.5296643.123984-.3471538.347154-.7191043.495934-.8926812.173577-.1735769.371951-.4711372.22317-.8678844-.14878-.4215439-.818291-.7686977-1.363818-.7686977z"/><path d="m57.270922 15.147235c0 1.165444.743901 2.082922 1.636582 2.082922 1.785363 0 3.397148-.991868 4.58739-2.40528 1.016664-1.140648 1.388615-2.330889 1.388615-3.322757 0-.967072-.347154-2.0581263-1.239835-2.5044669-.173577-.0743901-.198374-.1487802-.198374-.2975604 0-.3471538-.04959-.9670713-.991868-.9670713-.421544 0-.793494.1487802-1.140648.495934-.247967.247967-.421544.3719505-.743901.3719505-.272764 0-.471137.1239835-.644714.2975604-.173577.1983736-.29756.3719505-.322357.6695109-.0248.4463408-.22317.6695108-.421544.9422748-.29756.37195-.942275 1.339022-1.314225 2.182109-.446341 1.091055-.595121 1.785363-.595121 2.454874zm2.33089-.421544c0-1.041462.991868-3.049994 2.107719-4.364219.14878-.198374.396747-.4215443.570324-.4215443.446341 0 .619918.6943073.619918 1.3142253 0 .867884-.843088 2.77723-1.562192 3.570724-.471138.520731-.892681.719105-1.215038.719105-.223171 0-.520731-.297561-.520731-.818291z"/><path d="m72.545699 8.1049719c-.545527 0-1.562192.2975604-2.2565.6943076-.843087.495934-2.206906 1.3886155-3.347554 2.8764175s-1.661379 2.975604-1.661379 3.942675c0 .694307.495934 1.512599 1.091055 1.512599.694308 0 1.760566-.545528 2.281296-.867885.843088-.520731 1.562192-1.140648 1.859753-1.388615.14878-.123984.247967-.14878.22317.04959-.04959.347154-.123983 1.041462-.396747 2.132516-.396747 1.611786-.867885 3.297961-1.884549 4.73617-1.115852 1.586989-2.10772 2.033329-2.826824 2.033329-.446341 0-.843088-.272763-1.190242-.545527-.322357-.272764-.768697-.545527-1.140648-.545527-.52073 0-1.487802.694307-1.487802 1.289428 0 .669511 1.115852 1.115851 1.686176 1.115851.396747 0 .570324.04959.818291.123984.272764.07439.719104.09919 1.066258.09919.644714 0 2.231703-.595121 3.273164-1.413412 1.190242-.917478 2.603654-2.727637 3.347555-5.678444.272763-1.066258.942274-3.669912 1.388615-6.298362.04959-.247967.09919-.595121-.0248-.719104-.07439-.04959-.0248-.14878.173577-.272764.421544-.29756.743901-.793494.743901-1.314225 0-.5455274-.396747-1.5621921-1.735769-1.5621921zm-4.835356 6.2983621c0-.644715.669511-1.934143 1.190241-2.603654.892681-1.140648 2.008533-1.760566 3.025198-1.760566.52073 0 .843087.297561.843087.471138 0 .09919-.07439.22317-.123983.272763-.09919.07439-.22317.09919-.322357.123984-.272764.07439-.570324.272764-.843088.669511-.14878.22317-.471137.793494-1.314225 1.611785-.347154.371951-1.586989 1.611786-2.18211 1.611786-.173576 0-.272763-.173577-.272763-.396747z"/><path d="m80.803002 8.1545653c-.272764 0-1.339022.099187-2.702841 1.2894284-1.041461.9422743-2.082922 2.1573133-2.727637 3.4715383-.793494 1.512598-.942274 2.306093-.942274 2.802027 0 .942274.967071 1.463005 1.264631 1.463005.520731 0 1.041462-.22317 1.710973-.719104.694307-.495934 2.008532-1.686176 2.306093-2.03333.14878-.14878.198373-.14878.22317.07439 0 .272764 0 .495934.04959.867885.09919 1.016665.768698 1.810159 1.686176 1.810159 1.562192 0 3.967472-2.33089 5.058527-4.488203.22317-.471137.347154-.917478.22317-1.140648-.09919-.173577-.347154-.198373-.619917.04959-1.562192 2.157312-3.248368 3.669911-3.818692 3.669911-.371951 0-.619918-.347154-.619918-1.215038 0-1.487802.446341-3.025198 1.091055-4.4882028.07439-.2231703.198374-.5207307-.495934-.9174779-.22317-.1487802-.396747-.099187-.595121.07439-.14878.099187-.272763.099187-.322357-.049593-.14878-.1983736-.421544-.5207307-.768697-.5207307zm-.917478 1.8597527c.322357 0 .52073.29756.59512.52073.07439.247967 0 .570325-.14878.818292-.09919.173576-.495934.867884-.843087 1.264631-.743901.867885-1.091055 1.339022-1.512599 1.686176-.371951.322357-.743901.570324-.942275.570324-.198373 0-.247967-.347154-.173577-.669511.148781-.669511.843088-2.058126 1.686176-3.049994.719104-.843088 1.115851-1.140648 1.339022-1.140648z"/><path d="m91.118456 8.5017191c-1.363818 0-2.70284.5703241-4.041862 2.0333289-1.859752 2.03333-2.47967 4.017066-2.47967 5.083324 0 1.239835.570324 1.611785 1.115852 1.611785.545527 0 1.537395-.322357 2.62845-1.066258.619917-.421544 1.810159-1.463005 2.40528-2.206906.123983-.173577.22317-.14878.198373.04959-.04959.297561-.09919.619918-.123983 1.165445-.04959.867885.37195 1.909346 1.388615 1.909346 1.934143 0 4.413812-2.727637 5.18251-4.314626.22317-.471137.347154-.917477.22317-1.140648-.14878-.247967-.44634-.198373-.743901.223171-.471137.694307-2.802027 3.347554-3.570724 3.347554-.371951 0-.545528-.446341-.471138-1.239835.09919-1.239835.644715-3.744302 1.363819-5.7280376.818291-2.2317029 1.438208-3.3971478 1.785362-4.2402356.247967-.6199175.247967-.9422746-.09919-1.3638185-.396747-.4711373-.644714-.5455274-.917477-.5455274-.173577 0-.347154.099187-.545528.5207307-.29756.6199175-1.413412 3.2731644-2.454873 5.8520211-.04959.1487802-.09919.1487802-.22317.1239835-.198374-.049593-.396748-.07439-.619918-.07439zm-.495934 1.4382086c.198374 0 .371951.1239833.446341.2727633.09919.173577.123983.371951-.0248.694308-.14878.37195-1.239835 2.132516-2.082923 2.975604-.793494.768698-1.388615 1.091055-1.686175 1.091055-.173577 0-.322357-.173577-.322357-.421544 0-.371951.123983-.917478 1.190241-2.40528.942275-1.339022 2.03333-2.2069063 2.47967-2.2069063z"/><path d="m95.780278 15.147235c0 1.165444.743901 2.082922 1.636582 2.082922 1.785363 0 3.39715-.991868 4.58739-2.40528 1.01666-1.140648 1.38861-2.330889 1.38861-3.322757 0-.967072-.34715-2.0581263-1.23983-2.5044669-.17358-.07439-.19837-.1487802-.19837-.2975604 0-.3471538-.0496-.9670713-.99187-.9670713-.42155 0-.7935.1487802-1.14065.495934-.247967.247967-.421544.3719505-.743901.3719505-.272764 0-.471137.1239835-.644714.2975604-.173577.1983736-.29756.3719505-.322357.6695109-.0248.4463408-.22317.6695108-.421544.9422748-.29756.37195-.942275 1.339022-1.314225 2.182109-.446341 1.091055-.595121 1.785363-.595121 2.454874zm2.33089-.421544c0-1.041462.991868-3.049994 2.107722-4.364219.14878-.198374.39674-.4215443.57032-.4215443.44634 0 .61992.6943073.61992 1.3142253 0 .867884-.84309 2.77723-1.562193 3.570724-.471137.520731-.892681.719105-1.215038.719105-.223171 0-.520731-.297561-.520731-.818291z"/></g></g></g></svg>