<svg enable-background="new 0 0 566.929 129.21" height="150.6516" viewBox="0 0 671.53286 120.52128" width="839.41608" xmlns="http://www.w3.org/2000/svg"><g transform="matrix(.10252157 0 0 .10252157 149.66656 -5.646221)"><text fill="#ef00eb" font-family="TrasksHand" font-size="15.6065" stroke="#0105ff" stroke-width="19.5081" x="-1305.2396" y="969.03198"><tspan fill="#fafafa" fill-opacity=".4" font-size="15.6065" stroke="none" stroke-width="19.5081" x="-1305.2396" y="969.03198">John Loreth 2022</tspan></text><path d="m-1156.4036 289.56797h6057.6574c120.4937 0 209.376 89.0658 185.0151 179.98179l-87.6189 319.44057c-21.9525 80.03433-110.3027 149.80211-193.2931 149.80211h-6112.0211c-82.9904 0-171.7547-69.76781-149.8022-149.80211l95.897-349.62025c18.7065-68.20003 90.9733-149.80211 204.1658-149.80211z" fill="#2285c8"/><path d="m-590.21337 55.073493h2683.87657c152.4609 0 301.3058 161.678397 251.8204 342.091597l-114.9204 418.97601c-78.5424 293.1244-276.2284 409.5138-433.4763 414.5023h-2673.77248c-150.27312 0-311.00112-126.3307-271.25112-271.25119l169.81587-619.11332c41.77631-155.9111 253.84899-280.673097 387.90746-285.205397z" fill="#050608"/><g fill="#fff" stroke="none" stroke-width="24.3851" transform="matrix(1.0030514 0 -.25222563 .99695789 374.55529 0)"><path d="m2170.5808 636.15856q-.9791-7.3431-1.4687-15.17574-.4895-7.83264-.4895-22.51884 0-12.2385 2.9372-24.96654 3.4268-12.72804 13.7072-39.65274 10.7698-26.9247 41.1213-52.87032 30.3515-26.43516 55.8076-36.7155 25.4561-10.76988 59.7239-13.70712 4.4058 0 8.8117 0 4.4058 0 8.8117-.48954 6.8536 0 10.2803.48954 23.9875 0 44.0586 6.85356 20.0712 6.36402 43.5691 21.05022 23.9875 14.19666 37.6946 30.35148 13.7071 15.66528 22.5188 29.3724 9.3013 13.70712 15.6653 31.8201 6.364 18.11298 8.8117 37.20504 2.4477 18.60252 2.4477 30.35148 0 32.79918-13.2176 62.66112-12.728 29.86194-26.4351 46.99584-13.2176 16.64436-30.841 29.3724-17.1339 12.72804-31.3306 19.5816-14.1967 6.85356-30.3515 11.74896-15.6653 4.40586-33.7782 5.87448-18.113 1.46862-35.2469 1.46862l-25.4561-3.42678q-30.3515-5.87448-52.3808-17.1339-21.5397-11.74896-44.0586-34.2678-22.0293-22.51884-34.2678-46.99584-12.2385-24.96654-16.6443-57.27618zm114.5523-16.64436q2.4477 23.98746 18.6025 41.12136 16.6444 17.1339 30.3515 19.5816 14.1967 2.4477 17.1339 2.4477 2.9373 0 6.364 0 2.9373 0 5.8745 0 3.9163-.97908 23.9875-3.91632 20.0711-3.42678 28.3933-24.477 8.8117-21.05022 9.7908-25.94562 1.4686-4.8954 1.4686-10.76988 0-28.88286-15.6653-49.44354-15.6652-20.56068-31.8201-23.00838-15.6652-2.93724-22.5188-2.93724-10.2803 0-18.6025 1.95816-7.8327 1.95816-18.113 7.83264-9.7908 5.38494-23.0084 19.5816-12.728 14.19666-12.728 39.65274 0 5.38494.4895 8.32218z"/><path d="m2614.5933 783.99964q-27.4142-8.32218-52.3808-22.0293l27.9038-101.82432 16.1548 7.3431q27.9038 12.2385 44.5482 18.11298 17.1339 5.38494 24.9665 5.38494 2.9373.48954 4.8954.48954 1.9582 0 2.4477 0 7.8327 0 15.6653-3.42678 7.8326-3.91632 7.8326-13.70712 0-3.42678-2.9372-7.83264-2.4477-4.40586-6.8536-6.36402l-1.9581-.97908-17.6235-6.85356-42.5899-16.15482q-37.2051-14.19666-54.339-38.67366-16.6443-24.96654-16.6443-64.12974 0-25.94562 10.2803-46.01676 10.7699-20.07114 28.3933-33.28872 18.113-13.21758 35.2469-18.11298 17.1339-5.38494 44.5481-5.38494 9.3013 0 19.5816.48954 10.2804.48954 20.5607 1.95816l3.4268-11.74896 92.5231 18.11298-31.3306 112.10466q-21.5398-13.21758-45.5272-19.5816-23.4979-6.85356-35.2469-6.85356-6.364 0-12.728 1.95816-5.8745 1.95816-8.8118 5.87448-2.9372 3.91632-2.9372 8.81172 0 3.91632 2.4477 7.3431 2.9372 3.42678 7.3431 4.8954l50.4226 18.11298 16.6444 6.85356q64.1297 33.77826 64.1297 97.41846 0 8.32218-2.9372 26.9247-2.9373 18.11298-18.113 38.67366-14.6862 20.56068-29.3724 30.84102-14.6862 10.28034-34.7573 16.64436-20.0712 6.85356-55.8076 6.85356-13.7071 0-27.9038-2.4477-14.1966-2.4477-39.1632-9.7908z"/><path d="m2980.77 781.0624-12.728-6.36402 27.4142-101.33478 7.3431 5.38494q13.7072 7.83264 24.477 7.83264 19.5817 0 22.5189-15.17574 3.4268-15.66528 3.4268-21.05022v-108.67788h-77.8369l24.9665-104.76156h162.0378v236.93736q0 9.30126-1.4686 18.60252-1.4686 9.30126-10.2804 36.22596-8.8117 26.9247-34.2678 42.58998-24.9665 15.66528-42.1004 19.5816-17.1339 3.91632-38.1841 3.91632-25.4561 0-55.3181-13.70712z"/><path d="m3188.8249 636.15856q-.9791-7.3431-1.4686-15.17574-.4896-7.83264-.4896-22.51884 0-12.2385 2.9373-24.96654 3.4268-12.72804 13.7071-39.65274 10.7699-26.9247 41.1214-52.87032 30.3514-26.43516 55.8075-36.7155 25.4561-10.76988 59.7239-13.70712 4.4059 0 8.8117 0 4.4059 0 8.8117-.48954 6.8536 0 10.2804.48954 23.9874 0 44.0586 6.85356 20.0711 6.36402 43.569 21.05022 23.9875 14.19666 37.6946 30.35148 13.7071 15.66528 22.5189 29.3724 9.3012 13.70712 15.6653 31.8201 6.364 18.11298 8.8117 37.20504 2.4477 18.60252 2.4477 30.35148 0 32.79918-13.2176 62.66112-12.7281 29.86194-26.4352 46.99584-13.2176 16.64436-30.841 29.3724-17.1339 12.72804-31.3306 19.5816-14.1966 6.85356-30.3514 11.74896-15.6653 4.40586-33.7783 5.87448-18.113 1.46862-35.2469 1.46862l-25.4561-3.42678q-30.3514-5.87448-52.3807-17.1339-21.5398-11.74896-44.0586-34.2678-22.0293-22.51884-34.2678-46.99584-12.2385-24.96654-16.6444-57.27618zm114.5524-16.64436q2.4477 23.98746 18.6025 41.12136 16.6443 17.1339 30.3515 19.5816 14.1966 2.4477 17.1339 2.4477 2.9372 0 6.364 0 2.9372 0 5.8745 0 3.9163-.97908 23.9874-3.91632 20.0712-3.42678 28.3933-24.477 8.8118-21.05022 9.7908-25.94562 1.4687-4.8954 1.4687-10.76988 0-28.88286-15.6653-49.44354-15.6653-20.56068-31.8201-23.00838-15.6653-2.93724-22.5189-2.93724-10.2803 0-18.6025 1.95816-7.8326 1.95816-18.113 7.83264-9.7908 5.38494-23.0083 19.5816-12.7281 14.19666-12.7281 39.65274 0 5.38494.4896 8.32218z"/><path d="m3691.5822 443.2798q17.6235-6.85356 34.7574-10.28034 17.1339-3.42678 32.3096-3.42678 31.8201 0 56.2971 13.70712l6.8536-6.36402 76.8578 40.63182-78.816 83.71134-5.8745-3.42678-9.3012-4.40586q-14.1967-6.36402-21.5398-7.83264-7.3431-1.46862-13.2176-1.95816-5.8744-.48954-11.2594-.48954-46.0167 0-57.2762 23.49792-10.7699 23.00838-12.2385 27.41424-1.4686 4.40586-1.4686 12.2385-.4895 3.91632-.4895 10.76988 0 28.39332 17.6234 46.01676 17.6235 17.1339 33.2887 21.05022 15.6653 3.42678 26.4352 3.42678 19.5816 0 28.8829-6.85356 9.3012-6.85356 12.2385-10.28034 3.4267-3.42678 7.3431-8.32218h-56.7867l23.9875-91.05444h163.9959l.4895 6.85356.4896 8.32218q0 28.88286-6.8536 59.23434-6.364 30.35148-17.1339 52.38078-10.2803 21.53976-28.3933 40.14228-18.113 18.11298-37.2051 30.84102-18.6025 12.2385-41.6109 19.5816-22.5188 7.3431-47.9749 7.3431-11.7489 0-38.6736-2.93724-26.9248-2.4477-50.4227-15.66528-23.0084-13.21758-34.2678-22.51884-11.2594-9.30126-28.8828-29.86194-17.1339-21.05022-27.4143-48.954-10.2803-28.39332-10.2803-66.0879 0-51.89124 18.113-79.30548 18.1129-27.90378 31.8201-42.10044 14.1966-14.6862 30.841-25.94562 16.6443-11.74896 34.7573-19.09206z"/><path d="m3961.3186 636.15856q-.9791-7.3431-1.4687-15.17574-.4895-7.83264-.4895-22.51884 0-12.2385 2.9372-24.96654 3.4268-12.72804 13.7072-39.65274 10.7698-26.9247 41.1213-52.87032 30.3515-26.43516 55.8076-36.7155 25.4561-10.76988 59.7239-13.70712 4.4058 0 8.8117 0 4.4058 0 8.8117-.48954 6.8536 0 10.2803.48954 23.9875 0 44.0586 6.85356 20.0712 6.36402 43.5691 21.05022 23.9875 14.19666 37.6946 30.35148 13.7071 15.66528 22.5188 29.3724 9.3013 13.70712 15.6653 31.8201 6.364 18.11298 8.8117 37.20504 2.4477 18.60252 2.4477 30.35148 0 32.79918-13.2176 62.66112-12.728 29.86194-26.4351 46.99584-13.2176 16.64436-30.841 29.3724-17.1339 12.72804-31.3306 19.5816-14.1967 6.85356-30.3515 11.74896-15.6653 4.40586-33.7782 5.87448-18.113 1.46862-35.2469 1.46862l-25.4561-3.42678q-30.3515-5.87448-52.3808-17.1339-21.5397-11.74896-44.0586-34.2678-22.0293-22.51884-34.2678-46.99584-12.2385-24.96654-16.6443-57.27618zm114.5523-16.64436q2.4477 23.98746 18.6025 41.12136 16.6444 17.1339 30.3515 19.5816 14.1967 2.4477 17.1339 2.4477 2.9373 0 6.364 0 2.9373 0 5.8745 0 3.9163-.97908 23.9875-3.91632 20.0711-3.42678 28.3933-24.477 8.8117-21.05022 9.7908-25.94562 1.4686-4.8954 1.4686-10.76988 0-28.88286-15.6653-49.44354-15.6652-20.56068-31.8201-23.00838-15.6652-2.93724-22.5188-2.93724-10.2803 0-18.6025 1.95816-7.8327 1.95816-18.113 7.83264-9.7908 5.38494-23.0084 19.5816-12.728 14.19666-12.728 39.65274 0 5.38494.4895 8.32218z"/><path d="m4405.3311 783.99964q-27.4143-8.32218-52.3808-22.0293l27.9038-101.82432 16.1548 7.3431q27.9038 12.2385 44.5481 18.11298 17.1339 5.38494 24.9666 5.38494 2.9372.48954 4.8954.48954 1.9581 0 2.4477 0 7.8326 0 15.6653-3.42678 7.8326-3.91632 7.8326-13.70712 0-3.42678-2.9372-7.83264-2.4477-4.40586-6.8536-6.36402l-1.9582-.97908-17.6234-6.85356-42.59-16.15482q-37.205-14.19666-54.3389-38.67366-16.6444-24.96654-16.6444-64.12974 0-25.94562 10.2804-46.01676 10.7698-20.07114 28.3933-33.28872 18.113-13.21758 35.2469-18.11298 17.1339-5.38494 44.5481-5.38494 9.3013 0 19.5816.48954 10.2803.48954 20.5607 1.95816l3.4268-11.74896 92.523 18.11298-31.3305 112.10466q-21.5398-13.21758-45.5273-19.5816-23.4979-6.85356-35.2468-6.85356-6.3641 0-12.7281 1.95816-5.8745 1.95816-8.8117 5.87448-2.9372 3.91632-2.9372 8.81172 0 3.91632 2.4477 7.3431 2.9372 3.42678 7.3431 4.8954l50.4226 18.11298 16.6443 6.85356q64.1298 33.77826 64.1298 97.41846 0 8.32218-2.9373 26.9247-2.9372 18.11298-18.1129 38.67366-14.6862 20.56068-29.3724 30.84102-14.6862 10.28034-34.7574 16.64436-20.0711 6.85356-55.8075 6.85356-13.7072 0-27.9038-2.4477-14.1967-2.4477-39.1632-9.7908z"/></g><g fill="#ed1e24" stroke-width="32.5135" transform="matrix(.75 0 0 .75 -212.38896 168.50829)"><path d="m-731.90302 440.69969h-164.80464l133.68301-265.93476h358.32525l17.19278-36.20708h253.44956l-154.37645 305.8874h-164.80464l-168.60811 629.25405h-278.41997z"/><path d="m-316.90469 682.91257q2.52106-18.7278 6.62518-38.70412 4.10411-19.97632 14.14031-57.43192 8.3635-31.213 24.55266-63.67452 17.43768-32.46152 62.05629-101.13012 45.86714-68.6686 141.005996-134.84016 95.473397-67.42008 167.421773-93.639 72.282921-27.46744 161.686571-34.95856 11.23668 0 22.47336 0 11.23668 0 22.8079-1.24852 17.47928 0 25.88438 1.24852 61.17748 0 107.68324 17.47928 46.8403 16.23076 96.73306 53.68636 51.47582 36.20708 75.39457 77.40824 24.25328 39.95264 37.35952 74.9112 14.35476 34.95856 18.20755 81.1538 3.85278 46.19524-2.95168 94.88752-6.46992 47.44376-14.49887 77.40824-22.41418 83.65085-76.53116 159.81057-52.86845 76.15972-99.53591 119.85792-45.0844 42.44968-98.72916 74.9112-52.39623 32.4615-93.28687 49.9408-40.89065 17.4793-85.43721 29.9645-42.9635 11.2367-90.16235 14.9822-47.198866 3.7456-90.897066 3.7456l-62.581254-8.7397q-73.39377-14.9822-121.88274-43.6982-46.90594-29.9644-88.94902-87.39636-40.79456-57.43192-55.28057-119.85792-14.15146-63.67452-3.3085-146.07685zm303.528036-42.44968q-10.149857 61.17748 19.3424034 104.87569 30.7407826 43.6982 64.0266526 49.9408 34.534378 6.2426 42.025498 6.2426 7.49112 0 16.23076 0 7.49112 0 14.98224 0 10.65724-2.49704 63.8538-9.98816 53.5311-8.73964 89.14116-62.426 36.85858-53.68637 42.70102-66.17157 7.09096-12.4852 11.10544-27.46744 19.73785-73.66268-6.16411-126.10052-25.90197-52.43784-65.43043-58.68044-37.9454-7.49112-55.42468-7.49112-26.21892 0-48.78192 4.99408-21.31448 4.99408-51.54788 19.97632-28.650344 13.73372-72.062041 49.9408-42.1631783 36.20708-59.5592544 101.13012-3.6799396 13.73372-4.4386586 21.22484z"/><path d="m753.94485 443.19673h-62.426l134.35209-268.4318h319.62116q162.3076 0 236.5193 91.14196 75.4601 91.14196 81.7859 156.065 7.9088 63.67452.525 109.86976-5.8009 44.94672-24.2006 113.61532-8.3635 31.213-24.5526 63.67453-14.9407 32.46152-64.0636 108.62124-49.1228 76.15972-145.5102 142.33128-96.0528 64.92308-176.4063 89.89348-80.01896 23.7218-181.14906 23.7218h-263.43774zm186.66634 347.08857h24.9704q69.09281-6.2426 122.33741-51.18932 54.8277-46.19525 73.8965-117.36089 5.0181-18.7278 7.4975-69.91712 4.0625-52.43784-41.0154-79.90528-45.078-27.46744-95.0188-27.46744z"/><path d="m1477.8391 682.91257q2.5211-18.7278 6.6253-38.70412 4.1041-19.97632 14.1403-57.43192 8.3635-31.213 24.5526-63.67452 17.4377-32.46152 62.0563-101.13012 45.8672-68.6686 141.006-134.84016 95.4734-67.42008 167.4218-93.639 72.283-27.46744 161.6866-34.95856 11.2366 0 22.4733 0 11.2367 0 22.8079-1.24852 17.4793 0 25.8844 1.24852 61.1775 0 107.6832 17.47928 46.8403 16.23076 96.7331 53.68636 51.4759 36.20708 75.3945 77.40824 24.2534 39.95264 37.3596 74.9112 14.3547 34.95856 18.2076 81.1538 3.8527 46.19524-2.9518 94.88752-6.4699 47.44376-14.4989 77.40824-22.4141 83.65085-76.5311 159.81057-52.8684 76.15972-99.5359 119.85792-45.0844 42.44968-98.7291 74.9112-52.3962 32.4615-93.2869 49.9408-40.8907 17.4793-85.4373 29.9645-42.9634 11.2367-90.1622 14.9822-47.199 3.7456-90.8972 3.7456l-62.5812-8.7397q-73.3938-14.9822-121.8828-43.6982-46.9059-29.9644-88.949-87.39636-40.7945-57.43192-55.2805-119.85792-14.1515-63.67452-3.3086-146.07685zm303.5281-42.44968q-10.1499 61.17748 19.3424 104.87569 30.7408 43.6982 64.0266 49.9408 34.5344 6.2426 42.0255 6.2426 7.4912 0 16.2308 0 7.4911 0 14.9822 0 10.6573-2.49704 63.8539-9.98816 53.531-8.73964 89.1411-62.426 36.8586-53.68637 42.7011-66.17157 7.0909-12.4852 11.1053-27.46744 19.7379-73.66268-6.164-126.10052-25.9019-52.43784-65.4304-58.68044-37.9454-7.49112-55.4247-7.49112-26.2189 0-48.782 4.99408-21.3144 4.99408-51.5478 19.97632-28.6503 13.73372-72.0621 49.9408-42.1632 36.20708-59.5592 101.13012-3.68 13.73372-4.4387 21.22484z"/><path d="m2490.7968 1059.9656q-64.23-21.2248-118.5373-56.1834l140.7499-259.69214 36.1831 18.7278q62.8021 31.213 101.2373 46.19524 40.0183 13.73372 59.9946 13.73372 7.1565 1.24852 12.1506 1.24852 4.9941 0 6.2426 0 19.9763 0 42.2945-8.73964 22.6526-9.98816 29.3434-34.95856 2.3418-8.73964-2.1384-19.97632-3.2318-11.23668-13.1303-16.23076l-4.3251-2.49704-40.2631-17.47928-97.5815-41.20117q-85.1858-36.20708-112.157-98.63308-25.3882-63.67452 1.375-163.55612 17.7306-66.17156 57.6658-117.36088 41.1835-51.18932 95.1628-84.89936 55.2279-33.71004 102.2715-46.19524 47.3781-13.73372 117.2952-13.73372 23.7219 0 49.6063 1.24852 25.8843 1.24852 51.0996 4.99408l16.7687-29.96448 223.5922 46.19524-156.5149 285.91108q-45.9023-33.71004-102.7308-49.9408-55.2454-17.47928-85.2098-17.47928-16.2308 0-33.7998 4.99408-16.3203 4.99408-26.4877 14.98224-10.1675 9.98816-13.5129 22.47336-2.6763 9.98816 1.2245 18.7278 5.1494 8.73964 15.3824 12.4852l116.2196 46.19524 37.7661 17.47928q140.4728 86.14788 96.9827 248.45549-5.6872 21.22484-25.8908 68.6686-19.8691 46.19524-72.6239 98.63308-51.5063 52.4378-95.9872 78.6568-44.481 26.2189-100.0194 42.4496-55.8728 17.4793-147.0147 17.4793-34.9586 0-69.493-6.2426-34.5344-6.2426-93.1908-24.9704z"/></g></g></svg>