<svg enable-background="new 0 0 566.929 129.21" height="150.6516" viewBox="0 0 488.78252 120.52128" width="610.97815" xmlns="http://www.w3.org/2000/svg"><g transform="matrix(.10252157 0 0 .10252157 149.66656 -3.581866)"><text fill="#ef00eb" font-family="TrasksHand" font-size="1.6" stroke="#0105ff" stroke-width="2" x="-1210.0178" y="950.1994"><tspan fill="#fafafa" fill-opacity=".4" font-size="1.6" stroke="none" stroke-width="2" x="-1210.0178" y="950.1994">John Loreth 2022</tspan></text><path d="m-1156.4036 289.56797h4275.1025c120.4937 0 209.376 89.0658 185.0151 179.98179l-87.6189 319.44057c-21.9525 80.03433-110.3027 149.80211-193.2931 149.80211h-4329.4662c-82.9904 0-171.7547-69.76781-149.8022-149.80211l95.897-349.62025c18.7065-68.20003 90.9733-149.80211 204.1658-149.80211z" fill="#2285c8"/><path d="m-609.38278 34.937686h1493.88306c152.46092 0 301.30582 161.678464 251.82042 342.091594l-114.9204 418.97603c-78.54241 293.12439-276.22837 409.51379-433.47633 414.50229h-1483.77896c-150.27311 0-311.00111-126.3307-271.25111-271.25118l169.81586-619.11333c41.77631-155.91104 253.84899-280.673069 387.90746-285.205404z" fill="#050608"/><g stroke="none" stroke-width="24.3851"><g fill="#ed1e24" transform="matrix(1.0012556 0 -.26828559 .99874598 0 0)"><path d="m-616.47217 966.59955h-221.25433l135.05134-503.80857h-47.89055l67.04677-185.81533h341.93852l194.43563 689.6239h-227.95901l-19.15622-95.7811h-194.43563zm71.83582-277.76518h107.27483l-54.59522-204.01374z"/><path d="m-127.03074 483.86282h-47.89055l47.89055-206.88717h214.549656v475.07424h144.629454l-48.84836 214.54966h-310.33075z"/><path d="m259.92428 483.86282h-47.89055l47.89055-206.88717h214.54965v475.07424h144.62946l-48.84836 214.54966h-310.33075z"/><path d="m646.87923 485.77844h-47.89055l47.89055-208.80279h285.42767l8.6203-27.77652h191.5622l-54.5952 242.32618h-216.46531v39.27025h251.90431l-45.975 178.15284h-205.92931v42.14368h248.07301l-50.7639 215.50747h-411.85877z"/></g><g fill="#fff" transform="matrix(1.0030514 0 -.25222563 .99695792 0 0)"><path d="m1427.5218 783.99964q-27.4143-8.32218-52.3808-22.0293l27.9038-101.82432 16.1548 7.3431q27.9038 12.2385 44.5481 18.11298 17.1339 5.38494 24.9666 5.38494 2.9372.48954 4.8954.48954 1.9581 0 2.4477 0 7.8326 0 15.6652-3.42678 7.8327-3.91632 7.8327-13.70712 0-3.42678-2.9373-7.83264-2.4477-4.40586-6.8535-6.36402l-1.9582-.97908-17.6234-6.85356-42.59-16.15482q-37.205-14.19666-54.3389-38.67366-16.6444-24.96654-16.6444-64.12974 0-25.94562 10.2803-46.01676 10.7699-20.07114 28.3934-33.28872 18.1129-13.21758 35.2468-18.11298 17.1339-5.38494 44.5482-5.38494 9.3012 0 19.5816.48954 10.2803.48954 20.5607 1.95816l3.4267-11.74896 92.5231 18.11298-31.3306 112.10466q-21.5397-13.21758-45.5272-19.5816-23.4979-6.85356-35.2469-6.85356-6.364 0-12.728 1.95816-5.8745 1.95816-8.8117 5.87448-2.9373 3.91632-2.9373 8.81172 0 3.91632 2.4477 7.3431 2.9373 3.42678 7.3431 4.8954l50.4227 18.11298 16.6443 6.85356q64.1298 33.77826 64.1298 97.41846 0 8.32218-2.9373 26.9247-2.9372 18.11298-18.113 38.67366-14.6862 20.56068-29.3724 30.84102-14.6862 10.28034-34.7573 16.64436-20.0711 6.85356-55.8076 6.85356-13.7071 0-27.9037-2.4477-14.1967-2.4477-39.1632-9.7908z"/><path d="m1666.9072 541.67734h-24.477l24.477-104.76156h130.2176q7.3431 0 11.749.48954 4.4058.48954 53.3598 9.30126 48.954 8.81172 58.7448 57.27618 10.2804 47.97492 10.7699 55.31802.4896 7.3431.4896 17.1339 0 33.77826-11.2595 58.7448-10.7698 24.96654-32.7991 43.56906-21.5398 18.60252-39.1632 26.43516-17.6235 7.3431-38.6737 7.3431h-33.7783v76.85778h-109.6569zm109.6569 67.55652h21.0503q7.8326 0 15.1757-6.85356 7.8326-7.3431 9.3013-15.66528 1.4686-8.81172 1.4686-11.74896 0-14.19666-6.8536-22.0293-6.364-8.32218-15.6653-8.32218h-24.477z"/><path d="m1956.7144 543.6355h-24.477l24.477-106.71972h145.8829l4.4059-14.19666h97.908l-27.9038 123.85362h-110.636v20.07114h128.749l-23.4979 91.05444h-105.2511v21.53976h126.7908l-25.9456 110.1465h-210.5022z"/><path d="m2229.3878 542.65642h-24.477l24.477-105.74064h109.657v242.81184h73.9205l-24.9665 109.65696h-158.611z"/><path d="m2427.1617 542.65642h-24.477l24.477-105.74064h109.6569v242.81184h73.9206l-24.9666 109.65696h-158.6109z"/><path d="m2624.9355 543.6355h-24.477l24.477-106.71972h145.8829l4.4059-14.19666h97.908l-27.9038 123.85362h-110.6361v20.07114h128.7491l-23.498 91.05444h-105.2511v21.53976h126.7909l-25.9456 110.1465h-210.5022z"/><path d="m2897.6088 531.88654h-24.477l24.477-94.97076h111.1256l76.8578 120.42684v-120.42684h109.1674v352.4688h-88.6067l-98.8871-157.14234v157.14234h-109.657z"/></g></g></g></svg>