<svg enable-background="new 0 0 566.929 129.21" height="150.6516" viewBox="0 0 535.13286 120.52128" width="668.91608" xmlns="http://www.w3.org/2000/svg"><g transform="matrix(.10252157 0 0 .10252157 149.66656 -3.581866)"><text fill="#ef00eb" font-family="TrasksHand" font-size="15.6065" stroke="#0105ff" stroke-width="19.5081" x="-1308.9327" y="956.91675"><tspan fill="#fafafa" fill-opacity=".4" font-size="15.6065" stroke="none" stroke-width="19.5081" x="-1308.9327" y="956.91675">John Loreth 2022</tspan></text><path d="m-1156.4036 289.56797h4727.2057c120.4937 0 209.376 89.0658 185.0151 179.98179l-87.6189 319.44057c-21.9525 80.03433-110.3027 149.80211-193.2931 149.80211h-4781.5694c-82.9904 0-171.7547-69.76781-149.8022-149.80211l95.897-349.62025c18.7065-68.20003 90.9733-149.80211 204.1658-149.80211z" fill="#2285c8"/><path d="m-609.38278 34.937686h1962.07718c152.461 0 301.3059 161.678464 251.8205 342.091594l-114.9204 418.97603c-78.5425 293.12439-276.2284 409.51379-433.4764 414.50229h-1951.97309c-150.27311 0-311.00111-126.3307-271.25111-271.25118l169.81586-619.11333c41.77631-155.91104 253.84899-280.673069 387.90746-285.205404z" fill="#050608"/><g stroke="none" stroke-width="24.3851"><g fill="#ed1e24" transform="matrix(1.0012556 0 -.26828559 .99874598 0 0)"><path d="m-677.66703 476.56153h-132.21517l50.08151-213.34719h287.46781l6.00978-29.04727h203.33089l-58.09454 245.39935h-132.21516v504.82152h-223.36349z"/><path d="m-258.98604 670.87775q-2.00326-15.02445-3.00489-31.05053-1.00163-16.02608-1.00163-46.07498 0-25.04075 6.00978-51.08313 7.01141-26.04238 28.04564-81.13203 22.03586-55.08965 84.13692-108.17604 62.10106-54.08802 114.18582-75.12225 52.084761-22.03586 122.198861-28.04564 9.014669 0 18.029339 0 9.01467 0 18.02934-1.00163 14.02282 0 21.03423 1.00163 49.07987 0 90.1467 14.02282 41.06683 13.02119 89.14507 43.07009 49.07987 29.04727 77.12551 62.10106 28.04564 32.05216 46.07498 60.0978 19.03097 28.04564 32.05216 65.10595 13.02119 37.06031 18.02934 76.12388 5.00815 38.06194 5.00815 62.10106 0 67.10921-27.04401 128.20864-26.04238 61.09943-54.08802 96.15648-27.04401 34.05542-63.10269 60.0978-35.05705 26.04238-64.10432 40.0652-29.04727 14.02282-62.10106 24.03912-32.05216 9.01467-69.11247 12.01956-37.06031 3.00489-72.117359 3.00489l-52.08476-7.01141q-62.101061-12.01956-107.174411-35.05705-44.07172-24.03912-90.1467-70.1141-45.07335-46.07498-70.1141-96.15648-25.04075-51.08313-34.05542-117.19071zm234.38142-34.05542q5.00815 49.07987 38.061941 84.13692 34.05542 35.05705 62.10106 40.0652 29.047269 5.00815 35.057049 5.00815 6.00978 0 13.02119 0 6.00978 0 12.01956 0 8.01304-2.00326 49.07987-8.01304 41.06683-7.01141 58.09454-50.0815 18.02934-43.07009 20.0326-53.08639 3.00489-10.0163 3.00489-22.03586 0-59.09617-32.05216-101.16463-32.05216-42.06846-65.10595-47.07661-32.05216-6.00978-46.07498-6.00978-21.03423 0-38.061939 4.00652-16.02608 4.00652-37.06031 16.02608-20.0326 11.01793-47.07661051 40.0652-26.04238049 29.04727-26.04238049 81.13203 0 11.01793 1.00163 17.02771z"/><path d="m638.47396 476.56153h-132.21516l50.0815-213.34719h287.46781l6.00978-29.04727h203.33091l-58.09456 245.39935h-132.21516v504.82152h-223.36349z"/><path d="m1168.3359 973.37001q-56.0913-17.02771-107.1744-45.07335l57.0929-208.33904 33.0538 15.02445q57.0929 25.04075 91.1483 37.06031 35.0571 11.01793 51.0831 11.01793 6.0098 1.00163 10.0163 1.00163 4.0066 0 5.0082 0 16.0261 0 32.0521-7.01141 16.0261-8.01304 16.0261-28.04564 0-7.01141-6.0098-16.02608-5.0081-9.01467-14.0228-13.02119l-4.0065-2.00326-36.0587-14.02282-87.1418-33.05379q-76.1239-29.04727-111.1809-79.12877-34.0554-51.08313-34.0554-131.21353 0-53.08639 21.0342-94.15322 22.0359-41.06683 58.0945-68.11084 37.0603-27.04401 72.1174-37.06031 35.057-11.01793 91.1483-11.01793 19.031 0 40.0652 1.00163 21.0343 1.00163 42.0685 4.00652l7.0114-24.03912 189.3081 37.06031-64.1044 229.37327q-44.0717-27.04401-93.1515-40.0652-48.0783-14.02282-72.1174-14.02282-13.0212 0-26.0424 4.00652-12.0195 4.00652-18.0293 12.01956-6.0098 8.01304-6.0098 18.02934 0 8.01304 5.0081 15.02445 6.0098 7.01141 15.0245 10.0163l103.1679 37.06031 34.0554 14.02282q131.2135 69.11247 131.2135 199.32437 0 17.02771-6.0097 55.08965-6.0098 37.06031-37.0604 79.12877-30.0489 42.06846-60.0978 63.10269-30.0489 21.03423-71.1157 34.05542-41.0668 14.02282-114.1858 14.02282-28.0456 0-57.0929-5.00815-29.0473-5.00815-80.1304-20.0326z"/></g><g fill="#fff" transform="matrix(1.0030514 0 -.25222563 .99695789 0 0)"><path d="m1871.6396 543.6355h-24.477l24.477-106.71972h145.8829l4.4059-14.19666h97.908l-27.9038 123.85362h-110.6361v20.07114h128.7491l-23.498 91.05444h-105.2511v21.53976h126.7909l-25.9456 110.1465h-210.5022z"/><path d="m2144.313 542.65642h-24.477l24.477-105.74064h109.6569v242.81184h73.9206l-24.9666 109.65696h-158.6109z"/><path d="m2468.8781 781.0624-12.728-6.36402 27.4142-101.33478 7.3431 5.38494q13.7072 7.83264 24.477 7.83264 19.5816 0 22.5189-15.17574 3.4268-15.66528 3.4268-21.05022v-108.67788h-77.8369l24.9665-104.76156h162.0378v236.93736q0 9.30126-1.4686 18.60252-1.4687 9.30126-10.2804 36.22596-8.8117 26.9247-34.2678 42.58998-24.9665 15.66528-42.1004 19.5816-17.1339 3.91632-38.1841 3.91632-25.4561 0-55.3181-13.70712z"/><path d="m2676.9329 636.15856q-.979-7.3431-1.4686-15.17574-.4895-7.83264-.4895-22.51884 0-12.2385 2.9372-24.96654 3.4268-12.72804 13.7071-39.65274 10.7699-26.9247 41.1214-52.87032 30.3515-26.43516 55.8076-36.7155 25.456-10.76988 59.7238-13.70712 4.4059 0 8.8118 0 4.4058 0 8.8117-.48954 6.8535 0 10.2803.48954 23.9875 0 44.0586 6.85356 20.0712 6.36402 43.5691 21.05022 23.9874 14.19666 37.6946 30.35148 13.7071 15.66528 22.5188 29.3724 9.3013 13.70712 15.6653 31.8201 6.364 18.11298 8.8117 37.20504 2.4477 18.60252 2.4477 30.35148 0 32.79918-13.2176 62.66112-12.728 29.86194-26.4351 46.99584-13.2176 16.64436-30.8411 29.3724-17.1339 12.72804-31.3305 19.5816-14.1967 6.85356-30.3515 11.74896-15.6653 4.40586-33.7783 5.87448-18.1129 1.46862-35.2468 1.46862l-25.4561-3.42678q-30.3515-5.87448-52.3808-17.1339-21.5398-11.74896-44.0586-34.2678-22.0293-22.51884-34.2678-46.99584-12.2385-24.96654-16.6444-57.27618zm114.5524-16.64436q2.4477 23.98746 18.6025 41.12136 16.6444 17.1339 30.3515 19.5816 14.1967 2.4477 17.1339 2.4477 2.9372 0 6.364 0 2.9373 0 5.8745 0 3.9163-.97908 23.9875-3.91632 20.0711-3.42678 28.3933-24.477 8.8117-21.05022 9.7908-25.94562 1.4686-4.8954 1.4686-10.76988 0-28.88286-15.6653-49.44354-15.6653-20.56068-31.8201-23.00838-15.6653-2.93724-22.5188-2.93724-10.2804 0-18.6025 1.95816-7.8327 1.95816-18.113 7.83264-9.7908 5.38494-23.0084 19.5816-12.728 14.19666-12.728 39.65274 0 5.38494.4895 8.32218z"/><path d="m3268.297 431.53084 12.2385 1.95816 6.8536-12.2385 88.6067 33.77826-51.4017 114.55236-14.1967-10.76988q-32.3096-21.05022-57.2761-21.05022-9.7908 0-23.9875 4.40586-13.7071 3.91632-31.8201 22.0293-18.113 17.62344-18.113 45.03768 0 10.28034 7.3431 33.28872 7.3431 23.00838 30.841 31.8201 23.498 8.81172 34.7574 8.81172 30.3515 0 63.1506-27.90378l7.8327-7.3431 48.4644 100.84524q-20.0711 18.60252-46.5063 29.86194-25.9456 11.25942-44.5481 13.21758-18.113 1.95816-22.0293 1.95816-3.9163.48954-6.8536.48954-30.841 0-57.7657-9.7908-26.4351-9.7908-43.569-20.07114-17.1339-10.76988-35.2469-28.39332-17.6235-18.11298-28.3933-36.7155-10.2804-18.60252-16.1549-43.07952-5.8744-24.477-5.8744-44.54814 0-16.64436 4.8954-39.65274 4.8954-23.49792 21.5397-54.82848 16.6444-31.8201 38.6737-46.5063 22.5188-15.17574 30.3515-19.5816 8.3221-4.40586 20.5606-9.30126 12.2385-5.38494 27.4143-8.32218 15.6653-3.42678 33.2887-3.42678 12.2385 0 26.9247 1.46862z"/><path d="m3445.9998 783.99964q-27.4143-8.32218-52.3808-22.0293l27.9038-101.82432 16.1548 7.3431q27.9038 12.2385 44.5481 18.11298 17.1339 5.38494 24.9666 5.38494 2.9372.48954 4.8954.48954 1.9581 0 2.4477 0 7.8326 0 15.6653-3.42678 7.8326-3.91632 7.8326-13.70712 0-3.42678-2.9372-7.83264-2.4477-4.40586-6.8536-6.36402l-1.9582-.97908-17.6234-6.85356-42.59-16.15482q-37.205-14.19666-54.3389-38.67366-16.6444-24.96654-16.6444-64.12974 0-25.94562 10.2804-46.01676 10.7698-20.07114 28.3933-33.28872 18.113-13.21758 35.2469-18.11298 17.1339-5.38494 44.5481-5.38494 9.3013 0 19.5816.48954 10.2803.48954 20.5607 1.95816l3.4268-11.74896 92.523 18.11298-31.3305 112.10466q-21.5398-13.21758-45.5273-19.5816-23.4979-6.85356-35.2468-6.85356-6.3641 0-12.7281 1.95816-5.8745 1.95816-8.8117 5.87448-2.9372 3.91632-2.9372 8.81172 0 3.91632 2.4477 7.3431 2.9372 3.42678 7.3431 4.8954l50.4226 18.11298 16.6443 6.85356q64.1298 33.77826 64.1298 97.41846 0 8.32218-2.9373 26.9247-2.9372 18.11298-18.1129 38.67366-14.6862 20.56068-29.3724 30.84102-14.6862 10.28034-34.7574 16.64436-20.0711 6.85356-55.8075 6.85356-13.7072 0-27.9038-2.4477-14.1967-2.4477-39.1632-9.7908z"/></g></g></g></svg>