<svg enable-background="new 0 0 566.929 129.21" height="150.6516" viewBox="0 0 729.13281 120.52128" width="911.41602" xmlns="http://www.w3.org/2000/svg"><g transform="matrix(.10252157 0 0 .10252157 149.66656 -3.581866)"><path d="m-1156.4036 289.56797h6619.4903c120.4937 0 209.376 89.0658 185.0151 179.98179l-87.6189 319.44057c-21.9525 80.03433-110.3027 149.80211-193.2931 149.80211h-6673.854c-82.9904 0-171.7547-69.76781-149.8022-149.80211l95.897-349.62025c18.7065-68.20003 90.9733-149.80211 204.1658-149.80211z" fill="#2285c8"/><path d="m-609.38278 34.937686h2800.92508c152.4609 0 301.3058 161.678464 251.8204 342.091594l-114.9204 418.97603c-78.5424 293.12439-276.2283 409.51379-433.4763 414.50229h-2790.82099c-150.27311 0-311.00111-126.3307-271.25111-271.25118l169.81586-619.11333c41.77631-155.91104 253.84899-280.673069 387.90746-285.205404z" fill="#050608"/><g stroke="none" stroke-width="24.3851"><g fill="#ed1e24" transform="matrix(1.0012556 0 -.2682856 .99874598 31.212944 -10.140078)"><path d="m-607.45198 500.57727h-120.1699l45.5189-193.91051h261.27848l5.46227-26.40096h184.80673l-52.80192 223.04261h-120.16989v458.83051h-203.0143z"/><path d="m-226.91431 677.1906q-1.82076-13.65566-2.73114-28.22171-.91038-14.56605-.91038-41.87739 0-22.75945 5.46227-46.42928 6.37265-23.66983 25.49059-73.74062 20.02831-50.07078 76.47175-98.32082 56.443433-49.16041 103.783089-68.27835 47.339655-20.02831 111.066115-25.49058 8.193402 0 16.386806 0 8.1934 0 16.3868-.91038 12.74529 0 19.11794.91038 44.60852 0 81.93402 12.74529 37.3255 11.83491 81.02364 39.14625 44.60852 26.40097 70.0991 56.44344 25.49059 29.1321 41.87739 54.62268 17.29718 25.49058 29.1321 59.17457 11.83491 33.68398 16.3868 69.18873 4.55189 34.59436 4.55189 56.44343 0 60.99533-24.5802 116.52838-23.66983 55.53306-49.16042 87.39629-24.5802 30.95285-57.35381 54.62268-31.86323 23.66983-58.26419 36.41512-26.40096 12.74529-56.44344 21.84907-29.13209 8.1934-62.81608 10.92454-33.68398 2.73113-65.547212 2.73113l-47.339656-6.37264q-56.4434353-10.92454-97.410445-31.86323-40.056632-21.84908-81.934017-63.72646-40.96701-41.87739-63.72646-87.39629-22.75945-46.42928-30.95285-106.51423zm213.028447-30.95285q4.5518897 44.60852 34.594363 76.47175 30.952852 31.86323 56.443436 36.41512 26.400964 4.55189 31.863234 4.55189 5.46226 0 11.83491 0 5.46227 0 10.92454 0 7.28302-1.82075 44.60852-7.28302 37.32549-6.37265 52.80192-45.5189 16.3868-39.14625 18.20756-48.25003 2.73113-9.10378 2.73113-20.02832 0-53.7123-29.13209-91.94818-29.1321-38.23587-59.17457-42.78776-29.1321-5.46227-41.87739-5.46227-19.11794 0-34.594362 3.64151-14.566048 3.64151-33.683986 14.56605-18.20756 10.01416-42.7877655 36.41512-23.6698275 26.40096-23.6698275 73.74062 0 10.01416.910378 15.47642z"/><path d="m520.50563 502.39803h-45.5189l45.5189-195.73127h233.05676q118.34914 0 190.269 66.4576 72.83021 66.45759 90.12741 113.79724 18.2076 46.42928 21.8491 80.11327 4.5519 32.77361 4.5519 82.8444 0 22.75944-5.4623 46.42927-4.5519 23.66983-25.4906 79.20289-20.9387 55.53306-78.29248 103.78309-57.35382 47.33965-111.06612 65.54721-53.7123 17.29719-127.45292 17.29719h-192.08975zm203.92467 253.08508h18.20756q49.16041-4.55189 79.20288-37.3255 30.95286-33.68398 30.95286-85.57553 0-13.65567-8.19341-50.98116-7.28302-38.23588-45.5189-58.2642-38.23587-20.02831-74.65099-20.02831z"/><path d="m1090.4013 677.1906q-1.8207-13.65566-2.7311-28.22171-.9104-14.56605-.9104-41.87739 0-22.75945 5.4623-46.42928 6.3726-23.66983 25.4906-73.74062 20.0283-50.07078 76.4717-98.32082 56.4435-49.16041 103.7831-68.27835 47.3397-20.02831 111.0661-25.49058 8.1934 0 16.3868 0 8.1934 0 16.3868-.91038 12.7453 0 19.118.91038 44.6085 0 81.934 12.74529 37.3255 11.83491 81.0236 39.14625 44.6086 26.40097 70.0991 56.44344 25.4906 29.1321 41.8774 54.62268 17.2972 25.49058 29.1321 59.17457 11.8349 33.68398 16.3868 69.18873 4.5519 34.59436 4.5519 56.44343 0 60.99533-24.5802 116.52838-23.6698 55.53306-49.1604 87.39629-24.5802 30.95285-57.3538 54.62268-31.8632 23.66983-58.2642 36.41512-26.401 12.74529-56.4434 21.84907-29.1321 8.1934-62.8161 10.92454-33.684 2.73113-65.5472 2.73113l-47.3397-6.37264q-56.4434-10.92454-97.4104-31.86323-40.0567-21.84908-81.9341-63.72646-40.967-41.87739-63.7264-87.39629-22.7595-46.42928-30.9529-106.51423zm213.0285-30.95285q4.5519 44.60852 34.5943 76.47175 30.9529 31.86323 56.4435 36.41512 26.4009 4.55189 31.8632 4.55189 5.4623 0 11.8349 0 5.4623 0 10.9246 0 7.283-1.82075 44.6085-7.28302 37.3255-6.37265 52.8019-45.5189 16.3868-39.14625 18.2076-48.25003 2.7311-9.10378 2.7311-20.02832 0-53.7123-29.1321-91.94818-29.1321-38.23587-59.1746-42.78776-29.1321-5.46227-41.8774-5.46227-19.1179 0-34.5943 3.64151-14.5661 3.64151-33.684 14.56605-18.2076 10.01416-42.7878 36.41512-23.6698 26.40096-23.6698 73.74062 0 10.01416.9104 15.47642z"/><path d="m1916.1137 952.12476q-50.9812-15.47643-97.4105-40.96701l51.8916-189.35862 30.0425 13.65567q51.8915 22.75945 82.8444 33.68398 31.8632 10.01416 46.4292 10.01416 5.4623.91038 9.1038.91038 3.6415 0 4.5519 0 14.5661 0 29.1321-6.37265 14.566-7.28302 14.566-25.49058 0-6.37265-5.4622-14.56605-4.5519-8.1934-12.7453-11.83491l-3.6415-1.82076-32.7736-12.74529-79.2029-30.04248q-69.1887-26.40096-101.052-71.91986-30.9528-46.42927-30.9528-119.25951 0-48.25004 19.1179-85.57553 20.0283-37.3255 52.8019-61.90571 33.684-24.5802 65.5473-33.68398 31.8632-10.01416 82.8444-10.01416 17.2971 0 36.4151.91038 19.1179.91037 38.2358 3.64151l6.3727-21.84907 172.0614 33.68398-58.2642 208.47656q-40.0566-24.5802-84.6651-36.41512-43.6982-12.74529-65.5472-12.74529-11.8349 0-23.6699 3.64151-10.9245 3.64151-16.3868 10.92454-5.4622 7.28302-5.4622 16.3868 0 7.28303 4.5519 13.65567 5.4622 6.37265 13.6556 9.10378l93.769 33.68399 30.9528 12.74529q119.2595 62.81608 119.2595 181.16522 0 15.47643-5.4622 50.07079-5.4623 33.68399-33.684 71.91986-27.3114 38.23588-54.6227 57.35381-27.3113 19.11794-64.6368 30.95286-37.3255 12.74529-103.7831 12.74529-25.4906 0-51.8916-4.55189-26.4009-4.55189-72.8302-18.20756z"/></g><g fill="#fff" transform="matrix(1.0030514 0 -.25222563 .99695789 0 0)"><path d="m2707.9611 542.65642h-24.477l24.477-105.74064h109.657v242.81184h73.9205l-24.9665 109.65696h-158.611z"/><path d="m2893.4964 636.15856q-.979-7.3431-1.4686-15.17574-.4895-7.83264-.4895-22.51884 0-12.2385 2.9372-24.96654 3.4268-12.72804 13.7071-39.65274 10.7699-26.9247 41.1214-52.87032 30.3515-26.43516 55.8076-36.7155 25.456-10.76988 59.7238-13.70712 4.4059 0 8.8118 0 4.4058 0 8.8117-.48954 6.8535 0 10.2803.48954 23.9875 0 44.0586 6.85356 20.0712 6.36402 43.5691 21.05022 23.9874 14.19666 37.6946 30.35148 13.7071 15.66528 22.5188 29.3724 9.3013 13.70712 15.6653 31.8201 6.364 18.11298 8.8117 37.20504 2.4477 18.60252 2.4477 30.35148 0 32.79918-13.2176 62.66112-12.728 29.86194-26.4351 46.99584-13.2176 16.64436-30.8411 29.3724-17.1339 12.72804-31.3305 19.5816-14.1967 6.85356-30.3515 11.74896-15.6653 4.40586-33.7783 5.87448-18.1129 1.46862-35.2468 1.46862l-25.4561-3.42678q-30.3515-5.87448-52.3808-17.1339-21.5398-11.74896-44.0586-34.2678-22.0293-22.51884-34.2678-46.99584-12.2385-24.96654-16.6444-57.27618zm114.5524-16.64436q2.4477 23.98746 18.6025 41.12136 16.6444 17.1339 30.3515 19.5816 14.1967 2.4477 17.1339 2.4477 2.9372 0 6.364 0 2.9373 0 5.8745 0 3.9163-.97908 23.9875-3.91632 20.0711-3.42678 28.3933-24.477 8.8117-21.05022 9.7908-25.94562 1.4686-4.8954 1.4686-10.76988 0-28.88286-15.6653-49.44354-15.6653-20.56068-31.8201-23.00838-15.6653-2.93724-22.5188-2.93724-10.2804 0-18.6025 1.95816-7.8327 1.95816-18.113 7.83264-9.7908 5.38494-23.0084 19.5816-12.728 14.19666-12.728 39.65274 0 5.38494.4895 8.32218z"/><path d="m3337.509 783.99964q-27.4142-8.32218-52.3808-22.0293l27.9038-101.82432 16.1548 7.3431q27.9038 12.2385 44.5482 18.11298 17.1339 5.38494 24.9665 5.38494 2.9372.48954 4.8954.48954 1.9582 0 2.4477 0 7.8326 0 15.6653-3.42678 7.8326-3.91632 7.8326-13.70712 0-3.42678-2.9372-7.83264-2.4477-4.40586-6.8536-6.36402l-1.9581-.97908-17.6235-6.85356-42.59-16.15482q-37.205-14.19666-54.3389-38.67366-16.6444-24.96654-16.6444-64.12974 0-25.94562 10.2804-46.01676 10.7699-20.07114 28.3933-33.28872 18.113-13.21758 35.2469-18.11298 17.1339-5.38494 44.5481-5.38494 9.3013 0 19.5816.48954 10.2804.48954 20.5607 1.95816l3.4268-11.74896 92.523 18.11298-31.3305 112.10466q-21.5398-13.21758-45.5272-19.5816-23.498-6.85356-35.2469-6.85356-6.364 0-12.7281 1.95816-5.8744 1.95816-8.8117 5.87448-2.9372 3.91632-2.9372 8.81172 0 3.91632 2.4477 7.3431 2.9372 3.42678 7.3431 4.8954l50.4226 18.11298 16.6444 6.85356q64.1297 33.77826 64.1297 97.41846 0 8.32218-2.9372 26.9247-2.9373 18.11298-18.113 38.67366-14.6862 20.56068-29.3724 30.84102-14.6862 10.28034-34.7574 16.64436-20.0711 6.85356-55.8075 6.85356-13.7071 0-27.9038-2.4477-14.1967-2.4477-39.1632-9.7908z"/><path d="m3703.6858 781.0624-12.7281-6.36402 27.4143-101.33478 7.3431 5.38494q13.7071 7.83264 24.477 7.83264 19.5816 0 22.5188-15.17574 3.4268-15.66528 3.4268-21.05022v-108.67788h-77.8369l24.9666-104.76156h162.0377v236.93736q0 9.30126-1.4686 18.60252-1.4686 9.30126-10.2804 36.22596-8.8117 26.9247-34.2678 42.58998-24.9665 15.66528-42.1004 19.5816-17.1339 3.91632-38.1841 3.91632-25.4561 0-55.318-13.70712z"/><path d="m3923.9791 541.1878h-24.477l24.477-104.27202h109.6569v219.80346q0 12.2385 8.8117 20.56068 8.8118 8.32218 23.9875 8.32218 16.1548 0 26.4352-9.30126 10.2803-9.30126 10.2803-25.45608v-213.92898h109.1674v227.14656q0 8.81172-1.4686 18.60252-1.4686 9.7908-16.6444 56.78664-14.6862 46.5063-66.0879 51.4017-51.4017 5.38494-62.1715 5.38494-49.4436 0-85.18-23.00838-35.2469-23.00838-44.0586-48.46446-8.8117-25.45608-10.7699-36.22596-1.9581-10.76988-1.9581-17.62344z"/><path d="m4250.9914 543.6355h-24.477l24.477-106.71972h145.8829l4.4059-14.19666h97.908l-27.9038 123.85362h-110.6361v20.07114h128.7491l-23.498 91.05444h-105.2511v21.53976h126.7909l-25.9456 110.1465h-210.5022z"/><path d="m4624.5101 443.2798q17.6234-6.85356 34.7573-10.28034 17.1339-3.42678 32.3097-3.42678 31.8201 0 56.2971 13.70712l6.8535-6.36402 76.8578 40.63182-78.8159 83.71134-5.8745-3.42678-9.3013-4.40586q-14.1966-6.36402-21.5397-7.83264-7.3431-1.46862-13.2176-1.95816-5.8745-.48954-11.2594-.48954-46.0168 0-57.2762 23.49792-10.7699 23.00838-12.2385 27.41424-1.4686 4.40586-1.4686 12.2385-.4896 3.91632-.4896 10.76988 0 28.39332 17.6235 46.01676 17.6234 17.1339 33.2887 21.05022 15.6653 3.42678 26.4351 3.42678 19.5816 0 28.8829-6.85356 9.3013-6.85356 12.2385-10.28034 3.4268-3.42678 7.3431-8.32218h-56.7866l23.9874-91.05444h163.9959l.4896 6.85356.4895 8.32218q0 28.88286-6.8535 59.23434-6.3641 30.35148-17.1339 52.38078-10.2804 21.53976-28.3934 40.14228-18.113 18.11298-37.205 30.84102-18.6025 12.2385-41.6109 19.5816-22.5189 7.3431-47.9749 7.3431-11.749 0-38.6737-2.93724-26.9247-2.4477-50.4226-15.66528-23.0084-13.21758-34.2678-22.51884-11.2594-9.30126-28.8829-29.86194-17.1339-21.05022-27.4142-48.954-10.2804-28.39332-10.2804-66.0879 0-51.89124 18.113-79.30548 18.113-27.90378 31.8201-42.10044 14.1967-14.6862 30.841-25.94562 16.6444-11.74896 34.7574-19.09206z"/><path d="m4894.2465 636.15856q-.979-7.3431-1.4686-15.17574-.4895-7.83264-.4895-22.51884 0-12.2385 2.9372-24.96654 3.4268-12.72804 13.7071-39.65274 10.7699-26.9247 41.1214-52.87032 30.3515-26.43516 55.8076-36.7155 25.456-10.76988 59.7238-13.70712 4.4059 0 8.8118 0 4.4058 0 8.8117-.48954 6.8535 0 10.2803.48954 23.9875 0 44.0586 6.85356 20.0712 6.36402 43.5691 21.05022 23.9874 14.19666 37.6946 30.35148 13.7071 15.66528 22.5188 29.3724 9.3013 13.70712 15.6653 31.8201 6.364 18.11298 8.8117 37.20504 2.4477 18.60252 2.4477 30.35148 0 32.79918-13.2176 62.66112-12.728 29.86194-26.4351 46.99584-13.2176 16.64436-30.8411 29.3724-17.1339 12.72804-31.3305 19.5816-14.1967 6.85356-30.3515 11.74896-15.6653 4.40586-33.7783 5.87448-18.1129 1.46862-35.2468 1.46862l-25.4561-3.42678q-30.3515-5.87448-52.3808-17.1339-21.5398-11.74896-44.0586-34.2678-22.0293-22.51884-34.2678-46.99584-12.2385-24.96654-16.6444-57.27618zm114.5524-16.64436q2.4477 23.98746 18.6025 41.12136 16.6444 17.1339 30.3515 19.5816 14.1967 2.4477 17.1339 2.4477 2.9372 0 6.364 0 2.9373 0 5.8745 0 3.9163-.97908 23.9875-3.91632 20.0711-3.42678 28.3933-24.477 8.8117-21.05022 9.7908-25.94562 1.4686-4.8954 1.4686-10.76988 0-28.88286-15.6653-49.44354-15.6653-20.56068-31.8201-23.00838-15.6653-2.93724-22.5188-2.93724-10.2804 0-18.6025 1.95816-7.8327 1.95816-18.113 7.83264-9.7908 5.38494-23.0084 19.5816-12.728 14.19666-12.728 39.65274 0 5.38494.4895 8.32218z"/><path d="m5338.2591 783.99964q-27.4143-8.32218-52.3808-22.0293l27.9038-101.82432 16.1548 7.3431q27.9038 12.2385 44.5481 18.11298 17.1339 5.38494 24.9666 5.38494 2.9372.48954 4.8954.48954 1.9581 0 2.4477 0 7.8326 0 15.6652-3.42678 7.8327-3.91632 7.8327-13.70712 0-3.42678-2.9373-7.83264-2.4477-4.40586-6.8535-6.36402l-1.9582-.97908-17.6234-6.85356-42.59-16.15482q-37.205-14.19666-54.3389-38.67366-16.6444-24.96654-16.6444-64.12974 0-25.94562 10.2803-46.01676 10.7699-20.07114 28.3934-33.28872 18.1129-13.21758 35.2468-18.11298 17.1339-5.38494 44.5482-5.38494 9.3012 0 19.5816.48954 10.2803.48954 20.5607 1.95816l3.4267-11.74896 92.5231 18.11298-31.3306 112.10466q-21.5397-13.21758-45.5272-19.5816-23.4979-6.85356-35.2469-6.85356-6.364 0-12.728 1.95816-5.8745 1.95816-8.8117 5.87448-2.9373 3.91632-2.9373 8.81172 0 3.91632 2.4477 7.3431 2.9373 3.42678 7.3431 4.8954l50.4227 18.11298 16.6443 6.85356q64.1298 33.77826 64.1298 97.41846 0 8.32218-2.9373 26.9247-2.9372 18.11298-18.113 38.67366-14.6862 20.56068-29.3724 30.84102-14.6862 10.28034-34.7573 16.64436-20.0711 6.85356-55.8076 6.85356-13.7071 0-27.9037-2.4477-14.1967-2.4477-39.1632-9.7908z"/></g></g></g></svg>