<svg height="149.30743" viewBox="0 0 132.9928 24.573018" width="808.07391" xmlns="http://www.w3.org/2000/svg"><g stroke-width=".41145" transform="translate(17.813641 -1.421349)"><text fill="#ef00eb" font-family="TrasksHand" font-size=".32916" stroke="#0105ff" transform="matrix(.99744288 -.0714682 .0714682 .99744288 0 0)" x="43.653652" y="11.384418"><tspan fill="#fafafa" fill-opacity=".4" font-size=".32916" stroke="none" stroke-width=".41145" x="43.653652" y="11.384418">John Loreth 2022</tspan></text><path d="m12.429688 1.4296875c-1.456245.3000126-1.825648 1.9302081-2.411856 3.0681453-1.1327902 2.5740236-2.0963345 5.2182666-3.0100195 7.8771672-.5474152.500105-1.0514181 1.052518-1.6542969 1.488281.2356834-1.556597 1.1148079-2.914407 1.5520588-4.3982162.2482205-1.5282827-1.7860682-2.9349345-3.0323541-1.8742788-.8342114.7393651-1.3054421 1.9152532-1.9161891 2.729526.8499182-1.9788828-2.15064696-3.7483057-3.53125-2.179687-1.1660555 1.7919288-1.8849784 3.834669-2.5 5.871094-.804229-.969528-2.667557-.837719-3.0917968.419922-.016177.581209-.3881734.83877-.9345125.627746-.9005692-.11674-1.7562427-.437311-2.6240809-.690246 1.7293981-1.6425 3.3696348-3.374856 4.958984-5.1523441 1.6947686-.5924574 2.2878551-3.1416368 1.0390625-4.4179688-.7958845-.6577051-2.0063547-.3279853-2.5742187.4667969-.483792.3513249-1.1354887-.063104-1.6318937-.0536767-1.8693401-.3366105-3.9562321-1.0014412-5.7503541-.0524549-1.497444.8906321-2.470588 2.7820128-2.037674 4.5045691.517321 1.0568535 2.095381.5197695 2.371094-.4511719.818479-1.0520545 2.273655-.4903694 3.389176-.4426132.644026.013884-.595788.7841693-.737563 1.1127696-1.322649 1.365518-2.613635 2.827918-4.164769 3.919995-1.516944.368676-2.521547 2.309095-1.594266 3.67352.505221.916718 1.976475 1.152088 2.599609.230469.544621-.297905 1.150215.196716 1.722496.245073 2.309777.630399 4.9041976 1.444511 7.1974186.305321.653068-.306448 1.2506033-.741272 1.7207105-1.290628.3932829 1.132779 1.7956746 1.838238 2.886759 1.204568.9809648-.417962 1.79408211-1.127093 2.5839441-1.825662.041232 1.135396.9870316 2.293233 2.2070313 2.103516 1.1715631-.03768 2.2495941-.819079 3.1621094-1.306641.5256268 1.130219 1.9766373 1.691047 3.111298 1.143076 1.0316441-.30507 1.9431881-.915452 2.7656551-1.594248.745621 1.536762 2.683525 2.156803 4.256402 1.631212 1.39734-.271804 2.703704-.904512 3.872504-1.70543.342997 1.426529 2.006239 2.186422 3.357422 1.734374 1.37086-.268273 2.733292-1.177374 3.742188-1.871093-.337925 1.235566 1.068561 2.344501 2.216188 1.883128.635614-.228042 1.032011-.8232 1.547484-1.232738 1.668302 1.069178 3.871238 1.914746 5.773437.919922.307021-.04916.626612-.589864.883908-.447704 1.046717 1.16903 2.866043 1.022808 4.125579.298835 1.423908-.615175 3.031566-1.486172 3.51981-3.062068.159186-1.016774-1.150517-1.917275-1.986905-1.211566-.5563.297863-1.077795.702326-1.710361.820941.119126-.897729.480043-1.753257.792969-2.587891.926107-.223855 1.900976-.312281 2.829867-.571753.93365-.257947 2.290207-.695577 2.236539-1.8872312.02163-.8235824-.804566-1.3977529-1.583545-1.2164555-.697477.011487-1.396015.045608-2.094189.069971.542615-.9436714 1.13633-2.2284886.333984-3.2109375-.764749-1.058847-2.438546-.9271089-3.191406.078125-.88798.9775822-.929424 2.4381083-1.580078 3.5097656-.404548.01477-.79964.1365661-1.1875.25-.652609-1.1312324-2.304478-1.5487386-3.396485-.8144531-1.684054.1091583-3.485898-.8076559-5.080078.050781-.439028.2403464-1.00303-.058266-1.495105.085361-.337536-.1081688-1.443857.280712-1.31481-.1231019.531382-.8954885.9977-2.1322595.23765-3.046244-.752629-1.0297068-2.392488-.9262064-3.147281.049624-.921879.9719434-.95872 2.4558075-1.610532 3.5441255-.672822.03632-1.36516.2385171-1.904297.6582032-.332829-.7810511-1.170759-1.1698309-1.890625-1.4316393-.905381-1.1030892-2.622746-.658081-3.511718.2363281-1.305102 1.0837692-2.087888 2.6238771-2.877554 4.0821851-.585484.61673-1.167564 1.248617-1.864634 1.742034.913796-3.40339 2.362988-6.6325307 3.787219-9.8398286.300544-1.2764332-.792727-2.7803681-2.156359-2.6464999zm92.771482 0c-1.45201.3048995-1.83798 1.9293826-2.40651 3.0765757-1.10445 2.5509319-2.13586 5.1360551-2.956769 7.7925648-.558271.520732-.541994.446723-.179688-.166016.636437-1.29892.508847-3.25266-.954918-3.9329073-.406496-.1965504-.829977-.2564335-1.108865-.633733-1.13401-.8195412-2.640464-.1336614-3.494811.7736721-1.2136 1.1173136-1.927669 2.6403202-2.696443 4.0582512-.539912.520716-1.062248 1.063547-1.653166 1.527686.462407-1.479875 1.270354-2.910043 1.826358-4.3773503.128808-.8163313-.361234-1.6518533-1.076358-2.0347588.80842.4222987 2.030877.1518629 2.197266-.8554688.097412-.7942166.070069-1.5980084.200576-2.3890607.102733-.9485239-.589912-1.8173872-1.524546-1.9637643-.921113-.3027018-2.045595.0701476-2.379155 1.0364188-.544288 1.4443977-.101968 3.3730836 1.357421 4.1054687-1.147099-.5035557-2.140522.5796634-2.880329 1.3096104-.647423.6486747-1.04389 1.507498-1.445027 2.294329-.610874.633307-.323322-.158615-.349581-.587123.080599-1.3446831-.785925-3.0243393-2.307484-2.9601758-.666913.0036083-1.322465.376799-1.859375.6367188-.305839-1.4292345-2.23078-1.8670639-3.325482-1.0401449-.427758.2251337-.775776.7342422-1.057331 1.0069418-1.240509-1.2567796-3.276269-.8670542-4.681091-.1173166-1.192083.636732-2.196019 1.7050019-2.592346 3.0138007.241996-1.2018351-.368796-2.5559097-1.584316-2.9440486-.602991-.0905332-.873356-.7835038-1.528966-.819623-1.624801-.26268-2.86842 1.1061489-3.778939 2.2571015-.223612.2218877-.458559.7795331-.621451.8112581-.444052-1.3224386-2.2647-1.7810275-3.319863-.8987469-.982811.4878016-1.694371 1.4718489-1.81384 2.5598549-.542111 1.1484-1.566817 2.059842-2.764735 2.477564-.143044-1.267269.494609-2.503503 1.145534-3.552804.714379-1.0307678 1.657328-1.9881888 2.811498-2.4921182.637866.2374762 1.300669.6346083 2 .3183593 1.168414-.3109094 2.460993-1.5878621 1.859374-2.8671875-.736287-1.3739462-2.57649-1.5668322-3.939453-1.1777344-3.200706.794997-5.829568 3.2375445-7.335937 6.1132808-.995807 2.007517-1.343175 4.673382.101562 6.554688.293781.335135.65285.614863 1.054688.808594-1.259205.317237-2.244296 1.99547-1.296115 3.103154.952871 1.087352 2.49907 1.368713 3.863689 1.511665 2.446588-.10496 4.313383-2.218442 5.105967-4.388097.490736-1.323869.742298-2.718734 1.086225-4.084144-.255934 1.551713.412295 3.34337 1.96289 3.9375 1.665545.632546 3.47238-.06033 5.008882-.741795.416132-.295963.638258-.341916.773257.197296.953679 1.38104 3.005995 1.376919 4.331174.558533.58583-.325298 1.15424-.706804 1.626921-1.183956-.702718 2.297056-1.491671 4.609393-2.176949 6.927525-.165233 1.330612 1.364985 2.387196 2.574543 1.870748 1.36974-.259731 2.901899-.568336 3.869985-1.649835.5301-.736488.06126-1.937791-.904353-1.93928-.361866-.05974-.730478-.04232-1.095647-.05877.42513-1.233724.85026-2.467448 1.27539-3.701172 1.518549.08762 2.808603-.922269 4.133914-1.515219.996733-.444302 2.146299-1.043529 3.010617-1.494547-.208342 1.548229 1.105163 3.303234 2.765626 3.033203 1.276551-.159465 2.400974-.872719 3.375-1.673828.804226 1.434861 2.66365 1.950682 4.178788 1.464066 1.305801-.237726 2.550397-.892791 3.65129-1.534378.362614 1.21495 1.760074 2.061803 2.983834 1.565909 1.00853-.227398 1.89992-.79622 2.71538-1.411613.60708 1.429298 2.48922 1.92664 3.81977 1.225445 1.64703-.562131 3.41046-1.469066 4.19781-3.100445.3166-.990794-.84908-2.156036-1.79746-1.513947-.61629.304414-1.1734.753841-1.86074.89676.14417-.904551.45864-1.821234.8418-2.628906 1.56506-.305552 3.29999-.386266 4.62304-1.382813.81549-.7296496.29902-2.4074103-.88905-2.2601683-.79758.00711-1.59437.046464-2.3922.074622.54086-.9422658 1.13589-2.2224972.33789-3.2050782-.75947-1.0632674-2.43812-.9364425-3.19336.068359-.88869.9783456-.93134 2.4331962-1.57617 3.5117188-.71266.00954-1.44181.2618542-1.98047.7382812.68075-1.8303194 1.57326-3.5832666 2.28889-5.3906803.22165-1.255504-.84614-2.6780906-2.17756-2.5487728zm-.65429 9.7421875c.14687.434791.51003.769078.92578.947266-.59592.636905-1.17723 1.305203-1.90625 1.794921.26923-.992716.59019-1.970666.92968-2.941406.0169.06641.0339.132813.0508.199219zm-28.544927.955078c-.232964.830487-.467831 1.852406-.716797 2.5625-.13834-1.174196-1.17214-1.948937-1.53125-3.025391.703432-.586207 1.665924-.489373 2.513672-.628906-.08854.363933-.177083.727865-.265625 1.091797zm-47.050781-.894531c.210733.509995.617332.94643.96875 1.324219-.640877.298075-1.069112.940322-1.226563 1.615234-.320662-.898588-1.504922-.942735-2.166015-.402344-.435154.294484-.916614.546-1.433594.707031.116475-.904581.475253-1.771024.792969-2.609374.794696-.214364 1.642683-.253409 2.442717-.491051.20043-.03925.442749-.127071.621736-.143715zm40.732422.662109c.262653.420002-.228798.625919-.50586.853516.237764-.33414.412025-.713711.53711-1.103516-.01042.08333-.02083.166667-.03125.25zm-31.886719-.03711c.257256.208304.575349.331121.900391.382812-.2978.65059-.690864 1.272616-1.171875 1.804688-.848574.832028-2.200188.874481-3.177735.253906.871783-.772472 1.511729-1.879518 2.509804-2.473235.305469.06743.72209-.208768.939415.03183zm-16.880859.07813c.611593.193016-.230372.519491-.414165.779921.02094-.06408.331348-.555715.414165-.779921zm59.970703 1.027344c-.266089.414625-.597872.792523-.998047 1.082031.330208-.484066.703606-.942202 1.142578-1.332031-.04818.08333-.09635.166666-.144531.25zm-25.34375 5.101562c-.16926.338178-.399044.926872-.808594.917969-.249708-.203601-1.077688-.577671-.367955-.58936.416033-.124694.832044-.259015 1.223424-.449703l-.0361.09326z" fill="#333"/><g fill="#f4c401" transform="scale(.9822298 1.0180917)"><g><path d="m-13.176112 5.5509119c-1.611785 0-2.77723 1.5125986-2.975604 3.0004006-.04959.2975604-.0248.5703241.123984.5703241.198373 0 .347153-.247967.545527-.5455274.421544-.5703241.967071-1.1158515 2.18211-1.1158515.644714 0 1.314225.07439 2.306093.1983736.793494.07439 1.5869885.1983736 1.8597521.247967.1735769.024797.099187.2231703-.07439.4215439-2.7276371 2.9260108-4.4138121 4.4634058-5.8520211 5.7528348-.471137.396747-.644714.44634-.867885.44634-.22317 0-.719104.29756-1.016664.768698-.297561.495934-.223171 1.066258.123983 1.463005.14878.14878.297561.272764.446341.272764.09919 0 .272764-.0248.37195-.14878.272764-.322358.719105-.768698 1.686176-.495934 1.686176.44634 4.289829 1.165444 5.6040541 1.165444.7934944 0 1.8845492-.247967 2.5540601-.644714.6447142-.396747 1.6117855-1.165445 1.6117855-1.735769 0-.322357-.2727637-.694307-.4463406-.843088-.247967-.272763-.743901-.347153-1.1406482-.04959-.2231703.14878-.2975604.247967-.3223571.545527-.07439.719105-.5951208 1.016665-1.1654449 1.016665-.6695109 0-1.8845491-.272764-2.8020269-.570324-.991868-.272764-1.810159-.520731-2.206906-.619917-.173577-.04959-.173577-.148781.04959-.347154 1.611785-1.413412 4.4634059-4.190642 5.8520211-5.8024279.2231703-.2727637.3967472-.3719505.5951208-.3719505.1487802 0 .3471538-.1487802.5455274-.4215439.2231703-.2975604.4463406-.7934944.4463406-1.2150383 0-.7191042-.1735769-1.1654448-.7686977-1.1654448-.247967 0-.6199175.2975604-.8926812.5951208-.173574.1983706-.4959311.3967442-.8430849.3719475-.7191043-.0247967-2.4796701-.3967472-3.3227581-.5455274-.694307-.1239835-1.388615-.1983736-2.206906-.1983736z"/><path d="m4.7023066 15.048048c-.3719504 0-.4215438-.322357-.3719504-.867885.1239835-1.041461.6199174-2.653247 1.1406481-3.719505.247967-.4959336.3967472-.7686973.495934-.9918676.2975604-.6447142-.3471538-1.4134119-.9670713-1.4134119-.2975604 0-.5951207.1983736-.9918679.7934944-.4463406.6943076-1.487802 2.4796701-2.6532469 3.8434881-1.19024156 1.289429-1.88454915 1.909346-2.15731285 1.909346-.29756035 0-.42154385-.272764-.17357689-1.066258.29756039-1.016665.49593399-1.487802.69430758-1.859752.1735769-.322357.47113729-.471138.71910429-.793495.2231703-.29756.71910427-1.1406479.71910427-1.463005 0-.4463406-.74390097-1.0662581-1.36381846-1.0662581-.29756039 0-.61991749.1983736-.86788444.5703241-.2975604.5455274-1.0662581 2.008533-1.6613789 3.769098-.6943076 1.834956-.7686977 2.454874-.7686977 2.851621 0 .793494.5207307 1.562192 1.0414614 1.562192.3719505 0 .7686977-.09919 1.2894284-.421544 1.48780193-.942275 3.1243841-2.529263 3.5211313-2.950807.1487802-.14878.3223571-.04959.247967.22317-.07439.272764-.1487802.545527-.2231703.942275-.2975604 1.438208.1487802 2.281296.9174779 2.281296.3719505 0 1.0662581-.173577 1.7605656-.520731.8678845-.421544 2.3308898-1.339022 4.215439-3.818691.3719505-.471138.5207307-1.016665.3719505-1.314226-.099187-.22317-.2975604-.22317-.495934-.0248-1.4630053 1.636582-3.5955215 3.545928-4.4386093 3.545928z"/><path d="m7.4795504 15.568778c0 .892682.5455273 1.611786 1.2646316 1.611786 2.281296 0 5.356087-3.149181 6.075191-4.612186.198374-.396747.272764-.768698.173577-.967071-.09919-.173577-.29756-.198374-.52073.07439-1.636583 1.983736-3.521132 3.446741-4.289829 3.446741-.3967476 0-.5951212-.347154-.198374-1.636582.570324-1.859753 1.661379-5.2569006 3.496335-8.8028286.52073-1.0166647.644714-1.4630053-.173577-2.1573129-.123984-.1239835-.272764-.1735769-.446341-.1735769-.198373 0-.421544.099187-.644714.3719505-.371951.4711373-1.239835 2.2069063-2.7524337 6.0008013-1.6861756 4.2154386-1.9837359 6.1247846-1.9837359 6.8438886z"/><path d="m13.356398 14.725691c0 1.562192 1.115851 2.454873 2.256499 2.454873 2.901214 0 6.000802-2.10772 7.686977-4.265032.322357-.421544.446341-.867885.322357-1.091055-.09919-.173577-.347153-.198374-.59512.07439-2.529264 2.55406-4.81056 3.372351-6.298362 3.372351-.719104 0-1.115852-.37195-1.115852-.917478 0-.347154.07439-.570324.198374-.818291.07439-.173577.14878-.198373.322357-.123983.22317.09919.495934.198373.768698.198373 1.339022 0 2.206906-.644714 2.727637-1.165445.495934-.545527.942274-1.264631.942274-2.157313 0-.9422741-.595121-1.4878015-1.438208-1.5373949-.173577-.024797-.297561-.1239835-.371951-.2231703-.14878-.2975604-.396747-.495934-.867884-.495934-1.041462 0-2.33089 1.487802-2.826824 2.1821092-1.091055 1.562192-1.710972 3.397148-1.710972 4.513zm3.347554-2.55406c-.322357 0-.37195-.07439-.272764-.371951.297561-.768698 1.115852-1.9837358 1.611786-1.9837358.322357 0 .570324.1983738.570324.5455278 0 .694307-1.140648 1.810159-1.909346 1.810159z"/><path d="m25.159623 15.246421c-.644714 0-.743901-.471137-.619917-1.215038.09919-.719104.619917-2.182109.967071-2.975604.123984-.247967.22317-.322357.545527-.37195 2.206907-.297561 3.669912-.6943079 4.091456-.9174782.347154-.1983736.644714-.7686977.04959-.7686977-.669511 0-2.454873.099187-3.570724.1239835-.148781 0-.371951.024797-.297561-.1735769.09919-.2231703.495937-1.2646317 1.041464-2.2564997.247967-.4215438.223171-.8678844-.14878-1.2398349-.198373-.1983736-.347153-.2727637-.59512-.2727637-.371951 0-1.066259.3719505-1.289429.8430878-.247967.5207306-1.016665 2.7028402-1.140648 2.9508072-.09919.2727637-.247967.3223571-.471137.3719505-.495934.099187-.917478.1983736-1.215039.247967-.347153.07439-.495934.1983736-.719104.4711371-.198373.22317-.22317.595121-.04959.768698.14878.123983.347153.272764.619917.247967.322357-.04959.669511-.07439.867885-.09919.247967-.0248.247967.07439.173577.247967-.123984.347154-.942275 2.752434-1.190242 3.446741-.198374.520731-.272764.818291-.272764 1.115852 0 .867884.867885 1.388615 1.586989 1.388615.322357 0 .644714-.04959 1.066258-.198374 1.983736-.644714 3.000401-1.537395 3.446741-2.008532.421544-.446341.322357-1.115852-.247967-.743901-.59512.37195-1.785362 1.016664-2.62845 1.016664z"/><path d="m36.367748 15.444795c-1.041461 0-2.40528-.818291-2.678044-1.066258-.123983-.123984-.07439-.247967.09919-.446341.545528-.669511 2.231703-2.40528 2.578857-2.752433.471137-.471138.818291-.570324 1.016665-.570324.09919 0 .322357.04959.421543.04959.198374 0 .371951-.173577.545528-.396747.173577-.247967.471137-.6199177.09919-1.1158517-.297561-.4215439-.867885-.6199175-1.339022-.6199175-.22317 0-.446341.07439-.619918.1983736-.123983.099187-.322357.1983736-.644714.1983736-.347154 0-.644714-.024797-1.140648-.07439-1.264632-.1735769-1.884549-.2727637-2.47967-.2727637-.892681 0-1.165445.2727637-1.735769.9670713-.272764.3471538-.322357.8430874-.0248 1.2398344.173577.247967.669511.942275 1.016665 1.115852.396747.198374.719104.14878.570324-.22317-.173577-.495934-.173577-.793495-.04959-1.066258.09919-.198374.272763-.347154.545527-.347154.297561 0 1.016665.07439 1.710972.14878.297561.04959.347154.14878.09919.396747-.669511.694308-1.487802 1.586989-2.33089 2.40528-.14878.14878-.247967.123984-.421543.0248-.123984-.07439-.322358-.09919-.495934-.09919-.347154 0-.967072.471137-.967072 1.537395 0 .173577 0 .223171-.14878.446341-.198373.198373-.793494.991868-.793494 1.413412 0 .247967.14878.396747.247967.495934.14878.14878.545527.22317.892681-.0248.29756-.22317 1.091055-.917478 1.289428-1.115851.223171-.272764.322357-.272764.570324-.123984 1.512599.892681 2.55406 1.438209 3.818692 1.438209 2.18211 0 3.793895-2.231703 4.091456-3.496335.09919-.520731-.247967-.619917-.446341-.247967-.446341.867884-1.388615 1.983736-3.297961 1.983736z"/><path d="m42.467717 15.246421c-.644714 0-.743901-.471137-.619917-1.215038.09919-.719104.619917-2.182109.967071-2.975604.123984-.247967.22317-.322357.545527-.37195 2.206907-.297561 3.669912-.6943079 4.091456-.9174782.347154-.1983736.644714-.7686977.04959-.7686977-.669511 0-2.454873.099187-3.570724.1239835-.148781 0-.371951.024797-.297561-.1735769.09919-.2231703.495937-1.2646317 1.041465-2.2564997.247967-.4215438.22317-.8678844-.148781-1.2398349-.198373-.1983736-.347153-.2727637-.59512-.2727637-.371951 0-1.066259.3719505-1.289429.8430878-.247967.5207306-1.016665 2.7028402-1.140648 2.9508072-.09919.2727637-.247967.3223571-.471137.3719505-.495934.099187-.917478.1983736-1.215039.247967-.347153.07439-.495934.1983736-.719104.4711371-.198373.22317-.22317.595121-.04959.768698.14878.123983.347154.272764.619917.247967.322357-.04959.669511-.07439.867885-.09919.247967-.0248.247967.07439.173577.247967-.123984.347154-.942275 2.752434-1.190242 3.446741-.198374.520731-.272764.818291-.272764 1.115852 0 .867884.867885 1.388615 1.586989 1.388615.322357 0 .644714-.04959 1.066258-.198374 1.983736-.644714 3.000401-1.537395 3.446741-2.008532.421544-.446341.322358-1.115852-.247967-.743901-.59512.37195-1.785362 1.016664-2.62845 1.016664z"/></g><g><path d="m52.014055 14.13057c0 .545527.09919 1.016665.347154 1.636582.247967.595121 1.066258 1.413412 1.934142 1.413412.644714 0 1.215038-.123984 1.859753-.421544.59512-.29756 1.611785-.867884 1.884549-1.091055.198373-.173577.29756-.14878.173577.198374-.09919.29756-.247967.892681-.545528 1.760566-.570324 1.611785-1.339021 2.082922-1.909346 2.082922-.247967 0-.570324-.123983-.867884-.44634-.247967-.223171-.743901-.570324-1.140648-.570324-.322357 0-.719104.123983-1.140648.59512-.371951.371951-.322357.843088.04959 1.140649.694308.545527 2.231703.967071 3.198774.967071.471138 0 1.016665-.198374 1.537396-.520731 1.091054-.669511 2.107719-1.884549 2.47967-2.92601.347153-.967072.991868-3.297961 1.264631-4.58739.198374-.892681.570324-1.760565 1.140648-2.33089.247967-.22317.347154-.44634.173577-.694307-.29756-.421544-.59512-.5951209-.942274-.5951209-.446341 0-1.363819.5703239-1.735769.9174779-.247967.247967-.396747.495934-.421544.892681-.04959.818291-.892681 1.760566-1.636582 2.430077-.843088.768697-2.03333 1.264631-2.529264 1.264631-.421543 0-.818291-.37195-.818291-1.413411 0-1.314226.843088-3.248368 2.231703-4.7113734 1.314225-1.3886152 2.529264-1.8845492 2.826824-1.8845492.272764 0 .471137.07439.768698.247967.247967.1487802.619917.2727637 1.041461.1735769.29756-.07439.917478-.5455274 1.140648-.7934944.322357-.3471538.173577-.7934943-.22317-1.066258-.371948-.247967-.892678-.4215439-1.463002-.4215439-.917478 0-2.33089.3967472-3.669912 1.2150382-3.173977 1.983736-5.008933 4.9097468-5.008933 7.5381968z"/><path d="m62.949382 14.725691c0 1.562192 1.115851 2.454873 2.2565 2.454873 2.901213 0 6.000801-2.10772 7.686976-4.265032.322358-.421544.446341-.867885.322358-1.091055-.09919-.173577-.347154-.198374-.595121.07439-2.529264 2.55406-4.81056 3.372351-6.298362 3.372351-.719104 0-1.115851-.37195-1.115851-.917478 0-.347154.07439-.570324.198373-.818291.07439-.173577.14878-.198373.322357-.123983.223171.09919.495934.198373.768698.198373 1.339022 0 2.206906-.644714 2.727637-1.165445.495934-.545527.942274-1.264631.942274-2.157313 0-.9422741-.59512-1.4878015-1.438208-1.5373949-.173577-.024797-.29756-.1239835-.371951-.2231703-.14878-.2975604-.396747-.495934-.867884-.495934-1.041461 0-2.33089 1.487802-2.826824 2.1821092-1.091055 1.562192-1.710972 3.397148-1.710972 4.513zm3.347554-2.55406c-.322357 0-.37195-.07439-.272763-.371951.29756-.768698 1.115851-1.9837358 1.611785-1.9837358.322357 0 .570324.1983738.570324.5455278 0 .694307-1.140648 1.810159-1.909346 1.810159z"/><path d="m76.314809 8.1297686c-.818291 0-2.10772.4215439-2.876417 1.0910548-.719105.5703241-1.487802 1.5373956-1.487802 2.4300766 0 .322357.123983.743901.247967 1.041461.173576.371951.570324 1.066258.818291 1.388616.347153.471137.570324.917477.570324 1.165444 0 .148781-.198374.347154-.520731.347154-.347154 0-.495934-.04959-.743901-.14878-.22317-.173577-.396747-.173577-.619917-.04959-.223171.09919-.545528.29756-.892682.694307-.173577.14878-.198373.347154-.198373.520731.09919.545527 1.041461.917478 1.710972.917478.272764 0 .570324-.07439.942275-.223171.545527-.22317 1.487802-.743901 1.810159-1.041461.29756-.272764.619917-.892681.619917-1.264632 0-.644714-.37195-1.363818-.942274-2.082922-.421544-.570324-.743901-1.115852-.743901-1.586989 0-.768698 1.710972-1.413412 3.248367-1.413412.421544 0 .793495-.1983736.793495-.6695109 0-.2975604-.09919-.5455274-.421544-.7686977-.322357-.2231733-.694308-.3471568-1.314225-.3471568z"/><path d="m84.993643 8.3281422c-.198373 0-.619917.07439-1.115851.3223571-1.264632.5703241-2.380483 1.6861757-2.77723 2.0581257-.247967.198374-.421544.173577-.297561-.14878.322357-.892681.595121-1.6613787 1.091055-2.0829226.173577-.1735769.173577-.3719505-.0248-.5703241-.173577-.1983736-.545527-.3719505-.917478-.3719505-.421544 0-1.041461.3471538-1.363818.6943076-.247967.247967-.421544.6943076-.595121 1.3638185-.14878.6447141-.29756 1.2646321-.793494 3.1243841-1.487802 5.380884-3.223571 10.117053-3.372351 10.538597-.123984.421544-.09919.669511.0248.892682.173577.272763.371951.37195.644714.37195.942275 0 2.206907-.37195 3.347555-.818291.44634-.173577.694307-.570324.694307-.669511 0-.123983-.123983-.198374-.52073-.22317-1.140648-.0248-1.586989-.07439-1.810159-.198374-.173577-.09919-.223171-.247967-.09919-.570324.22317-.570324 1.661379-4.612186 1.735769-4.835356.07439-.173577.173577-.421544.322357-.297561.123983.14878.347154.347154.520731.347154.14878 0 .272763-.0248.495934-.07439.644714-.123984 1.884549-.669511 2.430076-.991868.471138-.29756.719105-.421544 1.314225-.644714 1.339022-.471138 4.165846-2.10772 5.604054-3.645115.669511-.793494.545528-1.586989-.173576-1.041461-1.512599 1.066258-3.521132 2.231703-3.793896 2.355686-.173576.07439-.198373.04959-.123983-.09919.123983-.22317.768698-1.463005.793494-3.049994 0-.4215437-.322357-1.7357688-1.239835-1.7357688zm-1.190241 2.1325158c.123983 0 .29756.173577.29756.545528 0 .818291-.917478 2.380483-1.339022 2.85162-.272763.297561-.644714.669511-1.289428.991868-.595121.297561-1.289428.520731-1.611785.520731-.347154 0-.371951-.123984-.272764-.371951.37195-1.115851 1.239835-2.504466 2.901214-3.793895.818291-.619917 1.115851-.743901 1.314225-.743901z"/><path d="m92.308673 3.145632c-.545528 0-.843088.2727637-.892682 1.0414614-.0248.5703241.04959.9670713.123984 1.239835.123983.4463406.520731.8926812 1.066258 1.0910547.471137.1735769.818291.1487802.818291-.3471537 0-.5951208 0-1.2150383.14878-2.0581261.123984-.6199175-.545527-.9670713-1.264631-.9670713zm-3.099588 14.109322c.421544 0 .892681-.09919 1.512599-.347154 1.438208-.570324 3.744302-2.802027 4.711373-4.364219.322357-.520731.396747-.917478.272763-1.140648-.09919-.173577-.347153-.198374-.644714.123983-1.388615 1.562193-3.843488 3.793895-4.636983 3.793895-.471137 0-.52073-.347153-.272763-1.115851.595121-1.909346 1.215038-3.297961 1.983736-4.6369828.247967-.4711373 0-1.0166647-.322357-1.2646317-.123984-.099187-.272764-.1487802-.421544-.1487802-.719105 0-2.281297 1.6613789-2.678044 2.6780437-.14878.37195-.09919.595121 0 .818291.123984.22317.123984.37195 0 .719104-.198373.446341-.619917 1.810159-.768697 2.40528-.173577.595121-.173577 1.041461.04959 1.487802.347154.768698.843088.991868 1.215038.991868z"/><path d="m93.622934 14.725691c0 1.562192 1.115852 2.454873 2.2565 2.454873 2.901214 0 6.000806-2.10772 7.686976-4.265032.32236-.421544.44634-.867885.32236-1.091055-.0992-.173577-.34716-.198374-.59512.07439-2.52927 2.55406-4.810562 3.372351-6.298364 3.372351-.719105 0-1.115852-.37195-1.115852-.917478 0-.347154.07439-.570324.198374-.818291.07439-.173577.14878-.198373.322357-.123983.22317.09919.495934.198373.768697.198373 1.339022 0 2.206907-.644714 2.727637-1.165445.495931-.545527.942271-1.264631.942271-2.157313 0-.9422741-.59512-1.4878015-1.438205-1.5373949-.173576-.024797-.29756-.1239835-.37195-.2231703-.14878-.2975604-.396747-.495934-.867885-.495934-1.041461 0-2.330889 1.487802-2.826823 2.1821092-1.091055 1.562192-1.710973 3.397148-1.710973 4.513zm3.347555-2.55406c-.322357 0-.371951-.07439-.272764-.371951.297561-.768698 1.115852-1.9837358 1.611786-1.9837358.322357 0 .570324.1983738.570324.5455278 0 .694307-1.140648 1.810159-1.909346 1.810159z"/><path d="m101.92981 15.568778c0 .892682.54553 1.611786 1.26463 1.611786 2.2813 0 5.35609-3.149181 6.0752-4.612186.19837-.396747.27276-.768698.17357-.967071-.0992-.173577-.29756-.198374-.52073.07439-1.63658 1.983736-3.52113 3.446741-4.28983 3.446741-.39674 0-.59512-.347154-.19837-1.636582.57032-1.859753 1.66138-5.2569006 3.49633-8.8028286.52073-1.0166647.64472-1.4630053-.17357-2.1573129-.12399-.1239835-.27277-.1735769-.44634-.1735769-.19838 0-.42155.099187-.64472.3719505-.37195.4711373-1.23983 2.2069063-2.75243 6.0008013-1.68618 4.2154386-1.98374 6.1247846-1.98374 6.8438886z"/><path d="m110.90625 15.246421c-.64472 0-.7439-.471137-.61992-1.215038.0992-.719104.61992-2.182109.96707-2.975604.12399-.247967.22317-.322357.54553-.37195 2.20691-.297561 3.66991-.6943079 4.09146-.9174782.34715-.1983736.64471-.7686977.0496-.7686977-.66951 0-2.45487.099187-3.57073.1239835-.14878 0-.37195.024797-.29756-.1735769.0992-.2231703.49594-1.2646317 1.04147-2.2564997.24796-.4215438.22317-.8678844-.14878-1.2398349-.19838-.1983736-.34716-.2727637-.59513-.2727637-.37195 0-1.06625.3719505-1.28942.8430878-.24797.5207306-1.01667 2.7028402-1.14065 2.9508072-.0992.2727637-.24797.3223571-.47114.3719505-.49593.099187-.91748.1983736-1.21504.247967-.34715.07439-.49593.1983736-.7191.4711371-.19838.22317-.22317.595121-.0496.768698.14878.123983.34716.272764.61992.247967.32236-.04959.66951-.07439.86789-.09919.24796-.0248.24796.07439.17357.247967-.12398.347154-.94227 2.752434-1.19024 3.446741-.19837.520731-.27276.818291-.27276 1.115852 0 .867884.86788 1.388615 1.58699 1.388615.32235 0 .64471-.04959 1.06626-.198374 1.98373-.644714 3.0004-1.537395 3.44674-2.008532.42154-.446341.32235-1.115852-.24797-.743901-.59512.37195-1.78536 1.016664-2.62845 1.016664z"/></g></g></g></svg>