<svg height="169.52017pt" viewBox="0 0 842.24866 169.52017" width="842.24866pt" xmlns="http://www.w3.org/2000/svg"><g transform="translate(-17.158456 -54.423598)"><text fill="#ef00eb" font-family="TrasksHand" font-size="1.5" stroke="#0105ff" stroke-width="1.875" transform="matrix(.69153672 -.72234131 .72234131 .69153672 0 0)" x="351.33765" y="531.01672"><tspan fill="#fafafa" fill-opacity=".4" font-size="1.5" stroke="none" stroke-width="1.875" x="351.33765" y="531.01672">John Loreth 2022</tspan></text><path d="m86.62621 54.423828c-5.646429 0-9.949341 3.450146-12.89237 7.298724l-.0076.01148c-2.666308 3.499531-6.201952 8.290035-8.760764 11.275321-.0238.02791-.0474.05598-.07081.0842-1.474568 1.76948-2.65903 3.915238-3.375707 6.183055-1.813824-.996962-3.825951-1.592169-5.905575-1.59217-5.860913 0-10.223374 2.174079-13.374614 3.657016-.01533.0076-.03064.01527-.04592.02297-2.211969 1.0579-4.318578 1.985519-6.51412 4.537302-2.195542 2.551784-3.048829 8.032097-1.697422 11.185381l-.19524-.501377c.359618 1.027481.33744 1.126076-.553049 3.41589-.0058.0159-.01153.0318-.01722.0478-7.288406 19.11183-12.508089 33.35023-15.563849 49.47784-.0039.0191-.0077.0383-.01148.0574-.405317 2.22922-.777194 4.92265-.13587 8.12925.0109.055.02238.10984.03445.16458.834835 3.75676 2.92629 6.22405 4.992756 7.9953.06792.0579.136827.11471.206676.17031 3.619009 2.89522 6.863428 3.66849 10.584488 3.66849 6.026868 0 11.417653-1.84245 15.829848-4.3287 4.344324-2.26889 9.108105-5.92642 15.881517-12.2379-.580164 3.13964-1.006048 6.44018.532 10.21707 1.642463 4.03328 5.334241 6.61446 8.787556 8.06801 3.223491 1.45895 6.95903 1.5118 7.587687 1.5118 4.468429 0 6.981439-2.25468 8.975095-4.24834.197117-.1973.383642-.40491.55879-.62194 1.448909-1.79389 4.883019-5.17872 8.701437-8.68614.6699 2.10518 1.67922 4.07979 3.04656 5.84051 2.69923 3.47585 7.14889 6.13139 12.13073 6.13139 7.94664 0 15.00874-3.49236 21.44646-7.81157.70687-.47426 1.31074-1.06679 2.0017-1.56538 1.1728 2.14329 2.75114 3.96623 4.47223 5.30468 3.51095 2.73039 7.54057 4.07228 11.79584 4.07228 2.88868 0 6.11515-.53359 9.51284-1.7223 7.81562-2.55226 13.58408-5.71436 17.9234-8.70335l-.10334-.21625c.0214.0473.0568.0793.0785.1263.0134.0276.017.0585.0307.0861.006-.004.01-.008.0153-.0115 3.2267 6.93495 9.48628 10.92704 15.01463 10.92704 3.99263 0 8.15749-.97026 12.81391-2.83223 3.82751-1.52006 7.51143-3.86996 11.08778-6.6385.13347.2721.22302.58364.36743.84584 2.31477 4.20305 5.62968 7.49009 11.2313 7.49009 4.24647 0 8.63568-2.716 12.18623-6.65956 1.36376-1.50804 4.306-5.26605 6.7916-8.37995.058 1.29805-.0194 2.62943.22965 3.88283.45358 2.28315 1.21355 4.58811 3.01019 6.81265 1.79663 2.22453 5.19789 4.18327 8.5828 4.18327 5.65337 0 9.61169-3.12909 13.38035-6.70931l.0134-.0134c2.0133-1.92181 5.47214-5.80964 8.92151-9.66592.55139 3.20772 1.54561 6.15951 3.18816 8.78756 3.51265 5.62012 10.12208 8.73588 16.31975 8.73588 6.8175 0 13.48576-3.19891 20.11455-8.71674 3.22673 5.12054 8.37578 8.71674 14.8998 8.71674 10.68633 0 20.26419-4.31167 28.11942-10.74333.006.0697.0118.13915.0191.20859 1.0548 5.80138 5.15651 8.39328 8.51199 10.02379 3.35549 1.63051 6.79093 2.45523 10.44097 2.45523 3.21629 0 6.15341-.84736 9.09183-2.02275.0192-.008.0383-.0152.0574-.0229 4.59743-1.88076 9.82017-4.28003 14.18411-8.3034 2.11614-1.94214 3.36054-3.94104 4.47606-6.17157 1.11703-2.23358 2.1299-4.41035 2.1299-7.90727 0-7.25111-3.58654-13.12278-7.86899-18.52238l.16266.21242c-1.21522-1.64413-2.02131-3.15558-2.54326-4.22155.43954-.25449.55105-.40121 1.20753-.67361 2.87648-1.19359 7.43949-2.13183 11.36143-2.13183 2.61777 0 5.56304-.52622 8.34359-2.59875 2.78055-2.07254 4.73632-6.05728 4.73632-9.67359 0-3.69926-2.42182-8.93103-6.15626-11.51645-3.32033-2.298651-7.98085-3.670399-13.08374-3.670399-8.02658 0-16.82438 2.888152-23.89404 9.005709-2.06192 1.64709-4.11836 3.66862-6.04144 5.90175-1.43988-2.51406-3.36434-4.79964-5.92663-6.64043-.25989-1.46466-.80982-3.18191-1.99595-4.988928-2.33935-3.563881-7.34032-5.873032-12.15178-5.873032-4.6126 0-9.57287 2.088519-13.03782 5.553452-.13586.135868-.11128.153221-.17605.237297-3.7913.304707-7.11296 2.349861-8.90238 4.139261-.12417.12418-.24415.25246-.35977.38465-1.41351 1.61546-3.71037 5.05878-4.03209 8.91959-.006.0726-.0112.14537-.0153.21816-.0379.68204.12226.13347-1.08314 1.73762-1.66291 2.0882-3.42692 4.93504-5.30276 8.09672-7.07792 8.91515-12.44462 14.7164-16.13412 17.95401-.0469.0412-.0569.0325-.10334.0727 1.21461-7.42891 3.27882-12.33819 4.42057-14.50751.0261-.0482.0515-.0967.0765-.14544.83203-1.66408.97051-1.59349 2.29066-2.72506.036-.031.0717-.0622.10717-.0938 1.83727-1.63312 4.91812-5.97522 4.91812-10.11372 0-4.5333-1.96377-7.93573-4.52391-10.60745-2.56013-2.67173-6.10161-4.904723-10.82561-4.904723-6.32869 0-9.42265 3.233843-12.7144 6.525593-.96856.96857-3.72923 3.97715-5.66827 6.05867-.20788-2.98464-1.06872-5.71366-2.54901-7.86708-2.86607-4.169347-6.10942-6.17731-11.00359-6.17731-5.7736 0-8.58152 2.529357-12.08096 5.61852-2.43808 2.01129-5.06317 4.56074-8.71484 8.2613-.14647-1.73179-.49172-3.40484-1.16543-4.78609-1.69406-3.47319-4.08088-5.50629-6.13904-7.17241-.012-.0096-.0242-.01917-.0363-.02871-2.67326-2.13861-6.25611-3.513491-9.47074-3.513491-4.7005 0-7.3926 2.611151-9.15306 4.606194-1.76046 1.995047-2.96189 4.065307-4.03784 6.144777-1.70598 3.29716-2.85361 6.3447-3.67041 8.66126.66695-2.71644.47908-5.45773-.22964-7.70825-.5066-1.60872-1.23005-3.0294-2.13757-4.30767 1.06406-.005 2.20893-.117 3.57091-.55113 2.07709-.66206 4.37007-2.408306 5.56111-4.477976 1.19105-2.069669 1.45439-4.088247 1.45439-5.819459 0-3.888572-.004-7.222273.85349-12.08289l-.0325.176058c.99696-4.984799-1.95458-10.436773-5.37166-12.758414-3.41709-2.32164-7.01684-3.006369-10.63807-3.006369-3.09917 0-7.25293 1.09799-9.98551 4.116296-2.73259 3.018306-3.50431 6.612866-3.72783 10.077367-.003.05547-.006.110967-.008.166489-.1987 4.570106.43262 8.152085 1.0793 10.523251.003.01213.007.02425.01.03636.86937 3.129772 2.57172 5.823014 4.84731 8.025916-3.94948.473672-6.19596 2.319657-8.50242 4.127781-.50917.39916-.97787.87848-1.47352 1.30703-.45884-.0426-.94383-.12439-1.36636-.12439-2.94471 0-8.40662.2521-13.4282.46502.63023-1.3015 1.11861-2.48405 1.86583-3.842638l-.1129.199022c2.97163-5.051796 2.34511-13.149852-2.19498-17.689932-1.99402-1.994028-6.27151-4.095246-9.47265-4.095246-3.84697 0-6.15721 1.203963-8.70335 2.763335-2.54234 1.557043-5.11161 3.581249-6.85284 7.247054-.00086.0018-.00098.0059-.002.0076-1.28872 2.707613-2.73737 6.73903-4.30384 10.949999-.78376 2.106896-1.53656 4.145516-2.13182 5.723786-.26051.69069-.20372.56381-.41718 1.08313-2.31414.48436-4.70027 1.00377-5.7965 1.18647-.11914.0196-.23783.0419-.35594.067-1.20925.25913-2.41723.80084-3.58813 1.42759 2.93852-7.12575 6.1838-14.518367 10.14626-22.175565.005-.0096.0102-.01913.0153-.02871 1.79995-3.514194 3.6728-6.747891 3.58047-11.592991-.0894-4.690111-2.99265-8.885641-6.31701-11.814976-2.30262-2.207298-5.75852-3.324038-8.34359-3.324038-3.93108 0-7.82748 2.276061-10.32423 5.327647-.029.03547-.0577.07119-.0861.107165-2.28707 2.896957-4.09866 6.483172-7.15519 13.014845-3.05655 6.531673-6.99256 15.683798-11.97573 28.182563-4.95876 12.39754-7.96953 21.42832-10.01805 28.66481-.18692.02-.3976.006-.58175.0287-.0677.008-.13535.0169-.20285.0267-1.28201.19424-2.165233.55488-3.295331.82287 2.459211-11.30369 7.173791-23.16351 11.434151-29.76708l-.27747.40378c3.33204-4.52206 4.79996-9.961872 2.63511-14.832821-.0713-.159418-.14791-.316425-.22964-.470762-1.20362-2.286866-2.80882-4.602676-5.0961-6.764811-2.00187-1.892347-4.75369-3.869527-8.628717-4.357418 1.458957-1.272896 2.990177-2.792066 4.099077-5.63192 1.47042-3.765708.27643-8.897491-1.9462-11.969983-3.289461-4.582456-8.438126-6.992547-13.988898-6.992547zm663.08539 1.515624c-2.07153 0-5.01552.980112-6.8758 2.583449-1.85213 1.596305-2.89977 3.374585-3.82159 5.329561-2.1338 4.448443-8.31362 19.361476-14.30849 34.088139-.0412-.000202-.0793-.01531-.12055-.01531-11.11642 0-22.41354 5.112449-32.2472 15.856629l-.002.002c-3.96293 4.33282-6.90002 8.57577-9.33869 12.57088-3.77916 4.72874-7.43779 8.62696-10.50985 11.50496.68727-6.99833 2.88638-14.47952 6.15052-21.8866.0987-.2254.18685-.45529.26409-.68892.1597-.47911 1.45677-3.67618.3234-7.3791-1.09832-3.58846-3.80623-5.96473-6.86814-7.76566-1.79661-1.144231-4.54355-2.001924-7.16285-1.672533-1.79027-1.499375-4.32286-2.811176-8.04506-2.811176-3.69768 0-12.57112 1.397602-22.85875 10.375889-.036.031-.0717.0622-.10716.0938-3.32545 3.00874-6.6277 6.44373-9.72908 10.16157.15673-.93756.38656-1.841.38656-2.84945 0-3.69603-1.07567-7.69454-4.2005-11.47434-3.12483-3.779794-8.66457-6.632762-15.03949-6.632762-6.43736 0-12.72465 2.181142-18.66973 5.578332-.0288.0165-.0575.033-.0861.0498-5.87258 3.45446-15.7687 9.87762-24.14664 20.80538-.75329.98254-.92895 1.33614-1.0908 1.61322-4.07183 4.30134-8.59443 8.58752-12.60914 11.89918 1.32927-4.72984 2.96185-9.64235 4.68848-13.17942.00095-.002.00096-.006.002-.008 1.52745-3.05117 2.46977-4.75477 3.32021-6.65765 2.37069-5.15602.87099-10.65396-1.73569-14.18218-2.6096-3.532152-6.47074-6.242368-11.75948-6.242368-2.72771 0-5.7058 1.151029-7.8135 2.772902-2.10771 1.621865-3.66045 3.564556-5.2377 5.930446-.0245.0361-.0488.0725-.0727.10908-.99044 1.54067-2.74741 4.31044-4.28087 6.74184-.44039-4.89782-3.11834-7.40017-5.72761-9.48795-2.84249-2.274385-6.25146-4.122033-10.90981-4.122033-5.4574 0-9.58815 3.264773-12.24172 7.245133-.12935.19422-.25003.39407-.36168.59897-.57131 1.0474-1.77314 3.52841-2.74612 5.45012.83711-2.84565 1.51808-5.11746 2.15096-6.72844.0299-.0767.0586-.15393.0861-.23156.4012-1.12331 1.91662-3.485669 1.80268-3.352739l-.41143.443969c1.09831-1.098317 2.46845-2.719776 3.36039-5.186026.8864-2.450924 1.01406-5.812061-.0823-8.781815-1.50603-4.175304-4.33515-6.240366-7.09013-7.752262-2.77637-1.523636-5.76999-2.45332-9.2277-2.45332-4.88786 0-8.92614 3.086963-10.2228 4.221548-.13219.115612-.26047.235601-.38465.359769-.29731.297309-.34063.40997-.40761.53774-.088-.007-.0653-.04831-.24113-.02488-.11007.0149-.2198.03213-.32915.05166-2.63285.464621-5.26628.691621-8.51964 2.288745-1.35778.619466-2.93836 1.506534-4.46458 3.201564-1.59787 1.774611-2.93939 4.684889-2.93939 7.631701 0 4.628106 2.55917 7.857276 5.07312 9.907046.57786.47116 1.24082.75761 1.85627 1.14629-7.04888 25.34061-10.89229 38.32344-16.01739 52.38088-2.20849 6.03496-4.09838 9.65744-6.09695 12.0848-.64404.52954-1.17715.85525-1.53475 1.02765-3.37861-1.87509-6.34431-3.38911-12.18432-3.38911-3.54628 0-6.23785 1.09361-8.79712 2.88198-2.55928 1.78837-5.58026 4.79764-5.58026 9.87644 0 3.49543 1.12074 5.86737 2.46863 8.07949 1.3479 2.21212 2.90847 4.23183 5.89601 5.84051.0267.0142.0535.0282.0803.0421 4.20946 2.20495 8.78977 4.14309 14.36208 4.14309 4.13613 0 6.7161-1.20893 8.65359-1.76249l-.0918.0267c2.91812-.79586 5.41439-1.97839 7.2413-2.68105.23698-.0908.46945-.19299.69658-.30619 1.61806-.80903 8.43797-4.19462 14.51708-11.04951 5.41314-6.02755 9.35151-14.88256 13.01293-25.89956.57951 2.3325 1.42376 4.54189 2.72506 6.4835 2.18958 3.267 5.6519 6.65956 11.23896 6.65956 3.83477 0 8.27019-1.26772 12.58427-3.93833.023-.0139.0459-.0279.0689-.0421 3.83668-2.42989 7.47787-5.25164 10.90024-8.06036.27453 1.31903.65913 2.60785 1.20561 3.85986 2.07322 4.74982 7.44989 8.66701 12.84836 8.66701 4.87294 0 9.53359-1.49385 14.99166-4.21773 1.74193-.84785 3.83573-2.16712 5.9783-3.58429.15615.25031.21929.53892.38656.7846 2.22392 3.26642 5.98777 6.69209 11.55089 6.69209 7.41794 0 12.98437-3.10654 17.04502-5.61278-2.30497 8.66127-5.09752 16.88182-9.87451 23.63951-.004.005-.008.0102-.0115.0153-6.42917 9.14369-10.58692 9.93958-12.02165 9.93958.29971 0-.91982-.32291-2.90303-1.88113l.22198.18179c-2.87127-2.42955-6.26897-5.4329-12.55748-5.4329-5.20937 0-8.07036 2.05977-11.10117 4.5086-3.03082 2.44883-6.51795 5.59246-6.51795 11.81307 0 6.57384 4.63633 10.21863 8.16179 12.18431 3.52545 1.96568 6.8311 3.00446 10.7548 3.00446 1.93406 0 1.5031.005 3.081.47841.0636.0193.12735.0378.19137.0555 3.46247.94431 6.4017.92621 9.04781.92621 4.53706 0 8.21066-1.34027 12.7412-3.21304 4.51634-1.8669 9.29633-4.3988 13.49134-7.6872 9.35458-7.21785 19.44168-20.58251 24.69587-41.40026l.002-.004c.41166-1.60922 1.27373-5.23442 1.91941-7.82116.66028.80785 1.3509 1.54669 2.04571 2.16436 1.50585 1.33866 3.03977 2.32257 4.58132 3.06186 1.54153.7393 2.73764 1.40464 5.52666 1.40464 5.63839 0 10.80179-2.50347 15.8222-6.21177 1.96138-1.40427 4.23566-3.39946 6.45096-5.30277 3.03724 6.4894 9.04868 11.51454 16.79434 11.51454 5.6696 0 10.55042-2.13117 15.08926-5.18222.12322.15724.20309.34279.33298.49564 2.9727 3.49832 7.42258 5.00999 10.99976 5.00999 6.67246 0 13.53175-2.81948 21.62442-8.33594l.006-.004c1.52615-1.03803 3.42486-2.7024 5.22048-4.16606.45683 1.23375 1.00611 2.45766 1.73952 3.6532 2.56252 4.1772 7.8627 7.88048 13.88174 7.88048 7.40257 0 13.70799-3.21548 19.3242-7.47288 3.23894 4.97147 8.31246 8.44502 14.71801 8.44502 11.21482 0 21.1852-4.76601 29.24656-11.73269.005.40147.0411.80194.10717 1.19795 1.05474 5.80117 5.15471 8.39261 8.51007 10.02379s6.79169 2.45714 10.44288 2.45714c3.22193 0 6.15671-.85059 9.09183-2.02465.0192-.008.0383-.0152.0574-.0229 4.59425-1.87946 9.81843-4.27475 14.18601-8.30149 2.11718-1.94308 3.36072-3.94258 4.47606-6.17348 1.11687-2.23394 2.12991-4.41035 2.12991-7.90727 0-7.25112-3.58721-13.12168-7.86899-18.52046l.16266.21241c-1.21485-1.64361-2.02122-3.15498-2.54327-4.22154.43955-.25457.55076-.40297 1.20753-.67552 2.87588-1.19348 7.43758-2.13184 11.35953-2.13184 2.61593 0 5.56011-.52409 8.34167-2.59492 2.78155-2.07084 4.74015-6.05756 4.74015-9.6755 0-3.69926-2.42179-8.93102-6.15627-11.516448-3.3195-2.298112-7.98027-3.672324-13.08564-3.672324-8.02658 0-16.82438 2.888157-23.89404 9.005712-2.33091 1.862-4.67548 4.17149-6.7763 6.78969-1.4797-2.86146-3.54576-5.47329-6.40695-7.52837-.25998-1.46472-.80946-3.18202-1.99596-4.988922-2.34006-3.563654-7.34114-5.871129-12.15177-5.871129-4.61259 0-9.57287 2.088513-13.03781 5.55346-.13611.136103-.11119.153079-.17606.237296-3.79035.304884-7.11034 2.347225-8.90238 4.139255-.12417.12418-.24416.25247-.35977.38465-1.41102 1.6126-3.71032 5.05647-4.03209 8.91769-.006.0726-.0112.14537-.0153.21815-.0383.68906.14308.0963-1.10609 1.76632-2.01551 2.53676-4.2093 6.10894-6.46246 10.14243-1.64008 2.19542-5.90191 7.23128-10.02952 11.35953-.11279.1128-.19538.16592-.3081.27748 1.39197-8.04156 4.21494-19.83181 7.58768-29.14323l.004-.0115c.002-.005.004-.0105.006-.0153 5.20528-14.190987 8.99693-21.205884 11.54898-27.403703.0103-.02483.0205-.04971.0306-.07463.98582-2.464566 1.878-5.077761 1.68593-8.339759-.19206-3.261997-1.80853-6.385377-3.5709-8.525383-.0183-.02243-.0368-.04476-.0554-.06698-1.68658-2.00281-3.42089-3.645774-5.63192-4.822439-2.21103-1.176667-4.79275-1.553898-6.40313-1.553898zm-666.675428 33.510211c-.729345 1.477711-2.212508 4.743666-2.43227 5.551547-.424584.90982-4.200177 7.33754-11.292545 15.66336-.029.0342-.0577.0687-.08611.10334-8.107877 9.8526-12.499004 14.83567-15.889172 18.49558 3.137252-8.8301 8.234317-20.87301 12.586184-29.694359l-.05166.103339c1.162389-2.271944 1.858099-4.663111 2.120342-7.01933.03363.01.07385.03438.107166.04401 2.793755.808019 4.882296.644761 7.197299.01339.110411-.03014.220154-.06269.32915-.0976 2.083613-.666755 4.630766-1.75838 7.41163-3.163291zm646.319768 8.940649c1.71108.373755 2.31125.34772-.30619.07463.0724-.0014.2412-.07662.30619-.07463zm-509.98061.782687c.0396.03126.0778.07084.0574.05937-.0224-.01744-.0349-.04193-.0574-.05937zm440.74224 1.418031c-.33457.25355-.76125.50631-1.03338.74441l.81905-.62577c.034-.0226.16824-.0856.21433-.11864zm-443.09605.57601c.006.002.0134.004.0191.006.004.002.007.004.0115.006zm252.58483 6.69592c.26116.0633.49755.17823.76354.23155-.26084-.0515-.35079-.0429-.76354-.23155zm-331.78382 3.83307c-.0387.0436-.0482.0941-.0861.13779-.0296.0354-.0957.0741-.12439.10908zm86.2432 4.62725c-.009.0268-.0179.0535-.0267.0803-.83233 2.70506-.73679 6.14799.7004 8.86028-.15918.57929-.33543 1.23464-.49373 1.80459-2.94785 2.985-6.03203 5.86683-9.07843 8.53495 2.55205-6.56506 5.21056-12.50566 8.34932-17.97316.0475-.084.0934-.16884.13779-.25451.181-.34391.26472-.7023.41144-1.05252zm1.57877 5.64532c-.0236.0823-.0797.27748-.0842.29279.039-.34729.12212-.4192.0842-.29279zm-89.34716 3.63597c1.61759 2.17273.33799.90635 2.04762 2.42652.36468.30391 1.31811.84728 2.06867 1.33383-2.72937 2.80741-5.37053 5.28435-7.82498 7.2968 1.04079-3.29345 2.27695-6.94059 3.70869-11.05715zm49.96773.90707c.13167 1.11905.32823 2.09276.59707 2.91834-.74159 1.7383-1.49 3.93152-2.21986 6.15818-2.52236.0137-4.48318.98485-6.00125 1.9749l.12821-.0823c-2.05765 1.28604-5.49067 2.78133-8.5139 3.94789.88748-3.4099 2.65246-8.76818 4.30575-12.90959 4.4077-.63129 8.25462-1.30814 11.70398-2.00744zm-13.45689 2.283c-.0883.0462.3096-.0151 0 0zm14.27786.0172c-.0162.0365-.0316.0991-.0478.13588.00035-.003-.00034-.0124 0-.0153z" fill="#333" stroke-width="1.875"/><g fill="#f4c401" transform="matrix(.4052611 0 0 .4052611 10.794559 33.775264)"><g stroke-width="2.46754"><path d="m212.22967 130.61598c-4.38434 0-10.363 2.79004-13.95019 9.56585-2.39146 5.1815-5.58008 11.55873-8.37012 19.1317-2.79004 5.97865-12.35588 21.52315-30.69043 43.04631-31.48758 38.26339-43.84347 51.41643-53.40931 60.5837-10.363005 9.16728-17.537391 12.35589-23.516046 12.35589-3.587193 0-7.572963-4.78292-1.992885-26.30608 5.978655-23.11747 23.516041-65.36663 38.263391-95.2599 8.76869-17.13881-.39858-25.90751-7.97154-25.90751-7.97154 0-17.935964 3.98577-24.711773 7.17439-9.167271 4.38435-13.153041 7.97154-10.761579 13.55162 2.790039 7.97154 1.195731 14.74735-1.594308 21.92173-17.935965 47.03209-30.291851 80.91113-37.466237 118.77595-.797154 4.38434-1.195731 8.76869-.398577 12.75446.797154 3.58719 3.188616 6.77581 5.978655 9.16727 3.985769 3.18862 9.964424 4.78292 13.950194 4.78292 10.761579 0 21.523158-3.58719 29.893275-8.37011 9.964425-5.1815 20.32743-12.75447 39.8577-31.48758 17.93596-17.53739 39.06055-43.84347 41.05343-46.23494 1.99289-2.39146 3.98577-2.79004 2.79004 1.19573-8.76869 28.69755-13.55162 52.61217-15.94308 64.96805-2.79004 14.34878-1.19573 20.72601 11.55873 25.90751 5.1815 2.39146 7.57297 1.99288 10.76158 1.99288 2.39146 0 5.1815-1.5943 8.37012-4.78292 8.37011-10.363 28.69754-29.89327 45.83635-42.64774 6.77581-5.1815 7.57297-11.16015-1.99288-9.96442-13.15304 1.99288-21.52316 5.97865-30.29185 9.56585-3.5872 1.5943-4.38435.39857-3.98577-5.18151 3.18861-37.46623 19.13169-80.91113 35.07477-105.6229 5.58008-7.57296 5.97866-13.55162 4.38435-17.13881-3.98577-7.57296-12.35589-17.53739-20.72601-17.53739zm-69.35239-8.37012c0 4.78293 6.77581 5.58008 11.16015 4.38435 9.96443-3.18861 26.30609-10.76158 46.23493-26.704657 7.57297-6.377232 11.95731-11.558733 5.58008-20.327427-3.98577-5.580078-11.16015-9.167271-18.73312-9.167271-5.58007 0-11.16015 3.587193-16.34165 10.363002-6.37723 8.370117-15.14593 20.327423-22.32031 28.697543-3.98577 4.78292-5.58008 8.76869-5.58008 12.75446z" stroke-width="1.91365"/><g stroke-width="4.62665"><path d="m237.60692 294.01525c0 14.4 8.8 26 20.4 26 36.8 0 86.4-50.8 98-74.4 3.2-6.4 4.4-12.4 2.8-15.6-1.6-2.8-4.8-3.2-8.4 1.2-26.4 32-56.8 55.6-69.2 55.6-6.4 0-9.6-5.6-3.2-26.4 9.2-30 26.8-84.8 56.4-142 8.4-16.4 10.4-23.599997-2.8-34.799997-2-2-4.4-2.8-7.2-2.8-3.2 0-6.8 1.6-10.4 6-6 7.6-20 35.599997-44.4 96.799997-27.2 68-32 98.8-32 110.4z"/><path d="m382.40737 288.81525c-10.4 0-12-7.6-10-19.6 1.6-11.6 10-35.2 15.6-48 2-4 3.6-5.2 8.8-6 35.6-4.8 59.2-11.2 66-14.8 5.6-3.2 10.4-12.4.8-12.4-10.8 0-39.6 1.6-57.6 2-2.4 0-6 .4-4.8-2.8 1.6-3.6 8-20.4 16.8-36.4 4-6.8 3.6-14-2.4-20-3.2-3.2-5.6-4.4-9.6-4.4-6 0-17.2 6-20.8 13.6-4 8.4-16.4 43.6-18.4 47.6-1.6 4.4-4 5.2-7.6 6-8 1.6-14.8 3.2-19.6 4-5.6 1.2-8 3.2-11.6 7.6-3.2 3.6-3.6 9.6-.8 12.4 2.4 2 5.6 4.4 10 4 5.2-.8 10.8-1.2 14-1.6 4-.4 4 1.2 2.8 4-2 5.6-15.2 44.4-19.2 55.6-3.2 8.4-4.4 13.2-4.4 18 0 14 14 22.4 25.6 22.4 5.2 0 10.4-.8 17.2-3.2 32-10.4 48.4-24.8 55.6-32.4 6.8-7.2 5.2-18-4-12-9.6 6-28.8 16.4-42.4 16.4z"/><path d="m510.80778 93.615253c-8.8 0-13.6 4.4-14.4 16.799997-.4 9.2.8 15.6 2 20 2 7.2 8.4 14.4 17.2 17.6 7.6 2.8 13.2 2.4 13.2-5.6 0-9.6 0-19.6 2.4-33.2 2-9.999997-8.8-15.599997-20.4-15.599997zm-50 227.599997c6.8 0 14.4-1.6 24.4-5.6 23.2-9.2 60.4-45.2 76-70.4 5.2-8.4 6.4-14.8 4.4-18.4-1.6-2.8-5.6-3.2-10.4 2-22.4 25.2-62 61.2-74.8 61.2-7.6 0-8.4-5.6-4.4-18 9.6-30.8 19.6-53.2 32-74.8 4-7.6 0-16.4-5.2-20.4-2-1.6-4.4-2.4-6.8-2.4-11.6 0-36.8 26.8-43.2 43.2-2.4 6-1.6 9.6 0 13.2 2 3.6 2 6 0 11.6-3.2 7.2-10 29.2-12.4 38.8-2.8 9.6-2.8 16.8.8 24 5.6 12.4 13.6 16 19.6 16z"/><path d="m662.40799 174.41525c-4 0-10.4 3.2-17.2 9.2-6.8 5.6-11.6 10-24 22.8-14.8 15.2-26 28.4-42.8 47.2-6 6.8-8.4 4-4.8-7.2 5.2-17.2 12-36 16.8-46.4 5.2-10.8-1.2-18.4-9.6-25.2-4-3.2-7.6-4.4-11.2-4.4-10.8 0-21.6 29.6-24.8 39.2-1.6 5.2 1.2 7.6 2.8 7.6 2 0 2.4 2 1.2 6-7.2 27.2-13.2 46-14.8 58-3.2 27.2 8.4 37.2 14.4 37.2 4 0 8.4-2 15.6-10 7.6-8.4 47.2-59.2 53.2-66 4.4-5.2 8.8-7.6 10.4-6.8 2 1.2 1.2 4.8-.4 8.8-4 11.6-7.6 23.6-10.4 34.8-5.6 21.2-2 38.8 7.6 38.8 5.6 0 11.6-3.6 19.6-11.2 8.8-8.4 43.6-48 53.2-59.2 4.4-5.2 6.4-4.8 4.8.8-1.2 4.4-2.8 14.4-3.6 21.2-4 35.2 8.8 51.2 29.2 51.2 19.6 0 52.8-21.2 81.6-71.6 6-10.4 7.2-17.2 5.2-20-1.6-2.4-4.8-2-8.4 2.4-36.4 46-55.6 60.8-66.8 60.8-9.6 0-11.6-10.8-9.2-26.8 3.2-22.8 9.6-38 13.6-45.6 3.6-7.2 7.6-10.4 10.4-12.8 3.6-3.2 5.6-5.6 5.6-10.4 0-8.8-9.2-18.8-18.4-18.8-4.8 0-11.2 4-17.6 10.4-7.6 7.6-48.8 52.8-61.2 65.2-2.4 2-4.4 3.6-6.4 2.8-1.6-.8-.8-4 1.6-10 4.4-11.6 14-33.6 16.8-41.6 8-22.4-6.4-30.4-12-30.4z"/><path d="m787.60811 287.21525c0 18.8 12 33.6 26.4 33.6 28.8 0 54.8-16 74-38.8 16.4-18.4 22.4-37.6 22.4-53.6 0-15.6-5.6-33.2-20-40.4-2.8-1.2-3.2-2.4-3.2-4.8 0-5.6-.8-15.6-16-15.6-6.8 0-12.8 2.4-18.4 8-4 4-6.8 6-12 6-4.4 0-7.6 2-10.4 4.8-2.8 3.2-4.8 6-5.2 10.8-.4 7.2-3.6 10.8-6.8 15.2-4.8 6-15.2 21.6-21.2 35.2-7.2 17.6-9.6 28.8-9.6 39.6zm37.6-6.8c0-16.8 16-49.2 34-70.4 2.4-3.2 6.4-6.8 9.2-6.8 7.2 0 10 11.2 10 21.2 0 14-13.6 44.8-25.2 57.6-7.6 8.4-14.4 11.6-19.6 11.6-3.6 0-8.4-4.8-8.4-13.2z"/><path d="m994.6082 174.01525c-13.2 0-34 6.8-46.4 17.6-11.6 9.2-24 24.8-24 39.2 0 5.2 2 12 4 16.8 2.8 6 9.2 17.2 13.2 22.4 5.6 7.6 9.2 14.8 9.2 18.8 0 2.4-3.2 5.6-8.4 5.6-5.6 0-8-.8-12-2.4-3.6-2.8-6.4-2.8-10-.8-3.6 1.6-8.8 4.8-14.4 11.2-2.8 2.4-3.2 5.6-3.2 8.4 1.6 8.8 16.8 14.8 27.6 14.8 4.4 0 9.2-1.2 15.2-3.6 8.8-3.6 24-12 29.2-16.8 4.8-4.4 10-14.4 10-20.4 0-10.4-6-22-15.2-33.6-6.8-9.2-12-18-12-25.6 0-12.4 27.6-22.8 52.4-22.8 6.8 0 12.8-3.2 12.8-10.8 0-4.8-1.6-8.8-6.8-12.4s-11.2-5.6-21.2-5.6z"/></g></g><g stroke-width="4.62665"><path d="m1169.4101 124.17001c-6 0-9.2 2.8-12.4 5.6-4.8 4.8-6.8 6-12.8 6.8-6.8 1.2-12 2-16 4-3.6 1.6-7.2 4.4-7.2 9.2 0 6.8 8.4 13.2 17.6 14.8 2.8.4 3.2 1.2 2.8 3.6-20.8 75.2-30 106.4-44 144.8-6 16.4-11.6 28-19.2 36.8-6.8 6.4-12.8 9.2-16.8 9.2s-7.6-1.6-10.4-3.2c-3.6-2-14.4-6-20.8-6-6.8 0-16 5.6-16 12 0 6 5.2 14.4 10.4 17.2 8.4 4.4 18.8 8 26.4 8 4.8 0 10.4-2 16-3.6 4.4-1.2 10.8-4 16-6 4-2 17.6-8.8 30-22.8 14.4-16 28-52 41.2-100.4 19.2-70 21.2-78 25.6-89.2 2-5.6 5.6-11.6 8-14.4 2.8-2.8 6-7.6 3.6-14-2.4-6.8-13.2-12.4-22-12.4z"/><path d="m1309.7096 283.37001c-6 0-6.8-5.2-6-14 2-16.8 10-42.8 18.4-60 4-8 6.4-12.4 8-16 4.8-10.4-5.6-22.8-15.6-22.8-4.8 0-9.6 3.2-16 12.8-7.2 11.2-24 40-42.8 62-19.2 20.8-30.4 30.8-34.8 30.8-4.8 0-6.8-4.4-2.8-17.2 4.8-16.4 8-24 11.2-30 2.8-5.2 7.6-7.6 11.6-12.8 3.6-4.8 11.6-18.4 11.6-23.6 0-7.2-12-17.2-22-17.2-4.8 0-10 3.2-14 9.2-4.8 8.8-17.2 32.4-26.8 60.8-11.2 29.6-12.4 39.6-12.4 46 0 12.8 8.4 25.2 16.8 25.2 6 0 12.4-1.6 20.8-6.8 24-15.2 50.4-40.8 56.8-47.6 2.4-2.4 5.2-.8 4 3.6s-2.4 8.8-3.6 15.2c-4.8 23.2 2.4 36.8 14.8 36.8 6 0 17.2-2.8 28.4-8.4 14-6.8 37.6-21.6 68-61.6 6-7.6 8.4-16.4 6-21.2-1.6-3.6-4.8-3.6-8-.4-23.6 26.4-58 57.2-71.6 57.2z"/><path d="m1467.7096 171.37001c-8.8 0-25.2 4.8-36.4 11.2-13.6 8-35.6 22.4-54 46.4s-26.8 48-26.8 63.6c0 11.2 8 24.4 17.6 24.4 11.2 0 28.4-8.8 36.8-14 13.6-8.4 25.2-18.4 30-22.4 2.4-2 4-2.4 3.6.8-.8 5.6-2 16.8-6.4 34.4-6.4 26-14 53.2-30.4 76.4-18 25.6-34 32.8-45.6 32.8-7.2 0-13.6-4.4-19.2-8.8-5.2-4.4-12.4-8.8-18.4-8.8-8.4 0-24 11.2-24 20.8 0 10.8 18 18 27.2 18 6.4 0 9.2.8 13.2 2 4.4 1.2 11.6 1.6 17.2 1.6 10.4 0 36-9.6 52.8-22.8 19.2-14.8 42-44 54-91.6 4.4-17.2 15.2-59.2 22.4-101.6.8-4 1.6-9.6-.4-11.6-1.2-.8-.4-2.4 2.8-4.4 6.8-4.8 12-12.8 12-21.2 0-8.8-6.4-25.2-28-25.2zm-78 101.6c0-10.4 10.8-31.2 19.2-42 14.4-18.4 32.4-28.4 48.8-28.4 8.4 0 13.6 4.8 13.6 7.6 0 1.6-1.2 3.6-2 4.4-1.6 1.2-3.6 1.6-5.2 2-4.4 1.2-9.2 4.4-13.6 10.8-2.4 3.6-7.6 12.8-21.2 26-5.6 6-25.6 26-35.2 26-2.8 0-4.4-2.8-4.4-6.4z"/><path d="m1594.9096 172.17001c-4.4 0-21.6 1.6-43.6 20.8-16.8 15.2-33.6 34.8-44 56-12.8 24.4-15.2 37.2-15.2 45.2 0 15.2 15.6 23.6 20.4 23.6 8.4 0 16.8-3.6 27.6-11.6 11.2-8 32.4-27.2 37.2-32.8 2.4-2.4 3.2-2.4 3.6 1.2 0 4.4 0 8 .8 14 1.6 16.4 12.4 29.2 27.2 29.2 25.2 0 64-37.6 81.6-72.4 3.6-7.6 5.6-14.8 3.6-18.4-1.6-2.8-5.6-3.2-10 .8-25.2 34.8-52.4 59.2-61.6 59.2-6 0-10-5.6-10-19.6 0-24 7.2-48.8 17.6-72.4 1.2-3.6 3.2-8.4-8-14.8-3.6-2.4-6.4-1.6-9.6 1.2-2.4 1.6-4.4 1.6-5.2-.8-2.4-3.2-6.8-8.4-12.4-8.4zm-14.8 30c5.2 0 8.4 4.8 9.6 8.4 1.2 4 0 9.2-2.4 13.2-1.6 2.8-8 14-13.6 20.4-12 14-17.6 21.6-24.4 27.2-6 5.2-12 9.2-15.2 9.2s-4-5.6-2.8-10.8c2.4-10.8 13.6-33.2 27.2-49.2 11.6-13.6 18-18.4 21.6-18.4z"/><path d="m1761.3101 177.77001c-22 0-43.6 9.2-65.2 32.8-30 32.8-40 64.8-40 82 0 20 9.2 26 18 26s24.8-5.2 42.4-17.2c10-6.8 29.2-23.6 38.8-35.6 2-2.8 3.6-2.4 3.2.8-.8 4.8-1.6 10-2 18.8-.8 14 6 30.8 22.4 30.8 31.2 0 71.2-44 83.6-69.6 3.6-7.6 5.6-14.8 3.6-18.4-2.4-4-7.2-3.2-12 3.6-7.6 11.2-45.2 54-57.6 54-6 0-8.8-7.2-7.6-20 1.6-20 10.4-60.4 22-92.4 13.2-36 23.2-54.8 28.8-68.4 4-9.999997 4-15.199997-1.6-21.999997-6.4-7.6-10.4-8.8-14.8-8.8-2.8 0-5.6 1.6-8.8 8.4-4.8 10-22.8 52.799997-39.6 94.399997-.8 2.4-1.6 2.4-3.6 2-3.2-.8-6.4-1.2-10-1.2zm-8 23.2c3.2 0 6 2 7.2 4.4 1.6 2.8 2 6-.4 11.2-2.4 6-20 34.4-33.6 48-12.8 12.4-22.4 17.6-27.2 17.6-2.8 0-5.2-2.8-5.2-6.8 0-6 2-14.8 19.2-38.8 15.2-21.6 32.8-35.6 40-35.6z"/><path d="m1836.5108 284.97001c0 18.8 12 33.6 26.4 33.6 28.8 0 54.8-16 74-38.8 16.4-18.4 22.4-37.6 22.4-53.6 0-15.6-5.6-33.2-20-40.4-2.8-1.2-3.2-2.4-3.2-4.8 0-5.6-.8-15.6-16-15.6-6.8 0-12.8 2.4-18.4 8-4 4-6.8 6-12 6-4.4 0-7.6 2-10.4 4.8-2.8 3.2-4.8 6-5.2 10.8-.4 7.2-3.6 10.8-6.8 15.2-4.8 6-15.2 21.6-21.2 35.2-7.2 17.6-9.6 28.8-9.6 39.6zm37.6-6.8c0-16.8 16-49.2 34-70.4 2.4-3.2 6.4-6.8 9.2-6.8 7.2 0 10 11.2 10 21.2 0 14-13.6 44.8-25.2 57.6-7.6 8.4-14.4 11.6-19.6 11.6-3.6 0-8.4-4.8-8.4-13.2z"/><path d="m2046.5108 171.77001c-13.2 0-34 6.8-46.4 17.6-11.6 9.2-24 24.8-24 39.2 0 5.2 2 12 4 16.8 2.8 6 9.2 17.2 13.2 22.4 5.6 7.6 9.2 14.8 9.2 18.8 0 2.4-3.2 5.6-8.4 5.6-5.6 0-8-.8-12-2.4-3.6-2.8-6.4-2.8-10-.8-3.6 1.6-8.8 4.8-14.4 11.2-2.8 2.4-3.2 5.6-3.2 8.4 1.6 8.8 16.8 14.8 27.6 14.8 4.4 0 9.2-1.2 15.2-3.6 8.8-3.6 24-12 29.2-16.8 4.8-4.4 10-14.4 10-20.4 0-10.4-6-22-15.2-33.6-6.8-9.2-12-18-12-25.6 0-12.4 27.6-22.8 52.4-22.8 6.8 0 12.8-3.2 12.8-10.8 0-4.8-1.6-8.8-6.8-12.4s-11.2-5.6-21.2-5.6z"/></g></g></g></svg>