<svg height="149.28433" viewBox="0 0 85.569205 24.569215" width="519.92468" xmlns="http://www.w3.org/2000/svg"><g stroke-width=".41145" transform="translate(-10.137116 -2.218462)"><text fill="#ef00eb" font-family="TrasksHand" font-size=".32916" stroke="#0105ff" transform="matrix(.48151278 -.87643907 .87643907 .48151278 0 0)" x="-8.167831" y="21.668863"><tspan fill="#fafafa" fill-opacity=".4" font-size=".32916" stroke="none" stroke-width=".41145" x="-8.167831" y="21.668863">John Loreth 2022</tspan></text><path d="m43.275391 2.2207031c-1.314702.1219232-1.812868 1.6587312-1.612928 2.7898374.02544.976444.631071 1.930399 1.462537 2.3918033-1.163551-.3440034-2.162967.6755583-2.888672 1.4433593-.657339.8613207-1.47521 1.8695539-1.294922 2.9964839-.467569.841269-1.198749 1.613147-1.938273 2.264589-.237195.02237.04062-.928438.0496-1.251307.192598-1.181404.769837-2.279058.978516-3.4394534-.070723-.9777165-1.056752-1.8102575-2.037108-1.6386718-1.145609-.9383044-2.739913-.2118599-3.756392.5688934-2.027138 1.481672-3.45926 3.6672188-4.306108 6.0092318-.275535-.190181-.622823-.257653-.953125-.246094.120749-2.322914.66878-4.550347 1.179687-6.8085938.077967-1.2592059-.937079-2.7633966-2.328125-2.4902343-.537278.1424398-.804457.724578-1.352736.8289075-.806053.5316729-.513054 1.6944156-1.185991 2.3257484-1.085202 1.6082295-2.124453 3.2550072-3.371429 4.7457352-.168789-1.696964-.435611-3.3525015-.080078-5.0039068.612921-1.3093113-.244927-3.0208978-1.693947-3.2336507-.923291-.2504009-1.544926.5679686-2.081444 1.1652914-.637247.281856-1.329258.6387293-1.599609 1.34375-.323938.625252-.09322 1.3341592.232422 1.8867187-.696686 1.6620364-1.4807 3.3210694-2.421875 4.8691404-.227036.663027-1.074089.373165-1.51089.846032-1.069903.846534-.63867 2.576408.301199 3.359351.717802.718675 1.918796 1.111376 2.797581.433289 1.173025-.911214 1.676134-2.392096 2.31836-3.679687.200955 1.293659.579778 2.803048 1.77539 3.519531 1.362717.545534 2.591612-.627896 3.453769-1.537222.487726-.496716.933869-1.031872 1.354825-1.585825-.23721.786065-.664965 1.682823-.08789 2.431641.86419 1.289773 2.797568 1.413319 3.966602.467709.436988-.288815.811531-.665581 1.142773-1.069272.520976 1.402084 2.450104 2.043082 3.644203 1.071967.672515-.336521 1.267722-1.008287 1.818688-1.366889.465087 1.371919 2.092527 2.292934 3.470703 1.658203.657145-.201547 1.269675-.7126 1.785156-1.035156.584138 1.12979 2.054279 1.656436 3.207308 1.083845 2.439726-.801214 4.140347-2.896322 5.624724-4.88072.576148-.788298.891378-2.195253-.08984-2.802734-.923124-.472423-1.83704.337035-2.336538 1.0531-.728917.775303-1.459479 1.559493-2.307993 2.206665.476532-1.519697 1.300487-2.914547 1.824673-4.4058966.09725-.7747884-.335579-1.572191-1.002408-1.9632436.809118.3942109 1.987551.079271 2.13086-.9082032.0872-.7874152.06745-1.5822599.194717-2.3656232.102733-.9485239-.589912-1.8173872-1.524546-1.9637643-.308871-.081197-.633717-.092951-.951421-.084675zm12.134765 2.0703125c-.855939.068456-1.362226 1.0225386-2.257812.9257813-1.218747.2341348-2.001882 1.8609196-1.009766 2.7988281.355762.3382543.851017.5103184.466842 1.0690142-.915532 3.2289108-1.636517 6.5606738-3.136205 9.5807818-.222112.477651-.68663.430239-1.023996.13536-1.109227-.531526-2.825651-.262464-3.191407 1.074219-.356457 1.492184 1.10795 2.702266 2.462891 2.886719 1.641494.26342 3.244327-.588892 4.494141-1.572266 2.109608-1.944119 2.652766-4.898713 3.456918-7.522534.571335-2.004542.920092-4.1130551 1.802715-6.0034391.610048-.7516405.762815-1.9643251-.0487-2.6380893-.525947-.5232725-1.282869-.7673641-2.015621-.734375zm35.353516.00195c-1.495899.1054057-2.31437 1.6797985-2.607811 2.9091014-.221982.4379915-.233591 1.1058007-.611922 1.3924979-.791326.0880797-1.744702.4853935-2.19433.9874663.042515-1.0434393-1.002273-1.9866233-2.037109-1.8046874-1.144499-.9392573-2.734212-.2090043-3.752786.5645724-1.698148 1.2302737-2.975757 2.9741618-3.842917 4.8690218.183966-.647451-.036403-1.459106.570312-1.896485 1.094333-1.4544691.082332-3.8757841-1.769531-4.0078124-1.986511-.1739694-3.804049 1.0315651-5.20825 2.3159743-1.443428 1.3484211-2.495448 3.0832811-4.137453 4.2230881.240474-1.52661 1.089132-2.861095 1.542549-4.3136808.28207-1.5016468-1.617997-2.9718734-2.927315-1.9929597-.979019.6846216-1.315898 1.9075395-2.02539 2.8203125.472795-1.0728759-.237194-2.2978152-1.292927-2.6599109-.961053-.4156317-2.217045-.0004871-2.586767 1.0215054-1.127755 1.9915215-1.863816 4.1885795-2.442572 6.3923115-.218846 1.272395.288792 2.949104 1.706545 3.23392 1.594475.234562 2.769838-1.108819 3.926268-1.968295.04887 1.162062 1.077635 2.312252 2.308593 2.066406 1.057192-.08028 2.022961-.730448 2.878907-1.191406.509899 1.01313 1.845479 1.516912 2.859224.941325.627917-.208597 1.210626-.529058 1.763822-.88859-.495779 2.145376-1.238524 4.511794-3.130657 5.826239-.600525.345376-1.026792-.214694-1.449421-.53913-1.016602-.701921-2.47241-.45285-3.223027.519503-.762873.806138-.722415 2.285898.303105 2.861356 1.013538.682628 2.309565.69531 3.479601.813069 2.940048-.169864 5.366576-2.446144 6.562532-5.013591.795147-1.639283 1.219578-3.423757 1.592633-5.197915.2652 1.465831 2.057797 2.377317 3.371094 1.61914.805071-.366132 1.555831-1.105591 2.177734-1.566406.461631 1.347894 2.032587 2.26365 3.40625 1.69336.631033-.211735 1.159087-.62499 1.710938-.982422.894861 1.328266 2.824562 1.403886 4.117894.647125 1.497185-.611292 3.176738-1.490183 3.729762-3.117828.181411-1.023724-1.138061-1.955464-1.984895-1.242718-.555579.300788-1.080252.696172-1.710417.824749.115406-.897434.478932-1.750106.787109-2.585938.777102-.210771 1.60888-.261134 2.397109-.469871.935806-.24938 2.152606-.479013 2.591172-1.4520036.357048-.8419757-.339627-1.9464477-1.301538-1.7605715-.764028.00817-1.527797.046314-2.292212.073072.559967-.95354 1.138879-2.2803444.289063-3.2539063-.366012-.458363-.947489-.7683283-1.542969-.7089843zm-5.785156 6.4453124c.02754.648673.515998 1.210048 1.109375 1.431641-.577703.701074-1.119834 1.449181-1.847657 2.005859-.01082-1.177377.365246-2.367047.738282-3.4375z" fill="#333"/><g fill="#f4c401" transform="scale(.9822298 1.0180917)"><g><path d="m19.785563 14.254553c-.173577 0-.37195-.421543-.520731-1.586988-.173576-1.537396-.272763-3.1987746-.247967-4.2154393 0-.7934944.123984-1.0662581.322358-1.5373954.322357-.7439009-.520731-1.5869887-1.190242-1.5869887-.396747 0-.743901.5455274-.843088.6943076-.123983.2231703-.198373.2727637-.471137.3719504-.421544.1735769-1.239835.5455274-1.264632 1.0414614 0 .2975604.198374.7191043.371951.9670713.123983.1487802.123983.4215439-.14878.9670713-1.066259 2.3804834-2.603654 5.0089334-2.752434 5.2073064-.198374.272764-.545528.347154-.818291.322358-.595121-.04959-.917478.347153-.917478.843087-.04959.520731.917478 1.710973 1.710972 1.710973.347154 0 .669511-.247967 1.115852-.793495.818291-1.066258 2.107719-4.091455 2.77723-5.728037.123984-.322357.22317-.322357.247967-.07439 0 .694307.09919 1.314225.173577 2.330889.07439 1.091055.495934 3.893082 1.686175 3.893082.570325 0 1.413412-.743901 1.785363-1.091055 1.041461-.942274 2.653247-3.07479 4.017065-5.10812.173577-.247967.272764-.272763.22317-.04959-.37195 1.686175-.59512 2.802027-.892681 4.339422-.07439.371951-.14878.570324-.272763.768698-.173577.322357-.123984.619917.09919.818291.371951.322357.793495.570324 1.289429.570324.29756 0 .619917-.07439.917478-.22317.892681-.495934 1.810159-1.487802 1.834955-1.958939 0-.347154-.396747-.396748-1.140648-.223171-.272763.07439-.471137.0248-.471137-.247967.0248-.247967.0248-.669511.07439-1.264631.04959-.570324.421544-3.8682855 1.016665-5.480071.471137-1.239835-.223171-2.2812963-.843088-2.2812963-.173577 0-.322357.1239835-.471137.3471538-.123984.1983736-.297561.2727637-.495934.2727637-.198374 0-.421544.1239834-.446341.7191042-.0248.247967-.173577.6199175-.520731 1.1406482-.396747.5951208-3.07479 4.4634064-4.041862 5.4304774-.545527.520731-.719104.694307-.892681.694307z"/><path d="m35.481905 8.1545653c-.272764 0-1.339022.099187-2.70284 1.2894284-1.041461.9422743-2.082923 2.1573133-2.727637 3.4715383-.793494 1.512598-.942275 2.306093-.942275 2.802027 0 .942274.967072 1.463005 1.264632 1.463005.520731 0 1.041461-.22317 1.710972-.719104.694308-.495934 2.008533-1.686176 2.306093-2.03333.148781-.14878.198374-.14878.223171.07439 0 .272764 0 .495934.04959.867885.09919 1.016665.768698 1.810159 1.686176 1.810159 1.562192 0 3.967472-2.33089 5.058526-4.488203.223171-.471137.347154-.917478.223171-1.140648-.09919-.173577-.347154-.198373-.619918.04959-1.562192 2.157312-3.248367 3.669911-3.818692 3.669911-.37195 0-.619917-.347154-.619917-1.215038 0-1.487802.446341-3.025198 1.091055-4.4882028.07439-.2231703.198373-.5207307-.495934-.9174779-.223171-.1487802-.396747-.099187-.595121.07439-.14878.099187-.272764.099187-.322357-.049593-.14878-.1983736-.421544-.5207307-.768698-.5207307zm-.917478 1.8597527c.322357 0 .520731.29756.595121.52073.07439.247967 0 .570325-.14878.818292-.09919.173576-.495934.867884-.843088 1.264631-.743901.867885-1.091055 1.339022-1.512599 1.686176-.37195.322357-.743901.570324-.942274.570324-.198374 0-.247967-.347154-.173577-.669511.14878-.669511.843088-2.058126 1.686176-3.049994.719104-.843088 1.115851-1.140648 1.339021-1.140648z"/><path d="m44.309539 3.145632c-.545528 0-.843088.2727637-.892682 1.0414614-.0248.5703241.04959.9670713.123984 1.239835.123983.4463406.520731.8926812 1.066258 1.0910547.471137.1735769.818291.1487802.818291-.3471537 0-.5951208 0-1.2150383.14878-2.0581261.123984-.6199175-.545527-.9670713-1.264631-.9670713zm-3.099588 14.109322c.421544 0 .892681-.09919 1.512599-.347154 1.438208-.570324 3.744301-2.802027 4.711373-4.364219.322357-.520731.396747-.917478.272763-1.140648-.09919-.173577-.347153-.198374-.644714.123983-1.388615 1.562193-3.843488 3.793895-4.636983 3.793895-.471137 0-.52073-.347153-.272763-1.115851.595121-1.909346 1.215038-3.297961 1.983736-4.6369828.247967-.4711373 0-1.0166647-.322357-1.2646317-.123984-.099187-.272764-.1487802-.421544-.1487802-.719105 0-2.281297 1.6613789-2.678044 2.6780437-.14878.37195-.09919.595121 0 .818291.123984.22317.123984.37195 0 .719104-.198373.446341-.619917 1.810159-.768698 2.40528-.173576.595121-.173576 1.041461.04959 1.487802.347154.768698.843088.991868 1.215038.991868z"/></g><g><path d="m56.626241 5.1789614c-.371951 0-.570324.1735769-.768698.3471538-.29756.2975604-.421544.3719505-.793494.4215439-.421544.07439-.743901.1239835-.991868.247967-.22317.099187-.446341.2727636-.446341.570324 0 .4215439.520731.8182911 1.091055.9174779.173577.024797.198374.07439.173577.2231703-1.289428 4.6617797-1.859752 6.5959217-2.727637 8.9764057-.37195 1.016664-.719104 1.735769-1.190242 2.281296-.421543.396747-.793494.570324-1.041461.570324s-.471137-.09919-.644714-.198374c-.22317-.123983-.892681-.37195-1.289428-.37195-.421544 0-.991868.347154-.991868.743901 0 .37195.322357.892681.644714 1.066258.52073.272764 1.165445.495934 1.636582.495934.29756 0 .644714-.123984.991868-.22317.272764-.07439.669511-.247967.991868-.371951.247967-.123983 1.091055-.545527 1.859752-1.413412.892682-.991868 1.735769-3.223571 2.55406-6.223971 1.190242-4.3394227 1.314225-4.8353567 1.586989-5.5296643.123984-.3471538.347154-.7191043.495934-.8926812.173577-.1735769.371951-.4711372.22317-.8678844-.14878-.4215439-.818291-.7686977-1.363818-.7686977z"/><path d="m65.602619 15.048048c-.37195 0-.421544-.322357-.37195-.867885.123983-1.041461.619917-2.653247 1.140648-3.719505.247967-.4959336.396747-.7686973.495934-.9918676.29756-.6447142-.347154-1.4134119-.967072-1.4134119-.29756 0-.59512.1983736-.991868.7934944-.44634.6943076-1.487801 2.4796701-2.653246 3.8434881-1.190242 1.289429-1.88455 1.909346-2.157313 1.909346-.297561 0-.421544-.272764-.173577-1.066258.29756-1.016665.495934-1.487802.694307-1.859752.173577-.322357.471138-.471138.719105-.793495.22317-.29756.719104-1.1406479.719104-1.463005 0-.4463406-.743901-1.0662581-1.363818-1.0662581-.297561 0-.619918.1983736-.867885.5703241-.29756.5455274-1.066258 2.008533-1.661379 3.769098-.694307 1.834956-.768697 2.454874-.768697 2.851621 0 .793494.52073 1.562192 1.041461 1.562192.37195 0 .768698-.09919 1.289428-.421544 1.487802-.942275 3.124384-2.529263 3.521132-2.950807.14878-.14878.322357-.04959.247967.22317-.07439.272764-.148781.545527-.223171.942275-.29756 1.438208.148781 2.281296.917478 2.281296.371951 0 1.066258-.173577 1.760566-.520731.867884-.421544 2.33089-1.339022 4.215439-3.818691.37195-.471138.52073-1.016665.37195-1.314226-.09919-.22317-.29756-.22317-.495934-.0248-1.463005 1.636582-3.595521 3.545928-4.438609 3.545928z"/><path d="m75.397315 8.1049719c-.545527 0-1.562192.2975604-2.2565.6943076-.843087.495934-2.206906 1.3886155-3.347554 2.8764175s-1.661379 2.975604-1.661379 3.942675c0 .694307.495934 1.512599 1.091055 1.512599.694307 0 1.760566-.545528 2.281296-.867885.843088-.520731 1.562192-1.140648 1.859753-1.388615.14878-.123984.247967-.14878.22317.04959-.04959.347154-.123984 1.041462-.396747 2.132516-.396747 1.611786-.867885 3.297961-1.884549 4.73617-1.115852 1.586989-2.10772 2.033329-2.826824 2.033329-.446341 0-.843088-.272763-1.190242-.545527-.322357-.272764-.768697-.545527-1.140648-.545527-.520731 0-1.487802.694307-1.487802 1.289428 0 .669511 1.115852 1.115851 1.686176 1.115851.396747 0 .570324.04959.818291.123984.272764.07439.719104.09919 1.066258.09919.644714 0 2.231703-.595121 3.273164-1.413412 1.190242-.917478 2.603654-2.727637 3.347555-5.678444.272763-1.066258.942274-3.669912 1.388615-6.298362.04959-.247967.09919-.595121-.0248-.719104-.07439-.04959-.0248-.14878.173577-.272764.421544-.29756.743901-.793494.743901-1.314225 0-.5455274-.396747-1.5621921-1.735769-1.5621921zm-4.835356 6.2983621c0-.644715.669511-1.934143 1.190241-2.603654.892681-1.140648 2.008533-1.760566 3.025198-1.760566.52073 0 .843087.297561.843087.471138 0 .09919-.07439.22317-.123983.272763-.09919.07439-.22317.09919-.322357.123984-.272764.07439-.570324.272764-.843088.669511-.14878.22317-.471137.793494-1.314225 1.611785-.347154.371951-1.586989 1.611786-2.18211 1.611786-.173577 0-.272763-.173577-.272763-.396747z"/><path d="m83.654616 8.1545653c-.272764 0-1.339022.099187-2.702841 1.2894284-1.041461.9422743-2.082922 2.1573133-2.727637 3.4715383-.793494 1.512598-.942274 2.306093-.942274 2.802027 0 .942274.967071 1.463005 1.264631 1.463005.520731 0 1.041462-.22317 1.710973-.719104.694307-.495934 2.008532-1.686176 2.306093-2.03333.14878-.14878.198373-.14878.22317.07439 0 .272764 0 .495934.04959.867885.09919 1.016665.768698 1.810159 1.686176 1.810159 1.562192 0 3.967472-2.33089 5.058527-4.488203.22317-.471137.347154-.917478.22317-1.140648-.09919-.173577-.347154-.198373-.619917.04959-1.562192 2.157312-3.248368 3.669911-3.818692 3.669911-.371951 0-.619918-.347154-.619918-1.215038 0-1.487802.446341-3.025198 1.091055-4.4882028.07439-.2231703.198374-.5207307-.495934-.9174779-.22317-.1487802-.396747-.099187-.595121.07439-.14878.099187-.272763.099187-.322357-.049593-.14878-.1983736-.421544-.5207307-.768697-.5207307zm-.917478 1.8597527c.322357 0 .52073.29756.59512.52073.07439.247967 0 .570325-.14878.818292-.09919.173576-.495934.867884-.843087 1.264631-.743901.867885-1.091055 1.339022-1.512599 1.686176-.371951.322357-.743901.570324-.942275.570324-.198373 0-.247967-.347154-.173577-.669511.148781-.669511.843088-2.058126 1.686176-3.049994.719104-.843088 1.115851-1.140648 1.339022-1.140648z"/><path d="m91.068858 15.246421c-.644714 0-.743901-.471137-.619917-1.215038.09919-.719104.619917-2.182109.967071-2.975604.123984-.247967.22317-.322357.545527-.37195 2.206907-.297561 3.669912-.6943079 4.091456-.9174782.347154-.1983736.644714-.7686977.04959-.7686977-.669511 0-2.454873.099187-3.570724.1239835-.148781 0-.371951.024797-.297561-.1735769.09919-.2231703.495937-1.2646317 1.041464-2.2564997.247967-.4215438.223171-.8678844-.14878-1.2398349-.198373-.1983736-.347153-.2727637-.59512-.2727637-.371951 0-1.066259.3719505-1.289429.8430878-.247967.5207306-1.016665 2.7028402-1.140648 2.9508072-.09919.2727637-.247967.3223571-.471137.3719505-.495934.099187-.917478.1983736-1.215039.247967-.347153.07439-.495934.1983736-.719104.4711371-.198373.22317-.22317.595121-.04959.768698.14878.123983.347153.272764.619917.247967.322357-.04959.669511-.07439.867885-.09919.247967-.0248.247967.07439.173577.247967-.123984.347154-.942275 2.752434-1.190242 3.446741-.198374.520731-.272764.818291-.272764 1.115852 0 .867884.867885 1.388615 1.586989 1.388615.322357 0 .644714-.04959 1.066258-.198374 1.983736-.644714 3.000401-1.537395 3.446741-2.008532.421544-.446341.322357-1.115852-.247967-.743901-.59512.37195-1.785362 1.016664-2.62845 1.016664z"/></g></g></g></svg>