<svg enable-background="new 0 0 566.929 129.21" height="150.6516" viewBox="0 0 525.13286 120.52128" width="656.41608" xmlns="http://www.w3.org/2000/svg"><g transform="matrix(.10252157 0 0 .10252157 149.66656 -3.581866)"><path d="m-1156.4036 289.56797h4629.6652c120.4937 0 209.376 89.0658 185.0151 179.98179l-87.6189 319.44057c-21.9525 80.03433-110.3027 149.80211-193.2931 149.80211h-4684.0289c-82.9904 0-171.7547-69.76781-149.8022-149.80211l95.897-349.62025c18.7065-68.20003 90.9733-149.80211 204.1658-149.80211z" fill="#2285c8"/><path d="m-609.38278 34.937686h2215.68238c152.4609 0 301.3058 161.678464 251.8204 342.091594l-114.9204 418.97603c-78.5424 293.12439-276.2283 409.51379-433.4763 414.50229h-2205.57829c-150.27311 0-311.00111-126.3307-271.25111-271.25118l169.81586-619.11333c41.77631-155.91104 253.84899-280.673069 387.90746-285.205404z" fill="#050608"/><g stroke="none" stroke-width="24.3851"><g fill="#ed1e24" transform="matrix(1.0012556 0 -.2682856 .99874601 0 0)"><path d="m-500.41451 1076.7885h-289.22125l176.53764-658.57311h-62.602l87.6428-242.89577h446.9783l254.16413 901.46888h-297.98553l-25.0408-125.20405h-254.16413zm93.903-363.09166h140.22848l-71.36628-266.68453z"/><path d="m139.378 445.76027h-62.601997l62.601997-270.44065h280.45697v621.01186h189.05805l-63.85404 280.45702h-405.66098z"/><path d="m645.20131 445.76027h-62.602l62.602-270.44065h280.45697v621.01186h189.05802l-63.854 280.45702h-405.66099z"/><path d="m1151.0247 448.26435h-62.602l62.602-272.94473h373.1079l11.2684-36.30916h250.408l-71.3663 316.76613h-282.9611v51.33364h329.2866l-60.098 232.87945h-269.1886v55.08976h324.2784l-66.3581 281.70906h-538.3772z"/></g><g fill="#fff" transform="matrix(1.0030514 0 -.25222563 .99695789 0 0)"><path d="m2166.5735 783.99964q-27.4142-8.32218-52.3808-22.0293l27.9038-101.82432 16.1548 7.3431q27.9038 12.2385 44.5482 18.11298 17.1339 5.38494 24.9665 5.38494 2.9373.48954 4.8954.48954 1.9582 0 2.4477 0 7.8327 0 15.6653-3.42678 7.8326-3.91632 7.8326-13.70712 0-3.42678-2.9372-7.83264-2.4477-4.40586-6.8536-6.36402l-1.9581-.97908-17.6235-6.85356-42.5899-16.15482q-37.2051-14.19666-54.339-38.67366-16.6443-24.96654-16.6443-64.12974 0-25.94562 10.2803-46.01676 10.7699-20.07114 28.3933-33.28872 18.113-13.21758 35.2469-18.11298 17.1339-5.38494 44.5481-5.38494 9.3013 0 19.5816.48954 10.2804.48954 20.5607 1.95816l3.4268-11.74896 92.5231 18.11298-31.3306 112.10466q-21.5398-13.21758-45.5272-19.5816-23.4979-6.85356-35.2469-6.85356-6.364 0-12.728 1.95816-5.8745 1.95816-8.8118 5.87448-2.9372 3.91632-2.9372 8.81172 0 3.91632 2.4477 7.3431 2.9372 3.42678 7.3431 4.8954l50.4226 18.11298 16.6444 6.85356q64.1297 33.77826 64.1297 97.41846 0 8.32218-2.9372 26.9247-2.9373 18.11298-18.113 38.67366-14.6862 20.56068-29.3724 30.84102-14.6862 10.28034-34.7573 16.64436-20.0712 6.85356-55.8076 6.85356-13.7071 0-27.9038-2.4477-14.1966-2.4477-39.1632-9.7908z"/><path d="m2405.9589 541.67734h-24.477l24.477-104.76156h130.2177q7.3431 0 11.7489.48954 4.4059.48954 53.3599 9.30126 48.954 8.81172 58.7448 57.27618 10.2803 47.97492 10.7699 55.31802.4895 7.3431.4895 17.1339 0 33.77826-11.2594 58.7448-10.7699 24.96654-32.7992 43.56906-21.5397 18.60252-39.1632 26.43516-17.6234 7.3431-38.6736 7.3431h-33.7783v76.85778h-109.657zm109.657 67.55652h21.0502q7.8327 0 15.1758-6.85356 7.8326-7.3431 9.3012-15.66528 1.4686-8.81172 1.4686-11.74896 0-14.19666-6.8535-22.0293-6.364-8.32218-15.6653-8.32218h-24.477z"/><path d="m2695.7662 541.1878h-24.477l25.456-104.27202h108.1884v352.4688h-109.1674z"/><path d="m2843.6073 543.6355h-24.477l24.477-106.71972h145.8829l4.4059-14.19666h97.908l-27.9038 123.85362h-110.636v20.07114h128.749l-23.4979 91.05444h-105.2511v21.53976h126.7908l-25.9456 110.1465h-210.5022z"/><path d="m3116.2807 542.65642h-24.477l24.477-105.74064h109.657v242.81184h73.9205l-24.9665 109.65696h-158.611z"/><path d="m3314.0545 543.6355h-24.477l24.477-106.71972h145.8829l4.4059-14.19666h97.908l-27.9038 123.85362h-110.636v20.07114h128.749l-23.4979 91.05444h-105.2511v21.53976h126.7908l-25.9456 110.1465h-210.5022z"/></g></g></g></svg>