<svg height="165.13527" viewBox="0 0 690.07082 148.62174" width="766.74536" xmlns="http://www.w3.org/2000/svg" xmlns:xlink="http://www.w3.org/1999/xlink"><linearGradient id="a"><stop offset="0" stop-color="#373969"/><stop offset=".43662432" stop-color="#a7bbf1"/><stop offset="1" stop-color="#2170cc"/></linearGradient><linearGradient id="b" gradientUnits="userSpaceOnUse" x1="148.3185" x2="151.97664" xlink:href="#a" y1="162.58894" y2="52.277431"/><filter id="c" color-interpolation-filters="sRGB" height="1.102114" width="1.014411" x="-.004985" y="-.026604"><feGaussianBlur in="SourceGraphic" result="blur" stdDeviation=".8"/><feDiffuseLighting diffuseConstant="1" result="diffuse" surfaceScale="10"><feDistantLight azimuth="236" elevation="13"/></feDiffuseLighting><feComposite in="diffuse" in2="diffuse" k1="1" k2="0" k3="0" k4="0" operator="arithmetic" result="composite1"/><feComposite in="composite1" in2="SourceGraphic" k1="1" k2="0" k3="1" k4="0" operator="arithmetic" result="fbSourceGraphic"/><feColorMatrix in="fbSourceGraphic" result="fbSourceGraphicAlpha" values="0 0 0 -1 0 0 0 0 -1 0 0 0 0 -1 0 0 0 0 1 0"/><feFlood in="fbSourceGraphic" result="flood"/><feComposite in="flood" in2="fbSourceGraphic" operator="in" result="composite1"/><feGaussianBlur in="composite1" result="blur" stdDeviation="0"/><feOffset dx="3" dy="5" result="offset"/><feComposite in="fbSourceGraphic" in2="offset" operator="over" result="composite2"/></filter><linearGradient id="d" gradientTransform="matrix(.99569185 0 0 1.0043268 6 8)" gradientUnits="userSpaceOnUse" x1="148.3185" x2="151.97664" xlink:href="#a" y1="162.58894" y2="52.277431"/><linearGradient id="e" gradientTransform="matrix(.99569185 0 0 1.0043268 2 4.4)" gradientUnits="userSpaceOnUse" x1="148.3185" x2="151.97664" xlink:href="#a" y1="162.58894" y2="52.277431"/><linearGradient id="f" gradientTransform="matrix(.99569185 0 0 1.0043268 84.123753 11.2)" gradientUnits="userSpaceOnUse" x1="148.3185" x2="151.97664" xlink:href="#a" y1="162.58894" y2="52.277431"/><linearGradient id="g" gradientTransform="matrix(.99569185 0 0 1.0043268 16.13262 12)" gradientUnits="userSpaceOnUse" x1="148.3185" x2="151.97664" xlink:href="#a" y1="162.58894" y2="52.277431"/><linearGradient id="h" gradientTransform="matrix(.99569185 0 0 1.0043268 100.13263 15.4)" gradientUnits="userSpaceOnUse" x1="148.3185" x2="151.97664" xlink:href="#a" y1="162.58894" y2="52.277431"/><linearGradient id="i" gradientTransform="matrix(.99569185 0 0 1.0043268 89.523753 10)" gradientUnits="userSpaceOnUse" x1="148.3185" x2="151.97664" xlink:href="#a" y1="162.58894" y2="52.277431"/><linearGradient id="j" gradientTransform="matrix(.99569185 0 0 1.0043268 19.851553 14.400001)" gradientUnits="userSpaceOnUse" x1="148.3185" x2="151.97664" xlink:href="#a" y1="162.58894" y2="52.277431"/><linearGradient id="k" gradientTransform="matrix(.99569185 0 0 1.0043268 20.400003 14)" gradientUnits="userSpaceOnUse" x1="148.3185" x2="151.97664" xlink:href="#a" y1="162.58894" y2="52.277431"/><linearGradient id="l" gradientTransform="matrix(.99569185 0 0 1.0043268 19.196095 14.454773)" gradientUnits="userSpaceOnUse" x1="148.3185" x2="151.97664" xlink:href="#a" y1="162.58894" y2="52.277431"/><linearGradient id="m" gradientUnits="userSpaceOnUse" x1="46.776211" x2="46.776211" y1="168.2742" y2="30.92944"><stop offset="0" stop-color="#ff7a01"/><stop offset=".35918856" stop-color="#fffc00"/><stop offset=".60327649" stop-color="#ff0"/><stop offset="1" stop-color="#ff7501"/></linearGradient><filter id="n" color-interpolation-filters="sRGB" height="1.075928" width="1.106246" x="-.033971" y="-.018424"><feGaussianBlur in="SourceGraphic" result="blur" stdDeviation=".8"/><feDiffuseLighting diffuseConstant="1" result="diffuse" surfaceScale="10"><feDistantLight azimuth="236" elevation="13"/></feDiffuseLighting><feComposite in="diffuse" in2="diffuse" k1="1" k2="0" k3="0" k4="0" operator="arithmetic" result="composite1"/><feComposite in="composite1" in2="SourceGraphic" k1="1" k2="0" k3="1" k4="0" operator="arithmetic" result="fbSourceGraphic"/><feColorMatrix in="fbSourceGraphic" result="fbSourceGraphicAlpha" values="0 0 0 -1 0 0 0 0 -1 0 0 0 0 -1 0 0 0 0 1 0"/><feFlood in="fbSourceGraphic" result="flood"/><feComposite in="flood" in2="fbSourceGraphic" operator="in" result="composite1"/><feGaussianBlur in="composite1" result="blur" stdDeviation="0"/><feOffset dx="3" dy="5" result="offset"/><feComposite in="fbSourceGraphic" in2="offset" operator="over" result="composite2"/></filter><g transform="translate(.832791 -27.822624)"><text fill="#ef00eb" font-family="TrasksHand" font-size="1.8" stroke="#0105ff" stroke-width="2.25" transform="matrix(.94772283 -.31909472 .31909472 .94772283 0 0)" x="310.8577" y="189.48204"><tspan fill="#fafafa" fill-opacity=".4" font-size="1.8" stroke="none" stroke-width="2.25" x="310.8577" y="189.48204">John Loreth 2022</tspan></text><g stroke="#010000" stroke-width="1.25"><path d="m81.349668 71.503487q0 11.386688-8.77335 24.453378-4.666675 7.280015-18.106699 22.586705-12.693357 13.81336-16.800031 21.65338 11.20002-2.98668 33.600061-8.58669-.746668 1.68001-1.493336 5.04001 2.240004 0 5.413343-.56-.560001 5.41334-.560001 9.89335l-2.800005.74667 2.426671 3.17334-1.493336 4.10667q-27.813384 3.17334-66.2667873 19.60004l1.306669-7.84001 3.1733393-3.17334q-1.4933362-.74667-4.1066743-2.42667l.746668-1.30667 1.6800031.18666 4.2933412-1.68 1.86667.37333 2.053337-2.42667-6.160011-1.68-2.9866723 2.05334-1.680003-2.05334q-.186667-2.42667-.186667-4.85334 0-13.06669 10.4533523-27.25339 9.520017-11.57335 19.226702-23.33337 10.453352-13.066691 10.453352-22.960042 0-5.226677-7.46668-5.226677-6.906679 0-21.466706 8.400016-1.680003-1.86667-2.986672-6.720013-1.120002-5.040009-2.613338-6.906679l4.480008-6.720012q-1.306669 0-7.0933462.373334l3.1733392-2.986672h1.86667l2.053337-2.986672-6.346678-.746668-3.9200073 3.360006-1.6800031-3.360006 1.306669-3.173339q22.5867084-13.066691 39.5734054-13.066691 16.24003 0 25.946714 9.893351 9.893352 9.893352 9.893352 26.133381zm-47.226753-23.520042-2.613338-.373334-3.546673 2.613338 2.426671-.186667 2.053337-1.120002h.746668zm-3.920007 7.093346-4.480009-.560001-5.60001 4.480008 4.293341-.186667 2.986672-1.680003h1.30667zm-3.360007 103.786859-3.546673-.93334-4.480008 2.98667 3.360006.37334 2.800005-.93334.746668.18667zm550.483339-5.70833q-.59742 3.01298-.59742 5.6644l-1.91173-.84363v1.9283l-.95586-1.44623-6.69105-.72311 2.86759 2.5309 3.22604 1.08467.83639.72312h.71689l.23897 3.1335q-.47793-.24104-.83638-.24104-.35845 0-1.31431.48208-.7169.24104-1.67277-.12052l3.46501 4.94129q-9.67812-3.85662-18.40038-8.91843-10.75348-5.42336-19.47574-11.81088-.23896 8.19531.35845 13.85971-1.19483.48208-3.46501 1.56675l-.11948-.12052.95587-2.16934-2.62863-5.78493-.7169 3.49506.59742 2.41038-1.4338-1.44623q-.11948.12052-3.94294 6.50804l-1.67276-1.32571q-1.4338 1.20519-2.50915 2.04883-4.65983-39.89186-5.25725-62.0674l-1.19483.6026-4.18191-.6026-3.34552 3.1335q-.95586-2.16935-1.31431-3.49506.11948 0 4.06242-2.16934l-2.15069-1.56675 1.55327-.84364h1.07535l1.31432-1.928304-3.82346-.361557-1.55328 1.205191-.47793-1.687268q1.31431-2.289865 1.91173-3.856615l-4.18191.723115v-1.928307q.59741-.361558 2.62863-1.807789 20.90952-15.426459 41.69957-15.426459 10.63399 0 17.44452 4.820768 7.64692 5.423365 7.64692 15.667499 0 21.572936-26.16679 39.048226 15.77176 10.72621 29.39283 17.11373zm-23.89661-46.52042q0-8.315825-11.35088-8.315825-1.19483 0-2.62863.120519-1.91173 15.667496-1.91173 24.826956 15.89124-9.15946 15.89124-16.63165zm-33.45524-12.895555-3.10656-.361558-3.46501 3.01298 2.74811-.120519 1.91173-1.205192h.83638zm46.23993 60.982725-1.67277-2.04883-4.30139-.72311 1.79225 1.68726 2.27018.6026.35845.72312zm-37.15922-.6026-1.91173-4.21817-.47793 2.77194.47793 2.04883-.11949.72311.95587 1.44623zm157.41592-65.544265q-24.61351 14.823865-24.61351 24.585915 0 3.49506 5.97415 6.267 9.08071 4.33869 11.11193 5.90544 5.97415 4.70025 5.97415 12.77504 0 8.07479-7.7664 17.71632-5.6157 7.4722-14.099 14.10075-.47793-.24104-.47793-1.08467 0-.48208.35845-1.68727.47793-1.20519.47793-1.68727 0-.84363-4.06242-.84363-1.55328 0-2.27018.24103l5.01829-5.30284q-4.30139.6026-7.0495 3.7361l-.95586.24103-.83638.96416-2.8676-1.20519q15.29383-10.84673 15.29383-16.8727 0-3.85661-8.60278-7.95426-13.62106-6.38752-15.89124-7.95427-8.48329-5.6644-8.48329-13.73919 0-13.85971 16.01072-29.406687 12.78468-12.413479 28.31748-19.765151.47793 1.325711 1.91173 3.01298 1.79224 2.289865 2.15069 2.892461l-1.79225.361558-2.86759 2.289865-.83638.120519-1.67276 2.892461 3.46501.361558 3.94294-5.061807q0 .843634-1.07535 5.061807l3.94294 3.01298h-.11948l-2.1507 1.807789-.7169.120519-1.19483 1.807788 2.50915.241038 2.50914-2.651422.59741.723115zm-10.03658-6.14648-2.15069.361558-1.79225 1.687269h-.59741l-.95587 1.807788 2.27018.120519zm-6.09363 73.516715-2.74811.96416-2.03121 1.56675-.59742.36155-1.19483 1.44623 2.62863-.24103zm-33.96092-86.166055q-1.07534 3.1335-1.43379 6.508038h-1.07535l-1.91173.964154-.47793-.120519-1.19483 1.205192 2.27018.361557 2.38966-1.687269q-.11949.964154-.35845 2.651423l-4.89881 3.012981 5.37674.361557q-.59741 2.048827-1.79224 6.508038-15.77176 3.856615-27.00317 8.195307-.47793 3.615576-.83638 7.231156 8.36381-2.89246 18.87832-5.905445-.11948.964155-.35845 2.892465 2.27018-.72312 6.81053-1.68727-.7169 2.41038-1.79224 7.11063-1.4338.6026-2.8676.84363.35845.6026 1.31432 1.92831-.35845.84364-.7169 2.41039-9.55864 2.89246-11.2314 3.25401-6.3326 2.04883-10.87296 4.45922-.35845 5.54388-.35845 12.17244 0 3.97713.11948 9.15946 3.94294-2.28987 8.96123-4.94129l1.55328.96415q4.8988-2.5309 13.97951-6.267-.11948.48208-2.15069 8.31583 1.79224-.72312 2.74811-1.08467-.7169 3.49505-.7169 5.18232-20.07315 9.03894-39.07095 23.74229-.47793-2.65142-.47793-3.01298 0-.84364.47793-2.28987.47793-1.32571.47793-2.04882-1.31431-1.92831-2.38966-3.01298.35845-.6026.95587-2.41039l-1.55328.12052-.11948-.48208q.59741-.60259 2.38966-1.9283-1.31432-10.12362-2.1507-23.62177-1.43379.96415-4.30139 2.41038-.71689-3.01298-1.31431-4.57973.7169-1.9283 1.31431-3.25401l-1.91173-1.2052q.35845-2.5309 1.31432-6.38752 2.86759-1.32571 4.30139-2.28986v-7.23115q-2.98708 1.32571-9.08071 4.33869.47793-1.20519 3.58449-8.43634-.59742-1.08468-1.91173-3.012986 2.03121-1.928307 3.22604-3.495057-.59741-.482077-1.07535-2.410384-.35845-2.048827-.71689-2.771942 1.19483-1.928308 1.91172-3.1335 12.54572-5.543884 23.06023-9.400499l.47793-2.169346q15.17434-3.977134 30.2292-6.025961zm-9.91709 11.810884h-1.55328l-1.43379.843634-.47793-.120519-.83639.843634 1.79225.361558zm-4.65983 21.090861-2.1507.12052-1.79224.96415h-.7169l-1.07535 1.08468 2.50914.36155zm-22.5823 46.3999h-1.43379l-1.31432.60259h-.35844l-.59742.72312 1.55328.24104zm-5.01828 4.70025-2.27018.12052-1.79225.84363.59742 1.68727zm-90.84014-46.20769q0 20.7293-15.41331 39.28926-16.1302 19.28308-36.20335 19.28308-13.3821 0-20.90953-9.52102l1.07535.24104-1.07535-3.7361-3.58449-1.92831q-4.06242-7.95426-4.06242-17.71632 0-20.60879 15.41331-39.048227 16.1302-19.403593 36.20335-19.403593 8.84174 0 15.65228 4.820768l2.62862 5.423365-3.70397-.241038-.59742-2.048827-5.85466-2.771942 1.67276 3.254019 2.62863 1.928307.35844.964154.11949 3.615576-4.65984 2.289865-4.42087-2.169345 1.67276 3.374538.83638.602596-2.15069 3.374538 3.465-2.289865.35845.241038.47794.843635 2.15069.602596-.7169-2.530904 5.73519-.482077-.47793-2.289865 3.10655-.602596-1.31431-2.410384 6.09363 2.410384 1.19483-1.44623q4.30139 8.195306 4.30139 18.077884zm-13.74054-5.06181-.83639-2.530903-3.82345-1.928307 1.07535 2.28987 1.67276 1.32571.35845.48207zm-5.37674 14.58283q0-7.35168-4.18191-12.29296-4.06242-5.061811-11.2314-5.061811-10.87295 0-19.59522 10.726211-8.00536 10.00309-8.00536 21.45242 0 7.11063 3.94294 12.05192 4.18191 5.30285 11.47037 5.30285 10.99244 0 19.47573-10.72621 8.12485-10.24414 8.12485-21.45242zm-45.28407 35.31213-.71689-2.28987-3.22604-1.56675.95586 1.80779 1.4338 1.20519.23896.6026zm3.46501 9.52101-1.19483-3.97713-5.73518-3.01298 1.67276 3.49506 2.62863 1.80779.47793.96415zm-17.50229-57.08171q0 10.96724-6.09363 23.2602-8.12485 16.14958-23.17971 27.47839-14.93538 11.20828-32.49938 13.61867l.59742-4.45921.11948-.12052 3.82346.12052 5.01828-5.30285-4.1819.84363-.83638.6026q-.59742-1.92831-2.1507-8.55686l4.18191-.72312q-2.50915-20.84982-3.34553-42.42276-4.30139 2.28986-8.60278 5.54388.23897-7.95426 2.38966-13.73919l-2.7481-3.012976h1.55327l4.30139-4.459211-3.34552.482077-2.86759 1.928307.71689-5.423364-2.62862-2.048827q18.75883-11.087768 38.11508-11.087768 14.099 0 22.58229 6.387519 9.08071 7.351672 9.08071 21.090863zm-54.36477-10.967249-2.62863.482077-2.03121 1.44623-.7169.120519-.83638 1.446231 2.98708.120519zm32.73835 21.211379q0-12.89555-15.17435-12.65451-2.15069 20.84982-2.15069 41.33808 7.16898-5.18232 11.82882-12.534 5.49622-8.1953 5.49622-16.14957zm-19.59522 40.25342-1.67276.36155q-1.19483.84364-1.67276.84364l-.47794.72311h1.79225zm-6.09363-.72312-2.27018.36156-1.55328 1.20519h-.47793l-.83638 1.08467h2.38966zm-81.02943-39.91339-.7169 5.78492-7.28846 2.89246q0 15.90854.7169 23.74229 0 .96415.71689 5.06181.47794 3.1335.47794 5.18232 0 .72312-.35845 2.16935.47793 2.77194 1.79224 8.07479-1.19483.60259-3.22604 1.44623-1.07535-.84364-3.70397-2.28987-2.1507 2.77194-3.34553 4.57973l-1.91173-.72311-2.15069 1.44623q-1.19483-3.37454-2.62863-8.67739-16.01072 6.02596-25.68885 6.02596-11.2314 0-18.51987-10.12361-6.45208-9.15946-6.45208-20.84982 0-13.01608 6.3326-25.55008 5.73519-11.69036 16.01073-20.970345 11.70933-10.485172 28.91489-14.221267l-.11948 4.700249-2.50915 4.941288.95587 2.530904-.7169.361557-1.67276 1.56675-.83639.120519-.59741 1.687269 2.86759-.361557 1.55328-1.928308.7169 2.169346-2.38966 3.615577 2.15069 5.182328q-17.20555 7.59271-24.97195 21.9345-4.77932 8.7979-4.77932 15.0649 0 5.18233 3.58449 8.31583 3.58449 3.1335 8.84174 3.1335 5.01829 0 12.90417-3.49506-1.07535-2.41039-2.74811-12.65452-6.3326 3.97713-14.45744 9.64154.47793-2.04883 1.79224-6.38752l1.19483-.36156 1.55328-.96415.59742-.12052.83638-1.32571h-2.50915l-1.31431 1.56675-1.91173-2.28987q.59742-1.20519 2.27018-3.37454l-1.79225-1.44623q.59742-2.04882 1.19483-3.01298 3.22605-2.28986 10.15606-6.267l-.23896-1.68726q2.38966-1.2052 7.76639-3.25402v-.96416q10.27554-4.45921 23.53816-8.43634-.35845 2.04882-.59742 6.02596l-1.43379 1.08467h-2.62863l-4.06242 4.70025 3.34552-.72311 2.50914-1.80779.83639-.12052.23896-.24104zm-25.56937-26.51423-3.465 1.084673-2.27018 2.048826-.95587.120519-.83638 2.169346 3.82346-.482077zm12.18727 27.35786h-2.50914l-2.62863 3.1335 2.1507-.60259 1.55328-1.20519h.71689zm-18.63935-17.836842-1.91173.602596-1.07535 1.205192-.59741.120519-.47793.964155 1.91173-.24104zm-32.02145 53.751572-1.67276-4.94129-.83638 2.77195.35845 2.65142-.35845.96415.83638 1.32571zm123.12559.44881-1.43379.48208q-1.31432 2.89246-1.67276 3.61558-1.07535 1.44623-2.74811 2.5309-2.50915-1.20519-3.94294-.6026-1.4338.6026-6.09364 2.65143-2.74811-10.0031-5.49622-21.3319-6.3326 2.28986-17.08607 7.47219-1.31431 8.55686-2.27018 16.87269-.23896.12052-.47793.12052-.35845 0-1.07535-.72312-.71689-.84363-.95586-.84363-.7169 0-1.31431 2.04882-.59742 1.92831-1.07535 2.41039-3.70397 2.5309-3.34553 1.80779.47794-.6026.47794-3.85662l.59741-1.08467-.83638-1.92831-2.62863 3.61558.59742 4.70025q-1.19483.60259-2.03121.60259-1.07535 0-1.31432-1.32571-.23896-1.20519-.35844-1.20519-.47794 0-1.55328 2.77194h-.23897q.59742-9.27998.59742-20.97034 0-26.15267 6.09363-62.42895 2.62863-.843634 8.00536-2.771942.95587-.482077 4.06242-2.771942 2.03122-1.44623 4.89881-1.44623 2.03121 0 8.24433-2.651423-.7169 3.1335-1.31432 6.025961 1.31432-.361558 3.70398-1.084673.59741-.964154 2.27018-2.169346.35844-.120519 1.07534-.361558l-1.19483 3.012981 3.22604 5.664403.7169-4.218173-1.07535-3.254019.35845-1.084673-.59741-.723115q2.38966-1.205192 7.64691-3.133499.23897 19.283074 3.70398 42.784318 2.15069-.72312 5.49621-1.80779-.11948 1.20519-.35844 3.85661-.11949.84364-1.31432 1.92831-1.07534.96416-1.07534 2.28987 0 .48207.71689 1.56675.83638 1.08467.83638 1.9283 0 .6026-.23896 1.92831-.23897 1.32571-.23897 1.92831l-1.55328.48208q1.55328 9.76205 3.58449 18.68047zm-17.564-57.608175-.59742-1.928308.11949-.723115-1.07535-1.084673-.95586 2.892461 2.03121 3.495057zm-7.16898 29.888755q-2.62863-12.17244-4.42087-24.344869-4.54036 19.644619-6.3326 29.888759 5.97415-3.49506 10.75347-5.54389zm-23.89661 25.068-.35845-.96415-1.19483 1.68727.23897 2.89246.83638-1.56675.11948-1.56675zm3.82346 4.82077-.47793-1.56675-1.91173 2.65142.59742 4.33869q1.55327-2.41038 1.43379-4.82076zm-87.62698-44.11003q0 20.7293-15.41331 39.28926-16.13021 19.28308-36.20336 19.28308-13.3821 0-20.90953-9.52102l1.07535.24104-1.07535-3.7361-3.58449-1.92831q-4.06242-7.95427-4.06242-17.71632 0-20.60879 15.41331-39.048222 16.13021-19.403594 36.20336-19.403594 8.84174 0 15.65227 4.820769l2.62863 5.423365-3.70398-.241039-.59741-2.048826-5.85467-2.771942 1.67276 3.254019 2.62863 1.928307.35845.964154.11948 3.615576-4.65984 2.289865-4.42087-2.169346 1.67277 3.374539.83638.602596-2.1507 3.37454 3.46501-2.289867.35845.241038.47793.843634 2.1507.602597-.7169-2.530904 5.73518-.482077-.47793-2.289865 3.10656-.602596-1.31431-2.410384 6.09363 2.410384 1.19483-1.446231q4.30139 8.19531 4.30139 18.07788zm-13.74055-5.06181-.83638-2.5309-3.82346-1.92831 1.07535 2.28986 1.67276 1.32572.35845.48207zm-5.37674 14.58282q0-7.35167-4.1819-12.29296-4.06242-5.0618-11.23141-5.0618-10.87295 0-19.59521 10.72621-8.00536 10.00309-8.00536 21.45242 0 7.11063 3.94294 12.05192 4.1819 5.30285 11.47037 5.30285 10.99243 0 19.47573-10.72621 8.12484-10.24414 8.12484-21.45243zm-45.28406 35.31214-.7169-2.28987-3.22604-1.56675.95586 1.80779 1.4338 1.20519.23897.6026zm3.46501 9.52101-1.19483-3.97713-5.73519-3.01298 1.67276 3.49506 2.62863 1.80778.47793.96416zm-13.7966-82.665774-2.86759-.361557-5.01829 4.338692 3.82346-.241039 2.74811-1.687269h1.19483l-.23897 2.530904-2.03121.602596 1.67276 2.410384-1.07534 3.254019q-2.50915.723115-7.88588 1.807788-.35845 22.175536-5.25726 71.106336l-.47793 1.32571q-24.25505-1.08467-43.13337-11.69036l2.987076-2.77194.716898-1.80779 6.21311 1.92831-2.150687-2.89246-2.987076-1.44624-.597415-.96415q3.703974-3.01298 3.703974-3.61558 0-.72311-.597415-2.28986-.477932-1.56675-.477932-2.28987 0 0 .119483-.72311 10.514504 5.30284 21.865394 8.19531 0-24.58592-1.91173-44.59211-10.03657 4.82076-21.626427 10.96724.238966-2.04882.836381-6.267 1.075348-1.08467 2.509144-2.89246-.358449-.24104-3.106559-1.68726l.238966-.72312 1.672763.36156 5.018292-4.097656-3.823462.120519-2.74811 1.446231q0-3.736096.477932-5.182327-.597415-1.084673-1.433796-3.133499 8.005366-3.495058 24.135576-10.485172 13.38209-6.14648 26.04729-10.003095-.35844 1.325711-.95586 3.977134 1.91173-.241038 4.18191-.723115-.11949.843634-.11949 1.687269 0 1.205192.11949 3.374538.23896 2.169346.23896 3.133499zm-9.55864 5.182327-1.79225-.241039-2.15069 1.928308 1.67276-.120519 1.31432-.723116h.47793zm-2.38966-3.495058-2.86759-.241038-3.58449 2.771942 2.62862-.120519 1.91173-.964154h.95587zm-30.34869 67.731795-1.55328-2.41038-2.03121-1.08467-.35845-.72312-1.79224-.12052 1.31431 2.77195zm2.1507 4.82077-1.4338-1.44623-1.67276-.60259-.59742-.48208-1.19483.12052 1.31432 1.92831z"/><g fill="url(#b)" filter="url(#c)" transform="translate(-3.6 -1.8)"><path d="m149.23947 78.352825-2.86759-.361557-5.01829 4.338692 3.82346-.241039 2.74811-1.687269h1.19483l-.23897 2.530904-2.03121.602596 1.67276 2.410384-1.07534 3.254019q-2.50915.723115-7.88588 1.807788-.35845 22.175537-5.25726 71.106337l-.47793 1.32571q-24.25505-1.08467-43.133364-11.69036l2.987076-2.77194.716898-1.80779 6.21311 1.92831-2.150687-2.89246-2.987076-1.44624-.597415-.96415q3.703974-3.01298 3.703974-3.61558 0-.72311-.597415-2.28986-.477932-1.56675-.477932-2.28987 0 0 .119483-.72311 10.514498 5.30284 21.865388 8.19531 0-24.58592-1.91173-44.592115-10.03657 4.820765-21.626421 10.967245.238966-2.04882.836381-6.267 1.075348-1.08467 2.509144-2.89246-.358449-.24104-3.106559-1.687266l.238966-.723116 1.672763.361558 5.018286-4.097653-3.823456.120519-2.74811 1.446231q0-3.736096.477932-5.182327-.597415-1.084673-1.433796-3.133499 8.00536-3.495058 24.13557-10.485172 13.38209-6.14648 26.04729-10.003095-.35844 1.325711-.95586 3.977134 1.91173-.241038 4.18191-.723115-.11949.843634-.11949 1.687269 0 1.205192.11949 3.374538.23896 2.169346.23896 3.133499zm-9.55864 5.182327-1.79225-.241039-2.15069 1.928308 1.67276-.120519 1.31432-.723116h.47793zm-2.38966-3.495058-2.86759-.241038-3.58449 2.771942 2.62862-.120519 1.91173-.964154h.95587zm-30.34869 67.731796-1.55328-2.41038-2.03121-1.08467-.35845-.72312-1.79224-.12052 1.31431 2.77195zm2.1507 4.82077-1.4338-1.44623-1.67276-.60259-.59742-.48208-1.19483.12052 1.31432 1.92831z" fill="url(#d)"/><path d="m223.97241 106.66444q0 20.7293-15.41331 39.28926-16.13021 19.28308-36.20336 19.28308-13.3821 0-20.90953-9.52102l1.07535.24104-1.07535-3.7361-3.58449-1.92831q-4.06242-7.95427-4.06242-17.71632 0-20.60879 15.41331-39.048223 16.13021-19.403594 36.20336-19.403594 8.84174 0 15.65227 4.820769l2.62863 5.423365-3.70398-.241039-.59741-2.048826-5.85467-2.771942 1.67276 3.254019 2.62863 1.928307.35845.964154.11948 3.615576-4.65984 2.289865-4.42087-2.169346 1.67277 3.374539.83638.602596-2.1507 3.37454 3.46501-2.289867.35845.241038.47793.843634 2.1507.602597-.7169-2.530904 5.73518-.482077-.47793-2.289865 3.10656-.602596-1.31431-2.410384 6.09363 2.410384 1.19483-1.446231q4.30139 8.195311 4.30139 18.077881zm-13.74055-5.06181-.83638-2.5309-3.82346-1.92831 1.07535 2.28986 1.67276 1.32572.35845.48207zm-5.37674 14.58282q0-7.35167-4.1819-12.29296-4.06242-5.0618-11.23141-5.0618-10.87295 0-19.59521 10.72621-8.00536 10.00309-8.00536 21.45242 0 7.11063 3.94294 12.05192 4.1819 5.30285 11.47037 5.30285 10.99243 0 19.47573-10.72621 8.12484-10.24414 8.12484-21.45243zm-45.28406 35.31214-.7169-2.28987-3.22604-1.56675.95586 1.80779 1.4338 1.20519.23897.6026zm3.46501 9.52101-1.19483-3.97713-5.73519-3.01298 1.67276 3.49506 2.62863 1.80778.47793.96416z" fill="url(#e)"/><path d="m356.40552 148.60512-1.43379.48208q-1.31432 2.89246-1.67276 3.61558-1.07535 1.44623-2.74811 2.5309-2.50915-1.20519-3.94294-.6026-1.4338.6026-6.09364 2.65143-2.74811-10.0031-5.49622-21.3319-6.3326 2.28986-17.08607 7.47219-1.31431 8.55686-2.27018 16.87269-.23896.12052-.47793.12052-.35845 0-1.07535-.72312-.71689-.84363-.95586-.84363-.7169 0-1.31431 2.04882-.59742 1.92831-1.07535 2.41039-3.70397 2.5309-3.34553 1.80779.47794-.6026.47794-3.85662l.59741-1.08467-.83638-1.92831-2.62863 3.61558.59742 4.70025q-1.19483.60259-2.03121.60259-1.07535 0-1.31432-1.32571-.23896-1.20519-.35844-1.20519-.47794 0-1.55328 2.77194h-.23897q.59742-9.27998.59742-20.97034 0-26.15267 6.09363-62.428951 2.62863-.843634 8.00536-2.771942.95587-.482077 4.06242-2.771942 2.03122-1.44623 4.89881-1.44623 2.03121 0 8.24433-2.651423-.7169 3.1335-1.31432 6.025961 1.31432-.361558 3.70398-1.084673.59741-.964154 2.27018-2.169346.35844-.120519 1.07534-.361558l-1.19483 3.012981 3.22604 5.664403.7169-4.218173-1.07535-3.254019.35845-1.084673-.59741-.723115q2.38966-1.205192 7.64691-3.133499.23897 19.283074 3.70398 42.784319 2.15069-.72312 5.49621-1.80779-.11948 1.20519-.35844 3.85661-.11949.84364-1.31432 1.92831-1.07534.96416-1.07534 2.28987 0 .48207.71689 1.56675.83638 1.08467.83638 1.9283 0 .6026-.23896 1.92831-.23897 1.32571-.23897 1.92831l-1.55328.48208q1.55328 9.76205 3.58449 18.68047zm-17.564-57.608176-.59742-1.928308.11949-.723115-1.07535-1.084673-.95586 2.892461 2.03121 3.495057zm-7.16898 29.888756q-2.62863-12.17244-4.42087-24.34487-4.54036 19.64462-6.3326 29.88876 5.97415-3.49506 10.75347-5.54389zm-23.89661 25.068-.35845-.96415-1.19483 1.68727.23897 2.89246.83638-1.56675.11948-1.56675zm3.82346 4.82077-.47793-1.56675-1.91173 2.65142.59742 4.33869q1.55327-2.41038 1.43379-4.82076z" fill="url(#j)"/><path d="m297.32283 111.39795-.7169 5.78492-7.28846 2.89246q0 15.90854.7169 23.74229 0 .96415.71689 5.06181.47794 3.1335.47794 5.18232 0 .72312-.35845 2.16935.47793 2.77194 1.79224 8.07479-1.19483.60259-3.22604 1.44623-1.07535-.84364-3.70397-2.28987-2.1507 2.77194-3.34553 4.57973l-1.91173-.72311-2.15069 1.44623q-1.19483-3.37454-2.62863-8.67739-16.01072 6.02596-25.68885 6.02596-11.2314 0-18.51987-10.12361-6.45208-9.15946-6.45208-20.84982 0-13.01608 6.3326-25.55008 5.73519-11.690366 16.01073-20.970346 11.70933-10.485172 28.91489-14.221267l-.11948 4.700249-2.50915 4.941288.95587 2.530904-.7169.361557-1.67276 1.56675-.83639.120519-.59741 1.687269 2.86759-.361557 1.55328-1.928308.7169 2.169346-2.38966 3.615577 2.15069 5.182326q-17.20555 7.592713-24.97195 21.934503-4.77932 8.7979-4.77932 15.0649 0 5.18233 3.58449 8.31583 3.58449 3.1335 8.84174 3.1335 5.01829 0 12.90417-3.49506-1.07535-2.41039-2.74811-12.65452-6.3326 3.97713-14.45744 9.64154.47793-2.04883 1.79224-6.38752l1.19483-.36156 1.55328-.96415.59742-.12052.83638-1.32571h-2.50915l-1.31431 1.56675-1.91173-2.28987q.59742-1.20519 2.27018-3.37454l-1.79225-1.44623q.59742-2.04882 1.19483-3.01298 3.22605-2.28986 10.15606-6.267l-.23896-1.68726q2.38966-1.2052 7.76639-3.25402v-.96416q10.27554-4.45921 23.53816-8.43634-.35845 2.04882-.59742 6.02596l-1.43379 1.08467h-2.62863l-4.06242 4.70025 3.34552-.72311 2.50914-1.80779.83639-.12052.23896-.24104zm-25.56937-26.514231-3.465 1.084673-2.27018 2.048826-.95587.120519-.83638 2.169346 3.82346-.482077zm12.18727 27.357861h-2.50914l-2.62863 3.1335 2.1507-.60259 1.55328-1.20519h.71689zm-18.63935-17.836843-1.91173.602596-1.07535 1.205192-.59741.120519-.47793.964154 1.91173-.241039zm-32.02145 53.751573-1.67276-4.94129-.83638 2.77195.35845 2.65142-.35845.96415.83638 1.32571z" fill="url(#k)"/><path d="m425.66753 101.53691q0 10.96724-6.09363 23.2602-8.12485 16.14958-23.17971 27.47839-14.93538 11.20828-32.49938 13.61867l.59742-4.45921.11948-.12052 3.82346.12052 5.01828-5.30285-4.1819.84363-.83638.6026q-.59742-1.92831-2.1507-8.55686l4.18191-.72312q-2.50915-20.84982-3.34553-42.42276-4.30139 2.28986-8.60278 5.54388.23897-7.95426 2.38966-13.739187l-2.7481-3.01298h1.55327l4.30139-4.459211-3.34552.482077-2.86759 1.928307.71689-5.423364-2.62862-2.048827q18.75883-11.087768 38.11508-11.087768 14.099 0 22.58229 6.387519 9.08071 7.351672 9.08071 21.090864zm-54.36477-10.96725-2.62863.482077-2.03121 1.44623-.7169.120519-.83638 1.446231 2.98708.120519zm32.73835 21.21138q0-12.895554-15.17435-12.654516-2.15069 20.849826-2.15069 41.338086 7.16898-5.18232 11.82882-12.534 5.49622-8.1953 5.49622-16.14957zm-19.59522 40.25342-1.67276.36155q-1.19483.84364-1.67276.84364l-.47794.72311h1.79225zm-6.09363-.72312-2.27018.36156-1.55328 1.20519h-.47793l-.83638 1.08467h2.38966z" fill="url(#l)"/><path d="m504.10616 104.26446q0 20.7293-15.41331 39.28926-16.1302 19.28308-36.20335 19.28308-13.3821 0-20.90953-9.52102l1.07535.24104-1.07535-3.7361-3.58449-1.92831q-4.06242-7.95426-4.06242-17.71632 0-20.60879 15.41331-39.048228 16.1302-19.403593 36.20335-19.403593 8.84174 0 15.65228 4.820768l2.62862 5.423365-3.70397-.241038-.59742-2.048827-5.85466-2.771942 1.67276 3.254019 2.62863 1.928307.35844.964154.11949 3.615576-4.65984 2.289865-4.42087-2.169345 1.67276 3.374538.83638.602596-2.15069 3.374538 3.465-2.289865.35845.241038.47794.843635 2.15069.602596-.7169-2.530904 5.73519-.482077-.47793-2.289865 3.10655-.602596-1.31431-2.410384 6.09363 2.410384 1.19483-1.44623q4.30139 8.195306 4.30139 18.077885zm-13.74054-5.06181-.83639-2.530904-3.82345-1.928307 1.07535 2.289865 1.67276 1.325711.35845.482077zm-5.37674 14.58283q0-7.35168-4.18191-12.29296-4.06242-5.061812-11.2314-5.061812-10.87295 0-19.59522 10.726212-8.00536 10.00309-8.00536 21.45242 0 7.11063 3.94294 12.05192 4.18191 5.30285 11.47037 5.30285 10.99244 0 19.47573-10.72621 8.12485-10.24414 8.12485-21.45242zm-45.28407 35.31213-.71689-2.28987-3.22604-1.56675.95586 1.80779 1.4338 1.20519.23896.6026zm3.46501 9.52101-1.19483-3.97713-5.73518-3.01298 1.67276 3.49506 2.62863 1.80779.47793.96415z" fill="url(#g)"/><path d="m637.1238 66.470254q-1.07534 3.1335-1.43379 6.508038h-1.07535l-1.91173.964154-.47793-.120519-1.19483 1.205192 2.27018.361557 2.38966-1.687269q-.11949.964154-.35845 2.651423l-4.89881 3.012981 5.37674.361557q-.59741 2.048827-1.79224 6.508038-15.77176 3.856615-27.00317 8.195307-.47793 3.615576-.83638 7.231157 8.36381-2.892466 18.87832-5.905446-.11948.964154-.35845 2.892461 2.27018-.723115 6.81053-1.687269-.7169 2.410384-1.79224 7.110634-1.4338.6026-2.8676.84363.35845.6026 1.31432 1.92831-.35845.84364-.7169 2.41039-9.55864 2.89246-11.2314 3.25401-6.3326 2.04883-10.87296 4.45922-.35845 5.54388-.35845 12.17244 0 3.97713.11948 9.15946 3.94294-2.28987 8.96123-4.94129l1.55328.96415q4.8988-2.5309 13.97951-6.267-.11948.48208-2.15069 8.31583 1.79224-.72312 2.74811-1.08467-.7169 3.49505-.7169 5.18232-20.07315 9.03894-39.07095 23.74229-.47793-2.65142-.47793-3.01298 0-.84364.47793-2.28987.47793-1.32571.47793-2.04882-1.31431-1.92831-2.38966-3.01298.35845-.6026.95587-2.41039l-1.55328.12052-.11948-.48208q.59741-.60259 2.38966-1.9283-1.31432-10.12362-2.1507-23.62177-1.43379.96415-4.30139 2.41038-.71689-3.01298-1.31431-4.57973.7169-1.9283 1.31431-3.25401l-1.91173-1.2052q.35845-2.5309 1.31432-6.38752 2.86759-1.32571 4.30139-2.28986v-7.23115q-2.98708 1.32571-9.08071 4.33869.47793-1.20519 3.58449-8.436346-.59742-1.084673-1.91173-3.012981 2.03121-1.928307 3.22604-3.495057-.59741-.482077-1.07535-2.410384-.35845-2.048827-.71689-2.771942 1.19483-1.928308 1.91172-3.1335 12.54572-5.543884 23.06023-9.400499l.47793-2.169346q15.17434-3.977134 30.2292-6.025961zm-9.91709 11.810884h-1.55328l-1.43379.843634-.47793-.120519-.83639.843634 1.79225.361558zm-4.65983 21.090862-2.1507.12052-1.79224.96415h-.7169l-1.07535 1.08468 2.50914.36155zm-22.5823 46.3999h-1.43379l-1.31432.60259h-.35844l-.59742.72312 1.55328.24104zm-5.01828 4.70025-2.27018.12052-1.79225.84363.59742 1.68727z" fill="url(#i)"/><path d="m687.21493 85.266074q-24.61351 14.823866-24.61351 24.585916 0 3.49506 5.97415 6.267 9.08071 4.33869 11.11193 5.90544 5.97415 4.70025 5.97415 12.77504 0 8.07479-7.7664 17.71632-5.6157 7.4722-14.099 14.10075-.47793-.24104-.47793-1.08467 0-.48208.35845-1.68727.47793-1.20519.47793-1.68727 0-.84363-4.06242-.84363-1.55328 0-2.27018.24103l5.01829-5.30284q-4.30139.6026-7.0495 3.7361l-.95586.24103-.83638.96416-2.8676-1.20519q15.29383-10.84673 15.29383-16.8727 0-3.85661-8.60278-7.95426-13.62106-6.38752-15.89124-7.95427-8.48329-5.6644-8.48329-13.73919 0-13.859709 16.01072-29.406688 12.78468-12.413479 28.31748-19.765151.47793 1.325711 1.91173 3.01298 1.79224 2.289865 2.15069 2.892461l-1.79225.361558-2.86759 2.289865-.83638.120519-1.67276 2.892461 3.46501.361558 3.94294-5.061807q0 .843634-1.07535 5.061807l3.94294 3.01298h-.11948l-2.1507 1.807789-.7169.120519-1.19483 1.807788 2.50915.241038 2.50914-2.651422.59741.723115zm-10.03658-6.14648-2.15069.361558-1.79225 1.687269h-.59741l-.95587 1.807788 2.27018.120519zm-6.09363 73.516716-2.74811.96416-2.03121 1.56675-.59742.36155-1.19483 1.44623 2.62863-.24103z" fill="url(#f)"/><path d="m578.07015 149.84619q-.59742 3.01298-.59742 5.6644l-1.91173-.84363v1.9283l-.95586-1.44623-6.69105-.72311 2.86759 2.5309 3.22604 1.08467.83639.72312h.71689l.23897 3.1335q-.47793-.24104-.83638-.24104-.35845 0-1.31431.48208-.7169.24104-1.67277-.12052l3.46501 4.94129q-9.67812-3.85662-18.40038-8.91843-10.75348-5.42336-19.47574-11.81088-.23896 8.19531.35845 13.85971-1.19483.48208-3.46501 1.56675l-.11948-.12052.95587-2.16934-2.62863-5.78493-.7169 3.49506.59742 2.41038-1.4338-1.44623q-.11948.12052-3.94294 6.50804l-1.67276-1.32571q-1.4338 1.20519-2.50915 2.04883-4.65983-39.89186-5.25725-62.0674l-1.19483.6026-4.18191-.6026-3.34552 3.1335q-.95586-2.16935-1.31431-3.49506.11948 0 4.06242-2.16934l-2.15069-1.566753 1.55327-.843634h1.07535l1.31432-1.928308-3.82346-.361557-1.55328 1.205192-.47793-1.687269q1.31431-2.289865 1.91173-3.856615l-4.18191.723115v-1.928307q.59741-.361558 2.62863-1.807789 20.90952-15.426459 41.69957-15.426459 10.63399 0 17.44452 4.820768 7.64692 5.423365 7.64692 15.667499 0 21.572937-26.16679 39.048227 15.77176 10.72621 29.39283 17.11373zm-23.89661-46.52042q0-8.315826-11.35088-8.315826-1.19483 0-2.62863.120519-1.91173 15.667497-1.91173 24.826957 15.89124-9.15946 15.89124-16.63165zm-33.45524-12.895556-3.10656-.361558-3.46501 3.01298 2.74811-.120519 1.91173-1.205192h.83638zm46.23993 60.982726-1.67277-2.04883-4.30139-.72311 1.79225 1.68726 2.27018.6026.35845.72312zm-37.15922-.6026-1.91173-4.21817-.47793 2.77194.47793 2.04883-.11949.72311.95587 1.44623z" fill="url(#h)"/></g><path d="m78.493584 66.394356q0 11.386688-8.77335 24.453378-4.666675 7.280014-18.106699 22.586706-12.693357 13.81336-16.800031 21.65338 11.20002-2.98668 33.600061-8.58669-.746668 1.68001-1.493336 5.04001 2.240004 0 5.413343-.56-.560001 5.41334-.560001 9.89335l-2.800005.74667 2.426671 3.17334-1.493336 4.10667q-27.813384 3.17334-66.2667873 19.60004l1.306669-7.84001 3.1733391-3.17334q-1.493336-.74667-4.1066741-2.42667l.746668-1.30667 1.6800031.18666 4.2933412-1.68 1.86667.37333 2.053337-2.42667-6.1600111-1.68-2.9866722 2.05334-1.680003-2.05334q-.186667-2.42667-.186667-4.85334 0-13.06669 10.4533523-27.25339 9.520017-11.57335 19.226702-23.333371 10.453352-13.066691 10.453352-22.960042 0-5.226677-7.46668-5.226677-6.906679 0-21.466706 8.400016-1.680003-1.86667-2.986672-6.720013-1.120002-5.040009-2.6133381-6.906679l4.4800081-6.720012q-1.306669 0-7.0933462.373334l3.1733391-2.986672h1.8666701l2.053337-2.986672-6.3466782-.746668-3.9200071 3.360006-1.6800031-3.360006 1.306669-3.173339q22.5867084-13.066691 39.5734054-13.066691 16.24003 0 25.946714 9.893351 9.893352 9.893352 9.893352 26.133381zm-47.226753-23.520042-2.613338-.373334-3.546673 2.613338 2.426671-.186667 2.053337-1.120002h.746668zm-3.920007 7.093346-4.480009-.560001-5.60001 4.480008 4.293341-.186667 2.986672-1.680003h1.30667zm-3.360007 103.78686-3.546673-.93334-4.480008 2.98667 3.360006.37334 2.800005-.93334.746668.18667z" fill="url(#m)" filter="url(#n)"/></g></g></svg>