<svg height="151.01099" viewBox="0 0 127.71848 24.853388" width="776.02673" xmlns="http://www.w3.org/2000/svg"><g stroke-width=".41145" transform="translate(6.690346 -1.140978)"><text fill="#ef00eb" font-family="TrasksHand" font-size=".32916" stroke="#0105ff" transform="matrix(.99920623 -.03983593 .03983593 .99920623 0 0)" x="44.03339" y="9.981769"><tspan fill="#fafafa" fill-opacity=".4" font-size=".32916" stroke="none" stroke-width=".41145" x="44.03339" y="9.981769">John Loreth 2022</tspan></text><path d="m117.26367 1.1464844c-1.28362.2333566-1.48208 1.7165958-1.95901 2.6983164-.51236 1.2808997-1.02472 2.5617995-1.53708 3.8426992-2.43669-.1489835-4.47445 1.7041458-5.77055 3.507504-.8063.97952-1.64229 1.960622-2.68844 2.693668.90765-3.384754 2.34384-6.597508 3.7723-9.7825613.43619-1.4816874-1.26772-3.30430991-2.743-2.4596263-1.21503.8127718-1.4905 2.3729344-2.12727 3.5954213-.99335 2.3093139-1.899 4.6565301-2.64421 7.0569223-.61104.576956-.48637.375498-.15235-.21875.61224-1.306048.45351-3.2512925-1.01976-3.8989078-.397337-.1754641-.79455-.2463915-1.061489-.6112352-1.156281-.8315545-2.6988-.1258013-3.543749.8245962-.760653.7352372-1.387288 1.6047525-1.880859 2.5390628.190203-1.1989021-.423659-2.5381122-1.649492-2.8892357-.581512-.1099886-.864041-.7958416-1.52043-.8099833-1.617547-.2492543-2.857872 1.1157047-3.746049 2.2744273-.516844.5561037-.724217 1.4355167-1.380904 1.8095567.25869-1.3972124-.128671-3.2438543-1.634766-3.7460934-.860513-.251572-1.762791.2034235-2.466796.5683594-.305839-1.4292345-2.23078-1.8670639-3.325482-1.0401449-.427758.2251337-.775776.7342422-1.057331 1.0069418-1.240509-1.2567796-3.276269-.8670542-4.681091-.1173166-1.192083.636732-2.196019 1.7050019-2.592346 3.0138007.241996-1.2018351-.368796-2.5559097-1.584316-2.9440486-.602991-.0905332-.873356-.7835038-1.528966-.819623-1.624801-.26268-2.86842 1.1061489-3.778939 2.2571015-.223612.2218877-.458559.7795331-.621451.8112581-.444052-1.3224386-2.2647-1.7810275-3.319863-.8987469-.982811.4878016-1.694371 1.4718489-1.81384 2.5598549-.542111 1.1484-1.566817 2.059842-2.764735 2.477564-.143044-1.267269.494609-2.503503 1.145534-3.552804.714379-1.0307678 1.657328-1.9881888 2.811498-2.4921182.637866.2374762 1.300669.6346083 2 .3183593 1.168414-.3109094 2.460993-1.5878621 1.859374-2.8671875-.736287-1.3739462-2.57649-1.5668322-3.939453-1.1777344-3.200706.794997-5.829568 3.2375445-7.335937 6.1132808-.995807 2.007517-1.343175 4.673382.101562 6.554688.293781.335135.65285.614863 1.054688.808594-1.259205.317237-2.244296 1.99547-1.296115 3.103154.952871 1.087352 2.49907 1.368713 3.863689 1.511665 2.446588-.10496 4.313383-2.218442 5.105967-4.388097.490736-1.323869.742298-2.718734 1.086225-4.084144-.255934 1.551713.412295 3.34337 1.96289 3.9375 1.665545.632546 3.47238-.06033 5.008882-.741795.416132-.295963.638258-.341916.773257.197296.953679 1.38104 3.005995 1.376919 4.331174.558533.58583-.325298 1.15424-.706804 1.626921-1.183956-.702718 2.297056-1.491671 4.609393-2.176949 6.927525-.165233 1.330612 1.364985 2.387196 2.574543 1.870748 1.36974-.259731 2.901899-.568336 3.869985-1.649835.5301-.736488.06126-1.937791-.904353-1.93928-.361866-.05974-.730478-.04232-1.095647-.05877.42513-1.233724.85026-2.467448 1.27539-3.701172 1.534492.08936 2.828551-.942888 4.171478-1.531738.870313-.421261 1.809595-.826777 2.615632-1.310059.22853 1.773054 2.095166 3.17797 3.845283 2.759364 1.561517-.144736 3.04099-.786195 4.342217-1.640224.797702 1.527949 2.77118 2.043198 4.335802 1.508555 1.262383-.261081 2.455322-.8446 3.527477-1.524179.36263 1.253183 1.80693 2.095375 3.05349 1.570824.87389-.220729 1.67076-.674003 2.39182-1.20559.38423 1.118549 1.73237 1.724875 2.81836 1.232422 1.21836-.336784 2.27864-1.075977 3.20899-1.91211.27321 1.24936 1.5977 2.260063 2.88252 1.826329 2.27528-.52462 3.84435-2.48122 5.07451-4.334141.51896-.846993.99965-2.17732.16016-2.97461-.83132-.623653-1.97596.005-2.35419.852461-.57255.736637-1.16455 1.466525-1.86652 2.085039.39137-3.530076 1.8513-6.8101623 3.16856-10.0647522.2898-1.3269846-.86399-2.8101749-2.25645-2.7028254zm-87.779295 3.1386718c-1.465124.056878-2.324782 1.50566-2.63041 2.7838209-.190467.5093496-.333392 1.0401067-.584434 1.5247729-.843425.0956759-1.75803.3665734-2.292969 1.0722656.14326-1.0533247-.965267-2.0828277-2.017578-1.890625-1.131211-.9246044-2.701442-.2221358-3.719502.5318191-2.225485 1.5327884-3.306007 4.1656263-5.370341 5.8666183-.023329-1.642061.751829-3.152439 1.114835-4.705441-.027817-.9975195-1.038121-1.8656755-2.032804-1.6910432-1.113611-.9204516-2.673722-.238574-3.6809268.5099316-2.0326675 1.4339675-3.4336484 3.6029566-4.3307921 5.8924126-.9206094.012785-1.7166339.628852-2.6584542.556062-.82579279.05633-1.6518997-.027856-2.4470145-.2045 1.02142256-2.44424 1.6936111-5.0457139 2.9170807-7.3947079.5355741-1.3282177-.6976961-2.665791-1.98488366-2.8162878-.83455834-.1666035-1.60074494.3169205-2.10407204.9356051-.7481673.3440974-1.8840353.5192259-1.9941406 1.5292968-.078153.6532416.3716673 1.2512193.9042968 1.578125-.5571848 1.9357788-1.042854 3.8496228-1.875 5.6914068-1.2847386.410465-1.7999451 2.147389-1.0183789 3.224157.2358097.95832 1.3256216 1.73772 2.2840039 1.240686.4731927-.285124.9885894-.322827 1.5043881-.159483 2.16529251.324555 4.5819361.176049 6.3803775-1.203798.6398042 1.298116 2.5191159 1.747421 3.6318195.780221.6311388-.364592 1.1658555-.866287 1.7138837-1.340768.4420375 1.327658 1.9678286 2.29288 3.3359376 1.734375.561472-.178268 1.08798-.464461 1.550781-.828125.762881 1.063184 2.410179 1.281497 3.413676.431661.629875-.354636 1.172507-.885892 1.711324-1.330098.454575 1.365598 2.04629 2.300808 3.431641 1.710937.626848-.205744 1.145525-.624231 1.695312-.972656.871876 1.290506 2.750438 1.411079 4.025742.684043.606461-.177188 1.302365-.661151 1.786758-.80709.504339 1.50899 2.472492 1.914702 3.818781 1.355628 1.17696-.515914 2.520223-1.233537 2.940269-2.539347.431131-1.248953-.221642-2.499015-.968944-3.471476-.218254-.345058-.772723-.963335-.107471-1.132713.465567-.228221.991378-.269782 1.499006-.325373.105597.642466.76153 1.024097 1.357422 1.140625-.370922 1.178333-.894198 2.325887-1.103516 3.544922-.168205 1.288575.849919 2.476642 2.108504 2.640835 1.528605.205151 2.940533-.664306 4.224466-1.374001.831689-.570955 1.787235-1.340904 1.889686-2.411366-.0088-1.000916-1.307408-1.684812-2.081117-.967857-.525577.286327-1.024758.657515-1.623961.772545.117579-.89834.478846-1.758231.794922-2.589844.926111-.223866 1.90127-.311171 2.829867-.571753.928182-.257708 2.268256-.686138 2.236539-1.8657469.034651-.8321135-.797705-1.4246692-1.585498-1.2379398-.698126.0115131-1.397316.0456612-2.096142.0699711.522643-.9241935 1.123126-2.1510674.390625-3.1367188-.694422-1.0648201-2.360719-1.0662545-3.142557-.1007471-.947416.9587929-1.048835 2.4129012-1.613303 3.5636377-.4394.1800904-.799936.2559921-.919781-.287173-1.069774-1.3684844-3.098217-1.1430084-4.502094-.478452-.41094.1334265-.756985.659496-1.211589.3976974-.874007-.1515026-1.834347.0913521-2.663411.061287.657307-.9469525 1.230004-2.451794.240235-3.3828125-.361138-.3633747-.851511-.6122567-1.371094-.6074219zm-5.853516 6.5097658c.03306.634417.533578 1.161759 1.113282 1.367187-.587634.697879-1.127935 1.451911-1.857422 2.013672-.02825-1.190732.376957-2.331758.74414-3.447265zm52.371094 1.332031c-.232964.830487-.467831 1.852406-.716797 2.5625-.13834-1.174196-1.17214-1.948937-1.53125-3.025391.703432-.586207 1.665924-.489373 2.513672-.628906-.08854.363933-.177083.727865-.265625 1.091797zm-44.578125-.580078c-.09751 1.113319.426079 2.155776 1.003906 3.070313-.417433.05971-.258195-.601273-.598598-.802216-.474508-.612857-1.361443-.507018-1.893488-.03741-.463669.257045-.934886.581567-1.453226.6697.122645-.897512.474667-1.760421.802734-2.587891.701944-.182792 1.447099-.221267 2.154297-.423828l-.0139.09903zm38.259766.347656c.262653.420002-.228798.625919-.50586.853516.237764-.33414.412025-.713711.53711-1.103516-.01042.08333-.02083.166667-.03125.25zm11.203125 1.06836c-.266089.414625-.597872.792523-.998047 1.082031.330208-.484066.703606-.942202 1.142578-1.332031-.04818.08333-.09635.166666-.144531.25zm-25.34375 5.101562c-.16926.338178-.399044.926872-.808594.917969-.249708-.203601-1.077688-.577671-.367955-.58936.416033-.124694.832044-.259015 1.223424-.449703l-.0361.09326z" fill="#333"/><g fill="#f4c401" transform="scale(.9822298 1.0180917)"><g><path d="m.78463075 15.469592c-.91747788 0-2.52926335-.247967-3.02519735-.446341-.2231703-.07439-.247967-.272764-.1735769-.421544.1239835-.272764.3967472-.942274.8678845-2.107719 1.04146137-2.7028405 1.41341187-3.7690986 1.58698876-4.2650326.1487802-.4215439.42154389-1.0166647.66951089-1.3142251.2231703-.2727637.247967-.570324.1487802-.818291-.1983736-.495934-.86788449-.9174779-1.41341188-.9174779-.32235709 0-.57032407.099187-.76869767.3471538-.2975604.3719505-.9174779.743901-1.6861756.9174778-.247967.049593-.3967472.1487802-.3967472.3719505 0 .3967472.5951208.6943076.9422746.7686977.1487802.024797.1735769.1239835.07439.4463406-.4711373 1.7605657-1.4134119 4.7857632-2.1325161 6.3479552-.099187.247967-.1983736.29756-.3223571.29756-.247967 0-.4463406.123984-.6943076.371951-.2975604.272763-.3471538.768697-.1983736 1.041461.1487802.297561.3223571.595121.3719505.818291.099187.471138.6695109.545528 1.0166646.347154.3471538-.198374.6199175-.322357.8678845-.322357.1735769 0 .4215439.04959.991868.14878.5207307.07439 1.2646317.123984 1.93414257.123984 1.71097223 0 3.47153793-.520731 4.46340593-1.661379.3719505-.396747.3471538-.867885-.2727637-.595121-.8678845.37195-1.9341426.520731-2.85162035.520731z"/><path d="m11.000904 8.1545653c-.272764 0-1.339022.099187-2.7028405 1.2894284-1.0414613.9422743-2.0829227 2.1573133-2.7276369 3.4715383-.7934944 1.512598-.9422746 2.306093-.9422746 2.802027 0 .942274.9670713 1.463005 1.2646317 1.463005.5207307 0 1.0414614-.22317 1.7109722-.719104.6943076-.495934 2.0085327-1.686176 2.3060931-2.03333.14878-.14878.198374-.14878.22317.07439 0 .272764 0 .495934.04959.867885.09919 1.016665.768697 1.810159 1.686175 1.810159 1.562192 0 3.967472-2.33089 5.058527-4.488203.22317-.471137.347154-.917478.22317-1.140648-.09919-.173577-.347154-.198373-.619917.04959-1.562192 2.157312-3.248368 3.669911-3.818692 3.669911-.37195 0-.619917-.347154-.619917-1.215038 0-1.487802.44634-3.025198 1.091054-4.4882028.07439-.2231703.198374-.5207307-.495934-.9174779-.22317-.1487802-.396747-.099187-.59512.07439-.148781.099187-.272764.099187-.322358-.049593-.14878-.1983736-.421543-.5207307-.768697-.5207307zm-.917478 1.8597527c.322357 0 .520731.29756.595121.52073.07439.247967 0 .570325-.148781.818292-.09919.173576-.495933.867884-.8430873 1.264631-.743901.867885-1.0910548 1.339022-1.5125987 1.686176-.3719505.322357-.7439009.570324-.9422745.570324s-.247967-.347154-.1735769-.669511c.1487802-.669511.8430877-2.058126 1.6861755-3.049994.7191043-.843088 1.1158515-1.140648 1.3390219-1.140648z"/><path d="m21.192377 8.1545653c-.272764 0-1.339022.099187-2.70284 1.2894284-1.041462.9422743-2.082923 2.1573133-2.727637 3.4715383-.793495 1.512598-.942275 2.306093-.942275 2.802027 0 .942274.967071 1.463005 1.264632 1.463005.52073 0 1.041461-.22317 1.710972-.719104.694308-.495934 2.008533-1.686176 2.306093-2.03333.14878-.14878.198374-.14878.22317.07439 0 .272764 0 .495934.04959.867885.09919 1.016665.768697 1.810159 1.686175 1.810159 1.562192 0 3.967472-2.33089 5.058527-4.488203.22317-.471137.347154-.917478.22317-1.140648-.09919-.173577-.347154-.198373-.619917.04959-1.562192 2.157312-3.248368 3.669911-3.818692 3.669911-.37195 0-.619917-.347154-.619917-1.215038 0-1.487802.44634-3.025198 1.091054-4.4882028.07439-.2231703.198374-.5207307-.495934-.9174779-.22317-.1487802-.396747-.099187-.59512.07439-.148781.099187-.272764.099187-.322358-.049593-.14878-.1983736-.421543-.5207307-.768697-.5207307zm-.917478 1.8597527c.322357 0 .520731.29756.595121.52073.07439.247967 0 .570325-.148781.818292-.09919.173576-.495933.867884-.843087 1.264631-.743901.867885-1.091055 1.339022-1.512599 1.686176-.37195.322357-.743901.570324-.942275.570324-.198373 0-.247967-.347154-.173576-.669511.14878-.669511.843087-2.058126 1.686175-3.049994.719104-.843088 1.115852-1.140648 1.339022-1.140648z"/><path d="m28.606619 15.246421c-.644714 0-.743901-.471137-.619917-1.215038.09919-.719104.619917-2.182109.967071-2.975604.123984-.247967.223171-.322357.545528-.37195 2.206906-.297561 3.669911-.6943079 4.091455-.9174782.347154-.1983736.644714-.7686977.04959-.7686977-.66951 0-2.454873.099187-3.570724.1239835-.14878 0-.371951.024797-.297561-.1735769.09919-.2231703.495934-1.2646317 1.041462-2.2564997.247967-.4215438.22317-.8678844-.14878-1.2398349-.198374-.1983736-.347154-.2727637-.595121-.2727637-.371951 0-1.066258.3719505-1.289429.8430878-.247967.5207306-1.016664 2.7028402-1.140648 2.9508072-.09919.2727637-.247967.3223571-.471137.3719505-.495934.099187-.917478.1983736-1.215038.247967-.347154.07439-.495934.1983736-.719105.4711371-.198373.22317-.22317.595121-.04959.768698.14878.123983.347154.272764.619917.247967.322357-.04959.669511-.07439.867885-.09919.247967-.0248.247967.07439.173577.247967-.123984.347154-.942275 2.752434-1.190242 3.446741-.198373.520731-.272763.818291-.272763 1.115852 0 .867884.867884 1.388615 1.586988 1.388615.322357 0 .644714-.04959 1.066258-.198374 1.983736-.644714 3.000401-1.537395 3.446742-2.008532.421543-.446341.322357-1.115852-.247967-.743901-.595121.37195-1.785363 1.016664-2.628451 1.016664z"/><path d="m37.335055 8.1297686c-.818291 0-2.10772.4215439-2.876417 1.0910548-.719105.5703241-1.487802 1.5373956-1.487802 2.4300766 0 .322357.123983.743901.247967 1.041461.173576.371951.570324 1.066258.818291 1.388616.347153.471137.570324.917477.570324 1.165444 0 .148781-.198374.347154-.520731.347154-.347154 0-.495934-.04959-.743901-.14878-.22317-.173577-.396747-.173577-.619917-.04959-.223171.09919-.545528.29756-.892682.694307-.173576.14878-.198373.347154-.198373.520731.09919.545527 1.041461.917478 1.710972.917478.272764 0 .570324-.07439.942275-.223171.545527-.22317 1.487802-.743901 1.810159-1.041461.29756-.272764.619917-.892681.619917-1.264632 0-.644714-.37195-1.363818-.942274-2.082922-.421544-.570324-.743901-1.115852-.743901-1.586989 0-.768698 1.710972-1.413412 3.248367-1.413412.421544 0 .793495-.1983736.793495-.6695109 0-.2975604-.09919-.5455274-.421544-.7686977-.322357-.2231733-.694308-.3471568-1.314225-.3471568z"/><path d="m42.467974 15.246421c-.644714 0-.743901-.471137-.619917-1.215038.09919-.719104.619917-2.182109.967071-2.975604.123984-.247967.22317-.322357.545527-.37195 2.206907-.297561 3.669912-.6943079 4.091456-.9174782.347154-.1983736.644714-.7686977.04959-.7686977-.669511 0-2.454873.099187-3.570724.1239835-.148781 0-.371951.024797-.297561-.1735769.09919-.2231703.495937-1.2646317 1.041465-2.2564997.247967-.4215438.22317-.8678844-.148781-1.2398349-.198373-.1983736-.347153-.2727637-.59512-.2727637-.371951 0-1.066259.3719505-1.289429.8430878-.247967.5207306-1.016665 2.7028402-1.140648 2.9508072-.09919.2727637-.247967.3223571-.471137.3719505-.495934.099187-.917478.1983736-1.215039.247967-.347153.07439-.495934.1983736-.719104.4711371-.198373.22317-.22317.595121-.04959.768698.14878.123983.347154.272764.619917.247967.322357-.04959.669511-.07439.867885-.09919.247967-.0248.247967.07439.173577.247967-.123984.347154-.942275 2.752434-1.190242 3.446741-.198374.520731-.272764.818291-.272764 1.115852 0 .867884.867885 1.388615 1.586989 1.388615.322357 0 .644714-.04959 1.066258-.198374 1.983736-.644714 3.000401-1.537395 3.446741-2.008532.421544-.446341.322358-1.115852-.247967-.743901-.59512.37195-1.785362 1.016664-2.62845 1.016664z"/></g><g><path d="m52.014055 14.13057c0 .545527.09919 1.016665.347154 1.636582.247967.595121 1.066258 1.413412 1.934142 1.413412.644714 0 1.215038-.123984 1.859753-.421544.59512-.29756 1.611785-.867884 1.884549-1.091055.198373-.173577.29756-.14878.173577.198374-.09919.29756-.247967.892681-.545528 1.760566-.570324 1.611785-1.339021 2.082922-1.909346 2.082922-.247967 0-.570324-.123983-.867884-.44634-.247967-.223171-.743901-.570324-1.140648-.570324-.322357 0-.719104.123983-1.140648.59512-.371951.371951-.322357.843088.04959 1.140649.694308.545527 2.231703.967071 3.198774.967071.471138 0 1.016665-.198374 1.537396-.520731 1.091054-.669511 2.107719-1.884549 2.47967-2.92601.347153-.967072.991868-3.297961 1.264631-4.58739.198374-.892681.570324-1.760565 1.140648-2.33089.247967-.22317.347154-.44634.173577-.694307-.29756-.421544-.59512-.5951209-.942274-.5951209-.446341 0-1.363819.5703239-1.735769.9174779-.247967.247967-.396747.495934-.421544.892681-.04959.818291-.892681 1.760566-1.636582 2.430077-.843088.768697-2.03333 1.264631-2.529264 1.264631-.421543 0-.818291-.37195-.818291-1.413411 0-1.314226.843088-3.248368 2.231703-4.7113734 1.314225-1.3886152 2.529264-1.8845492 2.826824-1.8845492.272764 0 .471137.07439.768698.247967.247967.1487802.619917.2727637 1.041461.1735769.29756-.07439.917478-.5455274 1.140648-.7934944.322357-.3471538.173577-.7934943-.22317-1.066258-.371948-.247967-.892678-.4215439-1.463002-.4215439-.917478 0-2.33089.3967472-3.669912 1.2150382-3.173977 1.983736-5.008933 4.9097468-5.008933 7.5381968z"/><path d="m62.949382 14.725691c0 1.562192 1.115851 2.454873 2.2565 2.454873 2.901213 0 6.000801-2.10772 7.686976-4.265032.322358-.421544.446341-.867885.322358-1.091055-.09919-.173577-.347154-.198374-.595121.07439-2.529264 2.55406-4.81056 3.372351-6.298362 3.372351-.719104 0-1.115851-.37195-1.115851-.917478 0-.347154.07439-.570324.198373-.818291.07439-.173577.14878-.198373.322357-.123983.223171.09919.495934.198373.768698.198373 1.339022 0 2.206906-.644714 2.727637-1.165445.495934-.545527.942274-1.264631.942274-2.157313 0-.9422741-.59512-1.4878015-1.438208-1.5373949-.173577-.024797-.29756-.1239835-.371951-.2231703-.14878-.2975604-.396747-.495934-.867884-.495934-1.041461 0-2.33089 1.487802-2.826824 2.1821092-1.091055 1.562192-1.710972 3.397148-1.710972 4.513zm3.347554-2.55406c-.322357 0-.37195-.07439-.272763-.371951.29756-.768698 1.115851-1.9837358 1.611785-1.9837358.322357 0 .570324.1983738.570324.5455278 0 .694307-1.140648 1.810159-1.909346 1.810159z"/><path d="m76.314809 8.1297686c-.818291 0-2.10772.4215439-2.876417 1.0910548-.719105.5703241-1.487802 1.5373956-1.487802 2.4300766 0 .322357.123983.743901.247967 1.041461.173576.371951.570324 1.066258.818291 1.388616.347153.471137.570324.917477.570324 1.165444 0 .148781-.198374.347154-.520731.347154-.347154 0-.495934-.04959-.743901-.14878-.22317-.173577-.396747-.173577-.619917-.04959-.223171.09919-.545528.29756-.892682.694307-.173577.14878-.198373.347154-.198373.520731.09919.545527 1.041461.917478 1.710972.917478.272764 0 .570324-.07439.942275-.223171.545527-.22317 1.487802-.743901 1.810159-1.041461.29756-.272764.619917-.892681.619917-1.264632 0-.644714-.37195-1.363818-.942274-2.082922-.421544-.570324-.743901-1.115852-.743901-1.586989 0-.768698 1.710972-1.413412 3.248367-1.413412.421544 0 .793495-.1983736.793495-.6695109 0-.2975604-.09919-.5455274-.421544-.7686977-.322357-.2231733-.694308-.3471568-1.314225-.3471568z"/><path d="m84.993643 8.3281422c-.198373 0-.619917.07439-1.115851.3223571-1.264632.5703241-2.380483 1.6861757-2.77723 2.0581257-.247967.198374-.421544.173577-.297561-.14878.322357-.892681.595121-1.6613787 1.091055-2.0829226.173577-.1735769.173577-.3719505-.0248-.5703241-.173577-.1983736-.545527-.3719505-.917478-.3719505-.421544 0-1.041461.3471538-1.363818.6943076-.247967.247967-.421544.6943076-.595121 1.3638185-.14878.6447141-.29756 1.2646321-.793494 3.1243841-1.487802 5.380884-3.223571 10.117053-3.372351 10.538597-.123984.421544-.09919.669511.0248.892682.173577.272763.371951.37195.644714.37195.942275 0 2.206907-.37195 3.347555-.818291.44634-.173577.694307-.570324.694307-.669511 0-.123983-.123983-.198374-.52073-.22317-1.140648-.0248-1.586989-.07439-1.810159-.198374-.173577-.09919-.223171-.247967-.09919-.570324.22317-.570324 1.661379-4.612186 1.735769-4.835356.07439-.173577.173577-.421544.322357-.297561.123983.14878.347154.347154.520731.347154.14878 0 .272763-.0248.495934-.07439.644714-.123984 1.884549-.669511 2.430076-.991868.471138-.29756.719105-.421544 1.314225-.644714 1.339022-.471138 4.165846-2.10772 5.604054-3.645115.669511-.793494.545528-1.586989-.173576-1.041461-1.512599 1.066258-3.521132 2.231703-3.793896 2.355686-.173576.07439-.198373.04959-.123983-.09919.123983-.22317.768698-1.463005.793494-3.049994 0-.4215437-.322357-1.7357688-1.239835-1.7357688zm-1.190241 2.1325158c.123983 0 .29756.173577.29756.545528 0 .818291-.917478 2.380483-1.339022 2.85162-.272763.297561-.644714.669511-1.289428.991868-.595121.297561-1.289428.520731-1.611785.520731-.347154 0-.371951-.123984-.272764-.371951.37195-1.115851 1.239835-2.504466 2.901214-3.793895.818291-.619917 1.115851-.743901 1.314225-.743901z"/><path d="m87.423712 14.725691c0 1.562192 1.115851 2.454873 2.2565 2.454873 2.901213 0 6.000801-2.10772 7.686976-4.265032.322357-.421544.446341-.867885.322357-1.091055-.09919-.173577-.347153-.198374-.59512.07439-2.529264 2.55406-4.81056 3.372351-6.298362 3.372351-.719104 0-1.115851-.37195-1.115851-.917478 0-.347154.07439-.570324.198373-.818291.07439-.173577.14878-.198373.322357-.123983.223171.09919.495934.198373.768698.198373 1.339022 0 2.206906-.644714 2.727637-1.165445.495934-.545527.942274-1.264631.942274-2.157313 0-.9422741-.59512-1.4878015-1.438208-1.5373949-.173577-.024797-.297561-.1239835-.371951-.2231703-.14878-.2975604-.396747-.495934-.867884-.495934-1.041461 0-2.33089 1.487802-2.826824 2.1821092-1.091055 1.562192-1.710972 3.397148-1.710972 4.513zm3.347554-2.55406c-.322357 0-.37195-.07439-.272763-.371951.29756-.768698 1.115851-1.9837358 1.611785-1.9837358.322357 0 .570324.1983738.570324.5455278 0 .694307-1.140648 1.810159-1.909346 1.810159z"/><path d="m95.383432 14.725691c0 1.562192 1.115852 2.454873 2.2565 2.454873 2.901218 0 6.000798-2.10772 7.686978-4.265032.32236-.421544.44634-.867885.32236-1.091055-.0992-.173577-.34716-.198374-.59512.07439-2.52927 2.55406-4.81056 3.372351-6.298366 3.372351-.719105 0-1.115852-.37195-1.115852-.917478 0-.347154.07439-.570324.198374-.818291.07439-.173577.14878-.198373.322357-.123983.22317.09919.495934.198373.768698.198373 1.339019 0 2.206909-.644714 2.727639-1.165445.49593-.545527.94227-1.264631.94227-2.157313 0-.9422741-.59512-1.4878015-1.43821-1.5373949-.17357-.024797-.29756-.1239835-.37195-.2231703-.14878-.2975604-.39674-.495934-.867882-.495934-1.041461 0-2.330889 1.487802-2.826823 2.1821092-1.091055 1.562192-1.710973 3.397148-1.710973 4.513zm3.347555-2.55406c-.322357 0-.371951-.07439-.272764-.371951.297561-.768698 1.115852-1.9837358 1.611787-1.9837358.32236 0 .57032.1983738.57032.5455278 0 .694307-1.140645 1.810159-1.909343 1.810159z"/><path d="m103.69031 15.568778c0 .892682.54553 1.611786 1.26463 1.611786 2.2813 0 5.35609-3.149181 6.07519-4.612186.19838-.396747.27277-.768698.17358-.967071-.0992-.173577-.29756-.198374-.52073.07439-1.63658 1.983736-3.52113 3.446741-4.28983 3.446741-.39675 0-.59512-.347154-.19837-1.636582.57032-1.859753 1.66138-5.2569006 3.49633-8.8028286.52073-1.0166647.64472-1.4630053-.17358-2.1573129-.12398-.1239835-.27276-.1735769-.44634-.1735769-.19837 0-.42154.099187-.64471.3719505-.37195.4711373-1.23983 2.2069063-2.75243 6.0008013-1.68618 4.2154386-1.98374 6.1247846-1.98374 6.8438886z"/><path d="m115.69192 8.5017191c-1.36382 0-2.70284.5703241-4.04186 2.0333289-1.85975 2.03333-2.47967 4.017066-2.47967 5.083324 0 1.239835.57032 1.611785 1.11585 1.611785s1.53739-.322357 2.62845-1.066258c.61992-.421544 1.81016-1.463005 2.40528-2.206906.12398-.173577.22317-.14878.19837.04959-.0496.297561-.0992.619918-.12398 1.165445-.0496.867885.37195 1.909346 1.38861 1.909346 1.93415 0 4.41382-2.727637 5.18251-4.314626.22317-.471137.34716-.917477.22317-1.140648-.14878-.247967-.44634-.198373-.7439.223171-.47113.694307-2.80202 3.347554-3.57072 3.347554-.37195 0-.54553-.446341-.47114-1.239835.0992-1.239835.64472-3.744302 1.36382-5.7280376.81829-2.2317029 1.43821-3.3971478 1.78536-4.2402356.24797-.6199175.24797-.9422746-.0992-1.3638185-.39675-.4711373-.64472-.5455274-.91748-.5455274-.17358 0-.34716.099187-.54553.5207307-.29756.6199175-1.41341 3.2731644-2.45487 5.8520211-.0496.1487802-.0992.1487802-.22317.1239835-.19838-.049593-.39675-.07439-.61992-.07439zm-.49593 1.4382086c.19837 0 .37195.1239833.44634.2727633.0992.173577.12398.371951-.0248.694308-.14878.37195-1.23984 2.132516-2.08292 2.975604-.7935.768698-1.38862 1.091055-1.68618 1.091055-.17358 0-.32236-.173577-.32236-.421544 0-.371951.12399-.917478 1.19025-2.40528.94227-1.339022 2.03333-2.2069063 2.47967-2.2069063z"/></g></g></g></svg>