<svg height="148.35271" viewBox="0 0 699.14605 148.3527" width="699.14606" xmlns="http://www.w3.org/2000/svg" xmlns:xlink="http://www.w3.org/1999/xlink"><linearGradient id="a" gradientUnits="userSpaceOnUse" x1="148.3185" x2="151.97664" y1="162.58894" y2="52.277431"><stop offset="0" stop-color="#373969"/><stop offset=".43662432" stop-color="#a7bbf1"/><stop offset="1" stop-color="#2170cc"/></linearGradient><filter id="b" color-interpolation-filters="sRGB" height="1.062732" width="1.011022" x="-.005809" y="-.031962"><feGaussianBlur in="SourceGraphic" result="blur" stdDeviation="1"/><feDiffuseLighting diffuseConstant="1" result="diffuse" surfaceScale="10"><feDistantLight azimuth="220" elevation="30"/></feDiffuseLighting><feComposite in="diffuse" in2="diffuse" k1="1" k2="0" k3="0" k4="0" operator="arithmetic" result="composite1"/><feComposite in="composite1" in2="SourceGraphic" k1="1" k2="0" k3="1" k4="0" operator="arithmetic" result="composite2"/></filter><filter id="c" color-interpolation-filters="sRGB" height="1.030873" width="1.041755" x="-.021358" y="-.015054"><feGaussianBlur in="SourceAlpha" result="blur" stdDeviation=".5"/><feSpecularLighting in="blur" result="specular" specularConstant="3.33927989" specularExponent="25" surfaceScale="10"><feDistantLight azimuth="211" elevation="26"/></feSpecularLighting><feComposite in="specular" in2="SourceGraphic" k1="0" k2="1" k3="1" k4="0" operator="arithmetic" result="composite1"/><feComposite in="composite1" in2="SourceAlpha" operator="in" result="composite2"/></filter><linearGradient id="d" gradientUnits="userSpaceOnUse" x1="32.776211" x2="32.776211" y1="168.2742" y2="30.92944"><stop offset="0" stop-color="#ff7a01"/><stop offset=".35918856" stop-color="#fffc00"/><stop offset=".60327649" stop-color="#ff0"/><stop offset="1" stop-color="#ff7501"/></linearGradient><g transform="translate(16.837343 -24.351286)"><text fill="#ef00eb" font-family="TrasksHand" font-size="2" stroke="#0105ff" stroke-width="2.5" transform="matrix(.93210688 -.36218332 .36218332 .93210688 0 0)" x="-33.660976" y="143.63191"><tspan fill="#fafafa" fill-opacity=".4" font-size="2" stroke="none" stroke-width="2.5" x="-33.660976" y="143.63191">John Loreth 2022</tspan></text><g stroke="#010000" stroke-width="1.25"><path d="m82.231183 111.03443q-.746668 6.72001-.746668 9.89335-1.86667.56-2.986672.56.746668 1.12 2.613338 3.17334-.560001 1.30667-1.680003 4.10667-3.73334.37334-10.826686 1.30667v5.78668q0 2.24-.560002 6.34668-.373334 4.10667-.373334 6.16001 0 5.04001.933336 17.36003-2.800006 1.30667-5.04001 2.24l-1.86667-2.42667 1.306669-3.17334-.373334-5.04001.746668-1.49333-1.493336-3.36001-3.360006 5.22668 1.120002 5.60001-1.493336-2.05334q-1.86667 3.36001-6.160011 9.89335l-2.800005-2.24q-2.240004 2.05334-3.546673 2.8-1.86667-13.81335-3.733341-36.40006-4.293341.37333-38.8267371 13.25336l1.4933361-7.84002q.746668-.74667 2.4266711-2.05334-.9333351-1.30666-1.3066691-2.61333l-2.2400041-1.12001q.933335-1.49333 2.0533371-3.92l-.933335-1.68001q-2.9866722.37334-4.66667523.74667-.18666701-.93333-1.49333607-2.8l2.42667111-4.66668 1.30666909-.93333.186667-3.73334-5.4133433 3.17334-.746668 2.8q-1.680003-2.42667-2.9866721-4.48001-.933335-.56-4.4800085-2.61334 4.1066745-9.33335 19.9733701-36.960063 7.0933459-12.320023 22.2133739-36.026733.933335 1.86667 2.240004 5.600011 1.493336-1.120002 3.920007-4.106675v-2.800005q3.920007-1.306669 7.280014-1.680003l2.053337 9.893352 2.240004-5.413344-.186667-4.853342.746668-1.493336-.560001-1.120002 4.853342-2.240004q0 .186667 2.426671 6.160011 2.240004-2.986672 5.413343-6.533345.933335-.186667 8.026682-2.800005 0 1.306669-.186667 3.920007 0 2.800005 0 4.293341 1.306669-.186667 5.226676-1.493336-5.413343 52.453429-5.413343 68.880121 2.986672-.37333 8.773349-1.49333-.746668 1.68-1.680003 5.04001 1.120002 0 6.160011-.56zm-27.626717-60.106779-1.306669-2.426671-2.240004 3.73334 1.680003 7.093346q.746668-1.306669 1.120002-4.480008.373334-3.173339.746668-3.920007zm-14.560027 64.026779q-.746668-8.58668-1.680003-25.386709-9.146683 13.066689-17.920032 31.546729 10.453352-3.73334 19.600035-6.16002zm19.600036 25.76005-.933335-1.86667-1.680003 2.80001 1.120002 5.78667 1.120002-2.98667-.186667-2.98667zm-3.920007 8.58668-1.120002-2.42667-2.426671 3.92001 1.493336 7.09335 1.680003-3.73334-.186667-3.92001zm-49.653424-43.30674-4.1066741 2.05333-2.24000414 7.09335 3.36000614-2.61334 1.6800031-3.36 1.120002-.56z"/><path d="m78.680276 105.03443q-.746668 6.72001-.746668 9.89335-1.86667.56-2.986672.56.746668 1.12 2.613338 3.17334-.560001 1.30667-1.680003 4.10667-3.73334.37334-10.826687 1.30667v5.78668q0 2.24-.560001 6.34668-.373334 4.10667-.373334 6.16001 0 5.04001.933335 17.36003-2.800005 1.30667-5.040009 2.24l-1.86667-2.42667 1.306669-3.17334-.373334-5.04001.746668-1.49333-1.493336-3.36001-3.360006 5.22668 1.120002 5.60001-1.493336-2.05334q-1.86667 3.36001-6.160011 9.89335l-2.800005-2.24q-2.240004 2.05334-3.546674 2.8-1.86667-13.81335-3.73334-36.40006-4.293341.37333-38.82673724 13.25336l1.49333604-7.84002q.746668-.74667 2.4266711-2.05334-.933335-1.30666-1.306669-2.61333l-2.24000413-1.12001q.93333504-1.49333 2.05333713-3.92l-.9333351-1.68001q-2.9866721.37334-4.6666752.74667-.186667-.93333-1.493336-2.8l2.4266711-4.66668 1.306669-.93333.186667-3.73334-5.4133432 3.17334-.746668 2.8q-1.6800031-2.42667-2.9866725-4.48001-.933335-.56-4.480008-2.61334 4.106674-9.33335 19.97337-36.960063 7.093346-12.320023 22.213374-36.026733.933335 1.86667 2.240004 5.600011 1.493336-1.120002 3.920007-4.106675v-2.800005q3.920007-1.306669 7.280013-1.680003l2.053337 9.893352 2.240005-5.413344-.186667-4.853342.746668-1.493336-.560001-1.120002 4.853342-2.240004q0 .186667 2.426671 6.160011 2.240004-2.986672 5.413343-6.533345.933335-.186667 8.026681-2.800005 0 1.306669-.186667 3.920007 0 2.800005 0 4.293341 1.306669-.186667 5.226677-1.493336-5.413344 52.453429-5.413344 68.880121 2.986673-.37333 8.77335-1.49333-.746668 1.68-1.680003 5.04001 1.120002 0 6.160011-.56zm-27.626717-60.106779-1.306669-2.426671-2.240004 3.73334 1.680003 7.093346q.746668-1.306669 1.120002-4.480008.373334-3.173339.746668-3.920007zm-14.560027 64.026779q-.746668-8.58668-1.680003-25.386709-9.146683 13.066691-17.920033 31.546729 10.453353-3.73334 19.600036-6.16002zm19.600036 25.76005-.933335-1.86667-1.680003 2.80001 1.120002 5.78667 1.120002-2.98667-.186667-2.98667zm-3.920007 8.58668-1.120002-2.42667-2.426671 3.92001 1.493336 7.09335 1.680003-3.73334-.186667-3.92001zm-49.6534241-43.306742-4.1066742 2.053332-2.2400041 7.09335 3.36000616-2.61334 1.68000304-3.36 1.1200021-.56z" fill="url(#d)" filter="url(#c)"/><g transform="scale(.99569185 1.0043268)"><path d="m147.87655 76.02389-2.88-.36-5.04 4.32 3.84-.24 2.76-1.68h1.2l-.24 2.52-2.04.6 1.68 2.4-1.08 3.24q-2.52.72-7.92 1.8-.36 22.08-5.28 70.8l-.48 1.32q-24.36-1.08-43.319997-11.64l3-2.76.72-1.8 6.24 1.92-2.16-2.88-3-1.44-.6-.96q3.72-3 3.72-3.6 0-.72-.6-2.28-.48-1.56-.48-2.28 0 0 .12-.72 10.559997 5.28 21.959997 8.16 0-24.48-1.92-44.4-10.08 4.8-21.719997 10.92.24-2.04.84-6.24 1.08-1.08 2.52-2.88-.36-.24-3.12-1.68l.24-.72 1.68.36 5.039997-4.08-3.839997.12-2.76 1.44q0-3.72.48-5.16-.6-1.08-1.44-3.12 8.039997-3.48 24.239997-10.44 13.44-6.12 26.16-9.96-.36 1.32-.96 3.96 1.92-.24 4.2-.72-.12.84-.12 1.68 0 1.2.12 3.36.24 2.16.24 3.12zm-9.6 5.16-1.8-.24-2.16 1.92 1.68-.12 1.32-.72h.48zm-2.4-3.48-2.88-.24-3.6 2.76 2.64-.12 1.92-.96h.96zm-30.48 67.44-1.56-2.4-2.04-1.08-.36-.72-1.799997-.12 1.319997 2.76zm2.16 4.8-1.44-1.44-1.68-.6-.6-.48-1.2.12 1.32 1.92z"/><path d="m222.68666 101.82389q0 20.64-15.48 39.12-16.2 19.2-36.36 19.2-13.44 0-21-9.48l1.08.24-1.08-3.72-3.6-1.92q-4.08-7.92-4.08-17.64 0-20.52 15.48-38.88 16.2-19.32 36.36-19.32 8.88 0 15.72 4.8l2.64 5.4-3.72-.24-.6-2.04-5.88-2.76 1.68 3.24 2.64 1.92.36.96.12 3.6-4.68 2.28-4.44-2.16 1.68 3.36.84.6-2.16 3.36 3.48-2.28.36.24.48.84 2.16.6-.72-2.52 5.76-.48-.48-2.28 3.12-.6-1.32-2.4 6.12 2.4 1.2-1.44q4.32 8.16 4.32 18zm-13.8-5.04-.84-2.52-3.84-1.92 1.08 2.28 1.68 1.32.36.48zm-5.4 14.52q0-7.32-4.2-12.24-4.08-5.04-11.28-5.04-10.92 0-19.68 10.68-8.04 9.96-8.04 21.36 0 7.08 3.96 12 4.2 5.28 11.52 5.28 11.04 0 19.56-10.68 8.16-10.2 8.16-21.36zm-45.48 35.16-.72-2.28-3.24-1.56.96 1.8 1.44 1.2.24.6zm3.48 9.48-1.2-3.96-5.76-3 1.68 3.48 2.64 1.8.48.96z"/><path d="m298.09674 104.94389-.72 5.76-7.32 2.88q0 15.84.72 23.64 0 .96.72 5.04.48 3.12.48 5.16 0 .72-.36 2.16.48 2.76 1.8 8.04-1.2.6-3.24 1.44-1.08-.84-3.72-2.28-2.16 2.76-3.36 4.56l-1.92-.72-2.16 1.44q-1.2-3.36-2.64-8.64-16.08 6-25.8 6-11.28 0-18.6-10.08-6.48-9.12-6.48-20.76 0-12.96 6.36-25.44 5.76-11.64 16.08-20.88 11.76-10.44 29.04-14.16l-.12 4.68-2.52 4.92.96 2.52-.72.36-1.68 1.56-.84.12-.6 1.68 2.88-.36 1.56-1.92.72 2.16-2.4 3.6 2.16 5.16q-17.28 7.56-25.08 21.84-4.8 8.76-4.8 15 0 5.16 3.6 8.28 3.6 3.12 8.88 3.12 5.04 0 12.96-3.48-1.08-2.4-2.76-12.6-6.36 3.96-14.52 9.6.48-2.04 1.8-6.36l1.2-.36 1.56-.96.6-.12.84-1.32h-2.52l-1.32 1.56-1.92-2.28q.6-1.2 2.28-3.36l-1.8-1.44q.6-2.04 1.2-3 3.24-2.28 10.2-6.24l-.24-1.68q2.4-1.2 7.8-3.24v-.96q10.32-4.44 23.64-8.4-.36 2.04-.6 6l-1.44 1.08h-2.64l-4.08 4.68 3.36-.72 2.52-1.8.84-.12.24-.24zm-25.68-26.4-3.48 1.08-2.28 2.04-.96.12-.84 2.16 3.84-.48zm12.24 27.24h-2.52l-2.64 3.12 2.16-.6 1.56-1.2h.72zm-18.72-17.76-1.92.6-1.08 1.2-.6.12-.48.96 1.92-.24zm-32.16 53.52-1.68-4.92-.84 2.76.36 2.64-.36.96.84 1.32z"/><path d="m355.14675 143.58389-1.44.48q-1.32 2.88-1.68 3.6-1.08 1.44-2.76 2.52-2.52-1.2-3.96-.6-1.44.6-6.12 2.64-2.76-9.96-5.52-21.24-6.36 2.28-17.16 7.44-1.32 8.52-2.28 16.8-.24.12-.48.12-.36 0-1.08-.72-.72-.84-.96-.84-.72 0-1.32 2.04-.6 1.92-1.08 2.4-3.72 2.52-3.36 1.8.48-.6.48-3.84l.6-1.08-.84-1.92-2.64 3.6.6 4.68q-1.2.6-2.04.6-1.08 0-1.32-1.32-.24-1.2-.36-1.2-.48 0-1.56 2.76h-.24q.6-9.24.6-20.88 0-26.04 6.12-62.16 2.64-.84 8.04-2.76.96-.48 4.08-2.76 2.04-1.44 4.92-1.44 2.04 0 8.28-2.64-.72 3.12-1.32 6 1.32-.36 3.72-1.08.6-.96 2.28-2.16.36-.12 1.08-.36l-1.2 3 3.24 5.64.72-4.2-1.08-3.24.36-1.08-.6-.72q2.4-1.2 7.68-3.12.24 19.2 3.72 42.6 2.16-.72 5.52-1.8-.12 1.2-.36 3.84-.12.84-1.32 1.92-1.08.96-1.08 2.28 0 .48.72 1.56.84 1.08.84 1.92 0 .6-.24 1.92-.24 1.32-.24 1.92l-1.56.48q1.56 9.72 3.6 18.6zm-17.64-57.36-.6-1.92.12-.72-1.08-1.08-.96 2.88 2.04 3.48zm-7.2 29.76q-2.64-12.12-4.44-24.24-4.56 19.56-6.36 29.76 6-3.48 10.8-5.52zm-24 24.96-.36-.96-1.2 1.68.24 2.88.84-1.56.12-1.56zm3.84 4.8-.48-1.56-1.92 2.64.6 4.32q1.56-2.4 1.44-4.8z"/><path d="m423.23672 96.66389q0 10.92-6.12 23.16-8.16 16.08-23.28 27.36-15 11.16-32.64 13.56l.6-4.44.12-.12 3.84.12 5.04-5.28-4.2.84-.84.6q-.6-1.92-2.16-8.52l4.2-.72q-2.52-20.76-3.36-42.24-4.32 2.28-8.64 5.52.24-7.92 2.4-13.68l-2.76-3h1.56l4.32-4.44-3.36.48-2.88 1.92.72-5.4-2.64-2.04q18.84-11.04 38.28-11.04 14.16 0 22.68 6.36 9.12 7.32 9.12 21zm-54.6-10.92-2.64.48-2.04 1.44-.72.12-.84 1.44 3 .12zm32.88 21.12q0-12.84-15.24-12.6-2.16 20.76-2.16 41.16 7.2-5.16 11.88-12.48 5.52-8.16 5.52-16.08zm-19.68 40.08-1.68.36q-1.2.84-1.68.84l-.48.72h1.8zm-6.12-.72-2.28.36-1.56 1.2h-.48l-.84 1.08h2.4z"/><path d="m506.20667 101.82389q0 20.64-15.48 39.12-16.2 19.2-36.36 19.2-13.44 0-21-9.48l1.08.24-1.08-3.72-3.6-1.92q-4.08-7.92-4.08-17.64 0-20.52 15.48-38.88 16.2-19.32 36.36-19.32 8.88 0 15.72 4.8l2.64 5.4-3.72-.24-.6-2.04-5.88-2.76 1.68 3.24 2.64 1.92.36.96.12 3.6-4.68 2.28-4.44-2.16 1.68 3.36.84.6-2.16 3.36 3.48-2.28.36.24.48.84 2.16.6-.72-2.52 5.76-.48-.48-2.28 3.12-.6-1.32-2.4 6.12 2.4 1.2-1.44q4.32 8.16 4.32 18zm-13.8-5.04-.84-2.52-3.84-1.92 1.08 2.28 1.68 1.32.36.48zm-5.4 14.52q0-7.32-4.2-12.24-4.08-5.04-11.28-5.04-10.92 0-19.68 10.68-8.04 9.96-8.04 21.36 0 7.08 3.96 12 4.2 5.28 11.52 5.28 11.04 0 19.56-10.68 8.16-10.2 8.16-21.36zm-45.48 35.16-.72-2.28-3.24-1.56.96 1.8 1.44 1.2.24.6zm3.48 9.48-1.2-3.96-5.76-3 1.68 3.48 2.64 1.8.48.96z"/><path d="m578.61675 143.82389q-.6 3-.6 5.64l-1.92-.84v1.92l-.96-1.44-6.72-.72 2.88 2.52 3.24 1.08.84.72h.72l.24 3.12q-.48-.24-.84-.24-.36 0-1.32.48-.72.24-1.68-.12l3.48 4.92q-9.72-3.84-18.48-8.88-10.8-5.4-19.56-11.76-.24 8.16.36 13.8-1.2.48-3.48 1.56l-.12-.12.96-2.16-2.64-5.76-.72 3.48.6 2.4-1.44-1.44q-.12.12-3.96 6.48l-1.68-1.32q-1.44 1.2-2.52 2.04-4.68-39.72-5.28-61.8l-1.2.6-4.2-.6-3.36 3.12q-.96-2.16-1.32-3.48.12 0 4.08-2.16l-2.16-1.56 1.56-.84h1.08l1.32-1.92-3.84-.36-1.56 1.2-.48-1.68q1.32-2.28 1.92-3.84l-4.2.72v-1.92q.6-.36 2.64-1.8 21-15.36 41.88-15.36 10.68 0 17.52 4.8 7.68 5.4 7.68 15.6 0 21.48-26.28 38.88 15.84 10.68 29.52 17.04zm-24-46.32q0-8.28-11.4-8.28-1.2 0-2.64.12-1.92 15.6-1.92 24.72 15.96-9.12 15.96-16.56zm-33.6-12.84-3.12-.36-3.48 3 2.76-.12 1.92-1.2h.84zm46.44 60.72-1.68-2.04-4.32-.72 1.8 1.68 2.28.6.36.72zm-37.32-.6-1.92-4.2-.48 2.76.48 2.04-.12.72.96 1.44z"/><path d="m634.10667 66.18389q-1.08 3.12-1.44 6.48h-1.08l-1.92.96-.48-.12-1.2 1.2 2.28.36 2.4-1.68q-.12.96-.36 2.64l-4.92 3 5.4.36q-.6 2.04-1.8 6.48-15.84 3.84-27.12 8.16-.48 3.6-.84 7.2 8.4-2.88 18.96-5.88-.12.96-.36 2.88 2.28-.72 6.84-1.68-.72 2.4-1.8 7.08-1.44.6-2.88.84.36.6 1.32 1.92-.36.84-.72 2.4-9.6 2.88-11.28 3.24-6.36 2.04-10.92 4.44-.36 5.52-.36 12.12 0 3.96.12 9.12 3.96-2.28 9-4.92l1.56.96q4.92-2.52 14.04-6.24-.12.48-2.16 8.28 1.8-.72 2.76-1.08-.72 3.48-.72 5.16-20.16 9-39.24 23.64-.48-2.64-.48-3 0-.84.48-2.28.48-1.32.48-2.04-1.32-1.92-2.4-3 .36-.6.96-2.4l-1.56.12-.12-.48q.6-.6 2.4-1.92-1.32-10.08-2.16-23.52-1.44.96-4.32 2.4-.72-3-1.32-4.56.72-1.92 1.32-3.24l-1.92-1.2q.36-2.52 1.32-6.36 2.88-1.32 4.32-2.28v-7.2q-3 1.32-9.12 4.32.48-1.2 3.6-8.4-.6-1.08-1.92-3 2.04-1.92 3.24-3.48-.6-.48-1.08-2.4-.36-2.04-.72-2.76 1.2-1.92 1.92-3.12 12.6-5.52 23.16-9.36l.48-2.16q15.24-3.96 30.36-6zm-9.96 11.76h-1.56l-1.44.84-.48-.12-.84.84 1.8.36zm-4.68 21-2.16.12-1.8.96h-.72l-1.08 1.08 2.52.36zm-22.68 46.2h-1.44l-1.32.6h-.36l-.6.72 1.56.24zm-5.04 4.68-2.28.12-1.8.84.6 1.68z"/><path d="m684.55676 83.70389q-24.72 14.76-24.72 24.48 0 3.48 6 6.24 9.12 4.32 11.16 5.88 6 4.68 6 12.72 0 8.04-7.8 17.64-5.64 7.44-14.16 14.04-.48-.24-.48-1.08 0-.48.36-1.68.48-1.2.48-1.68 0-.84-4.08-.84-1.56 0-2.28.24l5.04-5.28q-4.32.6-7.08 3.72l-.96.24-.84.96-2.88-1.2q15.36-10.8 15.36-16.8 0-3.84-8.64-7.92-13.68-6.36-15.96-7.92-8.52-5.64-8.52-13.68 0-13.8 16.08-29.28 12.84-12.36 28.44-19.68.48 1.32 1.92 3 1.8 2.28 2.16 2.88l-1.8.36-2.88 2.28-.84.12-1.68 2.88 3.48.36 3.96-5.04q0 .84-1.08 5.04l3.96 3h-.12l-2.16 1.8-.72.12-1.2 1.8 2.52.24 2.52-2.64.6.72zm-10.08-6.12-2.16.36-1.8 1.68h-.6l-.96 1.8 2.28.12zm-6.12 73.2-2.76.96-2.04 1.56-.6.36-1.2 1.44 2.64-.24z"/></g><g fill="url(#a)" filter="url(#b)" transform="scale(.99569185 1.0043268)"><path d="m143.85925 70.049753-2.88-.36-5.04 4.32 3.84-.24 2.76-1.68h1.2l-.24 2.52-2.04.6 1.68 2.4-1.08 3.24q-2.52.72-7.92 1.8-.36 22.079997-5.28 70.799997l-.48 1.32q-24.36-1.08-43.32-11.64l3-2.76.72-1.8 6.24 1.92-2.16-2.88-3-1.44-.6-.96q3.72-3 3.72-3.6 0-.72-.6-2.28-.48-1.56-.48-2.28 0 0 .12-.72 10.56 5.28 21.96 8.16 0-24.48-1.92-44.399997-10.08 4.8-21.72 10.919997.24-2.039997.84-6.239997 1.08-1.08 2.52-2.88-.36-.24-3.12-1.68l.24-.72 1.68.36 5.04-4.08-3.84.12-2.76 1.44q0-3.72.48-5.16-.6-1.08-1.44-3.12 8.04-3.48 24.24-10.44 13.44-6.12 26.16-9.96-.36 1.32-.96 3.96 1.92-.24 4.2-.72-.12.84-.12 1.68 0 1.2.12 3.36.24 2.16.24 3.12zm-9.6 5.16-1.8-.24-2.16 1.92 1.68-.12 1.32-.72h.48zm-2.4-3.48-2.88-.24-3.6 2.76 2.64-.12 1.92-.96h.96zm-30.48 67.439997-1.56-2.4-2.04-1.08-.36-.72-1.8-.12 1.32 2.76zm2.16 4.8-1.44-1.44-1.68-.6-.6-.48-1.2.12 1.32 1.92z"/><path d="m218.66935 95.849753q0 20.639997-15.48 39.119997-16.2 19.2-36.36 19.2-13.44 0-21-9.48l1.08.24-1.08-3.72-3.6-1.92q-4.08-7.92-4.08-17.64 0-20.52 15.48-38.879997 16.2-19.32 36.36-19.32 8.88 0 15.72 4.8l2.64 5.4-3.72-.24-.6-2.04-5.88-2.76 1.68 3.24 2.64 1.92.36.96.12 3.6-4.68 2.28-4.44-2.16 1.68 3.36.84.6-2.16 3.36 3.48-2.28.36.24.48.84 2.16.6-.72-2.52 5.76-.48-.48-2.28 3.12-.6-1.32-2.4 6.12 2.4 1.2-1.44q4.32 8.16 4.32 18zm-13.8-5.04-.84-2.52-3.84-1.92 1.08 2.28 1.68 1.32.36.48zm-5.4 14.519997q0-7.319997-4.2-12.239997-4.08-5.04-11.28-5.04-10.92 0-19.68 10.68-8.04 9.959997-8.04 21.359997 0 7.08 3.96 12 4.2 5.28 11.52 5.28 11.04 0 19.56-10.68 8.16-10.2 8.16-21.36zm-45.48 35.16-.72-2.28-3.24-1.56.96 1.8 1.44 1.2.24.6zm3.48 9.48-1.2-3.96-5.76-3 1.68 3.48 2.64 1.8.48.96z"/><path d="m294.07944 98.969753-.72 5.759997-7.32 2.88q0 15.84.72 23.64 0 .96.72 5.04.48 3.12.48 5.16 0 .72-.36 2.16.48 2.76 1.8 8.04-1.2.6-3.24 1.44-1.08-.84-3.72-2.28-2.16 2.76-3.36 4.56l-1.92-.72-2.16 1.44q-1.2-3.36-2.64-8.64-16.08 6-25.8 6-11.28 0-18.6-10.08-6.48-9.12-6.48-20.76 0-12.96 6.36-25.439997 5.76-11.64 16.08-20.88 11.76-10.44 29.04-14.16l-.12 4.68-2.52 4.92.96 2.52-.72.36-1.68 1.56-.84.12-.6 1.68 2.88-.36 1.56-1.92.72 2.16-2.4 3.6 2.16 5.16q-17.28 7.56-25.08 21.839997-4.8 8.76-4.8 15 0 5.16 3.6 8.28 3.6 3.12 8.88 3.12 5.04 0 12.96-3.48-1.08-2.4-2.76-12.6-6.36 3.96-14.52 9.6.48-2.04 1.8-6.36l1.2-.36 1.56-.96.6-.12.84-1.32h-2.52l-1.32 1.56-1.92-2.28q.6-1.2 2.28-3.36l-1.8-1.44q.6-2.04 1.2-3 3.24-2.28 10.2-6.24l-.24-1.68q2.4-1.2 7.8-3.239997v-.96q10.32-4.44 23.64-8.4-.36 2.04-.6 6l-1.44 1.08h-2.64l-4.08 4.679997 3.36-.72 2.52-1.799997.84-.12.24-.24zm-25.68-26.4-3.48 1.08-2.28 2.04-.96.12-.84 2.16 3.84-.48zm12.24 27.24h-2.52l-2.64 3.119997 2.16-.6 1.56-1.2h.72zm-18.72-17.76-1.92.6-1.08 1.2-.6.12-.48.96 1.92-.24zm-32.16 53.519997-1.68-4.92-.84 2.76.36 2.64-.36.96.84 1.32z"/><path d="m351.12944 137.60975-1.44.48q-1.32 2.88-1.68 3.6-1.08 1.44-2.76 2.52-2.52-1.2-3.96-.6-1.44.6-6.12 2.64-2.76-9.96-5.52-21.24-6.36 2.28-17.16 7.44-1.32 8.52-2.28 16.8-.24.12-.48.12-.36 0-1.08-.72-.72-.84-.96-.84-.72 0-1.32 2.04-.6 1.92-1.08 2.4-3.72 2.52-3.36 1.8.48-.6.48-3.84l.6-1.08-.84-1.92-2.64 3.6.6 4.68q-1.2.6-2.04.6-1.08 0-1.32-1.32-.24-1.2-.36-1.2-.48 0-1.56 2.76h-.24q.6-9.24.6-20.88 0-26.04 6.12-62.159997 2.64-.84 8.04-2.76.96-.48 4.08-2.76 2.04-1.44 4.92-1.44 2.04 0 8.28-2.64-.72 3.12-1.32 6 1.32-.36 3.72-1.08.6-.96 2.28-2.16.36-.12 1.08-.36l-1.2 3 3.24 5.64.72-4.2-1.08-3.24.36-1.08-.6-.72q2.4-1.2 7.68-3.12.24 19.2 3.72 42.599997 2.16-.72 5.52-1.8-.12 1.2-.36 3.84-.12.84-1.32 1.92-1.08.96-1.08 2.28 0 .48.72 1.56.84 1.08.84 1.92 0 .6-.24 1.92-.24 1.32-.24 1.92l-1.56.48q1.56 9.72 3.6 18.6zm-17.64-57.359997-.6-1.92.12-.72-1.08-1.08-.96 2.88 2.04 3.48zm-7.2 29.759997q-2.64-12.119997-4.44-24.239997-4.56 19.559997-6.36 29.759997 6-3.48 10.8-5.52zm-24 24.96-.36-.96-1.2 1.68.24 2.88.84-1.56.12-1.56zm3.84 4.8-.48-1.56-1.92 2.64.6 4.32q1.56-2.4 1.44-4.8z"/><path d="m419.21942 90.689753q0 10.919997-6.12 23.159997-8.16 16.08-23.28 27.36-15 11.16-32.64 13.56l.6-4.44.12-.12 3.84.12 5.04-5.28-4.2.84-.84.6q-.6-1.92-2.16-8.52l4.2-.72q-2.52-20.76-3.36-42.239997-4.32 2.28-8.64 5.519997.24-7.919997 2.4-13.679997l-2.76-3h1.56l4.32-4.44-3.36.48-2.88 1.92.72-5.4-2.64-2.04q18.84-11.04 38.28-11.04 14.16 0 22.68 6.36 9.12 7.32 9.12 21zm-54.6-10.92-2.64.48-2.04 1.44-.72.12-.84 1.44 3 .12zm32.88 21.119997q0-12.839997-15.24-12.599997-2.16 20.759997-2.16 41.159997 7.2-5.16 11.88-12.48 5.52-8.16 5.52-16.08zm-19.68 40.08-1.68.36q-1.2.84-1.68.84l-.48.72h1.8zm-6.12-.72-2.28.36-1.56 1.2h-.48l-.84 1.08h2.4z"/><path d="m502.18936 95.849753q0 20.639997-15.48 39.119997-16.2 19.2-36.36 19.2-13.44 0-21-9.48l1.08.24-1.08-3.72-3.6-1.92q-4.08-7.92-4.08-17.64 0-20.52 15.48-38.879997 16.2-19.32 36.36-19.32 8.88 0 15.72 4.8l2.64 5.4-3.72-.24-.6-2.04-5.88-2.76 1.68 3.24 2.64 1.92.36.96.12 3.6-4.68 2.28-4.44-2.16 1.68 3.36.84.6-2.16 3.36 3.48-2.28.36.24.48.84 2.16.6-.72-2.52 5.76-.48-.48-2.28 3.12-.6-1.32-2.4 6.12 2.4 1.2-1.44q4.32 8.16 4.32 18zm-13.8-5.04-.84-2.52-3.84-1.92 1.08 2.28 1.68 1.32.36.48zm-5.4 14.519997q0-7.319997-4.2-12.239997-4.08-5.04-11.28-5.04-10.92 0-19.68 10.68-8.04 9.959997-8.04 21.359997 0 7.08 3.96 12 4.2 5.28 11.52 5.28 11.04 0 19.56-10.68 8.16-10.2 8.16-21.36zm-45.48 35.16-.72-2.28-3.24-1.56.96 1.8 1.44 1.2.24.6zm3.48 9.48-1.2-3.96-5.76-3 1.68 3.48 2.64 1.8.48.96z"/><path d="m574.59944 137.84975q-.6 3-.6 5.64l-1.92-.84v1.92l-.96-1.44-6.72-.72 2.88 2.52 3.24 1.08.84.72h.72l.24 3.12q-.48-.24-.84-.24-.36 0-1.32.48-.72.24-1.68-.12l3.48 4.92q-9.72-3.84-18.48-8.88-10.8-5.4-19.56-11.76-.24 8.16.36 13.8-1.2.48-3.48 1.56l-.12-.12.96-2.16-2.64-5.76-.72 3.48.6 2.4-1.44-1.44q-.12.12-3.96 6.48l-1.68-1.32q-1.44 1.2-2.52 2.04-4.68-39.72-5.28-61.799997l-1.2.6-4.2-.6-3.36 3.12q-.96-2.16-1.32-3.48.12 0 4.08-2.16l-2.16-1.56 1.56-.84h1.08l1.32-1.92-3.84-.36-1.56 1.2-.48-1.68q1.32-2.28 1.92-3.84l-4.2.72v-1.92q.6-.36 2.64-1.8 21-15.36 41.88-15.36 10.68 0 17.52 4.8 7.68 5.4 7.68 15.6 0 21.479997-26.28 38.879997 15.84 10.68 29.52 17.04zm-24-46.319997q0-8.28-11.4-8.28-1.2 0-2.64.12-1.92 15.6-1.92 24.719997 15.96-9.119997 15.96-16.559997zm-33.6-12.84-3.12-.36-3.48 3 2.76-.12 1.92-1.2h.84zm46.44 60.719997-1.68-2.04-4.32-.72 1.8 1.68 2.28.6.36.72zm-37.32-.6-1.92-4.2-.48 2.76.48 2.04-.12.72.96 1.44z"/><path d="m630.08937 60.209753q-1.08 3.12-1.44 6.48h-1.08l-1.92.96-.48-.12-1.2 1.2 2.28.36 2.4-1.68q-.12.96-.36 2.64l-4.92 3 5.4.36q-.6 2.04-1.8 6.48-15.84 3.84-27.12 8.16-.48 3.6-.84 7.2 8.4-2.88 18.96-5.88-.12.96-.36 2.88 2.28-.72 6.84-1.68-.72 2.4-1.8 7.08-1.44.6-2.88.84.36.6 1.32 1.919997-.36.84-.72 2.4-9.6 2.88-11.28 3.24-6.36 2.04-10.92 4.44-.36 5.52-.36 12.12 0 3.96.12 9.12 3.96-2.28 9-4.92l1.56.96q4.92-2.52 14.04-6.24-.12.48-2.16 8.28 1.8-.72 2.76-1.08-.72 3.48-.72 5.16-20.16 9-39.24 23.64-.48-2.64-.48-3 0-.84.48-2.28.48-1.32.48-2.04-1.32-1.92-2.4-3 .36-.6.96-2.4l-1.56.12-.12-.48q.6-.6 2.4-1.92-1.32-10.08-2.16-23.52-1.44.96-4.32 2.4-.72-3-1.32-4.56.72-1.92 1.32-3.24l-1.92-1.2q.36-2.52 1.32-6.36 2.88-1.32 4.32-2.28v-7.199997q-3 1.32-9.12 4.319997.48-1.199997 3.6-8.399997-.6-1.08-1.92-3 2.04-1.92 3.24-3.48-.6-.48-1.08-2.4-.36-2.04-.72-2.76 1.2-1.92 1.92-3.12 12.6-5.52 23.16-9.36l.48-2.16q15.24-3.96 30.36-6zm-9.96 11.76h-1.56l-1.44.84-.48-.12-.84.84 1.8.36zm-4.68 21-2.16.12-1.8.96h-.72l-1.08 1.08 2.52.36zm-22.68 46.199997h-1.44l-1.32.6h-.36l-.6.72 1.56.24zm-5.04 4.68-2.28.12-1.8.84.6 1.68z"/><path d="m680.53946 77.729753q-24.72 14.76-24.72 24.479997 0 3.48 6 6.24 9.12 4.32 11.16 5.88 6 4.68 6 12.72 0 8.04-7.8 17.64-5.64 7.44-14.16 14.04-.48-.24-.48-1.08 0-.48.36-1.68.48-1.2.48-1.68 0-.84-4.08-.84-1.56 0-2.28.24l5.04-5.28q-4.32.6-7.08 3.72l-.96.24-.84.96-2.88-1.2q15.36-10.8 15.36-16.8 0-3.84-8.64-7.92-13.68-6.36-15.96-7.92-8.52-5.64-8.52-13.68 0-13.799997 16.08-29.279997 12.84-12.36 28.44-19.68.48 1.32 1.92 3 1.8 2.28 2.16 2.88l-1.8.36-2.88 2.28-.84.12-1.68 2.88 3.48.36 3.96-5.04q0 .84-1.08 5.04l3.96 3h-.12l-2.16 1.8-.72.12-1.2 1.8 2.52.24 2.52-2.64.6.72zm-10.08-6.12-2.16.36-1.8 1.68h-.6l-.96 1.8 2.28.12zm-6.12 73.199997-2.76.96-2.04 1.56-.6.36-1.2 1.44 2.64-.24z"/></g></g></g></svg>