<svg enable-background="new 0 0 566.929 129.21" height="120.52127" viewBox="0 0 641.13286 120.52126" width="641.13287" xmlns="http://www.w3.org/2000/svg"><g transform="matrix(.10252157 0 0 .10252157 149.66656 -3.581866)"><text fill="#ef00eb" font-family="TrasksHand" font-size="19.5081" stroke="#0105ff" stroke-width="24.3851" x="-1339.486" y="961.54663"><tspan fill="#fafafa" fill-opacity=".4" font-size="19.5081" stroke="none" stroke-width="24.3851" x="-1339.486" y="961.54663">John Loreth 2022</tspan></text><path d="m-1156.4036 289.56797h5761.1344c120.4937 0 209.376 89.0658 185.0151 179.98179l-87.6189 319.44057c-21.9525 80.03433-110.3027 149.80211-193.2931 149.80211h-5815.4981c-82.9904 0-171.7547-69.76781-149.8022-149.80211l95.897-349.62025c18.7065-68.20003 90.9733-149.80211 204.1658-149.80211z" fill="#2285c8"/><path d="m-609.38278 34.937686h2332.73088c152.461 0 301.3059 161.678464 251.8205 342.091594l-114.9204 418.97603c-78.5424 293.12439-276.2284 409.51379-433.4764 414.50229h-2322.62679c-150.27311 0-311.00111-126.3307-271.25111-271.25118l169.81586-619.11333c41.77631-155.91104 253.84899-280.673069 387.90746-285.205404z" fill="#050608"/><g stroke="none" stroke-width="24.3851"><g fill="#ed1e24" transform="matrix(1.0012556 0 -.2682856 .99874598 0 0)"><path d="m-705.74429 498.52881h-109.86954l41.61725-177.28948h238.88301l4.99407-24.138h168.96603l-48.27601 203.92451h-109.86954v419.50187h-185.61293z"/><path d="m-357.8244 660.00373q-1.66469-12.48517-2.49704-25.80269-.83234-13.31752-.83234-38.28787 0-20.80862 4.99407-42.44959 5.82641-21.64097 23.30566-67.41994 18.31159-45.77898 69.91698-89.89326 51.60538-44.94663 94.88732-62.42587 43.28194-18.31159 101.546089-23.30566 7.491105 0 14.98221 0 7.491104 0 14.982209-.83235 11.65283 0 17.479244.83235 40.784904 0 74.911048 11.65283 34.126144 10.82048 74.0787 35.79083 40.78491 24.138 64.09056 51.60539 23.30566 26.63504 38.28787 49.9407 15.81456 23.30566 26.63504 54.10242 10.82049 30.79676 14.98221 63.25822 4.16173 31.62911 4.16173 51.60539 0 55.76711-22.47332 106.54015-21.64097 50.77304-44.94663 79.90512-22.47331 28.29973-52.43773 49.9407-29.13207 21.64097-53.27008 33.2938-24.138001 11.65283-51.605385 19.97628-26.635039 7.4911-57.4318031 9.98813-30.7967639 2.49704-59.9288379 2.49704l-43.281934-5.82642q-51.60539-9.98813-89.06092-29.13207-36.62318-19.97628-74.91104-58.26415-37.45553-38.28787-58.26415-79.90511-20.80863-42.4496-28.29973-97.38437zm194.76872-28.29972q4.16173 40.7849 31.62911 69.91697 28.29973 29.13208 51.60539 33.2938 24.138004 4.16173 29.132074 4.16173 4.994069 0 10.820484 0 4.99407 0 9.98814 0 6.65876-1.66469 40.784903-6.65876 34.126144-5.82642 48.276009-41.61725 14.982209-35.79084 16.646899-44.11429 2.497035-8.32345 2.497035-18.31158 0-49.10836-26.635039-84.06685-26.635039-34.95849-54.1024231-39.12021-26.6350389-4.99407-38.2878689-4.99407-17.479244 0-31.629109 3.32938-13.317519 3.32938-30.796764 13.31752-16.6469 9.15579-39.12021 33.2938-21.64097 24.138-21.64097 67.41994 0 9.1558.83234 14.14987z"/><path d="m325.5304 500.1935h-41.61725l41.61725-178.95417h213.08031q108.20485 0 173.9601 60.76118 66.5876 60.76119 82.40215 104.04313 16.6469 42.44959 19.97628 73.24635 4.16172 29.96442 4.16172 75.7434 0 20.80862-4.99407 42.44959-4.16172 21.64097-23.30565 72.41401-19.14394 50.77304-71.58167 94.88733-52.43774 43.28194-101.54609 59.92884-49.10835 15.81455-116.52829 15.81455h-175.62479zm186.44527 231.3919h16.6469q44.94663-4.16172 72.41401-34.12614 28.29973-30.79677 28.29973-78.24043 0-12.48517-7.4911-46.61132-6.65876-34.95849-41.61725-53.27008-34.95849-18.31159-68.25229-18.31159z"/><path d="m846.57761 660.00373q-1.66469-12.48517-2.49704-25.80269-.83234-13.31752-.83234-38.28787 0-20.80862 4.99407-42.44959 5.82641-21.64097 23.30566-67.41994 18.31159-45.77898 69.91697-89.89326 51.60539-44.94663 94.88737-62.42587 43.2819-18.31159 101.546-23.30566 7.4912 0 14.9823 0 7.4911 0 14.9822-.83235 11.6528 0 17.4792.83235 40.7849 0 74.9111 11.65283 34.1261 10.82048 74.0787 35.79083 40.7849 24.138 64.0905 51.60539 23.3057 26.63504 38.2879 49.9407 15.8145 23.30566 26.635 54.10242 10.8205 30.79676 14.9822 63.25822 4.1618 31.62911 4.1618 51.60539 0 55.76711-22.4733 106.54015-21.641 50.77304-44.9467 79.90512-22.4733 28.29973-52.4377 49.9407-29.1321 21.64097-53.2701 33.2938-24.138 11.65283-51.6054 19.97628-26.635 7.4911-57.4318 9.98813-30.7967 2.49704-59.9288 2.49704l-43.282-5.82642q-51.6053-9.98813-89.0609-29.13207-36.62315-19.97628-74.91102-58.26415-37.45552-38.28787-58.26414-79.90511-20.80863-42.4496-28.29973-97.38437zm194.76869-28.29972q4.1618 40.7849 31.6291 69.91697 28.2998 29.13208 51.6054 33.2938 24.138 4.16173 29.1321 4.16173 4.9941 0 10.8205 0 4.9941 0 9.9881 0 6.6588-1.66469 40.7849-6.65876 34.1262-5.82642 48.276-41.61725 14.9822-35.79084 16.6469-44.11429 2.4971-8.32345 2.4971-18.31158 0-49.10836-26.6351-84.06685-26.635-34.95849-54.1024-39.12021-26.635-4.99407-38.2879-4.99407-17.4792 0-31.6291 3.32938-13.3175 3.32938-30.7967 13.31752-16.6469 9.15579-39.1202 33.2938-21.641 24.138-21.641 67.41994 0 9.1558.8323 14.14987z"/><path d="m1601.514 911.37192q-46.6113-14.14987-89.0609-37.45553l47.4437-173.12775 27.4674 12.48517q47.4436 20.80863 75.7434 30.79677 29.132 9.15579 42.4496 9.15579 4.994.83235 8.3234.83235 3.3294 0 4.1617 0 13.3176 0 26.6351-5.82642 13.3175-6.65876 13.3175-23.30566 0-5.82641-4.9941-13.31752-4.1617-7.4911-11.6528-10.82048l-3.3294-1.66469-29.9644-11.65283-72.414-27.46739q-63.2582-24.138-92.3903-65.75525-28.2997-42.44959-28.2997-109.03719 0-44.11428 17.4792-78.24043 18.3116-34.12614 48.276-56.59945 30.7968-22.47332 59.9289-30.79677 29.132-9.15579 75.7433-9.15579 15.8146 0 33.2938.83234 17.4793.83235 34.9585 3.32938l5.8265-19.97628 157.3131 30.79677-53.27 190.60699q-36.6232-22.47331-77.4081-33.29379-39.9526-11.65283-59.9288-11.65283-10.8205 0-21.641 3.32938-9.9882 3.32938-14.9822 9.98814-4.9941 6.65876-4.9941 14.9822 0 6.65876 4.1617 12.48518 4.9941 5.82641 12.4852 8.32345l85.7315 30.79676 28.2998 11.65283q109.0372 57.43181 109.0372 165.63665 0 14.14987-4.9941 45.77898-4.9941 30.79676-30.7968 65.75525-24.9703 34.95849-49.9407 52.43773-24.9703 17.47925-59.0965 28.29973-34.1261 11.65283-94.8873 11.65283-23.3057 0-47.4437-4.16173-24.138-4.16172-66.5876-16.64689z"/></g><g fill="#fff" transform="matrix(1.0030514 0 -.25222563 .99695789 0 0)"><path d="m2248.3757 636.15856q-.9791-7.3431-1.4686-15.17574-.4896-7.83264-.4896-22.51884 0-12.2385 2.9373-24.96654 3.4267-12.72804 13.7071-39.65274 10.7699-26.9247 41.1213-52.87032 30.3515-26.43516 55.8076-36.7155 25.4561-10.76988 59.7239-13.70712 4.4058 0 8.8117 0 4.4059 0 8.8117-.48954 6.8536 0 10.2804.48954 23.9874 0 44.0586 6.85356 20.0711 6.36402 43.569 21.05022 23.9875 14.19666 37.6946 30.35148 13.7071 15.66528 22.5189 29.3724 9.3012 13.70712 15.6652 31.8201 6.3641 18.11298 8.8118 37.20504 2.4477 18.60252 2.4477 30.35148 0 32.79918-13.2176 62.66112-12.7281 29.86194-26.4352 46.99584-13.2176 16.64436-30.841 29.3724-17.1339 12.72804-31.3306 19.5816-14.1966 6.85356-30.3515 11.74896-15.6652 4.40586-33.7782 5.87448-18.113 1.46862-35.2469 1.46862l-25.4561-3.42678q-30.3515-5.87448-52.3808-17.1339-21.5397-11.74896-44.0586-34.2678-22.0293-22.51884-34.2678-46.99584-12.2385-24.96654-16.6443-57.27618zm114.5523-16.64436q2.4477 23.98746 18.6026 41.12136 16.6443 17.1339 30.3514 19.5816 14.1967 2.4477 17.1339 2.4477 2.9373 0 6.3641 0 2.9372 0 5.8744 0 3.9164-.97908 23.9875-3.91632 20.0711-3.42678 28.3933-24.477 8.8117-21.05022 9.7908-25.94562 1.4686-4.8954 1.4686-10.76988 0-28.88286-15.6652-49.44354-15.6653-20.56068-31.8201-23.00838-15.6653-2.93724-22.5189-2.93724-10.2803 0-18.6025 1.95816-7.8326 1.95816-18.113 7.83264-9.7908 5.38494-23.0084 19.5816-12.728 14.19666-12.728 39.65274 0 5.38494.4895 8.32218z"/><path d="m2692.3882 783.99964q-27.4142-8.32218-52.3807-22.0293l27.9037-101.82432 16.1549 7.3431q27.9037 12.2385 44.5481 18.11298 17.1339 5.38494 24.9665 5.38494 2.9373.48954 4.8954.48954 1.9582 0 2.4477 0 7.8327 0 15.6653-3.42678 7.8327-3.91632 7.8327-13.70712 0-3.42678-2.9373-7.83264-2.4477-4.40586-6.8535-6.36402l-1.9582-.97908-17.6234-6.85356-42.59-16.15482q-37.2051-14.19666-54.339-38.67366-16.6443-24.96654-16.6443-64.12974 0-25.94562 10.2803-46.01676 10.7699-20.07114 28.3933-33.28872 18.113-13.21758 35.2469-18.11298 17.1339-5.38494 44.5482-5.38494 9.3012 0 19.5816.48954 10.2803.48954 20.5606 1.95816l3.4268-11.74896 92.5231 18.11298-31.3306 112.10466q-21.5397-13.21758-45.5272-19.5816-23.4979-6.85356-35.2469-6.85356-6.364 0-12.728 1.95816-5.8745 1.95816-8.8117 5.87448-2.9373 3.91632-2.9373 8.81172 0 3.91632 2.4477 7.3431 2.9373 3.42678 7.3431 4.8954l50.4226 18.11298 16.6444 6.85356q64.1297 33.77826 64.1297 97.41846 0 8.32218-2.9372 26.9247-2.9372 18.11298-18.113 38.67366-14.6862 20.56068-29.3724 30.84102-14.6862 10.28034-34.7573 16.64436-20.0712 6.85356-55.8076 6.85356-13.7071 0-27.9038-2.4477-14.1966-2.4477-39.1632-9.7908z"/><path d="m3058.565 781.0624-12.7281-6.36402 27.4143-101.33478 7.3431 5.38494q13.7071 7.83264 24.477 7.83264 19.5816 0 22.5188-15.17574 3.4268-15.66528 3.4268-21.05022v-108.67788h-77.8369l24.9666-104.76156h162.0377v236.93736q0 9.30126-1.4686 18.60252-1.4686 9.30126-10.2803 36.22596-8.8118 26.9247-34.2678 42.58998-24.9666 15.66528-42.1005 19.5816-17.1339 3.91632-38.1841 3.91632-25.4561 0-55.318-13.70712z"/><path d="m3266.6198 636.15856q-.9791-7.3431-1.4686-15.17574-.4895-7.83264-.4895-22.51884 0-12.2385 2.9372-24.96654 3.4268-12.72804 13.7071-39.65274 10.7699-26.9247 41.1214-52.87032 30.3515-26.43516 55.8075-36.7155 25.4561-10.76988 59.7239-13.70712 4.4059 0 8.8117 0 4.4059 0 8.8118-.48954 6.8535 0 10.2803.48954 23.9875 0 44.0586 6.85356 20.0712 6.36402 43.5691 21.05022 23.9874 14.19666 37.6946 30.35148 13.7071 15.66528 22.5188 29.3724 9.3013 13.70712 15.6653 31.8201 6.364 18.11298 8.8117 37.20504 2.4477 18.60252 2.4477 30.35148 0 32.79918-13.2176 62.66112-12.728 29.86194-26.4351 46.99584-13.2176 16.64436-30.8411 29.3724-17.1339 12.72804-31.3305 19.5816-14.1967 6.85356-30.3515 11.74896-15.6653 4.40586-33.7783 5.87448-18.113 1.46862-35.2469 1.46862l-25.456-3.42678q-30.3515-5.87448-52.3808-17.1339-21.5398-11.74896-44.0586-34.2678-22.0293-22.51884-34.2678-46.99584-12.2385-24.96654-16.6444-57.27618zm114.5524-16.64436q2.4477 23.98746 18.6025 41.12136 16.6444 17.1339 30.3515 19.5816 14.1966 2.4477 17.1339 2.4477 2.9372 0 6.364 0 2.9372 0 5.8745 0 3.9163-.97908 23.9874-3.91632 20.0712-3.42678 28.3934-24.477 8.8117-21.05022 9.7908-25.94562 1.4686-4.8954 1.4686-10.76988 0-28.88286-15.6653-49.44354-15.6653-20.56068-31.8201-23.00838-15.6653-2.93724-22.5188-2.93724-10.2804 0-18.6026 1.95816-7.8326 1.95816-18.1129 7.83264-9.7908 5.38494-23.0084 19.5816-12.7281 14.19666-12.7281 39.65274 0 5.38494.4896 8.32218z"/><path d="m3769.3772 443.2798q17.6234-6.85356 34.7573-10.28034 17.1339-3.42678 32.3096-3.42678 31.8201 0 56.2971 13.70712l6.8536-6.36402 76.8578 40.63182-78.816 83.71134-5.8744-3.42678-9.3013-4.40586q-14.1967-6.36402-21.5398-7.83264-7.3431-1.46862-13.2175-1.95816-5.8745-.48954-11.2595-.48954-46.0167 0-57.2761 23.49792-10.7699 23.00838-12.2385 27.41424-1.4687 4.40586-1.4687 12.2385-.4895 3.91632-.4895 10.76988 0 28.39332 17.6234 46.01676 17.6235 17.1339 33.2888 21.05022 15.6652 3.42678 26.4351 3.42678 19.5816 0 28.8829-6.85356 9.3012-6.85356 12.2385-10.28034 3.4268-3.42678 7.3431-8.32218h-56.7867l23.9875-91.05444h163.9959l.4895 6.85356.4896 8.32218q0 28.88286-6.8536 59.23434-6.364 30.35148-17.1339 52.38078-10.2803 21.53976-28.3933 40.14228-18.113 18.11298-37.205 30.84102-18.6026 12.2385-41.6109 19.5816-22.5189 7.3431-47.975 7.3431-11.7489 0-38.6736-2.93724-26.9247-2.4477-50.4226-15.66528-23.0084-13.21758-34.2678-22.51884-11.2595-9.30126-28.8829-29.86194-17.1339-21.05022-27.4143-48.954-10.2803-28.39332-10.2803-66.0879 0-51.89124 18.113-79.30548 18.113-27.90378 31.8201-42.10044 14.1967-14.6862 30.841-25.94562 16.6444-11.74896 34.7574-19.09206z"/><path d="m4039.1135 636.15856q-.9791-7.3431-1.4686-15.17574-.4896-7.83264-.4896-22.51884 0-12.2385 2.9373-24.96654 3.4267-12.72804 13.7071-39.65274 10.7699-26.9247 41.1213-52.87032 30.3515-26.43516 55.8076-36.7155 25.4561-10.76988 59.7239-13.70712 4.4058 0 8.8117 0 4.4059 0 8.8117-.48954 6.8536 0 10.2804.48954 23.9874 0 44.0586 6.85356 20.0711 6.36402 43.569 21.05022 23.9875 14.19666 37.6946 30.35148 13.7071 15.66528 22.5188 29.3724 9.3013 13.70712 15.6653 31.8201 6.364 18.11298 8.8117 37.20504 2.4477 18.60252 2.4477 30.35148 0 32.79918-13.2175 62.66112-12.7281 29.86194-26.4352 46.99584-13.2176 16.64436-30.841 29.3724-17.1339 12.72804-31.3306 19.5816-14.1966 6.85356-30.3515 11.74896-15.6652 4.40586-33.7782 5.87448-18.113 1.46862-35.2469 1.46862l-25.4561-3.42678q-30.3515-5.87448-52.3808-17.1339-21.5397-11.74896-44.0586-34.2678-22.0293-22.51884-34.2678-46.99584-12.2385-24.96654-16.6443-57.27618zm114.5523-16.64436q2.4477 23.98746 18.6026 41.12136 16.6443 17.1339 30.3514 19.5816 14.1967 2.4477 17.1339 2.4477 2.9373 0 6.3641 0 2.9372 0 5.8744 0 3.9164-.97908 23.9875-3.91632 20.0711-3.42678 28.3933-24.477 8.8117-21.05022 9.7908-25.94562 1.4686-4.8954 1.4686-10.76988 0-28.88286-15.6652-49.44354-15.6653-20.56068-31.8201-23.00838-15.6653-2.93724-22.5189-2.93724-10.2803 0-18.6025 1.95816-7.8326 1.95816-18.113 7.83264-9.7908 5.38494-23.0084 19.5816-12.728 14.19666-12.728 39.65274 0 5.38494.4895 8.32218z"/><path d="m4483.126 783.99964q-27.4142-8.32218-52.3808-22.0293l27.9038-101.82432 16.1548 7.3431q27.9038 12.2385 44.5482 18.11298 17.1339 5.38494 24.9665 5.38494 2.9372.48954 4.8954.48954 1.9582 0 2.4477 0 7.8326 0 15.6653-3.42678 7.8326-3.91632 7.8326-13.70712 0-3.42678-2.9372-7.83264-2.4477-4.40586-6.8536-6.36402l-1.9581-.97908-17.6235-6.85356-42.59-16.15482q-37.205-14.19666-54.3389-38.67366-16.6444-24.96654-16.6444-64.12974 0-25.94562 10.2804-46.01676 10.7699-20.07114 28.3933-33.28872 18.113-13.21758 35.2469-18.11298 17.1339-5.38494 44.5481-5.38494 9.3013 0 19.5816.48954 10.2804.48954 20.5607 1.95816l3.4268-11.74896 92.523 18.11298-31.3305 112.10466q-21.5398-13.21758-45.5272-19.5816-23.498-6.85356-35.2469-6.85356-6.364 0-12.7281 1.95816-5.8744 1.95816-8.8117 5.87448-2.9372 3.91632-2.9372 8.81172 0 3.91632 2.4477 7.3431 2.9372 3.42678 7.3431 4.8954l50.4226 18.11298 16.6444 6.85356q64.1297 33.77826 64.1297 97.41846 0 8.32218-2.9372 26.9247-2.9373 18.11298-18.113 38.67366-14.6862 20.56068-29.3724 30.84102-14.6862 10.28034-34.7574 16.64436-20.0711 6.85356-55.8075 6.85356-13.7071 0-27.9038-2.4477-14.1967-2.4477-39.1632-9.7908z"/></g></g></g></svg>