<svg height="154.14622" viewBox="0 0 104.98878 25.369386" width="637.91943" xmlns="http://www.w3.org/2000/svg"><g transform="translate(-.099037 -1.34375)"><text fill="#ef00eb" font-family="TrasksHand" font-size=".32916" stroke="#0105ff" stroke-width=".41145" transform="matrix(.72540372 -.68832365 .68832365 .72540372 0 0)" x="7.969966" y="30.371119"><tspan fill="#fafafa" fill-opacity=".4" font-size=".32916" stroke="none" stroke-width=".41145" x="7.969966" y="30.371119">John Loreth 2022</tspan></text><g stroke-width=".411449"><path d="m101.55469 1.34375c-1.2301.011785-1.664347 1.374745-2.003909 2.3320312-.596545 1.3320067-1.103173 2.7038445-1.666015 4.0507813-2.493485-.1221011-4.574803 1.7200418-5.861328 3.6874995.343079-1.160903.04147-2.6418435-1.166016-3.1699214-.52015-.1906353-.935227-.479851-1.376953-.7988281-1.27622-.5872322-2.659504.2437306-3.477272 1.2176515-.347854.2953044-.801314.991334-.987572 1.1124266.218197-1.3301525-.969129-2.9123418-2.398437-2.5625-.864697.2654448-1.352955 1.1444362-1.808807 1.8650788-.408492.6458691-.398611 1.4293676-.462344 2.1427236-.08565.237078-.425111.954344-.483902.849789.156695-1.475504.295775-3.200571-.686354-4.4279039-.924251-.7959894-2.350174-.1617796-2.831875.8345844-.617271.7777876-.729499 1.8168355-.510687 2.7561535.146123.956684-.806163 1.471697-1.295406 2.151879-.213228.189141-.882342 1.065371-.701875.276914.08018-1.453824.765982-2.787424 1.089416-4.1722369-.02217-.9961018-1.037102-1.8537737-2.024963-1.6793252-1.132825-.9177257-2.6795-.1939506-3.711583.524229-2.128396 1.42441-3.088543 3.9999711-5.194667 5.4464741.887553-3.261827 2.337847-6.4354062 3.73363-9.5407505.396214-1.4358047-1.21052-3.1872475-2.655505-2.4397183-1.203251.686216-1.485872 2.1755669-2.084058 3.3193025-.375584.8249256-.757233 1.8561953-1.111255 2.5635101-.714432-1.6109255-2.46323-2.429752-4.097656-2.6914063-.589899-.2969073-1.053954-.9129816-1.787109-.9199219-.827428-.1378235-1.543131.4409129-1.884766 1.1503906-.568327.4839058-1.38858.5894493-1.964932 1.0972294-.894239.5186871-1.423057 1.9139737-.513584 2.6683956.31875.2941126.745272.4604215 1.175782.4863282-.561033 1.7174466-1.054404 3.4517006-1.576172 5.1816406-.855455.373747-1.703456 1.321078-1.233765 2.297842.525162 1.54059 2.713546 2.220754 3.981811 1.165049 1.34012-.125333 3.073138-.257756 3.708985-1.664063.354225-1.046452-.815302-1.866981-1.763672-1.765625-.455483.02839-.750907-.0431-.502084-.559811.281532-.115778.833167.07089 1.222787-.073 1.347173-.35426 2.624395-1.033556 3.681641-1.941407-.403468 1.409226-.954083 2.908591-.651987 4.387103.277411 1.180837 1.522598 2.062877 2.730833 1.725387.92921-.134465 1.762734-.618766 2.524669-1.14374.683912 1.235297 2.489318 1.581337 3.5735.665007.616602-.311345 1.16539-.944005 1.680407-1.26071.463937 1.284123 1.977449 2.208967 3.30535 1.637598.931012-.263168 1.718285-.871824 2.417306-1.52041.386913.47869-.01641.815667-.336487 1.200921-1.054024 1.290249-1.987027 2.70034-2.911248 4.063624-1.232535.716249-2.326643 2.101072-2.136621 3.588753.463299 1.670366 3.094055 1.626242 3.771075.142795.829828-.975291 2.500334-1.145707 2.854037-2.539943.169727-.378241-.06561-.823718-.0083-1.1568 2.049474-2.754917 4.430044-5.273314 6.199179-8.229038-.299012 1.213701-.223653 2.619088.706196 3.552616.83589 1.005717 2.241816 1.257681 3.458591.95876 1.102217-.141001 2.216624-.673669 3.151619-1.089501.496591 1.141498 1.967638 1.573039 3.043325.997743 1.084012-.355001 2.037808-1.020505 2.888315-1.767274.290485 1.225458 1.598554 2.197988 2.861251 1.770795 2.265061-.513785 3.837521-2.446778 5.064651-4.288536.51703-.832352.9585-2.184204.0663-2.917806-.82968-.555179-1.90035.06215-2.28705.869065-.56961.706996-1.13488 1.430075-1.83014 2.019607.40534-3.452814 1.83229-6.6069989 3.14289-9.7780745.24025-1.2359433-.75618-2.6286531-2.04718-2.6594255zm-88.169924 3.0683594c-1.58282.022476-2.432736 1.6024965-2.936892 2.89128-.4804192 1.09562-.9208472 2.2092001-1.3248271 3.3352826-.579314-1.0086331-1.1790132-2.0066021-1.6933594-3.0507814.6526576-1.2673121-.4597223-2.9465088-1.8870383-2.7950572-.8121232.0178572-1.6488616.5338896-1.8785867 1.3399791-.846921.6127533-1.4304004 1.98334-.6054687 2.8476563-.5540705 1.009302-.8535136 2.1464252-1.3804229 3.1810382-.5847856 1.411282-1.31723476 2.80727-1.57856153 4.318962-.03786832 1.496113 1.81254723 2.660909 3.10475793 1.807346 1.3730703-.677864 1.8059707-2.342588 1.7306503-3.757494.090079-.691156.3825917-1.331404.6548262-1.965868 1.0230239 1.710515 1.8801109 3.55597 3.0944092 5.139502.9620068.884768 2.764699.729592 3.310982-.550936.410946-.635072.210929-1.441974-.07407-2.05339.25139-2.175607 1.129207-4.147818 2.020243-6.1347852.31814-.5158375 1.139043-.4241608 1.351561-1.0742188.386823-1.0544785-.04142-2.3613068-.8689-3.08756-.289931-.2379042-.662141-.3883568-1.039303-.3909556zm4.410156 2.8261718c-1.93475.094616-3.21222 1.8227049-4.144531 3.3300778-1.016033 1.794052-1.910211 4.066635-.966797 6.074219.789718 1.460244 2.6699 1.978537 4.194653 1.496658 1.283344-.232376 2.49241-.875663 3.594409-1.482986.366507 1.161357 1.725202 1.990586 2.896974 1.461222 2.768744-.778664 4.73097-3.126145 6.124511-5.521769.606503-.091.570984.159277.364217.656505-.514209 1.617371-.222842 3.761378 1.409863 4.624366 1.736054.88373 3.772389.174132 5.410933-.601009.303654-.07569.723047-.562859.898971-.332206.602075 1.243062 2.591291 1.781619 3.470703.541016.919797-1.592341 1.620763-3.311693 2.748866-4.780257.314472-.373945.627615-.940419 1.061681-1.110368.836098.354453 1.699278-.151273 2.138289-.86842.759078-.9328503.813162-2.6124161-.409773-3.1901738-1.308012-.6605302-2.803999.167382-3.689453 1.1542969-.381731-1.2488693-2.157487-1.6915564-3.080602-.7609889-.668222.3934021-1.107662 1.1716602-1.296352 1.8508327-.183619-.9546056-1.061102-1.653994-1.990234-1.8203125-.834372-1.1268755-2.549441-.7603947-3.449582.0893082-.622912.4180179-.962444 1.3902917-1.842181 1.2171292-.370176-.0380616-1.119095.1317339-1.128159-.4177656-.320923-1.1092037-1.659406-1.9178825-2.742316-1.3210179-.72964.2674692-1.322345.8738546-1.601434 1.5964086-.258507-1.1061619-1.514353-2.0079837-2.609375-1.4042969-1.011148.4446143-1.606303 1.472388-1.9375 2.480469-.022426-1.0983403-.922334-2.0514815-1.992187-2.2207034-.354661-.4231622-.874572-.7235964-1.433594-.7402344zm39.761719 1.3769532c.440167.1278581.491772.5886319.07617.7753906-.285385.2095241-1.03048.891987-.642578.15625.185792-.2182061.203508-1.0583946.566407-.9316406z" fill="#333"/><g fill="#f4c401"><path d="m5.588444 5.7640972c-.2652837 0-.5788008.1230066-.7476177.2952158-.1205835.1476078-.2652837.3444183-.2652837.4674249 0 .1230065-.096467.2706144-.3135171.4182222-.3135171.2214118-.5305674.5658301-.6029175.7872419-.096467.3444184.07235.5412288.2894004.7626406.1447002.1476079.2170503.3198171.096467.5904315-.241167.6150327-1.688169 4.0346149-2.580487 6.1011249-.1205835.270614-.3617505.934849-.3617505 1.205464 0 .836444.5546841 1.180863 1.0611348 1.180863.3135172 0 .7717345-.172209 1.133485-.590432.5305674-.639633.6029175-.959451.6029175-2.140313 0-.147608 0-.344419.096467-.787243.1929336-.836444.9164346-2.460131 1.3505352-3.345777.096467-.17221.1929336-.221413.3376338.0246.3376338.54123 1.447002 2.632341 2.2428531 3.93621.7717344 1.254667.964668 1.771295 1.1093682 1.968105.1929336.270614.6993844.664236 1.2058355.664236.385867 0 .602918-.221412.819968-.516628s.241167-.664236.120583-.861046c-.1447-.221412-.2894-.36902-.2894-.590431 0-.344418 0-.639634.21705-1.50068.554684-2.140314 1.133485-3.665595 2.074037-5.5598961.168816-.3690197.458217-.5412288.723501-.5658301.36175-.024602.554684-.1968105.554684-.4920262 0-.4428236-.265284-1.8204969-1.133486-1.8204969-.289399 0-.602917.1230066-.916434.4428235-.337633.3444153-.723501.9594481-1.350535 2.5339319-.578801 1.353072-1.1093691 2.8045499-1.5917027 4.3052299-.096467.270613-.1447002.319816-.2894004.0492-.2170509-.393616-2.3393205-4.0592112-2.6046042-4.5512374-.1447002-.2706144-.2170503-.5166275-.2170503-.639634 0-.098405.07235-.1968105.1688169-.4182223.1205835-.1722092.1929336-.4428236 0-.7626406-.1929336-.3444184-.4341006-.5904315-.9405513-.5904315z"/><path d="m13.249071 14.866582c0 1.549882 1.085252 2.43553 2.19462 2.43553 2.821655 0 5.836241-2.091112 7.476178-4.231426.313516-.418222.4341-.861046.313516-1.082458-.09646-.172208-.337633-.19681-.5788.0738-2.459903 2.533934-4.67864 3.345777-6.125642 3.345777-.699384 0-1.085252-.369019-1.085252-.910248 0-.344419.07235-.56583.192934-.811843.07235-.172209.1447-.196811.313517-.123007.21705.0984.482334.196811.747618.196811 1.302302 0 2.146386-.639634 2.652837-1.156262.482334-.541228.916435-1.254667.916435-2.140313 0-.9348504-.578801-1.4760792-1.398769-1.5252818-.168817-.024601-.289401-.1230066-.36175-.2214118-.144701-.2952157-.385868-.4920262-.844085-.4920262-1.012902 0-2.26697 1.4760786-2.749304 2.1649148-1.061135 1.549883-1.664053 3.37038-1.664053 4.477439zm3.255755-2.533935c-.313517 0-.36175-.0738-.265284-.36902.289401-.76264 1.085252-1.9681045 1.567586-1.9681045.313517 0 .554684.1968105.554684.5412285 0 .688837-1.109368 1.795896-1.856986 1.795896z"/><path d="m28.274173 8.3226335c-.675269 0-1.664054.7380393-1.664054 1.4514772 0 .4182223.144701.7626403.361751.9348503.168817.123006.1447.295215.09647.442823-.627035 1.525282-1.567586 2.779948-2.604605 3.665595-.313516.246013-.530567.36902-.699384.36902-.241167 0-.337633-.442823-.1447-1.279269.168817-.738038.385867-1.451477.795852-2.214117.409983-.76264.530566-1.13166.506449-1.7220918-.07235-.8118432-.482334-1.4760786-.940551-1.4760786-.964668 0-1.832869 1.5990854-1.953452 2.4847324-.04824.319817.02412.467425.1447.56583.09647.0984.120583.147608.02412.418222-.651151 1.820497-.819968 2.878354-.868202 3.321177-.144699 1.549883.771735 1.992706 1.109369 1.992706.409984 0 .868201-.0738 1.567585-.418223 1.422885-.738039 3.062822-1.8943 4.847457-5.141673.07235-.147607.168817-.221412.361751-.172209.192933.0492.506451.0984 1.181718.0984 1.205835 0 2.19462-.541229 2.725187-1.082457.265284-.270615.241167-.7380396-.192934-.516628-.241167.123007-.940551.19681-1.760518.221412-.723501 0-1.39877-.147608-1.712286-.3444184-.217055-.1476029-.217055-.319812-.241172-.5166225-.072351-.3690196-.337634-1.0824576-.940551-1.0824576z"/><path d="m30.604199 14.866582c0 1.549882 1.085251 2.43553 2.194619 2.43553 2.821654 0 5.836242-2.091112 7.476177-4.231426.313518-.418222.434101-.861046.313518-1.082458-.09647-.172208-.337635-.19681-.578802.0738-2.459903 2.533934-4.67864 3.345777-6.125642 3.345777-.699384 0-1.085251-.369019-1.085251-.910248 0-.344419.07235-.56583.192934-.811843.07235-.172209.144699-.196811.313517-.123007.21705.0984.482334.196811.747618.196811 1.302301 0 2.146386-.639634 2.652837-1.156262.482334-.541228.916434-1.254667.916434-2.140313 0-.9348504-.578801-1.4760792-1.398768-1.5252818-.168818-.024597-.289401-.1230025-.361751-.2214078-.1447-.2952157-.385867-.4920262-.844084-.4920262-1.012902 0-2.26697 1.4760786-2.749304 2.1649148-1.061135 1.549883-1.664052 3.37038-1.664052 4.47744zm3.255753-2.533935c-.313516 0-.36175-.0738-.265282-.36902.289399-.76264 1.085251-1.9681045 1.567585-1.9681045.313517 0 .554684.1968105.554684.5412285 0 .688837-1.109369 1.795896-1.856987 1.795896z"/><path d="m45.659544 8.2734308c-.988785 0-1.784636.7626407-2.508137 1.5990852-.844085.885647-1.688169 2.287922-1.953453 2.681543-.168816.221412-.313517.246013-.265284 0 .120584-.787242.458218-1.918903.723501-2.386327.168817-.295216.361751-.5904317.361751-.8118435 0-.4428236-.361751-.9594511-.819968-.9594511-.337634 0-.771734.2952157-1.085251.5658301-.434101.3690197-.627035.6888367-.771734 1.7958955-.120584 1.254667-.313518 3.247373-.916436 4.846458-.168816.492027-.09646.76264.168818 1.057856.313516.36902.65115.56583 1.037017.56583.385868 0 .747618-.319817.988785-.959451.313517-.762641 1.543469-3.148967 2.749304-4.625046.627035-.811843 1.061135-1.156262 1.326419-1.156262.192933 0 .409984.0984.5788.196811.192934.123007.458217.0246.747618-.319817.241167-.246013.482334-.7380391.554684-1.1316601.09647-.5166275-.385867-.9594511-.916434-.9594511z"/></g><g fill="#f4c401"><path d="m61.102698 8.7900584c0-.2952158-.09646-.8118433-.385866-1.2054642-.675268-.9348498-2.41167-1.6236865-3.279871-1.6236865-.192935 0-.265284-.049203-.409985-.1968105-.530567-.5412287-.988785-.7380391-1.254068-.7380391-.458218 0-.771734.56583-.892318.885647-.07235.1476079-.120583.1968105-.337634.2952157-.699384.2460131-1.567585.6642354-2.122269 1.1562616-.409984.3690196-.337634.6888367-.168817.8610458.192933.2214118.482334.2706144.675267.2706144.168817 0 .771735-.3444183 1.133485-.5412288.265284-.1476078.265284-.049203.144701.319817-.578801 1.8943012-1.639936 5.1908762-2.04992 6.8391642-.120583.270614-.289401.39362-.554684.492026-.651151.270614-.868201.615033-.675268 1.057856.265284.56583.819968.984053 1.61582.984053.337633 0 .699384-.147608.844084-.319817.192933-.221413.50645-.246013.747617-.246013 1.037019 0 1.905219-.270615 2.26697-.541229.434101-.319817.530568-.713438-.02412-.787243-.530568-.0738-1.447002-.147607-1.881103-.270613-.337634-.0984-.434101-.196811-.2894-.590432.337633-1.353072.819967-2.755347 1.326418-4.182222.578801-1.6236869.795851-2.2387197 1.085252-2.902955.09647-.2214118.241167-.2706144.4341-.2706144.578801 0 1.905219.3936209 1.905219 1.4514772 0 1.0086537-1.278184 1.5498822-2.098152 2.1157122-.506451.344419-.964668.688837-1.157602.93485-.144701.172209-.2894.467425-.2894.688837 0 .270614.265283.418222.458217.418222.192933 0 .458217-.0246.747618-.0984.892317-.246013 2.001686-.861045 2.508137-1.230065.916434-.590432 1.977568-1.9189027 1.977568-3.0259616z"/><path d="m60.554433 15.703026c0 .885648.530567 1.599086 1.229951 1.599086 2.218737 0 5.209208-3.124367 5.908592-4.575844.192933-.393621.265284-.762641.168817-.959451-.09647-.17221-.2894-.19681-.50645.0738-1.591703 1.968105-3.424572 3.419582-4.172189 3.419582-.385868 0-.578802-.344418-.192934-1.623685.554684-1.845099 1.615819-5.2154783 3.400455-8.7334655.50645-1.0086537.627034-1.4514773-.168818-2.140314-.120583-.1230065-.265283-.1722091-.4341-.1722091-.192933 0-.409984.098405-.627034.3690196-.361751.4674249-1.205835 2.1895166-2.676954 5.9535169-1.639936 4.1822221-1.929336 6.0765241-1.929336 6.7899611z"/><path d="m71.769347 8.3472348c-.265283 0-1.302302.098405-2.62872 1.2792681-1.012901.9348501-2.025803 2.1403141-2.652837 3.4441831-.771734 1.50068-.916435 2.287922-.916435 2.779948 0 .93485.940552 1.451478 1.229952 1.451478.506451 0 1.012901-.221412 1.664052-.713438.675268-.492026 1.953453-1.67289 2.242853-2.017308.144701-.147608.192934-.147608.21705.0738 0 .270615 0 .492027.04824.861046.09647 1.008654.747618 1.795897 1.639935 1.795897 1.519353 0 3.858672-2.312523 4.919808-4.452838.21705-.467424.337634-.910248.21705-1.13166-.09646-.172209-.337633-.19681-.602917.04921-1.519353 2.140313-3.159288 3.640993-3.713972 3.640993-.361751 0-.602918-.344418-.602918-1.205464 0-1.476078.434101-3.001359 1.061135-4.4528366.07235-.2214128.192929-.5166285-.482338-.9102494-.21705-.1476079-.385867-.098405-.578801.073804-.1447.098405-.265283.098405-.313517-.049203-.144703-.1968132-.409986-.5166302-.74762-.5166302zm-.892317 1.8450982c.313516 0 .50645.295215.5788.516628.07235.246013 0 .56583-.1447.811843-.09647.172209-.482334.861046-.819968 1.254667-.723501.861046-1.061134 1.32847-1.471119 1.672888-.36175.319817-.723501.56583-.916434.56583s-.241167-.344418-.168817-.664235c.1447-.664235.819968-2.041908 1.639936-3.02596.699384-.836446 1.085251-1.131661 1.302302-1.131661z"/><path d="m76.715872 14.497562c-.07235 1.648288.192934 2.361725.627035 2.361725h.168816c.04824 0 .02412.04921-.07235.17221-1.085251 1.32847-1.905219 2.435529-2.484019 3.19817-.771735 1.107059-1.085252 1.574484-1.278186 1.992707-.120584.246013-.337634.442823-.530567.516627-.192934.0738-.554685.246013-1.037019.885647-.313516.418222-.530566.787242-.65115 1.254667-.1447.467424.313517.861045.819968.861045.458217 0 .844084-.147608 1.133484-.590431.289401-.442824.458218-.688837.940552-.910249.50645-.246013 1.856986-.910248 1.881102-1.623685 0-.221413-.1447-.393621-.36175-.467426-.07235-.0984.04824-.270614.265284-.56583.241167-.418222 2.001686-2.533934 4.582173-5.781308 1.109368-1.377673 2.580486-3.960811 3.014588-5.043268.21705-.541228.337633-1.0578562.337633-1.3530719 0-.6396341-.723501-1.2792681-.964668-1.2792681-.337633 0-.530568.1968105-.771735.4674249-.36175.4428236-.554683.7872419-.771734 1.1808628-.21705.3936213-.21705.7380393-.168817 1.0086533.07235.295217.04824.615033-.313517 1.230066-1.302301 2.287921-2.074036 3.124366-2.170503 3.124366-.168817 0-.313517-.295215-.265283-.910248.04824-.811843.313516-2.607739.337633-3.56719.02412-.9840525-.120583-2.4109285-.795851-2.4109285-.554684 0-.988785.6888367-1.278185 1.2054642-.21705.393621-.241167.6642353-.192934.8364443.04824.147608.120584.344418.09647.861046z"/><path d="m84.1575 14.866582c0 1.549882 1.085252 2.43553 2.194619 2.43553 2.821654 0 5.836242-2.091112 7.476177-4.231426.313518-.418222.434101-.861046.313518-1.082458-.09647-.172208-.337635-.19681-.578802.0738-2.459903 2.533934-4.678639 3.345777-6.125641 3.345777-.699385 0-1.085252-.369019-1.085252-.910248 0-.344419.07235-.56583.192934-.811843.07235-.172209.144701-.196811.313517-.123007.21705.0984.482334.196811.747618.196811 1.302302 0 2.146386-.639634 2.652837-1.156262.482334-.541228.916434-1.254667.916434-2.140313 0-.9348504-.5788-1.4760792-1.398768-1.5252818-.168817-.0246005-.289401-.1230056-.361751-.2214108-.1447-.2952157-.385867-.4920262-.844084-.4920262-1.012902 0-2.26697 1.4760786-2.749304 2.1649148-1.061134 1.549883-1.664052 3.37038-1.664052 4.477439zm3.255755-2.533935c-.313518 0-.361751-.0738-.265284-.36902.2894-.76264 1.085251-1.9681045 1.567585-1.9681045.313517 0 .554684.1968105.554684.5412285 0 .688837-1.109368 1.795896-1.856985 1.795896z"/><path d="m97.758122 8.6916531c-1.326419 0-2.62872.5658301-3.931022 2.0173079-1.808752 2.017307-2.41167 3.985412-2.41167 5.043267 0 1.230066.554684 1.599086 1.085252 1.599086.530567 0 1.495235-.319817 2.556369-1.057856.602918-.418223 1.76052-1.451477 2.339321-2.189517.120583-.172209.21705-.147608.192933.0492-.04824.295216-.09647.615033-.120584 1.156262-.04824.861046.361751 1.894301 1.350536 1.894301 1.881103 0 4.292773-2.706144 5.040383-4.280627.21706-.467426.33764-.910249.21706-1.131661-.1447-.246013-.43411-.196811-.7235.221412-.45822.688836-2.72519 3.321177-3.472804 3.321177-.361753 0-.530575-.442824-.458219-1.230066.09644-1.230065.627033-3.714798 1.326423-5.6829023.79584-2.2141179 1.39876-3.3703794 1.7364-4.2068239.24117-.6150328.24117-.9348498-.0964-1.3530721-.38587-.4674248-.62704-.5412288-.89232-.5412288-.16882 0-.33763.098405-.53056.5166275-.28941.6150328-1.374661 3.2473728-2.387561 5.805909-.04824.1476079-.09646.1476079-.21705.1230066-.192933-.049203-.385867-.073804-.602917-.073804zm-.482334 1.4268759c.192933 0 .361751.123006.4341.270614.09647.17221.120584.36902-.02412.688838-.1447.369019-1.205835 2.115711-2.025803 2.952156-.771734.762641-1.350535 1.082458-1.639936 1.082458-.168817 0-.313516-.172209-.313516-.418222 0-.36902.120583-.910249 1.157601-2.386327.916434-1.328471 1.97757-2.189517 2.41167-2.189517z"/></g></g></g></svg>