<svg enable-background="new 0 0 566.929 129.21" height="150.6516" viewBox="0 0 467.13286 120.52128" width="583.91608" xmlns="http://www.w3.org/2000/svg"><g transform="matrix(.10252157 0 0 .10252157 149.66656 -3.581866)"><path d="m-1156.4036 289.56797h4063.9306c120.4937 0 209.376 89.0658 185.0151 179.98179l-87.6189 319.44057c-21.9526 80.0343-110.3027 149.80211-193.2931 149.80211h-4118.2943c-82.9904 0-171.7547-69.76781-149.8022-149.80211l95.897-349.62025c18.7065-68.20003 90.9733-149.80211 204.1658-149.80211z" fill="#2285c8"/><path d="m-609.38278 34.937686h1493.88306c152.46092 0 301.30582 161.678464 251.82042 342.091594l-114.9204 418.97603c-78.54241 293.12439-276.22837 409.51379-433.47633 414.50229h-1483.77896c-150.27311 0-311.00111-126.3307-271.25111-271.25118l169.81586-619.11333c41.77631-155.91104 253.84899-280.673069 387.90746-285.205404z" fill="#050608"/><g stroke="none" stroke-width="24.3851"><g fill="#ed1e24" transform="matrix(1.0012556 0 -.2682856 .99874601 0 0)"><path d="m-500.41451 1076.7885h-289.22125l176.53764-658.57311h-62.602l87.6428-242.89577h446.9783l254.16413 901.46888h-297.98553l-25.0408-125.20405h-254.16413zm93.903-363.09166h140.22848l-71.36628-266.68453z"/><path d="m139.378 445.76027h-62.601997l62.601997-270.44065h280.45697v621.01186h189.05805l-63.85404 280.45702h-405.66098z"/><path d="m645.20131 445.76027h-62.602l62.602-270.44065h280.45697v621.01186h189.05802l-63.854 280.45702h-405.66099z"/></g><g fill="#fff" transform="matrix(1.0030514 0 -.25222563 .99695792 0 0)"><path d="m1486.2666 443.2798q17.6234-6.85356 34.7573-10.28034 17.1339-3.42678 32.3096-3.42678 31.8201 0 56.2971 13.70712l6.8536-6.36402 76.8578 40.63182-78.816 83.71134-5.8744-3.42678-9.3013-4.40586q-14.1967-6.36402-21.5398-7.83264-7.3431-1.46862-13.2175-1.95816-5.8745-.48954-11.2595-.48954-46.0167 0-57.2761 23.49792-10.7699 23.00838-12.2385 27.41424-1.4687 4.40586-1.4687 12.2385-.4895 3.91632-.4895 10.76988 0 28.39332 17.6234 46.01676 17.6235 17.1339 33.2888 21.05022 15.6652 3.42678 26.4351 3.42678 19.5816 0 28.8829-6.85356 9.3012-6.85356 12.2385-10.28034 3.4268-3.42678 7.3431-8.32218h-56.7867l23.9875-91.05444h163.9959l.4895 6.85356.4896 8.32218q0 28.88286-6.8536 59.23434-6.364 30.35148-17.1339 52.38078-10.2803 21.53976-28.3933 40.14228-18.113 18.11298-37.205 30.84102-18.6026 12.2385-41.6109 19.5816-22.5189 7.3431-47.975 7.3431-11.7489 0-38.6736-2.93724-26.9247-2.4477-50.4226-15.66528-23.0084-13.21758-34.2678-22.51884-11.2595-9.30126-28.8829-29.86194-17.1339-21.05022-27.4142-48.954-10.2804-28.39332-10.2804-66.0879 0-51.89124 18.113-79.30548 18.113-27.90378 31.8201-42.10044 14.1967-14.6862 30.841-25.94562 16.6444-11.74896 34.7574-19.09206z"/><path d="m1849.5051 789.38458h-113.0838l69.0252-257.49804h-24.477l34.2678-94.97076h174.7657l99.3767 352.4688h-116.5106l-9.7908-48.954h-99.3766zm36.7155-141.9666h54.8284l-27.9037-104.27202z"/><path d="m2099.66 544.61458h-24.477l24.477-107.6988h110.6361l63.6402 74.41008 58.7448-74.41008h107.6988v352.4688h-102.3139v-196.30554l-62.6611 75.8787-66.0879-70.49376v190.9206h-109.657z"/><path d="m2479.0534 543.6355h-24.477l24.477-106.71972h145.8829l4.4059-14.19666h97.908l-27.9038 123.85362h-110.636v20.07114h128.749l-23.4979 91.05444h-105.2511v21.53976h126.7908l-25.9456 110.1465h-210.5022z"/><path d="m2793.8272 783.99964q-27.4143-8.32218-52.3808-22.0293l27.9038-101.82432 16.1548 7.3431q27.9038 12.2385 44.5481 18.11298 17.1339 5.38494 24.9666 5.38494 2.9372.48954 4.8954.48954 1.9581 0 2.4477 0 7.8326 0 15.6653-3.42678 7.8326-3.91632 7.8326-13.70712 0-3.42678-2.9372-7.83264-2.4477-4.40586-6.8536-6.36402l-1.9582-.97908-17.6234-6.85356-42.59-16.15482q-37.205-14.19666-54.3389-38.67366-16.6444-24.96654-16.6444-64.12974 0-25.94562 10.2804-46.01676 10.7698-20.07114 28.3933-33.28872 18.113-13.21758 35.2469-18.11298 17.1339-5.38494 44.5481-5.38494 9.3013 0 19.5816.48954 10.2803.48954 20.5607 1.95816l3.4268-11.74896 92.523 18.11298-31.3305 112.10466q-21.5398-13.21758-45.5273-19.5816-23.4979-6.85356-35.2468-6.85356-6.3641 0-12.7281 1.95816-5.8745 1.95816-8.8117 5.87448-2.9372 3.91632-2.9372 8.81172 0 3.91632 2.4477 7.3431 2.9372 3.42678 7.3431 4.8954l50.4226 18.11298 16.6443 6.85356q64.1298 33.77826 64.1298 97.41846 0 8.32218-2.9373 26.9247-2.9372 18.11298-18.1129 38.67366-14.6862 20.56068-29.3724 30.84102-14.6862 10.28034-34.7574 16.64436-20.0711 6.85356-55.8075 6.85356-13.7072 0-27.9038-2.4477-14.1967-2.4477-39.1632-9.7908z"/></g></g></g></svg>