<svg enable-background="new 0 0 566.929 129.21" height="150.6516" viewBox="0 0 577.13281 120.52128" width="721.41602" xmlns="http://www.w3.org/2000/svg"><g transform="matrix(.10252157 0 0 .10252157 149.66656 -3.581866)"><path d="m-1156.4036 289.56797h5136.8755c120.4937 0 209.376 89.0658 185.0151 179.98179l-87.6189 319.44057c-21.9525 80.03433-110.3027 149.80211-193.2931 149.80211h-5191.2392c-82.9904 0-171.7547-69.76781-149.8022-149.80211l95.897-349.62025c18.7065-68.20003 90.9733-149.80211 204.1658-149.80211z" fill="#2285c8"/><path d="m-609.38278 34.937686h2235.19048c152.4609 0 301.3058 161.678464 251.8204 342.091594l-114.9204 418.97603c-78.5424 293.12439-276.2284 409.51379-433.4763 414.50229h-2225.08639c-150.27311 0-311.00111-126.3307-271.25111-271.25118l169.81586-619.11333c41.77631-155.91104 253.84899-280.673069 387.90746-285.205404z" fill="#050608"/><g fill="#ed1e24" stroke="none" stroke-width="24.3851" transform="matrix(1.0012556 0 -.2682856 .99874598 0 0)"><path d="m-703.81912 467.32681h-141.306l53.525-228.0165h307.2335l6.423-31.0445h217.3115l-62.089 262.2725h-141.306v539.53199h-238.7215z"/><path d="m-229.58801 467.32681h-53.525l53.525-228.0165h239.792003v480.6545q0 26.7625 19.269 44.961 19.269 18.1985 52.4545 18.1985 35.326497 0 57.806997-20.3395 22.4805-20.3395 22.4805-55.666v-467.8085h238.7215v496.712q0 19.269-3.2115 40.679-3.2115 21.41-36.397 124.178-32.115 101.69749-144.5175 112.40249-112.4025 11.7755-135.953497 11.7755-108.1205 0-186.267003-50.31349-77.076-50.3135-96.345-105.9795-19.269-55.666-23.551-79.217-4.282-23.551-4.282-38.538z"/><path d="m565.79269 467.32681h-141.306l53.525-228.0165h307.2335l6.423-31.0445h217.31151l-62.08901 262.2725h-141.306v539.53199h-238.7215z"/><path d="m1120.3112 467.32681h-141.30595l53.52495-228.0165h307.2335l6.423-31.0445h217.3115l-62.089 262.2725h-141.306v539.53199h-238.7215z"/><path d="m1594.5423 467.32681h-53.525l55.666-228.0165h236.5805v770.75999h-238.7215z"/></g><g fill="#fff" stroke="none" stroke-width="24.3851" transform="matrix(1.0030514 0 -.25222563 .99695789 0 0)"><path d="m2143.9218 541.1878h-24.477l25.4561-104.27202h108.1883v352.4688h-109.1674z"/><path d="m2476.2291 443.2798q17.6235-6.85356 34.7574-10.28034 17.1339-3.42678 32.3096-3.42678 31.8201 0 56.2971 13.70712l6.8536-6.36402 76.8577 40.63182-78.8159 83.71134-5.8745-3.42678-9.3012-4.40586q-14.1967-6.36402-21.5398-7.83264-7.3431-1.46862-13.2176-1.95816-5.8745-.48954-11.2594-.48954-46.0168 0-57.2762 23.49792-10.7699 23.00838-12.2385 27.41424-1.4686 4.40586-1.4686 12.2385-.4895 3.91632-.4895 10.76988 0 28.39332 17.6234 46.01676 17.6234 17.1339 33.2887 21.05022 15.6653 3.42678 26.4352 3.42678 19.5816 0 28.8828-6.85356 9.3013-6.85356 12.2385-10.28034 3.4268-3.42678 7.3431-8.32218h-56.7866l23.9875-91.05444h163.9959l.4895 6.85356.4895 8.32218q0 28.88286-6.8535 59.23434-6.364 30.35148-17.1339 52.38078-10.2804 21.53976-28.3933 40.14228-18.113 18.11298-37.2051 30.84102-18.6025 12.2385-41.6109 19.5816-22.5188 7.3431-47.9749 7.3431-11.749 0-38.6737-2.93724-26.9247-2.4477-50.4226-15.66528-23.0084-13.21758-34.2678-22.51884-11.2594-9.30126-28.8829-29.86194-17.1339-21.05022-27.4142-48.954-10.2803-28.39332-10.2803-66.0879 0-51.89124 18.1129-79.30548 18.113-27.90378 31.8201-42.10044 14.1967-14.6862 30.8411-25.94562 16.6443-11.74896 34.7573-19.09206z"/><path d="m2758.204 541.1878h-24.477l25.4561-104.27202h108.1883v352.4688h-109.1674z"/><path d="m2893.8066 636.15856q-.9791-7.3431-1.4687-15.17574-.4895-7.83264-.4895-22.51884 0-12.2385 2.9372-24.96654 3.4268-12.72804 13.7072-39.65274 10.7698-26.9247 41.1213-52.87032 30.3515-26.43516 55.8076-36.7155 25.4561-10.76988 59.7239-13.70712 4.4058 0 8.8117 0 4.4058 0 8.8117-.48954 6.8536 0 10.2803.48954 23.9875 0 44.0586 6.85356 20.0712 6.36402 43.5691 21.05022 23.9875 14.19666 37.6946 30.35148 13.7071 15.66528 22.5188 29.3724 9.3013 13.70712 15.6653 31.8201 6.364 18.11298 8.8117 37.20504 2.4477 18.60252 2.4477 30.35148 0 32.79918-13.2176 62.66112-12.728 29.86194-26.4351 46.99584-13.2176 16.64436-30.841 29.3724-17.1339 12.72804-31.3306 19.5816-14.1967 6.85356-30.3515 11.74896-15.6653 4.40586-33.7782 5.87448-18.113 1.46862-35.2469 1.46862l-25.4561-3.42678q-30.3515-5.87448-52.3808-17.1339-21.5397-11.74896-44.0586-34.2678-22.0293-22.51884-34.2678-46.99584-12.2385-24.96654-16.6443-57.27618zm114.5523-16.64436q2.4477 23.98746 18.6025 41.12136 16.6444 17.1339 30.3515 19.5816 14.1967 2.4477 17.1339 2.4477 2.9373 0 6.364 0 2.9373 0 5.8745 0 3.9163-.97908 23.9875-3.91632 20.0711-3.42678 28.3933-24.477 8.8117-21.05022 9.7908-25.94562 1.4686-4.8954 1.4686-10.76988 0-28.88286-15.6653-49.44354-15.6652-20.56068-31.8201-23.00838-15.6652-2.93724-22.5188-2.93724-10.2803 0-18.6025 1.95816-7.8327 1.95816-18.113 7.83264-9.7908 5.38494-23.0084 19.5816-12.728 14.19666-12.728 39.65274 0 5.38494.4895 8.32218z"/><path d="m3485.1706 431.53084 12.2385 1.95816 6.8536-12.2385 88.6067 33.77826-51.4017 114.55236-14.1966-10.76988q-32.3097-21.05022-57.2762-21.05022-9.7908 0-23.9875 4.40586-13.7071 3.91632-31.8201 22.0293-18.113 17.62344-18.113 45.03768 0 10.28034 7.3431 33.28872 7.3431 23.00838 30.8411 31.8201 23.4979 8.81172 34.7573 8.81172 30.3515 0 63.1507-27.90378l7.8326-7.3431 48.4645 100.84524q-20.0712 18.60252-46.5063 29.86194-25.9456 11.25942-44.5482 13.21758-18.113 1.95816-22.0293 1.95816-3.9163.48954-6.8535.48954-30.8411 0-57.7658-9.7908-26.4351-9.7908-43.569-20.07114-17.1339-10.76988-35.2469-28.39332-17.6234-18.11298-28.3933-36.7155-10.2804-18.60252-16.1548-43.07952-5.8745-24.477-5.8745-44.54814 0-16.64436 4.8954-39.65274 4.8954-23.49792 21.5397-54.82848 16.6444-31.8201 38.6737-46.5063 22.5188-15.17574 30.3515-19.5816 8.3222-4.40586 20.5607-9.30126 12.2385-5.38494 27.4142-8.32218 15.6653-3.42678 33.2887-3.42678 12.2385 0 26.9247 1.46862z"/><path d="m3620.7731 540.69826h-24.477l24.477-103.78248h109.657v117.4896h78.3264v-117.4896h109.1674v352.4688h-109.1674v-122.87454h-78.3264v122.87454h-109.657z"/><path d="m3956.5979 541.1878h-24.477l25.4561-104.27202h108.1883v352.4688h-109.1674z"/></g><text fill="#ef00eb" font-family="TrasksHand" font-size="15.6065" stroke="#0105ff" stroke-width="19.5081" x="-1296.7644" y="960.35614"><tspan fill="#fafafa" fill-opacity=".4" font-size="15.6065" stroke="none" stroke-width="19.5081" x="-1296.7644" y="960.35614">John Loreth 2022</tspan></text></g></svg>