<svg height="150.37257pt" viewBox="0 0 791.55652 165.40983" width="719.5968pt" xmlns="http://www.w3.org/2000/svg"><g transform="translate(-127.28169 -57.064612)"><text fill="#ef00eb" font-family="TrasksHand" font-size="1.5" stroke="#0105ff" stroke-width="1.875" transform="matrix(.75016977 -.66124528 .66124528 .75016977 0 0)" x="366.26724" y="505.17114"><tspan fill="#fafafa" fill-opacity=".4" font-size="1.5" stroke="none" stroke-width="1.875" x="366.26724" y="505.17114">John Loreth 2022</tspan></text><path d="m810.10742 57.080078c-3.92339.07283-7.25059 2.990272-8.83984 6.423828-4.24207 9.114753-7.96299 18.458045-11.83311 27.733336-1.08303 2.615539-2.14464 5.239465-3.21572 7.860414-7.99303-.321432-15.95236 2.318304-22.49455 6.848854-6.83033 4.69071-12.36707 11.0279-17.06552 17.79827-1.24703 1.75648-2.32553 3.63122-3.52444 5.41384-3.54878 4.20318-7.22928 8.3438-11.51901 11.81208.0243-1.7944.21488-3.65593.44152-5.33011.95498-7.27864 3.45142-14.24976 6.35145-20.957 1.22144-3.2064.82422-7.06006-1.38087-9.75188-1.84426-2.28402-4.35835-4.03077-7.10692-5.044293-1.48129-.518101-3.11122-.580419-4.62939-.190151-2.6277-2.265153-6.26053-3.413138-9.69778-2.728382-7.21617.940893-13.71256 4.775916-19.17801 9.419876-4.83827 4.17034-9.12874 8.95057-13.02525 14.00235-1.74251 2.32335-3.34744 4.75024-4.81381 7.25733.11748-.71829.20723-1.44264.1836-2.17188 4.04646-3.82429 6.37607-9.69579 5.18773-15.23951-1.20298-6.59409-6.71173-12.196297-13.34222-13.345829-5.54017-1.151087-11.20394.321887-16.40096 2.228508-6.33917 2.425301-11.95226 6.372531-17.25737 10.537861-5.55436 4.46042-10.46809 9.71191-14.5838 15.52276-4.45645 4.50626-8.93318 8.9368-14.03037 12.75099-.30225.12904-1.24148 1.18028-.93863.36194 1.5699-6.68985 3.88303-13.21716 7.03944-19.32648 1.54522-2.99528 3.50699-6.31238 3.17383-9.90039-.36758-6.858-6.54981-12.961144-13.47732-12.913326-4.08922-.0177-7.70607 2.555349-10.11472 5.689766-3.38787 4.55502-6.06664 9.58011-9.28882 14.24699.97848-2.40896 1.36045-5.17316.39542-7.65116-1.44851-4.16891-5.07222-7.21356-8.97355-9.036412-3.74296-1.695789-8.33898-1.828048-11.92382.343826-3.2186 1.820186-5.45246 4.945686-6.96376 8.251856-3.33359 6.34968-6.19875 12.93986-8.70616 19.65635 1.79605-6.56476 3.57652-13.13453 5.49425-19.66466.84246-2.58413 1.60684-5.23067 2.90759-7.62923 1.01314-1.766596 2.6539-3.12205 3.36153-5.072802 1.61076-3.685012 1.14763-8.208676-1.32938-11.405412-2.84133-3.84998-7.54959-6.001658-12.23087-6.481805-3.18756-.375712-6.441.576313-9.01944 2.461313-1.03994.698281-1.93041 1.597701-2.83798 2.44103-1.20583.269358-2.44879.387534-3.65998.659788-3.82977.735971-7.82862 2.248335-10.19549 5.515994-2.57917 3.646984-2.385 8.976797.50391 12.398434 1.27677 1.67449 2.94429 3.0337 4.79687 4.02539-5.30622 18.92128-10.4278 37.94167-17.47878 56.3075-1.44018 3.52331-2.94622 7.1741-5.63468 9.94649-.55805.44246-1.08323.95732-1.75177 1.23039-1.73502-.69244-3.33312-1.72019-5.16453-2.16759-3.81061-1.36582-8.13867-2.10823-12.01236-.55172-3.98129 1.42732-7.53412 4.77949-8.23563 9.07638-.63084 4.38806 1.49767 8.69556 4.40861 11.85387 2.61576 2.66884 6.23807 3.94507 9.68448 5.16048 3.8729 1.2924 8.13276 1.7271 12.09132.54618 4.40022-1.12875 8.71898-2.6614 12.76364-4.73887 4.97092-2.68268 9.47418-6.28303 13.09213-10.62756 3.95421-4.75087 6.55072-10.43439 8.90979-16.09808 1.88114-4.66069 3.49076-9.42596 5.01724-14.21286-.23336 5.91821 2.13523 12.14623 6.98437 15.73633 2.77094 2.05028 6.43106 2.5552 9.75483 1.85379 5.49338-.9731 10.12444-4.32349 14.49344-7.59173 2.28526-1.70022 4.50706-3.48485 6.68142-5.32456.36762 4.41534 2.28054 8.94057 6.0262 11.51165 2.58338 1.83904 5.86712 2.45666 8.98138 2.05887 3.84378-.42398 7.52622-1.75759 11.05846-3.27805 2.94422-1.3296 5.75659-2.94048 8.43396-4.74559 2.04086 3.89672 5.74513 7.23605 10.25 7.73437 3.83508.38164 7.59057-.88419 11.11779-2.24528 3.23801-1.30946 6.32625-2.96705 9.28065-4.82503-2.10944 8.32519-4.50281 16.72009-8.94184 24.14595-2.3237 3.88251-5.12591 7.53047-8.54806 10.50869-1.82064 1.45665-3.90972 2.89171-6.30575 3.04532-1.38648-.0208-2.43627-1.10512-3.5213-1.83592-3.34016-2.71601-7.27825-5.17307-11.71508-5.25467-4.22431-.0371-8.10952 2.16508-11.23991 4.83471-3.03015 2.64062-5.44757 6.41643-5.28861 10.56568.097 3.39969 1.96249 6.54039 4.56463 8.65119 3.19735 2.68406 7.26577 4.22712 11.38068 4.7453 1.88373.12086 3.79694.14385 5.60434.75397 3.17542.74295 6.47527.92314 9.72421.73129 4.09855-.37386 7.99065-1.86527 11.77277-3.40499 7.35469-3.11426 14.09377-7.75892 19.38358-13.76569 6.18469-6.9406 10.76309-15.21065 14.01216-23.89144 2.49219-6.72471 4.06834-13.73448 5.77443-20.68681 2.38053 3.95213 6.31244 7.09411 10.85937 8.09765 3.13925.61159 6.38642-.13734 9.31335-1.29219 5.50968-2.29579 10.08691-6.2532 14.5823-10.08313.35933-.28728.77487-.87865.86497-.12005 1.9476 5.09903 6.10164 9.48055 11.41126 11.0403 3.83167 1.16828 7.98087.74959 11.70657-.60181 2.98976-1.04598 5.76042-2.62855 8.3735-4.4021 2.16439 3.39314 5.93436 5.76592 9.98869 5.95225 4.69109.34564 9.21673-1.36462 13.45242-3.1831 5.55939-2.51451 10.57527-6.08531 15.17804-10.06212 1.29218 4.88801 4.61895 9.47818 9.45229 11.3178 4.22367 1.65141 8.95391 1.11014 13.14969-.34243 4.35613-1.46639 8.31891-3.90437 11.9527-6.68631 2.65063 4.74678 7.4926 8.51768 13.02872 8.93499 3.9368.32289 7.88935-.35126 11.69589-1.31389 7.76524-2.13253 14.76467-6.56127 20.51953-12.13672-.77078 3.23248.0908 6.82038 2.38199 9.254 3.13773 3.59274 7.85099 5.37111 12.46659 6.06157 4.03327.53578 8.14191-.33083 11.81235-2.01676 4.24006-1.81615 8.28322-4.10187 12.04422-6.76935 3.4271-2.68978 5.80731-6.60219 6.94524-10.78142.69479-2.63385.61018-5.42561-.11521-8.04305-1.24736-5.23953-4.40471-9.72242-7.59285-13.95874-.95767-1.39828-2.05315-2.83775-2.53022-4.45328 2.61271-1.78948 5.78018-2.48222 8.83548-3.09702 2.77623-.49968 5.61445-.36355 8.39802-.74432 4.3353-.8314 8.19513-4.41099 8.74841-8.88572.82986-4.84984-1.61412-10.01887-5.83152-12.530756-4.85515-3.189588-10.99315-3.714953-16.60391-2.740558-7.78421 1.290286-15.20369 4.899264-20.8791 10.403904-2.01174 1.91513-3.83774 4.03288-5.37246 6.35033-1.53585-3.77947-4.04551-7.22894-7.43554-9.54493-.52996-3.93379-3.10259-7.644254-6.86565-9.092671-4.28065-1.789905-9.32394-1.451753-13.46056.573955-1.9697 1.009146-3.68771 2.437336-5.28317 3.95622-1.52627.05977-3.03537.364026-4.41609 1.032066-4.12978 1.85632-7.25696 5.88031-7.95904 10.35966-.11527.98303-.17525 2.0584-.9396 2.78477-2.54829 3.45433-5.01113 6.98038-7.07653 10.74888-1.16122 2.18729-2.97926 3.90483-4.54638 5.79243-2.71712 3.1-5.56706 6.09082-8.64439 8.83688.88822-6.66424 2.37272-13.32691 4.08984-19.76562 2.28879-8.60963 5.31382-17.00695 8.80898-25.197039 2.11794-5.076893 4.46992-10.050161 6.6753-15.087612 1.24659-3.007733 2.28596-6.27964 1.71104-9.568868-.43938-3.252552-2.42951-6.01612-4.67034-8.304316-2.56325-2.641647-6.12171-4.46964-9.87068-4.265997zm-592.91015 20.365234c-5.10463.182529-9.66469 3.353181-12.62432 7.362782-4.63786 6.317913-7.30763 13.785022-10.42532 20.866636-1.84574 4.40064-3.59196 8.84298-5.24529 13.31941-4.03958-6.79863-8.14012-13.53293-12.00195-20.363281 1.48939-2.597194 2.11115-5.798224 1.12222-8.684245-1.16242-3.809011-3.91111-7.218251-7.56753-8.874348-5.65723-2.547129-13.01523-.938349-16.78711 4.080078-.92739 1.17409-1.71962 2.47909-2.17188 3.912109-2.88251 2.125145-5.27931 5.060903-6.37684 8.501714-1.02221 3.048673-.46175 6.523593 1.41786 9.125243.16998.44258.92772.78764.53164 1.28552-5.76472 13.49314-11.8115 26.86448-17.64423 40.32707-1.48768 3.73-2.74727 7.8241-1.83339 11.85797.92203 4.68342 4.37906 8.86193 8.98144 10.30105 5.09269 1.71191 10.89648.21574 14.94129-3.20068 3.51236-2.87984 6.25315-6.8259 7.37103-11.25408.92459-3.68393.59306-7.51417.91665-11.261.7202-4.71585 2.90937-9.01647 4.71161-13.38228.27586-.1918.62298.95774.92737 1.30301 3.95679 6.85149 7.97008 13.67129 12.19411 20.36248 1.602 2.68889 3.12778 5.67058 4.79359 8.42836 2.36918 3.70492 6.26754 6.35076 10.50304 7.45693 3.85437 1.11492 8.2073.3157 11.35573-2.18869.97802-.75947 1.77183-1.67804 2.56457-2.60988 2.39121 2.94578 6.07369 4.99968 9.9375 4.79297 5.38543-.12608 10.31465-2.76058 14.59604-5.8315 3.40406-2.38036 6.7041-4.90933 9.88834-7.57671.34131 4.38111 2.17203 8.86571 5.8083 11.51535 2.63284 1.96309 6.03219 2.68085 9.26374 2.28391 3.74544-.3901 7.34763-1.63797 10.8102-3.06725 2.57901-1.10608 5.05915-2.43457 7.44393-3.91169 2.50321 3.00272 6.41587 5.00481 10.38249 4.52905 3.62169-.36238 6.65726-2.85267 8.61707-5.79632 1.21166-1.70191 2.28538-3.46101 3.47575-5.1003 2.81438-3.98715 5.71994-7.9128 8.79813-11.70079-.73345 6.0505-.33696 12.48002 2.5298 17.96587 2.41453 4.67996 7.0063 8.30873 12.28038 9.04924 5.63333.87673 11.33202-.83809 16.31475-3.38897 4.25291-2.19794 8.09515-5.12859 11.56257-8.41521 2.54765 4.31829 6.79625 7.56538 11.62336 8.91377 6.4652 1.89908 13.37662.92423 19.72039-.97627 5.88884-1.79446 11.42967-4.59695 16.59765-7.91796 2.18096 4.74156 6.59885 8.43091 11.67392 9.6677 3.81241.76489 7.72077-.39318 11.16386-1.99527 5.23052-2.52052 9.62365-6.39868 14.04968-10.08653.23752.27052.38367.95485.61753 1.38116 2.14826 4.99956 6.52699 9.12754 11.87329 10.43085 4.34488 1.16231 8.95247.25077 13.01439-1.47863 5.0279-2.1662 9.46786-5.48931 13.55241-9.09192 6.34059-5.68773 11.74605-12.41341 16.01118-19.78225 1.8777-3.40387 3.61523-7.09159 3.71757-11.04707.0516-3.13867-1.42308-6.41906-4.25726-7.95571-2.94804-1.73049-6.80472-1.38882-9.59494.50158-2.62572 1.72291-4.1179 4.59281-6.13139 6.91577-4.23475 5.26459-8.80803 10.30686-14.06133 14.57742.046-3.56936.62933-7.26304 1.38476-10.64843 1.24267-5.35763 3.18177-10.52596 5.37697-15.55819 1.08844-2.57981 1.25805-5.61191.0176-8.17228-1.44817-3.08674-4.33017-5.2189-7.33008-6.66406-1.82581-.801529-3.90484-1.073305-5.85352-.599614-2.5758-2.190354-6.10282-3.370861-9.4707-2.765625-.40473.03992-1.14758.144469-1.68625.250728-6.93427 1.250667-13.15412 5.013231-18.4598 9.523961-4.64876 4.0073-8.82649 8.54825-12.61295 13.37188-1.28516 1.68821-2.45026 3.49604-4.10354 4.8584-4.566 4.29574-9.28948 8.45191-14.4441 12.03409-.913.62607-2.02986 1.39016-3.06103 2.01527-1.55486.96649-3.31705 1.99865-4.84131 2.75036-2.69473 1.34253-5.5989 2.36517-8.6211 2.56641-.64041-1.38185-.23681-2.96938-.0873-4.41818.98313-6.15978 4.07339-11.8268 8.11658-16.51347 1.90679 2.42226 5.06053 3.5496 8.0824 3.42524 4.7262-.15212 9.16009-2.79306 12.0502-6.45517 3.12798-3.98091 4.46377-9.63118 2.49651-14.42265-1.94989-4.7989-6.72607-8.092584-11.78275-8.819332-6.14526-1.029435-12.38701.714072-17.93116 3.304322-7.82997 3.69966-14.66006 9.44645-19.8 16.40209-2.34478 3.1877-4.23498 6.68756-5.95922 10.23378-5.5351 6.16782-11.12379 12.37783-17.69989 17.46588-.19366-.0567.14732-1.00387.17729-1.38015.28275-1.35582.72716-2.86079 1.04631-4.08604 2.35615-8.10699 5.28156-16.09446 9.3577-23.50666 1.92393-3.68647 2.89649-8.19691 1.29269-12.17888-1.89573-4.975844-6.90138-8.507999-12.20175-8.768373-3.61538-.254872-7.33683 1.362486-9.46427 4.328916-.82051 1.006037-1.30166 2.336657-2.54962 2.916307-1.91827 1.12692-3.6752 2.49187-5.48944 3.77315-1.3647-5.64065-5.90786-10.637344-11.70004-11.792797-5.50242-1.034152-11.24436 1.653205-14.60186 6.004129-3.43852 4.279308-5.08153 9.610988-6.89761 14.703918-2.18426 6.43166-4.0192 12.97635-5.70088 19.55545-2.0403 1.74445-4.10502 3.46821-6.31055 5.00195.52554-2.36446 1.26296-4.91009 1.98047-7.17187 1.65903-5.35104 3.99964-10.4613 6.67538-15.3742 1.41222-2.60188 2.33793-5.60377 1.80575-8.58072-.97352-6.59104-7.22304-12.090127-13.95425-11.791637-4.19168.188098-7.80508 2.963432-10.18206 6.259067-2.9287 3.9158-5.26176 8.23167-8.05101 12.24303-.53214.81116-1.07812 1.61296-1.62194 2.41633 1.15863-2.56903 1.86587-5.54631.89774-8.29398-1.36095-4.26676-5.0187-7.39266-8.95803-9.263846-1.7696-.802666-3.68551-1.309552-5.63111-1.389437.63433-3.29276-.13078-6.671513-1.11941-9.815484-1.34602-4.2121-4.0807-8.270469-8.25364-10.069282-1.65038-.71262-3.46259-1.055474-5.25976-.980469zm626.69726 53.691408c-1.32535 3.27833-2.91748 6.45893-4.88672 9.40039.50933-1.41767 1.10548-2.78137 1.70281-4.07357 1.13226-2.39351 2.412-4.71681 3.79133-6.97721-.20247.55013-.40494 1.10026-.60742 1.65039zm26.06641 8.5293c.75503 1.32626 1.54056 2.63526 2.37695 3.9121-2.5085.0536-4.82037 1.17956-6.88086 2.5254 1.56539-2.33091 2.91074-4.81131 3.98047-7.40821.17448.32357.34896.64714.52344.97071z" fill="#333" stroke-width="1.875"/><g fill="#f4c401"><g><path d="m444.23776 103.56806c-1.81915 0-8.93035.65102-18.02608 8.46319-6.94583 6.18464-13.89165 14.15957-18.19145 22.78551-5.29206 9.92797-6.28432 15.13609-6.28432 18.39116 0 6.18464 6.4497 9.60247 8.43422 9.60247 3.47291 0 6.94582-1.46479 11.411-4.71986 4.63055-3.25507 13.39552-11.06725 15.38005-13.3458.99226-.97652 1.32301-.97652 1.48839.48826 0 1.79029 0 3.25508.33075 5.69638.66151 6.6729 5.12668 11.88102 11.24563 11.88102 10.41874 0 26.46029-15.29885 33.73687-29.45841 1.48839-3.09232 2.31528-6.02189 1.48839-7.48667-.6615-1.13928-2.31527-1.30203-4.13442.32551-10.41874 14.15956-21.66436 24.08754-25.46803 24.08754-2.48065 0-4.13442-2.27855-4.13442-7.97493 0-9.76522 2.97678-19.85595 7.27658-29.45841.49613-1.46478 1.32301-3.41783-3.30754-6.02189-1.48839-.97652-2.64603-.65101-3.96904.48827-.99226.65101-1.81915.65101-2.1499-.32551-.99226-1.30203-2.81141-3.41783-5.12668-3.41783zm-6.11895 12.20652c2.1499 0 3.47292 1.95305 3.96905 3.41783.49613 1.62754 0 3.74333-.99226 5.37087-.66151 1.13928-3.30754 5.69638-5.62282 8.30044-4.9613 5.69637-7.27658 8.78869-10.08798 11.06724-2.48066 2.1158-4.96131 3.74334-6.28432 3.74334-1.32302 0-1.65377-2.27855-1.15764-4.39435.99226-4.39435 5.62281-13.50855 11.24562-20.0187 4.79593-5.53362 7.44196-7.48667 8.93035-7.48667z" stroke-width="1.875"/><path d="m300.03226 100.36781c-2.95886 0-6.73963 1.64257-9.53411 7.72007-2.79448 5.74899-7.8903 21.68189-11.99984 40.89993-.8219 3.28514-.65752 6.89878.49315 8.21284 1.31505 1.80682 2.79448 3.12088 4.93144 3.12088.98629 0 2.6301-.49277 4.43829-3.28514 7.39716-11.16946 15.61622-21.68189 25.15034-31.04452 2.46572-2.2996 3.28762-2.95663 3.78077-2.2996.32876.49277 0 1.64257-.65753 3.44939-.98629 2.79237-2.13695 7.06305-3.45201 13.3048-3.45201 15.9329 2.13696 24.47426 10.35602 24.47426 8.38345 0 22.19148-6.89879 35.83512-30.38751 2.63011-4.10641 2.79449-6.89877 1.97258-8.04858-.65753-.82128-1.97258-.49276-2.79448.49278-9.86288 11.66223-23.83529 26.44533-29.75301 26.44533-2.63011 0-5.26021-3.28513-2.79448-13.14054 1.64381-6.57027 4.76705-15.44013 7.39715-21.18912 1.47943-3.28513 3.12324-6.0775 3.78077-7.55581 1.15067-3.12088 1.47943-5.42047-1.47943-8.3771-1.31506-1.14979-3.12324-1.80681-5.09582-1.80681-1.64381 0-2.79449.98553-3.78077 2.46384-.8219 1.64257-1.97258 2.62811-2.6301 3.12088-1.47943.82129-2.79449 1.64257-7.23278 4.9277-5.2602 3.61365-15.12308 13.14054-18.08194 16.42568-1.47943 1.97108-2.63009 1.31405-1.97257-.49277.98629-2.79237 2.46572-8.70561 4.60267-12.31926 1.47944-2.6281 2.95887-4.27067 4.4383-4.27067.98628 0 1.97258-.98554 1.97258-2.13534 0-3.44939-3.28763-8.70561-7.89031-8.70561z" stroke-width="2.06249"/><g stroke-width="1.875"><path d="m389.81425 103.56806c-8.76497 0-19.18371 6.18464-25.96417 13.67131-8.10346 8.95145-12.0725 21.15797-12.0725 28.48188 0 12.85754 7.77271 17.08914 15.7108 17.08914 15.54542 0 34.56376-12.85754 46.47089-27.99363 2.1499-2.76681 2.97678-5.69638 2.1499-7.16116-.66151-1.13928-2.31528-1.30203-4.13442.32551-11.08025 10.74174-26.12955 23.11101-37.8713 23.11101-3.63829 0-6.61507-3.25507-6.61507-8.13768 0-4.5571 1.32301-11.55551 6.94582-19.85594 4.63055-6.83565 9.26111-9.27696 10.91487-9.27696.99227 0 1.81915.81377 1.65377 2.92957-.16537 1.62753.33076 2.76681 1.32302 3.25507.82688.48826 2.8114.65101 4.9613-.32551 3.14216-1.46478 6.11895-4.5571 6.11895-8.95145 0-3.41782-3.30754-7.16116-9.59186-7.16116z"/><path d="m263.94128 148.81357c-2.48065 0-2.8114-2.11579-2.48065-5.69637.82688-6.83566 4.13442-17.41464 7.60733-24.41305 1.65377-3.25507 2.64603-5.04536 3.30754-6.51015 1.98452-4.23159-2.31528-9.27695-6.4497-9.27695-1.98452 0-3.96904 1.30203-6.61507 5.20811-2.97678 4.55711-9.92261 16.27537-17.69532 25.22682-7.93809 8.46319-12.56864 12.53203-14.38779 12.53203-1.98452 0-2.8114-1.79029-1.15764-6.99841 1.98453-6.6729 3.30754-9.76522 4.63056-12.20652 1.15763-2.1158 3.14216-3.09232 4.79592-5.20812 1.4884-1.95304 4.79593-7.48667 4.79593-9.60246 0-2.92957-4.9613-6.99841-9.09572-6.99841-1.98453 0-4.13442 1.30203-5.78819 3.74333-1.98453 3.58058-7.11121 13.18305-11.08025 24.73856-4.63055 12.04377-5.12668 16.11261-5.12668 18.71667 0 5.20811 3.47291 10.25348 6.94582 10.25348 2.48066 0 5.12669-.65102 8.5996-2.76682 9.92261-6.18463 20.83748-16.60087 23.48351-19.36768.99226-.97652 2.1499-.32551 1.65377 1.46478s-.99226 3.58058-1.48839 6.18464c-1.98452 9.43971.99226 14.97334 6.11894 14.97334 2.48065 0 7.11121-1.13928 11.74176-3.41783 5.78819-2.76681 15.54542-8.7887 28.11406-25.06406 2.48065-3.09232 3.47291-6.6729 2.48065-8.62594-.6615-1.46479-1.98452-1.46479-3.30753-.16276-9.75724 10.74174-23.97965 23.27377-29.60246 23.27377z"/><path d="m164.62723 86.478926c-1.81915 0-3.96905.813768-5.12669 1.953044-.82688.976521-1.81914 2.278551-1.81914 3.092319s-.66151 1.79029-2.1499 2.766812c-2.1499 1.464782-3.63829 3.743332-4.13442 5.208119-.66151 2.27855.49613 3.58058 1.98452 5.04536.99226.97653 1.48839 2.1158.66151 3.90609-1.65377 4.06884-11.57638 26.6916-17.69533 40.3629-.82688 1.79029-2.48065 6.18464-2.48065 7.97493 0 5.53363 3.80367 7.81218 7.27658 7.81218 2.1499 0 5.29206-1.13928 7.77271-3.90609 3.6383-4.23159 4.13443-6.34739 4.13443-14.15957 0-.97652 0-2.27855.6615-5.20811 1.32302-5.53363 6.28432-16.27537 9.26111-22.1345.6615-1.13927 1.32301-1.46478 2.31527.16275 2.31528 3.58058 9.92261 17.41464 15.38005 26.04059 5.29206 8.30043 6.61507 11.71826 7.60733 13.02029 1.32302 1.79029 4.79593 4.39435 8.26885 4.39435 2.64603 0 4.13442-1.46479 5.62281-3.41783s1.65377-4.39435.82688-5.69638c-.99226-1.46478-1.98452-2.4413-1.98452-3.90608 0-2.27856 0-4.2316 1.48839-9.92798 3.80367-14.15956 7.77271-24.25029 14.22241-36.78232 1.15764-2.4413 3.14216-3.58058 4.96131-3.743333 2.48065-.162758 3.80366-1.302034 3.80366-3.255077 0-2.929565-1.81914-12.043769-7.77271-12.043769-1.98452 0-4.13442.813768-6.28432 2.929566-2.31527 2.278551-4.9613 6.347392-9.2611 16.763623-3.96905 8.95146-7.60734 18.55392-10.91487 28.48189-.66151 1.79029-.99226 2.1158-1.98453.32551-1.48839-2.60406-16.04155-26.85435-17.86069-30.10942-.99227-1.79029-1.4884-3.417835-1.4884-4.231603 0-.651014.49613-1.302029 1.15764-2.766811.82689-1.139275 1.32302-2.929565 0-5.045363-1.32301-2.278551-2.97678-3.906087-6.44969-3.906087z"/></g></g><g stroke-width="4.62665" transform="matrix(.4052611 0 0 .4052611 71.505375 33.61316)"><path d="m1169.4101 124.17001c-6 0-9.2 2.8-12.4 5.6-4.8 4.8-6.8 6-12.8 6.8-6.8 1.2-12 2-16 4-3.6 1.6-7.2 4.4-7.2 9.2 0 6.8 8.4 13.2 17.6 14.8 2.8.4 3.2 1.2 2.8 3.6-20.8 75.2-30 106.4-44 144.8-6 16.4-11.6 28-19.2 36.8-6.8 6.4-12.8 9.2-16.8 9.2s-7.6-1.6-10.4-3.2c-3.6-2-14.4-6-20.8-6-6.8 0-16 5.6-16 12 0 6 5.2 14.4 10.4 17.2 8.4 4.4 18.8 8 26.4 8 4.8 0 10.4-2 16-3.6 4.4-1.2 10.8-4 16-6 4-2 17.6-8.8 30-22.8 14.4-16 28-52 41.2-100.4 19.2-70 21.2-78 25.6-89.2 2-5.6 5.6-11.6 8-14.4 2.8-2.8 6-7.6 3.6-14-2.4-6.8-13.2-12.4-22-12.4z"/><path d="m1309.7096 283.37001c-6 0-6.8-5.2-6-14 2-16.8 10-42.8 18.4-60 4-8 6.4-12.4 8-16 4.8-10.4-5.6-22.8-15.6-22.8-4.8 0-9.6 3.2-16 12.8-7.2 11.2-24 40-42.8 62-19.2 20.8-30.4 30.8-34.8 30.8-4.8 0-6.8-4.4-2.8-17.2 4.8-16.4 8-24 11.2-30 2.8-5.2 7.6-7.6 11.6-12.8 3.6-4.8 11.6-18.4 11.6-23.6 0-7.2-12-17.2-22-17.2-4.8 0-10 3.2-14 9.2-4.8 8.8-17.2 32.4-26.8 60.8-11.2 29.6-12.4 39.6-12.4 46 0 12.8 8.4 25.2 16.8 25.2 6 0 12.4-1.6 20.8-6.8 24-15.2 50.4-40.8 56.8-47.6 2.4-2.4 5.2-.8 4 3.6s-2.4 8.8-3.6 15.2c-4.8 23.2 2.4 36.8 14.8 36.8 6 0 17.2-2.8 28.4-8.4 14-6.8 37.6-21.6 68-61.6 6-7.6 8.4-16.4 6-21.2-1.6-3.6-4.8-3.6-8-.4-23.6 26.4-58 57.2-71.6 57.2z"/><path d="m1467.7096 171.37001c-8.8 0-25.2 4.8-36.4 11.2-13.6 8-35.6 22.4-54 46.4s-26.8 48-26.8 63.6c0 11.2 8 24.4 17.6 24.4 11.2 0 28.4-8.8 36.8-14 13.6-8.4 25.2-18.4 30-22.4 2.4-2 4-2.4 3.6.8-.8 5.6-2 16.8-6.4 34.4-6.4 26-14 53.2-30.4 76.4-18 25.6-34 32.8-45.6 32.8-7.2 0-13.6-4.4-19.2-8.8-5.2-4.4-12.4-8.8-18.4-8.8-8.4 0-24 11.2-24 20.8 0 10.8 18 18 27.2 18 6.4 0 9.2.8 13.2 2 4.4 1.2 11.6 1.6 17.2 1.6 10.4 0 36-9.6 52.8-22.8 19.2-14.8 42-44 54-91.6 4.4-17.2 15.2-59.2 22.4-101.6.8-4 1.6-9.6-.4-11.6-1.2-.8-.4-2.4 2.8-4.4 6.8-4.8 12-12.8 12-21.2 0-8.8-6.4-25.2-28-25.2zm-78 101.6c0-10.4 10.8-31.2 19.2-42 14.4-18.4 32.4-28.4 48.8-28.4 8.4 0 13.6 4.8 13.6 7.6 0 1.6-1.2 3.6-2 4.4-1.6 1.2-3.6 1.6-5.2 2-4.4 1.2-9.2 4.4-13.6 10.8-2.4 3.6-7.6 12.8-21.2 26-5.6 6-25.6 26-35.2 26-2.8 0-4.4-2.8-4.4-6.4z"/><path d="m1594.9096 172.17001c-4.4 0-21.6 1.6-43.6 20.8-16.8 15.2-33.6 34.8-44 56-12.8 24.4-15.2 37.2-15.2 45.2 0 15.2 15.6 23.6 20.4 23.6 8.4 0 16.8-3.6 27.6-11.6 11.2-8 32.4-27.2 37.2-32.8 2.4-2.4 3.2-2.4 3.6 1.2 0 4.4 0 8 .8 14 1.6 16.4 12.4 29.2 27.2 29.2 25.2 0 64-37.6 81.6-72.4 3.6-7.6 5.6-14.8 3.6-18.4-1.6-2.8-5.6-3.2-10 .8-25.2 34.8-52.4 59.2-61.6 59.2-6 0-10-5.6-10-19.6 0-24 7.2-48.8 17.6-72.4 1.2-3.6 3.2-8.4-8-14.8-3.6-2.4-6.4-1.6-9.6 1.2-2.4 1.6-4.4 1.6-5.2-.8-2.4-3.2-6.8-8.4-12.4-8.4zm-14.8 30c5.2 0 8.4 4.8 9.6 8.4 1.2 4 0 9.2-2.4 13.2-1.6 2.8-8 14-13.6 20.4-12 14-17.6 21.6-24.4 27.2-6 5.2-12 9.2-15.2 9.2s-4-5.6-2.8-10.8c2.4-10.8 13.6-33.2 27.2-49.2 11.6-13.6 18-18.4 21.6-18.4z"/><path d="m1761.3101 177.77001c-22 0-43.6 9.2-65.2 32.8-30 32.8-40 64.8-40 82 0 20 9.2 26 18 26s24.8-5.2 42.4-17.2c10-6.8 29.2-23.6 38.8-35.6 2-2.8 3.6-2.4 3.2.8-.8 4.8-1.6 10-2 18.8-.8 14 6 30.8 22.4 30.8 31.2 0 71.2-44 83.6-69.6 3.6-7.6 5.6-14.8 3.6-18.4-2.4-4-7.2-3.2-12 3.6-7.6 11.2-45.2 54-57.6 54-6 0-8.8-7.2-7.6-20 1.6-20 10.4-60.4 22-92.4 13.2-36 23.2-54.8 28.8-68.4 4-9.999997 4-15.199997-1.6-21.999997-6.4-7.6-10.4-8.8-14.8-8.8-2.8 0-5.6 1.6-8.8 8.4-4.8 10-22.8 52.799997-39.6 94.399997-.8 2.4-1.6 2.4-3.6 2-3.2-.8-6.4-1.2-10-1.2zm-8 23.2c3.2 0 6 2 7.2 4.4 1.6 2.8 2 6-.4 11.2-2.4 6-20 34.4-33.6 48-12.8 12.4-22.4 17.6-27.2 17.6-2.8 0-5.2-2.8-5.2-6.8 0-6 2-14.8 19.2-38.8 15.2-21.6 32.8-35.6 40-35.6z"/><path d="m1836.5108 284.97001c0 18.8 12 33.6 26.4 33.6 28.8 0 54.8-16 74-38.8 16.4-18.4 22.4-37.6 22.4-53.6 0-15.6-5.6-33.2-20-40.4-2.8-1.2-3.2-2.4-3.2-4.8 0-5.6-.8-15.6-16-15.6-6.8 0-12.8 2.4-18.4 8-4 4-6.8 6-12 6-4.4 0-7.6 2-10.4 4.8-2.8 3.2-4.8 6-5.2 10.8-.4 7.2-3.6 10.8-6.8 15.2-4.8 6-15.2 21.6-21.2 35.2-7.2 17.6-9.6 28.8-9.6 39.6zm37.6-6.8c0-16.8 16-49.2 34-70.4 2.4-3.2 6.4-6.8 9.2-6.8 7.2 0 10 11.2 10 21.2 0 14-13.6 44.8-25.2 57.6-7.6 8.4-14.4 11.6-19.6 11.6-3.6 0-8.4-4.8-8.4-13.2z"/><path d="m2046.5108 171.77001c-13.2 0-34 6.8-46.4 17.6-11.6 9.2-24 24.8-24 39.2 0 5.2 2 12 4 16.8 2.8 6 9.2 17.2 13.2 22.4 5.6 7.6 9.2 14.8 9.2 18.8 0 2.4-3.2 5.6-8.4 5.6-5.6 0-8-.8-12-2.4-3.6-2.8-6.4-2.8-10-.8-3.6 1.6-8.8 4.8-14.4 11.2-2.8 2.4-3.2 5.6-3.2 8.4 1.6 8.8 16.8 14.8 27.6 14.8 4.4 0 9.2-1.2 15.2-3.6 8.8-3.6 24-12 29.2-16.8 4.8-4.4 10-14.4 10-20.4 0-10.4-6-22-15.2-33.6-6.8-9.2-12-18-12-25.6 0-12.4 27.6-22.8 52.4-22.8 6.8 0 12.8-3.2 12.8-10.8 0-4.8-1.6-8.8-6.8-12.4s-11.2-5.6-21.2-5.6z"/></g></g></g></svg>