<svg height="151.99992" viewBox="0 0 121.72916 25.016147" width="739.63519" xmlns="http://www.w3.org/2000/svg"><g transform="translate(-11.269265 -275.19294)"><text fill="#ef00eb" font-family="TrasksHand" font-size=".32916" stroke="#0105ff" stroke-width=".41145" transform="matrix(.90056043 -.43473085 .43473085 .90056043 0 0)" x="-68.612106" y="294.77551"><tspan fill="#fafafa" fill-opacity=".4" font-size=".32916" stroke="none" stroke-width=".41145" x="-68.612106" y="294.77551">John Loreth 2022</tspan></text><path d="m74.135242 275.20229c-1.748341.17498-2.522068 2.21032-2.218159 3.74938.06498.86207.477849 1.67397 1.063805 2.29988-1.229799.30546-2.189103 1.27788-3.06043 2.15467-.780924.93914-1.587454 2.12573-1.449194 3.39355.244384.55181-.03684 1.01578-.460998 1.35773-.255015.20303-1.097255 1.34334-.964222.61997.161614-1.50337.905944-2.8506 1.299668-4.28485.25644-1.55281-1.301178-2.86335-2.785989-2.70829-1.604429-1.08096-3.622091-.15504-5.030609.8222-2.635581 1.75942-4.024088 4.76194-6.390835 6.80541.163567-1.27352.647786-2.63066 1.664934-3.53854 1.239175-1.54481-.02714-3.90301-1.833647-4.24668-1.216745-.36665-2.270224.48153-3.06297 1.29202-.313505.104-.901445 1.30142-.922314.52968-.261839-1.50273-1.942394-2.59788-3.398433-1.99605-1.184923.44326-2.020138 1.54187-2.934432 2.30102-.254191-1.71744-2.195911-3.21232-3.902605-2.59286-1.551459.71446-2.064153 2.5112-2.597296 3.98696-.144428.80533.41389 1.59625-.06216 2.35977-.219656.71402-.84311 1.13191-1.360806 1.61388.10751-1.71551 1.017387-3.23918 1.363026-4.89047.05303-1.43321-1.428105-2.61895-2.810408-2.4308-1.536793-1.09162-3.53828-.21295-4.903163.74767-1.22779.81642-2.290943 1.86619-3.190635 3.03062.403295-1.4096.867904-2.82754 1.691573-4.0469.57474-1.05992.206711-2.42613-.807076-3.0706-1.13713-.8458-2.858027-1.04657-3.987933-.0706-.688896.58777-1.691616.25428-2.380288.85895-1.555132.86305-1.380144 3.22122.209214 3.95382-1.214143 3.87518-2.162463 7.88901-4.089076 11.49026-.271469.45609-.734744.33034-1.085537.0689-1.497257-.66828-3.734777-.35855-4.348991 1.35843-.586331 1.79243 1.078598 3.5104 2.769419 3.79456 2.432514.67611 4.945305-.54156 6.800033-2.0511 1.330841-1.19704 2.170347-2.82819 2.797859-4.48045.864259 1.60222 3.155979 2.31079 4.679505 1.20863.837652-.3858 1.543199-.99094 2.257719-1.5616.78934 1.72759 2.995133 2.64026 4.739607 1.80546.562038-.20664 1.094668-.49308 1.587141-.83314.821468 1.14185 2.728025 1.38965 3.64825.23122.647527-.55248 1.193608-1.21095 1.715056-1.88061-.01176 1.32265.995553 2.78286 2.448751 2.60521 1.738257-.17317 2.787516-1.79238 3.911295-2.94043.303166 1.78207 1.911865 3.36428 3.798269 3.1656 1.078981-.0514 2.10615-.5158 2.979121-1.11218 1.264736 1.40617 3.562847 1.28531 4.934864.10218.5353-.34324 1.027421-.74766 1.520639-1.1477.775774 1.7227 2.970565 2.64198 4.710748 1.81878.567958-.21099 1.11515-.48693 1.60712-.84201 1.058805 1.31392 3.008837 1.4824 4.458073.76149.604963-.2097 1.183326-.49737 1.72438-.83919 1.182878 1.82248 3.812802 1.91009 5.589371.96726 1.615275-.70352 3.394864-1.98806 3.370193-3.94194.100714-1.54808-1.000572-2.73489-1.809228-3.92259-.199491-.44584.723498-.46315 1.049716-.55467 1.25671-.12642 2.95324-.10661 3.525315-1.49247.627662-1.37772-.268591-3.10376-1.726955-3.45945-2.871722-.9813-6.127563.57245-7.808575 2.95717-.490765.70072-.832117 1.52399-.895628 2.38292-.602474.5621-1.192813 1.138-1.826987 1.66494.574726-1.51046 1.527323-2.87738 1.99126-4.41762.06363-.62725-.152138-1.26386-.532779-1.76039 1.328498.0979 2.17245-1.27544 2.043971-2.47829-.05059-1.24217.548755-2.77018-.497145-3.7801-.73864-.72718-1.810147-.94787-2.814395-.88751zm48.152098.28859c-1.7715-.0141-2.67526 1.73177-3.62511 2.94138-.83416 1.0298-2.12071 2.17285-1.6938 3.65176-.63682.35068-1.11334.89168-1.60277 1.41852-.23668-1.8909-2.80405-3.17748-4.30494-1.81896-.79623.65133-1.19726 1.57373-1.82202 2.37171-.21039-2.4038-3.89504-3.5317-5.28339-1.4718-.26826.20115-.4535 1.11075-.72147.85468-.45741-.42106-.84694-.87007-1.0367-1.46737-1.0065-1.6082-3.488459-1.64126-4.750607-.32411-.528405.29501.234036-.51688.152417-.7428.432705-1.70556-1.314186-3.22887-2.932099-3.23755-.948208-.11606-1.791794.39346-2.523687.90134-1.133813.224-2.55674.57076-2.888105 1.8625-.291619 1.03811.255436 2.22839 1.205412 2.72161-1.210726 3.93098-2.133869 8.01301-4.075757 11.67008-.489555.65134-1.096167-.18337-1.692231-.19318-1.49054-.42595-3.499113.26036-3.753213 1.958-.262888 1.92383 1.634489 3.38216 3.386849 3.56376 2.330328.3379 4.623908-.8308 6.340804-2.31616 1.050234-1.0207 1.788587-2.35684 2.368645-3.6562 1.366001 1.33826 3.491844 1.11651 5.124761.45516.949269-.3221 1.856291-.94604 2.624951-1.47631.58196 1.43525 2.36201 2.32332 3.80507 1.58606 1.20863-.3935 2.22744-1.19124 3.18987-1.99675.26573 1.46535 1.72485 2.61832 3.22997 2.30205.99092-.10468 1.90491-.53632 2.77712-.9923 1.78288 1.55424 4.37943 1.07177 6.4222.38182.4547-.0839 1.00574-.69486 1.25869-.007 1.52367 1.49542 3.99067 1.24588 5.6936.20341 1.51632-.68559 2.95658-2.05488 2.87211-3.84493.0102-1.54503-1.13202-2.78276-1.95038-3.93282 1.34873-.81686 3.3492-.0384 4.42835-1.41875 1.1407-1.37343.13013-3.58444-1.52569-3.95992-2.46814-.81548-5.20806.32565-6.98229 2.07678-.28834.18406-.54009-.70997-.92849-.84269-.2756-.32529-1.11305-.5385-1.1353-.73106 1.25158-.90651 2.70479-1.77957 3.43686-3.19157.61563-1.82789-1.39916-3.41939-3.08963-3.29874z" fill="#333" stroke-width=".41145"/><g fill="#f4c401" stroke-width=".362002" transform="matrix(1.1365947 0 0 1.1365947 -1.539322 -37.589902)"><g><path d="m23.241762 278.7398c-.413067 0-.63337.18219-.853672.36437-.330455.31233-.468143.39041-.881211.44246-.468144.0781-.826135.13014-1.101514.26027-.24784.1041-.49568.2863-.49568.59862 0 .44246.578294.85888 1.211665.96299.192764.0261.220302.0781.192764.23425-1.431967 4.89305-2.065337 6.92315-3.029162 9.42173-.413067 1.0671-.798596 1.82188-1.321815 2.39447-.468143.41643-.881211.59862-1.156589.59862-.275379 0-.523219-.10411-.715984-.20822-.24784-.13013-.991362-.3904-1.431967-.3904-.468143 0-1.101513.36438-1.101513.78081 0 .3904.357992.93697.715984 1.11915.578294.2863 1.294278.52054 1.817496.52054.330455 0 .715984-.13013 1.101513-.23424.302917-.0781.743522-.26027 1.101514-.39041.275378-.13012 1.211664-.57258 2.065338-1.48352.991361-1.04108 1.927648-3.3835 2.836396-6.53275 1.321815-4.55471 1.459505-5.07525 1.762421-5.804.137689-.36437.385529-.75478.550757-.93697.192765-.18218.413067-.49451.24784-.91094-.165227-.44246-.908748-.80683-1.514581-.80683z"/><path d="m30.235946 281.85739c-.29993 0-1.472381.10514-2.972028 1.36687-1.145186.99888-2.290371 2.28689-2.999295 3.68005-.872523 1.60345-1.03612 2.44461-1.03612 2.97033 0 .99887 1.063386 1.55087 1.390582 1.55087.572593 0 1.145185-.23657 1.881375-.76229.763458-.52572 2.208572-1.78745 2.535768-2.15546.163597-.15772.218131-.15772.245397.0788 0 .28915 0 .52572.05453.92001.109066 1.07773.845256 1.91888 1.85411 1.91888 1.717778 0 4.362611-2.47089 5.562328-4.75778.245397-.49943.381728-.97258.245397-1.20915-.109065-.18401-.381728-.21029-.681658.0525-1.717778 2.28689-3.571888 3.89034-4.199013 3.89034-.408994 0-.681657-.368-.681657-1.28802 0-1.57716.490793-3.2069 1.199718-4.75777.08179-.23658.21813-.55201-.545326-.97258-.245398-.15772-.436262-.10515-.654392.0788-.163598.10515-.29993.10515-.354462-.0525-.163598-.2103-.463528-.55201-.845256-.55201zm-1.008854 1.97145c.354462 0 .572593.31544.654392.55202.0818.26285 0 .60457-.163598.86743-.109065.184-.545326.92001-.927055 1.34059-.817989.92001-1.199718 1.41945-1.663245 1.78745-.408995.34172-.81799.60458-1.03612.60458-.218131 0-.272663-.368-.190864-.70972.163598-.70973.927055-2.18174 1.854109-3.23319.790724-.89372 1.226984-1.20916 1.472381-1.20916z"/><path d="m43.136655 281.85739c-.26501 0-.689024.21029-1.13954.60458-.450516.368-.768527.65715-1.590055 1.49831-.980534.99887-1.72256 1.86631-2.835599 3.10175-.397513.44687-.556519.26287-.318011-.47315.344512-1.1303.795027-2.36574 1.113039-3.04918.344512-.70973-.0795-1.20916-.636022-1.65603-.265009-.21028-.503518-.28914-.742025-.28914-.715526 0-1.431051 1.94517-1.643058 2.57603-.106003.34172.0795.49944.185506.49944.132506 0 .159006.13143.0795.39429-.477016 1.78746-.87453 3.0229-.980534 3.81149-.212008 1.78746.556519 2.44461.954034 2.44461.265009 0 .556519-.13143 1.033535-.65715.503518-.55201 3.127109-3.89035 3.524623-4.33722.291509-.34171.58302-.49943.689024-.44685.132504.0789.0795.31543-.0265.57829-.265009.76229-.503518 1.55087-.689024 2.28689-.371013 1.39316-.132505 2.54976.503517 2.54976.371013 0 .768527-.23658 1.298545-.73602.583021-.55201 2.888601-3.15433 3.524623-3.89035.29151-.34172.424015-.31542.318011.0526-.0795.28915-.185507.9463-.238508 1.39317-.26501 2.31317.583019 3.36462 1.934567 3.36462 1.298544 0 3.498121-1.39317 5.406188-4.70522.397513-.68344.477016-1.1303.344512-1.31431-.106005-.15772-.318012-.13142-.55652.15772-2.411584 3.0229-3.683628 3.99549-4.425654 3.99549-.636022 0-.768526-.70972-.609521-1.76117.212008-1.4983.636023-2.49718.901032-2.99661.238507-.47315.503517-.68345.689023-.84116.238509-.21029.371014-.368.371014-.68344 0-.5783-.609522-1.23545-1.219043-1.23545-.318011 0-.742026.26286-1.16604.68344-.503518.49944-3.233113 3.46977-4.054641 4.28463-.159006.13144-.29151.23658-.424015.18401-.106004-.0526-.053-.26287.106003-.65716.291511-.76229.927533-2.20802 1.113039-2.73375.530019-1.47202-.424015-1.99774-.795027-1.99774z"/><path d="m57.757107 281.8574c-.29993 0-1.472381.10515-2.972028 1.36688-1.145186.99887-2.290371 2.28688-2.999295 3.68005-.872523 1.60344-1.03612 2.4446-1.03612 2.97032 0 .99887 1.063387 1.55087 1.390582 1.55087.572593 0 1.145185-.23656 1.881376-.76229.763457-.52572 2.208571-1.78745 2.535767-2.15546.163599-.15772.218131-.15772.245397.0788 0 .28915 0 .52572.05453.92002.109065 1.07773.845256 1.91887 1.854109 1.91887 1.717778 0 4.362611-2.47088 5.562328-4.75777.245397-.49944.381728-.97258.245397-1.20915-.109065-.18401-.381728-.2103-.681658.0525-1.717778 2.28688-3.571888 3.89033-4.199013 3.89033-.408994 0-.681657-.368-.681657-1.28801 0-1.57716.490793-3.2069 1.199718-4.75778.08179-.23658.21813-.55201-.545326-.97258-.245398-.15772-.436262-.10515-.654392.0788-.163598.10515-.29993.10515-.354462-.0525-.163598-.21029-.463528-.55201-.845256-.55201zm-1.008854 1.97146c.354462 0 .572593.31543.654392.55201.0818.26285 0 .60457-.163598.86743-.109065.184-.545326.92001-.927055 1.34059-.817989.92002-1.199718 1.41945-1.663245 1.78745-.408994.34173-.81799.60458-1.03612.60458-.218131 0-.272663-.368-.190864-.70972.163598-.70973.927055-2.18174 1.854109-3.23318.790724-.89373 1.226985-1.20916 1.472381-1.20916z"/><path d="m66.917159 276.50833c-.599859 0-.927054.28915-.981588 1.10402-.02726.60458.05453 1.02516.136333 1.3143.136331.47315.572591.9463 1.172451 1.15659.51806.184.899788.15771.899788-.368 0-.63087 0-1.28803.163598-2.18175.136332-.65715-.599859-1.02516-1.390582-1.02516zm-3.408289 14.95677c.463527 0 .981587-.10514 1.663245-.36801 1.581446-.60457 4.117213-2.97032 5.1806-4.62634.354462-.55201.436261-.97259.299929-1.20915-.109066-.18402-.381729-.2103-.708924.13143-1.526914 1.65601-4.226278 4.02176-5.098801 4.02176-.51806 0-.572593-.36801-.29993-1.18287.654392-2.02403 1.33605-3.49605 2.181305-4.9155.272663-.49943 0-1.07773-.354462-1.34059-.136331-.10514-.299928-.15772-.463527-.15772-.790723 0-2.508501 1.76118-2.944762 2.8389-.163597.39429-.109065.63087 0 .86744.136332.23658.136332.39429 0 .7623-.21813.47314-.681658 1.91888-.845256 2.54975-.190864.63086-.190864 1.10401.05453 1.57716.381727.81486.927053 1.05144 1.336049 1.05144z"/><path d="m74.152786 281.79183c-.899788 0-2.317636.44686-3.162892 1.15659-.790723.60458-1.635979 1.62973-1.635979 2.57603 0 .34173.136331.78858.272663 1.10402.190864.39429.627125 1.1303.899788 1.47202.381729.49943.627125.97258.627125 1.23544 0 .15772-.21813.368-.572593.368-.381727 0-.545326-.0525-.817989-.15771-.245397-.18401-.436261-.18401-.681657-.0525-.245397.10514-.599859.31543-.981588.73601-.190864.15771-.21813.368-.21813.552.109065.5783 1.145185.97259 1.881375.97259.29993 0 .627126-.0788 1.03612-.23658.599859-.23657 1.635979-.78858 1.990441-1.10401.327197-.28915.681659-.9463.681659-1.34059 0-.68344-.408996-1.44573-1.036121-2.20803-.463527-.60458-.817989-1.18288-.817989-1.68231 0-.81486 1.881375-1.49831 3.571887-1.49831.463528 0 .872522-.21028.872522-.70971 0-.31544-.109065-.5783-.463527-.81487-.354462-.23658-.763457-.36801-1.445115-.36801z"/></g><g><path d="m84.411273 278.66379c-.408996 0-.627126.184-.845256.368-.327196.31543-.463528.3943-.872522.44687-.463528.0788-.81799.13143-1.090653.26286-.245397.10515-.490794.28915-.490794.60458 0 .44686.572593.86743 1.199718.97258.190865.0263.218131.0788.190865.23658-1.417849 4.94178-2.044975 6.99209-2.999295 9.51555-.408995 1.07773-.790723 1.84002-1.308784 2.41832-.463527.42058-.872521.60458-1.145185.60458-.272663 0-.518059-.10515-.708924-.2103-.245397-.13142-.981588-.39428-1.417849-.39428-.463527 0-1.090652.368-1.090652.78858 0 .39429.354462.9463.708924 1.1303.572593.28914 1.281517.52572 1.799577.52572.327196 0 .708924-.13143 1.090653-.23658.299929-.0788.736191-.26286 1.090653-.39428.272663-.13143 1.199717-.5783 2.044973-1.49831.981587-1.05144 1.908642-3.41719 2.80843-6.5978 1.308784-4.60006 1.445115-5.12578 1.745045-5.86179.136332-.36801.381728-.7623.545326-.9463.190864-.184.408995-.49943.245396-.92001-.163597-.44687-.899788-.81487-1.499646-.81487z"/><path d="m83.459145 289.23078c0 1.23545.817989 2.20804 1.799577 2.20804 1.963175 0 3.735485-1.05145 5.044268-2.54975 1.117919-1.20916 1.526914-2.47089 1.526914-3.52234 0-1.02515-.381729-2.18174-1.363316-2.65489-.190864-.0788-.21813-.15771-.21813-.31543 0-.368-.05453-1.02515-1.090653-1.02515-.463527 0-.872522.15772-1.254251.52572-.272663.26286-.463526.39428-.817989.39428-.299929 0-.51806.13143-.708924.31544-.190865.21029-.327196.39429-.354462.70972-.02726.47315-.245397.70973-.463528.99888-.327195.39428-1.036119 1.41944-1.445114 2.31317-.490793 1.15658-.654392 1.8926-.654392 2.60231zm2.563034-.44686c0-1.10401 1.090652-3.23318 2.317637-4.62634.163598-.21029.436261-.44686.627125-.44686.490793 0 .681657.736.681657 1.39316 0 .92001-.927054 2.94404-1.717777 3.78519-.51806.55201-.981587.76229-1.336049.76229-.245397 0-.572593-.31543-.572593-.86744z"/><path d="m102.90839 287.3721c-1.13958.99058-2.24323 1.75355-2.81241 1.75355-.408993 0-.463526-.34173-.408993-.92002.136331-1.10401.681653-2.8126 1.254253-3.94291.27266-.52572.43626-.81487.54532-1.05144.3272-.68344-.38172-1.4983-1.06338-1.4983-.3272 0-.654394.21028-1.090655.84115-.490794.73601-1.635978 2.6286-2.917495 4.07434-1.308784 1.36687-2.072241 2.02403-2.37217 2.02403-.327196 0-.463527-.28915-.190864-1.13031.327195-1.07773.545326-1.57716.763456-1.97145.190864-.34172.518061-.49944.790724-.84116.245396-.31543.790723-1.20916.790723-1.55087 0-.47315-.81799-1.1303-1.499647-1.1303-.327197 0-.681659.21028-.954322.60458-.327195.57829-1.172451 2.12916-1.826843 3.99548-.763456 1.94516-.845255 2.60231-.845255 3.02289 0 .84116.572592 1.65603 1.145185 1.65603.408994 0 .845256-.10515 1.417848-.44687 1.635979-.99887 3.435555-2.68117 3.871817-3.12804.163598-.15771.354462-.0525.272663.23657-.08179.28915-.163598.5783-.245397.99888-.327196 1.52459.163599 2.41831 1.008854 2.41831.408995 0 1.172451-.184 1.935908-.552.72371-.33888 1.82376-.9801 3.21691-2.41661"/><path d="m101.43838 288.78392c0 1.65602 1.22699 2.60232 2.48124 2.60232 3.19016 0 6.59844-2.23431 8.45256-4.5212.35446-.44686.49079-.92001.35446-1.15658-.10907-.18401-.38174-.2103-.65439.0788-2.78117 2.70747-5.28967 3.57491-6.92564 3.57491-.79073 0-1.22699-.39429-1.22699-.97259 0-.368.0818-.60458.21812-.86744.0818-.184.1636-.21028.35447-.13143.2454.10515.54533.21029.84526.21029 1.47238 0 2.4267-.68344 2.9993-1.23544.54532-.5783 1.03611-1.34059 1.03611-2.28689 0-.99887-.65439-1.57716-1.58145-1.62974-.19086-.0263-.32719-.13142-.40899-.23657-.16359-.31543-.43626-.52572-.95432-.52572-1.14519 0-2.56303 1.57716-3.10836 2.31318-1.19972 1.65601-1.88138 3.60118-1.88138 4.78405zm3.68095-2.70746c-.35446 0-.40899-.0788-.29992-.3943.3272-.81486 1.22698-2.10287 1.77231-2.10287.35446 0 .62713.21028.62713.57829 0 .736-1.25426 1.91888-2.09952 1.91888zm.35447-5.33607c0 .26286.35446.31543.68166.23657.65439-.15771 1.79957-.78858 3.89908-2.54975.409-.34171.51805-.736.2454-1.07772-.29993-.34172-.7362-.57829-1.30878-.57829-.59987 0-.818.26285-1.1452.70972-1.03611 1.3143-1.63597 2.12917-2.12677 2.68118-.13633.184-.24539.44686-.24539.57829z"/><path d="m115.14597 281.79183c-.8998 0-2.31764.44686-3.1629 1.15659-.79072.60458-1.63598 1.62973-1.63598 2.57603 0 .34173.13634.78858.27267 1.10402.19086.39429.62713 1.1303.89978 1.47202.38174.49943.62713.97258.62713 1.23544 0 .15772-.21813.368-.57259.368-.38173 0-.54533-.0525-.81799-.15771-.2454-.18401-.43626-.18401-.68166-.0525-.24539.10514-.59985.31543-.98159.73601-.19086.15771-.21813.368-.21813.552.10907.5783 1.14519.97259 1.88138.97259.29993 0 .62713-.0788 1.03612-.23658.59986-.23657 1.63597-.78858 1.99045-1.10401.32719-.28915.68165-.9463.68165-1.34059 0-.68344-.409-1.44573-1.03613-2.20803-.46352-.60458-.81798-1.18288-.81798-1.68231 0-.81486 1.88137-1.49831 3.57189-1.49831.46352 0 .87252-.21028.87252-.70971 0-.31544-.10907-.5783-.46353-.81487-.35446-.23658-.76346-.36801-1.44511-.36801z"/></g></g></g></svg>