<?xml version="1.0" encoding="UTF-8" standalone="no"?>
<svg
   xmlns:dc="http://purl.org/dc/elements/1.1/"
   xmlns:cc="http://creativecommons.org/ns#"
   xmlns:rdf="http://www.w3.org/1999/02/22-rdf-syntax-ns#"
   xmlns:svg="http://www.w3.org/2000/svg"
   xmlns="http://www.w3.org/2000/svg"
   xmlns:sodipodi="http://sodipodi.sourceforge.net/DTD/sodipodi-0.dtd"
   xmlns:inkscape="http://www.inkscape.org/namespaces/inkscape"
   enable-background="new 0 0 566.929 129.21"
   height="149.04207"
   viewBox="0 0 398.05564 119.23365"
   width="497.56955"
   version="1.1"
   id="svg82"
   sodipodi:docname="auto-favorites-fr.svg"
   inkscape:version="0.92.4 (5da689c313, 2019-01-14)">
  <metadata
     id="metadata88">
    <rdf:RDF>
      <cc:Work
         rdf:about="">
        <dc:format>image/svg+xml</dc:format>
        <dc:type
           rdf:resource="http://purl.org/dc/dcmitype/StillImage" />
        <dc:title></dc:title>
      </cc:Work>
    </rdf:RDF>
  </metadata>
  <defs
     id="defs86" />
  <sodipodi:namedview
     pagecolor="#ffffff"
     bordercolor="#666666"
     borderopacity="1"
     objecttolerance="10"
     gridtolerance="10"
     guidetolerance="10"
     inkscape:pageopacity="0"
     inkscape:pageshadow="2"
     inkscape:window-width="640"
     inkscape:window-height="480"
     id="namedview84"
     showgrid="false"
     inkscape:zoom="0.71748764"
     inkscape:cx="0"
     inkscape:cy="74.521034"
     inkscape:current-layer="svg82" />
  <g
     id="g80"
     transform="matrix(0.87675071,0,0,0.74751216,24.530039,15.610025)">
    <g
       transform="translate(-39.915042,-7.232985)"
       id="g46">
      <g
         id="g10">
        <path
           d="m 121.8848,96.362531 -0.47501,4.037589 q -1.74171,4.11676 -3.56258,4.2751 l -15.83369,1.34586 h -0.23751 q -1.7417,0 -2.058378,-3.72091 L 109.21785,6.1104938 q 1.58337,-4.1167596 5.46262,-4.5917703 l 13.69614,-1.1875268 h 0.47501 q 3.80009,0 5.93764,3.483412 L 160.83568,96.91671 v 0.870853 q 0,3.087567 -2.21672,3.325077 l -15.20034,1.34586 h -0.15834 q -1.90004,0 -4.11676,-3.641747 l -1.10836,-3.879254 z m 10.68774,-20.821303 -6.17514,-21.692157 -2.37505,22.483841 z"
           transform="matrix(0.99263153,0.09663273,-0.09610646,0.9980672,0,0)"
           id="path2"
           inkscape:connector-curvature="0"
           style="fill:#f3010f;stroke-width:2.5" />
        <path
           d="m 115.49023,10.603516 c -4.22676,0.03624 -8.16362,3.056616 -9.50585,7.023437 -0.46496,1.932091 -0.76436,3.904448 -1.18165,5.849609 -5.88597,29.966956 -11.77171,59.933538 -17.658199,89.900388 -0.06327,2.52644 0.348836,5.38869 2.429688,7.08399 1.614436,1.37196 3.837457,1.26912 5.822265,1.22461 4.765216,0.0689 9.537616,0.17706 14.300786,0.13086 2.85591,-0.41971 4.87747,-2.78594 6.2207,-5.16602 0.54715,-0.79644 0.87513,-1.72069 1.04297,-2.66797 3.19531,0.0273 6.39061,0.0547 9.58594,0.082 0.29125,1.97732 1.44576,3.68762 2.63476,5.24219 1.41564,1.78168 3.63571,2.99421 5.95117,2.80078 5.11851,0.059 10.24036,0.1384 15.35742,0.0957 2.96183,-0.25978 5.28771,-2.91604 5.61915,-5.79687 0.36381,-1.6103 0.17975,-3.26326 -0.19141,-4.85156 -5.54982,-31.328306 -11.10086,-62.656017 -16.65039,-93.984378 -1.48546,-3.549032 -4.83718,-6.401177 -8.7461,-6.726562 -2.61952,-0.250962 -5.25763,-0.07858 -7.88476,-0.175781 -2.3824,-0.02376 -4.76409,-0.05005 -7.14649,-0.06445 z m 0.19922,3.99414 13.70899,0.138672 0.47265,0.04492 c 2.51473,0.244809 4.36725,1.59529 5.5586,4.050781 l 16.90625,95.439451 -0.084,0.86914 c -0.19782,2.05441 -1.03738,3.08829 -2.51953,3.10352 l -15.2168,-0.125 -0.1582,-0.0156 c -1.25736,-0.12241 -2.50273,-1.46531 -3.73633,-4.03125 l -0.72656,-3.98047 -16.16797,-0.13672 -0.86133,3.98242 c -1.41635,2.62699 -2.73215,3.93577 -3.94726,3.92383 l -15.845704,-0.1875 -0.236328,-0.0234 c -1.152578,-0.11224 -1.714386,-1.4159 -1.685547,-3.91211 L 109.82617,18.652344 c 1.31157,-2.637198 3.26574,-3.988534 5.86328,-4.054688 z m 6.60157,53.361328 -4.51954,22.210938 8.56446,0.03711 z"
           id="path4"
           inkscape:connector-curvature="0"
           style="fill:#845f23;stroke-width:2.5" />
        <path
           d="m 113.68945,12.597656 c -2.59754,0.06615 -4.55171,1.417489 -5.86328,4.054688 L 89.150391,111.73828 c -0.02884,2.49622 0.532965,3.79991 1.685547,3.91211 l 0.236328,0.0234 0.224609,0.002 c -0.101156,-0.53959 -0.155283,-1.17594 -0.146484,-1.9375 L 109.82617,18.652344 c 1.31157,-2.637198 3.26574,-3.988534 5.86328,-4.054688 l 13.70899,0.138672 0.47265,0.04492 c 1.11451,0.108497 2.09086,0.447449 2.94532,0.990234 -1.17967,-1.780373 -2.82352,-2.783677 -4.94532,-2.990234 l -0.47265,-0.04492 z m 8.60157,55.361328 -0.86329,4.248047 2.90821,16 -6.16016,-0.02734 -0.4043,1.990234 8.56446,0.03711 z m 5.96679,42.119136 0.36328,1.99415 c 0.99436,2.06832 1.99606,3.32794 3.00586,3.80859 -0.336,-0.51574 -0.67159,-1.1133 -1.00586,-1.80859 l -0.72656,-3.98047 z"
           id="path6"
           inkscape:connector-curvature="0"
           style="fill:#bb000f" />
        <path
           d="m 113.49023,8.6035156 c -4.22676,0.03624 -8.16362,3.0566164 -9.50585,7.0234374 -0.46496,1.932091 -0.76436,3.904448 -1.18165,5.849609 -5.885972,29.966956 -11.77171,59.933538 -17.658199,89.900388 -0.06327,2.52644 0.348836,5.38869 2.429688,7.08399 1.614436,1.37196 3.837457,1.26912 5.822265,1.22461 4.76522,0.0689 9.537616,0.17706 14.300786,0.13086 2.85591,-0.41971 4.87747,-2.78594 6.2207,-5.16602 0.54715,-0.79644 0.87513,-1.72069 1.04297,-2.66797 3.19531,0.0273 6.39061,0.0547 9.58594,0.082 0.29125,1.97732 1.44576,3.68762 2.63476,5.24219 1.41564,1.78168 3.63571,2.99421 5.95117,2.80078 5.11851,0.059 10.24036,0.1384 15.35742,0.0957 2.96183,-0.25978 5.28771,-2.91604 5.61915,-5.79687 0.36381,-1.6103 0.17975,-3.26326 -0.19141,-4.85156 -5.54982,-31.328306 -11.10086,-62.656017 -16.65039,-93.984378 -1.48546,-3.549032 -4.83718,-6.4011772 -8.7461,-6.726562 -2.61952,-0.2509615 -5.25763,-0.078578 -7.88476,-0.1757812 -2.3824,-0.023759 -4.76409,-0.050052 -7.14649,-0.064453 z m 0.19922,3.9941404 13.70899,0.138672 0.47265,0.04492 c 2.51473,0.244809 4.36725,1.59529 5.5586,4.050781 l 16.90625,95.439451 -0.084,0.86914 c -0.19782,2.05441 -1.03738,3.08829 -2.51953,3.10352 l -15.2168,-0.125 -0.1582,-0.0156 c -1.25736,-0.12241 -2.50273,-1.46531 -3.73633,-4.03125 l -0.72656,-3.98047 -16.16797,-0.13672 -0.86133,3.98242 c -1.41635,2.62699 -2.73215,3.93577 -3.94726,3.92383 l -15.845704,-0.1875 -0.236328,-0.0234 c -1.152578,-0.11224 -1.714386,-1.4159 -1.685547,-3.91211 L 107.82617,16.652344 c 1.31157,-2.637198 3.26574,-3.988534 5.86328,-4.054688 z m 6.60157,53.361328 -4.51954,22.210938 8.56446,0.03711 z"
           id="path8"
           inkscape:connector-curvature="0"
           style="fill:#fad60b;stroke-width:2.5" />
      </g>
      <g
         id="g20">
        <path
           d="m 62.80595,74.847839 v 39.062501 q 0,3.90625 -3.90625,3.90625 H 47.18095 q -3.90625,0 -3.90625,-3.90625 V 20.160339 q 0,-3.90625 3.90625,-3.90625 h 54.6875 q 3.90625,0 3.90625,3.90625 v 11.71875 q 0,3.90625 -3.90625,3.90625 h -39.0625 v 23.4375 h 31.25 q 3.90625,0 3.90625,3.90625 v 7.8125 q 0,3.90625 -3.90625,3.90625 z"
           transform="rotate(-1.8885123)"
           id="path12"
           inkscape:connector-curvature="0"
           style="fill:#f3010f;stroke-width:2.5" />
        <path
           d="M 104.2168,10.892578 C 85.715032,11.514022 67.210535,12.081191 48.710938,12.75 c -3.09993,0.224687 -6.032946,2.545103 -6.572266,5.673828 -0.482273,2.385006 -0.02964,4.820892 -0.06055,7.228516 0.9911,29.911677 1.955351,59.824515 2.984375,89.734376 0.221767,3.10408 2.538456,6.05039 5.675781,6.58789 2.38625,0.48094 4.823703,0.0335 7.232422,0.0586 2.840582,-0.13463 5.786867,-0.061 8.658203,-0.41601 3.007672,-0.54183 5.533109,-3.15127 5.792969,-6.22657 0.258144,-2.37533 -0.08679,-4.76171 -0.07813,-7.14257 L 71.367188,78.601562 c 9.422145,-0.325756 18.848914,-0.579835 28.267582,-0.972656 3.10117,-0.290635 5.96155,-2.69812 6.42773,-5.83789 0.40699,-2.325922 0.009,-4.691475 0.0117,-7.033204 -0.0663,-2.723635 0.10797,-5.796185 -1.78516,-8.003906 -1.49001,-1.870746 -3.92913,-2.783848 -6.28515,-2.642578 -2.220595,-0.0083 -4.418137,0.163651 -6.576176,0.195313 l -20.841796,0.685547 -0.50586,-15.433594 c 11.992514,-0.407948 23.988703,-0.755593 35.978512,-1.216797 3.10716,-0.255242 6.00325,-2.624467 6.50586,-5.763672 0.44661,-2.390733 0.0121,-4.824539 0.0352,-7.234375 -0.13072,-2.803899 -0.0641,-5.719217 -0.41211,-8.554688 -0.53032,-2.94519 -3.03432,-5.420816 -6.02734,-5.783203 -0.64303,-0.09807 -1.29349,-0.129861 -1.94336,-0.113281 z m 0.13281,3.996094 c 2.60275,-0.08582 3.94543,1.172638 4.03125,3.77539 l 0.38672,11.712891 c 0.0858,2.602752 -1.17264,3.94543 -3.77539,4.03125 l -39.041018,1.287109 0.771484,23.425782 31.234375,-1.029297 c 2.602749,-0.08582 3.947389,1.172638 4.033199,3.775391 l 0.25586,7.80664 c 0.0858,2.602753 -1.17263,3.947384 -3.77539,4.033203 l -31.232419,1.03125 1.28711,39.041019 c 0.08582,2.60275 -1.172639,3.94738 -3.775391,4.0332 l -11.712891,0.38477 c -2.602752,0.0858 -3.94543,-1.17264 -4.03125,-3.77539 L 45.916016,20.722656 c -0.08582,-2.602752 1.172638,-3.947383 3.77539,-4.033203 z"
           id="path14"
           inkscape:connector-curvature="0"
           style="fill:#845f23;stroke-width:2.5" />
        <path
           d="m 102.34961,12.888672 -54.658204,1.800781 c -2.602752,0.08582 -3.86121,1.430451 -3.77539,4.033203 l 3.089843,93.699224 c 0.06356,1.92776 0.82132,3.11354 2.265625,3.5664 -0.151404,-0.45492 -0.245979,-0.9706 -0.265625,-1.5664 L 45.916016,20.722656 c -0.08582,-2.602752 1.172638,-3.947383 3.77539,-4.033203 l 54.658204,-1.800781 c 0.67505,-0.02226 1.262,0.05039 1.76758,0.208984 -0.51007,-1.533563 -1.75988,-2.275184 -3.76758,-2.208984 z m -6.392579,43.203125 -29.302734,0.964844 0.06836,2.064453 31.234375,-1.029297 c 0.67505,-0.02226 1.261802,0.05039 1.767578,0.208984 -0.510071,-1.533563 -1.759874,-2.275184 -3.767579,-2.208984 z"
           id="path16"
           inkscape:connector-curvature="0"
           style="fill:#bb000f" />
        <path
           d="M 102.2168,8.8925781 C 83.715032,9.5140219 65.210535,10.081191 46.710938,10.75 c -3.09993,0.224687 -6.032946,2.545103 -6.572266,5.673828 -0.482273,2.385006 -0.02964,4.820892 -0.06055,7.228516 0.9911,29.911677 1.955351,59.824515 2.984375,89.734376 0.221767,3.10408 2.538456,6.05039 5.675781,6.58789 2.38625,0.48094 4.823703,0.0335 7.232422,0.0586 2.840582,-0.13463 5.786867,-0.061 8.658203,-0.41601 3.007672,-0.54183 5.533109,-3.15127 5.792969,-6.22657 0.258144,-2.37533 -0.08679,-4.76171 -0.07813,-7.14257 L 69.367188,76.601562 c 9.422145,-0.325756 18.848914,-0.579835 28.267578,-0.972656 3.101174,-0.290635 5.961554,-2.69812 6.427734,-5.83789 0.40699,-2.325922 0.009,-4.691475 0.0117,-7.033204 -0.0663,-2.723635 0.10797,-5.796185 -1.78516,-8.003906 -1.49001,-1.870746 -3.929133,-2.783848 -6.285154,-2.642578 -2.220591,-0.0083 -4.418133,0.163651 -6.576172,0.195313 l -20.841796,0.685547 -0.50586,-15.433594 c 11.992514,-0.407948 23.988703,-0.755593 35.978512,-1.216797 3.10716,-0.255242 6.00325,-2.624467 6.50586,-5.763672 0.44661,-2.390733 0.0121,-4.824539 0.0352,-7.234375 -0.13072,-2.803899 -0.0641,-5.719217 -0.41211,-8.554688 -0.53032,-2.94519 -3.03432,-5.4208156 -6.02734,-5.7832026 -0.64303,-0.098071 -1.29349,-0.1298612 -1.94336,-0.1132813 z m 0.13281,3.9960939 c 2.60275,-0.08582 3.94543,1.172638 4.03125,3.77539 l 0.38672,11.712891 c 0.0858,2.602752 -1.17264,3.94543 -3.77539,4.03125 l -39.041018,1.287109 0.771484,23.425782 31.234375,-1.029297 c 2.602753,-0.08582 3.947384,1.172638 4.033203,3.775391 l 0.255856,7.80664 c 0.0858,2.602753 -1.172632,3.947384 -3.775387,4.033203 l -31.232422,1.03125 1.28711,39.041019 c 0.08582,2.60275 -1.172639,3.94738 -3.775391,4.0332 l -11.712891,0.38477 c -2.602752,0.0858 -3.94543,-1.17264 -4.03125,-3.77539 L 43.916016,18.722656 c -0.08582,-2.602752 1.172638,-3.947383 3.77539,-4.033203 z"
           id="path18"
           inkscape:connector-curvature="0"
           style="fill:#fad60b;stroke-width:2.5" />
      </g>
      <g
         id="g34">
        <g
           id="g28"
           style="stroke-width:2.5">
          <path
             d="m 238.83008,11.294922 c -12.00136,0.0332 -22.21768,5.301086 -30.65235,15.802734 -8.43489,10.448727 -12.62485,23.082728 -12.56835,37.900391 0.0565,14.817663 4.34281,27.453441 12.85742,37.908203 8.5144,10.40184 18.77208,15.58593 30.77343,15.55273 12.00136,-0.0332 22.21942,-5.27393 30.6543,-15.72265 8.43468,-10.501651 12.62291,-23.160855 12.56641,-37.978518 -0.0565,-14.817664 -4.34107,-27.428236 -12.85547,-37.830078 -8.5146,-10.454763 -18.77403,-15.666012 -30.77539,-15.632812 z m 0.10547,37.019531 c 0.0463,-8.92e-4 0.0929,0.0094 0.13476,0.03125 1.56438,2.446664 1.85333,5.546264 3.33985,8.064453 1.2103,2.110336 3.80444,2.70653 6.06836,2.570313 1.40655,0.200363 3.16293,-0.207981 4.33789,0.398437 -2.05146,1.949451 -5.31785,3.238242 -6.21485,6.16211 -0.62583,3.530112 1.29883,6.905559 2.19727,10.253906 0.0113,0.738075 1.00781,1.780273 0.3789,2.375 -1.04612,-0.504722 -1.87861,-1.434984 -2.82226,-2.121094 -2.30668,-1.660065 -4.49801,-4.460022 -7.63086,-4.226562 -3.37938,0.339927 -5.52057,3.412771 -8.0957,5.269531 -0.5245,0.239337 -1.38839,1.698902 -1.85743,0.826172 0.62265,-3.478922 2.35873,-6.739072 2.91797,-10.25586 0.29944,-3.138521 -2.4113,-5.269273 -4.71289,-6.859375 -0.52643,-0.271594 -1.50796,-1.219002 -0.50781,-1.542968 2.71014,-0.626381 5.92573,0.420029 8.18555,-1.679688 2.42319,-2.48739 2.39678,-6.347901 4.14843,-9.228516 0.0414,-0.02459 0.0865,-0.03622 0.13282,-0.03711 z"
             id="path22"
             inkscape:connector-curvature="0"
             style="fill:#845f23" />
          <path
             d="m 239.42703,11.924301 q 18.05041,0 30.79653,15.675354 12.74612,15.596185 12.74612,37.763352 0,22.167167 -12.74612,37.842523 -12.74612,15.59618 -30.79653,15.59618 -18.0504,0 -30.79652,-15.59618 -12.74613,-15.675356 -12.74613,-37.842523 0,-22.167167 12.74613,-37.763352 12.74612,-15.675354 30.79652,-15.675354 z m 19.79212,81.147665 q 1.34586,0.633348 1.97921,0.633348 0.63335,0 0.63335,-0.633348 0,-0.633348 -0.63335,-1.979211 L 252.88567,65.838018 267.13599,55.46695 q 1.97921,-1.979211 1.97921,-3.008401 0,-0.950021 -1.97921,-0.950021 h -19.3171 l -6.41264,-19.792114 q -0.95003,-1.979211 -1.97922,-1.979211 -0.95002,0 -1.97921,1.979211 l -6.41264,19.792114 h -19.31711 q -1.97921,0 -1.97921,1.02919 0,0.950021 1.90005,2.929232 l 14.32949,10.371068 -8.39186,25.254737 q -0.63335,1.266695 -0.63335,1.979211 0,0.633348 0.71252,0.633348 0.63335,0 1.97921,-0.633348 l 19.79211,-16.704544 z"
             transform="matrix(0.99732021,-0.00275879,0.00382407,1.0026764,0,0)"
             id="path24"
             inkscape:connector-curvature="0"
             style="fill:#f3010f" />
          <path
             d="m 238.69531,11.298828 c -0.35026,0.0046 -0.70052,0.01053 -1.05078,0.01563 -8.85395,0.197806 -17.58629,3.448948 -24.43359,9.0625 -6.5502,5.291166 -11.74208,12.16921 -15.44532,19.707031 -5.18336,10.744486 -6.84646,22.941166 -5.9121,34.765625 0.77289,10.075423 3.76518,20.052931 9.2207,28.599616 4.68018,7.40679 10.94556,13.98331 18.68555,18.20311 9.95441,5.39759 22.16692,6.25012 32.85156,2.58985 8.60316,-2.93043 15.84094,-8.99637 21.30273,-16.15235 4.85719,-6.35183 8.44088,-13.671697 10.40039,-21.427726 2.32065,-9.030953 2.67866,-18.517468 1.47852,-27.746093 -1.24452,-9.249002 -4.46765,-18.274612 -9.74024,-26.001954 -4.40905,-6.526116 -10.04351,-12.364049 -16.90039,-16.320312 -6.18801,-3.551172 -13.32517,-5.38298 -20.45703,-5.294922 z m 0.13477,3.996094 c 12.00136,-0.0332 22.26078,5.178048 30.77539,15.632812 8.5144,10.401842 12.79895,23.012414 12.85547,37.830078 0.0565,14.817664 -4.13171,27.476867 -12.56641,37.978518 -8.43488,10.44872 -18.65294,15.68945 -30.6543,15.72265 -12.00135,0.0332 -22.25903,-5.15089 -30.77343,-15.55273 -8.51462,-10.454763 -12.80091,-23.09054 -12.85742,-37.908203 -0.0565,-14.817664 4.13345,-27.451664 12.56835,-37.900391 8.43468,-10.501647 18.65099,-15.769535 30.65235,-15.802734 z"
             id="path26"
             inkscape:connector-curvature="0"
             style="fill:#845f23" />
        </g>
        <path
           d="m 238.69531,11.298828 c -0.51613,0.0031 -1.02564,0.02434 -1.53515,0.04687 -0.49467,0.01729 -0.98708,0.06148 -1.48047,0.09766 -10.64645,0.877642 -19.81661,6.085615 -27.50196,15.654297 -8.43488,10.448728 -12.62487,23.082727 -12.56835,37.900391 0.002,0.527799 0.0224,1.046096 0.0352,1.568359 0.38974,-13.771477 4.56413,-25.597059 12.5332,-35.46875 8.43468,-10.501647 18.65099,-15.769535 30.65235,-15.802734 12.00136,-0.0332 22.26078,5.178048 30.77539,15.632812 8.21112,10.031333 12.47533,22.123487 12.82031,36.261719 0.0228,-0.80515 0.0383,-1.613327 0.0352,-2.431641 -0.0565,-14.817663 -4.34107,-27.428236 -12.85547,-37.830078 -8.13016,-9.982718 -17.8549,-15.171334 -29.16406,-15.591796 -0.58084,-0.01828 -1.1609,-0.04423 -1.74219,-0.03711 -0.001,8e-6 -0.003,-8e-6 -0.004,1e-6 z"
           id="path30"
           inkscape:connector-curvature="0"
           style="fill:#bb000f" />
        <path
           d="m 240.1875,7.3007812 c -0.84491,-0.023486 -1.68983,-0.020781 -2.53516,0.00781 -8.8617,0.1957852 -17.604,3.4508808 -24.45312,9.0742178 -6.6233,5.356575 -11.85855,12.3334 -15.56445,19.978516 -4.71305,9.898806 -6.44627,21.026047 -5.94141,31.925781 0.47583,11.157654 3.58135,22.322583 9.73633,31.705079 4.90789,7.615535 11.54124,14.324155 19.71679,18.376955 9.09468,4.46607 19.86454,5.27981 29.57813,2.47266 6.31039,-1.79924 12.05761,-5.28099 16.83789,-9.7461 6.24494,-5.80985 11.11094,-13.067802 14.3125,-20.962891 4.38584,-10.981729 5.41656,-23.116976 3.9707,-34.796874 -1.22044,-9.430684 -4.46372,-18.655297 -9.86328,-26.515626 C 271.19212,21.74409 264.93504,15.464751 257.25977,11.572263 251.96959,8.9032813 246.10187,7.4651827 240.1875,7.3007786 Z m -1.35742,3.9941408 c 12.00136,-0.0332 22.26078,5.17805 30.77539,15.632812 8.5144,10.401842 12.79895,23.012415 12.85547,37.830078 0.0565,14.817664 -4.13173,27.476869 -12.56641,37.978518 -8.43488,10.44873 -18.65294,15.68946 -30.6543,15.72265 -12.00135,0.0332 -22.25903,-5.15089 -30.77343,-15.55273 -8.51461,-10.454762 -12.80091,-23.09054 -12.85742,-37.908203 -0.0565,-14.817664 4.13347,-27.451663 12.56835,-37.900391 8.43468,-10.501647 18.65099,-15.769536 30.65235,-15.802734 z m 0.0684,17.861328 c -0.63165,0.0017 -1.2856,0.665336 -1.96485,1.990234 l -6.32031,19.863282 -19.26562,0.05273 c -1.31594,0.0036 -1.97333,0.349146 -1.97071,1.037109 0.002,0.635043 0.63791,1.61213 1.90625,2.931641 l 14.33203,10.359375 -8.27343,25.345703 c -0.41787,0.847889 -0.62682,1.510046 -0.625,1.986328 0.002,0.423362 0.2411,0.634123 0.71484,0.632813 0.4211,-0.0012 1.07748,-0.214788 1.9707,-0.640625 l 19.67578,-16.802735 19.80274,16.69336 c 0.89645,0.420886 1.55546,0.632024 1.97656,0.630859 0.4211,-0.0012 0.63052,-0.213357 0.62891,-0.636719 -0.002,-0.423361 -0.21414,-1.085896 -0.63867,-1.984375 l -8.38868,-25.298828 14.17383,-10.4375 c 1.3109,-1.326646 1.96356,-2.333521 1.96094,-3.021484 -0.002,-0.635043 -0.66062,-0.950906 -1.97656,-0.947266 l -19.26563,0.05273 -6.4707,-19.828125 c -0.6367,-1.321259 -1.29813,-1.980409 -1.98242,-1.978516 z m 0.0352,8.884766 c 1.69141,5.183593 3.38282,10.367187 5.07422,15.550781 0.29505,0.444932 0.13073,1.524383 0.85157,1.380859 4.98321,-0.01371 9.96601,-0.02708 14.94921,-0.04102 -4.01918,2.959219 -8.03555,5.922272 -12.05664,8.878906 2.17495,6.561258 4.35029,13.122387 6.52539,19.683594 -5.07222,-4.276744 -10.14483,-8.553033 -15.21679,-12.830079 -5.06794,4.325792 -10.13399,8.653792 -15.20117,12.980469 2.15312,-6.595659 4.3051,-13.191694 6.45898,-19.787109 -4.06016,-2.938283 -8.12351,-5.872162 -12.18359,-8.810547 5.13411,-0.01368 10.26822,-0.0273 15.40234,-0.04102 1.79748,-5.655455 3.59233,-11.311606 5.39648,-16.964843 z"
           id="path32"
           inkscape:connector-curvature="0"
           style="fill:#fad60b" />
      </g>
      <g
         id="g44">
        <path
           d="m 181.63954,123.92445 q -1.97921,3.95843 -6.09597,4.03759 h -13.77531 q -3.87925,-0.0792 -5.85846,-4.03759 L 138.09689,28.922308 q 0,-3.879254 1.97921,-3.958423 h 15.8337 q 1.90004,0 3.95842,3.958423 l 9.0252,45.917703 8.7877,-45.917703 q 1.97921,-3.958423 3.95842,-3.958423 h 15.20035 q 2.61256,0.07917 2.61256,3.958423 z"
           transform="matrix(0.99488014,-0.06977591,0.07119874,1.0001527,0,0)"
           id="path36"
           inkscape:connector-curvature="0"
           style="fill:#f3010f;stroke-width:2.5" />
        <path
           d="m 199.32617,9.244141 c -5.29873,0.395607 -10.61202,0.689756 -15.91601,1.164062 -2.905,0.626343 -4.81979,3.227056 -5.92969,5.814453 -0.91573,1.726758 -0.7348,3.738631 -1.06641,5.611328 l -2.60742,22.171875 c -2.33306,-8.625547 -4.66307,-17.251926 -6.99805,-25.876953 -1.50796,-2.449119 -3.36682,-5.07157 -6.30273,-5.845703 -2.00428,-0.443033 -4.06535,0.07374 -6.08984,0.113281 -4.12235,0.32151 -8.27791,0.499639 -12.40625,0.941407 -2.73209,0.564873 -4.47193,3.349083 -4.55274,6.019531 -0.31703,2.630306 0.7813,5.113025 1.34375,7.628906 7.80281,29.881 15.60537,59.761582 23.4082,89.642582 1.7413,3.33278 5.14389,6.02847 9.02149,6.04101 2.60328,0.0294 5.19058,-0.34094 7.78906,-0.46094 2.91655,-0.24188 5.8612,-0.28402 8.75195,-0.75195 3.73382,-0.85726 6.86793,-3.98007 7.73243,-7.70898 3.66708,-32.21952 7.33328,-64.444757 11.0039,-96.666019 -0.0783,-2.758318 -1.1669,-5.799998 -3.7539,-7.132812 -1.04626,-0.554686 -2.251,-0.769873 -3.42774,-0.705078 z m 0.28321,3.988281 c 1.73654,-0.06874 2.69672,1.19078 2.88085,3.777344 L 191.5332,113.26953 c -1.12482,2.73142 -3.05064,4.21861 -5.77734,4.46289 l -13.70508,0.96094 c -2.57669,0.12765 -4.61463,-1.08165 -6.11523,-3.62891 L 141.44922,21.291016 c -0.18413,-2.586564 0.37854,-3.952802 1.6875,-4.097657 l 15.75195,-1.103515 c 1.26021,-0.08838 2.66759,1.138039 4.22071,3.68164 l 12.24804,45.294922 5.47266,-46.537109 c 1.12482,-2.731419 2.34353,-4.144261 3.65625,-4.236328 z"
           id="path38"
           inkscape:connector-curvature="0"
           style="fill:#845f23;stroke-width:2.5" />
        <path
           d="m 197.60938,11.232422 -15.12305,1.060547 c -1.31272,0.09207 -2.53142,1.504909 -3.65625,4.236328 l -5.03125,42.775391 1.55859,5.761718 5.47266,-46.537109 c 1.12482,-2.731419 2.34353,-4.144261 3.65625,-4.236328 l 15.12305,-1.060547 c 0.20398,-0.0081 0.39556,0.0066 0.57812,0.03516 -0.43475,-1.404529 -1.29247,-2.086049 -2.57812,-2.035156 z m -40.72071,2.857422 -15.75195,1.103515 c -1.30896,0.144855 -1.87163,1.511092 -1.6875,4.097657 l 24.48633,93.773434 c 0.69617,1.18176 1.51362,2.06194 2.4414,2.66797 -0.14993,-0.21506 -0.30089,-0.42945 -0.4414,-0.66797 L 141.44922,21.291016 c -0.18413,-2.586564 0.37854,-3.952802 1.6875,-4.097657 l 15.75195,-1.103515 c 0.43088,-0.03022 0.88047,0.105526 1.34571,0.382812 -1.21079,-1.650061 -2.32651,-2.454294 -3.34571,-2.382812 z"
           id="path40"
           inkscape:connector-curvature="0"
           style="fill:#bb000f" />
        <path
           d="m 197.32617,7.2441406 c -5.29873,0.3956071 -10.61202,0.6897564 -15.91601,1.1640625 -2.905,0.6263428 -4.81979,3.2270559 -5.92969,5.8144529 -0.91573,1.726758 -0.7348,3.738631 -1.06641,5.611328 l -2.60742,22.171875 c -2.33306,-8.625547 -4.66307,-17.251926 -6.99805,-25.876953 -1.50796,-2.449119 -3.36682,-5.07157 -6.30273,-5.845703 -2.00428,-0.4430327 -4.06535,0.07374 -6.08984,0.113281 -4.12235,0.32151 -8.27791,0.499639 -12.40625,0.941407 -2.73209,0.564873 -4.47193,3.349083 -4.55274,6.019531 -0.31703,2.630306 0.7813,5.113025 1.34375,7.628906 7.80281,29.881 15.60537,59.761582 23.4082,89.642582 1.7413,3.33278 5.14389,6.02847 9.02149,6.04101 2.60328,0.0294 5.19058,-0.34094 7.78906,-0.46094 2.91655,-0.24188 5.8612,-0.28402 8.75195,-0.75195 3.73382,-0.85726 6.86793,-3.98007 7.73243,-7.70898 3.66708,-32.21952 7.33328,-64.444757 11.0039,-96.666019 -0.0783,-2.758318 -1.1669,-5.7999983 -3.7539,-7.1328122 -1.04626,-0.5546862 -2.251,-0.769873 -3.42774,-0.7050782 z m 0.28321,3.9882814 c 1.73654,-0.06874 2.69672,1.19078 2.88085,3.777344 L 189.5332,111.26953 c -1.12482,2.73142 -3.05064,4.21861 -5.77734,4.46289 l -13.70508,0.96094 c -2.57669,0.12765 -4.61463,-1.08165 -6.11523,-3.62891 L 139.44922,19.291016 c -0.18413,-2.586564 0.37854,-3.952802 1.6875,-4.097657 l 15.75195,-1.103515 c 1.26021,-0.08838 2.66759,1.138039 4.22071,3.68164 l 12.24804,45.294922 5.47266,-46.537109 c 1.12482,-2.731419 2.34353,-4.144261 3.65625,-4.236328 z"
           id="path42"
           inkscape:connector-curvature="0"
           style="fill:#fad60b;stroke-width:2.5" />
      </g>
    </g>
    <g
       transform="translate(-37.915042,-7.232985)"
       id="g56">
      <path
         d="m 310.11386,52.034115 -11.7961,-1.108358 -2.13755,23.671368 11.87527,1.02919 q 0.63335,0.07917 1.2667,0.07917 4.11676,0 7.44183,-2.770896 3.72092,-3.166738 4.11676,-8.075182 0.0792,-0.633348 0.0792,-1.266695 0,-4.11676 -2.7709,-7.441835 -3.16673,-3.720917 -8.07518,-4.11676 z m 7.20433,54.230395 h -0.15834 q 0.23751,-0.95003 0.31668,-1.97922 0.0792,-0.55417 0.0792,-1.10835 0,-4.195931 -2.85007,-7.600175 -3.16674,-3.720917 -8.07518,-4.11676 l -11.7961,-1.029189 -3.48341,39.425894 q -0.31668,3.56258 -3.72092,3.56258 h -0.55418 l -11.7961,-1.02919 q -3.64175,-0.31668 -3.64175,-3.72092 V 128.115 l 8.31269,-94.685471 q 0.31667,-3.562581 3.72092,-3.562581 h 0.55418 l 27.62979,2.375054 q 13.06279,1.187527 21.53382,10.608573 7.521,8.471024 7.521,19.158766 0,1.266695 -0.0792,2.612559 -1.10836,12.191941 -11.08358,20.108787 -0.39584,0.316674 -0.95002,0.712516 0.47501,0.395842 0.79168,0.870853 7.521,8.391856 7.521,19.079594 0,1.2667 -0.0792,2.61256 l -2.29589,25.65058 q -0.31667,3.56258 -3.72092,3.56258 h -0.55418 l -11.7961,-1.02919 q -3.64174,-0.31667 -3.64174,-3.72092 v -0.55417 z"
         transform="matrix(0.99541819,-0.06162638,0.06300598,1.0007022,0,0)"
         id="path48"
         inkscape:connector-curvature="0"
         style="fill:#f3010f;stroke-width:2.5" />
      <path
         d="m 286.26562,12.382813 c -2.89121,0.06631 -5.85599,1.727671 -6.86523,4.539062 -0.96792,2.443371 -0.54562,5.121547 -0.73437,7.679687 -0.73229,30.41039 -1.48957,60.819766 -2.19336,91.230468 0.009,2.96276 1.69418,6.03851 4.58203,7.06055 2.48727,0.97029 5.20554,0.55285 7.80664,0.74219 2.90416,0.0284 5.89906,0.28584 8.8457,0.082 2.98287,-0.34335 5.69865,-2.63918 6.23242,-5.64453 0.47506,-2.29528 0.22452,-4.65563 0.38086,-6.98047 0.25374,-10.21992 0.50798,-20.440244 0.76172,-30.660159 2.80221,0.07469 5.56746,0.100499 8.31445,0.24414 4.29317,0.125272 7.82385,4.520105 7.1543,8.740235 -0.28487,2.054069 -0.6505,4.096503 -0.95312,6.148437 0.83167,-0.418951 0.95674,0.02969 0.81445,0.804688 -0.16443,7.020049 -0.41687,14.039529 -0.49219,21.060549 0.1322,2.94912 2.03068,5.87531 4.93946,6.72656 2.42842,0.79647 5.02255,0.42719 7.52929,0.60937 2.82702,0.0279 5.76051,0.27158 8.64258,0.0918 3.01911,-0.3046 5.78906,-2.61167 6.33203,-5.64844 0.47607,-2.29569 0.23154,-4.65692 0.38867,-6.98242 0.16502,-7.4944 0.46162,-14.988581 0.51367,-22.484372 -0.1585,-6.797642 -2.4862,-13.544584 -6.71289,-18.888672 -0.3836,-0.498766 -0.78884,-0.981774 -1.20117,-1.457032 5.05423,-5.253001 8.32439,-12.236635 8.86133,-19.527343 0.63877,-7.452908 -1.25786,-15.145339 -5.57227,-21.28711 -4.97658,-7.176254 -12.59826,-12.56823 -21.14648,-14.507782 -3.71158,-0.931456 -7.55122,-1.076809 -11.35937,-1.109375 -8.28965,-0.194133 -16.57911,-0.425939 -24.86915,-0.582031 z m 0.53907,3.990234 27.65429,0.673828 c 8.71851,0.255565 16.08632,3.35198 22.10352,9.289063 5.34684,5.34232 8.24443,11.576866 8.69336,18.707031 0.0532,0.845056 0.0819,1.718014 0.0859,2.61914 -0.22341,8.179205 -3.47849,15.115213 -9.76563,20.806641 -0.24938,0.227527 -0.55121,0.484636 -0.90234,0.771484 0.33185,0.244565 0.61365,0.51838 0.84375,0.822266 5.34351,5.289505 8.24052,11.500697 8.68945,18.630859 0.0532,0.84506 0.08,1.718017 0.084,2.619141 l -0.66797,25.81055 c -0.0605,2.38973 -1.22134,3.65311 -3.48047,3.79297 l -0.55078,0.0352 -11.80664,-0.30273 c -2.43001,-0.0617 -3.71639,-1.22894 -3.85938,-3.5 l -0.0352,-0.55469 0.66993,-25.810547 -0.15821,0.0098 c 0.11772,-0.643556 0.18015,-1.310139 0.18946,-2 0.0293,-0.37296 0.033,-0.743569 0.01,-1.113281 -0.17624,-2.799253 -1.28207,-5.275691 -3.3164,-7.429688 -2.25778,-2.35225 -5.02295,-3.560626 -8.29688,-3.623047 l -11.80664,-0.302734 -0.98437,39.667967 c -0.0605,2.38973 -1.21945,3.65506 -3.47852,3.79492 l -0.55273,0.0352 -11.80664,-0.30274 c -2.43002,-0.0617 -3.71639,-1.22893 -3.85938,-3.5 l -0.0352,-0.55469 2.3086,-95.263664 c 0.0605,-2.389731 1.22139,-3.655061 3.48047,-3.794922 z m 15.35547,20.205078 -0.63672,23.818359 11.88476,0.298828 c 0.42362,0.02679 0.84728,0.02599 1.26758,0 2.73193,-0.169133 5.14226,-1.245299 7.23242,-3.230468 2.33624,-2.265512 3.53333,-5.043128 3.58985,-8.333985 0.0259,-0.425782 0.0246,-0.85091 -0.002,-1.273437 -0.17292,-2.746434 -1.24809,-5.170958 -3.22656,-7.275391 -2.25777,-2.35225 -5.02489,-3.560626 -8.29883,-3.623047 z m 3.89062,4.125 c 2.5905,0.08398 5.18099,0.167969 7.77149,0.251953 4.01299,-0.103951 7.67839,3.442952 7.6914,7.460938 0.13798,2.590316 -0.97328,5.245855 -3.10351,6.779296 -1.54924,1.210812 -3.55803,1.710324 -5.5,1.486329 -2.42713,-0.06092 -4.85412,-0.122672 -7.28125,-0.183594 0.14062,-5.264974 0.28125,-10.529948 0.42187,-15.794922 z"
         id="path50"
         inkscape:connector-curvature="0"
         style="fill:#845f23;stroke-width:2.5" />
      <path
         d="m 288.04297,12.402344 c -1.79663,0.09183 -3.5924,0.791761 -4.91992,1.998047 -0.2068,0.507301 -0.33187,1.100012 -0.34961,1.800781 l -2.3086,95.263668 0.0352,0.55469 c 0.0995,1.57993 0.76636,2.6124 1.97266,3.12305 l 2.30078,-94.941408 c 0.0605,-2.389731 1.22139,-3.655061 3.48047,-3.794922 l 0.55078,-0.0332 27.65429,0.673828 c 8.71851,0.255565 16.08632,3.35198 22.10352,9.289063 1.90766,1.906051 3.4893,3.931097 4.77344,6.064453 -1.45563,-3.647863 -3.70991,-7.003512 -6.77344,-10.064453 -6.0172,-5.937082 -13.38501,-9.033498 -22.10352,-9.289063 z m 37.07617,29.189453 c 0.19578,0.730266 0.32769,1.483261 0.37695,2.265625 0.0266,0.422528 0.0279,0.847657 0.002,1.273437 -0.0518,3.015978 -1.07444,5.595231 -3.04102,7.75 -0.51161,0.898823 -1.19296,1.699764 -2.04687,2.314453 -1.54924,1.210812 -3.55803,1.710324 -5.5,1.486329 -0.028,-7.03e-4 -0.056,-0.0013 -0.084,-0.002 -0.0507,0.0038 -0.0994,0.01247 -0.15039,0.01562 -0.4203,0.02602 -0.84395,0.0268 -1.26758,0 l -9.77929,-0.246093 -0.10547,3.947265 11.88476,0.298828 c 0.42362,0.02679 0.84728,0.02599 1.26758,0 2.73193,-0.169133 5.14226,-1.245299 7.23242,-3.230468 2.33624,-2.265512 3.53333,-5.043128 3.58985,-8.333985 0.0259,-0.425782 0.0246,-0.85091 -0.002,-1.273437 -0.146,-2.318887 -0.94391,-4.404614 -2.37695,-6.265625 z m 12.53711,26.800781 c -0.0275,0.02503 -0.0525,0.05119 -0.0801,0.07617 -0.24938,0.227527 -0.55121,0.484636 -0.90234,0.771484 0.33185,0.244565 0.61365,0.51838 0.84375,0.822266 1.91429,1.894941 3.50086,3.913528 4.78711,6.044922 -1.09234,-2.74323 -2.64216,-5.315311 -4.64844,-7.714844 z m -13.44531,12.958984 c 0.20372,0.750415 0.34003,1.524534 0.39062,2.328126 0.0233,0.369712 0.0195,0.740316 -0.01,1.113281 -0.009,0.689861 -0.0717,1.35645 -0.18946,2 l 0.15821,-0.0098 -0.66993,25.810551 0.0352,0.55469 c 0.0995,1.58097 0.76483,2.61471 1.97266,3.125 l 0.66211,-25.490241 -0.15821,0.0098 c 0.11772,-0.643556 0.18015,-1.310139 0.18946,-2 0.0293,-0.37296 0.0328,-0.743569 0.01,-1.113281 -0.147,-2.334855 -0.95078,-4.442232 -2.39062,-6.328126 z"
         transform="translate(-2)"
         id="path52"
         inkscape:connector-curvature="0"
         style="fill:#bb000f" />
      <path
         d="m 284.26562,8.3828125 c -2.89121,0.066307 -5.85599,1.7276715 -6.86523,4.5390625 -0.96792,2.443371 -0.54562,5.121547 -0.73437,7.679687 -0.73229,30.41039 -1.48957,60.819766 -2.19336,91.230468 0.009,2.96276 1.69418,6.03851 4.58203,7.06055 2.48727,0.97029 5.20554,0.55285 7.80664,0.74219 2.90416,0.0284 5.89906,0.28584 8.8457,0.082 2.98287,-0.34335 5.69865,-2.63918 6.23242,-5.64453 0.47506,-2.29528 0.22452,-4.65563 0.38086,-6.98047 0.25374,-10.219923 0.50798,-20.440244 0.76172,-30.660159 2.80221,0.07469 5.56746,0.100499 8.31445,0.24414 4.29317,0.125272 7.82385,4.520105 7.1543,8.740235 -0.28487,2.054069 -0.6505,4.096503 -0.95312,6.148437 0.83167,-0.418951 0.95674,0.02969 0.81445,0.804688 -0.16443,7.020047 -0.41687,14.039529 -0.49219,21.060549 0.1322,2.94912 2.03068,5.87531 4.93946,6.72656 2.42842,0.79647 5.02255,0.42719 7.52929,0.60937 2.82702,0.0279 5.76051,0.27158 8.64258,0.0918 3.01911,-0.3046 5.78906,-2.61167 6.33203,-5.64844 0.47607,-2.29569 0.23154,-4.65692 0.38867,-6.98242 0.16502,-7.4944 0.46162,-14.988581 0.51367,-22.484372 -0.1585,-6.797642 -2.4862,-13.544584 -6.71289,-18.888672 -0.3836,-0.498766 -0.78884,-0.981774 -1.20117,-1.457032 5.05423,-5.253001 8.32439,-12.236635 8.86133,-19.527343 0.63877,-7.452908 -1.25786,-15.145339 -5.57227,-21.28711 C 336.66404,17.405747 329.04236,12.013771 320.49414,10.074219 316.78256,9.1427626 312.94292,8.9974104 309.13477,8.9648438 300.84512,8.7707113 292.55566,8.5389046 284.26562,8.3828125 Z m 0.53907,3.9902345 27.65429,0.673828 c 8.71851,0.255565 16.08632,3.35198 22.10352,9.289063 5.34684,5.34232 8.24443,11.576866 8.69336,18.707031 0.0532,0.845056 0.0819,1.718014 0.0859,2.61914 -0.22341,8.179205 -3.47849,15.115213 -9.76563,20.806641 -0.24938,0.227527 -0.55121,0.484636 -0.90234,0.771484 0.33185,0.244565 0.61365,0.51838 0.84375,0.822266 5.34351,5.289505 8.24052,11.500697 8.68945,18.630859 0.0532,0.84506 0.08,1.718017 0.084,2.619141 l -0.66797,25.81055 c -0.0605,2.38973 -1.22134,3.65311 -3.48047,3.79297 l -0.55078,0.0352 -11.80664,-0.30273 c -2.43001,-0.0617 -3.71639,-1.22894 -3.85938,-3.5 l -0.0352,-0.55469 0.66993,-25.810547 -0.15821,0.0098 c 0.11772,-0.643556 0.18015,-1.310139 0.18946,-2 0.0293,-0.37296 0.033,-0.743569 0.01,-1.113281 -0.17624,-2.799253 -1.28207,-5.275691 -3.3164,-7.429688 -2.25778,-2.35225 -5.02295,-3.560626 -8.29688,-3.623047 l -11.80664,-0.302734 -0.98437,39.667967 c -0.0605,2.38973 -1.21945,3.65506 -3.47852,3.79492 l -0.55273,0.0352 -11.80664,-0.30274 c -2.43002,-0.0617 -3.71639,-1.22893 -3.85938,-3.5 l -0.0352,-0.55469 2.3086,-95.263664 c 0.0605,-2.389731 1.22139,-3.655061 3.48047,-3.794922 z m 15.35547,20.205078 -0.63672,23.818359 11.88476,0.298828 c 0.42362,0.02679 0.84728,0.02599 1.26758,0 2.73193,-0.169133 5.14226,-1.245299 7.23242,-3.230468 2.33624,-2.265512 3.53333,-5.043128 3.58985,-8.333985 0.0259,-0.425782 0.0246,-0.85091 -0.002,-1.273437 -0.17292,-2.746434 -1.24809,-5.170958 -3.22656,-7.275391 -2.25777,-2.35225 -5.02489,-3.560626 -8.29883,-3.623047 z m 3.89062,4.125 c 2.5905,0.08398 5.18099,0.167969 7.77149,0.251953 4.01299,-0.103951 7.67839,3.442952 7.6914,7.460938 0.13798,2.590316 -0.97328,5.245855 -3.10351,6.779296 -1.54924,1.210812 -3.55803,1.710324 -5.5,1.486329 -2.42713,-0.06092 -4.85412,-0.122672 -7.28125,-0.183594 0.14062,-5.264974 0.28125,-10.529948 0.42187,-15.794922 z"
         id="path54"
         inkscape:connector-curvature="0"
         style="fill:#fad60b;stroke-width:2.5" />
    </g>
    <g
       transform="translate(-39.915042,-7.232985)"
       id="g68">
      <g
         id="g64"
         style="stroke-width:2.5">
        <path
           d="m 361.71951,125.51262 q 0,3.95842 -3.87925,3.95842 h -11.95444 q -3.95842,0 -3.95842,-3.95842 V 30.510472 q 0,-3.958423 3.95842,-3.958423 h 11.87527 q 3.95842,0 3.95842,3.958423 z"
           transform="matrix(0.99649149,-0.04074225,0.04201076,1.0018032,0,0)"
           id="path58"
           inkscape:connector-curvature="0"
           style="fill:#f3010f" />
        <path
           d="m 359.52148,12.025391 c -4.43842,0.220549 -8.88892,0.273678 -13.31836,0.626953 -3.06333,0.457377 -5.74188,3.007568 -6.06835,6.134765 -0.31582,2.362739 0.0917,4.740948 0.0937,7.111329 1.27387,30.304163 2.52139,60.60999 3.83593,90.912112 0.25625,3.03768 2.46298,5.93055 5.52539,6.54101 2.43076,0.56059 4.92747,0.0525 7.38672,0.0625 2.97857,-0.16955 5.97981,-0.11332 8.93946,-0.5 3.01531,-0.57279 5.50626,-3.24309 5.7207,-6.33008 0.2307,-2.41224 -0.13336,-4.82892 -0.14844,-7.24414 -1.26818,-30.136638 -2.51325,-60.275139 -3.8125,-90.410152 -0.21561,-3.034232 -2.37242,-5.947382 -5.41016,-6.623047 -0.89287,-0.242595 -1.82275,-0.298384 -2.74414,-0.28125 z m 0.0996,3.998047 c 2.62969,-0.107517 4.00047,1.16098 4.11133,3.804687 l 3.99024,95.173825 c 0.11086,2.64371 -1.12213,4.01769 -3.69922,4.12305 l -11.91211,0.48828 c -2.6297,0.10751 -4.00047,-1.16098 -4.11133,-3.80469 l -3.99023,-95.173824 c -0.11087,-2.643708 1.14765,-4.019437 3.77734,-4.126954 z"
           id="path60"
           inkscape:connector-curvature="0"
           style="fill:#845f23" />
        <path
           d="m 357.52148,8.0253906 c -4.43842,0.2205494 -8.88892,0.2736785 -13.31836,0.6269532 -3.06333,0.4573772 -5.74188,3.0075682 -6.06835,6.1347652 -0.31582,2.362739 0.0917,4.740948 0.0937,7.111329 1.27387,30.304163 2.52139,60.60999 3.83593,90.912112 0.25625,3.03768 2.46298,5.93055 5.52539,6.54101 2.43076,0.56059 4.92747,0.0525 7.38672,0.0625 2.97857,-0.16955 5.97981,-0.11332 8.93946,-0.5 3.01531,-0.57279 5.50626,-3.24309 5.7207,-6.33008 0.2307,-2.41224 -0.13336,-4.82892 -0.14844,-7.24414 -1.26818,-30.136638 -2.51325,-60.275139 -3.8125,-90.410152 -0.21561,-3.034232 -2.37242,-5.9473819 -5.41016,-6.6230474 -0.89287,-0.2425944 -1.82275,-0.2983832 -2.74414,-0.28125 z m 0.0996,3.9980474 c 2.62969,-0.107517 4.00047,1.16098 4.11133,3.804687 l 3.99024,95.173825 c 0.11086,2.64371 -1.12213,4.01769 -3.69922,4.12305 l -11.91211,0.48828 c -2.6297,0.10751 -4.00047,-1.16098 -4.11133,-3.80469 l -3.99023,-95.173824 c -0.11087,-2.643708 1.14765,-4.019437 3.77734,-4.126954 z"
           id="path62"
           inkscape:connector-curvature="0"
           style="fill:#fad60b" />
      </g>
      <path
         d="m 358.61523,12.060547 c -4.13793,0.18634 -8.28393,0.262549 -12.41211,0.591797 -1.45957,0.217925 -2.82246,0.921595 -3.89453,1.925781 -0.22266,0.571474 -0.33275,1.247719 -0.29882,2.056641 L 346,111.80859 c 0.0752,1.79253 0.74341,2.93715 1.97656,3.46485 l -3.96679,-94.638674 c -0.11087,-2.643708 1.14765,-4.019436 3.77734,-4.126954 l 11.83398,-0.484374 c 0.84606,-0.03459 1.54742,0.08959 2.13282,0.339843 l -0.0215,-0.535156 c -0.0959,-2.286163 -1.13773,-3.538791 -3.11719,-3.767578 z"
         id="path66"
         inkscape:connector-curvature="0"
         style="fill:#bb000f" />
    </g>
    <g
       transform="translate(-131.91504,-7.232985)"
       id="g78">
      <path
         d="m 496.58813,39.880223 q 4.90844,0 8.39185,-3.483412 3.48342,-3.483412 3.48342,-8.391856 0,-4.908444 -3.48342,-8.391856 -3.48341,-3.483412 -8.39185,-3.483412 -13.14197,0 -22.40468,-8.7085299 -9.2627,-8.70853 -9.2627,-20.9796401 0,-12.271111 9.2627,-20.97964 9.26271,-8.70853 22.40468,-8.70853 h 23.75053 q 3.95843,0 3.95843,3.958422 v 11.875268 q 0,3.958423 -3.95843,3.958423 h -23.75053 q -4.90845,0 -8.39186,3.483412 -3.48341,3.483412 -3.48341,8.391856 0,4.9084443 3.48341,8.3918563 3.48341,3.48341192 8.39186,3.48341192 13.14196,0 22.40467,8.70852988 9.26271,8.7085299 9.26271,20.9796399 0,12.271111 -9.26271,20.979641 -9.26271,8.70853 -22.40467,8.70853 h -23.75054 q -3.95842,0 -3.95842,-3.958423 V 43.838646 q 0,-3.958423 3.95842,-3.958423 z"
         transform="matrix(0.99079461,0.11393571,-0.11350436,0.99623857,0,0)"
         id="path70"
         inkscape:connector-curvature="0"
         style="fill:#f3010f;stroke-width:2.5" />
      <path
         d="m 494.12891,13.253906 c -8.07218,0.05844 -16.02751,3.101717 -22.20508,8.273438 -5.50388,4.48519 -9.58865,10.771456 -11.08399,17.742187 -1.82294,7.893879 -0.78067,16.525606 3.41211,23.517578 4.58369,7.939953 12.23582,14.1435 21.11133,16.587891 2.5076,0.739103 5.10987,1.052773 7.67578,1.496094 3.76526,1.031643 6.32778,5.188608 5.52539,9.019531 -0.61056,3.953669 -4.6485,7.054731 -8.64062,6.439453 -8.21023,-0.915304 -16.40901,-1.945501 -24.62695,-2.777344 -3.10524,-0.143736 -6.25196,1.843848 -7.17188,4.867188 -0.73445,2.183538 -0.66847,4.463028 -1.01953,6.699218 -0.29538,3.03069 -0.82212,6.04856 -0.90625,9.09375 0.0824,3.07506 2.29099,5.99803 5.31836,6.7168 2.28611,0.60755 4.67376,0.61496 7.0039,0.96875 6.91323,0.76284 13.81325,1.66825 20.73829,2.31054 7.8825,0.50419 15.92485,-1.68606 22.38476,-6.25195 6.21488,-4.25325 11.19573,-10.52737 13.20508,-17.84961 2.43336,-8.358638 1.60426,-17.760556 -2.89063,-25.291014 -4.6854,-8.180893 -12.64139,-14.527201 -21.82421,-16.841797 -2.26294,-0.633875 -4.59797,-0.923796 -6.91016,-1.294921 -3.77536,-0.98657 -6.39374,-5.111656 -5.63477,-8.951172 0.54307,-3.807032 4.2466,-6.876131 8.10352,-6.589844 5.81044,0.630213 11.61743,1.34069 17.42773,1.992187 2.66777,0.27936 5.33114,0.653865 8.00586,0.84375 3.02855,0.03142 6.04056,-1.942572 6.92188,-4.894531 0.73959,-2.209151 0.6687,-4.513882 1.02539,-6.77539 0.29529,-3.003787 0.8128,-5.994585 0.89648,-9.013672 -0.0907,-3.068454 -2.2954,-5.97723 -5.31445,-6.699219 -2.28861,-0.606291 -4.67757,-0.613609 -7.00977,-0.966797 -6.88569,-0.761268 -13.75957,-1.658609 -20.65625,-2.306641 -0.95283,-0.05552 -1.90689,-0.07388 -2.86132,-0.06445 z m 0.0137,4 c 1.56071,-0.02653 3.15558,0.05502 4.7832,0.242188 l 23.53125,2.705078 c 2.61466,0.300671 3.77218,1.765509 3.47266,4.394531 l -1.34766,11.830078 c -0.29953,2.629023 -1.75643,3.792859 -4.37109,3.492188 l -23.53125,-2.705078 c -3.24218,-0.372832 -6.14645,0.464721 -8.71094,2.513671 -2.56448,2.04895 -4.03288,4.702904 -4.4043,7.962891 -0.37142,3.259988 0.4627,6.179683 2.5,8.757813 2.03731,2.578129 4.67579,4.052949 7.91797,4.425781 8.68066,0.998226 15.75161,4.741098 21.21094,11.228515 5.45932,6.487419 7.72542,13.807063 6.79687,21.957032 -0.92855,8.149966 -4.78328,14.765426 -11.56054,19.845706 -6.77726,5.08028 -14.50489,7.12127 -23.18555,6.12304 l -23.5332,-2.70703 c -2.61466,-0.30067 -3.77219,-1.76551 -3.47266,-4.39453 l 1.34961,-11.83008 c 0.29953,-2.62902 1.75644,-3.792855 4.37109,-3.492184 l 23.53125,2.705074 c 3.24218,0.37283 6.14646,-0.464719 8.71094,-2.513668 2.56449,-2.048949 4.03093,-4.702903 4.40235,-7.962891 0.37142,-3.259987 -0.46074,-6.179682 -2.49805,-8.757812 -2.03731,-2.57813 -4.67775,-4.05295 -7.91992,-4.425781 -8.68066,-0.998226 -15.74966,-4.741098 -21.20899,-11.228516 -5.45931,-6.487417 -7.72542,-13.807063 -6.79687,-21.957031 0.92854,-8.14997 4.78133,-14.76347 11.55859,-19.84375 5.50653,-4.127728 11.64123,-6.250271 18.4043,-6.365235 z"
         id="path72"
         inkscape:connector-curvature="0"
         style="fill:#845f23;stroke-width:2.5" />
      <path
         d="m 493.74609,13.265625 c -7.94037,0.150292 -15.74247,3.171852 -21.82226,8.261719 -1.90881,1.555517 -3.63178,3.33905 -5.15039,5.28125 -2.5171,3.700887 -4.05387,7.915673 -4.59375,12.654297 -0.73207,6.425408 0.53109,12.332591 3.76953,17.724609 -1.72828,-4.27852 -2.32467,-8.852118 -1.76953,-13.724609 0.92854,-8.14997 4.78133,-14.76347 11.55859,-19.84375 5.50653,-4.127728 11.64123,-6.250271 18.4043,-6.365235 1.56071,-0.02653 3.15558,0.05502 4.7832,0.242188 l 23.53125,2.705078 c 0.56386,0.06484 1.04628,0.194066 1.47461,0.367187 0.28777,-2.610846 -0.86956,-4.067621 -3.47461,-4.367187 l -23.53125,-2.705078 c -1.07444,-0.123554 -2.13441,-0.200037 -3.17969,-0.230469 z m -9.86523,38.927734 c 0.41077,1.507897 1.13491,2.926838 2.18359,4.253907 2.03731,2.578129 4.67579,4.052949 7.91797,4.425781 8.68066,0.998226 15.75161,4.741099 21.21094,11.228515 1.15483,1.372304 2.1583,2.783706 3.02734,4.230469 -1.16235,-2.876798 -2.83257,-5.622376 -5.02734,-8.230469 -5.45932,-6.487417 -12.53028,-10.230289 -21.21094,-11.228515 -3.24217,-0.372832 -5.88066,-1.847652 -7.91797,-4.425781 -0.0659,-0.08342 -0.12019,-0.169769 -0.18359,-0.253907 z m 16.40625,29.134766 c 0.38705,1.421488 0.49666,2.921829 0.31641,4.503906 -0.2949,2.588342 -1.29136,4.78837 -2.96875,6.613281 -1.52546,2.595781 -4.5679,4.314166 -7.60743,3.894532 -0.8222,0.07466 -1.66597,0.06893 -2.53711,-0.03125 l -23.44335,-2.695313 c -1.50294,0.200533 -2.94259,0.870344 -4.05469,1.890625 -0.1956,0.453627 -0.33448,0.978996 -0.4043,1.591797 l -1.34961,11.830077 c -0.23493,2.062 0.44029,3.39766 1.99805,4.02734 10e-4,-0.01 8.5e-4,-0.0177 0.002,-0.0273 l 1.34961,-11.83008 c 0.29953,-2.629017 1.75644,-3.792855 4.37109,-3.492184 l 23.53125,2.705074 c 3.24218,0.37283 6.14646,-0.464719 8.71094,-2.513668 2.56449,-2.048949 4.03093,-4.702903 4.40235,-7.962891 0.35944,-3.154884 -0.41999,-5.987583 -2.31641,-8.503906 z"
         id="path74"
         inkscape:connector-curvature="0"
         style="fill:#bb000f" />
      <path
         d="m 492.12891,9.2539062 c -8.07218,0.058438 -16.02751,3.1017168 -22.20508,8.2734378 -5.50388,4.48519 -9.58865,10.771456 -11.08399,17.742187 -1.82294,7.893879 -0.78067,16.525606 3.41211,23.517578 4.58369,7.939953 12.23582,14.1435 21.11133,16.587891 2.5076,0.739103 5.10987,1.052773 7.67578,1.496094 3.76526,1.031643 6.32778,5.188608 5.52539,9.019531 -0.61056,3.953669 -4.6485,7.054731 -8.64062,6.439453 -8.21023,-0.915304 -16.40901,-1.945501 -24.62695,-2.777344 -3.10524,-0.143736 -6.25196,1.843848 -7.17188,4.867188 -0.73445,2.183538 -0.66847,4.463025 -1.01953,6.699218 -0.29538,3.03069 -0.82212,6.04856 -0.90625,9.09375 0.0824,3.07506 2.29099,5.99803 5.31836,6.7168 2.28611,0.60755 4.67376,0.61496 7.0039,0.96875 6.91323,0.76284 13.81325,1.66825 20.73829,2.31054 7.8825,0.50419 15.92485,-1.68606 22.38476,-6.25195 6.21488,-4.25325 11.19573,-10.52737 13.20508,-17.849608 2.43336,-8.35864 1.60426,-17.760558 -2.89063,-25.291016 -4.6854,-8.180893 -12.64139,-14.527201 -21.82421,-16.841797 -2.26294,-0.633875 -4.59797,-0.923796 -6.91016,-1.294921 -3.77536,-0.98657 -6.39374,-5.111656 -5.63477,-8.951172 0.54307,-3.807032 4.2466,-6.876131 8.10352,-6.589844 5.81044,0.630213 11.61743,1.34069 17.42773,1.992187 2.66777,0.27936 5.33114,0.653865 8.00586,0.84375 3.02855,0.03142 6.04056,-1.942572 6.92188,-4.894531 0.73959,-2.209151 0.6687,-4.513882 1.02539,-6.77539 0.29529,-3.003787 0.8128,-5.994585 0.89648,-9.013672 -0.0907,-3.068454 -2.2954,-5.97723 -5.31445,-6.699219 -2.28861,-0.606291 -4.67757,-0.613609 -7.00977,-0.966797 -6.88569,-0.761268 -13.75957,-1.6586088 -20.65625,-2.3066406 -0.95283,-0.055516 -1.90689,-0.073881 -2.86132,-0.064453 z m 0.0137,3.9999998 c 1.56071,-0.02653 3.15558,0.05502 4.7832,0.242188 l 23.53125,2.705078 c 2.61466,0.300671 3.77218,1.765509 3.47266,4.394531 l -1.34766,11.830078 c -0.29953,2.629023 -1.75643,3.792859 -4.37109,3.492188 l -23.53125,-2.705078 c -3.24218,-0.372832 -6.14645,0.464721 -8.71094,2.513671 -2.56448,2.04895 -4.03288,4.702904 -4.4043,7.962891 -0.37142,3.259988 0.4627,6.179683 2.5,8.757813 2.03731,2.578129 4.67579,4.052949 7.91797,4.425781 8.68066,0.998226 15.75161,4.741098 21.21094,11.228515 5.45932,6.487419 7.72542,13.807063 6.79687,21.957032 -0.92855,8.149967 -4.78328,14.765426 -11.56054,19.845706 -6.77726,5.08028 -14.50489,7.12127 -23.18555,6.12304 l -23.5332,-2.70703 c -2.61466,-0.30067 -3.77219,-1.76551 -3.47266,-4.39453 l 1.34961,-11.830077 c 0.29953,-2.629023 1.75644,-3.792858 4.37109,-3.492187 l 23.53125,2.705078 c 3.24218,0.37283 6.14646,-0.464723 8.71094,-2.513672 2.56449,-2.048949 4.03093,-4.702903 4.40235,-7.962891 0.37142,-3.259987 -0.46074,-6.179682 -2.49805,-8.757812 -2.03731,-2.57813 -4.67775,-4.05295 -7.91992,-4.425781 -8.68066,-0.998226 -15.74966,-4.741098 -21.20899,-11.228516 -5.45931,-6.487417 -7.72542,-13.807063 -6.79687,-21.957031 0.92854,-8.14997 4.78133,-14.76347 11.55859,-19.84375 5.50653,-4.127728 11.64123,-6.250271 18.4043,-6.365235 z"
         id="path76"
         inkscape:connector-curvature="0"
         style="fill:#fad60b;stroke-width:2.5" />
    </g>
  </g>
</svg>
