<svg height="151.01099" viewBox="0 0 117.35575 24.853388" width="713.06201" xmlns="http://www.w3.org/2000/svg"><g stroke-width=".41145" transform="translate(-3.672391 -1.140978)"><text fill="#ef00eb" font-family="TrasksHand" font-size=".32916" stroke="#0105ff" transform="matrix(.45831421 -.88879024 .88879024 .45831421 0 0)" x="-2.930516" y="20.240797"><tspan fill="#fafafa" fill-opacity=".4" font-size=".32916" stroke="none" stroke-width=".41145" x="-2.930516" y="20.240797">John Loreth 2022</tspan></text><path d="m117.26367 1.1464844c-1.28362.2333566-1.48208 1.7165958-1.95901 2.6983164l-1.53708 3.8426992c-2.43669-.1489835-4.47445 1.7041458-5.77055 3.507504-.8063.97952-1.64229 1.960622-2.68844 2.693668.90765-3.384754 2.34384-6.597508 3.7723-9.7825613.43619-1.4816874-1.26772-3.30430991-2.743-2.4596263-1.21503.8127718-1.4905 2.3729344-2.12727 3.5954213-.99335 2.3093139-1.899 4.6565301-2.64421 7.0569223-.61104.576956-.48637.375498-.15235-.21875.61224-1.306048.45351-3.2512925-1.01976-3.8989078-.397337-.1754641-.79455-.2463915-1.061489-.6112352-1.156281-.8315545-2.6988-.1258013-3.543749.8245962-.760653.7352372-1.387288 1.6047525-1.880859 2.5390628.190203-1.1989021-.423659-2.5381122-1.649492-2.8892357-.581512-.1099886-.864041-.7958416-1.52043-.8099833-1.617547-.2492543-2.857872 1.1157047-3.746049 2.2744273-.516844.5561037-.724217 1.4355167-1.380904 1.8095567.25869-1.3972124-.128671-3.2438543-1.634766-3.7460934-.860513-.251572-1.762791.2034235-2.466796.5683594-.305839-1.4292345-2.23078-1.8670639-3.325482-1.0401449-.427758.2251337-.775776.7342422-1.057331 1.0069418-1.240509-1.2567796-3.276269-.8670542-4.681091-.1173166-1.192083.636732-2.196019 1.7050019-2.592346 3.0138007.241996-1.2018351-.368796-2.5559097-1.584316-2.9440486-.602991-.0905332-.873356-.7835038-1.528966-.819623-1.624801-.26268-2.86842 1.1061489-3.778939 2.2571015-.223612.2218877-.458559.7795331-.621451.8112581-.444052-1.3224386-2.2647-1.7810275-3.319863-.8987469-.982811.4878016-1.694371 1.4718489-1.81384 2.5598549-.542111 1.1484-1.566817 2.059842-2.764735 2.477564-.143044-1.267269.494609-2.503503 1.145534-3.552804.714379-1.0307678 1.657328-1.9881888 2.811498-2.4921182.637866.2374762 1.300669.6346083 2 .3183593 1.168414-.3109094 2.460993-1.5878621 1.859374-2.8671875-.736287-1.3739462-2.57649-1.5668322-3.939453-1.1777344-3.200706.794997-5.829568 3.2375445-7.335937 6.1132808-.995807 2.007517-1.343175 4.673382.101562 6.554688.293781.335135.65285.614863 1.054688.808594-1.259205.317237-2.244296 1.99547-1.296115 3.103154.952871 1.087352 2.49907 1.368713 3.863689 1.511665 2.446588-.10496 4.313383-2.218442 5.105967-4.388097.490736-1.323869.742298-2.718734 1.086225-4.084144-.255934 1.551713.412295 3.34337 1.96289 3.9375 1.665545.632546 3.47238-.06033 5.008882-.741795.416132-.295963.638258-.341916.773257.197296.953679 1.38104 3.005995 1.376919 4.331174.558533.58583-.325298 1.15424-.706804 1.626921-1.183956-.702718 2.297056-1.491671 4.609393-2.176949 6.927525-.165233 1.330612 1.364985 2.387196 2.574543 1.870748 1.36974-.259731 2.901899-.568336 3.869985-1.649835.5301-.736488.06126-1.937791-.904353-1.93928-.361866-.05974-.730478-.04232-1.095647-.05877l1.27539-3.701172c1.534492.08936 2.828551-.942888 4.171478-1.531738.870313-.421261 1.809595-.826777 2.615632-1.310059.22853 1.773054 2.095166 3.17797 3.845283 2.759364 1.561517-.144736 3.04099-.786195 4.342217-1.640224.797702 1.527949 2.77118 2.043198 4.335802 1.508555 1.262383-.261081 2.455322-.8446 3.527477-1.524179.36263 1.253183 1.80693 2.095375 3.05349 1.570824.87389-.220729 1.67076-.674003 2.39182-1.20559.38423 1.118549 1.73237 1.724875 2.81836 1.232422 1.21836-.336784 2.27864-1.075977 3.20899-1.91211.27321 1.24936 1.5977 2.260063 2.88252 1.826329 2.27528-.52462 3.84435-2.48122 5.07451-4.334141.51896-.846993.99965-2.17732.16016-2.97461-.83132-.623653-1.97596.005-2.35419.852461-.57255.736637-1.16455 1.466525-1.86652 2.085039.39137-3.530076 1.8513-6.8101623 3.16856-10.0647522.2898-1.3269846-.86399-2.8101749-2.25645-2.7028254zm-80.035154 1.0742187c-1.313686.1222167-1.813883 1.6563433-1.614882 2.7878843.0063.9848994.704903 1.991028 1.478163 2.4074282-1.137312-.4331106-2.058695.6369707-2.808594 1.3261719-.493107.5236651-.91394 1.1220892-1.175781 1.7949215-.187695-.7994666-.612191-1.565878-1.283203-2.0566402-.152778-1.5449477-2.287574-2.0980377-3.365854-1.114474-.542749.5551283-1.46064.4455394-1.887506 1.1554115-.505175.6245425-.491748 1.4834727-1.036062 2.0894617-.276573.622618-.330843.362478-.403938-.144071-.178978-.7977286-.680536-1.5082657-1.27539-2.0253908-.181763-1.4347119-2.063075-2.0146627-3.164063-1.2070312-.435099.4145649-.984425.5449226-1.511718.7734375-.729634.4058226-.978263 1.2466923-1.226553 1.9675373-1.218274 1.8773642-2.493998 4.0856082-2.001963 6.4094162.324523 1.363756 1.72122 2.436994 3.142578 2.101562 1.887828-.255393 3.561632-1.408154 4.710938-2.894531.02434 1.435294 1.093112 2.947822 2.636718 2.919922 2.211842.03163 4.190283-1.419089 5.483069-3.112774.380651-.659481.143102.07204.177087.449492-.06395 1.539418 1.383985 3.030421 2.962891 2.675001 1.045893-.23458 2.019216-.731693 2.849609-1.40625.727932 1.385972 2.633931 1.716439 3.943247.98905 1.568158-.598495 3.282047-1.463985 4.002066-3.069129.287667-.980645-.858921-2.108898-1.793684-1.486846-.621105.302677-1.180203.755497-1.870379.902862.125421-.898286.463822-1.777074.810547-2.595703 1.270322-.29471 2.624193-.384222 3.839844-.919922.767323-.256916 1.421595-1.0159596 1.162109-1.859375-.155377-.7939309-1.04181-1.0189591-1.738599-.8891363-.630155.017083-1.263056.043276-1.894213.066871.559211-.9535029 1.142764-2.2807454.291016-3.2539063-.744034-1.0400463-2.333428-.8407501-3.09375.070312-.914693.963279-1.009385 2.3609284-1.574219 3.5117188-.548253.1125193-1.119103.198-1.613281.4765625-.08235-.6514692-.511735-1.2434496-1.087891-1.5507813.816872.4343383 2.060888.1508749 2.210937-.875.0872-.7874152.06745-1.5822598.194721-2.3656232.101539-.9502777-.591297-1.8254776-1.528707-1.964776-.307076-.079994-.629603-.092058-.94531-.083663zm-20.302735 2.0703125c-1.65041.1591578-2.386547 1.8674653-2.926334 3.2088181-.433387 1.0502199-.858019 2.1071172-1.227963 3.1818073-.578275-1.0489588-1.25128-2.0873558-1.716796-3.1777348.617036-1.2543958-.411614-2.9157343-1.8300786-2.8261718-.9038456-.0268149-1.7226576.5991664-2.0312658 1.4167605-.7867633.6631919-1.3653852 1.9419431-.5566248 2.8117551-.7598563 1.919483-1.6272356 3.821183-2.390625 5.75-.3262794.957777-.9341079 2.060847-.2890626 3.027344.5447785 1.023434 1.9527529 1.418654 2.9187626.743192 1.3063055-.716693 1.7238105-2.326673 1.637434-3.715068.092833-.740886.3936958-1.433059.6840378-2.114062 1.0093764 1.739466 1.8948994 3.568483 3.0506174 5.211871.933328.956714 2.797503.85986 3.390789-.430621.461789-.678382.181013-1.523874-.05175-2.206842.268322-2.197258 1.149357-4.263854 2.047846-6.265814.29719-.5224007 1.102422-.4129385 1.328125-1.0351562.435172-1.0090034.016677-2.2342369-.669924-3.0292969-.35592-.3627769-.853261-.5881221-1.367188-.5507813zm59.076172 7.8359374c-.232964.830487-.467831 1.852406-.716797 2.5625-.13834-1.174196-1.17214-1.948937-1.53125-3.025391.703432-.586207 1.665924-.489373 2.513672-.628906-.08854.363933-.177083.727865-.265625 1.091797zm-38.4375-.675781c.200487.325194.517357.566806.867188.710937-.60591.604864-1.194251 1.232662-1.873047 1.757813.277457-.836417.63341-1.716332 1.005859-2.46875zm32.119141.443359c.262653.420002-.228798.625919-.50586.853516.237764-.33414.412025-.713711.53711-1.103516-.01042.08333-.02083.166667-.03125.25zm-14.140625 6.16992c-.16926.338178-.399044.926872-.808594.917969-.249708-.203601-1.077688-.577671-.367955-.58936.416033-.124694.832044-.259015 1.223424-.449703l-.0361.09326z" fill="#333"/><g fill="#f4c401" transform="scale(.9822298 1.0180917)"><g><path d="m9.3630367 5.5509119c-.2727636 0-.5951207.1239835-.7686976.2975604-.1239835.1487802-.2727637.3471538-.2727637.4711373 0 .1239834-.099187.2727636-.3223571.4215438-.3223571.2231703-.5455274.5703241-.6199175.7934944-.0991868.3471538.0743901.5455274.2975604.7686977.1487802.1487802.2231703.3223571.0991868.5951208-.247967.6199175-1.735769 4.0666587-2.6532469 6.1495817-.1239835.272763-.3719505.942274-.3719505 1.215038 0 .843088.5703241 1.190242 1.0910548 1.190242.3223571 0 .7934944-.173577 1.1654449-.595121.5455274-.644714.6199175-.967071.6199175-2.157313 0-.14878 0-.347154.099187-.793494.1983736-.843088.9422746-2.47967 1.3886152-3.372352.099187-.173576.1983735-.22317.3471537.0248.3471538.545528 1.4878023 2.653247 2.3060933 3.967472.793494 1.264632.991868 1.785362 1.140648 1.983736.198373.272764.719104.669511 1.239835.669511.396747 0 .619917-.22317.843088-.520731.22317-.29756.247967-.669511.123983-.867884-.14878-.223171-.29756-.371951-.29756-.595121 0-.347154 0-.644714.22317-1.512599.570324-2.157313 1.165445-3.6947079 2.132516-5.6040538.173577-.3719505.471137-.5455274.743901-.5703241.371951-.024797.570324-.1983736.570324-.495934 0-.4463406-.272764-1.8349557-1.165445-1.8349557-.29756 0-.619917.1239835-.942274.4463406-.347154.3471538-.743901.9670712-1.388615 2.55406-.595121 1.3638185-1.140649 2.826824-1.636583 4.339422-.09919.272764-.14878.322358-.29756.04959-.22317-.396747-2.40528-4.0914556-2.678044-4.5873896-.14878-.2727637-.22317-.5207307-.22317-.6447142 0-.099187.07439-.1983736.173577-.4215439.123984-.1735769.198374-.4463406 0-.7686976-.198374-.3471528-.4463406-.5951198-.9670713-.5951198z"/><path d="m17.124388 15.147235c0 1.165444.743901 2.082922 1.636582 2.082922 1.785363 0 3.397148-.991868 4.58739-2.40528 1.016664-1.140648 1.388615-2.330889 1.388615-3.322757 0-.967072-.347154-2.0581263-1.239835-2.5044669-.173577-.07439-.198374-.1487802-.198374-.2975604 0-.3471538-.04959-.9670713-.991868-.9670713-.421544 0-.793494.1487802-1.140648.495934-.247967.247967-.421544.3719505-.743901.3719505-.272764 0-.471137.1239835-.644714.2975604-.173577.1983736-.29756.3719505-.322357.6695109-.0248.4463408-.22317.6695108-.421544.9422748-.29756.37195-.942275 1.339022-1.314225 2.182109-.446341 1.091055-.595121 1.785363-.595121 2.454874zm2.33089-.421544c0-1.041462.991868-3.049994 2.107719-4.364219.148781-.198374.396748-.4215443.570324-.4215443.446341 0 .619918.6943073.619918 1.3142253 0 .867884-.843088 2.77723-1.562192 3.570724-.471137.520731-.892681.719105-1.215038.719105-.223171 0-.520731-.297561-.520731-.818291z"/><path d="m25.232949 15.147235c0 1.165444.743901 2.082922 1.636582 2.082922 1.785362 0 3.397148-.991868 4.587389-2.40528 1.016665-1.140648 1.388615-2.330889 1.388615-3.322757 0-.967072-.347153-2.0581263-1.239835-2.5044669-.173576-.07439-.198373-.1487802-.198373-.2975604 0-.3471538-.04959-.9670713-.991868-.9670713-.421544 0-.793495.1487802-1.140648.495934-.247967.247967-.421544.3719505-.743901.3719505-.272764 0-.471138.1239835-.644714.2975604-.173577.1983736-.297561.3719505-.322358.6695109-.0248.4463408-.22317.6695108-.421543.9422748-.297561.37195-.942275 1.339022-1.314226 2.182109-.44634 1.091055-.59512 1.785363-.59512 2.454874zm2.330889-.421544c0-1.041462.991868-3.049994 2.10772-4.364219.14878-.198374.396747-.4215443.570324-.4215443.446341 0 .619917.6943073.619917 1.3142253 0 .867884-.843087 2.77723-1.562192 3.570724-.471137.520731-.892681.719105-1.215038.719105-.22317 0-.520731-.297561-.520731-.818291z"/><path d="m38.152039 3.145632c-.545528 0-.843088.2727637-.892681 1.0414614-.0248.5703241.04959.9670713.123983 1.239835.123984.4463406.520731.8926812 1.066258 1.0910547.471137.1735769.818291.1487802.818291-.3471537 0-.5951208 0-1.2150383.14878-2.0581261.123984-.6199175-.545527-.9670713-1.264631-.9670713zm-3.099588 14.109322c.421544 0 .892682-.09919 1.512599-.347154 1.438209-.570324 3.744302-2.802027 4.711373-4.364219.322357-.520731.396747-.917478.272764-1.140648-.09919-.173577-.347154-.198374-.644715.123983-1.388615 1.562193-3.843488 3.793895-4.636982 3.793895-.471138 0-.520731-.347153-.272764-1.115851.595121-1.909346 1.215038-3.297961 1.983736-4.6369828.247967-.4711373 0-1.0166647-.322357-1.2646317-.123984-.099187-.272764-.1487802-.421544-.1487802-.719104 0-2.281296 1.6613789-2.678044 2.6780437-.14878.37195-.09919.595121 0 .818291.123984.22317.123984.37195 0 .719104-.198373.446341-.619917 1.810159-.768697 2.40528-.173577.595121-.173577 1.041461.04959 1.487802.347154.768698.843088.991868 1.215038.991868z"/><path d="m42.565886 15.246421c-.644714 0-.743901-.471137-.619917-1.215038.09919-.719104.619917-2.182109.967071-2.975604.123983-.247967.22317-.322357.545527-.37195 2.206907-.297561 3.669912-.6943079 4.091456-.9174782.347154-.1983736.644714-.7686977.04959-.7686977-.669511 0-2.454873.099187-3.570725.1239835-.14878 0-.37195.024797-.29756-.1735769.09919-.2231703.495937-1.2646317 1.041464-2.2564997.247967-.4215438.223171-.8678844-.14878-1.2398349-.198373-.1983736-.347154-.2727637-.595121-.2727637-.37195 0-1.066258.3719505-1.289428.8430878-.247967.5207306-1.016665 2.7028402-1.140648 2.9508072-.09919.2727637-.247967.3223571-.471137.3719505-.495934.099187-.917478.1983736-1.215039.247967-.347154.07439-.495934.1983736-.719104.4711371-.198374.22317-.22317.595121-.04959.768698.14878.123983.347153.272764.619917.247967.322357-.04959.669511-.07439.867885-.09919.247967-.0248.247967.07439.173576.247967-.123983.347154-.942274 2.752434-1.190241 3.446741-.198374.520731-.272764.818291-.272764 1.115852 0 .867884.867885 1.388615 1.586989 1.388615.322357 0 .644714-.04959 1.066258-.198374 1.983736-.644714 3.000401-1.537395 3.446741-2.008532.421544-.446341.322357-1.115852-.247967-.743901-.595121.37195-1.785362 1.016664-2.62845 1.016664z"/></g><g><path d="m52.014055 14.13057c0 .545527.09919 1.016665.347154 1.636582.247967.595121 1.066258 1.413412 1.934142 1.413412.644714 0 1.215038-.123984 1.859753-.421544.59512-.29756 1.611785-.867884 1.884549-1.091055.198373-.173577.29756-.14878.173577.198374-.09919.29756-.247967.892681-.545528 1.760566-.570324 1.611785-1.339021 2.082922-1.909346 2.082922-.247967 0-.570324-.123983-.867884-.44634-.247967-.223171-.743901-.570324-1.140648-.570324-.322357 0-.719104.123983-1.140648.59512-.371951.371951-.322357.843088.04959 1.140649.694308.545527 2.231703.967071 3.198774.967071.471138 0 1.016665-.198374 1.537396-.520731 1.091054-.669511 2.107719-1.884549 2.47967-2.92601.347153-.967072.991868-3.297961 1.264631-4.58739.198374-.892681.570324-1.760565 1.140648-2.33089.247967-.22317.347154-.44634.173577-.694307-.29756-.421544-.59512-.5951209-.942274-.5951209-.446341 0-1.363819.5703239-1.735769.9174779-.247967.247967-.396747.495934-.421544.892681-.04959.818291-.892681 1.760566-1.636582 2.430077-.843088.768697-2.03333 1.264631-2.529264 1.264631-.421543 0-.818291-.37195-.818291-1.413411 0-1.314226.843088-3.248368 2.231703-4.7113734 1.314225-1.3886152 2.529264-1.8845492 2.826824-1.8845492.272764 0 .471137.07439.768698.247967.247967.1487802.619917.2727637 1.041461.1735769.29756-.07439.917478-.5455274 1.140648-.7934944.322357-.3471538.173577-.7934943-.22317-1.066258-.371948-.247967-.892678-.4215439-1.463002-.4215439-.917478 0-2.33089.3967472-3.669912 1.2150382-3.173977 1.983736-5.008933 4.9097468-5.008933 7.5381968z"/><path d="m62.949382 14.725691c0 1.562192 1.115851 2.454873 2.2565 2.454873 2.901213 0 6.000801-2.10772 7.686976-4.265032.322358-.421544.446341-.867885.322358-1.091055-.09919-.173577-.347154-.198374-.595121.07439-2.529264 2.55406-4.81056 3.372351-6.298362 3.372351-.719104 0-1.115851-.37195-1.115851-.917478 0-.347154.07439-.570324.198373-.818291.07439-.173577.14878-.198373.322357-.123983.223171.09919.495934.198373.768698.198373 1.339022 0 2.206906-.644714 2.727637-1.165445.495934-.545527.942274-1.264631.942274-2.157313 0-.9422741-.59512-1.4878015-1.438208-1.5373949-.173577-.024797-.29756-.1239835-.371951-.2231703-.14878-.2975604-.396747-.495934-.867884-.495934-1.041461 0-2.33089 1.487802-2.826824 2.1821092-1.091055 1.562192-1.710972 3.397148-1.710972 4.513zm3.347554-2.55406c-.322357 0-.37195-.07439-.272763-.371951.29756-.768698 1.115851-1.9837358 1.611785-1.9837358.322357 0 .570324.1983738.570324.5455278 0 .694307-1.140648 1.810159-1.909346 1.810159z"/><path d="m76.314809 8.1297686c-.818291 0-2.10772.4215439-2.876417 1.0910548-.719105.5703241-1.487802 1.5373956-1.487802 2.4300766 0 .322357.123983.743901.247967 1.041461.173576.371951.570324 1.066258.818291 1.388616.347153.471137.570324.917477.570324 1.165444 0 .148781-.198374.347154-.520731.347154-.347154 0-.495934-.04959-.743901-.14878-.22317-.173577-.396747-.173577-.619917-.04959-.223171.09919-.545528.29756-.892682.694307-.173577.14878-.198373.347154-.198373.520731.09919.545527 1.041461.917478 1.710972.917478.272764 0 .570324-.07439.942275-.223171.545527-.22317 1.487802-.743901 1.810159-1.041461.29756-.272764.619917-.892681.619917-1.264632 0-.644714-.37195-1.363818-.942274-2.082922-.421544-.570324-.743901-1.115852-.743901-1.586989 0-.768698 1.710972-1.413412 3.248367-1.413412.421544 0 .793495-.1983736.793495-.6695109 0-.2975604-.09919-.5455274-.421544-.7686977-.322357-.2231733-.694308-.3471568-1.314225-.3471568z"/><path d="m84.993643 8.3281422c-.198373 0-.619917.07439-1.115851.3223571-1.264632.5703241-2.380483 1.6861757-2.77723 2.0581257-.247967.198374-.421544.173577-.297561-.14878.322357-.892681.595121-1.6613787 1.091055-2.0829226.173577-.1735769.173577-.3719505-.0248-.5703241-.173577-.1983736-.545527-.3719505-.917478-.3719505-.421544 0-1.041461.3471538-1.363818.6943076-.247967.247967-.421544.6943076-.595121 1.3638185-.14878.6447141-.29756 1.2646321-.793494 3.1243841-1.487802 5.380884-3.223571 10.117053-3.372351 10.538597-.123984.421544-.09919.669511.0248.892682.173577.272763.371951.37195.644714.37195.942275 0 2.206907-.37195 3.347555-.818291.44634-.173577.694307-.570324.694307-.669511 0-.123983-.123983-.198374-.52073-.22317-1.140648-.0248-1.586989-.07439-1.810159-.198374-.173577-.09919-.223171-.247967-.09919-.570324.22317-.570324 1.661379-4.612186 1.735769-4.835356.07439-.173577.173577-.421544.322357-.297561.123983.14878.347154.347154.520731.347154.14878 0 .272763-.0248.495934-.07439.644714-.123984 1.884549-.669511 2.430076-.991868.471138-.29756.719105-.421544 1.314225-.644714 1.339022-.471138 4.165846-2.10772 5.604054-3.645115.669511-.793494.545528-1.586989-.173576-1.041461-1.512599 1.066258-3.521132 2.231703-3.793896 2.355686-.173576.07439-.198373.04959-.123983-.09919.123983-.22317.768698-1.463005.793494-3.049994 0-.4215437-.322357-1.7357688-1.239835-1.7357688zm-1.190241 2.1325158c.123983 0 .29756.173577.29756.545528 0 .818291-.917478 2.380483-1.339022 2.85162-.272763.297561-.644714.669511-1.289428.991868-.595121.297561-1.289428.520731-1.611785.520731-.347154 0-.371951-.123984-.272764-.371951.37195-1.115851 1.239835-2.504466 2.901214-3.793895.818291-.619917 1.115851-.743901 1.314225-.743901z"/><path d="m87.423712 14.725691c0 1.562192 1.115851 2.454873 2.2565 2.454873 2.901213 0 6.000801-2.10772 7.686976-4.265032.322357-.421544.446341-.867885.322357-1.091055-.09919-.173577-.347153-.198374-.59512.07439-2.529264 2.55406-4.81056 3.372351-6.298362 3.372351-.719104 0-1.115851-.37195-1.115851-.917478 0-.347154.07439-.570324.198373-.818291.07439-.173577.14878-.198373.322357-.123983.223171.09919.495934.198373.768698.198373 1.339022 0 2.206906-.644714 2.727637-1.165445.495934-.545527.942274-1.264631.942274-2.157313 0-.9422741-.59512-1.4878015-1.438208-1.5373949-.173577-.024797-.297561-.1239835-.371951-.2231703-.14878-.2975604-.396747-.495934-.867884-.495934-1.041461 0-2.33089 1.487802-2.826824 2.1821092-1.091055 1.562192-1.710972 3.397148-1.710972 4.513zm3.347554-2.55406c-.322357 0-.37195-.07439-.272763-.371951.29756-.768698 1.115851-1.9837358 1.611785-1.9837358.322357 0 .570324.1983738.570324.5455278 0 .694307-1.140648 1.810159-1.909346 1.810159z"/><path d="m95.383432 14.725691c0 1.562192 1.115852 2.454873 2.2565 2.454873 2.901218 0 6.000798-2.10772 7.686978-4.265032.32236-.421544.44634-.867885.32236-1.091055-.0992-.173577-.34716-.198374-.59512.07439-2.52927 2.55406-4.81056 3.372351-6.298366 3.372351-.719105 0-1.115852-.37195-1.115852-.917478 0-.347154.07439-.570324.198374-.818291.07439-.173577.14878-.198373.322357-.123983.22317.09919.495934.198373.768698.198373 1.339019 0 2.206909-.644714 2.727639-1.165445.49593-.545527.94227-1.264631.94227-2.157313 0-.9422741-.59512-1.4878015-1.43821-1.5373949-.17357-.024797-.29756-.1239835-.37195-.2231703-.14878-.2975604-.39674-.495934-.867882-.495934-1.041461 0-2.330889 1.487802-2.826823 2.1821092-1.091055 1.562192-1.710973 3.397148-1.710973 4.513zm3.347555-2.55406c-.322357 0-.371951-.07439-.272764-.371951.297561-.768698 1.115852-1.9837358 1.611787-1.9837358.32236 0 .57032.1983738.57032.5455278 0 .694307-1.140645 1.810159-1.909343 1.810159z"/><path d="m103.69031 15.568778c0 .892682.54553 1.611786 1.26463 1.611786 2.2813 0 5.35609-3.149181 6.07519-4.612186.19838-.396747.27277-.768698.17358-.967071-.0992-.173577-.29756-.198374-.52073.07439-1.63658 1.983736-3.52113 3.446741-4.28983 3.446741-.39675 0-.59512-.347154-.19837-1.636582.57032-1.859753 1.66138-5.2569006 3.49633-8.8028286.52073-1.0166647.64472-1.4630053-.17358-2.1573129-.12398-.1239835-.27276-.1735769-.44634-.1735769-.19837 0-.42154.099187-.64471.3719505-.37195.4711373-1.23983 2.2069063-2.75243 6.0008013-1.68618 4.2154386-1.98374 6.1247846-1.98374 6.8438886z"/><path d="m115.69192 8.5017191c-1.36382 0-2.70284.5703241-4.04186 2.0333289-1.85975 2.03333-2.47967 4.017066-2.47967 5.083324 0 1.239835.57032 1.611785 1.11585 1.611785s1.53739-.322357 2.62845-1.066258c.61992-.421544 1.81016-1.463005 2.40528-2.206906.12398-.173577.22317-.14878.19837.04959-.0496.297561-.0992.619918-.12398 1.165445-.0496.867885.37195 1.909346 1.38861 1.909346 1.93415 0 4.41382-2.727637 5.18251-4.314626.22317-.471137.34716-.917477.22317-1.140648-.14878-.247967-.44634-.198373-.7439.223171-.47113.694307-2.80202 3.347554-3.57072 3.347554-.37195 0-.54553-.446341-.47114-1.239835.0992-1.239835.64472-3.744302 1.36382-5.7280376.81829-2.2317029 1.43821-3.3971478 1.78536-4.2402356.24797-.6199175.24797-.9422746-.0992-1.3638185-.39675-.4711373-.64472-.5455274-.91748-.5455274-.17358 0-.34716.099187-.54553.5207307-.29756.6199175-1.41341 3.2731644-2.45487 5.8520211-.0496.1487802-.0992.1487802-.22317.1239835-.19838-.049593-.39675-.07439-.61992-.07439zm-.49593 1.4382086c.19837 0 .37195.1239833.44634.2727633.0992.173577.12398.371951-.0248.694308-.14878.37195-1.23984 2.132516-2.08292 2.975604-.7935.768698-1.38862 1.091055-1.68618 1.091055-.17358 0-.32236-.173577-.32236-.421544 0-.371951.12399-.917478 1.19025-2.40528.94227-1.339022 2.03333-2.2069063 2.47967-2.2069063z"/></g></g></g></svg>