<svg height="152" viewBox="0 0 231.40123 40.21616" width="874.59833" xmlns="http://www.w3.org/2000/svg"><g transform="translate(1.451239 -4.780458)"><text fill="#ef00eb" font-family="TrasksHand" font-size=".471816" stroke="#0105ff" stroke-width=".661458" transform="matrix(.78260312 -.62252097 .62252097 .78260312 0 0)" x="71.969482" y="79.981003"><tspan fill="#fafafa" fill-opacity=".4" font-size=".471816" stroke="none" stroke-width=".661458" x="71.969482" y="79.981003">John Loreth 2022</tspan></text><path d="m61.751139 4.7829055c-1.917898.056752-3.253894 1.6645054-4.180692 3.1712776-1.22625 2.0009547-3.083032 3.6810019-3.753339 5.9817649-.03043.498659.14776.977715.242062 1.461074-1.026144.819525-1.9265 1.775995-2.791539 2.760193-.274979-1.126693-.616268-2.302296-1.535956-3.084102-1.289021-1.276244-3.502053-1.605715-4.964864-.430137-1.249158.8519-1.921096 2.248035-2.683569 3.502048-.631506-1.395608-1.600379-2.736979-3.082344-3.300463-1.724595-.778255-3.920908-.192069-4.975167 1.394495-.444781.589124-.752156 1.263398-1.099014 1.911193-.423379-.598998-.944251-1.160172-1.367036-1.730998-.444979-2.296103-3.054331-3.80103-5.268947-3.063695-1.135481.266392-2.030618 1.058084-2.995959 1.663572.310805-1.105242.742262-2.288725.276269-3.421101-.910384-3.0158743-5.184308-4.3215574-7.560739-2.1968053-.33153.3815275-.814687.5754371-1.302602.6669743-.106019-.1662942-.772677.247689-1.102336.25251-1.77999.543003-3.179822 2.424717-2.728846 4.317046.258875 1.073453 1.017616 1.933727 1.884245 2.579082-1.728204 6.278822-3.1571407 12.689792-5.8313163 18.653991-.2172651.29327-.5156697.717431-.8282562.792862-1.6301668-.7617-3.6250613-1.38466-5.32074078-.446902-1.95383782.888229-2.86804512 3.514396-1.74221491 5.380643 1.16427174 2.332826 3.92387859 3.4922 6.43461999 3.393361 2.247845-.159513 4.4709626-1.252063 6.3489872-2.565731 2.450778-1.782691 4.096947-4.462201 5.044647-7.305485.282553-1.135965.310799.586296.651906-.05117 1.059405 1.036347 2.526168 1.715177 4.02927 1.502292 2.844721-.158721 5.441133-1.60799 7.568763-3.424849.662454 1.660933 2.114428 3.196486 4.000442 3.262979 2.306088-.0078 4.311921-1.519889 6.009959-2.994174.435643-.547143.716071-.475673.842494.21096.466901 1.41753 1.611482 2.728383 3.177452 2.860322 2.155851.28732 4.170822-.790034 5.994547-1.797166.835833.982269 2.096693 1.467476 3.326162 1.737964 2.690298.467995 5.389184-.439179 7.803423-1.560336 1.684042 2.146348 4.828071 2.94851 7.32104 1.826778 2.293495-.986865 4.641295-2.272114 5.696763-4.64867.858303-1.924202.504737-4.19751-.609929-5.942002-.575113-.999769-1.220172-1.956651-1.835553-2.931661 1.585666-.614179 3.292763-.734708 4.938742-1.08318.84562-.307568 1.427683-1.032884 2.117599-1.574267-.34202 3.422666-.743728 6.880336-1.840708 10.14915-.704849 2.775667 1.774403 5.627849 4.547331 5.717444 1.953601.146814 3.56801-1.410477 4.242357-3.124723.570069-1.468499 1.305273-2.858721 2.146786-4.189353.335828-.598307.75319-1.14542 1.128267-1.719082-.0142 1.600097-.262992 3.257548.365703 4.785495.898384 2.600861 3.509869 4.501106 6.279653 4.428498 2.768687-.02158 5.404489-1.051295 7.792979-2.382299.49329-.398967.74929.481006 1.16356.69167 1.79397 1.607228 4.42857 2.092098 6.71075 1.378235 1.61686-.362046 3.11323-1.107611 4.54394-1.923623 1.76954 1.89675 4.58765 2.716992 7.08818 1.996292 1.73705-.299171 3.38048-.976758 4.95566-1.749007.83412 1.122696 2.19784 1.998865 3.64664 1.717194 1.79085-.411331 2.96573-2.00059 3.98167-3.414495.33032-.56712.36327.672382.55475.943255.48659 1.631172 2.23474 2.822167 3.93658 2.402302 1.56871-.297983 2.6842-1.498087 3.68903-2.604491.52252-.585125 1.00738-1.202255 1.50828-1.805699.5194 1.644131 1.26618 3.428401 2.9098 4.229383 2.1069 1.137286 4.70352.477386 6.56193-.847494.48464.675679 1.35001.913735 2.12422 1.085532 1.3064.218663 2.57393-.447493 3.41372-1.415021.68416-.673713 1.22647-1.470311 1.80748-2.230437.34278 1.314854.8822 2.757466 2.20971 3.365432 1.6077.777228 3.45649-.03026 4.63436-1.203773 1.00377-.875399 1.80214-1.948971 2.64159-2.974914.51216 1.619729 1.23912 3.362866 2.84051 4.177485 2.34734 1.310553 5.35206.47864 7.25466-1.250114 1.92572 1.721646 4.7394 2.222012 7.18684 1.481438 1.65201-.344959 3.1721-.994375 4.6933-1.770518 1.06266 1.040377 2.68255 1.587564 4.10808.992624 1.30662-.568287 2.02314-1.912608 2.82861-3.012355.26709-.402761.52238-.813495.78489-1.219359-.52537.684796-.12726.771189.56771.665232-.26472-.479178-.6212-.963042-.0958-1.401864.25858 1.911608.70782 3.981997 2.24365 5.298561 1.64653 1.517828 4.16064 1.626035 6.14328.749969.75092-.304291 1.46641-.70271 2.10703-1.200343 1.59014 1.440353 4.02219 1.460217 5.95645.77059 2.92584-1.121836 5.94089-2.552675 7.80572-5.182841 1.19749-1.295444.98426-3.524564-.39831-4.599735-1.16895-.966099-2.80692-.452895-3.93916.303012-.55608.300109-1.11817.59007-1.67701.886396.34937-1.28333.74113-2.555119 1.2521-3.784163 2.86771-.528892 5.93737-.820749 8.42703-2.468036 1.4732-1.161309 1.73584-3.821319.0781-4.933325-1.43355-.898934-3.20248-.548252-4.78754-.436924-.64727.234955-.95593.109308-.52393-.498875.27643-.668672.69098-1.246868.80851-2.017034.64536-2.534164-1.62386-5.2709368-4.23689-5.0826704-2.36213.2197048-4.2117 2.1937954-4.88342 4.3821614-.39396 1.350684-.89662 2.715857-1.42799 3.989654.0173.158499-1.08208.329143-1.10874-.121084-.68553-2.151943-3.22014-3.621156-5.39346-2.791646-1.31097.407936-1.80595 1.84743-2.97852 2.46224-.41761.33065-.36032-.678058-.67016-.913062-1.15063-1.640883-3.40531-2.588972-5.32176-1.77588-1.48149.565612-2.4247 1.923691-3.13471 3.273523-.76466-.625557-1.61857-1.179246-2.60172-1.375743-1.45923-1.85467-4.34312-1.965019-6.17404-.612225-1.80166 1.090826-3.08032 2.8076-4.32514 4.464306-.21923-1.14264-.3837-2.378997-1.2662-3.230865-1.25262-1.468731-3.59684-1.977717-5.22765-.838896-1.06537.626659-1.84847 1.597812-2.66442 2.502458-.39601-1.342473-1.17581-2.633845-2.47955-3.231712-1.39821-.681883-3.06652-.247485-4.22855.699802-1.01078.719415-1.82145 1.669521-2.67133 2.563257-.64097-1.754885-1.9126-3.393958-3.76152-3.951342-1.89011-.655287-3.89668.722264-4.583 2.472204-.24419.843151-.48882.597429-.73364-.09861-.99875-1.241189-2.71908-1.959114-4.27223-1.393025-1.55945.48717-2.58695 1.834696-3.58866 3.03695-.37238-1.204902-.94062-2.427596-2.06541-3.103351-1.54068-1.036323-3.62473-.502203-4.92139.684122-.86017.706892-1.57382 1.568925-2.34561 2.366987-.72183-1.860928-2.14658-3.669412-4.21017-4.048279-1.42128-.358026-2.84035.488885-3.57933 1.678169-.2562.452361-.49559.958268-1.01246.476887-.63349-.310502-1.34013-.493748-1.79939-1.060919-1.74313-1.413215-4.37948-1.095959-6.05427.2729-.66426.491502-1.2231 1.104684-1.81765 1.674685-.88263-1.289497-2.15513-2.48411-3.79218-2.592584-2.4117-.279195-4.77913.756693-6.71712 2.113536-.8844.656386-1.66416 1.437586-2.46099 2.194373-.52239-1.28495-1.60638-2.239283-2.87514-2.758364-.91392-.192542-.0985-.559113.29271-.881646 1.66462-1.264304 3.37838-2.5903 4.49442-4.386596.94366-2.1514019-.60732-4.7604136-2.80624-5.3257322-1.53022-.5652224-3.39146-.421034-4.59982.7607062-1.322091 1.2074331-2.065845 2.8805193-3.216348 4.233781-.841815 1.14458-1.768324 2.314683-2.178844 3.68555-.01828.391328.249734 1.344321-.369943.822723-1.820921-1.130395-4.221431-.696099-5.86614.553948-.558571.376425-1.062416.825447-1.583015 1.251172-.876269-1.226324-2.221561-2.428514-3.846843-2.182655-2.146719.406786-3.777759 2.104639-4.714679 3.999523-.319959.89504-.384919-.282402-.549726-.648357-.494958-2.223187-2.857219-3.480399-5.000254-3.517699-3.165897-.131001-6.123953 1.525829-8.265051 3.756965-.402723.564088-.658049-.50857-1.028959-.731474-.651342-.742441-1.551561-1.174294-2.425364-1.594045 1.977414-1.515031 4.152098-2.965715 5.437847-5.157644.883942-2.1857208-.744212-4.7445478-2.954013-5.2696827-.639581-.2159138-1.319107-.3010308-1.992699-.2825738zm150.112691 9.8827095c.41738.361497.95072.982453.77504.01696.19543-.757734-.44149-.04914-.77504-.01696zm-99.14752 8.729871c.50933.30873 1.08386.462342 1.66308.576419-.29882.846061-.47565 1.782183-.86724 2.567391-.94786.701531-2.01462 1.208692-3.05972 1.74443.33722-.765417.57769-1.559861 1.04342-2.254922.37255-.930111.35779-1.961213.70151-2.903242.17299.08997.34597.179949.51895.269924zm88.18685 6.459025c-.0461.26154-.36288 1.263112-.53158.965881-.23665-.452267-.60901-.926691-.20539-1.409452.1822-.972246.47127.03372.72717.425704z" fill="#333" stroke-width=".661458"/><g fill="#f4c401" stroke-width=".74186" transform="matrix(.89162061 0 0 .89162061 -.157284 .518103)"><g><path d="m21.217817 11.502068c-.772229 0-1.184084.380741-1.59594.761481-.617783.652697-.875193.815872-1.647421.924655-.875193.163175-1.544458.271957-2.059277.543915-.463338.217566-.926675.598306-.926675 1.251004 0 .924655 1.081121 1.794918 2.265205 2.012484.360373.05439.411856.163174.360373.489523-2.677059 10.225595-3.861144 14.46813-5.663011 19.689711-.772228 2.23005-1.492975 3.807402-2.4711317 5.004014-.8751926.870263-1.6474214 1.251004-2.1622406 1.251004s-.9781563-.217566-1.3385298-.435131c-.4633372-.271958-1.8533491-.815873-2.6770598-.815873-.8751925 0-2.0592766.761481-2.0592766 1.631744 0 .815873.6692649 1.958093 1.3385299 2.338833 1.0811202.598307 2.4196501 1.08783 3.3978065 1.08783.6177831 0 1.3385298-.271957 2.0592767-.489523.5663011-.163175 1.3900118-.543915 2.0592764-.815873.51482-.271957 2.265205-1.196612 3.861144-3.100313 1.853349-2.175658 3.603734-7.07089 5.302638-13.652258 2.471132-9.518506 2.728541-10.606336 3.294843-12.129297.257409-.76148.720747-1.577353 1.029638-1.958093.360373-.38074.772228-1.033437.463337-1.903701-.308891-.924655-1.698903-1.686136-2.831505-1.686136z"/><path d="m20.213863 33.210833c0 2.556399 1.544457 4.568883 3.397806 4.568883 3.706698 0 7.053022-2.175659 9.524155-5.275972 2.110759-2.502008 2.882987-5.112798 2.882987-7.288457 0-2.121267-.720747-4.514492-2.574096-5.493538-.360374-.163174-.411856-.326348-.411856-.652698 0-.76148-.102963-2.121267-2.059276-2.121267-.875192 0-1.647422.326349-2.368169 1.08783-.514819.543914-.875191.815872-1.544457.815872-.566301 0-.978156.271957-1.33853.652697-.360373.435133-.617783.815872-.669265 1.46857-.05148.979046-.463337 1.46857-.875192 2.066875-.617783.815873-1.956313 2.93714-2.728542 4.78645-.926674 2.393225-1.235565 3.916185-1.235565 5.384755zm4.839299-.924655c0-2.284442 2.059277-6.690151 4.375964-9.572898.308891-.435132.82371-.924655 1.184084-.924655.926674 0 1.287047 1.522961 1.287047 2.882747 0 1.903702-1.750385 6.091845-3.24336 7.832372-.978157 1.142221-1.853349 1.577352-2.522614 1.577352-.463337 0-1.081121-.652697-1.081121-1.794918z"/><path d="m52.169657 33.043903c-.772228 0-.875192-.707089-.772228-1.903701.257409-2.284443 1.287047-5.819887 2.368168-8.15872.514819-1.08783.823711-1.686136 1.029638-2.175659.617783-1.414178-.720747-3.100314-2.007795-3.100314-.617783 0-1.235565.435132-2.059277 1.740528-.926674 1.52296-3.088914 5.439145-5.508564 8.430677-2.471133 2.828356-3.912626 4.188143-4.478927 4.188143-.617783 0-.875193-.598307-.360374-2.338833.617783-2.230051 1.029638-3.263488 1.441494-4.079361.360373-.707089.978156-1.033437 1.492976-1.740526.463337-.652699 1.492975-2.502008 1.492975-3.209097 0-.979046-1.544458-2.338833-2.831505-2.338833-.617784 0-1.287049.435132-1.801868 1.251004-.617782 1.196612-2.213722 4.405708-3.449289 8.267503-1.441493 4.024968-1.595938 5.384755-1.595938 6.255018 0 1.740527 1.081119 3.426662 2.16224 3.426662.772229 0 1.59594-.217566 2.677059-.924655 3.088915-2.066875 6.486722-5.547929 7.310433-6.472584.308892-.326349.669265-.108783.51482.489523-.154446.598306-.308893 1.196613-.463338 2.066876-.617783 3.154705.308892 5.004015 1.904831 5.004015.772229 0 2.213722-.380741 3.655216-1.142221 1.801867-.924655 4.8393-2.937139 8.751927-8.376286.772228-1.033437 1.081119-2.23005.772228-2.882747-.205928-.489523-.617783-.489523-1.029638-.05439-3.037433 3.589836-7.464878 7.777979-9.215264 7.777978z"/><path d="m55.546384 32.336814c0 3.426662 2.316687 5.384755 4.684855 5.384755 6.023384 0 12.458624-4.623275 15.959394-9.355332.669265-.924655.926675-1.903701.669265-2.393225-.205927-.38074-.720746-.435131-1.235565.163175-5.251157 5.60232-9.987493 7.397238-13.076408 7.397238-1.492975 0-2.316686-.815871-2.316686-2.012483 0-.761481.154446-1.251004.411855-1.794918.154446-.380741.308892-.435132.669265-.271958.463338.217566 1.029638.435132 1.59594.435132 2.780023 0 4.58189-1.414178 5.663011-2.556399 1.029638-1.196612 1.956312-2.773965 1.956312-4.732058 0-2.066875-1.235565-3.263488-2.985951-3.37227-.360373-.05439-.617782-.271958-.772229-.489523-.308891-.652698-.82371-1.08783-1.801867-1.08783-2.16224 0-4.8393 3.263487-5.868939 4.786449-2.265203 3.426662-3.552252 7.451631-3.552252 9.899247zm6.950059-5.602321c-.669265 0-.772228-.163175-.566301-.815872.617783-1.686136 2.316686-4.351317 3.346325-4.351317.669265 0 1.184084.435131 1.184084 1.196612 0 1.522961-2.368168 3.970577-3.964108 3.970577zm.669266-11.041468c0 .543914.669264.652698 1.287047.489524 1.235566-.326349 3.397807-1.631744 7.361914-5.275973.772229-.707089.978157-1.5229608.463337-2.2300498-.5663-.7070891-1.390011-1.1966123-2.471131-1.1966123-1.132603 0-1.544458.5439146-2.162241 1.4685696-1.956313 2.7195735-3.088915 4.4057085-4.015589 5.5479295-.25741.38074-.463337.924655-.463337 1.196612z"/><path d="m81.524986 17.868684c-1.698903 0-4.375963.924655-5.971903 2.393224-1.492975 1.251004-3.088915 3.372271-3.088915 5.330364 0 .707089.25741 1.631743.514819 2.284442.360374.815871 1.184084 2.338833 1.698904 3.045922.720747 1.033437 1.184084 2.012484 1.184084 2.556399 0 .326348-.411855.76148-1.08112.76148-.720747 0-1.029638-.108783-1.544457-.326349-.463337-.380741-.823711-.380741-1.287049-.108783-.463337.217566-1.132602.652698-1.853349 1.522962-.360373.326348-.411855.76148-.411855 1.14222.205927 1.196613 2.162241 2.012484 3.552253 2.012484.566301 0 1.184084-.163174 1.956312-.489523 1.132603-.489524 3.088915-1.631744 3.75818-2.284442.617783-.598305 1.287048-1.958092 1.287048-2.773964 0-1.414178-.772229-2.991531-1.956313-4.568883-.875193-1.251004-1.544458-2.447616-1.544458-3.481055 0-1.686134 3.552254-3.100312 6.744132-3.100312.875193 0 1.647421-.435132 1.647421-1.46857 0-.652698-.205928-1.196613-.875193-1.686136-.669264-.489523-1.441493-.76148-2.728541-.76148z"/></g><g><path d="m103.65451 17.759901c-2.11075 0-3.809657 1.686136-5.354123 3.535445-1.801863 1.958092-3.603729 5.058406-4.170031 5.928669-.360373.489524-.669265.543915-.5663 0 .257409-1.740526.978156-4.242533 1.544456-5.275971.360374-.652698.77223-1.305395.77223-1.794918 0-.979047-.77223-2.121268-1.750386-2.121268-.720747 0-1.647421.652698-2.316686 1.251004-.926675.815872-1.338529 1.522961-1.647422 3.970576-.257409 2.773966-.669265 7.179675-1.956312 10.71512-.360374 1.087829-.205928 1.686135.360373 2.338833.669265.815872 1.390012 1.251003 2.213723 1.251003.82371 0 1.595939-.707089 2.110758-2.121267.669266-1.686135 3.294843-6.962107 5.868944-10.225595 1.338526-1.794918 2.265196-2.556399 2.831496-2.556399.41186 0 .8752.217566 1.23557.435131.41186.271958.97816.05439 1.59594-.707089.51482-.543914 1.02964-1.631744 1.18409-2.502007.20592-1.14222-.82372-2.121267-1.95632-2.121267z"/><path d="m128.30258 17.923075c-2.72855 0-5.97191 2.066876-8.08266 4.568884-2.52262 2.99153-3.75818 7.07089-3.75818 9.518506 0 4.296926 2.41964 5.711104 4.89077 5.711104 4.8393 0 10.75972-4.296926 14.46643-9.355332.66926-.924655.92667-1.903701.66926-2.393225-.20592-.38074-.72075-.435131-1.28704.108783-3.44929 3.589837-8.13415 7.723588-11.78937 7.723588-1.13259 0-2.05928-1.087829-2.05928-2.719573 0-1.522961.41186-3.861795 2.16225-6.635759 1.44149-2.284441 2.88298-3.100313 3.39781-3.100313.30889 0 .56629.271957.51481.979046-.0515.543915.10297.924654.41186 1.08783.25741.163174.87519.217565 1.54446-.108784.97816-.489523 1.90483-1.52296 1.90483-2.99153 0-1.142221-1.02964-2.393225-2.98595-2.393225z"/><path d="m118.31277 29.278114c-3.88879 3.157673-7.31176 4.255311-9.72729 4.255311-1.49299 0-2.3167-.815871-2.3167-2.012483 0-.761481.15445-1.251004.41186-1.794918.15445-.380741.30889-.435132.66927-.271958.46334.217566 1.02963.435132 1.59593.435132 2.78002 0 4.5819-1.414178 5.66302-2.556399 1.02963-1.196612 1.9563-2.773965 1.9563-4.732058 0-2.066875-1.23556-3.263488-2.98594-3.37227-.36037-.05439-.61778-.271958-.77223-.489523-.30889-.652698-.82371-1.08783-1.80187-1.08783-2.16224 0-4.8393 3.263487-5.86893 4.786449-2.26521 3.426662-3.55226 7.451631-3.55226 9.899247 0 3.426662 2.31669 5.384755 4.68485 5.384755 4.82108 0 9.906-2.961805 13.53893-6.570585m-11.27372-4.416491c-.66927 0-.77223-.163175-.5663-.815872.61779-1.686136 2.31669-4.351317 3.34632-4.351317.66927 0 1.18409.435131 1.18409 1.196612 0 1.522961-2.36817 3.970577-3.96411 3.970577zm.66927-11.041468c0 .543914.66926.652698 1.28704.489524 1.23556-.326349 3.39781-1.631744 7.36192-5.275973.77222-.707089.97815-1.5229608.46333-2.2300498-.5663-.7070891-1.39001-1.1966123-2.47113-1.1966123-1.1326 0-1.54445.5439146-2.16224 1.4685696-1.95632 2.7195735-3.08891 4.4057085-4.01558 5.5479295-.25742.38074-.46334.924655-.46334 1.196612z"/><path d="m146.36637 29.362858c-3.84545 3.092595-7.22864 4.170567-9.62243 4.170567-1.49298 0-2.31669-.815871-2.31669-2.012483 0-.761481.15444-1.251004.41186-1.794918.15444-.380741.30889-.435132.66926-.271958.46334.217566 1.02964.435132 1.59594.435132 2.78002 0 4.58189-1.414178 5.66301-2.556399 1.02964-1.196612 1.95631-2.773965 1.95631-4.732058 0-2.066875-1.23557-3.263488-2.98594-3.37227-.36038-.05439-.61779-.271958-.77224-.489523-.30889-.652698-.82371-1.08783-1.80186-1.08783-2.16224 0-4.8393 3.263487-5.86894 4.786449-2.26521 3.426662-3.55226 7.451631-3.55226 9.899247 0 3.426662 2.3167 5.384755 4.68486 5.384755 4.85536 0 9.97832-3.004068 13.61618-6.647651m-11.35097-4.339425c-.66927 0-.77223-.163175-.5663-.815872.61778-1.686136 2.31668-4.351317 3.34632-4.351317.66926 0 1.18408.435131 1.18408 1.196612 0 1.522961-2.36816 3.970577-3.9641 3.970577z"/><path d="m160.10565 17.923063c-.49588 0-1.28931.435131-2.13232 1.251004-.84301.761481-1.43808 1.359787-2.97535 3.100316-1.83479 2.066877-3.22328 3.861796-5.30602 6.418197-.74385.924656-1.04137.543915-.59507-.979047.64465-2.338835 1.48766-4.895235 2.08274-6.309414.64465-1.468571-.14877-2.50201-1.19015-3.426665-.49588-.435132-.94219-.598306-1.38849-.598306-1.3389 0-2.67781 4.024971-3.07452 5.330366-.19836.707091.14877 1.033439.34713 1.033439.24794 0 .29753.271957.14876.815872-.8926 3.698623-1.63644 6.255023-1.8348 7.886768-.3967 3.698623 1.04137 5.058411 1.78522 5.058411.49588 0 1.04137-.271958 1.93396-1.359788.9422-1.142222 5.85152-8.049943 6.59535-8.974598.54548-.70709 1.09096-1.033439 1.28932-.924656.24794.163174.14876.652699-.0496 1.196614-.4959 1.577353-.9422 3.209098-1.28932 4.73206-.69424 2.88275-.24795 5.275976.9422 5.275976.69425 0 1.43808-.489523 2.42985-1.522963 1.09097-1.14222 5.40522-6.52698 6.59535-8.049942.54548-.707089.79343-.652698.59507.108784-.14877.598305-.34712 1.958093-.4463 2.882749-.49589 4.786452 1.09096 6.962112 3.62001 6.962112 2.42985 0 6.54575-2.882749 10.11616-9.736079.74384-1.414179.8926-2.338834.64466-2.719575-.19836-.326348-.59507-.271958-1.04137.326349-4.51261 6.255023-6.89288 8.267509-8.28137 8.267509-1.19014 0-1.43808-1.468571-1.14055-3.644231.39671-3.100316 1.19013-5.167193 1.68603-6.200631.44629-.979047.94219-1.41418 1.28931-1.740529.4463-.435131.69425-.761481.69425-1.414178 0-1.196613-1.14055-2.556401-2.2811-2.556401-.59507 0-1.38849.543915-2.18192 1.414179-.94219 1.033439-6.04987 7.179678-7.58713 8.865815-.29753.271957-.54548.489523-.79342.380741-.19835-.108784-.0992-.543915.19836-1.359788.54548-1.577354 1.73561-4.568886 2.08274-5.656716.99177-3.045924-.79343-4.133754-1.48768-4.133754z"/><path d="m189.62315 17.923063c-.49589 0-1.28931.435131-2.13232 1.251004-.84302.761481-1.43808 1.359787-2.97535 3.100316-1.83479 2.066877-3.22328 3.861796-5.30603 6.418197-.74383.924656-1.04137.543915-.59506-.979047.64465-2.338835 1.48767-4.895235 2.08274-6.309414.64465-1.468571-.14878-2.50201-1.19015-3.426665-.49589-.435132-.94219-.598306-1.38848-.598306-1.33891 0-2.67781 4.024971-3.07453 5.330366-.19836.707091.14877 1.033439.34712 1.033439.24795 0 .29754.271957.14877.815872-.8926 3.698623-1.63644 6.255023-1.83479 7.886768-.39672 3.698623 1.04137 5.058411 1.7852 5.058411.49589 0 1.04137-.271958 1.93398-1.359788.94219-1.142222 5.85151-8.049943 6.59534-8.974598.54548-.70709 1.09097-1.033439 1.28931-.924656.24795.163174.14878.652699-.0495 1.196614-.4959 1.577353-.94219 3.209098-1.28932 4.73206-.69424 2.88275-.24794 5.275976.9422 5.275976.69424 0 1.43808-.489523 2.42986-1.522963 1.09096-1.14222 5.4052-6.52698 6.59534-8.049942.54548-.707089.79343-.652698.59507.108784-.14877.598305-.34713 1.958093-.4463 2.882749-.49589 4.786452 1.09096 6.962112 3.62 6.962112 2.42987 0 6.54576-2.882749 10.11617-9.736079.74384-1.414179.8926-2.338834.64466-2.719575-.19836-.326348-.59507-.271958-1.04138.326349-4.5126 6.255023-6.89287 8.267509-8.28137 8.267509-1.19013 0-1.43808-1.468571-1.14055-3.644231.39672-3.100316 1.19014-5.167193 1.68604-6.200631.4463-.979047.94219-1.41418 1.28931-1.740529.4463-.435131.69425-.761481.69425-1.414178 0-1.196613-1.14055-2.556401-2.2811-2.556401-.59507 0-1.3885.543915-2.18192 1.414179-.9422 1.033439-6.04987 7.179678-7.58713 8.865815-.29753.271957-.54547.489523-.79342.380741-.19835-.108784-.0992-.543915.19835-1.359788.54549-1.577354 1.73562-4.568886 2.08275-5.656716.99178-3.045924-.79343-4.133754-1.48768-4.133754z"/><path d="m219.66571 29.382385c-3.83539 3.077607-7.20937 4.15104-9.59812 4.15104-1.49297 0-2.31669-.815871-2.31669-2.012483 0-.761481.15445-1.251004.41186-1.794918.15444-.380741.30889-.435132.66926-.271958.46334.217566 1.02965.435132 1.59595.435132 2.78002 0 4.58189-1.414178 5.66301-2.556399 1.02963-1.196612 1.95631-2.773965 1.95631-4.732058 0-2.066875-1.23557-3.263488-2.98595-3.37227-.36037-.05439-.61779-.271958-.77223-.489523-.30889-.652698-.82372-1.08783-1.80187-1.08783-2.16223 0-4.8393 3.263487-5.86894 4.786449-2.2652 3.426662-3.55225 7.451631-3.55225 9.899247 0 3.426662 2.31668 5.384755 4.68485 5.384755 4.66777 0 9.58286-2.776426 13.18799-6.228339m-10.92278-4.758737c-.66926 0-.77222-.163175-.5663-.815872.61778-1.686136 2.31668-4.351317 3.34633-4.351317.66925 0 1.18408.435131 1.18408 1.196612 0 1.522961-2.36817 3.970577-3.96411 3.970577z"/><path d="m224.4027 16.944028c-.92668 0-2.11076.543915-2.98596 2.5564-.87519 1.903701-2.47113 7.179673-3.75817 13.543475-.25741 1.087829-.20593 2.284442.15445 2.719573.41185.598306.87519 1.033437 1.54445 1.033437.3089 0 .82371-.163174 1.39001-1.087829 2.31669-3.698619 4.89078-7.179673 7.87673-10.279987.77223-.76148 1.02965-.979046 1.18409-.76148.10296.163175 0 .543915-.20593 1.142221-.30889.924655-.66927 2.338833-1.08112 4.405709-1.08112 5.275972.66927 8.104328 3.24336 8.104328 2.62558 0 6.95007-2.284441 11.22306-10.062421.82371-1.359787.8752-2.284442.61778-2.665182-.20592-.271957-.61778-.163175-.87519.163175-3.08891 3.861793-7.46487 8.757025-9.31822 8.757025-.82371 0-1.64743-1.087829-.8752-4.351317.51482-2.175659 1.49298-5.112797 2.31669-7.016499.46333-1.087829.97815-2.012484 1.18408-2.502007.36037-1.033438.46334-1.794919-.46333-2.773965-.41186-.380741-.97816-.598306-1.59594-.598306-.51483 0-.87519.326349-1.18408.815872-.25742.543914-.6178.870263-.82372 1.033437-.46333.271958-.8752.543915-2.26521 1.631744-1.64741 1.196613-4.73633 4.351318-5.663 5.439147-.46334.652698-.82371.435132-.61778-.163174.30889-.924655.77222-2.882748 1.44148-4.07936.46334-.870263.92668-1.414178 1.39001-1.414178.30889 0 .61779-.32635.61779-.70709 0-1.14222-1.02964-2.882748-2.47113-2.882748z"/><path d="m244.26644 33.479035c-1.33853 0-1.54446-1.033438-1.28705-2.665182.20593-1.577353 1.28705-4.786449 2.00779-6.526976.25742-.543915.46334-.707089 1.13261-.815872 4.58189-.652698 7.61932-1.522961 8.49451-2.012485.72075-.435131 1.33854-1.686135.10297-1.686135-1.39001 0-5.09672.217566-7.4134.271957-.30889 0-.77223.05439-.61778-.38074.20593-.489523 1.02964-2.773964 2.16224-4.949623.51482-.924655.46333-1.903702-.3089-2.719573-.41185-.435132-.72074-.598307-1.23556-.598307-.77223 0-2.21372.815873-2.67705 1.84931-.51482 1.142221-2.11077 5.92867-2.36817 6.472585-.20593.598306-.51482.707089-.97816.815872-1.02964.217565-1.90483.435131-2.52262.543915-.72074.163174-1.02963.435131-1.49297 1.033437-.41186.489523-.46334 1.305396-.10297 1.686135.30889.271958.72075.598307 1.28705.543915.66927-.108783 1.39001-.163174 1.80187-.217565.51482-.05439.51482.163174.36037.543914-.25741.76148-1.95631 6.037453-2.47113 7.560414-.41185 1.14222-.5663 1.794918-.5663 2.447616 0 1.903701 1.80187 3.045922 3.29485 3.045922.66925 0 1.33852-.108783 2.21371-.435132 4.11856-1.414178 6.22931-3.372271 7.156-4.405709.87518-.979046.66925-2.447615-.51483-1.631744-1.23556.815873-3.70669 2.230051-5.45708 2.230051z"/></g></g></g></svg>