<svg height="150.36821pt" viewBox="0 0 770.4455 165.40503" width="700.40497pt" xmlns="http://www.w3.org/2000/svg"><g transform="translate(-127.28169 -57.228508)"><text fill="#ef00eb" font-family="TrasksHand" font-size="1.5" stroke="#0105ff" stroke-width="1.875" transform="matrix(.85382929 -.52055312 .52055312 .85382929 0 0)" x="454.68011" y="416.68896"><tspan fill="#fafafa" fill-opacity=".4" font-size="1.5" stroke="none" stroke-width="1.875" x="454.68011" y="416.68896">John Loreth 2022</tspan></text><path d="m790.71484 57.238281c-3.89052.04198-7.21856 2.893219-8.83428 6.280544-3.99651 8.518394-7.47573 17.265441-11.10699 25.942273-1.35086 3.26126-2.6806 6.529903-4.0138 9.798668-7.89184-.314131-15.76132 2.247314-22.25005 6.683744-6.77221 4.57594-12.26546 10.79864-16.94967 17.44028-1.38411 1.91987-2.57965 3.97183-3.8869 5.93681-2.03996 2.41831-4.15988 4.8505-6.29388 7.02352-1.49215 1.53161-3.20169 3.12204-4.75427 4.40783-.64007.7943-.45611-.14454-.43897-.65503.4432-8.7788 3.26474-17.23305 6.75399-25.23193 1.42284-3.61912.6221-8.07568-2.25252-10.76733-2.08893-2.1063-4.71732-3.82165-7.65625-4.404301-1.06782-.142682-2.15677-.06811-3.20703.160157-2.60153-2.230998-6.17764-3.391739-9.58085-2.734436-7.24462.909356-13.7702 4.74928-19.25416 9.40518-4.77827 4.09741-9.00186 8.81065-12.86592 13.76887-1.81804 2.4063-3.48931 4.92284-5.01001 7.52718.10596-.72197.22069-1.44747.1836-2.17969 4.04799-3.8242 6.37835-9.69662 5.18969-15.24147-1.19824-6.55146-6.64014-12.127057-13.21821-13.322784-5.34865-1.143133-10.85728.169094-15.89832 1.992131-6.03938 2.158763-11.39982 5.798753-16.48153 9.641483-5.17428 3.97885-9.86179 8.59756-13.8514 13.76658-.53272-6.19883-2.93698-12.50042-7.69746-16.67588-.53123-.53359-1.27298-.92266-1.75062-1.45205-.55809-3.86505-3.07015-7.502562-6.75739-8.965932-3.77475-1.598869-8.17849-1.56353-11.99871-.132668-2.59899 1.001162-4.92125 2.6513-6.84465 4.654267-3.6225.02204-7.03951 2.011043-9.31327 4.759173-1.78335 2.13944-3.01089 4.79336-3.18993 7.59393-.0733 1.2756-1.16282 2.10149-1.77859 3.1305-.96664 1.34957-1.95014 2.6883-2.86665 4.07304 1.55694-5.44589 2.91299-10.96205 4.87675-16.28072.69178-1.84925 1.65636-3.596101 2.9852-5.065977 3.31506-3.953034 3.39345-10.203256.16757-14.233548-3.24195-4.170913-8.5952-6.356885-13.801-6.39632-3.63039.06627-7.05094 1.842975-9.55378 4.411022-.42657.552229-1.06347.764909-1.74221.788564-4.0429.602394-8.3246 1.559809-11.40044 4.444098-3.86258 3.453156-4.18196 9.954707-.85638 13.878831 1.27682 1.69204 2.95814 3.05821 4.82039 4.05952-3.69172 13.17661-7.31761 26.42001-11.51758 39.38086-1.90407 5.80124-3.84374 11.52359-6.0752 17.22678-1.33218 3.28643-2.83031 6.59568-5.15491 9.30836-.6206.64599-1.34586 1.20352-2.16833 1.56642-1.28901-.56192-2.512-1.27905-3.85705-1.72064-3.04582-1.10613-6.27049-2.10674-9.5492-1.83796-4.90698.41476-9.74156 3.48263-11.52929 8.18165-1.36315 3.91452-.007 8.23061 2.29492 11.50195 1.66359 2.45493 4.06012 4.38553 6.82502 5.46403 4.39722 1.98395 9.26071 3.57244 14.13787 2.84066 3.86701-.60822 7.55924-1.98975 11.20466-3.36975 6.51987-2.614 12.35071-6.89302 16.91171-12.22497 3.73499-4.35154 6.22835-9.57994 8.49337-14.80198 1.67647-3.95193 3.10315-8.00424 4.46448-12.07401 1.2846 6.08563 5.43462 11.75702 11.35715 13.99261 3.83133 1.45507 8.05266 1.03733 12.00317.36736 9.38873-1.5996 17.89667-6.72842 24.59403-13.37956.71024-.68438 1.37409-1.41431 2.05346-2.12884.28253 5.06834 2.73262 10.09528 6.83579 13.14919 2.44411 1.87263 5.62345 2.60822 8.65809 2.22032 4.00371-.50459 7.81608-2.00289 11.42984-3.74647 2.02886-.99169 3.98195-2.12993 5.89854-3.32226-1.08496 4.27132-2.25669 8.52596-3.69531 12.69336-.42458 1.18943-.95078 2.59659-1.47419 3.84766-2.76411 6.69349-6.6617 13.0549-12.08673 17.9198-1.84689 1.54008-3.97928 3.01786-6.43713 3.25402-1.41086.0487-2.45716-1.0808-3.56473-1.78996-2.73294-2.14399-5.66992-4.24905-9.13599-4.97197-2.8578-.67985-5.91214-.27881-8.53508 1.0284-4.37138 1.98991-8.2464 5.47142-10.02591 10.00111-1.3797 3.87141-.36169 8.46403 2.5683 11.35707 3.16415 3.42136 7.69455 5.30571 12.23256 6.01909 2.01585.22027 4.08847.11703 6.03236.78819 3.20021.77651 6.53477.94283 9.81401.75753 4.01055-.35152 7.81804-1.80747 11.52484-3.29371 7.27922-3.05021 13.97811-7.57597 19.26738-13.45825 6.41807-7.06082 11.12441-15.55411 14.44497-24.46542 2.46374-6.67547 4.02104-13.63209 5.71909-20.52872 2.38742 3.96818 6.34617 7.11421 10.91211 8.10742 3.18999.59895 6.48159-.17955 9.44145-1.38053 5.52332-2.351 10.10587-6.35046 14.62795-10.20293.44971-.60487.60401-.14696.77543.40786 2.00885 5.06109 6.25203 9.34102 11.5727 10.78984 4.35372 1.26264 9.02662.41717 13.114-1.34841 2.35116-.99782 4.55393-2.31028 6.66769-3.73653 2.18304 3.42984 6.01326 5.80748 10.10805 5.9628 4.71829.30241 9.25531-1.43218 13.50859-3.27425 5.49137-2.50786 10.44387-6.05247 15.0025-9.98152 1.28627 4.86659 4.58593 9.43585 9.3871 11.2903 4.07928 1.61625 8.6615 1.19269 12.74962-.16139 4.53471-1.44164 8.66462-3.98093 12.42187-6.82422 2.60271 4.61203 7.23396 8.32417 12.61391 8.87224 3.82422.41995 7.67932-.21934 11.39853-1.08305 7.19946-1.83215 13.79049-5.66335 19.32936-10.56849-.22099 2.84151.86654 5.70148 2.84513 7.74026 3.14307 3.44053 7.74606 5.15037 12.26319 5.82553 4.06672.53139 8.21071-.34921 11.90271-2.06807 4.16202-1.77998 8.12548-4.03014 11.82542-6.63372 3.41284-2.61976 5.77891-6.45879 6.978-10.55931.77609-2.7203.72516-5.62912-.0304-8.34749-1.22847-5.14354-4.2836-9.57623-7.42938-13.73025-1.02217-1.47859-2.13647-2.94402-2.71599-4.6664 2.67335-1.84977 5.93234-2.53671 9.06899-3.15169 2.76205-.48127 5.59099-.31459 8.35484-.74089 4.25867-.89813 8.04292-4.43494 8.57569-8.85551.84618-4.89826-1.66693-10.11413-5.94874-12.607382-4.95957-3.191189-11.20807-3.654711-16.8906-2.591725-8.01789 1.409089-15.60527 5.294497-21.29459 11.138667-1.27497 1.28384-2.45996 2.6578-3.53746 4.11126-1.54503-3.20464-3.84487-6.08135-6.78711-8.10547-.55293-3.8489-2.99205-7.516344-6.66339-9.005748-4.32314-1.896734-9.47095-1.576946-13.67649.481171-1.9681 1.012607-3.68805 2.43821-5.28512 3.95622-1.48959.0652-2.96715.340607-4.31904.991057-4.54106 1.98716-7.83316 6.58462-8.20608 11.53382-.0904 1.16677-1.10817 1.90829-1.66229 2.86297-2.33322 3.13025-4.47662 6.39897-6.35839 9.82083-1.27076 2.18379-3.11147 3.95411-4.71526 5.88752-2.62632 2.96726-5.37438 5.83299-8.33269 8.47216 1.40885-9.95497 3.8444-19.75041 6.94464-29.30834 3.32356-10.12271 7.72606-19.840296 12.11653-29.533122 1.59824-3.560782 3.01673-7.532237 2.1165-11.473433-.88858-3.989614-3.73973-7.23855-6.9303-9.640311-2.15464-1.502246-4.78197-2.364115-7.41925-2.251823zm-573.51757 20.207031c-5.10463.182529-9.66469 3.353181-12.62432 7.362782-4.63786 6.317913-7.30763 13.785022-10.42532 20.866636-1.84574 4.40064-3.59196 8.84298-5.24529 13.31941-4.03958-6.79863-8.14012-13.53293-12.00195-20.363281 1.48939-2.597194 2.11115-5.798224 1.12222-8.684245-1.16242-3.809011-3.91111-7.218251-7.56753-8.874348-5.65723-2.547129-13.01523-.938349-16.78711 4.080078-.92739 1.17409-1.71962 2.47909-2.17188 3.912109-2.88251 2.125145-5.27931 5.060903-6.37684 8.501714-1.02221 3.048673-.46175 6.523593 1.41786 9.125243.16998.44258.92772.78764.53164 1.28552-5.76472 13.49314-11.8115 26.86448-17.64423 40.32707-1.48768 3.73-2.74727 7.8241-1.83339 11.85797.92203 4.68342 4.37906 8.86193 8.98144 10.30105 5.09269 1.71191 10.89648.21574 14.94129-3.20068 3.51236-2.87984 6.25315-6.8259 7.37103-11.25408.92459-3.68393.59306-7.51417.91665-11.261.7202-4.71585 2.90937-9.01647 4.71161-13.38228.27586-.1918.62298.95774.92737 1.30301 3.95679 6.85149 7.97008 13.67129 12.19411 20.36248 1.602 2.68889 3.12778 5.67058 4.79359 8.42836 2.36816 3.70384 6.26467 6.34782 10.49756 7.45719 3.40736.96661 7.19924.50022 10.21027-1.38765 1.46534-.87079 2.64225-2.11717 3.71551-3.41118 2.39121 2.94578 6.07369 4.99968 9.9375 4.79297 5.38543-.12608 10.31465-2.76058 14.59604-5.8315 3.40406-2.38036 6.7041-4.90933 9.88834-7.57671.34131 4.38111 2.17203 8.86571 5.8083 11.51535 2.63284 1.96309 6.03219 2.68085 9.26374 2.28391 3.74544-.3901 7.34763-1.63797 10.8102-3.06725 2.57901-1.10608 5.05915-2.43457 7.44393-3.91169 2.50321 3.00272 6.41587 5.00481 10.38249 4.52905 3.62169-.36238 6.65726-2.85267 8.61707-5.79632 1.21166-1.70191 2.28538-3.46101 3.47575-5.1003 2.81438-3.98715 5.71994-7.9128 8.79813-11.70079-.73345 6.0505-.33696 12.48002 2.5298 17.96587 2.41453 4.67996 7.0063 8.30873 12.28038 9.04924 5.63333.87673 11.33202-.83809 16.31475-3.38897 4.25291-2.19794 8.09515-5.12859 11.56257-8.41521 2.54765 4.31829 6.79625 7.56538 11.62336 8.91377 6.4652 1.89908 13.37662.92423 19.72039-.97627 5.88884-1.79446 11.42967-4.59695 16.59765-7.91796 2.18096 4.74156 6.59885 8.43091 11.67392 9.6677 3.81241.76489 7.72077-.39318 11.16386-1.99527 5.23052-2.52052 9.62365-6.39868 14.04968-10.08653.23752.27052.38367.95485.61753 1.38116 2.14826 4.99956 6.52699 9.12754 11.87329 10.43085 4.34488 1.16231 8.95247.25077 13.01439-1.47863 5.0279-2.1662 9.46786-5.48931 13.55241-9.09192 6.34059-5.68773 11.74605-12.41341 16.01118-19.78225 1.8777-3.40387 3.61523-7.09159 3.71757-11.04707.0516-3.13867-1.42308-6.41906-4.25726-7.95571-2.94804-1.73049-6.80472-1.38882-9.59494.50158-2.62572 1.72291-4.1179 4.59281-6.13139 6.91577-4.23475 5.26459-8.80803 10.30686-14.06133 14.57742.046-3.56936.62933-7.26304 1.38476-10.64843 1.24267-5.35763 3.18177-10.52596 5.37697-15.55819 1.08844-2.57981 1.25805-5.61191.0176-8.17228-1.44817-3.08674-4.33017-5.2189-7.33008-6.66406-1.82581-.801529-3.90484-1.073305-5.85352-.599614-2.5758-2.190354-6.10282-3.370861-9.4707-2.765625-.40473.03992-1.14758.144469-1.68625.250728-6.93427 1.250667-13.15412 5.013231-18.4598 9.523961-4.64876 4.0073-8.82649 8.54825-12.61295 13.37188-1.28516 1.68821-2.45026 3.49604-4.10354 4.8584-4.566 4.29574-9.28948 8.45191-14.4441 12.03409-.913.62607-2.02986 1.39016-3.06103 2.01527-1.55486.96649-3.31705 1.99865-4.84131 2.75036-2.69473 1.34253-5.5989 2.36517-8.6211 2.56641-.64041-1.38185-.23681-2.96938-.0873-4.41818.98313-6.15978 4.07339-11.8268 8.11658-16.51347 1.90679 2.42226 5.06053 3.5496 8.0824 3.42524 4.7262-.15212 9.16009-2.79306 12.0502-6.45517 3.12798-3.98091 4.46377-9.63118 2.49651-14.42265-1.94989-4.7989-6.72607-8.092584-11.78275-8.819332-6.14526-1.029435-12.38701.714072-17.93116 3.304322-7.82997 3.69966-14.66006 9.44645-19.8 16.40209-2.34478 3.1877-4.23498 6.68756-5.95922 10.23378-5.5351 6.16782-11.12379 12.37783-17.69989 17.46588-.19366-.0567.14732-1.00387.17729-1.38015.28275-1.35582.72716-2.86079 1.04631-4.08604 2.35615-8.10699 5.28156-16.09446 9.3577-23.50666 1.92393-3.68647 2.89649-8.19691 1.29269-12.17888-1.89573-4.975844-6.90138-8.507999-12.20175-8.768373-3.61538-.254872-7.33683 1.362486-9.46427 4.328916-.82051 1.006037-1.30166 2.336657-2.54962 2.916307-1.91827 1.12692-3.6752 2.49187-5.48944 3.77315-1.3647-5.64065-5.90786-10.637344-11.70004-11.792797-5.50242-1.034152-11.24436 1.653205-14.60186 6.004129-3.43852 4.279308-5.08153 9.610988-6.89761 14.703918-2.18426 6.43166-4.0192 12.97635-5.70088 19.55545-2.0403 1.74445-4.10502 3.46821-6.31055 5.00195.52554-2.36446 1.26296-4.91009 1.98047-7.17187 1.65903-5.35104 3.99964-10.4613 6.67538-15.3742 1.41222-2.60188 2.33793-5.60377 1.80575-8.58072-.97352-6.59104-7.22304-12.090127-13.95425-11.791637-4.19168.188098-7.80508 2.963432-10.18206 6.259067-2.9287 3.9158-5.26176 8.23167-8.05101 12.24303-.53214.81116-1.07812 1.61296-1.62194 2.41633 1.15863-2.56903 1.86587-5.54631.89774-8.29398-1.36095-4.26676-5.0187-7.39266-8.95803-9.263846-1.7696-.802666-3.68551-1.309552-5.63111-1.389437.63433-3.29276-.13078-6.671513-1.11941-9.815484-1.34602-4.2121-4.0807-8.270469-8.25364-10.069282-1.65038-.71262-3.46259-1.055474-5.25976-.980469z" fill="#333" stroke-width="1.875"/><g fill="#f4c401"><g stroke-width="4.62665" transform="matrix(.4052611 0 0 .4052611 73.494559 33.775264)"><path d="m1169.4101 124.17001c-6 0-9.2 2.8-12.4 5.6-4.8 4.8-6.8 6-12.8 6.8-6.8 1.2-12 2-16 4-3.6 1.6-7.2 4.4-7.2 9.2 0 6.8 8.4 13.2 17.6 14.8 2.8.4 3.2 1.2 2.8 3.6-20.8 75.2-30 106.4-44 144.8-6 16.4-11.6 28-19.2 36.8-6.8 6.4-12.8 9.2-16.8 9.2s-7.6-1.6-10.4-3.2c-3.6-2-14.4-6-20.8-6-6.8 0-16 5.6-16 12 0 6 5.2 14.4 10.4 17.2 8.4 4.4 18.8 8 26.4 8 4.8 0 10.4-2 16-3.6 4.4-1.2 10.8-4 16-6 4-2 17.6-8.8 30-22.8 14.4-16 28-52 41.2-100.4 19.2-70 21.2-78 25.6-89.2 2-5.6 5.6-11.6 8-14.4 2.8-2.8 6-7.6 3.6-14-2.4-6.8-13.2-12.4-22-12.4z"/><path d="m1172.8726 284.97001c0 18.8 12 33.6 26.4 33.6 28.8 0 54.8-16 74-38.8 16.4-18.4 22.4-37.6 22.4-53.6 0-15.6-5.6-33.2-20-40.4-2.8-1.2-3.2-2.4-3.2-4.8 0-5.6-.8-15.6-16-15.6-6.8 0-12.8 2.4-18.4 8-4 4-6.8 6-12 6-4.4 0-7.6 2-10.4 4.8-2.8 3.2-4.8 6-5.2 10.8-.4 7.2-3.6 10.8-6.8 15.2-4.8 6-15.2 21.6-21.2 35.2-7.2 17.6-9.6 28.8-9.6 39.6zm37.6-6.8c0-16.8 16-49.2 34-70.4 2.4-3.2 6.4-6.8 9.2-6.8 7.2 0 10 11.2 10 21.2 0 14-13.6 44.8-25.2 57.6-7.6 8.4-14.4 11.6-19.6 11.6-3.6 0-8.4-4.8-8.4-13.2z"/><path d="m1414.7814 171.37001c-8.8 0-25.2 4.8-36.4 11.2-13.6 8-35.6 22.4-54 46.4s-26.8 48-26.8 63.6c0 11.2 8 24.4 17.6 24.4 11.2 0 28.4-8.8 36.8-14 13.6-8.4 25.2-18.4 30-22.4 2.4-2 4-2.4 3.6.8-.8 5.6-2 16.8-6.4 34.4-6.4 26-14 53.2-30.4 76.4-18 25.6-34 32.8-45.6 32.8-7.2 0-13.6-4.4-19.2-8.8-5.2-4.4-12.4-8.8-18.4-8.8-8.4 0-24 11.2-24 20.8 0 10.8 18 18 27.2 18 6.4 0 9.2.8 13.2 2 4.4 1.2 11.6 1.6 17.2 1.6 10.4 0 36-9.6 52.8-22.8 19.2-14.8 42-44 54-91.6 4.4-17.2 15.2-59.2 22.4-101.6.8-4 1.6-9.6-.4-11.6-1.2-.8-.4-2.4 2.8-4.4 6.8-4.8 12-12.8 12-21.2 0-8.8-6.4-25.2-28-25.2zm-78 101.6c0-10.4 10.8-31.2 19.2-42 14.4-18.4 32.4-28.4 48.8-28.4 8.4 0 13.6 4.8 13.6 7.6 0 1.6-1.2 3.6-2 4.4-1.6 1.2-3.6 1.6-5.2 2-4.4 1.2-9.2 4.4-13.6 10.8-2.4 3.6-7.6 12.8-21.2 26-5.6 6-25.6 26-35.2 26-2.8 0-4.4-2.8-4.4-6.4z"/><path d="m1541.9814 172.17001c-4.4 0-21.6 1.6-43.6 20.8-16.8 15.2-33.6 34.8-44 56-12.8 24.4-15.2 37.2-15.2 45.2 0 15.2 15.6 23.6 20.4 23.6 8.4 0 16.8-3.6 27.6-11.6 11.2-8 32.4-27.2 37.2-32.8 2.4-2.4 3.2-2.4 3.6 1.2 0 4.4 0 8 .8 14 1.6 16.4 12.4 29.2 27.2 29.2 25.2 0 64-37.6 81.6-72.4 3.6-7.6 5.6-14.8 3.6-18.4-1.6-2.8-5.6-3.2-10 .8-25.2 34.8-52.4 59.2-61.6 59.2-6 0-10-5.6-10-19.6 0-24 7.2-48.8 17.6-72.4 1.2-3.6 3.2-8.4-8-14.8-3.6-2.4-6.4-1.6-9.6 1.2-2.4 1.6-4.4 1.6-5.2-.8-2.4-3.2-6.8-8.4-12.4-8.4zm-14.8 30c5.2 0 8.4 4.8 9.6 8.4 1.2 4 0 9.2-2.4 13.2-1.6 2.8-8 14-13.6 20.4-12 14-17.6 21.6-24.4 27.2-6 5.2-12 9.2-15.2 9.2s-4-5.6-2.8-10.8c2.4-10.8 13.6-33.2 27.2-49.2 11.6-13.6 18-18.4 21.6-18.4z"/><path d="m1708.3819 177.77001c-22 0-43.6 9.2-65.2 32.8-30 32.8-40 64.8-40 82 0 20 9.2 26 18 26s24.8-5.2 42.4-17.2c10-6.8 29.2-23.6 38.8-35.6 2-2.8 3.6-2.4 3.2.8-.8 4.8-1.6 10-2 18.8-.8 14 6 30.8 22.4 30.8 31.2 0 71.2-44 83.6-69.6 3.6-7.6 5.6-14.8 3.6-18.4-2.4-4-7.2-3.2-12 3.6-7.6 11.2-45.2 54-57.6 54-6 0-8.8-7.2-7.6-20 1.6-20 10.4-60.4 22-92.4 13.2-36 23.2-54.8 28.8-68.4 4-9.999997 4-15.199997-1.6-21.999997-6.4-7.6-10.4-8.8-14.8-8.8-2.8 0-5.6 1.6-8.8 8.4-4.8 10-22.8 52.799997-39.6 94.399997-.8 2.4-1.6 2.4-3.6 2-3.2-.8-6.4-1.2-10-1.2zm-8 23.2c3.2 0 6 2 7.2 4.4 1.6 2.8 2 6-.4 11.2-2.4 6-20 34.4-33.6 48-12.8 12.4-22.4 17.6-27.2 17.6-2.8 0-5.2-2.8-5.2-6.8 0-6 2-14.8 19.2-38.8 15.2-21.6 32.8-35.6 40-35.6z"/><path d="m1783.5826 284.97001c0 18.8 12 33.6 26.4 33.6 28.8 0 54.8-16 74-38.8 16.4-18.4 22.4-37.6 22.4-53.6 0-15.6-5.6-33.2-20-40.4-2.8-1.2-3.2-2.4-3.2-4.8 0-5.6-.8-15.6-16-15.6-6.8 0-12.8 2.4-18.4 8-4 4-6.8 6-12 6-4.4 0-7.6 2-10.4 4.8-2.8 3.2-4.8 6-5.2 10.8-.4 7.2-3.6 10.8-6.8 15.2-4.8 6-15.2 21.6-21.2 35.2-7.2 17.6-9.6 28.8-9.6 39.6zm37.6-6.8c0-16.8 16-49.2 34-70.4 2.4-3.2 6.4-6.8 9.2-6.8 7.2 0 10 11.2 10 21.2 0 14-13.6 44.8-25.2 57.6-7.6 8.4-14.4 11.6-19.6 11.6-3.6 0-8.4-4.8-8.4-13.2z"/><path d="m1989.5112 171.77001c-13.2 0-34 6.8-46.4 17.6-11.6 9.2-24 24.8-24 39.2 0 5.2 2 12 4 16.8 2.8 6 9.2 17.2 13.2 22.4 5.6 7.6 9.2 14.8 9.2 18.8 0 2.4-3.2 5.6-8.4 5.6-5.6 0-8-.8-12-2.4-3.6-2.8-6.4-2.8-10-.8-3.6 1.6-8.8 4.8-14.4 11.2-2.8 2.4-3.2 5.6-3.2 8.4 1.6 8.8 16.8 14.8 27.6 14.8 4.4 0 9.2-1.2 15.2-3.6 8.8-3.6 24-12 29.2-16.8 4.8-4.4 10-14.4 10-20.4 0-10.4-6-22-15.2-33.6-6.8-9.2-12-18-12-25.6 0-12.4 27.6-22.8 52.4-22.8 6.8 0 12.8-3.2 12.8-10.8 0-4.8-1.6-8.8-6.8-12.4s-11.2-5.6-21.2-5.6z"/></g><g><path d="m444.23776 103.56806c-1.81915 0-8.93035.65102-18.02608 8.46319-6.94583 6.18464-13.89165 14.15957-18.19145 22.78551-5.29206 9.92797-6.28432 15.13609-6.28432 18.39116 0 6.18464 6.4497 9.60247 8.43422 9.60247 3.47291 0 6.94582-1.46479 11.411-4.71986 4.63055-3.25507 13.39552-11.06725 15.38005-13.3458.99226-.97652 1.32301-.97652 1.48839.48826 0 1.79029 0 3.25508.33075 5.69638.66151 6.6729 5.12668 11.88102 11.24563 11.88102 10.41874 0 26.46029-15.29885 33.73687-29.45841 1.48839-3.09232 2.31528-6.02189 1.48839-7.48667-.6615-1.13928-2.31527-1.30203-4.13442.32551-10.41874 14.15956-21.66436 24.08754-25.46803 24.08754-2.48065 0-4.13442-2.27855-4.13442-7.97493 0-9.76522 2.97678-19.85595 7.27658-29.45841.49613-1.46478 1.32301-3.41783-3.30754-6.02189-1.48839-.97652-2.64603-.65101-3.96904.48827-.99226.65101-1.81915.65101-2.1499-.32551-.99226-1.30203-2.81141-3.41783-5.12668-3.41783zm-6.11895 12.20652c2.1499 0 3.47292 1.95305 3.96905 3.41783.49613 1.62754 0 3.74333-.99226 5.37087-.66151 1.13928-3.30754 5.69638-5.62282 8.30044-4.9613 5.69637-7.27658 8.78869-10.08798 11.06724-2.48066 2.1158-4.96131 3.74334-6.28432 3.74334-1.32302 0-1.65377-2.27855-1.15764-4.39435.99226-4.39435 5.62281-13.50855 11.24562-20.0187 4.79593-5.53362 7.44196-7.48667 8.93035-7.48667z" stroke-width="1.875"/><path d="m300.03226 100.36781c-2.95886 0-6.73963 1.64257-9.53411 7.72007-2.79448 5.74899-7.8903 21.68189-11.99984 40.89993-.8219 3.28514-.65752 6.89878.49315 8.21284 1.31505 1.80682 2.79448 3.12088 4.93144 3.12088.98629 0 2.6301-.49277 4.43829-3.28514 7.39716-11.16946 15.61622-21.68189 25.15034-31.04452 2.46572-2.2996 3.28762-2.95663 3.78077-2.2996.32876.49277 0 1.64257-.65753 3.44939-.98629 2.79237-2.13695 7.06305-3.45201 13.3048-3.45201 15.9329 2.13696 24.47426 10.35602 24.47426 8.38345 0 22.19148-6.89879 35.83512-30.38751 2.63011-4.10641 2.79449-6.89877 1.97258-8.04858-.65753-.82128-1.97258-.49276-2.79448.49278-9.86288 11.66223-23.83529 26.44533-29.75301 26.44533-2.63011 0-5.26021-3.28513-2.79448-13.14054 1.64381-6.57027 4.76705-15.44013 7.39715-21.18912 1.47943-3.28513 3.12324-6.0775 3.78077-7.55581 1.15067-3.12088 1.47943-5.42047-1.47943-8.3771-1.31506-1.14979-3.12324-1.80681-5.09582-1.80681-1.64381 0-2.79449.98553-3.78077 2.46384-.8219 1.64257-1.97258 2.62811-2.6301 3.12088-1.47943.82129-2.79449 1.64257-7.23278 4.9277-5.2602 3.61365-15.12308 13.14054-18.08194 16.42568-1.47943 1.97108-2.63009 1.31405-1.97257-.49277.98629-2.79237 2.46572-8.70561 4.60267-12.31926 1.47944-2.6281 2.95887-4.27067 4.4383-4.27067.98628 0 1.97258-.98554 1.97258-2.13534 0-3.44939-3.28763-8.70561-7.89031-8.70561z" stroke-width="2.06249"/><g stroke-width="1.875"><path d="m389.81425 103.56806c-8.76497 0-19.18371 6.18464-25.96417 13.67131-8.10346 8.95145-12.0725 21.15797-12.0725 28.48188 0 12.85754 7.77271 17.08914 15.7108 17.08914 15.54542 0 34.56376-12.85754 46.47089-27.99363 2.1499-2.76681 2.97678-5.69638 2.1499-7.16116-.66151-1.13928-2.31528-1.30203-4.13442.32551-11.08025 10.74174-26.12955 23.11101-37.8713 23.11101-3.63829 0-6.61507-3.25507-6.61507-8.13768 0-4.5571 1.32301-11.55551 6.94582-19.85594 4.63055-6.83565 9.26111-9.27696 10.91487-9.27696.99227 0 1.81915.81377 1.65377 2.92957-.16537 1.62753.33076 2.76681 1.32302 3.25507.82688.48826 2.8114.65101 4.9613-.32551 3.14216-1.46478 6.11895-4.5571 6.11895-8.95145 0-3.41782-3.30754-7.16116-9.59186-7.16116z"/><path d="m263.94128 148.81357c-2.48065 0-2.8114-2.11579-2.48065-5.69637.82688-6.83566 4.13442-17.41464 7.60733-24.41305 1.65377-3.25507 2.64603-5.04536 3.30754-6.51015 1.98452-4.23159-2.31528-9.27695-6.4497-9.27695-1.98452 0-3.96904 1.30203-6.61507 5.20811-2.97678 4.55711-9.92261 16.27537-17.69532 25.22682-7.93809 8.46319-12.56864 12.53203-14.38779 12.53203-1.98452 0-2.8114-1.79029-1.15764-6.99841 1.98453-6.6729 3.30754-9.76522 4.63056-12.20652 1.15763-2.1158 3.14216-3.09232 4.79592-5.20812 1.4884-1.95304 4.79593-7.48667 4.79593-9.60246 0-2.92957-4.9613-6.99841-9.09572-6.99841-1.98453 0-4.13442 1.30203-5.78819 3.74333-1.98453 3.58058-7.11121 13.18305-11.08025 24.73856-4.63055 12.04377-5.12668 16.11261-5.12668 18.71667 0 5.20811 3.47291 10.25348 6.94582 10.25348 2.48066 0 5.12669-.65102 8.5996-2.76682 9.92261-6.18463 20.83748-16.60087 23.48351-19.36768.99226-.97652 2.1499-.32551 1.65377 1.46478s-.99226 3.58058-1.48839 6.18464c-1.98452 9.43971.99226 14.97334 6.11894 14.97334 2.48065 0 7.11121-1.13928 11.74176-3.41783 5.78819-2.76681 15.54542-8.7887 28.11406-25.06406 2.48065-3.09232 3.47291-6.6729 2.48065-8.62594-.6615-1.46479-1.98452-1.46479-3.30753-.16276-9.75724 10.74174-23.97965 23.27377-29.60246 23.27377z"/><path d="m164.62723 86.478926c-1.81915 0-3.96905.813768-5.12669 1.953044-.82688.976521-1.81914 2.278551-1.81914 3.092319s-.66151 1.79029-2.1499 2.766812c-2.1499 1.464782-3.63829 3.743332-4.13442 5.208119-.66151 2.27855.49613 3.58058 1.98452 5.04536.99226.97653 1.48839 2.1158.66151 3.90609-1.65377 4.06884-11.57638 26.6916-17.69533 40.3629-.82688 1.79029-2.48065 6.18464-2.48065 7.97493 0 5.53363 3.80367 7.81218 7.27658 7.81218 2.1499 0 5.29206-1.13928 7.77271-3.90609 3.6383-4.23159 4.13443-6.34739 4.13443-14.15957 0-.97652 0-2.27855.6615-5.20811 1.32302-5.53363 6.28432-16.27537 9.26111-22.1345.6615-1.13927 1.32301-1.46478 2.31527.16275 2.31528 3.58058 9.92261 17.41464 15.38005 26.04059 5.29206 8.30043 6.61507 11.71826 7.60733 13.02029 1.32302 1.79029 4.79593 4.39435 8.26885 4.39435 2.64603 0 4.13442-1.46479 5.62281-3.41783s1.65377-4.39435.82688-5.69638c-.99226-1.46478-1.98452-2.4413-1.98452-3.90608 0-2.27856 0-4.2316 1.48839-9.92798 3.80367-14.15956 7.77271-24.25029 14.22241-36.78232 1.15764-2.4413 3.14216-3.58058 4.96131-3.743333 2.48065-.162758 3.80366-1.302034 3.80366-3.255077 0-2.929565-1.81914-12.043769-7.77271-12.043769-1.98452 0-4.13442.813768-6.28432 2.929566-2.31527 2.278551-4.9613 6.347392-9.2611 16.763623-3.96905 8.95146-7.60734 18.55392-10.91487 28.48189-.66151 1.79029-.99226 2.1158-1.98453.32551-1.48839-2.60406-16.04155-26.85435-17.86069-30.10942-.99227-1.79029-1.4884-3.417835-1.4884-4.231603 0-.651014.49613-1.302029 1.15764-2.766811.82689-1.139275 1.32302-2.929565 0-5.045363-1.32301-2.278551-2.97678-3.906087-6.44969-3.906087z"/></g></g></g></g></svg>