<svg height="152.21956" viewBox="0 0 141.45875 25.052295" width="859.51361" xmlns="http://www.w3.org/2000/svg"><g stroke-width=".41145" transform="translate(-.054804 -.945859)"><text fill="#ef00eb" font-family="TrasksHand" font-size=".32916" stroke="#0105ff" transform="matrix(.42502483 -.90518169 .90518169 .42502483 0 0)" x="-5.145379" y="16.905081"><tspan fill="#fafafa" fill-opacity=".4" font-size=".32916" stroke="none" stroke-width=".41145" x="-5.145379" y="16.905081">John Loreth 2022</tspan></text><path d="m34.322266.94726562c-1.488117.32367708-1.926318 1.97433378-2.543869 3.15102888-1.138616 2.4922345-1.911601 5.1270916-2.657303 7.7571745-1.256661 1.126353-2.569587 2.557427-4.304688 2.787109-.24474-.789616.231153-1.630597.525391-2.361328.193548-.254337.434921-.973691.732422-.773438 1.129871.974052 2.894082-.02174 3.223749-1.32048.409421-1.102335-.226352-2.4645694-1.413316-2.7120464-1.848524-.5535979-3.684809.6167897-4.975685 1.840709-.499476.4972331-.939914 1.0559034-1.295686 1.6644744-.134058-.959046-.579946-1.9110996-1.373047-2.496094-.151338-1.5425481-2.275346-2.1004594-3.35975-1.1267357-.542703.5606591-1.462981.4540519-1.893718 1.1636849-.493879.5835858-.461243 1.4068482-.984224 1.9741598-1.122162 1.782133-2.218943 3.954902-1.604066 6.106642.40748 1.33361 1.872905 2.250841 3.248008 1.860765 1.968952-.346236 3.697971-1.614 4.8125-3.248047-.0064 1.616519 1.259055 3.153494 2.91211 3.248047 1.743105.138091 3.402428-.678888 4.810547-1.628907.166346 1.11141 1.347965 2.021873 2.457435 1.571979.948057-.259182 1.460064-1.202036 1.64284-2.094053.351986-.733973.794314-1.423611 1.296209-2.063863-.190528 1.252141-.393111 2.752985.449219 3.814453.910371.94759 2.411636.671782 3.387605-.01836 2.089995-1.185443 3.734368-3.069137 4.914809-5.136993.479926-.81273.420058-2.246074-.694992-2.463784-1.160912-.181062-1.717361 1.09431-2.388597 1.786436-.539148.621674-1.104741 1.229729-1.761794 1.729189.434986-1.722251 1.356259-3.322249 1.607707-5.0800179-.126409-1.3317588-1.86498-1.7617742-2.893736-1.1636553-.79883.2978315-1.500435.8034356-2.147565 1.3491383.643675-1.9027576 1.573762-3.7030622 2.636719-5.3964843.368366-1.3730867-1.028711-2.77272615-2.365234-2.72070318zm97.214844.48242188c-1.42899.2838625-1.82999 1.9021768-2.37115 2.9846096-1.11356 2.5829727-2.1677 5.1952417-2.99604 7.8845309-.61103.576956-.48637.375498-.15234-.21875.61365-1.307672.45232-3.2564991-1.02599-3.9000934-.3994-.1731397-.79256-.2541171-1.06319-.6138129-1.1343-.8171134-2.6428-.1348263-3.49676.7756252-1.21596 1.1164666-1.92705 2.6415661-2.70036 4.0582441-.54031.5209-1.06352 1.063456-1.65316 1.529647.45652-1.51607 1.35272-2.974396 1.8447-4.5085373.0634-.7834589-.41687-1.5573698-1.10641-1.9133382.81859.4352764 2.06777.1570659 2.21875-.8730469.0872-.7874152.0674-1.5822598.19472-2.3656232.10154-.9502779-.5913-1.8254778-1.52871-1.9647762-.91961-.301092-2.03864.073809-2.37305 1.0354776-.54626 1.4461782-.10042 3.3801539 1.36329 4.109375-1.11392-.502765-2.0853.5317585-2.82227 1.2285156-.67531.6695665-1.09717 1.5534606-1.50895 2.3734706-.61187.634768-.32649-.155792-.35155-.587123.0825-1.3485551-.78862-3.029104-2.31528-2.9582226-.66525.015913-1.2997.3394855-1.84766.6503906-.28298-1.4169707-2.15261-1.8558345-3.25999-1.1015999-.4474.2606084-.82751.6549271-1.09938 1.0801155-1.20882-1.2683226-3.23147-.9091217-4.632971-.1850119-1.19386.5834284-2.247161 1.7629959-2.632656 2.9271993.180339-1.3109188-.705923-2.7586288-2.042969-2.9628905-.835841-1.0657071-2.481566-.8190803-3.379767.0333472-.860945.643471-1.556731 1.5303797-2.102655 2.4217313-.41689-1.3715541-2.284026-1.865516-3.362806-.9475298-.973364.4897235-1.679261 1.4688188-1.792381 2.5500438-.538029 1.159734-1.589508 2.041484-2.776453 2.485376-.09146-1.926962 1.054828-3.736108 2.419922-5.0214841.517952-.3501286 1.006607-1.0406424 1.68164-.9804688.79788.430311 1.792383.5114491 2.56672-.022545.931554-.5276085 1.786217-1.7989685 1.030937-2.8114392-.95803-1.2914877-2.802613-1.3047178-4.198927-.8400439-3.026698.8928609-5.498769 3.2468706-6.947558 6.004106-1.000517 2.007482-1.342557 4.672926.09961 6.556641.293987.335369.651989.617362 1.054687.810547-1.254729.319447-2.241438 1.984113-1.304472 3.095807.956438 1.090842 2.511322 1.379562 3.882597 1.519427 2.480897-.115557 4.34618-2.279341 5.128634-4.482123.479274-1.305331.712961-2.681443 1.060819-4.023736-.253037 1.491122.319597 3.197503 1.748514 3.881642 1.637861.751982 3.512974.106128 5.059686-.581593.390504-.160963.796525-.59549.873441.0437.885136 1.409128 2.920681 1.48053 4.259766.714843.634564-.335015 1.230442-.751016 1.750002-1.246093-.70447 2.316518-1.488973 4.599257-2.172531 6.917815-.173061 1.373888 1.443241 2.404911 2.663611 1.855698 1.33864-.26472 2.83652-.574424 3.7804-1.636794.49939-.695509.11432-1.874814-.81049-1.916325-.38955-.08853-.79314-.06227-1.18951-.08172.42513-1.233724.85026-2.467448 1.27539-3.701172 1.51844.08743 2.80865-.922361 4.13397-1.515108 1.0156-.479717 2.07803-.958558 3.01838-1.53372-.24275 1.565848 1.09928 3.348777 2.77467 3.075178 1.2686-.16946 2.3877-.878776 3.35814-1.676741.80627 1.432691 2.66481 1.952849 4.18051 1.462792 1.30754-.239326 2.53787-.881449 3.64957-1.535058.35896 1.218033 1.76162 2.063468 2.98579 1.567863 1.00746-.228826 1.89905-.797449 2.71538-1.411613.60559 1.430773 2.48499 1.92277 3.81604 1.227958 1.64834-.561701 3.41214-1.469868 4.19958-3.102958.31492-.984072-.83426-2.149278-1.78391-1.520049-.62171.302722-1.18115.756817-1.87234.902862.12521-.898773.46715-1.776394.8125-2.595703.94249-.223882 1.93113-.318013 2.87462-.584146.91586-.257819 2.22992-.704044 2.17226-1.8709321.0262-.8265168-.80397-1.3998575-1.58355-1.2164555-.69812.011513-1.39731.045661-2.09614.069971.52264-.9241935 1.12313-2.1510674.39063-3.1367188-.69443-1.0648201-2.36072-1.0662545-3.14256-.1007471-.97749.9610793-1.01878 2.4853297-1.66408 3.5968409-.7112.060302-1.46051.2454417-1.9961.7578125.6836-1.8369936 1.58185-3.5955469 2.29514-5.4120784.21043-1.2495954-.85457-2.6594279-2.17795-2.531282zm-69.373048.7910156c-1.313686.1222167-1.813882 1.6563433-1.614881 2.7878843.03911 1.0091374.652669 1.9832547 1.554335 2.4425845-1.149363-.5176533-2.126879.5819202-2.884766 1.2910156-.836401.9211249-1.666668 2.1742085-1.294922 3.4667965-.282873 1.326937-1.053561 2.639905-.857422 4.056641.144585 1.475085 1.691285 2.684227 3.152344 2.203125 1.113014-.25521 2.078811-.898664 2.955078-1.605469.813276 1.455082 2.712104 1.960353 4.235549 1.435042 2.995317-.666099 5.634472-2.661052 7.260545-5.237776.426799-.859997-.07995-2.230738-1.171875-2.134766-1.054955.13318-1.672256 1.38412-2.414063 1.783203.908987-1.282574 1.00456-3.3188168-.33789-4.3476559-.406325-.3802035-1.028309-.2866273-1.355694-.7457332-1.086013-.9127596-2.611776-.1673729-3.496814.6732266-1.17883 1.0822356-1.918137 2.5152845-2.631867 3.9201625-.474534.676457-1.167004 1.156257-1.769531 1.712891.467475-1.523548 1.290363-2.916188 1.832031-4.4003906.110335-.8097208-.375409-1.6316873-1.085938-2.0078125.817468.4284139 2.055281.1446328 2.205078-.8789063.0872-.7874152.06744-1.5822598.194721-2.3656232.102936-.950482-.591819-1.8253934-1.528707-1.9647762-.307076-.0799941-.629603-.0920581-.945311-.0836631zm-48.859374 2.0703125c-1.649863.1593944-2.38792 1.8668734-2.924777 3.2094902-.4346629 1.0490785-.8568341 2.105974-1.2295204 3.1791822-.5915952-1.043096-1.2134651-2.0759159-1.7324218-3.1601568.6788084-1.2914616-.4622139-2.9967895-1.9160157-2.8417968-.8710473.0186058-1.6371645.6338871-1.9320541 1.4222014-.7983216.6630129-1.353378 1.9451082-.554274 2.8160798-.699798 1.7065944-1.4183525 3.4067194-2.14567817 5.1235394-.2970525.943685-.88935504 1.869635-.80744683 2.884273.16686155 1.346428 1.7940464 2.333291 3.0134451 1.595928 1.4284518-.652366 1.9177229-2.356251 1.8161889-3.808038.092833-.740886.3936959-1.433059.6840379-2.114062 1.0082818 1.739259 1.8952813 3.565705 3.0482096 5.210387.9329976.958105 2.7988105.86211 3.3931965-.429137.461008-.678468.183948-1.526198-.05175-2.208795.275059-2.210341 1.145012-4.252868 2.047846-6.263861.312394-.5215124 1.13283-.4257506 1.345703-1.0722656.397556-1.0174957-.009945-2.2570504-.728518-3.0332032-.351284-.3408551-.832387-.5453987-1.326171-.5097656zm44.433593 0c-1.649626.1607319-2.383344 1.8705762-2.925055 3.2104794-.435687 1.0511386-.853546 2.1119423-1.229242 3.186005-.59153-1.0482629-1.206344-2.0844362-1.732422-3.1679688.698931-1.2642888-.423102-2.9326079-1.840218-2.8439176-.908872-.0255824-1.698207.6177629-2.011344 1.4396208-.683052.5832454-1.214997 1.5361442-.797132 2.4261479.426556.4719729-.08006.9994768-.219676 1.5095407-.820046 2.057201-1.802593 4.064826-2.473426 6.171733-.265986 1.393779 1.080219 2.916095 2.524707 2.465817 1.598896-.394546 2.438497-2.184234 2.272168-3.729489.05816-.828304.377613-1.605282.707031-2.357422 1.011361 1.742211 1.888007 3.581225 3.062354 5.217711.935082.949509 2.786446.841848 3.379052-.440367.463221-.679614.179387-1.525552-.05255-2.210832.265466-2.19214 1.148328-4.256677 2.046366-6.2524581.29634-.5370503 1.128948-.4250882 1.342122-1.0718659.405786-1.0191052-.001016-2.2667905-.72461-3.0429688-.351688-.341502-.8343-.5448814-1.328125-.5097656zm73.097659 6.7207034c.10469.505366.5021.914788.97265 1.105469-.63192.676862-1.18265 1.294348-1.89843 1.789062.25972-.993689.5802-1.970505.91992-2.939453zm-28.58985 1.451172c-.20782.756641-.40374 1.516625-.625 2.269531-.12288-1.193165-1.16261-1.987143-1.5332-3.074219.71209-.555386 1.66044-.51736 2.50977-.613281-.11719.472656-.23438.945312-.35157 1.417969zm-6.230465-.570313c.351677.386578-.452751.809146-.434727.755393.132842-.03609.585242-1.411834.434727-.755393zm-78.496094.542969c-.195905.550127-.472904 1.067539-.787109 1.558594.226864-.608215.503227-1.19964.841797-1.753907-.01823.06511-.03646.130209-.05469.195313zm89.675779.566406c-.26217.395277-.58239.757219-.96875 1.035156.33041-.48641.71301-.938261 1.14649-1.335937-.0593.10026-.11849.200521-.17774.300781zm-25.306638 5.039063c-.174675.334134-.404354.964051-.822266.941406-.249565-.203964-1.076625-.578233-.367955-.58936.417091-.126571.836904-.256355 1.22733-.453609l-.03432.09393z" fill="#333"/><g fill="#f4c401"><g transform="scale(.98222981 1.0180917)"><path d="m5.6767715 5.5509119c-.2727637 0-.5951208.1239835-.7686977.2975604-.1239835.1487802-.2727637.3471538-.2727637.4711373 0 .1239834-.099187.2727636-.3223571.4215438-.3223571.2231703-.5455274.5703241-.6199175.7934944-.099187.3471538.07439.5455274.2975604.7686977.1487802.1487802.2231703.3223571.099187.5951208-.247967.6199175-1.735769 4.0666587-2.6532469 6.1495817-.1239835.272763-.3719505.942274-.3719505 1.215038 0 .843088.5703241 1.190242 1.0910548 1.190242.3223571 0 .7934944-.173577 1.1654449-.595121.5455274-.644714.6199175-.967071.6199175-2.157313 0-.14878 0-.347154.099187-.793494.1983736-.843088.9422746-2.47967 1.3886152-3.372352.099187-.173576.1983736-.22317.3471538.0248.3471537.545528 1.4878019 2.653247 2.306093 3.967472.7934944 1.264632.991868 1.785362 1.1406482 1.983736.1983736.272764.7191043.669511 1.2398341.669511.396748 0 .619918-.22317.843088-.520731.223171-.29756.247967-.669511.123984-.867884-.14878-.223171-.297561-.371951-.297561-.595121 0-.347154 0-.644714.223171-1.512599.570324-2.157313 1.165445-3.6947079 2.132516-5.6040538.173577-.3719505.471137-.5455274.743901-.5703241.37195-.024797.570324-.1983736.570324-.495934 0-.4463406-.272764-1.8349557-1.165445-1.8349557-.29756 0-.619917.1239835-.942275.4463406-.347153.3471538-.743901.9670712-1.388615 2.55406-.595121 1.3638185-1.140648 2.826824-1.6365815 4.339422-.099187.272764-.1487802.322358-.2975604.04959-.2231707-.396746-2.4052803-4.0914546-2.678044-4.5873886-.1487802-.2727637-.2231703-.5207307-.2231703-.6447142 0-.099187.07439-.1983736.1735769-.4215439.1239835-.1735769.1983736-.4463406 0-.7686976-.1983736-.3471538-.4463406-.5951208-.9670712-.5951208z"/><path d="m13.438123 15.147235c0 1.165444.743901 2.082922 1.636582 2.082922 1.785362 0 3.397148-.991868 4.587389-2.40528 1.016665-1.140648 1.388616-2.330889 1.388616-3.322757 0-.967072-.347154-2.0581263-1.239835-2.5044669-.173577-.07439-.198374-.1487802-.198374-.2975604 0-.3471538-.04959-.9670713-.991868-.9670713-.421544 0-.793494.1487802-1.140648.495934-.247967.247967-.421544.3719505-.743901.3719505-.272764 0-.471137.1239835-.644714.2975604-.173577.1983736-.297561.3719505-.322357.6695109-.0248.4463408-.223171.6695108-.421544.9422748-.297561.37195-.942275 1.339022-1.314225 2.182109-.446341 1.091055-.595121 1.785363-.595121 2.454874zm2.33089-.421544c0-1.041462.991868-3.049994 2.107719-4.364219.14878-.198374.396747-.4215443.570324-.4215443.446341 0 .619918.6943073.619918 1.3142253 0 .867884-.843088 2.77723-1.562192 3.570724-.471138.520731-.892682.719105-1.215039.719105-.22317 0-.52073-.297561-.52073-.818291z"/><path d="m27.522679 8.1545653c-1.314225 0-2.876417.9422746-3.893082 2.0829227-1.215038 1.363819-1.810159 3.223571-1.810159 4.339422 0 1.95894 1.165445 2.603654 2.355686 2.603654 2.33089 0 5.182511-1.958939 6.967873-4.265032.322357-.421544.446341-.867885.322357-1.091055-.09919-.173577-.347154-.198374-.619917.04959-1.661379 1.636582-3.917879 3.521132-5.678445 3.521132-.545527 0-.991868-.495934-.991868-1.239835 0-.694308.198374-1.760566 1.041462-3.025198.694307-1.041461 1.388615-1.4134116 1.636582-1.4134116.14878 0 .272764.1239835.247967.4463406-.0248.247967.04959.421544.198374.495934.123983.07439.421544.09919.743901-.04959.471137-.223171.917478-.694308.917478-1.3638189 0-.5207307-.495934-1.0910548-1.438209-1.0910548z"/><path d="m38.086051 8.3033455c-.917478 0-1.636582.495934-2.47967 1.1158515-.843088.619917-2.281296 1.958939-2.727637 2.529263-.173577.223171-.247967.09919-.173577-.173577.223171-.942274 1.586989-5.6288503 3.496335-8.133317.37195-.4463406.247967-.7686977-.09919-1.1654449-.396747-.4463406-.768698-.5951208-.967071-.5951208-.272764 0-.570324.1983736-.917478.743901-.743901 1.1406482-1.834956 3.6699116-2.578857 5.9264112-.843088 2.6036535-1.859752 6.2239715-1.958939 6.7694985-.173577 1.066259.22317 1.88455.743901 1.88455.570324 0 1.215038-.247967 1.289428-.967072.0248-.247967.173577-.644714.520731-1.190241.347154-.570324 1.760566-2.678044 3.273164-3.843489.347154-.272763.520731-.29756.371951.09919-.272764.768698-.446341 1.463005-.694308 2.826824-.471137 2.55406.09919 3.248368.942275 3.248368 1.710972 0 4.81056-2.876418 5.951208-4.909747.272763-.495934.396747-.917478.272763-1.140648-.09919-.198374-.347153-.198374-.59512.123983-.793495 1.016665-3.297961 3.793895-4.463406 3.793895-.347154 0-.446341-.471137-.198374-1.413411.421544-1.661379 1.413412-3.9922691 1.611786-4.5129998.272763-.6447142-.04959-1.0166647-.619918-1.0166647z"/></g><g transform="scale(.9822298 1.0180917)"><path d="m50.917271 5.5509119c-.272764 0-.595121.1239835-.768698.2975604-.123983.1487802-.272764.3471538-.272764.4711373 0 .1239834-.09919.2727636-.322357.4215438-.322357.2231703-.545527.5703241-.619917.7934944-.09919.3471538.07439.5455274.29756.7686977.14878.1487802.223171.3223571.09919.5951208-.247967.6199175-1.735769 4.0666587-2.653247 6.1495817-.123983.272763-.37195.942274-.37195 1.215038 0 .843088.570324 1.190242 1.091054 1.190242.322358 0 .793495-.173577 1.165445-.595121.545528-.644714.619918-.967071.619918-2.157313 0-.14878 0-.347154.09919-.793494.198373-.843088.942274-2.47967 1.388615-3.372352.09919-.173576.198373-.22317.347154.0248.347153.545528 1.487802 2.653247 2.306093 3.967472.793494 1.264632.991868 1.785362 1.140648 1.983736.198373.272764.719104.669511 1.239835.669511.396747 0 .619917-.22317.843088-.520731.22317-.29756.247967-.669511.123983-.867884-.14878-.223171-.29756-.371951-.29756-.595121 0-.347154 0-.644714.22317-1.512599.570324-2.157313 1.165445-3.6947079 2.132516-5.6040538.173577-.3719505.471137-.5455274.743901-.5703241.371951-.024797.570324-.1983736.570324-.495934 0-.4463406-.272763-1.8349557-1.165445-1.8349557-.29756 0-.619917.1239835-.942274.4463406-.347154.3471538-.743901.9670712-1.388615 2.55406-.595121 1.3638185-1.140649 2.826824-1.636583 4.339422-.09919.272764-.14878.322358-.29756.04959-.22317-.396747-2.40528-4.0914556-2.678044-4.5873896-.14878-.2727637-.22317-.5207307-.22317-.6447142 0-.099187.07439-.1983736.173577-.4215439.123984-.1735769.198374-.4463406 0-.7686976-.19838-.3471528-.446347-.5951198-.967077-.5951198z"/><path d="m63.538767 3.145632c-.545528 0-.843088.2727637-.892682 1.0414614-.0248.5703241.04959.9670713.123984 1.239835.123983.4463406.520731.8926812 1.066258 1.0910547.471137.1735769.818291.1487802.818291-.3471537 0-.5951208 0-1.2150383.14878-2.0581261.123984-.6199175-.545527-.9670713-1.264631-.9670713zm-3.099588 14.109322c.421544 0 .892681-.09919 1.512599-.347154 1.438208-.570324 3.744301-2.802027 4.711373-4.364219.322357-.520731.396747-.917478.272763-1.140648-.09919-.173577-.347153-.198374-.644714.123983-1.388615 1.562193-3.843488 3.793895-4.636983 3.793895-.471137 0-.52073-.347153-.272763-1.115851.595121-1.909346 1.215038-3.297961 1.983736-4.6369828.247967-.4711373 0-1.0166647-.322357-1.2646317-.123984-.099187-.272764-.1487802-.421544-.1487802-.719105 0-2.281297 1.6613789-2.678044 2.6780437-.14878.37195-.09919.595121 0 .818291.123984.22317.123984.37195 0 .719104-.198373.446341-.619917 1.810159-.768697 2.40528-.173577.595121-.173577 1.041461.04959 1.487802.347154.768698.843088.991868 1.215038.991868z"/><path d="m64.853027 14.725691c0 1.562192 1.115852 2.454873 2.2565 2.454873 2.901214 0 6.000801-2.10772 7.686977-4.265032.322357-.421544.446341-.867885.322357-1.091055-.09919-.173577-.347154-.198374-.595121.07439-2.529263 2.55406-4.810559 3.372351-6.298361 3.372351-.719105 0-1.115852-.37195-1.115852-.917478 0-.347154.07439-.570324.198374-.818291.07439-.173577.14878-.198373.322357-.123983.22317.09919.495934.198373.768697.198373 1.339022 0 2.206907-.644714 2.727637-1.165445.495934-.545527.942275-1.264631.942275-2.157313 0-.9422741-.595121-1.4878015-1.438209-1.5373949-.173576-.024797-.29756-.1239835-.37195-.2231703-.14878-.2975604-.396747-.495934-.867885-.495934-1.041461 0-2.330889 1.487802-2.826823 2.1821092-1.091055 1.562192-1.710973 3.397148-1.710973 4.513zm3.347555-2.55406c-.322357 0-.371951-.07439-.272764-.371951.297561-.768698 1.115852-1.9837358 1.611786-1.9837358.322357 0 .570324.1983738.570324.5455278 0 .694307-1.140648 1.810159-1.909346 1.810159z"/></g><g transform="scale(.9822298 1.0180917)"><path d="m78.823141 14.13057c0 .545527.09919 1.016665.347154 1.636582.247966.595121 1.066258 1.413412 1.934142 1.413412.644714 0 1.215038-.123984 1.859753-.421544.59512-.29756 1.611785-.867884 1.884549-1.091055.198373-.173577.29756-.14878.173577.198374-.09919.29756-.247967.892681-.545528 1.760566-.570324 1.611785-1.339022 2.082922-1.909346 2.082922-.247967 0-.570324-.123983-.867884-.44634-.247967-.223171-.743901-.570324-1.140648-.570324-.322357 0-.719105.123983-1.140649.59512-.37195.371951-.322357.843088.04959 1.140649.694307.545527 2.231703.967071 3.198774.967071.471137 0 1.016665-.198374 1.537396-.520731 1.091054-.669511 2.107719-1.884549 2.479669-2.92601.347154-.967072.991868-3.297961 1.264632-4.58739.198374-.892681.570324-1.760565 1.140648-2.33089.247967-.22317.347154-.44634.173577-.694307-.29756-.421544-.595121-.5951209-.942274-.5951209-.446341 0-1.363819.5703239-1.735769.9174779-.247967.247967-.396748.495934-.421544.892681-.04959.818291-.892681 1.760566-1.636582 2.430077-.843088.768697-2.03333 1.264631-2.529264 1.264631-.421544 0-.818291-.37195-.818291-1.413411 0-1.314226.843088-3.248368 2.231703-4.7113734 1.314225-1.3886152 2.529263-1.8845492 2.826824-1.8845492.272764 0 .471137.07439.768698.247967.247967.1487802.619917.2727637 1.041461.1735769.29756-.07439.917478-.5455274 1.140648-.7934944.322357-.3471538.173577-.7934943-.22317-1.066258-.371947-.247967-.892677-.4215439-1.463001-.4215439-.917478 0-2.33089.3967472-3.669912 1.2150382-3.173978 1.983736-5.008933 4.9097468-5.008933 7.5381968z"/><path d="m89.758468 14.725691c0 1.562192 1.115851 2.454873 2.256499 2.454873 2.901214 0 6.000802-2.10772 7.686977-4.265032.322356-.421544.446336-.867885.322356-1.091055-.09918-.173577-.347152-.198374-.595119.07439-2.529264 2.55406-4.81056 3.372351-6.298362 3.372351-.719104 0-1.115852-.37195-1.115852-.917478 0-.347154.07439-.570324.198374-.818291.07439-.173577.14878-.198373.322357-.123983.22317.09919.495934.198373.768698.198373 1.339022 0 2.206906-.644714 2.727637-1.165445.495934-.545527.942274-1.264631.942274-2.157313 0-.9422741-.59512-1.4878015-1.438208-1.5373949-.173577-.024797-.297561-.1239835-.371951-.2231703-.14878-.2975604-.396747-.495934-.867884-.495934-1.041462 0-2.33089 1.487802-2.826824 2.1821092-1.091055 1.562192-1.710972 3.397148-1.710972 4.513zm3.347554-2.55406c-.322357 0-.37195-.07439-.272763-.371951.29756-.768698 1.115851-1.9837358 1.611785-1.9837358.322357 0 .570324.1983738.570324.5455278 0 .694307-1.140648 1.810159-1.909346 1.810159z"/><path d="m103.12389 8.1297686c-.81829 0-2.10771.4215439-2.87641 1.0910548-.719107.5703241-1.487805 1.5373956-1.487805 2.4300766 0 .322357.123984.743901.247967 1.041461.173577.371951.570324 1.066258.818291 1.388616.347157.471137.570327.917477.570327 1.165444 0 .148781-.19838.347154-.520733.347154-.347154 0-.495934-.04959-.743901-.14878-.22317-.173577-.396747-.173577-.619918-.04959-.22317.09919-.545527.29756-.892681.694307-.173577.14878-.198373.347154-.198373.520731.09919.545527 1.041461.917478 1.710972.917478.272764 0 .570324-.07439.942274-.223171.54553-.22317 1.4878-.743901 1.81016-1.041461.29756-.272764.61992-.892681.61992-1.264632 0-.644714-.37195-1.363818-.94228-2.082922-.42154-.570324-.7439-1.115852-.7439-1.586989 0-.768698 1.71097-1.413412 3.24837-1.413412.42154 0 .79349-.1983736.79349-.6695109 0-.2975604-.0992-.5455274-.42154-.7686977-.32236-.2231703-.69431-.3471538-1.31423-.3471538z"/><path d="m111.80273 8.3281422c-.19837 0-.61992.07439-1.11585.3223571-1.26463.5703241-2.38049 1.6861757-2.77723 2.0581257-.24797.198374-.42155.173577-.29756-.14878.32235-.892681.59512-1.6613787 1.09105-2.0829226.17358-.1735769.17358-.3719505-.0248-.5703241-.17358-.1983736-.54553-.3719505-.91748-.3719505-.42155 0-1.04146.3471538-1.36382.6943076-.24797.247967-.42155.6943076-.59512 1.3638185-.14878.6447141-.29756 1.2646321-.7935 3.1243841-1.4878 5.380884-3.22357 10.117053-3.37235 10.538597-.12398.421544-.0992.669511.0248.892682.17358.272763.37195.37195.64471.37195.94228 0 2.20691-.37195 3.34756-.818291.44634-.173577.69431-.570324.69431-.669511 0-.123983-.12399-.198374-.52074-.22317-1.14064-.0248-1.58698-.07439-1.81015-.198374-.17358-.09919-.22317-.247967-.0992-.570324.22317-.570324 1.66138-4.612186 1.73577-4.835356.0744-.173577.17357-.421544.32235-.297561.12399.14878.34716.347154.52074.347154.14878 0 .27276-.0248.49593-.07439.64471-.123984 1.88455-.669511 2.43008-.991868.47113-.29756.7191-.421544 1.31422-.644714 1.33902-.471138 4.16585-2.10772 5.60406-3.645115.66951-.793494.54552-1.586989-.17358-1.041461-1.5126 1.066258-3.52113 2.231703-3.7939 2.355686-.17357.07439-.19837.04959-.12398-.09919.12398-.22317.7687-1.463005.79349-3.049994 0-.4215437-.32235-1.7357688-1.23983-1.7357688zm-1.19024 2.1325158c.12398 0 .29756.173577.29756.545528 0 .818291-.91748 2.380483-1.33902 2.85162-.27277.297561-.64472.669511-1.28943.991868-.59512.297561-1.28943.520731-1.61179.520731-.34715 0-.37195-.123984-.27276-.371951.37195-1.115851 1.23983-2.504466 2.90121-3.793895.81829-.619917 1.11585-.743901 1.31423-.743901z"/><path d="m119.11776 3.145632c-.54553 0-.84309.2727637-.89268 1.0414614-.0248.5703241.0496.9670713.12398 1.239835.12398.4463406.52073.8926812 1.06626 1.0910547.47114.1735769.81829.1487802.81829-.3471537 0-.5951208 0-1.2150383.14878-2.0581261.12398-.6199175-.54553-.9670713-1.26463-.9670713zm-3.09959 14.109322c.42154 0 .89268-.09919 1.5126-.347154 1.43821-.570324 3.7443-2.802027 4.71137-4.364219.32236-.520731.39675-.917478.27277-1.140648-.0992-.173577-.34716-.198374-.64472.123983-1.38861 1.562193-3.84349 3.793895-4.63698 3.793895-.47114 0-.52073-.347153-.27276-1.115851.59512-1.909346 1.21503-3.297961 1.98373-4.6369828.24797-.4711373 0-1.0166647-.32236-1.2646317-.12398-.099187-.27276-.1487802-.42154-.1487802-.7191 0-2.2813 1.6613789-2.67804 2.6780437-.14878.37195-.0992.595121 0 .818291.12398.22317.12398.37195 0 .719104-.19838.446341-.61992 1.810159-.7687 2.40528-.17358.595121-.17358 1.041461.0496 1.487802.34716.768698.84309.991868 1.21504.991868z"/><path d="m120.43202 14.725691c0 1.562192 1.11585 2.454873 2.2565 2.454873 2.90121 0 6.0008-2.10772 7.68698-4.265032.32235-.421544.44634-.867885.32235-1.091055-.0992-.173577-.34715-.198374-.59512.07439-2.52926 2.55406-4.81056 3.372351-6.29836 3.372351-.7191 0-1.11585-.37195-1.11585-.917478 0-.347154.0744-.570324.19837-.818291.0744-.173577.14878-.198373.32236-.123983.22317.09919.49593.198373.7687.198373 1.33902 0 2.2069-.644714 2.72764-1.165445.49593-.545527.94227-1.264631.94227-2.157313 0-.9422741-.59512-1.4878015-1.43821-1.5373949-.17358-.024797-.29756-.1239835-.37195-.2231703-.14878-.2975604-.39675-.495934-.86788-.495934-1.04147 0-2.33089 1.487802-2.82683 2.1821092-1.09105 1.562192-1.71097 3.397148-1.71097 4.513zm3.34755-2.55406c-.32235 0-.37195-.07439-.27276-.371951.29756-.768698 1.11585-1.9837358 1.61179-1.9837358.32235 0 .57032.1983738.57032.5455278 0 .694307-1.14065 1.810159-1.90935 1.810159z"/><path d="m128.7389 15.568778c0 .892682.54553 1.611786 1.26463 1.611786 2.2813 0 5.35609-3.149181 6.07519-4.612186.19837-.396747.27277-.768698.17358-.967071-.0992-.173577-.29756-.198374-.52073.07439-1.63658 1.983736-3.52113 3.446741-4.28983 3.446741-.39675 0-.59512-.347154-.19838-1.636582.57033-1.859753 1.66138-5.2569006 3.49634-8.8028286.52073-1.0166647.64471-1.4630053-.17358-2.1573129-.12398-.1239835-.27276-.1735769-.44634-.1735769-.19837 0-.42154.099187-.64471.3719505-.37195.4711373-1.23984 2.2069063-2.75244 6.0008013-1.68617 4.2154386-1.98373 6.1247846-1.98373 6.8438886z"/><path d="m137.71533 15.246421c-.64471 0-.7439-.471137-.61991-1.215038.0992-.719104.61991-2.182109.96707-2.975604.12398-.247967.22317-.322357.54553-.37195 2.2069-.297561 3.66991-.6943079 4.09145-.9174782.34716-.1983736.64472-.7686977.0496-.7686977-.66951 0-2.45487.099187-3.57072.1239835-.14878 0-.37195.024797-.29756-.1735769.0992-.2231703.49593-1.2646317 1.04146-2.2564997.24797-.4215438.22317-.8678844-.14878-1.2398349-.19837-.1983736-.34715-.2727637-.59512-.2727637-.37195 0-1.06626.3719505-1.28943.8430878-.24797.5207306-1.01666 2.7028402-1.14065 2.9508072-.0992.2727637-.24796.3223571-.47113.3719505-.49594.099187-.91748.1983736-1.21504.247967-.34716.07439-.49594.1983736-.71911.4711371-.19837.22317-.22317.595121-.0496.768698.14878.123983.34715.272764.61992.247967.32236-.04959.66951-.07439.86788-.09919.24797-.0248.24797.07439.17358.247967-.12398.347154-.94228 2.752434-1.19024 3.446741-.19838.520731-.27277.818291-.27277 1.115852 0 .867884.86789 1.388615 1.58699 1.388615.32236 0 .64472-.04959 1.06626-.198374 1.98374-.644714 3.0004-1.537395 3.44674-2.008532.42155-.446341.32236-1.115852-.24796-.743901-.59513.37195-1.78537 1.016664-2.62846 1.016664z"/></g></g></g></svg>