<svg enable-background="new 0 0 566.929 129.21" height="150.6516" viewBox="0 0 559.53286 120.52128" width="699.41608" xmlns="http://www.w3.org/2000/svg"><g transform="matrix(.10252157 0 0 .10252157 149.66656 -3.581866)"><text fill="#ef00eb" font-family="TrasksHand" font-size="15.6065" stroke="#0105ff" stroke-width="19.5081" x="1452.1205" y="956.66284"><tspan fill="#fafafa" fill-opacity=".4" font-size="15.6065" stroke="none" stroke-width="19.5081" x="1452.1205" y="956.66284">John Loreth 2022</tspan></text><path d="m-1156.4036 289.56797h4965.2045c120.4937 0 209.376 89.0658 185.0151 179.98179l-87.6189 319.44057c-21.9525 80.03433-110.3027 149.80211-193.2931 149.80211h-5019.5682c-82.9904 0-171.7547-69.76781-149.8022-149.80211l95.897-349.62025c18.7065-68.20003 90.9733-149.80211 204.1658-149.80211z" fill="#2285c8"/><path d="m-609.38278 34.937686h1977.68378c152.4609 0 301.3058 161.678464 251.8204 342.091594l-114.9204 418.97603c-78.5424 293.12439-276.2284 409.51379-433.4763 414.50229h-1967.57969c-150.27311 0-311.00111-126.3307-271.25111-271.25118l169.81586-619.11333c41.77631-155.91104 253.84899-280.673069 387.90746-285.205404z" fill="#050608"/><g fill="#ed1e24" stroke-width="32.5135" transform="matrix(.75 0 0 .75 -231.55837 148.37249)"><path d="m-731.90302 440.69969h-164.80464l133.68301-265.93476h358.32525l17.19278-36.20708h253.44956l-154.37645 305.8874h-164.80464l-168.60811 629.25405h-278.41997z"/><path d="m-296.09606 682.91257q2.52106-18.7278 6.62518-38.70412 4.10411-19.97632 14.14031-57.43192 8.3635-31.213 24.55266-63.67452 17.43768-32.46152 62.05629-101.13012 45.86714-68.6686 141.005995-134.84016 95.473397-67.42008 167.421775-93.639 72.28292-27.46744 161.68657-34.95856 11.23668 0 22.47336 0 11.23668 0 22.8079-1.24852 17.47928 0 25.88438 1.24852 61.17748 0 107.68324 17.47928 46.8403 16.23076 96.73306 53.68636 51.47582 36.20708 75.39457 77.40824 24.25328 39.95264 37.35952 74.9112 14.35476 34.95856 18.20755 81.1538 3.85278 46.19524-2.95168 94.88752-6.46992 47.44376-14.49887 77.40824-22.41418 83.65085-76.53116 159.81057-52.86845 76.15972-99.53591 119.85792-45.0844 42.44968-98.72916 74.9112-52.39623 32.4615-93.28687 49.9408-40.89065 17.4793-85.43721 29.9645-42.9635 11.2367-90.16235 14.9822-47.198867 3.7456-90.897067 3.7456l-62.581254-8.7397q-73.393769-14.9822-121.882739-43.6982-46.90594-29.9644-88.94902-87.39636-40.79456-57.43192-55.28057-119.85792-14.15146-63.67452-3.3085-146.07685zm303.5280354-42.44968q-10.149857 61.17748 19.3424036 104.87569 30.740782 43.6982 64.026652 49.9408 34.534379 6.2426 42.025499 6.2426 7.49112 0 16.23076 0 7.49112 0 14.98224 0 10.65724-2.49704 63.8538-9.98816 53.5311-8.73964 89.14116-62.426 36.85858-53.68637 42.70102-66.17157 7.09096-12.4852 11.10544-27.46744 19.73785-73.66268-6.16411-126.10052-25.90197-52.43784-65.43043-58.68044-37.9454-7.49112-55.42468-7.49112-26.21892 0-48.78192 4.99408-21.31448 4.99408-51.54788 19.97632-28.65034 13.73372-72.062042 49.9408-42.163178 36.20708-59.559254 101.13012-3.6799396 13.73372-4.4386586 21.22484z"/><path d="m796.23119 440.69969h-62.426l133.68301-265.93476h279.6684l-150.20839 560.58549q-8.3635 31.213 8.42269 52.43784 16.7862 21.22484 55.4903 21.22484 41.2011 0 73.7764-23.72188 32.5751-23.72188 43.6149-64.92304l146.194-545.60325h278.4199l-155.2266 579.31329q-6.0217 22.47336-16.458 47.44376-10.4364 24.9704-81.2563 144.82832-69.2369 118.6094-203.6769 131.0946-134.7745 13.7337-162.24186 13.7337-126.1006 0-201.51914-58.6804-74.17008-58.68046-79.24736-123.6035-5.07728-64.92304-2.71149-92.39048 2.3658-27.46744 7.04936-44.94672z"/><path d="m1557.0111 1059.9656q-64.2301-21.2248-118.5374-56.1834l140.75-259.69214 36.183 18.7278q62.8022 31.213 101.2373 46.19524 40.0183 13.73372 59.9947 13.73372 7.1565 1.24852 12.1506 1.24852 4.994 0 6.2426 0 19.9763 0 42.2944-8.73964 22.6526-9.98816 29.3434-34.95856 2.3418-8.73964-2.1384-19.97632-3.2318-11.23668-13.1303-16.23076l-4.325-2.49704-40.2632-17.47928-97.5814-41.20117q-85.1858-36.20708-112.157-98.63308-25.3882-63.67452 1.375-163.55612 17.7306-66.17156 57.6657-117.36088 41.1835-51.18932 95.1629-84.89936 55.2278-33.71004 102.2714-46.19524 47.3781-13.73372 117.2952-13.73372 23.7219 0 49.6063 1.24852 25.8844 1.24852 51.0997 4.99408l16.7686-29.96448 223.5923 46.19524-156.515 285.91108q-45.9023-33.71004-102.7307-49.9408-55.2454-17.47928-85.2099-17.47928-16.2307 0-33.7997 4.99408-16.3203 4.99408-26.4878 14.98224-10.1675 9.98816-13.5129 22.47336-2.6763 9.98816 1.2245 18.7278 5.1494 8.73964 15.3824 12.4852l116.2197 46.19524 37.7661 17.47928q140.4728 86.14788 96.9827 248.45549-5.6872 21.22484-25.8908 68.6686-19.8692 46.19524-72.624 98.63308-51.5063 52.4378-95.9872 78.6568-44.481 26.2189-100.0193 42.4496-55.8728 17.4793-147.0148 17.4793-34.9586 0-69.4929-6.2426-34.5344-6.2426-93.1908-24.9704z"/></g><g fill="#fff" stroke-width="24.3851" transform="matrix(.99612746 0 -.22780655 1.0038876 0 0)"><path d="m1904.7763 541.43031h-24.6146l24.6146-106.33507h110.2735v244.17682h74.336l-25.1069 110.27341h-159.5026z"/><path d="m2103.662 542.41489h-24.6146l24.6146-107.31965h146.703l4.4306-14.27647h98.4584l-28.0606 124.54987h-111.258v20.18397h129.4728l-23.63 91.56632h-105.8428v21.66084h127.5036l-26.0915 110.7657h-211.6855z"/><path d="m2420.2053 784.13026q-27.5683-8.36896-52.6752-22.15314l28.0606-102.39673 16.2456 7.38438q28.0607 12.30729 44.7986 18.2148 17.2302 5.41521 25.1069 5.41521 2.9538.49229 4.9229.49229 1.9692 0 2.4615 0 7.8767 0 15.7533-3.44604 7.8767-3.93834 7.8767-13.78418 0-3.44604-2.9537-7.87667-2.4615-4.43063-6.8921-6.39979l-1.9692-.98459-17.7225-6.89209-42.8294-16.24563q-37.4142-14.27647-54.6444-38.89107-16.738-25.10689-16.738-64.49025 0-26.09148 10.3382-46.27545 10.8304-20.18397 28.5529-33.47585 18.2148-13.29189 35.445-18.21481 17.2303-5.41521 44.7986-5.41521 9.3536 0 19.6917.49229 10.3381.49229 20.6763 1.96917l3.446-11.81501 93.0432 18.21481-31.5067 112.73486q-21.6609-13.29188-45.7832-19.69168-23.63-6.89208-35.445-6.89208-6.3998 0-12.7996 1.96916-5.9075 1.96917-8.8612 5.90751-2.9538 3.93833-2.9538 8.86125 0 3.93834 2.4615 7.38438 2.9537 3.44605 7.3844 4.92292l50.706 18.21481 16.738 6.89208q64.4902 33.96815 64.4902 97.96611 0 8.36896-2.9537 27.07606-2.9538 18.2148-18.2148 38.89107-14.7688 20.67626-29.5376 31.01439-14.7687 10.33814-34.9527 16.73793-20.184 6.89209-56.1213 6.89209-13.7842 0-28.0606-2.46146-14.2765-2.46146-39.3834-9.84584z"/><path d="m2788.4406 781.17651-12.7996-6.3998 27.5683-101.90444 7.3844 5.41521q13.7842 7.87667 24.6146 7.87667 19.6917 0 22.6455-15.26105 3.446-15.75334 3.446-21.16855v-109.28883h-78.2744l25.1069-105.35048h162.9486v238.26932q0 9.35355-1.4769 18.7071-1.4768 9.35354-10.3381 36.4296-8.8612 27.07606-34.4604 42.82941-25.1069 15.75334-42.3371 19.69168-17.2303 3.93833-38.3988 3.93833-25.5992 0-55.629-13.78417z"/><path d="m3009.9723 542.41489h-24.6146l24.6146-107.31965h146.703l4.4306-14.27647h98.4584l-28.0606 124.54987h-111.258v20.18397h129.4728l-23.63 91.56632h-105.8428v21.66084h127.5036l-26.0915 110.7657h-211.6855z"/><path d="m3284.1784 539.95343h-24.6146l24.6146-104.85819h110.2734v221.0391q0 12.3073 8.8613 20.67626 8.8613 8.36897 24.1223 8.36897 16.2456 0 26.5838-9.35355 10.3381-9.35355 10.3381-25.59918v-215.1316h109.7811v228.42348q0 8.86126-1.4768 18.7071-1.4769 9.84584-16.738 57.10587-14.7687 46.76774-66.4594 51.69066-51.6907 5.41521-62.5211 5.41521-49.7215 0-85.6588-23.13772-35.445-23.13773-44.3063-48.73691-8.8612-25.59919-10.8304-36.42961-1.9692-10.83042-1.9692-17.72251z"/><path d="m3696.2265 789.54547h-115.1963l102.889-184.1172-93.5355-170.33303h123.073l36.4296 77.28984 42.3371-77.28984h121.1039l-93.5355 170.33303 103.8736 184.1172h-121.1038l-51.6907-101.90444z"/></g></g></svg>