<svg height="202.81689" viewBox="0 0 617.91547 202.81689" width="617.91547" xmlns="http://www.w3.org/2000/svg"><g fill="#f9f8e1"><g stroke-width=".724689" transform="matrix(3.161125 0 0 3.111358 -142.44604 4.962392)"><circle cx="194.548" cy="5.935" r="1.863"/><circle cx="199.465" cy="5.935" r="1.863"/><circle cx="204.382" cy="5.935" r="1.863"/><circle cx="209.3" cy="5.935" r="1.863"/><circle cx="214.217" cy="5.935" r="1.863"/><circle cx="219.134" cy="5.935" r="1.863"/><circle cx="224.05099" cy="5.935" r="1.863"/><circle cx="228.968" cy="5.935" r="1.863"/><circle cx="233.88499" cy="5.935" r="1.863"/><circle cx="196.974" cy="8.75" r="1.863"/><circle cx="211.726" cy="8.75" r="1.863"/><circle cx="216.64301" cy="8.75" r="1.863"/><circle cx="231.394" cy="8.75" r="1.863"/><circle cx="194.548" cy="11.48" r="1.863"/><circle cx="204.382" cy="11.48" r="1.863"/><circle cx="214.217" cy="11.48" r="1.863"/><circle cx="224.05099" cy="11.48" r="1.863"/><circle cx="233.88499" cy="11.48" r="1.863"/><circle cx="201.89101" cy="14.296" r="1.863"/><circle cx="206.80901" cy="14.296" r="1.863"/><circle cx="221.56" cy="14.296" r="1.863"/><circle cx="226.47701" cy="14.296" r="1.863"/><circle cx="194.548" cy="16.895" r="1.863"/><circle cx="204.382" cy="16.895" r="1.863"/><circle cx="224.05099" cy="16.895" r="1.863"/><circle cx="233.88499" cy="16.895" r="1.863"/><circle cx="196.974" cy="19.711" r="1.863"/><circle cx="211.726" cy="19.711" r="1.863"/><circle cx="216.64301" cy="19.711" r="1.863"/><circle cx="231.394" cy="19.711" r="1.863"/><circle cx="194.548" cy="22.440001" r="1.863"/><circle cx="199.465" cy="22.440001" r="1.863"/><circle cx="214.217" cy="22.440001" r="1.863"/><circle cx="228.968" cy="22.440001" r="1.863"/><circle cx="233.88499" cy="22.440001" r="1.863"/><circle cx="196.974" cy="25.256001" r="1.863"/><circle cx="201.89101" cy="25.256001" r="1.863"/><circle cx="206.80901" cy="25.256001" r="1.863"/><circle cx="211.726" cy="25.256001" r="1.863"/><circle cx="216.64301" cy="25.256001" r="1.863"/><circle cx="221.56" cy="25.256001" r="1.863"/><circle cx="226.47701" cy="25.256001" r="1.863"/><circle cx="194.548" cy="28.116001" r="1.863"/><circle cx="199.465" cy="28.116001" r="1.863"/><circle cx="204.382" cy="28.116001" r="1.863"/><circle cx="209.3" cy="28.116001" r="1.863"/><circle cx="214.217" cy="28.116001" r="1.863"/><circle cx="233.88499" cy="28.116001" r="1.863"/><circle cx="196.974" cy="30.931999" r="1.863"/><circle cx="201.89101" cy="30.931999" r="1.863"/><circle cx="206.80901" cy="30.931999" r="1.863"/><circle cx="211.726" cy="30.931999" r="1.863"/><circle cx="216.64301" cy="30.931999" r="1.863"/><circle cx="199.465" cy="33.660999" r="1.863"/><circle cx="204.382" cy="33.660999" r="1.863"/><circle cx="209.3" cy="33.660999" r="1.863"/><circle cx="214.217" cy="33.660999" r="1.863"/><circle cx="233.88499" cy="33.660999" r="1.863"/><circle cx="201.89101" cy="36.477001" r="1.863"/><circle cx="206.80901" cy="36.477001" r="1.863"/><circle cx="211.726" cy="36.477001" r="1.863"/><circle cx="216.64301" cy="36.477001" r="1.863"/><circle cx="204.382" cy="39.077" r="1.863"/><circle cx="209.3" cy="39.077" r="1.863"/><circle cx="214.217" cy="39.077" r="1.863"/><circle cx="219.134" cy="39.077" r="1.863"/><circle cx="233.88499" cy="39.077" r="1.863"/><circle cx="206.80901" cy="41.891998" r="1.863"/><circle cx="211.726" cy="41.891998" r="1.863"/><circle cx="216.64301" cy="41.891998" r="1.863"/><circle cx="221.56" cy="41.891998" r="1.863"/><circle cx="209.3" cy="44.622002" r="1.863"/><circle cx="214.217" cy="44.622002" r="1.863"/><circle cx="219.134" cy="44.622002" r="1.863"/><circle cx="224.05099" cy="44.622002" r="1.863"/><circle cx="233.88499" cy="44.622002" r="1.863"/><circle cx="211.726" cy="47.437" r="1.863"/><circle cx="221.56" cy="47.437" r="1.863"/><circle cx="226.47701" cy="47.437" r="1.863"/><circle cx="209.3" cy="50.181" r="1.863"/><circle cx="219.134" cy="50.181" r="1.863"/><circle cx="228.968" cy="50.181" r="1.863"/><circle cx="233.88499" cy="50.181" r="1.863"/><circle cx="196.974" cy="52.998001" r="1.863"/><circle cx="201.89101" cy="52.998001" r="1.863"/><circle cx="206.80901" cy="52.998001" r="1.863"/><circle cx="211.726" cy="52.998001" r="1.863"/><circle cx="216.64301" cy="52.998001" r="1.863"/><circle cx="221.56" cy="52.998001" r="1.863"/><circle cx="231.394" cy="52.998001" r="1.863"/><circle cx="233.88499" cy="55.726002" r="1.863"/></g><g stroke-width="2.5" transform="translate(0 -38)"><path d="m21.308317 170.59581v-17.74478h-2.801818v-2.9603h7.98602l6.140511 16.2136 6.207621-16.2136h8.069907v2.9603h-2.818596v17.74478h2.818596v2.9603h-8.791334v-2.9603h2.785041v-17.74478l-8.053129 20.94327h-.687872l-7.969243-20.94327v17.74478h2.566936v2.9603h-8.254458v-2.9603z"/><path d="m50.856842 170.59583v-17.74475h-2.47706v-2.9603h8.399037v2.9603h-2.47706v17.74475h2.47706v2.9603h-8.399037v-2.9603z"/><path d="m78.278282 163.92666 2.969191 1.71834q-1.000667 3.94706-4.051879 6.12475-3.034809 2.16067-6.988261 2.16067-5.183781 0-8.317015-3.4877-3.133236-3.48771-3.133236-8.62569 0-5.63136 3.14964-8.96595 3.149639-3.33459 8.218589-3.33459 4.478393 0 7.529605 2.53497v-2.16068h2.952786v7.6049h-2.952786q-.984262-2.3138-3.034808-3.57277-2.050546-1.27599-4.314349-1.27599-3.412109 0-5.610294 2.55198-2.181781 2.55198-2.181781 6.448 0 3.9981 2.345824 6.53306 2.345825 2.53497 5.561081 2.53497 2.641104 0 4.80648-1.75236 2.165377-1.76938 3.051213-5.03591z"/><path d="m85.238178 170.59584v-17.74477h-3.28222v-2.96029h9.709185q3.041638 0 4.828816.47637 1.787178.45935 2.955716 1.97354 1.168535 1.49715 1.168535 3.7429 0 4.69563-4.931917 5.90357l4.227361 8.60868h2.921346v2.9603h-5.172501l-5.447455-11.05858h-3.368142v8.09828h3.058822v2.9603h-9.949766v-2.9603zm3.608724-11.05857h2.818241q2.044944 0 3.00727-.2552.97951-.27222 1.598148-1.07183.618639-.81663.618639-2.17769 0-1.1569-.635822-1.95652-.618639-.79962-1.546597-1.00378-.910773-.22118-2.801057-.22118h-3.058822z"/><path d="m102.61265 161.61283q0-5.155 3.14127-8.6257 3.14128-3.47071 8.18635-3.47071 5.09267 0 8.29741 3.47071 3.20473 3.4707 3.20473 8.69376 0 5.32515-3.2682 8.79585-3.25232 3.45368-8.28154 3.45368-3.20472 0-5.90178-1.63327-2.68119-1.65028-4.02971-4.57656-1.34853-2.94329-1.34853-6.10776zm3.63309.017q0 3.89604 2.12591 6.53309 2.12592 2.63705 5.58449 2.63705 3.42685 0 5.63208-2.6881 2.20524-2.7051 2.20524-6.44801 0-3.77694-2.25284-6.37996-2.23696-2.62004-5.63208-2.62004-3.37925 0-5.52102 2.56899-2.14178 2.56901-2.14178 6.39698z"/><path d="m147.26491 163.92666 2.96919 1.71834q-1.00067 3.94706-4.05188 6.12475-3.03481 2.16067-6.98826 2.16067-5.18378 0-8.31702-3.4877-3.13323-3.48771-3.13323-8.62569 0-5.63136 3.14964-8.96595 3.14964-3.33459 8.21859-3.33459 4.47839 0 7.5296 2.53497v-2.16068h2.95278v7.6049h-2.95278q-.98426-2.3138-3.03481-3.57277-2.05054-1.27599-4.31435-1.27599-3.41211 0-5.61029 2.55198-2.18178 2.55198-2.18178 6.448 0 3.9981 2.34583 6.53306 2.34582 2.53497 5.56107 2.53497 2.64111 0 4.80648-1.75236 2.16539-1.76938 3.05122-5.03591z"/><path d="m152.62963 161.61288q0-5.15501 3.18128-8.62569 3.18128-3.47069 8.29059-3.47069 5.15752 0 8.40306 3.47069 3.24554 3.47068 3.24554 8.69374 0 5.32513-3.30981 8.79582-3.29374 3.45367-8.38699 3.45367-3.24554 0-5.97693-1.63326-2.71534-1.65029-4.08103-4.57655-1.36571-2.94328-1.36571-6.10773zm3.67936.017q0 3.89602 2.15298 6.53307 2.15299 2.63704 5.6556 2.63704 3.47048 0 5.7038-2.68808 2.23332-2.70511 2.23332-6.448 0-3.77694-2.28152-6.37996-2.26546-2.62002-5.7038-2.62002-3.42228 0-5.59133 2.56898-2.16905 2.569-2.16905 6.39697z"/><path d="m180.51037 170.59581v-17.74481h-2.71621v-2.96031h7.742l5.95289 16.21362 6.01794-16.21362h7.82332v2.96031h-2.73247v17.74481h2.73247v2.96031h-8.52271v-2.96031h2.69995v-17.74481l-7.80706 20.9433h-.66686l-7.72573-20.9433v17.74481h2.4885v2.96031h-8.00224v-2.96031z"/><path d="m210.08051 170.59581v-17.74481h-2.84632v-2.96031h8.08356q3.56197 0 5.33482.52741 1.77285.52742 2.96018 2.39887 1.20359 1.85444 1.20359 4.38942 0 2.02458-.79697 3.64083-.78071 1.59925-1.95177 2.36484-1.15479.7656-2.61861 1.03781-1.44757.25519-4.39148.25519h-1.56141v6.09075h2.92765v2.96031h-9.18956v-2.96031zm3.41559-8.94897h1.95176q3.33427 0 4.61918-.98676 1.28491-1.00378 1.28491-3.52175 0-1.59924-.68312-2.65406-.68312-1.05483-1.69152-1.34405-1.00842-.28922-3.3668-.28922h-2.11441z"/><path d="m233.21958 152.851v11.84122q0 2.75614.26024 3.81096.2765 1.05482 1.34998 1.80341 1.07346.73156 2.765.73156 2.01682 0 3.09029-.62948 1.07347-.64651 1.41503-1.71834.35782-1.08885.35782-3.82799v-12.01134h-2.61862v-2.96031h8.84801v2.96031h-2.83006v12.36862q0 2.50096-.21145 3.64083-.19517 1.12288-1.08973 2.36485-.89457 1.22495-2.52103 1.97354-1.62647.73156-3.95233.73156-2.56982 0-4.27761-.68053-1.7078-.69754-2.56983-1.85444-.86203-1.1569-1.1548-2.46692-.27649-1.31001-.27649-4.06617v-12.01134h-2.79753v-2.96031h8.89679v2.96031z"/><path d="m258.42315 170.59581v-17.74481h-4.66797v6.0397h-2.79753v-9.00001h18.33033v9.00001h-2.79753v-6.0397h-4.65171v17.74481h2.94392v2.96031h-9.25463v-2.96031z"/><path d="m273.79501 170.59581v-17.74481h-2.92765v-2.96031h18.802v7.12855h-2.79753v-4.16824h-9.66123v7.04348h8.40885v2.9603h-8.40885v7.74103h9.66123v-4.30436h2.79753v7.26467h-18.802v-2.96031z"/><path d="m293.68003 170.59584v-17.74477h-3.28222v-2.96029h9.70919q3.04163 0 4.82882.47637 1.78717.45935 2.95571 1.97354 1.16855 1.49715 1.16855 3.7429 0 4.69563-4.93193 5.90357l4.22736 8.60868h2.92135v2.9603h-5.1725l-5.44746-11.05858h-3.36814v8.09828h3.05882v2.9603h-9.94977v-2.9603zm3.60873-11.05857h2.81824q2.04495 0 3.00727-.2552.97951-.27222 1.59814-1.07183.61864-.81663.61864-2.17769 0-1.1569-.63581-1.95652-.61864-.79962-1.54661-1.00378-.91076-.22118-2.80105-.22118h-3.05882z"/></g><g transform="translate(0 -38)"><g stroke-width="2.5"><path d="m320.40867 173.55614v-8.59168h2.74168v2.09264q1.9696 3.862 5.15246 3.862 1.62296 0 2.74169-1.07184 1.11873-1.07184 1.11873-2.80718 0-1.68431-.9139-2.41587-.91389-.74858-3.45073-1.48015-2.94652-.85067-4.36463-1.59925-1.41811-.76559-2.26898-2.16067-.83511-1.4121-.83511-3.33459 0-2.97732 1.82779-4.74668 1.84355-1.78639 4.61674-1.78639 2.63138 0 4.8846 1.83743v-1.58224h2.67865v7.17958h-2.67865v-1.65028q-1.68597-2.73914-4.64825-2.73914-1.79628 0-2.75744.90171-.96117.88468-.96117 2.12665 0 .95274.48847 1.68431.48846.71456 1.24478 1.05481.75633.34027 2.97804.95275 2.89924.81663 4.20705 1.53118 1.30782.69755 2.25323 2.34783.9454 1.65028.9454 3.79395 0 3.02834-1.98535 5.00188-1.9696 1.97353-4.8846 1.97353-2.99379 0-5.38882-2.33081v1.95652z"/><path d="m344.30096 170.59584v-7.80906l-6.52331-9.93572h-2.67865v-2.9603h9.01288v2.9603h-2.75744l4.83734 7.29867 4.41189-7.29867h-2.75743v-2.9603h8.74501v2.9603h-2.89924l-6.08212 9.93572v7.80906h2.99378v2.9603h-9.24923v-2.9603z"/><path d="m356.40878 173.55614v-8.59168h2.74168v2.09264q1.96959 3.862 5.15247 3.862 1.62294 0 2.74168-1.07184 1.11873-1.07184 1.11873-2.80718 0-1.68431-.9139-2.41587-.91389-.74858-3.45072-1.48015-2.94653-.85067-4.36464-1.59925-1.41811-.76559-2.26898-2.16067-.8351-1.4121-.8351-3.33459 0-2.97732 1.82778-4.74668 1.84355-1.78639 4.61674-1.78639 2.63139 0 4.8846 1.83743v-1.58224h2.67866v7.17958h-2.67866v-1.65028q-1.68598-2.73914-4.64825-2.73914-1.79627 0-2.75744.90171-.96116.88468-.96116 2.12665 0 .95274.48846 1.68431.48847.71456 1.24479 1.05481.75632.34027 2.97803.95275 2.89925.81663 4.20706 1.53118 1.30782.69755 2.25322 2.34783.94541 1.65028.94541 3.79395 0 3.02834-1.98536 5.00188-1.9696 1.97353-4.8846 1.97353-2.99379 0-5.38882-2.33081v1.95652z"/><path d="m380.90064 170.59584v-17.74478h-4.5222v6.03969h-2.71017v-8.99999h17.7579v8.99999h-2.71017v-6.03969h-4.50644v17.74478h2.85198v2.9603h-8.96561v-2.9603z"/><path d="m396.61094 170.59584v-17.74478h-2.83622v-2.9603h18.21484v7.12854h-2.71017v-4.16824h-9.35953v7.04348h8.14627v2.96029h-8.14627v7.74101h9.35953v-4.30435h2.71017v7.26465h-18.21484v-2.9603z"/></g><path d="m417.08222 170.59583v-17.74475h-2.83514v-2.9603h8.08103l6.21356 16.21358 6.28148-16.21358h8.16592v2.9603h-2.85213v17.74475h2.85213v2.96031h-8.89593v-2.96031h2.81817v-17.74475l-8.14893 20.94324h-.69606l-8.06406-20.94324v17.74475h2.59748v2.96031h-8.35266v-2.96031z" stroke-width="2.50001"/></g><g stroke-width="2.5" transform="translate(0 54)"><g><path d="m19.254633 33.570665v-12.37684h-1.975629v-2.064783h5.349219q2.206697 0 3.304269.27293 1.109125.272932 1.952522 1.38839.843399 1.103592.843399 2.59878 0 1.151058-.50835 2.076651-.496796.925593-1.46728 1.400257 1.340193.474662 2.056503 1.578254.727863 1.091725.727863 2.503848 0 1.222257-.543009 2.21905-.531456.996792-1.421067 1.542654-.889611.545863-1.952522.735728-1.051358.189865-2.876794.189865h-5.464753v-2.064784zm2.426212-7.570876h1.513494q1.733009 0 2.414658-.617061.693203-.628929.693203-1.83932 0-2.349583-3.107861-2.349583h-1.513494zm0 7.570876h.912718q1.790775 0 2.622619-.177999.831844-.189865 1.351747-.86626.531456-.688261.531456-1.756253 0-.973059-.508349-1.625721-.496797-.664528-1.29398-.878127-.785631-.225465-2.229804-.225465h-1.386407z"/><path d="m32.712354 33.570668v-12.376841h-2.206697v-2.064783h6.527664q2.044949 0 3.246502.332264 1.201552.320397 1.987183 1.376522.78563 1.04426.78563 2.610647 0 3.275176-3.315822 4.117703l2.842133 6.004488h1.964076v2.064785h-3.47757l-3.662423-7.713276h-2.264465v5.648491h2.056504v2.064785h-6.689412v-2.064785zm2.426211-7.713275h1.894756q1.374853 0 2.021843-.177999.658543-.189865 1.074465-.747594.415922-.569596.415922-1.518923 0-.806926-.427475-1.364655-.415922-.55773-1.039806-.700128-.612329-.154267-1.883201-.154267h-2.056504z"/><path d="m46.234584 33.570668v-12.376841h-1.744561v-2.064783h5.915334v2.064783h-1.744562v12.376841h1.744562v2.064785h-5.915334v-2.064785z"/><path d="m56.681818 33.570668v-12.376841h-3.315823v4.212636h-1.987183v-6.277419h13.020669v6.277419h-1.987183v-4.212636h-3.304269v12.376841h2.091163v2.064785h-6.573878v-2.064785z"/><path d="m73.23128 35.63545v-5.992646h1.895883v1.459594q1.361985 2.693725 3.562951 2.693725 1.122276 0 1.895883-.747598.773607-.747597.773607-1.957993 0-1.174797-.631961-1.685061-.631961-.522132-2.386196-1.032396-2.037529-.593332-3.018158-1.115464-.980629-.533998-1.569007-1.507062-.577481-.984929-.577481-2.325859 0-2.07666 1.263922-3.31079 1.274817-1.245995 3.192491-1.245995 1.819612 0 3.377723 1.281595v-1.103595h1.852298v5.007717h-1.852298v-1.151064q-1.165859-1.910527-3.214284-1.910527-1.242131 0-1.906779.628931-.664648.617065-.664648 1.483329 0 .664531.337772 1.174797.337772.498397.860774.73573.523003.237332 2.059321.664532 2.004842.569598 2.909199 1.067997.904358.48653 1.558111 1.637593.653752 1.151064.653752 2.646259 0 2.11226-1.372881 3.488789-1.361984 1.376528-3.377721 1.376528-2.070217 0-3.72639-1.625728v1.364662z"/><path d="m67.419471 33.570668v-12.376841h-1.744561v-2.064783h5.915335v2.064783h-1.744563v12.376841h1.744563v2.064785h-5.915335v-2.064785z"/><path d="m87.099278 33.570657v-12.376893h-1.721549v-2.064793h5.796607v2.064793h-1.786924v4.722918h6.592007v-4.722918h-1.776029v-2.064793h5.796606v2.064793h-1.732441v12.376893h1.732441v2.064793h-5.796606v-2.064793h1.776029v-5.589182h-6.592007v5.589182h1.786924v2.064793h-5.796607v-2.064793z"/></g><g><path d="m108.40651 33.570657v-12.376893h-1.86321v-2.064793h5.0448q2.08111 0 3.11622.272933 1.046.272931 1.84141 1.388395.79539 1.103596.79539 2.598791 0 1.151063-.47941 2.076661-.46852.925597-1.38378 1.400262 1.26392.474664 1.93946 1.578261.68645 1.09173.68645 2.503858 0 1.222263-.51211 2.21906-.50122.996797-1.34019 1.542661-.83898.545866-1.84141.735732-.99152.189865-2.71307.189865h-5.15376v-2.064793zm2.28813-7.570909h1.42735q1.63439 0 2.27724-.617064.65376-.628931.65376-1.839328 0-2.349592-2.931-2.349592h-1.42735zm0 7.570909h.86077q1.68887 0 2.47337-.177999.7845-.189866 1.27482-.866264.50121-.688264.50121-1.756261 0-.973064-.47942-1.625728-.46853-.664531-1.22034-.878131-.74092-.225466-2.10291-.225466h-1.3075z"/><path d="m121.71572 33.570657v-12.376893h-2.08111v-2.064793h6.15616q1.92858 0 3.06175.332265 1.13317.320399 1.87409 1.376529.74092 1.044263.74092 2.610658 0 3.27519-3.12712 4.11772l2.68039 6.004514h1.8523v2.064793h-3.27966l-3.454-7.713308h-2.13558v5.648515h1.93946v2.064793h-6.30871v-2.064793zm2.28814-7.713308h1.78691q1.29662 0 1.90679-.177999.62106-.189867 1.01332-.747598.39225-.569598.39225-1.518929 0-.80693-.40316-1.364662-.39225-.557731-.98062-.700131-.57748-.154266-1.77603-.154266h-1.93946z"/><path d="m133.50335 27.305078q0-3.595588 2.15739-6.016381 2.15738-2.420792 5.62227-2.420792 3.49758 0 5.69854 2.420792 2.20097 2.420793 2.20097 6.063847 0 3.714254-2.24455 6.135047-2.23366 2.408925-5.68765 2.408925-2.20096 0-4.05327-1.139196-1.8414-1.151062-2.76754-3.192123-.92616-2.052926-.92616-4.260119zm2.49516.01187q0 2.717457 1.46005 4.556785 1.46005 1.839327 3.83534 1.839327 2.35352 0 3.86804-1.874927 1.51453-1.886794 1.51453-4.497453 0-2.634391-1.54721-4.449985-1.53633-1.827461-3.86804-1.827461-2.32082 0-3.79176 1.791861-1.47095 1.791861-1.47095 4.461853z"/><path d="m160.18326 29.832669h-5.44794l-1.16586 3.737988h1.8414v2.064793h-5.97093v-2.064793h1.8305l4.14043-12.578626h-1.8414v-1.86306h7.74697v1.86306h-1.88499l4.2385 12.578626h1.69976v2.064793h-5.93826v-2.064793h1.88499zm-.56658-1.93426-2.01574-6.906378h-.20703l-2.09201 6.906378z"/><path d="m167.51294 33.570657v-12.376893h-2.05932v-2.064793h5.86198q2.42978 0 3.73728.272933 1.31841.272931 2.54964 1.234128 1.23123.961198 1.96125 2.646258.74092 1.673195.74092 3.821054 0 2.444527-.70823 4.248254-.70822 1.803728-1.86319 2.693725-1.14406.889996-2.73487 1.245995-1.5799.344132-4.03147.344132h-5.51331v-2.064793zm2.28813 0h1.19855q2.00484 0 3.1707-.272932 1.17675-.272932 1.98305-.925597.80629-.664531 1.3075-1.993594.50121-1.329062.50121-3.13279 0-2.147859-.82809-3.643055-.81719-1.495195-2.1029-1.946127-1.27482-.462798-3.93341-.462798h-1.29661z"/><path d="m195.08432 28.918939 1.97216 1.19853q-.66465 2.753057-2.69128 4.271986-2.01574 1.507061-4.64165 1.507061-3.44309 0-5.52421-2.432658-2.08111-2.432659-2.08111-6.01638 0-3.927855 2.09202-6.253714 2.092-2.325859 5.45883-2.325859 2.97457 0 5.00121 1.768127v-1.507061h1.96125v5.304382h-1.96125q-.65376-1.613861-2.01575-2.491991-1.36198-.889998-2.86561-.889998-2.26634 0-3.72639 1.779995-1.44915 1.779994-1.44915 4.497452 0 2.788658 1.55811 4.556785 1.55811 1.768127 3.6937 1.768127 1.75424 0 3.19249-1.222262 1.43826-1.23413 2.02663-3.512522z"/><path d="m207.43904 29.832669h-5.44794l-1.16586 3.737988h1.8414v2.064793h-5.97094v-2.064793h1.83051l4.14043-12.578626h-1.8414v-1.86306h7.74697v1.86306h-1.88499l4.2385 12.578626h1.69975v2.064793h-5.93825v-2.064793h1.88499zm-.56659-1.93426-2.01574-6.906378h-.20701l-2.09202 6.906378z"/><path d="m213.2592 35.63545v-5.992646h1.89587v1.459594q1.36198 2.693725 3.56296 2.693725 1.12227 0 1.89588-.747598.77361-.747597.77361-1.957993 0-1.174797-.63197-1.685061-.63196-.522132-2.38619-1.032396-2.03753-.593332-3.01816-1.115464-.98063-.533998-1.56901-1.507062-.57748-.984929-.57748-2.325859 0-2.07666 1.26392-3.31079 1.27482-1.245995 3.1925-1.245995 1.81961 0 3.37772 1.281595v-1.103595h1.8523v5.007717h-1.8523v-1.151064q-1.16586-1.910527-3.21429-1.910527-1.24213 0-1.90678.628931-.66464.617065-.66464 1.483329 0 .664531.33777 1.174797.33778.498397.86077.73573.523.237332 2.05933.664532 2.00483.569598 2.90919 1.067997.90436.48653 1.55812 1.637593.65375 1.151064.65375 2.646259 0 2.11226-1.37288 3.488789-1.36199 1.376528-3.37773 1.376528-2.07021 0-3.72639-1.625728v1.364662z"/><path d="m229.40417 33.570657v-12.376893h-3.12712v4.212653h-1.87409v-6.277446h12.27966v6.277446h-1.8741v-4.212653h-3.11621v12.376893h1.97215v2.064793h-6.19975v-2.064793z"/><path d="m240.08586 33.570657v-12.376893h-1.64527v-2.064793h5.57869v2.064793h-1.64529v12.376893h1.64529v2.064793h-5.57869v-2.064793z"/><path d="m247.60742 33.570657v-12.376893h-2.16828v-2.064793h5.17554l6.64649 12.827825v-10.763032h-2.14649v-2.064793h6.22155v2.064793h-2.23366v14.60782h-2.35351l-7.26755-14.085688v11.854761h2.16828v2.064793h-6.21065v-2.064793z"/><path d="m273.04956 27.672943h5.51331q.0109.320399.0109.569599 0 3.476921-2.092 5.565448-2.09201 2.088526-5.52422 2.088526-4.10774 0-6.12347-2.539458-2.01575-2.551325-2.01575-6.028247 0-3.643055 2.05933-6.051981 2.05932-2.408925 5.58958-2.408925 3.1707 0 5.31719 2.100393v-1.839327h1.92857v5.423048h-1.92857q-.54479-1.364662-1.93947-2.420792-1.38377-1.067996-3.1707-1.067996-2.48426 0-3.92251 1.827461-1.43826 1.827461-1.43826 4.402519 0 2.95479 1.63438 4.687319 1.64528 1.732527 3.95521 1.732527 1.80871 0 3.22517-1.09173 1.41647-1.103596 1.65618-2.88359h-2.73486z"/></g><g><path d="m298.54296 28.918939 1.97215 1.19853q-.66465 2.753057-2.69128 4.271986-2.01574 1.507061-4.64165 1.507061-3.44309 0-5.5242-2.432658-2.08112-2.432659-2.08112-6.01638 0-3.927855 2.09201-6.253714 2.09201-2.325859 5.45884-2.325859 2.97457 0 5.0012 1.768127v-1.507061h1.96126v5.304382h-1.96126q-.65375-1.613861-2.01573-2.491991-1.36199-.889998-2.86562-.889998-2.26635 0-3.72639 1.779995-1.44915 1.779994-1.44915 4.497452 0 2.788658 1.55811 4.556785 1.55811 1.768127 3.6937 1.768127 1.75424 0 3.19249-1.222262 1.43826-1.23413 2.02664-3.512522z"/><path d="m302.79611 27.305078q0-3.595588 2.15738-6.016381 2.15738-2.420792 5.62227-2.420792 3.49758 0 5.69855 2.420792 2.20096 2.420793 2.20096 6.063847 0 3.714254-2.24454 6.135047-2.23366 2.408925-5.68765 2.408925-2.20097 0-4.05327-1.139196-1.84141-1.151062-2.76755-3.192123-.92615-2.052926-.92615-4.260119zm2.49515.01187q0 2.717457 1.46005 4.556785 1.46005 1.839327 3.83535 1.839327 2.35351 0 3.86804-1.874927 1.51452-1.886794 1.51452-4.497453 0-2.634391-1.54721-4.449985-1.53632-1.827461-3.86804-1.827461-2.32082 0-3.79176 1.791861-1.47095 1.791861-1.47095 4.461853z"/><path d="m321.61739 33.570657v-12.376893h-2.08111v-2.064793h6.15617q1.92856 0 3.06174.332265 1.13317.320399 1.87409 1.376529.74091 1.044263.74091 2.610658 0 3.27519-3.12711 4.11772l2.68039 6.004514h1.8523v2.064793h-3.27966l-3.454-7.713308h-2.13559v5.648515h1.93947v2.064793h-6.30871v-2.064793zm2.28813-7.713308h1.78693q1.2966 0 1.90677-.177999.62106-.189867 1.01332-.747598.39225-.569598.39225-1.518929 0-.80693-.40314-1.364662-.39226-.557731-.98064-.700131-.57747-.154266-1.77602-.154266h-1.93947z"/><path d="m335.18432 33.570657v-12.376893h-1.90678v-2.064793h5.41525q2.38619 0 3.57384.367865 1.18766.367866 1.98306 1.673194.80629 1.293463.80629 3.061591 0 1.412129-.53389 2.539458-.52301 1.115464-1.30751 1.649461-.77361.533999-1.75423.723865-.96974.177999-2.9419.177999h-1.046v4.248253h1.96126v2.064793h-6.15617v-2.064793zm2.28813-6.241846h1.3075q2.23366 0 3.09444-.688265.86077-.700131.86077-2.456391 0-1.115464-.45763-1.851195-.45763-.73573-1.13317-.937464-.67555-.201732-2.25545-.201732h-1.41646z"/><path d="m347.09705 27.305078q0-3.595588 2.15738-6.016381 2.15738-2.420792 5.62227-2.420792 3.49758 0 5.69854 2.420792 2.20097 2.420793 2.20097 6.063847 0 3.714254-2.24455 6.135047-2.23366 2.408925-5.68764 2.408925-2.20097 0-4.05328-1.139196-1.8414-1.151062-2.76755-3.192123-.92614-2.052926-.92614-4.260119zm2.49515.01187q0 2.717457 1.46004 4.556785 1.46006 1.839327 3.83536 1.839327 2.3535 0 3.86803-1.874927 1.51453-1.886794 1.51453-4.497453 0-2.634391-1.54721-4.449985-1.53632-1.827461-3.86804-1.827461-2.32082 0-3.79176 1.791861-1.47095 1.791861-1.47095 4.461853z"/><path d="m365.91833 33.570657v-12.376893h-2.08112v-2.064793h6.15618q1.92856 0 3.06174.332265 1.13316.320399 1.87408 1.376529.74092 1.044263.74092 2.610658 0 3.27519-3.12711 4.11772l2.68039 6.004514h1.85229v2.064793h-3.27965l-3.454-7.713308h-2.13559v5.648515h1.93947v2.064793h-6.30872v-2.064793zm2.28813-7.713308h1.78693q1.2966 0 1.90677-.177999.62106-.189867 1.01332-.747598.39225-.569598.39225-1.518929 0-.80693-.40314-1.364662-.39226-.557731-.98064-.700131-.57747-.154266-1.77602-.154266h-1.93947z"/><path d="m387.05775 29.832669h-5.44793l-1.16586 3.737988h1.8414v2.064793h-5.97094v-2.064793h1.83051l4.14043-12.578626h-1.8414v-1.86306h7.74697v1.86306h-1.88499l4.2385 12.578626h1.69975v2.064793h-5.93825v-2.064793h1.88499zm-.56658-1.93426-2.01574-6.906378h-.20702l-2.09201 6.906378z"/><path d="m396.3944 33.570657v-12.376893h-3.12712v4.212653h-1.87409v-6.277446h12.27965v6.277446h-1.87409v-4.212653h-3.11622v12.376893h1.97216v2.064793h-6.19976v-2.064793z"/><path d="m406.5522 33.570657v-12.376893h-1.64529v-2.064793h5.57869v2.064793h-1.64527v12.376893h1.64527v2.064793h-5.57869v-2.064793z"/><path d="m411.40958 27.305078q0-3.595588 2.15739-6.016381 2.15738-2.420792 5.62227-2.420792 3.49757 0 5.69854 2.420792 2.20097 2.420793 2.20097 6.063847 0 3.714254-2.24455 6.135047-2.23366 2.408925-5.68765 2.408925-2.20097 0-4.05326-1.139196-1.84141-1.151062-2.76756-3.192123-.92615-2.052926-.92615-4.260119zm2.49516.01187q0 2.717457 1.46005 4.556785 1.46004 1.839327 3.83534 1.839327 2.35352 0 3.86804-1.874927 1.51453-1.886794 1.51453-4.497453 0-2.634391-1.54722-4.449985-1.53632-1.827461-3.86803-1.827461-2.32083 0-3.79177 1.791861-1.47094 1.791861-1.47094 4.461853z"/><path d="m431.26156 33.570657v-12.376893h-2.16829v-2.064793h5.17555l6.64649 12.827825v-10.763032h-2.14649v-2.064793h6.22154v2.064793h-2.23365v14.60782h-2.35352l-7.26754-14.085688v11.854761h2.16827v2.064793h-6.21065v-2.064793z"/></g></g></g></svg>