<svg height="41.302559mm" viewBox="0 0 310.54498 31.220832" width="410.82513mm" xmlns="http://www.w3.org/2000/svg"><rect fill="#5d594f" height="31.220833" rx="15.610415" ry="15.610416" width="310.54498"/><path d="m171.428893 23.45468h84.513542v2.390343h-84.513542z" fill="#009eda"/><path d="m171.428893 18.84688h84.513542v2.390343h-84.513542z" fill="#4bb249"/><path d="m171.428893 14.35248h84.513542v2.390343h-84.513542z" fill="#f1cb29"/><path d="m171.428893 9.9841h84.513542v2.390343h-84.513542z" fill="#da6241"/><path d="m171.428893 5.40666h84.513542v2.390343h-84.513542z" fill="#d12625"/><g fill="#fff"><g stroke-width="1.36833" transform="matrix(.7308138 0 0 .7308138 11.681469 -129.620705)"><path d="m8.0766347 184.60151c-7.68728875 0-13.9236978 6.23641-13.9236978 13.9237s6.23640905 13.91543 13.9236978 13.91543c1.4783247 0 2.9051193-.23472 4.2416013-.66146v-6.94531c-1.154138.67104-2.5047903 1.05833-3.9522133 1.05833-4.2300892 0-7.65638011-3.29806-7.65638011-7.36699 0-4.06894 3.42629091-7.36699 7.65638011-7.36699 1.447423 0 2.7980753.38728 3.9522133 1.05833v-6.95358c-1.336482-.42724-2.7632766-.66146-4.2416013-.66146z"/><g stroke-width="1.1943" transform="matrix(.10026233 0 0 .09751653 -5.572309 184.73382)"><path d="m179.959 78.103h118.5l-53 56.75h-65.5z"/><path d="m179.959 203.103h118.5l-53-56.75h-65.5z"/></g></g><g stroke-linecap="round" stroke-width=".264583" transform="translate(44.293953 -140.74498)"><path d="m225.52793 160.33849c-1.83815 0-2.35716-.41088-2.35716-1.75165 0-1.31914.49738-1.7084 2.44366-1.7084h4.19531c1.94627 0 2.44366.38926 2.44366 1.7084 0 1.34077-.51901 1.75165-2.35716 1.75165zm-6.89847-2.11928c0 4.06555 1.85977 5.49282 5.60095 5.49282h6.83359c3.71956 0 5.60096-.49738 5.60096-4.34668v-1.36239c0-2.83292-.82176-4.36832-5.44958-4.36832h-4.47643c-1.88141 0-2.78967.41089-3.56818 1.1894v-1.85978c0-1.23264.69201-1.8814 2.33553-1.8814h4.21694c1.68677 0 2.37878.36763 2.37878 1.42727h4.15206v-1.23264c0-1.98953-1.21102-3.56818-5.77396-3.56818h-4.99544c-5.1252 0-6.85522 1.38402-6.85522 6.14159z"/><path d="m239.29846 160.40336h12.17504v3.13567h4.54131v-3.13567h2.31391v-3.50329h-2.31391v-9.01775h-5.53607l-11.18028 6.79034zm12.17504-8.75824v5.25495h-8.41224v-.0433z"/></g><g stroke-linecap="round" stroke-width=".264583" transform="translate(44.293953 -140.74498)"><path d="m-10.005685 156.49567c0 3.59308 2.2350898 3.98865 4.353421 3.98865h3.2692358c1.8347752 0 3.7362695-.64279 3.7362695-2.90083v-.74169h-3.1024381v.19778c0 .77466-.8173089.97244-1.7180167.97244h-1.6346178c-1.0007866 0-1.701337-.32964-1.701337-1.41745v-1.12078c0-.923.6338313-1.2856 1.9682133-1.2856h1.2343033c1.4011011 0 1.8514549.31316 1.8514549 1.17022h3.1024381v-.75817c0-1.9284-1.45114039-2.78546-3.8196683-2.78546h-3.6028313c-2.3351684 0-3.9364267.69225-3.9364267 3.87327z"/><path d="m3.0134337 157.06906c0 2.76898 1.8848145 3.32937 3.5194324 3.32937h4.7870959c1.634618 0 3.519432-.56039 3.519432-3.32937v-2.01081c0-2.76898-1.884814-3.32937-3.519432-3.32937h-4.7870959c-1.6346179 0-3.5194324.56039-3.5194324 3.32937zm3.2025166-1.40097c0-1.20319.7172304-1.56579 2.1850504-1.56579h.7672697c2.0682926 0 2.4686066.26371 2.4686066 1.38449v1.15374c0 1.12077-.400314 1.38448-2.4686066 1.38448h-.7672697c-1.46782 0-2.1850504-.3626-2.1850504-1.56578z"/><path d="m16.466434 160.13028h3.202517v-4.43366c0-1.30208.650511-1.63172 2.018252-1.63172 1.934855 0 2.31849.26371 2.31849 1.30208v4.7633h3.202516v-4.63145c0-1.10429.633831-1.43393 2.16837-1.43393 1.868136 0 2.168372.39558 2.168372 1.54931v4.51607h3.202516v-4.73033c0-2.40638-1.050826-3.80735-3.969786-3.80735h-.984107c-1.818095 0-2.501966.44502-3.035719 1.96136-.600472-1.31856-1.634618-1.96136-3.152477-1.96136h-1.217623c-1.5679 0-2.668764.57687-2.835562 1.78006h-.03336v-1.6482h-3.052399z"/><path d="m36.83551 160.13028h3.202518v-4.43366c0-1.30208.65051-1.63172 2.018252-1.63172 1.934854 0 2.318489.26371 2.318489 1.30208v4.7633h3.202516v-4.63145c0-1.10429.633832-1.43393 2.168371-1.43393 1.868134 0 2.16837.39558 2.16837 1.54931v4.51607h3.202517v-4.73033c0-2.40638-1.050825-3.80735-3.969786-3.80735h-.984107c-1.818095 0-2.501966.44502-3.035719 1.96136-.600472-1.31856-1.634618-1.96136-3.152477-1.96136h-1.217624c-1.567898 0-2.668764.57687-2.835562 1.78006h-.03336v-1.6482h-3.052399z"/><path d="m73.920433 155.43291c0-.93947.150118-1.4669 1.684657-1.4669h1.884815c1.267663 0 1.934854.2802 1.934854 1.54932v.8241c0 1.26911-.667191 1.5493-1.934854 1.5493h-1.884815c-1.534539 0-1.684657-.52743-1.684657-1.4669zm-3.102438 1.25264c0 2.14266.500393 3.57659 4.553579 3.57659h.934066c1.934854 0 2.735484-.64279 3.085759-1.68116h.03336v1.5493h3.002359v-11.93297h-3.202516v5.07645h-.03336c-.200157-1.31855-1.551218-1.68116-2.868921-1.68116h-.950746c-4.053186 0-4.553579 1.43393-4.553579 3.5766z"/><path d="m56.948747 157.06906c0 2.76898 1.884815 3.32937 3.519432 3.32937h4.787096c1.634618 0 3.519432-.56039 3.519432-3.32937v-2.01081c0-2.76898-1.884814-3.32937-3.519432-3.32937h-4.787096c-1.634617 0-3.519432.56039-3.519432 3.32937zm3.202517-1.40097c0-1.20319.71723-1.56579 2.18505-1.56579h.767269c2.068293 0 2.468607.26371 2.468607 1.38449v1.15374c0 1.12077-.400314 1.38448-2.468607 1.38448h-.767269c-1.46782 0-2.18505-.3626-2.18505-1.56578z"/><path d="m84.249931 157.06906c0 2.76898 1.884815 3.32937 3.519433 3.32937h4.787095c1.634618 0 3.519432-.56039 3.519432-3.32937v-2.01081c0-2.76898-1.884814-3.32937-3.519432-3.32937h-4.787095c-1.634618 0-3.519433.56039-3.519433 3.32937zm3.202517-1.40097c0-1.20319.717231-1.56579 2.185051-1.56579h.767269c2.068292 0 2.468607.26371 2.468607 1.38449v1.15374c0 1.12077-.400315 1.38448-2.468607 1.38448h-.767269c-1.46782 0-2.185051-.3626-2.185051-1.56578z"/><path d="m97.828364 160.26657h3.202516v-4.64793c0-1.0054.76726-1.41745 1.86813-1.41745 1.28435 0 1.53454.51094 1.53454 1.58227h2.76885c.0167-.29667.0334-.52742.0334-.74169 0-2.32396-.91739-3.31289-3.25256-3.31289-1.45114 0-2.75217.39558-3.11912 1.73062h-.0334v-1.59876h-3.002356z"/><path d="m108.40517 156.40978c0 3.59307 2.23509 3.98865 4.35341 3.98865h2.40189c2.31849 0 4.21998-.4615 4.21998-2.57119v-.36261h-3.00236c0 .49446-.0834.95596-1.81809.95596h-.98411c-1.33437 0-1.96821-.24723-1.96821-1.13726v-.51094h7.77277v-1.41746c0-2.91732-1.4011-3.62605-4.80377-3.62605h-2.23509c-2.33517 0-3.93642.69225-3.93642 3.87328zm3.20251-1.51634c0-1.00541.2502-1.18672 2.33517-1.18672 1.86813 0 2.33517.18131 2.33517 1.18672z"/></g></g></svg>