<svg height="151.43953" viewBox="0 0 68.058643 8.1777345" width="1260.3452" xmlns="http://www.w3.org/2000/svg" xmlns:xlink="http://www.w3.org/1999/xlink"><linearGradient id="a"><stop offset="0" stop-color="#ffcf64"/><stop offset="1" stop-color="#d09236"/></linearGradient><radialGradient id="b" cx="34.754295" cy="8.23482" gradientTransform="matrix(1 0 0 .11186893 0 7.3136)" gradientUnits="userSpaceOnUse" r="33.650532" xlink:href="#a"/><radialGradient id="c" cx="33.634304" cy="-21.894327" gradientTransform="matrix(1 0 0 .31134621 0 11.68102)" gradientUnits="userSpaceOnUse" r="33.650532" xlink:href="#a"/><radialGradient id="d" cx="34.754295" cy="8.23482" gradientTransform="matrix(1 0 0 .11186893 .108 7.3136)" gradientUnits="userSpaceOnUse" r="33.650532" xlink:href="#a"/><g stroke-width=".661458" transform="translate(-.779297 -4.146484)"><path d="m1.9082031 4.1464844-1.12890622 1.1289062v5.9042974l1.12890622 1.128906h6.09375v-2.527344h-4.6953125v-3.1074219h3.6347656l1.2597657-2.5273437zm7.4355469 0-1.1289062 1.1289062v5.9042974l1.1289062 1.128906h4.964844l1.128906-1.128906v-5.9042974l-1.128906-1.1289062zm6.306641 0v8.1621096h6.160156l1.261719-2.527344h-4.894532v-5.6347656zm7.435547 0v8.1621096h6.160156l1.261718-2.527344h-4.896484v-5.6347656zm7.464843 0v8.1777346h6.472657v-2.5312502h-3.871094v-.2929688h3.871094v-2.53125h-3.871094v-.2890625h3.669922l.002-.00195h.199219v-2.53125zm6.712891 0v2.5273437h2.61914l-2.818359 5.6347659h7.421875v-2.527344h-2.617187l2.816406-5.6347656zm7.435547 0v8.1621096h2.527343v-8.1621096zm3.867187 0-1.128906 1.1289062v5.9042974l1.128906 1.128906h4.966797l1.128906-1.128906v-5.9042974l-1.128906-1.1289062zm6.306641 0v8.1621096h2.527344v-3.6464846l1.822265 3.6464846h2.873047v-8.1621096h-2.525391v3.6503906l-1.826171-3.6503906zm7.492187 0v8.1777346h6.472657v-2.5312502h-3.871094v-.2929688h3.871094v-2.53125h-3.871094v-.2890625h3.669922l.002-.00195h.199219v-2.53125zm-51.623046 2.5273437h2.169921v3.1074219h-2.169921zm39.222656 0h2.169922v3.1074219h-2.169922z"/><g fill="url(#b)"><path d="m36.698533 4.4705285h-5.823416v7.5287405h5.823416v-1.882573h-3.870047v-.9410282h3.870047v-1.8820558h-3.870047v-.938444h3.85868l.0016-.00259h.0098z" fill="url(#c)" stroke-width=".661458"/><path d="m68.512795 4.4705285h-5.823416v7.5287405h5.823416v-1.882573h-3.870047v-.9410282h3.870047v-1.8820558h-3.870047v-.938444h3.85868l.0016-.00259h.0098z" fill="url(#d)" stroke-width=".661458"/><g fill="url(#b)"><path d="m2.0430349 11.984531-.93927-.93927v-5.6356197l.93927-.9392701h5.6356201l-.93927 1.8785401h-3.7570801v3.7570797h4.6963501v1.87854z"/><path d="m13.235355 10.105991v-3.7570797h-2.81781v3.7570797zm-3.7570803 1.87854-.93927-.93927v-5.6356197l.93927-.9392701h4.6963503l.93927.9392701v5.6356197l-.93927.93927z"/><path d="m15.974244 11.984531v-7.5141598h1.878541v5.6356198h4.69635l-.93927 1.87854z"/><path d="m23.409484 11.984531v-7.5141598h1.87854v5.6356198h4.69635l-.93927 1.87854z"/><path d="m37.587977 11.984531 2.81781-5.6356197h-2.81781v-1.8785401h6.57489l-2.81781 5.6356198h2.81781v1.87854z"/><path d="m45.023215 11.984531v-7.5141598h1.87854v7.5141598z"/><path d="m52.458456 10.105991v-3.7570797h-2.81781v3.7570797zm-3.75708 1.87854-.93927-.93927v-5.6356197l.93927-.9392701h4.69635l.93927.9392701v5.6356197l-.93927.93927z"/><path d="m55.197344 11.984531v-7.5141598h2.348175l2.348175 4.6963501v-4.6963501h1.87854v7.5141598h-2.348175l-2.348175-4.6963497v4.6963497z"/></g></g></g></svg>