<svg height="1.577495in" viewBox="0 0 68.769529 8.1777346" width="13.265727in" xmlns="http://www.w3.org/2000/svg" xmlns:xlink="http://www.w3.org/1999/xlink"><linearGradient id="a"><stop offset="0" stop-color="#ffcf64"/><stop offset="1" stop-color="#d09236"/></linearGradient><radialGradient id="b" cx="35.006001" cy="-22.613348" gradientTransform="matrix(1 0 0 .30829155 0 11.780994)" gradientUnits="userSpaceOnUse" r="33.902233" xlink:href="#a"/><radialGradient id="c" cx="35.006001" cy="-22.613348" gradientTransform="matrix(1 0 0 .30829155 .108 11.780994)" gradientUnits="userSpaceOnUse" r="33.902233" xlink:href="#a"/><g stroke-width=".661458" transform="translate(-.779297 -4.146484)"><path d="m1.9082031 4.1464844-1.12890622 1.1289062v5.9042974l1.12890622 1.128906h6.09375v-2.527344h-4.6953125v-3.1074219h3.6347656l1.2597657-2.5273437zm7.4355469 0-1.1289062 1.1289062v5.9042974l1.1289062 1.128906h4.964844l1.128906-1.128906v-5.9042974l-1.128906-1.1289062zm6.306641 0v8.1621096h6.160156l1.253906-2.511719v2.511719h6.160156l1.261719-2.527344h-4.896484v-5.6347656h-2.525391v5.6347656h-4.886719v-5.6347656zm14.90039 0v8.1777346h6.472657v-2.5312502h-3.871094v-.2929688h3.871094v-2.53125h-3.871094v-.2890625h3.669922l.002-.00195h.199219v-2.53125zm7.884766 0-1.128906 1.1289062v5.9042974l1.128906 1.128906h6.095703v-2.527344h-4.697266v-3.1074219h3.634766l1.214844-2.4335937v2.4375h2.441406v5.6464846h2.601562v-5.6464846h2.253907l.193359-.1933594v-2.3378906h-7.443359-.04687zm13.990234 0v8.1621096h2.527344v-8.1621096zm2.738281 0v8.1777346h6.472657v-2.5312502h-3.871094v-.2929688h3.871094v-2.53125h-3.871094v-.2890625h3.669922l.002-.00195h.199219v-2.53125zm7.832032 0-1.169922 1.1269531v3.0996094l1.169922 1.1269531h3.71289v.2929688h-4.882812v2.5312502h5.33789l2.148438-2.06836v-3.287109h-4.884766v-.2910156h3.808594l1.3125-2.53125zm-52.253906 2.5273437h2.169921v3.1074219h-2.169921z"/><g fill="url(#b)"><g fill="url(#b)"><path d="m2.0430349 11.984531-.93927-.93927v-5.6356197l.93927-.9392701h5.6356201l-.93927 1.8785401h-3.7570801v3.7570797h4.6963501v1.87854z"/><path d="m13.235355 10.105991v-3.7570797h-2.81781v3.7570797zm-3.7570803 1.87854-.93927-.93927v-5.6356197l.93927-.9392701h4.6963503l.93927.9392701v5.6356197l-.93927.93927z"/><path d="m15.974244 11.984531v-7.5141598h1.878541v5.6356198h4.69635l-.93927 1.87854z"/><path d="m23.388038 11.984531v-7.5141598h1.87854v5.6356198h4.69635l-.93927 1.87854z"/><path d="m38.571005 11.984531-.93927-.93927v-5.6356197l.93927-.9392701h5.63562l-.93927 1.8785401h-3.75708v3.7570797h4.69635v1.87854z"/></g><path d="m52.749532 11.984531v-7.5141598h1.87854v7.5141598z" fill="url(#c)"/><path d="m61.312322 4.4705285h-5.823416v7.5287405h5.823416v-1.882573h-3.870047v-.9410282h3.870047v-1.8820558h-3.870047v-.938444h3.85868l.0016-.00259h.0098z" fill="url(#c)" stroke-width=".661458"/><path d="m62.150797 11.999056v-1.882171h4.883361v-.9410858h-3.906689l-.976672-.9410856v-2.823257l.976672-.9410856h5.888766l-.976673 1.8821713h-3.93542v.9410856h4.88336v2.8232571l-1.953344 1.882171z" fill="url(#c)" stroke-width=".661458"/><path d="m36.698533 4.4705285h-5.823416v7.5287405h5.823416v-1.882573h-3.870047v-.9410282h3.870047v-1.8820558h-3.870047v-.938444h3.85868l.0016-.00259h.0098z" fill="url(#b)" stroke-width=".661458"/><path d="m51.849707 4.4705284h-6.841957v1.8820557h2.44171v5.6466849h1.953368v-5.6466849h2.443778l.0031-.0031z" fill="url(#c)" stroke-width=".661458"/></g></g></svg>