<svg height="157.00809" viewBox="0 0 58.292967 13.345687" width="685.79962" xmlns="http://www.w3.org/2000/svg" xmlns:xlink="http://www.w3.org/1999/xlink"><radialGradient id="a" cx="29.813684" cy="-8.70001" gradientTransform="matrix(1 0 0 .36508421 0 8.040541)" gradientUnits="userSpaceOnUse" r="28.697393"><stop offset="0" stop-color="#ffcf64"/><stop offset="1" stop-color="#d09236"/></radialGradient><g stroke-width=".661458" transform="translate(-.763672 -1.429688)"><path d="m41.804688 1.4296875-.0918.421875c-.02956.135038-.07076.198323-.09961.2265625-.02479.024269-.04297.035156-.04297.035156-.08629 0-.186403-.022154-.308593-.083984-.154201-.0878527-.313135-.1766599-.474606-.2617189-.209549-.1148707-.432396-.1738281-.667968-.1738281-.441319 0-.802279.1572872-1.115235.4785156-.24386.2501254-.389433.5952467-.46289.9960938l-.04492.2460937 1.279297.6660157.0957-.4335938c.02981-.1361991.07152-.2010161.09961-.2285156.02741-.026834.04102-.035156.04102-.035156.08588 0 .185779.026186.300781.091797l.492188.2695312.0078.00391c.208802.1015911.426867.1562499.652344.15625.42767 0 .8011-.1700049 1.105468-.4824219.251391-.2580387.400646-.6047849.47461-1.0136718l.04687-.2539063zm-39.9023442 2.7011719-1.13867192 1.1386718v5.9160158l1.13867192 1.138672h6.1152343v-2.558594h-4.6953125v-3.0761719h3.6289063l1.2753906-2.5585937zm7.4355468 0-1.1386718 1.1386718v5.9160158l1.1386718 1.138672h4.9765624l1.138672-1.138672v-5.9160158l-1.138672-1.1386718zm6.2968754 0v8.1933596h6.185546l1.240235-2.480469v2.496094h6.503906v-2.5625002h-3.871094v-.2617188h3.871094v-2.5625h-3.871094v-.2578125h3.660157l.002-.00195h.208984v-2.5625h-6.503953v5.6347625h-4.867188v-5.6347656zm15.232422 0-1.138672 1.1386718v5.9160158l1.138672 1.138672h1.791015l-.416015.679687.521484.06836c.362232.04672.539939.09466.644531.162109.005.0032.0048.0045.0098.0078-.01554.0021-.01868.0078-.03906.0078-.107355 0-.241843-.0096-.408203-.0293l-.226562-.02734-.746094 1.367188.433594.101562c.126895.03006.264044.05589.416015.07813.166947.02308.349744.03516.544922.03516.738546 0 1.327879-.113081 1.675781-.392579.371257-.28917.541016-.678596.541016-1.164062 0-.369396-.149686-.665121-.445313-.890625-.0023-.0018-.0055-.0021-.0078-.0039h1.826172v-2.558584h-4.695362v-3.0761719h3.626953l1.279297-2.5585937zm7.435546 0-1.138672 1.1386718v5.9160158l1.138672 1.138672h4.976563l1.138672-1.138672v-5.9160158l-1.138672-1.1386718zm6.289063 0v8.2089846h6.503906v-2.5625002h-3.871094v-.2617188h3.871094v-2.5625h-3.871094v-.2578125h3.660157l.002-.00195h.208984v-2.5625zm7.880859 0-1.179687 1.1367187v3.1113281l1.179687 1.1367188h3.703125v.2617188h-4.882812v2.5625002h5.359375l2.158203-2.078125v-3.308594h-4.884766v-.2597656h3.802735l1.328125-2.5625zm-41.714844 2.5585937h2.138672v3.0761719h-2.138672zm28.962891 0h2.138672v3.0761719h-2.138672z"/><g fill="url(#a)"><path d="m2.0430349 11.984531-.93927-.93927v-5.6356197l.93927-.9392701h5.6356201l-.93927 1.8785401h-3.7570801v3.7570797h4.6963501v1.87854z"/><path d="m13.235355 10.105991v-3.7570797h-2.81781v3.7570797zm-3.7570803 1.87854-.93927-.93927v-5.6356197l.93927-.9392701h4.6963503l.93927.9392701v5.6356197l-.93927.93927z"/><path d="m15.974244 11.984531v-7.5141598h1.878541v5.6356198h4.69635l-.93927 1.87854z"/><path d="m31.00702 4.470528-.938959.9389607v5.6358323l.938959.93896h2.258777l-.458369.749308c.373073.04812.634185.120285.783415.216525.149233.09624.223758.20648.223758.330212 0 .116859-.04524.195945-.136424.237195-.08291.04811-.182624.07183-.298691.07183-.124357 0-.273418-.0099-.447519-.03049l-.422712.77308c.116065.02749.244568.05172.385506.07235.14923.02063.314735.03101.497128.03101.712981 0 1.202315-.106782 1.46761-.319877.273584-.213094.41031-.512159.41031-.897103 0-.254338-.103827-.460464-.311091-.618566-.198972-.151229-.422561-.261473-.671277-.330213l.149344-.285254h2.206069v-1.878445h-4.696354v-3.7568765h3.756874l.93948-1.8784385z"/><path d="m42.045624 1.92288c-.03872.1768782-.103441.3094693-.193786.3979084-.09035.088439-.183803.1328084-.280604.1328087-.148426 0-.303239-.040837-.464571-.1224733-.154879-.088439-.31642-.1766609-.484209-.2651001-.161332-.088439-.329088-.1328084-.503327-.1328084-.335574 0-.62552.1260435-.870749.3777547-.183412.188124-.307732.4608073-.373102.8175212l.663009.3457152c.03872-.176878.103438-.3094694.193786-.3979085.09035-.088439.183803-.1328084.280601-.1328084.154882 0 .309692.044369.464571.1328084l.484209.2651001c.167788.081636.335542.1224732.503327.1224732.329121 0 .61622-.1260435.861447-.3777549.191494-.1965584.319936-.476214.385508-.8387082zm.153916 8.183111v-3.7570796h-2.817809v3.7570796zm-3.75708 1.87854-.939268-.93927v-5.6356196l.939268-.9392703h4.696351l.939268.9392703v5.6356196l-.939268.93927z"/><path d="m51.633113 11.999056v-1.882171h4.883361v-.9410858h-3.906689l-.976672-.9410856v-2.823257l.976672-.9410856h5.888766l-.976673 1.8821713h-3.93542v.9410856h4.88336v2.8232571l-1.953344 1.882171z"/><path d="m29.224049 4.4705285h-5.823416v7.5287405h5.823416v-1.882573h-3.870047v-.9410282h3.870047v-1.8820558h-3.870047v-.938444h3.85868l.0016-.00259h.0098z"/><path d="m50.755178 4.4705285h-5.823416v7.5287405h5.823416v-1.882573h-3.870047v-.9410282h3.870047v-1.8820558h-3.870047v-.938444h3.85868l.0016-.00259h.0098z"/></g></g></svg>