<svg height="148.68634" viewBox="0 0 78.870376 8.1777486" width="1434.0068" xmlns="http://www.w3.org/2000/svg" xmlns:xlink="http://www.w3.org/1999/xlink"><radialGradient id="a" cx="40.122665" cy="-1.253992" gradientTransform="matrix(1 0 0 .27340314 0 5.195088)" gradientUnits="userSpaceOnUse" r="39.110527"><stop offset="0" stop-color="#ffcf64"/><stop offset="1" stop-color="#d09236"/></radialGradient><g stroke-width=".661458" transform="translate(-.687494 -4.146477)"><path d="m1.84375 4.1132812-1.18945312 1.1464844v5.9511724l1.18945312 1.146484h6.3632812v-2.5976564h-4.8847656v-3.0488281h3.7675782l1.3476562-2.5976563zm7.7324219 0-1.1894531 1.1464844v5.9511724l1.1894531 1.146484h5.1718751l1.189453-1.146484v-5.9511724l-1.189453-1.1464844zm6.5507811 0v8.2441408h6.435547l1.285156-2.4765626v2.4765626h6.433594l1.294922-2.4960939v2.4960939h6.539062v-2.5976564h-3.871093v-.2265625h3.871093v-2.5976562h-3.871093v-.2226563h3.65039l.002-.00195h.21875v-2.5976594h-6.539109v5.6464844h-5.060547v-5.6464844h-2.667969v5.6464844h-5.052734v-5.6464844zm23.363281 0-1.189453 1.1464844v5.9511724l1.189453 1.146484h6.361328v-2.5976564h-4.882812v-3.0488281h3.765625l1.316406-2.5371094v2.5371094h2.44336v5.6464845h2.667968v-5.6464845h2.234375l.212891-.2128906v-2.3847657h-7.527344-.03125zm14.269532 0v8.2441408h2.667968v-8.2441408zm4.017578 0-1.189453 1.1464844v5.9511724l1.189453 1.146484h5.171875l1.189453-1.146484v-5.9511724l-1.189453-1.1464844zm6.566406 0v8.2441408h2.667969v-3.6015626l1.867187 3.6015626h3.015625v-8.2441408h-2.667969v3.5996094l-1.867187-3.5996094zm8.855469 0-1.189453 1.1464844v3.1269532l1.189453 1.1464843h3.695312v.2265625h-4.884765v2.5976564h5.386718l2.166016-2.087891v-3.3339841h-4.884766v-.2246094h3.794922l1.347656-2.5976563zm-62.144531 2.5976563h2.214843v3.0488281h-2.214843zm48.201171 0h2.214844v3.0488281h-2.214844z"/><g fill="url(#a)"><path d="m1.9888111 11.999056-.9766721-.941085v-5.6465143l.9766721-.9410857h5.8600326l-.9766721 1.8821714h-3.9066884v3.7643426h4.8833605v1.882171z"/><path d="m13.627186 10.116885v-3.7643427h-2.930017v3.7643427zm-3.906689 1.882171-.9766721-.941086v-5.6465134l.9766721-.9410856h4.88336l.976672.9410856v5.6465134l-.976672.941086z"/><path d="m16.484828 11.999056v-7.528685h1.953344v5.646514h4.88336l-.976671 1.882171z"/><path d="m24.204533 11.999056v-7.528685h1.953344v5.646514h4.883361l-.976673 1.882171z"/><path d="m39.634704 11.999056-.976672-.941086v-5.6465134l.976672-.9410856h5.860032l-.976671 1.8821713h-3.906688v3.7643427h4.883359v1.882171z"/><path d="m54.117937 11.999056v-7.528685h1.953345v7.528685z"/><path d="m64.701254 11.999056v-7.528685h2.44168l2.44168 4.7054282v-4.7054282h1.953344v7.528685h-2.44168l-2.441681-4.7054281v4.7054281z"/><path d="m61.827926 10.116885v-3.7643427h-2.930016v3.7643427zm-3.906688 1.882171-.976672-.941086v-5.6465134l.976672-.9410856h4.88336l.976673.9410856v5.6465134l-.976673.941086z"/><path d="m72.367755 11.999056v-1.882171h4.883361v-.9410858h-3.906689l-.976672-.9410856v-2.823257l.976672-.9410856h5.888766l-.976673 1.8821713h-3.93542v.9410856h4.88336v2.8232571l-1.953344 1.882171z"/><path d="m37.756867 4.4705285h-5.823416v7.5287405h5.823416v-1.882573h-3.870047v-.9410282h3.870047v-1.8820558h-3.870047v-.938444h3.85868l.0016-.00259h.0098z"/><path d="m53.251011 4.4705284h-6.841957v1.8820557h2.44171v5.6466849h1.953368v-5.6466849h2.443778l.0031-.0031z"/></g></g></svg>