<svg height="146.44951" viewBox="0 0 75.697268 8.2011725" width="1351.7369" xmlns="http://www.w3.org/2000/svg" xmlns:xlink="http://www.w3.org/1999/xlink"><linearGradient id="a"><stop offset="0" stop-color="#ffcf64"/><stop offset="1" stop-color="#d09236"/></linearGradient><radialGradient id="b" cx="38.516357" cy="-25.262703" gradientTransform="matrix(1 0 0 .28003846 0 11.938833)" gradientUnits="userSpaceOnUse" r="37.412594" xlink:href="#a"/><radialGradient id="c" cx="38.516357" cy="-25.262703" gradientTransform="matrix(1 0 0 .28003846 .112 11.938833)" gradientUnits="userSpaceOnUse" r="37.412594" xlink:href="#a"/><g stroke-width=".661458" transform="translate(-.767578 -4.134766)"><path d="m1.9042969 4.1347656-1.13671878 1.1367188v5.9121096l1.13671878 1.136718h6.109375v-2.5507808h-4.6953125v-3.0839843h3.6289062l1.2734375-2.5507813zm7.4355469 0-1.1367188 1.1367188v5.9121096l1.1367188 1.136718h4.9726562l1.136719-1.136718v-5.9121096l-1.136719-1.1367188zm6.2988282 0v8.1855464h6.177734l1.275391-2.5507808h-4.902344v-5.6347656zm7.492187 0v8.2011724h6.496094v-2.554688h-3.871094v-.2695312h3.871094v-2.5546876h-3.871094v-.265625h3.66211l.002-.00195h.207031v-2.5546906zm7.867188 0-1.136719 1.1367188v5.9121096l1.136719 1.136718h6.109375v-2.5507808h-4.697266v-3.0839843h3.628906l1.275391-2.5507813zm7.433594 0-1.136719 1.1367188v5.9121096l1.136719 1.136718h6.111328v-2.5507808h-4.697266v-3.0839843h3.628906l1.25586-2.5117188v8.1464839h2.550781v-8.1855464h-2.53125-.019531zm10.175781 0-1.136719 1.1367188v5.9121096l1.136719 1.136718h4.972656l1.136719-1.136718v-5.9121096l-1.136719-1.1367188zm6.296875 0v8.1855464h2.550781v-3.6093745l1.806641 3.6093745h2.890625v-8.1855464h-2.550782v3.6074219l-1.804687-3.6074219zm7.496094 0v8.2011724h6.496093v-2.554688h-3.86914v-.2695312h3.86914v-2.5546876h-3.86914v-.265625h3.660156l.002-.00195h.207031v-2.5546906zm7.867187 0-1.136719 1.1367188v3.09375l1.136719 1.1367187h3.558594v.2675781h-4.695313v2.5507808h5.169922l2.076172-2.076171v-3.291016h-4.697265v-.2675781h3.509765l1.275391-2.5507813zm-59.513672 2.5507813h2.146485v3.0839843h-2.146485zm39.265625 0h2.146485v3.0839843h-2.146485z"/><g fill="url(#b)"><g fill="url(#b)"><path d="m2.0430349 11.984531-.93927-.93927v-5.6356197l.93927-.9392701h5.6356201l-.93927 1.8785401h-3.7570801v3.7570797h4.6963501v1.87854z"/><path d="m13.235355 10.105991v-3.7570797h-2.81781v3.7570797zm-3.7570803 1.87854-.93927-.93927v-5.6356197l.93927-.9392701h4.6963503l.93927.9392701v5.6356197l-.93927.93927z"/><path d="m15.974244 11.984531v-7.5141598h1.878541v5.6356198h4.69635l-.93927 1.87854z"/><path d="m31.135763 11.984531-.93927-.93927v-5.6356197l.93927-.9392701h5.63562l-.93927 1.8785401h-3.75708v3.7570797h4.69635v1.87854z"/><path d="m38.571005 11.984531-.93927-.93927v-5.6356197l.93927-.9392701h5.63562l-.93927 1.8785401h-3.75708v3.7570797h4.69635v1.87854z"/><path d="m45.066973 11.984531v-7.5141598h1.87854v7.5141598z"/><path d="m52.502214 10.105991v-3.7570797h-2.81781v3.7570797zm-3.75708 1.87854-.93927-.93927v-5.6356197l.93927-.9392701h4.69635l.93927.9392701v5.6356197l-.93927.93927z"/><path d="m55.241102 11.984531v-7.5141598h2.348175l2.348175 4.6963501v-4.6963501h1.87854v7.5141598h-2.348175l-2.348175-4.6963497v4.6963497z"/></g><path d="m69.466059 11.984531v-1.87854h4.69635v-.9392697h-3.75708l-.93927-.93927v-2.81781l.93927-.9392701h5.516557l-.93927 1.8785401h-3.638017v.93927h4.69635v2.8178097l-1.87854 1.87854z" fill="url(#c)"/><path d="m29.290195 4.4705285h-5.823416v7.5287405h5.823416v-1.882573h-3.870047v-.9410282h3.870047v-1.8820558h-3.870047v-.938444h3.85868l.0016-.00259h.0098z" fill="url(#b)"/><path d="m68.560553 4.4705285h-5.823416v7.5287405h5.823416v-1.882573h-3.870047v-.9410282h3.870047v-1.8820558h-3.870047v-.938444h3.85868l.0016-.00259h.0098z" fill="url(#c)"/></g></g></svg>