<svg height="151.43953" viewBox="0 0 79.310549 8.1777345" width="1468.7139" xmlns="http://www.w3.org/2000/svg" xmlns:xlink="http://www.w3.org/1999/xlink"><linearGradient id="a"><stop offset="0" stop-color="#ffcf64"/><stop offset="1" stop-color="#d09236"/></linearGradient><radialGradient id="b" cx="40.16848" cy="-26.488041" gradientTransform="matrix(1 0 0 .27039749 0 12.051071)" gradientUnits="userSpaceOnUse" r="39.064713" xlink:href="#a"/><radialGradient id="c" cx="40.16848" cy="-26.488041" gradientTransform="matrix(1 0 0 .27039749 -.216 12.051071)" gradientUnits="userSpaceOnUse" r="39.064713" xlink:href="#a"/><radialGradient id="d" cx="40.16848" cy="-26.488041" gradientTransform="matrix(1 0 0 .27039749 -.54 12.051071)" gradientUnits="userSpaceOnUse" r="39.064713" xlink:href="#a"/><radialGradient id="e" cx="40.16848" cy="-26.488041" gradientTransform="matrix(1 0 0 .27039749 -.432 12.051071)" gradientUnits="userSpaceOnUse" r="39.064713" xlink:href="#a"/><g stroke-width=".661458" transform="translate(-.240234 -4.146484)"><path d="m1.3691406 4.1464844-1.12890622 1.1289062v5.9042974l1.12890622 1.128906h6.09375v-2.527344h-4.6972656v-3.1074219h3.6347656l1.2617188-2.5273437zm7.4335938 0-1.1289063 1.1289062v5.9042974l1.1289063 1.128906h4.9667966l1.128907-1.128906v-5.9042974l-1.128907-1.1289062zm6.3066406 0v8.1621096h6.162109l1.261719-2.527344h-4.896484v-5.6347656zm10.173828 0v8.1621096h6.162109l1.210938-2.4257815v2.4414065h6.472656v-2.5312502h-3.871094v-.2929688h3.871094v-2.53125h-3.871094v-.2890625h3.669922l.002-.00195h.199218v-2.53125h-6.472702v5.6347625h-4.845703v-5.6347656zm15.167969 0-1.126953 1.1289062v5.9042974l1.126953 1.128906h6.095703v-2.527344h-4.697266v-3.1074219h3.634766l1.261719-2.5273437zm7.435547 0-1.128907 1.1289062v5.9042974l1.128907 1.128906h6.095703v-2.527344h-4.697266v-3.1074219h3.634766l1.261719-2.5273437zm6.30664 0v8.1621096h2.527344v-8.1621096zm3.867188 0-1.126953 1.1289062v5.9042974l1.126953 1.128906h4.966797l1.128906-1.128906v-5.9042974l-1.128906-1.1289062zm6.306641 0v8.1621096h2.527343v-3.6464846l1.822266 3.6464846h2.875v-8.1621096h-2.527344v3.6464844l-1.822265-3.6464844zm8.630859 0-1.169922 1.1269531v3.0996094l1.169922 1.1269531h3.712891v.2929688h-4.882813v2.5312502h5.337891l2.146484-2.06836v-3.287109h-4.882812v-.2910156h3.808593l1.3125-2.53125zm-62.796875 2.5273437h2.169922v3.1074219h-2.169922zm49.257812 0h2.169922v3.1074219h-2.169922zm-36.902343.1933594v2.5273437h2.527343v-2.5273437z"/><g fill="url(#b)"><path d="m72.151755 11.999056v-1.882171h4.883361v-.9410858h-3.906689l-.976672-.9410856v-2.823257l.976672-.9410856h5.888766l-.976673 1.8821713h-3.93542v.9410856h4.88336v2.8232571l-1.953344 1.882171z" fill="url(#c)" stroke-width=".661458"/><path d="m38.804368 4.4705285h-5.823416v7.5287405h5.823416v-1.882573h-3.870047v-.9410282h3.870047v-1.8820558h-3.870047v-.938444h3.85868l.0016-.00259h.0098z" fill="url(#d)" stroke-width=".661458"/><path d="m1.5030349 11.984531-.93927-.93927v-5.6356197l.93927-.9392701h5.6356201l-.93927 1.8785401h-3.7570801v3.7570797h4.6963501v1.87854z" fill="url(#d)"/><path d="m12.695355 10.105991v-3.7570797h-2.81781v3.7570797zm-3.7570803 1.87854-.93927-.93927v-5.6356197l.93927-.9392701h4.6963503l.93927.9392701v5.6356197l-.93927.93927z" fill="url(#d)"/><path d="m15.434244 11.984531v-7.5141598h1.878541v5.6356198h4.69635l-.93927 1.87854z" fill="url(#d)"/><path d="m22.880317 9.0697566v-1.8785391h1.87854v1.8785391z" fill="url(#b)"/><path d="m25.608374 11.984531v-7.5141598h1.87854v5.6356198h4.69635l-.93927 1.87854z" fill="url(#d)"/><g fill="url(#e)"><path d="m40.586854 11.984531-.93927-.93927v-5.6356197l.93927-.9392701h5.63562l-.93927 1.8785401h-3.75708v3.7570797h4.69635v1.87854z"/><path d="m48.022095 11.984531-.93927-.93927v-5.6356197l.93927-.9392701h5.63562l-.93927 1.8785401h-3.75708v3.7570797h4.69635v1.87854z"/><path d="m54.518063 11.984531v-7.5141598h1.87854v7.5141598z"/><path d="m61.953305 10.105991v-3.7570797h-2.81781v3.7570797zm-3.75708 1.87854-.93927-.93927v-5.6356197l.93927-.9392701h4.69635l.93927.9392701v5.6356197l-.93927.93927z"/><path d="m64.692196 11.984531v-7.5141598h2.348175l2.348176 4.6963501v-4.6963501h1.87854v7.5141598h-2.348176l-2.348175-4.6963497v4.6963497z"/></g></g></g></svg>