<?xml version="1.0" encoding="UTF-8" standalone="no"?>
<!-- Generator: Adobe Illustrator 13.0.0, SVG Export Plug-In . SVG Version: 6.00 Build 14948)  -->

<svg
   version="1.2"
   id="Layer_1"
   x="0px"
   y="0px"
   width="566.93px"
   height="94.787px"
   viewBox="0 0 566.93 94.787"
   xml:space="preserve"
   sodipodi:docname="dreamcast.svg"
   inkscape:version="1.1.2 (0a00cf5339, 2022-02-04, custom)"
   xmlns:inkscape="http://www.inkscape.org/namespaces/inkscape"
   xmlns:sodipodi="http://sodipodi.sourceforge.net/DTD/sodipodi-0.dtd"
   xmlns="http://www.w3.org/2000/svg"
   xmlns:svg="http://www.w3.org/2000/svg"
   xmlns:rdf="http://www.w3.org/1999/02/22-rdf-syntax-ns#"
   xmlns:cc="http://creativecommons.org/ns#"
   xmlns:dc="http://purl.org/dc/elements/1.1/"><metadata
   id="metadata31"><rdf:RDF><cc:Work
       rdf:about=""><dc:format>image/svg+xml</dc:format><dc:type
         rdf:resource="http://purl.org/dc/dcmitype/StillImage" /></cc:Work></rdf:RDF></metadata><defs
   id="defs29" /><sodipodi:namedview
   pagecolor="#ffffff"
   bordercolor="#666666"
   borderopacity="1"
   objecttolerance="10"
   gridtolerance="10"
   guidetolerance="10"
   inkscape:pageopacity="0"
   inkscape:pageshadow="2"
   inkscape:window-width="1366"
   inkscape:window-height="703"
   id="namedview27"
   showgrid="false"
   inkscape:zoom="5.037659"
   inkscape:cx="574.87019"
   inkscape:cy="82.875796"
   inkscape:current-layer="g22"
   inkscape:pagecheckerboard="1"
   inkscape:window-x="0"
   inkscape:window-y="0"
   inkscape:window-maximized="1" />
<g
   id="g22">
	
	
	<path
   fill="#666666"
   d="m 122.813,19.344 c 0,-2.409 -0.458,-5.529 -1.522,-6.841 6.973,0 22.039,0.046 28.497,0.046 14.859,0 37.277,8.247 37.277,36.052 0,20.635 -15.826,36.008 -37.277,36.008 -4.705,0 -22.67,-0.058 -29.044,-0.058 1.306,-2.411 2.069,-5.685 2.069,-8.269 z M 133.5,77.543 c 6.858,0.892 13.189,1.165 18.917,0.347 5.542,-0.793 24.165,-4.805 24.049,-29.529 -0.109,-23.431 -14.581,-28.788 -25.731,-29.443 -5.819,-0.343 -11.436,-0.123 -17.236,0.881 z"
   id="path6" />
	<path
   fill="#666666"
   d="m 193.187,34.642 10.676,-1.667 c 0,2.186 0,8.596 0,9.4 2.738,-6.767 11.259,-12.205 23.366,-7.493 l -2.838,7.433 c -11.082,-5.26 -20.528,-0.646 -20.528,11.661 V 79.37 c 0,1.209 0.264,3.648 0.985,5.213 h -11.089 c 1.12,-1.381 1.64,-4.004 1.64,-5.213 V 42.74 c -0.003,-2.657 -0.545,-6.77 -2.212,-8.098 z"
   id="path8" />
	<path
   fill="#666666"
   d="m 530.719,39.738 c 0,0.693 0,30.229 0,32.434 0,10.183 7.019,12.905 12.219,12.905 2.197,0.107 5.313,-0.406 7.488,-0.889 l 1.338,-6.285 c -2.535,0.97 -5.481,1.197 -7.25,1.197 -3.26,0 -5.617,-2.164 -5.617,-5.549 0,-3.037 -0.077,-32.809 0,-33.761 h -0.034 c 0.432,0 7.196,-0.024 7.879,0 2.217,0.078 3.92,0.213 5.387,0.803 l 0.008,-5.919 c 0,0 -12.985,-0.017 -13.239,-0.017 l 0.053,-15.181 -9.838,2.719 c 1.356,1.269 1.797,4.982 1.797,7.431 0,0 -0.008,4.536 -0.008,5.083 -0.441,0 -5.438,0.025 -6.265,0.025 v 5.001 c 0.873,0 6.082,0.003 6.082,0.003 z"
   id="path10" />
	<path
   fill="#666666"
   d="m 488.193,74.036 c 4.229,3.021 10.866,5.703 15.733,5.703 6.752,0 11.588,-3.285 11.588,-9.469 0,-11.414 -26.022,-9.522 -26.022,-24.004 0,-9.792 8.756,-13.476 17.1,-13.476 2.683,0 8.806,0.582 12.697,2.088 l -0.031,6.688 c -3.459,-2.955 -8.735,-3.669 -12.213,-3.669 -5.521,0 -9.668,2.74 -9.668,8.112 0,7.887 26.002,7.43 26.002,23.621 0,10.471 -9.07,15.354 -19.055,15.354 -4.865,0 -9.939,-0.862 -14.16,-2.071 z"
   id="path12" />
	<path
   fill="#666666"
   d="m 331.107,39.839 c 0,-0.592 0.021,-5.895 0.021,-6.574 l -10.809,1.671 c 1.303,1.365 2.303,5.623 2.303,8.667 v 35.414 c 0,1.209 -0.519,4.143 -1.641,5.521 h 11.784 c -1.118,-1.381 -1.637,-4.313 -1.637,-5.521 V 52.372 c 0,-9.75 6.031,-13.164 12.035,-13.164 5.434,0 10.344,2.352 10.344,13.164 v 26.646 c 0,1.209 -0.52,4.142 -1.637,5.521 h 11.428 c -1.123,-1.381 -1.637,-4.313 -1.637,-5.521 V 52.372 c 0,-10.811 6.678,-13.164 12.123,-13.164 5.43,0 11.111,3.411 11.111,13.164 v 26.646 c 0,1.209 -0.515,4.142 -1.642,5.521 h 11.008 c -1.127,-1.381 -1.639,-4.313 -1.639,-5.521 V 47.312 c 0,-5.404 -5.516,-14.063 -18.391,-14.063 -7.492,0 -11.818,3.333 -15.103,6.2 -2.793,-3.26 -7.34,-6.317 -14.647,-6.317 -7.116,-0.003 -11.319,4.17 -13.374,6.707 z"
   id="path14" />
	<path
   fill="#666666"
   d="m 305.621,56.453 c -1.543,1.453 -4.773,2.579 -8.107,3.019 -8.762,1.147 -16.352,2.604 -16.352,11.137 0,5.063 5.52,9.048 9.891,9.048 11.578,0 14.57,-8.353 14.57,-14.935 V 56.453 Z M 278.269,35.57 c 4.419,-1.771 11.549,-2.583 16.021,-2.583 11.42,0 19.008,5.705 19.008,18.95 v 21.972 c 0,4.069 0.062,7.924 1.512,10.631 h -9.178 L 305.3,78.76 c -3.473,4.487 -7.627,6.495 -14.676,6.495 -13.91,0 -16.946,-9.503 -16.946,-14.069 0,-16.297 15.512,-16.485 22.249,-17.447 3.728,-0.526 8.521,-1.58 9.244,-5.074 1.188,-5.78 -2.942,-10.114 -11.385,-10.114 -6.197,0 -11.273,1.885 -15.514,4.422 z m 197.303,20.883 c -1.541,1.453 -4.773,2.579 -8.109,3.019 -8.76,1.147 -16.348,2.604 -16.348,11.137 0,5.063 5.516,9.048 9.887,9.048 11.576,0 14.57,-8.353 14.57,-14.935 z M 448.223,35.57 c 4.418,-1.771 11.556,-2.583 16.023,-2.583 11.414,0 19.002,5.705 19.002,18.95 v 21.972 c 0,4.069 -0.887,7.841 1.508,10.631 h -9.176 l -0.334,-5.78 c -3.478,4.487 -7.625,6.495 -14.674,6.495 -13.902,0 -16.943,-9.503 -16.943,-14.069 0,-16.297 15.512,-16.485 22.246,-17.447 3.729,-0.526 8.527,-1.58 9.242,-5.074 1.19,-5.78 -2.941,-10.114 -11.385,-10.114 -6.195,0 -11.271,1.885 -15.513,4.422 v -7.4 z"
   id="path16" />
	<path
   fill="#666666"
   d="m 438.451,42.308 c -3.443,-2.012 -8.879,-3.605 -12.67,-3.605 -13.312,0 -19.412,8.185 -19.412,19.976 0,11.68 5.965,20.625 18.983,20.625 4.462,0 10.535,-2.006 15.25,-4.902 l -1.918,8.593 c -4.799,1.428 -8.842,2.108 -14.194,2.108 -18.295,0 -26.871,-12.977 -26.871,-26.479 0,-14.921 11.504,-25.417 27.072,-25.417 6.805,0 11.771,1.668 13.776,2.238 z"
   id="path18" />
	<path
   fill="#666666"
   d="m 233.646,59.304 c 0.008,-1.234 0.172,-2.41 0.31,-3.55 h 35.401 c 0,-12.169 -6.087,-22.608 -20.505,-22.608 -14.965,0 -23.85,11.703 -23.85,26.63 0,13.498 9.891,25.56 26.832,25.56 5.356,0 9.834,-1.319 14.669,-3.012 l 1.701,-8.63 c -4.135,3.404 -10.817,5.418 -16.849,5.418 -10.841,0 -17.756,-7.849 -17.709,-19.808 z m 1.431,-8.948 c 1.149,-5.92 6.628,-11.952 13.184,-11.952 10.018,0 12.917,7.817 12.917,11.952 -0.002,0 -26.101,0.019 -26.101,0 z"
   id="path20" />
</g>
<path
   fill="#CF3311"
   d="m 65.058,1.288 c 3.969,0.596 8.026,1.984 10.141,2.63 4.261,1.302 11.177,5.351 13.621,7.291 1.157,0.918 3.585,3.323 4.528,4.533 0.917,1.179 2.667,3.733 3.783,5.308 1.781,2.597 3.874,6.466 5.648,10.025 1.984,3.978 2.12,5.13 2.721,8.455 l 1.311,5.862 c 0.123,1.014 0.227,4.731 -1.957,5.251 -2.181,0.521 -4.199,-0.483 -5.15,-1.955 C 98.388,46.652 98.571,43.762 97.081,40.454 95.92,37.78 95.415,33.893 93.56,31.099 L 92.107,28.641 C 89.534,24.681 86.854,21.538 85.256,19.488 83.845,17.765 81.216,15.424 78.725,13.759 76.419,12.361 72.693,10.766 70.006,9.946 69.15,9.667 65.482,8.589 63.206,8.286 60.113,7.939 58.08,7.45 55.143,7.243 51.513,6.987 49.776,6.665 45.069,7.215 c -1.783,0.484 -4.605,0.676 -7.147,1.647 -2.053,0.837 -4.906,2.189 -7.703,3.832 -3.012,1.651 -7.578,5.026 -10.609,7.907 -3.054,3.263 -4.582,5.014 -6.687,9.15 -0.931,2.046 -2.736,5.213 -3.464,7.447 -0.497,2.269 -1.443,6.5 -1.286,8.556 0.073,3.681 -0.25,4.44 0.027,7.45 0.01,2.71 0.899,4.588 1.27,6.806 0.315,1.53 1.787,6.828 2.694,8.062 4.129,8.9 9.675,12.755 15.856,15.537 1.742,0.888 7.191,2.346 8.767,2.763 2.69,0.485 6.227,0.81 9.633,0.875 3.583,0.069 8.522,-0.414 11.517,-1.519 3.244,-1.193 6.997,-2.891 6.953,-2.84 1.504,-0.832 3.802,-2.187 4.516,-2.781 1.383,-0.885 2.217,-1.228 3.034,-2.08 1.184,-1.033 1.898,-1.629 2.794,-2.91 0.497,-0.721 1.292,-1.827 2.059,-2.805 0.83,-1.36 1.307,-2.793 2.116,-4.564 0.968,-2.623 0.818,-2.496 1.003,-5.277 0.175,-0.807 -0.02,-3.519 -0.164,-3.979 C 79.811,55.99 79.965,53.783 79.392,51.353 78.621,48.066 77.975,45.606 76.99,42.454 76.061,38.905 73.334,35.616 71.288,33.266 70.02,31.809 66.087,28.371 60.63,26.223 59.092,25.706 56.58,25.12 54.983,24.828 c -3.41,-0.356 -3.965,-0.127 -7.229,0.111 -1.124,0.196 -3.731,0.729 -4.692,1.066 -2.804,0.985 -3.835,1.611 -6.702,3.366 -1.334,0.775 -2.34,1.368 -3.705,2.646 -1.089,1.008 -1.868,2.72 -2.748,3.725 -1.209,1.644 -2.554,3.836 -3.456,6.201 -0.978,2.353 -1.293,5.664 -1.143,7.795 0,1.621 0.441,4.598 0.616,5.246 0.176,0.65 0.616,2.67 0.71,3.076 0.097,0.405 1.145,2.541 1.292,2.853 0.593,1.261 1.726,3.069 3.633,4.919 1.411,1.54 4.133,3.05 6.174,3.635 1.828,1.006 4.912,1.174 6.62,1.178 0.839,-0.053 2.984,-0.184 4.103,-0.451 2.271,-0.545 2.688,-0.56 5.028,-1.575 2.1,-0.974 3.523,-1.325 4.986,-2.403 0,0 2.007,-1.572 2.919,-2.724 0.481,-0.604 1.306,-3.5 1.161,-5.293 -0.069,-2.453 0.289,-3.845 -0.214,-5.863 -0.5,-2.019 -1.354,-4.358 -2.281,-5.8 -0.939,-1.46 -2.956,-2.882 -5.251,-4.017 -1.288,-0.636 -4.333,-1.224 -5.627,-1.376 -2.453,-0.292 -4.506,0.823 -5.753,2.097 -1.082,1.236 -3.22,3.803 -2.369,6.457 0.771,2.4 1.703,4.959 5.304,4.77 2.473,0.516 5.33,-0.229 6.283,0.207 1.413,0.803 1.955,2.573 1.443,3.811 -0.359,2.383 -2.643,2.668 -5.076,2.852 -2.18,0.365 -7.715,-0.702 -8.93,-1.613 -0.816,-0.484 -2.067,-1.647 -2.946,-2.435 -0.633,-0.568 -1.346,-1.828 -1.837,-2.734 -0.598,-1.114 -0.903,-1.933 -1.057,-2.657 -0.185,-0.86 -0.562,-2.506 -0.419,-4.149 0.099,-1.108 0.394,-1.582 0.688,-3.203 0.589,-1.84 1.32,-3.239 2.498,-4.834 1.532,-1.556 3.479,-3.408 5.38,-4.269 1.676,-0.886 4.613,-1.211 7.268,-1.056 2.156,0.206 4.702,0.469 6.389,1.033 2.884,1.03 3.708,1.236 6.077,2.73 1.999,1.237 4.012,3.516 5.136,5.402 2.39,4.89 3.76,10.328 2.764,17.653 -0.081,1.236 -0.466,2.443 -1.237,4.084 -0.714,1.511 -1.96,3.35 -3.838,4.732 -0.754,0.699 -1.946,1.561 -2.915,2.063 -1.375,0.834 -2.299,1.269 -3.733,1.989 -1.26,0.594 -2.73,1.27 -4.646,1.802 -2.076,0.821 -3.67,0.854 -6.281,1.243 -2.568,0.646 -9.602,0.187 -13.792,-1.662 -2.857,-1.203 -6.064,-3.321 -8.505,-5.904 -1.354,-1.422 -2.681,-3.996 -3.069,-4.523 -1.94,-3.729 -2.319,-7.233 -2.631,-7.973 -0.422,-1 -0.631,-3.244 -0.916,-4.779 -0.319,-1.724 -0.122,-8.941 1.617,-13.573 0.981,-1.845 1.555,-3.49 2.217,-4.353 1.193,-1.696 1.769,-2.755 2.782,-3.957 1.528,-1.852 2.64,-3.364 4.127,-4.431 3.793,-3.083 6.959,-4.711 11.245,-6.746 5.324,-2.168 6.923,-1.72 11.964,-1.639 2.267,0.02 5.566,0.733 7.189,1.027 3.012,0.401 4.738,1.127 6.773,1.695 2.178,0.608 3.436,1.58 5.226,2.659 1.47,0.949 3.202,2.251 4.345,3.308 2.927,2.146 4.337,4.401 6.131,7.171 0.327,0.464 2.455,5.002 2.794,6.266 0.158,0.633 0.638,2.449 0.949,3.511 0.396,1.685 0.591,3.176 1.036,5.078 0.396,1.957 1.072,5.652 1.364,9.107 0.495,2.965 -0.296,9.016 -0.76,10.871 -1.035,3.463 -2.85,7.69 -6.428,11.762 -1.519,1.804 -3.135,3.199 -5.003,4.717 -1.427,1.189 -2.653,1.886 -4.861,3.202 -2.996,1.788 -5.276,2.931 -9.477,4.573 -1.71,0.549 -3.866,1.271 -6.188,1.75 C 51,94.683 46.376,95.08 41.33,94.481 36.283,93.879 31.228,92.458 28.241,91.542 26.592,90.924 23.4,89.587 22.063,88.862 21.191,88.422 18.27,86.424 17.775,85.944 15.775,84.707 11.296,80.495 8.404,76.569 7.771,75.352 5.493,71.715 4.998,70.121 3.685,67.424 2.769,64.161 2.232,62.767 1.664,59.513 0.704,57.419 0.33,54.156 0.372,53.388 0.176,51.579 0,50.578 c 0.254,-2.235 -0.086,-4.339 0.358,-6.773 0.39,-2.053 0.904,-2.91 1.028,-4.766 0.121,-0.794 1.141,-3.182 1.415,-4.245 0.826,-1.75 1.03,-3.191 2.107,-5.147 1.549,-3.048 3.172,-6.554 5.662,-9.617 0.712,-0.95 2.729,-3.228 3.416,-4.017 1.625,-1.625 2.578,-1.881 4.421,-3.51 0.19,-0.12 1.409,-1.508 2.685,-1.985 2.111,-1.632 3.937,-2.23 5.948,-3.715 4.029,-2.008 5.497,-2.686 9.497,-4.351 2.313,-0.825 5.534,-1.28 6.694,-1.73 2.209,-0.137 4.451,-0.841 6.773,-0.702 2.607,-0.024 5.234,0.162 7.855,0.4 1.766,0.102 4.072,0.188 7.199,0.868 z"
   id="path24"
   style="display:inline;fill:#4365a2;fill-opacity:0.941176" />
</svg>
