<svg height="41.556648mm" viewBox="0 0 68.952814 41.556648" width="68.952812mm" xmlns="http://www.w3.org/2000/svg"><g transform="translate(-73.560003 -138.40438)"><g fill="#fff" fill-opacity=".5" stroke-width=".661458"><path d="m126.48521 162.88211q0 .0635-.0153.10689-.0228.0646-.073.0646-.0333 0-.0699-.0154-.0439-.0185-.0482-.0455.0148 0 .0349.005.0466.0122.0582.0122.045 0 .0677-.045.018-.036.018-.0863 0-.0354-.0233-.10107-.0228-.0661-.0228-.0921 0-.008.004-.0127.005-.005.0127-.005.0206 0 .0402.0952.0164.0804.0164.11906z"/><path d="m126.68894 162.93608q0 .054-.0312.0847-.0312.0307-.0863.0307-.0302 0-.0466-.0143-.0164-.0143-.0164-.0439 0-.0418.0545-.0841.0519-.0402.0958-.0402.0201 0 .0265.0249.004.0143.004.0423zm-.0323.0148q0-.006-.002-.0122-.001-.006-.004-.0143-.008.006-.0281.0286-.01.0116-.0175.0169 0-.0101.002-.0164.004-.009.007-.0154-.0233 0-.0487.0196-.0249.0196-.0249.0423 0 .0153.0169.0153.0323 0 .0624-.0159.0365-.0191.0365-.0487z"/><path d="m126.90695 162.95778q0 .0259-.0196.0582-.0222.0365-.046.0365-.007 0-.0117-.007-.004-.008-.004-.0153 0-.01.0201-.0296.0206-.0206.0206-.028 0-.005-.002-.01-.002-.005-.002-.006-.0397.009-.081.0455-.0408.0365-.0619.0413-.004-.0117-.004-.0238 0-.0148.007-.0312.005-.0116.0159-.028.0185-.0281.0392-.0635.0106-.0185.0365-.064.0265-.0455.0386-.0646.006-.01.0111-.0143.007-.006.0164-.008.006.002.009.008.003.006.003.0138 0 .018-.0233.0487-.0423.055-.0434.0572-.0238.036-.0238.0651l.001.005q.0291-.0143.0344-.0164.0217-.009.037-.009.0169 0 .0249.0116.008.0111.008.0286z"/><path d="m127.15249 162.92656q0 .036-.0175.0767-.019.045-.0471.0619-.006-.007-.0101-.0154-.004-.008-.004-.0169 0-.009.0265-.0534.0116-.0196.0106-.0344l-.00053-.007q-.0196.006-.0677.0354-.0476.0291-.0963.0593-.007 0-.0138-.005-.006-.006-.006-.0127 0-.0111.0355-.0746.0106-.0191.0381-.0662.008.0111.0111.0249.003.0132.003.0317 0 .008 0 .0122.0487-.0291.0762-.0439.0302-.0164.0413-.0164.007 0 .0138.0169.007.0169.007.027z"/><path d="m127.61233 163.02922q0 .01-.008.0148-.008.005-.018.005-.009 0-.0228-.002-.0312-.005-.0402-.005-.0159 0-.0624.004-.0265.002-.0381.002-.0323 0-.0323-.0323 0-.0307.0201-.0878.0111-.0323.0418-.10584.0275-.0661.0349-.0931.003-.008.004-.0111.004-.006.0106-.006.0101 0 .0169.0148.007.0143.007.0259 0 .0185-.0217.0625-.0217.0434-.0423.0852-.0227.0497-.0227.0757 0 .0132.0111.0185.008.004.0233.004.0116 0 .0402-.003.0286-.003.0381-.003.0238 0 .0392.007.0217.01.0217.0307z"/><path d="m127.80918 162.93608q0 .054-.0312.0847-.0312.0307-.0862.0307-.0302 0-.0466-.0143-.0164-.0143-.0164-.0439 0-.0418.0545-.0841.0519-.0402.0958-.0402.0201 0 .0265.0249.004.0143.004.0423zm-.0323.0148q0-.006-.002-.0122-.001-.006-.004-.0143-.008.006-.028.0286-.0101.0116-.0175.0169 0-.0101.002-.0164.004-.009.007-.0154-.0233 0-.0487.0196-.0249.0196-.0249.0423 0 .0153.0169.0153.0323 0 .0624-.0159.0365-.0191.0365-.0487z"/><path d="m128.03196 162.92497q0 .0169-.009.036-.008.019-.0217.0318l-.00053-.007q0-.006.002-.0196.002-.0132.002-.0196 0-.009-.003-.0132-.003-.005-.0111-.005-.0249 0-.0619.0386-.0402.0423-.0799.0841-.003 0-.006-.00053-.008-.002-.0106-.003.002-.019.0132-.0423.0312-.063.0323-.0672.004-.0169.006-.0249.002-.008.006-.0164.004-.009.01-.0159.006-.007.0148-.0111l.005.0635q.0228-.0185.0349-.0286.0233-.0185.0402-.0185.0169 0 .0275.0111.0106.0111.0106.0275z"/><path d="m128.29178 162.86359q0 .0222-.0593.0587-.0572.0349-.0831.0349-.0122 0-.0164-.008-.004-.008-.004-.0238 0-.0101 0-.0143.0354 0 .0646-.0106.0291-.0106.0508-.0349-.0159-.006-.0323-.006-.0386 0-.082.0296-.0476.0323-.0476.0688 0 .0349.0476.0487.007.002.0894.0148.0481.007.0481.0259 0 .008-.0175.0127-.0175.005-.0444.005-.0677 0-.10689-.0206-.0519-.0275-.0519-.0884 0-.0635.0635-.10107.054-.0317.12277-.0317.0206 0 .0376.01.0206.0116.0206.0307z"/><path d="m128.50239 162.76887q0 .0116-.028.0487-.028.037-.028.0566 0 .0101.0116.0201.0265.0233.0265.0286 0 .007-.005.0132-.004.006-.0111.006-.006 0-.0164-.006-.007-.004-.0286-.0206-.008.0153-.0122.0233-.0148.0281-.0201.0408-.008.0243-.0159.0487-.0138.0328-.0344.0328l-.00053-.0122q0-.0376.0243-.0889.005-.01.0265-.0492-.0418-.0228-.0921-.0228 0-.0196.008-.0286.008-.01.0281-.01.018 0 .045.006.0132.003.0265.006.0101-.003.0275-.0344.0429-.0751.0582-.0862.004.007.007.0138.003.007.003.0132z"/><path d="m128.69766 162.95778q0 .0259-.0196.0582-.0222.0365-.046.0365-.007 0-.0116-.007-.004-.008-.004-.0153 0-.01.0201-.0296.0206-.0206.0206-.028 0-.005-.002-.01-.002-.005-.002-.006-.0397.009-.081.0455-.0407.0365-.0619.0413-.004-.0117-.004-.0238 0-.0148.007-.0312.005-.0116.0159-.028.0185-.0281.0392-.0635.0106-.0185.0365-.064.0265-.0455.0386-.0646.006-.01.0111-.0143.007-.006.0164-.008.006.002.009.008.003.006.003.0138 0 .018-.0233.0487-.0423.055-.0434.0572-.0238.036-.0238.0651l.001.005q.0291-.0143.0344-.0164.0217-.009.037-.009.0169 0 .0249.0116.008.0111.008.0286z"/><path d="m129.1321 162.78527q0 .0249-.0265.0667-.0169.0265-.0556.0762-.0386.0492-.0482.0646.002.00053.0397.0127.0386.0117.0386.0423-.0159.003-.0312.005l-.006-.00053v-.004q-.008-.002-.0138-.002-.0101 0-.0317.003-.0217.003-.0328.003-.0143 0-.0233-.005-.009-.005-.009-.0191 0-.0111.0407-.063.0762-.0968.0767-.0979.0413-.0561.0413-.0751 0-.007-.005-.0111-.005-.004-.0196-.004-.0101 0-.0418.0196-.0153.01-.0249.01l-.009-.002q-.003-.002-.007-.008-.004-.006-.004-.0101 0-.0222.0429-.0408.0365-.0159.0635-.0159.0228 0 .0349.0169.0106.0148.0106.0386z"/><path d="m129.45013 162.88052q0 .064-.0693.11324-.0635.045-.1307.045-.0333 0-.0529-.0169-.0196-.0169-.0196-.0492 0-.072.063-.12489.0598-.0503.13388-.0503.0376 0 .0566.0222.019.0222.019.0608zm-.0323.0122q0-.0243-.0275-.0365-.0206-.009-.0492-.009-.0418 0-.0873.0408-.0455.0408-.0455.082 0 .0169.008.0243.009.007.027.007.0519 0 .10795-.0286.0661-.0339.0661-.0799z"/><path d="m129.69249 162.78527q0 .0249-.0265.0667-.0169.0265-.0556.0762-.0386.0492-.0481.0646.002.00053.0397.0127.0386.0117.0386.0423-.0159.003-.0312.005l-.006-.00053v-.004q-.008-.002-.0138-.002-.0101 0-.0318.003-.0217.003-.0328.003-.0143 0-.0233-.005-.009-.005-.009-.0191 0-.0111.0408-.063.0762-.0968.0767-.0979.0413-.0561.0413-.0751 0-.007-.005-.0111-.005-.004-.0196-.004-.0101 0-.0418.0196-.0154.01-.0249.01l-.009-.002q-.003-.002-.007-.008-.004-.006-.004-.0101 0-.0222.0429-.0408.0365-.0159.0635-.0159.0228 0 .0349.0169.0106.0148.0106.0386z"/><path d="m129.93591 162.78527q0 .0249-.0265.0667-.0169.0265-.0556.0762-.0386.0492-.0482.0646.002.00053.0397.0127.0386.0117.0386.0423-.0159.003-.0312.005l-.006-.00053v-.004q-.008-.002-.0138-.002-.0101 0-.0317.003-.0217.003-.0328.003-.0143 0-.0233-.005-.009-.005-.009-.0191 0-.0111.0408-.063.0762-.0968.0767-.0979.0413-.0561.0413-.0751 0-.007-.005-.0111-.005-.004-.0196-.004-.0101 0-.0418.0196-.0153.01-.0249.01l-.009-.002q-.003-.002-.007-.008-.004-.006-.004-.0101 0-.0222.0429-.0408.0365-.0159.0635-.0159.0228 0 .0349.0169.0106.0148.0106.0386z"/></g><g fill="#0000c0" stroke="#fff" stroke-width=".79375"><path d="m138.63627 161.33547 2.58062-1.74422h-2.58062l-2.58064 1.74422v15.69801l2.58064-1.74422v-10.0293l2.58062-1.74421h-2.58062c0-.72676 0-1.45352 0-2.18028z"/><path d="m134.13709 161.77153-2.58064 1.74422v15.69801l2.58064-1.74422c0-5.23267 0-10.46534 0-15.69801z"/><path d="m123.61644 163.51575v11.77351h6.02146v-11.77351zm3.69537 9.68634h-1.3894v-7.59917h1.3894z"/><path d="m87.395213 175.0838v-13.51595h-3.020352l-2.013568-2.01394h5.03392v-2.01399h-7.047494l-2.319985-2.32045h9.367479v-1.99209h-11.359162l-2.079229-2.07964h13.438391v-9.25313l8.485674 8.48695v10.20466l4.737723 5.26815v-23.79138l3.7903-3.26175 3.59327 3.06473v24.20791l4.78461-5.31505v-10.37111l8.4607-8.46197v9.22199h13.60323l-2.07923 2.07964h-11.524v1.99209h9.5323l-2.31996 2.32045h-7.21234v2.01399h5.19877l-2.01359 2.01394h-3.18518v13.44218l-8.43927-8.28223-4.80604 4.27796v4.27227l-3.62847 3.47059-3.7551-3.61852v-4.27231l-4.694897-4.16678c-2.490171 2.49044-6.038196 5.90249-8.5285 8.39279z" opacity=".98" stroke-linejoin="round"/><path d="m82.104537 170.44063h-1.2705v7.623h1.2705v2.32925h-3.8115v-12.2815h3.8115z" transform="scale(1.028572 .97222168)"/><path d="m76.445419 168.11138v2.32925h-1.2705v2.75275h1.2705v2.32925h-1.2705v2.541h1.2705v2.32925h-3.8115v-12.2815z" transform="scale(1.028572 .97222168)"/></g></g></svg>