<?xml version="1.0" encoding="UTF-8"?>
<!DOCTYPE svg PUBLIC "-//W3C//DTD SVG 1.1//EN" "http://www.w3.org/Graphics/SVG/1.1/DTD/svg11.dtd">
<svg xmlns="http://www.w3.org/2000/svg" version="1.1" width="638px" height="215px" style="shape-rendering:geometricPrecision; text-rendering:geometricPrecision; image-rendering:optimizeQuality; fill-rule:evenodd; clip-rule:evenodd" xmlns:xlink="http://www.w3.org/1999/xlink">
<g><path style="opacity:1" fill="#f7f7f7" d="M 356.5,29.5 C 382.663,30.3322 408.997,30.8322 435.5,31C 432.833,32.3333 430.167,33.6667 427.5,35C 427.833,35.3333 428.167,35.6667 428.5,36C 405.5,36.3333 382.5,36.6667 359.5,37C 357.697,39.1025 355.364,39.9358 352.5,39.5C 352.784,37.5853 352.451,35.9187 351.5,34.5C 351.5,27.1667 351.5,19.8333 351.5,12.5C 349.901,12.2322 348.568,12.5655 347.5,13.5C 345.784,13.6287 344.117,13.962 342.5,14.5C 338.486,14.3345 334.486,14.5012 330.5,15C 328.347,15.0995 326.681,15.9328 325.5,17.5C 323.067,17.2729 321.401,18.2729 320.5,20.5C 317.577,21.1634 316.91,22.8301 318.5,25.5C 321.087,26.0541 323.42,27.0541 325.5,28.5C 325.5,33.5 325.5,38.5 325.5,43.5C 323.856,43.7135 322.356,43.3802 321,42.5C 320.501,38.8484 320.335,35.1817 320.5,31.5C 319.209,31.2627 318.209,31.596 317.5,32.5C 316.508,32.3284 315.842,32.6618 315.5,33.5C 314.833,33.5 314.167,33.5 313.5,33.5C 312.206,31.9522 311.539,29.9522 311.5,27.5C 311.779,23.8201 312.112,20.1535 312.5,16.5C 313.906,16.0269 314.573,15.0269 314.5,13.5C 314.973,12.0937 315.973,11.427 317.5,11.5C 320.397,10.871 323.064,9.87096 325.5,8.5C 325.833,8.5 326.167,8.5 326.5,8.5C 333.169,7.49965 339.836,6.49965 346.5,5.5C 349.482,5.03714 352.482,4.70381 355.5,4.5C 355.174,13.0168 355.507,21.3501 356.5,29.5 Z"/></g>
<g><path style="opacity:1" fill="#c0bfc0" d="M 353.5,3.5 C 354.5,3.5 355.5,3.5 356.5,3.5C 356.5,12.1667 356.5,20.8333 356.5,29.5C 355.507,21.3501 355.174,13.0168 355.5,4.5C 352.482,4.70381 349.482,5.03714 346.5,5.5C 346.5,5.16667 346.5,4.83333 346.5,4.5C 348.764,3.78138 351.097,3.44805 353.5,3.5 Z"/></g>
<g><path style="opacity:0.71" fill="#121110" d="M 452.5,26.5 C 452.5,27.8333 451.833,28.5 450.5,28.5C 419.5,28.5 388.5,28.5 357.5,28.5C 357.5,19.8333 357.5,11.1667 357.5,2.5C 355.901,2.23219 354.568,2.56552 353.5,3.5C 351.097,3.44805 348.764,3.78138 346.5,4.5C 340.166,5.25017 333.833,6.0835 327.5,7C 326.944,7.38258 326.611,7.88258 326.5,8.5C 326.167,8.5 325.833,8.5 325.5,8.5C 322.284,8.3455 319.617,9.3455 317.5,11.5C 315.973,11.427 314.973,12.0937 314.5,13.5C 313.094,13.9731 312.427,14.9731 312.5,16.5C 311.076,18.5145 310.41,20.8478 310.5,23.5C 309.698,24.9516 309.198,26.6183 309,28.5C 308.802,26.6183 308.302,24.9516 307.5,23.5C 307.692,17.8675 305.359,13.8675 300.5,11.5C 296.157,9.3153 291.491,7.8153 286.5,7C 278.473,5.93968 270.473,4.77301 262.5,3.5C 261.791,2.59603 260.791,2.26269 259.5,2.5C 259.5,11.1667 259.5,19.8333 259.5,28.5C 217.833,28.5 176.167,28.5 134.5,28.5C 134.263,29.791 134.596,30.791 135.5,31.5C 135.833,31.5 136.167,31.5 136.5,31.5C 137.3,33.5735 138.633,35.2402 140.5,36.5C 143.833,40.1667 147.167,43.8333 150.5,47.5C 150.167,47.5 149.833,47.5 149.5,47.5C 143.589,42.0911 137.755,36.4245 132,30.5C 131.493,29.0039 131.993,27.8373 133.5,27C 175.165,26.5 216.832,26.3333 258.5,26.5C 258.5,17.8333 258.5,9.16667 258.5,0.5C 272.595,2.41893 286.595,4.91893 300.5,8C 305.266,10.4294 308.1,14.2627 309,19.5C 310.523,13.2986 314.356,9.13194 320.5,7C 333.058,4.22962 345.725,2.06295 358.5,0.5C 358.5,9.16667 358.5,17.8333 358.5,26.5C 389.833,26.5 421.167,26.5 452.5,26.5 Z"/></g>
<g><path style="opacity:1" fill="#9c9b9b" d="M 325.5,8.5 C 323.064,9.87096 320.397,10.871 317.5,11.5C 319.617,9.3455 322.284,8.3455 325.5,8.5 Z"/></g>
<g><path style="opacity:1" fill="#828282" d="M 346.5,4.5 C 346.5,4.83333 346.5,5.16667 346.5,5.5C 339.836,6.49965 333.169,7.49965 326.5,8.5C 326.611,7.88258 326.944,7.38258 327.5,7C 333.833,6.0835 340.166,5.25017 346.5,4.5 Z"/></g>
<g><path style="opacity:1" fill="#a6a6a6" d="M 260.5,4.5 C 260.842,3.66175 261.508,3.32842 262.5,3.5C 270.473,4.77301 278.473,5.93968 286.5,7C 291.491,7.8153 296.157,9.3153 300.5,11.5C 287.329,8.44178 273.996,6.10845 260.5,4.5 Z"/></g>
<g><path style="opacity:1" fill="#72393c" d="M 269.5,13.5 C 269.833,13.5 270.167,13.5 270.5,13.5C 270.5,13.8333 270.5,14.1667 270.5,14.5C 268.525,24.4459 267.858,34.7792 268.5,45.5C 268.5,46.8333 268.5,48.1667 268.5,49.5C 268.167,49.5 267.833,49.5 267.5,49.5C 266.854,37.1201 267.521,25.1201 269.5,13.5 Z"/></g>
<g><path style="opacity:1" fill="#805959" d="M 347.5,13.5 C 348.5,13.5 349.5,13.5 350.5,13.5C 350.5,25.5 350.5,37.5 350.5,49.5C 350.167,49.5 349.833,49.5 349.5,49.5C 349.5,48.1667 349.5,46.8333 349.5,45.5C 349.5,35.1667 349.5,24.8333 349.5,14.5C 347.901,14.2322 346.568,14.5655 345.5,15.5C 344.5,15.5 343.5,15.5 342.5,15.5C 342.5,15.1667 342.5,14.8333 342.5,14.5C 344.117,13.962 345.784,13.6287 347.5,13.5 Z"/></g>
<g><path style="opacity:1" fill="#908e8e" d="M 314.5,13.5 C 314.573,15.0269 313.906,16.0269 312.5,16.5C 312.427,14.9731 313.094,13.9731 314.5,13.5 Z"/></g>
<g><path style="opacity:1" fill="#887b7a" d="M 342.5,14.5 C 342.5,14.8333 342.5,15.1667 342.5,15.5C 337.133,16.1167 331.799,16.7834 326.5,17.5C 326.167,17.5 325.833,17.5 325.5,17.5C 326.681,15.9328 328.347,15.0995 330.5,15C 334.486,14.5012 338.486,14.3345 342.5,14.5 Z"/></g>
<g><path style="opacity:1" fill="#8b3f3b" d="M 325.5,17.5 C 325.833,17.5 326.167,17.5 326.5,17.5C 324.544,18.4918 322.544,19.4918 320.5,20.5C 321.401,18.2729 323.067,17.2729 325.5,17.5 Z"/></g>
<g><path style="opacity:0.996" fill="#4a4a4a" d="M 307.5,23.5 C 308.302,24.9516 308.802,26.6183 309,28.5C 309.198,26.6183 309.698,24.9516 310.5,23.5C 310.5,27.1667 310.5,30.8333 310.5,34.5C 308.265,34.7947 306.265,34.4614 304.5,33.5C 305.5,33.5 306.5,33.5 307.5,33.5C 307.5,30.1667 307.5,26.8333 307.5,23.5 Z"/></g>
<g><path style="opacity:1" fill="#7b7a7b" d="M 262.5,3.5 C 261.508,3.32842 260.842,3.66175 260.5,4.5C 260.5,12.8333 260.5,21.1667 260.5,29.5C 218.487,28.8389 176.82,29.5055 135.5,31.5C 134.596,30.791 134.263,29.791 134.5,28.5C 176.167,28.5 217.833,28.5 259.5,28.5C 259.5,19.8333 259.5,11.1667 259.5,2.5C 260.791,2.26269 261.791,2.59603 262.5,3.5 Z"/></g>
<g><path style="opacity:1" fill="#d91b22" d="M 342.5,15.5 C 343.5,15.5 344.5,15.5 345.5,15.5C 346.5,15.5 347.5,15.5 348.5,15.5C 348.5,24.5 348.5,33.5 348.5,42.5C 341.623,42.5975 334.956,42.5975 328.5,42.5C 328.818,37.9677 328.485,33.6344 327.5,29.5C 325.457,26.295 322.457,24.295 318.5,23.5C 319.193,22.4822 319.859,21.4822 320.5,20.5C 322.544,19.4918 324.544,18.4918 326.5,17.5C 331.799,16.7834 337.133,16.1167 342.5,15.5 Z"/></g>
<g><path style="opacity:1" fill="#757575" d="M 353.5,3.5 C 354.568,2.56552 355.901,2.23219 357.5,2.5C 357.5,11.1667 357.5,19.8333 357.5,28.5C 388.5,28.5 419.5,28.5 450.5,28.5C 450.672,29.4916 450.338,30.1583 449.5,30.5C 445.366,29.5151 441.032,29.1818 436.5,29.5C 409.833,29.5 383.167,29.5 356.5,29.5C 356.5,20.8333 356.5,12.1667 356.5,3.5C 355.5,3.5 354.5,3.5 353.5,3.5 Z"/></g>
<g><path style="opacity:1" fill="#d7d7d8" d="M 260.5,29.5 C 219.167,30.1667 177.833,30.8333 136.5,31.5C 136.167,31.5 135.833,31.5 135.5,31.5C 176.82,29.5055 218.487,28.8389 260.5,29.5 Z"/></g>
<g><path style="opacity:1" fill="#b0afaf" d="M 312.5,16.5 C 312.112,20.1535 311.779,23.8201 311.5,27.5C 311.539,29.9522 312.206,31.9522 313.5,33.5C 312.791,34.404 311.791,34.7373 310.5,34.5C 310.5,30.8333 310.5,27.1667 310.5,23.5C 310.41,20.8478 311.076,18.5145 312.5,16.5 Z"/></g>
<g><path style="opacity:1" fill="#a8a8a8" d="M 436.5,29.5 C 441.032,29.1818 445.366,29.5151 449.5,30.5C 447.855,31.4787 446.521,32.812 445.5,34.5C 441.977,35.1346 438.644,36.1346 435.5,37.5C 434.5,37.5 433.5,37.5 432.5,37.5C 435.87,36.3067 438.536,34.14 440.5,31C 438.942,30.79 437.609,30.29 436.5,29.5 Z"/></g>
<g><path style="opacity:1" fill="#f4f5f5" d="M 260.5,4.5 C 273.996,6.10845 287.329,8.44178 300.5,11.5C 305.359,13.8675 307.692,17.8675 307.5,23.5C 307.5,26.8333 307.5,30.1667 307.5,33.5C 306.5,33.5 305.5,33.5 304.5,33.5C 303.833,33.5 303.167,33.5 302.5,33.5C 302.5,32.8333 302.167,32.5 301.5,32.5C 300.432,31.5655 299.099,31.2322 297.5,31.5C 297.5,35.1667 297.5,38.8333 297.5,42.5C 295.958,43.3007 294.292,43.634 292.5,43.5C 292.5,38.8333 292.5,34.1667 292.5,29.5C 294.073,26.1069 296.74,24.7736 300.5,25.5C 301.109,22.1216 299.776,20.1216 296.5,19.5C 295.657,17.8267 294.324,16.66 292.5,16C 289.518,15.502 286.518,15.3354 283.5,15.5C 279.343,14.5511 275.01,13.8844 270.5,13.5C 270.167,13.5 269.833,13.5 269.5,13.5C 268.791,12.596 267.791,12.2627 266.5,12.5C 266.5,21.1667 266.5,29.8333 266.5,38.5C 265.549,39.9187 265.216,41.5853 265.5,43.5C 261.958,43.8128 258.625,43.4794 255.5,42.5C 256.167,41.5 256.833,40.5 257.5,39.5C 258.404,38.791 258.737,37.791 258.5,36.5C 219.106,36.5629 179.773,36.5629 140.5,36.5C 138.633,35.2402 137.3,33.5735 136.5,31.5C 177.833,30.8333 219.167,30.1667 260.5,29.5C 260.5,21.1667 260.5,12.8333 260.5,4.5 Z"/></g>
<g><path style="opacity:1" fill="#9f9b9b" d="M 283.5,16.5 C 283.5,16.1667 283.5,15.8333 283.5,15.5C 286.518,15.3354 289.518,15.502 292.5,16C 294.324,16.66 295.657,17.8267 296.5,19.5C 292.55,17.1209 288.216,16.1209 283.5,16.5 Z"/></g>
<g><path style="opacity:1" fill="#dd1d24" d="M 272.5,15.5 C 276.099,16.3439 279.766,16.6773 283.5,16.5C 288.216,16.1209 292.55,17.1209 296.5,19.5C 297.476,20.8149 298.476,22.1482 299.5,23.5C 295.375,23.9813 292.375,25.9813 290.5,29.5C 290.167,29.5 289.833,29.5 289.5,29.5C 288.683,31.9686 288.183,34.6353 288,37.5C 287,36.5 286,35.5 285,34.5C 281.256,35.0098 277.256,35.0098 273,34.5C 272,35.5 271,36.5 270,37.5C 269.5,30.1742 269.334,22.8409 269.5,15.5C 270.5,15.5 271.5,15.5 272.5,15.5 Z"/></g>
<g><path style="opacity:1" fill="#8d716f" d="M 270.5,14.5 C 270.5,14.1667 270.5,13.8333 270.5,13.5C 275.01,13.8844 279.343,14.5511 283.5,15.5C 283.5,15.8333 283.5,16.1667 283.5,16.5C 279.766,16.6773 276.099,16.3439 272.5,15.5C 272.158,14.6618 271.492,14.3284 270.5,14.5 Z"/></g>
<g><path style="opacity:1" fill="#38302a" d="M 484.5,27.5 C 485.058,28.7899 486.058,29.6232 487.5,30C 485.627,31.7038 483.96,33.5372 482.5,35.5C 481.215,37.4516 479.549,39.1182 477.5,40.5C 476.044,38.6296 474.711,36.6296 473.5,34.5C 476.65,31.4208 480.317,29.0875 484.5,27.5 Z"/></g>
<g><path style="opacity:1" fill="#8b8383" d="M 296.5,19.5 C 299.776,20.1216 301.109,22.1216 300.5,25.5C 296.74,24.7736 294.073,26.1069 292.5,29.5C 291.51,35.6446 291.177,41.9779 291.5,48.5C 293.5,48.5 295.5,48.5 297.5,48.5C 297.5,46.5 297.5,44.5 297.5,42.5C 297.5,38.8333 297.5,35.1667 297.5,31.5C 299.099,31.2322 300.432,31.5655 301.5,32.5C 300.5,32.5 299.5,32.5 298.5,32.5C 298.5,38.1667 298.5,43.8333 298.5,49.5C 295.615,49.8064 292.948,49.4731 290.5,48.5C 290.5,42.1667 290.5,35.8333 290.5,29.5C 292.375,25.9813 295.375,23.9813 299.5,23.5C 298.476,22.1482 297.476,20.8149 296.5,19.5 Z"/></g>
<g><path style="opacity:1" fill="#828080" d="M 320.5,20.5 C 319.859,21.4822 319.193,22.4822 318.5,23.5C 322.457,24.295 325.457,26.295 327.5,29.5C 327.5,36.1667 327.5,42.8333 327.5,49.5C 324.833,49.5 322.167,49.5 319.5,49.5C 318.512,44.3595 318.179,39.0262 318.5,33.5C 317.5,33.5 316.5,33.5 315.5,33.5C 315.842,32.6618 316.508,32.3284 317.5,32.5C 319.454,37.3924 320.454,42.7257 320.5,48.5C 322.5,48.5 324.5,48.5 326.5,48.5C 326.824,41.6457 326.491,34.979 325.5,28.5C 323.42,27.0541 321.087,26.0541 318.5,25.5C 316.91,22.8301 317.577,21.1634 320.5,20.5 Z"/></g>
<g><path style="opacity:1" fill="#cfd0d1" d="M 356.5,29.5 C 383.167,29.5 409.833,29.5 436.5,29.5C 437.609,30.29 438.942,30.79 440.5,31C 438.536,34.14 435.87,36.3067 432.5,37.5C 408.491,37.1669 384.491,37.5003 360.5,38.5C 360.855,39.5223 361.522,40.189 362.5,40.5C 363.389,42.736 364.722,44.736 366.5,46.5C 361.833,47.8333 357.167,47.8333 352.5,46.5C 351.567,42.5705 351.234,38.5705 351.5,34.5C 352.451,35.9187 352.784,37.5853 352.5,39.5C 355.364,39.9358 357.697,39.1025 359.5,37C 382.5,36.6667 405.5,36.3333 428.5,36C 428.167,35.6667 427.833,35.3333 427.5,35C 430.167,33.6667 432.833,32.3333 435.5,31C 408.997,30.8322 382.663,30.3322 356.5,29.5 Z"/></g>
<g><path style="opacity:1" fill="#2d231b" d="M 482.5,35.5 C 483.96,33.5372 485.627,31.7038 487.5,30C 486.058,29.6232 485.058,28.7899 484.5,27.5C 486.531,25.4776 488.865,23.8109 491.5,22.5C 492.043,22.44 492.376,22.1067 492.5,21.5C 485.01,20.1806 477.677,20.1806 470.5,21.5C 463.484,25.3384 456.817,29.6717 450.5,34.5C 449.169,78.0019 449.169,121.669 450.5,165.5C 451.522,165.145 452.189,164.478 452.5,163.5C 458.754,159.918 464.754,155.918 470.5,151.5C 471.333,123.506 471.833,95.5059 472,67.5C 478.443,63.0324 484.943,58.6991 491.5,54.5C 492.043,54.44 492.376,54.1067 492.5,53.5C 485.866,52.5033 479.2,52.17 472.5,52.5C 472.211,46.4093 472.545,40.4093 473.5,34.5C 474.711,36.6296 476.044,38.6296 477.5,40.5C 475.732,43.1625 475.065,46.1625 475.5,49.5C 482.175,49.3337 488.842,49.5004 495.5,50C 497.124,53.2056 496.458,55.8723 493.5,58C 487.667,61.8333 481.833,65.6667 476,69.5C 475.984,97.5864 475.317,125.586 474,153.5C 466.392,159.718 458.226,165.052 449.5,169.5C 448.353,169.182 447.519,168.516 447,167.5C 446.727,169.101 446.227,170.601 445.5,172C 439.167,176.333 432.833,180.667 426.5,185C 423.711,186.664 420.877,186.83 418,185.5C 417.5,175.172 417.334,164.839 417.5,154.5C 397.497,154.333 377.497,154.5 357.5,155C 356.86,159.268 356.193,163.435 355.5,167.5C 355.5,163.833 355.5,160.167 355.5,156.5C 354.374,155.142 354.374,153.808 355.5,152.5C 357.5,152.833 359.5,153.167 361.5,153.5C 378.961,152.846 396.294,152.18 413.5,151.5C 413.5,151.167 413.5,150.833 413.5,150.5C 413.5,118.167 413.5,85.8333 413.5,53.5C 396.675,52.5034 379.675,52.1701 362.5,52.5C 362.167,51.8333 361.833,51.1667 361.5,50.5C 364.5,49.8333 367.5,49.1667 370.5,48.5C 370.833,48.5 371.167,48.5 371.5,48.5C 373.81,49.1638 376.31,49.4971 379,49.5C 392.826,48.8139 406.659,48.3139 420.5,48C 425.618,45.3614 430.285,42.1948 434.5,38.5C 435.167,38.5 435.5,38.1667 435.5,37.5C 438.644,36.1346 441.977,35.1346 445.5,34.5C 446.521,32.812 447.855,31.4787 449.5,30.5C 450.338,30.1583 450.672,29.4916 450.5,28.5C 451.833,28.5 452.5,27.8333 452.5,26.5C 456.951,23.8894 461.284,21.0561 465.5,18C 475.5,17.3333 485.5,17.3333 495.5,18C 496.576,19.7261 496.743,21.5594 496,23.5C 491.26,27.4164 486.76,31.4164 482.5,35.5 Z"/></g>
<g><path style="opacity:1" fill="#fcfcfc" d="M 470.5,21.5 C 477.687,21.1755 484.687,21.5088 491.5,22.5C 488.865,23.8109 486.531,25.4776 484.5,27.5C 480.317,29.0875 476.65,31.4208 473.5,34.5C 471.544,40.412 470.877,46.7453 471.5,53.5C 478.354,53.176 485.021,53.5093 491.5,54.5C 484.943,58.6991 478.443,63.0324 472,67.5C 471.833,95.5059 471.333,123.506 470.5,151.5C 464.754,155.918 458.754,159.918 452.5,163.5C 450.505,120.846 449.839,77.8463 450.5,34.5C 456.817,29.6717 463.484,25.3384 470.5,21.5 Z"/></g>
<g><path style="opacity:1" fill="#bab9ba" d="M 470.5,21.5 C 477.677,20.1806 485.01,20.1806 492.5,21.5C 492.376,22.1067 492.043,22.44 491.5,22.5C 484.687,21.5088 477.687,21.1755 470.5,21.5 Z"/></g>
<g><path style="opacity:1" fill="#ced2d3" d="M 140.5,36.5 C 179.773,36.5629 219.106,36.5629 258.5,36.5C 258.737,37.791 258.404,38.791 257.5,39.5C 240.18,38.1671 222.513,37.5004 204.5,37.5C 186.833,37.8333 169.167,38.1667 151.5,38.5C 151.855,39.5223 152.522,40.189 153.5,40.5C 153.833,40.5 154.167,40.5 154.5,40.5C 155.543,43.0562 157.21,45.2228 159.5,47C 156.854,47.4974 154.187,47.6641 151.5,47.5C 151.167,47.5 150.833,47.5 150.5,47.5C 147.167,43.8333 143.833,40.1667 140.5,36.5 Z"/></g>
<g><path style="opacity:1" fill="#7a6e6d" d="M 257.5,39.5 C 256.833,40.5 256.167,41.5 255.5,42.5C 253.086,43.9108 251.419,45.9108 250.5,48.5C 248.302,48.5912 247.969,47.9245 249.5,46.5C 250.833,44.8333 252.167,43.1667 253.5,41.5C 254.167,41.5 254.5,41.1667 254.5,40.5C 255.289,40.2172 255.956,39.7172 256.5,39C 239.333,38.8333 222.167,38.6667 205,38.5C 187.487,38.5005 170.32,39.1671 153.5,40.5C 152.522,40.189 151.855,39.5223 151.5,38.5C 169.167,38.1667 186.833,37.8333 204.5,37.5C 222.513,37.5004 240.18,38.1671 257.5,39.5 Z"/></g>
<g><path style="opacity:1" fill="#c9181f" d="M 270.5,14.5 C 271.492,14.3284 272.158,14.6618 272.5,15.5C 271.5,15.5 270.5,15.5 269.5,15.5C 269.334,22.8409 269.5,30.1742 270,37.5C 271,36.5 272,35.5 273,34.5C 277.256,35.0098 281.256,35.0098 285,34.5C 286,35.5 287,36.5 288,37.5C 288.183,34.6353 288.683,31.9686 289.5,29.5C 289.904,35.2896 289.404,40.9562 288,46.5C 281.437,45.6184 274.937,45.2851 268.5,45.5C 267.858,34.7792 268.525,24.4459 270.5,14.5 Z"/></g>
<g><path style="opacity:1" fill="#736664" d="M 432.5,37.5 C 433.5,37.5 434.5,37.5 435.5,37.5C 435.5,38.1667 435.167,38.5 434.5,38.5C 410.143,37.8432 386.143,38.5098 362.5,40.5C 361.522,40.189 360.855,39.5223 360.5,38.5C 384.491,37.5003 408.491,37.1669 432.5,37.5 Z"/></g>
<g><path style="opacity:1" fill="#e8e8e9" d="M 450.5,34.5 C 449.839,77.8463 450.505,120.846 452.5,163.5C 452.189,164.478 451.522,165.145 450.5,165.5C 449.169,121.669 449.169,78.0019 450.5,34.5 Z"/></g>
<g><path style="opacity:1" fill="#971e1f" d="M 254.5,40.5 C 221.5,39.1667 188.5,39.1667 155.5,40.5C 155.167,40.5 154.833,40.5 154.5,40.5C 154.167,40.5 153.833,40.5 153.5,40.5C 170.32,39.1671 187.487,38.5005 205,38.5C 222.167,38.6667 239.333,38.8333 256.5,39C 255.956,39.7172 255.289,40.2172 254.5,40.5 Z"/></g>
<g><path style="opacity:1" fill="#5e5a58" d="M 441.5,39.5 C 441.56,38.9569 441.893,38.6236 442.5,38.5C 443.831,82.3315 443.831,125.998 442.5,169.5C 442.832,125.997 442.499,82.6635 441.5,39.5 Z"/></g>
<g><path style="opacity:1" fill="#c0c0c0" d="M 292.5,29.5 C 292.5,34.1667 292.5,38.8333 292.5,43.5C 294.292,43.634 295.958,43.3007 297.5,42.5C 297.5,44.5 297.5,46.5 297.5,48.5C 295.5,48.5 293.5,48.5 291.5,48.5C 291.177,41.9779 291.51,35.6446 292.5,29.5 Z"/></g>
<g><path style="opacity:1" fill="#c7161c" d="M 422.5,39.5 C 416.413,41.0864 410.08,41.9197 403.5,42C 391.787,42.1872 380.121,42.6872 368.5,43.5C 367.583,42.8728 366.583,42.5394 365.5,42.5C 364.5,42.1667 363.833,41.5 363.5,40.5C 382.993,39.5029 402.66,39.1696 422.5,39.5 Z"/></g>
<g><path style="opacity:1" fill="#fdfdfd" d="M 441.5,39.5 C 442.499,82.6635 442.832,125.997 442.5,169.5C 435.833,173.833 429.167,178.167 422.5,182.5C 421.501,139.337 421.168,96.0032 421.5,52.5C 428.13,48.1802 434.797,43.8468 441.5,39.5 Z"/></g>
<g><path style="opacity:1" fill="#be161c" d="M 254.5,40.5 C 254.5,41.1667 254.167,41.5 253.5,41.5C 250.583,42.2911 247.75,42.2911 245,41.5C 244.25,42.1258 243.416,42.6258 242.5,43C 214.502,43.5 186.502,43.6666 158.5,43.5C 157.167,42.8333 156.167,41.8333 155.5,40.5C 188.5,39.1667 221.5,39.1667 254.5,40.5 Z"/></g>
<g><path style="opacity:1" fill="#c1c1c1" d="M 325.5,28.5 C 326.491,34.979 326.824,41.6457 326.5,48.5C 324.5,48.5 322.5,48.5 320.5,48.5C 320.454,42.7257 319.454,37.3924 317.5,32.5C 318.209,31.596 319.209,31.2627 320.5,31.5C 320.335,35.1817 320.501,38.8484 321,42.5C 322.356,43.3802 323.856,43.7135 325.5,43.5C 325.5,38.5 325.5,33.5 325.5,28.5 Z"/></g>
<g><path style="opacity:1" fill="#b4141b" d="M 345.5,15.5 C 346.568,14.5655 347.901,14.2322 349.5,14.5C 349.5,24.8333 349.5,35.1667 349.5,45.5C 342.91,45.189 336.41,45.5223 330,46.5C 329.209,45.255 328.709,43.9217 328.5,42.5C 334.956,42.5975 341.623,42.5975 348.5,42.5C 348.5,33.5 348.5,24.5 348.5,15.5C 347.5,15.5 346.5,15.5 345.5,15.5 Z"/></g>
<g><path style="opacity:1" fill="#a01116" d="M 253.5,41.5 C 252.167,43.1667 250.833,44.8333 249.5,46.5C 234.819,47.801 219.986,48.4677 205,48.5C 190.833,48.3333 176.667,48.1667 162.5,48C 161.956,47.2828 161.289,46.7828 160.5,46.5C 159.833,45.5 159.167,44.5 158.5,43.5C 186.502,43.6666 214.502,43.5 242.5,43C 243.416,42.6258 244.25,42.1258 245,41.5C 247.75,42.2911 250.583,42.2911 253.5,41.5 Z"/></g>
<g><path style="opacity:1" fill="#c0c0c0" d="M 266.5,38.5 C 266.5,41.8333 266.5,45.1667 266.5,48.5C 261.167,48.5 255.833,48.5 250.5,48.5C 251.419,45.9108 253.086,43.9108 255.5,42.5C 258.625,43.4794 261.958,43.8128 265.5,43.5C 265.216,41.5853 265.549,39.9187 266.5,38.5 Z"/></g>
<g><path style="opacity:1" fill="#ab1319" d="M 422.5,39.5 C 424.924,39.1924 427.257,39.5258 429.5,40.5C 424.434,43.2695 419.101,45.4361 413.5,47C 399.456,47.2008 385.456,47.7008 371.5,48.5C 371.167,48.5 370.833,48.5 370.5,48.5C 368.833,46.5 367.167,44.5 365.5,42.5C 366.583,42.5394 367.583,42.8728 368.5,43.5C 380.121,42.6872 391.787,42.1872 403.5,42C 410.08,41.9197 416.413,41.0864 422.5,39.5 Z"/></g>
<g><path style="opacity:1" fill="#961619" d="M 289.5,29.5 C 289.833,29.5 290.167,29.5 290.5,29.5C 290.5,35.8333 290.5,42.1667 290.5,48.5C 283.254,49.464 275.92,49.7973 268.5,49.5C 268.5,48.1667 268.5,46.8333 268.5,45.5C 274.937,45.2851 281.437,45.6184 288,46.5C 289.404,40.9562 289.904,35.2896 289.5,29.5 Z"/></g>
<g><path style="opacity:1" fill="#951619" d="M 327.5,29.5 C 328.485,33.6344 328.818,37.9677 328.5,42.5C 328.709,43.9217 329.209,45.255 330,46.5C 336.41,45.5223 342.91,45.189 349.5,45.5C 349.5,46.8333 349.5,48.1667 349.5,49.5C 343.824,49.3339 338.157,49.5006 332.5,50C 330.727,51.802 329.06,51.6353 327.5,49.5C 327.5,42.8333 327.5,36.1667 327.5,29.5 Z"/></g>
<g><path style="opacity:1" fill="#9d9c9d" d="M 347.5,13.5 C 348.568,12.5655 349.901,12.2322 351.5,12.5C 351.5,19.8333 351.5,27.1667 351.5,34.5C 351.234,38.5705 351.567,42.5705 352.5,46.5C 357.167,47.8333 361.833,47.8333 366.5,46.5C 364.722,44.736 363.389,42.736 362.5,40.5C 362.833,40.5 363.167,40.5 363.5,40.5C 363.833,41.5 364.5,42.1667 365.5,42.5C 367.167,44.5 368.833,46.5 370.5,48.5C 367.5,49.1667 364.5,49.8333 361.5,50.5C 359.897,51.6772 358.564,51.5106 357.5,50C 355.19,49.5034 352.857,49.3367 350.5,49.5C 350.5,37.5 350.5,25.5 350.5,13.5C 349.5,13.5 348.5,13.5 347.5,13.5 Z"/></g>
<g><path style="opacity:1" fill="#7c7373" d="M 154.5,40.5 C 154.833,40.5 155.167,40.5 155.5,40.5C 156.167,41.8333 157.167,42.8333 158.5,43.5C 159.167,44.5 159.833,45.5 160.5,46.5C 159.486,47.7647 157.986,48.4313 156,48.5C 154.293,48.4915 152.793,48.1582 151.5,47.5C 154.187,47.6641 156.854,47.4974 159.5,47C 157.21,45.2228 155.543,43.0562 154.5,40.5 Z"/></g>
<g><path style="opacity:1" fill="#8f1215" d="M 434.5,38.5 C 430.285,42.1948 425.618,45.3614 420.5,48C 406.659,48.3139 392.826,48.8139 379,49.5C 376.31,49.4971 373.81,49.1638 371.5,48.5C 385.456,47.7008 399.456,47.2008 413.5,47C 419.101,45.4361 424.434,43.2695 429.5,40.5C 427.257,39.5258 424.924,39.1924 422.5,39.5C 402.66,39.1696 382.993,39.5029 363.5,40.5C 363.167,40.5 362.833,40.5 362.5,40.5C 386.143,38.5098 410.143,37.8432 434.5,38.5 Z"/></g>
<g><path style="opacity:1" fill="#939696" d="M 269.5,13.5 C 267.521,25.1201 266.854,37.1201 267.5,49.5C 261.642,49.8222 255.975,49.4889 250.5,48.5C 255.833,48.5 261.167,48.5 266.5,48.5C 266.5,45.1667 266.5,41.8333 266.5,38.5C 266.5,29.8333 266.5,21.1667 266.5,12.5C 267.791,12.2627 268.791,12.596 269.5,13.5 Z"/></g>
<g><path style="opacity:1" fill="#1b140e" d="M 302.5,33.5 C 303.167,33.5 303.833,33.5 304.5,33.5C 306.265,34.4614 308.265,34.7947 310.5,34.5C 311.791,34.7373 312.791,34.404 313.5,33.5C 314.167,33.5 314.833,33.5 315.5,33.5C 316.5,33.5 317.5,33.5 318.5,33.5C 318.179,39.0262 318.512,44.3595 319.5,49.5C 322.028,50.1657 324.694,50.8324 327.5,51.5C 327.376,52.1067 327.043,52.44 326.5,52.5C 319.167,52.5 311.833,52.5 304.5,52.5C 303.448,50.744 301.781,50.0773 299.5,50.5C 299.179,45.3054 299.513,40.3054 300.5,35.5C 300.5,39.8333 300.5,44.1667 300.5,48.5C 305.833,48.5 311.167,48.5 316.5,48.5C 316.666,44.1539 316.499,39.8206 316,35.5C 314.687,36.5728 313.187,37.2395 311.5,37.5C 309.833,36.1667 308.167,36.1667 306.5,37.5C 304.308,37.2427 302.641,36.2427 301.5,34.5C 301.5,33.8333 301.833,33.5 302.5,33.5 Z"/></g>
<g><path style="opacity:1" fill="#7e7b79" d="M 473.5,34.5 C 472.545,40.4093 472.211,46.4093 472.5,52.5C 479.2,52.17 485.866,52.5033 492.5,53.5C 492.376,54.1067 492.043,54.44 491.5,54.5C 485.021,53.5093 478.354,53.176 471.5,53.5C 470.877,46.7453 471.544,40.412 473.5,34.5 Z"/></g>
<g><path style="opacity:1" fill="#fefefe" d="M 413.5,53.5 C 413.5,85.8333 413.5,118.167 413.5,150.5C 396.833,150.5 380.167,150.5 363.5,150.5C 363.5,118.167 363.5,85.8333 363.5,53.5C 380.167,53.5 396.833,53.5 413.5,53.5 Z"/></g>
<g><path style="opacity:1" fill="#bbb9b9" d="M 362.5,52.5 C 379.675,52.1701 396.675,52.5034 413.5,53.5C 396.833,53.5 380.167,53.5 363.5,53.5C 363.5,85.8333 363.5,118.167 363.5,150.5C 380.167,150.5 396.833,150.5 413.5,150.5C 413.5,150.833 413.5,151.167 413.5,151.5C 396.5,151.5 379.5,151.5 362.5,151.5C 362.5,118.5 362.5,85.5 362.5,52.5 Z"/></g>
<g><path style="opacity:1" fill="#d0cecf" d="M 421.5,52.5 C 421.168,96.0032 421.501,139.337 422.5,182.5C 422.44,183.043 422.107,183.376 421.5,183.5C 420.169,139.669 420.169,96.0019 421.5,52.5 Z"/></g>
<g><path style="opacity:1" fill="#2e241c" d="M 301.5,32.5 C 302.167,32.5 302.5,32.8333 302.5,33.5C 301.833,33.5 301.5,33.8333 301.5,34.5C 300.833,34.5 300.5,34.8333 300.5,35.5C 299.513,40.3054 299.179,45.3054 299.5,50.5C 301.781,50.0773 303.448,50.744 304.5,52.5C 304.5,82.8333 304.5,113.167 304.5,143.5C 303.167,144.167 301.833,144.833 300.5,145.5C 298.508,114.851 297.841,83.8513 298.5,52.5C 283.818,52.1674 269.152,52.5007 254.5,53.5C 254.624,54.1067 254.957,54.44 255.5,54.5C 261.789,59.3178 268.456,63.6511 275.5,67.5C 275.167,106.172 275.5,144.839 276.5,183.5C 277.107,183.376 277.44,183.043 277.5,182.5C 286.167,177.167 294.833,171.833 303.5,166.5C 304.167,172.014 304.833,177.681 305.5,183.5C 306.107,183.376 306.44,183.043 306.5,182.5C 322.482,172.193 338.482,161.86 354.5,151.5C 355.5,118.84 355.833,86.1735 355.5,53.5C 348.352,52.5084 341.019,52.175 333.5,52.5C 333.5,82.8333 333.5,113.167 333.5,143.5C 331.938,143.733 330.605,144.4 329.5,145.5C 327.836,115.014 326.836,84.3469 326.5,53.5C 326.5,53.1667 326.5,52.8333 326.5,52.5C 327.043,52.44 327.376,52.1067 327.5,51.5C 324.694,50.8324 322.028,50.1657 319.5,49.5C 322.167,49.5 324.833,49.5 327.5,49.5C 329.06,51.6353 330.727,51.802 332.5,50C 338.157,49.5006 343.824,49.3339 349.5,49.5C 349.833,49.5 350.167,49.5 350.5,49.5C 352.857,49.3367 355.19,49.5034 357.5,50C 358.564,51.5106 359.897,51.6772 361.5,50.5C 361.833,51.1667 362.167,51.8333 362.5,52.5C 362.5,85.5 362.5,118.5 362.5,151.5C 379.5,151.5 396.5,151.5 413.5,151.5C 396.294,152.18 378.961,152.846 361.5,153.5C 359.5,153.167 357.5,152.833 355.5,152.5C 354.374,153.808 354.374,155.142 355.5,156.5C 350.916,158.082 347.583,161.082 345.5,165.5C 345.167,165.5 344.833,165.5 344.5,165.5C 344.483,163.972 343.816,163.472 342.5,164C 337.336,167.417 332.336,170.917 327.5,174.5C 326.508,174.328 325.842,174.662 325.5,175.5C 319.148,179.007 313.148,183.007 307.5,187.5C 307.167,187.5 306.833,187.5 306.5,187.5C 304.78,186.692 303.113,185.692 301.5,184.5C 301.817,181.428 301.484,178.428 300.5,175.5C 299.893,175.624 299.56,175.957 299.5,176.5C 296.617,175.127 294.283,175.793 292.5,178.5C 291.515,182.634 291.182,186.968 291.5,191.5C 291.17,198.532 291.503,205.532 292.5,212.5C 294.853,210.477 297.186,208.477 299.5,206.5C 297.876,209.79 295.543,212.457 292.5,214.5C 291.833,214.5 291.167,214.5 290.5,214.5C 290.667,202.829 290.5,191.162 290,179.5C 285.286,183.054 280.453,186.387 275.5,189.5C 275.737,188.209 275.404,187.209 274.5,186.5C 273.058,185.18 272.392,183.514 272.5,181.5C 271.833,180.833 271.167,180.167 270.5,179.5C 271.833,162.68 272.5,145.513 272.5,128C 272.5,110.663 272.167,93.4967 271.5,76.5C 265.5,76.5 259.5,76.5 253.5,76.5C 252.515,80.6344 252.182,84.9677 252.5,89.5C 252.715,91.1788 252.048,92.1788 250.5,92.5C 250.829,78.9895 250.496,65.6562 249.5,52.5C 232.5,52.5 215.5,52.5 198.5,52.5C 214.372,51.9214 230.372,51.0881 246.5,50C 229.833,49.3333 213.167,49.3333 196.5,50C 195.584,50.2784 194.918,50.7784 194.5,51.5C 168.833,51.5 143.167,51.5 117.5,51.5C 116.908,54.6305 117.908,56.9639 120.5,58.5C 126.195,66.8798 131.529,75.5465 136.5,84.5C 130.25,86.4589 123.584,87.1255 116.5,86.5C 116.263,87.791 116.596,88.791 117.5,89.5C 117.5,90.1667 117.833,90.5 118.5,90.5C 131.402,109.96 144.069,129.627 156.5,149.5C 156.5,149.833 156.5,150.167 156.5,150.5C 154.5,149.5 152.5,148.5 150.5,147.5C 137.18,128.669 124.847,109.169 113.5,89C 113.484,86.6948 114.484,85.0282 116.5,84C 121.167,83.6667 125.833,83.3333 130.5,83C 125.139,73.783 119.639,64.6163 114,55.5C 113.104,52.975 113.604,50.8083 115.5,49C 127.007,48.8306 138.341,48.3306 149.5,47.5C 149.833,47.5 150.167,47.5 150.5,47.5C 150.833,47.5 151.167,47.5 151.5,47.5C 152.793,48.1582 154.293,48.4915 156,48.5C 157.986,48.4313 159.486,47.7647 160.5,46.5C 161.289,46.7828 161.956,47.2828 162.5,48C 176.667,48.1667 190.833,48.3333 205,48.5C 219.986,48.4677 234.819,47.801 249.5,46.5C 247.969,47.9245 248.302,48.5912 250.5,48.5C 255.975,49.4889 261.642,49.8222 267.5,49.5C 267.833,49.5 268.167,49.5 268.5,49.5C 275.92,49.7973 283.254,49.464 290.5,48.5C 292.948,49.4731 295.615,49.8064 298.5,49.5C 298.5,43.8333 298.5,38.1667 298.5,32.5C 299.5,32.5 300.5,32.5 301.5,32.5 Z"/></g>
<g><path style="opacity:1" fill="#560909" d="M 253.5,58.5 C 257.388,61.086 261.388,63.586 265.5,66C 261.514,66.4988 257.514,66.6655 253.5,66.5C 253.5,63.8333 253.5,61.1667 253.5,58.5 Z"/></g>
<g><path style="opacity:1" fill="#acaaaa" d="M 304.5,52.5 C 311.833,52.5 319.167,52.5 326.5,52.5C 326.5,52.8333 326.5,53.1667 326.5,53.5C 319.5,53.5 312.5,53.5 305.5,53.5C 305.831,83.6713 305.498,113.671 304.5,143.5C 304.5,113.167 304.5,82.8333 304.5,52.5 Z"/></g>
<g><path style="opacity:1" fill="#b8b7b7" d="M 355.5,53.5 C 348.5,53.5 341.5,53.5 334.5,53.5C 334.831,83.6713 334.498,113.671 333.5,143.5C 333.5,113.167 333.5,82.8333 333.5,52.5C 341.019,52.175 348.352,52.5084 355.5,53.5 Z"/></g>
<g><path style="opacity:1" fill="#999796" d="M 300.5,145.5 C 299.791,146.404 298.791,146.737 297.5,146.5C 297.5,115.5 297.5,84.5 297.5,53.5C 283.323,53.1709 269.323,53.5042 255.5,54.5C 254.957,54.44 254.624,54.1067 254.5,53.5C 269.152,52.5007 283.818,52.1674 298.5,52.5C 297.841,83.8513 298.508,114.851 300.5,145.5 Z"/></g>
<g><path style="opacity:1" fill="#fdfdfd" d="M 300.5,145.5 C 301.833,144.833 303.167,144.167 304.5,143.5C 305.498,113.671 305.831,83.6713 305.5,53.5C 312.5,53.5 319.5,53.5 326.5,53.5C 326.5,84.5 326.5,115.5 326.5,146.5C 327.791,146.737 328.791,146.404 329.5,145.5C 330.605,144.4 331.938,143.733 333.5,143.5C 334.498,113.671 334.831,83.6713 334.5,53.5C 341.5,53.5 348.5,53.5 355.5,53.5C 355.833,86.1735 355.5,118.84 354.5,151.5C 338.482,161.86 322.482,172.193 306.5,182.5C 305.833,176.986 305.167,171.319 304.5,165.5C 303.893,165.624 303.56,165.957 303.5,166.5C 294.833,171.833 286.167,177.167 277.5,182.5C 276.833,144.167 276.167,105.833 275.5,67.5C 268.456,63.6511 261.789,59.3178 255.5,54.5C 269.323,53.5042 283.323,53.1709 297.5,53.5C 297.5,84.5 297.5,115.5 297.5,146.5C 298.791,146.737 299.791,146.404 300.5,145.5 Z"/></g>
<g><path style="opacity:1" fill="#928e8d" d="M 326.5,53.5 C 326.836,84.3469 327.836,115.014 329.5,145.5C 328.791,146.404 327.791,146.737 326.5,146.5C 326.5,115.5 326.5,84.5 326.5,53.5 Z"/></g>
<g><path style="opacity:1" fill="#fdfdfd" d="M 246.5,89.5 C 240.222,86.3576 234.222,82.691 228.5,78.5C 227.571,77.3112 227.238,75.9778 227.5,74.5C 225.5,74.5 223.5,74.5 221.5,74.5C 220.503,92.3256 220.17,110.326 220.5,128.5C 222.833,128.5 225.167,128.5 227.5,128.5C 227.5,127.5 227.5,126.5 227.5,125.5C 233.622,120.387 240.289,116.054 247.5,112.5C 248.495,124.655 248.829,136.989 248.5,149.5C 232.167,149.5 215.833,149.5 199.5,149.5C 199.5,117.5 199.5,85.5 199.5,53.5C 215.833,53.5 232.167,53.5 248.5,53.5C 249.146,65.8799 248.479,77.8799 246.5,89.5 Z"/></g>
<g><path style="opacity:1" fill="#fdfdfd" d="M 193.5,52.5 C 193.5,61.1667 193.5,69.8333 193.5,78.5C 183.167,78.5 172.833,78.5 162.5,78.5C 162.054,81.0101 162.72,83.0101 164.5,84.5C 165.338,84.8417 165.672,85.5084 165.5,86.5C 174.44,88.4722 183.773,89.1389 193.5,88.5C 193.5,96.8333 193.5,105.167 193.5,113.5C 182.833,113.5 172.167,113.5 161.5,113.5C 161.263,114.791 161.596,115.791 162.5,116.5C 162.427,118.027 163.094,119.027 164.5,119.5C 165.906,119.973 166.573,120.973 166.5,122.5C 175.318,123.493 184.318,123.827 193.5,123.5C 193.5,132.167 193.5,140.833 193.5,149.5C 181.167,149.5 168.833,149.5 156.5,149.5C 144.069,129.627 131.402,109.96 118.5,90.5C 125.087,88.5388 132.087,87.8721 139.5,88.5C 139.843,86.5168 139.176,85.1834 137.5,84.5C 137.167,84.5 136.833,84.5 136.5,84.5C 131.529,75.5465 126.195,66.8798 120.5,58.5C 119.37,56.6854 118.704,54.6854 118.5,52.5C 143.5,52.5 168.5,52.5 193.5,52.5 Z"/></g>
<g><path style="opacity:1" fill="#939191" d="M 194.5,51.5 C 194.5,51.8333 194.5,52.1667 194.5,52.5C 194.167,52.5 193.833,52.5 193.5,52.5C 168.5,52.5 143.5,52.5 118.5,52.5C 118.704,54.6854 119.37,56.6854 120.5,58.5C 117.908,56.9639 116.908,54.6305 117.5,51.5C 143.167,51.5 168.833,51.5 194.5,51.5 Z"/></g>
<g><path style="opacity:1" fill="#b9b5b5" d="M 275.5,67.5 C 276.167,105.833 276.833,144.167 277.5,182.5C 277.44,183.043 277.107,183.376 276.5,183.5C 275.5,144.839 275.167,106.172 275.5,67.5 Z"/></g>
<g><path style="opacity:1" fill="#4b4643" d="M 249.5,52.5 C 250.496,65.6562 250.829,78.9895 250.5,92.5C 249.508,92.6716 248.842,92.3382 248.5,91.5C 249.495,78.6774 249.829,65.6774 249.5,52.5 Z"/></g>
<g><path style="opacity:1" fill="#888888" d="M 267.5,75.5 C 267.223,68.9213 263.723,66.9213 257,69.5C 255.441,71.2166 254.608,73.2166 254.5,75.5C 253.527,73.0521 253.194,70.3854 253.5,67.5C 258.179,67.3342 262.845,67.5008 267.5,68C 271.771,68.7697 273.437,71.2697 272.5,75.5C 270.833,75.5 269.167,75.5 267.5,75.5 Z"/></g>
<g><path style="opacity:1" fill="#a5a6a7" d="M 267.5,75.5 C 263.167,75.5 258.833,75.5 254.5,75.5C 254.608,73.2166 255.441,71.2166 257,69.5C 263.723,66.9213 267.223,68.9213 267.5,75.5 Z"/></g>
<g><path style="opacity:1" fill="#797471" d="M 384.5,75.5 C 384.833,75.5 385.167,75.5 385.5,75.5C 385.5,93.1667 385.5,110.833 385.5,128.5C 387.5,128.5 389.5,128.5 391.5,128.5C 391.5,128.833 391.5,129.167 391.5,129.5C 389.167,129.5 386.833,129.5 384.5,129.5C 384.5,111.5 384.5,93.5 384.5,75.5 Z"/></g>
<g><path style="opacity:1" fill="#d6d6d6" d="M 384.5,75.5 C 386.948,74.5269 389.615,74.1936 392.5,74.5C 392.83,93.0076 392.497,111.341 391.5,129.5C 391.5,129.167 391.5,128.833 391.5,128.5C 391.5,110.833 391.5,93.1667 391.5,75.5C 389.5,75.5 387.5,75.5 385.5,75.5C 385.167,75.5 384.833,75.5 384.5,75.5 Z"/></g>
<g><path style="opacity:1" fill="#291f16" d="M 385.5,75.5 C 387.5,75.5 389.5,75.5 391.5,75.5C 391.5,93.1667 391.5,110.833 391.5,128.5C 389.5,128.5 387.5,128.5 385.5,128.5C 385.5,110.833 385.5,93.1667 385.5,75.5 Z"/></g>
<g><path style="opacity:1" fill="#bfbebe" d="M 193.5,52.5 C 193.833,52.5 194.167,52.5 194.5,52.5C 194.5,61.5 194.5,70.5 194.5,79.5C 184.167,79.5 173.833,79.5 163.5,79.5C 163.263,80.791 163.596,81.791 164.5,82.5C 164.5,83.1667 164.5,83.8333 164.5,84.5C 162.72,83.0101 162.054,81.0101 162.5,78.5C 172.833,78.5 183.167,78.5 193.5,78.5C 193.5,69.8333 193.5,61.1667 193.5,52.5 Z"/></g>
<g><path style="opacity:1" fill="#635d5b" d="M 194.5,79.5 C 184.292,79.8425 174.292,80.8425 164.5,82.5C 163.596,81.791 163.263,80.791 163.5,79.5C 173.833,79.5 184.167,79.5 194.5,79.5 Z"/></g>
<g><path style="opacity:1" fill="#6b6765" d="M 136.5,84.5 C 136.833,84.5 137.167,84.5 137.5,84.5C 137.804,85.1499 138.137,85.8165 138.5,86.5C 131.119,86.8559 124.119,87.8559 117.5,89.5C 116.596,88.791 116.263,87.791 116.5,86.5C 123.584,87.1255 130.25,86.4589 136.5,84.5 Z"/></g>
<g><path style="opacity:1" fill="#c7c7c8" d="M 137.5,84.5 C 139.176,85.1834 139.843,86.5168 139.5,88.5C 132.087,87.8721 125.087,88.5388 118.5,90.5C 117.833,90.5 117.5,90.1667 117.5,89.5C 124.119,87.8559 131.119,86.8559 138.5,86.5C 138.137,85.8165 137.804,85.1499 137.5,84.5 Z"/></g>
<g><path style="opacity:1" fill="#661a18" d="M 253.5,76.5 C 253.5,76.8333 253.5,77.1667 253.5,77.5C 253.5,81.1667 253.5,84.8333 253.5,88.5C 257.167,88.5 260.833,88.5 264.5,88.5C 266.833,88.5 269.167,88.5 271.5,88.5C 271.5,84.5 271.5,80.5 271.5,76.5C 272.167,93.4967 272.5,110.663 272.5,128C 272.5,145.513 271.833,162.68 270.5,179.5C 270.831,149.329 270.498,119.329 269.5,89.5C 263.833,89.5 258.167,89.5 252.5,89.5C 252.182,84.9677 252.515,80.6344 253.5,76.5 Z"/></g>
<g><path style="opacity:1" fill="#83080e" d="M 253.5,77.5 C 253.5,77.1667 253.5,76.8333 253.5,76.5C 259.5,76.5 265.5,76.5 271.5,76.5C 271.5,80.5 271.5,84.5 271.5,88.5C 269.167,88.5 266.833,88.5 264.5,88.5C 266.265,87.5386 268.265,87.2053 270.5,87.5C 269.949,84.1933 269.616,80.8599 269.5,77.5C 264.167,77.5 258.833,77.5 253.5,77.5 Z"/></g>
<g><path style="opacity:1" fill="#a71117" d="M 253.5,77.5 C 258.833,77.5 264.167,77.5 269.5,77.5C 269.616,80.8599 269.949,84.1933 270.5,87.5C 268.265,87.2053 266.265,87.5386 264.5,88.5C 260.833,88.5 257.167,88.5 253.5,88.5C 253.5,84.8333 253.5,81.1667 253.5,77.5 Z"/></g>
<g><path style="opacity:1" fill="#9fa0a0" d="M 252.5,89.5 C 258.167,89.5 263.833,89.5 269.5,89.5C 269.5,109.5 269.5,129.5 269.5,149.5C 268.503,130.007 268.17,110.34 268.5,90.5C 263.5,90.5 258.5,90.5 253.5,90.5C 253.296,92.6854 252.63,94.6854 251.5,96.5C 242.833,96.5 234.167,96.5 225.5,96.5C 225.5,94.5 225.5,92.5 225.5,90.5C 230.167,90.5 234.833,90.5 239.5,90.5C 242.955,93.2412 246.622,93.9079 250.5,92.5C 252.048,92.1788 252.715,91.1788 252.5,89.5 Z"/></g>
<g><path style="opacity:0.145" fill="#0e0c0a" d="M 224.5,97.5 C 237.167,97.5 249.833,97.5 262.5,97.5C 262.5,131.5 262.5,165.5 262.5,199.5C 263.5,199.5 264.5,199.5 265.5,199.5C 264.74,202.96 263.24,203.293 261,200.5C 260.5,166.835 260.333,133.168 260.5,99.5C 248.833,99.5 237.167,99.5 225.5,99.5C 224.662,99.1583 224.328,98.4916 224.5,97.5 Z"/></g>
<g><path style="opacity:0.968" fill="#2b221b" d="M 198.5,52.5 C 198.5,85.1667 198.5,117.833 198.5,150.5C 215.5,150.5 232.5,150.5 249.5,150.5C 250.825,137.327 250.825,123.994 249.5,110.5C 248.893,110.624 248.56,110.957 248.5,111.5C 247.833,111.5 247.5,111.833 247.5,112.5C 240.289,116.054 233.622,120.387 227.5,125.5C 225.886,127.075 223.886,127.741 221.5,127.5C 221.5,109.833 221.5,92.1667 221.5,74.5C 223.5,74.5 225.5,74.5 227.5,74.5C 227.238,75.9778 227.571,77.3112 228.5,78.5C 234.222,82.691 240.222,86.3576 246.5,89.5C 247.167,90.1667 247.833,90.8333 248.5,91.5C 248.842,92.3382 249.508,92.6716 250.5,92.5C 246.622,93.9079 242.955,93.2412 239.5,90.5C 239.158,89.6618 238.492,89.3284 237.5,89.5C 235.133,86.8434 232.133,84.8434 228.5,83.5C 224.799,84.2979 223.799,86.2979 225.5,89.5C 224.527,91.9479 224.194,94.6146 224.5,97.5C 224.328,98.4916 224.662,99.1583 225.5,99.5C 225.334,106.841 225.5,114.174 226,121.5C 233.253,116.79 240.42,111.957 247.5,107C 249.701,106.175 251.534,106.675 253,108.5C 253.667,123.167 253.667,137.833 253,152.5C 252.5,153 252,153.5 251.5,154C 219.167,154.667 186.833,154.667 154.5,154C 152.768,152.028 151.435,149.861 150.5,147.5C 152.5,148.5 154.5,149.5 156.5,150.5C 169.167,150.5 181.833,150.5 194.5,150.5C 194.5,141.167 194.5,131.833 194.5,122.5C 185.167,122.5 175.833,122.5 166.5,122.5C 166.573,120.973 165.906,119.973 164.5,119.5C 164.461,118.417 164.127,117.417 163.5,116.5C 173.992,115.833 184.326,115.167 194.5,114.5C 194.5,105.5 194.5,96.5 194.5,87.5C 184.75,87.8065 175.084,87.4732 165.5,86.5C 165.672,85.5084 165.338,84.8417 164.5,84.5C 164.5,83.8333 164.5,83.1667 164.5,82.5C 174.292,80.8425 184.292,79.8425 194.5,79.5C 194.5,70.5 194.5,61.5 194.5,52.5C 194.5,52.1667 194.5,51.8333 194.5,51.5C 194.918,50.7784 195.584,50.2784 196.5,50C 213.167,49.3333 229.833,49.3333 246.5,50C 230.372,51.0881 214.372,51.9214 198.5,52.5 Z"/></g>
<g><path style="opacity:1" fill="#827f7e" d="M 221.5,74.5 C 221.5,92.1667 221.5,109.833 221.5,127.5C 223.886,127.741 225.886,127.075 227.5,125.5C 227.5,126.5 227.5,127.5 227.5,128.5C 225.167,128.5 222.833,128.5 220.5,128.5C 220.17,110.326 220.503,92.3256 221.5,74.5 Z"/></g>
<g><path style="opacity:1" fill="#636262" d="M 269.5,89.5 C 270.498,119.329 270.831,149.329 270.5,179.5C 271.167,180.167 271.833,180.833 272.5,181.5C 271.5,181.5 270.5,181.5 269.5,181.5C 269.5,170.833 269.5,160.167 269.5,149.5C 269.5,129.5 269.5,109.5 269.5,89.5 Z"/></g>
<g><path style="opacity:1" fill="#d4d4d4" d="M 165.5,86.5 C 175.084,87.4732 184.75,87.8065 194.5,87.5C 194.5,96.5 194.5,105.5 194.5,114.5C 183.448,113.857 172.781,114.524 162.5,116.5C 161.596,115.791 161.263,114.791 161.5,113.5C 172.167,113.5 182.833,113.5 193.5,113.5C 193.5,105.167 193.5,96.8333 193.5,88.5C 183.773,89.1389 174.44,88.4722 165.5,86.5 Z"/></g>
<g><path style="opacity:1" fill="#4c4643" d="M 248.5,111.5 C 248.56,110.957 248.893,110.624 249.5,110.5C 250.825,123.994 250.825,137.327 249.5,150.5C 249.829,137.323 249.495,124.323 248.5,111.5 Z"/></g>
<g><path style="opacity:1" fill="#8c8988" d="M 194.5,114.5 C 184.326,115.167 173.992,115.833 163.5,116.5C 164.127,117.417 164.461,118.417 164.5,119.5C 163.094,119.027 162.427,118.027 162.5,116.5C 172.781,114.524 183.448,113.857 194.5,114.5 Z"/></g>
<g><path style="opacity:0.994" fill="#6d6c6c" d="M 225.5,89.5 C 229.5,89.5 233.5,89.5 237.5,89.5C 238.492,89.3284 239.158,89.6618 239.5,90.5C 234.833,90.5 230.167,90.5 225.5,90.5C 225.5,92.5 225.5,94.5 225.5,96.5C 234.167,96.5 242.833,96.5 251.5,96.5C 255.5,96.5 259.5,96.5 263.5,96.5C 263.5,123.833 263.5,151.167 263.5,178.5C 262.874,185.584 263.541,192.25 265.5,198.5C 265.5,198.833 265.5,199.167 265.5,199.5C 264.5,199.5 263.5,199.5 262.5,199.5C 262.5,165.5 262.5,131.5 262.5,97.5C 249.833,97.5 237.167,97.5 224.5,97.5C 224.194,94.6146 224.527,91.9479 225.5,89.5 Z"/></g>
<g><path style="opacity:1" fill="#b0afb0" d="M 166.5,122.5 C 175.833,122.5 185.167,122.5 194.5,122.5C 194.5,131.833 194.5,141.167 194.5,150.5C 181.833,150.5 169.167,150.5 156.5,150.5C 156.5,150.167 156.5,149.833 156.5,149.5C 168.833,149.5 181.167,149.5 193.5,149.5C 193.5,140.833 193.5,132.167 193.5,123.5C 184.318,123.827 175.318,123.493 166.5,122.5 Z"/></g>
<g><path style="opacity:1" fill="#cacaca" d="M 198.5,52.5 C 215.5,52.5 232.5,52.5 249.5,52.5C 249.829,65.6774 249.495,78.6774 248.5,91.5C 247.833,90.8333 247.167,90.1667 246.5,89.5C 248.479,77.8799 249.146,65.8799 248.5,53.5C 232.167,53.5 215.833,53.5 199.5,53.5C 199.5,85.5 199.5,117.5 199.5,149.5C 215.833,149.5 232.167,149.5 248.5,149.5C 248.829,136.989 248.495,124.655 247.5,112.5C 247.5,111.833 247.833,111.5 248.5,111.5C 249.495,124.323 249.829,137.323 249.5,150.5C 232.5,150.5 215.5,150.5 198.5,150.5C 198.5,117.833 198.5,85.1667 198.5,52.5 Z"/></g>
<g><path style="opacity:1" fill="#520c0a" d="M 237.5,89.5 C 233.5,89.5 229.5,89.5 225.5,89.5C 223.799,86.2979 224.799,84.2979 228.5,83.5C 232.133,84.8434 235.133,86.8434 237.5,89.5 Z"/></g>
<g><path style="opacity:1" fill="#b1b1b1" d="M 303.5,166.5 C 303.56,165.957 303.893,165.624 304.5,165.5C 305.167,171.319 305.833,176.986 306.5,182.5C 306.44,183.043 306.107,183.376 305.5,183.5C 304.833,177.681 304.167,172.014 303.5,166.5 Z"/></g>
<g><path style="opacity:1" fill="#766d6d" d="M 344.5,165.5 C 344.833,165.5 345.167,165.5 345.5,165.5C 341.167,170.167 336.833,174.833 332.5,179.5C 331.128,180.512 329.795,181.512 328.5,182.5C 326.917,180.492 325.917,178.159 325.5,175.5C 325.842,174.662 326.508,174.328 327.5,174.5C 327.201,176.604 327.534,178.604 328.5,180.5C 333.854,175.478 339.187,170.478 344.5,165.5 Z"/></g>
<g><path style="opacity:1" fill="#bcbcbc" d="M 355.5,156.5 C 355.5,160.167 355.5,163.833 355.5,167.5C 349.833,173.833 343.833,179.833 337.5,185.5C 337.167,185.5 336.833,185.5 336.5,185.5C 336.185,183.774 336.019,182.107 336,180.5C 338.429,179.971 340.262,178.637 341.5,176.5C 341.167,176.167 340.833,175.833 340.5,175.5C 338.358,177.905 335.691,179.238 332.5,179.5C 336.833,174.833 341.167,170.167 345.5,165.5C 347.583,161.082 350.916,158.082 355.5,156.5 Z"/></g>
<g><path style="opacity:1" fill="#c0c0c0" d="M 269.5,149.5 C 269.5,160.167 269.5,170.833 269.5,181.5C 270.5,181.5 271.5,181.5 272.5,181.5C 272.392,183.514 273.058,185.18 274.5,186.5C 271.01,185.603 268.844,183.27 268,179.5C 267.148,171.383 266.148,163.383 265,155.5C 264.829,163.344 264.329,171.011 263.5,178.5C 263.5,151.167 263.5,123.833 263.5,96.5C 259.5,96.5 255.5,96.5 251.5,96.5C 252.63,94.6854 253.296,92.6854 253.5,90.5C 258.5,90.5 263.5,90.5 268.5,90.5C 268.17,110.34 268.503,130.007 269.5,149.5 Z"/></g>
<g><path style="opacity:1" fill="#931316" d="M 344.5,165.5 C 339.187,170.478 333.854,175.478 328.5,180.5C 327.534,178.604 327.201,176.604 327.5,174.5C 332.336,170.917 337.336,167.417 342.5,164C 343.816,163.472 344.483,163.972 344.5,165.5 Z"/></g>
<g><path style="opacity:1" fill="#adacad" d="M 325.5,175.5 C 325.917,178.159 326.917,180.492 328.5,182.5C 327.791,183.404 326.791,183.737 325.5,183.5C 325.5,182.5 325.5,181.5 325.5,180.5C 322.614,180.61 320.28,181.777 318.5,184C 319.703,189.426 321.036,194.592 322.5,199.5C 322.5,199.833 322.5,200.167 322.5,200.5C 321.5,200.5 320.5,200.5 319.5,200.5C 319.826,196.116 319.492,191.783 318.5,187.5C 317.893,187.624 317.56,187.957 317.5,188.5C 316.5,190.167 315.167,191.5 313.5,192.5C 313.5,191.5 313.5,190.5 313.5,189.5C 311.167,189.5 308.833,189.5 306.5,189.5C 306.833,188.833 307.167,188.167 307.5,187.5C 313.148,183.007 319.148,179.007 325.5,175.5 Z"/></g>
<g><path style="opacity:1" fill="#9f9f9f" d="M 298.5,184.5 C 296.621,183.659 294.621,183.325 292.5,183.5C 292.806,186.385 292.473,189.052 291.5,191.5C 291.182,186.968 291.515,182.634 292.5,178.5C 297.926,176.619 299.926,178.619 298.5,184.5 Z"/></g>
<g><path style="opacity:1" fill="#6b1111" d="M 301.5,184.5 C 300.833,184.5 300.167,184.5 299.5,184.5C 299.5,181.833 299.5,179.167 299.5,176.5C 299.56,175.957 299.893,175.624 300.5,175.5C 301.484,178.428 301.817,181.428 301.5,184.5 Z"/></g>
<g><path style="opacity:1" fill="#d9dada" d="M 336.5,185.5 C 335.662,185.842 335.328,186.508 335.5,187.5C 333.5,190.167 331.167,192.5 328.5,194.5C 326.5,194.5 325.5,195.5 325.5,197.5C 323.973,197.427 322.973,198.094 322.5,199.5C 321.036,194.592 319.703,189.426 318.5,184C 320.28,181.777 322.614,180.61 325.5,180.5C 325.5,181.5 325.5,182.5 325.5,183.5C 326.791,183.737 327.791,183.404 328.5,182.5C 329.795,181.512 331.128,180.512 332.5,179.5C 335.691,179.238 338.358,177.905 340.5,175.5C 340.833,175.833 341.167,176.167 341.5,176.5C 340.262,178.637 338.429,179.971 336,180.5C 336.019,182.107 336.185,183.774 336.5,185.5 Z"/></g>
<g><path style="opacity:0.235" fill="#2b2724" d="M 336.5,185.5 C 336.833,185.5 337.167,185.5 337.5,185.5C 337.167,186.5 336.5,187.167 335.5,187.5C 335.328,186.508 335.662,185.842 336.5,185.5 Z"/></g>
<g><path style="opacity:1" fill="#e2e2e3" d="M 274.5,186.5 C 275.404,187.209 275.737,188.209 275.5,189.5C 271.564,191.766 268.231,194.766 265.5,198.5C 263.541,192.25 262.874,185.584 263.5,178.5C 264.329,171.011 264.829,163.344 265,155.5C 266.148,163.383 267.148,171.383 268,179.5C 268.844,183.27 271.01,185.603 274.5,186.5 Z"/></g>
<g><path style="opacity:1" fill="#af161b" d="M 299.5,184.5 C 300.167,184.5 300.833,184.5 301.5,184.5C 303.113,185.692 304.78,186.692 306.5,187.5C 304.203,189.294 302.037,191.294 300,193.5C 299.502,190.518 299.335,187.518 299.5,184.5 Z"/></g>
<g><path style="opacity:1" fill="#6b6462" d="M 299.5,176.5 C 299.5,179.167 299.5,181.833 299.5,184.5C 299.335,187.518 299.502,190.518 300,193.5C 302.037,191.294 304.203,189.294 306.5,187.5C 306.833,187.5 307.167,187.5 307.5,187.5C 307.167,188.167 306.833,188.833 306.5,189.5C 304.704,190.793 303.037,192.293 301.5,194C 300.552,194.483 299.552,194.649 298.5,194.5C 298.5,191.167 298.5,187.833 298.5,184.5C 299.926,178.619 297.926,176.619 292.5,178.5C 294.283,175.793 296.617,175.127 299.5,176.5 Z"/></g>
<g><path style="opacity:1" fill="#e0e1e1" d="M 298.5,184.5 C 298.5,187.833 298.5,191.167 298.5,194.5C 299.552,194.649 300.552,194.483 301.5,194C 303.037,192.293 304.704,190.793 306.5,189.5C 308.833,189.5 311.167,189.5 313.5,189.5C 313.5,190.5 313.5,191.5 313.5,192.5C 313.167,193.5 312.5,194.167 311.5,194.5C 310.5,194.833 309.833,195.5 309.5,196.5C 308.5,196.833 307.833,197.5 307.5,198.5C 306.833,199.833 305.833,200.833 304.5,201.5C 303.5,201.833 302.833,202.5 302.5,203.5C 301.167,204.167 300.167,205.167 299.5,206.5C 297.186,208.477 294.853,210.477 292.5,212.5C 291.503,205.532 291.17,198.532 291.5,191.5C 292.473,189.052 292.806,186.385 292.5,183.5C 294.621,183.325 296.621,183.659 298.5,184.5 Z"/></g>
<g><path style="opacity:0.027" fill="#272423" d="M 311.5,194.5 C 311.5,195.833 310.833,196.5 309.5,196.5C 309.833,195.5 310.5,194.833 311.5,194.5 Z"/></g>
<g><path style="opacity:0.118" fill="#2a2726" d="M 328.5,194.5 C 327.833,195.833 326.833,196.833 325.5,197.5C 325.5,195.5 326.5,194.5 328.5,194.5 Z"/></g>
<g><path style="opacity:0.529" fill="#3c3b3a" d="M 317.5,188.5 C 317.56,187.957 317.893,187.624 318.5,187.5C 319.492,191.783 319.826,196.116 319.5,200.5C 320.5,200.5 321.5,200.5 322.5,200.5C 321.739,201.391 320.739,202.058 319.5,202.5C 318.833,197.683 318.166,193.017 317.5,188.5 Z"/></g>
<g><path style="opacity:0.592" fill="#35312e" d="M 275.5,189.5 C 272.452,193.215 269.119,196.548 265.5,199.5C 265.5,199.167 265.5,198.833 265.5,198.5C 268.231,194.766 271.564,191.766 275.5,189.5 Z"/></g>
<g><path style="opacity:0.027" fill="#272423" d="M 309.5,196.5 C 309.5,197.833 308.833,198.5 307.5,198.5C 307.833,197.5 308.5,196.833 309.5,196.5 Z"/></g>
<g><path style="opacity:0.059" fill="#37322f" d="M 325.5,197.5 C 324.833,198.833 323.833,199.833 322.5,200.5C 322.5,200.167 322.5,199.833 322.5,199.5C 322.973,198.094 323.973,197.427 325.5,197.5 Z"/></g>
<g><path style="opacity:0.059" fill="#342e2b" d="M 304.5,201.5 C 304.5,202.833 303.833,203.5 302.5,203.5C 302.833,202.5 303.5,201.833 304.5,201.5 Z"/></g>
<g><path style="opacity:0.027" fill="#2b2725" d="M 302.5,203.5 C 302.5,205.5 301.5,206.5 299.5,206.5C 300.167,205.167 301.167,204.167 302.5,203.5 Z"/></g>
</svg>
