<svg height="152.23145" viewBox="0 0 443 152.23145" width="443" xmlns="http://www.w3.org/2000/svg"><g fill="#4566ff" transform="translate(-8 -8.768557)"><path d="m8 129 25.581-1.179 6.8187-14.821 16.6003-39h1v39c0 3.731-1.4234 11.302 1.0278 14.397 2.8777 3.633 16.4304 2.324 19.3349-.715 3.5959-3.762 5.5814-10.064 7.8842-14.682 5.4944-11.017 12.5105-23.1492 15.7531-35h1v35c0 4.155-1.268 10.878.603 14.682 2.128 4.324 21.645 4 23.079-.83 1.719-5.791.318-13.831.318-19.852v-43c0-6.4072 1.881-16.4963-2.514-21.7863-5.329-6.4143-19.357-5.6428-25.4428-.7947-8.9675 7.144-15.6669 25.125-20.0432 35.581-3.0416-10.2901 1.8156-27.0726-5.564-35.7215-5.8327-6.8358-22.5663-4.0558-27.1119 2.7655-8.716 13.0793-13.5945 29.5567-19.7516 43.956-5.8945 13.785-14.4308 27.623-18.5725 42m134-90c-.2 4.6656-3.953 15.5366-.968 19.3966 1.956 2.5301 7.195 1.6032 9.968 1.6034 7.184.0005 22.723-2.8987 28.567 1.858 4.138 3.3675 5.022 14.1056 5.433 19.142-3.007-3.4751-7.281-12.2146-12.09-13.0062-4.91-.8081-12.105 5.1253-15.91 7.6767-13.831 9.274-28.604 23.1741-20.867 41.3145 7.594 17.805 38.652 12.015 53.867 12.015 5.546 0 15.094 1.673 19.486-2.564 4.766-4.598 2.207-14.717 1.564-20.436-1.721-15.3212-3.493-30.912-6.711-46-1.486-6.9674-2.711-14.1286-9.343-18.142-12.777-7.7322-38.516-2.858-52.996-2.858m162 0c0 4.7176-2.368 18.8269 1.603 21.9722 3.851 3.0496 14.647 1.0278 19.397 1.0278v48c0 4.513-1.895 14.706 1.028 18.397 2.821 3.562 22.262 3.145 23.654-1.545 1.802-6.069.318-14.538.318-20.852v-44c4.75 0 15.546 2.0218 19.397-1.0278 3.971-3.1453 1.603-17.2546 1.603-21.9722zm71 0c0 27.0527 5.277 50.1204 35 57-6.136 13.942-20.223 11-33 11 0 5.132-2.249 17.259 1.028 21.397 2.233 2.819 8.821 1.603 11.972 1.603 12.451 0 23.77.974 32.895-9.004 5.507-6.021 7.318-13.672 10.388-20.996 7.637-18.2166 16.1-40.2037 17.717-60-5.415 0-19.153-2.4729-23.157 1.6034-7.226 7.3571-2.623 25.6036-11.782 31.4645-3.229 2.0661-8.673-2.2482-10.836-4.3966-6.733-6.6869-7.041-20.7519-7.225-29.6713zm-154 1v62c0 6.627-2.343 18.694.603 24.682 1.928 3.917 18.866 3.917 20.794 0 4.542-9.231.603-29.36.603-39.682h1c13.614 26.704 36.965 52.965 58 74h1l17-17v-1c-16.334-16.334-33.809-32.174-46-52 17.05-8.4817 41.735-38.2382 12-49.5972-6.71-2.5633-14.946-1.4028-22-1.4028zm22 44v-24c6.318 0 23.751-3.0276 28.381 1.7423 3.114 3.2076-.955 7.7931-3.425 9.868-6.737 5.6589-16.52 10.0824-24.956 12.3897m-57 0c.218 5.0885 5.02 19.311.397 22.972-3.565 2.823-27.53 2.832-27.53-3.081 0-9.5038 20.276-16.2829 27.133-19.891z"/><g stroke-width=".999997" transform="scale(.96454279 1.0367606)"><path d="m147.04458 32.531624h7.21218v-9.382506h6.41082l1.40237-5.375742h-7.81319v-3.806426h7.84658l1.50254-5.5093012h-16.5613z"/><path d="m162.9715 32.531624h7.07862l1.06847-11.819955c.0334-.367286.0334-.834742.0334-1.435757 0-.534235 0-1.13525-.0668-2.637786.13356.801353.26712 1.368978.3339 1.769654.20034 1.16864.36729 1.936603.46745 2.2705l3.67287 11.853344h5.37574l3.63948-11.853344c.16695-.333897.30051-1.10186.50085-2.2705.0668-.400676.16695-.968301.33389-1.769654-.0668 1.335588-.0668 2.003382-.0668 2.571007s0 1.10186.0334 1.502536l1.10186 11.819955h7.07862l-3.63946-24.0739752h-7.14539l-4.07355 12.9885942c-.20033.701184-.3005 1.368978-.43406 2.971683-.13356-1.702875-.23373-2.370669-.46746-2.971683l-4.07354-12.9885942h-7.1454z"/></g><g transform="scale(1.0017464 .99825663)"><path d="m198.76567 15.958971h5.15187v18.973074h7.6745v-18.973074h4.58338l1.91863-6.6441294h-19.1152z"/><path d="m216.81502 22.141208c0 7.603442 5.96905 13.288258 13.9278 13.288258 7.99427 0 13.89227-5.684816 13.89227-13.288258 0-7.567911-5.898-13.3237878-13.67909-13.3237878-8.17193 0-14.14098 5.6137558-14.14098 13.3237878zm13.9278-6.466478c3.51748 0 6.32435 2.842408 6.32435 6.466478 0 3.588541-2.80687 6.466479-6.32435 6.466479-3.55301 0-6.35989-2.877938-6.35989-6.466479 0-3.62407 2.80688-6.466478 6.35989-6.466478z"/><path d="m244.91936 9.3148416 7.4258 25.6172034h6.82178l2.98452-13.288258c.28425-1.243554.35531-1.918626.60402-5.933527.31977 4.157022.39083 4.689973.67507 5.933527l3.02006 13.288258h6.78625l7.46132-25.6172034h-7.3192l-3.02006 13.5014384c-.14212.746132-.21318 1.350144-.49742 4.583383-.10659-1.136963-.17765-2.025215-.21318-2.593697-.0711-.923783-.17765-1.634385-.28425-2.025216l-3.33982-13.4659084h-6.43095l-3.41089 13.4659084c-.0711.390831-.17765 1.101433-.21318 2.025216-.0711.568482-.10659 1.456734-.24871 2.593697-.10659-1.136963-.17765-2.025215-.24871-2.593697-.0711-.888253-.14213-1.563325-.24872-1.989686l-2.94899-13.5014384z"/><path d="m282.22596 34.932045h7.46132l-.14212-12.755307c-.0355-1.385674-.14212-2.344986-.60401-4.796563.17765.639542.39083 1.243553.53295 1.740975.49742 1.421204.95931 2.451577 1.38568 3.126649l8.13639 12.684246h7.78109v-25.6172034h-7.46132l.14212 13.0395474c.0355 1.492264.17765 2.522637.78166 5.009744-1.31461-3.73066-1.45673-4.014901-2.06074-5.009744l-8.20746-13.0395474h-7.74556z"/><path d="m308.98015 32.409408c2.30946 1.527794 3.33983 2.025216 5.25845 2.522637 1.27909.355301 2.5937.532952 3.83725.532952 5.93353 0 10.33926-3.908312 10.33926-9.095707 0-2.487107-1.0659-4.547853-2.91346-5.613756-.95932-.532951-1.66992-.817192-3.69513-1.385674l-2.06075-.532951c-1.63439-.461891-2.30946-1.030373-2.30946-1.954156 0-1.350144 1.1725-2.273926 2.84241-2.273926.85272 0 1.66992.24871 2.77135.639542.88825.390831 1.38567.675072 2.52264 1.385674l1.7765-5.436106c-1.84756-1.030373-2.62923-1.3501439-4.15702-1.7765051-1.31461-.2842408-2.52264-.4974214-3.73066-.4974214-5.57823 0-9.73525 3.6951305-9.73525 8.6693445 0 3.055589 1.63439 5.187395 4.76103 6.324358.71061.213181 1.91863.568482 3.51748.959313 1.81204.426361 2.45158.994843 2.45158 2.096276 0 1.421204-1.17249 2.380517-2.949 2.380517-1.10143 0-2.1318-.284241-3.44642-1.030373-.99484-.568482-1.52779-.959313-2.80688-2.025216z"/></g></g></svg>