<svg height="400.00003" viewBox="0 0 907.47231 1000.0001" width="362.98892" xmlns="http://www.w3.org/2000/svg"><g fill-rule="evenodd"><g clip-rule="evenodd" fill="#808080" transform="matrix(2.6933458 0 0 2.6933458 -18.427164 -1855.901871)"><path d="m22.861328 971.00977-26.8183592 71.79883 19.3515622.01 15-38.584 9.9375 38.5762h22.699219l-10.48027-39.6899 35.501754-32.10893h-23.21875l-32.96289 29.85153 10.630859-29.84568z" transform="matrix(.76491506 0 0 .76491506 15.916761 261.2935)"/><path d="m124.621 1013.3391c-.519-1.466-1.286-2.849-2.246-4.083-.961-1.234-2.115-2.32-3.411-3.198-1.295-.876-2.731-1.545-4.374-2.073-3.346-1.06-7.293-1.546-11.002-1.47-1.884.04-3.763999.222-5.985999.647-2.223.424-4.787 1.093-7.194 2.133-2.406 1.04-4.658 2.454-6.638 4.166-1.979 1.711-3.689 3.723-4.95 5.473-1.259 1.749-2.07 3.235-2.847 4.735-.775 1.5-1.519 3.013-2.199 4.554-1.309 3.049-2.523 6.002-3.47 8.863-.45 1.419-.801 2.87-1.056 4.337-.254 1.467-.41 2.95-.486 4.063-.076 1.114-.073 1.855-.033 2.596.038.74.111 1.479.208 2.215.094.74.212 1.478.627 2.663.414 1.186 1.123 2.815 2.119 4.262s2.278 2.705 3.74 3.696c1.463.991 3.104 1.716 4.973 2.242 3.787 1.051 8.239 1.362 12.411 1.114 2.111-.128 4.214-.411 6.515-.998 2.301999-.588 4.798999-1.485 7.098999-2.747 2.301-1.262 4.403-2.888 6.195-4.793 1.794-1.903 3.278-4.087 4.579-6.479 1.302-2.395 2.421-4.997 3.486-7.617 1.064-2.621 2.074-5.258 2.776-7.218.702-1.959 1.097-3.239 1.396-4.541.3-1.304.507-2.628.628-3.961.246-2.631.165-5.617-.86-8.581zm-14.493 8.159c-.803 2.99-1.606 5.979-2.579 8.915s-2.114 5.814-3.255 8.694c-.833 1.974-1.979 3.985-3.456 5.838-.980999 1.228-1.996999 2.083-3.115999 2.715-1.282.729-2.623 1.127-3.933 1.291-1.994.249-4.037-.049-5.644-.781-.876-.406-1.774-1.019-2.498-1.801-1.1-1.215-1.45-2.484-1.522-3.697-.065-1.378.098-2.752.445-4.084 1.639-6.465 4.068-12.897 7.456-19.232.462-.919 1.056-1.773 1.758-2.526.702-.754 1.516-1.408 2.404-1.927 1.823-1.042 3.659-1.506 5.210999-1.616 2.325-.12 4.795.083 6.782 1.759.599.518 1.097 1.15 1.463 1.851.365.701.598 1.471.679 2.256.084.785.015 1.583-.195 2.345z"/><path d="m160.66992 971.00977-26.28906 71.80663h18.32226l20.38184-56.15623.47949 56.15623h27.89258l26.80078-71.80663h-18.25195l-18.41875 54.74413-1.99531-54.74413z" transform="matrix(.76491506 0 0 .76491506 15.916761 261.2935)"/><path d="m214.62174 1048.0471-.99096 10.921h13.95922l.979-54.938h-19.324l-36.075 54.933h14.914l7.451-10.882zm1.94836-34.048-1.55955 22.988-12.17055.029z"/><g transform="matrix(.76491506 0 0 .76491506 15.916761 261.2935)"><path d="m306.93164 971.02344-26.82226 71.79106h18.28515l21.12207-56.2823-4.13086 56.2959h18.08301l36.5996-56.2959-21.37851 56.2881h17.84336l26.94922-71.791h-32.46094l-28.8039 50.631 6.80976-50.63686z"/><path d="m406.0957 971.02539-26.90234 71.79881h18.59961l27.16601-71.79881z"/></g></g><g fill="#00f" transform="matrix(2.2850091 0 0 2.2850091 -732.716616 -2234.462871)"><path d="m637.96998 977.8792-16.864 47.0075c-28.13595 72.6787-77.85015 58.2231-115.84632 70.0639-26.13605 8.1448-40.88182 35.687-51.88554 65.0164l-13.45269 41.8982h-119.25898l19.38353-53.8633c26.73975-67.6894 83.40155-50.6262 120.58358-68.3656 24.24736-11.5683 37.53582-35.4825 44.21696-60.4168l14.25706-41.3403z" fill="#ff7b18"/><path d="m399.73896 1311.1509 16.864-47.0075c28.13595-72.6787 76.78234-58.1843 114.26982-71.5485 26.38859-9.4075 39.16713-25.43 53.46204-63.5318l13.45269-41.8982h120.01659l-19.40148 52.9323c-35.08513 73.042-83.21828 49.6561-120.43038 67.3323-22.22705 10.5581-39.32154 40.3039-46.00268 65.2382l-13.3642 38.4832z" fill="#ff0018"/></g></g></svg>