<svg height="41.283787mm" viewBox="0 0 196.89782 45.964265" width="176.84799mm" xmlns="http://www.w3.org/2000/svg" xmlns:xlink="http://www.w3.org/1999/xlink"><linearGradient id="a"><stop offset="0" stop-color="#f20f37"/><stop offset="1" stop-color="#582e37"/></linearGradient><linearGradient id="b"><stop offset="0" stop-color="#fff" stop-opacity="0"/><stop offset="1" stop-color="#fff" stop-opacity=".61534"/></linearGradient><linearGradient id="c"><stop offset="0" stop-color="#fff"/><stop offset=".55442864" stop-color="#fff"/><stop offset="1" stop-color="#fff" stop-opacity="0"/></linearGradient><radialGradient id="d" cx="96.11483" cy="114.1216" gradientTransform="matrix(.00000186 .73242192 -3.1262755 .00000008 452.89044 44.125932)" gradientUnits="userSpaceOnUse" r="64.779228"><stop offset="0" stop-opacity="0"/><stop offset="1"/></radialGradient><linearGradient id="e" gradientUnits="userSpaceOnUse" x1="22.065775" x2="187.04156" y1="93.730896" y2="93.730896"><stop offset="0" stop-color="#fff"/><stop offset=".34454054" stop-color="#fff"/><stop offset="1" stop-color="#b3b3b3"/></linearGradient><radialGradient id="f" cx="193.31343" cy="208.91789" gradientTransform="matrix(.00014289 -.43732467 1.9957455 .0006521 -223.66093 219.92935)" gradientUnits="userSpaceOnUse" r="95.522911"><stop offset="0" stop-color="#4d4d4d"/><stop offset=".59300178" stop-color="#808080"/><stop offset="1" stop-color="#b3b3b3"/></radialGradient><linearGradient id="g" gradientUnits="userSpaceOnUse" x1="2.674802" x2="2.674802" y1="135.04584" y2="105.52062"><stop offset="0" stop-color="#b3b3b3"/><stop offset=".1634059" stop-color="#fff"/><stop offset="1" stop-color="#fff"/></linearGradient><linearGradient id="h" gradientTransform="matrix(.97756902 0 0 1 3.456978 -.110581)" gradientUnits="userSpaceOnUse" x1="180.05443" x2="180.05443" xlink:href="#c" y1="108.04574" y2="109.74828"/><linearGradient id="i" gradientTransform="matrix(.97756902 0 0 1 3.377346 8.057324)" gradientUnits="userSpaceOnUse" x1="180.05443" x2="180.05443" xlink:href="#c" y1="108.04574" y2="109.74828"/><linearGradient id="j" gradientUnits="userSpaceOnUse" x1="88.710281" x2="86.560562" xlink:href="#b" y1="74.852699" y2="67.426949"/><linearGradient id="k" gradientTransform="matrix(.28155413 0 0 .28076131 -20.076967 90.111218)" gradientUnits="userSpaceOnUse" x1="88.710281" x2="86.560562" xlink:href="#b" y1="74.852699" y2="67.426949"/><linearGradient id="l" gradientTransform="matrix(.28155413 0 0 .28076131 -6.460493 90.111218)" gradientUnits="userSpaceOnUse" x1="88.710281" x2="86.560562" xlink:href="#b" y1="74.852699" y2="67.426949"/><linearGradient id="m" gradientTransform="matrix(.28155413 0 0 .28076131 -13.305192 96.902756)" gradientUnits="userSpaceOnUse" x1="88.710281" x2="86.560562" xlink:href="#b" y1="74.852699" y2="67.426949"/><linearGradient id="n" gradientUnits="userSpaceOnUse" x1="102.25833" x2="106.72227" xlink:href="#a" y1="-10.476446" y2="-13.148732"/><linearGradient id="o" gradientUnits="userSpaceOnUse" x1="16.818363" x2="20.005611" xlink:href="#a" y1="109.40208" y2="113.49065"/><linearGradient id="p" gradientUnits="userSpaceOnUse" x1="3.666797" x2="4.892009" xlink:href="#a" y1="109.02969" y2="114.50254"/><linearGradient id="q" gradientUnits="userSpaceOnUse" x1="116.20095" x2="120.51576" y1="-9.986026" y2="-12.87028"><stop offset="0" stop-color="#f20f37"/><stop offset="1" stop-color="#0b2e37"/></linearGradient><g fill="#fff" fill-opacity=".5" stroke-width=".66145" transform="translate(1.58971 -93.041962)"><path d="m142.17152 93.256272q0 .0635-.0153.10689-.0228.06456-.073.06456-.0333 0-.0699-.01535-.0439-.01852-.0481-.04551.0148 0 .0349.0053.0466.01217.0582.01217.045 0 .0677-.04498.018-.03598.018-.08625 0-.03545-.0233-.10107-.0228-.06615-.0228-.09207 0-.0079.004-.0127.005-.0053.0127-.0053.0206 0 .0402.09525.0164.08043.0164.119061z"/><path d="m142.37525 93.310246q0 .05397-.0312.08467-.0312.03069-.0863.03069-.0302 0-.0466-.01429-.0164-.01429-.0164-.04392 0-.0418.0545-.08414.0519-.04022.0958-.04022.0201 0 .0265.02487.004.01429.004.04233zm-.0323.01482q0-.0063-.002-.01217-.001-.0064-.004-.01429-.008.0058-.0281.02857-.0101.01164-.0175.01693 0-.01005.002-.0164.004-.009.007-.01534-.0233 0-.0487.01958-.0249.01958-.0249.04233 0 .01534.0169.01534.0323 0 .0624-.01587.0365-.01905.0365-.04868z"/><path d="m142.59326 93.331942q0 .02593-.0196.05821-.0222.03651-.046.03651-.007 0-.0117-.0074-.004-.0079-.004-.01535 0-.0095.0201-.02963.0206-.02064.0206-.02805 0-.0048-.002-.0095-.002-.0048-.002-.0063-.0397.009-.081.04551-.0407.03651-.0619.04127-.004-.01164-.004-.02381 0-.01482.007-.03122.005-.01164.0159-.02805.0185-.02805.0392-.0635.0106-.01852.0365-.06403.0265-.04551.0386-.06456.006-.0095.0111-.01429.007-.0063.0164-.0085.006.0021.009.0079.003.0058.003.01376 0 .01799-.0233.04868-.0423.05503-.0434.05715-.0238.03598-.0238.06509l.001.0053q.0291-.01429.0344-.0164.0217-.009.037-.009.0169 0 .0249.01164.008.01111.008.02858z"/><path d="m142.83879 93.300721q0 .03598-.0175.07673-.019.04498-.0471.06191-.006-.0069-.01-.01535-.004-.0085-.004-.01693 0-.009.0265-.05344.0116-.01958.0106-.0344l-.00053-.0069q-.0196.0058-.0677.03545-.0476.0291-.0963.05926-.007 0-.0138-.0053-.006-.0058-.006-.0127 0-.01111.0354-.07461.0106-.01905.0381-.06615.008.01111.0111.02487.003.01323.003.03175 0 .0079 0 .01217.0487-.0291.0762-.04392.0302-.0164.0413-.0164.007 0 .0137.01693.007.01693.007.02699z"/><path d="m143.29863 93.403378q0 .0095-.008.01482-.008.0048-.018.0048-.009 0-.0228-.0021-.0312-.0048-.0402-.0048-.0159 0-.0624.0037-.0265.0021-.0381.0021-.0323 0-.0323-.03228 0-.03069.0201-.08784.0111-.03228.0418-.105832.0275-.06615.0349-.09313.003-.0085.004-.01111.004-.0063.0106-.0063.0101 0 .0169.01482.007.01429.007.02593 0 .01852-.0217.06244-.0217.04339-.0423.08519-.0228.04974-.0228.07567 0 .01323.0111.01852.008.0037.0233.0037.0116 0 .0402-.0026.0286-.0032.0381-.0032.0238 0 .0392.0069.0217.0095.0217.03069z"/><path d="m143.49548 93.310246q0 .05397-.0312.08467-.0312.03069-.0863.03069-.0302 0-.0466-.01429-.0164-.01429-.0164-.04392 0-.0418.0545-.08414.0519-.04022.0958-.04022.0201 0 .0265.02487.004.01429.004.04233zm-.0323.01482q0-.0063-.002-.01217-.001-.0064-.004-.01429-.008.0058-.0281.02857-.0101.01164-.0175.01693 0-.01005.002-.0164.004-.009.007-.01534-.0233 0-.0487.01958-.0249.01958-.0249.04233 0 .01534.0169.01534.0323 0 .0624-.01587.0365-.01905.0365-.04868z"/><path d="m143.71826 93.299134q0 .01693-.009.03598-.008.01905-.0217.03175l-.00052-.0074q0-.0063.002-.01958.002-.01323.002-.01958 0-.009-.003-.01323-.003-.0048-.0111-.0048-.0249 0-.0619.03863-.0402.04233-.0799.08414-.003 0-.006-.000529-.008-.0021-.0106-.0026.002-.01905.0132-.04233.0312-.06297.0323-.0672.004-.01693.006-.02487.002-.0079.006-.0164.004-.009.01-.01587.006-.0074.0148-.01111l.005.0635q.0228-.01852.0349-.02857.0233-.01852.0402-.01852.0169 0 .0275.01111.0106.01111.0106.02752z"/><path d="m143.97807 93.237751q0 .02222-.0593.05874-.0572.03493-.0831.03493-.0122 0-.0164-.0085-.004-.0085-.004-.02381 0-.01005 0-.01429.0355 0 .0646-.01058.0291-.01058.0508-.03492-.0159-.0058-.0323-.0058-.0386 0-.082.02963-.0476.03228-.0476.06879 0 .03492.0476.04868.007.0021.0894.01482.0481.0074.0481.02593 0 .0079-.0175.0127-.0175.0053-.0445.0053-.0677 0-.10689-.02064-.0519-.02752-.0519-.08837 0-.0635.0635-.101069.054-.03175.12277-.03175.0206 0 .0376.0095.0206.01164.0206.03069z"/><path d="m144.18868 93.143032q0 .01164-.0281.04868-.028.03704-.028.05662 0 .01005.0116.02011.0265.02328.0265.02857 0 .0069-.005.01323-.004.0063-.0111.0063-.006 0-.0164-.0063-.007-.0042-.0286-.02064-.008.01535-.0122.02328-.0148.02804-.0201.04075-.008.02434-.0159.04868-.0138.03281-.0344.03281l-.00053-.01217q0-.03757.0243-.0889.005-.0095.0265-.04921-.0418-.02275-.0921-.02275 0-.01958.008-.02857.008-.0095.0281-.0095.018 0 .045.0064.0132.0032.0265.0063.0101-.0032.0275-.0344.0429-.07514.0582-.08625.004.0069.007.01376.003.0069.003.01323z"/><path d="m144.38394 93.331942q0 .02593-.0196.05821-.0222.03651-.046.03651-.007 0-.0116-.0074-.004-.0079-.004-.01535 0-.0095.0201-.02963.0206-.02064.0206-.02805 0-.0048-.002-.0095-.002-.0048-.002-.0063-.0397.009-.081.04551-.0408.03651-.0619.04127-.004-.01164-.004-.02381 0-.01482.007-.03122.005-.01164.0159-.02805.0185-.02805.0392-.0635.0106-.01852.0365-.06403.0265-.04551.0386-.06456.006-.0095.0111-.01429.007-.0063.0164-.0085.006.0021.009.0079.003.0058.003.01376 0 .01799-.0233.04868-.0423.05503-.0434.05715-.0238.03598-.0238.06509l.001.0053q.0291-.01429.0344-.0164.0217-.009.037-.009.0169 0 .0249.01164.008.01111.008.02858z"/><path d="m144.81838 93.159436q0 .02487-.0265.06667-.0169.02646-.0556.0762-.0386.04921-.0481.06456.002.000529.0397.0127.0386.01164.0386.04233-.0159.0026-.0312.0048l-.006-.000529v-.0042q-.008-.0021-.0138-.0021-.0101 0-.0317.0032-.0217.0032-.0328.0032-.0143 0-.0233-.0053-.009-.0053-.009-.01905 0-.01111.0407-.06297.0762-.09684.0767-.09789.0413-.05609.0413-.07514 0-.0074-.005-.01111-.005-.0037-.0196-.0037-.0101 0-.0418.01958-.0153.0095-.0249.0095l-.009-.0016q-.003-.0021-.007-.0079-.004-.0063-.004-.01005 0-.02223.0429-.04075.0365-.01587.0635-.01587.0228 0 .0349.01693.0106.01482.0106.03863z"/><path d="m145.13641 93.254684q0 .06403-.0693.113241-.0635.04498-.13071.04498-.0333 0-.0529-.01693-.0196-.01693-.0196-.04921 0-.07197.063-.124882.0598-.05027.13388-.05027.0376 0 .0566.02223.0191.02222.0191.06085zm-.0323.01217q0-.02434-.0275-.03651-.0206-.009-.0492-.009-.0418 0-.0873.04075-.0455.04075-.0455.08202 0 .01693.008.02434.009.0069.027.0069.0519 0 .10795-.02858.0661-.03387.0661-.0799z"/><path d="m145.37876 93.159436q0 .02487-.0265.06667-.0169.02646-.0556.0762-.0386.04921-.0481.06456.002.000529.0397.0127.0386.01164.0386.04233-.0159.0026-.0312.0048l-.006-.000529v-.0042q-.008-.0021-.0138-.0021-.0101 0-.0317.0032-.0217.0032-.0328.0032-.0143 0-.0233-.0053-.009-.0053-.009-.01905 0-.01111.0407-.06297.0762-.09684.0767-.09789.0413-.05609.0413-.07514 0-.0074-.005-.01111-.005-.0037-.0196-.0037-.0101 0-.0418.01958-.0153.0095-.0249.0095l-.009-.0016q-.003-.0021-.007-.0079-.004-.0063-.004-.01005 0-.02223.0429-.04075.0365-.01587.0635-.01587.0228 0 .0349.01693.0106.01482.0106.03863z"/><path d="m145.62218 93.159436q0 .02487-.0265.06667-.0169.02646-.0556.0762-.0386.04921-.0482.06456.002.000529.0397.0127.0386.01164.0386.04233-.0159.0026-.0312.0048l-.006-.000529v-.0042q-.008-.0021-.0138-.0021-.0101 0-.0317.0032-.0217.0032-.0328.0032-.0143 0-.0233-.0053-.009-.0053-.009-.01905 0-.01111.0407-.06297.0762-.09684.0767-.09789.0413-.05609.0413-.07514 0-.0074-.005-.01111-.005-.0037-.0196-.0037-.01 0-.0418.01958-.0153.0095-.0249.0095l-.009-.0016q-.003-.0021-.007-.0079-.004-.0063-.004-.01005 0-.02223.0429-.04075.0365-.01587.0635-.01587.0228 0 .0349.01693.0106.01482.0106.03863z"/></g><g transform="translate(1.58971 -92.745225)"><rect fill-opacity=".763263" height="41.803635" opacity=".98" rx="6.14989" width="194.25201" x="1.05609" y="96.905853"/><rect fill="#e6e6e6" height="41.803635" opacity=".98" rx="6.14989" width="194.25201" x="-1.06055" y="93.730896"/><g stroke-linecap="round" stroke-linejoin="round"><rect fill="#919e90" height="27.661242" opacity=".98" rx="1.859701" stroke="#010000" stroke-width=".26458" width="129.29387" x="31.418531" y="100.80209"/><rect fill="url(#d)" height="27.661242" opacity=".98" rx="1.859701" stroke="#010000" stroke-width=".26458" width="129.29387" x="31.418531" y="100.80209"/><path d="m2.6748023 135.04584c-2.20007263-.93497-3.735352-3.1122-3.735352-5.6612v-23.99335" fill="none" opacity=".98" stroke="url(#g)" stroke-width="1.05832"/><path d="m187.04157 93.730896c3.40704 0 6.14989 2.742851 6.14989 6.14989v29.503854c0 3.40704-2.74285 6.14989-6.14989 6.14989h-181.9522298c-.8580397 0-1.6739533-.17397-2.4145379-.48869" fill="none" opacity=".98" stroke="url(#f)" stroke-width="1.05832"/><path d="m22.065774 93.730896h164.975796" fill="none" opacity=".98" stroke="url(#e)" stroke-width="1.05832"/><path d="m-1.0605497 105.39129v-5.510504c0-3.407039 2.7428509-6.14989 6.1498899-6.14989h16.9764338" fill="none" opacity=".98" stroke="#fff" stroke-width="1.05832"/></g></g><g stroke-linecap="round" stroke-width=".908463" transform="matrix(1.1001701 0 0 1.1013498 -15.060474 -103.532183)"><ellipse cx="174.72408" cy="113.79567" fill="#461862" opacity=".98" rx="10.683316" ry="10.702008" stroke="#000" stroke-linejoin="round" stroke-width=".120181"/><rect fill="#f2464e" height="3.850719" opacity=".98" rx="2.201512" ry="2.199154" stroke="#000" stroke-linejoin="round" stroke-width=".120181" width="13.299639" x="168.30295" y="116.06085"/><path d="m170.45526 116.14572 9.00518-.0184c.46555-.00095.91202.20189.91202.20189.30181.36865-.61756.68185-1.08145.72082l-8.56851.71987c-.46391.039-1.75707-.40824-1.73471-.88392.0274-.58141 1.00194-.73933 1.46747-.74028z" fill="url(#i)" opacity=".427215" stroke-width="1.05832"/><rect fill="#f2464e" height="3.850719" opacity=".98" rx="2.201512" ry="2.199154" stroke="#000" stroke-linejoin="round" stroke-width=".120181" width="13.299639" x="168.30295" y="107.82855"/><path d="m170.41246 107.92494h9.35097c.46555 0 .68866.23647.68866.23647.30181.36865-.49947.7554-.9637.79016l-8.68626.65053c-.46424.0348-1.75707-.40824-1.73471-.88392.0274-.58141.87951-.79324 1.34504-.79324z" fill="url(#h)" opacity=".427215" stroke-width="1.05832"/></g><g stroke-width="1.06266" transform="matrix(.93971272 0 0 .94236629 7.055116 -83.364072)"><g stroke-linecap="round" stroke-linejoin="round" stroke-width=".140579"><circle cx="-11.608199" cy="111.58606" fill="#461862" opacity=".98" r="12.507576" stroke="#000" transform="scale(-1 1)"/><path d="m11.448857 102.20588c-1.341813 0-2.4222164 1.0804-2.4222164 2.42221v4.37136h-4.370886c-1.341813 0-2.422216 1.07993-2.422216 2.42174v.17711c0 1.34181 1.080403 2.42222 2.422216 2.42222h4.370886v4.37135c0 1.34182 1.0804034 2.42175 2.4222164 2.42175h.177109c1.341812 0 2.422215-1.07993 2.422215-2.42175v-4.37135h4.371356c1.341813 0 2.421746-1.08041 2.421746-2.42222v-.17711c0-1.34181-1.079933-2.42174-2.421746-2.42174h-4.371356v-4.37136c0-1.34181-1.080403-2.42221-2.422215-2.42221z" fill="#f2464e" opacity=".98" stroke="#f22e36"/><circle cx="18.344666" cy="111.497" fill="#f2464e" opacity=".98" r="2.693801" stroke="url(#o)"/></g><path d="m18.408653 108.96058a2.6938005 2.6938009 0 0 0 -2.362964 1.40436 1.668806 2.3054172 63.510394 0 0 1.018433.82528 1.668806 2.3054172 63.510394 0 0 2.993163-1.27988 1.668806 2.3054172 63.510394 0 0 .141327-.26869 2.6938005 2.6938009 0 0 0 -1.789959-.68107z" fill="url(#l)" opacity=".98"/><circle cx="4.735045" cy="111.497" r="2.693801" style="opacity:.98;fill:#f2464e;stroke-width:.140579;stroke-linecap:round;stroke-linejoin:round;stroke:url(#p)"/><path d="m4.7921779 108.96058a2.6938005 2.6938009 0 0 0 -2.3629652 1.40436 1.668806 2.3054172 63.510394 0 0 1.0184336.82528 1.668806 2.3054172 63.510394 0 0 2.9931645-1.27988 1.668806 2.3054172 63.510394 0 0 .141327-.26869 2.6938005 2.6938009 0 0 0 -1.7899599-.68107z" fill="url(#k)" opacity=".98"/><ellipse cx="104.81028" cy="-11.539585" rx="2.693801" ry="2.6938" style="opacity:.98;fill:#f2464e;stroke-width:.140579;stroke-linecap:round;stroke-linejoin:round;stroke:url(#n)" transform="matrix(0 1 -1 0 0 -.125373)"/><path d="m88.328125 67.136719a9.5676113 9.5946301 0 0 0 -8.392578 5.001953 5.9405024 8.192813 63.302834 0 0 3.617187 2.939453 5.9405024 8.192813 63.302834 0 0 10.63086-4.558594 5.9405024 8.192813 63.302834 0 0 .501953-.957031 9.5676113 9.5946301 0 0 0 -6.357422-2.425781z" fill="url(#j)" opacity=".98" transform="matrix(.28155413 0 0 .28076131 -13.329559 83.141496)"/><ellipse cx="118.20868" cy="-11.539585" rx="2.693905" ry="2.6938" style="opacity:.98;fill:#f2464e;stroke-width:.140579;stroke-linecap:round;stroke-linejoin:round;stroke:url(#q)" transform="matrix(0 1 -1 0 0 .1123)"/><path d="m11.563956 115.75208a2.6938005 2.6938009 0 0 0 -2.3629651 1.40436 1.668806 2.3054172 63.510394 0 0 1.0184341.82528 1.668806 2.3054172 63.510394 0 0 2.993163-1.27988 1.668806 2.3054172 63.510394 0 0 .141327-.26869 2.6938005 2.6938009 0 0 0 -1.789959-.68107z" fill="url(#m)" opacity=".98"/></g><g stroke-width=".66145" transform="translate(1.58971 -92.745225)"><g><path d="m61.292992 109.56773h-1.773922v-1.79386h1.773922zm-2.013102 0h-1.793853v-1.79386h1.793853zm2.013102 2.0131h-1.773922v-1.77392h1.773922zm-2.013102 0h-1.793853v-1.77392h1.793853zm2.013102 2.03303h-1.773922v-1.79385h1.773922zm-2.013102 0h-1.793853v-1.79385h1.793853zm2.013102 2.0131h-1.773922v-1.77392h1.773922zm-2.013102 0h-1.793853v-1.77392h1.793853zm2.013102 2.0131h-1.773922v-1.77392h1.773922zm-2.013102 0h-1.793853v-1.77392h1.793853zm2.013102 2.03304h-1.773922v-1.79385h1.773922zm-2.013102 0h-1.793853v-1.79385h1.793853zm0 2.0131h-1.793853v-1.77392h1.793853zm-2.033033 0h-1.773922v-1.77392h1.773922zm-2.013102 0h-1.793853v-1.77392h1.793853z"/><path d="m71.278778 113.61386h-1.773921v-1.79385h1.773921zm2.013102 2.0131h-1.773922v-1.77392h1.773922zm-4.026204-2.0131h-1.793853v-1.79385h1.793853zm2.013102 2.0131h-1.773921v-1.77392h1.773921zm2.013102 2.0131h-1.773922v-1.77392h1.773922zm-6.059237-4.0262h-1.773921v-1.79385h1.773921zm6.059237 6.05924h-1.773922v-1.79385h1.773922zm-2.013102-2.03304h-1.773921v-1.77392h1.773921zm-4.046135-2.0131h-1.773921v-1.77392h1.773921zm4.046135 4.04614h-1.773921v-1.79385h1.773921zm-6.059237-4.04614h-1.793853v-1.77392h1.793853zm2.013102 2.0131h-1.773921v-1.77392h1.773921zm4.046135 4.04614h-1.773921v-1.77392h1.773921zm-4.046135-2.0131h-1.773921v-1.79385h1.773921zm2.033033 2.0131h-1.793853v-1.77392h1.793853zm-4.046135-4.04614h-1.793853v-1.77392h1.793853zm0 2.03304h-1.793853v-1.79385h1.793853zm2.013102 2.0131h-1.773921v-1.77392h1.773921z"/><path d="m83.217885 113.61386h-1.773921v-1.79385h1.773921zm-2.013102 0h-1.793853v-1.79385h1.793853zm-2.033033 0h-1.773921v-1.79385h1.773921zm0 2.0131h-1.773921v-1.77392h1.773921zm-2.013102 0h-1.793853v-1.77392h1.793853zm2.013102 2.0131h-1.773921v-1.77392h1.773921zm4.046135 4.04614h-1.773921v-1.77392h1.773921zm-4.046135-2.0131h-1.773921v-1.79385h1.773921zm2.033033 2.0131h-1.793853v-1.77392h1.793853zm-4.046135-4.04614h-1.793853v-1.77392h1.793853zm0 2.03304h-1.793853v-1.79385h1.793853zm2.013102 2.0131h-1.773921v-1.77392h1.773921z"/><path d="m93.084066 113.61386h-1.773921v-1.79385h1.773921zm-2.013101 0h-1.793853v-1.79385h1.793853zm-2.033034 0h-1.773921v-1.79385h1.773921zm4.046135 4.0262h-1.773921v-1.77392h1.773921zm-4.046135-2.0131h-1.773921v-1.77392h1.773921zm2.033034 2.0131h-1.793853v-1.77392h1.793853zm2.013101 2.03304h-1.773921v-1.79385h1.773921zm-2.013101 0h-1.793853v-1.79385h1.793853zm-4.046135-4.04614h-1.793853v-1.77392h1.793853zm2.013101 2.0131h-1.773921v-1.77392h1.773921zm2.033034 4.04614h-1.793853v-1.77392h1.793853zm-4.046135-4.04614h-1.793853v-1.77392h1.793853zm2.013101 4.04614h-1.773921v-1.77392h1.773921zm-2.013101 0h-1.793853v-1.77392h1.793853z"/></g><g><path d="m103.76068 109.56773h-1.77392v-1.79386h1.77392zm-2.0131 0h-1.793855v-1.79386h1.793855zm2.0131 2.0131h-1.77392v-1.77392h1.77392zm-2.0131 0h-1.793855v-1.77392h1.793855zm2.0131 2.03303h-1.77392v-1.79385h1.77392zm-2.0131 0h-1.793855v-1.79385h1.793855zm2.0131 2.0131h-1.77392v-1.77392h1.77392zm6.05924 6.05924h-1.77392v-1.77392h1.77392zm-8.07234-6.05924h-1.793855v-1.77392h1.793855zm2.0131 2.0131h-1.77392v-1.77392h1.77392zm4.04614 4.04614h-1.77393v-1.77392h1.77393zm-4.04614-2.0131h-1.77392v-1.79385h1.77392zm2.03303 2.0131h-1.79385v-1.77392h1.79385zm-4.04613-4.04614h-1.793855v-1.77392h1.793855zm0 2.03304h-1.793855v-1.79385h1.793855zm2.0131 2.0131h-1.77392v-1.77392h1.77392zm-2.0131 0h-1.793855v-1.77392h1.793855z"/><path d="m123.97142 109.56773h-1.79385v-1.79386h1.79385zm-2.03303 0h-1.77392v-1.79386h1.77392zm-2.0131 0h-1.77392v-1.79386h1.77392zm-2.0131 0h-1.79386v-1.79386h1.79386zm0 2.0131h-1.79386v-1.77392h1.79386zm-2.03304 0h-1.77392v-1.77392h1.77392zm0 2.03303h-1.77392v-1.79385h1.77392zm-2.0131 0h-1.79385v-1.79385h1.79385zm2.0131 2.0131h-1.77392v-1.77392h1.77392zm8.09227 6.13897h-1.79385v-1.79386h1.79385zm-6.05923-2.09283h-1.79386v-1.79385h1.79386zm-4.04614-4.04614h-1.79385v-1.77392h1.79385zm2.0131 2.0131h-1.77392v-1.77392h1.77392zm6.05924 4.12587h-1.77392v-1.79386h1.77392zm-6.05924-2.09283h-1.77392v-1.79385h1.77392zm2.03304 2.0131h-1.79386v-1.77392h1.79386zm-4.04614-4.04614h-1.79385v-1.77392h1.79385zm6.05924 4.12587h-1.77392v-1.79386h1.77392z"/><path d="m135.99024 109.56773h-1.79385v-1.79386h1.79385zm2.0131 2.0131h-1.77392v-1.77392h1.77392zm2.03304 2.03303h-1.79386v-1.79385h1.79386zm-6.07917-4.04613h-1.77392v-1.79386h1.77392zm2.03303 2.0131h-1.79385v-1.77392h1.79385zm2.0131 2.03303h-1.77392v-1.79385h1.77392zm2.03304 2.0131h-1.79386v-1.77392h1.79386zm-8.09227-6.05923h-1.77392v-1.79386h1.77392zm6.05923 6.05923h-1.77392v-1.77392h1.77392zm2.03304 2.0131h-1.79386v-1.77392h1.79386zm-10.10537-8.07233h-1.79386v-1.79386h1.79386zm8.07233 8.07233h-1.77392v-1.77392h1.77392zm-10.10537-8.07233h-1.77392v-1.79386h1.77392zm2.03304 2.0131h-1.79386v-1.77392h1.79386zm8.07233 8.09227h-1.77392v-1.79385h1.77392zm-10.10537-8.09227h-1.77392v-1.77392h1.77392zm2.03304 2.03303h-1.79386v-1.79385h1.79386zm6.05923 6.05924h-1.79385v-1.79385h1.79385zm-8.09227-6.05924h-1.77392v-1.79385h1.77392zm2.03304 2.0131h-1.79386v-1.77392h1.79386zm6.05923 6.05924h-1.79385v-1.77392h1.79385zm-8.09227-6.05924h-1.77392v-1.77392h1.77392zm2.03304 2.0131h-1.79386v-1.77392h1.79386zm4.0262 4.04614h-1.77392v-1.77392h1.77392zm-4.0262-2.0131h-1.79386v-1.79385h1.79386zm-2.03304-2.03304h-1.77392v-1.77392h1.77392zm4.04614 4.04614h-1.77392v-1.77392h1.77392zm-4.04614-2.0131h-1.77392v-1.79385h1.77392zm2.03304 2.0131h-1.79386v-1.77392h1.79386zm-2.03304 0h-1.77392v-1.77392h1.77392z"/></g></g></svg>