<svg enable-background="new 0 -0.001 566.929 157.78" height="157.71411" viewBox="0 -.001 465.45087 110.39988" width="664.92981" xmlns="http://www.w3.org/2000/svg"><g transform="translate(-41.550373 -18.358464)"><text fill="#ef00eb" font-family="TrasksHand" font-size="1.4" stroke="#0105ff" stroke-width="1.75" transform="matrix(.98222257 -.18772009 .18772009 .98222257 0 0)" x="64.399719" y="103.01772"><tspan fill="#fafafa" fill-opacity=".4" font-size="1.4" stroke="none" stroke-width="1.75" x="64.399719" y="103.01772">John Loreth 2022</tspan></text><g stroke-linecap="round"><path d="m42.274869 37.272079c12.027703-11.201753 31.215604-17.46773 42.274374-18.906398.547653-.07125.992909.329095.992909.88138l-.000001 62.353392c0 .552285-.44056 1.079748-.983358 1.181671-18.643517 3.500738-30.502856 8.969619-42.15554 16.060395-.471785.287086-.85288.07433-.85288-.477954v-59.403235c0-.552285.32035-1.312857.724496-1.689251z" fill="#3362ba"/><path d="m92.642578 33.753906v52.486328c0 .552285-.43952 1.080273-.982422 1.181641-21.489385 4.012376-35.532924 10.200326-48.980468 18.158205.0368.49233.476491.85474.966796.79687l68.058596-10.009762c.56759-.08327.98779-.570873.98633-1.144532l-.2168-62.919922c-.001-.531599-.4689-.941373-.99609-.873046l-17.740239 2.28125c-.364313.03222-.729986.04656-1.095703.04297z" fill="#ef8b0f" fill-opacity=".941176" transform="translate(0 -.001)"/><path d="m99.573358 116.18548-57.705248-6.08185a.10395782.10395782 90.081448 0 1 .000294-.2068l57.70466-5.91594a.90272043.90272043 42.073212 0 1 .994786.89801v10.41139a.90014377.90014377 138.00824 0 1 -.994492.89519z" fill="#4a994f" transform="translate(0 -.001)"/><path d="m76.886543 128.70791-34.782064-14.18918a.12595048.12595048 105.01413 0 1 .06475-.24139l34.588502 4.75987a1.1545506 1.1545506 48.732578 0 1 .997128 1.13631l.05114 7.91213a.66738234.66738234 145.91121 0 1 -.919454.62226z" fill="#3362ba"/><path d="m139.7957 108.44533h357.64689l4.13926 5.10435h-357.64552z" fill="#3362ba"/><path d="m145.21509 115.9095h357.64689l4.13926 5.10435h-357.64552z" fill="#d4d0ce"/></g><g fill="#666" stroke-width="2.5" transform="scale(1.0883046 .9188604)"><path d="m157.77254 102.29333v-52.989846h8.82984v44.16h26.48953v8.829846z"/><path d="m201.32054 102.29333v-26.489534h8.82984v26.489534zm0-35.319378v-8.840625h8.82984v8.840625z"/><path d="m244.85776 93.463484v-8.829844h-17.65969v8.829844zm-26.48953 8.829846v-44.160003h8.82984v17.670469h26.48953v26.489534z"/><path d="m261.91622 102.29333v-44.160003h35.31938v8.840625h-26.48953v35.319378z"/><path d="m331.95375 93.463484v-8.829844h-17.65969v8.829844zm-26.48953 8.829846v-26.489534h26.48953v-8.829844h8.82984v35.319378zm0-35.319378v-8.840625h26.48953v8.840625z"/><path d="m349.01222 102.29333v-44.160003h35.31938v8.840625h-26.48953v35.319378z"/><path d="m392.56023 102.29333v-8.829846h26.48953v-8.829844h-26.48953v-26.500313h8.82984v17.670469h17.65969v-17.670469h8.82984v44.160003z"/></g></g></svg>