<svg enable-background="new 0 -0.001 566.929 157.78" height="157.71411" viewBox="0 -.001 634.85087 110.39988" width="906.92981" xmlns="http://www.w3.org/2000/svg"><g transform="translate(-41.550373 -18.358465)"><text fill="#ef00eb" font-family="TrasksHand" font-size="1.4" stroke="#0105ff" stroke-width="1.75" transform="matrix(.98222257 -.18772009 .18772009 .98222257 0 0)" x="64.399719" y="103.01772"><tspan fill="#fafafa" fill-opacity=".4" font-size="1.4" stroke="none" stroke-width="1.75" x="64.399719" y="103.01772">John Loreth 2022</tspan></text><g stroke-linecap="round"><path d="m42.274869 37.272079c12.027703-11.201753 31.215604-17.46773 42.274374-18.906398.547653-.07125.992909.329095.992909.88138l-.000001 62.353392c0 .552285-.44056 1.079748-.983358 1.181671-18.643517 3.500738-30.502856 8.969619-42.15554 16.060395-.471785.287086-.85288.07433-.85288-.477954v-59.403235c0-.552285.32035-1.312857.724496-1.689251z" fill="#3362ba"/><path d="m92.642578 33.753906v52.486328c0 .552285-.43952 1.080273-.982422 1.181641-21.489385 4.012376-35.532924 10.200326-48.980468 18.158205.0368.49233.476491.85474.966796.79687l68.058596-10.009762c.56759-.08327.98779-.570873.98633-1.144532l-.2168-62.919922c-.001-.531599-.4689-.941373-.99609-.873046l-17.740239 2.28125c-.364313.03222-.729986.04656-1.095703.04297z" fill="#ef8b0f" fill-opacity=".941176" transform="translate(0 -.001)"/><path d="m99.573358 116.18548-57.705248-6.08185a.10395782.10395782 90.081448 0 1 .000294-.2068l57.70466-5.91594a.90272043.90272043 42.073212 0 1 .994786.89801v10.41139a.90014377.90014377 138.00824 0 1 -.994492.89519z" fill="#4a994f" transform="translate(0 -.001)"/><path d="m76.886543 128.70791-34.782064-14.18918a.12595048.12595048 105.01413 0 1 .06475-.24139l34.588502 4.75987a1.1545506 1.1545506 48.732578 0 1 .997128 1.13631l.05114 7.91213a.66738234.66738234 145.91121 0 1 -.919454.62226z" fill="#3362ba"/><path d="m139.7957 108.44533h527.04689l4.13926 5.10435h-527.04552z" fill="#3362ba"/><path d="m145.21509 115.9095h527.04689l4.13926 5.10435h-527.04552z" fill="#d4d0ce"/></g><g fill="#666" stroke-width="2.5" transform="scale(1.0883046 .9188604)"><path d="m184.26207 93.463484v-17.659688h8.82984v17.659688zm0-26.489532v-8.840625h8.82984v8.840625zm-26.48953 35.319378v-52.989846h26.48953v8.829843h-17.65969v8.840625h17.65969v8.829844h-17.65969v17.659688h17.65969v8.829846z"/><path d="m201.32054 102.29333v-26.489534h8.82984v26.489534zm0-35.319378v-8.840625h8.82984v8.840625z"/><path d="m244.85776 93.463484v-8.829844h-17.65969v8.829844zm-26.48953 8.829846v-44.160003h8.82984v17.670469h26.48953v26.489534z"/><path d="m261.91622 102.29333v-44.160003h8.82985v44.160003z"/><path d="m278.96391 102.29333v-26.489534h8.82985v26.489534zm0-35.319378v-8.840625h8.82985v8.840625z"/><path d="m304.84144 102.29333v-8.829846h17.65969v8.829846zm-8.82984-8.829846v-26.489532h8.82984v26.489532zm26.48953 0v-26.489532h8.82984v26.489532zm-17.65969-26.489532v-8.840625h17.65969v8.840625z"/><path d="m339.5596 102.29333v-44.160003h8.82984v17.670469h26.48954v8.829844h-26.48954v8.829844h26.48954v8.829846z"/><path d="m383.1076 102.29333v-44.160003h8.82985v17.670469h26.48953v26.489534h-8.82984v-17.65969h-17.65969v17.65969z"/><path d="m435.11697 41.656064 4.52371-7.018468 14.03694 12.691904-4.52371 7.018468z"/><path d="m603.97266 50.083984v57.966796h54.91211v-11.589842h-41.1836v-11.591797h41.1836v-34.785157zm13.72851 11.605469h27.45508v11.589844h-27.45508z" stroke-width="3.57143" transform="matrix(.64320229 0 0 .76181323 38.178992 19.978513)"/><path d="m496.69313 75.803796v-8.829844h-17.65969v8.829844zm0 26.489534v-17.65969h-26.48953v-26.500313h35.31937v44.160003z"/><path d="m522.58145 102.29333v-8.829846h17.65968v8.829846zm-8.82985-8.829846v-35.330157h8.82985v35.330157zm26.48953 0v-35.330157h8.82985v35.330157z"/><path d="m583.78914 75.803796v-8.829844h-17.65969v8.829844zm-26.48953 26.489534v-44.160003h35.31937v26.500313h-26.48953v8.829844h26.48953v8.829846z"/></g></g></svg>