<?xml version="1.0" encoding="UTF-8" standalone="no"?>
<!-- Creator: CorelDRAW X7 -->

<svg
   xml:space="preserve"
   width="6.5569034in"
   height="1.6657726in"
   version="1.1"
   style="clip-rule:evenodd;fill-rule:evenodd;image-rendering:optimizeQuality;shape-rendering:geometricPrecision;text-rendering:geometricPrecision"
   viewBox="0 0 11053 2807.9998"
   id="svg988"
   sodipodi:docname="mrboom.svg"
   inkscape:version="1.1.2 (0a00cf5339, 2022-02-04)"
   xmlns:inkscape="http://www.inkscape.org/namespaces/inkscape"
   xmlns:sodipodi="http://sodipodi.sourceforge.net/DTD/sodipodi-0.dtd"
   xmlns:xlink="http://www.w3.org/1999/xlink"
   xmlns="http://www.w3.org/2000/svg"
   xmlns:svg="http://www.w3.org/2000/svg"><sodipodi:namedview
   id="namedview990"
   pagecolor="#000000"
   bordercolor="#111111"
   borderopacity="1"
   inkscape:pageshadow="0"
   inkscape:pageopacity="0"
   inkscape:pagecheckerboard="1"
   inkscape:document-units="px"
   showgrid="false"
   inkscape:zoom="0.46744472"
   inkscape:cx="530.54402"
   inkscape:cy="135.84494"
   inkscape:window-width="1366"
   inkscape:window-height="703"
   inkscape:window-x="0"
   inkscape:window-y="0"
   inkscape:window-maximized="1"
   inkscape:current-layer="Capa_x0020_1"
   scale-x="17.55942"
   fit-margin-top="0"
   fit-margin-left="0"
   fit-margin-right="0"
   fit-margin-bottom="0" />
 <defs
   id="defs952">
  <style
   type="text/css"
   id="style924">
   <![CDATA[
    .str1 {stroke:black;stroke-width:27.7756}
    .str0 {stroke:#16E1FF;stroke-width:3}
    .fil6 {fill:black}
    .fil0 {fill:#0000B5}
    .fil10 {fill:#000EA3}
    .fil8 {fill:white}
    .fil1 {fill:#0000B5;fill-rule:nonzero}
    .fil11 {fill:#5DAEFF;fill-opacity:0.501961}
    .fil5 {fill:url(#id0)}
    .fil9 {fill:url(#id1)}
    .fil7 {fill:url(#id2)}
    .fil3 {fill:url(#id3);fill-rule:nonzero}
    .fil4 {fill:url(#id4);fill-rule:nonzero}
    .fil2 {fill:url(#id5);fill-rule:nonzero}
   ]]>
  </style>
  <linearGradient
   id="id0"
   gradientUnits="userSpaceOnUse"
   x1="6459.3101"
   y1="406.953"
   x2="6710.6699"
   y2="1765.05">
   <stop
   offset="0"
   style="stop-opacity:1; stop-color:#FF6600"
   id="stop926" />
   <stop
   offset="0.411765"
   style="stop-opacity:1; stop-color:yellow"
   id="stop928" />
   <stop
   offset="0.588235"
   style="stop-opacity:1; stop-color:yellow"
   id="stop930" />
   <stop
   offset="1"
   style="stop-opacity:1; stop-color:#FF6600"
   id="stop932" />
  </linearGradient>
  <linearGradient
   id="id1"
   gradientUnits="userSpaceOnUse"
   x1="3102.8401"
   y1="271.19299"
   x2="3863.47"
   y2="477.74799">
   <stop
   offset="0"
   style="stop-opacity:1; stop-color:#FF6600"
   id="stop935" />
   <stop
   offset="0.521569"
   style="stop-opacity:1; stop-color:yellow"
   id="stop937" />
   <stop
   offset="1"
   style="stop-opacity:1; stop-color:#FF6600"
   id="stop939" />
  </linearGradient>
  <radialGradient
   id="id2"
   gradientUnits="userSpaceOnUse"
   gradientTransform="matrix(1.63032,0,0,1.63032,-1808,-764)"
   cx="2868.6201"
   cy="1211.91"
   r="842.60602"
   fx="2868.6201"
   fy="1211.91">
   <stop
   offset="0"
   style="stop-opacity:1; stop-color:#4F87FF"
   id="stop942" />
   <stop
   offset="0.701961"
   style="stop-opacity:1; stop-color:#00008F"
   id="stop944" />
   <stop
   offset="1"
   style="stop-opacity:1; stop-color:#00008F"
   id="stop946" />
  </radialGradient>
  <linearGradient
   id="id3"
   gradientUnits="userSpaceOnUse"
   xlink:href="#id0"
   x1="8834.8096"
   y1="318.26001"
   x2="8907.9404"
   y2="1782.4301">
  </linearGradient>
  <linearGradient
   id="id4"
   gradientUnits="userSpaceOnUse"
   xlink:href="#id0"
   x1="4660.7002"
   y1="358.035"
   x2="4817.3301"
   y2="2094.1201">
  </linearGradient>
  <linearGradient
   id="id5"
   gradientUnits="userSpaceOnUse"
   xlink:href="#id0"
   x1="1159.09"
   y1="717.36603"
   x2="1381.65"
   y2="2262.1001">
  </linearGradient>
 <linearGradient
   inkscape:collect="always"
   xlink:href="#id0"
   id="linearGradient1126"
   gradientUnits="userSpaceOnUse"
   x1="6459.3101"
   y1="406.953"
   x2="6710.6699"
   y2="1765.05" /></defs>
 <g
   id="Capa_x0020_1"
   inkscape:label="Capa 1"
   inkscape:groupmode="layer">
  <metadata
   id="CorelCorpID_0Corel-Layer" />
  <path
   class="fil0"
   d="m 6674,1363 284,-14 -29,82 -278,16 z m 180,-541 h 272 l -24,76 h -272 z m -2269,-483 158,141 7,348 372,-485 153,159 10,584 275,-726 c 328,-50 538,11 629,183 l 140,165 128,-368 755,5 50,68 36,-67 422,10 c 115,24 212,79 290,166 l 143,126 v 83 l 280,-378 162,147 -1,192 244,-343 155,140 39,532 454,-658 262,-2 131,122 16,279 125,-397 269,-2 141,147 76,319 131,-469 284,6 132,136 -301,1128 -379,12 -139,-150 -9,-158 -31,-2 -125,325 -423,20 -143,-128 -1,-45 -229,3 -180,224 -324,15 -166,-145 -108,161 -206,8 -167,-138 -113,184 -542,32 -129,-127 -77,149 -316,26 -31,-33 -22,37 -765,79 -156,-140 c -212,184 -583,262 -1062,268 l -136,-134 -16,-166 -178,326 -340,32 -151,-129 9,-181 -223,379 -510,45 94,-247 405,-742 z"
   id="path955" />
  <path
   class="fil1"
   d="m 1736,1015 c 88,-24 148,-73 189,-139 l -114,-8 z m -574,987 140,-247 259,8 c -108,120 -239,202 -399,239 z M 0,2654 1363,339 c 235,-21 475,-35 733,-23 201,36 332,95 416,221 191,208 196,445 -206,745 176,215 127,539 -122,796 -587,479 -1267,708 -2023,730 z"
   id="path957" />
  <path
   class="fil2"
   d="m 1393,1129 c 423,27 764,-317 502,-421 -70,-28 -162,-23 -245,-30 z m -546,976 c 381,29 1052,-400 630,-500 -100,-24 -211,-33 -326,-33 z M 66,2630 1376,390 c 448,-60 720,-48 879,-1 626,187 -274,916 -376,893 -4,-1 7,1 12,1 126,14 587,48 102,662 -206,261 -509,367 -703,449 -377,160 -853,177 -1224,236 z"
   id="path959"
   style="fill:url(#id5)" />
  <path
   class="fil3"
   d="m 8168,1598 25,-513 -353,556 -249,23 -229,8 -12,-14 -23,-474 h -38 l -174,504 -34,21 -231,5 465,-1326 h 420 c 372,73 348,424 -157,706 l 47,426 38,-1 752,-1117 43,541 367,-518 54,867 31,-4 600,-899 h 215 l 26,854 37,-1 249,-852 226,-1 179,773 223,-775 228,3 -291,1072 -333,8 -139,-642 -202,674 -396,25 -10,-206 -412,19 -165,233 -293,-1 19,-534 -312,556 z"
   id="path961"
   style="fill:url(#id3)" />
  <polygon
   class="fil1"
   points="9529,702 9529,1113 9260,1112 "
   id="polygon963" />
  <path
   class="fil1"
   d="m 7506,559 c 112,0 220,10 201,154 -17,123 -152,234 -333,215 z"
   id="path965" />
  <path
   class="fil4"
   d="m 4779,1950 64,-725 -418,759 -295,12 94,-712 -518,786 -390,-6 1258,-1672 13,727 518,-712 28,1161 444,-1177 c 215,-17 559,-39 584,234 21,219 -235,429 -276,392 -2,-2 4,0 6,1 385,102 131,656 -286,782 -253,76 -561,132 -826,150 z M 5631,903 c 233,18 388,-206 239,-276 -39,-19 -90,-16 -136,-21 z m -233,640 c 211,19 515,-239 279,-306 -57,-16 -95,-22 -158,-22 z"
   id="path967"
   style="fill:url(#id4)" />
  <polygon
   class="fil5"
   points="6391,1477 6834,1453 6747,1734 6002,1795 6483,384 7168,377 7084,648 6666,656 6573,914 6980,906 6881,1184 6475,1187 "
   id="polygon969"
   style="fill:url(#linearGradient1126)" />
  <path
   class="fil6"
   d="m 3158,552 -122,-302 301,107 36,-308 131,206 218,-255 -4,311 329,-142 -314,332 252,64 -327,115 -12,164 c 0,6 9,7 13,11 183,157 267,407 203,690 -109,474 -596,859 -1089,859 -492,0 -804,-385 -695,-859 98,-429 504,-784 945,-849 5,-1 13,2 16,-2 z"
   id="path971" />
  <path
   class="fil7"
   d="m 3151,752 c 454,0 741,355 641,793 -100,437 -549,792 -1003,792 -455,0 -742,-355 -642,-792 100,-438 549,-793 1004,-793 z"
   id="path973"
   style="fill:url(#id2)" />
  <ellipse
   class="fil8 str0"
   transform="matrix(0.947814,0.157139,-0.546622,0.823498,2825.91,1099.86)"
   rx="190"
   ry="188"
   id="ellipse975"
   cx="0"
   cy="0" />
  <path
   class="fil9"
   d="m 3696,106 -198,213 -101,-178 -43,271 -231,-94 -65,-35 126,222 c 242,-9 336,-37 495,138 l 186,-66 -167,-55 210,-250 -222,98 z"
   id="path977"
   style="fill:url(#id1)" />
  <path
   class="fil8 str1"
   d="m 3550,348 c 29,-7 53,3 71,29 -47,38 -116,81 -133,134 l -71,-12 c 30,-54 76,-116 133,-151 z"
   id="path979" />
  <path
   class="fil10"
   d="m 3200,543 c 169,-32 309,-5 437,106 l -7,171 C 3498,696 3325,643 3116,669 Z"
   id="path981" />
  <path
   class="fil8"
   d="m 3493,561 c 24,9 47,20 70,34 l -53,138 c -22,-10 -44,-20 -68,-31 z"
   id="path983" />
  <path
   class="fil11"
   d="m 3414,2066 c -185,152 -419,247 -654,247 -173,0 -321,-51 -433,-138 115,102 274,162 462,162 231,0 461,-92 644,-240 13,-10 25,-20 37,-31 158,-139 277,-321 322,-521 11,-48 18,-95 20,-140 0,-8 0,-15 0,-23 3,-203 -82,-378 -228,-491 148,130 223,329 193,556 0,2 -1,3 -1,5 -3,23 -7,46 -12,69 -44,190 -153,365 -301,501 -16,15 -32,30 -49,44 z"
   id="path985" />
 </g>
</svg>
