<svg height="231" viewBox="0 0 1290 231" width="1290" xmlns="http://www.w3.org/2000/svg"><path d="m1121 218.45415v-8.54586l37.3681-37.20414c40.8887-40.7094 49.7183-51.11712 58.7107-69.20415 9.5156-19.139292 10.5202-37.430031 2.8836-52.5-7.0584-13.928919-22.0932-20.97668-41.9624-19.670417-12.9117.84886-23.5941 4.816987-35.8055 13.30049l-6.3056 4.380574-4.4444-9.575891c-2.4445-5.26674-4.4445-9.903984-4.4445-10.304985 0-1.348296 15.8813-11.221478 22.221-13.814524 25.4433-10.4066495 52.5694-10.5140697 72.8309-.288412 8.7329 4.407374 15.2914 10.207609 20.7208 18.325309 13.9962 20.925943 14.4079 49.505754 1.0938 75.922016-10.3645 20.56398-33.5046 47.68789-67.8665 79.55033-7.425 6.88491-13.65 12.89095-13.8333 13.34676-.1834.45581 21.5291.82875 48.25.82875h48.5833v12 12h-69-69zm-570.34473 5.94905c-50.30734-9.08916-87.21175-51.39148-89.33623-102.4032-1.84809-44.375166 21.24368-83.081306 61.18096-102.550772 18.65682-9.095219 37.80968-12.5992993 57.56182-10.5311311 36.20253 3.7906221 66.21566 23.2304691 84.26885 54.5819031 33.60776 58.3637 5.17604 134.12111-58.70949 156.43369-17.03432 5.94938-37.54423 7.61713-54.96591 4.46951zm34.53063-31.85492c14.98321-3.17551 26.79008-9.65153 38.37459-21.04828 12.92027-12.71087 19.92376-26.87124 22.43-45.35126 2.06713-15.24218-1.85496-33.858716-10.0672-47.784819-4.41406-7.485243-18.80045-21.912376-26.1445-26.218534-14.28187-8.374131-27.07408-11.577896-43.27879-10.839029-12.75923.581768-21.00756 2.835488-33 9.016697-10.11688 5.2145-23.26959 17.899442-29.44613 28.398894-8.27189 14.061332-11.96625 31.388501-10.02432 47.015841 2.33014 18.75149 9.2744 32.8057 22.87162 46.28898 11.12099 11.0278 24.04312 17.91734 39.17402 20.88597 6.98486 1.3704 21.80018 1.18491 29.11071-.36446z" fill="#f26317"/><path d="m240 214.46508c0-.31903 5.4-9.75331 12-20.96508s12-20.6359 12-20.94252c0-.30661-5.175-.55748-11.5-.55748h-11.5v-15-15h19.31855 19.31856l34.93144-63.43959c19.2123-34.891774 35.22661-63.129274 35.58735-62.75.53608.563607 105.75827 189.41828 109.73865 196.96089l1.19861 2.27129-19.79658-.27129-19.79658-.2713-11-21-11-21-50-.22087-50-.22088-11.5622 21.22088-11.56219 21.22087-18.18781.27256c-10.00329.14991-18.1878.01154-18.1878-.30748zm142.25434-78.71508c-1.61512-2.8875-9.61872-17.52329-17.78577-32.52398-11.56614-21.243915-15.10529-26.992315-16.00758-26.000001-1.28252 1.410479-34.46099 62.242751-34.46099 63.183751 0 .32463 16.01796.59023 35.59546.59023h35.59546zm330.7679-20.5c.0211-94.681287.11003-99.640052 1.75-97.586272.95027 1.19005 25.7884 30.100835 55.19586 64.246189 41.18425 47.819543 53.72727 61.796163 54.59623 60.836273.62048-.6854 24.22841-28.47119 52.46207-61.74619 28.23365-33.275 52.82784-62.188796 54.65376-64.252881l3.31984-3.752881v101.002882 101.00288h-17-17l-.14059-12.25c-.0773-6.7375-.41483-31.07918-.75-54.09262l-.60941-41.84263-37.79585 45.56194c-20.78771 25.05907-38.11271 45.75405-38.5 45.98884-.38728.23479-18.02915-20.19662-39.20415-45.40313l-38.5-45.83003-.25861 53.93382-.25861 53.93381h-15.99139-15.99139l.0222-99.75zm285.22304-2.5.25472-102.25 16.75-.274179 16.75-.2741789v102.5241779 102.52418h-17.0047-17.00473zm-966.24528 1.69911v-99.550893l3.25 2.508991c1.7875 1.379945 36.1 29.68192 76.25 62.893276l73 60.384286.25735-63.842385.25735-63.842385h16.49265 16.49265v99.55902c0 54.75746-.35178 99.34161-.78172 99.07588-.42995-.26572-35.41745-28.64134-77.75-63.05693-42.332555-34.41559-77.30578-62.574741-77.71828-62.575887s-.75 28.797917-.75 63.997917v64h-14.5-14.5z" fill="#010101"/></svg>