<?xml version="1.0" encoding="UTF-8" standalone="no"?>
<!-- Generator: Adobe Illustrator 13.0.0, SVG Export Plug-In . SVG Version: 6.00 Build 14948)  -->

<svg
   version="1.2"
   id="svg101576"
   x="0px"
   y="0px"
   width="1094.1541"
   height="156.556"
   viewBox="0 0 547.07703 78.278"
   xml:space="preserve"
   sodipodi:docname="nds.svg"
   inkscape:version="1.1.2 (0a00cf5339, 2022-02-04, custom)"
   xmlns:inkscape="http://www.inkscape.org/namespaces/inkscape"
   xmlns:sodipodi="http://sodipodi.sourceforge.net/DTD/sodipodi-0.dtd"
   xmlns="http://www.w3.org/2000/svg"
   xmlns:svg="http://www.w3.org/2000/svg"><defs
   id="defs18" /><sodipodi:namedview
   id="namedview16"
   pagecolor="#ffffff"
   bordercolor="#111111"
   borderopacity="1"
   inkscape:pageshadow="0"
   inkscape:pageopacity="0"
   inkscape:pagecheckerboard="1"
   showgrid="false"
   scale-x="0.9"
   fit-margin-top="0"
   fit-margin-left="0"
   fit-margin-right="0"
   fit-margin-bottom="0"
   inkscape:zoom="2.0408199"
   inkscape:cx="504.20912"
   inkscape:cy="38.954932"
   inkscape:window-width="1366"
   inkscape:window-height="703"
   inkscape:window-x="0"
   inkscape:window-y="0"
   inkscape:window-maximized="1"
   inkscape:current-layer="svg101576" />
<path
   id="path100608"
   fill="#999999"
   d="m 347.884,70.382 c 0,0.83 -0.682,1.578 -1.521,1.578 h -29.102 c -0.848,0 -1.527,-0.748 -1.527,-1.578 V 49.36 c 0,-0.832 0.682,-1.496 1.527,-1.496 h 29.102 c 0.84,0 1.521,0.664 1.521,1.496 z M 346.621,41.548 H 317 c -4.287,0 -7.787,3.49 -7.787,7.813 v 21.104 c 0,4.236 3.5,7.813 7.787,7.813 h 29.621 c 4.297,0 7.787,-3.574 7.787,-7.813 V 49.36 c 0,-4.322 -3.491,-7.812 -7.787,-7.812" />
<path
   id="path100618"
   fill="#c91818"
   d="m 6.797,9.971 c 0,0 0,26.758 0,27.174 -0.357,0 -6.433,0 -6.797,0 0,-0.416 0,-36.314 0,-36.729 0.382,0 5.633,0 5.808,0 l 27.529,26.756 c 0,0 0,-26.341 0,-26.756 0.374,0 5.442,0 5.442,0 0,0 0.964,0 1.264,0 0,0.416 0,36.313 0,36.729 -0.366,0 -5.127,0 -5.311,0 L 6.797,9.971" />
<path
   id="path100622"
   fill="#c91818"
   d="m 74.943,9.971 c 0,0 0,26.758 0,27.174 -0.366,0 -6.423,0 -6.797,0 0,-0.416 0,-36.313 0,-36.729 0.382,0 5.625,0 5.8,0 l 27.529,26.756 c 0,0 0,-26.341 0,-26.756 0.374,0 5.451,0 5.451,0 0,0 0.972,0 1.263,0 0,0.416 0,36.313 0,36.729 -0.374,0 -5.127,0 -5.31,0 L 74.943,9.971" />
<path
   id="path100626"
   fill="#c91818"
   d="m 216.179,9.971 c 0,0 0,26.758 0,27.174 -0.375,0 -6.424,0 -6.797,0 0,-0.416 0,-36.313 0,-36.729 0.382,0 5.635,0 5.8,0 l 27.529,26.756 c 0,0 0,-26.341 0,-26.756 0.374,0 5.45,0 5.45,0 0,0 0.973,0 1.264,0 0,0.416 0,36.313 0,36.729 -0.374,0 -5.127,0 -5.301,0 L 216.179,9.971" />
<path
   id="path100630"
   fill="#c91818"
   d="m 56.23,0.416 c 0,0 0.964,0 1.255,0 0,0.416 0,36.313 0,36.729 -0.356,0 -6.431,0 -6.797,0 0,-0.416 0,-36.313 0,-36.729 0.374,0 5.542,0 5.542,0" />
<path
   id="path100634"
   fill="#c91818"
   d="m 154.482,0.416 c 0,0 0.947,0 1.246,0 0,0.333 0,5.983 0,6.315 -0.398,0 -16.386,0 -16.386,0 0,0 0,29.997 0,30.413 -0.366,0 -6.697,0 -7.063,0 0,-0.416 0,-30.413 0,-30.413 0,0 -15.986,0 -16.386,0 0,-0.332 0,-5.983 0,-6.315 0.406,0 38.589,0 38.589,0" />
<path
   id="path100638"
   fill="#c91818"
   d="m 198.023,0.416 c 0,0 0.98,0 1.271,0 0,0.333 0,5.983 0,6.315 -0.391,0 -29.134,0 -29.134,0 v 8.226 c 0,0 22.153,0 22.536,0 0,0.416 0,5.9 0,6.316 -0.383,0 -22.536,0 -22.536,0 v 9.555 c 0,0 28.743,0 29.134,0 0,0.333 0,5.9 0,6.315 -0.391,0 -35.474,0 -35.863,0 0,-0.416 0,-36.313 0,-36.729 0.39,0.002 34.592,0.002 34.592,0.002" />
<path
   id="path100642"
   fill="#c91818"
   d="M 287.216,30.829 H 266.342 V 6.733 h 20.874 c 6.531,0 8.852,6.479 8.852,12.049 -0.002,5.482 -2.318,12.047 -8.852,12.047 z m 11.153,-25.01 c -2.658,-3.573 -6.59,-5.401 -11.344,-5.401 0,0 -26.838,0 -27.238,0 0,0.416 0,36.313 0,36.729 0.398,0 27.238,0 27.238,0 4.754,0 8.686,-1.911 11.344,-5.401 2.492,-3.24 3.813,-7.728 3.813,-12.962 -0.001,-5.239 -1.321,-9.725 -3.813,-12.965" />
<path
   id="path100646"
   fill="#c91818"
   d="m 347.884,29.333 c 0,0.748 -0.682,1.496 -1.521,1.496 h -29.102 c -0.848,0 -1.527,-0.748 -1.527,-1.496 V 8.228 c 0,-0.831 0.682,-1.496 1.527,-1.496 h 29.102 c 0.84,0 1.521,0.665 1.521,1.496 z M 346.621,0.416 H 317 c -4.287,0 -7.787,3.49 -7.787,7.813 v 21.104 c 0,4.321 3.5,7.813 7.787,7.813 h 29.621 c 4.297,0 7.787,-3.49 7.787,-7.813 V 8.228 c 0,-4.32 -3.491,-7.812 -7.787,-7.812" />
<path
   id="path100656"
   fill="#c91818"
   d="m 470.017,62.739 c 7.045,2.824 21.928,5.066 33.545,5.066 12.713,0 17.973,-4.32 17.973,-9.806 0,-4.985 -4.887,-7.811 -18.92,-12.963 C 483.844,38.14 470.074,32.656 470.074,20.274 470.074,7.561 486.644,0 511.896,0 c 13.561,0 18.215,0.831 26.822,2.41 l 0.066,12.131 c -8.459,-1.578 -15.955,-4.321 -27.598,-4.321 -12.479,0 -17.799,3.988 -17.799,8.063 0,5.9 8.191,8.725 22.563,13.876 20,7.146 31.127,12.629 31.127,24.68 0,12.463 -13.938,21.438 -45.361,21.438 -12.904,0 -21.805,-0.832 -31.699,-2.492 V 62.739" />
<path
   id="path100660"
   fill="#c91818"
   d="M 403.125,10.721 H 388.17 v 56.671 h 14.955 c 22.961,0 37.443,-9.89 37.443,-28.252 0,-18.365 -14.483,-28.419 -37.443,-28.419 z m 40.144,61.905 c -7.396,3.324 -21.391,5.484 -33.621,5.484 H 362.9 V 0.167 h 46.748 c 12.23,0 26.225,2.16 33.637,5.484 18.008,8.143 23.873,21.188 23.873,33.485 0,12.302 -5.817,25.347 -23.889,33.49" />


</svg>
