<svg height="158.44005" viewBox="0 0 3166.4437 697.13621" width="719.6463" xmlns="http://www.w3.org/2000/svg"><g fill="#f2f2f2" transform="translate(-3.871541 6.237598)"><path d="m2776.1465 573.68365h-245.9405c-8.7317 0-17.1461-.32382-25.5589-1.61747-8.0906-.97146-15.5336-2.58893-22.329-4.53022-9.708-2.26511-16.8273-7.11916-21.3575-10.99845-3.8826-3.56369-5.8255-7.44791-5.8255-11.33049v-42.71494c.9715-3.5604 3.5604-8.09063 7.7669-11.32556 4.203-3.23658 10.0318-6.14934 16.8271-8.09063 7.1193-1.94129 14.886-3.5604 23.6227-4.53022 9.0604-.97147 18.4464-1.61747 28.8004-1.61747h243.9943v12.94303h-243.9943c-10.354 0-19.4162.32382-27.5051 1.29529-7.7717.96982-15.5336 2.58729-22.6528 4.52529-9.7081 2.91604-11.6494 6.47644-13.5907 11.33049l-.3238 10.02698h307.7428l.3239 13.27178h-307.7429v13.91449c0 3.56041 2.589 7.11916 15.5286 10.67956 6.4766 1.6224 13.5957 2.91276 21.6847 3.88751 8.0856 1.29036 16.1813 1.61418 24.2702 1.61418h246.2594z"/><path d="m2416.3061 490.51904h-155.004v83.16478h-13.5955v-83.16478h-154.6802v-13.59067h323.2797z"/><path d="m1643.2232 533.5588h-89.6363v40.12601h-13.5923v-40.12601h-115.8478c-17.4749 0-39.1512-2.27005-39.1512-28.15774v-28.47663h14.2333v27.18627c0 17.15107 16.5034 15.52867 27.183 15.52867h215.8399 27.8305c11.0018 0 27.5053 1.6224 27.5053-15.52867v-27.18627h13.5906v28.47663c0 25.88769-21.6797 28.15774-39.1545 28.15774z"/><path d="m1350.0424 490.83958h-258.8802c-12.9431 0-24.5925 2.27004-33.0069 5.8288-6.4716 2.58893-10.3542 5.50169-10.3542 8.09062 0 2.58894 3.8826 5.49676 10.3542 8.0857 8.4144 3.23986 20.0638 5.50497 33.0069 5.50497h112.289 89.638c9.7081 0 19.0923.96654 26.8591 2.90783 4.2064.97146 7.7652 2.26511 11.3256 3.56533 3.5587 1.61254 6.7953 3.23493 9.3842 4.8524 6.1477 4.52694 9.7081 10.03192 9.7081 16.17632v.32875c0 8.73663-7.443 16.17468-19.0923 21.02872-10.032 3.88258-23.6226 6.47645-38.1847 6.47645h-255.3199v-13.91943h255.3199c12.943 0 24.594-2.26511 33.0068-5.49676 6.1477-2.91275 10.3558-5.8288 10.3558-8.08898v-.32875c0-1.29036-1.6192-2.90783-3.8843-4.53022-1.9412-1.29529-4.2064-2.26018-6.4715-3.5604-2.9127-.96654-5.8255-1.93636-9.3843-2.90783-6.7953-1.61747-14.886-2.58893-23.6225-2.58893h-89.638-112.289c-14.5622 0-28.1529-2.26512-38.1848-6.47645-11.6494-4.84911-19.0924-12.29209-19.0924-21.02872 0-9.06538 7.443-16.50342 19.0924-21.35747 10.0319-3.88751 23.6226-6.47644 38.1848-6.47644h258.8802z"/><path d="m2060.3412 490.83958h-258.5515c-12.9446 0-24.5941 2.27004-33.0069 5.8288-6.4714 2.58893-10.3557 5.50169-10.3557 8.09062 0 2.58894 3.8843 5.49676 10.3557 8.0857 8.4128 3.23986 20.0623 5.50497 33.0069 5.50497h112.289 89.6331c9.7114 0 19.0973.96654 26.5386 2.90783 4.2031.97146 7.7668 2.26511 11.3222 3.56533 3.5637 1.61254 6.7954 3.23493 9.3892 4.8524h-.3237c6.4714 4.52694 10.027 10.03192 10.027 16.17632v.32875c0 8.73663-7.443 16.17468-19.0925 21.02872-10.027 3.88258-23.2954 6.47645-37.8608 6.47645h-255.3166v-13.91943h255.3166c12.9479 0 24.2734-2.26511 32.3641-5.49676 6.4665-2.91275 10.6779-5.8288 10.6779-8.08898v-.32875c0-1.29036-1.6175-2.90783-3.8826-4.53022-1.9412-1.29529-4.2063-2.26018-6.4714-3.5604-2.9128-.96654-5.8256-1.93636-9.0605-2.90783-6.797-1.61747-14.886-2.58893-23.6275-2.58893h-89.6331-112.289c-14.5621 0-28.1528-2.26512-38.1848-6.47645-11.6493-4.84911-19.0922-12.29209-19.0922-21.02872 0-9.06538 7.119-16.50342 19.0922-21.35747 10.032-3.88751 23.6227-6.47644 38.1848-6.47644h258.5515z"/><path d="m3139.2259 476.92623c3.5604 0 7.1191 2.58893 7.1191 6.79533v89.96012h-13.2667v-77.98691l-146.9151 74.10433-1.9413.65258c-8.0906 3.23-10.3557 2.58729-16.1845 0l-1.9381-.9764-145.6229-74.0994v78.30744h-13.9146v-90.28558c0-4.2064 3.5589-6.47151 6.7954-6.47151 1.9462 0 2.9111.32382 4.5352 1.29364l151.4386 77.99349c5.8256 2.58729 6.8003 3.87765 13.9195.32218l133.9654-68.27882 19.0973-10.35574c.9714-.65093 2.2618-.97475 2.9127-.97475"/></g><g fill="#f2f2f2" stroke-width=".078979" transform="matrix(16.688173 0 0 16.250148 376.071 -2557.4257)"><path d="m145.7785 166.40939c-1.46526 0-2.86741.37021-4.16827 1.10058-1.30635.73351-2.35758 1.77835-3.12447 3.10523-.76689 1.32491-1.15609 2.74934-1.15609 4.23139 0 1.40823.35159 2.75343 1.04491 3.99898.70032 1.25938 1.7103 2.23882 2.99979 2.91038 1.26875.66087 2.73291.99553 4.35125.99553 1.24019 0 2.34725-.20867 3.2907-.62159.93992-.41139 1.85127-1.07784 2.70779-1.98072l.17271-.18288v-3.19232l-1.09563 1.28509c-.77394.90762-1.50746 1.54915-2.18157 1.90723-.65335.34741-1.38608.52362-2.17724.52362-.94735 0-1.71852-.22913-2.29005-.68038-.58251-.45874-1.02057-1.16419-1.30398-2.09393-.30261-.99447-.45606-2.1184-.45606-3.34145 0-1.22228.20644-2.34303.61473-3.33276.29988-.73037.76147-1.30482 1.40977-1.75646.64359-.4473 1.32959-.66514 2.09845-.66514.9266 0 1.73377.29502 2.46815.903.73011.60363 1.23982 1.5011 1.515 2.66653l.11389.4828h1.52095v-4.64561h.52246c.35504 0 .54183.0664.63578.12247.15698.0935.19789.16443.20727.18615.0113.0382.0696.61228.0696 1.49465v9.50131c0 .79115-.0367 1.04579-.0513 1.11527-.0443.0912-.1191.17341-.22831.23895-.069.0419-.2424.11159-.63308.11159h-1.09673v1.63126h7.0229c.96927 0 1.67064-.0462 2.14431-.13934 1.01784-.19422 1.90055-.47603 2.61929-.83768.73481-.36871 1.3922-.86565 1.95433-1.4756.56529-.6139 1.03026-1.39531 1.38062-2.32308.34958-.92262.52623-2.0867.52623-3.17436 0-1.57324-.3586-3.00682-1.06758-4.26187v-.00055c-.72108-1.27675-1.79048-2.43522-3.18058-3.06334-1.11688-.50337-2.58918-.74187-4.37662-.74187l-6.44864-.00098h-1.57221l-.0734.54267c-.0421.30635-.12157.40685-.14465.43054-.0522.0521-.0911.064-.13924.0653-.0352-.004-.2522-.0393-1.01361-.33855-1.18617-.46466-2.33386-.69997-3.41161-.69997zm6.40384.61343h6.39952c1.70797 0 3.08212.23448 4.12188.70269 1.27226.57481 2.23671 1.63782 2.89398 2.80206.65728 1.16423.98554 2.48059.98554 3.94999 0 1.015-.16095 2.09459-.48466 2.9501h-.00056c-.32337.85552-.74109 1.56206-1.25433 2.11952-.51321.55702-1.10564 1.00479-1.77623 1.34115-.67138.33755-1.49239.59833-2.46167.78271-.42945.085-1.10362.12736-2.02396.12736h-6.39952v-.37393h.47334c.41378 0 .73088-.066.95206-.19867.22041-.13265.38372-.3137.489-.54267.063-.15001.0944-.6013.0944-1.35258v-9.50131c0-.74418-.0387-1.54726-.11551-1.73361-.0771-.18633-.23304-.34902-.46794-.48878-.23488-.13976-.55239-.20955-.95207-.20955h-.47334zm-6.40384.0147c1.00532 0 2.0669.21916 3.18492.65697.64751.25424 1.05819.38101 1.23436.38101.2247 0 .42024-.0825.58505-.24874.16562-.16621.27251-.4288.32222-.78924h.40478v5.00539h-.40478c-.30927-1.30794-.88493-2.31031-1.72658-3.00671-.84245-.69682-1.79684-1.0456-2.86323-1.0456-.89099 0-1.70859.25859-2.45197.77617-.74419.51796-1.28746 1.19544-1.63158 2.03242-.44196 1.07104-.66333 2.26253-.66333 3.57442 0 1.29096.16116 2.46611.48413 3.52653.32258 1.06.82827 1.86132 1.51609 2.40417.68781.54283 1.57887.81318 2.6738.81318.89766 0 1.7199-.19831 2.46761-.59546.74772-.39757 1.53471-1.08167 2.36347-2.05365v1.24537c-.80175.84522-1.63674 1.45768-2.50542 1.83864-.8679.3794-1.8821.56988-3.04242.56988-1.52596 0-2.88113-.30864-4.06574-.92531-1.18457-.61705-2.0986-1.50367-2.7418-2.65999-.64357-1.15595-.96503-2.38573-.96503-3.69091 0-1.37584.35623-2.68104 1.07028-3.91515.71364-1.23374 1.67691-2.19128 2.88969-2.87228 1.21316-.68063 2.50085-1.02111 3.86548-1.02111zm11.85775.78652v11.60993c0 .59653.0278.96229.0842 1.09731.0556.13503.1504.23795.28389.30862.18907.10652.46258.15948.82038.15948 1.17049 0 2.06415-.40408 2.68188-1.21379.84128-1.09397 1.26189-2.93616 1.26189-5.2378 0-1.85395-.28727-3.33465-.86195-4.44204-.45607-.86696-1.04156-1.64993-1.75681-1.9622-.50498-.21988-1.3426-.32662-2.51349-.31951zm.62285.63792c.92542.0332 1.40179.15353 1.64291.25854.58684.25662 1.06254.93593 1.45402 1.67971.52301 1.00909.78853 2.40577.78853 4.14758 0 2.14805-.37989 3.8769-1.13072 4.85243l-.00055-.00056c-.49872.65418-1.21398.97104-2.18912.97104-.34802 0-.48432-.0617-.5176-.0806-.004-.002-.005-.003-.008-.004-.0114-.068-.0393-.2815-.0393-.85237z"/><g stroke-width=".01013"><path d="m99.891124 175.55887h.373376c.34825 0 .94481.0717 1.19031.21587.24576.14289.4075.30322.48561.48061.0784.17765.11802.56898.11802 1.17337v2.37291c0 .71611-.75664 1.0809-1.12143 1.16004-.36568.0791-.72136.11874-1.068319.11874-.99906 0-1.861133-.25986-2.588398-.77998-.726239-.5205-1.252384-1.33396-1.578948-2.44346-.325923-1.10782-.488178-2.39599-.488178-3.8672 0-1.21365.148916-2.39728.447005-3.55039.298217-1.15362.805892-2.05225 1.522511-2.69742.716619-.64428 1.614863-.96674 2.693575-.96674 1.129252 0 1.789302.28578 2.620462 1.14952.84963.88259 1.66489 1.8855 2.14075 3.35799h.69482v-5.40639h-.39519c-.14263.43302-.29834.72688-.46855.88234-.17072.15584-.35555.23331-.55385.23331-.12788 0-.54218-.14071-1.24097-.42212-.69918-.2818-1.20518-.45291-1.51738-.51319-.57502-.11993-1.02177-.18047-1.738-.18047-2.313909 0-4.235326.79525-5.761685 2.38574-1.526359 1.59177-2.289539 3.54012-2.289539 5.84634 0 1.28907.248066 2.45372.745094 3.49395.390569.80653.932106 1.53149 1.623841 2.17666.692249.64441 1.491728 1.16491 2.396 1.561.905169.39518 2.043269.5931 3.413144.5931 1.072305 0 2.106125-.1108 3.104025-.33221.99791-.22216 1.95733-.55103 2.88213-.98649v-3.18868c0-.55898.0314-.91043.0953-1.05357.1133-.27218.27436-.46625.48369-.58374.20894-.11757.77908-.19419 1.31087-.23255v-.52204h-7.53303v.52204z"/><path d="m118.10361 179.68902c-.8586.65761-2.00094.98597-3.42597.98597h-.81243c-.4352 0-.74958-.0594-.94493-.17906-.19458-.11977-.32823-.27282-.39916-.45983-.0712-.18675-.10712-.69866-.10712-1.53534v-4.28278c.73188 0 1.58921.0952 1.97401.28667.38402.19048.72175.56322 1.0115 1.11732.29116.55411.48151 1.16581.57194 2.03429h.61772v-7.88191h-.61772c-.12066 1.18428-.39955 1.97914-.83745 2.58583-.43713.60683-1.14272.91018-2.1151.91018h-.60503v-5.28711c-.005-.91889.8141-.81243.8141-.81243h.95712c1.1576 0 1.94579.0676 2.3665.20253.72111.22421 1.27893.57617 1.67386 1.05447.39481.4792.70046 1.26803.91864 2.36778h.51781v-4.50212h-12.87785v.6167h.40621c.49459 0 .88503.1046 1.1694.31348.20266.14212.3417.34465.41635.60606.0376.15635.0566.57899.0566 1.26675v9.52499c0 .76241-.0411 1.23328-.12391 1.41349-.10505.25384-.25512.43341-.44983.53794-.27038.15739-.62644.2355-1.06858.2355h-.40621v.71649h13.0959l.78691-4.8433h-.7188c-.37505 1.34807-.99213 2.3511-1.85087 3.00782"/><path d="m128.50558 166.0544c-2.19462-.0906-4.04421.62478-5.5462 2.14716-1.50456 1.52123-2.25491 3.42341-2.25491 5.70397 0 2.03172.57758 3.78768 1.73415 5.26786 1.46223 1.87267 3.53243 2.8103 6.21062 2.8103 2.6692 0 4.73684-.982 6.20035-2.94626 1.10436-1.4789 1.65719-3.19381 1.65719-5.14345 0-2.28056-.74112-4.18017-2.22156-5.69883-1.48147-1.51867-3.40673-2.23182-5.77708-2.14075m3.50037 12.19035c-.35812 1.06075-.85938 1.83291-1.50327 2.31519-.5046.37787-1.134.56629-1.88807.56629-1.1195 0-1.9894-.43803-2.61277-1.31344-.89221-1.25302-1.33909-3.18868-1.33909-5.80914 0-2.20488.28873-3.89542.86682-5.0729.70943-1.43401 1.74441-2.15101 3.1053-2.15101.73881 0 1.39169.20792 1.95862.62311.56693.41507 1.03318 1.12681 1.39938 2.13434.36568 1.00829.54871 2.52683.54871 4.55855 0 1.70593-.17905 3.08992-.53794 4.15067"/><path d="m78.624826 181.89518c2.669205 0 4.736845-.98213 6.200354-2.94626 1.104365-1.48018 1.65719-3.19381 1.65719-5.14344 0-2.28056-.741118-4.18017-2.221558-5.69884-1.481467-1.51866-3.406732-2.23182-5.777078-2.14075-2.194622-.0905-4.04421.62478-5.546199 2.14717-1.504554 1.52123-2.254907 3.4234-2.254907 5.70396 0 2.03173.577579 3.78768 1.734149 5.26787 1.462227 1.87267 3.532431 2.81029 6.210615 2.81029m-3.142505-13.0446c.709437-1.434 1.744411-2.15101 3.105308-2.15101.738809 0 1.39168.20753 1.958614.62286.566933.41519 1.033178 1.12694 1.399376 2.13434.365685 1.00829.54872 2.52683.54872 4.55727 0 1.70593-.179059 3.08991-.537946 4.15067-.358117 1.06088-.859378 1.83291-1.503271 2.31647-.504597.37762-1.133995.56617-1.888068.56617-1.119501 0-1.989398-.43803-2.612768-1.31344-.892214-1.25303-1.339091-3.18868-1.339091-5.80914 0-2.20489.288725-3.89543.866818-5.0729"/><path d="m70.442094 176.55934h-.718928c-.37492 1.34807-.992262 2.3511-1.850871 3.00782-.858609.65749-2.000941.98598-3.424688.98598h-.812434c-.435076 0-.749327-.0597-.944932-.17906-.194707-.11977-.328103-.27295-.399418-.45996-.07101-.18701-.106961-.69866-.106961-1.53534v-4.28278c.731755 0 1.589209.0952 1.974006.2868.384412.19035.722006.56309 1.011886 1.11719.290778.55411.481381 1.16581.571936 2.03429h.617727v-7.88191h-.617727c-.121108 1.18376-.40006 1.97914-.837702 2.58583-.436744.60683-1.142589.91005-2.115098.91005h-.605413v-5.28711c-.005-.91902.814743-.81243.814743-.81243h.956347c1.157853 0 1.94707.0675 2.367781.2024.721621.22408 1.279448.57604 1.673864 1.05447.394673.47907.700715 1.26842.918766 2.36778h.517679v-4.50596h-12.877854v.62067h.405832c.494848 0 .884904.10476 1.16991.31349.202403.14198.341058.34439.415708.60592.03786.15649.05687.57886.05687 1.26662v9.525c0 .76215-.04111 1.23327-.123904 1.4122-.104755.25384-.255377.43379-.449443.53807-.270383.15739-.626448.2355-1.069221.2355h-.405832v.71662h13.095906l.787293-4.84331z"/><path d="m45.366677 180.67666h-.347599c-.498697 0-.941597-.15302-1.328831-.45919-.386592-.3063-.580145-.89606-.580145-1.77006v-9.1992l9.964946 12.42251.646073.00077v-12.67007c0-.72034.05982-.92941.178674-1.22583.118889-.29642.285134-.51037.497413-.64171.212408-.13122.629271-.23806 1.249049-.32079v-.64467h-4.943351v.64467c.814999-.0149 1.396811.19509 1.741845.63042.252683.32259.378896.64235.378896 1.55843v6.63517l-7.757496-9.46856h-4.72017v.51152c.448673.0149.464578.16534.703536.29207l1.264442 1.27252-.0018 10.20223c0 .80666-.159305 1.37757-.477532 1.71363-.318483.33618-.883108.5078-1.693104.51537v.6167h5.22297v-.6167z"/></g><path d="m90.109595 173.97458c0 .6918-.560837 1.25224-1.252238 1.25224-.6918 0-1.252239-.56084-1.252239-1.25224 0-.6918.560837-1.25224 1.252239-1.25224.691799 0 1.252238.56084 1.252238 1.25224z" stroke="#000" stroke-width=".000837"/></g><g transform="translate(-3.871541 6.237598)"><path d="m3.8715413 172.62706 175.2366987-178.8646579 198.3549 194.6443679 179.18624-194.6443679h275.74998l200.06414 200.9930779v280.84925l-184.06818 188.82266-168.79405-168.79404-174.52544 195.26529h-295.62063l-205.5836587-213.13616z" fill="#333"/><path d="m28.783853 467.71674v-284.91544l150.653937-153.776372 192.02524 188.902912v135.82268l170.16869 2.34175 120.99146 123.33332-168.60747 186.56105h-273.98723z" fill="#ffe700"/><path d="m112.52199 355.09891v-18.76657l14.1893-13.40876 28.77181 8.39933v21.56813l-25.81154 7.50165z"/><path d="m244.44062 289.96764h31.18576l16.64065-30.73453-19.40043-31.91305-28.15002-5.79566-20.69851 44.98489z"/><path d="m244.22678 548.89817 41.37129 32.00417h45.27427l31.2236-3.12236 45.27423-40.59066 17.95359-39.81015-2.34176-80.4008-10.92828 65.56959-22.63711 33.56541-52.29958 45.27415h-61.66662z"/><g fill="#038bdc"><path d="m759.41644 395.1218 3.90299 52.29961 33.5653 32.00418 71.81432-1.56113 11.70885-62.44734 48.39663-9.36698-17.95358-127.23631-80.40081 10.92834-5.46411 71.81433-21.85657 24.97882z"/><path d="m572.85539 243.68728 39.81003 39.81016 49.95776-10.92835 4.68361-42.9324-37.46841-40.59077-38.24891-1.56113z"/><path d="m759.41644 119.57346-.78039 35.90716-46.83539 2.34163-19.51482-17.17285 17.95358-32.00429h34.34604z"/></g></g></svg>