<svg height="250" viewBox="0 0 776 250" width="776" xmlns="http://www.w3.org/2000/svg" xmlns:xlink="http://www.w3.org/1999/xlink"><filter id="a" color-interpolation-filters="sRGB" height="1.00463" width="1.005114" x="-.002557" y="-.002315"><feGaussianBlur stdDeviation="2.2286584"/></filter><filter id="b" color-interpolation-filters="sRGB" height="2.768809" width="1.109379" x="-.049568" y="-.80159"><feFlood flood-opacity=".352941" result="flood"/><feComposite in="flood" in2="SourceGraphic" operator="in" result="composite1"/><feGaussianBlur in="composite1" result="blur" stdDeviation="100.826"/><feOffset dx="50" dy="50" result="offset"/><feComposite in="SourceGraphic" in2="offset" operator="over" result="composite2"/></filter><filter id="c" color-interpolation-filters="sRGB" height="1.41615" width="1.122111" x="-.055339" y="-.188591"><feFlood flood-opacity=".352941" result="flood"/><feComposite in="flood" in2="SourceGraphic" operator="in" result="composite1"/><feGaussianBlur in="composite1" result="blur" stdDeviation="100.826"/><feOffset dx="50" dy="50" result="offset"/><feComposite in="SourceGraphic" in2="offset" operator="over" result="composite2"/></filter><g fill-opacity=".992157"><path d="m509.91797 221.20508c-.86916 0-1.6512.0765-2.41992.2539a4.0220553 4.0220553 0 0 0 -.20117.0508c-.38977.11136-.77335.47198-1.17579.67382a4.0220553 4.0220553 0 0 0 -2.29101-.82812h-5.48438a4.0220553 4.0220553 0 0 0 -3.98242 3.46289l-2.9707 21.21289a4.0220553 4.0220553 0 0 0 3.98242 4.58008h2.63672a4.0220553 4.0220553 0 0 0 3.05859-2.66016c.079.13162.11162.25715.20703.39063.82123 1.17999 1.96875 1.79529 2.98438 2.08008 1.14563.35445 1.91655.34179 2.625.34179h1.36523c.68217 0 1.49786-.0409 2.45117-.29101.6336-.15456 1.18503-.60363 1.76954-.97461a4.0220553 4.0220553 0 0 0 2.4414 1.11328h2.63672a4.0220553 4.0220553 0 0 0 .98047-.85352 4.0220553 4.0220553 0 0 0 1.38281.85352h2.72656a4.0220553 4.0220553 0 0 0 3.84376-5.20508c.0815.26484.0273.17311.0273-.15039 0-.15603.0255-.46139.0957-.88281l-3.88476 3.28906a4.0220553 4.0220553 0 0 0 3.90039-3.38281l.66601-4.66602a4.0220553 4.0220553 0 0 0 .01-.0703c.12626-1.01008.16985-1.98936-.0703-3.17188.46287-.99208.76908-1.93813.93164-2.97851a4.0220553 4.0220553 0 0 0 .01-.0566l.57617-4.06055a4.0220553 4.0220553 0 0 0 .0215-.18359c.0696-.73045.10742-1.37723.10742-1.98633a4.0220553 4.0220553 0 0 0 -.01-.28711c-.0742-1.03884-.43697-2.13007-1-2.97461a4.0220553 4.0220553 0 0 0 -.1289-.18164c-.88779-1.18378-1.92239-1.65706-2.79297-1.94727a4.0220553 4.0220553 0 0 0 -.29688-.0879c-.76506-.19123-1.53651-.27148-2.39843-.27148h-4.36328a4.0220553 4.0220553 0 0 0 -1.77149 1.54101c-.72303-.67729-1.47254-1.11258-2.13672-1.33398a4.0220553 4.0220553 0 0 0 -.29687-.0879c-.77832-.19455-1.54565-.26953-2.39844-.26953zm71.30859 0c-.86915 0-1.65121.0765-2.41992.2539a4.0220553 4.0220553 0 0 0 -.20117.0508c-.78608.22459-1.61349.71677-2.37109 1.35937-.66409-.5617-1.34022-.95259-1.94532-1.1543a4.0220553 4.0220553 0 0 0 -.29687-.0879c-.76511-.19125-1.53652-.27148-2.39844-.27148h-4.36328a4.0220553 4.0220553 0 0 0 -1.20117 1.04492 4.0220553 4.0220553 0 0 0 -2.58399-1.04492h-2.27148a4.0220553 4.0220553 0 0 0 -.64844.5625 4.0220553 4.0220553 0 0 0 -1.38281-.5625h-3.24219a4.0220553 4.0220553 0 0 0 -1.21484 1.05664 4.0220553 4.0220553 0 0 0 -2.59961-1.05664h-2.63672a4.0220553 4.0220553 0 0 0 -.95313.83008 4.0220553 4.0220553 0 0 0 -2.28515-.83008h-2.39453a4.0220553 4.0220553 0 0 0 -.56641.45117 4.0220553 4.0220553 0 0 0 -1.76758-.45117h-2.66601a4.0220553 4.0220553 0 0 0 -.53516.43164 4.0220553 4.0220553 0 0 0 -1.73828-.43164h-2.60547a4.0220553 4.0220553 0 0 0 -4.01758 3.82617l-1.03125 21.21289a4.0220553 4.0220553 0 0 0 4.01758 4.2168h3.45508a4.0220553 4.0220553 0 0 0 .55664-.45313 4.0220553 4.0220553 0 0 0 1.04883.45313h3.33398a4.0220553 4.0220553 0 0 0 2.06641-1.64258 4.0220553 4.0220553 0 0 0 3.11133 1.64258h2.63671a4.0220553 4.0220553 0 0 0 1.31055-1.14063 4.0220553 4.0220553 0 0 0 2.50391 1.14063h2.24219a4.0220553 4.0220553 0 0 0 .7539-.6543 4.0220553 4.0220553 0 0 0 1.61133.6543h2.93945a4.0220553 4.0220553 0 0 0 1.30078-1.13086 4.0220553 4.0220553 0 0 0 2.48243 1.13086h4.36328c.67355 0 1.48815-.0361 2.45312-.28906.81851-.19978 1.56838-.70761 2.26172-1.2461.7119.66229 1.48547 1.13626 2.23242 1.34571 1.14562.35444 1.91655.34179 2.625.34179h1.36524c.68217 0 1.4979-.0409 2.45117-.29101.91375-.2229 1.80574-.75307 2.55273-1.4043a4.0220553 4.0220553 0 0 0 3.02149 1.54297h3.45508a4.0220553 4.0220553 0 0 0 .55664-.45313 4.0220553 4.0220553 0 0 0 1.04882.45313h3.33399a4.0220553 4.0220553 0 0 0 2.57812-2.05078c.80831 1.01469 1.83029 1.60022 2.76368 1.86133 1.09094.33684 1.88569.34179 2.59375.34179h1.12109c.6822 0 1.49725-.0402 2.45312-.29101.94613-.2308 1.88326-.76778 2.64258-1.45508.68249.8667 1.47791 1.65382 2.42969 2.18554a4.0220553 4.0220553 0 0 0 .0234.0117c1.25196.68859 2.71867 1.08985 4.17968 1.08985 1.46102 0 2.93079-.39977 4.18555-1.09375a4.0220553 4.0220553 0 0 0 .006-.004c1.33572-.74208 2.49214-1.90392 3.23047-3.24414.69419-1.25376 1.09766-2.72154 1.09766-4.17773 0-1.46485-.40518-2.94362-1.10743-4.20508l-.002-.002c-.74986-1.35009-1.92742-2.51805-3.28906-3.25-1.23815-.66928-2.67809-1.0664-4.1211-1.0664-1.443 0-2.88366.39856-4.11914 1.0664-.0101.005-.0172.016-.0273.0215a4.0220553 4.0220553 0 0 0 -.0664-.20508c-.17148-.48015-.35175-.76808-.53515-1.11914a4.0220553 4.0220553 0 0 0 1.93945-1.67969l.60742-4.21289a4.0220553 4.0220553 0 0 0 .0234-.19336c.0696-.73044.10742-1.37721.10742-1.98633a4.0220553 4.0220553 0 0 0 -.01-.2871c-.0733-1.02649-.42748-2.11884-.99805-2.97461a4.0220553 4.0220553 0 0 0 -.12891-.18164c-.89607-1.19484-1.92838-1.65842-2.79492-1.94727a4.0220553 4.0220553 0 0 0 -.29687-.0879c-.7783-.19455-1.54565-.26953-2.39844-.26953h-1.12109c-.86916 0-1.66536.087-2.38868.2539a4.0220553 4.0220553 0 0 0 -.20117.0508c-.39101.11172-.77597.47295-1.17969.67578a4.0220553 4.0220553 0 0 0 -2.28711-.83008h-2.39453a4.0220553 4.0220553 0 0 0 -.5664.45117 4.0220553 4.0220553 0 0 0 -1.76758-.45117h-2.66602a4.0220553 4.0220553 0 0 0 -.53515.43164 4.0220553 4.0220553 0 0 0 -1.73828-.43164h-2.60547a4.0220553 4.0220553 0 0 0 -2.01758.80664c-.45305-.27462-.90379-.46272-1.31445-.59961a4.0220553 4.0220553 0 0 0 -.29688-.0879c-.7783-.19455-1.54564-.26953-2.39844-.26953zm-61.78125 9.6875.34766.39648c-.16847-.10949-.31497-.16962-.49024-.32812.0489-.0226.097-.0497.14258-.0684zm94.22071 7.11328c-.002.00085-.002.003-.004.004-.003.002-.007.00032-.01.002zm6.81445.36328c.008.006.0156.0137.0117.0117-.004-.003-.007-.009-.0117-.0117zm-47.96289 9.90625c.0193.029.0487.0381.0684.0664.0281.0393.0309.0757.0605.11523zm25.75 0c.0194.0291.0486.038.0684.0664.0281.0393.0309.0757.0605.11523z" fill="#fff" stroke-width="2.50001" transform="scale(1.0276247 .97311788)"/><g fill="#3ba9fd" stroke-width="2.50001" transform="scale(1.0276247 .97311788)"><path d="m499.67881 234.58975.96973-6.72749h2.84857l.33335-2.48493h-5.48503l-2.96979 21.2128h2.63645l1.33337-9.51545h2.30311l.33334-2.48493z"/><path d="m506.43279 228.55925-2.09098 14.84896c-.12121.66669-.15152 1.18186-.12121 1.60612.0303.42425.15152.7879.33334 1.03033.18182.27274.48486.45456.84851.54547.36365.12122.87882.15152 1.4849.15152h1.36368c.57577 0 1.06064-.0303 1.48489-.15152.39396-.0909.7273-.27273 1.00004-.54547.24243-.24243.45456-.60608.60608-1.03033.12121-.42426.24243-.93943.36364-1.60612l2.09098-14.84896c.0606-.63638.0909-1.18185.0909-1.60611-.0303-.42425-.15152-.7576-.33334-1.03033-.18183-.24244-.48487-.42426-.84851-.54548-.36365-.0909-.84852-.15152-1.42429-.15152h-1.36368c-.60608 0-1.12125.0606-1.5152.15152-.42426.12122-.7576.30304-1.00003.54548-.27274.27273-.48487.60608-.63639 1.03033-.15152.42426-.27273.96973-.33334 1.60611zm4.66681.36365-2.00006 14.12167c-.0606.48486-.15152.7879-.27274.96972-.12121.18183-.36364.24244-.7576.24244h-.36364c-.39396 0-.60608-.0606-.66669-.24244-.0606-.18182-.0606-.48486 0-.96972l2.00006-14.12167c.0606-.45456.12122-.7576.24243-.93942.12122-.18183.36365-.27274.7576-.27274h.36365c.39395 0 .63639.0909.69699.27274.0606.18182.0606.48486 0 .93942z"/><path d="m522.64162 243.71125.66669-4.66681c.12122-.96973.12122-1.69703-.0303-2.18189s-.48487-.7879-1.00004-.96973c.57578-.15152 1.00004-.45456 1.27277-.93942.27274-.48487.48487-1.21216.63639-2.18189l.57577-4.06074c.0606-.63638.0909-1.18185.0909-1.60611-.0303-.42425-.15152-.7576-.33334-1.03033-.18182-.24244-.48486-.42426-.84851-.54548-.36365-.0909-.84851-.15152-1.42429-.15152h-4.36378l-2.96979 21.2128h2.63645l1.30307-9.45484h1.06064c.42426 0 .66669.12121.7576.33334.0909.24243.12122.57578.0606 1.06064l-.7576 5.51533c-.0909.54547-.15152 1.03033-.18182 1.48489s0 .81821.12121 1.06064h2.72736c-.12121-.39395-.15152-.84851-.15152-1.33337 0-.48487.0606-1.00003.15152-1.54551zm-.57577-14.63683-.60608 4.36378c-.0606.48486-.15152.7879-.27274.96973-.12122.18182-.39395.24243-.7576.24243h-1.21216l.93942-6.7881h1.24247c.36365 0 .60608.0909.66669.27274.0606.18182.0606.48486 0 .93942z"/><path d="m536.36165 246.59013 1.57581-7.6366c.21212-1.06064.39395-2.15159.57577-3.24253.18183-1.09095.36365-2.18189.57578-3.27283l-.36365 3.27283c-.12122 1.09094-.21213 2.18189-.27274 3.24253l-.48486 7.6366h3.33344l4.90925-21.2128h-2.39402l-2.00006 8.72756c-.33335 1.39398-.60608 2.66675-.84851 3.8486-.24244 1.21216-.42426 2.2728-.57578 3.24253.0909-.96973.18182-2.03037.30304-3.24253.0909-1.18185.18182-2.45462.27274-3.8486l.51516-8.72756h-2.66675l-1.90915 8.72756c-.30304 1.39398-.57578 2.66675-.81821 3.8486-.24243 1.21216-.42425 2.2728-.57577 3.24253.0909-.96973.18182-2.03037.27273-3.24253.0909-1.18185.18183-2.45462.27274-3.8486l.48486-8.72756h-2.60614l-1.03034 21.2128z"/><path d="m549.44913 225.37733-2.96979 21.2128h2.63645l2.96979-21.2128z"/><path d="m557.23343 235.62009.30304 10.97004h2.93949l2.96979-21.2128h-2.2728l-1.30307 9.21242c-.12121.7273-.21213 1.42429-.27273 2.12128s-.15152 1.42429-.24244 2.15158c0-.69699.0303-1.39398.0303-2.12128 0-.69699 0-1.39398 0-2.12128l-.24243-9.24272h-3.24253l-2.96979 21.2128h2.24249l1.54551-10.97004c.0909-.697.18182-1.39399.24243-2.12128.0606-.7273.15152-1.42429.27273-2.12128-.0606.69699-.0606 1.39398-.0606 2.12128 0 .72729.0303 1.42428.0606 2.12128z"/><path d="m567.22991 225.37733-2.96979 21.2128h4.36377c.57578 0 1.06064-.0303 1.4849-.15152.39395-.0909.72729-.27273 1.00003-.54547.24243-.24243.45456-.60608.60608-1.03033.12122-.42426.24243-.93943.36365-1.60612l2.03037-14.54592c.0606-.63638.0909-1.18185.0909-1.60611-.0303-.42425-.15152-.7576-.33335-1.03033-.18182-.24244-.48486-.42426-.84851-.54548-.36365-.0909-.84851-.15152-1.42429-.15152zm2.2728 2.48493h1.24246c.36365 0 .60608.0909.66669.27274.0606.18182.0606.48486 0 .93942l-1.93946 13.81863c-.0606.48486-.15152.7879-.27273.96972-.12122.18183-.36365.24244-.7576.24244h-1.21216z"/><path d="m577.74158 228.55925-2.09098 14.84896c-.12121.66669-.15152 1.18186-.12121 1.60612.0303.42425.15152.7879.33334 1.03033.18183.27274.48487.45456.84851.54547.36365.12122.87882.15152 1.4849.15152h1.36368c.57578 0 1.06064-.0303 1.4849-.15152.39395-.0909.72729-.27273 1.00003-.54547.24243-.24243.45456-.60608.60608-1.03033.12121-.42426.24243-.93943.36365-1.60612l2.09097-14.84896c.0606-.63638.0909-1.18185.0909-1.60611-.0303-.42425-.15152-.7576-.33334-1.03033-.18182-.24244-.48486-.42426-.84851-.54548-.36365-.0909-.84851-.15152-1.42429-.15152h-1.36368c-.60608 0-1.12125.0606-1.5152.15152-.42426.12122-.7576.30304-1.00003.54548-.27274.27273-.48487.60608-.63639 1.03033-.15152.42426-.27273.96973-.33334 1.60611zm4.66682.36365-2.00007 14.12167c-.0606.48486-.15152.7879-.27273.96972-.12122.18183-.36365.24244-.7576.24244h-.36365c-.39395 0-.60608-.0606-.66669-.24244-.0606-.18182-.0606-.48486 0-.96972l2.00006-14.12167c.0606-.45456.12122-.7576.24244-.93942.12121-.18183.36364-.27274.7576-.27274h.36364c.39396 0 .63639.0909.697.27274.0606.18182.0606.48486 0 .93942z"/><path d="m591.04122 246.59013 1.57581-7.6366c.21213-1.06064.39395-2.15159.57577-3.24253.18183-1.09095.36365-2.18189.57578-3.27283l-.36365 3.27283c-.12121 1.09094-.21213 2.18189-.27273 3.24253l-.48487 7.6366h3.33344l4.90925-21.2128h-2.39402l-2.00006 8.72756c-.33334 1.39398-.60608 2.66675-.84851 3.8486-.24243 1.21216-.42426 2.2728-.57578 3.24253.0909-.96973.18183-2.03037.30304-3.24253.0909-1.18185.18183-2.45462.27274-3.8486l.51517-8.72756h-2.66676l-1.90915 8.72756c-.30304 1.39398-.57577 2.66675-.81821 3.8486-.24243 1.21216-.42425 2.2728-.57577 3.24253.0909-.96973.18182-2.03037.27273-3.24253.0909-1.18185.18183-2.45462.27274-3.8486l.48486-8.72756h-2.60614l-1.03034 21.2128z"/><path d="m606.3106 240.2869-.42426 2.75767c-.0909.48486-.18182.7879-.27273.96972-.12122.18183-.36365.24244-.7273.24244h-.27273c-.42426 0-.63639-.0606-.697-.24244-.0606-.18182-.0606-.48486 0-.96972l.66669-4.63652h-2.48493l-.69699 5.00016c-.12121.66669-.15152 1.18186-.12121 1.60612.0303.42425.15152.7879.33334 1.03033.18182.27274.48486.45456.84851.54547.36365.12122.84851.15152 1.45459.15152h1.12125c.57578 0 1.06064-.0303 1.4849-.15152.39395-.0909.72729-.27273 1.00003-.54547.24243-.24243.45456-.60608.60608-1.03033.12122-.42426.24243-.93943.36365-1.60612l.39395-2.84857c.0606-.66669.0909-1.21216.0909-1.69703 0-.48486-.0909-.93942-.21213-1.36368-.15152-.42425-.36364-.8182-.60608-1.24246-.27273-.42426-.60608-.87882-1.00003-1.42429-.36365-.42425-.63638-.7879-.81821-1.09094-.21212-.30304-.36364-.60608-.45456-.90912-.12121-.27274-.18182-.54547-.18182-.84851s.0303-.63639.0909-1.06064l.27274-2.06068c.0606-.42425.12121-.69699.24243-.87881.12122-.18183.36365-.27274.7879-.27274h.27274c.36365 0 .60608.0909.66669.27274.0606.18182.0606.48486 0 .93942l-.51517 3.84861h2.45462l.60608-4.21226c.0606-.63638.0909-1.18185.0909-1.60611-.0303-.42425-.15152-.7576-.33335-1.03033-.18182-.24244-.48486-.42426-.84851-.54548-.36365-.0909-.84851-.15152-1.42429-.15152h-1.12125c-.60608 0-1.09094.0606-1.48489.15152-.42426.12122-.7576.30304-1.00003.54548-.27274.27273-.48487.60608-.63639 1.03033-.15152.42426-.27273.96973-.33334 1.60611l-.30304 2.09098c-.12122.66669-.15152 1.24246-.12122 1.72733 0 .48486.0909.90912.21213 1.33337.12122.42426.33334.84852.60608 1.27277.27274.42426.60608.87882 1.03034 1.39399.33334.42425.60608.8182.8182 1.12124.21213.30304.36365.60608.48487.87882.0909.30304.15152.57578.15152.87882s0 .66668-.0606 1.03033z"/></g><path d="m633.86468 232.70346q1.1332 0 2.21272.5845 1.07952.57853 1.68191 1.66401.60238 1.07952.60238 2.25447 0 1.16302-.59642 2.23658-.59045 1.07356-1.66401 1.66998-1.06759.59046-2.23658.59046-1.16898 0-2.24254-.59046-1.06759-.59642-1.66402-1.66998-.59642-1.07356-.59642-2.23658 0-1.17495.60239-2.25447.60835-1.08548 1.68787-1.66401 1.07952-.5845 2.21272-.5845zm0 .74553q-.94831 0-1.8489.48907-.89463.4831-1.40159 1.38966-.50696.90059-.50696 1.87872 0 .97217.49503 1.8668.50099.88867 1.39562 1.38966.89464.49503 1.8668.49503.97217 0 1.8668-.49503.89463-.50099 1.38966-1.38966.49503-.89463.49503-1.8668 0-.97813-.50696-1.87872-.50099-.90656-1.40159-1.38966-.90059-.48907-1.84294-.48907zm1.44334 4.48509.7336.21471q-.17893.74552-.76342 1.19284-.57853.44135-1.40755.44135-1.04971 0-1.70577-.67992-.65606-.67992-.65606-1.88469 0-.78728.29821-1.3658.29821-.5845.84692-.87674.55467-.29821 1.26441-.29821.79324 0 1.31809.38171.52485.37574.7157 1.02584l-.70974.17296q-.17892-.44135-.53081-.67395-.34593-.23857-.8171-.23857-.68588 0-1.1332.48906-.44135.48907-.44135 1.40159 0 .91253.4175 1.3837.42345.46521 1.09145.46521.53677 0 .94234-.31014.40557-.31014.53678-.84095z" fill="#3ba9fd" stroke-width="2.49827"/><path d="m643.89079 219.58943 10.69747-1.42377v10.02451h-10.69747m11.98594-10.2279 14.17338-2.00491v12.14564h-14.17338m-11.98594 1.14482h10.69747v10.05357l-10.69747-1.45283m11.98594-8.46707h14.17338v12.02941l-14.17338-1.94679" fill="#3ca9fd" stroke-width="1.66666"/></g><g fill="#3a719a" fill-rule="evenodd" transform="matrix(.1 0 0 .1 -94.771936 -4.763627)"><path d="m2773.3823 1823.9081h4881.7896v301.87814h-4881.7896z" fill="#3ca9fd" fill-rule="nonzero" filter="url(#b)" stroke-width="13.2939" transform="matrix(1 0 -.1414171 .9899501 360 24.999999)"/><path d="m3035.1226 197.65088c-32.0879.898-135.668 32.48162-210.918 66.28906-243 110.11565-458.9961 321.65548-585.9961 576.66018l-40.9961 81.1328 45.9961 51.1914c84 92.72898 108 210.56788 65 320.68358-103 264.6639-442.0119 280.1235-572.0119 27.0508-28-56.0239-31.9922-73.4168-31.9922-137.168 1-88.8653 27-154.5409 85-208.63278 22-20.2845 40-42.4963 40-49.2578s-16.0039-43.4723-34.0039-82.1094c-119-250.175-373-493.58484-615-592.10937-87-35.73929-177.9883-59.88475-187.98825-51.19141-3 3.86371 9.99995 28.00201 29.99995 54.08203 139 182.56015 163.9922 435.64125 61.9922 616.26955-20 33.8074-35 65.6782-35 70.5078 0 3.8637 15.9961 10.6285 35.9961 14.4922 100 18.3526 186.0078 89.82238 223.0078 185.44918 27 67.6149 35.9883 198.0219 22.9883 300.4102-5 39.6029-5.9922 72.4537-1.9922 75.3515 3 1.9319 30.0078-4.8435 58.0078-15.4687 66-24.1482 152.9883-24.1482 207.9883 0 31.6999 13.4428 93.7381 60.8619 120.7812 88.8672h-278.1835v.02a466.79687 458.98437 0 0 0 -1.9532-.02 466.79687 458.98437 0 0 0 -.547 0 466.79687 458.98437 0 0 0 -466.24998 458.9843 466.79687 458.98437 0 0 0 466.79678 458.9844 466.79687 458.98437 0 0 0 400.1563-222.6563h357.8908a466.79687 458.98437 0 0 0 400.1563 222.6563 466.79687 458.98437 0 0 0 466.7968-458.9844 466.79687 458.98437 0 0 0 -458.0078-458.8867v-.1h-279.5896l26.9531-25.1172c94-85.9675 205.0078-104.3103 308.0078-54.0821 23 11.5911 43.9961 19.3147 45.9961 17.3828 3-1.9318 0-47.3338-5-101.4257-19-188.3556 13.0039-314.8939 99.0039-392.168 42-38.63708 136.9961-83.06638 175.9961-83.06638 20 0 19-4.8213-20-66.6406-53-83.0697-69.0078-158.4103-63.0078-290.7422 7-145.85496 40.0078-238.59007 123.0078-342.91017 20-25.11409 33-48.30426 30-52.16797-1.375-1.20741-4.498-1.69079-9.082-1.5625z" fill="#000" fill-opacity=".439216" filter="url(#a)" transform="matrix(1.0155251 0 0 1 -47.519939 0)"/><path d="m3015.918 128.59375c-32.0879.898-135.668 32.48162-210.918 66.28906-243 110.11565-458.9961 321.6555-585.9961 576.66016l-40.9961 81.13281 45.9961 51.19141c84 92.72897 108 210.56791 65 320.68361-103 264.6639-442.0117 280.1235-572.0117 27.0508-28-56.0239-31.9922-73.4168-31.9922-137.168 1-88.8653 27-154.54092 85-208.63282 22-20.28447 40-42.49633 40-49.25781 0-6.76149-16.0039-43.47231-34.0039-82.10938-119-250.17503-373-493.58484-615-592.10937-87-35.73929-177.98829-59.88475-187.98829-51.19141-3 3.86371 10 28.00201 29.99999 54.08203 139 182.56015 163.9922 435.64123 61.9922 616.26954-20 33.80744-35 65.67818-35 70.50781 0 3.86371 15.9961 10.62848 35.9961 14.49219 100 18.3526 186.0078 89.82246 223.0078 185.44922 27 67.6149 35.9883 198.0219 22.9883 300.4102-5 39.6029-5.9922 72.4537-1.9922 75.3515 3 1.9319 30.0078-4.8435 58.0078-15.4687 66-24.1482 152.9883-24.1482 207.9883 0 31.6999 13.4428 93.7381 60.8619 120.7812 88.8672h-278.1835v.02a466.79687 458.98437 0 0 0 -1.9532-.02 466.79687 458.98437 0 0 0 -.547 0 466.79687 458.98437 0 0 0 -466.25005 458.9843 466.79687 458.98437 0 0 0 466.79685 458.9844 466.79687 458.98437 0 0 0 400.1563-222.6563h357.8906a466.79687 458.98437 0 0 0 400.1563 222.6563 466.79687 458.98437 0 0 0 466.7968-458.9844 466.79687 458.98437 0 0 0 -458.0078-458.8867v-.1h-279.5896l26.9531-25.1172c94-85.9675 205.0078-104.3103 308.0078-54.0821 23 11.5911 43.9961 19.3147 45.9961 17.3828 3-1.9318 0-47.3338-5-101.4257-19-188.3556 13.0039-314.8939 99.0039-392.16801 42-38.63707 136.9961-83.0664 175.9961-83.0664 20 0 19-4.82132-20-66.64063-53-83.0697-69.0078-158.41023-63.0078-290.74218 7-145.85495 40.0078-238.59006 123.0078-342.91016 20-25.11409 33-48.30426 30-52.16797-1.375-1.20741-4.498-1.69079-9.082-1.5625z" fill="#000" stroke="#fff" stroke-width="20"/><g fill="#3ca9fd" filter="url(#c)" stroke-width="0" transform="matrix(1.0781694 0 .0311088 .927498 372.57871 54.876511)"><path d="m2867.749 1102.7069q19.6851 0 34.8963-13.4216 15.2111-12.5269 17.8955-31.3172l60.8447-331.96163v-5.36865q0-16.10596-10.7373-26.84326-11.6321-9.84253-27.738-9.84253h-123.479l-76.056 418.75487zm8.9478 189.6924q0-15.2112-10.7373-25.9485-10.7373-10.7373-25.9485-10.7373h-124.3738l-100.2148 566.3928h-156.5857l229.9572-1283.10789h344.4886q46.5283 0 80.5298 34.00147 34.0014 33.10669 35.791 81.42456 0 4.47388-3.5791 21.47461l-71.5821 404.43845q-17.0007 84.1089-99.32 107.3731 31.3171 11.6321 47.4231 41.1596 12.5268 23.2642 12.5268 51.897 0 6.2634-.8948 13.4216 0 13.4217-.8947 20.5799l-93.0567 507.3376h-157.4804l93.9514-525.2331z"/><path d="m3280.2405 538.99841h348.0676l-25.0537 144.95362h-193.2715l-72.4768 405.33327h192.3767l-26.8432 143.164h-191.482l-79.635 446.493h189.6924l-25.9485 143.164h-348.0676z"/><path d="m4052.4316 683.95203h-106.4782l-205.7984 1138.15427h-156.5857l207.5879-1138.15427h-110.0573l25.9484-144.95362h373.1214z"/><path d="m4334.2859 1102.7069q19.685 0 34.8962-13.4216 15.2112-12.5269 17.8955-31.3172l60.8448-331.96163v-5.36865q0-16.10596-10.7373-26.84326-11.6321-9.84253-27.7381-9.84253h-123.479l-76.0559 418.75487zm8.9477 189.6924q0-15.2112-10.7373-25.9485-10.7373-10.7373-25.9484-10.7373h-124.3738l-100.2149 566.3928h-156.5857l229.9573-1283.10789h344.4885q46.5284 0 80.5298 34.00147 34.0015 33.10669 35.791 81.42456 0 4.47388-3.5791 21.47461l-71.582 404.43845q-17.0007 84.1089-99.3201 107.3731 31.3172 11.6321 47.4231 41.1596 12.5269 23.2642 12.5269 51.897 0 6.2634-.8948 13.4216 0 13.4217-.8948 20.5799l-93.0566 507.3376h-157.4805l93.9514-525.2331z"/><path d="m4671.6162 1640.4669q0 15.2112 10.7373 26.8433 10.7373 11.6321 26.8433 11.6321h82.3193q43.844 0 54.5813-44.7388l163.7439-908.19703v-5.36865q0-16.10596-10.7373-26.84326-10.7373-9.84253-26.8433-9.84253h-83.2141q-18.7903 0-34.8962 12.52685-15.2112 11.63208-18.7903 29.52759l-163.7439 909.98653zm383.8587-1101.46849q46.5283 0 79.635 34.00147 34.0014 34.00146 34.0014 82.31933 0 13.42163-1.7895 20.57984l-184.3238 1030.78125q-9.8425 49.2126-50.1074 82.3193-40.2649 33.1067-91.2671 33.1067h-213.8513q-47.4231 0-80.5298-34.0014-33.1067-34.0015-33.1067-81.4246v-22.3694l184.3238-1028.99169q9.8425-50.10742 49.2126-83.21411 40.2649-33.10669 90.3723-33.10669z"/><path d="m5585.1819 1705.7855q-8.9478 50.1074-48.3179 83.2141-39.3701 33.1067-90.3723 33.1067h-356.1206l232.6416-1283.10789h337.3303q47.4231 0 80.5298 34.00147 34.0015 34.00146 34.0015 82.31933 0 6.26343-2.6844 20.57984l-75.1611 404.43845q-17.0007 84.1089-99.3201 107.3731 31.3172 11.6321 47.4231 41.1596 12.5269 23.2642 12.5269 51.897 0 6.2634-.8948 13.4216 0 13.4217-.8948 20.5799zm30.4223-979.77903v-5.36865q0-16.10596-10.7373-26.84326-10.7373-9.84253-25.9484-9.84253h-127.9529l-76.0559 418.75487h124.3737q19.6851 0 34.8963-13.4216 15.2112-12.5269 17.8955-31.3172zm-268.4326 529.70703-76.0559 422.334h123.479q19.6851 0 34.8963-12.5269 15.2111-11.6321 17.8955-30.4223l60.8447-338.2251v-4.4739q0-15.2112-10.7373-25.9485-10.7373-10.7373-25.9485-10.7373z"/><path d="m6056.7285 1465.9857 56.3709-568.18236-195.9558 568.18236zm-189.6924 144.9536-72.4768 211.167h-163.7439l483.1787-1283.10789h153.9014l-100.2148 1283.10789h-145.8484l20.5798-211.167z"/><path d="m6803.866 683.95203h-106.4783l-205.7983 1138.15427h-156.5857l207.5879-1138.15427h-110.0574l25.9485-144.95362h373.1213z"/></g><g fill="#fff" stroke-width="0" transform="matrix(1.0000117 0 -.18863367 .99998833 404.13682 44.184717)"><path d="m3322.6541 2013.6211h-127.6087v-176.4247h127.6087v34.1238h-82.3473v30.4507h76.4231v34.1238h-76.4231v43.6026h82.3473z"/><path d="m3545.7621 2013.6211h-45.2614v-118.1299l-32.702 76.66h-31.3986l-32.702-76.66v118.1299h-42.8917v-176.4247h52.8445l39.6926 88.5086 39.5741-88.5086h52.8445z"/><path d="m3745.2914 1949.7575q0 32.7019-19.9055 50.1193-19.9056 17.4173-58.6503 17.4173-38.7447 0-58.6502-17.4173-19.7871-17.4174-19.7871-50.0008v-112.6796h45.7354v110.0729q0 18.3652 7.7015 27.3701 7.7016 9.0049 25.0004 9.0049 17.0619 0 24.8819-8.6494 7.9386-8.6495 7.9386-27.7256v-110.0729h45.7353z"/><path d="m3915.0809 2013.6211h-127.2533v-176.4247h45.4984v142.3009h81.7549z"/><path d="m4105.4869 2013.6211h-47.0387l-12.204-35.6641h-65.4039l-12.204 35.6641h-45.8538l65.1669-176.4247h52.3706zm-70.2618-68.0106-21.6828-63.2712-21.6828 63.2712z"/><path d="m4268.8782 1871.3202h-55.0957v142.3009h-45.4984v-142.3009h-55.0957v-34.1238h155.6898z"/><path d="m4391.629 2013.6211h-103.3192v-31.2801h28.9104v-113.8645h-28.9104v-31.2801h103.3192v31.2801h-28.9104v113.8645h28.9104z"/><path d="m4600.2816 1925.468q0 42.1808-24.171 67.0627-24.171 24.7634-66.8257 24.7634-42.5362 0-66.7073-24.7634-24.171-24.8819-24.171-67.0627 0-42.5363 24.171-67.1812 24.1711-24.7634 66.7073-24.7634 42.4178 0 66.7072 24.7634 24.2895 24.6449 24.2895 67.1812zm-60.309 44.669q6.6352-8.057 9.8343-18.9577 3.1991-11.0191 3.1991-25.8298 0-15.877-3.6731-27.0147-3.673-11.1376-9.5973-18.0097-6.0427-7.1092-13.9812-10.3083-7.8201-3.1991-16.351-3.1991-8.6495 0-16.351 3.0807-7.5831 3.0806-13.9813 10.1897-5.9242 6.6352-9.7158 18.3652-3.673 11.6116-3.673 27.0147 0 15.7585 3.5545 26.8962 3.6731 11.0191 9.5974 18.0097 5.9242 6.9907 13.8627 10.3083 7.9386 3.3176 16.7065 3.3176 8.7679 0 16.7064-3.3176 7.9385-3.4361 13.8628-10.5452z"/><path d="m4795.4271 2013.6211h-43.8396l-74.8827-121.092v121.092h-41.7069v-176.4247h54.3848l64.3376 101.068v-101.068h41.7068z"/><path d="m5064.6258 1958.1699q0 26.0668-22.1568 42.4178-22.0382 16.2325-59.9536 16.2325-21.9198 0-38.2707-3.7915-16.2325-3.91-30.4508-9.8343v-42.2993h4.9764q14.0998 11.2561 31.5171 17.2989 17.5359 6.0427 33.6499 6.0427 4.1469 0 10.9006-.7109 6.7537-.7109 11.0192-2.3697 5.2133-2.1327 8.5309-5.3318 3.4361-3.1991 3.4361-9.4789 0-5.8057-4.9764-9.9527-4.8579-4.2655-14.3367-6.5167-9.9528-2.3697-21.0904-4.384-11.0192-2.1327-20.735-5.3318-22.2752-7.2276-32.1095-19.5501-9.7158-12.441-9.7158-30.8062 0-24.645 22.0383-40.1665 22.1567-15.6401 56.8729-15.6401 17.4174 0 34.3608 3.4361 17.0619 3.3176 29.5029 8.4124v40.6405h-4.8579q-10.6637-8.5309-26.1853-14.2182-15.4031-5.8058-31.5171-5.8058-5.6873 0-11.3746.8294-5.5688.7109-10.7822 2.8436-4.6209 1.7773-7.9385 5.4504-3.3176 3.5545-3.3176 8.1754 0 6.9907 5.3319 10.7822 5.3318 3.6731 20.1425 6.7537 9.7158 2.0142 18.6022 3.91 9.0049 1.8958 19.3131 5.2134 20.261 6.6351 29.8583 18.1282 9.7158 11.3746 9.7158 29.6213z"/><path d="m5233.8229 1871.3202h-55.0957v142.3009h-45.4983v-142.3009h-55.0957v-34.1238h155.6897z"/><path d="m5424.229 2013.6211h-47.0387l-12.204-35.6641h-65.4039l-12.204 35.6641h-45.8538l65.1669-176.4247h52.3705zm-70.2618-68.0106-21.6829-63.2712-21.6828 63.2712z"/><path d="m5587.6202 1871.3202h-55.0957v142.3009h-45.4984v-142.3009h-55.0957v-34.1238h155.6898z"/><path d="m5710.371 2013.6211h-103.3193v-31.2801h28.9105v-113.8645h-28.9105v-31.2801h103.3193v31.2801h-28.9105v113.8645h28.9105z"/><path d="m5919.0236 1925.468q0 42.1808-24.171 67.0627-24.171 24.7634-66.8258 24.7634-42.5362 0-66.7072-24.7634-24.171-24.8819-24.171-67.0627 0-42.5363 24.171-67.1812 24.171-24.7634 66.7072-24.7634 42.4178 0 66.7073 24.7634 24.2895 24.6449 24.2895 67.1812zm-60.3091 44.669q6.6352-8.057 9.8343-18.9577 3.1991-11.0191 3.1991-25.8298 0-15.877-3.673-27.0147-3.6731-11.1376-9.5973-18.0097-6.0428-7.1092-13.9813-10.3083-7.82-3.1991-16.351-3.1991-8.6494 0-16.351 3.0807-7.583 3.0806-13.9812 10.1897-5.9243 6.6352-9.7158 18.3652-3.6731 11.6116-3.6731 27.0147 0 15.7585 3.5546 26.8962 3.673 11.0191 9.5973 18.0097 5.9243 6.9907 13.8628 10.3083 7.9385 3.3176 16.7064 3.3176 8.7679 0 16.7065-3.3176 7.9385-3.4361 13.8627-10.5452z"/><path d="m6114.1692 2013.6211h-43.8396l-74.8828-121.092v121.092h-41.7068v-176.4247h54.3848l64.3375 101.068v-101.068h41.7069z"/><path d="m6387.7518 1892.8845q0 11.8486-4.147 23.2231-4.147 11.2562-11.8485 18.9577-10.5452 10.4267-23.5786 15.7586-12.9149 5.3318-32.228 5.3318h-28.318v57.4654h-45.4984v-176.4247h74.8828q16.8249 0 28.318 2.9621 11.6115 2.8437 20.4979 8.6495 10.6637 6.9906 16.2325 17.8913 5.6873 10.9006 5.6873 26.1852zm-47.0387 1.0664q0-7.4646-4.0285-12.7964-4.0285-5.4504-9.3603-7.5831-7.1091-2.8436-13.8628-3.0806-6.7537-.3555-18.0098-.3555h-7.82v52.8445h13.0334q11.6115 0 19.0761-1.4218 7.5831-1.4219 12.678-5.6873 4.3839-3.7916 6.2797-9.0049 2.0142-5.3319 2.0142-12.9149z"/><path d="m6591.5465 1925.468q0 42.1808-24.171 67.0627-24.171 24.7634-66.8257 24.7634-42.5363 0-66.7073-24.7634-24.171-24.8819-24.171-67.0627 0-42.5363 24.171-67.1812 24.171-24.7634 66.7073-24.7634 42.4177 0 66.7072 24.7634 24.2895 24.6449 24.2895 67.1812zm-60.309 44.669q6.6352-8.057 9.8343-18.9577 3.1991-11.0191 3.1991-25.8298 0-15.877-3.6731-27.0147-3.673-11.1376-9.5973-18.0097-6.0427-7.1092-13.9812-10.3083-7.8201-3.1991-16.351-3.1991-8.6495 0-16.351 3.0807-7.5831 3.0806-13.9813 10.1897-5.9242 6.6352-9.7158 18.3652-3.673 11.6116-3.673 27.0147 0 15.7585 3.5545 26.8962 3.6731 11.0191 9.5974 18.0097 5.9242 6.9907 13.8627 10.3083 7.9386 3.3176 16.7065 3.3176 8.7679 0 16.7064-3.3176 7.9385-3.4361 13.8628-10.5452z"/><path d="m6869.7501 1837.1964-47.5126 176.4247h-50.3563l-31.6356-114.9308-30.8062 114.9308h-50.3563l-47.5126-176.4247h47.5126l27.1332 121.4475 32.465-121.4475h45.3799l30.9246 121.4475 28.4365-121.4475z"/><path d="m7027.6913 2013.6211h-127.6088v-176.4247h127.6088v34.1238h-82.3474v30.4507h76.4231v34.1238h-76.4231v43.6026h82.3474z"/><path d="m7164.7788 1891.2257q0-6.6352-2.7252-11.3746-2.7251-4.7394-9.3603-7.4645-4.6209-1.8958-10.7822-2.2513-6.1612-.4739-14.3367-.4739h-16.4695v47.5126h13.9813q10.9006 0 18.2467-1.0664 7.3461-1.0663 12.3225-4.8579 4.7394-3.673 6.8722-8.057 2.2512-4.5024 2.2512-11.967zm70.9727 122.3954h-55.5696l-48.1051-64.693h-20.9719v64.693h-45.2614v-176.4247h76.3046q15.6401 0 26.8962 1.7773 11.2561 1.7773 21.0904 7.7015 9.9527 5.9243 15.7585 15.4031 5.9243 9.3604 5.9243 23.5786 0 19.5501-9.1234 31.8726-9.0049 12.3224-25.8298 20.4979z"/><path d="m7383.2657 2013.6211h-127.6087v-176.4247h127.6087v34.1238h-82.3473v30.4507h76.4231v34.1238h-76.4231v43.6026h82.3473z"/><path d="m7588.1269 1925.5865q0 24.6449-11.2561 44.195-11.2561 19.4316-28.4365 29.8583-12.9149 7.8201-28.318 10.9007-15.4031 3.0806-36.4935 3.0806h-62.2048v-176.4247h63.9821q21.5643 0 37.2044 3.673 15.64 3.5546 26.3037 10.1898 18.2468 11.1376 28.6735 30.0953 10.5452 18.8391 10.5452 44.432zm-47.0387-.3555q0-17.4173-6.3982-29.7398-6.2797-12.441-20.024-19.4316-6.9907-3.4361-14.3368-4.6209-7.2276-1.3034-21.9198-1.3034h-11.493v110.4284h11.493q16.2325 0 23.8156-1.4218 7.5831-1.5404 14.8107-5.4504 12.4409-7.1091 18.2467-18.9576 5.8058-11.967 5.8058-29.5029z"/></g><g><path d="m316.49094 3085.7627h272.18195v24.626631h-272.18195z" style="fill:#101010;fill-opacity:.313725;stroke:#101010;stroke-width:180.946;stroke-linecap:round;stroke-linejoin:round;stroke-opacity:.313725" transform="matrix(.70471262 -.70949286 .69998676 .71415582 0 0)"/><circle cx="2575" cy="1805" fill="#fff" r="80"/><path d="m321.69373 3333.1335h272.18195v24.626631h-272.18195z" style="fill:#101010;fill-opacity:.313725;stroke:#101010;stroke-width:180.946;stroke-linecap:round;stroke-linejoin:round;stroke-opacity:.313725" transform="matrix(.70471259 -.70949289 .69998679 .71415579 0 0)"/><g fill="#fff"><circle cx="2575" cy="2155" r="80"/><circle cx="2750" cy="1980" r="80"/><circle cx="2400" cy="1980" r="80"/><path d="m1348.1836 1773.3203v137.8906h-137.8906v137.8907h137.8906v137.8711h137.8906v-137.8711h137.8711v-137.8907h-137.8711v-137.8906z"/></g><path d="m1698.6351 1754.7008h570.3618" style="fill:#3ba9fd;fill-opacity:.992157;stroke:#3ba9fd;stroke-width:20;stroke-linecap:round;stroke-linejoin:round;stroke-opacity:.992157"/><g fill="#3ca9fd" stroke="none" stroke-width="0" transform="matrix(1.0795275 0 0 .92237846 381.02314 37.865763)"><path d="m1268.6387 1745.804q2.4484 0 4.3403-1.6694 1.892-1.5581 2.2259-3.8952l7.5678-41.2894v-.6677q0-2.0033-1.3355-3.3388-1.4468-1.2242-3.45-1.2242h-15.3583l-9.4598 52.0847zm1.1129 23.5939q0-1.892-1.3355-3.2275-1.3355-1.3355-3.2275-1.3355h-15.4696l-12.4647 70.4478h-19.4761l28.6021-159.5927h42.8474q5.7872 0 10.0163 4.2291 4.229 4.1178 4.4516 10.1276 0 .5564-.4451 2.671l-8.9034 50.304q-2.1145 10.4614-12.3534 13.355 3.8952 1.4468 5.8985 5.1194 1.5581 2.8936 1.5581 6.455 0 .779-.1113 1.6693 0 1.6694-.1113 2.5598l-11.5744 63.1025h-19.5874l11.6857-65.3284z"/><path d="m1319.9443 1675.69h43.2925l-3.1161 18.0293h-24.0391l-9.0147 50.4153h23.9278l-3.3387 17.8067h-23.8165l-9.905 55.5347h23.5939l-3.2275 17.8067h-43.2926z"/><path d="m1415.9892 1693.7193h-13.2437l-25.5972 141.5634h-19.4761l25.8198-141.5634h-13.6889l3.2274-18.0293h46.4088z"/><path d="m1451.0462 1745.804q2.4484 0 4.3404-1.6694 1.892-1.5581 2.2258-3.8952l7.5679-41.2894v-.6677q0-2.0033-1.3355-3.3388-1.4468-1.2242-3.4501-1.2242h-15.3582l-9.4599 52.0847zm1.1129 23.5939q0-1.892-1.3355-3.2275-1.3355-1.3355-3.2274-1.3355h-15.4696l-12.4647 70.4478h-19.4761l28.602-159.5927h42.8474q5.7872 0 10.0163 4.2291 4.2291 4.1178 4.4517 10.1276 0 .5564-.4452 2.671l-8.9033 50.304q-2.1146 10.4614-12.3534 13.355 3.8952 1.4468 5.8984 5.1194 1.5581 2.8936 1.5581 6.455 0 .779-.1113 1.6693 0 1.6694-.1113 2.5598l-11.5743 63.1025h-19.5874l11.6856-65.3284z"/><path d="m1493.0033 1812.6904q0 1.892 1.3355 3.3388 1.3355 1.4468 3.3388 1.4468h10.2388q5.4533 0 6.7888-5.5646l20.3665-112.9614v-.6677q0-2.0033-1.3355-3.3388-1.3355-1.2242-3.3388-1.2242h-10.3501q-2.3372 0-4.3404 1.5581-1.892 1.4468-2.3372 3.6726l-20.3664 113.184zm47.7443-137.0004q5.7872 0 9.905 4.2291 4.229 4.2291 4.229 10.2389 0 1.6693-.2225 2.5597l-22.9262 128.2083q-1.2242 6.1211-6.2323 10.2389-5.0082 4.1178-11.3518 4.1178h-26.5988q-5.8985 0-10.0163-4.2291-4.1178-4.2291-4.1178-10.1276v-2.7823l22.9262-127.9857q1.2242-6.2324 6.121-10.3502 5.0082-4.1178 11.2405-4.1178z"/><path d="m1606.6324 1820.8148q-1.1129 6.2323-6.0098 10.3501-4.8968 4.1178-11.2404 4.1178h-44.2943l28.936-159.5927h41.957q5.8985 0 10.0163 4.2291 4.2291 4.2291 4.2291 10.2389 0 .779-.3339 2.5597l-9.3485 50.304q-2.1145 10.4614-12.3534 13.355 3.8952 1.4468 5.8985 5.1194 1.5581 2.8936 1.5581 6.455 0 .779-.1113 1.6693 0 1.6694-.1113 2.5598zm3.7839-121.8648v-.6677q0-2.0033-1.3355-3.3388-1.3355-1.2242-3.2274-1.2242h-15.9148l-9.4598 52.0847h15.4696q2.4484 0 4.3404-1.6694 1.8919-1.5581 2.2258-3.8952zm-33.3876 65.8849-9.4598 52.5298h15.3583q2.4484 0 4.3404-1.5581 1.892-1.4468 2.2258-3.7839l7.5679-42.0684v-.5564q0-1.892-1.3355-3.2275-1.3355-1.3355-3.2275-1.3355z"/><path d="m1665.2833 1790.9885 7.0114-70.6704-24.3729 70.6704zm-23.5939 18.0293-9.0146 26.2649h-20.3665l60.0977-159.5927h19.1422l-12.4647 159.5927h-18.1406l2.5597-26.2649z"/><path d="m1758.2121 1693.7193h-13.2437l-25.5972 141.5634h-19.4761l25.8198-141.5634h-13.689l3.2275-18.0293h46.4088z"/></g></g></g></svg>