<svg height="141.80893mm" viewBox="0 0 166.2346 28.361786" width="831.17297mm" xmlns="http://www.w3.org/2000/svg"><g fill="#fff" transform="matrix(.077044 0 0 .077044 42.640412 -4.958493)"><g transform="translate(0 44.45)"><path d="m-240.24167 289.32706h147.372911v25.13541h-147.372911z"/><path d="m-225.425 277.42081h23.01875v68.26249h-23.01875z"/><path d="m-128.85208 328.48542v-51.06461h20.90208v48.94795c0 32.19778-22.4188 61.11874-68.2625 61.11874h-48.68333v-28.04583h53.71041c28.21852 0 42.33334-13.03384 42.33334-30.95625z"/></g><g><path d="m4.1159507 380.17735v9.31132c0 9.48422-6.1859503 14.403-14.5929097 14.403h-65.870467v28.04583h65.309196c19.2330167 0 34.611402-12.99612 34.611402-31.36748v-26.56659"/><path d="m-66.977745 321.61862h119.736748v26.56659h-119.736748z"/><path d="m-76.332176 358.66217h137.697265v25.06988h-137.697265z"/></g><g><path d="m195.69475 380.17735v9.31132c0 9.48422-6.18595 14.403-14.59291 14.403h-93.185416v28.04583h92.624146c19.23302 0 34.61141-12.99612 34.61141-31.36748v-41.90786"/><path d="m75.958008 358.66217h139.193972v25.06988h-139.193972z"/><path d="m85.686607 321.61862h121.607643v26.56659h-121.607643z"/></g><g><path d="m-328.89497 350.80444h87.83696v25.06989h-87.83696z" transform="scale(-1 1)"/><path d="m252.04857 321.4367v68.05198c0 9.48422 6.18595 14.403 14.59291 14.403h103.10339v28.04583h-102.54212c-19.23302 0-34.61141-12.99612-34.61141-31.36748v-79.13851"/><path d="m-369.79703 359.27115h128.73903v19.77822h-128.73903z" transform="scale(-1 1)"/><path d="m336.75961 321.88281h13.2833v29.27938h-13.2833z"/><path d="m356.591 321.88281h13.2833v29.27938h-13.2833z"/></g><g><path d="m384.56155 406.53754h116.2947v25.39998h-116.2947z"/><path d="m396.4068 353.62085h77.93011v25.39998h-77.93011z"/><path d="m457.19998 353.62085h17.13691v65.35207h-17.13691z"/></g><path d="m506.41251 361.55832h134.9375v27.51667h-134.9375z"/></g><g fill="#fff" transform="matrix(.43061211 0 0 .43061211 102.225944 -78.227313)"><path d="m-149.11161 198.25611c4.11955 0 7.45911 3.33956 7.45911 7.45911v7.70126c.00001 4.11955-3.33955 7.45911-7.45911 7.45911h-33.2619v-6.61458h28.9106c1.98498 0 3.59412-1.60915 3.59412-3.59412v-2.07134c0-1.98498-1.60915-3.59412-3.59412-3.59412l-9.35491-.00084h-12.11824c-4.11937 0-7.4588-3.40837-7.4588-7.6128v-7.85993c-.00001-4.20442 3.33942-7.61279 7.4588-7.61279h30.08002v6.75086h-25.7289c-1.98489 0-3.59397 1.64231-3.59397 3.66817v2.11402c0 2.02588 1.60909 3.80649 3.59397 3.80666l7.96705.00067z"/><path d="m-137.04228 193.7551v6.63008h17.37568c1.48257 0 2.82981 1.19657 2.82981 2.66599l-19.75229 5.16971c-1.38833.372-2.35386 1.63021-2.35386 3.06751v2.16938c0 4.11955 3.33943 7.45949 7.45898 7.45949l15.78353-.00053c4.11848-.00007 7.45794-3.33942 7.45794-7.45897v-12.2437c0-4.11955-3.33942-7.45898-7.45897-7.45898zm20.33933 15.40319v2.60191c0 1.54662-1.25373 2.80034-2.80035 2.80034h-8.61859c-1.33506 0-2.33134-.92697-2.58228-1.86345z"/><path d="m-94.063043 200.42708h5.758356v-6.94531h-5.754688v-11.64167h-8.272245v11.70782h-3.43557v6.87916h3.4361v17.06269c-.00001 1.93971 1.57244 3.51216 3.512153 3.51216h10.051229v-6.9488l-5.295335-.004z"/><path d="m-55.372381 220.87029v-6.63008h-19.340123c-1.48257 0-2.8298-1.19657-2.8298-2.66599l19.752282-5.16971c1.38833-.372 2.35387-1.63021 2.35387-3.06751v-2.16938c0-4.11955-3.33943-7.45949-7.45898-7.45949l-15.783532.00053c-4.11848.00007-7.45795 3.33942-7.45795 7.45897v12.2437c0 4.11955 3.33943 7.45898 7.45898 7.45898zm-22.303763-15.40319v-2.60191c0-1.54662 1.25372-2.80035 2.80035-2.80035h8.618592c1.33506 0 2.33134.92698 2.58227 1.86346z"/><path d="m-51.134745 181.84009h8.007662v39.16183h-8.007662z"/><path d="m-38.83162 181.84009h8.007663v39.16183h-8.007663z"/><path d="m-26.049582 193.7551v6.63008h17.3756899c1.48257 0 2.82981 1.19657 2.82981 2.66599l-19.7522899 5.16971c-1.38833.372-2.35386 1.63022-2.35386 3.06751v2.16938c0 4.11955 3.33942 7.45949 7.45898 7.45949l15.7835299-.00053c4.11848002-.00007 7.45794-3.33942 7.45794-7.45897v-12.2437c0-4.11955-3.33941998-7.45898-7.45897-7.45898zm20.3393399 15.40319v2.60191c0 1.54662-1.25373 2.80035-2.80035 2.80035h-8.6185899c-1.33506 0-2.33135-.92698-2.58228-1.86346z"/><path d="m21.365104 221.26302c-3.187061 0-5.123374-1.1036-6.548438-3.57188l-12.1708327-24.07708h8.9958337l10.847916 20.96823 10.847916-20.96823h8.995834l-12.170833 24.07708c-1.425064 2.46828-3.361377 3.57188-6.548438 3.57188h-1.124479z"/><path d="m44.51213 193.61405h8.007663v27.38787h-8.007663z"/><circle cx="48.551044" cy="186.27188" r="4.497917"/><path d="m87.238036 220.8703v-6.63008h-19.340124c-1.48257 0-2.8298-1.19657-2.8298-2.66599l19.752283-5.16971c1.388329-.372 2.353868-1.63021 2.353868-3.06751v-2.16938c0-4.11955-3.339428-7.45949-7.458979-7.45949l-15.783532.00053c-4.11848.00007-7.45795 3.33942-7.45795 7.45897v12.2437c0 4.11955 3.33943 7.45898 7.45898 7.45898zm-22.303764-15.40319v-2.60191c0-1.54662 1.25372-2.80035 2.80035-2.80035h8.618592c1.33506 0 2.33134.92698 2.58227 1.86346z"/><g transform="translate(.280633 44.45)"><path d="m104.97344 176.81302c-3.18706 0-5.123377-1.1036-6.54844-3.57188l-12.170834-24.07708h8.995834l10.84792 20.96823 7.47447-20.96823h7.47449l-7.54063 23.74635c-1.09433 2.40213-3.09679 3.90261-6.28385 3.90261h-1.12448z"/><path d="m129.64583 176.81302c3.18706 0 5.12338-1.1036 6.54844-3.57188l12.17084-24.07708h-8.99584l-10.84792 20.96823-7.47447-20.96823h-7.47449l7.54063 23.74635c1.09433 2.40213 3.09679 3.90261 6.28385 3.90261h1.12448z"/></g></g><g transform="matrix(.10979567 0 0 .12215 31.725081 -3.313323)"><g fill="#fff"><path d="m-284.29767 259.021h91.29927c-26.52018-8.79346-66.57893-43.77147-81.38357-64.91977 15.84062 38.93737 18.90421 55.96464-9.9157 64.91977z"/><path d="m-137.80724 27.21814h35.17266v66.790654c-10.04831-26.969418-21.63317-50.79349-35.17266-66.790654z"/><path d="m-171.4832 27.21814h19.83139c19.14698 27.933247 35.85653 54.073999 49.01723 85.8737v19.8314c-20.38788-41.358557-41.56207-81.593213-68.84862-105.7051z"/><path d="m-102.63458 167.58366v-17.4625c-27.46991-59.934048-66.36685-101.371036-99.2425-122.996162h-41.01042c74.01562 26.31561 117.00148 80.695772 140.25292 140.458662z"/><path d="m-115.37851 238.98542c-22.41737 33.12613-80.57773 26.95011-131.28271-27.27796-40.56477-43.38329-54.4327-101.76616-30.63959-135.537079 22.10579-31.376019 88.11282-17.961449 124.78874 21.868906 36.11138 39.217253 66.208651 97.981883 37.13356 140.946133z"/></g><ellipse cx="-219.82918" cy="185.96288" fill="#8fc73f" rx="29.747097" ry="21.234564"/><ellipse cx="-155.65778" cy="198.03009" fill="#fef100" rx="29.747099" ry="21.234564"/><path d="m-232.00444 104.24222c-6.00747-.0336-11.3991 1.86657-15.19856 5.90144-7.22728 7.6751-5.45961 20.71584 2.21589 32.21871a31.812036 22.59754 0 0 1 8.48682-.82011 31.812036 22.59754 0 0 1 31.77067 21.77077c4.1403-.76466 7.8025-2.59182 10.59057-5.55263 9.3525-9.932 3.4582-28.66239-10.62674-41.6047-8.36295-7.68449-18.45851-11.86443-27.23865-11.91348z" fill="#00aff1"/><path d="m-165.94439 117.8357c-5.49633-.007-10.42731 1.62386-14.03894 5.03845-7.04498 6.66064-6.49331 20.07723 1.30845 32.09882a30.451128 25.586822 0 0 1 4.49533-.30334 30.451128 25.586822 0 0 1 30.05605 21.57232c6.1395.35253 11.59101-1.11714 15.22336-4.45812 8.88264-8.17014 5.77076-27.42583-8.33541-40.93187-8.81636-8.44128-19.5483-13.00422-28.70884-13.01626z" fill="#ee141f"/></g></svg>