<svg height="161.82857" viewBox="0 0 801.45275 113.28" width="1144.9325" xmlns="http://www.w3.org/2000/svg" xmlns:xlink="http://www.w3.org/1999/xlink"><linearGradient id="a"><stop offset="0" stop-color="#999"/><stop offset=".98" stop-color="#f3f3f3"/></linearGradient><linearGradient id="b" gradientTransform="matrix(1 0 0 -1 .832726 282.7999)" gradientUnits="userSpaceOnUse" x1="194.8436" x2="250.60201" xlink:href="#a" y1="197.0799" y2="252.838"/><linearGradient id="c" gradientTransform="matrix(1 0 0 -1 .832726 282.7999)" gradientUnits="userSpaceOnUse" x1="446.32361" x2="503.13419" xlink:href="#a" y1="199.2144" y2="256.02539"/><linearGradient id="d" gradientTransform="matrix(1 0 0 -1 .832726 282.7999)" gradientUnits="userSpaceOnUse" x1="254.11011" x2="308.39819" xlink:href="#a" y1="201.7711" y2="256.05939"/><linearGradient id="e" gradientTransform="matrix(1 0 0 -1 .832726 282.7999)" gradientUnits="userSpaceOnUse" x1="305.78229" x2="365.5387" xlink:href="#a" y1="195.97141" y2="255.7276"/><linearGradient id="f" gradientTransform="matrix(1 0 0 -1 .832726 282.7999)" gradientUnits="userSpaceOnUse" x1="374.56409" x2="433.06021" xlink:href="#a" y1="193.6812" y2="252.1768"/><linearGradient id="g" gradientTransform="matrix(1 0 0 -1 .832726 282.7999)" gradientUnits="userSpaceOnUse" x1="511.6803" x2="573.1214" xlink:href="#a" y1="192.34599" y2="253.7868"/><linearGradient id="h" gradientTransform="matrix(1 0 0 -1 .832726 282.7999)" gradientUnits="userSpaceOnUse" x1="553.90302" x2="611.34528" xlink:href="#a" y1="206.0959" y2="263.53851"/><linearGradient id="i" gradientTransform="matrix(1 0 0 -1 .832726 282.7999)" gradientUnits="userSpaceOnUse" x1="614.1767" x2="672.25018" xlink:href="#a" y1="200.5295" y2="258.6026"/><linearGradient id="j" gradientTransform="matrix(1 0 0 -1 .832726 282.7999)" gradientUnits="userSpaceOnUse" x1="680.01678" x2="738.50928" xlink:href="#a" y1="198.23801" y2="256.73071"/><linearGradient id="k" gradientTransform="matrix(1 0 0 -1 .832726 282.7999)" gradientUnits="userSpaceOnUse" x1="743.90729" x2="800.7207" xlink:href="#a" y1="198.7372" y2="255.5506"/><radialGradient id="l" cx="141.9182" cy="231.59599" gradientTransform="matrix(1 0 0 -1 0 286.1599)" gradientUnits="userSpaceOnUse" r="23.3146"><stop offset=".43" stop-color="#fff"/><stop offset=".64" stop-color="#7a7a7a"/><stop offset=".99"/></radialGradient><linearGradient id="m"><stop offset="0" stop-color="#fff"/><stop offset="1"/></linearGradient><radialGradient id="n" cx="29.118" cy="197" gradientTransform="matrix(1 0 0 -1 0 286.1599)" gradientUnits="userSpaceOnUse" r="24.064699" xlink:href="#m"/><radialGradient id="o" cx="41.025501" cy="247.63429" gradientTransform="matrix(1 0 0 -1 0 286.1599)" gradientUnits="userSpaceOnUse" r="55.138199"><stop offset=".8128" stop-color="#fff"/><stop offset="1" stop-color="#575757"/></radialGradient><radialGradient id="p" cx="147.5619" cy="286.1153" gradientTransform="matrix(1 0 0 -1 0 286.1599)" gradientUnits="userSpaceOnUse" r="30.8323" xlink:href="#m"/><linearGradient id="q" gradientTransform="matrix(1 0 0 -1 0 286.1599)" gradientUnits="userSpaceOnUse" x1="32.9492" x2="23.5499" y1="240.078" y2="247.2213"><stop offset="0"/><stop offset="1" stop-color="#fff"/></linearGradient><radialGradient id="r" cx="95.703499" cy="249.7997" gradientTransform="matrix(1 0 0 -1 0 286.1599)" gradientUnits="userSpaceOnUse" r="50.008999"><stop offset=".04" stop-color="#fff"/><stop offset=".23" stop-color="#6e93e1"/><stop offset="1" stop-color="#363499"/></radialGradient><linearGradient id="s" gradientTransform="matrix(1 0 0 -1 0 286.1599)" gradientUnits="userSpaceOnUse" x1="92.507202" x2="88.742798" y1="220.5575" y2="232.854"><stop offset="0"/><stop offset=".9893" stop-color="#fff"/></linearGradient><g stroke="#484848" stroke-linecap="round" stroke-linejoin="round" stroke-width="1.44"><path d="m249.83273 34.440001c-.7-1.2-1.8-2.1-3.2-2.5-24-6.9-39.5-5.8-46.4 3-2.5 2.8-3.9 5.6-4.4 8.6-.5 2.8-.2 5.6 1.1 8.3h-.1c1.1 1.9 2.5 3.9 4.4 5.5h.2c1.6 1.2 3.2 2.3 5.1 3.2 1.2.7 4.4 1.1 9.3 1.2 1.1.2 2.8.2 5.6.2 2.5.2 4.4.2 5.8.2 4.4.2 8.8.5 10.2.9 1.4.5 3.9 3 4.1 4.2s0 0 0 0c.4.7.5.9.4 2.6-.2 1.8-.9 1.4-1.6 2.3v-.2c-.9.7-2.1 1.2-3.9 1.8-2.6.5-5.8 1.1-9.5 1.1-3.7.2-7.4 0-11.1-.4-3.5-.5-6.7-1.1-9.3-1.8-1.2-.4-2.6-.4-3.9.4-1.2.5-2.1 1.6-2.6 3-.5 1.2-.4 2.6.4 4.1.7 1.2 1.8 2.1 3.2 2.5 3.2 1.1 6.9 1.8 11.3 2.3 4.2.4 8.5.5 12.7.5 4.6-.2 8.5-.7 11.8-1.4 4.6-1.1 7.8-2.8 9.3-5.1h.2c1.4-1.8 2.5-3.4 3-4.8v-.2c.7-1.8 1.1-3.5 1.1-5.3v-.2c-.2-1.2 0-3.2-.7-5.1-.2-.9-.5-1.4-1.9-4.6-1.4-3-4.8-4.9-10.4-6.2-2.8-.5-6.9-.9-12-1.1-1.4-.2-3.5-.2-6.2-.2s-4.4 0-5.5 0c-2.8 0-4.6-.2-5.3-.4-1.1-.5-1.8-.9-2.5-1.6s-1.4-1.4-1.8-2.1v-.2c-.4-.5-.5-1.1-.4-1.8.4-1.1.9-2.3 1.9-3.5 5.3-5.1 17.1-5.1 35.4.2 1.4.4 2.8.2 3.9-.5 1.4-.7 2.3-1.8 2.5-3.2.7-1.1.5-2.5-.2-3.7z" fill="url(#b)"/><path d="m502.33273 31.240001c-.7-1.2-1.8-2.1-3.2-2.5-24-6.7-39.5-5.8-46.4 3-2.5 2.8-3.9 5.6-4.4 8.6-.5 2.8-.2 5.6 1.1 8.3h-.2c1.1 1.9 2.5 3.9 4.4 5.5h.2c1.6 1.2 3.2 2.3 5.1 3.2 1.2.7 4.4 1.1 9.3 1.2h5.6c2.5.2 4.4.2 5.8.2h.2c4.4 0 8.8.5 10.2.9 1.4.5 3.9 3 4.1 4.2s0 0 0 0c.2.7.5.9.4 2.6-.2 1.8-.9 1.4-1.6 2.3v-.1c-.9.7-2.1 1.2-3.9 1.8-2.6.5-5.8 1.1-9.5 1.1-3.7.2-7.4 0-11.1-.4-3.5-.5-6.7-1.1-9.3-1.8-1.2-.4-2.6-.4-3.9.4-1.2.5-2.3 1.6-2.6 3-.5 1.2-.2 2.6.4 4.1.7 1.2 1.8 2.1 3.2 2.5 3.2 1.1 6.9 1.8 11.3 2.3 4.2.4 8.5.5 12.7.5 4.6-.2 8.5-.7 11.8-1.4 4.6-1.1 7.8-2.8 9.3-5.1h.2c1.4-1.8 2.5-3.4 3-4.8v-.2c.7-1.8 1.1-3.5 1.1-5.3v-.2c-.2-1.2 0-3.2-.7-5.1-.2-.9-.5-1.4-1.9-4.6-1.4-3-4.8-4.9-10.4-6.2h-.2c-2.8-.5-6.9-.9-12-1.1-1.4 0-3.5 0-6.2-.2-2.6 0-4.4 0-5.5-.2-2.8 0-4.6-.2-5.3-.4-1.1-.5-1.8-.9-2.6-1.6-.7-.7-1.4-1.4-1.8-2.1-.4-.5-.5-1.1-.2-1.8.2-1.1.9-2.3 1.9-3.5 5.3-5.1 17.1-5.1 35.4.2 1.4.4 2.6.2 3.9-.5 1.4-.7 2.3-1.8 2.6-3.2.6-1.1.5-2.3-.3-3.6z" fill="url(#c)"/><path d="m301.73273 30.040001c-1.1-.9-2.3-1.4-3.7-1.4h-35.3c-1.4 0-2.6.5-3.7 1.4-1.1 1.1-1.6 2.3-1.6 3.7v43.7c0 1.4.5 2.6 1.6 3.7s2.3 1.6 3.7 1.6h35.3c1.4 0 2.6-.5 3.7-1.6.9-.9 1.4-2.3 1.4-3.7s-.5-2.6-1.4-3.7c-1.1-.9-2.3-1.4-3.7-1.4h-30v-11.4h22c1.4 0 2.6-.5 3.7-1.6.9-.9 1.4-2.3 1.4-3.7s-.5-2.6-1.4-3.7c-1.1-.9-2.3-1.4-3.7-1.4h-22v-11.5h30c1.4 0 2.6-.5 3.7-1.6.9-.9 1.4-2.1 1.4-3.7.2-1.4-.4-2.6-1.4-3.7z" fill="url(#d)"/><path d="m362.53273 36.240001c-.2-1.6-1.1-2.8-2.1-3.5-9.7-6.9-20.3-8.3-30.5-6.5-4.1.9-5.3.9-9.7 3s-7.4 6.2-7.4 6.2c-2.1 2.3-3.2 5.1-4.6 8.8s-1.4 5.5-1.6 10.1.4 8.8 1.8 12.7c1.2 4.1 3.4 7.6 6 10.4 2.6 3 5.8 5.5 9.7 6.9 3.7 1.6 7.9 2.5 12.3 2.5 10.6 0 18.2-2.5 22.9-7.1 5.5-4.9 7.8-12.2 6.9-22-.2-1.6-.7-2.6-1.6-3.7-1.1-.9-2.1-1.4-3.5-1.4h-22.9c-1.4 0-2.6.5-3.7 1.6s-1.6 2.5-1.6 4.1.5 3 1.6 4.1 2.3 1.8 3.7 1.8h17.6c-.4 2.8-1.4 5.3-3.2 7.1-3.4 3-8.8 4.4-16 4.4-3 0-6-.5-8.5-1.6l-.2-.2c-2.3-.9-4.2-2.3-5.8-4.2-1.6-1.8-2.8-4.1-3.7-6.3-.9-2.6-1.2-5.5-1.1-8.5 0-3.2.5-4.9 1.1-7.2.5-1.6 1.1-3 2.1-4.1 0 0 1.6-2.5 4.2-3.7 2.6-1.4 4.6-1.8 7.8-2.6h.2c7.8-1.9 15.2-.4 22.2 4.9 1.2.9 2.5 1.1 3.9.9 1.4-.4 2.5-1.1 3.4-2.5.3-1.4.7-2.8.3-4.4z" fill="url(#e)"/><path d="m429.23273 82.440001c.9-1.2 1.2-2.5 1.1-3.9-5.5-36.5-15.5-54.5-30-53.6-14.5-.9-24.5 16.4-29.8 51.8-.2 1.4.2 2.6 1.1 3.9.9 1.2 1.9 1.9 3.4 2.1s2.6-.2 3.9-.9c1.1-.9 1.8-1.9 2.1-3.4.7-4.4 1.4-8.5 2.1-12.2h34.2c.9 4.2 1.8 8.8 2.5 13.9.2 1.4.9 2.5 2.1 3.4 1.1.9 2.5 1.2 3.9.9 1.3-.3 2.5-1 3.4-2zm-43.6-26.8c3.9-13 8.8-19.8 14.6-20.1 5.6.5 10.6 7.2 14.3 20.1z" fill="url(#f)"/><path d="m516.63273 82.440001c1.2-.9 1.9-1.9 2.1-3.4.7-4.4 1.4-8.5 2.1-12.2h34.2c.9 4.2 1.8 8.8 2.5 13.9.2 1.4.9 2.5 2.1 3.4 1.1.9 2.5 1.2 3.9.9 1.4-.2 2.5-.9 3.4-1.9.9-1.2 1.2-2.5 1.1-3.9-5.5-36.5-15.5-54.5-30-53.6-14.5-.9-24.3 16.4-29.8 51.8-.2 1.4.2 2.6.9 3.9.9 1.2 1.9 1.9 3.5 2.1s2.8-.2 4-1zm6.9-26.1c3.9-13 8.8-19.8 14.6-20.1 5.8.5 10.6 7.2 14.5 20.1z" fill="url(#g)"/><path d="m613.33273 29.640001c-1.1-.9-2.3-1.4-3.7-1.4h-45.8c-1.4 0-2.8.5-3.7 1.4-1.1 1.1-1.6 2.3-1.6 3.7s.5 2.6 1.6 3.7 2.3 1.6 3.7 1.6h17.6v40.4c0 1.4.5 2.6 1.6 3.7s2.3 1.6 3.7 1.6c1.6 0 2.6-.5 3.7-1.6 1.1-.9 1.6-2.3 1.6-3.7v-40.4h17.6c1.4 0 2.6-.5 3.7-1.6 1.1-.9 1.4-2.3 1.4-3.7.2-1.4-.4-2.6-1.4-3.7z" fill="url(#h)"/><path d="m675.03273 28.640001c-1.1-1.1-2.3-1.6-3.7-1.6s-2.6.5-3.7 1.6c-1.1.9-1.6 2.3-1.6 3.7v26.1c0 1.9-.4 3.9-1.1 5.6-.7 1.8-1.8 3.4-3.2 4.8-1.4 1.2-2.8 2.5-4.8 3.2-1.8.7-3.7 1.1-5.6 1.1h-7.8c-1.9 0-3.9-.4-5.6-1.1-1.8-.7-3.4-1.8-4.8-3.2s-2.5-2.8-3.2-4.6c-.7-1.8-1.1-3.7-1.1-5.6v-26.3c0-1.4-.5-2.6-1.4-3.7-1.1-1.1-2.3-1.6-3.7-1.6s-2.8.5-3.7 1.6c-1.1.9-1.6 2.3-1.6 3.7v26.1c0 3.4.7 6.7 1.9 9.9 1.2 3 3 5.6 5.3 8.1 2.3 2.3 4.9 4.1 8.1 5.5 3.2 1.2 6.3 1.9 9.9 1.9h7.8c3.5 0 6.7-.5 9.9-1.9h-.2c3-1.2 5.6-3.2 8.1-5.5 2.3-2.3 4.1-4.9 5.5-8.1v.2c1.2-3.2 1.9-6.3 1.9-9.9v-26.3c0-1.4-.6-2.8-1.6-3.7z" fill="url(#i)"/><path d="m682.03273 28.640001c-.9.9-1.4 2.1-1.4 3.5v45.3c0 1.4.5 2.6 1.6 3.7s2.5 1.6 4.1 1.6 2.8-.5 3.9-1.6c1.1-.9 1.8-2.3 1.8-3.7v-40.4c12.2-.7 21.3 0 27.9 1.8 4.9 1.4 7.4 3.9 7.8 7.2.2 2.6-1.1 4.6-3.4 5.8-3.7 1.6-9.3 1.9-16.6 1.2-1.2-.2-2.5.2-3.5.7-1.1.5-1.9 1.4-2.3 2.6-.5 1.1-.5 2.1-.2 3.4.4 1.1 1.1 1.9 2.1 2.6l28 19.2c1.2.9 2.6 1.2 4.1.9 1.6-.2 2.8-.9 3.7-2.1.9-1.1 1.2-2.5 1.1-3.9-.4-1.4-1.1-2.6-2.3-3.5l-14.8-10.1c2.1-.5 4.1-1.1 5.6-1.9 6.3-3 9.5-7.9 9.7-15 .4-8.3-4.9-14.1-15.5-17.3-8.3-2.6-20.8-3.2-37.4-1.9-1.7.3-2.9.8-4 1.9z" fill="url(#j)"/><path d="m747.13273 29.540001c-.7.9-.9 1.8-.9 3v45.5c0 1.4.5 2.6 1.6 3.7.9 1.1 2.3 1.6 3.7 1.6s2.6-.5 3.7-1.6c.9-.9 1.4-2.3 1.4-3.7v-32.5l34.9 36.1c.9.7 1.6 1.2 2.8 1.6 1.1.2 1.9 0 3-.2 1.1-.5 1.8-1.1 2.5-1.9s.9-1.8.9-2.8v-45.8c0-1.4-.5-2.6-1.6-3.7-1.1-.9-2.3-1.4-3.7-1.4s-2.6.5-3.7 1.4c-1.1 1.1-1.6 2.3-1.6 3.7v32.4l-34.9-36.1c-.9-.7-1.6-1.2-2.8-1.4-1.1-.2-2.1 0-3 .4-.9.3-1.8.8-2.3 1.7z" fill="url(#k)"/></g><g transform="translate(.832726 -3.359999)"><path d="m151.9 47.7c1.6-.2 2.8-.2 3.7 0v.2c2.3 1.6 3.7 3 3.7 4.8-.9 2.6-3.5 5.8-7.9 9.2-5.1 3.9-12.3 7.9-21.2 12-4.1 1.8-8.1 3.5-12.5 5.3-5.1 1.9-4.2 15.5-.5 14.1 6.7-2.5 12.9-4.9 18.5-7.6 9.7-4.6 17.6-9 23.6-13.6 7.6-5.8 12-11.3 12.7-16.8 1.4-5.1.2-9.7-3.7-13.8-1.6-1.8-17.1 6.2-16.4 6.2z" fill="url(#l)"/><path d="m64 94.2c-3.9.7-7.6 1.4-11.1 1.9l.2-.2c-7.4 1.1-13.8 1.6-19.2 1.8h-.2c-4.8 0-8.5-.4-10.8-1.2-1.6-.7-3.2-.5-4.9.2-1.8.7-2.8 1.9-3.5 3.5-.7 1.8-.5 3.4.2 4.9.7 1.6 1.9 2.8 3.5 3.5 3.5 1.2 8.6 1.9 15.5 1.9 6-.2 12.9-.7 21-1.8h.2c4.1-.5 8.1-1.2 12.3-2.1 4.1-.6.9-13.3-3.2-12.4z" fill="url(#n)"/><path d="m63.2 24.4c-3.7 1.2-7.2 2.5-10.8 3.7-8.1 3.2-15.3 6.3-21.9 9.7h.2c-7.1 3.5-12.7 7.1-17.3 10.8v-.2c-5.4 4.2-9.1 8.3-11.1 12.1v.2c-3 5.5-3.2 10.6-.7 15.3 1.6 4.6 6.2 7.2 14.1 7.6 4.6.4 10.8-.4 18.5-1.8 3.9-.9 8.5-1.9 13.4-3.4 3-.9-.5-13.4-3.5-12.5-4.6 1.2-8.8 2.3-12.5 3-6.3 1.2-11.3 1.8-15.2 1.6-1.6 0-2.6-.2-3-.2l-.2-.2c-.4-1.1-.2-2.3.5-3.7v-.2c1.4-2.5 3.9-5.1 7.6-7.9 4.1-3.2 9-6.3 15-9.3 6-3.2 12.9-6.2 20.5-9.2v.2c2.1-.9 4.4-1.6 6.5-2.3 5.9-1.5 4.5-14.9-.1-13.3z" fill="url(#o)"/><path d="m117.1 25.1c4.2-.5 8.3-.9 12.2-1.1 7.8-.7 14.8-.5 21 .2 1.8.2 3.4-.4 4.8-1.4 1.4-1.2 2.1-2.6 2.5-4.4.2-1.8-.4-3.5-1.4-4.8-1.2-1.4-2.6-2.3-4.4-2.3-6.9-.7-14.8-.7-23.3-.2-5.5.4-11.1 1.1-17.1 1.9-2.7.3 2 12.6 5.7 12.1z" fill="#ccc"/><path d="m117.1 25.1c4.2-.5 8.3-.9 12.2-1.1 7.8-.7 14.8-.5 21 .2 1.8.2 3.4-.4 4.8-1.4 1.4-1.2 2.1-2.6 2.5-4.4.2-1.8-.4-3.5-1.4-4.8-1.2-1.4-2.6-2.3-4.4-2.3-6.9-.7-14.8-.7-23.3-.2-5.5.4-11.1 1.1-17.1 1.9-2.7.3 2 12.6 5.7 12.1z" fill="url(#p)"/><path d="m9 64.3c0 7.1 4.4 6.5 4.4 6.5l-.2-.2c-.4-1.1-.2-2.3.5-3.7v-.2c1.4-2.5 3.9-5.1 7.6-7.9 4.1-3.2 9-6.3 15-9.3 6-3.2 12.9-6.2 20.5-9.2v.2c2.1-.9 4.4-1.6 6.5-2.3 2.5-.9 3.5-3.9 3.5-6.9-2.8-.4-5.8-.5-8.8-.5-6.5 0-12.5.9-18.2 2.6-3.4 1.6-6.5 3-9.7 4.6h.2c-2.1 1.1-4.2 2.3-6.2 3.4-7.3 5.7-15.1 13.9-15.1 22.9z" fill="url(#q)"/><path d="m157.5 18.4c.2-1.8-.4-3.5-1.4-4.8-1.2-1.4-2.6-2.3-4.4-2.3-6.9-.7-14.8-.7-23.3-.2-7.9.5-16.4 1.6-25.4 3.2-8.6 1.6-17.3 3.5-25.9 6s-16.9 5.1-24.7 7.9c-8.1 3.2-15.3 6.3-21.9 9.7h.2c-7 3.6-12.7 7.1-17.3 10.8v-.2c-5.4 4.3-9.1 8.3-11.1 12.2v.2c-3 5.5-3.2 10.6-.7 15.3 1.6 4.6 6.2 6.9 13.9 7.2 4.6.4 10.8 0 18.5-1.6 6.3-1.2 13.9-3.4 23.1-6 6.7-2.1 15.3-4.8 25.7-8.3l25.7-8.5c9.3-3.2 17.1-5.5 23.1-7.2 7.2-2.1 13-3.5 17.3-4.1 3-.4 5.1-.5 6.2-.4v.2c2.3 1.6 3.7 3 3.7 4.8-.9 2.6-3.5 5.8-7.9 9.2-5.1 3.9-12.3 7.9-21.2 12-8.6 3.9-18.2 7.4-28.6 10.9h-.2c-8.1 2.6-16.4 4.9-25 6.9-8.3 1.9-16.2 3.4-23.6 4.6l.2-.2c-7.4 1.1-13.8 1.6-19.2 1.8h-.2c-4.8 0-8.5-.4-10.8-1.2-1.6-.7-3.2-.5-4.9.2-1.8.7-2.8 1.9-3.5 3.5-.7 1.8-.5 3.4.2 4.9s1.9 2.8 3.5 3.5c3.5 1.2 8.6 1.9 15.5 1.9 6-.2 12.9-.7 21-1.8h.2c7.8-1.1 16-2.6 24.5-4.6h.2c8.8-2.1 17.5-4.6 25.9-7.2 11.1-3.5 21.2-7.4 30.2-11.5 9.7-4.6 17.6-9 23.6-13.6 7.6-5.8 12-11.3 12.7-16.8 1.9-7.2-1.2-13.2-9.5-18.5-2.6-2.1-7.4-2.6-14.8-1.6h-.2c-4.8.7-11.1 2.1-19 4.4-6 1.8-13.9 4.1-23.6 7.4l-25.7 8.5c-10.2 3.4-18.7 6-25.2 7.9-8.8 2.6-16 4.6-22 5.8-6.3 1.2-11.3 1.8-15.2 1.6-1.6 0-2.6-.2-3-.2l-.2-.2c-.4-1.1-.2-2.3.5-3.7v-.2c1.4-2.5 3.9-5.1 7.6-7.9 4.1-3.2 9-6.3 15-9.3 6-3.2 12.9-6.2 20.5-9.2v.2c7.4-2.8 15.3-5.5 23.6-7.8 8.3-2.5 16.6-4.4 24.9-5.8 8.3-1.6 16.4-2.6 24-3 7.8-.7 14.8-.5 21 .2 1.8.2 3.4-.4 4.8-1.4 1.7-.6 2.4-2 2.6-3.6z" fill="none" stroke="#333" stroke-linecap="round" stroke-linejoin="round" stroke-width="1.44"/><circle cx="86.599998" cy="60" fill="url(#r)" r="55.200001" stroke="#33317a" stroke-linecap="round" stroke-linejoin="round" stroke-width="2.88"/><path d="m31.3 69.2c-.7.2-17.3 3.7-20.1 1.1-.9-.9 1.8 1.2 4.4 4.6.4.5 0 1.2-.4 2.1-.2.2-.2.4-.4.5 0 .2-.2.5-.2.7 0 .4-.2.5-.4.9-.2.9-.7 1.8-.9 2.3 0 .2.4.4.4.7 0 .2-.4.2-.4.4s-.5.2-.4.4v.2c.4 0 1.1.2 1.2.2.2 0 1.6.2 3.7.2s4.8 0 7.1-.2c1.4-.2 2.8-.4 4.2-.5 1.8-.4 3.5-.5 4.6-.7s1.6 0 1.8 0c6-1.2 13.2-3.2 21.7-5.6 6.7-2.1 15.3-4.8 25.7-8.3l25.7-8.5c5.1-1.8 9.9-3.2 13.9-4.6 3.4-1.1 6.3-1.9 9-2.6 3.4-1.1 6.2-1.8 9-2.5 3.2-.7 6-1.4 8.5-1.8 3-.4 5.1-.5 6.2-.4v.2c.9.5 4.9.2 6.9 3.2 3.2 4.9 4.8 13.8 6.2 12 1.9-2.6 3-5.1 3.4-7.6 1.9-7.2-1.2-12.9-9.5-18.2-2.6-2.1-7.4-2.6-14.8-1.6h-.2c-2.8.5-6.3 1.2-10.4 2.1-2.6.7-5.5 1.1-8.6 1.9-3 .9-6.5 1.9-10.4 3.2-3.9 1.2-8.3 2.6-13.2 4.2l-25.7 8.5c-7.2 2.3-13.6 4.4-19 6.2z" fill="url(#s)"/><g fill="none" stroke="#333" stroke-linecap="round" stroke-linejoin="round"><path d="m137.9 36.9c-2.6.7-6.3 1.8-9.3 2.6-6 1.8-13.9 4.1-23.6 7.4l-25.7 8.5c-7.8 2.6-14.5 4.6-20.1 6.3-2.6.5-4.4.9-5.3 1.2-8.6 2.5-29.4 8.6-37.7 7.8"/><path d="m34.2 81.9c6-1.2 14.8-3.5 23.3-6 6.7-2.1 15.3-4.8 25.7-8.3l25.7-8.5c9.3-3.2 17.1-5.5 23.1-7.2 3.4-1.1 7.1-1.9 9.7-2.6"/></g></g></svg>