<svg height="165.94167" viewBox="0 0 300 99.564999" width="500" xmlns="http://www.w3.org/2000/svg"><path d="m147.808 90.894c5.508 5.349 13.019 8.656 21.303 8.656l130.889.015-28.268-84.332c-3.861-8.959-12.919-15.233-23.798-15.233-10.833 0-20.028 6.479-23.745 15.401l-9.423 27.471-.037-41.453-45.709-.023c-8.262 0-15.689 3.224-21.159 8.557l.016-8.52h-46.801c-8.717 0-16.645 3.717-22.19 9.559v-9.596l-44.11.038c-19.042-.016-34.662 14.869-34.685 34.549 0 9.111 3.982 17.374 9.854 23.496l-9.945-.016v40.087l44.442-.008c12.487-.015 24.861-7.549 29.162-16.576l.129-.371c4.969 10.036 15.339 16.955 27.341 16.955l46.733-.008v-8.648" fill="#fff" stroke-width=".999998"/><g fill="#0060a8"><path d="m6.866 92.691 37.477-.038c15.333 0 27.759-12.388 27.759-27.652 0-15.294-12.426-27.683-27.759-27.683l-9.733.053c-.767 0-1.389-.629-1.389-1.403s.622-1.404 1.389-1.404l37.409.008.015-11.736h-37.432c-7.237 0-13.125 5.879-13.125 13.102 0 7.23 5.887 13.086 13.125 13.086l9.779.129c8.785 0 15.894 7.085 15.894 15.826 0 8.747-7.108 15.848-15.894 15.848h-37.5z"/><path d="m6.881 78.072h37.5c7.26 0 13.132-5.856 13.132-13.094 0-7.23-5.872-13.079-13.132-13.079l-9.779-.106c-8.77 0-15.886-7.093-15.886-15.856 0-8.739 7.116-15.833 15.886-15.833l37.432-.008-.015-11.781h-37.409c-15.317 0-27.759 12.374-27.759 27.653s12.442 27.66 27.759 27.66l9.68.015c.736 0 1.358.6 1.358 1.358 0 .744-.622 1.343-1.358 1.343l-37.424.03z"/><path d="m101.158 80.902c-6.502 0-11.828-5.182-11.828-11.798v-37.438c0-6.365 5.326-11.6 11.828-11.6l40.003.007v-11.758h-40.003c-13.018 0-23.563 10.507-23.563 23.48v37.31c0 12.974 10.545 23.496 23.563 23.496l39.836.016-.008-11.729z"/><path d="m92.198 31.795c0-4.961 3.991-8.982 8.96-8.982h40.003v11.774h-34.465c-2.761 0-2.799 2.739-2.799 2.739h28.753v11.721h-40.466z"/><path d="m101.158 78.05c-4.954 0-8.975-3.998-8.975-8.945v-17.267h40.466v11.745h-28.753c.038 2.761 2.799 2.775 2.799 2.775h34.298l-.008 11.676z"/><path d="m169.194 80.872c-6.479 0-11.774-5.28-11.774-11.768v-37.31c0-6.494 5.257-11.729 11.743-11.729h38.745v-11.75h-38.835c-13.012 0-23.557 10.507-23.557 23.48v37.31c0 12.974 10.636 23.496 23.647 23.496l38.745.016v-55.291h-33.297v11.721h21.53v31.825z"/><path d="m160.181 69.104c0 4.971 4.021 9.014 8.982 9.014h24.201v-26.295h-18.724v11.76h6.949l.022 2.761h-6.918c-1.51 0-2.746-1.251-2.746-2.761l-.062-26.265s-.008-2.731 2.777-2.799h33.259l-.015-11.714-38.745.008c-4.961 0-8.982 4.021-8.982 8.982v37.309"/><path d="m244.315 22.638c.522-1.494 1.941-2.571 3.618-2.571 1.678 0 3.111 1.077 3.619 2.571l18.808 55.563h-27.54l.03-13.071h9.203l-4.143-12.313-13.496 39.79h-13.883z"/><path d="m274.152 80.872h-31.286v11.735h47.612l-24.762-73.262c-2.17-7.146-9.323-12.403-17.791-12.403-8.481 0-15.612 5.234-17.798 12.374l-24.989 73.292h12.465l24.262-71.244c.985-2.359 3.308-4.021 6.039-4.021 2.716 0 5.052 1.662 6.046 4.006z"/></g></svg>