<svg height="183.35851" viewBox="0 0 110.9125 36.671701" width="554.5625" xmlns="http://www.w3.org/2000/svg"><g transform="translate(-547.24991 -202.59776)"><path d="m571.87491 213.92596h-24.625v4.8025h9.3575v19.8225h5.91v-19.8225h9.3575z" fill="#4f4c4d"/><path d="m628.61328 213.92596h-24.62625v4.8025h9.3575v19.8225h5.91125v-19.8225h9.3575z" fill="#4f4c4d"/><path d="m596.20853 238.55146h5.91v-24.625h-5.91z" fill="#4f4c4d"/><g fill="#127bca"><path d="m579.87791 238.55116h16.00875l-10.65875-19.61c-3.96625 5.4725-6.035 12.35375-5.35 19.61"/><path d="m565.10378 238.55116h8.37125c.905-8.61375 4.845-16.1575 10.635-21.66625l-3.615-6.6525z"/><path d="m599.16378 202.59776c-2.44875 0-4.43375 1.985-4.43375 4.4325s1.985 4.4325 4.43375 4.4325c2.4475 0 4.4325-1.985 4.4325-4.4325s-1.985-4.4325-4.4325-4.4325"/><path d="m592.59641 211.85566-.39125-.71625c-2.96125 1.51875-5.6875 3.455-8.095 5.745l1.1175 2.0575c2.0075-2.7675 4.50125-5.175 7.36875-7.08625"/></g><path d="m643.38741 234.71696c-4.70625 0-8.5175-3.38875-8.5175-8.51375s3.81125-8.5125 8.5175-8.5125 8.5175 3.3875 8.5175 8.5125-3.81125 8.51375-8.5175 8.51375m0-21.58c-8.4675 0-14.775 5.25625-14.775 13.06625s6.3075 13.06625 14.775 13.06625c8.46875 0 14.775-5.25625 14.775-13.06625s-6.30625-13.06625-14.775-13.06625" fill="#4f4c4d"/></g></svg>