<svg height="154.34302" viewBox="0 0 399.60679 30.868604" width="1998.0339" xmlns="http://www.w3.org/2000/svg"><g fill="#646464" stroke-width="2.5"><g transform="translate(-.22622 -12.791656)"><path d="m268.25028 28.927518q0 7.497914-3.50822 11.137252-3.46436 3.595491-10.96318 3.595491-8.24432 0-12.01566-3.551643-3.90289-3.683186-3.90289-11.926506 0-7.58561 3.50822-11.400338 3.68363-3.990118 11.18245-3.990118 8.41973 0 12.0595 3.814728 3.63978 3.814729 3.63978 12.321134zm-14.99763 8.067931q3.85904 0 5.87626-2.630847 1.84182-2.41161 1.84182-6.401728 0-4.12166-1.92952-6.357881-2.06108-2.411609-6.13939-2.411609-3.81519 0-5.74471 2.543152-1.71026 2.23622-1.71026 6.18249 0 4.209356 1.71026 6.489423 1.97338 2.587 6.09554 2.587z"/><path d="m234.20165 29.044802q0 7.429477-3.50259 11.035598-3.45882 3.562673-10.94561 3.562673-8.23108 0-11.99637-3.519226-3.89664-3.649568-3.89664-11.817648 0-7.516372 3.50259-11.296281 3.67773-3.953698 11.16452-3.953698 8.40622 0 12.04016 3.779909 3.63394 3.779909 3.63394 12.208673zm-14.97358 7.994291q3.85284 0 5.86684-2.606834 1.83886-2.389597 1.83886-6.343296 0-4.08404-1.92643-6.299849-2.05777-2.389598-6.12954-2.389598-3.80906 0-5.73549 2.519939-1.70751 2.21581-1.70751 6.126061 0 4.170935 1.70751 6.43019 1.9702 2.563387 6.08576 2.563387z"/><path d="m200.33355 29.063619q0 7.400946-3.51781 10.993218-3.47383 3.548993-10.99313 3.548993-8.26685 0-12.04849-3.505712-3.91355-3.635553-3.91355-11.772265 0-7.487507 3.51781-11.2529 3.69368-3.938515 11.213-3.938515 8.44272 0 12.09245 3.765393 3.64972 3.765394 3.64972 12.161788zm-15.03861 7.963592q3.86958 0 5.89232-2.596823 1.84684-2.380422 1.84684-6.318937 0-4.068356-1.93479-6.275656-2.06671-2.380421-6.15615-2.380421-3.82562 0-5.76041 2.510262-1.71493 2.2073-1.71493 6.102535 0 4.154917 1.71493 6.405497 1.97877 2.553543 6.11219 2.553543z"/><path d="m165.74915 43.648059h-7.67551v-24.153295h-6.47332l3.88399-6.423282h10.26484z"/></g><g transform="translate(-.22622 -12.791656)"><path d="m125.98009 12.989989 6.74869 9.635394 6.21236-9.635394h8.75989l-11.21801 17.037128v13.620943h-7.46378v-13.533348l-11.57557-17.124723z"/><path d="m116.30479 28.450409q0 2.759228-.48779 5.168078-.48779 2.365053-1.68509 4.423524-2.03985 3.416188-5.18832 4.642512-2.4833.96354-7.0508.96354h-14.855446v-30.658091l10.687055-.08759q1.108616 0 3.680601.08759 2.57199.0876 2.74937.0876 6.38562 0 9.48975 4.598713 2.66067 3.941754 2.66067 10.774129zm-17.516119-8.715657h-4.345774v17.387517l4.168394.0438q5.232669 0 7.361209-1.620499 2.4833-1.883283 2.4833-7.007563 0-5.124281-2.30592-7.051361-2.0842-1.751891-7.361209-1.751891z"/><path d="m76.684975 38.47998v-25.490021h6.754431v30.658101h-11.622885l-8.771987-24.789265v24.789265h-6.754431v-30.658101h11.096565z"/><path d="m27.466624 12.989964-3.426199 6.044024h-7.19079v24.614071h-7.0638943v-24.614071h-9.55952078v-6.044024z"/><path d="m54.146743 43.64806h-7.719349l-2.105277-5.562256h-7.061451l-3.552654-6.044025-4.473714 11.606281h-7.938649l11.359724-30.658101h10.307086zm-12.017623-12.131848-4.122834-11.562485-4.166695 11.562485z"/></g><g stroke="none" transform="matrix(1.0031401 0 0 .99686975 -.22622 -11.269724)"><path d="m340.39566 35.730342-1.31447-.02247q-1.30324 0-1.85375.404453-.66285.483097-.66285 1.752629 0 1.011132.35951 1.617811.43816.752732 1.34818.752732.17976.02247.5168.0337.33705 0 .53927 0l1.73016-.02247v1.64028l-2.17955.02247q-.33704 0-.67409-.01123-.33704-.01123-.67409-.02247-1.53916 0-2.25819-1.213359-.59545-.999897-.59545-2.685117 0-1.932386.80891-2.898579.87631-1.056071 2.76376-1.056071h3.07834z"/><path d="m349.72053 38.06718q0 1.921151-.83137 2.876109-.88755 1.022367-2.76376 1.022367-1.26954 0-2.05597-.224696-.65162-.179757-1.06731-.550505-.57297-.505566-.86508-1.505463-.24716-.853845-.24716-1.775099 0-1.954855.94372-2.954752.94372-.999898 2.86487-.999898 2.10091 0 3.05587.999898.96619.988662.96619 3.112039zm-3.89847 2.168317q.96619 0 1.49422-.640384.49434-.595444.49434-1.572872 0-1.112245-.47187-1.696455-.5168-.640383-1.61781-.640383-.99989 0-1.48299.651618-.42692.572975-.42692 1.606577 0 1.033601.47186 1.629046.52803.662853 1.53917.662853z"/><path d="m353.78752 34.022652 1.46053 6.313958 1.47176-6.313958h3.05586v7.86436h-1.73016v-6.370131l-1.52793 6.370131h-2.59524l-1.43805-6.561123v6.561123h-1.73016v-7.86436z"/><path d="m362.66301 41.887012h-1.87621v-7.86436h4.43774q2.52783 0 2.52783 2.584004 0 1.40435-.7752 2.022264-.69656.56174-2.13461.56174l-.9999-.01123-1.17965-1.42682zm3.12327-5.358999q0-.505566-.44939-.696558-.30334-.123583-.94372-.123583h-.41569l-1.31447.01123v1.786333l1.7751.01123q.67408 0 .95495-.157287.39322-.213461.39322-.831375z"/><path d="m370.58354 34.022652-.0225 3.145744q0 .157288-.0112.505566-.0112.337044-.0112.505566 0 1.033602.2584 1.494229.37075.662853 1.37064.662853.93249 0 1.29201-.651618.26963-.494332.26963-1.505464v-4.156876h1.88745v4.505155q0 1.876212-.82014 2.651413-.80891.763966-2.70759.763966-1.65151 0-2.42672-.56174-.67408-.494331-.86508-1.595341-.11234-.651619-.11234-2.471656l.0225-3.291797z"/><path d="m383.72825 34.022652-.91002 1.550403h-1.90992v6.313957h-1.87621v-6.313957h-2.53907v-1.550403z"/><path d="m390.23319 34.022652-.84261 1.550403h-3.19069v1.752629h3.85354v1.539167h-3.85354v1.471759h3.85354v1.550402h-5.74098v-7.86436z"/><path d="m398.03013 36.640361q0 1.078541-.52804 1.707689-.5168.617914-1.56164.617914l1.95486 2.921048h-2.17955l-2.79747-4.257989v4.257989h-1.88744v-7.86436h4.44898q1.292 0 1.92115.662853.62915.651619.62915 1.954856zm-3.76366-1.089776-1.34818.02247v1.831272h1.87621q.76397 0 1.02237-.224696.2584-.235931.2584-.662853 0-.471862-.2921-.719027-.28087-.247166-1.14595-.247166z"/></g><g stroke="none" transform="matrix(1.0036462 0 0 .99636701 -.22622 -11.269724)"><path d="m272.98819 41.908146h-1.87717v-7.86835h4.44q2.52912 0 2.52912 2.585315 0 1.405062-.7756 2.02329-.69691.562025-2.13569.562025l-1.00041-.01124-1.18025-1.427543zm3.12486-5.361719q0-.505822-.44962-.696911-.3035-.123645-.9442-.123645h-.4159l-1.31514.01124v1.78724l1.776.01124q.67443 0 .95544-.157367.39342-.213569.39342-.831797z"/><path d="m284.89187 34.039796-.84303 1.551189h-3.1923v1.753518h3.85549v1.539948h-3.85549v1.472506h3.85549v1.551189h-5.7439v-7.86835z"/><path d="m292.69277 36.658832q0 1.079088-.5283 1.708556-.51707.618228-1.56243.618228l1.95584 2.92253h-2.18065l-2.79889-4.26015v4.26015h-1.8884v-7.86835h4.45124q1.29265 0 1.92212.663189.62947.651949.62947 1.955847zm-3.76557-1.090328-1.34886.02248v1.832201h1.87717q.76435 0 1.02288-.22481.25853-.23605.25853-.663189 0-.472101-.29225-.719392-.28101-.247291-1.14653-.247291z"/><path d="m299.68436 35.590985-3.16983-.01124q-.65194 0-.86551.191089-.20233.179848-.20233.550784 0 .404658.44962.573266.33721.123645.96668.123645.26977 0 .48334-.01124.22481-.01124.42714-.02248 1.3039 0 2.00081.550784.77559.618228.77559 1.899645 0 1.34886-.71939 1.933366-.66319.539544-2.02329.539544h-4.27139v-1.551189h3.552q.70815 0 .96668-.07868.52831-.157367.52831-.696911 0-.404658-.4159-.573265-.31474-.123646-.92172-.123646-.29226 0-.52831.01124-.23605.01124-.44962.02248-1.31513 0-2.02329-.606987-.75311-.651949-.75311-1.955847 0-1.360101.91048-1.899645.70815-.415898 2.16942-.415898h4.06906z"/><path d="m309.21629 38.086376q0 1.922125-.83179 2.877568-.888 1.022885-2.76517 1.022885-1.27017 0-2.05701-.22481-.65195-.179848-1.06785-.550784-.57326-.505823-.86552-1.506227-.24729-.854278-.24729-1.775999 0-1.955847.94421-2.956252.9442-1.000404 2.86632-1.000404 2.10198 0 3.05742 1.000404.96668.989164.96668 3.113619zm-3.90045 2.169416q.96668 0 1.49499-.640708.49458-.595747.49458-1.57367 0-1.11281-.4721-1.697316-.51707-.640708-1.61864-.640708-1.0004 0-1.48374.651949-.42714.573265-.42714 1.607391 0 1.034126.4721 1.629873.5283.663189 1.53995.663189z"/><path d="m315.4098 40.581767v-6.541971h1.73104v7.86835h-2.97873l-2.2481-6.362123v6.362123h-1.73104v-7.86835h2.84385z"/><path d="m326.15571 41.908146h-1.97832l-.53955-1.427544h-1.80972l-.91048-1.551189-1.14653 2.978733h-2.03453l2.91129-7.86835h2.64152zm-3.07989-3.113619-1.05661-2.967492-1.06785 2.967492z"/><path d="m328.69606 40.356957h3.43959l-.87676 1.551189h-4.43999v-7.86835h1.87716z"/></g></g><path d="m359.60678 9.563277h40v8h-40z" fill="#4c8cc4"/><path d="m315.60678 9.563277h40v8h-40z" fill="#1c7424"/><path d="m271.60678 9.563277h40v8h-40z" fill="#ac1c1c"/><text fill="#ef00eb" font-family="TrasksHand" font-size=".4" stroke="#0105ff" stroke-width=".5" x="301.8494" y="9.436379"><tspan fill="#fafafa" fill-opacity=".4" font-size=".4" stroke="none" stroke-width=".5" x="301.8494" y="9.436379">John Loreth 2022</tspan></text></svg>