<?xml version="1.0" encoding="UTF-8" standalone="no"?>
<!-- Created with Inkscape (http://www.inkscape.org/) -->

<svg
   version="1.1"
   id="svg2"
   width="393.21552"
   height="165.75563"
   viewBox="0 0 511.18017 215.48232"
   sodipodi:docname="teknoparrot.svg"
   inkscape:version="1.1.2 (0a00cf5339, 2022-02-04)"
   xmlns:inkscape="http://www.inkscape.org/namespaces/inkscape"
   xmlns:sodipodi="http://sodipodi.sourceforge.net/DTD/sodipodi-0.dtd"
   xmlns="http://www.w3.org/2000/svg"
   xmlns:svg="http://www.w3.org/2000/svg"
   xmlns:rdf="http://www.w3.org/1999/02/22-rdf-syntax-ns#"
   xmlns:cc="http://creativecommons.org/ns#"
   xmlns:dc="http://purl.org/dc/elements/1.1/">
  <defs
     id="defs6" />
  <sodipodi:namedview
     id="namedview4"
     pagecolor="#ffffff"
     bordercolor="#111111"
     borderopacity="1"
     inkscape:pageshadow="0"
     inkscape:pageopacity="0"
     inkscape:pagecheckerboard="1"
     showgrid="false"
     inkscape:zoom="4"
     inkscape:cx="68.25"
     inkscape:cy="108.375"
     inkscape:window-width="1366"
     inkscape:window-height="703"
     inkscape:window-x="0"
     inkscape:window-y="0"
     inkscape:window-maximized="1"
     inkscape:current-layer="g8"
     inkscape:snap-global="false"
     showguides="false"
     inkscape:guide-bbox="true"
     fit-margin-top="0"
     fit-margin-left="0"
     fit-margin-right="0"
     fit-margin-bottom="0">
    <sodipodi:guide
       position="303.40598,-2.1132262"
       orientation="0,-1"
       id="guide98399" />
    <sodipodi:guide
       position="278.57602,-34.105682"
       orientation="0,-1"
       id="guide98401" />
  </sodipodi:namedview>
  <g
     inkscape:groupmode="layer"
     inkscape:label="TeknoParrot"
     id="g8"
     transform="translate(-4.581085,-5.6353959)">
    <text
       xml:space="preserve"
       style="font-size:2.6px;line-height:1.25;font-family:TrasksHand;-inkscape-font-specification:TrasksHand;text-decoration-color:#000000;fill:#ef00eb;stroke:#0105ff;stroke-width:3.25;-inkscape-stroke:none;stop-color:#000000"
       x="68.843979"
       y="179.20901"
       id="text4082"
       inkscape:label="Signature"
       transform="skewY(-13.415723)"><tspan
         sodipodi:role="line"
         id="tspan4080"
         style="font-size:2.6px;fill:#fafafa;fill-opacity:0.4;stroke:none;stroke-width:3.25"
         x="68.843979"
         y="179.20901">John Loreth 2022</tspan></text>
    <path
       style="display:inline;fill:#000000;fill-opacity:1;stroke:#ff0000;stroke-width:6;stroke-linejoin:round;stroke-miterlimit:4;stroke-dasharray:none;stroke-opacity:1"
       d="M 12.665617,8.6353958 7.5810605,73.579341 C 17.312321,73.550011 28.395978,73.414143 38.127238,73.384813 L 31.48762,163.59795 93.135919,152.11772 v 66 l 334.039981,-0.0294 -0.20943,-47.33178 8.35701,0.25596 0.48943,-17.74894 c 10.46767,3.2112 19.63514,5.78562 26.89616,7.3157 46.03195,9.70015 50.05218,-20.44253 50.05218,-20.44253 L 505.97176,46.223928 C 505.50205,31.29902 495.55466,9.874023 469.92636,8.8156642 Z"
       id="path1286"
       sodipodi:nodetypes="ccccccccccscccc"
       inkscape:label="Background" />
    <g
       id="g19244"
       inkscape:label="Parrot"
       style="display:inline;fill:#27aae1;fill-opacity:1">
      <path
         d="m 128.2178,187.48288 v 12.06695 h -16.65477 v -60.33479 l 39.97144,-0.0966 q 3.62487,0 5.78019,1.6411 2.15532,1.64111 2.93908,5.406 0,6.17828 0,9.84664 0,3.57181 0,5.59907 0,2.02725 0,2.9926 0,0.86882 0,1.54457 -0.68579,3.18568 -2.35127,4.82678 -1.56751,1.64111 -4.21267,2.12379 v 0.28961 h -25.56997 v 14.09421 z m 14.49944,-24.23045 v -11.10161 h -14.59741 v 11.10161 z"
         id="path35665"
         style="font-weight:bold;font-size:97.2498px;line-height:1.25;font-family:Transformers;-inkscape-font-specification:'Transformers Bold';display:inline;fill:#27aae1;fill-opacity:1;stroke-width:2.5" />
      <path
         d="m 161.27875,199.35676 22.33698,-60.6244 h 17.83039 l 21.06339,60.6244 h -34.48517 v -12.83924 h 13.42178 l -8.91519,-27.22307 -14.59741,40.06231 z"
         id="path35662"
         style="font-weight:bold;font-size:97.2498px;line-height:1.25;font-family:Transformers;-inkscape-font-specification:'Transformers Bold';display:inline;fill:#27aae1;fill-opacity:1;stroke-width:2.5" />
      <path
         d="M 240.9563,199.54983 H 224.30153 V 170.4926 l -0.0979,-0.0966 0.0979,-0.0966 v -31.08438 l 39.97144,-0.0966 q 3.62486,0 5.78019,1.6411 2.15531,1.64111 2.93907,5.406 0,6.17828 0,9.84664 0,3.57181 0,5.59907 0,2.02725 0,2.9926 0,0.86882 0,1.54457 -0.68579,3.18568 -2.35126,4.82678 -1.56751,1.64111 -4.21267,2.12379 v 0.28961 h -6.27004 l 12.736,26.35423 h -17.14461 l -12.4421,-26.16111 v -10.32931 h 12.14819 v -11.19815 h -15.08726 z"
         id="path35659"
         style="font-weight:bold;font-size:97.2498px;line-height:1.25;font-family:Transformers;-inkscape-font-specification:'Transformers Bold';display:inline;fill:#27aae1;fill-opacity:1;stroke-width:2.5"
         sodipodi:insensitive="true" />
      <path
         d="M 291.6051,199.54983 H 274.95033 V 170.4926 l -0.0979,-0.0966 0.0979,-0.0966 v -31.08438 l 39.97144,-0.0966 q 3.62486,0 5.78018,1.6411 2.15533,1.64111 2.93908,5.406 0,6.17828 0,9.84664 0,3.57181 0,5.59907 0,2.02725 0,2.9926 0,0.86882 0,1.54457 -0.68578,3.18568 -2.35126,4.82678 -1.56751,1.64111 -4.21267,2.12379 v 0.28961 h -6.27004 l 12.736,26.35423 h -17.14461 l -12.4421,-26.16111 v -10.32931 h 12.14819 v -11.19815 h -15.08726 z"
         id="path35656"
         style="font-weight:bold;font-size:97.2498px;line-height:1.25;font-family:Transformers;-inkscape-font-specification:'Transformers Bold';display:inline;fill:#27aae1;fill-opacity:1;stroke-width:2.5" />
      <path
         d="m 333.66978,199.54983 q -7.24972,0 -8.71926,-6.08175 0.0979,-12.64617 0.0979,-24.23045 0,-11.58428 -0.0979,-23.07202 0.78376,-3.76489 2.93907,-5.406 2.15533,-1.6411 5.78019,-1.6411 h 31.35015 q 3.62486,0 5.78019,1.6411 2.15532,1.64111 2.93907,5.406 -0.0979,11.48774 -0.0979,23.07202 0,11.58428 0.0979,24.23045 -1.46954,6.08175 -8.71926,6.08175 z m 8.81723,-13.22538 h 13.7157 v -34.17363 h -13.7157 z"
         id="path35653"
         style="font-weight:bold;font-size:97.2498px;line-height:1.25;font-family:Transformers;-inkscape-font-specification:'Transformers Bold';display:inline;fill:#27aae1;fill-opacity:1;stroke-width:2.5" />
      <path
         d="m 375.99374,139.11843 h 40.91407 v 12.64619 h -9.16742 l -0.0826,48.11174 H 390.28845 V 151.76462 H 375.9938 Z"
         id="path35650"
         style="font-weight:bold;font-size:89.326px;line-height:1.25;font-family:Transformers;-inkscape-font-specification:'Transformers Bold';display:inline;fill:#27aae1;fill-opacity:1;stroke-width:2.5"
         sodipodi:nodetypes="ccccccccc" />
      <g
         id="g99603"
         inkscape:label="Parrot Overlay"
         style="display:inline;fill:#1c75bc;fill-opacity:1">
        <path
           style="opacity:0.97;fill:#1c75bc;fill-opacity:1;stroke:none;stroke-width:6;stroke-linecap:square;stroke-linejoin:round;stroke-miterlimit:4;stroke-dasharray:none;stroke-opacity:1"
           d="m 114.05498,171.71611 -0.0899,24.60958 h 12.03039 l 0.18258,-24.60958 h -12.08886"
           id="path98436" />
        <path
           style="opacity:0.97;fill:#1c75bc;fill-opacity:1;stroke:none;stroke-width:6;stroke-linecap:square;stroke-linejoin:round;stroke-miterlimit:4;stroke-dasharray:none;stroke-opacity:1"
           d="m 176.93948,196.32569 h -11.63331 l 8.64284,-24.60958 h 12.41024 z"
           id="path98471" />
        <path
           style="opacity:0.97;fill:#1c75bc;fill-opacity:1;stroke:none;stroke-width:6;stroke-linecap:square;stroke-linejoin:round;stroke-miterlimit:4;stroke-dasharray:none;stroke-opacity:1"
           d="m 219.12479,196.32569 -9.08303,-24.60958 h -11.42082 l 4.6918,16.02908 h -12.62027 v 8.5805 h 28.49497"
           id="path98473" />
        <path
           style="opacity:0.97;fill:#1c75bc;fill-opacity:1;stroke:none;stroke-width:5.99999;stroke-linecap:square;stroke-linejoin:round;stroke-miterlimit:4;stroke-dasharray:none;stroke-opacity:1"
           d="m 227.18439,171.71611 v 24.60958 h 10.77049 v -24.60958 z"
           id="path98501" />
        <path
           style="opacity:0.97;fill:#1c75bc;fill-opacity:1;stroke:none;stroke-width:6;stroke-linecap:square;stroke-linejoin:round;stroke-miterlimit:4;stroke-dasharray:none;stroke-opacity:1"
           d="m 268.39196,196.32569 h -11.79721 l -11.86114,-24.60958 h 12.0123 z"
           id="path98635"
           sodipodi:nodetypes="ccccc" />
        <path
           style="opacity:0.97;fill:#1c75bc;fill-opacity:1;stroke:none;stroke-width:5.99999;stroke-linecap:square;stroke-linejoin:round;stroke-miterlimit:4;stroke-dasharray:none;stroke-opacity:1"
           d="m 277.89174,171.71611 v 24.60958 h 10.77049 v -24.60958 z"
           id="path98770" />
        <path
           style="opacity:0.97;fill:#1c75bc;fill-opacity:1;stroke:none;stroke-width:6;stroke-linecap:square;stroke-linejoin:round;stroke-miterlimit:4;stroke-dasharray:none;stroke-opacity:1"
           d="M 319.09931,196.32569 H 307.3021 l -11.86114,-24.60958 h 12.0123 z"
           id="path98772"
           sodipodi:nodetypes="ccccc" />
        <path
           style="opacity:0.97;fill:#1c75bc;fill-opacity:1;stroke:none;stroke-width:6;stroke-linecap:square;stroke-linejoin:round;stroke-miterlimit:4;stroke-dasharray:none;stroke-opacity:1"
           d="m 392.4519,171.71611 -0.0899,24.60958 h 12.90757 l 0.18258,-24.60958"
           id="path98854"
           sodipodi:nodetypes="cccc" />
        <path
           style="opacity:0.97;fill:#1c75bc;fill-opacity:1;stroke:none;stroke-width:6;stroke-linecap:square;stroke-linejoin:round;stroke-miterlimit:4;stroke-dasharray:none;stroke-opacity:1"
           d="m 327.31517,171.71611 0.11769,21.28218 c 0.0306,1.84801 0.56433,3.3274 2.52319,3.3274 h 37.28123 c 3.63733,0 3.98962,-1.74489 4.0357,-3.58661 v -21.02297 h -13.23999 v 14.13771 c -0.24771,0.98283 -0.37901,2.01975 -3.16113,1.82507 h -10.82853 c -2.55664,0.28583 -3.73966,-0.4114 -3.58204,-2.06809 v -13.89469 z"
           id="path98889"
           sodipodi:nodetypes="ccccccccccccc" />
      </g>
    </g>
    <g
       id="g40524"
       inkscape:label="Tekno"
       style="display:inline">
      <path
         id="path46770"
         style="font-weight:bold;font-size:168.967px;line-height:1.25;font-family:Transformers;-inkscape-font-specification:'Transformers Bold';display:inline;fill:#fa9b02;fill-opacity:1;stroke-width:5"
         d="m 414.83012,132.59209 c -8.92448,-1.62185 -14.91246,-5.44862 -17.09281,-12.03031 0,0 -4.80836,-79.810052 -4.6886,-79.828641 0.76848,-4.074384 2.4545,-7.535955 5.05807,-9.311968 2.60358,-1.776014 6.17239,-2.66402 10.70643,-2.66402 h 58.81999 c 4.53404,0 8.19519,0.888006 10.98346,2.66402 2.78826,1.776013 4.77848,5.237584 5.97067,9.311968 2.10195,31.028808 4.36751,62.057611 7.16817,93.086421 -0.11967,6.24033 -4.79082,11.88162 -15.84598,9.87255 z m 14.85206,-20.97184 27.86178,4.40097 -3.59972,-63.72307 -28.11034,-1.302544 z m -48.3794,8.99297 -26.0187,-2.78374 -3.35088,-65.071509 -25.3783,-0.246087 1.69783,63.255486 -26.1091,-1.64303 -1.60668,-78.564482 78.31527,0.0451 z M 253.86853,75.431385 296.65846,114.33932 264.03747,113.73567 237.588,91.287632 l 0.1046,22.075998 -25.52081,1.34555 0.59217,-79.294089 h 27.34181 l -1.44087,22.196816 20.9314,-22.045736 31.37624,0.06912 z m -123.02748,-39.908458 77.54386,-0.06756 -9.20591,16.647043 -43.98217,0.437176 -1.23096,14.534335 h 44.6788 l -0.72868,16.44788 -44.70764,1.866041 -0.51106,14.803328 52.56394,-2.134797 -7.91156,17.249147 -70.89173,5.23064 z M 29.914816,28.765913 120.61297,28.992463 118.9598,49.074818 88.049485,50.051949 83.105607,135.0813 52.252486,139.59926 58.708048,51.4098 28.910885,52.394894 Z"
         inkscape:label="Yellow Offset"
         sodipodi:nodetypes="sccssssccsscccccccccccccccccccccccccccccccccccccccccccccccc" />
      <path
         d="m 31.914816,29.786476 90.698154,0.224545 -1.65317,19.90466 -30.910315,0.968485 -4.943878,84.276984 -30.853121,4.47799 6.455562,-87.409137 -29.797163,0.976377 z"
         id="path35799"
         style="font-weight:bold;font-size:174.937px;line-height:1.25;font-family:Transformers;-inkscape-font-specification:'Transformers Bold';display:inline;fill:#fd001f;fill-opacity:1;stroke-width:5"
         sodipodi:nodetypes="ccccccccc" />
      <path
         d="m 132.84105,36.483702 76.31016,-0.06696 -7.97221,16.499745 -43.98217,0.433308 -1.23096,14.405731 h 44.6788 l -0.72868,16.302344 -44.70764,1.849529 -0.51106,14.672341 52.56394,-2.115905 -7.91156,17.096515 -70.89173,5.18436 z"
         id="path35796"
         style="font-weight:bold;font-size:139.296px;line-height:1.25;font-family:Transformers;-inkscape-font-specification:'Transformers Bold';display:inline;fill:#fd001f;fill-opacity:1;stroke-width:5"
         sodipodi:nodetypes="ccccccccccccc" />
      <path
         d="m 255.86853,76.039037 42.78993,38.563663 -32.62099,-0.59831 -26.44947,-22.249407 0.1046,21.880667 -25.52081,1.33364 0.59217,-78.59247 h 25.94984 l -0.0489,22.000412 20.9314,-21.850669 29.98427,0.06851 z"
         id="path35793"
         style="font-weight:bold;font-size:137.955px;line-height:1.25;font-family:Transformers;-inkscape-font-specification:'Transformers Bold';display:inline;fill:#fd001f;fill-opacity:1;stroke-width:5"
         sodipodi:nodetypes="cccccccccccc" />
      <path
         d="m 383.30278,120.82109 -26.0187,-2.75911 -3.35088,-64.495735 -25.3783,-0.24391 1.69783,62.695785 -26.1091,-1.62849 -1.60668,-77.869324 76.93954,0.216654 z"
         id="path35790"
         style="font-weight:bold;font-size:137.955px;line-height:1.25;font-family:Transformers;-inkscape-font-specification:'Transformers Bold';display:inline;fill:#fd001f;fill-opacity:1;stroke-width:5"
         sodipodi:nodetypes="ccccccccc" />
      <path
         d="m 416.83012,132.69397 c -8.92448,-1.6075 -14.91246,-5.40041 -17.09281,-11.92387 0,0 -4.80836,-79.103863 -4.6886,-79.122288 0.76848,-4.038333 2.4545,-7.469274 5.05807,-9.229573 2.60358,-1.760299 6.17239,-2.640448 10.70643,-2.640448 h 58.81999 c 4.53404,0 8.19519,0.880149 10.98346,2.640448 2.78826,1.760299 4.77848,5.19124 5.97067,9.229573 2.10195,30.754256 4.36751,61.508508 7.16817,92.262768 -0.11967,6.18511 -4.79082,11.77648 -15.84598,9.78519 z m 14.85206,-19.07479 27.86178,2.65054 -3.59972,-63.159228 -28.11034,-1.291018 z"
         id="path35787"
         style="font-weight:bold;font-size:168.967px;line-height:1.25;font-family:Transformers;-inkscape-font-specification:'Transformers Bold';display:inline;fill:#fd001f;fill-opacity:1;stroke-width:5"
         sodipodi:nodetypes="sccssssccssccccc" />
      <g
         id="g118352"
         inkscape:label="Tekno Overlay"
         style="display:inline">
        <path
           style="display:inline;opacity:0.97;fill:#9c081b;fill-opacity:1;stroke:none;stroke-width:6;stroke-linecap:square;stroke-linejoin:round;stroke-miterlimit:4;stroke-dasharray:none;stroke-opacity:1"
           d="m 61.669057,84.923104 -4.150026,49.017086 22.321166,-4.06988 3.141054,-47.446555 z"
           id="path114092" />
        <path
           style="display:inline;opacity:0.97;fill:#9c081b;fill-opacity:1;stroke:none;stroke-width:6;stroke-linecap:square;stroke-linejoin:round;stroke-miterlimit:4;stroke-dasharray:none;stroke-opacity:1"
           d="m 132.99031,77.942298 -1.92478,37.395742 65.08655,-4.76495 3.51309,-7.50827 -50.19123,3.07763 1.25472,-24.657647 44.4327,-2.213886 -0.52514,-3.944248 z"
           id="path114094" />
        <path
           style="display:inline;opacity:0.97;fill:#9c081b;fill-opacity:1;stroke:none;stroke-width:6;stroke-linecap:square;stroke-linejoin:round;stroke-miterlimit:4;stroke-dasharray:none;stroke-opacity:1"
           d="m 217.49033,75.117906 -0.84653,34.166744 18.22834,-0.19442 0.15639,-26.460461 32.34958,27.122621 17.3072,-0.23602 -35.86124,-34.426442 z"
           id="path114129" />
        <path
           style="display:inline;opacity:0.97;fill:#9c081b;fill-opacity:1;stroke:none;stroke-width:6;stroke-linecap:square;stroke-linejoin:round;stroke-miterlimit:4;stroke-dasharray:none;stroke-opacity:1"
           d="m 306.27967,75.260668 1.03018,34.201182 17.87251,1.96566 -0.71811,-35.651751 z"
           id="path114131" />
        <path
           style="display:inline;opacity:0.97;fill:#9c081b;fill-opacity:1;stroke:none;stroke-width:6;stroke-linecap:square;stroke-linejoin:round;stroke-miterlimit:4;stroke-dasharray:none;stroke-opacity:1"
           d="m 358.44326,76.911908 1.7789,36.798762 17.74577,1.71684 -2.15406,-37.656609 z"
           id="path114213"
           sodipodi:nodetypes="ccccc" />
        <path
           style="display:inline;opacity:0.97;fill:#9c081b;fill-opacity:1;stroke:none;stroke-width:6;stroke-linecap:square;stroke-linejoin:round;stroke-miterlimit:4;stroke-dasharray:none;stroke-opacity:1"
           d="m 401.14768,81.475975 1.24452,35.996325 c 1.15939,7.68928 6.58525,8.1466 12.16131,9.60451 l 65.7444,11.63259 c 5.33438,0.82549 8.87151,-0.25015 8.33543,-5.63444 l -4.00738,-48.361153 -23.65688,-1.542404 2.77776,36.006867 c 0.14266,1.4641 -0.0224,2.41186 -2.19236,1.82219 l -31.53174,-4.72191 c -1.34328,-0.52491 -3.03432,0.0637 -3.18023,-2.61419 l -1.35408,-28.882042 c -0.15804,-3.349381 -0.97107,-4.407703 -2.88429,-4.535024 l -18.59586,-1.271543 c -1.96159,-0.2552 -3.05969,0.404958 -2.8606,2.500224 z"
           id="path114457"
           sodipodi:nodetypes="ccccccccccccccc" />
      </g>
    </g>
    <g
       id="g149709"
       inkscape:label="Slashes">
      <path
         style="color:#000000;display:inline;opacity:0.97;fill:#d8001b;fill-opacity:1;stroke-linecap:square;stroke-linejoin:round;-inkscape-stroke:none"
         d="m 279.56683,44.263352 c -3.09637,2.804995 -10.82723,5.368829 -13.47433,8.679001 -1.2588,1.574112 -4.7803,3.81819 -6.54127,4.782721 -0.45016,0.246565 -2.69924,0.999481 -5.33245,1.96199 -2.2524,0.823312 -5.54569,3.333755 -6.0318,4.147157 -0.97608,1.633269 -2.51276,2.432758 -4.65915,3.902484 -1.59004,1.088767 -4.02125,1.866886 -4.86433,3.896005 -0.26166,0.629768 -1.3333,1.672361 -2.7158,2.454344 -1.53934,0.870698 -2.27565,2.46862 -3.5031,3.261448 -2.68817,1.736328 -4.69182,4.135107 -6.89603,5.482375 -4.28056,2.616389 -7.41713,4.126026 -10.71798,7.031564 -4.80821,3.955165 -8.0855,4.670088 -12.28298,7.895203 l 2.16743,-0.277635 c 10.64083,-6.123841 17.44499,-9.706427 27.26057,-16.660482 1.64648,-1.166481 3.09048,-2.38583 4.51519,-3.813495 1.55473,-1.55795 1.77925,-1.733242 3.11688,-2.563522 1.76296,-1.094292 3.29099,-3.969389 6.1117,-5.270369 3.65127,-1.684051 4.19619,-2.139586 7.23561,-5.247853 1.23586,-1.26386 2.55757,-2.564897 4.71168,-3.309865 8.42697,-2.914341 17.43075,-11.679476 24.93798,-16.540089 -1.39671,0.204324 -2.21794,-0.533657 -3.03782,0.189018 z"
         id="path122289"
         sodipodi:nodetypes="cssssssssscccsssssscc" />
      <path
         style="color:#000000;display:inline;opacity:0.97;fill:#000000;fill-opacity:0.961472;stroke-linecap:square;stroke-linejoin:round;-inkscape-stroke:none"
         d="m 276.17287,44.616509 c -3.09637,2.804995 -7.43327,3.015672 -10.08037,6.325844 -1.2588,1.574112 -4.7803,3.81819 -6.54127,4.782721 -0.45016,0.246565 -2.69924,0.999481 -5.33245,1.96199 -2.2524,0.823312 -5.54569,3.333755 -6.0318,4.147157 -0.97608,1.633269 -2.51276,2.432758 -4.65915,3.902484 -1.59004,1.088767 -4.02125,1.866886 -4.86433,3.896005 -0.26166,0.629768 -1.3333,1.672361 -2.7158,2.454344 -1.53934,0.870698 -2.27565,2.46862 -3.5031,3.261448 -2.68817,1.736328 -4.69182,4.135107 -6.89603,5.482375 -4.28056,2.616389 -6.89716,4.479925 -10.19801,7.385463 -4.80821,3.955165 -10.0076,6.241743 -14.62009,9.098113 l 1.80249,0.421875 c 10.64083,-6.123841 19.62707,-11.962746 29.44265,-18.916801 1.64648,-1.166481 3.09048,-2.38583 4.51519,-3.813495 1.55473,-1.55795 1.77925,-1.733242 3.11688,-2.563522 1.76296,-1.094292 3.29099,-3.969389 6.1117,-5.270369 3.65127,-1.684051 4.19619,-2.139586 7.23561,-5.247853 1.23586,-1.26386 2.55757,-2.564897 4.71168,-3.309865 8.42697,-2.914341 15.09832,-9.810206 22.60555,-14.670819 -2.50291,0.659646 -3.27947,-0.04977 -4.09935,0.672905 z"
         id="path129344"
         sodipodi:nodetypes="cssssssssscccsssssscc" />
      <path
         style="color:#000000;display:inline;opacity:0.97;fill:#d8001b;fill-opacity:1;stroke-width:1;stroke-linecap:square;stroke-linejoin:round;-inkscape-stroke:none"
         d="m 308.48741,41.602167 c -4.55466,4.104004 -15.90911,7.836006 -19.80647,12.683077 -1.85335,2.304964 -7.02964,5.584208 -9.6175,6.992696 -0.66156,0.360053 -3.96483,1.456107 -7.83264,2.85822 -3.30843,1.199338 -8.15089,4.870342 -8.86742,6.062047 -1.43868,2.392878 -3.69677,3.560059 -6.85217,5.708374 -2.33753,1.591466 -5.90819,2.72379 -7.15327,5.698067 -0.38643,0.923111 -1.96305,2.448848 -3.99482,3.590942 -2.26227,1.271663 -3.34899,3.613611 -5.15329,4.772224 -3.95146,2.537417 -6.90103,6.049605 -10.14081,8.017995 -6.29162,3.822611 -10.9002,6.025621 -15.7553,10.276361 -7.07113,5.78512 -11.88309,6.8214 -18.05519,11.53759 l 3.18162,-0.39893 c 15.63854,-8.94467 25.63712,-14.17522 40.06792,-24.34139 2.42064,-1.705282 4.54438,-3.488939 6.64058,-5.578354 2.28755,-2.280092 2.61769,-2.536441 4.58381,-3.749582 2.59129,-1.598898 4.84479,-5.811904 8.98905,-7.709963 5.36455,-2.456937 6.16595,-3.12327 10.63822,-7.672526 1.81847,-1.849785 3.76307,-3.753788 6.92695,-4.83855 12.37734,-4.24362 25.62395,-17.070571 36.65923,-24.173791 -2.05036,0.294368 -3.25257,-0.791774 -4.4585,0.265493 z"
         id="path149791"
         sodipodi:nodetypes="cssssssssscccsssssscc" />
      <path
         style="color:#000000;display:inline;opacity:0.97;fill:#000000;fill-opacity:0.961472;stroke-width:1;stroke-linecap:square;stroke-linejoin:round;-inkscape-stroke:none"
         d="m 304.47545,42.113443 c -4.55463,4.104007 -10.91952,4.396203 -14.81688,9.243275 -1.85335,2.304965 -7.02966,5.584206 -9.61751,6.992696 -0.66155,0.360054 -3.96483,1.456106 -7.83264,2.858218 -3.30844,1.19934 -8.1509,4.870345 -8.86741,6.062048 -1.43869,2.392879 -3.69678,3.560058 -6.85221,5.708376 -2.33752,1.591463 -5.90816,2.723786 -7.15323,5.698066 -0.38644,0.923113 -1.96306,2.448844 -3.99484,3.590939 -2.26226,1.271665 -3.34898,3.613612 -5.15328,4.772228 -3.95145,2.537415 -6.90105,6.049601 -10.14082,8.017996 -6.29162,3.822618 -10.13855,6.546985 -14.99368,10.797735 -7.07112,5.78509 -14.70975,9.12012 -21.48941,13.2936 l 2.64337,0.62612 c 15.63854,-8.94465 28.84799,-17.47767 43.27877,-27.643826 2.42065,-1.705285 4.54435,-3.488938 6.6406,-5.578354 2.28754,-2.280091 2.61769,-2.536444 4.5838,-3.749583 2.59127,-1.598898 4.8448,-5.811904 8.98904,-7.709963 5.36454,-2.456939 6.16596,-3.123268 10.63822,-7.672526 1.81848,-1.849784 3.76307,-3.753788 6.92697,-4.838547 12.37733,-4.24362 22.19396,-14.336685 33.22926,-21.439905 -3.67542,0.958193 -4.81218,-0.08586 -6.01812,0.971407 z"
         id="path149793"
         sodipodi:nodetypes="cssssssssscccsssssscc" />
      <path
         style="color:#000000;display:inline;opacity:0.97;fill:#d8001b;fill-opacity:1;stroke-width:1;stroke-linecap:square;stroke-linejoin:round;-inkscape-stroke:none"
         d="m 311.13789,55.358837 c -4.10377,3.752681 -14.37747,7.213229 -17.88012,11.635498 -1.66564,2.102954 -6.33873,5.11171 -8.67656,6.406448 -0.59763,0.330976 -3.58642,1.347096 -7.08521,2.644573 -2.99278,1.109836 -7.36047,4.471699 -8.00242,5.557351 -1.28897,2.179933 -3.3293,3.253605 -6.17696,5.223151 -2.10955,1.45903 -5.3406,2.509828 -6.45011,5.215805 -0.34434,0.83984 -1.76419,2.234186 -3.59941,3.283602 -2.04342,1.168467 -3.01349,3.299855 -4.64227,4.362744 -3.56711,2.327771 -6.21901,5.532981 -9.14439,7.339881 -5.68107,3.50902 -9.84642,5.53785 -14.22171,9.42563 -6.37503,5.29419 -10.7326,6.26615 -16.29932,10.58486 l 2.88309,-0.38301 c 14.12466,-8.21699 23.1586,-13.02771 36.17971,-22.34456 2.18419,-1.56281 4.09855,-3.19475 5.98591,-5.103802 2.05963,-2.083295 2.35737,-2.318 4.13258,-3.431419 2.33966,-1.467461 4.35554,-5.303685 8.10177,-7.052829 4.84931,-2.264174 5.57174,-2.873877 9.59782,-7.029855 1.63705,-1.689871 3.38813,-3.42976 6.25057,-4.43471 11.19805,-3.9314 23.12739,-15.653713 33.08914,-22.169849 -1.85773,0.280647 -2.95537,-0.696483 -4.04211,0.270491 z"
         id="path149795"
         sodipodi:nodetypes="cssssssssscccsssssscc" />
      <path
         style="color:#000000;display:inline;opacity:0.97;fill:#000000;fill-opacity:0.961472;stroke-width:1;stroke-linecap:square;stroke-linejoin:round;-inkscape-stroke:none"
         d="m 307.30953,55.849441 c -4.10376,3.752683 -9.8748,4.060086 -13.37744,8.482354 -1.66567,2.102957 -6.33876,5.111711 -8.67657,6.406451 -0.59763,0.330975 -3.58644,1.347095 -7.08521,2.644571 -2.99279,1.109837 -7.36048,4.471699 -8.00242,5.557351 -1.28898,2.179933 -3.32929,3.253607 -6.17697,5.223152 -2.10954,1.45903 -5.34061,2.509828 -6.45009,5.215804 -0.34436,0.839842 -1.7642,2.234187 -3.59942,3.283601 -2.04342,1.168468 -3.01349,3.299863 -4.64227,4.362741 -3.56711,2.327778 -6.21901,5.532974 -9.14441,7.339884 -5.68106,3.50902 -9.15211,6.00565 -13.52742,9.89344 -6.37504,5.29419 -13.28111,8.36995 -19.4025,12.20045 l 2.40173,0.5503 c 14.12467,-8.21699 26.04887,-16.04442 39.06999,-25.36126 2.18417,-1.56282 4.09851,-3.194747 5.98591,-5.103818 2.05963,-2.083288 2.35736,-2.317996 4.13256,-3.431413 2.33966,-1.46746 4.35556,-5.303684 8.10177,-7.052827 4.84931,-2.264175 5.57175,-2.873877 9.59783,-7.029854 1.63705,-1.689874 3.38812,-3.429762 6.25058,-4.434711 11.19803,-3.931401 20.03457,-13.151224 29.99635,-19.667358 -3.32724,0.893558 -4.36526,-0.04584 -5.452,0.921142 z"
         id="path149797"
         sodipodi:nodetypes="cssssssssscccsssssscc" />
    </g>
  </g>
  <metadata
     id="metadata9930">
    <rdf:RDF>
      <cc:Work
         rdf:about="">
        <dc:description>Transformers Font</dc:description>
      </cc:Work>
    </rdf:RDF>
  </metadata>
</svg>
