<?xml version="1.0" encoding="UTF-8" standalone="no"?>
<!-- Generator: Adobe Illustrator 13.0.0, SVG Export Plug-In . SVG Version: 6.00 Build 14948)  -->
<svg id="Layer_2" xmlns:rdf="http://www.w3.org/1999/02/22-rdf-syntax-ns#" xmlns="http://www.w3.org/2000/svg" xml:space="preserve" height="231.4px" viewBox="0 0 562.702 231.398" width="562.7px" version="1.2" y="0px" x="0px" xmlns:cc="http://creativecommons.org/ns#" xmlns:dc="http://purl.org/dc/elements/1.1/"><metadata id="metadata65"><rdf:RDF><cc:Work rdf:about=""><dc:format>image/svg+xml</dc:format><dc:type rdf:resource="http://purl.org/dc/dcmitype/StillImage"/><dc:title/></cc:Work></rdf:RDF></metadata>
<path id="path3" style="baseline-shift:baseline;block-progression:tb;color:#000000;direction:ltr;text-indent:0;text-align:start;enable-background:accumulate;text-transform:none;" fill="#f4f4f4" d="m123.16,48.312c-24.837,0-45,20.162-45,45v39.281c0,24.839,20.163,45,45,45h40.625c24.837,0,45-20.161,45-45v-39.281c0-24.838-20.163-45-45-45h-40.625zm0,2,40.625,0c23.757,0,43,19.242,43,43v39.281c0,23.759-19.243,43-43,43h-40.625c-23.757,0-43-19.241-43-43v-39.281c0-23.758,19.243-43,43-43z"/>
<path id="path5" style="baseline-shift:baseline;block-progression:tb;color:#000000;direction:ltr;text-indent:0;text-align:start;enable-background:accumulate;text-transform:none;" fill="#f4f4f4" d="m143.47,57.469c-3.3916,0-6.1562,2.7646-6.1562,6.1562v13.688c0,3.3914,2.7638,6.1562,6.1562,6.1562,3.3916,0,6.1562-2.7646,6.1562-6.1562v-13.688c0-3.3916-2.7646-6.1562-6.1562-6.1562zm0,2c2.3104,0,4.1562,1.8459,4.1562,4.1562v13.688c0,2.3104-1.8459,4.1562-4.1562,4.1562-2.3116,0-4.1562-1.8456-4.1562-4.1562v-13.688c0-2.3104,1.8459-4.1562,4.1562-4.1562z"/>
<path id="path7" style="baseline-shift:baseline;block-progression:tb;color:#000000;direction:ltr;text-indent:0;text-align:start;enable-background:accumulate;text-transform:none;" fill="#f4f4f4" d="m94.156,106.78c-3.3914,0-6.1562,2.7646-6.1562,6.1562,0,3.3914,2.7638,6.1875,6.1562,6.1875h13.688c3.3906,0,6.1562-2.7951,6.1562-6.1875,0-3.3906-2.7646-6.1562-6.1562-6.1562h-13.688zm0,2,13.688,0c2.3104,0,4.1562,1.8468,4.1562,4.1562,0,2.3116-1.8468,4.1875-4.1562,4.1875h-13.688c-2.307-0.01-4.152-1.88-4.152-4.19,0-2.3104,1.8456-4.1562,4.1562-4.1562z"/>
<path id="path9" style="baseline-shift:baseline;block-progression:tb;color:#000000;direction:ltr;text-indent:0;text-align:start;enable-background:accumulate;text-transform:none;" fill="#f4f4f4" d="m143.47,142.41c-3.3914,0-6.1562,2.7959-6.1562,6.1875v13.688c0,3.3906,2.7638,6.1562,6.1562,6.1562,3.3914,0,6.1562-2.7646,6.1562-6.1562v-13.688c0-3.3908-2.7646-6.1875-6.1562-6.1875zm0,2c2.3104,0,4.1562,1.8783,4.1562,4.1875v13.688c0,2.3104-1.8456,4.1562-4.1562,4.1562-2.3116,0-4.1562-1.8468-4.1562-4.1562v-13.688c0-2.3104,1.8456-4.1875,4.1562-4.1875z"/>
<path id="path11" style="baseline-shift:baseline;block-progression:tb;color:#000000;direction:ltr;text-indent:0;text-align:start;enable-background:accumulate;text-transform:none;" fill="#f4f4f4" d="m179.09,106.78c-3.3906,0-6.1562,2.7644-6.1562,6.1562,0,3.3916,2.7646,6.1875,6.1562,6.1875h13.719c3.3914,0,6.1562-2.7951,6.1562-6.1875,0-3.3908-2.7646-6.1562-6.1562-6.1562h-13.719zm0,2,13.719,0c2.3104,0,4.1562,1.8471,4.1562,4.1562,0,2.3116-1.8456,4.1875-4.1562,4.1875h-13.719c-2.3104,0-4.1562-1.8771-4.1562-4.1875,0-2.3101,1.8468-4.1562,4.1562-4.1562z"/>
<path id="polygon13" style="baseline-shift:baseline;block-progression:tb;color:#000000;direction:ltr;text-indent:0;text-align:start;enable-background:accumulate;text-transform:none;" fill="#f4f4f4" d="m108.28,76.375-1.375,1.375,8.5625,12.625,0.6875,1,0.84375-0.84375,4.0625-4.0625,0.84375-0.84375-1-0.6875-12.625-8.5625zm3.25,4.625,7.25,4.9375-2.3125,2.3125-4.9375-7.25z"/>
<path id="polygon15" style="baseline-shift:baseline;block-progression:tb;color:#000000;direction:ltr;text-indent:0;text-align:start;enable-background:accumulate;text-transform:none;" fill="#f4f4f4" d="m116.16,134.53-0.6875,1-8.5625,12.625,1.375,1.375,12.625-8.5625,1-0.6875-0.84375-0.84375-4.0625-4.0625-0.84375-0.84375zm0.28125,3.0938,2.3438,2.3438-7.2812,4.9375,4.9375-7.2812z"/>
<path id="polygon17" style="baseline-shift:baseline;block-progression:tb;color:#000000;direction:ltr;text-indent:0;text-align:start;enable-background:accumulate;text-transform:none;" fill="#f4f4f4" d="m170.81,134.53-0.84375,0.84375-4.0625,4.0625-0.875,0.84375,1,0.6875,12.625,8.5625,1.4062-1.375-8.5625-12.625-0.6875-1zm-0.28125,3.0938,4.9375,7.3438-7.3125-4.9688,2.375-2.375z"/>
<path id="polygon19" style="baseline-shift:baseline;block-progression:tb;color:#000000;direction:ltr;text-indent:0;text-align:start;enable-background:accumulate;text-transform:none;" fill="#f4f4f4" d="m178.66,76.375-12.625,8.5625-1,0.6875,0.875,0.84375,4.0625,4.0625,0.84375,0.84375,0.6875-1,8.5625-12.625-1.4062-1.375zm-3.1875,4.5938l-4.97,7.28-2.3438-2.3438,7.3125-4.9375z"/>
<path id="path21" style="baseline-shift:baseline;block-progression:tb;color:#000000;direction:ltr;text-indent:0;text-align:start;enable-background:accumulate;text-transform:none;" fill="#f4f4f4" d="m121.38,38.219c-29.052,0-52.625,23.573-52.625,52.625v44.219c0,29.053,23.573,52.625,52.625,52.625h44.219c29.052,0,52.625-23.572,52.625-52.625v-44.219c0-29.051-23.572-52.625-52.625-52.625h-44.219zm0,2,44.219,0c27.973,0,50.625,22.654,50.625,50.625v44.219c0,27.973-22.653,50.625-50.625,50.625h-44.219c-27.972,0-50.625-22.652-50.625-50.625v-44.219c0-27.972,22.653-50.625,50.625-50.625z"/>
<path id="polygon23" style="baseline-shift:baseline;block-progression:tb;color:#000000;direction:ltr;text-indent:0;text-align:start;enable-background:accumulate;text-transform:none;" fill="#f4f4f4" d="m40.688,7.625,0,1,0,213.09,0,1,1,0,205.91,0,1,0,0-1,0-27.719,303.97,0,1,0,0-1,0-119.12,0-1-1,0-303.97,0,0-64.25,0-1-1,0-205.91,0-1,0zm2,2,203.91,0,0,64.25,0,1,1,0,0.75,0,303.22,0,0,117.12-303.66,0-0.3125,0-1,0,0,1,0,27.719-203.91,0,0-211.09z"/>
<path id="circle25" style="baseline-shift:baseline;block-progression:tb;color:#000000;direction:ltr;text-indent:0;text-align:start;enable-background:accumulate;text-transform:none;" fill="#f4f4f4" d="m388.41,105.72c-20.747,0-37.562,16.847-37.562,37.594s16.816,37.594,37.562,37.594c20.747,0,37.594-16.847,37.594-37.594s-16.847-37.594-37.594-37.594zm0,2c19.666,0,35.594,15.928,35.594,35.594s-15.928,35.594-35.594,35.594-35.562-15.928-35.562-35.594,15.896-35.594,35.562-35.594z"/>
<path id="circle27" style="baseline-shift:baseline;block-progression:tb;color:#000000;direction:ltr;text-indent:0;text-align:start;enable-background:accumulate;text-transform:none;" fill="#f4f4f4" d="m388.41,114.69c-15.788,0-28.594,12.837-28.594,28.625s12.805,28.594,28.594,28.594c15.788,0,28.625-12.805,28.625-28.594,0-15.788-12.837-28.625-28.625-28.625zm0,2c14.708,0,26.625,11.917,26.625,26.625s-11.917,26.594-26.625,26.594-26.594-11.886-26.594-26.594,11.886-26.625,26.594-26.625z"/>
<path id="circle29" style="baseline-shift:baseline;block-progression:tb;color:#000000;direction:ltr;text-indent:0;text-align:start;enable-background:accumulate;text-transform:none;" fill="#f4f4f4" d="m482.09,105.72c-20.747,0-37.594,16.847-37.594,37.594s16.847,37.594,37.594,37.594,37.594-16.847,37.594-37.594-16.847-37.594-37.594-37.594zm0,2c19.666,0,35.594,15.928,35.594,35.594s-15.928,35.594-35.594,35.594-35.594-15.928-35.594-35.594,15.928-35.594,35.594-35.594z"/>
<path id="circle31" style="baseline-shift:baseline;block-progression:tb;color:#000000;direction:ltr;text-indent:0;text-align:start;enable-background:accumulate;text-transform:none;" fill="#f4f4f4" d="m482.09,114.69c-15.788,0-28.594,12.837-28.594,28.625s12.805,28.594,28.594,28.594c15.788,0,28.594-12.805,28.594-28.594,0-15.788-12.805-28.625-28.594-28.625zm0,2c14.708,0,26.594,11.917,26.594,26.625s-11.886,26.594-26.594,26.594-26.594-11.886-26.594-26.594,11.886-26.625,26.594-26.625z"/>
<path id="path33" style="baseline-shift:baseline;block-progression:tb;color:#000000;direction:ltr;text-indent:0;text-align:start;enable-background:accumulate;text-transform:none;" fill="#f4f4f4" d="M9.0938,0c-5.0035,0-9.0938,4.0903-9.0938,9.0938v213.22c0,5.0036,4.0913,9.0938,9.0938,9.0938h544.53c4.6504,0,8.3539-3.5806,8.875-8.0938h0.1875v-1-213.22c0-4.9995-4.06-9.09-9.07-9.09h-544.53zm0,2,544.53,0c3.9237,0,7.0625,3.171,7.0625,7.0938v212.22,1c0,3.9227-3.1387,7.0938-7.0625,7.0938h-544.53c-3.9178,0.01-7.09-3.17-7.09-7.09v-213.22c0-3.9226,3.1712-7.0938,7.0938-7.0938z"/>
<path id="rect35" style="baseline-shift:baseline;block-progression:tb;color:#000000;direction:ltr;text-indent:0;text-align:start;enable-background:accumulate;text-transform:none;" fill="#f4f4f4" d="m344.66,99.875,0,1,0,85.531,0,1,1,0,85.531,0,1,0,0-1,0-85.531,0-1-1,0-85.531,0-1,0zm2,2,83.531,0,0,83.531-83.531,0,0-83.531z"/>
<path id="rect37" style="baseline-shift:baseline;block-progression:tb;color:#000000;direction:ltr;text-indent:0;text-align:start;enable-background:accumulate;text-transform:none;" fill="#f4f4f4" d="m438.34,99.875,0,1,0,85.531,0,1,1,0,85.5,0,1,0,0-1,0-85.531,0-1-1,0-85.5,0-1,0zm2,2,83.5,0,0,83.531-83.5,0,0-83.531z"/>
<path id="polyline39" style="baseline-shift:baseline;block-progression:tb;color:#000000;direction:ltr;text-indent:0;text-align:start;enable-background:accumulate;text-transform:none;" fill="#f4f4f4" d="m55.844,27.031,0,2.4062,0,167,0,2.4375,1.6875-1.7188,26.594-26.562-1.4375-1.4375-24.844,24.875,0-162.16l24.844,24.839,1.437-1.407-26.594-26.562-1.687-1.719z"/>
<path id="polyline41" style="baseline-shift:baseline;block-progression:tb;color:#000000;direction:ltr;text-indent:0;text-align:start;enable-background:accumulate;text-transform:none;" fill="#f4f4f4" d="m201.12,172.31-1.4375,1.4062,24.875,24.875-162.16,0,24.75-24.75-1.4375-1.4062-26.438,26.438-1.7188,1.7188,2.4062,0,167,0,2.4062,0-1.6875-1.7188-26.562-26.562z"/>
<path id="polyline43" style="baseline-shift:baseline;block-progression:tb;color:#000000;direction:ltr;text-indent:0;text-align:start;enable-background:accumulate;text-transform:none;" fill="#f4f4f4" d="m231.12,27.031-1.7188,1.7188-26.469,26.438,1.4375,1.4375,24.75-24.781,0,162.22-24.812-24.844-1.4062,1.4062,26.5,26.531,1.7188,1.7188,0-2.4375,0-167,0-2.4062z"/>
<path id="polyline45" style="baseline-shift:baseline;block-progression:tb;color:#000000;direction:ltr;text-indent:0;text-align:start;enable-background:accumulate;text-transform:none;" fill="#f4f4f4" d="M57.562,25.312,59.281,27,85.75,53.5l1.4062-1.4062-24.75-24.781h162.16l-24.85,24.843,1.4,1.406,26.57-26.562,1.6875-1.6875h-2.4062-167-2.4062z"/>
<path id="line47" style="baseline-shift:baseline;block-progression:tb;color:#000000;direction:ltr;text-indent:0;text-align:start;enable-background:accumulate;text-transform:none;" fill="#f4f4f4" d="m29.625,1.1562,0,228.94,2,0,0-228.94-2,0z"/>
<path id="rect49" style="baseline-shift:baseline;block-progression:tb;color:#000000;direction:ltr;text-indent:0;text-align:start;enable-background:accumulate;text-transform:none;" fill="#f4f4f4" d="m344.66,81.25,0,1,0,13.906,0,1,1,0,85.531,0,1,0,0-1,0-13.906,0-1-1,0-85.531,0-1,0zm2,2,83.531,0,0,11.906-83.531,0,0-11.906z"/>
<path id="rect51" style="baseline-shift:baseline;block-progression:tb;color:#000000;direction:ltr;text-indent:0;text-align:start;enable-background:accumulate;text-transform:none;" fill="#f4f4f4" d="m438.34,81.25,0,1,0,13.906,0,1,1,0,85.5,0,1,0,0-1,0-13.906,0-1-1,0-85.5,0-1,0zm2,2,83.5,0,0,11.906-83.5,0,0-11.906z"/>
<path id="path53" style="baseline-shift:baseline;block-progression:tb;color:#000000;direction:ltr;text-indent:0;text-align:start;enable-background:accumulate;text-transform:none;" fill="#f4f4f4" d="m258.34,4.9375c-1.0363,0-1.9062,0.86993-1.9062,1.9062v55.656c0,1.0363,0.86993,1.9062,1.9062,1.9062h296.97c1.0363,0,1.875-0.87262,1.875-1.9062v-52.531c0-2.772-2.2589-5.0312-5.0312-5.0312h-293.81zm0.0937,2,293.72,0c1.6917,0,3.0312,1.3393,3.0312,3.0312v52.438h-296.75v-55.469z"/>
<path id="path55" style="baseline-shift:baseline;block-progression:tb;color:#000000;direction:ltr;text-indent:0;text-align:start;enable-background:accumulate;text-transform:none;" fill="#f4f4f4" d="m258.34,201.56c-1.0363,0-1.9062,0.86993-1.9062,1.9062v21.094c0,1.0363,0.86993,1.9062,1.9062,1.9062h293.81c2.7726,0,5.0312-2.2912,5.0312-5.0625v-17.938c0-1.0336-0.83868-1.9062-1.875-1.9062h-296.97zm0.0937,2,296.75,0,0,17.844c0,1.6907-1.3399,3.0625-3.0312,3.0625h-293.72v-20.906z"/>
<path id="line57" style="baseline-shift:baseline;block-progression:tb;color:#000000;direction:ltr;text-indent:0;text-align:start;enable-background:accumulate;text-transform:none;" fill="#f4f4f4" d="m255.88,63.875-6.5938,6.5938,1.4375,1.4062,6.5625-6.5625-1.4062-1.4375z"/>
<path id="line59" style="baseline-shift:baseline;block-progression:tb;color:#000000;direction:ltr;text-indent:0;text-align:start;enable-background:accumulate;text-transform:none;" fill="#f4f4f4" d="m250.72,194.69-1.4375,1.4062,6.5938,6.5938,1.4062-1.4375-6.5625-6.5625z"/>
</svg>
