<?xml version="1.0" encoding="UTF-8" standalone="no"?>
<!-- Generator: Adobe Illustrator 13.0.0, SVG Export Plug-In . SVG Version: 6.00 Build 14948)  -->
<svg id="Layer_3" xmlns:rdf="http://www.w3.org/1999/02/22-rdf-syntax-ns#" xmlns="http://www.w3.org/2000/svg" xml:space="preserve" height="232.81px" viewBox="0 0 594.943 232.806" width="594.94px" version="1.2" y="0px" x="0px" xmlns:cc="http://creativecommons.org/ns#" xmlns:dc="http://purl.org/dc/elements/1.1/"><metadata id="metadata117"><rdf:RDF><cc:Work rdf:about=""><dc:format>image/svg+xml</dc:format><dc:type rdf:resource="http://purl.org/dc/dcmitype/StillImage"/><dc:title/></cc:Work></rdf:RDF></metadata>
<path id="path3" style="baseline-shift:baseline;block-progression:tb;color:#000000;direction:ltr;text-indent:0;text-align:start;enable-background:accumulate;text-transform:none;" fill="#f4f4f4" d="M20.688,0c-10.692,0-20.688,10.008-20.688,20.688v191.41c0,12.511,10.274,20.72,20.688,20.719h553.56c6.4161,0,11.619-1.582,15.219-5.0312,3.5998-3.4493,5.4688-8.6952,5.4688-15.688v-191.41c0-10.33-8.19-20.69-20.69-20.69h-553.56zm0,2,553.56,0c11.401,0,18.688,9.4132,18.688,18.688v191.41c0,6.6408-1.7223,11.259-4.8438,14.25s-7.7508,4.4688-13.844,4.4688h-553.56c-9.383-0.01-18.7-7.31-18.7-18.73v-191.4c0-9.399,9.277-18.688,18.688-18.688z"/>
<path id="path5" style="baseline-shift:baseline;block-progression:tb;color:#000000;direction:ltr;text-indent:0;text-align:start;enable-background:accumulate;text-transform:none;" fill="#f4f4f4" d="m40.406,35.719c-1.4737,0-2.8132,0.81307-3.875,1.875s-1.9062,2.401-1.9062,3.875v146.03c0,1.474,0.84447,2.8443,1.9062,3.9062,1.0618,1.0619,2.4013,1.875,3.875,1.875h517.44c1.4742,0,2.8131-0.81297,3.875-1.875s1.875-2.4325,1.875-3.9062v-146.03c0-1.4742-0.81297-2.8131-1.875-3.875s-2.4013-1.875-3.875-1.875h-517.44zm0,2,517.44,0c0.63128,0,1.674,0.48664,2.4688,1.2812,0.79472,0.79461,1.2812,1.8369,1.2812,2.4688v146.03c0,0.63128-0.48664,1.674-1.2812,2.4688-0.79461,0.79472-1.8369,1.3125-2.4688,1.3125h-517.44c-0.63128,0-1.6743-0.51793-2.4688-1.3125-0.798-0.8-1.316-1.84-1.316-2.47v-146.03c0-0.63198,0.51803-1.6742,1.3125-2.4688,0.79447-0.79457,1.8375-1.2812,2.4688-1.2812z"/>
<path id="path7" style="baseline-shift:baseline;block-progression:tb;color:#000000;direction:ltr;text-indent:0;text-align:start;enable-background:accumulate;text-transform:none;" fill="#f4f4f4" d="m118.34,39.219c-1.1722,0-2.2111,0.1799-2.9375,0.90625-0.72636,0.72636-0.90625,1.7653-0.90625,2.9375v22.969c0,1.1717,0.18004,2.2111,0.90625,2.9375,0.72621,0.72642,1.7652,0.9375,2.9375,0.9375h22.969c1.1719,0,2.2112-0.21123,2.9375-0.9375,0.72627-0.72627,0.9375-1.7656,0.9375-2.9375v-22.969c0-1.1723-0.21108-2.2113-0.9375-2.9375-0.72642-0.72621-1.7658-0.90625-2.9375-0.90625h-22.969zm0,2,22.969,0c0.93326,0,1.3544,0.16696,1.5312,0.34375,0.17683,0.17679,0.34375,0.56634,0.34375,1.5v22.969c0,0.9331-0.16677,1.3543-0.34375,1.5312-0.17698,0.17698-0.59815,0.34375-1.5312,0.34375h-22.969c-0.93366,0-1.3232-0.16692-1.5-0.34375-0.17-0.177-0.34-0.598-0.34-1.532v-22.969c0-0.93382,0.16711-1.3234,0.34375-1.5,0.17664-0.17664,0.56618-0.34375,1.5-0.34375z"/>
<path id="path9" style="baseline-shift:baseline;block-progression:tb;color:#000000;direction:ltr;text-indent:0;text-align:start;enable-background:accumulate;text-transform:none;" fill="#f4f4f4" d="m148.19,39.219c-1.1717,0-2.1798,0.18004-2.9062,0.90625-0.72642,0.72621-0.9375,1.7652-0.9375,2.9375v22.969c0,1.1719,0.21123,2.2112,0.9375,2.9375,0.72627,0.72627,1.7344,0.9375,2.9062,0.9375h23c1.1719,0,2.18-0.21123,2.9062-0.9375,0.72627-0.72627,0.9375-1.7656,0.9375-2.9375v-22.969c0-1.1723-0.21108-2.2113-0.9375-2.9375-0.72642-0.72621-1.7345-0.90625-2.9062-0.90625h-23zm0,2,23,0c0.93326,0,1.3232,0.16696,1.5,0.34375,0.17683,0.17679,0.34375,0.56634,0.34375,1.5v22.969c0,0.9331-0.16677,1.3543-0.34375,1.5312-0.17698,0.17698-0.5669,0.34375-1.5,0.34375h-23c-0.9331,0-1.323-0.16677-1.5-0.34375-0.17698-0.17698-0.34375-0.59815-0.34375-1.5312v-22.969c0-0.93366,0.16692-1.3232,0.34375-1.5,0.17683-0.17679,0.56674-0.34375,1.5-0.34375z"/>
<path id="path11" style="baseline-shift:baseline;block-progression:tb;color:#000000;direction:ltr;text-indent:0;text-align:start;enable-background:accumulate;text-transform:none;" fill="#f4f4f4" d="m178.06,39.219c-1.1717,0-2.2111,0.18004-2.9375,0.90625-0.72642,0.72621-0.9375,1.7652-0.9375,2.9375v22.969c0,1.1719,0.21123,2.2112,0.9375,2.9375,0.72627,0.72627,1.7656,0.9375,2.9375,0.9375h22.969c1.1723,0,2.2113-0.21108,2.9375-0.9375,0.72621-0.72642,0.90625-1.7658,0.90625-2.9375v-22.969c0-1.1722-0.17989-2.2111-0.90625-2.9375-0.72636-0.72636-1.7653-0.90625-2.9375-0.90625h-22.969zm0,2,22.969,0c0.93382,0,1.3234,0.1671,1.5,0.34375,0.17664,0.17664,0.34375,0.56618,0.34375,1.5v22.969c0,0.93326-0.16696,1.3544-0.34375,1.5312-0.17679,0.17684-0.56634,0.34375-1.5,0.34375h-22.969c-0.9331,0-1.3543-0.16677-1.5312-0.34375-0.17698-0.17698-0.34375-0.59815-0.34375-1.5312v-22.969c0-0.93366,0.16692-1.3232,0.34375-1.5,0.17683-0.17679,0.59799-0.34375,1.5312-0.34375z"/>
<path id="path13" style="baseline-shift:baseline;block-progression:tb;color:#000000;direction:ltr;text-indent:0;text-align:start;enable-background:accumulate;text-transform:none;" fill="#f4f4f4" d="m207.91,39.219c-1.1717,0-2.2111,0.18004-2.9375,0.90625-0.72642,0.72621-0.9375,1.7652-0.9375,2.9375v22.969c0,1.1719,0.21123,2.2112,0.9375,2.9375,0.72627,0.72627,1.7656,0.9375,2.9375,0.9375h22.969c1.1719,0,2.2112-0.21123,2.9375-0.9375,0.72627-0.72627,0.9375-1.7656,0.9375-2.9375v-22.969c0-1.1723-0.21108-2.2113-0.9375-2.9375-0.72642-0.72621-1.7658-0.90625-2.9375-0.90625h-22.969zm0,2,22.969,0c0.93326,0,1.3544,0.16696,1.5312,0.34375,0.17683,0.17679,0.34375,0.56634,0.34375,1.5v22.969c0,0.9331-0.16677,1.3543-0.34375,1.5312-0.17698,0.17698-0.59815,0.34375-1.5312,0.34375h-22.969c-0.9331,0-1.3543-0.16677-1.5312-0.34375-0.17698-0.17698-0.34375-0.59815-0.34375-1.5312v-22.969c0-0.93366,0.16692-1.3232,0.34375-1.5,0.17683-0.17679,0.59799-0.34375,1.5312-0.34375z"/>
<path id="path15" style="baseline-shift:baseline;block-progression:tb;color:#000000;direction:ltr;text-indent:0;text-align:start;enable-background:accumulate;text-transform:none;" fill="#f4f4f4" d="m237.75,39.219c-1.1722,0-2.2111,0.1799-2.9375,0.90625-0.72636,0.72636-0.9375,1.7653-0.9375,2.9375v22.969c0,1.1717,0.21129,2.2111,0.9375,2.9375,0.72621,0.72642,1.7652,0.9375,2.9375,0.9375h22.969c1.1723,0,2.2113-0.21108,2.9375-0.9375,0.72621-0.72642,0.9375-1.7658,0.9375-2.9375v-22.969c0-1.1722-0.21114-2.2111-0.9375-2.9375-0.72636-0.72636-1.7653-0.90625-2.9375-0.90625h-22.969zm0,2,22.969,0c0.93382,0,1.3546,0.1671,1.5312,0.34375,0.17664,0.17664,0.34375,0.56618,0.34375,1.5v22.969c0,0.93326-0.16696,1.3544-0.34375,1.5312-0.17679,0.17684-0.59759,0.34375-1.5312,0.34375h-22.969c-0.93366,0-1.3232-0.16692-1.5-0.34375-0.17679-0.17684-0.375-0.59799-0.375-1.5312v-22.969c0-0.93382,0.19836-1.3234,0.375-1.5,0.17664-0.17664,0.56618-0.34375,1.5-0.34375z"/>
<path id="path17" style="baseline-shift:baseline;block-progression:tb;color:#000000;direction:ltr;text-indent:0;text-align:start;enable-background:accumulate;text-transform:none;" fill="#f4f4f4" d="m267.59,39.219c-1.1717,0-2.1798,0.18004-2.9062,0.90625-0.72642,0.72621-0.9375,1.7652-0.9375,2.9375v22.969c0,1.1719,0.21123,2.2112,0.9375,2.9375,0.72627,0.72627,1.7344,0.9375,2.9062,0.9375h23c1.1719,0,2.18-0.21123,2.9062-0.9375,0.72627-0.72627,0.9375-1.7656,0.9375-2.9375v-22.969c0-1.1723-0.21108-2.2113-0.9375-2.9375-0.72642-0.72621-1.7345-0.90625-2.9062-0.90625h-23zm0,2,23,0c0.93326,0,1.3232,0.16696,1.5,0.34375,0.17683,0.17679,0.34375,0.56634,0.34375,1.5v22.969c0,0.9331-0.16677,1.3543-0.34375,1.5312-0.17698,0.17698-0.5669,0.34375-1.5,0.34375h-23c-0.9331,0-1.323-0.16677-1.5-0.34375-0.17-0.177-0.34-0.599-0.34-1.532v-22.969c0-0.93366,0.16692-1.3232,0.34375-1.5,0.17683-0.17679,0.56674-0.34375,1.5-0.34375z"/>
<path id="path19" style="baseline-shift:baseline;block-progression:tb;color:#000000;direction:ltr;text-indent:0;text-align:start;enable-background:accumulate;text-transform:none;" fill="#f4f4f4" d="m297.44,39.219c-1.1722,0-2.1799,0.1799-2.9062,0.90625-0.72636,0.72636-0.9375,1.7653-0.9375,2.9375v22.969c0,1.1717,0.21129,2.2111,0.9375,2.9375,0.72621,0.72642,1.7339,0.9375,2.9062,0.9375h23c1.1719,0,2.18-0.21123,2.9062-0.9375,0.72627-0.72627,0.9375-1.7656,0.9375-2.9375v-22.969c0-1.1723-0.21108-2.2113-0.9375-2.9375-0.72642-0.72621-1.7345-0.90625-2.9062-0.90625h-23zm0,2,23,0c0.93326,0,1.3232,0.16696,1.5,0.34375,0.17683,0.17679,0.34375,0.56634,0.34375,1.5v22.969c0,0.9331-0.16677,1.3543-0.34375,1.5312-0.17698,0.17698-0.5669,0.34375-1.5,0.34375h-23c-0.93366,0-1.3232-0.16692-1.5-0.34375-0.17679-0.17684-0.34375-0.59799-0.34375-1.5312v-22.969c0-0.93382,0.16711-1.3234,0.34375-1.5,0.17664-0.17664,0.56618-0.34375,1.5-0.34375z"/>
<path id="path21" style="baseline-shift:baseline;block-progression:tb;color:#000000;direction:ltr;text-indent:0;text-align:start;enable-background:accumulate;text-transform:none;" fill="#f4f4f4" d="m327.31,39.219c-1.1717,0-2.2111,0.18004-2.9375,0.90625-0.72642,0.72621-0.9375,1.7652-0.9375,2.9375v22.969c0,1.1719,0.21123,2.2112,0.9375,2.9375,0.72627,0.72627,1.7656,0.9375,2.9375,0.9375h22.969c1.1719,0,2.2112-0.21123,2.9375-0.9375,0.72627-0.72627,0.9375-1.7656,0.9375-2.9375v-22.969c0-1.1723-0.21108-2.2113-0.9375-2.9375-0.72642-0.72621-1.7658-0.90625-2.9375-0.90625h-22.969zm0,2,22.969,0c0.93326,0,1.3232,0.16696,1.5,0.34375,0.17683,0.17679,0.375,0.56634,0.375,1.5v22.969c0,0.9331-0.19802,1.3543-0.375,1.5312-0.17698,0.17698-0.5669,0.34375-1.5,0.34375h-22.969c-0.9331,0-1.3543-0.16677-1.5312-0.34375-0.17698-0.17698-0.34375-0.59815-0.34375-1.5312v-22.969c0-0.93366,0.16692-1.3232,0.34375-1.5,0.17683-0.17679,0.59799-0.34375,1.5312-0.34375z"/>
<path id="path23" style="baseline-shift:baseline;block-progression:tb;color:#000000;direction:ltr;text-indent:0;text-align:start;enable-background:accumulate;text-transform:none;" fill="#f4f4f4" d="m357.16,39.219c-1.1717,0-2.2111,0.18004-2.9375,0.90625-0.72642,0.72621-0.9375,1.7652-0.9375,2.9375v22.969c0,1.1719,0.21123,2.2112,0.9375,2.9375,0.72627,0.72627,1.7656,0.9375,2.9375,0.9375h22.969c1.1719,0,2.2112-0.21123,2.9375-0.9375,0.72-0.726,0.93-1.765,0.93-2.937v-22.969c0-1.1723-0.21108-2.2113-0.9375-2.9375-0.72642-0.72621-1.7658-0.90625-2.9375-0.90625h-22.969zm0,2,22.969,0c0.93326,0,1.3544,0.16696,1.5312,0.34375,0.17683,0.17679,0.34375,0.56634,0.34375,1.5v22.969c0,0.9331-0.16677,1.3543-0.34375,1.5312-0.17698,0.17698-0.59815,0.34375-1.5312,0.34375h-22.969c-0.9331,0-1.3543-0.16677-1.5312-0.34375-0.17698-0.17698-0.34375-0.59815-0.34375-1.5312v-22.969c0-0.93366,0.16692-1.3232,0.34375-1.5,0.17683-0.17679,0.59799-0.34375,1.5312-0.34375z"/>
<path id="path25" style="baseline-shift:baseline;block-progression:tb;color:#000000;direction:ltr;text-indent:0;text-align:start;enable-background:accumulate;text-transform:none;" fill="#f4f4f4" d="m387,39.219c-1.1717,0-2.2111,0.18004-2.9375,0.90625-0.72642,0.72621-0.90625,1.7652-0.90625,2.9375v22.969c0,1.1719,0.17998,2.2112,0.90625,2.9375,0.72627,0.72627,1.7656,0.9375,2.9375,0.9375h22.969c1.1719,0,2.2112-0.21123,2.9375-0.9375,0.72627-0.72627,0.9375-1.7656,0.9375-2.9375v-22.969c0-1.1723-0.21108-2.2113-0.9375-2.9375-0.72642-0.72621-1.7658-0.90625-2.9375-0.90625h-22.969zm0,2,22.969,0c0.93326,0,1.3544,0.16696,1.5312,0.34375,0.17683,0.17679,0.34375,0.56634,0.34375,1.5v22.969c0,0.9331-0.16677,1.3543-0.34375,1.5312-0.17698,0.17698-0.59815,0.34375-1.5312,0.34375h-22.969c-0.9331,0-1.323-0.16677-1.5-0.34375-0.17698-0.17698-0.34375-0.59815-0.34375-1.5312v-22.969c0-0.93366,0.16692-1.3232,0.34375-1.5,0.17683-0.17679,0.56674-0.34375,1.5-0.34375z"/>
<path id="path27" style="baseline-shift:baseline;block-progression:tb;color:#000000;direction:ltr;text-indent:0;text-align:start;enable-background:accumulate;text-transform:none;" fill="#f4f4f4" d="m416.84,39.219c-1.1713,0-2.1798,0.18018-2.9062,0.90625-0.72,0.726-0.93,1.765-0.93,2.937v22.969c0,1.1721,0.21117,2.2114,0.9375,2.9375,0.72633,0.72613,1.7348,0.9375,2.9062,0.9375h23c1.1715,0,2.1802-0.21122,2.9062-0.9375,0.72608-0.72628,0.9375-1.7656,0.9375-2.9375v-22.969c0-1.1723-0.21128-2.2113-0.9375-2.9375-0.72622-0.72622-1.735-0.90625-2.9062-0.90625h-23zm0,2,23,0c0.9327,0,1.3232,0.16698,1.5,0.34375,0.17678,0.17678,0.34375,0.56634,0.34375,1.5v22.969c0,0.9331-0.16683,1.3543-0.34375,1.5312-0.17692,0.17696-0.56746,0.34375-1.5,0.34375h-23c-0.93254,0-1.3228-0.16663-1.5-0.34375-0.17-0.178-0.34-0.599-0.34-1.532v-22.969c0-0.9335,0.16672-1.3231,0.34375-1.5,0.17703-0.17693,0.5673-0.34375,1.5-0.34375z"/>
<path id="path29" style="baseline-shift:baseline;block-progression:tb;color:#000000;direction:ltr;text-indent:0;text-align:start;enable-background:accumulate;text-transform:none;" fill="#f4f4f4" d="m446.72,39.219c-1.1717,0-2.2111,0.18004-2.9375,0.90625-0.72642,0.72621-0.9375,1.7652-0.9375,2.9375v22.969c0,1.1719,0.21123,2.2112,0.9375,2.9375,0.72627,0.72627,1.7656,0.9375,2.9375,0.9375h22.969c1.1719,0,2.2112-0.21123,2.9375-0.9375,0.72627-0.72627,0.90625-1.7656,0.90625-2.9375v-22.969c0-1.1723-0.17983-2.2113-0.90625-2.9375-0.72642-0.72621-1.7658-0.90625-2.9375-0.90625h-22.969zm0,2,22.969,0c0.93326,0,1.3232,0.16696,1.5,0.34375,0.17683,0.17679,0.34375,0.56634,0.34375,1.5v22.969c0,0.9331-0.16677,1.3543-0.34375,1.5312-0.17698,0.17698-0.5669,0.34375-1.5,0.34375h-22.969c-0.9331,0-1.3543-0.16677-1.5312-0.34375-0.17698-0.17698-0.34375-0.59815-0.34375-1.5312v-22.969c0-0.93366,0.16692-1.3232,0.34375-1.5,0.17683-0.17679,0.59799-0.34375,1.5312-0.34375z"/>
<path id="path31" style="baseline-shift:baseline;block-progression:tb;color:#000000;direction:ltr;text-indent:0;text-align:start;enable-background:accumulate;text-transform:none;" fill="#f4f4f4" d="m103.31,68.844c-1.1719,0-2.2112,0.21123-2.9375,0.9375-0.72627,0.72627-0.9375,1.7656-0.9375,2.9375v22.969c0,1.1723,0.21108,2.2113,0.9375,2.9375,0.72642,0.72621,1.7658,0.9375,2.9375,0.9375h22.969c1.1717,0,2.2111-0.21129,2.9375-0.9375,0.72642-0.72621,0.9375-1.7652,0.9375-2.9375v-22.969c0-1.1719-0.21123-2.2112-0.9375-2.9375-0.72627-0.72627-1.7656-0.9375-2.9375-0.9375h-22.969zm0,2,22.969,0c0.9331,0,1.3543,0.19802,1.5312,0.375,0.17698,0.17698,0.34375,0.5669,0.34375,1.5v22.969c0,0.93366-0.16692,1.3545-0.34375,1.5312-0.17683,0.17679-0.59799,0.34375-1.5312,0.34375h-22.969c-0.93326,0-1.3232-0.16696-1.5-0.34375-0.17683-0.17679-0.375-0.59759-0.375-1.5312v-22.969c0-0.9331,0.19802-1.323,0.375-1.5,0.17698-0.17698,0.5669-0.375,1.5-0.375z"/>
<path id="path33" style="baseline-shift:baseline;block-progression:tb;color:#000000;direction:ltr;text-indent:0;text-align:start;enable-background:accumulate;text-transform:none;" fill="#f4f4f4" d="m133.16,68.844c-1.1719,0-2.2112,0.21123-2.9375,0.9375-0.72627,0.72627-0.90625,1.7656-0.90625,2.9375v22.969c0,1.1723,0.17983,2.2113,0.90625,2.9375,0.72642,0.72621,1.7658,0.9375,2.9375,0.9375h22.969c1.1717,0,2.2111-0.21129,2.9375-0.9375,0.72-0.727,0.93-1.766,0.93-2.938v-22.969c0-1.1719-0.21123-2.2112-0.9375-2.9375-0.72627-0.72627-1.7656-0.9375-2.9375-0.9375h-22.969zm0,2,22.969,0c0.9331,0,1.3543,0.19802,1.5312,0.375,0.17698,0.17698,0.34375,0.5669,0.34375,1.5v22.969c0,0.93366-0.16692,1.3545-0.34375,1.5312-0.17683,0.17679-0.59799,0.34375-1.5312,0.34375h-22.969c-0.93326,0-1.3232-0.16696-1.5-0.34375-0.17683-0.17679-0.34375-0.59759-0.34375-1.5312v-22.969c0-0.9331,0.16677-1.323,0.34375-1.5,0.17698-0.17698,0.5669-0.375,1.5-0.375z"/>
<path id="path35" style="baseline-shift:baseline;block-progression:tb;color:#000000;direction:ltr;text-indent:0;text-align:start;enable-background:accumulate;text-transform:none;" fill="#f4f4f4" d="m163,68.844c-1.1723,0-2.18,0.21108-2.9062,0.9375-0.72621,0.72642-0.9375,1.7658-0.9375,2.9375v22.969c0,1.1722,0.21114,2.2111,0.9375,2.9375,0.72636,0.72636,1.7341,0.9375,2.9062,0.9375h23c1.1717,0,2.1798-0.21129,2.9062-0.9375,0.72642-0.72621,0.9375-1.7652,0.9375-2.9375v-22.969c0-1.1719-0.21123-2.2112-0.9375-2.9375-0.72627-0.72627-1.7344-0.9375-2.9062-0.9375h-23zm0,2,23,0c0.9331,0,1.323,0.19802,1.5,0.375,0.17698,0.17698,0.34375,0.5669,0.34375,1.5v22.969c0,0.93366-0.16692,1.3545-0.34375,1.5312-0.17683,0.17679-0.56674,0.34375-1.5,0.34375h-23c-0.93382,0-1.3234-0.1671-1.5-0.34375-0.17664-0.17664-0.34375-0.59743-0.34375-1.5312v-22.969c0-0.93326,0.16696-1.3232,0.34375-1.5,0.17679-0.17684,0.56634-0.375,1.5-0.375z"/>
<path id="path37" style="baseline-shift:baseline;block-progression:tb;color:#000000;direction:ltr;text-indent:0;text-align:start;enable-background:accumulate;text-transform:none;" fill="#f4f4f4" d="m192.88,68.844c-1.1719,0-2.2112,0.21123-2.9375,0.9375-0.73,0.726-0.94,1.765-0.94,2.937v22.969c0,1.1723,0.21108,2.2113,0.9375,2.9375,0.72642,0.72621,1.7658,0.9375,2.9375,0.9375h22.969c1.1717,0,2.2111-0.21129,2.9375-0.9375,0.72642-0.72621,0.90625-1.7652,0.90625-2.9375v-22.969c0-1.1719-0.17998-2.2112-0.90625-2.9375-0.72627-0.72627-1.7656-0.9375-2.9375-0.9375h-22.969zm0,2,22.969,0c0.9331,0,1.323,0.19802,1.5,0.375,0.17698,0.17698,0.34375,0.5669,0.34375,1.5v22.969c0,0.93366-0.16692,1.3545-0.34375,1.5312-0.17683,0.17679-0.56674,0.34375-1.5,0.34375h-22.969c-0.93326,0-1.3544-0.16696-1.5312-0.34375-0.18-0.177-0.35-0.598-0.35-1.531v-22.969c0-0.9331,0.16677-1.323,0.34375-1.5,0.17698-0.17698,0.59815-0.375,1.5312-0.375z"/>
<path id="path39" style="baseline-shift:baseline;block-progression:tb;color:#000000;direction:ltr;text-indent:0;text-align:start;enable-background:accumulate;text-transform:none;" fill="#f4f4f4" d="m222.72,68.844c-1.1723,0-2.2113,0.21108-2.9375,0.9375-0.72621,0.72642-0.9375,1.7658-0.9375,2.9375v22.969c0,1.1722,0.21114,2.2111,0.9375,2.9375,0.72636,0.72636,1.7653,0.9375,2.9375,0.9375h22.969c1.1722,0,2.2111-0.21114,2.9375-0.9375,0.72636-0.72636,0.9375-1.7653,0.9375-2.9375v-22.969c0-1.1717-0.21129-2.2111-0.9375-2.9375-0.72621-0.72642-1.7652-0.9375-2.9375-0.9375h-22.969zm0,2,22.969,0c0.93366,0,1.3545,0.19816,1.5312,0.375,0.17679,0.17684,0.34375,0.56674,0.34375,1.5v22.969c0,0.93382-0.16711,1.3546-0.34375,1.5312-0.17664,0.17664-0.59743,0.34375-1.5312,0.34375h-22.969c-0.93382,0-1.3546-0.1671-1.5312-0.34375-0.17664-0.17664-0.34375-0.59743-0.34375-1.5312v-22.969c0-0.93326,0.16696-1.3232,0.34375-1.5,0.17679-0.17684,0.59759-0.375,1.5312-0.375z"/>
<path id="path41" style="baseline-shift:baseline;block-progression:tb;color:#000000;direction:ltr;text-indent:0;text-align:start;enable-background:accumulate;text-transform:none;" fill="#f4f4f4" d="m252.56,68.844c-1.1719,0-2.2112,0.21123-2.9375,0.9375-0.72627,0.72627-0.9375,1.7656-0.9375,2.9375v22.969c0,1.1723,0.21108,2.2113,0.9375,2.9375,0.72642,0.72621,1.7658,0.9375,2.9375,0.9375h22.969c1.1717,0,2.2111-0.21129,2.9375-0.9375,0.72642-0.72621,0.9375-1.7652,0.9375-2.9375v-22.969c0-1.1719-0.21123-2.2112-0.9375-2.9375-0.72627-0.72627-1.7656-0.9375-2.9375-0.9375h-22.969zm0,2,22.969,0c0.9331,0,1.3543,0.19802,1.5312,0.375,0.17698,0.17698,0.34375,0.5669,0.34375,1.5v22.969c0,0.93366-0.16692,1.3545-0.34375,1.5312-0.17683,0.17679-0.59799,0.34375-1.5312,0.34375h-22.969c-0.93326,0-1.3232-0.16696-1.5-0.34375-0.17683-0.17679-0.375-0.59759-0.375-1.5312v-22.969c0-0.9331,0.19802-1.323,0.375-1.5,0.17698-0.17698,0.5669-0.375,1.5-0.375z"/>
<path id="path43" style="baseline-shift:baseline;block-progression:tb;color:#000000;direction:ltr;text-indent:0;text-align:start;enable-background:accumulate;text-transform:none;" fill="#f4f4f4" d="m282.41,68.844c-1.1723,0-2.18,0.21108-2.9062,0.9375-0.72621,0.72642-0.9375,1.7658-0.9375,2.9375v22.969c0,1.1723,0.21108,2.2113,0.9375,2.9375,0.72642,0.72621,1.7345,0.9375,2.9062,0.9375h23c1.1717,0,2.1798-0.21129,2.9062-0.9375,0.72642-0.72621,0.9375-1.7652,0.9375-2.9375v-22.969c0-1.1719-0.21123-2.2112-0.9375-2.9375-0.72627-0.72627-1.7344-0.9375-2.9062-0.9375h-23zm0,2,23,0c0.9331,0,1.323,0.19802,1.5,0.375,0.17698,0.17698,0.34375,0.5669,0.34375,1.5v22.969c0,0.93366-0.16692,1.3545-0.34375,1.5312-0.17683,0.17679-0.56674,0.34375-1.5,0.34375h-23c-0.93326,0-1.3232-0.16696-1.5-0.34375-0.17683-0.17679-0.34375-0.59759-0.34375-1.5312v-22.969c0-0.93326,0.16696-1.3232,0.34375-1.5,0.17679-0.17684,0.56634-0.375,1.5-0.375z"/>
<path id="path45" style="baseline-shift:baseline;block-progression:tb;color:#000000;direction:ltr;text-indent:0;text-align:start;enable-background:accumulate;text-transform:none;" fill="#f4f4f4" d="m312.25,68.844c-1.1719,0-2.18,0.21123-2.9062,0.9375-0.72627,0.72627-0.9375,1.7656-0.9375,2.9375v22.969c0,1.1723,0.21108,2.2113,0.9375,2.9375,0.72642,0.72621,1.7345,0.9375,2.9062,0.9375h23c1.1717,0,2.1798-0.21129,2.9062-0.9375,0.72642-0.72621,0.9375-1.7652,0.9375-2.9375v-22.969c0-1.1719-0.21123-2.2112-0.9375-2.9375-0.72627-0.72627-1.7344-0.9375-2.9062-0.9375h-23zm0,2,23,0c0.9331,0,1.323,0.19802,1.5,0.375,0.17698,0.17698,0.34375,0.5669,0.34375,1.5v22.969c0,0.93366-0.16692,1.3545-0.34375,1.5312-0.17683,0.17679-0.56674,0.34375-1.5,0.34375h-23c-0.93326,0-1.3232-0.16696-1.5-0.34375-0.17683-0.17679-0.34375-0.59759-0.34375-1.5312v-22.969c0-0.9331,0.16677-1.323,0.34375-1.5,0.17698-0.17698,0.5669-0.375,1.5-0.375z"/>
<path id="path47" style="baseline-shift:baseline;block-progression:tb;color:#000000;direction:ltr;text-indent:0;text-align:start;enable-background:accumulate;text-transform:none;" fill="#f4f4f4" d="m342.12,68.844c-1.1719,0-2.2112,0.21123-2.9375,0.9375-0.72627,0.72627-0.9375,1.7656-0.9375,2.9375v22.969c0,1.1723,0.21108,2.2113,0.9375,2.9375,0.72642,0.72621,1.7658,0.9375,2.9375,0.9375h22.969c1.1717,0,2.2111-0.21129,2.9375-0.9375,0.72642-0.72621,0.90625-1.7652,0.90625-2.9375v-22.969c0-1.1719-0.17998-2.2112-0.90625-2.9375-0.72627-0.72627-1.7656-0.9375-2.9375-0.9375h-22.969zm0,2,22.969,0c0.9331,0,1.323,0.19802,1.5,0.375,0.17698,0.17698,0.34375,0.5669,0.34375,1.5v22.969c0,0.93366-0.16692,1.3545-0.34375,1.5312-0.17683,0.17679-0.56674,0.34375-1.5,0.34375h-22.969c-0.93326,0-1.3544-0.16696-1.5312-0.34375-0.17-0.177-0.34-0.598-0.34-1.531v-22.969c0-0.9331,0.16677-1.323,0.34375-1.5,0.17698-0.17698,0.59815-0.375,1.5312-0.375z"/>
<path id="path49" style="baseline-shift:baseline;block-progression:tb;color:#000000;direction:ltr;text-indent:0;text-align:start;enable-background:accumulate;text-transform:none;" fill="#f4f4f4" d="m371.97,68.844c-1.1719,0-2.2112,0.21123-2.9375,0.9375-0.72627,0.72627-0.9375,1.7656-0.9375,2.9375v22.969c0,1.1723,0.21108,2.2113,0.9375,2.9375,0.72642,0.72621,1.7658,0.9375,2.9375,0.9375h22.969c1.1717,0,2.2111-0.21129,2.9375-0.9375,0.72642-0.72621,0.9375-1.7652,0.9375-2.9375v-22.969c0-1.1719-0.21123-2.2112-0.9375-2.9375-0.72627-0.72627-1.7656-0.9375-2.9375-0.9375h-22.969zm0,2,22.969,0c0.9331,0,1.3543,0.19802,1.5312,0.375,0.17698,0.17698,0.34375,0.5669,0.34375,1.5v22.969c0,0.93366-0.16692,1.3545-0.34375,1.5312-0.17683,0.17679-0.59799,0.34375-1.5312,0.34375h-22.969c-0.93326,0-1.3232-0.16696-1.5-0.34375-0.17683-0.17679-0.375-0.59759-0.375-1.5312v-22.969c0-0.9331,0.19802-1.323,0.375-1.5,0.17698-0.17698,0.5669-0.375,1.5-0.375z"/>
<path id="path51" style="baseline-shift:baseline;block-progression:tb;color:#000000;direction:ltr;text-indent:0;text-align:start;enable-background:accumulate;text-transform:none;" fill="#f4f4f4" d="m401.81,68.844c-1.1719,0-2.2112,0.21123-2.9375,0.9375-0.72627,0.72627-0.90625,1.7656-0.90625,2.9375v22.969c0,1.1723,0.17983,2.2113,0.90625,2.9375,0.72642,0.72621,1.7658,0.9375,2.9375,0.9375h22.969c1.1717,0,2.2111-0.21129,2.9375-0.9375,0.72642-0.72621,0.9375-1.7652,0.9375-2.9375v-22.969c0-1.1719-0.21123-2.2112-0.9375-2.9375-0.72627-0.72627-1.7656-0.9375-2.9375-0.9375h-22.969zm0,2,22.969,0c0.9331,0,1.3543,0.19802,1.5312,0.375,0.17698,0.17698,0.34375,0.5669,0.34375,1.5v22.969c0,0.93366-0.16692,1.3545-0.34375,1.5312-0.17683,0.17679-0.59799,0.34375-1.5312,0.34375h-22.969c-0.93326,0-1.3232-0.16696-1.5-0.34375-0.17683-0.17679-0.34375-0.59759-0.34375-1.5312v-22.969c0-0.9331,0.16677-1.323,0.34375-1.5,0.17698-0.17698,0.5669-0.375,1.5-0.375z"/>
<path id="path53" style="baseline-shift:baseline;block-progression:tb;color:#000000;direction:ltr;text-indent:0;text-align:start;enable-background:accumulate;text-transform:none;" fill="#f4f4f4" d="m431.66,68.844c-1.1719,0-2.18,0.21123-2.9062,0.9375-0.72627,0.72627-0.9375,1.7656-0.9375,2.9375v22.969c0,1.1723,0.21108,2.2113,0.9375,2.9375,0.72642,0.72621,1.7345,0.9375,2.9062,0.9375h23c1.1717,0,2.1798-0.21129,2.9062-0.9375,0.72642-0.72621,0.9375-1.7652,0.9375-2.9375v-22.969c0-1.1719-0.21123-2.2112-0.9375-2.9375-0.72627-0.72627-1.7344-0.9375-2.9062-0.9375h-23zm0,2,23,0c0.9331,0,1.323,0.19802,1.5,0.375,0.17698,0.17698,0.34375,0.5669,0.34375,1.5v22.969c0,0.93366-0.16692,1.3545-0.34375,1.5312-0.17683,0.17679-0.56674,0.34375-1.5,0.34375h-23c-0.93326,0-1.3232-0.16696-1.5-0.34375-0.17683-0.17679-0.34375-0.59759-0.34375-1.5312v-22.969c0-0.9331,0.16677-1.323,0.34375-1.5,0.17698-0.17698,0.5669-0.375,1.5-0.375z"/>
<path id="path55" style="baseline-shift:baseline;block-progression:tb;color:#000000;direction:ltr;text-indent:0;text-align:start;enable-background:accumulate;text-transform:none;" fill="#f4f4f4" d="m461.44,68.844c-1.1715,0-2.2112,0.21137-2.9375,0.9375-0.72633,0.72613-0.9375,1.7654-0.9375,2.9375v22.969c0,1.1725,0.21103,2.2114,0.9375,2.9375,0.72647,0.72607,1.7662,0.9375,2.9375,0.9375h37.906c1.1717,0,2.1798-0.21129,2.9062-0.9375,0.72642-0.72621,0.9375-1.7652,0.9375-2.9375v-22.969c0-1.1719-0.21123-2.2112-0.9375-2.9375-0.72627-0.72627-1.7344-0.9375-2.9062-0.9375h-37.906zm0,2,37.906,0c0.9331,0,1.323,0.19802,1.5,0.375,0.17698,0.17698,0.34375,0.5669,0.34375,1.5v22.969c0,0.93366-0.16692,1.3545-0.34375,1.5312-0.17683,0.17679-0.56674,0.34375-1.5,0.34375h-37.906c-0.9327,0-1.3542-0.16682-1.5312-0.34375-0.17703-0.17693-0.34375-0.59775-0.34375-1.5312v-22.969c0-0.93294,0.16658-1.3229,0.34375-1.5,0.17717-0.17712,0.59871-0.375,1.5312-0.375z"/>
<path id="path57" style="baseline-shift:baseline;block-progression:tb;color:#000000;direction:ltr;text-indent:0;text-align:start;enable-background:accumulate;text-transform:none;" fill="#f4f4f4" d="m476.56,39.219c-1.1717,0-2.2111,0.18004-2.9375,0.90625-0.72642,0.72621-0.9375,1.7652-0.9375,2.9375v22.969c0,1.1719,0.21123,2.2112,0.9375,2.9375,0.72627,0.72627,1.7656,0.9375,2.9375,0.9375h22.969c1.1719,0,2.2112-0.21123,2.9375-0.9375,0.72627-0.72627,0.9375-1.7656,0.9375-2.9375v-22.969c0-1.1723-0.21108-2.2113-0.9375-2.9375-0.72642-0.72621-1.7658-0.90625-2.9375-0.90625h-22.969zm0,2,22.969,0c0.93326,0,1.3232,0.16696,1.5,0.34375,0.17683,0.17679,0.375,0.56634,0.375,1.5v22.969c0,0.9331-0.19802,1.3543-0.375,1.5312-0.17698,0.17698-0.5669,0.34375-1.5,0.34375h-22.969c-0.9331,0-1.3543-0.16677-1.5312-0.34375-0.17698-0.17698-0.34375-0.59815-0.34375-1.5312v-22.969c0-0.93366,0.16692-1.3232,0.34375-1.5,0.17683-0.17679,0.59799-0.34375,1.5312-0.34375z"/>
<path id="path59" style="baseline-shift:baseline;block-progression:tb;color:#000000;direction:ltr;text-indent:0;text-align:start;enable-background:accumulate;text-transform:none;" fill="#f4f4f4" d="m109.78,98.938c-1.1719,0-2.2112,0.21123-2.9375,0.9375-0.72627,0.72627-0.9375,1.7344-0.9375,2.9062v23c0,1.1719,0.21123,2.18,0.9375,2.9062,0.72627,0.72627,1.7656,0.9375,2.9375,0.9375h22.969c1.1723,0,2.2113-0.21108,2.9375-0.9375,0.72621-0.72642,0.90625-1.7345,0.90625-2.9062v-23c0-1.1719-0.17998-2.18-0.90625-2.9062-0.72627-0.72627-1.7656-0.9375-2.9375-0.9375h-22.969zm0,2,22.969,0c0.9331,0,1.323,0.16677,1.5,0.34375,0.17698,0.17698,0.34375,0.5669,0.34375,1.5v23c0,0.93326-0.16696,1.3232-0.34375,1.5-0.17679,0.17683-0.56634,0.34375-1.5,0.34375h-22.969c-0.9331,0-1.3543-0.16677-1.5312-0.34375-0.17698-0.17698-0.34375-0.5669-0.34375-1.5v-23c0-0.9331,0.16677-1.323,0.34375-1.5,0.17698-0.17698,0.59815-0.34375,1.5312-0.34375z"/>
<path id="path61" style="baseline-shift:baseline;block-progression:tb;color:#000000;direction:ltr;text-indent:0;text-align:start;enable-background:accumulate;text-transform:none;" fill="#f4f4f4" d="m139.62,98.938c-1.1719,0-2.2112,0.21123-2.9375,0.9375-0.72627,0.72627-0.9375,1.7344-0.9375,2.9062v23c0,1.1719,0.21123,2.18,0.9375,2.9062,0.72627,0.72627,1.7656,0.9375,2.9375,0.9375h22.969c1.1719,0,2.2112-0.21123,2.9375-0.9375,0.72627-0.72627,0.9375-1.7344,0.9375-2.9062v-23c0-1.1719-0.21123-2.18-0.9375-2.9062-0.72627-0.72627-1.7656-0.9375-2.9375-0.9375h-22.969zm0,2,22.969,0c0.9331,0,1.3543,0.16677,1.5312,0.34375,0.17698,0.17698,0.34375,0.5669,0.34375,1.5v23c0,0.9331-0.16677,1.323-0.34375,1.5-0.17698,0.17698-0.59815,0.34375-1.5312,0.34375h-22.969c-0.9331,0-1.3543-0.16677-1.5312-0.34375-0.17698-0.17698-0.34375-0.5669-0.34375-1.5v-23c0-0.9331,0.16677-1.323,0.34375-1.5,0.17698-0.17698,0.59815-0.34375,1.5312-0.34375z"/>
<path id="path63" style="baseline-shift:baseline;block-progression:tb;color:#000000;direction:ltr;text-indent:0;text-align:start;enable-background:accumulate;text-transform:none;" fill="#f4f4f4" d="m169.47,98.938c-1.1719,0-2.2112,0.21123-2.9375,0.9375-0.72627,0.72627-0.90625,1.7344-0.90625,2.9062v23c0,1.1719,0.17998,2.18,0.90625,2.9062,0.72627,0.72627,1.7656,0.9375,2.9375,0.9375h22.969c1.1719,0,2.2112-0.21123,2.9375-0.9375,0.72627-0.72627,0.9375-1.7344,0.9375-2.9062v-23c0-1.1719-0.21123-2.18-0.9375-2.9062-0.72627-0.72627-1.7656-0.9375-2.9375-0.9375h-22.969zm0,2,22.969,0c0.9331,0,1.3543,0.16677,1.5312,0.34375,0.17698,0.17698,0.34375,0.5669,0.34375,1.5v23c0,0.9331-0.16677,1.323-0.34375,1.5-0.17698,0.17698-0.59815,0.34375-1.5312,0.34375h-22.969c-0.9331,0-1.323-0.16677-1.5-0.34375-0.17698-0.17698-0.34375-0.5669-0.34375-1.5v-23c0-0.9331,0.16677-1.323,0.34375-1.5,0.17698-0.17698,0.5669-0.34375,1.5-0.34375z"/>
<path id="path65" style="baseline-shift:baseline;block-progression:tb;color:#000000;direction:ltr;text-indent:0;text-align:start;enable-background:accumulate;text-transform:none;" fill="#f4f4f4" d="m199.31,98.938c-1.1719,0-2.18,0.21123-2.9062,0.9375-0.72627,0.72627-0.9375,1.7344-0.9375,2.9062v23c0,1.1719,0.21123,2.18,0.9375,2.9062,0.72627,0.72627,1.7344,0.9375,2.9062,0.9375h23c1.1719,0,2.18-0.21123,2.9062-0.9375,0.72627-0.72627,0.9375-1.7344,0.9375-2.9062v-23c0-1.1719-0.21123-2.18-0.9375-2.9062-0.72627-0.72627-1.7344-0.9375-2.9062-0.9375h-23zm0,2,23,0c0.9331,0,1.323,0.16677,1.5,0.34375,0.17698,0.17698,0.34375,0.5669,0.34375,1.5v23c0,0.9331-0.16677,1.323-0.34375,1.5-0.17698,0.17698-0.5669,0.34375-1.5,0.34375h-23c-0.9331,0-1.323-0.16677-1.5-0.34375-0.17698-0.17698-0.34375-0.5669-0.34375-1.5v-23c0-0.9331,0.16677-1.323,0.34375-1.5,0.17698-0.17698,0.5669-0.34375,1.5-0.34375z"/>
<path id="path67" style="baseline-shift:baseline;block-progression:tb;color:#000000;direction:ltr;text-indent:0;text-align:start;enable-background:accumulate;text-transform:none;" fill="#f4f4f4" d="m229.19,98.938c-1.1719,0-2.2112,0.21123-2.9375,0.9375-0.72627,0.72627-0.9375,1.7344-0.9375,2.9062v23c0,1.1719,0.21123,2.18,0.9375,2.9062,0.72627,0.72627,1.7656,0.9375,2.9375,0.9375h22.969c1.1719,0,2.18-0.21123,2.9062-0.9375,0.72627-0.72627,0.9375-1.7344,0.9375-2.9062v-23c0-1.1719-0.21123-2.18-0.9375-2.9062-0.72627-0.72627-1.7344-0.9375-2.9062-0.9375h-22.969zm0,2,22.969,0c0.9331,0,1.323,0.16677,1.5,0.34375,0.17698,0.17698,0.34375,0.5669,0.34375,1.5v23c0,0.9331-0.16677,1.323-0.34375,1.5-0.17698,0.17698-0.5669,0.34375-1.5,0.34375h-22.969c-0.9331,0-1.3543-0.16677-1.5312-0.34375-0.17698-0.17698-0.34375-0.5669-0.34375-1.5v-23c0-0.9331,0.16677-1.323,0.34375-1.5,0.17698-0.17698,0.59815-0.34375,1.5312-0.34375z"/>
<path id="path69" style="baseline-shift:baseline;block-progression:tb;color:#000000;direction:ltr;text-indent:0;text-align:start;enable-background:accumulate;text-transform:none;" fill="#f4f4f4" d="m259.03,98.938c-1.1719,0-2.2112,0.21123-2.9375,0.9375-0.72627,0.72627-0.9375,1.7344-0.9375,2.9062v23c0,1.1719,0.21123,2.18,0.9375,2.9062,0.72627,0.72627,1.7656,0.9375,2.9375,0.9375h22.969c1.1719,0,2.2112-0.21123,2.9375-0.9375,0.72627-0.72627,0.9375-1.7344,0.9375-2.9062v-23c0-1.1719-0.21123-2.18-0.9375-2.9062-0.72627-0.72627-1.7656-0.9375-2.9375-0.9375h-22.969zm0,2,22.969,0c0.9331,0,1.323,0.16677,1.5,0.34375,0.17698,0.17698,0.375,0.5669,0.375,1.5v23c0,0.9331-0.19802,1.323-0.375,1.5-0.17698,0.17698-0.5669,0.34375-1.5,0.34375h-22.969c-0.9331,0-1.3543-0.16677-1.5312-0.34375-0.17698-0.17698-0.34375-0.5669-0.34375-1.5v-23c0-0.9331,0.16677-1.323,0.34375-1.5,0.17698-0.17698,0.59815-0.34375,1.5312-0.34375z"/>
<path id="path71" style="baseline-shift:baseline;block-progression:tb;color:#000000;direction:ltr;text-indent:0;text-align:start;enable-background:accumulate;text-transform:none;" fill="#f4f4f4" d="m288.88,98.938c-1.1719,0-2.2112,0.21123-2.9375,0.9375-0.72627,0.72627-0.9375,1.7344-0.9375,2.9062v23c0,1.1719,0.21123,2.18,0.9375,2.9062,0.72627,0.72627,1.7656,0.9375,2.9375,0.9375h22.969c1.1719,0,2.2112-0.21123,2.9375-0.9375,0.72627-0.72627,0.9375-1.7344,0.9375-2.9062v-23c0-1.1719-0.21123-2.18-0.9375-2.9062-0.72627-0.72627-1.7656-0.9375-2.9375-0.9375h-22.969zm0,2,22.969,0c0.9331,0,1.3543,0.16677,1.5312,0.34375,0.17698,0.17698,0.34375,0.5669,0.34375,1.5v23c0,0.9331-0.16677,1.323-0.34375,1.5-0.17698,0.17698-0.59815,0.34375-1.5312,0.34375h-22.969c-0.9331,0-1.323-0.16677-1.5-0.34375-0.17698-0.17698-0.375-0.5669-0.375-1.5v-23c0-0.9331,0.19802-1.323,0.375-1.5,0.17698-0.17698,0.5669-0.34375,1.5-0.34375z"/>
<path id="path73" style="baseline-shift:baseline;block-progression:tb;color:#000000;direction:ltr;text-indent:0;text-align:start;enable-background:accumulate;text-transform:none;" fill="#f4f4f4" d="m318.72,98.938c-1.1719,0-2.18,0.21123-2.9062,0.9375-0.72627,0.72627-0.9375,1.7344-0.9375,2.9062v23c0,1.1719,0.21123,2.18,0.9375,2.9062,0.72627,0.72627,1.7344,0.9375,2.9062,0.9375h23c1.1719,0,2.18-0.21123,2.9062-0.9375,0.72627-0.72627,0.9375-1.7344,0.9375-2.9062v-23c0-1.1719-0.21123-2.18-0.9375-2.9062-0.72627-0.72627-1.7344-0.9375-2.9062-0.9375h-23zm0,2,23,0c0.9331,0,1.323,0.16677,1.5,0.34375,0.17698,0.17698,0.34375,0.5669,0.34375,1.5v23c0,0.9331-0.16677,1.323-0.34375,1.5-0.17698,0.17698-0.5669,0.34375-1.5,0.34375h-23c-0.9331,0-1.323-0.16677-1.5-0.34375-0.17698-0.17698-0.34375-0.5669-0.34375-1.5v-23c0-0.9331,0.16677-1.323,0.34375-1.5,0.17698-0.17698,0.5669-0.34375,1.5-0.34375z"/>
<path id="path75" style="baseline-shift:baseline;block-progression:tb;color:#000000;direction:ltr;text-indent:0;text-align:start;enable-background:accumulate;text-transform:none;" fill="#f4f4f4" d="m348.56,98.938c-1.1719,0-2.18,0.21123-2.9062,0.9375-0.72627,0.72627-0.9375,1.7344-0.9375,2.9062v23c0,1.1719,0.21123,2.18,0.9375,2.9062,0.72627,0.72627,1.7344,0.9375,2.9062,0.9375h23c1.1719,0,2.18-0.21123,2.9062-0.9375,0.72627-0.72627,0.9375-1.7344,0.9375-2.9062v-23c0-1.1719-0.21123-2.18-0.9375-2.9062-0.72627-0.72627-1.7344-0.9375-2.9062-0.9375h-23zm0,2,23,0c0.9331,0,1.323,0.16677,1.5,0.34375,0.17698,0.17698,0.34375,0.5669,0.34375,1.5v23c0,0.9331-0.16677,1.323-0.34375,1.5-0.17698,0.17698-0.5669,0.34375-1.5,0.34375h-23c-0.9331,0-1.323-0.16677-1.5-0.34375-0.17698-0.17698-0.34375-0.5669-0.34375-1.5v-23c0-0.9331,0.16677-1.323,0.34375-1.5,0.17698-0.17698,0.5669-0.34375,1.5-0.34375z"/>
<path id="path77" style="baseline-shift:baseline;block-progression:tb;color:#000000;direction:ltr;text-indent:0;text-align:start;enable-background:accumulate;text-transform:none;" fill="#f4f4f4" d="m378.44,98.938c-1.1719,0-2.2112,0.21123-2.9375,0.9375-0.72627,0.72627-0.9375,1.7344-0.9375,2.9062v23c0,1.1719,0.21123,2.18,0.9375,2.9062,0.72627,0.72627,1.7656,0.9375,2.9375,0.9375h22.969c1.1719,0,2.2112-0.21123,2.9375-0.9375,0.72627-0.72627,0.90625-1.7344,0.90625-2.9062v-23c0-1.1719-0.17998-2.18-0.90625-2.9062-0.72627-0.72627-1.7656-0.9375-2.9375-0.9375h-22.969zm0,2,22.969,0c0.9331,0,1.323,0.16677,1.5,0.34375,0.17698,0.17698,0.34375,0.5669,0.34375,1.5v23c0,0.9331-0.16677,1.323-0.34375,1.5-0.17698,0.17698-0.5669,0.34375-1.5,0.34375h-22.969c-0.9331,0-1.3543-0.16677-1.5312-0.34375-0.17698-0.17698-0.34375-0.5669-0.34375-1.5v-23c0-0.9331,0.16677-1.323,0.34375-1.5,0.17698-0.17698,0.59815-0.34375,1.5312-0.34375z"/>
<path id="path79" style="baseline-shift:baseline;block-progression:tb;color:#000000;direction:ltr;text-indent:0;text-align:start;enable-background:accumulate;text-transform:none;" fill="#f4f4f4" d="m408.28,98.938c-1.1719,0-2.2112,0.21123-2.9375,0.9375-0.72627,0.72627-0.9375,1.7344-0.9375,2.9062v23c0,1.1719,0.21123,2.18,0.9375,2.9062,0.72627,0.72627,1.7656,0.9375,2.9375,0.9375h22.969c1.1719,0,2.2112-0.21123,2.9375-0.9375,0.72627-0.72627,0.9375-1.7344,0.9375-2.9062v-23c0-1.1719-0.21123-2.18-0.9375-2.9062-0.72627-0.72627-1.7656-0.9375-2.9375-0.9375h-22.969zm0,2,22.969,0c0.9331,0,1.3543,0.16677,1.5312,0.34375,0.17698,0.17698,0.34375,0.5669,0.34375,1.5v23c0,0.9331-0.16677,1.323-0.34375,1.5-0.17698,0.17698-0.59815,0.34375-1.5312,0.34375h-22.969c-0.9331,0-1.3543-0.16677-1.5312-0.34375-0.17698-0.17698-0.34375-0.5669-0.34375-1.5v-23c0-0.9331,0.16677-1.323,0.34375-1.5,0.17698-0.17698,0.59815-0.34375,1.5312-0.34375z"/>
<path id="path81" style="baseline-shift:baseline;block-progression:tb;color:#000000;direction:ltr;text-indent:0;text-align:start;enable-background:accumulate;text-transform:none;" fill="#f4f4f4" d="m438.12,98.938c-1.1719,0-2.2112,0.21123-2.9375,0.9375-0.72627,0.72627-0.90625,1.7344-0.90625,2.9062v23c0,1.1719,0.17998,2.18,0.90625,2.9062,0.72627,0.72627,1.7656,0.9375,2.9375,0.9375h22.969c1.1719,0,2.2112-0.21123,2.9375-0.9375,0.72627-0.72627,0.9375-1.7344,0.9375-2.9062v-23c0-1.1719-0.21123-2.18-0.9375-2.9062-0.72627-0.72627-1.7656-0.9375-2.9375-0.9375h-22.969zm0,2,22.969,0c0.9331,0,1.3543,0.16677,1.5312,0.34375,0.17698,0.17698,0.34375,0.5669,0.34375,1.5v23c0,0.9331-0.16677,1.323-0.34375,1.5-0.17698,0.17698-0.59815,0.34375-1.5312,0.34375h-22.969c-0.9331,0-1.323-0.16677-1.5-0.34375-0.17698-0.17698-0.34375-0.5669-0.34375-1.5v-23c0-0.9331,0.16677-1.323,0.34375-1.5,0.17698-0.17698,0.5669-0.34375,1.5-0.34375z"/>
<path id="path83" style="baseline-shift:baseline;block-progression:tb;color:#000000;direction:ltr;text-indent:0;text-align:start;enable-background:accumulate;text-transform:none;" fill="#f4f4f4" d="m467.97,98.938c-1.1719,0-2.18,0.21123-2.9062,0.9375-0.72627,0.72627-0.9375,1.7344-0.9375,2.9062v23c0,1.1719,0.21123,2.18,0.9375,2.9062,0.72627,0.72627,1.7344,0.9375,2.9062,0.9375h23c1.1719,0,2.18-0.21123,2.9062-0.9375,0.72627-0.72627,0.9375-1.7344,0.9375-2.9062v-23c0-1.1719-0.21123-2.18-0.9375-2.9062-0.72627-0.72627-1.7344-0.9375-2.9062-0.9375h-23zm0,2,23,0c0.9331,0,1.323,0.16677,1.5,0.34375,0.17698,0.17698,0.34375,0.5669,0.34375,1.5v23c0,0.9331-0.16677,1.323-0.34375,1.5-0.17698,0.17698-0.5669,0.34375-1.5,0.34375h-23c-0.9331,0-1.323-0.16677-1.5-0.34375-0.17698-0.17698-0.34375-0.5669-0.34375-1.5v-23c0-0.9331,0.16677-1.323,0.34375-1.5,0.17698-0.17698,0.5669-0.34375,1.5-0.34375z"/>
<path id="path85" style="baseline-shift:baseline;block-progression:tb;color:#000000;direction:ltr;text-indent:0;text-align:start;enable-background:accumulate;text-transform:none;" fill="#f4f4f4" d="m109.78,128.81c-1.1717,0-2.2111,0.18004-2.9375,0.90625-0.72642,0.72621-0.9375,1.7652-0.9375,2.9375v22.969c0,1.1723,0.21108,2.2113,0.9375,2.9375,0.72642,0.72621,1.7658,0.9375,2.9375,0.9375h40.75c1.1717,0,2.2111-0.21129,2.9375-0.9375,0.72642-0.72621,0.9375-1.7652,0.9375-2.9375v-22.969c0-1.1723-0.21108-2.2113-0.9375-2.9375-0.72642-0.72621-1.7658-0.90625-2.9375-0.90625h-40.75zm0,2,40.75,0c0.93326,0,1.3544,0.16696,1.5312,0.34375,0.17683,0.17679,0.34375,0.56634,0.34375,1.5v22.969c0,0.93366-0.16692,1.3545-0.34375,1.5312-0.17683,0.17679-0.59799,0.34375-1.5312,0.34375h-40.75c-0.93326,0-1.3544-0.16696-1.5312-0.34375-0.17683-0.17679-0.34375-0.59759-0.34375-1.5312v-22.969c0-0.93366,0.16692-1.3232,0.34375-1.5,0.17683-0.17679,0.59799-0.34375,1.5312-0.34375z"/>
<path id="path87" style="baseline-shift:baseline;block-progression:tb;color:#000000;direction:ltr;text-indent:0;text-align:start;enable-background:accumulate;text-transform:none;" fill="#f4f4f4" d="m157.41,128.81c-1.1717,0-2.2111,0.18004-2.9375,0.90625-0.72642,0.72621-0.90625,1.7652-0.90625,2.9375v22.969c0,1.1723,0.17983,2.2113,0.90625,2.9375,0.72642,0.72621,1.7658,0.9375,2.9375,0.9375h23c1.1717,0,2.1798-0.21129,2.9062-0.9375,0.72642-0.72621,0.9375-1.7652,0.9375-2.9375v-22.969c0-1.1723-0.21108-2.2113-0.9375-2.9375-0.72642-0.72621-1.7345-0.90625-2.9062-0.90625h-23zm0,2,23,0c0.93326,0,1.3232,0.16696,1.5,0.34375,0.17683,0.17679,0.34375,0.56634,0.34375,1.5v22.969c0,0.93366-0.16692,1.3545-0.34375,1.5312-0.17683,0.17679-0.56674,0.34375-1.5,0.34375h-23c-0.93326,0-1.3232-0.16696-1.5-0.34375-0.17683-0.17679-0.34375-0.59759-0.34375-1.5312v-22.969c0-0.93366,0.16692-1.3232,0.34375-1.5,0.17683-0.17679,0.56674-0.34375,1.5-0.34375z"/>
<path id="path89" style="baseline-shift:baseline;block-progression:tb;color:#000000;direction:ltr;text-indent:0;text-align:start;enable-background:accumulate;text-transform:none;" fill="#f4f4f4" d="m109.88,158.44c-1.1719,0-2.2112,0.21123-2.9375,0.9375-0.72627,0.72627-0.9375,1.7656-0.9375,2.9375v22.969c0,1.1719,0.21123,2.2112,0.9375,2.9375,0.72627,0.72627,1.7656,0.9375,2.9375,0.9375h22.969c1.1719,0,2.2112-0.21123,2.9375-0.9375,0.72627-0.72627,0.90625-1.7656,0.90625-2.9375v-22.969c0-1.1719-0.17998-2.2112-0.90625-2.9375-0.72627-0.72627-1.7656-0.9375-2.9375-0.9375h-22.969zm0,2,22.969,0c0.9331,0,1.323,0.16677,1.5,0.34375,0.17698,0.17698,0.34375,0.59815,0.34375,1.5312v22.969c0,0.9331-0.16677,1.3543-0.34375,1.5312-0.17698,0.17698-0.5669,0.34375-1.5,0.34375h-22.969c-0.9331,0-1.3543-0.16677-1.5312-0.34375-0.18-0.17-0.35-0.6-0.35-1.53v-22.969c0-0.9331,0.16677-1.3543,0.34375-1.5312,0.17698-0.17698,0.59815-0.34375,1.5312-0.34375z"/>
<path id="path91" style="baseline-shift:baseline;block-progression:tb;color:#000000;direction:ltr;text-indent:0;text-align:start;enable-background:accumulate;text-transform:none;" fill="#f4f4f4" d="m184.09,158.44c-1.1719,0-2.18,0.21123-2.9062,0.9375-0.72627,0.72627-0.9375,1.7656-0.9375,2.9375v22.969c0,1.1719,0.21123,2.2112,0.9375,2.9375,0.72627,0.72627,1.7344,0.9375,2.9062,0.9375h232.66c1.1719,0,2.2112-0.21123,2.9375-0.9375,0.72627-0.72627,0.9375-1.7656,0.9375-2.9375v-22.969c0-1.1719-0.21123-2.2112-0.9375-2.9375-0.72627-0.72627-1.7656-0.9375-2.9375-0.9375h-232.66zm0,2,232.66,0c0.9331,0,1.3543,0.16677,1.5312,0.34375,0.17698,0.17698,0.34375,0.59815,0.34375,1.5312v22.969c0,0.9331-0.16677,1.3543-0.34375,1.5312-0.17698,0.17698-0.59815,0.34375-1.5312,0.34375h-232.66c-0.9331,0-1.323-0.16677-1.5-0.34375-0.17698-0.17698-0.34375-0.59815-0.34375-1.5312v-22.969c0-0.9331,0.16677-1.3543,0.34375-1.5312,0.17698-0.17698,0.5669-0.34375,1.5-0.34375z"/>
<path id="path93" style="baseline-shift:baseline;block-progression:tb;color:#000000;direction:ltr;text-indent:0;text-align:start;enable-background:accumulate;text-transform:none;" fill="#f4f4f4" d="m187.25,128.81c-1.1722,0-2.1799,0.17989-2.9062,0.90625-0.72636,0.72636-0.9375,1.7653-0.9375,2.9375v22.969c0,1.1722,0.21114,2.2111,0.9375,2.9375,0.72636,0.72636,1.7341,0.9375,2.9062,0.9375h23c1.1717,0,2.1798-0.21129,2.9062-0.9375,0.72642-0.72621,0.9375-1.7652,0.9375-2.9375v-22.969c0-1.1723-0.21108-2.2113-0.9375-2.9375-0.72642-0.72621-1.7345-0.90625-2.9062-0.90625h-23zm0,2,23,0c0.93326,0,1.3232,0.16696,1.5,0.34375,0.17683,0.17679,0.34375,0.56634,0.34375,1.5v22.969c0,0.93366-0.16692,1.3545-0.34375,1.5312-0.17683,0.17679-0.56674,0.34375-1.5,0.34375h-23c-0.93382,0-1.3234-0.16711-1.5-0.34375-0.17664-0.17664-0.34375-0.59743-0.34375-1.5312v-22.969c0-0.93382,0.16711-1.3234,0.34375-1.5,0.17664-0.17664,0.56618-0.34375,1.5-0.34375z"/>
<path id="path95" style="baseline-shift:baseline;block-progression:tb;color:#000000;direction:ltr;text-indent:0;text-align:start;enable-background:accumulate;text-transform:none;" fill="#f4f4f4" d="m217.12,128.81c-1.1717,0-2.2111,0.18004-2.9375,0.90625-0.72642,0.72621-0.9375,1.7652-0.9375,2.9375v22.969c0,1.1723,0.21108,2.2113,0.9375,2.9375,0.72642,0.72621,1.7658,0.9375,2.9375,0.9375h22.969c1.1717,0,2.2111-0.21129,2.9375-0.9375,0.72642-0.72621,0.90625-1.7652,0.90625-2.9375v-22.969c0-1.1723-0.17983-2.2113-0.90625-2.9375-0.72642-0.72621-1.7658-0.90625-2.9375-0.90625h-22.969zm0,2,22.969,0c0.93326,0,1.3232,0.16696,1.5,0.34375,0.17683,0.17679,0.34375,0.56634,0.34375,1.5v22.969c0,0.93366-0.16692,1.3545-0.34375,1.5312-0.17683,0.17679-0.56674,0.34375-1.5,0.34375h-22.969c-0.93326,0-1.3544-0.16696-1.5312-0.34375-0.17683-0.17679-0.34375-0.59759-0.34375-1.5312v-22.969c0-0.93366,0.16692-1.3232,0.34375-1.5,0.17683-0.17679,0.59799-0.34375,1.5312-0.34375z"/>
<path id="path97" style="baseline-shift:baseline;block-progression:tb;color:#000000;direction:ltr;text-indent:0;text-align:start;enable-background:accumulate;text-transform:none;" fill="#f4f4f4" d="m246.97,128.81c-1.1722,0-2.2111,0.17989-2.9375,0.90625-0.72636,0.72636-0.9375,1.7653-0.9375,2.9375v22.969c0,1.1722,0.21114,2.2111,0.9375,2.9375,0.72636,0.72636,1.7653,0.9375,2.9375,0.9375h22.969c1.1722,0,2.2111-0.21114,2.9375-0.9375,0.72636-0.72636,0.9375-1.7653,0.9375-2.9375v-22.969c0-1.1722-0.21114-2.2111-0.9375-2.9375-0.72636-0.72636-1.7653-0.90625-2.9375-0.90625h-22.969zm0,2,22.969,0c0.93382,0,1.3546,0.16711,1.5312,0.34375,0.17664,0.17664,0.34375,0.56618,0.34375,1.5v22.969c0,0.93382-0.16711,1.3546-0.34375,1.5312-0.17664,0.17664-0.59743,0.34375-1.5312,0.34375h-22.969c-0.93382,0-1.3546-0.16711-1.5312-0.34375-0.17664-0.17664-0.34375-0.59743-0.34375-1.5312v-22.969c0-0.93382,0.16711-1.3234,0.34375-1.5,0.17664-0.17664,0.59743-0.34375,1.5312-0.34375z"/>
<path id="path99" style="baseline-shift:baseline;block-progression:tb;color:#000000;direction:ltr;text-indent:0;text-align:start;enable-background:accumulate;text-transform:none;" fill="#f4f4f4" d="m276.81,128.81c-1.1717,0-2.2111,0.18004-2.9375,0.90625-0.72642,0.72621-0.90625,1.7652-0.90625,2.9375v22.969c0,1.1723,0.17983,2.2113,0.90625,2.9375,0.72642,0.72621,1.7658,0.9375,2.9375,0.9375h22.969c1.1717,0,2.2111-0.21129,2.9375-0.9375,0.72642-0.72621,0.9375-1.7652,0.9375-2.9375v-22.969c0-1.1723-0.21108-2.2113-0.9375-2.9375-0.72642-0.72621-1.7658-0.90625-2.9375-0.90625h-22.969zm0,2,22.969,0c0.93326,0,1.3544,0.16696,1.5312,0.34375,0.17683,0.17679,0.34375,0.56634,0.34375,1.5v22.969c0,0.93366-0.16692,1.3545-0.34375,1.5312-0.17683,0.17679-0.59799,0.34375-1.5312,0.34375h-22.969c-0.93326,0-1.3232-0.16696-1.5-0.34375-0.17683-0.17679-0.34375-0.59759-0.34375-1.5312v-22.969c0-0.93366,0.16692-1.3232,0.34375-1.5,0.17683-0.17679,0.56674-0.34375,1.5-0.34375z"/>
<path id="path101" style="baseline-shift:baseline;block-progression:tb;color:#000000;direction:ltr;text-indent:0;text-align:start;enable-background:accumulate;text-transform:none;" fill="#f4f4f4" d="m306.66,128.81c-1.1717,0-2.1798,0.18004-2.9062,0.90625-0.72642,0.72621-0.9375,1.7652-0.9375,2.9375v22.969c0,1.1723,0.21108,2.2113,0.9375,2.9375,0.72642,0.72621,1.7345,0.9375,2.9062,0.9375h23c1.1717,0,2.1798-0.21129,2.9062-0.9375,0.72642-0.72621,0.9375-1.7652,0.9375-2.9375v-22.969c0-1.1723-0.21108-2.2113-0.9375-2.9375-0.72642-0.72621-1.7345-0.90625-2.9062-0.90625h-23zm0,2,23,0c0.93326,0,1.3232,0.16696,1.5,0.34375,0.17683,0.17679,0.34375,0.56634,0.34375,1.5v22.969c0,0.93366-0.16692,1.3545-0.34375,1.5312-0.17683,0.17679-0.56674,0.34375-1.5,0.34375h-23c-0.93326,0-1.3232-0.16696-1.5-0.34375-0.17683-0.17679-0.34375-0.59759-0.34375-1.5312v-22.969c0-0.93366,0.16692-1.3232,0.34375-1.5,0.17683-0.17679,0.56674-0.34375,1.5-0.34375z"/>
<path id="path103" style="baseline-shift:baseline;block-progression:tb;color:#000000;direction:ltr;text-indent:0;text-align:start;enable-background:accumulate;text-transform:none;" fill="#f4f4f4" d="m336.5,128.81c-1.1717,0-2.1798,0.18004-2.9062,0.90625-0.72642,0.72621-0.9375,1.7652-0.9375,2.9375v22.969c0,1.1723,0.21108,2.2113,0.9375,2.9375,0.72642,0.72621,1.7345,0.9375,2.9062,0.9375h23c1.1717,0,2.1798-0.21129,2.9062-0.9375,0.72642-0.72621,0.9375-1.7652,0.9375-2.9375v-22.969c0-1.1723-0.21108-2.2113-0.9375-2.9375-0.72642-0.72621-1.7345-0.90625-2.9062-0.90625h-23zm0,2,23,0c0.93326,0,1.3232,0.16696,1.5,0.34375,0.17683,0.17679,0.34375,0.56634,0.34375,1.5v22.969c0,0.93366-0.16692,1.3545-0.34375,1.5312-0.17683,0.17679-0.56674,0.34375-1.5,0.34375h-23c-0.93326,0-1.3232-0.16696-1.5-0.34375-0.17683-0.17679-0.34375-0.59759-0.34375-1.5312v-22.969c0-0.93366,0.16692-1.3232,0.34375-1.5,0.17683-0.17679,0.56674-0.34375,1.5-0.34375z"/>
<path id="path105" style="baseline-shift:baseline;block-progression:tb;color:#000000;direction:ltr;text-indent:0;text-align:start;enable-background:accumulate;text-transform:none;" fill="#f4f4f4" d="m366.38,128.81c-1.1722,0-2.2111,0.17989-2.9375,0.90625-0.72636,0.72636-0.9375,1.7653-0.9375,2.9375v22.969c0,1.1722,0.21114,2.2111,0.9375,2.9375,0.72636,0.72636,1.7653,0.9375,2.9375,0.9375h22.969c1.1717,0,2.2111-0.21129,2.9375-0.9375,0.72642-0.72621,0.9375-1.7652,0.9375-2.9375v-22.969c0-1.1723-0.21108-2.2113-0.9375-2.9375-0.72642-0.72621-1.7658-0.90625-2.9375-0.90625h-22.969zm0,2,22.969,0c0.93326,0,1.3232,0.16696,1.5,0.34375,0.17683,0.17679,0.375,0.56634,0.375,1.5v22.969c0,0.93366-0.19817,1.3545-0.375,1.5312-0.17683,0.17679-0.56674,0.34375-1.5,0.34375h-22.969c-0.93382,0-1.3546-0.16711-1.5312-0.34375-0.17-0.17-0.34-0.59-0.34-1.53v-22.969c0-0.93382,0.16711-1.3234,0.34375-1.5,0.17664-0.17664,0.59743-0.34375,1.5312-0.34375z"/>
<path id="path107" style="baseline-shift:baseline;block-progression:tb;color:#000000;direction:ltr;text-indent:0;text-align:start;enable-background:accumulate;text-transform:none;" fill="#f4f4f4" d="m396.22,128.81c-1.1717,0-2.2111,0.18004-2.9375,0.90625-0.72642,0.72621-0.9375,1.7652-0.9375,2.9375v22.969c0,1.1723,0.21108,2.2113,0.9375,2.9375,0.72642,0.72621,1.7658,0.9375,2.9375,0.9375h22.969c1.1717,0,2.2111-0.21129,2.9375-0.9375,0.72642-0.72621,0.9375-1.7652,0.9375-2.9375v-22.969c0-1.1723-0.21108-2.2113-0.9375-2.9375-0.72642-0.72621-1.7658-0.90625-2.9375-0.90625h-22.969zm0,2,22.969,0c0.93326,0,1.3544,0.16696,1.5312,0.34375,0.17683,0.17679,0.34375,0.56634,0.34375,1.5v22.969c0,0.93366-0.16692,1.3545-0.34375,1.5312-0.17683,0.17679-0.59799,0.34375-1.5312,0.34375h-22.969c-0.93326,0-1.3232-0.16696-1.5-0.34375-0.17683-0.17679-0.375-0.59759-0.375-1.5312v-22.969c0-0.93366,0.19817-1.3232,0.375-1.5,0.17683-0.17679,0.56674-0.34375,1.5-0.34375z"/>
<path id="path109" style="baseline-shift:baseline;block-progression:tb;color:#000000;direction:ltr;text-indent:0;text-align:start;enable-background:accumulate;text-transform:none;" fill="#f4f4f4" d="m426.06,128.81c-1.1717,0-2.2111,0.18004-2.9375,0.90625-0.72642,0.72621-0.90625,1.7652-0.90625,2.9375v22.969c0,1.1723,0.17983,2.2113,0.90625,2.9375,0.72642,0.72621,1.7658,0.9375,2.9375,0.9375h22.969c1.1717,0,2.2111-0.21129,2.9375-0.9375,0.72642-0.72621,0.9375-1.7652,0.9375-2.9375v-22.969c0-1.1723-0.21108-2.2113-0.9375-2.9375-0.72642-0.72621-1.7658-0.90625-2.9375-0.90625h-22.969zm0,2,22.969,0c0.93326,0,1.3544,0.16696,1.5312,0.34375,0.17683,0.17679,0.34375,0.56634,0.34375,1.5v22.969c0,0.93366-0.16692,1.3545-0.34375,1.5312-0.17683,0.17679-0.59799,0.34375-1.5312,0.34375h-22.969c-0.93326,0-1.3232-0.16696-1.5-0.34375-0.17683-0.17679-0.34375-0.59759-0.34375-1.5312v-22.969c0-0.93366,0.16692-1.3232,0.34375-1.5,0.17683-0.17679,0.56674-0.34375,1.5-0.34375z"/>
<path id="path111" style="baseline-shift:baseline;block-progression:tb;color:#000000;direction:ltr;text-indent:0;text-align:start;enable-background:accumulate;text-transform:none;" fill="#f4f4f4" d="m455.91,128.81c-1.1717,0-2.1798,0.18004-2.9062,0.90625-0.72642,0.72621-0.9375,1.7652-0.9375,2.9375v22.969c0,1.1723,0.21108,2.2113,0.9375,2.9375,0.72642,0.72621,1.7345,0.9375,2.9062,0.9375h35.062c1.1713,0,2.2113-0.21128,2.9375-0.9375,0.72622-0.72622,0.90625-1.7652,0.90625-2.9375v-22.969c0-1.1723-0.18003-2.2113-0.90625-2.9375-0.72622-0.72622-1.7662-0.90625-2.9375-0.90625h-35.062zm0,2,35.062,0c0.9327,0,1.3232,0.16697,1.5,0.34375,0.17678,0.17678,0.34375,0.56634,0.34375,1.5v22.969c0,0.93366-0.16697,1.3545-0.34375,1.5312-0.17678,0.17678-0.5673,0.34375-1.5,0.34375h-35.062c-0.93326,0-1.3232-0.16696-1.5-0.34375-0.17683-0.17679-0.34375-0.59759-0.34375-1.5312v-22.969c0-0.93366,0.16692-1.3232,0.34375-1.5,0.17683-0.17679,0.56674-0.34375,1.5-0.34375z"/>
</svg>
