<?xml version="1.0" encoding="UTF-8" standalone="no"?>
<!-- Generator: Adobe Illustrator 13.0.0, SVG Export Plug-In . SVG Version: 6.00 Build 14948)  -->
<svg id="Layer_3" xmlns:rdf="http://www.w3.org/1999/02/22-rdf-syntax-ns#" xmlns="http://www.w3.org/2000/svg" xml:space="preserve" height="283.01px" viewBox="0 0 601.454 283.011" width="601.45px" version="1.2" y="0px" x="0px" xmlns:cc="http://creativecommons.org/ns#" xmlns:dc="http://purl.org/dc/elements/1.1/"><metadata id="metadata43"><rdf:RDF><cc:Work rdf:about=""><dc:format>image/svg+xml</dc:format><dc:type rdf:resource="http://purl.org/dc/dcmitype/StillImage"/><dc:title/></cc:Work></rdf:RDF></metadata>
<path id="path3" style="baseline-shift:baseline;block-progression:tb;color:#000000;direction:ltr;text-indent:0;text-align:start;enable-background:accumulate;text-transform:none;" fill="#f4f4f4" d="m212.56,11.469c-0.17827,0-0.1822,0.01827-0.3125,0.03125s-0.31336,0.03811-0.53125,0.0625c-0.43577,0.04877-1.0593,0.09389-1.8438,0.1875-1.5688,0.18722-3.7962,0.46317-6.625,0.8125-5.6576,0.69866-13.649,1.7059-23.188,2.9062-19.077,2.4007-44.378,5.6158-69.656,8.8438-25.278,3.2279-50.546,6.4555-69.594,8.9375-9.5238,1.241-17.488,2.3027-23.125,3.0625-2.8183,0.3799-5.0665,0.68304-6.625,0.90625-0.783,0.112-1.3824,0.213-1.816,0.282-0.21681,0.0344-0.39674,0.06887-0.53125,0.09375-0.067256,0.01244-0.099723,0.01856-0.15625,0.03125s-0.078376-0.0107-0.25,0.0625c-4.8848,2.083-8.3126,6.959-8.3126,12.593v219.06c0,7.54,6.123,13.66,13.656,13.66h574.12c7.5334,0,13.688-6.1238,13.688-13.656v-219.06c0-5.4102-3.1746-10.104-7.75-12.312-0.17659-0.08527-0.18821-0.07832-0.25-0.09375-0.0618-0.01543-0.14851-0.0484-0.21875-0.0625-0.14047-0.02819-0.31064-0.05678-0.53125-0.09375-0.44122-0.07395-1.0579-0.16499-1.8438-0.28125-1.58-0.232-3.83-0.548-6.66-0.937-5.67-0.777-13.66-1.838-23.22-3.094-19.12-2.512-44.47-5.782-69.84-9.031s-50.75-6.463-69.91-8.875c-9.5801-1.2058-17.619-2.2361-23.312-2.9375-2.8465-0.35072-5.1029-0.62455-6.6875-0.8125-0.79231-0.09397-1.4004-0.13852-1.8438-0.1875-0.22166-0.02449-0.39708-0.04945-0.53125-0.0625s-0.17767-0.03125-0.34375-0.03125v2c-0.10452,0,0.006-0.01156,0.125,0,0.11885,0.01156,0.31452,0.03855,0.53125,0.0625,0.43345,0.04789,1.023,0.12512,1.8125,0.21875,1.5789,0.18727,3.8426,0.46198,6.6875,0.8125,5.6899,0.70104,13.733,1.7006,23.312,2.9062,19.158,2.4113,44.538,5.6264,69.906,8.875s50.725,6.5197,69.844,9.0312c9.5594,1.2558,17.56,2.349,23.219,3.125,2.8295,0.38801,5.0668,0.67573,6.625,0.90625,0.77911,0.11526,1.3949,0.21127,1.8125,0.28125,0.20878,0.03499,0.3655,0.07303,0.46875,0.09375,0.008,0.0038,0.0234-0.0038,0.0312,0,0.0296,0.0063,0.0537,0.02906,0.0625,0.03125,3.8347,1.908,6.5,5.8848,6.5,10.469v219.06c0,6.4516-5.2348,11.656-11.688,11.656h-574.12c-6.4565,0-11.66-5.2-11.66-11.66v-219.06c0-4.8007,2.9003-8.9272,7.0312-10.719,0.019943-0.0041,0.027678,0.0064,0.0625,0,0.10447-0.01932,0.2613-0.06084,0.46875-0.09375,0.4149-0.06582,1.0385-0.13915,1.8125-0.25,1.5479-0.2217,3.7782-0.55798,6.5938-0.9375,5.631-0.75904,13.571-1.7904,23.094-3.0312,19.045-2.4816,44.317-5.7409,69.594-8.9688,25.277-3.2278,50.581-6.412,69.656-8.8125,9.5374-1.2002,17.502-2.2079,23.156-2.9062,2.8274-0.34915,5.0926-0.6259,6.6562-0.8125,0.78182-0.0933,1.3858-0.17099,1.8125-0.21875,0.21335-0.02388,0.38411-0.05096,0.5-0.0625s0.24821,0,0.125,0v-2z"/>
<path id="path5" style="baseline-shift:baseline;block-progression:tb;color:#000000;direction:ltr;text-indent:0;text-align:start;enable-background:accumulate;text-transform:none;" fill="#f4f4f4" d="m215.78,0c-1.3064,0-2.4203,0.60983-3.0625,1.5-0.64224,0.89017-0.875,1.9991-0.875,3.0938v79.062c0,49.081,39.794,88.906,88.875,88.906,49.08,0,88.906-39.825,88.906-88.906v-79.062c0-1.1453-0.23955-2.2669-0.90625-3.1562-0.67-0.88769-1.79-1.4358-3.13-1.4358h-169.81zm0,2,169.81,0c0.86531,0,1.2347,0.22939,1.5312,0.625,0.29655,0.39561,0.5,1.096,0.5,1.9688v79.062c0,48.001-38.907,86.906-86.906,86.906-48.001,0-86.875-38.906-86.875-86.906v-79.062c0-0.78539,0.19024-1.5082,0.5-1.9375,0.31-0.4276,0.68-0.6545,1.44-0.6545z"/>
<path id="path7" style="baseline-shift:baseline;block-progression:tb;color:#000000;direction:ltr;text-indent:0;text-align:start;enable-background:accumulate;text-transform:none;" fill="#f4f4f4" d="m87.469,139.16c-4.4857,0-8.854,0.55002-13.031,1.5625-19.905,4.8211-35.589,20.444-40.5,40.312-1.0501,4.2514-1.5938,8.6767-1.5938,13.25,0,4.394,0.49594,8.6822,1.4688,12.781,4.7599,20.067,20.486,35.886,40.5,40.781,4.2139,1.0308,8.6278,1.5625,13.156,1.5625,4.4715,0,8.8353-0.52699,13-1.5312,20.276-4.8964,36.172-20.988,40.781-41.375,0.88823-3.9278,1.3438-8.0243,1.3438-12.219,0-4.5448-0.5558-8.9603-1.5938-13.188-4.8761-19.856-20.486-35.472-40.344-40.344-4.2242-1.0359-8.6471-1.5927-13.188-1.5938zm0,2c4.3796,0.00098,8.6177,0.53317,12.688,1.5312,19.132,4.694,34.208,19.745,38.906,38.875,1,4.0728,1.5312,8.3355,1.5312,12.719,0,4.0456-0.45673,7.997-1.3125,11.781-4.4409,19.643-19.746,35.157-39.281,39.875-4.0133,0.96774-8.2188,1.4688-12.531,1.4688-4.3675,0-8.5961-0.50681-12.656-1.5-19.282-4.7166-34.445-19.978-39.031-39.312-0.93719-3.949-1.4375-8.0745-1.4375-12.312,0-4.4107,0.51938-8.6847,1.5312-12.781,4.7313-19.143,19.854-34.199,39.031-38.844,4.0248-0.97552,8.2362-1.5,12.562-1.5z"/>
<path id="path9" style="baseline-shift:baseline;block-progression:tb;color:#000000;direction:ltr;text-indent:0;text-align:start;enable-background:accumulate;text-transform:none;" fill="#f4f4f4" d="m87.469,139.16c-4.4857,0-8.854,0.55001-13.031,1.5625h-0.03125-0.0625c-0.90132,0.30738-1.7013,0.86211-2.2188,1.6875-0.51749,0.82539-0.71875,1.8436-0.71875,3.0938v30.281c0,0.97213-0.16843,1.579-0.40625,1.875-0.23782,0.29596-0.65816,0.5625-1.875,0.5625h-30.438c-1.0866,0-2.0219,0.0603-2.875,0.46875-0.85312,0.4084-1.4769,1.2132-1.8438,2.25v0.0312l-0.03125,0.0625c-1.0501,4.2514-1.5938,8.6767-1.5938,13.25,0,4.394,0.49594,8.6822,1.4688,12.781h0.03125c0.26938,1.0491,0.73752,1.9929,1.5938,2.5625,0.85623,0.56964,1.9247,0.71875,3.25,0.71875h30.406c0.97021,0,1.4925,0.18547,1.7812,0.46875,0.28879,0.28328,0.53125,0.84559,0.53125,2v30.25c0,1.4482,0.26279,2.5286,0.8125,3.3125,0.54971,0.78389,1.3404,1.1921,2,1.4375h0.0625l0.03125,0.0312c4.2139,1.0308,8.6278,1.5625,13.156,1.5625,4.4715,0,8.8353-0.527,13-1.5312h0.0312c0.81645-0.22672,1.6256-0.71431,2.1875-1.5312,0.56194-0.81694,0.84375-1.9215,0.84375-3.2812v-30.281c0-0.93148,0.23055-1.4995,0.5625-1.8438,0.33195-0.34422,0.88083-0.59375,1.9375-0.59375h30.219c1.5624,0,2.7506-0.40113,3.5625-1.1562,0.81193-0.75512,1.1992-1.7265,1.4375-2.6562v-0.0312c0.88823-3.9278,1.3438-8.0243,1.3438-12.219,0-4.5448-0.5558-8.9603-1.5938-13.188v-0.0312c-0.28069-1.0248-0.79533-1.8908-1.6562-2.3438-0.86092-0.4529-1.8238-0.5-3.0938-0.5h-30.188c-1.1854,0-1.7404-0.25693-2.0312-0.5625-0.29082-0.30557-0.5-0.86411-0.5-1.875v-30.281c0-1.2042-0.075-2.1794-0.53125-3.0312-0.45626-0.8518-1.3157-1.4302-2.3125-1.7188h-0.0312c-4.2243-1.037-8.6469-1.5938-13.188-1.5938zm0,2c4.3688,0,8.5956,0.53694,12.656,1.5312,0.01,0.002,0.0213-0.002,0.0312,0,0.65066,0.19311,0.87827,0.3748,1.0625,0.71875,0.18799,0.35095,0.3125,1.021,0.3125,2.0938v30.281c0,1.2601,0.23257,2.4421,1.0312,3.2812,0.79868,0.83918,2.0254,1.1562,3.5,1.1562h30.188c1.1841,0,1.8614,0.12615,2.1562,0.28125,0.28863,0.15184,0.45083,0.32779,0.65625,1.0625,0.002,0.01-0.002,0.0214,0,0.0312,0.99537,4.0639,1.5312,8.3149,1.5312,12.688,0,4.0456-0.45673,7.997-1.3125,11.781-0.19744,0.75242-0.43598,1.3061-0.8125,1.6562-0.38507,0.35813-0.9832,0.625-2.2188,0.625h-30.219c-1.3973,0-2.577,0.39122-3.375,1.2188-0.79805,0.82753-1.125,1.9712-1.125,3.2188v30.281c0,1.0762-0.22344,1.7542-0.5,2.1562-0.27656,0.40206-0.6282,0.58947-1.0938,0.71875-3.9953,0.95854-8.1775,1.4688-12.469,1.4688-4.3337,0-8.531-0.4904-12.562-1.4688-0.01708-0.006-0.01461-0.0249-0.03125-0.0312-0.46404-0.17688-0.76585-0.35361-1-0.6875-0.24254-0.34586-0.46875-0.96243-0.46875-2.1562v-30.25c0-1.4376-0.31279-2.6095-1.125-3.4062-0.81221-0.79672-1.9557-1.0625-3.1875-1.0625h-30.406c-1.1407,0-1.7742-0.17289-2.125-0.40625-0.35077-0.23336-0.57663-0.54687-0.78125-1.3438-0.93719-3.949-1.4375-8.0745-1.4375-12.312,0-4.3769,0.50309-8.6195,1.5-12.688h0.03125c0.26016-0.73525,0.46136-0.9569,0.8125-1.125s0.99862-0.25,2-0.25h30.438c1.5352,0,2.7233-0.39246,3.4375-1.2812,0.71418-0.88879,0.84375-2.0174,0.84375-3.1562v-30.281c0-1.0268,0.16324-1.6436,0.40625-2.0312,0.23574-0.37601,0.57654-0.60734,1.1562-0.8125,0.01788-0.006,0.01286-0.025,0.03125-0.0312,3.9962-0.96085,8.1761-1.4688,12.469-1.4688z"/>
<path id="circle11" style="baseline-shift:baseline;block-progression:tb;color:#000000;direction:ltr;text-indent:0;text-align:start;enable-background:accumulate;text-transform:none;" fill="#f4f4f4" d="m87.469,179.38c-8.2166,0-14.906,6.6896-14.906,14.906,0,8.2166,6.6896,14.906,14.906,14.906,8.2166,0,14.906-6.6896,14.906-14.906,0-8.2166-6.6896-14.906-14.906-14.906zm0,2c7.1358,0,12.906,5.7705,12.906,12.906,0,7.1358-5.7705,12.906-12.906,12.906-7.1358,0-12.906-5.7705-12.906-12.906,0-7.1358,5.7705-12.906,12.906-12.906z"/>
<path id="path13" style="baseline-shift:baseline;block-progression:tb;color:#000000;direction:ltr;text-indent:0;text-align:start;enable-background:accumulate;text-transform:none;" fill="#f4f4f4" d="M55.531,58.25c-7.533,0-13.656,6.123-13.656,13.656v58.188c0,3.2649,0.67493,5.6466,1.8125,7.3438s2.751,2.6222,4.4062,3c3.2983,0.75286,6.6768-0.43549,8.4688-1.5312,0.0082-0.005,0.02306,0.005,0.03125,0,9.1398-5.1096,19.655-8.0312,30.875-8.0312,35.029,0,63.406,28.378,63.406,63.406,0,21.177-10.368,39.922-26.312,51.438l-0.0937,0.0625-0.0625,0.0937-1.875,2.0938-0.0625,0.0625c-1.8866,1.9187-3.0625,4.5695-3.0625,7.4688,0,5.8605,4.7645,10.625,10.625,10.625h8.25,347.81,1,29c26.482,0,47.969-21.486,47.969-47.969,0-9.5421-2.7865-18.433-7.5938-25.906-0.006-0.01,0.006-0.0218,0-0.0312-0.46207-0.77915-0.65625-0.98542-0.65625-3.0625v-117.25c0-7.5334-6.1248-13.656-13.656-13.656h-115.41c-4.4773,0-8.0664,1.7882-10.438,4.6562-2.3711,2.868-3.5625,6.7629-3.5625,11.031v9.1875c0,61.884-50.148,112-112.03,112-61.884,0-112.03-50.116-112.03-112v-9.1875c0-4.5273-0.82032-8.3951-2.875-11.219-2.06-2.818-5.37-4.463-9.82-4.463h-120.47zm0,2,120.47,0c3.9886,0,6.5347,1.3107,8.2188,3.625s2.4688,5.7818,2.4688,10.062v9.1875c0,62.964,51.067,114,114.03,114,62.964,0,114.03-51.036,114.03-114v-9.1875c0-3.8976,1.0844-7.3508,3.0938-9.7812,2.01-2.425,4.95-3.901,8.91-3.901h115.41c6.4505,0,11.656,5.2037,11.656,11.656v117.25c0,2.3016,0.45393,3.3063,0.9375,4.125h0.0312v0.0312c4.6157,7.1662,7.2812,15.682,7.2812,24.844,0,25.402-20.567,45.969-45.969,45.969h-28-1-348.81-8.25c-4.7795,0-8.625-3.8455-8.625-8.625,0-2.3896,0.96773-4.5293,2.5312-6.0938l0.0312-0.0312v-0.0312l1.75-2c0.0238-0.0172,0.0387-0.0453,0.0625-0.0625,16.405-11.882,27.094-31.201,27.094-53,0-36.109-29.297-65.406-65.406-65.406-11.576,0-22.472,3.0326-31.906,8.3125h-0.03125c-1.3153,0.809-4.4934,1.8846-7,1.3125-1.2533-0.28607-2.3376-0.91946-3.1875-2.1875-0.84993-1.268-1.4688-3.2222-1.4688-6.2188v-58.188c-0.006-6.448,5.198-11.652,11.65-11.652z"/>
<path id="circle15" style="baseline-shift:baseline;block-progression:tb;color:#000000;direction:ltr;text-indent:0;text-align:start;enable-background:accumulate;text-transform:none;" fill="#f4f4f4" d="m449.44,189.72c-16.603,0-30.094,13.491-30.094,30.094s13.491,30.094,30.094,30.094,30.062-13.491,30.062-30.094-13.46-30.094-30.062-30.094zm0,2c15.522,0,28.062,12.572,28.062,28.094s-12.541,28.094-28.062,28.094c-15.522,0-28.094-12.572-28.094-28.094s12.572-28.094,28.094-28.094z"/>
<path id="circle17" style="baseline-shift:baseline;block-progression:tb;color:#000000;direction:ltr;text-indent:0;text-align:start;enable-background:accumulate;text-transform:none;" fill="#f4f4f4" d="m449.44,194.31c-14.069,0-25.5,11.431-25.5,25.5s11.431,25.5,25.5,25.5,25.5-11.431,25.5-25.5-11.431-25.5-25.5-25.5zm0,2c12.988,0,23.5,10.512,23.5,23.5s-10.512,23.5-23.5,23.5-23.5-10.512-23.5-23.5,10.512-23.5,23.5-23.5z"/>
<path id="path19" style="baseline-shift:baseline;block-progression:tb;color:#000000;direction:ltr;text-indent:0;text-align:start;enable-background:accumulate;text-transform:none;" fill="#f4f4f4" d="m449.44,181.94c-20.908,0-37.875,16.967-37.875,37.875,0,20.909,16.967,37.875,37.875,37.875h70.094c20.908,0,37.875-16.966,37.875-37.875,0-20.908-16.967-37.875-37.875-37.875h-70.094zm0,2,70.094,0c19.828,0,35.875,16.047,35.875,35.875,0,19.829-16.047,35.875-35.875,35.875h-70.094c-19.828,0-35.875-16.046-35.875-35.875,0-19.828,16.047-35.875,35.875-35.875z"/>
<path id="circle21" style="baseline-shift:baseline;block-progression:tb;color:#000000;direction:ltr;text-indent:0;text-align:start;enable-background:accumulate;text-transform:none;" fill="#f4f4f4" d="m519.53,189.72c-16.603,0-30.094,13.491-30.094,30.094s13.491,30.094,30.094,30.094,30.062-13.491,30.062-30.094-13.46-30.094-30.062-30.094zm0,2c15.522,0,28.062,12.572,28.062,28.094s-12.541,28.094-28.062,28.094c-15.522,0-28.094-12.572-28.094-28.094s12.572-28.094,28.094-28.094z"/>
<path id="circle23" style="baseline-shift:baseline;block-progression:tb;color:#000000;direction:ltr;text-indent:0;text-align:start;enable-background:accumulate;text-transform:none;" fill="#f4f4f4" d="m519.53,194.31c-14.069,0-25.5,11.431-25.5,25.5s11.431,25.5,25.5,25.5,25.5-11.431,25.5-25.5-11.431-25.5-25.5-25.5zm0,2c12.988,0,23.5,10.512,23.5,23.5s-10.512,23.5-23.5,23.5-23.5-10.512-23.5-23.5,10.512-23.5,23.5-23.5z"/>
<path id="path25" style="baseline-shift:baseline;block-progression:tb;color:#000000;direction:ltr;text-indent:0;text-align:start;enable-background:accumulate;text-transform:none;" fill="#f4f4f4" d="m448.22,133.22-0.625,0.46875-13.406,10.281-0.375,0.3125,0,0.46875,0,26.062c0,1.756,1.4315,3.2188,3.1875,3.2188h22.406c1.7555,0,3.1875-1.4622,3.1875-3.2188v-26.062-0.46875l-0.375-0.3125-13.406-10.281-0.59375-0.46875zm-0.0312,2.5312,12.406,9.5,0,25.562c0,0.67543-0.51297,1.2188-1.1875,1.2188h-22.406c-0.67598,0-1.1875-0.54277-1.1875-1.2188v-25.562l12.375-9.5z"/>
<path id="path27" style="baseline-shift:baseline;block-progression:tb;color:#000000;direction:ltr;text-indent:0;text-align:start;enable-background:accumulate;text-transform:none;" fill="#f4f4f4" d="m519.41,133.22-0.625,0.46875-13.375,10.281-0.40625,0.3125,0,0.46875,0,26.062c0,1.7566,1.4627,3.2188,3.2188,3.2188h22.375c1.756,0,3.1875-1.4622,3.1875-3.2188v-26.062-0.46875l-0.375-0.3125-13.4-10.28-0.59375-0.46875zm0,2.5312,12.375,9.5,0,25.562c0,0.67543-0.51152,1.2188-1.1875,1.2188h-22.375c-0.67598,0-1.2188-0.54332-1.2188-1.2188v-25.531l12.406-9.5312z"/>
<path id="path29" style="baseline-shift:baseline;block-progression:tb;color:#000000;direction:ltr;text-indent:0;text-align:start;enable-background:accumulate;text-transform:none;" fill="#f4f4f4" d="m251.91,210.12c-5.1516,0-9.3438,4.2244-9.3438,9.375,0,5.1525,4.1932,9.3438,9.3438,9.3438h26.062c5.1516,0,9.3438-4.1924,9.3438-9.3438,0-5.1513-4.1923-9.375-9.3438-9.375h-26.062zm0,2,26.062,0c4.0706,0,7.3438,3.3043,7.3438,7.375s-3.2733,7.3438-7.3438,7.3438h-26.062c-4.0694,0-7.3438-3.2722-7.3438-7.3438,0-4.0694,3.2733-7.375,7.3438-7.375z"/>
<path id="path31" style="baseline-shift:baseline;block-progression:tb;color:#000000;direction:ltr;text-indent:0;text-align:start;enable-background:accumulate;text-transform:none;" fill="#f4f4f4" d="m251.91,204.91c-8.0394,0-14.562,6.5543-14.562,14.594,0,8.0394,6.5231,14.562,14.562,14.562h26.062c8.0394,0,14.594-6.5231,14.594-14.562,0-8.0394-6.5543-14.594-14.594-14.594h-26.062zm0,2,26.062,0c6.9586,0,12.594,5.6352,12.594,12.594,0,6.9586-5.6352,12.562-12.594,12.562h-26.062c-6.9586,0-12.562-5.6039-12.562-12.562,0-6.9586,5.6039-12.594,12.562-12.594z"/>
<path id="path33" style="baseline-shift:baseline;block-progression:tb;color:#000000;direction:ltr;text-indent:0;text-align:start;enable-background:accumulate;text-transform:none;" fill="#f4f4f4" d="m324.03,210.12c-5.1507,0-9.3438,4.2244-9.3438,9.375,0,5.1525,4.1941,9.3438,9.3438,9.3438h26.062c5.1516,0,9.3438-4.1923,9.3438-9.3438,0-5.1516-4.1932-9.375-9.3438-9.375h-26.062zm0,2,26.062,0c4.0694,0,7.3438,3.3046,7.3438,7.375,0,4.0706-3.2733,7.3438-7.3438,7.3438h-26.062c-4.0683,0-7.3438-3.2722-7.3438-7.3438,0-4.0694,3.2745-7.375,7.3438-7.375z"/>
<path id="path35" style="baseline-shift:baseline;block-progression:tb;color:#000000;direction:ltr;text-indent:0;text-align:start;enable-background:accumulate;text-transform:none;" fill="#f4f4f4" d="m324.03,204.91c-8.0394,0-14.594,6.5544-14.594,14.594,0,8.0393,6.5543,14.562,14.594,14.562h26.062c8.0404,0,14.562-6.5232,14.562-14.562,0-8.0393-6.5221-14.594-14.562-14.594h-26.062zm0,2,26.062,0c6.9596,0,12.562,5.6351,12.562,12.594,0,6.9587-5.6029,12.562-12.562,12.562h-26.062c-6.9586,0-12.594-5.6038-12.594-12.562,0-6.9587,5.6352-12.594,12.594-12.594z"/>
<path id="path37" style="baseline-shift:baseline;block-progression:tb;color:#000000;direction:ltr;text-indent:0;text-align:start;enable-background:accumulate;text-transform:none;" fill="#f4f4f4" d="m87.469,114.56c-14.036,0-27.255,3.6499-38.719,10.031l-2.875,1.5938-0.875,0.5,0.46875,0.875,3.2188,5.75,0.5,0.875,0.875-0.46875,2.875-1.625c10.227-5.6901,21.984-8.9062,34.531-8.9062,19.653,0.00099,37.4,7.9368,50.281,20.812,12.876,12.88,20.843,30.626,20.844,50.281-0.002,22.67-10.613,42.84-27.125,55.875l-2.5938,2.0312-0.78125,0.625,0.625,0.78125,4.0938,5.1875,0.625,0.78125,0.78125-0.625,2.5938-2.0312c18.493-14.588,30.376-37.246,30.375-62.625-0.002-44.015-35.702-79.717-79.719-79.719zm0,2c42.936,0.002,77.717,34.784,77.719,77.719,0.00099,24.755-11.596,46.84-29.625,61.062l-1.8125,1.4062-2.8438-3.625,1.8125-1.4062c16.972-13.399,27.873-34.145,27.875-57.438-0.001-20.195-8.2032-38.449-21.438-51.688-13.24-13.234-31.495-21.405-51.688-21.406-12.892,0-24.985,3.3376-35.5,9.1875l-2,1.125-2.25-4.0312,2-1.125c11.175-6.2207,24.06-9.7812,37.75-9.7812z"/>
</svg>
