<?xml version="1.0" encoding="UTF-8" standalone="no"?>
<!-- Generator: Adobe Illustrator 13.0.0, SVG Export Plug-In . SVG Version: 6.00 Build 14948)  -->
<svg id="Layer_3" xmlns:rdf="http://www.w3.org/1999/02/22-rdf-syntax-ns#" xmlns="http://www.w3.org/2000/svg" xml:space="preserve" height="361.97px" viewBox="0 0 589.805 361.974" width="589.8px" version="1.2" y="0px" x="0px" xmlns:cc="http://creativecommons.org/ns#" xmlns:dc="http://purl.org/dc/elements/1.1/"><metadata id="metadata245"><rdf:RDF><cc:Work rdf:about=""><dc:format>image/svg+xml</dc:format><dc:type rdf:resource="http://purl.org/dc/dcmitype/StillImage"/><dc:title/></cc:Work></rdf:RDF></metadata>
<g id="g3" fill="#f4f4f4">
	<path id="polyline5" style="baseline-shift:baseline;block-progression:tb;color:#000000;direction:ltr;text-indent:0;text-align:start;enable-background:accumulate;text-transform:none;" d="m41.094,10.844,0,97.469-3.6875,0,0,2,4.6875,0,1,0,0-1,0-98.469-2,0z"/>
	<path id="rect7" style="baseline-shift:baseline;block-progression:tb;color:#000000;direction:ltr;text-indent:0;text-align:start;enable-background:accumulate;text-transform:none;" d="m0,9.8438,0,1,0,98.469,0,1,1,0,32.5,0,1,0,0-1,0-98.469,0-1-1,0-32.5,0-1,0zm2,2,30.5,0,0,96.469-30.5,0,0-96.469z"/>
	<path id="rect9" style="baseline-shift:baseline;block-progression:tb;color:#000000;direction:ltr;text-indent:0;text-align:start;enable-background:accumulate;text-transform:none;" d="m259.88,9.8438,0,1,0,98.469,0,1,1,0,327.94,0,1,0,0-1,0-98.469,0-1-1,0-327.94,0-1,0zm2,2,325.94,0,0,96.469-325.94,0,0-96.469z"/>
	<path id="polyline11" style="baseline-shift:baseline;block-progression:tb;color:#000000;direction:ltr;text-indent:0;text-align:start;enable-background:accumulate;text-transform:none;" d="m49.688,10.844,0,97.469-3.6875,0,0,2,4.6875,0,1,0,0-1,0-98.469-2,0z"/>
	<path id="polyline13" style="baseline-shift:baseline;block-progression:tb;color:#000000;direction:ltr;text-indent:0;text-align:start;enable-background:accumulate;text-transform:none;" d="m58.281,10.844,0,97.469-3.6875,0,0,2,4.6875,0,1,0,0-1,0-98.469-2,0z"/>
	<path id="polyline15" style="baseline-shift:baseline;block-progression:tb;color:#000000;direction:ltr;text-indent:0;text-align:start;enable-background:accumulate;text-transform:none;" d="m66.906,10.844,0,97.469-3.7188,0,0,2,4.7188,0,1,0,0-1,0-98.469-2,0z"/>
	<path id="polyline17" style="baseline-shift:baseline;block-progression:tb;color:#000000;direction:ltr;text-indent:0;text-align:start;enable-background:accumulate;text-transform:none;" d="m75.5,10.844,0,97.469-3.7188,0,0,2,4.7188,0,1,0,0-1,0-98.469-2,0z"/>
	<path id="polyline19" style="baseline-shift:baseline;block-progression:tb;color:#000000;direction:ltr;text-indent:0;text-align:start;enable-background:accumulate;text-transform:none;" d="m84.094,10.844,0,97.469-3.7188,0,0,2,4.7188,0,1,0,0-1,0-98.469-2,0z"/>
	<path id="polyline21" style="baseline-shift:baseline;block-progression:tb;color:#000000;direction:ltr;text-indent:0;text-align:start;enable-background:accumulate;text-transform:none;" d="m92.688,10.844,0,97.469-3.7188,0,0,2,4.7188,0,1,0,0-1,0-98.469-2,0z"/>
	<path id="polyline23" style="baseline-shift:baseline;block-progression:tb;color:#000000;direction:ltr;text-indent:0;text-align:start;enable-background:accumulate;text-transform:none;" d="m101.28,10.844,0,97.469-3.7188,0,0,2,4.7188,0,1,0,0-1,0-98.469-2,0z"/>
	<path id="polyline25" style="baseline-shift:baseline;block-progression:tb;color:#000000;direction:ltr;text-indent:0;text-align:start;enable-background:accumulate;text-transform:none;" d="m109.88,10.844,0,97.469-3.7188,0,0,2,4.7188,0,1,0,0-1,0-98.469-2,0z"/>
	<path id="polyline27" style="baseline-shift:baseline;block-progression:tb;color:#000000;direction:ltr;text-indent:0;text-align:start;enable-background:accumulate;text-transform:none;" d="m118.47,10.844,0,97.469-3.7188,0,0,2,4.7188,0,1,0,0-1,0-98.469-2,0z"/>
	<path id="polyline29" style="baseline-shift:baseline;block-progression:tb;color:#000000;direction:ltr;text-indent:0;text-align:start;enable-background:accumulate;text-transform:none;" d="m127.06,10.844,0,97.469-3.7188,0,0,2,4.7188,0,1,0,0-1,0-98.469-2,0z"/>
	<path id="polyline31" style="baseline-shift:baseline;block-progression:tb;color:#000000;direction:ltr;text-indent:0;text-align:start;enable-background:accumulate;text-transform:none;" d="m135.66,10.844,0,97.469-3.7188,0,0,2,4.7188,0,1,0,0-1,0-98.469-2,0z"/>
	<path id="polyline33" style="baseline-shift:baseline;block-progression:tb;color:#000000;direction:ltr;text-indent:0;text-align:start;enable-background:accumulate;text-transform:none;" d="m144.25,10.844,0,97.469-3.7188,0,0,2,4.7188,0,1,0,0-1,0-98.469-2,0z"/>
	<path id="polyline35" style="baseline-shift:baseline;block-progression:tb;color:#000000;direction:ltr;text-indent:0;text-align:start;enable-background:accumulate;text-transform:none;" d="m152.84,10.844,0,97.469-3.7188,0,0,2,4.7188,0,1,0,0-1,0-98.469-2,0z"/>
	<path id="polyline37" style="baseline-shift:baseline;block-progression:tb;color:#000000;direction:ltr;text-indent:0;text-align:start;enable-background:accumulate;text-transform:none;" d="m161.44,10.844,0,97.469-3.7188,0,0,2,4.7188,0,1,0,0-1,0-98.469-2,0z"/>
	<path id="polyline39" style="baseline-shift:baseline;block-progression:tb;color:#000000;direction:ltr;text-indent:0;text-align:start;enable-background:accumulate;text-transform:none;" d="m170.03,10.844,0,97.469-3.7188,0,0,2,4.7188,0,1,0,0-1,0-98.469-2,0z"/>
	<path id="polyline41" style="baseline-shift:baseline;block-progression:tb;color:#000000;direction:ltr;text-indent:0;text-align:start;enable-background:accumulate;text-transform:none;" d="m178.62,10.844,0,97.469-3.7188,0,0,2,4.7188,0,1,0,0-1,0-98.469-2,0z"/>
	<path id="polyline43" style="baseline-shift:baseline;block-progression:tb;color:#000000;direction:ltr;text-indent:0;text-align:start;enable-background:accumulate;text-transform:none;" d="m187.22,10.844,0,97.469-3.7188,0,0,2,4.7188,0,1,0,0-1,0-98.469-2,0z"/>
	<path id="polyline45" style="baseline-shift:baseline;block-progression:tb;color:#000000;direction:ltr;text-indent:0;text-align:start;enable-background:accumulate;text-transform:none;" d="m195.81,10.844,0,97.469-3.7188,0,0,2,4.7188,0,1,0,0-1,0-98.469-2,0z"/>
	<path id="polyline47" style="baseline-shift:baseline;block-progression:tb;color:#000000;direction:ltr;text-indent:0;text-align:start;enable-background:accumulate;text-transform:none;" d="m204.41,10.844,0,97.469-3.7188,0,0,2,4.7188,0,1,0,0-1,0-98.469-2,0z"/>
	<path id="polyline49" style="baseline-shift:baseline;block-progression:tb;color:#000000;direction:ltr;text-indent:0;text-align:start;enable-background:accumulate;text-transform:none;" d="m213,10.844,0,97.469-3.7188,0,0,2,4.7188,0,1,0,0-1,0-98.469-2,0z"/>
	<path id="polyline51" style="baseline-shift:baseline;block-progression:tb;color:#000000;direction:ltr;text-indent:0;text-align:start;enable-background:accumulate;text-transform:none;" d="m221.59,10.844,0,97.469-3.7188,0,0,2,4.7188,0,1,0,0-1,0-98.469-2,0z"/>
	<path id="polyline53" style="baseline-shift:baseline;block-progression:tb;color:#000000;direction:ltr;text-indent:0;text-align:start;enable-background:accumulate;text-transform:none;" d="m230.19,10.844,0,97.469-3.7188,0,0,2,4.7188,0,1,0,0-1,0-98.469-2,0z"/>
	<path id="polyline55" style="baseline-shift:baseline;block-progression:tb;color:#000000;direction:ltr;text-indent:0;text-align:start;enable-background:accumulate;text-transform:none;" d="m238.78,10.844,0,97.469-3.7188,0,0,2,4.7188,0,1,0,0-1,0-98.469-2,0z"/>
	<path id="polyline57" style="baseline-shift:baseline;block-progression:tb;color:#000000;direction:ltr;text-indent:0;text-align:start;enable-background:accumulate;text-transform:none;" d="m247.38,10.844,0,97.469-3.7188,0,0,2,4.7188,0,1,0,0-1,0-98.469-2,0z"/>
	<path id="polyline59" style="baseline-shift:baseline;block-progression:tb;color:#000000;direction:ltr;text-indent:0;text-align:start;enable-background:accumulate;text-transform:none;" d="m255.97,10.844,0,97.469-3.7188,0,0,2,4.7188,0,1,0,0-1,0-98.469-2,0z"/>
	<path id="path61" style="baseline-shift:baseline;block-progression:tb;color:#000000;direction:ltr;text-indent:0;text-align:start;enable-background:accumulate;text-transform:none;" d="m344.88,21.781c-1.061,0-1.9375,0.87647-1.9375,1.9375v38.5c0,1.0597,0.87651,1.9375,1.9375,1.9375h230.44c1.061,0,1.9375-0.87776,1.9375-1.9375v-38.5c0-1.0597-0.87651-1.9375-1.9375-1.9375h-230.44zm0.0625,2,230.31,0,0,38.375-230.31,0,0-38.375z"/>
	<path id="path63" style="baseline-shift:baseline;block-progression:tb;color:#000000;direction:ltr;text-indent:0;text-align:start;enable-background:accumulate;text-transform:none;" d="m351.66,27.375c-1.3222,0-2.4375,1.0861-2.4375,2.4062v26.375c0,1.3202,1.1153,2.4062,2.4375,2.4062h173.53c0.93672,0,1.6012-0.61669,2-1.4062h0.40625v-1-26.375c0-1.3202-1.0841-2.4062-2.4062-2.4062h-173.53zm0,2,173.53,0c0.23981,0,0.40625,0.16642,0.40625,0.40625v25.375,1c0,0.23983-0.16644,0.40625-0.40625,0.40625h-173.53c-0.23981,0-0.4375-0.16642-0.4375-0.40625v-26.375c0-0.23983,0.19769-0.40625,0.4375-0.40625z"/>
	<path id="path65" style="baseline-shift:baseline;block-progression:tb;color:#000000;direction:ltr;text-indent:0;text-align:start;enable-background:accumulate;text-transform:none;" d="m354.31,30.656c-0.80103,0-1.4688,0.66516-1.4688,1.4688v21.688c0,0.80359,0.66772,1.4688,1.4688,1.4688h168.53c0.80103,0,1.4688-0.66772,1.4688-1.4688v-21.688c0-0.80103-0.66772-1.4688-1.4688-1.4688h-168.53zm0.53125,2,167.47,0,0,20.625-167.47,0,0-20.625z"/>
	<path id="circle67" style="baseline-shift:baseline;block-progression:tb;color:#000000;direction:ltr;text-indent:0;text-align:start;enable-background:accumulate;text-transform:none;" d="m554.09,29.25c-7.5666,0-13.719,6.1521-13.719,13.719,0,7.5666,6.1521,13.719,13.719,13.719,7.5666,0,13.719-6.1521,13.719-13.719,0-7.5666-6.1521-13.719-13.719-13.719zm0,2c6.4857,0,11.719,5.233,11.719,11.719,0,6.4857-5.233,11.719-11.719,11.719-6.4857,0-11.719-5.233-11.719-11.719,0-6.4857,5.233-11.719,11.719-11.719z"/>
</g>
<path id="path69" style="baseline-shift:baseline;block-progression:tb;color:#000000;direction:ltr;text-indent:0;text-align:start;enable-background:accumulate;text-transform:none;" fill="#f4f4f4" d="m6.0938,114.03c-1.0597,0-1.9688,0.87651-1.9688,1.9375v244.06c0,1.0611,0.90644,1.9375,1.9688,1.9375h577.62c1.061,0,1.9375-0.87776,1.9375-1.9375v-244.06c0-1.0597-0.87779-1.9375-1.9375-1.9375h-577.62zm0.03125,2,577.53,0,0,243.94-577.53,0,0-243.94z"/>
<path id="path71" style="baseline-shift:baseline;block-progression:tb;color:#000000;direction:ltr;text-indent:0;text-align:start;enable-background:accumulate;text-transform:none;" fill="#f4f4f4" d="M6.0938,0c-1.0611,0-1.9688,0.87647-1.9688,1.9375v9.0312h2v-8.9688h577.53v8.7188h2v-8.7812c0-1.06-0.88-1.9378-1.94-1.9378h-577.63z"/>
<path id="path73" style="baseline-shift:baseline;block-progression:tb;color:#000000;direction:ltr;text-indent:0;text-align:start;enable-background:accumulate;text-transform:none;" fill="#f4f4f4" d="m33.094,175.81c-2.1011,0-3.8438,1.7414-3.8438,3.8438v18.719c0,2.1017,1.741,3.8438,3.8438,3.8438h18.719c2.1017,0,3.8125-1.7414,3.8125-3.8438v-1-17.719c0-2.1012-1.711-3.8438-3.8125-3.8438h-18.719zm0,2,18.719,0c1.0225,0,1.8125,0.823,1.8125,1.8438v18.719c0,1.0217-0.79218,1.8438-1.8125,1.8438h-18.719c-1.0212,0-1.8438-0.82343-1.8438-1.8438v-18.719c0-1.0217,0.8208-1.8438,1.8438-1.8438z"/>
<path id="path75" style="baseline-shift:baseline;block-progression:tb;color:#000000;direction:ltr;text-indent:0;text-align:start;enable-background:accumulate;text-transform:none;" fill="#f4f4f4" d="m61.031,175.81c-2.1011,0-3.8438,1.7414-3.8438,3.8438v18.719c0,2.1017,1.741,3.8438,3.8438,3.8438h18.719c2.1023,0,3.8438-1.7414,3.8438-3.8438v-18.719c0-2.1017-1.7423-3.8438-3.8438-3.8438h-18.719zm0,2,18.719,0c1.0225,0,1.8438,0.82343,1.8438,1.8438v18.719c0,1.0217-0.82208,1.8438-1.8438,1.8438h-18.719c-1.0212,0-1.8438-0.82343-1.8438-1.8438v-18.719c0-1.0217,0.8208-1.8438,1.8438-1.8438z"/>
<path id="path77" style="baseline-shift:baseline;block-progression:tb;color:#000000;direction:ltr;text-indent:0;text-align:start;enable-background:accumulate;text-transform:none;" fill="#f4f4f4" d="m88.969,175.81c-2.1004,0-3.8438,1.7414-3.8438,3.8438v18.719c0,2.1012,1.741,3.8438,3.8438,3.8438h18.719c2.1017,0,3.8438-1.7414,3.8438-3.8438v-18.719c0-2.1012-1.7423-3.8438-3.8438-3.8438h-18.719zm0,2,18.719,0c1.0225,0,1.8438,0.823,1.8438,1.8438v18.719c0,1.0217-0.82343,1.8438-1.8438,1.8438h-18.719c-1.0212,0-1.8438-0.823-1.8438-1.8438v-18.719c0-1.0217,0.82215-1.8438,1.8438-1.8438z"/>
<path id="path79" style="baseline-shift:baseline;block-progression:tb;color:#000000;direction:ltr;text-indent:0;text-align:start;enable-background:accumulate;text-transform:none;" fill="#f4f4f4" d="m116.91,175.81c-2.101,0-3.8125,1.7414-3.8125,3.8438v18.719c0,2.1017,1.7097,3.8438,3.8125,3.8438h18.719c2.1023,0,3.8438-1.7414,3.8438-3.8438v-18.719c0-2.1017-1.7423-3.8438-3.8438-3.8438h-18.719zm0,2,18.719,0c1.0225,0,1.8438,0.82343,1.8438,1.8438v18.719c0,1.0217-0.82208,1.8438-1.8438,1.8438h-18.719c-1.0212,0-1.8125-0.82343-1.8125-1.8438v-18.719c0-1.0217,0.78955-1.8438,1.8125-1.8438z"/>
<path id="path81" style="baseline-shift:baseline;block-progression:tb;color:#000000;direction:ltr;text-indent:0;text-align:start;enable-background:accumulate;text-transform:none;" fill="#f4f4f4" d="m144.84,175.81c-2.1004,0-3.8125,1.7414-3.8125,3.8438v18.719c0,2.1012,1.7097,3.8438,3.8125,3.8438h18.75c2.1017,0,3.8125-1.7414,3.8125-3.8438v-18.719c0-2.1012-1.711-3.8438-3.8125-3.8438h-18.75zm0,2,18.75,0c1.0225,0,1.8125,0.823,1.8125,1.8438v18.719c0,1.0217-0.79218,1.8438-1.8125,1.8438h-18.75c-1.0212,0-1.8125-0.823-1.8125-1.8438v-18.719c0-1.0217,0.7909-1.8438,1.8125-1.8438z"/>
<path id="path83" style="baseline-shift:baseline;block-progression:tb;color:#000000;direction:ltr;text-indent:0;text-align:start;enable-background:accumulate;text-transform:none;" fill="#f4f4f4" d="m172.78,175.81c-2.101,0-3.8125,1.7414-3.8125,3.8438v18.719c0,2.1017,1.7097,3.8438,3.8125,3.8438h18.75c2.1023,0,3.8125-1.7414,3.8125-3.8438v-18.719c0-2.1017-1.711-3.8438-3.8125-3.8438h-18.75zm0,2,18.75,0c1.0225,0,1.8125,0.82343,1.8125,1.8438v18.719c0,1.0217-0.79083,1.8438-1.8125,1.8438h-18.75c-1.0212,0-1.8125-0.82343-1.8125-1.8438v-18.719c0-1.0217,0.78955-1.8438,1.8125-1.8438z"/>
<path id="path85" style="baseline-shift:baseline;block-progression:tb;color:#000000;direction:ltr;text-indent:0;text-align:start;enable-background:accumulate;text-transform:none;" fill="#f4f4f4" d="m200.75,175.81c-2.0997,0-3.8438,1.7414-3.8438,3.8438v18.719c0,2.1017,1.7423,3.8438,3.8438,3.8438h18.719c2.101,0,3.8125-1.7414,3.8125-3.8438v-18.719c0-2.1017-1.7123-3.8438-3.8125-3.8438h-18.719zm0,2,18.719,0c1.0198,0,1.8125,0.82343,1.8125,1.8438v18.719c0,1.0217-0.79353,1.8438-1.8125,1.8438h-18.719c-1.0186,0-1.8438-0.82343-1.8438-1.8438v-18.719c0-1.0217,0.82349-1.8438,1.8438-1.8438z"/>
<path id="path87" style="baseline-shift:baseline;block-progression:tb;color:#000000;direction:ltr;text-indent:0;text-align:start;enable-background:accumulate;text-transform:none;" fill="#f4f4f4" d="m228.69,175.81c-2.0997,0-3.8438,1.7414-3.8438,3.8438v18.719c0,2.1017,1.7423,3.8438,3.8438,3.8438h18.719c2.101,0,3.8438-1.7414,3.8438-3.8438v-18.719c0-2.1017-1.7436-3.8438-3.8438-3.8438h-18.719zm0,2,18.719,0c1.0198,0,1.8438,0.82343,1.8438,1.8438v18.719c0,1.0217-0.82478,1.8438-1.8438,1.8438h-18.719c-1.0186,0-1.8438-0.82343-1.8438-1.8438v-18.719c0-1.0217,0.82349-1.8438,1.8438-1.8438z"/>
<path id="path89" style="baseline-shift:baseline;block-progression:tb;color:#000000;direction:ltr;text-indent:0;text-align:start;enable-background:accumulate;text-transform:none;" fill="#f4f4f4" d="m256.62,175.81c-2.1004,0-3.8125,1.7414-3.8125,3.8438v18.719c0,2.1012,1.7097,3.8438,3.8125,3.8438h18.719c2.1023,0,3.8438-1.7414,3.8438-3.8438v-18.719c0-2.1017-1.7423-3.8438-3.8438-3.8438h-18.719zm0,2,18.719,0c1.0225,0,1.8438,0.82343,1.8438,1.8438v18.719c0,1.0217-0.82208,1.8438-1.8438,1.8438h-18.719c-1.0212,0-1.8125-0.823-1.8125-1.8438v-18.719c0-1.0217,0.7909-1.8438,1.8125-1.8438z"/>
<path id="path91" style="baseline-shift:baseline;block-progression:tb;color:#000000;direction:ltr;text-indent:0;text-align:start;enable-background:accumulate;text-transform:none;" fill="#f4f4f4" d="m284.56,175.81c-2.1004,0-3.8125,1.7414-3.8125,3.8438v18.719c0,2.1012,1.7097,3.8438,3.8125,3.8438h18.719c2.1017,0,3.8438-1.7414,3.8438-3.8438v-18.719c0-2.1012-1.7423-3.8438-3.8438-3.8438h-18.719zm0,2,18.719,0c1.0225,0,1.8438,0.823,1.8438,1.8438v18.719c0,1.0217-0.82343,1.8438-1.8438,1.8438h-18.719c-1.0212,0-1.8125-0.823-1.8125-1.8438v-18.719c0-1.0217,0.7909-1.8438,1.8125-1.8438z"/>
<path id="path93" style="baseline-shift:baseline;block-progression:tb;color:#000000;direction:ltr;text-indent:0;text-align:start;enable-background:accumulate;text-transform:none;" fill="#f4f4f4" d="m477.16,135.62c-2.1017,0-3.8438,1.7117-3.8438,3.8125v18.75c0,2.1004,1.7423,3.8125,3.8438,3.8125h18.719c2.0991,0,3.8438-1.7097,3.8438-3.8125v-18.75c0-2.1017-1.7427-3.8125-3.8438-3.8125h-18.719zm0,2,18.719,0c1.019,0,1.8438,0.79218,1.8438,1.8125v18.75c0,1.0212-0.82484,1.8125-1.8438,1.8125h-18.719c-1.0225,0-1.8438-0.7909-1.8438-1.8125v-18.75c0-1.0212,0.82343-1.8125,1.8438-1.8125z"/>
<path id="path95" style="baseline-shift:baseline;block-progression:tb;color:#000000;direction:ltr;text-indent:0;text-align:start;enable-background:accumulate;text-transform:none;" fill="#f4f4f4" d="m505.09,135.62c-2.101,0-3.8125,1.7104-3.8125,3.8125v18.75c0,2.1017,1.7117,3.8125,3.8125,3.8125h18.719c2.101,0,3.8438-1.7106,3.8438-3.8125v-18.75c0-2.1008-1.7408-3.8125-3.8438-3.8125h-18.719zm0,2,18.719,0c1.023,0,1.8438,0.79132,1.8438,1.8125v18.75c0,1.0221-0.8208,1.8125-1.8438,1.8125h-18.719c-1.0212,0-1.8125-0.79218-1.8125-1.8125v-18.75c0-1.0199,0.79353-1.8125,1.8125-1.8125z"/>
<path id="path97" style="baseline-shift:baseline;block-progression:tb;color:#000000;direction:ltr;text-indent:0;text-align:start;enable-background:accumulate;text-transform:none;" fill="#f4f4f4" d="m533.03,135.62c-2.1004,0-3.8125,1.7108-3.8125,3.8125v18.75c0,2.1012,1.7123,3.8125,3.8125,3.8125h18.75c2.0991,0,3.8125-1.7093,3.8125-3.8125v-18.75c0-2.1021-1.7115-3.8125-3.8125-3.8125h-18.75zm0,2,18.75,0c1.019,0,1.8125,0.79261,1.8125,1.8125v18.75c0,1.0208-0.79359,1.8125-1.8125,1.8125h-18.75c-1.0198,0-1.8125-0.79175-1.8125-1.8125v-18.75c0-1.0203,0.79487-1.8125,1.8125-1.8125z"/>
<path id="path99" style="baseline-shift:baseline;block-progression:tb;color:#000000;direction:ltr;text-indent:0;text-align:start;enable-background:accumulate;text-transform:none;" fill="#f4f4f4" d="m312.5,175.81c-2.1004,0-3.8125,1.741-3.8125,3.8438v18.719c0,2.1017,1.7097,3.8438,3.8125,3.8438h18.75c2.101,0,3.8125-1.741,3.8125-3.8438v-18.719c0-2.1017-1.7117-3.8438-3.8125-3.8438h-18.75zm0,2,18.75,0c1.0212,0,1.8125,0.82343,1.8125,1.8438v18.719c0,1.0212-0.79353,1.8438-1.8125,1.8438h-18.75c-1.0212,0-1.8125-0.82343-1.8125-1.8438v-18.719c0-1.0212,0.7909-1.8438,1.8125-1.8438z"/>
<path id="path101" style="baseline-shift:baseline;block-progression:tb;color:#000000;direction:ltr;text-indent:0;text-align:start;enable-background:accumulate;text-transform:none;" fill="#f4f4f4" d="m340.44,175.81c-2.1004,0-3.8125,1.7414-3.8125,3.8438v18.719c0,2.1012,1.7097,3.8438,3.8125,3.8438h18.75c2.1017,0,3.8125-1.7414,3.8125-3.8438v-18.719c0-2.1012-1.711-3.8438-3.8125-3.8438h-18.75zm0,2,18.75,0c1.0225,0,1.8125,0.823,1.8125,1.8438v18.719c0,1.0217-0.79218,1.8438-1.8125,1.8438h-18.75c-1.0212,0-1.8125-0.823-1.8125-1.8438v-18.719c0-1.0217,0.7909-1.8438,1.8125-1.8438z"/>
<path id="path103" style="baseline-shift:baseline;block-progression:tb;color:#000000;direction:ltr;text-indent:0;text-align:start;enable-background:accumulate;text-transform:none;" fill="#f4f4f4" d="m368.41,175.81c-2.1004,0-3.8438,1.741-3.8438,3.8438v18.719c0,2.1017,1.741,3.8438,3.8438,3.8438h18.719c2.1017,0,3.8125-1.7414,3.8125-3.8438v-18.719c0-2.1012-1.711-3.8438-3.8125-3.8438h-18.719zm0,2,18.719,0c1.0225,0,1.8125,0.823,1.8125,1.8438v18.719c0,1.0217-0.79218,1.8438-1.8125,1.8438h-18.719c-1.0212,0-1.8438-0.82343-1.8438-1.8438v-18.719c0-1.0212,0.82215-1.8438,1.8438-1.8438z"/>
<path id="path105" style="baseline-shift:baseline;block-progression:tb;color:#000000;direction:ltr;text-indent:0;text-align:start;enable-background:accumulate;text-transform:none;" fill="#f4f4f4" d="m396.34,175.81c-2.1004,0-3.8438,1.7414-3.8438,3.8438v18.719c0,2.1012,1.741,3.8438,3.8438,3.8438h18.719c2.1017,0,3.8438-1.7414,3.8438-3.8438v-18.719c0-2.1012-1.7423-3.8438-3.8438-3.8438h-18.719zm0,2,18.719,0c1.0225,0,1.8438,0.823,1.8438,1.8438v18.719c0,1.0217-0.82343,1.8438-1.8438,1.8438h-18.719c-1.0212,0-1.8438-0.823-1.8438-1.8438v-18.719c0-1.0217,0.82215-1.8438,1.8438-1.8438z"/>
<path id="path107" style="baseline-shift:baseline;block-progression:tb;color:#000000;direction:ltr;text-indent:0;text-align:start;enable-background:accumulate;text-transform:none;" fill="#f4f4f4" d="m424.28,175.81c-2.1004,0-3.8125,1.741-3.8125,3.8438v18.719c0,2.1017,1.7097,3.8438,3.8125,3.8438h18.719c2.101,0,3.8438-1.741,3.8438-3.8438v-18.719c0-2.1017-1.7429-3.8438-3.8438-3.8438h-18.719zm0,2,18.719,0c1.0212,0,1.8438,0.82343,1.8438,1.8438v18.719c0,1.0212-0.82478,1.8438-1.8438,1.8438h-18.719c-1.0212,0-1.8125-0.82343-1.8125-1.8438v-18.719c0-1.0212,0.7909-1.8438,1.8125-1.8438z"/>
<path id="path109" style="baseline-shift:baseline;block-progression:tb;color:#000000;direction:ltr;text-indent:0;text-align:start;enable-background:accumulate;text-transform:none;" fill="#f4f4f4" d="m47.375,231.75c-2.1017,0-3.8438,1.7119-3.8438,3.8125v18.719c0,2.1021,1.7423,3.8438,3.8438,3.8438h24.844c2.1008,0,3.8438-1.7408,3.8438-3.8438v-1-17.719c0-2.1-1.741-3.8125-3.8438-3.8125h-24.844zm0,2,24.844,0c1.0212,0,1.8438,0.79445,1.8438,1.8125v18.719c0,1.023-0.82258,1.8438-1.8438,1.8438h-24.844c-1.0225,0-1.8438-0.81988-1.8438-1.8438v-18.719c0-1.0194,0.82343-1.8125,1.8438-1.8125z"/>
<path id="path111" style="baseline-shift:baseline;block-progression:tb;color:#000000;direction:ltr;text-indent:0;text-align:start;enable-background:accumulate;text-transform:none;" fill="#f4f4f4" d="m81.438,231.75c-2.1015,0-3.8125,1.7102-3.8125,3.8125v18.719c0,2.1017,1.7102,3.8438,3.8125,3.8438h18.719c2.1019,0,3.8438-1.7414,3.8438-3.8438v-18.719c0-2.1017-1.7418-3.8125-3.8438-3.8125h-18.719zm0,2,18.719,0c1.0221,0,1.8438,0.79218,1.8438,1.8125v18.719c0,1.0217-0.82166,1.8438-1.8438,1.8438h-18.719c-1.0217,0-1.8125-0.82343-1.8125-1.8438v-18.719c0-1.0217,0.78998-1.8125,1.8125-1.8125z"/>
<path id="path113" style="baseline-shift:baseline;block-progression:tb;color:#000000;direction:ltr;text-indent:0;text-align:start;enable-background:accumulate;text-transform:none;" fill="#f4f4f4" d="m109.38,231.75c-2.1008,0-3.8125,1.7102-3.8125,3.8125v18.719c0,2.1012,1.7102,3.8438,3.8125,3.8438h18.75c2.1012,0,3.8125-1.7414,3.8125-3.8438v-18.719c0-2.1012-1.7106-3.8125-3.8125-3.8125h-18.75zm0,2,18.75,0c1.0221,0,1.8125,0.79175,1.8125,1.8125v18.719c0,1.0217-0.79175,1.8438-1.8125,1.8438h-18.75c-1.0217,0-1.8125-0.823-1.8125-1.8438v-18.719c0-1.0217,0.79132-1.8125,1.8125-1.8125z"/>
<path id="path115" style="baseline-shift:baseline;block-progression:tb;color:#000000;direction:ltr;text-indent:0;text-align:start;enable-background:accumulate;text-transform:none;" fill="#f4f4f4" d="m137.31,231.75c-2.1015,0-3.8125,1.7102-3.8125,3.8125v18.719c0,2.1017,1.7102,3.8438,3.8125,3.8438h18.75c2.1019,0,3.8125-1.7414,3.8125-3.8438v-18.719c0-2.1017-1.7106-3.8125-3.8125-3.8125h-18.75zm0,2,18.75,0c1.0221,0,1.8125,0.79218,1.8125,1.8125v18.719c0,1.0217-0.79041,1.8438-1.8125,1.8438h-18.75c-1.0217,0-1.8125-0.82343-1.8125-1.8438v-18.719c0-1.0217,0.78998-1.8125,1.8125-1.8125z"/>
<path id="path117" style="baseline-shift:baseline;block-progression:tb;color:#000000;direction:ltr;text-indent:0;text-align:start;enable-background:accumulate;text-transform:none;" fill="#f4f4f4" d="m165.28,231.75c-2.1008,0-3.8438,1.7102-3.8438,3.8125v18.719c0,2.1012,1.7414,3.8438,3.8438,3.8438h18.719c2.1012,0,3.8125-1.7414,3.8125-3.8438v-18.719c0-2.1012-1.7106-3.8125-3.8125-3.8125h-18.719zm0,2,18.719,0c1.0221,0,1.8125,0.79175,1.8125,1.8125v18.719c0,1.0217-0.79175,1.8438-1.8125,1.8438h-18.719c-1.0217,0-1.8438-0.823-1.8438-1.8438v-18.719c0-1.0217,0.82257-1.8125,1.8438-1.8125z"/>
<path id="path119" style="baseline-shift:baseline;block-progression:tb;color:#000000;direction:ltr;text-indent:0;text-align:start;enable-background:accumulate;text-transform:none;" fill="#f4f4f4" d="m193.22,231.75c-2.1015,0-3.8438,1.7102-3.8438,3.8125v18.719c0,2.1017,1.7414,3.8438,3.8438,3.8438h18.719c2.1019,0,3.8438-1.7414,3.8438-3.8438v-18.719c0-2.1017-1.7418-3.8125-3.8438-3.8125h-18.719zm0,2,18.719,0c1.0221,0,1.8438,0.79218,1.8438,1.8125v18.719c0,1.0217-0.82166,1.8438-1.8438,1.8438h-18.719c-1.0217,0-1.8438-0.82343-1.8438-1.8438v-18.719c0-1.0217,0.82123-1.8125,1.8438-1.8125z"/>
<path id="path121" style="baseline-shift:baseline;block-progression:tb;color:#000000;direction:ltr;text-indent:0;text-align:start;enable-background:accumulate;text-transform:none;" fill="#f4f4f4" d="m221.16,231.75c-2.1002,0-3.8438,1.7097-3.8438,3.8125v18.719c0,2.1021,1.7427,3.8438,3.8438,3.8438h18.719c2.1019,0,3.8438-1.7414,3.8438-3.8438v-18.719c0-2.1017-1.7418-3.8125-3.8438-3.8125h-18.719zm0,2,18.719,0c1.0221,0,1.8438,0.79218,1.8438,1.8125v18.719c0,1.0217-0.82166,1.8438-1.8438,1.8438h-18.719c-1.019,0-1.8438-0.82386-1.8438-1.8438v-18.719c0-1.0212,0.82392-1.8125,1.8438-1.8125z"/>
<path id="path123" style="baseline-shift:baseline;block-progression:tb;color:#000000;direction:ltr;text-indent:0;text-align:start;enable-background:accumulate;text-transform:none;" fill="#f4f4f4" d="m249.09,231.75c-2.1002,0-3.8125,1.7102-3.8125,3.8125v18.719c0,2.1017,1.7115,3.8438,3.8125,3.8438h18.719c2.1006,0,3.8438-1.7414,3.8438-3.8438v-18.719c0-2.1017-1.7432-3.8125-3.8438-3.8125h-18.719zm0,2,18.719,0c1.0194,0,1.8438,0.79218,1.8438,1.8125v18.719c0,1.0217-0.82435,1.8438-1.8438,1.8438h-18.719c-1.019,0-1.8125-0.82343-1.8125-1.8438v-18.719c0-1.0217,0.79267-1.8125,1.8125-1.8125z"/>
<path id="path125" style="baseline-shift:baseline;block-progression:tb;color:#000000;direction:ltr;text-indent:0;text-align:start;enable-background:accumulate;text-transform:none;" fill="#f4f4f4" d="m277.03,231.75c-2.1008,0-3.8125,1.7102-3.8125,3.8125v18.719c0,2.1012,1.7102,3.8438,3.8125,3.8438h18.75c2.1012,0,3.8125-1.7414,3.8125-3.8438v-18.719c0-2.1012-1.7106-3.8125-3.8125-3.8125h-18.75zm0,2,18.75,0c1.0221,0,1.8125,0.79175,1.8125,1.8125v18.719c0,1.0217-0.79175,1.8438-1.8125,1.8438h-18.75c-1.0217,0-1.8125-0.823-1.8125-1.8438v-18.719c0-1.0217,0.79132-1.8125,1.8125-1.8125z"/>
<path id="path127" style="baseline-shift:baseline;block-progression:tb;color:#000000;direction:ltr;text-indent:0;text-align:start;enable-background:accumulate;text-transform:none;" fill="#f4f4f4" d="m304.97,231.75c-2.1002,0-3.8125,1.7102-3.8125,3.8125v18.719c0,2.1012,1.7108,3.8438,3.8125,3.8438h18.75c2.1012,0,3.8125-1.7414,3.8125-3.8438v-18.719c0-2.1012-1.7106-3.8125-3.8125-3.8125h-18.75zm0,2,18.75,0c1.0221,0,1.8125,0.79175,1.8125,1.8125v18.719c0,1.0217-0.79175,1.8438-1.8125,1.8438h-18.75c-1.0203,0-1.8125-0.823-1.8125-1.8438v-18.719c0-1.0217,0.79267-1.8125,1.8125-1.8125z"/>
<path id="path129" style="baseline-shift:baseline;block-progression:tb;color:#000000;direction:ltr;text-indent:0;text-align:start;enable-background:accumulate;text-transform:none;" fill="#f4f4f4" d="m332.94,231.75c-2.1008,0-3.8438,1.7097-3.8438,3.8125v18.719c0,2.1017,1.7414,3.8438,3.8438,3.8438h18.719c2.1006,0,3.8125-1.741,3.8125-3.8438v-18.719c0-2.1017-1.7112-3.8125-3.8125-3.8125h-18.719zm0,2,18.719,0c1.0208,0,1.8125,0.79218,1.8125,1.8125v18.719c0,1.0212-0.7931,1.8438-1.8125,1.8438h-18.719c-1.0217,0-1.8438-0.82343-1.8438-1.8438v-18.719c0-1.0212,0.82257-1.8125,1.8438-1.8125z"/>
<path id="path131" style="baseline-shift:baseline;block-progression:tb;color:#000000;direction:ltr;text-indent:0;text-align:start;enable-background:accumulate;text-transform:none;" fill="#f4f4f4" d="m360.88,231.75c-2.1008,0-3.8438,1.7102-3.8438,3.8125v18.719c0,2.1012,1.7414,3.8438,3.8438,3.8438h18.719c2.1012,0,3.8438-1.7414,3.8438-3.8438v-18.719c0-2.1012-1.7418-3.8125-3.8438-3.8125h-18.719zm0,2,18.719,0c1.0221,0,1.8438,0.79175,1.8438,1.8125v18.719c0,1.0217-0.823,1.8438-1.8438,1.8438h-18.719c-1.0217,0-1.8438-0.823-1.8438-1.8438v-18.719c0-1.0217,0.82257-1.8125,1.8438-1.8125z"/>
<path id="path133" style="baseline-shift:baseline;block-progression:tb;color:#000000;direction:ltr;text-indent:0;text-align:start;enable-background:accumulate;text-transform:none;" fill="#f4f4f4" d="m388.81,231.75c-2.1008,0-3.8125,1.7097-3.8125,3.8125v18.719c0,2.1017,1.7102,3.8438,3.8125,3.8438h18.719c2.1012,0,3.8438-1.7414,3.8438-3.8438v-18.719c0-2.1012-1.7418-3.8125-3.8438-3.8125h-18.719zm0,2,18.719,0c1.0221,0,1.8438,0.79175,1.8438,1.8125v18.719c0,1.0217-0.823,1.8438-1.8438,1.8438h-18.719c-1.0217,0-1.8125-0.82343-1.8125-1.8438v-18.719c0-1.0212,0.79132-1.8125,1.8125-1.8125z"/>
<path id="path135" style="baseline-shift:baseline;block-progression:tb;color:#000000;direction:ltr;text-indent:0;text-align:start;enable-background:accumulate;text-transform:none;" fill="#f4f4f4" d="m416.75,231.75c-2.1008,0-3.8125,1.7102-3.8125,3.8125v18.719c0,2.1012,1.7102,3.8438,3.8125,3.8438h18.75c2.1012,0,3.8125-1.7414,3.8125-3.8438v-18.719c0-2.1012-1.7106-3.8125-3.8125-3.8125h-18.75zm0,2,18.75,0c1.0221,0,1.8125,0.79175,1.8125,1.8125v18.719c0,1.0217-0.79175,1.8438-1.8125,1.8438h-18.75c-1.0217,0-1.8125-0.823-1.8125-1.8438v-18.719c0-1.0217,0.79132-1.8125,1.8125-1.8125z"/>
<path id="path137" style="baseline-shift:baseline;block-progression:tb;color:#000000;direction:ltr;text-indent:0;text-align:start;enable-background:accumulate;text-transform:none;" fill="#f4f4f4" d="m53.5,259.69c-2.1017,0-3.8438,1.7414-3.8438,3.8438v18.719c0,2.1012,1.7414,3.8438,3.8438,3.8438h31.906c2.1019,0,3.8438-1.7414,3.8438-3.8438v-18.719c0-2.1017-1.741-3.8438-3.8438-3.8438h-31.906zm0,2,31.906,0c1.0212,0,1.8438,0.82343,1.8438,1.8438v18.719c0,1.0217-0.82166,1.8438-1.8438,1.8438h-31.906c-1.0217,0-1.8438-0.823-1.8438-1.8438v-18.719c0-1.0217,0.82343-1.8438,1.8438-1.8438z"/>
<path id="path139" style="baseline-shift:baseline;block-progression:tb;color:#000000;direction:ltr;text-indent:0;text-align:start;enable-background:accumulate;text-transform:none;" fill="#f4f4f4" d="m94.625,259.69c-2.1017,0-3.8125,1.7414-3.8125,3.8438v18.719c0,2.1012,1.7102,3.8438,3.8125,3.8438h18.75c2.1019,0,3.8125-1.7414,3.8125-3.8438v-18.719c0-2.1017-1.7097-3.8438-3.8125-3.8438h-18.75zm0,2,18.75,0c1.0212,0,1.8125,0.82343,1.8125,1.8438v18.719c0,1.0217-0.79041,1.8438-1.8125,1.8438h-18.75c-1.0217,0-1.8125-0.823-1.8125-1.8438v-18.719c0-1.0217,0.79218-1.8438,1.8125-1.8438z"/>
<path id="path141" style="baseline-shift:baseline;block-progression:tb;color:#000000;direction:ltr;text-indent:0;text-align:start;enable-background:accumulate;text-transform:none;" fill="#f4f4f4" d="m122.56,259.69c-2.1017,0-3.8125,1.7414-3.8125,3.8438v18.719c0,2.1012,1.7102,3.8438,3.8125,3.8438h18.75c2.1019,0,3.8125-1.7414,3.8125-3.8438v-18.719c0-2.1017-1.7097-3.8438-3.8125-3.8438h-18.75zm0,2,18.75,0c1.0212,0,1.8125,0.82343,1.8125,1.8438v18.719c0,1.0217-0.79041,1.8438-1.8125,1.8438h-18.75c-1.0217,0-1.8125-0.823-1.8125-1.8438v-18.719c0-1.0217,0.79218-1.8438,1.8125-1.8438z"/>
<path id="path143" style="baseline-shift:baseline;block-progression:tb;color:#000000;direction:ltr;text-indent:0;text-align:start;enable-background:accumulate;text-transform:none;" fill="#f4f4f4" d="m150.53,259.69c-2.1023,0-3.8438,1.7423-3.8438,3.8438v18.719c0,2.1008,1.7414,3.8438,3.8438,3.8438h18.719c2.1019,0,3.8125-1.7414,3.8125-3.8438v-18.719c0-2.1017-1.7097-3.8438-3.8125-3.8438h-18.719zm0,2,18.719,0c1.0212,0,1.8125,0.82343,1.8125,1.8438v18.719c0,1.0217-0.79041,1.8438-1.8125,1.8438h-18.719c-1.0217,0-1.8438-0.82257-1.8438-1.8438v-18.719c0-1.0225,0.82208-1.8438,1.8438-1.8438z"/>
<path id="path145" style="baseline-shift:baseline;block-progression:tb;color:#000000;direction:ltr;text-indent:0;text-align:start;enable-background:accumulate;text-transform:none;" fill="#f4f4f4" d="m178.47,259.69c-2.1023,0-3.8438,1.7423-3.8438,3.8438v18.719c0,2.1008,1.7414,3.8438,3.8438,3.8438h18.719c2.1019,0,3.8438-1.7414,3.8438-3.8438v-18.719c0-2.1017-1.741-3.8438-3.8438-3.8438h-18.719zm0,2,18.719,0c1.0212,0,1.8438,0.82343,1.8438,1.8438v18.719c0,1.0217-0.82166,1.8438-1.8438,1.8438h-18.719c-1.0217,0-1.8438-0.82257-1.8438-1.8438v-18.719c0-1.0225,0.82208-1.8438,1.8438-1.8438z"/>
<path id="path147" style="baseline-shift:baseline;block-progression:tb;color:#000000;direction:ltr;text-indent:0;text-align:start;enable-background:accumulate;text-transform:none;" fill="#f4f4f4" d="m206.41,259.69c-2.1023,0-3.8438,1.7423-3.8438,3.8438v18.719c0,2.1008,1.7414,3.8438,3.8438,3.8438h18.719c2.1019,0,3.8438-1.7414,3.8438-3.8438v-18.719c0-2.1017-1.741-3.8438-3.8438-3.8438h-18.719zm0,2,18.719,0c1.0212,0,1.8438,0.82343,1.8438,1.8438v18.719c0,1.0217-0.82166,1.8438-1.8438,1.8438h-18.719c-1.0217,0-1.8438-0.82257-1.8438-1.8438v-18.719c0-1.0225,0.82208-1.8438,1.8438-1.8438z"/>
<path id="path149" style="baseline-shift:baseline;block-progression:tb;color:#000000;direction:ltr;text-indent:0;text-align:start;enable-background:accumulate;text-transform:none;" fill="#f4f4f4" d="m234.34,259.69c-2.1017,0-3.8125,1.7414-3.8125,3.8438v18.719c0,2.1012,1.7102,3.8438,3.8125,3.8438h18.719c2.1012,0,3.8438-1.7418,3.8438-3.8438v-18.719c0-2.1008-1.741-3.8438-3.8438-3.8438h-18.719zm0,2,18.719,0c1.0212,0,1.8438,0.82257,1.8438,1.8438v18.719c0,1.0221-0.823,1.8438-1.8438,1.8438h-18.719c-1.0217,0-1.8125-0.823-1.8125-1.8438v-18.719c0-1.0217,0.79218-1.8438,1.8125-1.8438z"/>
<path id="path151" style="baseline-shift:baseline;block-progression:tb;color:#000000;direction:ltr;text-indent:0;text-align:start;enable-background:accumulate;text-transform:none;" fill="#f4f4f4" d="m262.28,259.69c-2.1017,0-3.8125,1.7414-3.8125,3.8438v18.719c0,2.1017,1.7108,3.8438,3.8125,3.8438h18.75c2.1012,0,3.8125-1.7418,3.8125-3.8438v-18.719c0-2.1008-1.7097-3.8438-3.8125-3.8438h-18.75zm0,2,18.75,0c1.0212,0,1.8125,0.82257,1.8125,1.8438v18.719c0,1.0221-0.79175,1.8438-1.8125,1.8438h-18.75c-1.0203,0-1.8125-0.82343-1.8125-1.8438v-18.719c0-1.0217,0.79218-1.8438,1.8125-1.8438z"/>
<path id="path153" style="baseline-shift:baseline;block-progression:tb;color:#000000;direction:ltr;text-indent:0;text-align:start;enable-background:accumulate;text-transform:none;" fill="#f4f4f4" d="m290.25,259.69c-2.1017,0-3.8438,1.7414-3.8438,3.8438v18.719c0,2.1012,1.7414,3.8438,3.8438,3.8438h18.719c2.1012,0,3.8125-1.7414,3.8125-3.8438v-18.719c0-2.1012-1.7097-3.8438-3.8125-3.8438h-18.719zm0,2,18.719,0c1.0212,0,1.8125,0.823,1.8125,1.8438v18.719c0,1.0217-0.79175,1.8438-1.8125,1.8438h-18.719c-1.0217,0-1.8438-0.823-1.8438-1.8438v-18.719c0-1.0217,0.82343-1.8438,1.8438-1.8438z"/>
<path id="path155" style="baseline-shift:baseline;block-progression:tb;color:#000000;direction:ltr;text-indent:0;text-align:start;enable-background:accumulate;text-transform:none;" fill="#f4f4f4" d="m318.19,259.69c-2.1017,0-3.8438,1.741-3.8438,3.8438v18.719c0,2.1017,1.7414,3.8438,3.8438,3.8438h18.719c2.1012,0,3.8125-1.7414,3.8125-3.8438v-18.719c0-2.1012-1.7097-3.8438-3.8125-3.8438h-18.719zm0,2,18.719,0c1.0212,0,1.8125,0.823,1.8125,1.8438v18.719c0,1.0217-0.79175,1.8438-1.8125,1.8438h-18.719c-1.0217,0-1.8438-0.82343-1.8438-1.8438v-18.719c0-1.0212,0.82343-1.8438,1.8438-1.8438z"/>
<path id="path157" style="baseline-shift:baseline;block-progression:tb;color:#000000;direction:ltr;text-indent:0;text-align:start;enable-background:accumulate;text-transform:none;" fill="#f4f4f4" d="m346.12,259.69c-2.1017,0-3.8438,1.7414-3.8438,3.8438v18.719c0,2.1012,1.7414,3.8438,3.8438,3.8438h18.719c2.1012,0,3.8438-1.7414,3.8438-3.8438v-1-17.719c0-2.1012-1.741-3.8438-3.8438-3.8438h-18.719zm0,2,18.719,0c1.0212,0,1.8438,0.823,1.8438,1.8438v18.719c0,1.0217-0.823,1.8438-1.8438,1.8438h-18.719c-1.0217,0-1.8438-0.823-1.8438-1.8438v-18.719c0-1.0217,0.82343-1.8438,1.8438-1.8438z"/>
<path id="path159" style="baseline-shift:baseline;block-progression:tb;color:#000000;direction:ltr;text-indent:0;text-align:start;enable-background:accumulate;text-transform:none;" fill="#f4f4f4" d="m374.06,259.69c-2.1017,0-3.8125,1.741-3.8125,3.8438v18.719c0,2.1017,1.7102,3.8438,3.8125,3.8438h18.719c2.1012,0,3.8438-1.7414,3.8438-3.8438v-18.719c0-2.1012-1.741-3.8438-3.8438-3.8438h-18.719zm0,2,18.719,0c1.0212,0,1.8438,0.823,1.8438,1.8438v18.719c0,1.0217-0.823,1.8438-1.8438,1.8438h-18.719c-1.0217,0-1.8125-0.82343-1.8125-1.8438v-18.719c0-1.0212,0.79218-1.8438,1.8125-1.8438z"/>
<path id="path161" style="baseline-shift:baseline;block-progression:tb;color:#000000;direction:ltr;text-indent:0;text-align:start;enable-background:accumulate;text-transform:none;" fill="#f4f4f4" d="m402,259.69c-2.1017,0-3.8125,1.7414-3.8125,3.8438v18.719c0,2.1012,1.7102,3.8438,3.8125,3.8438h33.812c2.1012,0,3.8438-1.7414,3.8438-3.8438v-18.719c0-2.1012-1.741-3.8438-3.8438-3.8438h-33.812zm0,2,33.812,0c1.0212,0,1.8438,0.823,1.8438,1.8438v18.719c0,1.0217-0.823,1.8438-1.8438,1.8438h-33.812c-1.0217,0-1.8125-0.823-1.8125-1.8438v-18.719c0-1.0217,0.79218-1.8438,1.8125-1.8438z"/>
<path id="path163" style="baseline-shift:baseline;block-progression:tb;color:#000000;direction:ltr;text-indent:0;text-align:start;enable-background:accumulate;text-transform:none;" fill="#f4f4f4" d="m94.656,287.66c-2.1017,0-3.8438,1.7108-3.8438,3.8125v18.75c0,2.1017,1.7416,3.8125,3.8438,3.8125h18.719c2.1023,0,3.8438-1.7102,3.8438-3.8125v-1-17.75c0-2.101-1.741-3.8125-3.8438-3.8125h-18.719zm0,2,18.719,0c1.0212,0,1.8438,0.79353,1.8438,1.8125v18.75c0,1.0217-0.82208,1.8125-1.8438,1.8125h-18.719c-1.0199,0-1.8438-0.79218-1.8438-1.8125v-18.75c0-1.0203,0.82343-1.8125,1.8438-1.8125z"/>
<path id="path165" style="baseline-shift:baseline;block-progression:tb;color:#000000;direction:ltr;text-indent:0;text-align:start;enable-background:accumulate;text-transform:none;" fill="#f4f4f4" d="m122.59,287.66c-2.1017,0-3.8438,1.7108-3.8438,3.8125v18.75c0,2.1017,1.7416,3.8125,3.8438,3.8125h18.719c2.1017,0,3.8438-1.7102,3.8438-3.8125v-18.75c0-2.101-1.7416-3.8125-3.8438-3.8125h-18.719zm0,2,18.719,0c1.0199,0,1.8438,0.79353,1.8438,1.8125v18.75c0,1.0217-0.82343,1.8125-1.8438,1.8125h-18.719c-1.0199,0-1.8438-0.79218-1.8438-1.8125v-18.75c0-1.0203,0.82343-1.8125,1.8438-1.8125z"/>
<path id="path167" style="baseline-shift:baseline;block-progression:tb;color:#000000;direction:ltr;text-indent:0;text-align:start;enable-background:accumulate;text-transform:none;" fill="#f4f4f4" d="m150.53,287.66c-2.1017,0-3.8125,1.7108-3.8125,3.8125v18.75c0,2.1017,1.7104,3.8125,3.8125,3.8125h218.03c2.1017,0,3.8438-1.7102,3.8438-3.8125v-18.75c0-2.1006-1.741-3.8125-3.8438-3.8125h-218.03zm0,2,218.03,0c1.0212,0,1.8438,0.7931,1.8438,1.8125v18.75c0,1.0217-0.82343,1.8125-1.8438,1.8125h-218.03c-1.0199,0-1.8125-0.79218-1.8125-1.8125v-18.75c0-1.0203,0.79218-1.8125,1.8125-1.8125z"/>
<path id="path169" style="baseline-shift:baseline;block-progression:tb;color:#000000;direction:ltr;text-indent:0;text-align:start;enable-background:accumulate;text-transform:none;" fill="#f4f4f4" d="m39.219,203.78c-2.1006,0-3.8438,1.7102-3.8438,3.8125v18.75c0,2.1017,1.7427,3.8125,3.8438,3.8125h25.781c1.7437,0,3.1695-1.2077,3.625-2.8125h0.21875v-1-18.75c0-2.1017-1.7414-3.8125-3.8438-3.8125h-25.781zm0,2,25.781,0c1.0217,0,1.8438,0.79218,1.8438,1.8125v17.75,1c0,1.0217-0.82166,1.8125-1.8438,1.8125h-25.781c-1.019,0-1.8438-0.79218-1.8438-1.8125v-18.75c0-1.0217,0.82435-1.8125,1.8438-1.8125z"/>
<path id="path171" style="baseline-shift:baseline;block-progression:tb;color:#000000;direction:ltr;text-indent:0;text-align:start;enable-background:accumulate;text-transform:none;" fill="#f4f4f4" d="m74.219,203.78c-2.1013,0-3.8438,1.7102-3.8438,3.8125v18.75c0,2.1012,1.7414,3.8125,3.8438,3.8125h18.719c2.1019,0,3.8438-1.7102,3.8438-3.8125v-18.75c0-2.1017-1.7414-3.8125-3.8438-3.8125h-18.719zm0,2,18.719,0c1.0217,0,1.8438,0.79218,1.8438,1.8125v18.75c0,1.0217-0.82166,1.8125-1.8438,1.8125h-18.719c-1.0217,0-1.8438-0.79175-1.8438-1.8125v-18.75c0-1.0217,0.823-1.8125,1.8438-1.8125z"/>
<path id="path173" style="baseline-shift:baseline;block-progression:tb;color:#000000;direction:ltr;text-indent:0;text-align:start;enable-background:accumulate;text-transform:none;" fill="#f4f4f4" d="m102.16,203.78c-2.1012,0-3.8125,1.7102-3.8125,3.8125v18.75c0,2.1012,1.7102,3.8125,3.8125,3.8125h18.719c2.1019,0,3.8438-1.7102,3.8438-3.8125v-18.75c0-2.1017-1.7414-3.8125-3.8438-3.8125h-18.719zm0,2,18.719,0c1.0217,0,1.8438,0.79218,1.8438,1.8125v18.75c0,1.0217-0.82166,1.8125-1.8438,1.8125h-18.719c-1.0217,0-1.8125-0.79175-1.8125-1.8125v-18.75c0-1.0217,0.79175-1.8125,1.8125-1.8125z"/>
<path id="path175" style="baseline-shift:baseline;block-progression:tb;color:#000000;direction:ltr;text-indent:0;text-align:start;enable-background:accumulate;text-transform:none;" fill="#f4f4f4" d="m130.09,203.78c-2.1019,0-3.8125,1.711-3.8125,3.8125v18.75c0,2.1008,1.7102,3.8125,3.8125,3.8125h18.75c2.1019,0,3.8125-1.7102,3.8125-3.8125v-18.75c0-2.1017-1.7102-3.8125-3.8125-3.8125h-18.75zm0,2,18.75,0c1.0217,0,1.8125,0.79218,1.8125,1.8125v18.75c0,1.0217-0.79041,1.8125-1.8125,1.8125h-18.75c-1.0217,0-1.8125-0.79132-1.8125-1.8125v-18.75c0-1.0225,0.79041-1.8125,1.8125-1.8125z"/>
<path id="path177" style="baseline-shift:baseline;block-progression:tb;color:#000000;direction:ltr;text-indent:0;text-align:start;enable-background:accumulate;text-transform:none;" fill="#f4f4f4" d="m158.03,203.78c-2.1012,0-3.8125,1.7102-3.8125,3.8125v18.75c0,2.1012,1.7102,3.8125,3.8125,3.8125h18.75c2.1026,0,3.8125-1.7106,3.8125-3.8125v-18.75c0-2.1012-1.7095-3.8125-3.8125-3.8125h-18.75zm0,2,18.75,0c1.023,0,1.8125,0.79175,1.8125,1.8125v18.75c0,1.0221-0.78906,1.8125-1.8125,1.8125h-18.75c-1.0217,0-1.8125-0.79175-1.8125-1.8125v-18.75c0-1.0217,0.79175-1.8125,1.8125-1.8125z"/>
<path id="path179" style="baseline-shift:baseline;block-progression:tb;color:#000000;direction:ltr;text-indent:0;text-align:start;enable-background:accumulate;text-transform:none;" fill="#f4f4f4" d="m186,203.78c-2.1026,0-3.8438,1.711-3.8438,3.8125v18.75c0,2.1008,1.7408,3.8125,3.8438,3.8125h18.719c2.1019,0,3.8125-1.7102,3.8125-3.8125v-18.75c0-2.1017-1.7102-3.8125-3.8125-3.8125h-18.719zm0,2,18.719,0c1.0217,0,1.8125,0.79218,1.8125,1.8125v18.75c0,1.0217-0.79041,1.8125-1.8125,1.8125h-18.719c-1.023,0-1.8438-0.79132-1.8438-1.8125v-18.75c0-1.0225,0.82031-1.8125,1.8438-1.8125z"/>
<path id="path181" style="baseline-shift:baseline;block-progression:tb;color:#000000;direction:ltr;text-indent:0;text-align:start;enable-background:accumulate;text-transform:none;" fill="#f4f4f4" d="m213.94,203.78c-2.1012,0-3.8438,1.7102-3.8438,3.8125v18.75c0,2.1012,1.7414,3.8125,3.8438,3.8125h18.719c2.1012,0,3.8438-1.7106,3.8438-3.8125v-18.75c0-2.1008-1.7414-3.8125-3.8438-3.8125h-18.719zm0,2,18.719,0c1.0217,0,1.8438,0.79132,1.8438,1.8125v18.75c0,1.0221-0.823,1.8125-1.8438,1.8125h-18.719c-1.0217,0-1.8438-0.79175-1.8438-1.8125v-18.75c0-1.0217,0.823-1.8125,1.8438-1.8125z"/>
<path id="path183" style="baseline-shift:baseline;block-progression:tb;color:#000000;direction:ltr;text-indent:0;text-align:start;enable-background:accumulate;text-transform:none;" fill="#f4f4f4" d="m241.88,203.78c-2.1012,0-3.8125,1.7102-3.8125,3.8125v18.75c0,2.1017,1.7108,3.8125,3.8125,3.8125h18.719c2.1019,0,3.8438-1.7102,3.8438-3.8125v-18.75c0-2.1017-1.7414-3.8125-3.8438-3.8125h-18.719zm0,2,18.719,0c1.0217,0,1.8438,0.79218,1.8438,1.8125v18.75c0,1.0217-0.82166,1.8125-1.8438,1.8125h-18.719c-1.0203,0-1.8125-0.79218-1.8125-1.8125v-18.75c0-1.0217,0.79175-1.8125,1.8125-1.8125z"/>
<path id="path185" style="baseline-shift:baseline;block-progression:tb;color:#000000;direction:ltr;text-indent:0;text-align:start;enable-background:accumulate;text-transform:none;" fill="#f4f4f4" d="m269.81,203.78c-2.1012,0-3.8125,1.7102-3.8125,3.8125v18.75c0,2.1012,1.7102,3.8125,3.8125,3.8125h18.719c2.1012,0,3.8438-1.7102,3.8438-3.8125v-18.75c0-2.1012-1.7414-3.8125-3.8438-3.8125h-18.719zm0,2,18.719,0c1.0217,0,1.8438,0.79175,1.8438,1.8125v18.75c0,1.0217-0.823,1.8125-1.8438,1.8125h-18.719c-1.0217,0-1.8125-0.79175-1.8125-1.8125v-18.75c0-1.0217,0.79175-1.8125,1.8125-1.8125z"/>
<path id="path187" style="baseline-shift:baseline;block-progression:tb;color:#000000;direction:ltr;text-indent:0;text-align:start;enable-background:accumulate;text-transform:none;" fill="#f4f4f4" d="m297.75,203.78c-2.1012,0-3.8125,1.7097-3.8125,3.8125v18.75c0,2.1017,1.7102,3.8125,3.8125,3.8125h18.75c2.1012,0,3.8125-1.7102,3.8125-3.8125v-18.75c0-2.1012-1.7102-3.8125-3.8125-3.8125h-18.75zm0,2,18.75,0c1.0217,0,1.8125,0.79175,1.8125,1.8125v18.75c0,1.0217-0.79175,1.8125-1.8125,1.8125h-18.75c-1.0217,0-1.8125-0.79218-1.8125-1.8125v-18.75c0-1.0212,0.79175-1.8125,1.8125-1.8125z"/>
<path id="path189" style="baseline-shift:baseline;block-progression:tb;color:#000000;direction:ltr;text-indent:0;text-align:start;enable-background:accumulate;text-transform:none;" fill="#f4f4f4" d="m325.69,203.78c-2.1012,0-3.8125,1.7102-3.8125,3.8125v18.75c0,2.1012,1.7102,3.8125,3.8125,3.8125h18.75c2.1012,0,3.8125-1.7102,3.8125-3.8125v-18.75c0-2.1012-1.7102-3.8125-3.8125-3.8125h-18.75zm0,2,18.75,0c1.0217,0,1.8125,0.79175,1.8125,1.8125v18.75c0,1.0217-0.79175,1.8125-1.8125,1.8125h-18.75c-1.0217,0-1.8125-0.79175-1.8125-1.8125v-18.75c0-1.0217,0.79175-1.8125,1.8125-1.8125z"/>
<path id="path191" style="baseline-shift:baseline;block-progression:tb;color:#000000;direction:ltr;text-indent:0;text-align:start;enable-background:accumulate;text-transform:none;" fill="#f4f4f4" d="m353.66,203.78c-2.1012,0-3.8438,1.7097-3.8438,3.8125v18.75c0,2.1017,1.7414,3.8125,3.8438,3.8125h18.719c2.1012,0,3.8125-1.7102,3.8125-3.8125v-18.75c0-2.1012-1.7102-3.8125-3.8125-3.8125h-18.719zm0,2,18.719,0c1.0217,0,1.8125,0.79175,1.8125,1.8125v18.75c0,1.0217-0.79175,1.8125-1.8125,1.8125h-18.719c-1.0217,0-1.8438-0.79218-1.8438-1.8125v-18.75c0-1.0212,0.823-1.8125,1.8438-1.8125z"/>
<path id="path193" style="baseline-shift:baseline;block-progression:tb;color:#000000;direction:ltr;text-indent:0;text-align:start;enable-background:accumulate;text-transform:none;" fill="#f4f4f4" d="m381.59,203.78c-2.1012,0-3.8438,1.7102-3.8438,3.8125v18.75c0,2.1012,1.7414,3.8125,3.8438,3.8125h18.719c2.1012,0,3.8438-1.7097,3.8438-3.8125v-18.75c0-2.1017-1.7414-3.8125-3.8438-3.8125h-18.719zm0,2,18.719,0c1.0217,0,1.8438,0.79218,1.8438,1.8125v18.75c0,1.0212-0.823,1.8125-1.8438,1.8125h-18.719c-1.0217,0-1.8438-0.79175-1.8438-1.8125v-18.75c0-1.0217,0.823-1.8125,1.8438-1.8125z"/>
<path id="path195" style="baseline-shift:baseline;block-progression:tb;color:#000000;direction:ltr;text-indent:0;text-align:start;enable-background:accumulate;text-transform:none;" fill="#f4f4f4" d="m409.53,203.78c-2.1012,0-3.8125,1.7102-3.8125,3.8125v18.75c0,2.1012,1.7102,3.8125,3.8125,3.8125h33.344c2.1012,0,3.8125-1.7102,3.8125-3.8125v-18.75c0-2.1012-1.7102-3.8125-3.8125-3.8125h-33.344zm0,2,33.344,0c1.0217,0,1.8125,0.79175,1.8125,1.8125v18.75c0,1.0217-0.79175,1.8125-1.8125,1.8125h-33.344c-1.0217,0-1.8125-0.79175-1.8125-1.8125v-18.75c0-1.0217,0.79175-1.8125,1.8125-1.8125z"/>
<path id="path197" style="baseline-shift:baseline;block-progression:tb;color:#000000;direction:ltr;text-indent:0;text-align:start;enable-background:accumulate;text-transform:none;" fill="#f4f4f4" d="m58.156,134.72c-2.1023,0-3.8125,1.7102-3.8125,3.8125v18.75c0,2.1017,1.7102,3.8125,3.8125,3.8125h30.062c2.1006,0,3.8125-1.7102,3.8125-3.8125v-18.75c0-2.1023-1.7115-3.8125-3.8125-3.8125h-30.062zm0,2,30.062,0c1.019,0,1.8125,0.79083,1.8125,1.8125v18.75c0,1.0217-0.7931,1.8125-1.8125,1.8125h-30.062c-1.0217,0-1.8125-0.79218-1.8125-1.8125v-18.75c0-1.0217,0.79083-1.8125,1.8125-1.8125z"/>
<path id="path199" style="baseline-shift:baseline;block-progression:tb;color:#000000;direction:ltr;text-indent:0;text-align:start;enable-background:accumulate;text-transform:none;" fill="#f4f4f4" d="m99.312,134.72c-2.1017,0-3.8438,1.7102-3.8438,3.8125v18.75c0,2.1012,1.7414,3.8125,3.8438,3.8125h30.031c2.1006,0,3.8438-1.7102,3.8438-3.8125v-18.75c0-2.1023-1.7427-3.8125-3.8438-3.8125h-30.031zm0,2,30.031,0c1.019,0,1.8438,0.79083,1.8438,1.8125v18.75c0,1.0217-0.82435,1.8125-1.8438,1.8125h-30.031c-1.0217,0-1.8438-0.79175-1.8438-1.8125v-18.75c0-1.0217,0.82343-1.8125,1.8438-1.8125z"/>
<path id="path201" style="baseline-shift:baseline;block-progression:tb;color:#000000;direction:ltr;text-indent:0;text-align:start;enable-background:accumulate;text-transform:none;" fill="#f4f4f4" d="m140.44,134.72c-2.1017,0-3.8125,1.7106-3.8125,3.8125v18.75c0,2.1008,1.7102,3.8125,3.8125,3.8125h30.062c2.1012,0,3.8125-1.7102,3.8125-3.8125v-18.75c0-2.1023-1.7108-3.8125-3.8125-3.8125h-30.062zm0,2,30.062,0c1.0203,0,1.8125,0.79083,1.8125,1.8125v18.75c0,1.0217-0.79175,1.8125-1.8125,1.8125h-30.062c-1.0217,0-1.8125-0.79132-1.8125-1.8125v-18.75c0-1.0221,0.79218-1.8125,1.8125-1.8125z"/>
<path id="path203" style="baseline-shift:baseline;block-progression:tb;color:#000000;direction:ltr;text-indent:0;text-align:start;enable-background:accumulate;text-transform:none;" fill="#f4f4f4" d="m181.59,134.72c-2.1017,0-3.8438,1.7106-3.8438,3.8125v18.75c0,2.1008,1.7414,3.8125,3.8438,3.8125h30.031c2.1012,0,3.8438-1.7102,3.8438-3.8125v-1-17.75c0-2.1023-1.7421-3.8125-3.8438-3.8125h-30.031zm0,2,30.031,0c1.0203,0,1.8438,0.79083,1.8438,1.8125v18.75c0,1.0217-0.823,1.8125-1.8438,1.8125h-30.031c-1.0217,0-1.8438-0.79132-1.8438-1.8125v-18.75c0-1.0221,0.82343-1.8125,1.8438-1.8125z"/>
<path id="path205" style="baseline-shift:baseline;block-progression:tb;color:#000000;direction:ltr;text-indent:0;text-align:start;enable-background:accumulate;text-transform:none;" fill="#f4f4f4" d="m222.72,134.72c-2.1017,0-3.8125,1.7102-3.8125,3.8125v18.75c0,2.1012,1.7102,3.8125,3.8125,3.8125h30.062c2.1012,0,3.8125-1.7102,3.8125-3.8125v-18.75c0-2.1019-1.7102-3.8125-3.8125-3.8125h-30.062zm0,2,30.062,0c1.0217,0,1.8125,0.79041,1.8125,1.8125v18.75c0,1.0217-0.79175,1.8125-1.8125,1.8125h-30.062c-1.0217,0-1.8125-0.79175-1.8125-1.8125v-18.75c0-1.0217,0.79218-1.8125,1.8125-1.8125z"/>
<path id="path207" style="baseline-shift:baseline;block-progression:tb;color:#000000;direction:ltr;text-indent:0;text-align:start;enable-background:accumulate;text-transform:none;" fill="#f4f4f4" d="m368.5,134.72c-2.1004,0-3.8438,1.7093-3.8438,3.8125v18.75c0,2.1021,1.7427,3.8125,3.8438,3.8125h30.031c2.1026,0,3.8125-1.7106,3.8125-3.8125v-18.75c0-2.1019-1.7095-3.8125-3.8125-3.8125h-30.031zm0,2,30.031,0c1.023,0,1.8125,0.79041,1.8125,1.8125v18.75c0,1.0221-0.78906,1.8125-1.8125,1.8125h-30.031c-1.019,0-1.8438-0.79261-1.8438-1.8125v-18.75c0-1.0208,0.82612-1.8125,1.8438-1.8125z"/>
<path id="path209" style="baseline-shift:baseline;block-progression:tb;color:#000000;direction:ltr;text-indent:0;text-align:start;enable-background:accumulate;text-transform:none;" fill="#f4f4f4" d="m409.62,134.72c-2.101,0-3.8125,1.7093-3.8125,3.8125v18.75c0,2.1021,1.7108,3.8125,3.8125,3.8125h30.062c2.1012,0,3.8125-1.7106,3.8125-3.8125v-18.75c0-2.1015-1.7102-3.8125-3.8125-3.8125h-30.062zm0,2,30.062,0c1.0217,0,1.8125,0.78998,1.8125,1.8125v18.75c0,1.0221-0.79175,1.8125-1.8125,1.8125h-30.062c-1.0203,0-1.8125-0.79261-1.8125-1.8125v-18.75c0-1.0208,0.79353-1.8125,1.8125-1.8125z"/>
<path id="path211" style="baseline-shift:baseline;block-progression:tb;color:#000000;direction:ltr;text-indent:0;text-align:start;enable-background:accumulate;text-transform:none;" fill="#f4f4f4" d="M514.72,196.28c-4.24,0-8.49,1.62-11.72,4.84l-28.88,28.88c-6.4543,6.4532-6.4541,16.951,0,23.406l28.438,28.406c6.4542,6.4563,16.952,6.4541,23.406,0l28.875-28.875c6.4445-6.4445,6.4546-16.917,0.0312-23.375l-0.0312-0.0312-28.438-28.406c-3.2266-3.2266-7.45-4.8435-11.688-4.8438zm0,1.9688c3.7215,0.00025,7.4368,1.4368,10.281,4.2812l28.438,28.438c5.6909,5.6909,5.6909,14.872,0,20.562l-28.875,28.875c-5.6899,5.6899-14.873,5.6917-20.562,0l-28.438-28.438c-5.6899-5.6908-5.6897-14.874,0-20.562l28.875-28.875c2.8454-2.8454,6.5598-4.2815,10.281-4.2812z"/>
<g id="g213">
	<path id="path215" style="baseline-shift:baseline;block-progression:tb;color:#000000;direction:ltr;text-indent:0;text-align:start;enable-background:accumulate;text-transform:none;" fill="#f4f4f4" d="m514.5,197.84c-3.6345,0-7.2646,1.3891-10.031,4.1562l-14.281,14.281-0.1875,0.1875-0.53125,0.5,0.0312,0.0312-0.1875,0.15625-14.281,14.281c-5.5332,5.5343-5.5332,14.528,0,20.062l14.281,14.281,0.1875,0.15625-0.0312,0.0312,0.53125,0.5,0.1875,0.1875,14.281,14.281c5.5332,5.5354,14.529,5.5354,20.062,0l14.281-14.281,0.1875-0.1875,0.5-0.5,0.1875-0.1875,14.28-14.28c5.5332-5.5343,5.5332-14.528,0-20.062l-14.281-14.281-0.1875-0.1875-0.5-0.5-0.1875-0.1875-14.28-14.28c-2.7666-2.7672-6.3967-4.1562-10.031-4.1562zm0,2c3.1185,0,6.2406,1.1777,8.625,3.5625l13.562,13.562-22.188,22.188-22.188-22.188,13.562-13.562c2.3844-2.3848,5.5065-3.5625,8.625-3.5625zm-24.5,19.438,22.188,22.188-22.188,22.188-13.562-13.562c-4.7688-4.7697-4.7688-12.48,0-17.25l13.56-13.57zm49,0,13.562,13.562c4.7688,4.7697,4.7688,12.48,0,17.25l-13.56,13.57-22.19-22.19,22.19-22.19zm-24.5,24.469,22.188,22.219-13.562,13.562c-4.7688,4.7706-12.481,4.7706-17.25,0l-13.57-13.59,22.19-22.19z"/>
</g>
<path id="path217" style="baseline-shift:baseline;block-progression:tb;color:#000000;direction:ltr;text-indent:0;text-align:start;enable-background:accumulate;text-transform:none;" fill="#f4f4f4" d="m473.5,193.81c-3.6618,0-6.6562,2.9938-6.6562,6.6562v82c0,3.6625,2.9944,6.6562,6.6562,6.6562h82c3.6643,0,6.6562-2.994,6.6562-6.6562v-82c0-3.6622-2.9919-6.6562-6.6562-6.6562h-82zm0,2,82,0c2.5837,0,4.6562,2.0745,4.6562,4.6562v82c0,2.5818-2.0726,4.6562-4.6562,4.6562h-82c-2.5802,0-4.6562-2.0747-4.6562-4.6562v-82c0-2.5815,2.0761-4.6562,4.6562-4.6562z"/>
<path id="path219" style="baseline-shift:baseline;block-progression:tb;color:#000000;direction:ltr;text-indent:0;text-align:start;enable-background:accumulate;text-transform:none;" fill="#f4f4f4" d="m35.312,141.31c-1.0623,0-1.9375,0.87776-1.9375,1.9375v8.1562c0,1.0597,0.87651,1.9688,1.9375,1.9688h10.688c1.061,0,1.9375-0.90901,1.9375-1.9688v-8.1562c0-1.0597-0.87519-1.9375-1.9375-1.9375h-10.688zm0.0625,2,10.562,0,0,8.0625-10.562,0,0-8.0625z"/>
<path id="path221" style="baseline-shift:baseline;block-progression:tb;color:#000000;direction:ltr;text-indent:0;text-align:start;enable-background:accumulate;text-transform:none;" fill="#f4f4f4" d="m24.625,240.88c-1.061,0-1.9375,0.90901-1.9375,1.9688v3.125c0,1.0597,0.87776,1.9375,1.9375,1.9375h9.125c1.0597,0,1.9375-0.87523,1.9375-1.9375v-3.125c0-1.0624-0.87519-1.9688-1.9375-1.9688h-9.125zm0.0625,2,9,0,0,3.0312-9,0,0-3.0312z"/>
<path id="path223" style="baseline-shift:baseline;block-progression:tb;color:#000000;direction:ltr;text-indent:0;text-align:start;enable-background:accumulate;text-transform:none;" fill="#f4f4f4" d="m450.28,240.88c-1.061,0-1.9375,0.90772-1.9375,1.9688v3.125c0,1.0597,0.87779,1.9375,1.9375,1.9375h9.0938c1.0598,0,1.9375-0.87523,1.9375-1.9375v-3.125c0-1.0611-0.87519-1.9688-1.9375-1.9688h-9.0938zm0.0625,2,8.9688,0,0,3.0312-8.9688,0,0-3.0312z"/>
<path id="polygon225" style="baseline-shift:baseline;block-progression:tb;color:#000000;direction:ltr;text-indent:0;text-align:start;enable-background:accumulate;text-transform:none;" fill="#f4f4f4" d="m26.156,173.19,0,1,0,30.625,0,1,1,0,5.2812,0,0,26.969,0,1,1,0,6.5312,0,0,26.938,0,1,1,0,5.2812,0,0,26.969,0,1,1,0,39.844,0,0,26.031,0,1,1,0,286.16,0,1,0,0-1,0-26.344,66.531,0,1,0,0-1,0-55.062,6.25,0,1,0,0-1,0-58.125,0-1-1,0-421.88,0-1,0zm2,2,419.88,0,0,56.125-6.25,0-1,0,0,1,0,55.062-66.531,0-1,0,0,1,0,26.344-284.16,0,0-26.031,0-1-1,0-39.844,0,0-26.969,0-1-1,0-5.2812,0,0-26.938,0-1-1,0-6.5312,0,0-26.969,0-1-1,0-5.2812,0,0-28.625z"/>
<path id="rect227" style="baseline-shift:baseline;block-progression:tb;color:#000000;direction:ltr;text-indent:0;text-align:start;enable-background:accumulate;text-transform:none;" fill="#f4f4f4" d="m51.594,132.03,0,1,0,30.156,0,1,1,0,205.75,0,1,0,0-1,0-30.156,0-1-1,0-205.75,0-1,0zm2,2,203.75,0,0,28.156-203.75,0,0-28.156z"/>
<path id="rect229" style="baseline-shift:baseline;block-progression:tb;color:#000000;direction:ltr;text-indent:0;text-align:start;enable-background:accumulate;text-transform:none;" fill="#f4f4f4" d="m361.78,132.03,0,1,0,30.156,0,1,1,0,82.781,0,1,0,0-1,0-30.156,0-1-1,0-82.781,0-1,0zm2,2,80.781,0,0,28.156-80.781,0,0-28.156z"/>
<path id="rect231" style="baseline-shift:baseline;block-progression:tb;color:#000000;direction:ltr;text-indent:0;text-align:start;enable-background:accumulate;text-transform:none;" fill="#f4f4f4" d="m470.47,132.5,0,1,0,30.156,0,1,1,0,86.062,0,1,0,0-1,0-30.156,0-1-1,0-86.062,0-1,0zm2,2,84.062,0,0,28.156-84.062,0,0-28.156z"/>
<path id="line233" style="baseline-shift:baseline;block-progression:tb;color:#000000;direction:ltr;text-indent:0;text-align:start;enable-background:accumulate;text-transform:none;" fill="#f4f4f4" d="m5.5,109.72,0,5.25,2,0,0-5.25-2,0z"/>
<path id="line235" style="baseline-shift:baseline;block-progression:tb;color:#000000;direction:ltr;text-indent:0;text-align:start;enable-background:accumulate;text-transform:none;" fill="#f4f4f4" d="m581.53,109.41,0,5.5,2,0,0-5.5-2,0z"/>
<path id="path237" style="baseline-shift:baseline;block-progression:tb;color:#000000;direction:ltr;text-indent:0;text-align:start;enable-background:accumulate;text-transform:none;" fill="#f4f4f4" d="m377.28,32.688c-1.0611,0-1.9375,0.90644-1.9375,1.9688v16.594c0,1.061,0.87647,1.9375,1.9375,1.9375h0.59375c1.061,0,1.9375-0.87779,1.9375-1.9375v-16.594c0-1.0597-0.87651-1.9688-1.9375-1.9688h-0.59375zm0.0625,2,0.46875,0,0,16.5-0.46875,0,0-16.5z"/>
<path id="path239" style="baseline-shift:baseline;block-progression:tb;color:#000000;direction:ltr;text-indent:0;text-align:start;enable-background:accumulate;text-transform:none;" fill="#f4f4f4" d="m500.03,32.688c-1.061,0-1.9375,0.90901-1.9375,1.9688v16.594c0,1.0597,0.87651,1.9375,1.9375,1.9375h0.59375c1.061,0,1.9375-0.87651,1.9375-1.9375v-16.594c0-1.061-0.87651-1.9688-1.9375-1.9688h-0.59375zm0.0625,2,0.46875,0,0,16.5-0.46875,0,0-16.5z"/>
</svg>
