<?xml version="1.0" encoding="UTF-8" standalone="no"?>
<!-- Generator: Adobe Illustrator 13.0.0, SVG Export Plug-In . SVG Version: 6.00 Build 14948)  -->
<svg id="Layer_3" xmlns:rdf="http://www.w3.org/1999/02/22-rdf-syntax-ns#" xmlns="http://www.w3.org/2000/svg" xml:space="preserve" height="456.52px" viewBox="0 0 276.137 456.521" width="276.14px" version="1.2" y="0px" x="0px" xmlns:cc="http://creativecommons.org/ns#" xmlns:dc="http://purl.org/dc/elements/1.1/"><metadata id="metadata81"><rdf:RDF><cc:Work rdf:about=""><dc:format>image/svg+xml</dc:format><dc:type rdf:resource="http://purl.org/dc/dcmitype/StillImage"/><dc:title/></cc:Work></rdf:RDF></metadata>
<path id="path3" style="baseline-shift:baseline;block-progression:tb;color:#000000;direction:ltr;text-indent:0;text-align:start;enable-background:accumulate;text-transform:none;" fill="#f4f4f4" d="m46.781,274.78c-2.5915,0-4.7188,2.1272-4.7188,4.7188v16.75c0,0.0572,0.003-0.002,0,0.0312h-16.781c-2.592,0-4.7188,2.1265-4.7188,4.7188v18.031c0,2.5923,2.1265,4.7188,4.7188,4.7188h16.781c0.0058,0.0462,0-0.0181,0,0.0625v16.719c0,2.593,2.1272,4.7188,4.7188,4.7188h18.031c2.5915,0,4.7188-2.1254,4.7188-4.7188v-16.719c0-0.11467-0.0064-0.0247,0-0.0625h16.781c2.5923,0,4.7188-2.1265,4.7188-4.7188v-18.031c0-2.5923-2.1268-4.7188-4.7188-4.7188h-16.75c-0.04951,0-0.000685,0.004-0.03125,0v-16.781c0-2.5919-2.1272-4.7188-4.7188-4.7188h-18.031zm0,2,18.031,0c1.5105,0,2.7188,1.2086,2.7188,2.7188v16.844c0,0.58309,0.24308,1.2163,0.71875,1.5625,0.47567,0.34624,0.9479,0.375,1.3125,0.375h16.75c1.512,0,2.7188,1.207,2.7188,2.7188v18.031c0,1.5117-1.207,2.7188-2.7188,2.7188h-16.781c-0.52783-0.00066-1.1561,0.11007-1.5625,0.59375-0.40636,0.48368-0.4375,1.0139-0.4375,1.4688v16.719c0,1.5126-1.2083,2.7188-2.7188,2.7188h-18.031c-1.5105,0-2.7188-1.2058-2.7188-2.7188v-16.719c0-0.37618,0.04326-0.83232-0.3125-1.3438-0.354-0.51-1.013-0.72-1.592-0.72h-16.875c-1.5117,0-2.7188-1.207-2.7188-2.7188v-18.031c0-1.5117,1.2067-2.7188,2.7188-2.7188h16.875c0.44311,0,0.98019-0.0895,1.4062-0.53125,0.42606-0.44175,0.5-0.99097,0.5-1.5v-16.75c0-1.5104,1.2083-2.7188,2.7188-2.7188z"/>
<path id="path5" style="baseline-shift:baseline;block-progression:tb;color:#000000;direction:ltr;text-indent:0;text-align:start;enable-background:accumulate;text-transform:none;" fill="#f4f4f4" d="m48.906,276.91c-2.5915,0-4.7188,2.1265-4.7188,4.7188v16.75c0,0.0574,0.003-0.002,0,0.0312h-16.781c-2.5923,0-4.7188,2.1265-4.7188,4.7188v13.781c0,2.5916,2.1265,4.7188,4.7188,4.7188h16.781c0.0058,0.046,0-0.0178,0,0.0625v16.719c0,2.5916,2.1269,4.7188,4.7188,4.7188h13.812c2.5919,0,4.6875-2.1272,4.6875-4.7188v-16.719c0-0.11444-0.0065-0.0245,0-0.0625h16.781c2.5915,0,4.7188-2.1269,4.7188-4.7188v-13.781c0-2.5926-2.1272-4.7188-4.7188-4.7188h-16.75c-0.04964,0-0.000565,0.004-0.03125,0v-16.781c0-2.5923-2.096-4.7188-4.6875-4.7188h-13.812zm0,2,13.812,0c1.5105,0,2.6875,1.207,2.6875,2.7188v16.844c0,0.58309,0.2427,1.2166,0.71875,1.5625,0.47605,0.34586,0.94848,0.375,1.3125,0.375h16.75c1.5105,0,2.7188,1.2074,2.7188,2.7188v13.781c0,1.5101-1.2083,2.7188-2.7188,2.7188h-16.781c-0.52824,0-1.1577,0.11012-1.5625,0.59375-0.40478,0.48363-0.4375,1.0143-0.4375,1.4688v16.719c0,1.5104-1.1774,2.7188-2.6875,2.7188h-13.812c-1.5101,0-2.7188-1.2083-2.7188-2.7188v-16.719c0-0.37625,0.04296-0.83291-0.3125-1.3438-0.35546-0.51084-1.0463-0.71875-1.625-0.71875h-16.844c-1.5117,0-2.7188-1.2083-2.7188-2.7188v-13.781c0-1.5117,1.207-2.7188,2.7188-2.7188h16.844c0.44294,0,1.011-0.089,1.4375-0.53125,0.42654-0.44226,0.5-0.99103,0.5-1.5v-16.75c0-1.5117,1.2083-2.7188,2.7188-2.7188z"/>
<path id="path7" style="baseline-shift:baseline;block-progression:tb;color:#000000;direction:ltr;text-indent:0;text-align:start;enable-background:accumulate;text-transform:none;" fill="#f4f4f4" d="m110.53,365.84c-0.69789,0.0301-1.3947,0.18157-2.0625,0.5l-22.876,10.91c-2.6694,1.2735-3.8047,4.5158-2.5312,7.1875,1.2737,2.6685,4.4856,3.8036,7.1562,2.5312l22.875-10.906c2.6695-1.2736,3.8348-4.4856,2.5625-7.1562-0.95443-2.0025-3.0313-3.1529-5.125-3.0625zm0.0937,2c1.3156-0.0619,2.6132,0.63572,3.2188,1.9062,0.80766,1.6953,0.10076,3.6916-1.5938,4.5l-22.875,10.906c-1.6953,0.80766-3.6917,0.0997-4.5-1.5938-0.80854-1.6963-0.10087-3.6915,1.5938-4.5l22.875-10.906c0.42374-0.20207,0.84273-0.29186,1.2812-0.3125z"/>
<path id="path9" style="baseline-shift:baseline;block-progression:tb;color:#000000;direction:ltr;text-indent:0;text-align:start;enable-background:accumulate;text-transform:none;" fill="#f4f4f4" d="m110.38,362.19c-1.2296,0.0236-2.4654,0.28037-3.6562,0.8125l-22.47,10.03c-4.7632,2.1295-6.9096,7.7357-4.7812,12.5,2.1285,4.7623,7.767,6.9096,12.531,4.7812l22.438-10.031c4.7631-2.1295,6.9098-7.7364,4.7812-12.5-1.5964-3.5726-5.1549-5.6646-8.8438-5.5938zm0.0625,2c2.9104-0.0616,5.7031,1.5739,6.9688,4.4062,1.6875,3.7764-0.004,8.1865-3.7812,9.875l-22.442,10.02c-3.7777,1.6876-8.1875-0.006-9.875-3.7812-1.6876-3.7777,0.0044-8.1865,3.7812-9.875l22.438-10.031c0.94413-0.42187,1.9361-0.60448,2.9062-0.625z"/>
<path id="path11" style="baseline-shift:baseline;block-progression:tb;color:#000000;direction:ltr;text-indent:0;text-align:start;enable-background:accumulate;text-transform:none;" fill="#f4f4f4" d="m158.03,365.84c-0.69789,0.0301-1.3947,0.18157-2.0625,0.5l-22.875,10.906c-2.6694,1.2735-3.8047,4.5158-2.5312,7.1875,1.2737,2.6685,4.4856,3.8036,7.1562,2.5312l22.875-10.906c2.6707-1.2736,3.8038-4.4862,2.5312-7.1562-0.95443-2.0025-3.0001-3.1529-5.0938-3.0625zm0.0937,2c1.3156-0.0619,2.6132,0.63572,3.2188,1.9062,0.8074,1.694,0.10159,3.6916-1.5938,4.5l-22.875,10.906c-1.6953,0.80766-3.6917,0.0997-4.5-1.5938-0.80854-1.6963-0.10087-3.6915,1.5938-4.5l22.875-10.906c0.42374-0.20207,0.84273-0.29186,1.2812-0.3125z"/>
<path id="path13" style="baseline-shift:baseline;block-progression:tb;color:#000000;direction:ltr;text-indent:0;text-align:start;enable-background:accumulate;text-transform:none;" fill="#f4f4f4" d="m157.88,362.19c-1.2297,0.0236-2.4652,0.28041-3.6562,0.8125l-22.47,10.03c-4.7632,2.1295-6.9096,7.7357-4.7812,12.5,2.1285,4.7624,7.7366,6.9097,12.5,4.7812l22.469-10.031c4.7622-2.1295,6.9098-7.7364,4.7812-12.5-1.5964-3.5725-5.1548-5.6645-8.8438-5.5938zm0.0312,2c2.9106-0.0616,5.7031,1.5738,6.9688,4.4062,1.6875,3.7764,0.0258,8.1865-3.75,9.875l-22.47,10.02c-3.7766,1.6875-8.1563-0.006-9.8438-3.7812-1.6876-3.7777-0.0268-8.1865,3.75-9.875l22.469-10.031c0.94442-0.42191,1.9048-0.60446,2.875-0.625z"/>
<path id="path15" style="baseline-shift:baseline;block-progression:tb;color:#000000;direction:ltr;text-indent:0;text-align:start;enable-background:accumulate;text-transform:none;" fill="#f4f4f4" d="m172.66,404.84c-0.54078,0.054-1.0897,0.22348-1.5938,0.5-2.0159,1.1041-2.7629,3.6717-1.6562,5.6875l18.97,34.53c1.1049,2.0162,3.6395,2.762,5.6562,1.6562,2.0158-1.104,2.7623-3.6402,1.6562-5.6562l-18.95-34.56c-0.82788-1.5125-2.4714-2.3183-4.0938-2.1562zm1.0312,2.0625c0.53444,0.15593,1.0204,0.52886,1.3125,1.0625l18.94,34.54c0.58591,1.0679,0.22249,2.3848-0.84375,2.9688-1.0692,0.58624-2.3836,0.22402-2.9688-0.84375l-18.938-34.562c-0.58533-1.0662-0.22236-2.3848,0.84375-2.9688,0.53397-0.29295,1.1218-0.34343,1.6562-0.1875z"/>
<path id="path17" style="baseline-shift:baseline;block-progression:tb;color:#000000;direction:ltr;text-indent:0;text-align:start;enable-background:accumulate;text-transform:none;" fill="#f4f4f4" d="m186.28,397.38c-0.54057,0.054-1.09,0.22342-1.5938,0.5-2.0168,1.1039-2.7642,3.6717-1.6562,5.6875l18.938,34.531c1.1049,2.0162,3.6714,2.7936,5.6875,1.6875,2.016-1.1042,2.7628-3.672,1.6562-5.6875l-18.938-34.562c-0.82931-1.5116-2.472-2.3183-4.0938-2.1562zm1.0312,2.0625c0.53438,0.15599,1.0194,0.52822,1.3125,1.0625l18.938,34.562c0.58549,1.0665,0.19095,2.3537-0.875,2.9375-1.0679,0.58591-2.3836,0.22402-2.9688-0.84375l-18.938-34.562c-0.58604-1.0662-0.19215-2.3847,0.875-2.9688,0.5334-0.29283,1.1219-0.34349,1.6562-0.1875z"/>
<path id="path19" style="baseline-shift:baseline;block-progression:tb;color:#000000;direction:ltr;text-indent:0;text-align:start;enable-background:accumulate;text-transform:none;" fill="#f4f4f4" d="m199.88,389.94c-0.54093,0.0541-1.0896,0.19199-1.5938,0.46875-2.0158,1.104-2.7623,3.6714-1.6562,5.6875l18.969,34.562c1.1002,2.0065,3.645,2.7411,5.6562,1.6562,0.0132-0.007,0.0182-0.0239,0.0312-0.0312,1.9865-1.1165,2.7551-3.6534,1.6562-5.6562l-18.969-34.562c-0.82788-1.5125-2.471-2.2875-4.0938-2.125zm1.0312,2.0312c0.53447,0.15584,1.0204,0.52886,1.3125,1.0625l18.938,34.562c0.58591,1.0679,0.22402,2.3836-0.84375,2.9688-1.0665,0.58549-2.384,0.19145-2.9688-0.875l-18.938-34.562c-0.58591-1.0679-0.22249-2.3848,0.84375-2.9688,0.53463-0.29347,1.1218-0.34334,1.6562-0.1875z"/>
<path id="path21" style="baseline-shift:baseline;block-progression:tb;color:#000000;direction:ltr;text-indent:0;text-align:start;enable-background:accumulate;text-transform:none;" fill="#f4f4f4" d="m213.5,382.47c-0.54075,0.0538-1.0896,0.19266-1.5938,0.46875-2.0156,1.1052-2.7615,3.672-1.6562,5.6875l18.938,34.562c1.1051,2.0153,3.6721,2.7627,5.6875,1.6562,2.0178-1.1037,2.7622-3.6717,1.6562-5.6875l-18.95-34.54c-0.82853-1.512-2.4715-2.3176-4.0938-2.1562zm1.0312,2.0625c0.5346,0.15606,1.0199,0.49722,1.3125,1.0312l18.938,34.562c0.58607,1.0682,0.19315,2.3845-0.875,2.9688-1.0666,0.58558-2.3838,0.19174-2.9688-0.875l-18.93-34.56c-0.58479-1.0665-0.19145-2.3527,0.875-2.9375,0.53468-0.29281,1.1216-0.34356,1.6562-0.1875z"/>
<path id="path23" style="baseline-shift:baseline;block-progression:tb;color:#000000;direction:ltr;text-indent:0;text-align:start;enable-background:accumulate;text-transform:none;" fill="#f4f4f4" d="m227.09,375c-0.53105,0.0532-1.0665,0.23208-1.5625,0.5-0.009,0.005-0.0223-0.005-0.0312,0v0.0312c-1.9867,1.1156-2.755,3.6223-1.6562,5.625l18.969,34.562c1.1049,2.0162,3.6714,2.761,5.6875,1.6562,2.0146-1.106,2.7625-3.6711,1.6562-5.6875l-18.97-34.53c-0.82943-1.5118-2.4716-2.3189-4.0938-2.1562zm1.0625,2.0625c0.53456,0.15592,0.9882,0.49712,1.2812,1.0312l18.938,34.562c0.58575,1.0676,0.22364,2.3828-0.84375,2.9688-1.0679,0.5852-2.3836,0.19277-2.9688-0.875l-18.94-34.52c-0.58591-1.0679-0.22353-2.3846,0.84375-2.9688,0.53333-0.29314,1.1529-0.34342,1.6875-0.1875z"/>
<path id="path25" style="baseline-shift:baseline;block-progression:tb;color:#000000;direction:ltr;text-indent:0;text-align:start;enable-background:accumulate;text-transform:none;" fill="#f4f4f4" d="m240.72,367.53c-0.54074,0.0539-1.0898,0.22384-1.5938,0.5-2.0157,1.1059-2.764,3.6722-1.6562,5.6875l18.938,34.531c1.1048,2.0148,3.6713,2.7624,5.6875,1.6562,2.0166-1.1038,2.7638-3.6712,1.6562-5.6875l-18.95-34.53c-0.82858-1.513-2.4715-2.3179-4.0938-2.1562zm1.0312,2.0625c0.53466,0.15593,1.0199,0.52818,1.3125,1.0625l18.94,34.54c0.58646,1.0677,0.19244,2.3845-0.875,2.9688-1.0678,0.58584-2.3836,0.19219-2.9688-0.875l-18.93-34.53c-0.58628-1.0667-0.19327-2.3827,0.875-2.9688,0.5341-0.29268,1.1216-0.34343,1.6562-0.1875z"/>
<path id="path27" style="baseline-shift:baseline;block-progression:tb;color:#000000;direction:ltr;text-indent:0;text-align:start;enable-background:accumulate;text-transform:none;" fill="#f4f4f4" d="m126.81,446.81c-0.34576,0-0.71363,0.11513-1.0312,0.375-0.31762,0.25987-0.53125,0.70226-0.53125,1.125v6.0625c0,0.39292-0.0627,0.7131,0.0937,1.1875,0.0782,0.2372,0.27704,0.52953,0.5625,0.71875s0.59743,0.25,0.84375,0.25h1.8125c0.27323,0,0.65699-0.11012,0.90625-0.34375s0.32342-0.5136,0.375-0.71875c0.10317-0.41029,0.0932-0.71316,0.0937-1.0938v-6.0625c0-0.27236-0.0498-0.66009-0.34375-1-0.29393-0.33991-0.76546-0.5-1.1562-0.5h-1.625zm0.4375,2,0.6875,0,0,5.5625c-0.00013,0.0972,0.003,0.0767,0,0.15625h-0.6875c-0.004-0.0837,0-0.0473,0-0.15625v-5.5625z"/>
<path id="path29" style="baseline-shift:baseline;block-progression:tb;color:#000000;direction:ltr;text-indent:0;text-align:start;enable-background:accumulate;text-transform:none;" fill="#f4f4f4" d="m132.97,446.81c-0.8561,0-1.5312,0.65626-1.5312,1.5v6.0625c0,0.44032-0.0124,0.77051,0.125,1.1875,0.0687,0.20849,0.18846,0.45383,0.4375,0.65625s0.59408,0.3125,0.84375,0.3125h2c0.31656,0,0.7048-0.19269,0.90625-0.4375s0.27346-0.4738,0.3125-0.65625c0.0781-0.36491,0.0625-0.67235,0.0625-1.0625v-6.0625c0-0.35901-0.13012-0.74014-0.40625-1.0312-0.27613-0.29111-0.67636-0.46875-1.0625-0.46875h-1.6875zm0.46875,2,0.6875,0,0,5.5625c0,0.0857,0.002,0.0834,0,0.15625h-0.6875c-0.005-0.0799,0-0.0519,0-0.15625v-5.5625z"/>
<path id="path31" style="baseline-shift:baseline;block-progression:tb;color:#000000;direction:ltr;text-indent:0;text-align:start;enable-background:accumulate;text-transform:none;" fill="#f4f4f4" d="M1.9375,25.031c-0.6552-0.001-1.3109,0.408-1.5938,0.907-0.28287,0.498-0.34375,1.017-0.34375,1.5v418.18c0,6.0105,4.8957,10.906,10.906,10.906h110.91c0.53146,0,1.05-0.34142,1.3125-0.75,0.26249-0.40858,0.34375-0.87787,0.34375-1.4062v-6.0625c0-0.34218-0.1092-0.79115-0.4375-1.0938-0.3283-0.3026-0.76277-0.40625-1.125-0.40625h-15.875c-2.8546,0-5.1562-2.2716-5.1562-5.125s2.3016-5.1562,5.1562-5.1562h31.781c2.8546,0,5.1562,2.3026,5.1562,5.1562,0,2.4166-1.6463,4.4051-3.875,4.9688v0.0312c-0.46177,0.12152-0.75481,0.48674-0.875,0.78125s-0.15625,0.5627-0.15625,0.84375v6.0625c0.00097,0.33111-0.0353,0.63853,0.0937,1.0938,0.0645,0.22761,0.19325,0.53031,0.46875,0.75s0.6264,0.3125,0.90625,0.3125h73.875c34.635,0,62.719-28.115,62.719-62.75v-366.66c0-0.48472-0.13747-0.96065-0.46875-1.375s-0.89876-0.71875-1.5-0.71875h-272.22zm0.125,2,272.03,0c0.008,0.01945,0.0312,0.03312,0.0312,0.09375v366.66c0,33.555-27.164,60.75-60.719,60.75h-73.344c-0.003-0.079,0.00029-0.0582,0-0.15625v-5.9688c2.8405-0.94893,4.9062-3.5718,4.9062-6.7188,0-3.9344-3.2208-7.1562-7.1562-7.1562h-31.781c-3.9354,0-7.1562,3.2217-7.1562,7.1562,0,3.9346,3.2208,7.125,7.1562,7.125h15.438v5.5625c0,0.12958-0.018,0.10263-0.0312,0.15625h-110.53c-4.9332,0.01-8.91-3.97-8.91-8.9v-418.18c0-0.22843,0.042476-0.34208,0.0625-0.40625z"/>
<path id="circle33" style="baseline-shift:baseline;block-progression:tb;color:#000000;direction:ltr;text-indent:0;text-align:start;enable-background:accumulate;text-transform:none;" fill="#f4f4f4" d="m193.16,297.81c-10.188,0-18.469,8.281-18.469,18.469s8.281,18.469,18.469,18.469,18.469-8.281,18.469-18.469-8.281-18.469-18.469-18.469zm0,2c9.1069,0,16.469,7.3619,16.469,16.469,0,9.1069-7.3619,16.469-16.469,16.469-9.1069,0-16.469-7.3619-16.469-16.469,0-9.1069,7.3619-16.469,16.469-16.469z"/>
<path id="circle35" style="baseline-shift:baseline;block-progression:tb;color:#000000;direction:ltr;text-indent:0;text-align:start;enable-background:accumulate;text-transform:none;" fill="#f4f4f4" d="m193.16,299.09c-9.4797,0-17.188,7.7078-17.188,17.188,0,9.4797,7.7078,17.188,17.188,17.188,9.4797,0,17.188-7.7078,17.188-17.188,0-9.4797-7.7078-17.188-17.188-17.188zm0,2c8.3988,0,15.188,6.7887,15.188,15.188,0,8.3988-6.7887,15.188-15.188,15.188-8.3988,0-15.188-6.7887-15.188-15.188,0-8.3988,6.7887-15.188,15.188-15.188z"/>
<path id="circle37" style="baseline-shift:baseline;block-progression:tb;color:#000000;direction:ltr;text-indent:0;text-align:start;enable-background:accumulate;text-transform:none;" fill="#f4f4f4" d="m238.72,276.94c-10.188,0-18.469,8.281-18.469,18.469s8.281,18.469,18.469,18.469,18.469-8.281,18.469-18.469-8.281-18.469-18.469-18.469zm0,2c9.1069,0,16.469,7.3619,16.469,16.469,0,9.1069-7.3619,16.469-16.469,16.469-9.1069,0-16.469-7.3619-16.469-16.469,0-9.1069,7.3619-16.469,16.469-16.469z"/>
<path id="circle39" style="baseline-shift:baseline;block-progression:tb;color:#000000;direction:ltr;text-indent:0;text-align:start;enable-background:accumulate;text-transform:none;" fill="#f4f4f4" d="m238.72,278.22c-9.4797,0-17.188,7.7078-17.188,17.188,0,9.4797,7.7078,17.188,17.188,17.188,9.4797,0,17.188-7.7078,17.188-17.188,0-9.4797-7.7078-17.188-17.188-17.188zm0,2c8.3988,0,15.188,6.7887,15.188,15.188,0,8.3988-6.7887,15.188-15.188,15.188-8.3988,0-15.188-6.7887-15.188-15.188,0-8.3988,6.7887-15.188,15.188-15.188z"/>
<path id="path41" style="baseline-shift:baseline;block-progression:tb;color:#000000;direction:ltr;text-indent:0;text-align:start;enable-background:accumulate;text-transform:none;" fill="#f4f4f4" d="m30.75,37.75c-5.8154,0-10.531,4.7461-10.531,10.562v156.72c0,5.8164,4.7158,10.562,10.531,10.562h188.5c8.931,0,17.833-4.5246,24.531-11.281,6.7-6.75,11.22-15.78,11.22-24.93v-131.07c0-5.816-4.75-10.562-10.56-10.562h-213.69zm0,2,213.69,0c4.7357,0,8.5625,3.8269,8.5625,8.5625v131.06c0,8.4904-4.2687,17.088-10.656,23.531-6.3876,6.4431-14.845,10.688-23.094,10.688h-188.5c-4.7346,0-8.5312-3.8269-8.5312-8.5625v-156.72c0-4.7356,3.7967-8.5625,8.5312-8.5625z"/>
<path id="path43" style="baseline-shift:baseline;block-progression:tb;color:#000000;direction:ltr;text-indent:0;text-align:start;enable-background:accumulate;text-transform:none;" fill="#f4f4f4" d="m65.969,57.938c-1.4198,0-2.5938,1.174-2.5938,2.5938v131.59c0,1.4198,1.174,2.5938,2.5938,2.5938h144.69c1.4198,0,2.5938-1.174,2.5938-2.5938v-131.59c0-1.4198-1.174-2.5938-2.5938-2.5938h-144.69zm0,2,144.69,0c0.33823,0,0.59375,0.25552,0.59375,0.59375v131.59c0,0.33823-0.25552,0.59375-0.59375,0.59375h-144.69c-0.33823,0-0.59375-0.25552-0.59375-0.59375v-131.59c0-0.33823,0.25552-0.59375,0.59375-0.59375z"/>
<path id="circle45" style="baseline-shift:baseline;block-progression:tb;color:#000000;direction:ltr;text-indent:0;text-align:start;enable-background:accumulate;text-transform:none;" fill="#f4f4f4" d="m39.438,99.688c-2.7877,0-5.0625,2.2748-5.0625,5.0625s2.2748,5.0625,5.0625,5.0625,5.0625-2.2748,5.0625-5.0625-2.2748-5.0625-5.0625-5.0625zm0,2c1.7068,0,3.0625,1.3557,3.0625,3.0625s-1.3557,3.0625-3.0625,3.0625-3.0625-1.3557-3.0625-3.0625,1.3557-3.0625,3.0625-3.0625z"/>
<path id="path47" style="baseline-shift:baseline;block-progression:tb;color:#000000;direction:ltr;text-indent:0;text-align:start;enable-background:accumulate;text-transform:none;" fill="#f4f4f4" d="M41.562,0c-0.33,0-0.705,0.16664-0.906,0.375s-0.288,0.41915-0.344,0.59375c-0.111,0.34915-0.125,0.64295-0.124,0.90625v4.4688c0,0.35781,0.12981,0.73978,0.40625,1.0312,0.27644,0.29147,0.70873,0.4375,1.0938,0.4375h1.6562c0.8561,0,1.5625-0.62328,1.5625-1.4688v-4.4688c0-0.32582-0.0019-0.6807-0.21875-1.0938-0.216-0.4129-0.819-0.7811-1.312-0.7811h-1.8125zm0.625,2,0.71875,0,0,3.8125-0.71875,0,0-3.8125z"/>
<path id="path49" style="baseline-shift:baseline;block-progression:tb;color:#000000;direction:ltr;text-indent:0;text-align:start;enable-background:accumulate;text-transform:none;" fill="#f4f4f4" d="m47.656,0c-0.30789,0-0.68,0.18649-0.875,0.40625s-0.26994,0.39736-0.3125,0.5625c-0.084,0.33025-0.093,0.61405-0.093,0.90625v4.4688c0,0.27107,0.08072,0.62828,0.375,0.96875s0.7663,0.5,1.1562,0.5h1.625c0.34586,0,0.71413-0.084361,1.0312-0.34375,0.31712-0.25939,0.53125-0.70189,0.53125-1.125v-4.4688c0-0.27239-0.02012-0.61256-0.1875-1-0.167-0.38744-0.723-0.875-1.312-0.875h-1.9375zm0.71875,2,0.71875,0,0,3.8125-0.71875,0,0-3.8125z"/>
<path id="path51" style="baseline-shift:baseline;block-progression:tb;color:#000000;direction:ltr;text-indent:0;text-align:start;enable-background:accumulate;text-transform:none;" fill="#f4f4f4" d="M26.25,0c-0.666,0-1.264,0.36732-1.594,0.78125-0.329,0.41395-0.467,0.85125-0.468,1.3438v19.375c0,0.90698,0.74974,1.6562,1.6562,1.6562h224.28c0.65623,0,1.0438-0.50792,1.2188-0.90625,0.17495-0.39833,0.2494-0.80988,0.25-1.3438v-18.656c0-0.65334-0.18811-1.2946-0.625-1.7188-0.43-0.42414-0.99-0.5312-1.43-0.5312h-195.06c-0.43,0-1.051,0.20266-1.344,0.65625-0.293,0.45355-0.281,0.85865-0.281,1.2188v4.4688c0,0.34121,0.14026,0.75976,0.46875,1.0625s0.73143,0.40625,1.0938,0.40625h24.375c2.8548,0,5.1562,2.3017,5.1562,5.1562,0,2.8546-2.3017,5.1562-5.1562,5.1562h-40.281c-2.8546,0-5.1562-2.3017-5.1562-5.1562,0-2.4163,1.6778-4.4372,3.9062-5,0.459-0.1247,0.755-0.488,0.874-0.7815s0.125-0.563,0.125-0.8437v-4.4688c0-0.4216-0.099-0.8541-0.375-1.2188-0.276-0.36461-0.772-0.65625-1.313-0.65625h-10.312zm223.34,1.9688c-0.0499-0.048442,0-0.038412,0,0.28125v18.656c-0.00018,0.1563-0.0172,0.15709-0.0312,0.25h-223.38v-19.031c-0.000061,0.028464,0.0041-0.090934,0.03125-0.125,0.02713-0.034066-0.000654,0,0.03125,0h10v4.25c-2.8283,0.95507-4.9062,3.5804-4.9062,6.7188,0,3.9354,3.2208,7.1562,7.1562,7.1562h40.281c3.9354,0,7.1562-3.2208,7.1562-7.1562s-3.221-7.1562-7.1562-7.1562h-23.938v-3.8125h194.69c0.13311,0,0.11239,0.017193,0.0625-0.03125z"/>
<path id="path53" style="baseline-shift:baseline;block-progression:tb;color:#000000;direction:ltr;text-indent:0;text-align:start;enable-background:accumulate;text-transform:none;" fill="#f4f4f4" d="M12.281,0c-6.7682,0-12.281,5.5128-12.281,12.281v9.1562c0,0.42237,0.17851,0.97544,0.59375,1.3125s0.89929,0.40625,1.375,0.40625h18.375c0.906,0,1.656-0.749,1.656-1.656v-19.375c0-0.5172-0.156-0.9767-0.469-1.375-0.312-0.39834-0.849-0.75-1.469-0.75h-7.7812zm0,2,7.6562,0c0.019,0.0357,0.063,0.0863,0.063,0.125v19.031h-18v-8.875c0-5.6873,4.5937-10.281,10.281-10.281z"/>
<path id="path55" style="baseline-shift:baseline;block-progression:tb;color:#000000;direction:ltr;text-indent:0;text-align:start;enable-background:accumulate;text-transform:none;" fill="#f4f4f4" d="m256.06,0c-0.61955,0-1.1251,0.35166-1.4375,0.75-0.31241,0.39834-0.5,0.85778-0.5,1.375v19.375c0,0.90698,0.78099,1.6562,1.6875,1.6562h18.375c0.47571,0,0.95976-0.06919,1.375-0.40625s0.5625-0.89013,0.5625-1.3125v-9.1562c0-6.7691-5.48-12.282-12.24-12.282h-7.8125zm0.125,2,7.6875,0c5.6875,0,10.25,4.5936,10.25,10.281v8.875h-18v-19.031c0-0.038711,0.0438-0.089339,0.0625-0.125z"/>
<path id="line57" style="baseline-shift:baseline;block-progression:tb;color:#000000;direction:ltr;text-indent:0;text-align:start;enable-background:accumulate;text-transform:none;" fill="#f4f4f4" d="m0.5625,22.094,0,3.9062,2,0,0-3.9062-2,0z"/>
<path id="line59" style="baseline-shift:baseline;block-progression:tb;color:#000000;direction:ltr;text-indent:0;text-align:start;enable-background:accumulate;text-transform:none;" fill="#f4f4f4" d="m20.969,1.5312,0,2,4.25,0,0-2-4.25,0z"/>
<path id="line61" style="baseline-shift:baseline;block-progression:tb;color:#000000;direction:ltr;text-indent:0;text-align:start;enable-background:accumulate;text-transform:none;" fill="#f4f4f4" d="m37.156,1.5312,0,2,4.25,0,0-2-4.25,0z"/>
<path id="line63" style="baseline-shift:baseline;block-progression:tb;color:#000000;direction:ltr;text-indent:0;text-align:start;enable-background:accumulate;text-transform:none;" fill="#f4f4f4" d="m43.812,1.5312,0,2,3.7188,0,0-2-3.7188,0z"/>
<path id="line65" style="baseline-shift:baseline;block-progression:tb;color:#000000;direction:ltr;text-indent:0;text-align:start;enable-background:accumulate;text-transform:none;" fill="#f4f4f4" d="m50.125,1.5312,0,2,3.7188,0,0-2-3.7188,0z"/>
<path id="line67" style="baseline-shift:baseline;block-progression:tb;color:#000000;direction:ltr;text-indent:0;text-align:start;enable-background:accumulate;text-transform:none;" fill="#f4f4f4" d="m250.91,1.5312,0,2,4.25,0,0-2-4.25,0z"/>
<path id="line69" style="baseline-shift:baseline;block-progression:tb;color:#000000;direction:ltr;text-indent:0;text-align:start;enable-background:accumulate;text-transform:none;" fill="#f4f4f4" d="m273.19,22.156,0,3.7188,2,0,0-3.7188-2,0z"/>
<path id="polygon71" style="baseline-shift:baseline;block-progression:tb;color:#000000;direction:ltr;text-indent:0;text-align:start;enable-background:accumulate;text-transform:none;" fill-rule="nonzero" d="m42.031,9.375-0.75,0.40625-4.7188,2.5938-0.78125,0.4375,0.78125,0.4375,4.7188,2.5938,0.75,0.40625,0-0.84375,0-5.1875,0-0.84375zm-1,1.6875,0,3.5-3.1875-1.75,3.1875-1.75z"/>
<path id="polygon73" style="baseline-shift:baseline;block-progression:tb;color:#000000;direction:ltr;text-indent:0;text-align:start;enable-background:accumulate;text-transform:none;" fill-rule="nonzero" d="m75.656,9.375,0,0.84375,0,5.1875,0,0.84375l0.719-0.406,4.719-2.594,0.812-0.438-0.812-0.437-4.719-2.5938-0.719-0.4062zm1,1.6875,3.1875,1.75-3.1875,1.75,0-3.5z"/>
<path id="circle75" style="baseline-shift:baseline;block-progression:tb;color:#000000;direction:ltr;text-indent:0;text-align:start;enable-background:accumulate;text-transform:none;" fill="#f4f4f4" d="m55.812,300.34c-5.3276,0-9.6875,4.3286-9.6875,9.6562s4.3599,9.6875,9.6875,9.6875,9.6562-4.3599,9.6562-9.6875-4.3286-9.6562-9.6562-9.6562zm0,2c4.2468,0,7.6562,3.4095,7.6562,7.6562,0,4.2468-3.4095,7.6875-7.6562,7.6875-4.2468,0-7.6875-3.4407-7.6875-7.6875s3.4407-7.6562,7.6875-7.6562z"/>
</svg>
