<?xml version="1.0" encoding="UTF-8" standalone="no"?>
<!-- Generator: Adobe Illustrator 13.0.0, SVG Export Plug-In . SVG Version: 6.00 Build 14948)  -->
<svg id="Layer_3" xmlns:rdf="http://www.w3.org/1999/02/22-rdf-syntax-ns#" xmlns="http://www.w3.org/2000/svg" xml:space="preserve" height="327.62px" viewBox="0 0 624.731 327.625" width="624.73px" version="1.2" y="0px" x="0px" xmlns:cc="http://creativecommons.org/ns#" xmlns:dc="http://purl.org/dc/elements/1.1/"><metadata id="metadata61"><rdf:RDF><cc:Work rdf:about=""><dc:format>image/svg+xml</dc:format><dc:type rdf:resource="http://purl.org/dc/dcmitype/StillImage"/><dc:title/></cc:Work></rdf:RDF></metadata>
<path id="line3" style="baseline-shift:baseline;block-progression:tb;color:#000000;direction:ltr;text-indent:0;text-align:start;enable-background:accumulate;text-transform:none;" fill="#f4f4f4" d="m87.781,10.281-4.5,0.21875a1.0011,1.0011,0,1,0,0.09375,2l4.5-0.21875a1.0011,1.0011,0,1,0,-0.09375,-2z"/>
<path id="path5" style="baseline-shift:baseline;block-progression:tb;color:#000000;direction:ltr;text-indent:0;text-align:start;enable-background:accumulate;text-transform:none;" fill="#f4f4f4" d="M286.22,0.875c-57.25,0-144.63,4.4231-197.6,8.0625a1.0001,1.0001,0,0,0,-0.469,0.1563c0.193-0.124-0.023,0.0084-0.156,0.0937s-0.33,0.2101-0.5,0.4063c-0.34,0.3922-0.553,1.1932-0.281,1.9062a1.0001,1.0001,0,0,0,0,0.03125c4.225,10.797,17.711,49.944,31.594,89.688,13.883,39.743,28.142,80.073,34.094,93.594,6.4239,14.592,14.172,27.307,25.156,36.406,10.984,9.0996,25.206,14.5,44.25,14.5h63.281,53.562,63.281c19.044,0,33.235-5.4004,44.219-14.5s18.732-21.814,25.156-36.406c5.9525-13.521,20.211-53.851,34.094-93.594s27.4-78.891,31.625-89.688a1.0001,1.0001,0,0,0,0,-0.03125c0.27136-0.71329,0.0276-1.5143-0.3125-1.9062-0.16-0.197-0.33-0.322-0.46-0.4073s-0.38-0.2177-0.19-0.0937a1.0001,1.0001,0,0,0,-0.47,-0.1563c-52.97-3.6394-140.31-8.0625-197.56-8.0625h-52.312zm0,2,52.312,0c57.028,0,144.1,4.3989,197.06,8.0312-4.3232,11.064-17.708,49.995-31.562,89.656-13.88,39.74-28.19,80.18-34.03,93.44-6.3571,14.441-13.991,26.878-24.625,35.688-10.634,8.8097-24.27,14.031-42.938,14.031h-63.281-53.562-63.281c-18.668,0-32.335-5.2216-42.969-14.031-10.64-8.81-18.24-21.25-24.6-35.69-5.84-13.26-20.18-53.7-34.06-93.44-13.86-39.659-27.242-78.589-31.565-89.654,52.965-3.6321,140.06-8.031,197.1-8.031z"/>
<path id="line7" style="baseline-shift:baseline;block-progression:tb;color:#000000;direction:ltr;text-indent:0;text-align:start;enable-background:accumulate;text-transform:none;" fill="#f4f4f4" d="m536.75,10.281a1.0011,1.0011,0,1,0,0.0937,2l4.5,0.21875a1.0011,1.0011,0,1,0,0.0937,-2l-4.4688-0.21875a1.0001,1.0001,0,0,0,-0.21875,0z"/>
<path id="path9" style="baseline-shift:baseline;block-progression:tb;color:#000000;direction:ltr;text-indent:0;text-align:start;enable-background:accumulate;text-transform:none;" fill="#f4f4f4" d="m280.69,16.344c-38.193,0-76.669,0.4005-90.938,1.2812-12.803,0.79035-27.763,2.1134-40.969,5.375s-24.736,8.427-30.5,17.156c-5.8499,8.8579-3.8297,22.476-0.25,34.688,3.5797,12.211,8.9015,23.213,10.094,26.344,1.2453,3.2683,8.7268,23.679,17.031,45.219,8.3044,21.54,17.371,44.149,22,52.281,5.8583,10.293,11.836,19.326,21.875,25.75,10.039,6.4241,24.04,10.156,45.812,10.156h50.906,53.25,50.875c21.772,0,35.774-3.7322,45.812-10.156,10.039-6.4241,16.016-15.457,21.875-25.75,4.6295-8.1324,13.696-30.742,22-52.281,8.3043-21.54,15.817-41.95,17.062-45.219,1.1923-3.1305,6.4828-14.133,10.062-26.344,3.5797-12.211,5.6311-25.83-0.21875-34.688-5.74-8.731-17.27-13.896-30.47-17.158-13.21-3.262-28.17-4.585-40.97-5.375-14.27-0.881-52.77-1.281-90.97-1.281h-63.344zm0,2,63.344,0c38.18,0,76.762,0.412,90.844,1.2812,12.759,0.78765,27.606,2.1048,40.594,5.3125s24.031,8.3147,29.312,16.312c5.1961,7.8681,3.5208,21.021,0,33.031s-8.6995,22.691-10.031,26.188c-1.2804,3.3595-8.7653,23.698-17.062,45.219-8.2972,21.521-17.453,44.287-21.844,52-5.8182,10.221-11.593,18.903-21.219,25.062-9.6259,6.1599-23.208,9.8438-44.75,9.8438h-50.875-53.25-50.906c-21.543,0-35.093-3.6839-44.719-9.8438-9.6259-6.1599-15.401-14.841-21.219-25.062-4.3905-7.7126-13.578-30.479-21.875-52-8.29-21.52-15.74-41.86-17.02-45.22-1.3317-3.4971-6.5417-14.178-10.062-26.188-3.5208-12.01-5.1961-25.163,0-33.031,5.281-7.9978,16.325-13.105,29.312-16.312,12.988-3.2077,27.865-4.5248,40.625-5.3125,14.082-0.86926,52.633-1.2812,90.812-1.2812z"/>
<path id="path11" style="baseline-shift:baseline;block-progression:tb;color:#000000;direction:ltr;text-indent:0;text-align:start;enable-background:accumulate;text-transform:none;" fill="#f4f4f4" d="m202.91,28.656c-2.8941,0-5.2812,2.3567-5.2812,5.25v173.28c0,2.8941,2.3872,5.25,5.2812,5.25h218.94c2.8941,0,5.25-2.3559,5.25-5.25v-173.28c0-2.8933-2.3559-5.25-5.25-5.25h-218.94zm0,2,218.94,0c1.8139,0,3.25,1.4373,3.25,3.25v173.28c0,1.8139-1.4361,3.25-3.25,3.25h-218.94c-1.8139,0-3.2812-1.4361-3.2812-3.25v-173.28c0-1.8127,1.4673-3.25,3.2812-3.25z"/>
<path id="path13" style="baseline-shift:baseline;block-progression:tb;color:#000000;direction:ltr;text-indent:0;text-align:start;enable-background:accumulate;text-transform:none;" fill="#f4f4f4" d="m214.72,44.75c-1.0635,0-1.9375,0.87403-1.9375,1.9375v147.41c0,1.0635,0.87403,1.9375,1.9375,1.9375h195.28c1.0635,0,1.9375-0.87403,1.9375-1.9375v-147.41c0-1.0635-0.87399-1.9375-1.9375-1.9375h-195.28zm0.0625,2,195.16,0,0,147.28-195.16,0,0-147.28z"/>
<path id="circle15" style="baseline-shift:baseline;block-progression:tb;color:#000000;direction:ltr;text-indent:0;text-align:start;enable-background:accumulate;text-transform:none;" fill="#f4f4f4" d="m171.25,93.031c-2.5883,0-4.6875,2.1304-4.6875,4.7188,0,2.5883,2.0992,4.7188,4.6875,4.7188s4.7188-2.1304,4.7188-4.7188c0-2.5883-2.1304-4.7188-4.7188-4.7188zm0,2c1.5074,0,2.7188,1.2113,2.7188,2.7188,0,1.5074-1.2113,2.7188-2.7188,2.7188-1.5074,0-2.6875-1.2113-2.6875-2.7188,0-1.5074,1.1801-2.7188,2.6875-2.7188z"/>
<path id="circle17" style="baseline-shift:baseline;block-progression:tb;color:#000000;direction:ltr;text-indent:0;text-align:start;enable-background:accumulate;text-transform:none;" fill="#f4f4f4" d="m70.625,88c-22.545,0-40.844,18.299-40.844,40.844s18.299,40.844,40.844,40.844,40.844-18.299,40.844-40.844c0-22.54-18.3-40.84-40.845-40.84zm0,2c21.464,0,38.844,17.38,38.844,38.844s-17.38,38.844-38.844,38.844-38.844-17.38-38.844-38.844c-0.001-21.46,17.379-38.84,38.843-38.84z"/>
<path id="circle19" style="baseline-shift:baseline;block-progression:tb;color:#000000;direction:ltr;text-indent:0;text-align:start;enable-background:accumulate;text-transform:none;" fill="#f4f4f4" d="m70.625,92.406c-20.105,0-36.406,16.333-36.406,36.438s16.302,36.406,36.406,36.406c20.105,0,36.438-16.302,36.438-36.406,0-20.105-16.333-36.438-36.438-36.438zm0,2c19.024,0,34.438,15.414,34.438,34.438s-15.414,34.406-34.438,34.406-34.406-15.383-34.406-34.406c0-19.024,15.383-34.438,34.406-34.438z"/>
<path id="path21" style="baseline-shift:baseline;block-progression:tb;color:#000000;direction:ltr;text-indent:0;text-align:start;enable-background:accumulate;text-transform:none;" fill="#f4f4f4" d="M70.656,94c-4.033-0.01-8.062,0.471-10.906,1.625a1.0001,1.0001,0,0,0,-0.625,0.9375v17.469h-1.2812a1.0001,1.0001,0,0,0,-0.71875,1.6875l12.781,12.78a1.0001,1.0001,0,0,0,1.4375,0l12.781-12.78a1.0001,1.0001,0,0,0,-0.71875,-1.6875h-1.2812v-17.469a1.0001,1.0001,0,0,0,-0.625,-0.936c-2.797-1.11-6.811-1.615-10.844-1.625zm0,2c3.5882,0.0091,7.0761,0.51999,9.4688,1.3438v17.594,0.0937a1.0001,1.0001,0,0,0,0.875,0.97l-10.375,10.38-10.375-10.38a1.0001,1.0001,0,0,0,0.53125,-0.28125l0.0625-0.0625a1.0001,1.0001,0,0,0,0.281,-0.72v-17.594c2.421-0.852,5.941-1.355,9.531-1.346z"/>
<path id="path23" style="baseline-shift:baseline;block-progression:tb;color:#000000;direction:ltr;text-indent:0;text-align:start;enable-background:accumulate;text-transform:none;" fill="#f4f4f4" d="m56.594,115.06a1.0001,1.0001,0,0,0,-0.78125,1v1.2812h-17.469a1.0001,1.0001,0,0,0,-0.90625,0.625c-1.1102,2.7968-1.6462,6.8104-1.6562,10.844-0.0101,4.0333,0.50158,8.0619,1.6562,10.906a1.0001,1.0001,0,0,0,0.90625,0.59375h17.469v1.3125a1.0001,1.0001,0,0,0,1.7188,0.6875l12.78-12.77a1.0001,1.0001,0,0,0,0,-1.4062l-12.781-12.78a1.0001,1.0001,0,0,0,-0.9375,-0.28125zm1.2188,3.375,10.375,10.375-10.375,10.406a1.0001,1.0001,0,0,0,-0.282,-0.54l-0.093-0.07a1.0001,1.0001,0,0,0,-0.688,-0.31h-17.625c-0.84947-2.4206-1.3527-5.9112-1.3438-9.5,0.009-3.5866,0.52075-7.0761,1.3438-9.4688h17.625,0.0625a1.0001,1.0001,0,0,0,1,-0.90625z"/>
<path id="path25" style="baseline-shift:baseline;block-progression:tb;color:#000000;direction:ltr;text-indent:0;text-align:start;enable-background:accumulate;text-transform:none;" fill="#f4f4f4" d="m70.406,128.88a1.0001,1.0001,0,0,0,-0.5,0.28125l-12.781,12.78a1.0001,1.0001,0,0,0,0.71875,1.7188h1.2812v17.438a1.0001,1.0001,0,0,0,0.65625,0.9375c2.7969,1.1108,6.7794,1.615,10.812,1.625,4.0331,0.01,8.0619-0.47036,10.906-1.625a1.0001,1.0001,0,0,0,0.625,-0.9375v-17.438h1.2812a1.0001,1.0001,0,0,0,0.72,-1.72l-12.781-12.78a1.0001,1.0001,0,0,0,-0.9375,-0.28125zm0.21875,2.4062,10.375,10.375a1.0001,1.0001,0,0,0,-0.5,0.28125l-0.094,0.06a1.0001,1.0001,0,0,0,-0.28125,0.71875v17.625c-2.4207,0.85012-5.9413,1.3214-9.5312,1.3125-3.5882-0.009-7.0762-0.48841-9.4688-1.3125v-17.625-0.0625a1.0001,1.0001,0,0,0,-0.875,-1l10.375-10.375z"/>
<path id="path27" style="baseline-shift:baseline;block-progression:tb;color:#000000;direction:ltr;text-indent:0;text-align:start;enable-background:accumulate;text-transform:none;" fill="#f4f4f4" d="m84.312,115.06a1.0001,1.0001,0,0,0,-0.59375,0.28125l-12.78,12.78a1.0001,1.0001,0,0,0,0,1.4062l12.781,12.781a1.0001,1.0001,0,0,0,1.7188,-0.6875v-1.3125h17.469a1.0001,1.0001,0,0,0,0.90625,-0.625c1.1107-2.7969,1.646-6.7793,1.6562-10.812,0.0102-4.0332-0.50154-8.0623-1.6562-10.906a1.0001,1.0001,0,0,0,-0.90625,-0.625h-17.469v-1.2812a1.0001,1.0001,0,0,0,-1.125,-1zm-0.84375,3.4062a1.0001,1.0001,0,0,0,0.25,0.5l0.09375,0.0937a1.0001,1.0001,0,0,0,0.6875,0.28125h17.625c0.85023,2.4202,1.3528,5.9408,1.3438,9.5312-0.009,3.5756-0.52498,7.0448-1.3438,9.4375h-17.625-0.0625a1.0001,1.0001,0,0,0,-1,0.84375l-10.37-10.34,10.407-10.34z"/>
<path id="path29" style="baseline-shift:baseline;block-progression:tb;color:#000000;direction:ltr;text-indent:0;text-align:start;enable-background:accumulate;text-transform:none;" fill="#f4f4f4" d="m48.5,105.06c-0.42984-0.00006-0.86533,0.14658-1.1875,0.46875-0.64344,0.64344-0.64344,1.7316,0,2.375l3.5938,3.5625c0.64507,0.64261,1.6987,0.64261,2.3438,0,0.64344-0.64344,0.64344-1.7316,0-2.375l-3.5625-3.5625c-0.323-0.31-0.758-0.46-1.188-0.46z"/>
<path id="path31" style="baseline-shift:baseline;block-progression:tb;color:#000000;direction:ltr;text-indent:0;text-align:start;enable-background:accumulate;text-transform:none;" fill="#f4f4f4" d="m52.094,145.72c-0.42972,0-0.86533,0.14658-1.1875,0.46875l-3.5625,3.5938v0.0312c-0.62413,0.64544-0.6675,1.6762-0.03125,2.3125,0.64407,0.64654,1.7299,0.64261,2.375,0l3.5625-3.5625c0.6439-0.6439,0.64524-1.7298,0-2.375-0.32217-0.32217-0.72653-0.46875-1.1562-0.46875z"/>
<path id="path33" style="baseline-shift:baseline;block-progression:tb;color:#000000;direction:ltr;text-indent:0;text-align:start;enable-background:accumulate;text-transform:none;" fill="#f4f4f4" d="m89.188,145.72c-0.42957-0.00006-0.86564,0.14812-1.1875,0.46875-0.64654,0.64407-0.64434,1.7307,0,2.375l3.5625,3.5625c0.64364,0.64611,1.7305,0.64696,2.375,0,0.64825-0.64332,0.64254-1.7012,0-2.3438l-3.562-3.59c-0.32172-0.32172-0.75793-0.46869-1.1875-0.46875z"/>
<path id="path35" style="baseline-shift:baseline;block-progression:tb;color:#000000;direction:ltr;text-indent:0;text-align:start;enable-background:accumulate;text-transform:none;" fill="#f4f4f4" d="m92.75,105.06c-0.42996,0-0.86546,0.14548-1.1875,0.46875l-3.562,3.56c-0.6439,0.6439-0.64524,1.7298,0,2.375,0.64417,0.64171,1.6996,0.64171,2.3438,0l3.5938-3.5625c0.64784-0.6429,0.64696-1.7305,0-2.375-0.32204-0.32327-0.75754-0.46875-1.1875-0.46875z"/>
<path id="path37" style="baseline-shift:baseline;block-progression:tb;color:#000000;direction:ltr;text-indent:0;text-align:start;enable-background:accumulate;text-transform:none;" fill="#f4f4f4" d="M81.812,9.4375c-15.176,1.0845-26.889,2.0595-33.343,2.8125-14.202,1.657-22.483,2.557-27.969,6.094-2.7428,1.7682-4.7217,4.2127-6.2188,7.5625-1.497,3.3498-2.5681,7.614-3.625,13.188-10.452,55.103-11.834,150.69-9.9375,197.62,0.94668,23.423,1.3561,42.288,9.6562,56.344s24.438,22.933,56.062,26.5c63.093,7.1172,186.15,8.0625,213.16,8.0625h65.562c27.006,0,150.03-0.94534,213.12-8.0625,31.625-3.5669,47.762-12.444,56.062-26.5,8.3001-14.056,8.7408-32.92,9.6875-56.344,1.897-46.939,0.48276-142.52-9.9688-197.62-1.0569-5.5733-2.128-9.8378-3.625-13.188-1.497-3.3497-3.476-5.7943-6.2188-7.5625-5.4855-3.5364-13.735-4.4367-27.938-6.0938-6.4553-0.75347-18.168-1.728-33.344-2.8125a1.0001,1.0001,0,0,0,-0.21875,0c-0.46127,0.062369-0.92611,0.20032-1.3125,0.5-0.37438,0.29036-0.59022,0.7134-0.75,1.125-0.002,0.0053-0.0292-0.0053-0.0312,0-0.002,0.0046,0.002,0.02668,0,0.03125-1.9121,4.8859-5.7387,15.571-10.656,29.562-0.005,0.01309,0.005,0.01815,0,0.03125-0.40189,1.1338-0.47113,2.2801,0,3.25,0.47531,0.9785,1.4257,1.6748,2.5938,2.125,7.5607,2.9169,12.875,10.294,12.875,18.906,0,11.225-9.0556,20.312-20.281,20.312-2.1037,0-4.1252-0.34407-6.0312-0.9375v0.03125c-1.2516-0.41424-2.3985-0.3429-3.2812,0.125-0.88276,0.4679-1.4465,1.2359-1.8438,1.9688a1.0001,1.0001,0,0,0,-0.0937,0.15625c-16.073,46.068-34.382,98.273-40.969,113.41-11.581,26.604-32.426,48.625-71.344,48.625h-60.438-57.594-60.438c-38.918,0-59.763-22.021-71.344-48.625-5.7808-13.282-20.603-55.141-35-96.312-14.392-41.155-28.385-81.626-32.688-92.625-0.003-0.0079,0.003-0.02337,0-0.03125h-0.03125c-0.179-0.423-0.395-0.846-0.769-1.1365-0.385-0.2994-0.852-0.4376-1.312-0.5a1.0001,1.0001,0,0,0,-0.1875,0zm0.03125,2c0.11868,0.02753,0.22853,0.07709,0.25,0.09375,0.02941,0.02282,0.07885,0.04391,0.15625,0.25a1.0001,1.0001,0,0,0,0,0.03125c4.2245,10.795,18.257,51.386,32.656,92.562s29.137,82.926,35.031,96.469c11.773,27.046,33.509,49.812,73.188,49.812h60.438,57.594,60.438c39.678,0,61.414-22.766,73.188-49.812,6.7092-15.416,24.907-67.4,40.969-113.44,0.008-0.01519,0.0229-0.01625,0.0312-0.03125,0.28012-0.50339,0.61692-0.8907,1-1.0938,0.39449-0.2091,0.86137-0.31501,1.7188-0.03125a1.0001,1.0001,0,0,0,0.0312,0c2.096,0.65257,4.3187,1.0312,6.625,1.0312,12.306,0,22.281-10.007,22.281-22.312,0-9.4395-5.8329-17.57-14.156-20.781-0.87394-0.33682-1.3103-0.7345-1.5-1.125-0.18969-0.3905-0.23173-0.9015,0.0625-1.7188,4.93-14.024,8.78-24.734,10.66-29.536a1.0001,1.0001,0,0,0,0,-0.03125c0.0769-0.20572,0.12714-0.22743,0.15625-0.25,0.0189-0.01467,0.12663-0.06901,0.21875-0.09375,15.101,1.08,26.795,2.0701,33.156,2.8125,14.201,1.6569,22.301,2.6714,27.125,5.7812,2.412,1.555,4.0865,3.6258,5.4688,6.7188,1.3823,3.0929,2.4232,7.2055,3.4688,12.719,10.378,54.72,11.828,150.4,9.9375,197.19-0.94732,23.44-1.4931,41.975-9.4062,55.375s-23.228,22.028-54.562,25.562c-62.825,7.0868-185.95,8.0312-212.91,8.0312h-65.562c-26.96,0-150.08-0.94441-212.91-8.0312-31.337-3.54-46.683-12.17-54.596-25.57-7.9134-13.4-8.4279-31.93-9.3752-55.37-1.89-46.79-0.4723-142.47,9.9062-197.19,1.0456-5.5135,2.1177-9.6257,3.5-12.719,1.3823-3.0931,3.0568-5.1638,5.4688-6.7188,4.824-3.1099,12.893-4.1248,27.094-5.7812,6.3598-0.74244,18.055-1.7325,33.156-2.8125z"/>
<path id="path39" style="baseline-shift:baseline;block-progression:tb;color:#000000;direction:ltr;text-indent:0;text-align:start;enable-background:accumulate;text-transform:none;" fill="#f4f4f4" d="m531.31,47.281c-0.61647-0.15353-1.3261-0.23948-2.0312,0.0625-0.70513,0.30198-1.2096,0.93471-1.5625,1.7812a1.0001,1.0001,0,0,0,-0.0312,0.0625l-9.8125,29.031v0.03125c-0.21994,0.60154-0.34783,1.1241-0.375,1.625-0.0277,0.51007,0.0678,1.0265,0.34375,1.4375,0.55199,0.82191,1.3521,1.0357,2.1562,1.3438a1.0001,1.0001,0,0,0,0.0937,0.03125c1.6996,0.51293,3.4787,0.78125,5.3438,0.78125,10.246,0,18.594-8.3161,18.594-18.562,0-8.1677-5.2817-15.112-12.625-17.594a1.0001,1.0001,0,0,0,-0.0937,-0.03125zm-1.25,1.9062c0.0959-0.04106,0.34498-0.06419,0.75,0.03125,0.0168,0.004,0.0137-0.0044,0.0312,0,6.4981,2.2395,11.188,8.4161,11.188,15.688,0,9.1656-7.4282,16.562-16.594,16.562-1.6689,0-3.2668-0.23043-4.7812-0.6875-0.72159-0.28527-1.1294-0.52258-1.1562-0.5625-0.0141-0.02104-0.0419-0.02182-0.0312-0.21875s0.0939-0.5544,0.28125-1.0625a1.0001,1.0001,0,0,0,0,-0.03125l9.8125-29c0.0119-0.02849,0.0197-0.005,0.0312-0.03125v-0.03125c0.21077-0.46361,0.37676-0.61686,0.46875-0.65625z"/>
<path id="circle41" style="baseline-shift:baseline;block-progression:tb;color:#000000;direction:ltr;text-indent:0;text-align:start;enable-background:accumulate;text-transform:none;" fill="#f4f4f4" d="m531.44,62.656c-1.9294,0-3.5,1.6018-3.5,3.5312s1.5706,3.5,3.5,3.5,3.5312-1.5706,3.5312-3.5-1.6018-3.5312-3.5312-3.5312zm0,2c0.84856,0,1.5312,0.68269,1.5312,1.5312,0,0.84856-0.68269,1.5-1.5312,1.5-0.84856,0-1.5-0.65144-1.5-1.5s0.65144-1.5312,1.5-1.5312z"/>
<path id="circle43" style="baseline-shift:baseline;block-progression:tb;color:#000000;direction:ltr;text-indent:0;text-align:start;enable-background:accumulate;text-transform:none;" fill="#f4f4f4" d="m527.59,134.62c-9.8868,0-17.906,8.0195-17.906,17.906,0,9.8868,8.0195,17.938,17.906,17.938,9.8868,0,17.938-8.0507,17.938-17.938,0-9.8868-8.0507-17.906-17.938-17.906zm0,2c8.8059,0,15.938,7.1004,15.938,15.906,0,8.8059-7.1316,15.938-15.938,15.938-8.8059,0-15.906-7.1316-15.906-15.938,0-8.8059,7.1004-15.906,15.906-15.906z"/>
<path id="circle45" style="baseline-shift:baseline;block-progression:tb;color:#000000;direction:ltr;text-indent:0;text-align:start;enable-background:accumulate;text-transform:none;" fill="#f4f4f4" d="m527.59,137.22c-8.4486,0-15.312,6.8639-15.312,15.312,0,8.4486,6.8639,15.344,15.312,15.344,8.4486,0,15.312-6.8951,15.312-15.344,0-8.4486-6.8639-15.312-15.312-15.312zm0,2c7.3677,0,13.312,5.9448,13.312,13.312,0,7.3677-5.9448,13.344-13.312,13.344-7.3677,0-13.312-5.976-13.312-13.344,0-7.3677,5.9448-13.312,13.312-13.312z"/>
<path id="circle47" style="baseline-shift:baseline;block-progression:tb;color:#000000;direction:ltr;text-indent:0;text-align:start;enable-background:accumulate;text-transform:none;" fill="#f4f4f4" d="m574.22,98.875c-9.8868,0-17.906,8.0507-17.906,17.938,0,9.8868,8.0195,17.906,17.906,17.906,9.8868,0,17.938-8.0195,17.938-17.906,0-9.8868-8.0507-17.938-17.938-17.938zm0,2c8.8059,0,15.938,7.1316,15.938,15.938,0,8.8059-7.1316,15.906-15.938,15.906-8.8059,0-15.906-7.1004-15.906-15.906,0-8.8059,7.1004-15.938,15.906-15.938z"/>
<path id="circle49" style="baseline-shift:baseline;block-progression:tb;color:#000000;direction:ltr;text-indent:0;text-align:start;enable-background:accumulate;text-transform:none;" fill="#f4f4f4" d="m574.22,101.47c-8.4492,0-15.312,6.8946-15.312,15.344,0,8.4492,6.8633,15.312,15.312,15.312,8.4492,0,15.312-6.8633,15.312-15.312,0-8.4492-6.8633-15.344-15.312-15.344zm0,2c7.3683,0,13.312,5.9755,13.312,13.344,0,7.3683-5.9442,13.312-13.312,13.312-7.3683,0-13.312-5.9442-13.312-13.312,0-7.3683,5.9442-13.344,13.312-13.344z"/>
<path id="path51" style="baseline-shift:baseline;block-progression:tb;color:#000000;direction:ltr;text-indent:0;text-align:start;enable-background:accumulate;text-transform:none;" fill="#f4f4f4" d="m574.22,94.906c-12.087,0-21.906,9.8188-21.906,21.906,0,0.22518-0.008,0.43182,0,0.65625,0.00037,0.0107-0.00038,0.0206,0,0.0312,0.001,0.5699,0.0574,1.1114,0,1.5-0.0585,0.39665-0.15272,0.58305-0.40625,0.78125-4.746,3.6002-9.5568,7.7345-14.344,12.344-0.58577,0.39863-1.0551,0.32829-1.8125,0.0625-0.009-0.004-0.022,0.004-0.0312,0-2.5137-1.0057-5.257-1.5625-8.125-1.5625-12.086,0-21.906,9.8188-21.906,21.906,0,4.3472,1.2809,8.404,3.4688,11.812a1.0001,1.0001,0,0,0,0,0.0312c0.2555,0.39429,0.38744,0.69746,0.4375,0.96875,0.0451,0.24432,0.0375,0.50585-0.125,0.875-0.0179,0.0407-0.009,0.0494-0.0312,0.0937-8.3011,12.941-13.852,25.422-16.062,35.875-2.2154,10.476-1.1241,19.082,4.375,23.75,3.4534,2.9311,8.2195,3.8951,13.688,3.25,5.468-0.64507,11.697-2.8904,18.375-6.4688,13.355-7.1566,28.481-19.705,42.312-36s23.765-33.253,28.656-47.594c2.4457-7.1702,3.6271-13.687,3.375-19.188-0.25207-5.5001-1.9841-10.038-5.4375-12.969-1.5172-1.2869-3.2776-2.191-5.25-2.75a1.0001,1.0001,0,0,0,-0.22,-0.02c-0.29513-0.0133-1.1009-0.20503-1.7812-0.90625-4.0109-5.1032-10.261-8.375-17.25-8.375zm0,2c6.3996,0,12.075,3.0027,15.719,7.6875a1.0001,1.0001,0,0,0,0.0937,0.0937c0.98925,1.0196,2.0672,1.3522,2.875,1.4375,0.009,0.00094,0.0224-0.00087,0.0312,0,1.7136,0.48955,3.2184,1.2879,4.5,2.375,2.9301,2.4869,4.4833,6.3942,4.7188,11.531,0.23543,5.1371-0.89149,11.463-3.2812,18.469-4.7795,14.012-14.588,30.805-28.281,46.938-13.694,16.133-28.669,28.538-41.719,35.531-6.5247,3.4964-12.549,5.6162-17.656,6.2188-5.1072,0.6025-9.2261-0.29432-12.156-2.7812-4.6659-3.9608-5.8914-11.687-3.75-21.812,2.1414-10.126,7.6107-22.462,15.844-35.281a1.0001,1.0001,0,0,0,0.0625,-0.0937c0.3764-0.76099,0.46919-1.5703,0.34375-2.25-0.12544-0.67971-0.4385-1.2068-0.75-1.6875-1.9882-3.0975-3.125-6.7912-3.125-10.75,0-11.007,8.9007-19.906,19.906-19.906,2.6215,0,5.1175,0.51819,7.4062,1.4375a1.0001,1.0001,0,0,0,0.0312,0c1.0155,0.36001,2.4232,0.55791,3.6562-0.28125a1.0001,1.0001,0,0,0,0.125,-0.0937c4.7763-4.6082,9.5916-8.7314,14.312-12.312,0.72247-0.5648,1.0533-1.3962,1.1562-2.0938,0.10296-0.6976,0.0312-1.3322,0.0312-1.8125a1.0001,1.0001,0,0,0,0,-0.0312c-0.008-0.21096,0-0.4129,0-0.625,0-11.007,8.8996-19.906,19.906-19.906z"/>
<path id="path53" style="baseline-shift:baseline;block-progression:tb;color:#000000;direction:ltr;text-indent:0;text-align:start;enable-background:accumulate;text-transform:none;" fill="#f4f4f4" d="m70.625,82.719c-9.7273,0-18.702,3.0815-26.188,8.125-2.8697,1.9332-5.3992,2.3857-7.7188,2.0625-2.3195-0.32316-4.4598-1.4509-6.25-2.875-3.5804-2.8482-5.75-6.75-5.75-6.75a1.0078,1.0078,0,1,0,-1.75,1s2.3219,4.1629,6.2812,7.3125c1.9797,1.5748,4.3976,2.9238,7.1875,3.3125,2.7899,0.38869,5.9092-0.23991,9.125-2.4062,7.1868-4.8425,15.76-7.7812,25.062-7.7812,24.384,0,44.125,19.742,44.125,44.125,0,12.826-0.66294,34.745-8.9062,54.812s-23.924,38.261-54.375,44a1.0021,1.0021,0,1,0,0.375,1.9688c31.089-5.8591,47.452-24.714,55.875-45.219,8.4232-20.505,9.0312-42.67,9.0312-55.562,0-25.463-20.661-46.125-46.125-46.125z"/>
<path id="polyline55" style="baseline-shift:baseline;block-progression:tb;color:#000000;direction:ltr;text-indent:0;text-align:start;enable-background:accumulate;text-transform:none;" fill="#f4f4f4" d="M186.34,0,131.75,2.7188a1.0001,1.0001,0,0,0,-0.96875,1.0625l0.16,3.4687a1.0011,1.0011,0,1,0,2,-0.09375l-0.125-2.5,52.625-2.5938,0.125,2.4688a1.0011,1.0011,0,1,0,2,-0.09375l-0.15625-3.5a1.0001,1.0001,0,0,0,-1.06,-0.9374z"/>
</svg>
