<?xml version="1.0" encoding="UTF-8" standalone="no"?>
<!-- Created with Inkscape (http://www.inkscape.org/) -->

<svg
   xmlns:dc="http://purl.org/dc/elements/1.1/"
   xmlns:cc="http://creativecommons.org/ns#"
   xmlns:rdf="http://www.w3.org/1999/02/22-rdf-syntax-ns#"
   xmlns:svg="http://www.w3.org/2000/svg"
   xmlns="http://www.w3.org/2000/svg"
   version="1.2"
   width="607.86798"
   height="269.13501"
   viewBox="0 0 607.868 269.135"
   id="Layer_3"
   xml:space="preserve"><metadata
   id="metadata147"><rdf:RDF><cc:Work
       rdf:about=""><dc:format>image/svg+xml</dc:format><dc:type
         rdf:resource="http://purl.org/dc/dcmitype/StillImage" /><dc:title></dc:title></cc:Work></rdf:RDF></metadata><defs
   id="defs145" />
<path
   d="m 118.0625,42.96875 c -41.468607,0 -75.09375,33.625143 -75.09375,75.09375 0,41.46861 33.625143,75.125 75.09375,75.125 41.46861,0 75.125,-33.65639 75.125,-75.125 0,-41.468607 -33.65639,-75.09375 -75.125,-75.09375 z m 0,2 c 40.38773,0 73.125,32.706023 73.125,73.09375 0,40.38773 -32.73727,73.125 -73.125,73.125 -40.387727,0 -73.09375,-32.73727 -73.09375,-73.125 0,-40.387727 32.706023,-73.09375 73.09375,-73.09375 z"
   id="circle3"
   style="font-size:medium;font-style:normal;font-variant:normal;font-weight:normal;font-stretch:normal;text-indent:0;text-align:start;text-decoration:none;line-height:normal;letter-spacing:normal;word-spacing:normal;text-transform:none;direction:ltr;block-progression:tb;writing-mode:lr-tb;text-anchor:start;baseline-shift:baseline;color:#000000;fill:#f4f4f4;fill-opacity:1;stroke:none;stroke-width:2;marker:none;visibility:visible;display:inline;overflow:visible;enable-background:accumulate;font-family:Sans;-inkscape-font-specification:Sans" />
<path
   d="m 118.0625,59.28125 c -32.4509,0 -58.75,26.33035 -58.75,58.78125 0,32.4509 26.2991,58.78125 58.75,58.78125 32.4509,0 58.78125,-26.33035 58.78125,-58.78125 0,-32.4509 -26.33035,-58.78125 -58.78125,-58.78125 z m 0,2 c 31.37002,0 56.78125,25.41123 56.78125,56.78125 0,31.37002 -25.41123,56.78125 -56.78125,56.78125 -31.37002,0 -56.75,-25.41123 -56.75,-56.78125 0,-31.37002 25.37998,-56.78125 56.75,-56.78125 z"
   id="circle5"
   style="font-size:medium;font-style:normal;font-variant:normal;font-weight:normal;font-stretch:normal;text-indent:0;text-align:start;text-decoration:none;line-height:normal;letter-spacing:normal;word-spacing:normal;text-transform:none;direction:ltr;block-progression:tb;writing-mode:lr-tb;text-anchor:start;baseline-shift:baseline;color:#000000;fill:#f4f4f4;fill-opacity:1;stroke:none;stroke-width:2;marker:none;visibility:visible;display:inline;overflow:visible;enable-background:accumulate;font-family:Sans;-inkscape-font-specification:Sans" />
<path
   d="m 118.0625,104.1875 c -7.65111,0 -13.875,6.22389 -13.875,13.875 0,7.65111 6.22389,13.875 13.875,13.875 7.65111,0 13.875,-6.22389 13.875,-13.875 0,-7.65111 -6.22389,-13.875 -13.875,-13.875 z m 0,2 c 6.57023,0 11.875,5.30477 11.875,11.875 0,6.57023 -5.30477,11.875 -11.875,11.875 -6.57023,0 -11.875,-5.30477 -11.875,-11.875 0,-6.57023 5.30477,-11.875 11.875,-11.875 z"
   id="circle7"
   style="font-size:medium;font-style:normal;font-variant:normal;font-weight:normal;font-stretch:normal;text-indent:0;text-align:start;text-decoration:none;line-height:normal;letter-spacing:normal;word-spacing:normal;text-transform:none;direction:ltr;block-progression:tb;writing-mode:lr-tb;text-anchor:start;baseline-shift:baseline;color:#000000;fill:#f4f4f4;fill-opacity:1;stroke:none;stroke-width:2;marker:none;visibility:visible;display:inline;overflow:visible;enable-background:accumulate;font-family:Sans;-inkscape-font-specification:Sans" />
<path
   d="m 516.4375,56.375 c -2.69877,0 -4.90625,2.207481 -4.90625,4.90625 0,2.698769 2.20748,4.90625 4.90625,4.90625 2.69877,0 4.90625,-2.207481 4.90625,-4.90625 0,-2.698769 -2.20748,-4.90625 -4.90625,-4.90625 z m 0,2 c 1.61789,0 2.90625,1.288361 2.90625,2.90625 0,1.617889 -1.28836,2.90625 -2.90625,2.90625 -1.61789,0 -2.90625,-1.288361 -2.90625,-2.90625 0,-1.617889 1.28836,-2.90625 2.90625,-2.90625 z"
   id="circle9"
   style="font-size:medium;font-style:normal;font-variant:normal;font-weight:normal;font-stretch:normal;text-indent:0;text-align:start;text-decoration:none;line-height:normal;letter-spacing:normal;word-spacing:normal;text-transform:none;direction:ltr;block-progression:tb;writing-mode:lr-tb;text-anchor:start;baseline-shift:baseline;color:#000000;fill:#f4f4f4;fill-opacity:1;stroke:none;stroke-width:2;marker:none;visibility:visible;display:inline;overflow:visible;enable-background:accumulate;font-family:Sans;-inkscape-font-specification:Sans" />
<path
   d="m 531.8125,46.90625 c -2.69877,0 -4.9375,2.207481 -4.9375,4.90625 0,2.698769 2.23873,4.90625 4.9375,4.90625 2.69877,0 4.90625,-2.207481 4.90625,-4.90625 0,-2.698769 -2.20748,-4.90625 -4.90625,-4.90625 z m 0,2 c 1.61789,0 2.90625,1.288361 2.90625,2.90625 0,1.617889 -1.28836,2.90625 -2.90625,2.90625 -1.61789,0 -2.9375,-1.288361 -2.9375,-2.90625 0,-1.617889 1.31961,-2.90625 2.9375,-2.90625 z"
   id="circle11"
   style="font-size:medium;font-style:normal;font-variant:normal;font-weight:normal;font-stretch:normal;text-indent:0;text-align:start;text-decoration:none;line-height:normal;letter-spacing:normal;word-spacing:normal;text-transform:none;direction:ltr;block-progression:tb;writing-mode:lr-tb;text-anchor:start;baseline-shift:baseline;color:#000000;fill:#f4f4f4;fill-opacity:1;stroke:none;stroke-width:2;marker:none;visibility:visible;display:inline;overflow:visible;enable-background:accumulate;font-family:Sans;-inkscape-font-specification:Sans" />
<path
   d="m 552.5625,59.21875 c -2.69877,0 -4.90625,2.207481 -4.90625,4.90625 0,2.698769 2.20748,4.90625 4.90625,4.90625 2.69877,0 4.90625,-2.207481 4.90625,-4.90625 0,-2.698769 -2.20748,-4.90625 -4.90625,-4.90625 z m 0,2 c 1.61789,0 2.90625,1.288361 2.90625,2.90625 0,1.617889 -1.28836,2.90625 -2.90625,2.90625 -1.61789,0 -2.90625,-1.288361 -2.90625,-2.90625 0,-1.617889 1.28836,-2.90625 2.90625,-2.90625 z"
   id="circle13"
   style="font-size:medium;font-style:normal;font-variant:normal;font-weight:normal;font-stretch:normal;text-indent:0;text-align:start;text-decoration:none;line-height:normal;letter-spacing:normal;word-spacing:normal;text-transform:none;direction:ltr;block-progression:tb;writing-mode:lr-tb;text-anchor:start;baseline-shift:baseline;color:#000000;fill:#f4f4f4;fill-opacity:1;stroke:none;stroke-width:2;marker:none;visibility:visible;display:inline;overflow:visible;enable-background:accumulate;font-family:Sans;-inkscape-font-specification:Sans" />
<path
   d="m 570,75.875 c -2.69877,0 -4.90625,2.207481 -4.90625,4.90625 0,2.698769 2.20748,4.90625 4.90625,4.90625 2.69877,0 4.90625,-2.207481 4.90625,-4.90625 0,-2.698769 -2.20748,-4.90625 -4.90625,-4.90625 z m 0,2 c 1.61789,0 2.90625,1.288361 2.90625,2.90625 0,1.617889 -1.28836,2.90625 -2.90625,2.90625 -1.61789,0 -2.90625,-1.288361 -2.90625,-2.90625 0,-1.617889 1.28836,-2.90625 2.90625,-2.90625 z"
   id="circle15"
   style="font-size:medium;font-style:normal;font-variant:normal;font-weight:normal;font-stretch:normal;text-indent:0;text-align:start;text-decoration:none;line-height:normal;letter-spacing:normal;word-spacing:normal;text-transform:none;direction:ltr;block-progression:tb;writing-mode:lr-tb;text-anchor:start;baseline-shift:baseline;color:#000000;fill:#f4f4f4;fill-opacity:1;stroke:none;stroke-width:2;marker:none;visibility:visible;display:inline;overflow:visible;enable-background:accumulate;font-family:Sans;-inkscape-font-specification:Sans" />
<path
   d="m 583.28125,96.03125 c -2.69877,0 -4.90625,2.238731 -4.90625,4.9375 0,2.69877 2.20748,4.90625 4.90625,4.90625 2.69877,0 4.90625,-2.20748 4.90625,-4.90625 0,-2.698769 -2.20748,-4.9375 -4.90625,-4.9375 z m 0,2 c 1.61789,0 2.90625,1.319611 2.90625,2.9375 0,1.61789 -1.28836,2.90625 -2.90625,2.90625 -1.61789,0 -2.90625,-1.28836 -2.90625,-2.90625 0,-1.617889 1.28836,-2.9375 2.90625,-2.9375 z"
   id="circle17"
   style="font-size:medium;font-style:normal;font-variant:normal;font-weight:normal;font-stretch:normal;text-indent:0;text-align:start;text-decoration:none;line-height:normal;letter-spacing:normal;word-spacing:normal;text-transform:none;direction:ltr;block-progression:tb;writing-mode:lr-tb;text-anchor:start;baseline-shift:baseline;color:#000000;fill:#f4f4f4;fill-opacity:1;stroke:none;stroke-width:2;marker:none;visibility:visible;display:inline;overflow:visible;enable-background:accumulate;font-family:Sans;-inkscape-font-specification:Sans" />
<path
   d="m 591.65625,118.6875 c -2.69877,0 -4.90625,2.20748 -4.90625,4.90625 0,2.69877 2.20748,4.90625 4.90625,4.90625 2.69877,0 4.90625,-2.20748 4.90625,-4.90625 0,-2.69877 -2.20748,-4.90625 -4.90625,-4.90625 z m 0,2 c 1.61789,0 2.90625,1.28836 2.90625,2.90625 0,1.61789 -1.28836,2.90625 -2.90625,2.90625 -1.61789,0 -2.90625,-1.28836 -2.90625,-2.90625 0,-1.61789 1.28836,-2.90625 2.90625,-2.90625 z"
   id="circle19"
   style="font-size:medium;font-style:normal;font-variant:normal;font-weight:normal;font-stretch:normal;text-indent:0;text-align:start;text-decoration:none;line-height:normal;letter-spacing:normal;word-spacing:normal;text-transform:none;direction:ltr;block-progression:tb;writing-mode:lr-tb;text-anchor:start;baseline-shift:baseline;color:#000000;fill:#f4f4f4;fill-opacity:1;stroke:none;stroke-width:2;marker:none;visibility:visible;display:inline;overflow:visible;enable-background:accumulate;font-family:Sans;-inkscape-font-specification:Sans" />
<path
   d="m 594.71875,142.625 c -2.69877,0 -4.90625,2.20748 -4.90625,4.90625 0,2.69877 2.20748,4.90625 4.90625,4.90625 2.69877,0 4.90625,-2.20748 4.90625,-4.90625 0,-2.69877 -2.20748,-4.90625 -4.90625,-4.90625 z m 0,2 c 1.61789,0 2.90625,1.28836 2.90625,2.90625 0,1.61789 -1.28836,2.90625 -2.90625,2.90625 -1.61789,0 -2.90625,-1.28836 -2.90625,-2.90625 0,-1.61789 1.28836,-2.90625 2.90625,-2.90625 z"
   id="circle21"
   style="font-size:medium;font-style:normal;font-variant:normal;font-weight:normal;font-stretch:normal;text-indent:0;text-align:start;text-decoration:none;line-height:normal;letter-spacing:normal;word-spacing:normal;text-transform:none;direction:ltr;block-progression:tb;writing-mode:lr-tb;text-anchor:start;baseline-shift:baseline;color:#000000;fill:#f4f4f4;fill-opacity:1;stroke:none;stroke-width:2;marker:none;visibility:visible;display:inline;overflow:visible;enable-background:accumulate;font-family:Sans;-inkscape-font-specification:Sans" />
<path
   d="m 592.34375,166.625 c -2.69877,0 -4.90625,2.20748 -4.90625,4.90625 0,2.69877 2.20748,4.90625 4.90625,4.90625 2.69877,0 4.90625,-2.20748 4.90625,-4.90625 0,-2.69877 -2.20748,-4.90625 -4.90625,-4.90625 z m 0,2 c 1.61789,0 2.90625,1.28836 2.90625,2.90625 0,1.61789 -1.28836,2.90625 -2.90625,2.90625 -1.61789,0 -2.90625,-1.28836 -2.90625,-2.90625 0,-1.61789 1.28836,-2.90625 2.90625,-2.90625 z"
   id="circle23"
   style="font-size:medium;font-style:normal;font-variant:normal;font-weight:normal;font-stretch:normal;text-indent:0;text-align:start;text-decoration:none;line-height:normal;letter-spacing:normal;word-spacing:normal;text-transform:none;direction:ltr;block-progression:tb;writing-mode:lr-tb;text-anchor:start;baseline-shift:baseline;color:#000000;fill:#f4f4f4;fill-opacity:1;stroke:none;stroke-width:2;marker:none;visibility:visible;display:inline;overflow:visible;enable-background:accumulate;font-family:Sans;-inkscape-font-specification:Sans" />
<path
   d="m 584.59375,189.5 c -2.69877,0 -4.90625,2.20748 -4.90625,4.90625 0,2.69877 2.20748,4.90625 4.90625,4.90625 2.69877,0 4.90625,-2.20748 4.90625,-4.90625 0,-2.69877 -2.20748,-4.90625 -4.90625,-4.90625 z m 0,2 c 1.61789,0 2.90625,1.28836 2.90625,2.90625 0,1.61789 -1.28836,2.90625 -2.90625,2.90625 -1.61789,0 -2.90625,-1.28836 -2.90625,-2.90625 0,-1.61789 1.28836,-2.90625 2.90625,-2.90625 z"
   id="circle25"
   style="font-size:medium;font-style:normal;font-variant:normal;font-weight:normal;font-stretch:normal;text-indent:0;text-align:start;text-decoration:none;line-height:normal;letter-spacing:normal;word-spacing:normal;text-transform:none;direction:ltr;block-progression:tb;writing-mode:lr-tb;text-anchor:start;baseline-shift:baseline;color:#000000;fill:#f4f4f4;fill-opacity:1;stroke:none;stroke-width:2;marker:none;visibility:visible;display:inline;overflow:visible;enable-background:accumulate;font-family:Sans;-inkscape-font-specification:Sans" />
<path
   d="m 571.9375,210.03125 c -2.69877,0 -4.90625,2.20748 -4.90625,4.90625 0,2.69877 2.20748,4.90625 4.90625,4.90625 2.69877,0 4.90625,-2.20748 4.90625,-4.90625 0,-2.69877 -2.20748,-4.90625 -4.90625,-4.90625 z m 0,2 c 1.61789,0 2.90625,1.28836 2.90625,2.90625 0,1.61789 -1.28836,2.90625 -2.90625,2.90625 -1.61789,0 -2.90625,-1.28836 -2.90625,-2.90625 0,-1.61789 1.28836,-2.90625 2.90625,-2.90625 z"
   id="circle27"
   style="font-size:medium;font-style:normal;font-variant:normal;font-weight:normal;font-stretch:normal;text-indent:0;text-align:start;text-decoration:none;line-height:normal;letter-spacing:normal;word-spacing:normal;text-transform:none;direction:ltr;block-progression:tb;writing-mode:lr-tb;text-anchor:start;baseline-shift:baseline;color:#000000;fill:#f4f4f4;fill-opacity:1;stroke:none;stroke-width:2;marker:none;visibility:visible;display:inline;overflow:visible;enable-background:accumulate;font-family:Sans;-inkscape-font-specification:Sans" />
<path
   d="m 554.96875,227.1875 c -2.69877,0 -4.90625,2.20748 -4.90625,4.90625 0,2.69877 2.20748,4.90625 4.90625,4.90625 2.69877,0 4.90625,-2.20748 4.90625,-4.90625 0,-2.69877 -2.20748,-4.90625 -4.90625,-4.90625 z m 0,2 c 1.61789,0 2.90625,1.28836 2.90625,2.90625 0,1.61789 -1.28836,2.90625 -2.90625,2.90625 -1.61789,0 -2.90625,-1.28836 -2.90625,-2.90625 0,-1.61789 1.28836,-2.90625 2.90625,-2.90625 z"
   id="circle29"
   style="font-size:medium;font-style:normal;font-variant:normal;font-weight:normal;font-stretch:normal;text-indent:0;text-align:start;text-decoration:none;line-height:normal;letter-spacing:normal;word-spacing:normal;text-transform:none;direction:ltr;block-progression:tb;writing-mode:lr-tb;text-anchor:start;baseline-shift:baseline;color:#000000;fill:#f4f4f4;fill-opacity:1;stroke:none;stroke-width:2;marker:none;visibility:visible;display:inline;overflow:visible;enable-background:accumulate;font-family:Sans;-inkscape-font-specification:Sans" />
<path
   d="m 534.5625,240.09375 c -2.69877,0 -4.90625,2.20748 -4.90625,4.90625 0,2.69877 2.20748,4.90625 4.90625,4.90625 2.69877,0 4.90625,-2.20748 4.90625,-4.90625 0,-2.69877 -2.20748,-4.90625 -4.90625,-4.90625 z m 0,2 c 1.61789,0 2.90625,1.28836 2.90625,2.90625 0,1.61789 -1.28836,2.90625 -2.90625,2.90625 -1.61789,0 -2.90625,-1.28836 -2.90625,-2.90625 0,-1.61789 1.28836,-2.90625 2.90625,-2.90625 z"
   id="circle31"
   style="font-size:medium;font-style:normal;font-variant:normal;font-weight:normal;font-stretch:normal;text-indent:0;text-align:start;text-decoration:none;line-height:normal;letter-spacing:normal;word-spacing:normal;text-transform:none;direction:ltr;block-progression:tb;writing-mode:lr-tb;text-anchor:start;baseline-shift:baseline;color:#000000;fill:#f4f4f4;fill-opacity:1;stroke:none;stroke-width:2;marker:none;visibility:visible;display:inline;overflow:visible;enable-background:accumulate;font-family:Sans;-inkscape-font-specification:Sans" />
<path
   d="m 535.46875,65 c -2.69877,0 -4.90625,2.207481 -4.90625,4.90625 0,2.698769 2.20748,4.90625 4.90625,4.90625 2.69877,0 4.90625,-2.207481 4.90625,-4.90625 C 540.375,67.207481 538.16752,65 535.46875,65 z m 0,2 c 1.61789,0 2.90625,1.288361 2.90625,2.90625 0,1.617889 -1.28836,2.90625 -2.90625,2.90625 -1.61789,0 -2.90625,-1.288361 -2.90625,-2.90625 0,-1.617889 1.28836,-2.90625 2.90625,-2.90625 z"
   id="circle33"
   style="font-size:medium;font-style:normal;font-variant:normal;font-weight:normal;font-stretch:normal;text-indent:0;text-align:start;text-decoration:none;line-height:normal;letter-spacing:normal;word-spacing:normal;text-transform:none;direction:ltr;block-progression:tb;writing-mode:lr-tb;text-anchor:start;baseline-shift:baseline;color:#000000;fill:#f4f4f4;fill-opacity:1;stroke:none;stroke-width:2;marker:none;visibility:visible;display:inline;overflow:visible;enable-background:accumulate;font-family:Sans;-inkscape-font-specification:Sans" />
<path
   d="m 552.0625,77.6875 c -2.69877,0 -4.90625,2.207481 -4.90625,4.90625 0,2.698769 2.20748,4.90625 4.90625,4.90625 2.69877,0 4.90625,-2.207481 4.90625,-4.90625 0,-2.698769 -2.20748,-4.90625 -4.90625,-4.90625 z m 0,2 c 1.61789,0 2.90625,1.288361 2.90625,2.90625 0,1.617889 -1.28836,2.90625 -2.90625,2.90625 -1.61789,0 -2.90625,-1.288361 -2.90625,-2.90625 0,-1.617889 1.28836,-2.90625 2.90625,-2.90625 z"
   id="circle35"
   style="font-size:medium;font-style:normal;font-variant:normal;font-weight:normal;font-stretch:normal;text-indent:0;text-align:start;text-decoration:none;line-height:normal;letter-spacing:normal;word-spacing:normal;text-transform:none;direction:ltr;block-progression:tb;writing-mode:lr-tb;text-anchor:start;baseline-shift:baseline;color:#000000;fill:#f4f4f4;fill-opacity:1;stroke:none;stroke-width:2;marker:none;visibility:visible;display:inline;overflow:visible;enable-background:accumulate;font-family:Sans;-inkscape-font-specification:Sans" />
<path
   d="m 565.375,93.75 c -2.69877,0 -4.90625,2.207481 -4.90625,4.90625 0,2.69877 2.20748,4.90625 4.90625,4.90625 2.69877,0 4.90625,-2.20748 4.90625,-4.90625 0,-2.698769 -2.20748,-4.90625 -4.90625,-4.90625 z m 0,2 c 1.61789,0 2.90625,1.288361 2.90625,2.90625 0,1.61789 -1.28836,2.90625 -2.90625,2.90625 -1.61789,0 -2.90625,-1.28836 -2.90625,-2.90625 0,-1.617889 1.28836,-2.90625 2.90625,-2.90625 z"
   id="circle37"
   style="font-size:medium;font-style:normal;font-variant:normal;font-weight:normal;font-stretch:normal;text-indent:0;text-align:start;text-decoration:none;line-height:normal;letter-spacing:normal;word-spacing:normal;text-transform:none;direction:ltr;block-progression:tb;writing-mode:lr-tb;text-anchor:start;baseline-shift:baseline;color:#000000;fill:#f4f4f4;fill-opacity:1;stroke:none;stroke-width:2;marker:none;visibility:visible;display:inline;overflow:visible;enable-background:accumulate;font-family:Sans;-inkscape-font-specification:Sans" />
<path
   d="m 574.71875,112.4375 c -2.69877,0 -4.90625,2.20748 -4.90625,4.90625 0,2.69877 2.20748,4.90625 4.90625,4.90625 2.69877,0 4.90625,-2.20748 4.90625,-4.90625 0,-2.69877 -2.20748,-4.90625 -4.90625,-4.90625 z m 0,2 c 1.61789,0 2.90625,1.28836 2.90625,2.90625 0,1.61789 -1.28836,2.90625 -2.90625,2.90625 -1.61789,0 -2.90625,-1.28836 -2.90625,-2.90625 0,-1.61789 1.28836,-2.90625 2.90625,-2.90625 z"
   id="circle39"
   style="font-size:medium;font-style:normal;font-variant:normal;font-weight:normal;font-stretch:normal;text-indent:0;text-align:start;text-decoration:none;line-height:normal;letter-spacing:normal;word-spacing:normal;text-transform:none;direction:ltr;block-progression:tb;writing-mode:lr-tb;text-anchor:start;baseline-shift:baseline;color:#000000;fill:#f4f4f4;fill-opacity:1;stroke:none;stroke-width:2;marker:none;visibility:visible;display:inline;overflow:visible;enable-background:accumulate;font-family:Sans;-inkscape-font-specification:Sans" />
<path
   d="m 579.625,132.71875 c -2.69877,0 -4.90625,2.20748 -4.90625,4.90625 0,2.69877 2.20748,4.90625 4.90625,4.90625 2.69877,0 4.90625,-2.20748 4.90625,-4.90625 0,-2.69877 -2.20748,-4.90625 -4.90625,-4.90625 z m 0,2 c 1.61789,0 2.90625,1.28836 2.90625,2.90625 0,1.61789 -1.28836,2.90625 -2.90625,2.90625 -1.61789,0 -2.90625,-1.28836 -2.90625,-2.90625 0,-1.61789 1.28836,-2.90625 2.90625,-2.90625 z"
   id="circle41"
   style="font-size:medium;font-style:normal;font-variant:normal;font-weight:normal;font-stretch:normal;text-indent:0;text-align:start;text-decoration:none;line-height:normal;letter-spacing:normal;word-spacing:normal;text-transform:none;direction:ltr;block-progression:tb;writing-mode:lr-tb;text-anchor:start;baseline-shift:baseline;color:#000000;fill:#f4f4f4;fill-opacity:1;stroke:none;stroke-width:2;marker:none;visibility:visible;display:inline;overflow:visible;enable-background:accumulate;font-family:Sans;-inkscape-font-specification:Sans" />
<path
   d="m 579.875,153.59375 c -2.69877,0 -4.90625,2.20748 -4.90625,4.90625 0,2.69877 2.20748,4.90625 4.90625,4.90625 2.69877,0 4.90625,-2.20748 4.90625,-4.90625 0,-2.69877 -2.20748,-4.90625 -4.90625,-4.90625 z m 0,2 c 1.61789,0 2.90625,1.28836 2.90625,2.90625 0,1.61789 -1.28836,2.90625 -2.90625,2.90625 -1.61789,0 -2.90625,-1.28836 -2.90625,-2.90625 0,-1.61789 1.28836,-2.90625 2.90625,-2.90625 z"
   id="circle43"
   style="font-size:medium;font-style:normal;font-variant:normal;font-weight:normal;font-stretch:normal;text-indent:0;text-align:start;text-decoration:none;line-height:normal;letter-spacing:normal;word-spacing:normal;text-transform:none;direction:ltr;block-progression:tb;writing-mode:lr-tb;text-anchor:start;baseline-shift:baseline;color:#000000;fill:#f4f4f4;fill-opacity:1;stroke:none;stroke-width:2;marker:none;visibility:visible;display:inline;overflow:visible;enable-background:accumulate;font-family:Sans;-inkscape-font-specification:Sans" />
<path
   d="m 575.375,173.96875 c -2.69877,0 -4.90625,2.20748 -4.90625,4.90625 0,2.69877 2.20748,4.9375 4.90625,4.9375 2.69877,0 4.90625,-2.23873 4.90625,-4.9375 0,-2.69877 -2.20748,-4.90625 -4.90625,-4.90625 z m 0,2 c 1.61789,0 2.90625,1.28836 2.90625,2.90625 0,1.61789 -1.28836,2.9375 -2.90625,2.9375 -1.61789,0 -2.90625,-1.31961 -2.90625,-2.9375 0,-1.61789 1.28836,-2.90625 2.90625,-2.90625 z"
   id="circle45"
   style="font-size:medium;font-style:normal;font-variant:normal;font-weight:normal;font-stretch:normal;text-indent:0;text-align:start;text-decoration:none;line-height:normal;letter-spacing:normal;word-spacing:normal;text-transform:none;direction:ltr;block-progression:tb;writing-mode:lr-tb;text-anchor:start;baseline-shift:baseline;color:#000000;fill:#f4f4f4;fill-opacity:1;stroke:none;stroke-width:2;marker:none;visibility:visible;display:inline;overflow:visible;enable-background:accumulate;font-family:Sans;-inkscape-font-specification:Sans" />
<path
   d="m 566.4375,192.84375 c -2.69877,0 -4.90625,2.20748 -4.90625,4.90625 0,2.69877 2.20748,4.90625 4.90625,4.90625 2.69877,0 4.90625,-2.20748 4.90625,-4.90625 0,-2.69877 -2.20748,-4.90625 -4.90625,-4.90625 z m 0,2 c 1.61789,0 2.90625,1.28836 2.90625,2.90625 0,1.61789 -1.28836,2.90625 -2.90625,2.90625 -1.61789,0 -2.90625,-1.28836 -2.90625,-2.90625 0,-1.61789 1.28836,-2.90625 2.90625,-2.90625 z"
   id="circle47"
   style="font-size:medium;font-style:normal;font-variant:normal;font-weight:normal;font-stretch:normal;text-indent:0;text-align:start;text-decoration:none;line-height:normal;letter-spacing:normal;word-spacing:normal;text-transform:none;direction:ltr;block-progression:tb;writing-mode:lr-tb;text-anchor:start;baseline-shift:baseline;color:#000000;fill:#f4f4f4;fill-opacity:1;stroke:none;stroke-width:2;marker:none;visibility:visible;display:inline;overflow:visible;enable-background:accumulate;font-family:Sans;-inkscape-font-specification:Sans" />
<path
   d="m 553.46875,209.21875 c -2.69877,0 -4.90625,2.20748 -4.90625,4.90625 0,2.69877 2.20748,4.90625 4.90625,4.90625 2.69877,0 4.90625,-2.20748 4.90625,-4.90625 0,-2.69877 -2.20748,-4.90625 -4.90625,-4.90625 z m 0,2 c 1.61789,0 2.90625,1.28836 2.90625,2.90625 0,1.61789 -1.28836,2.90625 -2.90625,2.90625 -1.61789,0 -2.90625,-1.28836 -2.90625,-2.90625 0,-1.61789 1.28836,-2.90625 2.90625,-2.90625 z"
   id="circle49"
   style="font-size:medium;font-style:normal;font-variant:normal;font-weight:normal;font-stretch:normal;text-indent:0;text-align:start;text-decoration:none;line-height:normal;letter-spacing:normal;word-spacing:normal;text-transform:none;direction:ltr;block-progression:tb;writing-mode:lr-tb;text-anchor:start;baseline-shift:baseline;color:#000000;fill:#f4f4f4;fill-opacity:1;stroke:none;stroke-width:2;marker:none;visibility:visible;display:inline;overflow:visible;enable-background:accumulate;font-family:Sans;-inkscape-font-specification:Sans" />
<path
   d="m 537.15625,222.25 c -2.69877,0 -4.90625,2.20748 -4.90625,4.90625 0,2.69877 2.20748,4.90625 4.90625,4.90625 2.69877,0 4.90625,-2.20748 4.90625,-4.90625 0,-2.69877 -2.20748,-4.90625 -4.90625,-4.90625 z m 0,2 c 1.61789,0 2.90625,1.28836 2.90625,2.90625 0,1.61789 -1.28836,2.90625 -2.90625,2.90625 -1.61789,0 -2.90625,-1.28836 -2.90625,-2.90625 0,-1.61789 1.28836,-2.90625 2.90625,-2.90625 z"
   id="circle51"
   style="font-size:medium;font-style:normal;font-variant:normal;font-weight:normal;font-stretch:normal;text-indent:0;text-align:start;text-decoration:none;line-height:normal;letter-spacing:normal;word-spacing:normal;text-transform:none;direction:ltr;block-progression:tb;writing-mode:lr-tb;text-anchor:start;baseline-shift:baseline;color:#000000;fill:#f4f4f4;fill-opacity:1;stroke:none;stroke-width:2;marker:none;visibility:visible;display:inline;overflow:visible;enable-background:accumulate;font-family:Sans;-inkscape-font-specification:Sans" />
<path
   d="m 518.34375,231.28125 c -2.69877,0 -4.90625,2.20748 -4.90625,4.90625 0,2.69877 2.20748,4.90625 4.90625,4.90625 2.69877,0 4.90625,-2.20748 4.90625,-4.90625 0,-2.69877 -2.20748,-4.90625 -4.90625,-4.90625 z m 0,2 c 1.61789,0 2.90625,1.28836 2.90625,2.90625 0,1.61789 -1.28836,2.90625 -2.90625,2.90625 -1.61789,0 -2.90625,-1.28836 -2.90625,-2.90625 0,-1.61789 1.28836,-2.90625 2.90625,-2.90625 z"
   id="circle53"
   style="font-size:medium;font-style:normal;font-variant:normal;font-weight:normal;font-stretch:normal;text-indent:0;text-align:start;text-decoration:none;line-height:normal;letter-spacing:normal;word-spacing:normal;text-transform:none;direction:ltr;block-progression:tb;writing-mode:lr-tb;text-anchor:start;baseline-shift:baseline;color:#000000;fill:#f4f4f4;fill-opacity:1;stroke:none;stroke-width:2;marker:none;visibility:visible;display:inline;overflow:visible;enable-background:accumulate;font-family:Sans;-inkscape-font-specification:Sans" />
<path
   d="m 91.03125,24.96875 c -2.698769,0 -4.90625,2.238731 -4.90625,4.9375 0,2.698769 2.207481,4.90625 4.90625,4.90625 2.698769,0 4.90625,-2.207481 4.90625,-4.90625 0,-2.698769 -2.207481,-4.9375 -4.90625,-4.9375 z m 0,2 c 1.617889,0 2.90625,1.319611 2.90625,2.9375 0,1.617889 -1.288361,2.90625 -2.90625,2.90625 -1.617889,0 -2.90625,-1.288361 -2.90625,-2.90625 0,-1.617889 1.288361,-2.9375 2.90625,-2.9375 z"
   id="circle55"
   style="font-size:medium;font-style:normal;font-variant:normal;font-weight:normal;font-stretch:normal;text-indent:0;text-align:start;text-decoration:none;line-height:normal;letter-spacing:normal;word-spacing:normal;text-transform:none;direction:ltr;block-progression:tb;writing-mode:lr-tb;text-anchor:start;baseline-shift:baseline;color:#000000;fill:#f4f4f4;fill-opacity:1;stroke:none;stroke-width:2;marker:none;visibility:visible;display:inline;overflow:visible;enable-background:accumulate;font-family:Sans;-inkscape-font-specification:Sans" />
<path
   d="m 75.65625,15.5 c -2.698769,0 -4.90625,2.207481 -4.90625,4.90625 0,2.698769 2.207481,4.90625 4.90625,4.90625 2.698769,0 4.90625,-2.207481 4.90625,-4.90625 0,-2.698769 -2.207481,-4.90625 -4.90625,-4.90625 z m 0,2 c 1.617889,0 2.90625,1.288361 2.90625,2.90625 0,1.617889 -1.288361,2.90625 -2.90625,2.90625 -1.617889,0 -2.90625,-1.288361 -2.90625,-2.90625 0,-1.617889 1.288361,-2.90625 2.90625,-2.90625 z"
   id="circle57"
   style="font-size:medium;font-style:normal;font-variant:normal;font-weight:normal;font-stretch:normal;text-indent:0;text-align:start;text-decoration:none;line-height:normal;letter-spacing:normal;word-spacing:normal;text-transform:none;direction:ltr;block-progression:tb;writing-mode:lr-tb;text-anchor:start;baseline-shift:baseline;color:#000000;fill:#f4f4f4;fill-opacity:1;stroke:none;stroke-width:2;marker:none;visibility:visible;display:inline;overflow:visible;enable-background:accumulate;font-family:Sans;-inkscape-font-specification:Sans" />
<path
   d="M 54.90625,27.8125 C 52.207481,27.8125 50,30.019981 50,32.71875 c 0,2.698769 2.207481,4.90625 4.90625,4.90625 2.698769,0 4.90625,-2.207481 4.90625,-4.90625 0,-2.698769 -2.207481,-4.90625 -4.90625,-4.90625 z m 0,2 c 1.617889,0 2.90625,1.288361 2.90625,2.90625 0,1.617889 -1.288361,2.90625 -2.90625,2.90625 C 53.288361,35.625 52,34.336639 52,32.71875 52,31.100861 53.288361,29.8125 54.90625,29.8125 z"
   id="circle59"
   style="font-size:medium;font-style:normal;font-variant:normal;font-weight:normal;font-stretch:normal;text-indent:0;text-align:start;text-decoration:none;line-height:normal;letter-spacing:normal;word-spacing:normal;text-transform:none;direction:ltr;block-progression:tb;writing-mode:lr-tb;text-anchor:start;baseline-shift:baseline;color:#000000;fill:#f4f4f4;fill-opacity:1;stroke:none;stroke-width:2;marker:none;visibility:visible;display:inline;overflow:visible;enable-background:accumulate;font-family:Sans;-inkscape-font-specification:Sans" />
<path
   d="m 37.46875,44.46875 c -2.698769,0 -4.90625,2.207481 -4.90625,4.90625 0,2.698769 2.207481,4.90625 4.90625,4.90625 2.698769,0 4.90625,-2.207481 4.90625,-4.90625 0,-2.698769 -2.207481,-4.90625 -4.90625,-4.90625 z m 0,2 c 1.617889,0 2.90625,1.288361 2.90625,2.90625 0,1.617889 -1.288361,2.90625 -2.90625,2.90625 -1.617889,0 -2.90625,-1.288361 -2.90625,-2.90625 0,-1.617889 1.288361,-2.90625 2.90625,-2.90625 z"
   id="circle61"
   style="font-size:medium;font-style:normal;font-variant:normal;font-weight:normal;font-stretch:normal;text-indent:0;text-align:start;text-decoration:none;line-height:normal;letter-spacing:normal;word-spacing:normal;text-transform:none;direction:ltr;block-progression:tb;writing-mode:lr-tb;text-anchor:start;baseline-shift:baseline;color:#000000;fill:#f4f4f4;fill-opacity:1;stroke:none;stroke-width:2;marker:none;visibility:visible;display:inline;overflow:visible;enable-background:accumulate;font-family:Sans;-inkscape-font-specification:Sans" />
<path
   d="m 24.1875,64.65625 c -2.698769,0 -4.90625,2.207481 -4.90625,4.90625 0,2.698769 2.207481,4.90625 4.90625,4.90625 2.698769,0 4.90625,-2.207481 4.90625,-4.90625 0,-2.698769 -2.207481,-4.90625 -4.90625,-4.90625 z m 0,2 c 1.617889,0 2.90625,1.288361 2.90625,2.90625 0,1.617889 -1.288361,2.90625 -2.90625,2.90625 -1.617889,0 -2.90625,-1.288361 -2.90625,-2.90625 0,-1.617889 1.288361,-2.90625 2.90625,-2.90625 z"
   id="circle63"
   style="font-size:medium;font-style:normal;font-variant:normal;font-weight:normal;font-stretch:normal;text-indent:0;text-align:start;text-decoration:none;line-height:normal;letter-spacing:normal;word-spacing:normal;text-transform:none;direction:ltr;block-progression:tb;writing-mode:lr-tb;text-anchor:start;baseline-shift:baseline;color:#000000;fill:#f4f4f4;fill-opacity:1;stroke:none;stroke-width:2;marker:none;visibility:visible;display:inline;overflow:visible;enable-background:accumulate;font-family:Sans;-inkscape-font-specification:Sans" />
<path
   d="m 15.8125,87.28125 c -2.698769,0 -4.90625,2.207481 -4.90625,4.90625 0,2.698769 2.207481,4.90625 4.90625,4.90625 2.698769,0 4.90625,-2.207481 4.90625,-4.90625 0,-2.698769 -2.207481,-4.90625 -4.90625,-4.90625 z m 0,2 c 1.617889,0 2.90625,1.288361 2.90625,2.90625 0,1.617889 -1.288361,2.90625 -2.90625,2.90625 -1.617889,0 -2.90625,-1.288361 -2.90625,-2.90625 0,-1.617889 1.288361,-2.90625 2.90625,-2.90625 z"
   id="circle65"
   style="font-size:medium;font-style:normal;font-variant:normal;font-weight:normal;font-stretch:normal;text-indent:0;text-align:start;text-decoration:none;line-height:normal;letter-spacing:normal;word-spacing:normal;text-transform:none;direction:ltr;block-progression:tb;writing-mode:lr-tb;text-anchor:start;baseline-shift:baseline;color:#000000;fill:#f4f4f4;fill-opacity:1;stroke:none;stroke-width:2;marker:none;visibility:visible;display:inline;overflow:visible;enable-background:accumulate;font-family:Sans;-inkscape-font-specification:Sans" />
<path
   d="m 12.75,111.21875 c -2.698769,0 -4.90625,2.20748 -4.90625,4.90625 0,2.69877 2.207481,4.90625 4.90625,4.90625 2.698769,0 4.90625,-2.20748 4.90625,-4.90625 0,-2.69877 -2.207481,-4.90625 -4.90625,-4.90625 z m 0,2 c 1.617889,0 2.90625,1.28836 2.90625,2.90625 0,1.61789 -1.288361,2.90625 -2.90625,2.90625 -1.617889,0 -2.90625,-1.28836 -2.90625,-2.90625 0,-1.61789 1.288361,-2.90625 2.90625,-2.90625 z"
   id="circle67"
   style="font-size:medium;font-style:normal;font-variant:normal;font-weight:normal;font-stretch:normal;text-indent:0;text-align:start;text-decoration:none;line-height:normal;letter-spacing:normal;word-spacing:normal;text-transform:none;direction:ltr;block-progression:tb;writing-mode:lr-tb;text-anchor:start;baseline-shift:baseline;color:#000000;fill:#f4f4f4;fill-opacity:1;stroke:none;stroke-width:2;marker:none;visibility:visible;display:inline;overflow:visible;enable-background:accumulate;font-family:Sans;-inkscape-font-specification:Sans" />
<path
   d="m 15.125,135.21875 c -2.698769,0 -4.90625,2.20748 -4.90625,4.90625 0,2.69877 2.207481,4.90625 4.90625,4.90625 2.698769,0 4.90625,-2.20748 4.90625,-4.90625 0,-2.69877 -2.207481,-4.90625 -4.90625,-4.90625 z m 0,2 c 1.617889,0 2.90625,1.28836 2.90625,2.90625 0,1.61789 -1.288361,2.90625 -2.90625,2.90625 -1.617889,0 -2.90625,-1.28836 -2.90625,-2.90625 0,-1.61789 1.288361,-2.90625 2.90625,-2.90625 z"
   id="circle69"
   style="font-size:medium;font-style:normal;font-variant:normal;font-weight:normal;font-stretch:normal;text-indent:0;text-align:start;text-decoration:none;line-height:normal;letter-spacing:normal;word-spacing:normal;text-transform:none;direction:ltr;block-progression:tb;writing-mode:lr-tb;text-anchor:start;baseline-shift:baseline;color:#000000;fill:#f4f4f4;fill-opacity:1;stroke:none;stroke-width:2;marker:none;visibility:visible;display:inline;overflow:visible;enable-background:accumulate;font-family:Sans;-inkscape-font-specification:Sans" />
<path
   d="m 22.875,158.09375 c -2.698769,0 -4.9375,2.20748 -4.9375,4.90625 0,2.69877 2.238731,4.90625 4.9375,4.90625 2.698769,0 4.90625,-2.20748 4.90625,-4.90625 0,-2.69877 -2.207481,-4.90625 -4.90625,-4.90625 z m 0,2 c 1.617889,0 2.90625,1.28836 2.90625,2.90625 0,1.61789 -1.288361,2.90625 -2.90625,2.90625 -1.617889,0 -2.9375,-1.28836 -2.9375,-2.90625 0,-1.61789 1.319611,-2.90625 2.9375,-2.90625 z"
   id="circle71"
   style="font-size:medium;font-style:normal;font-variant:normal;font-weight:normal;font-stretch:normal;text-indent:0;text-align:start;text-decoration:none;line-height:normal;letter-spacing:normal;word-spacing:normal;text-transform:none;direction:ltr;block-progression:tb;writing-mode:lr-tb;text-anchor:start;baseline-shift:baseline;color:#000000;fill:#f4f4f4;fill-opacity:1;stroke:none;stroke-width:2;marker:none;visibility:visible;display:inline;overflow:visible;enable-background:accumulate;font-family:Sans;-inkscape-font-specification:Sans" />
<path
   d="m 35.53125,178.625 c -2.698769,0 -4.90625,2.20748 -4.90625,4.90625 0,2.69877 2.207481,4.90625 4.90625,4.90625 2.698769,0 4.90625,-2.20748 4.90625,-4.90625 0,-2.69877 -2.207481,-4.90625 -4.90625,-4.90625 z m 0,2 c 1.617889,0 2.90625,1.28836 2.90625,2.90625 0,1.61789 -1.288361,2.90625 -2.90625,2.90625 -1.617889,0 -2.90625,-1.28836 -2.90625,-2.90625 0,-1.61789 1.288361,-2.90625 2.90625,-2.90625 z"
   id="circle73"
   style="font-size:medium;font-style:normal;font-variant:normal;font-weight:normal;font-stretch:normal;text-indent:0;text-align:start;text-decoration:none;line-height:normal;letter-spacing:normal;word-spacing:normal;text-transform:none;direction:ltr;block-progression:tb;writing-mode:lr-tb;text-anchor:start;baseline-shift:baseline;color:#000000;fill:#f4f4f4;fill-opacity:1;stroke:none;stroke-width:2;marker:none;visibility:visible;display:inline;overflow:visible;enable-background:accumulate;font-family:Sans;-inkscape-font-specification:Sans" />
<path
   d="m 52.5,195.78125 c -2.698769,0 -4.90625,2.20748 -4.90625,4.90625 0,2.69877 2.207481,4.9375 4.90625,4.9375 2.698769,0 4.90625,-2.23873 4.90625,-4.9375 0,-2.69877 -2.207481,-4.90625 -4.90625,-4.90625 z m 0,2 c 1.617889,0 2.90625,1.28836 2.90625,2.90625 0,1.61789 -1.288361,2.9375 -2.90625,2.9375 -1.617889,0 -2.90625,-1.31961 -2.90625,-2.9375 0,-1.61789 1.288361,-2.90625 2.90625,-2.90625 z"
   id="circle75"
   style="font-size:medium;font-style:normal;font-variant:normal;font-weight:normal;font-stretch:normal;text-indent:0;text-align:start;text-decoration:none;line-height:normal;letter-spacing:normal;word-spacing:normal;text-transform:none;direction:ltr;block-progression:tb;writing-mode:lr-tb;text-anchor:start;baseline-shift:baseline;color:#000000;fill:#f4f4f4;fill-opacity:1;stroke:none;stroke-width:2;marker:none;visibility:visible;display:inline;overflow:visible;enable-background:accumulate;font-family:Sans;-inkscape-font-specification:Sans" />
<path
   d="m 72.90625,208.6875 c -2.698769,0 -4.90625,2.20748 -4.90625,4.90625 0,2.69877 2.207481,4.90625 4.90625,4.90625 2.698769,0 4.90625,-2.20748 4.90625,-4.90625 0,-2.69877 -2.207481,-4.90625 -4.90625,-4.90625 z m 0,2 c 1.617889,0 2.90625,1.28836 2.90625,2.90625 0,1.61789 -1.288361,2.90625 -2.90625,2.90625 C 71.288361,216.5 70,215.21164 70,213.59375 c 0,-1.61789 1.288361,-2.90625 2.90625,-2.90625 z"
   id="circle77"
   style="font-size:medium;font-style:normal;font-variant:normal;font-weight:normal;font-stretch:normal;text-indent:0;text-align:start;text-decoration:none;line-height:normal;letter-spacing:normal;word-spacing:normal;text-transform:none;direction:ltr;block-progression:tb;writing-mode:lr-tb;text-anchor:start;baseline-shift:baseline;color:#000000;fill:#f4f4f4;fill-opacity:1;stroke:none;stroke-width:2;marker:none;visibility:visible;display:inline;overflow:visible;enable-background:accumulate;font-family:Sans;-inkscape-font-specification:Sans" />
<path
   d="m 72,33.59375 c -2.698769,0 -4.90625,2.207481 -4.90625,4.90625 0,2.698769 2.207481,4.90625 4.90625,4.90625 2.698769,0 4.90625,-2.207481 4.90625,-4.90625 0,-2.698769 -2.207481,-4.90625 -4.90625,-4.90625 z m 0,2 c 1.617889,0 2.90625,1.288361 2.90625,2.90625 0,1.617889 -1.288361,2.90625 -2.90625,2.90625 -1.617889,0 -2.90625,-1.288361 -2.90625,-2.90625 0,-1.617889 1.288361,-2.90625 2.90625,-2.90625 z"
   id="circle79"
   style="font-size:medium;font-style:normal;font-variant:normal;font-weight:normal;font-stretch:normal;text-indent:0;text-align:start;text-decoration:none;line-height:normal;letter-spacing:normal;word-spacing:normal;text-transform:none;direction:ltr;block-progression:tb;writing-mode:lr-tb;text-anchor:start;baseline-shift:baseline;color:#000000;fill:#f4f4f4;fill-opacity:1;stroke:none;stroke-width:2;marker:none;visibility:visible;display:inline;overflow:visible;enable-background:accumulate;font-family:Sans;-inkscape-font-specification:Sans" />
<path
   d="m 55.40625,46.28125 c -2.698769,0 -4.90625,2.207481 -4.90625,4.90625 0,2.698769 2.207481,4.90625 4.90625,4.90625 2.698769,0 4.90625,-2.207481 4.90625,-4.90625 0,-2.698769 -2.207481,-4.90625 -4.90625,-4.90625 z m 0,2 c 1.617889,0 2.90625,1.288361 2.90625,2.90625 0,1.617889 -1.288361,2.90625 -2.90625,2.90625 -1.617889,0 -2.90625,-1.288361 -2.90625,-2.90625 0,-1.617889 1.288361,-2.90625 2.90625,-2.90625 z"
   id="circle81"
   style="font-size:medium;font-style:normal;font-variant:normal;font-weight:normal;font-stretch:normal;text-indent:0;text-align:start;text-decoration:none;line-height:normal;letter-spacing:normal;word-spacing:normal;text-transform:none;direction:ltr;block-progression:tb;writing-mode:lr-tb;text-anchor:start;baseline-shift:baseline;color:#000000;fill:#f4f4f4;fill-opacity:1;stroke:none;stroke-width:2;marker:none;visibility:visible;display:inline;overflow:visible;enable-background:accumulate;font-family:Sans;-inkscape-font-specification:Sans" />
<path
   d="m 42.09375,62.34375 c -2.698769,0 -4.90625,2.207481 -4.90625,4.90625 0,2.698769 2.207481,4.9375 4.90625,4.9375 C 44.792519,72.1875 47,69.948769 47,67.25 47,64.551231 44.792519,62.34375 42.09375,62.34375 z m 0,2 C 43.711639,64.34375 45,65.632111 45,67.25 c 0,1.617889 -1.288361,2.9375 -2.90625,2.9375 -1.617889,0 -2.90625,-1.319611 -2.90625,-2.9375 0,-1.617889 1.288361,-2.90625 2.90625,-2.90625 z"
   id="circle83"
   style="font-size:medium;font-style:normal;font-variant:normal;font-weight:normal;font-stretch:normal;text-indent:0;text-align:start;text-decoration:none;line-height:normal;letter-spacing:normal;word-spacing:normal;text-transform:none;direction:ltr;block-progression:tb;writing-mode:lr-tb;text-anchor:start;baseline-shift:baseline;color:#000000;fill:#f4f4f4;fill-opacity:1;stroke:none;stroke-width:2;marker:none;visibility:visible;display:inline;overflow:visible;enable-background:accumulate;font-family:Sans;-inkscape-font-specification:Sans" />
<path
   d="m 32.75,81.03125 c -2.698769,0 -4.90625,2.207481 -4.90625,4.90625 0,2.698769 2.207481,4.90625 4.90625,4.90625 2.698769,0 4.90625,-2.207481 4.90625,-4.90625 0,-2.698769 -2.207481,-4.90625 -4.90625,-4.90625 z m 0,2 c 1.617889,0 2.90625,1.288361 2.90625,2.90625 0,1.617889 -1.288361,2.90625 -2.90625,2.90625 -1.617889,0 -2.90625,-1.288361 -2.90625,-2.90625 0,-1.617889 1.288361,-2.90625 2.90625,-2.90625 z"
   id="circle85"
   style="font-size:medium;font-style:normal;font-variant:normal;font-weight:normal;font-stretch:normal;text-indent:0;text-align:start;text-decoration:none;line-height:normal;letter-spacing:normal;word-spacing:normal;text-transform:none;direction:ltr;block-progression:tb;writing-mode:lr-tb;text-anchor:start;baseline-shift:baseline;color:#000000;fill:#f4f4f4;fill-opacity:1;stroke:none;stroke-width:2;marker:none;visibility:visible;display:inline;overflow:visible;enable-background:accumulate;font-family:Sans;-inkscape-font-specification:Sans" />
<path
   d="m 27.84375,101.3125 c -2.698769,0 -4.90625,2.20748 -4.90625,4.90625 0,2.69877 2.207481,4.90625 4.90625,4.90625 2.698769,0 4.90625,-2.20748 4.90625,-4.90625 0,-2.69877 -2.207481,-4.90625 -4.90625,-4.90625 z m 0,2 c 1.617889,0 2.90625,1.28836 2.90625,2.90625 0,1.61789 -1.288361,2.90625 -2.90625,2.90625 -1.617889,0 -2.90625,-1.28836 -2.90625,-2.90625 0,-1.61789 1.288361,-2.90625 2.90625,-2.90625 z"
   id="circle87"
   style="font-size:medium;font-style:normal;font-variant:normal;font-weight:normal;font-stretch:normal;text-indent:0;text-align:start;text-decoration:none;line-height:normal;letter-spacing:normal;word-spacing:normal;text-transform:none;direction:ltr;block-progression:tb;writing-mode:lr-tb;text-anchor:start;baseline-shift:baseline;color:#000000;fill:#f4f4f4;fill-opacity:1;stroke:none;stroke-width:2;marker:none;visibility:visible;display:inline;overflow:visible;enable-background:accumulate;font-family:Sans;-inkscape-font-specification:Sans" />
<path
   d="m 27.59375,122.1875 c -2.698769,0 -4.90625,2.20748 -4.90625,4.90625 0,2.69877 2.207481,4.90625 4.90625,4.90625 2.698769,0 4.90625,-2.20748 4.90625,-4.90625 0,-2.69877 -2.207481,-4.90625 -4.90625,-4.90625 z m 0,2 c 1.617889,0 2.90625,1.28836 2.90625,2.90625 0,1.61789 -1.288361,2.90625 -2.90625,2.90625 -1.617889,0 -2.90625,-1.28836 -2.90625,-2.90625 0,-1.61789 1.288361,-2.90625 2.90625,-2.90625 z"
   id="circle89"
   style="font-size:medium;font-style:normal;font-variant:normal;font-weight:normal;font-stretch:normal;text-indent:0;text-align:start;text-decoration:none;line-height:normal;letter-spacing:normal;word-spacing:normal;text-transform:none;direction:ltr;block-progression:tb;writing-mode:lr-tb;text-anchor:start;baseline-shift:baseline;color:#000000;fill:#f4f4f4;fill-opacity:1;stroke:none;stroke-width:2;marker:none;visibility:visible;display:inline;overflow:visible;enable-background:accumulate;font-family:Sans;-inkscape-font-specification:Sans" />
<path
   d="m 32.09375,142.59375 c -2.698217,0 -4.90625,2.20803 -4.90625,4.90625 0,2.69822 2.208033,4.90625 4.90625,4.90625 2.698217,0 4.90625,-2.20803 4.90625,-4.90625 0,-2.69822 -2.208033,-4.90625 -4.90625,-4.90625 z m 0,2 c 1.617336,0 2.90625,1.28891 2.90625,2.90625 0,1.61734 -1.288914,2.90625 -2.90625,2.90625 -1.617336,0 -2.90625,-1.28891 -2.90625,-2.90625 0,-1.61734 1.288914,-2.90625 2.90625,-2.90625 z"
   id="circle91"
   style="font-size:medium;font-style:normal;font-variant:normal;font-weight:normal;font-stretch:normal;text-indent:0;text-align:start;text-decoration:none;line-height:normal;letter-spacing:normal;word-spacing:normal;text-transform:none;direction:ltr;block-progression:tb;writing-mode:lr-tb;text-anchor:start;baseline-shift:baseline;color:#000000;fill:#f4f4f4;fill-opacity:1;stroke:none;stroke-width:2;marker:none;visibility:visible;display:inline;overflow:visible;enable-background:accumulate;font-family:Sans;-inkscape-font-specification:Sans" />
<path
   d="m 41.03125,161.4375 c -2.698769,0 -4.90625,2.20748 -4.90625,4.90625 0,2.69877 2.207481,4.90625 4.90625,4.90625 2.698769,0 4.90625,-2.20748 4.90625,-4.90625 0,-2.69877 -2.207481,-4.90625 -4.90625,-4.90625 z m 0,2 c 1.617889,0 2.90625,1.28836 2.90625,2.90625 0,1.61789 -1.288361,2.90625 -2.90625,2.90625 -1.617889,0 -2.90625,-1.28836 -2.90625,-2.90625 0,-1.61789 1.288361,-2.90625 2.90625,-2.90625 z"
   id="circle93"
   style="font-size:medium;font-style:normal;font-variant:normal;font-weight:normal;font-stretch:normal;text-indent:0;text-align:start;text-decoration:none;line-height:normal;letter-spacing:normal;word-spacing:normal;text-transform:none;direction:ltr;block-progression:tb;writing-mode:lr-tb;text-anchor:start;baseline-shift:baseline;color:#000000;fill:#f4f4f4;fill-opacity:1;stroke:none;stroke-width:2;marker:none;visibility:visible;display:inline;overflow:visible;enable-background:accumulate;font-family:Sans;-inkscape-font-specification:Sans" />
<path
   d="m 54,177.8125 c -2.698769,0 -4.90625,2.20748 -4.90625,4.90625 0,2.69877 2.207481,4.90625 4.90625,4.90625 2.698769,0 4.90625,-2.20748 4.90625,-4.90625 0,-2.69877 -2.207481,-4.90625 -4.90625,-4.90625 z m 0,2 c 1.617889,0 2.90625,1.28836 2.90625,2.90625 0,1.61789 -1.288361,2.90625 -2.90625,2.90625 -1.617889,0 -2.90625,-1.28836 -2.90625,-2.90625 0,-1.61789 1.288361,-2.90625 2.90625,-2.90625 z"
   id="circle95"
   style="font-size:medium;font-style:normal;font-variant:normal;font-weight:normal;font-stretch:normal;text-indent:0;text-align:start;text-decoration:none;line-height:normal;letter-spacing:normal;word-spacing:normal;text-transform:none;direction:ltr;block-progression:tb;writing-mode:lr-tb;text-anchor:start;baseline-shift:baseline;color:#000000;fill:#f4f4f4;fill-opacity:1;stroke:none;stroke-width:2;marker:none;visibility:visible;display:inline;overflow:visible;enable-background:accumulate;font-family:Sans;-inkscape-font-specification:Sans" />
<path
   d="m 70.3125,190.84375 c -2.698769,0 -4.90625,2.20748 -4.90625,4.90625 0,2.69877 2.207481,4.90625 4.90625,4.90625 2.698769,0 4.90625,-2.20748 4.90625,-4.90625 0,-2.69877 -2.207481,-4.90625 -4.90625,-4.90625 z m 0,2 c 1.617889,0 2.90625,1.28836 2.90625,2.90625 0,1.61789 -1.288361,2.90625 -2.90625,2.90625 -1.617889,0 -2.90625,-1.28836 -2.90625,-2.90625 0,-1.61789 1.288361,-2.90625 2.90625,-2.90625 z"
   id="circle97"
   style="font-size:medium;font-style:normal;font-variant:normal;font-weight:normal;font-stretch:normal;text-indent:0;text-align:start;text-decoration:none;line-height:normal;letter-spacing:normal;word-spacing:normal;text-transform:none;direction:ltr;block-progression:tb;writing-mode:lr-tb;text-anchor:start;baseline-shift:baseline;color:#000000;fill:#f4f4f4;fill-opacity:1;stroke:none;stroke-width:2;marker:none;visibility:visible;display:inline;overflow:visible;enable-background:accumulate;font-family:Sans;-inkscape-font-specification:Sans" />
<path
   d="m 89.125,199.875 c -2.698769,0 -4.90625,2.20748 -4.90625,4.90625 0,2.69877 2.207481,4.90625 4.90625,4.90625 2.698769,0 4.90625,-2.20748 4.90625,-4.90625 0,-2.69877 -2.207481,-4.90625 -4.90625,-4.90625 z m 0,2 c 1.617889,0 2.90625,1.28836 2.90625,2.90625 0,1.61789 -1.288361,2.90625 -2.90625,2.90625 -1.617889,0 -2.90625,-1.28836 -2.90625,-2.90625 0,-1.61789 1.288361,-2.90625 2.90625,-2.90625 z"
   id="circle99"
   style="font-size:medium;font-style:normal;font-variant:normal;font-weight:normal;font-stretch:normal;text-indent:0;text-align:start;text-decoration:none;line-height:normal;letter-spacing:normal;word-spacing:normal;text-transform:none;direction:ltr;block-progression:tb;writing-mode:lr-tb;text-anchor:start;baseline-shift:baseline;color:#000000;fill:#f4f4f4;fill-opacity:1;stroke:none;stroke-width:2;marker:none;visibility:visible;display:inline;overflow:visible;enable-background:accumulate;font-family:Sans;-inkscape-font-specification:Sans" />
<g
   id="g101">
	<path
   d="m 473,68.5625 c -17.88384,0 -32.40625,14.522412 -32.40625,32.40625 0,17.88384 14.52241,32.40625 32.40625,32.40625 17.88384,0 32.375,-14.52241 32.375,-32.40625 C 505.375,83.084912 490.88384,68.5625 473,68.5625 z m 0,2 c 16.80296,0 30.375,13.603292 30.375,30.40625 0,16.80296 -13.57204,30.40625 -30.375,30.40625 -16.80296,0 -30.40625,-13.60329 -30.40625,-30.40625 0,-16.802958 13.60329,-30.40625 30.40625,-30.40625 z"
   id="circle103"
   style="font-size:medium;font-style:normal;font-variant:normal;font-weight:normal;font-stretch:normal;text-indent:0;text-align:start;text-decoration:none;line-height:normal;letter-spacing:normal;word-spacing:normal;text-transform:none;direction:ltr;block-progression:tb;writing-mode:lr-tb;text-anchor:start;baseline-shift:baseline;color:#000000;fill:#f4f4f4;fill-opacity:1;stroke:none;stroke-width:2;marker:none;visibility:visible;display:inline;overflow:visible;enable-background:accumulate;font-family:Sans;-inkscape-font-specification:Sans" />
	<path
   d="m 473,78 c -12.68076,0 -23,10.287986 -23,22.96875 0,12.68076 10.31924,22.96875 23,22.96875 12.68076,0 22.96875,-10.28799 22.96875,-22.96875 C 495.96875,88.287986 485.68076,78 473,78 z m 0,2 c 11.59988,0 20.96875,9.368867 20.96875,20.96875 0,11.59988 -9.36887,20.96875 -20.96875,20.96875 -11.59988,0 -21,-9.36887 -21,-20.96875 C 452,89.368867 461.40012,80 473,80 z"
   id="circle105"
   style="font-size:medium;font-style:normal;font-variant:normal;font-weight:normal;font-stretch:normal;text-indent:0;text-align:start;text-decoration:none;line-height:normal;letter-spacing:normal;word-spacing:normal;text-transform:none;direction:ltr;block-progression:tb;writing-mode:lr-tb;text-anchor:start;baseline-shift:baseline;color:#000000;fill:#f4f4f4;fill-opacity:1;stroke:none;stroke-width:2;marker:none;visibility:visible;display:inline;overflow:visible;enable-background:accumulate;font-family:Sans;-inkscape-font-specification:Sans" />
</g>
<g
   id="g107">
	<path
   d="m 473,164.875 c -17.88384,0 -32.40625,14.52241 -32.40625,32.40625 0,17.88384 14.52241,32.40625 32.40625,32.40625 17.88384,0 32.375,-14.52241 32.375,-32.40625 0,-17.88384 -14.49116,-32.40625 -32.375,-32.40625 z m 0,2 c 16.80296,0 30.375,13.60329 30.375,30.40625 0,16.80296 -13.57204,30.40625 -30.375,30.40625 -16.80296,0 -30.40625,-13.60329 -30.40625,-30.40625 0,-16.80296 13.60329,-30.40625 30.40625,-30.40625 z"
   id="circle109"
   style="font-size:medium;font-style:normal;font-variant:normal;font-weight:normal;font-stretch:normal;text-indent:0;text-align:start;text-decoration:none;line-height:normal;letter-spacing:normal;word-spacing:normal;text-transform:none;direction:ltr;block-progression:tb;writing-mode:lr-tb;text-anchor:start;baseline-shift:baseline;color:#000000;fill:#f4f4f4;fill-opacity:1;stroke:none;stroke-width:2;marker:none;visibility:visible;display:inline;overflow:visible;enable-background:accumulate;font-family:Sans;-inkscape-font-specification:Sans" />
	<path
   d="m 473,174.28125 c -12.68076,0 -23,10.31924 -23,23 0,12.68076 10.31924,22.96875 23,22.96875 12.68076,0 22.96875,-10.28799 22.96875,-22.96875 0,-12.68076 -10.28799,-23 -22.96875,-23 z m 0,2 c 11.59988,0 20.96875,9.40012 20.96875,21 0,11.59988 -9.36887,20.96875 -20.96875,20.96875 -11.59988,0 -21,-9.36887 -21,-20.96875 0,-11.59988 9.40012,-21 21,-21 z"
   id="circle111"
   style="font-size:medium;font-style:normal;font-variant:normal;font-weight:normal;font-stretch:normal;text-indent:0;text-align:start;text-decoration:none;line-height:normal;letter-spacing:normal;word-spacing:normal;text-transform:none;direction:ltr;block-progression:tb;writing-mode:lr-tb;text-anchor:start;baseline-shift:baseline;color:#000000;fill:#f4f4f4;fill-opacity:1;stroke:none;stroke-width:2;marker:none;visibility:visible;display:inline;overflow:visible;enable-background:accumulate;font-family:Sans;-inkscape-font-specification:Sans" />
</g>
<g
   id="g113">
	<path
   d="m 414.78125,115.875 c -17.88384,0 -32.40625,14.52241 -32.40625,32.40625 0,17.88384 14.52241,32.40625 32.40625,32.40625 17.88384,0 32.40625,-14.52241 32.40625,-32.40625 0,-17.88384 -14.52241,-32.40625 -32.40625,-32.40625 z m 0,2 c 16.80296,0 30.40625,13.60329 30.40625,30.40625 0,16.80296 -13.60329,30.40625 -30.40625,30.40625 -16.80296,0 -30.40625,-13.60329 -30.40625,-30.40625 0,-16.80296 13.60329,-30.40625 30.40625,-30.40625 z"
   id="circle115"
   style="font-size:medium;font-style:normal;font-variant:normal;font-weight:normal;font-stretch:normal;text-indent:0;text-align:start;text-decoration:none;line-height:normal;letter-spacing:normal;word-spacing:normal;text-transform:none;direction:ltr;block-progression:tb;writing-mode:lr-tb;text-anchor:start;baseline-shift:baseline;color:#000000;fill:#f4f4f4;fill-opacity:1;stroke:none;stroke-width:2;marker:none;visibility:visible;display:inline;overflow:visible;enable-background:accumulate;font-family:Sans;-inkscape-font-specification:Sans" />
	<path
   d="m 414.78125,125.3125 c -12.68076,0 -22.96875,10.28799 -22.96875,22.96875 0,12.68076 10.28799,22.96875 22.96875,22.96875 12.68076,0 23,-10.28799 23,-22.96875 0,-12.68076 -10.31924,-22.96875 -23,-22.96875 z m 0,2 c 11.59988,0 21,9.36887 21,20.96875 0,11.59988 -9.40012,20.96875 -21,20.96875 -11.59988,0 -20.96875,-9.36887 -20.96875,-20.96875 0,-11.59988 9.36887,-20.96875 20.96875,-20.96875 z"
   id="circle117"
   style="font-size:medium;font-style:normal;font-variant:normal;font-weight:normal;font-stretch:normal;text-indent:0;text-align:start;text-decoration:none;line-height:normal;letter-spacing:normal;word-spacing:normal;text-transform:none;direction:ltr;block-progression:tb;writing-mode:lr-tb;text-anchor:start;baseline-shift:baseline;color:#000000;fill:#f4f4f4;fill-opacity:1;stroke:none;stroke-width:2;marker:none;visibility:visible;display:inline;overflow:visible;enable-background:accumulate;font-family:Sans;-inkscape-font-specification:Sans" />
</g>
<g
   id="g119">
	<path
   d="m 530.34375,115.875 c -17.88384,0 -32.40625,14.52241 -32.40625,32.40625 0,17.88384 14.52241,32.40625 32.40625,32.40625 17.88384,0 32.40625,-14.52241 32.40625,-32.40625 0,-17.88384 -14.52241,-32.40625 -32.40625,-32.40625 z m 0,2 c 16.80296,0 30.40625,13.60329 30.40625,30.40625 0,16.80296 -13.60329,30.40625 -30.40625,30.40625 -16.80296,0 -30.40625,-13.60329 -30.40625,-30.40625 0,-16.80296 13.60329,-30.40625 30.40625,-30.40625 z"
   id="circle121"
   style="font-size:medium;font-style:normal;font-variant:normal;font-weight:normal;font-stretch:normal;text-indent:0;text-align:start;text-decoration:none;line-height:normal;letter-spacing:normal;word-spacing:normal;text-transform:none;direction:ltr;block-progression:tb;writing-mode:lr-tb;text-anchor:start;baseline-shift:baseline;color:#000000;fill:#f4f4f4;fill-opacity:1;stroke:none;stroke-width:2;marker:none;visibility:visible;display:inline;overflow:visible;enable-background:accumulate;font-family:Sans;-inkscape-font-specification:Sans" />
	<path
   d="m 530.34375,125.3125 c -12.68076,0 -22.96875,10.28799 -22.96875,22.96875 0,12.68076 10.28799,22.96875 22.96875,22.96875 12.68076,0 23,-10.28799 23,-22.96875 0,-12.68076 -10.31924,-22.96875 -23,-22.96875 z m 0,2 c 11.59988,0 21,9.36887 21,20.96875 0,11.59988 -9.40012,20.96875 -21,20.96875 -11.59988,0 -20.96875,-9.36887 -20.96875,-20.96875 0,-11.59988 9.36887,-20.96875 20.96875,-20.96875 z"
   id="circle123"
   style="font-size:medium;font-style:normal;font-variant:normal;font-weight:normal;font-stretch:normal;text-indent:0;text-align:start;text-decoration:none;line-height:normal;letter-spacing:normal;word-spacing:normal;text-transform:none;direction:ltr;block-progression:tb;writing-mode:lr-tb;text-anchor:start;baseline-shift:baseline;color:#000000;fill:#f4f4f4;fill-opacity:1;stroke:none;stroke-width:2;marker:none;visibility:visible;display:inline;overflow:visible;enable-background:accumulate;font-family:Sans;-inkscape-font-specification:Sans" />
</g>
<path
   d="m 135.25,62.84375 c -4.02952,4.863867 -7.41802,13.240571 -8.875,21.53125 -1.45698,8.290679 -1.07039,16.56366 3.34375,21 4.76885,4.79368 12.95495,6.07772 21.34375,5.125 8.3888,-0.95272 17.04256,-4.18643 22.875,-8.9375 l -1.25,-1.53125 c -5.41856,4.41393 -13.8088,7.55622 -21.84375,8.46875 -8.03495,0.91253 -15.6516,-0.44293 -19.71875,-4.53125 -3.53686,-3.55466 -4.18527,-11.260679 -2.78125,-19.25 1.40402,-7.989321 4.78802,-16.188617 8.4375,-20.59375 L 135.25,62.84375 z"
   id="path125"
   style="font-size:medium;font-style:normal;font-variant:normal;font-weight:normal;font-stretch:normal;text-indent:0;text-align:start;text-decoration:none;line-height:normal;letter-spacing:normal;word-spacing:normal;text-transform:none;direction:ltr;block-progression:tb;writing-mode:lr-tb;text-anchor:start;baseline-shift:baseline;color:#000000;fill:#f4f4f4;fill-opacity:1;stroke:none;stroke-width:2;marker:none;visibility:visible;display:inline;overflow:visible;enable-background:accumulate;font-family:Sans;-inkscape-font-specification:Sans" />
<path
   d="m 91.5625,125.71875 c -2.023311,-0.0608 -4.121551,0.043 -6.21875,0.28125 -8.388794,0.95297 -17.01131,4.18591 -22.84375,8.9375 l 1.25,1.53125 c 5.41856,-4.41441 13.808794,-7.55597 21.84375,-8.46875 8.034956,-0.91278 15.65163,0.44341 19.71875,4.53125 3.53693,3.55517 4.18527,11.26068 2.78125,19.25 -1.40402,7.98932 -4.78807,16.18915 -8.4375,20.59375 l 1.53125,1.28125 c 4.02957,-4.8634 7.41802,-13.24057 8.875,-21.53125 1.45698,-8.29068 1.07032,-16.56317 -3.34375,-21 -3.57666,-3.59487 -9.086317,-5.22396 -15.15625,-5.40625 z"
   id="path127"
   style="font-size:medium;font-style:normal;font-variant:normal;font-weight:normal;font-stretch:normal;text-indent:0;text-align:start;text-decoration:none;line-height:normal;letter-spacing:normal;word-spacing:normal;text-transform:none;direction:ltr;block-progression:tb;writing-mode:lr-tb;text-anchor:start;baseline-shift:baseline;color:#000000;fill:#f4f4f4;fill-opacity:1;stroke:none;stroke-width:2;marker:none;visibility:visible;display:inline;overflow:visible;enable-background:accumulate;font-family:Sans;-inkscape-font-specification:Sans" />
<path
   d="m 145.625,125.6875 c -6.0307,-0.2989 -11.51647,0.7523 -14.84375,4.0625 -4.7931,4.76935 -6.04647,12.95495 -5.09375,21.34375 0.95272,8.3888 4.15462,17.04303 8.90625,22.875 l 1.5625,-1.25 c -4.41437,-5.41803 -7.58747,-13.8088 -8.5,-21.84375 -0.91253,-8.03495 0.44335,-15.6511 4.53125,-19.71875 3.55463,-3.53639 11.26068,-4.18527 19.25,-2.78125 7.98932,1.40402 16.21989,4.78756 20.625,8.4375 l 1.25,-1.53125 c -4.86389,-4.03006 -13.24057,-7.41802 -21.53125,-8.875 -2.07267,-0.36424 -4.14602,-0.61912 -6.15625,-0.71875 z"
   id="path129"
   style="font-size:medium;font-style:normal;font-variant:normal;font-weight:normal;font-stretch:normal;text-indent:0;text-align:start;text-decoration:none;line-height:normal;letter-spacing:normal;word-spacing:normal;text-transform:none;direction:ltr;block-progression:tb;writing-mode:lr-tb;text-anchor:start;baseline-shift:baseline;color:#000000;fill:#f4f4f4;fill-opacity:1;stroke:none;stroke-width:2;marker:none;visibility:visible;display:inline;overflow:visible;enable-background:accumulate;font-family:Sans;-inkscape-font-specification:Sans" />
<path
   d="M 101.53125,62.8125 100,64.09375 c 4.41437,5.418027 7.55622,13.777676 8.46875,21.8125 0.91253,8.034824 -0.4434,15.65161 -4.53125,19.71875 -3.55517,3.53693 -11.260683,4.21652 -19.25,2.8125 C 76.698183,107.03348 68.498354,103.64943 64.09375,100 l -1.28125,1.53125 c 4.863396,4.02957 13.240567,7.41802 21.53125,8.875 8.290683,1.45698 16.56317,1.07032 21,-3.34375 4.79315,-4.76886 6.07772,-12.986324 5.125,-21.375 -0.95272,-8.388676 -4.18587,-17.043027 -8.9375,-22.875 z"
   id="path131"
   style="font-size:medium;font-style:normal;font-variant:normal;font-weight:normal;font-stretch:normal;text-indent:0;text-align:start;text-decoration:none;line-height:normal;letter-spacing:normal;word-spacing:normal;text-transform:none;direction:ltr;block-progression:tb;writing-mode:lr-tb;text-anchor:start;baseline-shift:baseline;color:#000000;fill:#f4f4f4;fill-opacity:1;stroke:none;stroke-width:2;marker:none;visibility:visible;display:inline;overflow:visible;enable-background:accumulate;font-family:Sans;-inkscape-font-specification:Sans" />
<path
   d="m 393.71875,31.40625 -0.28125,0.21875 -0.1875,0.125 -0.0937,0.09375 -0.0625,0.09375 -154.9375,203.78125 -0.0312,0.0312 -0.0312,0.0625 -0.25,0.40625 -0.875,1.5 1.75,0 167.03125,0 c 2.99305,0 6.3125,3.15625 6.3125,3.15625 l 0.0312,0.0312 0.0312,0.0312 c 20.7234,17.58413 47.57175,28.1875 76.875,28.1875 65.63644,0 118.875,-53.20832 118.875,-118.84375 0,-65.635441 -53.23956,-118.875 -118.875,-118.875 l -94.9375,0 -0.34375,0 z m 0.78125,2 94.5,0 c 64.55456,0 116.875,52.320441 116.875,116.875 0,64.55457 -52.31944,116.84375 -116.875,116.84375 -28.78921,0 -55.13259,-10.40031 -75.5,-27.65625 0,0 -0.061,-0.0609 -0.0625,-0.0625 -0.10174,-0.10829 -3.49002,-3.6875 -7.6875,-3.6875 l -165.09375,0 L 394.5,33.40625 z"
   id="path133"
   style="font-size:medium;font-style:normal;font-variant:normal;font-weight:normal;font-stretch:normal;text-indent:0;text-align:start;text-decoration:none;line-height:normal;letter-spacing:normal;word-spacing:normal;text-transform:none;direction:ltr;block-progression:tb;writing-mode:lr-tb;text-anchor:start;baseline-shift:baseline;color:#000000;fill:#f4f4f4;fill-opacity:1;stroke:none;stroke-width:2;marker:none;visibility:visible;display:inline;overflow:visible;enable-background:accumulate;font-family:Sans;-inkscape-font-specification:Sans" />
<path
   d="M 118.875,0 C 53.238557,0 0,53.239559 0,118.875 0,184.51044 53.238567,237.71875 118.875,237.71875 l 112.3125,0 0.4375,0 0.28125,-0.3125 0.40625,-0.40625 0.0312,-0.0312 0.0312,-0.0625 154.90625,-203.75 0.59375,-0.78125 -0.75,-0.625 -0.1875,-0.125 -0.28125,-0.21875 -0.34375,0 -183.0625,0 c -1.81834,0 -4.08044,-1.018877 -5.8125,-2.09375 -1.73196,-1.074923 -2.9374,-2.1563 -2.9374,-2.1563 l -0.0312,0 C 173.92278,10.20033 147.59045,0 118.875,0 z m 0,2 c 28.24255,0 54.11047,10.01542 74.3125,26.6875 l 0,-0.03125 0.0312,0 c 0.0168,0.01482 1.2843,1.182063 3.15625,2.34375 1.88394,1.169127 4.36534,2.40625 6.875,2.40625 l 181.3125,0 -153.71875,202.21875 -0.0625,0.0937 -0.0312,0 -111.875,0 C 54.319433,235.71875 2,183.42956 2,118.875 2,54.320441 54.319443,2 118.875,2 z"
   id="path135"
   style="font-size:medium;font-style:normal;font-variant:normal;font-weight:normal;font-stretch:normal;text-indent:0;text-align:start;text-decoration:none;line-height:normal;letter-spacing:normal;word-spacing:normal;text-transform:none;direction:ltr;block-progression:tb;writing-mode:lr-tb;text-anchor:start;baseline-shift:baseline;color:#000000;fill:#f4f4f4;fill-opacity:1;stroke:none;stroke-width:2;marker:none;visibility:visible;display:inline;overflow:visible;enable-background:accumulate;font-family:Sans;-inkscape-font-specification:Sans" />
<path
   d="m 385.84375,32.5 0,2 7.4375,0 0,-2 -7.4375,0 z"
   id="line137"
   style="font-size:medium;font-style:normal;font-variant:normal;font-weight:normal;font-stretch:normal;text-indent:0;text-align:start;text-decoration:none;line-height:normal;letter-spacing:normal;word-spacing:normal;text-transform:none;direction:ltr;block-progression:tb;writing-mode:lr-tb;text-anchor:start;baseline-shift:baseline;color:#000000;fill:#f4f4f4;fill-opacity:1;stroke:none;stroke-width:2;marker:none;visibility:visible;display:inline;overflow:visible;enable-background:accumulate;font-family:Sans;-inkscape-font-specification:Sans" />
<path
   d="m 232.03125,234.6875 0,2 7.15625,0 0,-2 -7.15625,0 z"
   id="line139"
   style="font-size:medium;font-style:normal;font-variant:normal;font-weight:normal;font-stretch:normal;text-indent:0;text-align:start;text-decoration:none;line-height:normal;letter-spacing:normal;word-spacing:normal;text-transform:none;direction:ltr;block-progression:tb;writing-mode:lr-tb;text-anchor:start;baseline-shift:baseline;color:#000000;fill:#f4f4f4;fill-opacity:1;stroke:none;stroke-width:2;marker:none;visibility:visible;display:inline;overflow:visible;enable-background:accumulate;font-family:Sans;-inkscape-font-specification:Sans" />
<path
   d="m 118.0625,108.625 c -5.20393,0 -9.4375,4.23357 -9.4375,9.4375 0,5.20393 4.23357,9.4375 9.4375,9.4375 5.20393,0 9.46875,-4.23357 9.46875,-9.4375 0,-5.20393 -4.26482,-9.4375 -9.46875,-9.4375 z m 0,2 c 4.12305,0 7.46875,3.31445 7.46875,7.4375 0,4.12305 -3.3457,7.4375 -7.46875,7.4375 -4.12305,0 -7.4375,-3.31445 -7.4375,-7.4375 0,-4.12305 3.31445,-7.4375 7.4375,-7.4375 z"
   id="circle141"
   style="font-size:medium;font-style:normal;font-variant:normal;font-weight:normal;font-stretch:normal;text-indent:0;text-align:start;text-decoration:none;line-height:normal;letter-spacing:normal;word-spacing:normal;text-transform:none;direction:ltr;block-progression:tb;writing-mode:lr-tb;text-anchor:start;baseline-shift:baseline;color:#000000;fill:#f4f4f4;fill-opacity:1;stroke:none;stroke-width:2;marker:none;visibility:visible;display:inline;overflow:visible;enable-background:accumulate;font-family:Sans;-inkscape-font-specification:Sans" />
</svg>