<?xml version="1.0" encoding="UTF-8" standalone="no"?>
<!-- Generator: Adobe Illustrator 13.0.0, SVG Export Plug-In . SVG Version: 6.00 Build 14948)  -->
<svg id="Layer_3" xmlns:rdf="http://www.w3.org/1999/02/22-rdf-syntax-ns#" xmlns="http://www.w3.org/2000/svg" xml:space="preserve" height="254.77px" viewBox="0 0 608.438 254.774" width="608.44px" version="1.2" y="0px" x="0px" xmlns:cc="http://creativecommons.org/ns#" xmlns:dc="http://purl.org/dc/elements/1.1/"><metadata id="metadata43"><rdf:RDF><cc:Work rdf:about=""><dc:format>image/svg+xml</dc:format><dc:type rdf:resource="http://purl.org/dc/dcmitype/StillImage"/><dc:title/></cc:Work></rdf:RDF></metadata>
<path id="path3" style="baseline-shift:baseline;block-progression:tb;color:#000000;direction:ltr;text-indent:0;text-align:start;enable-background:accumulate;text-transform:none;" fill="#f4f4f4" d="m114.16,26.469c-21.488,0-41.616,5.9548-58.781,16.281l1.0312,1.6875c16.865-10.146,36.63-15.969,57.75-15.969,61.952,0,112.16,50.205,112.16,112.16,0,45.74-27.373,85.075-66.625,102.53l0.8125,1.8125c39.956-17.77,67.812-57.806,67.812-104.34,0-63.032-51.124-114.16-114.16-114.16z"/>
<path id="path5" style="baseline-shift:baseline;block-progression:tb;color:#000000;direction:ltr;text-indent:0;text-align:start;enable-background:accumulate;text-transform:none;" fill="#f4f4f4" d="m249.38,111.75c-5.3194,0-9.6562,4.3386-9.6562,9.6562,0,5.3203,4.3368,9.6562,9.6562,9.6562h21c5.3194,0,9.6562-4.3358,9.6562-9.6562,0-5.3178-4.3368-9.6562-9.6562-9.6562h-21zm0,2,21,0c4.2386,0,7.6562,3.42,7.6562,7.6562,0,4.2396-3.4177,7.6562-7.6562,7.6562h-21c-4.2386,0-7.6562-3.4166-7.6562-7.6562,0-4.2364,3.4177-7.6562,7.6562-7.6562z"/>
<path id="path7" style="baseline-shift:baseline;block-progression:tb;color:#000000;direction:ltr;text-indent:0;text-align:start;enable-background:accumulate;text-transform:none;" fill="#f4f4f4" d="m298.62,0c-55.88,0-107.72,4.6402-150.5,12.562-42.754,7.9177-76.448,19.065-96.156,32.312-0.01126,0.0076-0.02,0.02368-0.03125,0.03125l-0.375,0.21875v0.03125c-31.046,20.403-51.558,55.545-51.558,95.465,0,63.032,51.124,114.16,114.16,114.16,17.569,0,34.224-3.9701,49.094-11.062l0.0937-0.0625,0.0625-0.0625,0.0625-0.0312c37.987-18.431,83.872-30.094,139.31-30.094h2.875c55.442,0,101.33,11.663,139.31,30.094,0.0329,0.016,0.0609,0.0465,0.0937,0.0625l0.0625,0.0312c0.008,0.004,0.0228-0.004,0.0312,0l0.0312,0.0625c14.87,7.0924,31.525,11.062,49.094,11.062,63.032,0,114.16-51.124,114.16-114.16,0-39.922-20.512-75.067-51.562-95.469v-0.03125l-0.375-0.21875c-0.0113-0.0076-0.02-0.02368-0.0312-0.03125-19.69-13.243-53.38-24.39-96.14-32.308-42.78-7.9218-94.62-12.562-150.5-12.562h-11.19zm0,2,11.188,0c55.769,0,107.49,4.6363,150.12,12.531,42.631,7.895,76.181,19.074,95.438,32.031l0.0312,0.03125,0.375,0.21875c0.0122,0.008,0.019,0.02322,0.0312,0.03125,30.487,20.048,50.625,54.559,50.625,93.781,0,61.952-50.205,112.16-112.16,112.16-17.218,0-33.517-3.8823-48.094-10.812l-0.0312-0.0312c-0.0209-0.01-0.0416-0.0213-0.0625-0.0312h-0.0312l-0.07-0.03c-38.29-18.62-84.53-30.41-140.34-30.41h-2.875c-55.813,0-102.08,11.791-140.38,30.406l-0.0312,0.0312h-0.0312l-0.0937,0.0625-0.0625,0.0312c-14.56,6.9115-30.838,10.781-48.031,10.781-61.955,0-112.16-50.2-112.16-112.16,0-39.22,20.138-73.728,50.625-93.776,0.01221-0.008,0.01904-0.02323,0.03125-0.03125l0.375-0.21875,0.03125-0.03125c19.257-12.958,52.808-24.137,95.438-32.032,42.63-7.8947,94.36-12.531,150.12-12.531z"/>
<path id="path9" style="baseline-shift:baseline;block-progression:tb;color:#000000;direction:ltr;text-indent:0;text-align:start;enable-background:accumulate;text-transform:none;" fill="#f4f4f4" d="m494.28,26.469c-63.033,0-114.16,51.124-114.16,114.16,0,46.538,27.857,86.574,67.812,104.34l0.8125-1.8125c-39.24-17.46-66.62-56.8-66.62-102.54,0-61.952,50.204-112.16,112.16-112.16,21.119,0,40.885,5.8232,57.75,15.969l1.03-1.679c-17.16-10.326-37.29-16.281-58.78-16.281z"/>
<path id="path11" style="baseline-shift:baseline;block-progression:tb;color:#000000;direction:ltr;text-indent:0;text-align:start;enable-background:accumulate;text-transform:none;" fill="#f4f4f4" d="m338.06,111.75c-5.3185,0-9.6562,4.3385-9.6562,9.6562,0,5.3204,4.3377,9.6562,9.6562,9.6562h21c5.3194,0,9.6562-4.3361,9.6562-9.6562,0-5.3175-4.3368-9.6562-9.6562-9.6562h-21zm0,2,21,0c4.2386,0,7.6562,3.4198,7.6562,7.6562,0,4.2398-3.4177,7.6562-7.6562,7.6562h-21c-4.2375,0-7.6562-3.4167-7.6562-7.6562,0-4.2362,3.4188-7.6562,7.6562-7.6562z"/>
<g id="g13" stroke="#F4F4F4" stroke-width="2" fill="none">
	<circle id="circle15" r="48.708" cy="117.08" cx="135.75"/>
	<path id="path17" d="M88.775,129.56h31.236c2.246,0,3.262,1.266,3.262,3.512v31.129"/>
	<path id="path19" d="M123.27,70.068v31.343c0,2.175-1.016,3.191-3.547,3.191h-31.015"/>
	<path id="path21" d="M148.23,69.998v31.342c0,1.961,1.016,3.263,3.548,3.263h31.128"/>
	<path id="path23" d="M148.23,164.2v-31.093c0-2.426,1.196-3.548,3.478-3.548h31.093"/>
</g>
<path id="circle25" style="baseline-shift:baseline;block-progression:tb;color:#000000;direction:ltr;text-indent:0;text-align:start;enable-background:accumulate;text-transform:none;" fill="#f4f4f4" d="m135.75,106.31c-5.9363,0-10.781,4.845-10.781,10.781,0,5.9363,4.845,10.75,10.781,10.75,5.9363,0,10.781-4.8137,10.781-10.75s-4.845-10.781-10.781-10.781zm0,2c4.8554,0,8.7812,3.9259,8.7812,8.7812,0,4.8554-3.9259,8.75-8.7812,8.75-4.8554,0-8.7812-3.8946-8.7812-8.75s3.9259-8.7812,8.7812-8.7812z"/>
<path id="circle27" style="baseline-shift:baseline;block-progression:tb;color:#000000;direction:ltr;text-indent:0;text-align:start;enable-background:accumulate;text-transform:none;" fill="#f4f4f4" d="m135.75,46.625c-38.902,0-70.469,31.567-70.469,70.469s31.567,70.438,70.469,70.438,70.469-31.535,70.469-70.438c0-38.902-31.567-70.469-70.469-70.469zm0,2c37.821,0,68.469,30.647,68.469,68.469,0,37.821-30.647,68.438-68.469,68.438-37.821,0-68.469-30.616-68.469-68.438,0-37.821,30.647-68.469,68.469-68.469z"/>
<path id="circle29" style="baseline-shift:baseline;block-progression:tb;color:#000000;direction:ltr;text-indent:0;text-align:start;enable-background:accumulate;text-transform:none;" fill="#f4f4f4" d="m435.94,131.44c-14.246,0-25.844,11.566-25.844,25.812s11.597,25.844,25.844,25.844c14.246,0,25.812-11.597,25.812-25.844,0-14.246-11.566-25.812-25.812-25.812zm0,2c13.166,0,23.812,10.647,23.812,23.812,0,13.166-10.647,23.844-23.812,23.844-13.166,0-23.844-10.678-23.844-23.844s10.678-23.812,23.844-23.812z"/>
<path id="circle31" style="baseline-shift:baseline;block-progression:tb;color:#000000;direction:ltr;text-indent:0;text-align:start;enable-background:accumulate;text-transform:none;" fill="#f4f4f4" d="m481.84,91.219c-14.246,0-25.812,11.566-25.812,25.812s11.566,25.812,25.812,25.812,25.812-11.566,25.812-25.812-11.566-25.812-25.812-25.812zm0,2c13.166,0,23.812,10.647,23.812,23.812,0,13.166-10.647,23.812-23.812,23.812-13.166,0-23.812-10.647-23.812-23.812,0-13.166,10.647-23.812,23.812-23.812z"/>
<path id="circle33" style="baseline-shift:baseline;block-progression:tb;color:#000000;direction:ltr;text-indent:0;text-align:start;enable-background:accumulate;text-transform:none;" fill="#f4f4f4" d="m536.34,62.406c-14.246,0-25.812,11.566-25.812,25.812s11.566,25.844,25.812,25.844,25.812-11.597,25.812-25.844c0-14.246-11.566-25.812-25.812-25.812zm0,2c13.166,0,23.812,10.647,23.812,23.812,0,13.166-10.647,23.844-23.812,23.844-13.166,0-23.812-10.678-23.812-23.844s10.647-23.812,23.812-23.812z"/>
<path id="polyline35" style="baseline-shift:baseline;block-progression:tb;color:#000000;direction:ltr;text-indent:0;text-align:start;enable-background:accumulate;text-transform:none;" fill="#f4f4f4" d="m316.28,212.72,0,4.1875-24.125,0,0-4.1562-2,0,0,5.1562,0,1,1,0,26.125,0,1,0,0-1,0-5.1875-2,0z"/>
<path id="path37" style="baseline-shift:baseline;block-progression:tb;color:#000000;direction:ltr;text-indent:0;text-align:start;enable-background:accumulate;text-transform:none;" fill="#f4f4f4" d="M363.03,216.28,361.44,217.5c5.3271,6.9454,13.703,11.406,23.125,11.406,4.912,0,9.5631-1.226,13.625-3.375l-0.9375-1.75c-3.7821,2.001-8.1055,3.125-12.688,3.125-8.7885,0-16.568-4.1544-21.531-10.625z"/>
</svg>
