<?xml version="1.0" encoding="UTF-8" standalone="no"?>
<!-- Generator: Adobe Illustrator 13.0.0, SVG Export Plug-In . SVG Version: 6.00 Build 14948)  -->
<svg id="Layer_3" xmlns:rdf="http://www.w3.org/1999/02/22-rdf-syntax-ns#" xmlns="http://www.w3.org/2000/svg" xml:space="preserve" height="381.93px" viewBox="0 0 585.159 381.926" width="585.16px" version="1.2" y="0px" x="0px" xmlns:cc="http://creativecommons.org/ns#" xmlns:dc="http://purl.org/dc/elements/1.1/"><metadata id="metadata57"><rdf:RDF><cc:Work rdf:about=""><dc:format>image/svg+xml</dc:format><dc:type rdf:resource="http://purl.org/dc/dcmitype/StillImage"/><dc:title/></cc:Work></rdf:RDF></metadata>
<path id="circle3" style="baseline-shift:baseline;block-progression:tb;color:#000000;direction:ltr;text-indent:0;text-align:start;enable-background:accumulate;text-transform:none;" fill="#f4f4f4" d="m113.97,37.125c-56.961,0-103.16,46.196-103.16,103.16,0,56.961,46.196,103.16,103.16,103.16,56.961,0,103.16-46.196,103.16-103.16-0.01-56.959-46.2-103.16-103.16-103.16zm0,2c55.88,0,101.16,45.276,101.16,101.16,0,55.88-45.276,101.16-101.16,101.16-55.881,0-101.16-45.28-101.16-101.16,0-55.879,45.277-101.16,101.16-101.16z"/>
<path id="path5" style="baseline-shift:baseline;block-progression:tb;color:#000000;direction:ltr;text-indent:0;text-align:start;enable-background:accumulate;text-transform:none;" fill="#f4f4f4" d="m113.97,2.6562c-16.788,0-31.982,4.4183-44.062,10.906-2.1909,1.1764-3.5617,3.9117-4.7812,7.375-1.2196,3.4633-2.1889,7.7315-2.9688,12.031-1.5596,8.5995-2.4436,17.527-3,20.094l1.967,0.438c0.65863-3.0389,1.4606-11.7,3-20.188,0.76968-4.2439,1.7174-8.4003,2.875-11.688,1.1576-3.2872,2.6234-5.6404,3.875-6.3125,11.798-6.3361,26.656-10.656,43.094-10.656,16.56,0,31.837,3.8825,43.312,10.781,1.9097,1.148,3.567,3.8451,4.8125,7.4062,1.2455,3.5612,2.092,7.9343,2.6875,12.219,0.59546,4.2845,0.93666,8.4889,1.1562,11.812,0.10979,1.6618,0.17821,3.1004,0.25,4.2188,0.0718,1.1184,0.11443,1.8538,0.21875,2.375l1.97-0.406c-0.0359-0.17951-0.11656-0.98866-0.1875-2.0938-0.0709-1.1051-0.13948-2.5459-0.25-4.2188-0.22104-3.3456-0.58146-7.6082-1.1875-11.969-0.60604-4.3605-1.4636-8.8262-2.7812-12.594-1.3177-3.7676-3.0404-6.8962-5.6562-8.4688-11.86-7.1295-27.47-11.061-44.34-11.061z"/>
<path id="path7" style="baseline-shift:baseline;block-progression:tb;color:#000000;direction:ltr;text-indent:0;text-align:start;enable-background:accumulate;text-transform:none;" fill="#f4f4f4" d="M113.97,0c-10.43,0-19.925,1.3634-27.22,3.625h-0.03125-0.03125c-1.551,0.5444-2.526,1.5927-3.094,2.5312-0.284,0.4693-0.465,0.9272-0.594,1.2813s-0.215,0.6773-0.219,0.6875l1.907,0.625c0.06659-0.19976,0.09076-0.35958,0.1875-0.625s0.23895-0.60964,0.4375-0.9375c0.38778-0.64031,0.99541-1.283,2-1.6562,0.02416-0.00898,0.03785-0.022595,0.0625-0.03125,7.0322-2.1712,16.369-3.5,26.594-3.5,10.044,0,19.233,1.3022,26.219,3.4062,0.009,0.00264,0.0225-0.00264,0.0312,0,1.1739,0.38615,2.0351,1.0948,2.5938,1.75,0.28163,0.33027,0.4708,0.63475,0.59375,0.875s0.15625,0.4856,0.15625,0.25h2c0-0.5156-0.17429-0.76406-0.375-1.1562-0.19-0.3922-0.45-0.8333-0.84-1.2812-0.76-0.896-1.93-1.828-3.53-2.3438h-0.0312c-7.23-2.1832-16.58-3.5-26.81-3.5z"/>
<path id="circle9" style="baseline-shift:baseline;block-progression:tb;color:#000000;direction:ltr;text-indent:0;text-align:start;enable-background:accumulate;text-transform:none;" fill="#f4f4f4" d="m471.19,37.125c-56.961,0-103.16,46.196-103.16,103.16,0,56.961,46.196,103.16,103.16,103.16,56.961,0,103.16-46.196,103.16-103.16-0.01-56.959-46.2-103.16-103.16-103.16zm0,2c55.88,0,101.16,45.276,101.16,101.16,0,55.88-45.276,101.16-101.16,101.16-55.88,0-101.16-45.276-101.16-101.16,0-55.88,45.276-101.16,101.16-101.16z"/>
<path id="path11" style="baseline-shift:baseline;block-progression:tb;color:#000000;direction:ltr;text-indent:0;text-align:start;enable-background:accumulate;text-transform:none;" fill="#f4f4f4" d="m10.844,128.03c-1.1214,17.244-3.8209,61.468-6.25,102.62-1.2148,20.58-2.3781,40.4-3.219,55.69-0.84094,15.3-1.375,25.99-1.375,28.63,0,36.969,30,66.969,66.969,66.969,12.606,0,21.771-3.5004,29.094-9.5938,7.3223-6.0934,12.807-14.709,18.312-24.969,10.425-19.431,22.503-42.757,33.094-62.812,10.59-20.055,19.744-36.92,24.125-43.219,4.4319-6.3707,8.3443-10.117,13.125-12.406,4.7807-2.2893,10.517-3.1276,18.594-3.4062,16.179-0.55834,54.577,0,67.5,0h43.531c12.922,0,51.322-0.55833,67.5,0,8.0768,0.2787,13.813,1.117,18.594,3.4062,4.7805,2.2893,8.7243,6.0356,13.156,12.406,4.3809,6.2978,13.503,23.163,24.094,43.219,10.59,20.056,22.698,43.381,33.125,62.812,5.5054,10.26,10.959,18.875,18.281,24.969,7.3223,6.0934,16.488,9.5938,29.094,9.5938,36.969,0,66.969-29.999,66.969-66.969,0-2.6428-0.53396-13.329-1.375-28.625s-1.9728-35.109-3.1875-55.688c-2.4293-41.157-5.1598-85.381-6.2812-102.62l-2,0.15625c1.1206,17.231,3.8521,61.44,6.2812,102.59,1.2146,20.577,2.3467,40.397,3.1875,55.688,0.84077,15.291,1.375,26.144,1.375,28.5,0,35.889-29.08,64.969-64.969,64.969-12.241,0-20.829-3.3134-27.812-9.125-6.9837-5.8116-12.348-14.222-17.812-24.406-10.416-19.411-22.498-42.684-33.094-62.75s-19.663-36.843-24.25-43.438c-4.5381-6.5233-8.7368-10.618-13.906-13.094-5.1695-2.4755-11.225-3.3114-19.406-3.5938-16.332-0.56367-54.699,0-67.562,0h-43.531c-12.865,0-51.229-0.56366-67.562,0-8.1807,0.2823-14.237,1.1183-19.406,3.5938-5.1696,2.4755-9.3682,6.5704-13.906,13.094-4.5876,6.5946-13.654,23.371-24.25,43.438-10.596,20.066-22.679,43.34-33.094,62.75-5.4651,10.184-10.829,18.595-17.812,24.406-6.9837,5.8116-15.571,9.125-27.812,9.125-35.875,0-64.956-29.08-64.956-64.97,0-2.3562,0.53432-13.209,1.375-28.5s1.973-35.111,3.1875-55.688c2.4289-41.154,5.1607-85.363,6.2812-102.59l-2-0.15625z"/>
<path id="path13" style="baseline-shift:baseline;block-progression:tb;color:#000000;direction:ltr;text-indent:0;text-align:start;enable-background:accumulate;text-transform:none;" fill="#f4f4f4" d="m471.19,2.6562c-16.871,0-32.451,3.9312-44.312,11.062-2.6158,1.5725-4.3699,4.7012-5.6875,8.4688s-2.1753,8.2332-2.7812,12.594c-0.60598,4.3606-0.9666,8.6231-1.1875,11.969-0.11045,1.6728-0.17915,3.1136-0.25,4.2188-0.0709,1.1051-0.15158,1.914-0.1875,2.0938l1.9688,0.40625c0.10408-0.52097,0.14705-1.2567,0.21875-2.375s0.14028-2.5569,0.25-4.2188c0.21945-3.3236,0.56085-7.528,1.1562-11.812,0.5954-4.2844,1.442-8.6576,2.6875-12.219,1.2454-3.5612,2.9028-6.2583,4.8125-7.4062,11.475-6.8987,26.752-10.781,43.312-10.781,16.436,0,31.327,4.3202,43.125,10.656,1.2511,0.67198,2.6864,3.0253,3.8438,6.3125s2.1053,7.4436,2.875,11.688c1.5394,8.4877,2.3414,17.149,3,20.188l1.96-0.44c-0.55638-2.5671-1.4404-11.494-3-20.094-0.77982-4.2998-1.7181-8.5679-2.9375-12.031-1.2194-3.4633-2.6221-6.1985-4.8125-7.375-12.08-6.4875-27.27-10.906-44.06-10.906z"/>
<path id="path15" style="baseline-shift:baseline;block-progression:tb;color:#000000;direction:ltr;text-indent:0;text-align:start;enable-background:accumulate;text-transform:none;" fill="#f4f4f4" d="M471.19,0c-10.23,0-19.58,1.3168-26.81,3.5h-0.0312c-1.5962,0.51582-2.7673,1.4478-3.5312,2.3438-0.382,0.44798-0.64304,0.88906-0.84375,1.2812-0.20071,0.39219-0.375,0.64065-0.375,1.1562h2c0,0.2356,0.0333-0.00975,0.15625-0.25s0.31212-0.54473,0.59375-0.875c0.55868-0.65518,1.4198-1.3638,2.5938-1.75,0.009-0.00264,0.0225,0.00264,0.0312,0,6.98-2.104,16.17-3.4062,26.22-3.4062,10.225,0,19.563,1.3288,26.594,3.5,0.0204,0.0063,0.0421,0.024938,0.0625,0.03125,1.005,0.37326,1.6125,1.016,2,1.6562,0.19843,0.32782,0.34073,0.67193,0.4375,0.9375,0.0968,0.26557,0.1196,0.42274,0.1875,0.625l1.91-0.6561c-0.003-0.00774-0.0898-0.30229-0.21875-0.65625-0.13-0.3541-0.31-0.812-0.6-1.2814-0.57-0.9386-1.54-1.9868-3.09-2.5312h-0.0312c-7.3-2.2616-16.82-3.625-27.25-3.625z"/>
<path id="line17" style="baseline-shift:baseline;block-progression:tb;color:#000000;direction:ltr;text-indent:0;text-align:start;enable-background:accumulate;text-transform:none;" fill="#f4f4f4" d="m185.62,66,0,2,214.41,0,0-2-214.41,0z"/>
<path id="path19" style="baseline-shift:baseline;block-progression:tb;color:#000000;direction:ltr;text-indent:0;text-align:start;enable-background:accumulate;text-transform:none;" fill="#f4f4f4" d="m88.562,59.094c-2.3977,0-4.375,1.9773-4.375,4.375v44.312l-0.15625,0.1875h-44.344c-2.3969,0-4.3438,1.9457-4.3438,4.3438v50.844c0,2.3987,1.9472,4.3438,4.3438,4.3438h44.438l0.0625,0.0625v44.438c0,2.3984,1.9773,4.375,4.375,4.375h50.812c2.3977,0,4.375-1.9766,4.375-4.375v-44.375l0.0937-0.125h44.406c2.3973,0,4.375-1.9454,4.375-4.3438v-50.844c0-2.3977-1.9773-4.3438-4.375-4.3438h-44.375l-0.125-0.15625v-44.344c0-2.3977-1.9773-4.375-4.375-4.375h-50.812zm0,2,50.812,0c1.3163,0,2.375,1.0587,2.375,2.375v44.688,0.34375l0.21875,0.28125,0.59375,0.78125,0.3125,0.40625h0.5,44.875c1.3163,0,2.375,1.0274,2.375,2.3438v50.844c0,1.3176-1.0583,2.3438-2.375,2.3438h-44.938-0.53125l-0.28125,0.4375-0.5625,0.78125-0.1875,0.25v0.34375,44.688c0,1.3176-1.0587,2.375-2.375,2.375h-50.812c-1.3163,0-2.375-1.0574-2.375-2.375v-44.844-0.40625l-0.28125-0.28125-0.642-0.64-0.281-0.31h-0.40625-44.875c-1.3154,0-2.3438-1.0265-2.3438-2.3438v-50.844c0-1.316,1.0287-2.3438,2.3438-2.3438h44.875,0.46875l0.3125-0.40625,0.65625-0.84375,0.1875-0.25v-0.34375-44.656c0-1.3163,1.0587-2.375,2.375-2.375z"/>
<path id="path21" style="baseline-shift:baseline;block-progression:tb;color:#000000;direction:ltr;text-indent:0;text-align:start;enable-background:accumulate;text-transform:none;" fill="#f4f4f4" d="m448.06,56.375c-2.4382,0-4.4375,1.9986-4.4375,4.4375v45.312l-0.15625,0.1875h-45.312c-2.4389,0-4.4375,1.9996-4.4375,4.4375v51.906c0,2.4389,2,4.4375,4.4375,4.4375h45.375l0.0937,0.0625v45.438c0,2.4386,2,4.4375,4.4375,4.4375h51.938c2.4386,0,4.4375-2.0007,4.4375-4.4375v-45.375l0.0937-0.125h45.375c2.4386,0,4.4375-2,4.4375-4.4375v-51.906c0-2.4386-1.9996-4.4375-4.4375-4.4375h-45.344l-0.125-0.15625v-45.344c0-2.4386-2-4.4375-4.4375-4.4375h-51.938zm0,2,51.938,0c1.3565,0,2.4375,1.0801,2.4375,2.4375v45.688,0.34375l0.21875,0.25,0.59375,0.8125,0.3125,0.40625h0.5,45.844c1.3562,0,2.4375,1.0801,2.4375,2.4375v51.906c0,1.3565-1.0801,2.4375-2.4375,2.4375h-45.906-0.5l-0.3125,0.4375-0.5625,0.8125-0.1875,0.25v0.3125,45.688c0,1.3552-1.0801,2.4375-2.4375,2.4375h-51.938c-1.3565,0-2.4375-1.0821-2.4375-2.4375v-45.812-0.4375l-0.28125-0.28125-0.65625-0.65625-0.3125-0.3125h-0.40625-45.812c-1.3565,0-2.4375-1.0804-2.4375-2.4375v-51.906c0-1.3562,1.0804-2.4375,2.4375-2.4375h45.812,0.5l0.28125-0.40625,0.6875-0.84375,0.1875-0.28125v-0.34375-45.625c0-1.3571,1.0797-2.4375,2.4375-2.4375z"/>
<path id="path23" style="baseline-shift:baseline;block-progression:tb;color:#000000;direction:ltr;text-indent:0;text-align:start;enable-background:accumulate;text-transform:none;" fill="#f4f4f4" d="M100.34,82.25c-4.252,0-7.715,3.494-7.715,7.75v16.812c0,1.3713,0.33933,2.6625,0.96875,3.7812l0.0625,0.0937,0.09375,0.0937,13.312,14.062,0.0312,0.0625,0.0312-0.0312c1.6214,2.003,4.0702,3.3125,6.8438,3.3125,2.8342,0,5.3503-1.3875,6.9688-3.4688l0.0312,0.0312,0.0625-0.0937,13.312-14.094,0.0937-0.0937,0.0625-0.15625c0.54124-1.056,0.84375-2.2354,0.84375-3.5v-16.812c0-4.2564-3.4634-7.75-7.7188-7.75h-27.281zm0,2,27.281,0c3.1747,0,5.7188,2.5744,5.7188,5.75v16.812c0,0.9193-0.21193,1.7642-0.59375,2.5312l-13.25,14.031-0.0312,0.0312-0.0312,0.0625c-1.2511,1.6519-3.2312,2.7188-5.4688,2.7188-2.1777,0-4.088-1.0175-5.3438-2.5938l-0.0312-0.0312-0.0312-0.0312-13.25-13.969c-0.44635-0.81541-0.6875-1.7514-0.6875-2.75l-0.007-16.81c0-3.1745,2.5443-5.75,5.7188-5.75z"/>
<path id="polygon25" style="baseline-shift:baseline;block-progression:tb;color:#000000;direction:ltr;text-indent:0;text-align:start;enable-background:accumulate;text-transform:none;" fill="#f4f4f4" d="m113.97,66.344-0.6875,0.71875-8.0312,8-1.6875,1.7188,2.4062,0,16.031,0,2.4062,0-1.7188-1.7188-8-8-0.71875-0.71875zm0.03,2.844l5.5938,5.5938h-11.219l5.63-5.594z"/>
<path id="path27" style="baseline-shift:baseline;block-progression:tb;color:#000000;direction:ltr;text-indent:0;text-align:start;enable-background:accumulate;text-transform:none;" fill="#f4f4f4" d="m66.25,116.38c-4.2553,0-7.75,3.4624-7.75,7.7188v27.281c0,4.2555,3.4945,7.7188,7.75,7.7188h16.812c1.3708,0,2.6617-0.36899,3.7812-1l0.09375-0.0312,0.09375-0.0937,14.062-13.312c0.0231-0.0184,0.0396-0.0439,0.0625-0.0625,1.9956-1.6219,3.25-4.1087,3.25-6.875,0-2.8328-1.3563-5.3188-3.4375-6.9375l0.04-0.05-0.0937-0.0625-14.094-13.312-0.125-0.0937-0.125-0.0625c-1.0545-0.53988-2.2348-0.84375-3.5-0.84375h-16.812zm0,2,16.812,0c0.93203,0,1.7876,0.23334,2.5625,0.625,0.0089,0.005,0.02235-0.005,0.03125,0l13.969,13.188,0.03125,0.0625,0.0625,0.0312c1.6516,1.2509,2.6875,3.2008,2.6875,5.4375,0,2.178-0.98568,4.1195-2.5625,5.375l-0.03125,0.0312-0.03125,0.0312-14,13.25c-0.81451,0.44647-1.7199,0.6875-2.7188,0.6875h-16.812c-3.1745,0-5.75-2.5443-5.75-5.7188v-27.281c0-3.1756,2.5753-5.7188,5.75-5.7188z"/>
<path id="polygon29" style="baseline-shift:baseline;block-progression:tb;color:#000000;direction:ltr;text-indent:0;text-align:start;enable-background:accumulate;text-transform:none;" fill="#f4f4f4" d="M53,127.31,51.312,129l-8.0312,8.0312-0.6875,0.6875,0.6875,0.71875,8.0312,8,1.6875,1.7188v-2.4062-16.031-2.4062zm-2,4.8438,0,11.156l-3.874-7.25,5.562-5.59z"/>
<path id="path31" style="baseline-shift:baseline;block-progression:tb;color:#000000;direction:ltr;text-indent:0;text-align:start;enable-background:accumulate;text-transform:none;" fill="#f4f4f4" d="m113.97,147.28c-2.8331,0-5.3503,1.3576-6.9688,3.4375-0.0182,0.0234-0.0446,0.0389-0.0625,0.0625l-13.312,14.125-0.09375,0.0937-0.0625,0.125c-0.54259,1.0564-0.84375,2.2666-0.84375,3.5312v16.812c0,4.2562,3.4626,7.7188,7.7188,7.7188h27.281c4.2553,0,7.7188-3.4624,7.7188-7.7188v-16.812c0-1.3713-0.37058-2.6625-1-3.7812l-0.0625-0.125-0.0625-0.0625-13.312-14.062c-0.0183-0.023-0.044-0.0397-0.0625-0.0625-1.6211-1.9961-4.1077-3.2812-6.875-3.2812zm0,2c2.1791,0,4.1206,1.0172,5.375,2.5938l0.0312,0.0312,0.0312,0.0312,13.25,14.031c0.42873,0.80284,0.6875,1.7102,0.6875,2.6875v16.812c0,3.1756-2.5441,5.7188-5.7188,5.7188h-27.281c-3.1758,0-5.7188-2.5429-5.7188-5.7188v-16.812c0-0.91959,0.21111-1.7957,0.59375-2.5625l13.219-14,0.0312-0.0625,0.04-0.03c1.2511-1.651,3.2323-2.7188,5.4688-2.7188z"/>
<path id="polygon33" style="baseline-shift:baseline;block-progression:tb;color:#000000;direction:ltr;text-indent:0;text-align:start;enable-background:accumulate;text-transform:none;" fill="#f4f4f4" d="m103.56,198.69,1.6875,1.7188,8.0312,8,0.6875,0.71875,0.71875-0.71875,8-8,1.7188-1.7188-2.4062,0-16.031,0-2.4062,0zm4.8125,2,11.219,0-5.5938,5.625-5.625-5.625z"/>
<path id="path35" style="baseline-shift:baseline;block-progression:tb;color:#000000;direction:ltr;text-indent:0;text-align:start;enable-background:accumulate;text-transform:none;" fill="#f4f4f4" d="m144.91,116.38c-1.3708,0-2.6613,0.33815-3.7812,0.96875l-0.125,0.0625-0.0937,0.0937-14.031,13.312-0.0625,0.0625c-1.9946,1.621-3.2812,4.0773-3.2812,6.8438,0,2.842,1.3471,5.3815,3.4375,7l0.0625,0.0312,14.125,13.344,0.0937,0.0937,0.125,0.0625c1.0554,0.54149,2.2666,0.84375,3.5312,0.84375h16.812c4.2553,0,7.7188-3.4624,7.7188-7.7188v-27.281c0-4.2555-3.4632-7.7188-7.7188-7.7188h-16.812zm0,2,16.812,0c3.1745,0,5.7188,2.5443,5.7188,5.7188v27.281c0,3.1756-2.5441,5.7188-5.7188,5.7188h-16.812c-0.89833,0-1.7474-0.22833-2.5-0.59375l-14.062-13.25-0.0625-0.0312-0.0312-0.0312c-1.6514-1.2523-2.7188-3.2326-2.7188-5.4688,0-2.1777,1.018-4.0892,2.5938-5.3438l0.0312-0.0312,0.0312-0.0312,13.906-13.219h0.0312c0.82392-0.45834,1.7687-0.71875,2.7812-0.71875z"/>
<path id="polygon37" style="baseline-shift:baseline;block-progression:tb;color:#000000;direction:ltr;text-indent:0;text-align:start;enable-background:accumulate;text-transform:none;" fill="#f4f4f4" d="m174.94,127.31,0,2.4062,0,16.031,0,2.4062,1.7188-1.7188,8-8,0.71875-0.71875-0.71875-0.6875-8-8.0312-1.7188-1.6875zm2,4.8125,5.625,5.625-5.625,5.5938,0-11.219z"/>
<path id="path39" style="baseline-shift:baseline;block-progression:tb;color:#000000;direction:ltr;text-indent:0;text-align:start;enable-background:accumulate;text-transform:none;" fill="#f4f4f4" d="m244.09,165.97c-2.7075,0-4.9062,2.231-4.9062,4.9375v14.188c0,2.7072,2.1984,4.9375,4.9062,4.9375h23.938c2.354,0,4.2401-1.7217,4.7188-3.9375h0.1875v-1-14.188c0-2.7068-2.198-4.9375-4.9062-4.9375h-23.938zm0,2,23.938,0c1.6277,0,2.9062,1.3123,2.9062,2.9375v13.188,1c0,1.6265-1.2788,2.9375-2.9062,2.9375h-23.938c-1.6262,0-2.9062-1.3107-2.9062-2.9375v-14.188c0-1.6255,1.2798-2.9375,2.9062-2.9375z"/>
<path id="path41" style="baseline-shift:baseline;block-progression:tb;color:#000000;direction:ltr;text-indent:0;text-align:start;enable-background:accumulate;text-transform:none;" fill="#f4f4f4" d="m322.31,165.97c-2.5528,0-4.6562,2.1038-4.6562,4.6562v14.938c0,2.5539,2.1035,4.6562,4.6562,4.6562,0.66026,0,1.274-0.18831,1.8438-0.4375v0.0312l0.15625-0.0625,25.594-7.8438,0.0937-0.0312,0.0625-0.0625c1.4715-0.77978,2.4688-2.3224,2.4688-4.0938,0-1.7345-0.95293-3.2674-2.375-4.0625l-0.0937-0.0625-0.125-0.0312-26.031-7.3125c-0.0302-0.011-0.0633-0.0208-0.0937-0.0312-0.47389-0.16206-0.97765-0.25-1.5-0.25zm0,2c0.32207,0,0.62396,0.053,0.90625,0.15625l0.0312,0.0312h0.0312l25.969,7.2812c0.77703,0.46095,1.2812,1.3045,1.2812,2.2812,0,0.98878-0.55143,1.8269-1.3438,2.2812l-25.625,7.9062h-0.0625l-0.0625,0.0312c-0.3479,0.16629-0.71475,0.28125-1.125,0.28125-1.4712,0-2.6562-1.1821-2.6562-2.6562v-14.938c0-1.4716,1.185-2.6562,2.6562-2.6562z"/>
<path id="circle43" style="baseline-shift:baseline;block-progression:tb;color:#000000;direction:ltr;text-indent:0;text-align:start;enable-background:accumulate;text-transform:none;" fill="#f4f4f4" d="m424,110.62c-14.394,0-26.094,11.699-26.094,26.094,0,14.394,11.699,26.062,26.094,26.062,14.394,0,26.094-11.668,26.094-26.062s-11.699-26.094-26.094-26.094zm0,2c13.314,0,24.094,10.78,24.094,24.094s-10.78,24.062-24.094,24.062-24.094-10.749-24.094-24.062c0-13.314,10.78-24.094,24.094-24.094z"/>
<path id="circle45" style="baseline-shift:baseline;block-progression:tb;color:#000000;direction:ltr;text-indent:0;text-align:start;enable-background:accumulate;text-transform:none;" fill="#f4f4f4" d="m474.03,160.66c-14.395,0-26.094,11.699-26.094,26.094s11.699,26.094,26.094,26.094,26.094-11.699,26.094-26.094-11.699-26.094-26.094-26.094zm0,2c13.314,0,24.094,10.78,24.094,24.094s-10.78,24.094-24.094,24.094-24.094-10.78-24.094-24.094,10.78-24.094,24.094-24.094z"/>
<path id="circle47" style="baseline-shift:baseline;block-progression:tb;color:#000000;direction:ltr;text-indent:0;text-align:start;enable-background:accumulate;text-transform:none;" fill="#f4f4f4" d="M524.06,110.62c-14.39,0-26.06,11.7-26.06,26.1,0,14.394,11.668,26.062,26.062,26.062s26.094-11.668,26.094-26.062-11.699-26.094-26.094-26.094zm0,2c13.314,0,24.094,10.78,24.094,24.094s-10.78,24.062-24.094,24.062-24.062-10.749-24.062-24.062c0-13.314,10.749-24.094,24.062-24.094z"/>
<path id="circle49" style="baseline-shift:baseline;block-progression:tb;color:#000000;direction:ltr;text-indent:0;text-align:start;enable-background:accumulate;text-transform:none;" fill="#f4f4f4" d="m474.03,60.562c-14.394,0-26.094,11.699-26.094,26.094,0,14.394,11.699,26.094,26.094,26.094,14.394,0,26.094-11.699,26.094-26.094s-11.699-26.094-26.094-26.094zm0,2c13.314,0,24.094,10.78,24.094,24.094s-10.78,24.094-24.094,24.094-24.094-10.78-24.094-24.094,10.78-24.094,24.094-24.094z"/>
<path id="line51" style="baseline-shift:baseline;block-progression:tb;color:#000000;direction:ltr;text-indent:0;text-align:start;enable-background:accumulate;text-transform:none;" fill="#f4f4f4" d="m202.88,211.75,0,2,179.41,0,0-2-179.41,0z"/>
</svg>
