<?xml version="1.0" encoding="utf-8" ?>
<svg baseProfile="full" height="82px" version="1.1" width="286px" xmlns="http://www.w3.org/2000/svg" xmlns:ev="http://www.w3.org/2001/xml-events" xmlns:xlink="http://www.w3.org/1999/xlink"><defs /><path d="M 242 74 L 242 32 L 208 32 L 208 48 L 200 48 L 200 74 Z M 162 74 L 162 66 L 170 66 L 170 32 L 136 32 L 136 40 L 128 40 L 128 74 Z M 122 74 L 122 64 L 106 64 L 106 42 L 122 42 L 122 32 L 96 32 L 96 40 L 88 40 L 88 74 Z M 82 74 L 82 64 L 74 64 L 74 42 L 82 42 L 82 32 L 48 32 L 48 42 L 56 42 L 56 64 L 48 64 L 48 74 Z M 18 74 L 18 58 L 42 58 L 42 32 L 8 32 L 8 40 L 0 40 L 0 74 Z M 241 73 L 241 33 L 209 33 L 209 49 L 201 49 L 201 73 Z M 161 73 L 161 65 L 169 65 L 169 33 L 137 33 L 137 41 L 129 41 L 129 73 Z M 121 73 L 121 65 L 105 65 L 105 41 L 121 41 L 121 33 L 97 33 L 97 41 L 89 41 L 89 73 Z M 81 73 L 81 65 L 73 65 L 73 41 L 81 41 L 81 33 L 49 33 L 49 41 L 57 41 L 57 65 L 49 65 L 49 73 Z M 17 73 L 17 57 L 41 57 L 41 33 L 9 33 L 9 41 L 1 41 L 1 73 Z M 233 65 L 233 57 L 217 57 L 217 65 Z M 153 65 L 153 41 L 145 41 L 145 65 Z M 232 64 L 232 58 L 218 58 L 218 64 Z M 152 64 L 152 42 L 146 42 L 146 64 Z M 194 58 L 194 48 L 176 48 L 176 58 Z M 193 57 L 193 49 L 177 49 L 177 57 Z M 233 49 L 233 41 L 217 41 L 217 49 Z M 25 49 L 25 41 L 17 41 L 17 49 Z M 232 48 L 232 42 L 218 42 L 218 48 Z M 24 48 L 24 42 L 18 42 L 18 48 Z M 266 42 L 266 34 L 274 34 L 274 26 L 282 26 L 282 16 L 274 16 L 274 8 L 266 8 L 266 0 L 256 0 L 256 8 L 248 8 L 248 16 L 240 16 L 240 26 L 248 26 L 248 34 L 256 34 L 256 42 Z M 265 41 L 265 33 L 273 33 L 273 25 L 281 25 L 281 17 L 273 17 L 273 9 L 265 9 L 265 1 L 257 1 L 257 9 L 249 9 L 249 17 L 241 17 L 241 25 L 249 25 L 249 33 L 257 33 L 257 41 Z" fill="rgb(0, 0, 0)" fill-rule="evenodd" /><path d="M 265 9 L 265 1 L 257 1 L 257 9 Z" fill="rgb(255, 0, 77)" fill-rule="evenodd" /><path d="M 250 82 L 250 40 L 242 40 L 242 74 L 208 74 L 208 82 Z M 170 82 L 170 74 L 178 74 L 178 58 L 176 58 L 176 48 L 178 48 L 178 40 L 170 40 L 170 66 L 162 66 L 162 74 L 136 74 L 136 82 Z M 130 82 L 130 74 L 128 74 L 128 72 L 122 72 L 122 74 L 96 74 L 96 82 Z M 90 82 L 90 74 L 88 74 L 88 72 L 82 72 L 82 74 L 56 74 L 56 82 Z M 26 82 L 26 66 L 48 66 L 48 64 L 50 64 L 50 42 L 48 42 L 48 40 L 42 40 L 42 58 L 18 58 L 18 74 L 8 74 L 8 82 Z M 200 66 L 200 56 L 194 56 L 194 58 L 184 58 L 184 66 Z M 232 64 L 232 58 L 218 58 L 218 64 Z M 152 64 L 152 42 L 146 42 L 146 64 Z M 114 64 L 114 50 L 128 50 L 128 40 L 122 40 L 122 42 L 106 42 L 106 64 Z M 82 64 L 82 50 L 88 50 L 88 40 L 82 40 L 82 42 L 74 42 L 74 64 Z M 232 48 L 232 42 L 218 42 L 218 48 Z M 24 48 L 24 42 L 18 42 L 18 48 Z M 270 46 L 270 38 L 278 38 L 278 30 L 286 30 L 286 20 L 282 20 L 282 26 L 274 26 L 274 34 L 266 34 L 266 42 L 260 42 L 260 46 Z M 256 38 L 256 34 L 252 34 L 252 38 Z M 248 30 L 248 26 L 244 26 L 244 30 Z M 278 16 L 278 12 L 274 12 L 274 16 Z M 270 8 L 270 4 L 266 4 L 266 8 Z" fill="rgb(29, 43, 83)" fill-rule="evenodd" /><path d="M 257 17 L 257 9 L 249 9 L 249 17 Z" fill="rgb(255, 163, 0)" fill-rule="evenodd" /><path d="M 241 73 L 241 33 L 209 33 L 209 49 L 201 49 L 201 73 Z M 161 73 L 161 65 L 169 65 L 169 33 L 137 33 L 137 41 L 129 41 L 129 73 Z M 121 73 L 121 65 L 105 65 L 105 41 L 121 41 L 121 33 L 97 33 L 97 41 L 89 41 L 89 73 Z M 81 73 L 81 65 L 73 65 L 73 41 L 81 41 L 81 33 L 49 33 L 49 41 L 57 41 L 57 65 L 49 65 L 49 73 Z M 17 73 L 17 57 L 41 57 L 41 33 L 9 33 L 9 41 L 1 41 L 1 73 Z M 233 65 L 233 57 L 217 57 L 217 65 Z M 153 65 L 153 41 L 145 41 L 145 65 Z M 193 57 L 193 49 L 177 49 L 177 57 Z M 233 49 L 233 41 L 217 41 L 217 49 Z M 25 49 L 25 41 L 17 41 L 17 49 Z M 265 33 L 265 25 L 273 25 L 273 17 L 265 17 L 265 9 L 257 9 L 257 17 L 249 17 L 249 25 L 257 25 L 257 33 Z" fill="rgb(255, 241, 232)" fill-rule="evenodd" /><path d="M 273 17 L 273 9 L 265 9 L 265 17 Z" fill="rgb(255, 204, 170)" fill-rule="evenodd" /><path d="M 249 25 L 249 17 L 241 17 L 241 25 Z" fill="rgb(255, 236, 39)" fill-rule="evenodd" /><path d="M 281 25 L 281 17 L 273 17 L 273 25 Z" fill="rgb(255, 119, 168)" fill-rule="evenodd" /><path d="M 257 33 L 257 25 L 249 25 L 249 33 Z" fill="rgb(0, 228, 54)" fill-rule="evenodd" /><path d="M 273 33 L 273 25 L 265 25 L 265 33 Z" fill="rgb(131, 118, 156)" fill-rule="evenodd" /><path d="M 265 41 L 265 33 L 257 33 L 257 41 Z" fill="rgb(41, 173, 255)" fill-rule="evenodd" /></svg>