<?xml version="1.0" encoding="UTF-8" standalone="no"?>
<!-- Generator: Adobe Illustrator 13.0.0, SVG Export Plug-In . SVG Version: 6.00 Build 14948)  -->

<svg
   xmlns:dc="http://purl.org/dc/elements/1.1/"
   xmlns:cc="http://creativecommons.org/ns#"
   xmlns:rdf="http://www.w3.org/1999/02/22-rdf-syntax-ns#"
   xmlns:svg="http://www.w3.org/2000/svg"
   xmlns="http://www.w3.org/2000/svg"
   xmlns:sodipodi="http://sodipodi.sourceforge.net/DTD/sodipodi-0.dtd"
   xmlns:inkscape="http://www.inkscape.org/namespaces/inkscape"
   version="1.2"
   id="Layer_3"
   x="0px"
   y="0px"
   width="183.904px"
   height="413.238px"
   viewBox="0 0 183.904 413.238"
   xml:space="preserve"
   inkscape:version="0.48.5 r10040"
   sodipodi:docname="controller.svg"><metadata
   id="metadata85"><rdf:RDF><cc:Work
       rdf:about=""><dc:format>image/svg+xml</dc:format><dc:type
         rdf:resource="http://purl.org/dc/dcmitype/StillImage" /><dc:title></dc:title></cc:Work></rdf:RDF></metadata><defs
   id="defs83" /><sodipodi:namedview
   pagecolor="#ffffff"
   bordercolor="#666666"
   borderopacity="1"
   objecttolerance="10"
   gridtolerance="10"
   guidetolerance="10"
   inkscape:pageopacity="0"
   inkscape:pageshadow="2"
   inkscape:window-width="640"
   inkscape:window-height="480"
   id="namedview81"
   showgrid="false"
   inkscape:zoom="0.57109945"
   inkscape:cx="91.952003"
   inkscape:cy="206.619"
   inkscape:window-x="0"
   inkscape:window-y="0"
   inkscape:window-maximized="0"
   inkscape:current-layer="Layer_3" />
<path
   style="font-size:medium;font-style:normal;font-variant:normal;font-weight:normal;font-stretch:normal;text-indent:0;text-align:start;text-decoration:none;line-height:normal;letter-spacing:normal;word-spacing:normal;text-transform:none;direction:ltr;block-progression:tb;writing-mode:lr-tb;text-anchor:start;baseline-shift:baseline;color:#000000;fill:#eaeaea;fill-opacity:1;stroke:none;stroke-width:2.29069996;marker:none;visibility:visible;display:inline;overflow:visible;enable-background:accumulate;font-family:Sans;-inkscape-font-specification:Sans"
   d="m 5.03125,0 0,1.15625 1.375,236.84375 2.3125,0 -1.375,-235.71875 169.5,0 L 175.46875,238 177.75,238 179.125,1.15625 179.125,0 178,0 6.1875,0 5.03125,0 z"
   id="polyline3"
   inkscape:connector-curvature="0" />
<path
   style="font-size:medium;font-style:normal;font-variant:normal;font-weight:normal;font-stretch:normal;text-indent:0;text-align:start;text-decoration:none;line-height:normal;letter-spacing:normal;word-spacing:normal;text-transform:none;direction:ltr;block-progression:tb;writing-mode:lr-tb;text-anchor:start;baseline-shift:baseline;color:#000000;fill:#eaeaea;fill-opacity:1;stroke:none;stroke-width:2.29069996;marker:none;visibility:visible;display:inline;overflow:visible;enable-background:accumulate;font-family:Sans;-inkscape-font-specification:Sans"
   d="m 8.6875,237.875 -2.28125,0.25 19.25,172.25 0.125,1.03125 1.03125,0 43,0 0,-2.28125 -42,0 -19.125,-171.25 z"
   id="polyline5"
   inkscape:connector-curvature="0" />
<path
   style="font-size:medium;font-style:normal;font-variant:normal;font-weight:normal;font-stretch:normal;text-indent:0;text-align:start;text-decoration:none;line-height:normal;letter-spacing:normal;word-spacing:normal;text-transform:none;direction:ltr;block-progression:tb;writing-mode:lr-tb;text-anchor:start;baseline-shift:baseline;color:#000000;fill:#eaeaea;fill-opacity:1;stroke:none;stroke-width:2.29069996;marker:none;visibility:visible;display:inline;overflow:visible;enable-background:accumulate;font-family:Sans;-inkscape-font-specification:Sans"
   d="m 175.46875,237.875 -19.125,171.25 -41.9375,0 0,2.28125 42.96875,0 1.03125,0 0.0937,-1.03125 19.25,-172.25 -2.28125,-0.25 z"
   id="polyline7"
   inkscape:connector-curvature="0" />
<path
   style="font-size:medium;font-style:normal;font-variant:normal;font-weight:normal;font-stretch:normal;text-indent:0;text-align:start;text-decoration:none;line-height:normal;letter-spacing:normal;word-spacing:normal;text-transform:none;direction:ltr;block-progression:tb;writing-mode:lr-tb;text-anchor:start;baseline-shift:baseline;color:#000000;fill:#eaeaea;fill-opacity:1;stroke:none;stroke-width:2.29069996;marker:none;visibility:visible;display:inline;overflow:visible;enable-background:accumulate;font-family:Sans;-inkscape-font-specification:Sans"
   d="m 38.71875,265.28125 c -1.450074,0 -2.6875,1.16253 -2.6875,2.625 l 0,22.53125 c 0,1.46247 1.237426,2.625 2.6875,2.625 l 30.03125,0 c 1.004755,0 1.760023,-0.63578 2.21875,-1.46875 l 0.46875,0 0,-1.15625 0,-22.53125 c 0,-1.46247 -1.206176,-2.625 -2.65625,-2.625 l -30.0625,0 z m 0,2.28125 30.0625,0 c 0.249926,0 0.375,0.15822 0.375,0.34375 l 0,21.375 0,1.15625 c 0,0.18553 -0.156324,0.34375 -0.40625,0.34375 l -30.03125,0 c -0.249926,0 -0.40625,-0.15822 -0.40625,-0.34375 l 0,-22.53125 c 0,-0.18553 0.156324,-0.34375 0.40625,-0.34375 z"
   id="path9"
   inkscape:connector-curvature="0" />
<g
   id="g11">
	<path
   fill="none"
   stroke="#EAEAEA"
   stroke-width="2.2907"
   d="M61.176,43.956c0,0.579-0.483,1.047-1.079,1.047h-31.62   c-0.596,0-1.08-0.468-1.08-1.047V19.917c0-0.579,0.483-1.047,1.08-1.047h31.62c0.596,0,1.079,0.468,1.079,1.047V43.956z"
   id="path13" />
	<path
   fill="none"
   stroke="#EAEAEA"
   stroke-width="2.2907"
   d="M108.975,43.956c0,0.579-0.484,1.047-1.08,1.047h-31.62   c-0.596,0-1.079-0.468-1.079-1.047V19.917c0-0.579,0.483-1.047,1.079-1.047h31.62c0.596,0,1.08,0.468,1.08,1.047V43.956z"
   id="path15" />
	<path
   fill="none"
   stroke="#EAEAEA"
   stroke-width="2.2907"
   d="M156.774,43.956c0,0.579-0.484,1.047-1.08,1.047h-31.62   c-0.596,0-1.079-0.468-1.079-1.047V19.917c0-0.579,0.483-1.047,1.079-1.047h31.62c0.596,0,1.08,0.468,1.08,1.047V43.956z"
   id="path17" />
</g>
<path
   style="font-size:medium;font-style:normal;font-variant:normal;font-weight:normal;font-stretch:normal;text-indent:0;text-align:start;text-decoration:none;line-height:normal;letter-spacing:normal;word-spacing:normal;text-transform:none;direction:ltr;block-progression:tb;writing-mode:lr-tb;text-anchor:start;baseline-shift:baseline;color:#000000;fill:#eaeaea;fill-opacity:1;stroke:none;stroke-width:2.29069996;marker:none;visibility:visible;display:inline;overflow:visible;enable-background:accumulate;font-family:Sans;-inkscape-font-specification:Sans"
   d="m 77.5,265.28125 c -1.450074,0 -2.6875,1.16253 -2.6875,2.625 l 0,22.53125 c 0,1.46247 1.237426,2.625 2.6875,2.625 l 30.0625,0 c 1.00291,0 1.7286,-0.63805 2.1875,-1.46875 l 0.5,0 0,-1.15625 0,-22.53125 c 0,-1.46154 -1.23772,-2.625 -2.6875,-2.625 l -30.0625,0 z m 0,2.28125 30.0625,0 c 0.24822,0 0.375,0.15729 0.375,0.34375 l 0,21.375 0,1.15625 c 0,0.18646 -0.12678,0.34375 -0.375,0.34375 l -30.0625,0 c -0.249926,0 -0.40625,-0.15822 -0.40625,-0.34375 l 0,-22.53125 c 0,-0.18553 0.156324,-0.34375 0.40625,-0.34375 z"
   id="path19"
   inkscape:connector-curvature="0" />
<path
   style="font-size:medium;font-style:normal;font-variant:normal;font-weight:normal;font-stretch:normal;text-indent:0;text-align:start;text-decoration:none;line-height:normal;letter-spacing:normal;word-spacing:normal;text-transform:none;direction:ltr;block-progression:tb;writing-mode:lr-tb;text-anchor:start;baseline-shift:baseline;color:#000000;fill:#eaeaea;fill-opacity:1;stroke:none;stroke-width:2.29069996;marker:none;visibility:visible;display:inline;overflow:visible;enable-background:accumulate;font-family:Sans;-inkscape-font-specification:Sans"
   d="m 115.53125,265.28125 c -1.45037,0 -2.6875,1.16346 -2.6875,2.625 l 0,22.53125 c 0,1.46154 1.23713,2.625 2.6875,2.625 l 30.0625,0 c 1.44978,0 2.65625,-1.16346 2.65625,-2.625 l 0,-22.53125 c 0,-1.46154 -1.20647,-2.625 -2.65625,-2.625 l -30.0625,0 z m 0,2.28125 30.0625,0 c 0.24822,0 0.375,0.15729 0.375,0.34375 l 0,22.53125 c 0,0.18646 -0.12678,0.34375 -0.375,0.34375 l -30.0625,0 c -0.25163,0 -0.40625,-0.15729 -0.40625,-0.34375 l 0,-22.53125 c 0,-0.18646 0.15462,-0.34375 0.40625,-0.34375 z"
   id="path21"
   inkscape:connector-curvature="0" />
<path
   style="font-size:medium;font-style:normal;font-variant:normal;font-weight:normal;font-stretch:normal;text-indent:0;text-align:start;text-decoration:none;line-height:normal;letter-spacing:normal;word-spacing:normal;text-transform:none;direction:ltr;block-progression:tb;writing-mode:lr-tb;text-anchor:start;baseline-shift:baseline;color:#000000;fill:#eaeaea;fill-opacity:1;stroke:none;stroke-width:2.29069996;marker:none;visibility:visible;display:inline;overflow:visible;enable-background:accumulate;font-family:Sans;-inkscape-font-specification:Sans"
   d="m 38.71875,299.5 c -1.450074,0 -2.6875,1.16253 -2.6875,2.625 l 0,22.53125 c 0,1.46269 1.237426,2.625 2.6875,2.625 l 30.03125,0 c 1.008801,0 1.761758,-0.6612 2.21875,-1.5 l 0.46875,0 0,-1.125 0,-22.53125 c 0,-1.46247 -1.206176,-2.625 -2.65625,-2.625 l -30.0625,0 z m 0,2.28125 30.0625,0 c 0.249926,0 0.375,0.15822 0.375,0.34375 l 0,21.375 0,1.15625 C 69.15625,324.84356 68.999926,325 68.75,325 l -30.03125,0 c -0.249926,0 -0.40625,-0.15644 -0.40625,-0.34375 l 0,-22.53125 c 0,-0.18553 0.156324,-0.34375 0.40625,-0.34375 z"
   id="path23"
   inkscape:connector-curvature="0" />
<path
   style="font-size:medium;font-style:normal;font-variant:normal;font-weight:normal;font-stretch:normal;text-indent:0;text-align:start;text-decoration:none;line-height:normal;letter-spacing:normal;word-spacing:normal;text-transform:none;direction:ltr;block-progression:tb;writing-mode:lr-tb;text-anchor:start;baseline-shift:baseline;color:#000000;fill:#eaeaea;fill-opacity:1;stroke:none;stroke-width:2.29069996;marker:none;visibility:visible;display:inline;overflow:visible;enable-background:accumulate;font-family:Sans;-inkscape-font-specification:Sans"
   d="m 77.5,299.5 c -1.450074,0 -2.6875,1.16253 -2.6875,2.625 l 0,22.53125 c 0,1.46269 1.237426,2.625 2.6875,2.625 l 30.0625,0 c 1.00686,0 1.73028,-0.66361 2.1875,-1.5 l 0.5,0 0,-1.125 0,-22.53125 c 0,-1.46154 -1.23772,-2.625 -2.6875,-2.625 l -30.0625,0 z m 0,2.28125 30.0625,0 c 0.24822,0 0.375,0.15729 0.375,0.34375 l 0,21.375 0,1.15625 c 0,0.18823 -0.12678,0.34375 -0.375,0.34375 L 77.5,325 c -0.249926,0 -0.40625,-0.15644 -0.40625,-0.34375 l 0,-22.53125 c 0,-0.18553 0.156324,-0.34375 0.40625,-0.34375 z"
   id="path25"
   inkscape:connector-curvature="0" />
<path
   style="font-size:medium;font-style:normal;font-variant:normal;font-weight:normal;font-stretch:normal;text-indent:0;text-align:start;text-decoration:none;line-height:normal;letter-spacing:normal;word-spacing:normal;text-transform:none;direction:ltr;block-progression:tb;writing-mode:lr-tb;text-anchor:start;baseline-shift:baseline;color:#000000;fill:#eaeaea;fill-opacity:1;stroke:none;stroke-width:2.29069996;marker:none;visibility:visible;display:inline;overflow:visible;enable-background:accumulate;font-family:Sans;-inkscape-font-specification:Sans"
   d="m 115.53125,299.5 c -1.45037,0 -2.6875,1.16346 -2.6875,2.625 l 0,22.53125 c 0,1.46177 1.23713,2.625 2.6875,2.625 l 30.0625,0 c 1.44978,0 2.65625,-1.16323 2.65625,-2.625 l 0,-22.53125 c 0,-1.46154 -1.20647,-2.625 -2.65625,-2.625 l -30.0625,0 z m 0,2.28125 30.0625,0 c 0.24822,0 0.375,0.15729 0.375,0.34375 l 0,22.53125 c 0,0.18823 -0.12678,0.34375 -0.375,0.34375 l -30.0625,0 c -0.25163,0 -0.40625,-0.15552 -0.40625,-0.34375 l 0,-22.53125 c 0,-0.18646 0.15462,-0.34375 0.40625,-0.34375 z"
   id="path27"
   inkscape:connector-curvature="0" />
<path
   style="font-size:medium;font-style:normal;font-variant:normal;font-weight:normal;font-stretch:normal;text-indent:0;text-align:start;text-decoration:none;line-height:normal;letter-spacing:normal;word-spacing:normal;text-transform:none;direction:ltr;block-progression:tb;writing-mode:lr-tb;text-anchor:start;baseline-shift:baseline;color:#000000;fill:#eaeaea;fill-opacity:1;stroke:none;stroke-width:2.29069996;marker:none;visibility:visible;display:inline;overflow:visible;enable-background:accumulate;font-family:Sans;-inkscape-font-specification:Sans"
   d="m 38.71875,331.09375 c -1.450074,0 -2.6875,1.19378 -2.6875,2.65625 l 0,22.5 c 0,1.46269 1.237426,2.65625 2.6875,2.65625 l 30.03125,0 c 1.004755,0 1.760023,-0.66673 2.21875,-1.5 l 0.46875,0 0,-1.15625 0,-22.5 c 0,-1.46247 -1.206176,-2.65625 -2.65625,-2.65625 l -30.0625,0 z m 0,2.28125 30.0625,0 c 0.249926,0 0.375,0.18947 0.375,0.375 l 0,21.375 0,1.125 c 0,0.18731 -0.156324,0.34375 -0.40625,0.34375 l -30.03125,0 c -0.249926,0 -0.40625,-0.15644 -0.40625,-0.34375 l 0,-22.5 c 0,-0.18553 0.156324,-0.375 0.40625,-0.375 z"
   id="path29"
   inkscape:connector-curvature="0" />
<path
   style="font-size:medium;font-style:normal;font-variant:normal;font-weight:normal;font-stretch:normal;text-indent:0;text-align:start;text-decoration:none;line-height:normal;letter-spacing:normal;word-spacing:normal;text-transform:none;direction:ltr;block-progression:tb;writing-mode:lr-tb;text-anchor:start;baseline-shift:baseline;color:#000000;fill:#eaeaea;fill-opacity:1;stroke:none;stroke-width:2.29069996;marker:none;visibility:visible;display:inline;overflow:visible;enable-background:accumulate;font-family:Sans;-inkscape-font-specification:Sans"
   d="m 77.5,331.09375 c -1.450074,0 -2.6875,1.19378 -2.6875,2.65625 l 0,22.5 c 0,1.46269 1.237426,2.65625 2.6875,2.65625 l 30.0625,0 c 1.00291,0 1.7286,-0.669 2.1875,-1.5 l 0.5,0 0,-1.15625 0,-22.5 c 0,-1.46154 -1.23772,-2.65625 -2.6875,-2.65625 l -30.0625,0 z m 0,2.28125 30.0625,0 c 0.24822,0 0.375,0.18854 0.375,0.375 l 0,21.375 0,1.125 c 0,0.18823 -0.12678,0.34375 -0.375,0.34375 l -30.0625,0 c -0.249926,0 -0.40625,-0.15644 -0.40625,-0.34375 l 0,-22.5 c 0,-0.18553 0.156324,-0.375 0.40625,-0.375 z"
   id="path31"
   inkscape:connector-curvature="0" />
<path
   style="font-size:medium;font-style:normal;font-variant:normal;font-weight:normal;font-stretch:normal;text-indent:0;text-align:start;text-decoration:none;line-height:normal;letter-spacing:normal;word-spacing:normal;text-transform:none;direction:ltr;block-progression:tb;writing-mode:lr-tb;text-anchor:start;baseline-shift:baseline;color:#000000;fill:#eaeaea;fill-opacity:1;stroke:none;stroke-width:2.29069996;marker:none;visibility:visible;display:inline;overflow:visible;enable-background:accumulate;font-family:Sans;-inkscape-font-specification:Sans"
   d="m 115.53125,331.09375 c -1.45037,0 -2.6875,1.19471 -2.6875,2.65625 l 0,22.5 c 0,1.46177 1.23713,2.65625 2.6875,2.65625 l 30.0625,0 c 1.44978,0 2.65625,-1.19448 2.65625,-2.65625 l 0,-22.5 c 0,-1.46154 -1.20647,-2.65625 -2.65625,-2.65625 l -30.0625,0 z m 0,2.28125 30.0625,0 c 0.24822,0 0.375,0.18854 0.375,0.375 l 0,22.5 c 0,0.18823 -0.12678,0.34375 -0.375,0.34375 l -30.0625,0 c -0.25163,0 -0.40625,-0.15552 -0.40625,-0.34375 l 0,-22.5 c 0,-0.18646 0.15462,-0.375 0.40625,-0.375 z"
   id="path33"
   inkscape:connector-curvature="0" />
<path
   style="font-size:medium;font-style:normal;font-variant:normal;font-weight:normal;font-stretch:normal;text-indent:0;text-align:start;text-decoration:none;line-height:normal;letter-spacing:normal;word-spacing:normal;text-transform:none;direction:ltr;block-progression:tb;writing-mode:lr-tb;text-anchor:start;baseline-shift:baseline;color:#000000;fill:#eaeaea;fill-opacity:1;stroke:none;stroke-width:2.29069996;marker:none;visibility:visible;display:inline;overflow:visible;enable-background:accumulate;font-family:Sans;-inkscape-font-specification:Sans"
   d="m 38.71875,362.25 c -1.450074,0 -2.6875,1.19356 -2.6875,2.65625 l 0,22.5 c 0,1.46247 1.237426,2.625 2.6875,2.625 l 30.03125,0 c 1.004755,0 1.760023,-0.63578 2.21875,-1.46875 l 0.46875,0 0,-1.15625 0,-22.5 c 0,-1.46269 -1.206176,-2.65625 -2.65625,-2.65625 l -30.0625,0 z m 0,2.28125 30.0625,0 c 0.249926,0 0.375,0.18769 0.375,0.375 l 0,21.34375 0,1.15625 c 0,0.18553 -0.156324,0.34375 -0.40625,0.34375 l -30.03125,0 c -0.249926,0 -0.40625,-0.15822 -0.40625,-0.34375 l 0,-22.5 c 0,-0.18731 0.156324,-0.375 0.40625,-0.375 z"
   id="path35"
   inkscape:connector-curvature="0" />
<path
   style="font-size:medium;font-style:normal;font-variant:normal;font-weight:normal;font-stretch:normal;text-indent:0;text-align:start;text-decoration:none;line-height:normal;letter-spacing:normal;word-spacing:normal;text-transform:none;direction:ltr;block-progression:tb;writing-mode:lr-tb;text-anchor:start;baseline-shift:baseline;color:#000000;fill:#eaeaea;fill-opacity:1;stroke:none;stroke-width:2.29069996;marker:none;visibility:visible;display:inline;overflow:visible;enable-background:accumulate;font-family:Sans;-inkscape-font-specification:Sans"
   d="m 77.5,362.25 c -1.450074,0 -2.6875,1.19356 -2.6875,2.65625 l 0,22.5 c 0,1.46247 1.237426,2.625 2.6875,2.625 l 30.0625,0 c 1.00291,0 1.7286,-0.63805 2.1875,-1.46875 l 0.5,0 0,-1.15625 0,-22.5 c 0,-1.46177 -1.23772,-2.65625 -2.6875,-2.65625 l -30.0625,0 z m 0,2.28125 30.0625,0 c 0.24822,0 0.375,0.18677 0.375,0.375 l 0,21.34375 0,1.15625 c 0,0.18646 -0.12678,0.34375 -0.375,0.34375 l -30.0625,0 c -0.249926,0 -0.40625,-0.15822 -0.40625,-0.34375 l 0,-22.5 c 0,-0.18731 0.156324,-0.375 0.40625,-0.375 z"
   id="path37"
   inkscape:connector-curvature="0" />
<path
   style="font-size:medium;font-style:normal;font-variant:normal;font-weight:normal;font-stretch:normal;text-indent:0;text-align:start;text-decoration:none;line-height:normal;letter-spacing:normal;word-spacing:normal;text-transform:none;direction:ltr;block-progression:tb;writing-mode:lr-tb;text-anchor:start;baseline-shift:baseline;color:#000000;fill:#eaeaea;fill-opacity:1;stroke:none;stroke-width:2.29069996;marker:none;visibility:visible;display:inline;overflow:visible;enable-background:accumulate;font-family:Sans;-inkscape-font-specification:Sans"
   d="m 115.53125,362.25 c -1.45037,0 -2.6875,1.19448 -2.6875,2.65625 l 0,22.5 c 0,1.46154 1.23713,2.625 2.6875,2.625 l 30.0625,0 c 1.44978,0 2.65625,-1.16346 2.65625,-2.625 l 0,-22.5 c 0,-1.46177 -1.20647,-2.65625 -2.65625,-2.65625 l -30.0625,0 z m 0,2.28125 30.0625,0 c 0.24822,0 0.375,0.18677 0.375,0.375 l 0,22.5 c 0,0.18646 -0.12678,0.34375 -0.375,0.34375 l -30.0625,0 c -0.25163,0 -0.40625,-0.15729 -0.40625,-0.34375 l 0,-22.5 c 0,-0.18823 0.15462,-0.375 0.40625,-0.375 z"
   id="path39"
   inkscape:connector-curvature="0" />
<path
   style="font-size:medium;font-style:normal;font-variant:normal;font-weight:normal;font-stretch:normal;text-indent:0;text-align:start;text-decoration:none;line-height:normal;letter-spacing:normal;word-spacing:normal;text-transform:none;direction:ltr;block-progression:tb;writing-mode:lr-tb;text-anchor:start;baseline-shift:baseline;color:#000000;fill:#eaeaea;fill-opacity:1;stroke:none;stroke-width:2.29069996;marker:none;visibility:visible;display:inline;overflow:visible;enable-background:accumulate;font-family:Sans;-inkscape-font-specification:Sans"
   d="m 68.5,394 0,1.15625 0,16.9375 0,1.15625 1.125,0 44.90625,0 1.15625,0 0,-1.15625 0,-16.9375 0,-1.15625 -1.15625,0 -44.90625,0 -1.125,0 z m 2.28125,2.28125 42.59375,0 0,14.65625 -42.59375,0 0,-14.65625 z"
   id="rect41"
   inkscape:connector-curvature="0" />
<path
   style="font-size:medium;font-style:normal;font-variant:normal;font-weight:normal;font-stretch:normal;text-indent:0;text-align:start;text-decoration:none;line-height:normal;letter-spacing:normal;word-spacing:normal;text-transform:none;direction:ltr;block-progression:tb;writing-mode:lr-tb;text-anchor:start;baseline-shift:baseline;color:#000000;fill-opacity:1;fill-rule:nonzero;stroke:none;stroke-width:1;marker:none;visibility:visible;display:inline;overflow:visible;enable-background:accumulate;font-family:Sans;-inkscape-font-specification:Sans"
   d="m 118.78125,399.75 0,0.5 0,3.6875 0,0.5 0.5,0 12.125,0 0.5,0 0,-0.5 0,-3.6875 0,-0.5 -0.5,0 -12.125,0 -0.5,0 z m 1,1 11.125,0 0,2.6875 -11.125,0 0,-2.6875 z"
   id="rect43"
   inkscape:connector-curvature="0" />
<path
   style="font-size:medium;font-style:normal;font-variant:normal;font-weight:normal;font-stretch:normal;text-indent:0;text-align:start;text-decoration:none;line-height:normal;letter-spacing:normal;word-spacing:normal;text-transform:none;direction:ltr;block-progression:tb;writing-mode:lr-tb;text-anchor:start;baseline-shift:baseline;color:#000000;fill-opacity:1;fill-rule:nonzero;stroke:none;stroke-width:1;marker:none;visibility:visible;display:inline;overflow:visible;enable-background:accumulate;font-family:Sans;-inkscape-font-specification:Sans"
   d="m 52.0625,399.75 0,0.5 0,3.6875 0,0.5 0.5,0 12.15625,0 0.5,0 0,-0.5 0,-3.6875 0,-0.5 -0.5,0 -12.15625,0 -0.5,0 z m 1,1 11.15625,0 0,2.6875 -11.15625,0 0,-2.6875 z"
   id="rect45"
   inkscape:connector-curvature="0" />
<path
   style="font-size:medium;font-style:normal;font-variant:normal;font-weight:normal;font-stretch:normal;text-indent:0;text-align:start;text-decoration:none;line-height:normal;letter-spacing:normal;word-spacing:normal;text-transform:none;direction:ltr;block-progression:tb;writing-mode:lr-tb;text-anchor:start;baseline-shift:baseline;color:#000000;fill:#eaeaea;fill-opacity:1;stroke:none;stroke-width:2.29069996;marker:none;visibility:visible;display:inline;overflow:visible;enable-background:accumulate;font-family:Sans;-inkscape-font-specification:Sans"
   d="m 7.78125,212.5625 0,2.3125 169.0625,0 0,-2.3125 -169.0625,0 z"
   id="line47"
   inkscape:connector-curvature="0" />
<path
   style="font-size:medium;font-style:normal;font-variant:normal;font-weight:normal;font-stretch:normal;text-indent:0;text-align:start;text-decoration:none;line-height:normal;letter-spacing:normal;word-spacing:normal;text-transform:none;direction:ltr;block-progression:tb;writing-mode:lr-tb;text-anchor:start;baseline-shift:baseline;color:#000000;fill:#eaeaea;fill-opacity:1;stroke:none;stroke-width:2.29069996;marker:none;visibility:visible;display:inline;overflow:visible;enable-background:accumulate;font-family:Sans;-inkscape-font-specification:Sans"
   d="m 7.78125,238.21875 0,2.3125 169.0625,0 0,-2.3125 -169.0625,0 z"
   id="line49"
   inkscape:connector-curvature="0" />
<g
   id="g51">
	<path
   fill="none"
   stroke="#EAEAEA"
   stroke-width="2.2907"
   d="M124.981,152.808c0.649-1.123,2.053-1.526,3.198-0.958   c2.211-4.451,3.582-9.391,3.909-14.616c-1.273-0.085-2.283-1.134-2.283-2.428c0-1.294,1.01-2.344,2.283-2.427   c-0.327-5.225-1.698-10.165-3.909-14.616c-1.146,0.568-2.549,0.165-3.198-0.958c-0.647-1.123-0.295-2.539,0.77-3.248   c-2.823-4.235-6.464-7.875-10.698-10.698c-0.71,1.064-2.125,1.416-3.249,0.768c-1.123-0.648-1.525-2.052-0.957-3.197   c-4.451-2.211-9.391-3.582-14.616-3.908c-0.084,1.273-1.132,2.283-2.427,2.283s-2.343-1.01-2.427-2.283   c-5.226,0.326-10.166,1.697-14.617,3.909c0.568,1.146,0.165,2.549-0.957,3.197c-1.123,0.648-2.54,0.296-3.248-0.769   c-4.235,2.822-7.876,6.463-10.699,10.699c1.065,0.708,1.417,2.125,0.769,3.247c-0.648,1.124-2.051,1.527-3.198,0.958   c-2.211,4.451-3.582,9.391-3.908,14.616c1.273,0.084,2.283,1.133,2.283,2.427c0,1.295-1.009,2.344-2.283,2.428   c0.327,5.225,1.697,10.165,3.909,14.616c1.146-0.568,2.549-0.166,3.198,0.958c0.648,1.123,0.296,2.539-0.769,3.248   c2.823,4.235,6.464,7.876,10.699,10.699c0.708-1.065,2.125-1.417,3.248-0.769s1.526,2.051,0.957,3.197   c4.451,2.211,9.391,3.583,14.617,3.909c0.084-1.273,1.132-2.283,2.427-2.283s2.343,1.01,2.427,2.283   c5.226-0.326,10.165-1.697,14.616-3.908c-0.568-1.146-0.166-2.55,0.957-3.198c1.124-0.648,2.539-0.297,3.249,0.768   c4.234-2.822,7.876-6.463,10.698-10.698C124.686,155.347,124.333,153.931,124.981,152.808z"
   id="path53" />
</g>
<path
   style="font-size:medium;font-style:normal;font-variant:normal;font-weight:normal;font-stretch:normal;text-indent:0;text-align:start;text-decoration:none;line-height:normal;letter-spacing:normal;word-spacing:normal;text-transform:none;direction:ltr;block-progression:tb;writing-mode:lr-tb;text-anchor:start;baseline-shift:baseline;color:#000000;fill:#eaeaea;fill-opacity:1;stroke:none;stroke-width:2.29069996;marker:none;visibility:visible;display:inline;overflow:visible;enable-background:accumulate;font-family:Sans;-inkscape-font-specification:Sans"
   d="m 93.8125,68.03125 c -36.864336,0 -66.78125,29.916914 -66.78125,66.78125 0,36.86434 29.916914,66.78125 66.78125,66.78125 36.86434,0 66.75,-29.91691 66.75,-66.78125 0,-36.864336 -29.88566,-66.78125 -66.75,-66.78125 z m 0,2.28125 c 35.62635,0 64.46875,28.87365 64.46875,64.5 0,35.62635 -28.8424,64.46875 -64.46875,64.46875 -35.62635,0 -64.5,-28.8424 -64.5,-64.46875 0,-35.62635 28.87365,-64.5 64.5,-64.5 z"
   id="circle55"
   inkscape:connector-curvature="0" />
<path
   style="font-size:medium;font-style:normal;font-variant:normal;font-weight:normal;font-stretch:normal;text-indent:0;text-align:start;text-decoration:none;line-height:normal;letter-spacing:normal;word-spacing:normal;text-transform:none;direction:ltr;block-progression:tb;writing-mode:lr-tb;text-anchor:start;baseline-shift:baseline;color:#000000;fill:#eaeaea;fill-opacity:1;stroke:none;stroke-width:2.29069996;marker:none;visibility:visible;display:inline;overflow:visible;enable-background:accumulate;font-family:Sans;-inkscape-font-specification:Sans"
   d="M 93.8125,76.5 C 61.629329,76.5 35.5,102.62933 35.5,134.8125 c 0,32.18317 26.129329,58.28125 58.3125,58.28125 32.18317,0 58.28125,-26.09808 58.28125,-58.28125 0,-32.18317 -26.09808,-58.3125 -58.28125,-58.3125 z m 0,2.3125 c 30.94519,0 56,25.05481 56,56 0,30.94519 -25.05481,56 -56,56 -30.945185,0 -56.03125,-25.05481 -56.03125,-56 0,-30.94519 25.086065,-56 56.03125,-56 z"
   id="circle57"
   inkscape:connector-curvature="0" />
<path
   style="font-size:medium;font-style:normal;font-variant:normal;font-weight:normal;font-stretch:normal;text-indent:0;text-align:start;text-decoration:none;line-height:normal;letter-spacing:normal;word-spacing:normal;text-transform:none;direction:ltr;block-progression:tb;writing-mode:lr-tb;text-anchor:start;baseline-shift:baseline;color:#000000;fill:#eaeaea;fill-opacity:1;stroke:none;stroke-width:2.29069996;marker:none;visibility:visible;display:inline;overflow:visible;enable-background:accumulate;font-family:Sans;-inkscape-font-specification:Sans"
   d="m 93.8125,106.1875 c -15.800197,0 -28.65625,12.8248 -28.65625,28.625 0,15.8002 12.856053,28.625 28.65625,28.625 15.8002,0 28.625,-12.8248 28.625,-28.625 0,-15.8002 -12.8248,-28.625 -28.625,-28.625 z m 0,2.28125 c 14.56221,0 26.34375,11.78154 26.34375,26.34375 0,14.56221 -11.78154,26.34375 -26.34375,26.34375 -14.562211,0 -26.34375,-11.78154 -26.34375,-26.34375 0,-14.56221 11.781539,-26.34375 26.34375,-26.34375 z"
   id="circle59"
   inkscape:connector-curvature="0" />
<path
   style="font-size:medium;font-style:normal;font-variant:normal;font-weight:normal;font-stretch:normal;text-indent:0;text-align:start;text-decoration:none;line-height:normal;letter-spacing:normal;word-spacing:normal;text-transform:none;direction:ltr;block-progression:tb;writing-mode:lr-tb;text-anchor:start;baseline-shift:baseline;color:#000000;fill:#eaeaea;fill-opacity:1;stroke:none;stroke-width:2.29069996;marker:none;visibility:visible;display:inline;overflow:visible;enable-background:accumulate;font-family:Sans;-inkscape-font-specification:Sans"
   d="m 14.28125,5.8125 0,1.125 0,53.75 0,1.15625 1.15625,0 153.3125,0 1.15625,0 0,-1.15625 0,-53.75 0,-1.125 -1.15625,0 -153.3125,0 -1.15625,0 z m 2.28125,2.28125 151.03125,0 0,51.46875 -151.03125,0 0,-51.46875 z"
   id="rect61"
   inkscape:connector-curvature="0" />
<path
   style="font-size:medium;font-style:normal;font-variant:normal;font-weight:normal;font-stretch:normal;text-indent:0;text-align:start;text-decoration:none;line-height:normal;letter-spacing:normal;word-spacing:normal;text-transform:none;direction:ltr;block-progression:tb;writing-mode:lr-tb;text-anchor:start;baseline-shift:baseline;color:#000000;fill:#eaeaea;fill-opacity:1;stroke:none;stroke-width:2.29069996;marker:none;visibility:visible;display:inline;overflow:visible;enable-background:accumulate;font-family:Sans;-inkscape-font-specification:Sans"
   d="m 20.3125,11.75 0,1.15625 0,37.875 0,1.15625 1.15625,0 141.25,0 1.15625,0 0,-1.15625 0,-37.875 0,-1.15625 -1.15625,0 -141.25,0 -1.15625,0 z m 2.28125,2.3125 138.96875,0 0,35.5625 -138.96875,0 0,-35.5625 z"
   id="rect63"
   inkscape:connector-curvature="0" />
<path
   style="font-size:medium;font-style:normal;font-variant:normal;font-weight:normal;font-stretch:normal;text-indent:0;text-align:start;text-decoration:none;line-height:normal;letter-spacing:normal;word-spacing:normal;text-transform:none;direction:ltr;block-progression:tb;writing-mode:lr-tb;text-anchor:start;baseline-shift:baseline;color:#000000;fill:#eaeaea;fill-opacity:1;stroke:none;stroke-width:2.29069996;marker:none;visibility:visible;display:inline;overflow:visible;enable-background:accumulate;font-family:Sans;-inkscape-font-specification:Sans"
   d="M 6.78125,0.15625 5.59375,2.125 14.96875,7.9375 16.1875,5.96875 6.78125,0.15625 z"
   id="line65"
   inkscape:connector-curvature="0" />
<path
   style="font-size:medium;font-style:normal;font-variant:normal;font-weight:normal;font-stretch:normal;text-indent:0;text-align:start;text-decoration:none;line-height:normal;letter-spacing:normal;word-spacing:normal;text-transform:none;direction:ltr;block-progression:tb;writing-mode:lr-tb;text-anchor:start;baseline-shift:baseline;color:#000000;fill:#eaeaea;fill-opacity:1;stroke:none;stroke-width:2.29069996;marker:none;visibility:visible;display:inline;overflow:visible;enable-background:accumulate;font-family:Sans;-inkscape-font-specification:Sans"
   d="M 16.21875,6.125 14.625,7.75 20.65625,13.71875 22.25,12.09375 16.21875,6.125 z"
   id="line67"
   inkscape:connector-curvature="0" />
<path
   style="font-size:medium;font-style:normal;font-variant:normal;font-weight:normal;font-stretch:normal;text-indent:0;text-align:start;text-decoration:none;line-height:normal;letter-spacing:normal;word-spacing:normal;text-transform:none;direction:ltr;block-progression:tb;writing-mode:lr-tb;text-anchor:start;baseline-shift:baseline;color:#000000;fill:#eaeaea;fill-opacity:1;stroke:none;stroke-width:2.29069996;marker:none;visibility:visible;display:inline;overflow:visible;enable-background:accumulate;font-family:Sans;-inkscape-font-specification:Sans"
   d="m 177.375,0.1875 -9.25,5.78125 1.21875,1.9375 9.25,-5.78125 -1.21875,-1.9375 z"
   id="line69"
   inkscape:connector-curvature="0" />
<path
   style="font-size:medium;font-style:normal;font-variant:normal;font-weight:normal;font-stretch:normal;text-indent:0;text-align:start;text-decoration:none;line-height:normal;letter-spacing:normal;word-spacing:normal;text-transform:none;direction:ltr;block-progression:tb;writing-mode:lr-tb;text-anchor:start;baseline-shift:baseline;color:#000000;fill:#eaeaea;fill-opacity:1;stroke:none;stroke-width:2.29069996;marker:none;visibility:visible;display:inline;overflow:visible;enable-background:accumulate;font-family:Sans;-inkscape-font-specification:Sans"
   d="m 167.6875,6.15625 -5.78125,5.9375 1.625,1.625 5.8125,-5.96875 -1.65625,-1.59375 z"
   id="line71"
   inkscape:connector-curvature="0" />
<path
   style="font-size:medium;font-style:normal;font-variant:normal;font-weight:normal;font-stretch:normal;text-indent:0;text-align:start;text-decoration:none;line-height:normal;letter-spacing:normal;word-spacing:normal;text-transform:none;direction:ltr;block-progression:tb;writing-mode:lr-tb;text-anchor:start;baseline-shift:baseline;color:#000000;fill:#eaeaea;fill-opacity:1;stroke:none;stroke-width:2.29069996;marker:none;visibility:visible;display:inline;overflow:visible;enable-background:accumulate;font-family:Sans;-inkscape-font-specification:Sans"
   d="m 163.6875,50.1875 -1.96875,1.1875 5.8125,9.75 1.96875,-1.15625 -5.8125,-9.78125 z"
   id="line73"
   inkscape:connector-curvature="0" />
<path
   style="font-size:medium;font-style:normal;font-variant:normal;font-weight:normal;font-stretch:normal;text-indent:0;text-align:start;text-decoration:none;line-height:normal;letter-spacing:normal;word-spacing:normal;text-transform:none;direction:ltr;block-progression:tb;writing-mode:lr-tb;text-anchor:start;baseline-shift:baseline;color:#000000;fill:#eaeaea;fill-opacity:1;stroke:none;stroke-width:2.29069996;marker:none;visibility:visible;display:inline;overflow:visible;enable-background:accumulate;font-family:Sans;-inkscape-font-specification:Sans"
   d="M 20.46875,50.1875 14.4375,60.09375 16.40625,61.3125 22.4375,51.375 20.46875,50.1875 z"
   id="line75"
   inkscape:connector-curvature="0" />
<path
   style="font-size:medium;font-style:normal;font-variant:normal;font-weight:normal;font-stretch:normal;text-indent:0;text-align:start;text-decoration:none;line-height:normal;letter-spacing:normal;word-spacing:normal;text-transform:none;direction:ltr;block-progression:tb;writing-mode:lr-tb;text-anchor:start;baseline-shift:baseline;color:#000000;fill:#eaeaea;fill-opacity:1;stroke:none;stroke-width:2.29069996;marker:none;visibility:visible;display:inline;overflow:visible;enable-background:accumulate;font-family:Sans;-inkscape-font-specification:Sans"
   d="m 177.875,26.6875 0,2.28125 2.53125,0 c 0.38874,0 0.69795,0.07291 0.875,0.25 0.17705,0.177092 0.48306,0.661689 0.28125,2.125 -0.1389,1.007171 -0.29303,3.483174 -0.46875,6.9375 -0.17572,3.454326 -0.37626,7.776015 -0.5625,12.09375 -0.37248,8.635471 -0.70717,17.368639 -0.8125,18.84375 -0.11713,1.640277 -0.19924,3.057429 -0.5,3.90625 -0.30076,0.848821 -0.53216,1.206813 -1.8125,1.34375 l 0.25,2.25 c 1.92666,-0.206063 3.21801,-1.399321 3.71875,-2.8125 0.50074,-1.413179 0.51313,-2.964527 0.625,-4.53125 0.12367,-1.731889 0.44023,-10.244471 0.8125,-18.875 0.18613,-4.315265 0.38737,-8.651076 0.5625,-12.09375 0.17513,-3.442674 0.3474,-6.096671 0.4375,-6.75 0.25619,-1.857689 -0.0813,-3.237342 -0.90625,-4.0625 -0.82495,-0.825158 -1.85674,-0.90625 -2.5,-0.90625 l -2.53125,0 z"
   id="path77"
   inkscape:connector-curvature="0" />
<path
   style="font-size:medium;font-style:normal;font-variant:normal;font-weight:normal;font-stretch:normal;text-indent:0;text-align:start;text-decoration:none;line-height:normal;letter-spacing:normal;word-spacing:normal;text-transform:none;direction:ltr;block-progression:tb;writing-mode:lr-tb;text-anchor:start;baseline-shift:baseline;color:#000000;fill:#eaeaea;fill-opacity:1;stroke:none;stroke-width:2.29069996;marker:none;visibility:visible;display:inline;overflow:visible;enable-background:accumulate;font-family:Sans;-inkscape-font-specification:Sans"
   d="m 3.5,26.6875 c -0.6428845,0 -1.674975,0.08122 -2.5,0.90625 -0.82502502,0.825025 -1.16245974,2.2047 -0.90625,4.0625 0.09010075,0.653329 0.26237448,3.307326 0.4375,6.75 0.17512552,3.442674 0.37636578,7.778485 0.5625,12.09375 0.3722684,8.630529 0.6888322,17.143111 0.8125,18.875 0.1118739,1.566723 0.1242648,3.118071 0.625,4.53125 0.5007352,1.413179 1.7920868,2.606437 3.71875,2.8125 l 0.25,-2.25 C 5.2196632,74.331813 4.9882648,73.973821 4.6875,73.125 4.3867352,72.276179 4.3046261,70.859027 4.1875,69.21875 4.0821678,67.743639 3.7474816,59.010471 3.375,50.375 3.1887592,46.057265 2.9882182,41.735576 2.8125,38.28125 2.6367818,34.826924 2.4826492,32.350921 2.34375,31.34375 c -0.2017903,-1.4632 0.104025,-1.947775 0.28125,-2.125 0.177225,-0.177225 0.4868845,-0.25 0.875,-0.25 l 2.53125,0 0,-2.28125 -2.53125,0 z"
   id="path79"
   inkscape:connector-curvature="0" />
</svg>