<?xml version="1.0" encoding="UTF-8" standalone="no"?>
<!-- Generator: Adobe Illustrator 13.0.0, SVG Export Plug-In . SVG Version: 6.00 Build 14948)  -->
<svg id="Layer_3" xmlns:rdf="http://www.w3.org/1999/02/22-rdf-syntax-ns#" xmlns="http://www.w3.org/2000/svg" xml:space="preserve" height="432.52px" viewBox="0 0 348.201 432.517" width="348.2px" version="1.2" y="0px" x="0px" xmlns:cc="http://creativecommons.org/ns#" xmlns:dc="http://purl.org/dc/elements/1.1/"><metadata id="metadata159"><rdf:RDF><cc:Work rdf:about=""><dc:format>image/svg+xml</dc:format><dc:type rdf:resource="http://purl.org/dc/dcmitype/StillImage"/><dc:title/></cc:Work></rdf:RDF></metadata>
<path id="path3" style="baseline-shift:baseline;block-progression:tb;color:#000000;direction:ltr;text-indent:0;text-align:start;enable-background:accumulate;text-transform:none;" fill="#f4f4f4" d="m51.312,41.312c-6.5952,0.0021-12.653,2.3435-17.125,6.25-4.4727,3.8956-7.3803,9.4801-7.375,15.719v226.38c-0.01722,14.631,4.1294,26.659,11.375,36.094,10.876,14.164,28.117,22.312,47.688,27.031,19.6,4.7121,41.737,6.0272,63.062,6.0312,23.364,0,23.312,0.001,44.844,0,29.691-0.0506,61.843-15.773,86.938-37.656,25.024-21.936,43.308-50.15,43.406-76.844v-181.03c0.004-6.2386-2.9335-11.823-7.4062-15.719-4.4714-3.9066-10.53-6.2479-17.125-6.25h-248.28zm0,2,248.28,0c6.1248,0.0019,11.718,2.1726,15.812,5.75,4.0833,3.5564,6.7225,8.6053,6.7188,14.219v181.03c-0.0953,25.782-17.973,53.62-42.719,75.312-24.813,21.638-56.64,37.138-85.625,37.188-21.532,0.001-21.48,0-44.844,0-21.243-0.004-43.244-1.3481-62.594-6-19.324-4.66-36.118-12.63-46.596-26.28-6.97-9.08-10.954-20.62-10.938-34.87v-226.38c-0.0047-5.6133,2.6042-10.662,6.6875-14.219,4.0956-3.5775,9.6877-5.7481,15.812-5.75zm0,4.7188c-5.0097-0.0021-9.516,1.7597-12.719,4.5625-3.1986,2.8126-5.0894,6.5759-5.0938,10.688v226.38c0.01622,13.398,3.6973,23.777,10,32.031,6.3137,8.249,15.374,14.401,26.312,18.938,21.866,9.0907,51.075,11.488,79.125,11.469h44.844c27.288,0.0507,58.414-14.881,82.531-36,24.192-21.067,41.192-48.257,41.094-71.781v-181.03c-0.004-4.1126-1.8939-7.8758-5.0938-10.688-3.2035-2.8025-7.708-4.5646-12.719-4.5625h-248.28zm0,2,248.28,0c4.5353-0.0019,8.5858,1.595,11.406,4.0625,2.8342,2.4903,4.4026,5.6821,4.4062,9.1875v181.03c0.094,22.546-16.51,49.472-40.406,70.281-23.825,20.863-54.668,35.549-81.219,35.5h-44.844c-27.934,0.019-56.979-2.4172-78.375-11.312-10.71-4.44-19.427-10.41-25.471-18.31-6.042-7.91-9.578-17.78-9.594-30.81v-226.38c0.0037-3.5044,1.6041-6.6961,4.4375-9.1875,2.8184-2.4579,6.8508-4.0644,11.375-4.0625z"/>
<path id="path5" style="baseline-shift:baseline;block-progression:tb;color:#000000;direction:ltr;text-indent:0;text-align:start;enable-background:accumulate;text-transform:none;" fill="#f4f4f4" d="M288.91,195.53c-14.22,1.19-37.14,11.49-72.66,36.66l-0.0312,0.0312h-0.0312c-11.796,9.4085-26.529,23.744-39.5,37.625s-24.137,27.267-28.844,34.969c-4.6722,7.6448-6.9231,14.419-4.6562,19.875,1.1334,2.728,3.4003,4.992,6.8125,6.7188,3.4122,1.7267,7.9997,2.9493,13.938,3.6562,23.787,2.8307,66.091-4.1626,96.25-30.375,30.142-26.199,45.827-67.882,47.531-90.312,0.43066-5.6744-0.57008-10.701-3.625-14.188-3.0549-3.4866-8.0797-5.2485-15.188-4.6562zm4.75,1.9688c4.1472,0.35407,7.0144,1.8052,8.9375,4,2.5641,2.9264,3.5313,7.3647,3.125,12.719-1.6476,21.683-17.24,63.206-46.844,88.938-29.589,25.718-71.6,32.689-94.719,29.938-5.7882-0.68909-10.145-1.8974-13.25-3.4688-3.1052-1.5713-4.9494-3.4597-5.875-5.6875-1.8512-4.4556-0.0105-10.662,4.5312-18.094,4.5065-7.3748,15.67-20.795,28.594-34.625,12.912-13.817,27.598-28.108,39.25-37.406,0.0106-0.008,0.0207-0.0228,0.0312-0.0312,35.373-25.063,58.205-35.132,71.625-36.25,1.6781-0.13982,3.2114-0.14927,4.5938-0.0312z"/>
<path id="ellipse7" style="baseline-shift:baseline;block-progression:tb;color:#000000;direction:ltr;text-indent:0;text-align:start;enable-background:accumulate;text-transform:none;" fill="#f4f4f4" d="m283.16,230.8c-2.604-3.184-6.5698-4.9406-11.334-5.4662-4.764-0.52558-10.359,0.14967-16.491,1.9009-12.266,3.5025-26.642,11.292-40.365,22.516-13.724,11.224-24.211,23.769-30.078,35.096-2.9332,5.6634-4.7292,11.033-5.1593,15.806-0.43006,4.7735,0.52907,8.9892,3.1331,12.173,2.604,3.184,6.5654,4.9846,11.329,5.5102,4.764,0.52559,10.363-0.19365,16.496-1.9449,12.266-3.5025,26.661-11.268,40.385-22.492s24.191-23.793,30.058-35.12c2.9332-5.6634,4.7248-10.989,5.1549-15.762,0.43007-4.7735-0.52467-9.0332-3.1287-12.217zm-1.5482,1.2662c2.2076,2.6992,3.0954,6.3419,2.698,10.753-0.39738,4.4107-2.1044,9.5727-4.9524,15.072-5.6962,10.998-16.004,23.384-29.548,34.46-13.543,11.076-27.752,18.742-39.662,22.143-5.9548,1.7004-11.329,2.3295-15.731,1.8439-4.4019-0.48564-7.796-2.0786-10.004-4.7778-2.2076-2.6992-3.0756-6.3177-2.6782-10.728,0.39738-4.4107,2.0802-9.5529,4.9283-15.052,5.6962-10.998,16.029-23.404,29.572-34.48s27.728-18.722,39.638-22.123c5.9548-1.7004,11.353-2.3493,15.755-1.8637,4.4019,0.48564,7.7762,2.0544,9.9838,4.7536z"/>
<path id="circle9" style="baseline-shift:baseline;block-progression:tb;color:#000000;direction:ltr;text-indent:0;text-align:start;enable-background:accumulate;text-transform:none;" fill="#f4f4f4" d="m220.31,281.06c-1.5942,0-2.9062,1.312-2.9062,2.9062s1.312,2.9062,2.9062,2.9062,2.9062-1.312,2.9062-2.9062-1.312-2.9062-2.9062-2.9062zm0,2c0.51332,0,0.90625,0.39293,0.90625,0.90625s-0.39293,0.90625-0.90625,0.90625-0.90625-0.39293-0.90625-0.90625,0.39293-0.90625,0.90625-0.90625z"/>
<path id="circle11" style="baseline-shift:baseline;block-progression:tb;color:#000000;direction:ltr;text-indent:0;text-align:start;enable-background:accumulate;text-transform:none;" fill="#f4f4f4" d="m228.31,274.62c-1.5942,0-2.9062,1.312-2.9062,2.9062s1.312,2.9062,2.9062,2.9062,2.9062-1.312,2.9062-2.9062-1.312-2.9062-2.9062-2.9062zm0,2c0.51332,0,0.90625,0.39293,0.90625,0.90625s-0.39293,0.90625-0.90625,0.90625-0.90625-0.39293-0.90625-0.90625,0.39293-0.90625,0.90625-0.90625z"/>
<path id="circle13" style="baseline-shift:baseline;block-progression:tb;color:#000000;direction:ltr;text-indent:0;text-align:start;enable-background:accumulate;text-transform:none;" fill="#f4f4f4" d="m236.41,268.22c-1.5936,0-2.9062,1.3126-2.9062,2.9062s1.3126,2.9062,2.9062,2.9062,2.9062-1.3126,2.9062-2.9062-1.3126-2.9062-2.9062-2.9062zm0,2c0.51277,0,0.90625,0.39348,0.90625,0.90625s-0.39348,0.90625-0.90625,0.90625-0.90625-0.39348-0.90625-0.90625,0.39348-0.90625,0.90625-0.90625z"/>
<path id="circle15" style="baseline-shift:baseline;block-progression:tb;color:#000000;direction:ltr;text-indent:0;text-align:start;enable-background:accumulate;text-transform:none;" fill="#f4f4f4" d="m244.41,261.78c-1.5942,0-2.9062,1.312-2.9062,2.9062s1.312,2.9062,2.9062,2.9062,2.9062-1.312,2.9062-2.9062-1.312-2.9062-2.9062-2.9062zm0,2c0.51332,0,0.90625,0.39293,0.90625,0.90625s-0.39293,0.90625-0.90625,0.90625-0.90625-0.39293-0.90625-0.90625,0.39293-0.90625,0.90625-0.90625z"/>
<path id="path17" style="baseline-shift:baseline;block-progression:tb;color:#000000;direction:ltr;text-indent:0;text-align:start;enable-background:accumulate;text-transform:none;" fill="#f4f4f4" d="m337.62,232.19c0,49.669-15.74,73.415-47.344,105.38-32.804,33.172-83.532,38.031-117.31,38.031-16.773,0-47.722-4.1734-78.656-4.5-30.934-0.32663-61.949,3.1259-79.094,18.938l1.342,1.46c16.358-15.086,46.951-18.731,77.719-18.406,30.768,0.32487,61.585,4.5,78.688,4.5,33.971,0,85.261-4.7914,118.72-38.625,31.722-32.078,47.938-56.685,47.938-106.78h-2z"/>
<path id="rect19" style="baseline-shift:baseline;block-progression:tb;color:#000000;direction:ltr;text-indent:0;text-align:start;enable-background:accumulate;text-transform:none;" fill="#f4f4f4" d="m33.094,103.44,0,1,0,2.9375,0,1,1,0,282.25,0,1,0,0-1,0-2.9375,0-1-1,0-282.25,0-1,0zm2,2,280.25,0,0,0.9375-280.25,0,0-0.9375z"/>
<path id="path21" style="baseline-shift:baseline;block-progression:tb;color:#000000;direction:ltr;text-indent:0;text-align:start;enable-background:accumulate;text-transform:none;" fill="#f4f4f4" d="M25.562,0c-14.109,0-25.562,11.453-25.562,25.562v338.94c0,33.044,18.985,50.262,41.344,58.938,22.359,8.6758,48.148,9.0938,62.406,9.0938h95.469c85.347,0,148.97-69.259,148.97-154.56v-252.41c0-14.107-11.46-25.56-25.57-25.56h-16.87c-0.71283,0-1.361,0.44007-1.6562,0.90625-0.2953,0.46618-0.375,0.90104-0.375,1.2812v20.969c0,2.5434-2.0189,4.5625-4.5625,4.5625h-247.38c-2.5436,0-4.5938-2.0189-4.5938-4.5625v-21.031c0-0.49521-0.0504-1.0045-0.40625-1.4688-0.355-0.46416-0.978-0.6562-1.468-0.6562h-19.75zm0,2,19.625,0c0.008,0.037643,0-0.020397,0,0.125v21.031c0,3.6244,2.9693,6.5625,6.5938,6.5625h247.38c3.6244,0,6.5625-2.9379,6.5625-6.5625v-20.969c0-0.049291,0.0471-0.1455,0.0625-0.1875l16.84,0.0005c13.029,0,23.562,10.534,23.562,23.562v252.41c0,84.31-62.702,152.56-146.97,152.56h-95.469c-14.219,0-39.795-0.44257-61.688-8.9375-21.882-8.49-40.052-24.8-40.052-57.09v-338.94c0-13.028,10.534-23.562,23.562-23.562z"/>
<path id="path23" style="baseline-shift:baseline;block-progression:tb;color:#000000;direction:ltr;text-indent:0;text-align:start;enable-background:accumulate;text-transform:none;" fill="#f4f4f4" d="m49.312,0,0,1,0,19.719c-0.000561,1.6177,0.48932,3.0105,1.5938,3.8438,1.1044,0.83327,2.5835,1.0625,4.4375,1.0625h1v-1-23.625-1h-1-5.0312-1zm2,2,3.0312,0,0,21.531c-1.0258-0.09403-1.8194-0.26118-2.2188-0.5625-0.52982-0.39973-0.81294-0.98168-0.8125-2.25v-39.438z"/>
<path id="rect25" style="baseline-shift:baseline;block-progression:tb;color:#000000;direction:ltr;text-indent:0;text-align:start;enable-background:accumulate;text-transform:none;" fill="#f4f4f4" d="m57.531,0,0,1,0,23.625,0,1,1,0,5.0312,0,1,0,0-1,0-23.625,0-1-1,0-5.0312,0-1,0zm2,2,3.0312,0,0,21.625-3.0312,0,0-21.625z"/>
<path id="rect27" style="baseline-shift:baseline;block-progression:tb;color:#000000;direction:ltr;text-indent:0;text-align:start;enable-background:accumulate;text-transform:none;" fill="#f4f4f4" d="m65.719,0,0,1,0,23.625,0,1,1,0,5.0312,0,1,0,0-1,0-23.625,0-1-1,0-5.0312,0-1,0zm2,2,3.0312,0,0,21.625-3.0312,0,0-21.625z"/>
<path id="rect29" style="baseline-shift:baseline;block-progression:tb;color:#000000;direction:ltr;text-indent:0;text-align:start;enable-background:accumulate;text-transform:none;" fill="#f4f4f4" d="m73.938,0,0,1,0,23.625,0,1,1,0,5.0312,0,1,0,0-1,0-23.625,0-1-1,0-5.0312,0-1,0zm2,2,3.0312,0,0,21.625-3.0312,0,0-21.625z"/>
<path id="rect31" style="baseline-shift:baseline;block-progression:tb;color:#000000;direction:ltr;text-indent:0;text-align:start;enable-background:accumulate;text-transform:none;" fill="#f4f4f4" d="m82.125,0,0,1,0,23.625,0,1,1,0,5.0312,0,1,0,0-1,0-23.625,0-1-1,0-5.0312,0-1,0zm2,2,3.0312,0,0,21.625-3.0312,0,0-21.625z"/>
<path id="rect33" style="baseline-shift:baseline;block-progression:tb;color:#000000;direction:ltr;text-indent:0;text-align:start;enable-background:accumulate;text-transform:none;" fill="#f4f4f4" d="m90.344,0,0,1,0,23.625,0,1,1,0,5,0,1,0,0-1,0-23.625,0-1-1,0-5,0-1,0zm2,2,3,0,0,21.625-3,0,0-21.625z"/>
<path id="rect35" style="baseline-shift:baseline;block-progression:tb;color:#000000;direction:ltr;text-indent:0;text-align:start;enable-background:accumulate;text-transform:none;" fill="#f4f4f4" d="m98.531,0,0,1,0,23.625,0,1,1,0,5.0312,0,1,0,0-1,0-23.625,0-1-1,0-5.0312,0-1,0zm2,2,3.0312,0,0,21.625-3.0312,0,0-21.625z"/>
<path id="rect37" style="baseline-shift:baseline;block-progression:tb;color:#000000;direction:ltr;text-indent:0;text-align:start;enable-background:accumulate;text-transform:none;" fill="#f4f4f4" d="m106.75,0,0,1,0,23.625,0,1,1,0,5,0,1,0,0-1,0-23.625,0-1-1,0-5,0-1,0zm2,2,3,0,0,21.625-3,0,0-21.625z"/>
<path id="rect39" style="baseline-shift:baseline;block-progression:tb;color:#000000;direction:ltr;text-indent:0;text-align:start;enable-background:accumulate;text-transform:none;" fill="#f4f4f4" d="m114.94,0,0,1,0,23.625,0,1,1,0,5.0312,0,1,0,0-1,0-23.625,0-1-1,0-5.0312,0-1,0zm2,2,3.0312,0,0,21.625-3.0312,0,0-21.625z"/>
<path id="rect41" style="baseline-shift:baseline;block-progression:tb;color:#000000;direction:ltr;text-indent:0;text-align:start;enable-background:accumulate;text-transform:none;" fill="#f4f4f4" d="m123.16,0,0,1,0,23.625,0,1,1,0,5,0,1,0,0-1,0-23.625,0-1-1,0-5,0-1,0zm2,2,3,0,0,21.625-3,0,0-21.625z"/>
<path id="rect43" style="baseline-shift:baseline;block-progression:tb;color:#000000;direction:ltr;text-indent:0;text-align:start;enable-background:accumulate;text-transform:none;" fill="#f4f4f4" d="m131.34,0,0,1,0,23.625,0,1,1,0,5.0312,0,1,0,0-1,0-23.625,0-1-1,0-5.0312,0-1,0zm2,2,3.0312,0,0,21.625-3.0312,0,0-21.625z"/>
<path id="rect45" style="baseline-shift:baseline;block-progression:tb;color:#000000;direction:ltr;text-indent:0;text-align:start;enable-background:accumulate;text-transform:none;" fill="#f4f4f4" d="m139.56,0,0,1,0,23.625,0,1,1,0,5,0,1,0,0-1,0-23.625,0-1-1,0-5,0-1,0zm2,2,3,0,0,21.625-3,0,0-21.625z"/>
<path id="rect47" style="baseline-shift:baseline;block-progression:tb;color:#000000;direction:ltr;text-indent:0;text-align:start;enable-background:accumulate;text-transform:none;" fill="#f4f4f4" d="m147.75,0,0,1,0,23.625,0,1,1,0,5.0312,0,1,0,0-1,0-23.625,0-1-1,0-5.0312,0-1,0zm2,2,3.0312,0,0,21.625-3.0312,0,0-21.625z"/>
<path id="rect49" style="baseline-shift:baseline;block-progression:tb;color:#000000;direction:ltr;text-indent:0;text-align:start;enable-background:accumulate;text-transform:none;" fill="#f4f4f4" d="m155.94,0,0,1,0,23.625,0,1,1,0,5.0312,0,1,0,0-1,0-23.625,0-1-1,0-5.0312,0-1,0zm2,2,3.0312,0,0,21.625-3.0312,0,0-21.625z"/>
<path id="rect51" style="baseline-shift:baseline;block-progression:tb;color:#000000;direction:ltr;text-indent:0;text-align:start;enable-background:accumulate;text-transform:none;" fill="#f4f4f4" d="m164.16,0,0,1,0,23.625,0,1,1,0,5.0312,0,1,0,0-1,0-23.625,0-1-1,0-5.0312,0-1,0zm2,2,3.0312,0,0,21.625-3.0312,0,0-21.625z"/>
<path id="rect53" style="baseline-shift:baseline;block-progression:tb;color:#000000;direction:ltr;text-indent:0;text-align:start;enable-background:accumulate;text-transform:none;" fill="#f4f4f4" d="m172.34,0,0,1,0,23.625,0,1,1,0,5.0312,0,1,0,0-1,0-23.625,0-1-1,0-5.0312,0-1,0zm2,2,3.0312,0,0,21.625-3.0312,0,0-21.625z"/>
<path id="rect55" style="baseline-shift:baseline;block-progression:tb;color:#000000;direction:ltr;text-indent:0;text-align:start;enable-background:accumulate;text-transform:none;" fill="#f4f4f4" d="m180.56,0,0,1,0,23.625,0,1,1,0,5.0312,0,1,0,0-1,0-23.625,0-1-1,0-5.0312,0-1,0zm2,2,3.0312,0,0,21.625-3.0312,0,0-21.625z"/>
<path id="rect57" style="baseline-shift:baseline;block-progression:tb;color:#000000;direction:ltr;text-indent:0;text-align:start;enable-background:accumulate;text-transform:none;" fill="#f4f4f4" d="m188.75,0,0,1,0,23.625,0,1,1,0,5.0312,0,1,0,0-1,0-23.625,0-1-1,0-5.0312,0-1,0zm2,2,3.0312,0,0,21.625-3.0312,0,0-21.625z"/>
<path id="rect59" style="baseline-shift:baseline;block-progression:tb;color:#000000;direction:ltr;text-indent:0;text-align:start;enable-background:accumulate;text-transform:none;" fill="#f4f4f4" d="m196.97,0,0,1,0,23.625,0,1,1,0,5.0312,0,1,0,0-1,0-23.625,0-1-1,0-5.0312,0-1,0zm2,2,3.0312,0,0,21.625-3.0312,0,0-21.625z"/>
<path id="rect61" style="baseline-shift:baseline;block-progression:tb;color:#000000;direction:ltr;text-indent:0;text-align:start;enable-background:accumulate;text-transform:none;" fill="#f4f4f4" d="m205.16,0,0,1,0,23.625,0,1,1,0,5.0312,0,1,0,0-1,0-23.625,0-1-1,0-5.0312,0-1,0zm2,2,3.0312,0,0,21.625-3.0312,0,0-21.625z"/>
<path id="rect63" style="baseline-shift:baseline;block-progression:tb;color:#000000;direction:ltr;text-indent:0;text-align:start;enable-background:accumulate;text-transform:none;" fill="#f4f4f4" d="m213.38,0,0,1,0,23.625,0,1,1,0,5.0312,0,1,0,0-1,0-23.625,0-1-1,0-5.0312,0-1,0zm2,2,3.0312,0,0,21.625-3.0312,0,0-21.625z"/>
<path id="rect65" style="baseline-shift:baseline;block-progression:tb;color:#000000;direction:ltr;text-indent:0;text-align:start;enable-background:accumulate;text-transform:none;" fill="#f4f4f4" d="m221.56,0,0,1,0,23.625,0,1,1,0,5.0312,0,1,0,0-1,0-23.625,0-1-1,0-5.0312,0-1,0zm2,2,3.0312,0,0,21.625-3.0312,0,0-21.625z"/>
<path id="rect67" style="baseline-shift:baseline;block-progression:tb;color:#000000;direction:ltr;text-indent:0;text-align:start;enable-background:accumulate;text-transform:none;" fill="#f4f4f4" d="m229.78,0,0,1,0,23.625,0,1,1,0,5,0,1,0,0-1,0-23.625,0-1-1,0-5,0-1,0zm2,2,3,0,0,21.625-3,0,0-21.625z"/>
<path id="rect69" style="baseline-shift:baseline;block-progression:tb;color:#000000;direction:ltr;text-indent:0;text-align:start;enable-background:accumulate;text-transform:none;" fill="#f4f4f4" d="m237.97,0,0,1,0,23.625,0,1,1,0,5.0312,0,1,0,0-1,0-23.625,0-1-1,0-5.0312,0-1,0zm2,2,3.0312,0,0,21.625-3.0312,0,0-21.625z"/>
<path id="rect71" style="baseline-shift:baseline;block-progression:tb;color:#000000;direction:ltr;text-indent:0;text-align:start;enable-background:accumulate;text-transform:none;" fill="#f4f4f4" d="m246.19,0,0,1,0,23.625,0,1,1,0,5,0,1,0,0-1,0-23.625,0-1-1,0-5,0-1,0zm2,2,3,0,0,21.625-3,0,0-21.625z"/>
<path id="rect73" style="baseline-shift:baseline;block-progression:tb;color:#000000;direction:ltr;text-indent:0;text-align:start;enable-background:accumulate;text-transform:none;" fill="#f4f4f4" d="m254.38,0,0,1,0,23.625,0,1,1,0,5.0312,0,1,0,0-1,0-23.625,0-1-1,0-5.0312,0-1,0zm2,2,3.0312,0,0,21.625-3.0312,0,0-21.625z"/>
<path id="rect75" style="baseline-shift:baseline;block-progression:tb;color:#000000;direction:ltr;text-indent:0;text-align:start;enable-background:accumulate;text-transform:none;" fill="#f4f4f4" d="m262.59,0,0,1,0,23.625,0,1,1,0,5,0,1,0,0-1,0-23.625,0-1-1,0-5,0-1,0zm2,2,3,0,0,21.625-3,0,0-21.625z"/>
<path id="rect77" style="baseline-shift:baseline;block-progression:tb;color:#000000;direction:ltr;text-indent:0;text-align:start;enable-background:accumulate;text-transform:none;" fill="#f4f4f4" d="m270.78,0,0,1,0,23.625,0,1,1,0,5.0312,0,1,0,0-1,0-23.625,0-1-1,0-5.0312,0-1,0zm2,2,3.0312,0,0,21.625-3.0312,0,0-21.625z"/>
<path id="rect79" style="baseline-shift:baseline;block-progression:tb;color:#000000;direction:ltr;text-indent:0;text-align:start;enable-background:accumulate;text-transform:none;" fill="#f4f4f4" d="m278.97,0,0,1,0,23.625,0,1,1,0,5.0312,0,1,0,0-1,0-23.625,0-1-1,0-5.0312,0-1,0zm2,2,3.0312,0,0,21.625-3.0312,0,0-21.625z"/>
<path id="rect81" style="baseline-shift:baseline;block-progression:tb;color:#000000;direction:ltr;text-indent:0;text-align:start;enable-background:accumulate;text-transform:none;" fill="#f4f4f4" d="m287.19,0,0,1,0,23.625,0,1,1,0,5.0312,0,1,0,0-1,0-23.625,0-1-1,0-5.0312,0-1,0zm2,2,3.0312,0,0,21.625-3.0312,0,0-21.625z"/>
<path id="path83" style="baseline-shift:baseline;block-progression:tb;color:#000000;direction:ltr;text-indent:0;text-align:start;enable-background:accumulate;text-transform:none;" fill="#f4f4f4" d="m295.38,0,0,1,0,23.625,0,1,1,0c1.8957,0,3.3596-0.17221,4.4688-1,1.1091-0.82779,1.563-2.2398,1.5625-3.9062v-19.719-1h-1-5.0312-1zm2,2,3.0312,0,0,18.719c0.00045,1.3585-0.25364,1.942-0.75,2.3125-0.34492,0.25743-1.3594,0.3083-2.2812,0.40625l-1-47.062z"/>
<path id="line85" style="baseline-shift:baseline;block-progression:tb;color:#000000;direction:ltr;text-indent:0;text-align:start;enable-background:accumulate;text-transform:none;" fill="#f4f4f4" d="m46.094,1.875,0,2,4.25,0,0-2-4.25,0z"/>
<path id="line87" style="baseline-shift:baseline;block-progression:tb;color:#000000;direction:ltr;text-indent:0;text-align:start;enable-background:accumulate;text-transform:none;" fill="#f4f4f4" d="m55.312,1.875,0,2,3.125,0,0-2-3.125,0z"/>
<path id="line89" style="baseline-shift:baseline;block-progression:tb;color:#000000;direction:ltr;text-indent:0;text-align:start;enable-background:accumulate;text-transform:none;" fill="#f4f4f4" d="m63.594,1.875,0,2,3.1562,0,0-2-3.1562,0z"/>
<path id="line91" style="baseline-shift:baseline;block-progression:tb;color:#000000;direction:ltr;text-indent:0;text-align:start;enable-background:accumulate;text-transform:none;" fill="#f4f4f4" d="m71.781,1.875,0,2,3.125,0,0-2-3.125,0z"/>
<path id="line93" style="baseline-shift:baseline;block-progression:tb;color:#000000;direction:ltr;text-indent:0;text-align:start;enable-background:accumulate;text-transform:none;" fill="#f4f4f4" d="m79.969,1.875,0,2,3.125,0,0-2-3.125,0z"/>
<path id="line95" style="baseline-shift:baseline;block-progression:tb;color:#000000;direction:ltr;text-indent:0;text-align:start;enable-background:accumulate;text-transform:none;" fill="#f4f4f4" d="m88.188,1.875,0,2,3.1562,0,0-2-3.1562,0z"/>
<path id="line97" style="baseline-shift:baseline;block-progression:tb;color:#000000;direction:ltr;text-indent:0;text-align:start;enable-background:accumulate;text-transform:none;" fill="#f4f4f4" d="m96.406,1.875,0,2,3.1562,0,0-2-3.1562,0z"/>
<path id="line99" style="baseline-shift:baseline;block-progression:tb;color:#000000;direction:ltr;text-indent:0;text-align:start;enable-background:accumulate;text-transform:none;" fill="#f4f4f4" d="m104.66,1.875,0,2,3.125,0,0-2-3.125,0z"/>
<path id="line101" style="baseline-shift:baseline;block-progression:tb;color:#000000;direction:ltr;text-indent:0;text-align:start;enable-background:accumulate;text-transform:none;" fill="#f4f4f4" d="m112.88,1.875,0,2,3.125,0,0-2-3.125,0z"/>
<path id="line103" style="baseline-shift:baseline;block-progression:tb;color:#000000;direction:ltr;text-indent:0;text-align:start;enable-background:accumulate;text-transform:none;" fill="#f4f4f4" d="m120.88,1.875,0,2,3.125,0,0-2-3.125,0z"/>
<path id="line105" style="baseline-shift:baseline;block-progression:tb;color:#000000;direction:ltr;text-indent:0;text-align:start;enable-background:accumulate;text-transform:none;" fill="#f4f4f4" d="m129.25,1.875,0,2,3.125,0,0-2-3.125,0z"/>
<path id="line107" style="baseline-shift:baseline;block-progression:tb;color:#000000;direction:ltr;text-indent:0;text-align:start;enable-background:accumulate;text-transform:none;" fill="#f4f4f4" d="m137.34,1.875,0,2,3.125,0,0-2-3.125,0z"/>
<path id="line109" style="baseline-shift:baseline;block-progression:tb;color:#000000;direction:ltr;text-indent:0;text-align:start;enable-background:accumulate;text-transform:none;" fill="#f4f4f4" d="m145.66,1.875,0,2,3.125,0,0-2-3.125,0z"/>
<path id="line111" style="baseline-shift:baseline;block-progression:tb;color:#000000;direction:ltr;text-indent:0;text-align:start;enable-background:accumulate;text-transform:none;" fill="#f4f4f4" d="m153.75,1.875,0,2,3.1562,0,0-2-3.1562,0z"/>
<path id="line113" style="baseline-shift:baseline;block-progression:tb;color:#000000;direction:ltr;text-indent:0;text-align:start;enable-background:accumulate;text-transform:none;" fill="#f4f4f4" d="m162,1.875,0,2,3.1562,0,0-2-3.1562,0z"/>
<path id="line115" style="baseline-shift:baseline;block-progression:tb;color:#000000;direction:ltr;text-indent:0;text-align:start;enable-background:accumulate;text-transform:none;" fill="#f4f4f4" d="m170.22,1.875,0,2,3.125,0,0-2-3.125,0z"/>
<path id="line117" style="baseline-shift:baseline;block-progression:tb;color:#000000;direction:ltr;text-indent:0;text-align:start;enable-background:accumulate;text-transform:none;" fill="#f4f4f4" d="m178.53,1.875,0,2,3.125,0,0-2-3.125,0z"/>
<path id="line119" style="baseline-shift:baseline;block-progression:tb;color:#000000;direction:ltr;text-indent:0;text-align:start;enable-background:accumulate;text-transform:none;" fill="#f4f4f4" d="m186.66,1.875,0,2,3.1562,0,0-2-3.1562,0z"/>
<path id="line121" style="baseline-shift:baseline;block-progression:tb;color:#000000;direction:ltr;text-indent:0;text-align:start;enable-background:accumulate;text-transform:none;" fill="#f4f4f4" d="m194.84,1.875,0,2,3.125,0,0-2-3.125,0z"/>
<path id="line123" style="baseline-shift:baseline;block-progression:tb;color:#000000;direction:ltr;text-indent:0;text-align:start;enable-background:accumulate;text-transform:none;" fill="#f4f4f4" d="m203.03,1.875,0,2,3.125,0,0-2-3.125,0z"/>
<path id="line125" style="baseline-shift:baseline;block-progression:tb;color:#000000;direction:ltr;text-indent:0;text-align:start;enable-background:accumulate;text-transform:none;" fill="#f4f4f4" d="m211.16,1.875,0,2,3.1562,0,0-2-3.1562,0z"/>
<path id="line127" style="baseline-shift:baseline;block-progression:tb;color:#000000;direction:ltr;text-indent:0;text-align:start;enable-background:accumulate;text-transform:none;" fill="#f4f4f4" d="m219.34,1.875,0,2,3.125,0,0-2-3.125,0z"/>
<path id="line129" style="baseline-shift:baseline;block-progression:tb;color:#000000;direction:ltr;text-indent:0;text-align:start;enable-background:accumulate;text-transform:none;" fill="#f4f4f4" d="m227.72,1.875,0,2,3.125,0,0-2-3.125,0z"/>
<path id="line131" style="baseline-shift:baseline;block-progression:tb;color:#000000;direction:ltr;text-indent:0;text-align:start;enable-background:accumulate;text-transform:none;" fill="#f4f4f4" d="m235.84,1.875,0,2,3.1562,0,0-2-3.1562,0z"/>
<path id="line133" style="baseline-shift:baseline;block-progression:tb;color:#000000;direction:ltr;text-indent:0;text-align:start;enable-background:accumulate;text-transform:none;" fill="#f4f4f4" d="m244,1.875,0,2,3.1562,0,0-2-3.1562,0z"/>
<path id="line135" style="baseline-shift:baseline;block-progression:tb;color:#000000;direction:ltr;text-indent:0;text-align:start;enable-background:accumulate;text-transform:none;" fill="#f4f4f4" d="m252.22,1.875,0,2,3.125,0,0-2-3.125,0z"/>
<path id="line137" style="baseline-shift:baseline;block-progression:tb;color:#000000;direction:ltr;text-indent:0;text-align:start;enable-background:accumulate;text-transform:none;" fill="#f4f4f4" d="m260.34,1.875,0,2,3.1562,0,0-2-3.1562,0z"/>
<path id="line139" style="baseline-shift:baseline;block-progression:tb;color:#000000;direction:ltr;text-indent:0;text-align:start;enable-background:accumulate;text-transform:none;" fill="#f4f4f4" d="m268.5,1.875,0,2,3.1562,0,0-2-3.1562,0z"/>
<path id="line141" style="baseline-shift:baseline;block-progression:tb;color:#000000;direction:ltr;text-indent:0;text-align:start;enable-background:accumulate;text-transform:none;" fill="#f4f4f4" d="m276.81,1.875,0,2,3.1562,0,0-2-3.1562,0z"/>
<path id="line143" style="baseline-shift:baseline;block-progression:tb;color:#000000;direction:ltr;text-indent:0;text-align:start;enable-background:accumulate;text-transform:none;" fill="#f4f4f4" d="m284.97,1.875,0,2,3.125,0,0-2-3.125,0z"/>
<path id="line145" style="baseline-shift:baseline;block-progression:tb;color:#000000;direction:ltr;text-indent:0;text-align:start;enable-background:accumulate;text-transform:none;" fill="#f4f4f4" d="m293.12,1.875,0,2,3.1562,0,0-2-3.1562,0z"/>
<path id="line147" style="baseline-shift:baseline;block-progression:tb;color:#000000;direction:ltr;text-indent:0;text-align:start;enable-background:accumulate;text-transform:none;" fill="#f4f4f4" d="m301.38,1.875,0,2,3.1562,0,0-2-3.1562,0z"/>
<path id="path149" style="baseline-shift:baseline;block-progression:tb;color:#000000;direction:ltr;text-indent:0;text-align:start;enable-background:accumulate;text-transform:none;" fill="#f4f4f4" d="m330.94,305.72c-3.6291,0-6.9384,1.8017-8.7812,4.6875-8.864,13.886-13.641,18.906-15.812,21.656-1.1457,1.4503-2.2578,3.4968-2.0625,5.6875,0.0976,1.0953,0.58496,2.2005,1.5312,3.0938,0.94629,0.89328,2.2944,1.5845,4.1562,2.0312,3.5054,0.84133,7.6153,1.7512,11.594,1.5312,3.9784-0.21998,7.883-1.6578,10.656-5.4062,2.6642-3.6002,4.9906-8.2702,6.6562-12.531,1.6597-4.246,2.7015-7.933,2.625-10.188,0-0.0107,0.00003-0.0206,0-0.0312-0.0173-5.8067-4.7498-10.531-10.562-10.531zm0,2c4.7426,0,8.5625,3.8218,8.5625,8.5625v0.0312c0.0544,1.4468-0.8536,5.3055-2.4688,9.4375s-3.9044,8.6817-6.4062,12.062c-2.3908,3.2315-5.5927,4.395-9.1875,4.5938-3.5948,0.19877-7.5264-0.63508-11-1.4688-1.6282-0.39071-2.6388-0.95425-3.25-1.5312-0.61124-0.577-0.87802-1.1765-0.9375-1.8438-0.11897-1.3346,0.70693-3.0483,1.6562-4.25,2.0166-2.554,7.0154-7.8662,15.938-21.844,1.4612-2.2882,4.1228-3.75,7.0938-3.75z"/>
<path id="path151" style="baseline-shift:baseline;block-progression:tb;color:#000000;direction:ltr;text-indent:0;text-align:start;enable-background:accumulate;text-transform:none;" fill="#f4f4f4" d="m331.69,311.12c-0.50533,0.0197-1.0107,0.20033-1.4375,0.4375-0.12723,0.0707-0.6752,0.27954-1.3438,0.4375-0.66855,0.15796-1.4857,0.29695-2.3438,0.40625-1.716,0.2186-3.6151,0.24707-4.5312,0.0312l-0.46875,1.9375c1.4568,0.34318,3.406,0.26615,5.25,0.0312,0.92199-0.11745,1.8087-0.29064,2.5625-0.46875,0.75383-0.17811,1.3425-0.34625,1.8438-0.625,0.40244-0.22365,0.63883-0.14463,0.625-0.15625-0.007-0.006,0.0372,0.0171,0.0625,0.25s-0.004,0.63916-0.1875,1.25c-0.37465,1.2482-1.7051,4.5482-3.2188,8.0625-1.5136,3.5143-3.2277,7.3164-4.4062,9.8125-1.1795,2.4982-1.9537,3.8981-2.5938,4.5938-0.64002,0.69563-1.0803,0.86996-2.3125,1h-0.0312c-2.5797,0.27042-8.4112,0.54298-13.156,0l-0.25,1.9688c5.0121,0.57355,10.888,0.28886,13.625,0,1.4208-0.14996,2.6283-0.54438,3.5938-1.5938,0.96548-1.0494,1.744-2.5972,2.9375-5.125,1.1945-2.5299,2.9149-6.3398,4.4375-9.875,1.5177-3.5237,2.8139-6.6693,3.2812-8.2188v-0.0312c0.23566-0.78516,0.34749-1.4534,0.28125-2.0625-0.0662-0.6091-0.33809-1.1902-0.78125-1.5625-0.44316-0.37231-0.93217-0.51974-1.4375-0.5z"/>
<path id="path153" style="baseline-shift:baseline;block-progression:tb;color:#000000;direction:ltr;text-indent:0;text-align:start;enable-background:accumulate;text-transform:none;" fill="#f4f4f4" d="m328.12,315.03c-3.3309,9.0223-7.4799,17.753-9.25,20.281l1.6562,1.1562c2.1399-3.0561,6.0997-11.624,9.4688-20.75l-1.875-0.6875z"/>
</svg>
