<?xml version="1.0" encoding="UTF-8" standalone="no"?>
<!-- Generator: Adobe Illustrator 13.0.0, SVG Export Plug-In . SVG Version: 6.00 Build 14948)  -->
<svg id="Layer_3" xmlns:rdf="http://www.w3.org/1999/02/22-rdf-syntax-ns#" xmlns="http://www.w3.org/2000/svg" xml:space="preserve" height="222.45px" viewBox="0 0 608.381 222.453" width="608.38px" version="1.2" y="0px" x="0px" xmlns:cc="http://creativecommons.org/ns#" xmlns:dc="http://purl.org/dc/elements/1.1/"><metadata id="metadata165"><rdf:RDF><cc:Work rdf:about=""><dc:format>image/svg+xml</dc:format><dc:type rdf:resource="http://purl.org/dc/dcmitype/StillImage"/><dc:title/></cc:Work></rdf:RDF></metadata>
<path id="rect3" style="baseline-shift:baseline;block-progression:tb;color:#000000;direction:ltr;text-indent:0;text-align:start;enable-background:accumulate;text-transform:none;" fill="#f4f4f4" d="m0,17.031,0,1,0,35.75,0,1,1,0,485.84,0,1,0,0-1,0-35.75,0-1-1,0-485.84,0-1,0zm2,2,483.84,0,0,33.75-483.84,0,0-33.75z"/>
<path id="circle5" style="baseline-shift:baseline;block-progression:tb;color:#000000;direction:ltr;text-indent:0;text-align:start;enable-background:accumulate;text-transform:none;" fill="#f4f4f4" d="m465.47,23.719c-2.7026,0-4.9375,2.2036-4.9375,4.9062s2.2349,4.9375,4.9375,4.9375,4.9062-2.2349,4.9062-4.9375-2.2036-4.9062-4.9062-4.9062zm0,2c1.6218,0,2.9062,1.2845,2.9062,2.9062,0,1.6218-1.2845,2.9375-2.9062,2.9375-1.6218,0-2.9375-1.3157-2.9375-2.9375s1.3158-2.9062,2.9375-2.9062z"/>
<path id="path7" style="baseline-shift:baseline;block-progression:tb;color:#000000;direction:ltr;text-indent:0;text-align:start;enable-background:accumulate;text-transform:none;" fill="#f4f4f4" d="m521.53,29.844c-1.2474,0-2.3351,0.21009-3.0938,0.96875-0.75866,0.75866-0.96875,1.8464-0.96875,3.0938v20.875c0,1.2472,0.21015,2.335,0.96875,3.0938,0.7586,0.75879,1.8459,0.96875,3.0938,0.96875h20.75c1.2472,0,2.3352-0.21001,3.0938-0.96875,0.75854-0.75874,0.96875-1.8461,0.96875-3.0938v-20.875c0-1.2471-0.2104-2.3348-0.96875-3.0938-0.75835-0.75894-1.8459-0.96875-3.0938-0.96875h-20.75zm0,2,20.75,0c1.0092,0,1.4786,0.19718,1.6875,0.40625,0.2089,0.20906,0.375,0.64734,0.375,1.6562v20.875c0,1.0093-0.16604,1.4785-0.375,1.6875-0.20896,0.20901-0.67874,0.375-1.6875,0.375h-20.75c-1.0092,0-1.4784-0.16579-1.6875-0.375-0.20915-0.20921-0.375-0.67874-0.375-1.6875v-20.875c0-1.0086,0.16566-1.4469,0.375-1.6562,0.20934-0.20934,0.67889-0.40625,1.6875-0.40625z"/>
<path id="path9" style="baseline-shift:baseline;block-progression:tb;color:#000000;direction:ltr;text-indent:0;text-align:start;enable-background:accumulate;text-transform:none;" fill="#f4f4f4" d="m552.41,29.844c-1.2474,0-2.3351,0.21009-3.0938,0.96875-0.75866,0.75866-0.96875,1.8464-0.96875,3.0938v20.875c0,1.2472,0.21015,2.335,0.96875,3.0938,0.7586,0.75879,1.8459,0.96875,3.0938,0.96875h20.75c1.2472,0,2.335-0.21015,3.0938-0.96875,0.75879-0.7586,0.96875-1.8459,0.96875-3.0938v-20.875c0-1.2472-0.21015-2.335-0.96875-3.0938-0.7586-0.75879-1.8459-0.96875-3.0938-0.96875h-20.75zm0,2,20.75,0c1.0092,0,1.4784,0.19704,1.6875,0.40625,0.20915,0.20921,0.375,0.64749,0.375,1.6562v20.875c0,1.0092-0.16579,1.4783-0.375,1.6875-0.20921,0.20915-0.67874,0.375-1.6875,0.375h-20.75c-1.0092,0-1.4784-0.16579-1.6875-0.375-0.20915-0.20921-0.375-0.67874-0.375-1.6875v-20.875c0-1.0086,0.16566-1.4469,0.375-1.6562,0.20934-0.20934,0.67889-0.40625,1.6875-0.40625z"/>
<path id="path11" style="baseline-shift:baseline;block-progression:tb;color:#000000;direction:ltr;text-indent:0;text-align:start;enable-background:accumulate;text-transform:none;" fill="#f4f4f4" d="m552.41,0c-1.2474,0-2.3351,0.21009-3.0938,0.96875-0.75866,0.75866-0.96875,1.8464-0.96875,3.0938v20.875c0,1.2472,0.21015,2.335,0.96875,3.0938,0.75,0.758,1.84,0.968,3.09,0.968h20.75c1.2472,0,2.335-0.21015,3.0938-0.96875,0.75879-0.7586,0.96875-1.8459,0.96875-3.0938v-20.875c0-1.2472-0.21015-2.335-0.96875-3.0938-0.76-0.75824-1.85-0.9682-3.09-0.9682h-20.75zm0,2,20.75,0c1.0092,0,1.4784,0.19704,1.6875,0.40625,0.20915,0.20921,0.375,0.64749,0.375,1.6562v20.875c0,1.0092-0.16579,1.4783-0.375,1.6875-0.20921,0.20915-0.67874,0.375-1.6875,0.375h-20.75c-1.0092,0-1.4784-0.16579-1.6875-0.375-0.20915-0.20921-0.375-0.67874-0.375-1.6875v-20.875c0-1.0086,0.16566-1.4469,0.375-1.6562,0.21-0.2079,0.68-0.4048,1.69-0.4048z"/>
<path id="path13" style="baseline-shift:baseline;block-progression:tb;color:#000000;direction:ltr;text-indent:0;text-align:start;enable-background:accumulate;text-transform:none;" fill="#f4f4f4" d="m552.41,59.688c-1.2472,0-2.335,0.2414-3.0938,1-0.75879,0.7586-0.96875,1.8147-0.96875,3.0625v20.906c0,1.2468,0.21028,2.3036,0.96875,3.0625,0.75847,0.75886,1.8458,1,3.0938,1h20.75c1.2474,0,2.3351-0.24134,3.0938-1,0.75866-0.75866,0.96875-1.8151,0.96875-3.0625v-20.906c0-1.2472-0.21015-2.3037-0.96875-3.0625-0.7586-0.75879-1.8459-1-3.0938-1h-20.75zm0,2,20.75,0c1.0092,0,1.4784,0.19704,1.6875,0.40625,0.20915,0.20921,0.375,0.64749,0.375,1.6562v20.906c0,1.0086-0.16566,1.4469-0.375,1.6562-0.20934,0.20934-0.67889,0.40625-1.6875,0.40625h-20.75c-1.009,0-1.4782-0.19686-1.6875-0.40625-0.20928-0.20939-0.375-0.64804-0.375-1.6562v-20.906c0-1.0092,0.16579-1.4471,0.375-1.6562,0.20921-0.20915,0.67874-0.40625,1.6875-0.40625z"/>
<path id="path15" style="baseline-shift:baseline;block-progression:tb;color:#000000;direction:ltr;text-indent:0;text-align:start;enable-background:accumulate;text-transform:none;" fill="#f4f4f4" d="m521.75,98.344c-1.2468,0-2.3351,0.21033-3.0938,0.96875-0.75862,0.75842-0.96875,1.8464-0.96875,3.0938v20.875c0,1.2468,0.21033,2.3351,0.96875,3.0938,0.75842,0.75862,1.8464,0.96875,3.0938,0.96875h20.781c1.2472,0,2.3037-0.21034,3.0625-0.96875s1-1.8464,1-3.0938v-20.875c0-1.2468-0.24139-2.3351-1-3.0938-0.75861-0.75861-1.8147-0.96875-3.0625-0.96875h-20.781zm0,2,20.781,0c1.0092,0,1.4471,0.16586,1.6562,0.375,0.20914,0.20914,0.40625,0.67929,0.40625,1.6875v20.875c0,1.0086-0.19705,1.4784-0.40625,1.6875-0.2092,0.20909-0.64749,0.375-1.6562,0.375h-20.781c-1.0086,0-1.4472-0.16587-1.6562-0.375-0.20908-0.20913-0.40625-0.67929-0.40625-1.6875v-20.875c0-1.0086,0.19712-1.4784,0.40625-1.6875,0.20913-0.20908,0.64804-0.375,1.6562-0.375z"/>
<path id="path17" style="baseline-shift:baseline;block-progression:tb;color:#000000;direction:ltr;text-indent:0;text-align:start;enable-background:accumulate;text-transform:none;" fill="#f4f4f4" d="m414.16,68.594c-1.2469,0-2.304,0.24133-3.0625,1-0.75848,0.75867-1,1.8151-1,3.0625v20.906c0,1.2468,0.24172,2.3036,1,3.0625,0.75828,0.75887,1.815,1,3.0625,1h20.781c1.2474,0,2.3351-0.24134,3.0938-1,0.76-0.758,0.97-1.814,0.97-3.062v-20.906c0-1.2472-0.21015-2.3037-0.96875-3.0625-0.7586-0.75879-1.8459-1-3.0938-1h-20.781zm0,2,20.781,0c1.0092,0,1.4471,0.19704,1.6562,0.40625,0.2,0.209,0.4,0.647,0.4,1.656v20.906c0,1.0086-0.19691,1.4469-0.40625,1.6562-0.20934,0.20934-0.64764,0.40625-1.6562,0.40625h-20.781c-1.0085,0-1.447-0.19687-1.6562-0.40625-0.20922-0.20938-0.40625-0.64804-0.40625-1.6562v-20.906c0-1.0086,0.19698-1.4469,0.40625-1.6562,0.20927-0.20933,0.64819-0.40625,1.6562-0.40625z"/>
<path id="path19" style="baseline-shift:baseline;block-progression:tb;color:#000000;direction:ltr;text-indent:0;text-align:start;enable-background:accumulate;text-transform:none;" fill="#f4f4f4" d="m443.28,68.594c-1.2474,0-2.3351,0.24134-3.0938,1-0.75866,0.75866-0.96875,1.8151-0.96875,3.0625v20.906c0,1.2468,0.21028,2.3036,0.96875,3.0625,0.75847,0.75886,1.8458,1,3.0938,1h37.438c1.2474,0,2.3351-0.24134,3.0938-1,0.75866-0.75866,0.96875-1.8151,0.96875-3.0625v-20.906c0-1.2472-0.21015-2.3037-0.96875-3.0625-0.7586-0.75879-1.8459-1-3.0938-1h-37.438zm0,2,37.438,0c1.0092,0,1.4784,0.19704,1.6875,0.40625,0.20915,0.20921,0.375,0.64749,0.375,1.6562v20.906c0,1.0086-0.16566,1.4469-0.375,1.6562-0.20934,0.20934-0.67889,0.40625-1.6875,0.40625h-37.438c-1.009,0-1.4782-0.19686-1.6875-0.40625-0.20928-0.20939-0.375-0.64804-0.375-1.6562v-20.906c0-1.0086,0.16566-1.4469,0.375-1.6562,0.20934-0.20934,0.67889-0.40625,1.6875-0.40625z"/>
<path id="path21" style="baseline-shift:baseline;block-progression:tb;color:#000000;direction:ltr;text-indent:0;text-align:start;enable-background:accumulate;text-transform:none;" fill="#f4f4f4" d="m382.94,68.594c-1.2474,0-2.3351,0.24134-3.0938,1-0.75866,0.75866-0.96875,1.8151-0.96875,3.0625v20.906c0,1.2468,0.21028,2.3036,0.96875,3.0625,0.75847,0.75886,1.8458,1,3.0938,1h20.75c1.2474,0,2.3353-0.2412,3.0938-1,0.75841-0.7588,0.96875-1.8153,0.96875-3.0625v-20.906c0-1.2471-0.2104-2.3036-0.96875-3.0625-0.75835-0.75894-1.8459-1-3.0938-1h-20.75zm0,2,20.75,0c1.0092,0,1.4786,0.19718,1.6875,0.40625,0.2089,0.20906,0.375,0.64734,0.375,1.6562v20.906c0,1.0088-0.16591,1.4471-0.375,1.6562-0.20909,0.2092-0.67889,0.40625-1.6875,0.40625h-20.75c-1.009,0-1.4782-0.19686-1.6875-0.40625-0.20928-0.20939-0.375-0.64804-0.375-1.6562v-20.906c0-1.0086,0.16566-1.4469,0.375-1.6562,0.20934-0.20934,0.67889-0.40625,1.6875-0.40625z"/>
<path id="path23" style="baseline-shift:baseline;block-progression:tb;color:#000000;direction:ltr;text-indent:0;text-align:start;enable-background:accumulate;text-transform:none;" fill="#f4f4f4" d="m351.69,68.594c-1.2469,0-2.3353,0.24133-3.0938,1-0.75848,0.75867-0.96875,1.8151-0.96875,3.0625v20.906c0,1.2468,0.21047,2.3036,0.96875,3.0625,0.75828,0.75887,1.8462,1,3.0938,1h20.781c1.2474,0,2.3351-0.24134,3.0938-1,0.75866-0.75866,0.96875-1.8151,0.96875-3.0625v-20.906c0-1.2472-0.21015-2.3037-0.96875-3.0625-0.7586-0.75879-1.8459-1-3.0938-1h-20.781zm0,2,20.781,0c1.0092,0,1.4471,0.19704,1.6562,0.40625,0.20915,0.20921,0.40625,0.64749,0.40625,1.6562v20.906c0,1.0086-0.19691,1.4469-0.40625,1.6562-0.20934,0.20934-0.64764,0.40625-1.6562,0.40625h-20.781c-1.0085,0-1.447-0.19687-1.6562-0.40625-0.20922-0.20938-0.40625-0.64804-0.40625-1.6562v-20.906c0-1.0086,0.19698-1.4469,0.40625-1.6562,0.20927-0.20933,0.64819-0.40625,1.6562-0.40625z"/>
<path id="path25" style="baseline-shift:baseline;block-progression:tb;color:#000000;direction:ltr;text-indent:0;text-align:start;enable-background:accumulate;text-transform:none;" fill="#f4f4f4" d="m320.47,68.594c-1.2474,0-2.3351,0.24134-3.0938,1-0.75866,0.75866-0.96875,1.8151-0.96875,3.0625v20.906c0,1.2468,0.21028,2.3036,0.96875,3.0625,0.75847,0.75886,1.8458,1,3.0938,1h20.75c1.2474,0,2.3351-0.24134,3.0938-1,0.75866-0.75866,0.96875-1.8151,0.96875-3.0625v-20.906c0-1.2472-0.21015-2.3037-0.96875-3.0625-0.7586-0.75879-1.8459-1-3.0938-1h-20.75zm0,2,20.75,0c1.0092,0,1.4784,0.19704,1.6875,0.40625,0.20915,0.20921,0.375,0.64749,0.375,1.6562v20.906c0,1.0086-0.16566,1.4469-0.375,1.6562-0.20934,0.20934-0.67889,0.40625-1.6875,0.40625h-20.75c-1.009,0-1.4782-0.19686-1.6875-0.40625-0.20928-0.20939-0.375-0.64804-0.375-1.6562v-20.906c0-1.0086,0.16566-1.4469,0.375-1.6562,0.20934-0.20934,0.67889-0.40625,1.6875-0.40625z"/>
<path id="path27" style="baseline-shift:baseline;block-progression:tb;color:#000000;direction:ltr;text-indent:0;text-align:start;enable-background:accumulate;text-transform:none;" fill="#f4f4f4" d="m289.22,68.594c-1.2478,0-2.3352,0.24121-3.0938,1s-0.96875,1.8153-0.96875,3.0625v20.906c0,1.2468,0.21028,2.3036,0.96875,3.0625,0.75847,0.75886,1.8458,1,3.0938,1h20.781c1.2474,0,2.3038-0.24134,3.0625-1,0.75866-0.75866,1-1.8151,1-3.0625v-20.906c0-1.2472-0.2414-2.3037-1-3.0625-0.7586-0.75879-1.8147-1-3.0625-1h-20.781zm0,2,20.781,0c1.0092,0,1.4471,0.19704,1.6562,0.40625,0.20915,0.20921,0.40625,0.64749,0.40625,1.6562v20.906c0,1.0086-0.19691,1.4469-0.40625,1.6562-0.21,0.21-0.65,0.407-1.66,0.407h-20.781c-1.009,0-1.447-0.19686-1.6562-0.40625-0.20928-0.20939-0.40625-0.64804-0.40625-1.6562v-20.906c0-1.0088,0.1971-1.447,0.40625-1.6562,0.20915-0.20921,0.64708-0.40625,1.6562-0.40625z"/>
<path id="path29" style="baseline-shift:baseline;block-progression:tb;color:#000000;direction:ltr;text-indent:0;text-align:start;enable-background:accumulate;text-transform:none;" fill="#f4f4f4" d="m258,68.594c-1.2478,0-2.3352,0.24121-3.0938,1s-0.96875,1.8153-0.96875,3.0625v20.906c0,1.2468,0.21028,2.3036,0.96875,3.0625,0.75847,0.75886,1.8458,1,3.0938,1h20.75c1.2478,0,2.3352-0.24121,3.0938-1s0.96875-1.8153,0.96875-3.0625v-20.906c0-1.2472-0.21015-2.3037-0.96875-3.0625-0.7586-0.75879-1.8459-1-3.0938-1h-20.75zm0,2,20.75,0c1.0092,0,1.4784,0.19704,1.6875,0.40625,0.20915,0.20921,0.375,0.64749,0.375,1.6562v20.906c0,1.0088-0.16585,1.447-0.375,1.6562-0.20915,0.20921-0.67833,0.40625-1.6875,0.40625h-20.75c-1.009,0-1.4782-0.19686-1.6875-0.40625-0.20928-0.20939-0.375-0.64804-0.375-1.6562v-20.906c0-1.0088,0.16585-1.447,0.375-1.6562,0.20915-0.20921,0.67833-0.40625,1.6875-0.40625z"/>
<path id="path31" style="baseline-shift:baseline;block-progression:tb;color:#000000;direction:ltr;text-indent:0;text-align:start;enable-background:accumulate;text-transform:none;" fill="#f4f4f4" d="m226.75,68.594c-1.2478,0-2.3352,0.24121-3.0938,1s-0.96875,1.8153-0.96875,3.0625v20.906c0,1.2468,0.21028,2.3036,0.96875,3.0625,0.75847,0.75886,1.8458,1,3.0938,1h20.781c1.2478,0,2.3039-0.24121,3.0625-1s1-1.8153,1-3.0625v-20.906c0-1.2472-0.2414-2.3037-1-3.0625-0.7586-0.75879-1.8147-1-3.0625-1h-20.781zm0,2,20.781,0c1.0092,0,1.4471,0.19704,1.6562,0.40625,0.20915,0.20921,0.40625,0.64749,0.40625,1.6562v20.906c0,1.0088-0.1971,1.447-0.40625,1.6562-0.20915,0.20921-0.64708,0.40625-1.6562,0.40625h-20.781c-1.009,0-1.447-0.19686-1.6562-0.40625-0.20928-0.20939-0.40625-0.64804-0.40625-1.6562v-20.906c0-1.0088,0.1971-1.447,0.40625-1.6562,0.20915-0.20921,0.64708-0.40625,1.6562-0.40625z"/>
<path id="path33" style="baseline-shift:baseline;block-progression:tb;color:#000000;direction:ltr;text-indent:0;text-align:start;enable-background:accumulate;text-transform:none;" fill="#f4f4f4" d="m195.5,68.594c-1.2474,0-2.3038,0.24134-3.0625,1-0.75866,0.75866-1,1.8151-1,3.0625v20.906c0,1.2469,0.24147,2.3038,1,3.0625,0.75853,0.75872,1.815,1,3.0625,1h20.781c1.2478,0,2.3352-0.24121,3.0938-1s0.96875-1.8153,0.96875-3.0625v-20.906c0-1.2472-0.21015-2.3037-0.96875-3.0625-0.7586-0.75879-1.8459-1-3.0938-1h-20.781zm0,2,20.781,0c1.0092,0,1.4784,0.19704,1.6875,0.40625,0.20915,0.20921,0.375,0.64749,0.375,1.6562v20.906c0,1.0088-0.16585,1.447-0.375,1.6562-0.20915,0.20921-0.67833,0.40625-1.6875,0.40625h-20.781c-1.0085,0-1.4468-0.19672-1.6562-0.40625-0.20947-0.20952-0.40625-0.64819-0.40625-1.6562v-20.906c0-1.0086,0.19691-1.4469,0.40625-1.6562,0.20934-0.20934,0.64764-0.40625,1.6562-0.40625z"/>
<path id="path35" style="baseline-shift:baseline;block-progression:tb;color:#000000;direction:ltr;text-indent:0;text-align:start;enable-background:accumulate;text-transform:none;" fill="#f4f4f4" d="m164.28,68.594c-1.2474,0-2.3351,0.24134-3.0938,1-0.75866,0.75866-0.96875,1.8151-0.96875,3.0625v20.906c0,1.2469,0.21022,2.3038,0.96875,3.0625,0.75853,0.75872,1.8462,1,3.0938,1h20.781c1.2478,0,2.3039-0.24121,3.0625-1s1-1.8153,1-3.0625v-20.906c0-1.2472-0.2414-2.3037-1-3.0625-0.7586-0.75879-1.8147-1-3.0625-1h-20.781zm0,2,20.781,0c1.0092,0,1.4471,0.19704,1.6562,0.40625,0.20915,0.20921,0.40625,0.64749,0.40625,1.6562v20.906c0,1.0088-0.1971,1.447-0.40625,1.6562-0.20915,0.20921-0.64708,0.40625-1.6562,0.40625h-20.781c-1.0085,0-1.478-0.19672-1.6875-0.40625-0.20947-0.20952-0.375-0.64819-0.375-1.6562v-20.906c0-1.0086,0.16566-1.4469,0.375-1.6562,0.20934-0.20934,0.67889-0.40625,1.6875-0.40625z"/>
<path id="path37" style="baseline-shift:baseline;block-progression:tb;color:#000000;direction:ltr;text-indent:0;text-align:start;enable-background:accumulate;text-transform:none;" fill="#f4f4f4" d="m133.03,68.594c-1.2474,0-2.3038,0.24134-3.0625,1-0.75866,0.75866-1,1.8151-1,3.0625v20.906c0,1.2469,0.24147,2.3038,1,3.0625,0.75853,0.75872,1.815,1,3.0625,1h20.781c1.2474,0,2.3351-0.24134,3.0938-1,0.75866-0.75866,0.96875-1.8151,0.96875-3.0625v-20.906c0-1.2474-0.21009-2.3038-0.96875-3.0625-0.75866-0.75866-1.8464-1-3.0938-1h-20.781zm0,2,20.781,0c1.0086,0,1.4469,0.19691,1.6562,0.40625,0.20934,0.20934,0.40625,0.64764,0.40625,1.6562v20.906c0,1.0086-0.19691,1.4469-0.40625,1.6562-0.20934,0.20934-0.64764,0.40625-1.6562,0.40625h-20.781c-1.0085,0-1.4468-0.19672-1.6562-0.40625-0.20947-0.20952-0.40625-0.64819-0.40625-1.6562v-20.906c0-1.0086,0.19691-1.4469,0.40625-1.6562,0.20934-0.20934,0.64764-0.40625,1.6562-0.40625z"/>
<path id="path39" style="baseline-shift:baseline;block-progression:tb;color:#000000;direction:ltr;text-indent:0;text-align:start;enable-background:accumulate;text-transform:none;" fill="#f4f4f4" d="m101.81,68.594c-1.2478,0-2.3352,0.24121-3.0938,1s-0.96875,1.8153-0.96875,3.0625v20.906c0,1.2468,0.21028,2.3036,0.96875,3.0625,0.75846,0.75886,1.8458,1,3.0938,1h20.75c1.2478,0,2.3352-0.24121,3.0938-1s0.96875-1.8153,0.96875-3.0625v-20.906c0-1.2472-0.21015-2.3037-0.96875-3.0625-0.7586-0.75879-1.8459-1-3.0938-1h-20.75zm0,2,20.75,0c1.0092,0,1.4784,0.19704,1.6875,0.40625,0.20915,0.20921,0.375,0.64749,0.375,1.6562v20.906c0,1.0088-0.16585,1.447-0.375,1.6562-0.20915,0.20921-0.67833,0.40625-1.6875,0.40625h-20.75c-1.009,0-1.4782-0.19686-1.6875-0.40625-0.194-0.209-0.36-0.647-0.36-1.656v-20.906c0-1.0088,0.16585-1.447,0.375-1.6562,0.20915-0.20921,0.67833-0.40625,1.6875-0.40625z"/>
<path id="path41" style="baseline-shift:baseline;block-progression:tb;color:#000000;direction:ltr;text-indent:0;text-align:start;enable-background:accumulate;text-transform:none;" fill="#f4f4f4" d="m70.562,68.594c-1.2478,0-2.3039,0.24121-3.0625,1s-1,1.8153-1,3.0625v20.906c0,1.2468,0.24154,2.3036,1,3.0625,0.75846,0.75886,1.8145,1,3.0625,1h20.781c1.2478,0,2.3352-0.24121,3.0938-1s0.96875-1.8153,0.96875-3.0625v-20.906c0-1.2472-0.21015-2.3037-0.96875-3.0625-0.7586-0.75879-1.8459-1-3.0938-1h-20.781zm0,2,20.781,0c1.0092,0,1.4471,0.19704,1.6562,0.40625,0.20915,0.20921,0.40625,0.64749,0.40625,1.6562v20.906c0,1.0088-0.1971,1.447-0.40625,1.6562-0.20915,0.20921-0.64708,0.40625-1.6562,0.40625h-20.781c-1.009,0-1.447-0.19686-1.6562-0.40625-0.209-0.209-0.406-0.647-0.406-1.656v-20.906c0-1.0088,0.1971-1.447,0.40625-1.6562,0.20915-0.20921,0.64708-0.40625,1.6562-0.40625z"/>
<path id="path43" style="baseline-shift:baseline;block-progression:tb;color:#000000;direction:ltr;text-indent:0;text-align:start;enable-background:accumulate;text-transform:none;" fill="#f4f4f4" d="m39.344,68.594c-1.2474,0-2.3351,0.24134-3.0938,1-0.75866,0.75866-0.96875,1.8151-0.96875,3.0625v20.906c0,1.2469,0.21022,2.3038,0.96875,3.0625,0.75853,0.75872,1.8462,1,3.0938,1h20.75c1.2478,0,2.3352-0.24121,3.0938-1,0.53828-0.53842,0.76531-1.2559,0.875-2.0625h0.09375v-1-20.906c0-1.2472-0.21015-2.3037-0.96875-3.0625-0.7586-0.75879-1.8459-1-3.0938-1h-20.75zm0,2,20.75,0c1.0092,0,1.4783,0.19704,1.6875,0.40625,0.20915,0.20921,0.375,0.64749,0.375,1.6562v19.906,1c0,1.0088-0.16585,1.447-0.375,1.6562-0.20915,0.20921-0.67833,0.40625-1.6875,0.40625h-20.75c-1.0085,0-1.478-0.19672-1.6875-0.40625-0.20947-0.20952-0.375-0.64819-0.375-1.6562v-20.906c0-1.0086,0.16566-1.4469,0.375-1.6562,0.20934-0.20934,0.67888-0.40625,1.6875-0.40625z"/>
<path id="path45" style="baseline-shift:baseline;block-progression:tb;color:#000000;direction:ltr;text-indent:0;text-align:start;enable-background:accumulate;text-transform:none;" fill="#f4f4f4" d="m56.812,99.688c-1.2472,0-2.3349,0.24159-3.0938,1-0.7588,0.75841-0.96875,1.8151-0.96875,3.0625v20.906c0,1.2468,0.21028,2.3036,0.96875,3.0625,0.75846,0.75886,1.8458,1,3.0938,1h20.781c1.2478,0,2.3039-0.24121,3.0625-1s1-1.8153,1-3.0625v-20.906c0-1.2468-0.24139-2.3039-1-3.0625-0.75861-0.75861-1.8147-1-3.0625-1h-20.781zm0,2,20.781,0c1.0092,0,1.4471,0.19711,1.6562,0.40625,0.20914,0.20914,0.40625,0.64804,0.40625,1.6562v20.906c0,1.0088-0.1971,1.447-0.40625,1.6562-0.20915,0.20921-0.64708,0.40625-1.6562,0.40625h-20.781c-1.009,0-1.447-0.19686-1.6562-0.40625-0.209-0.23-0.406-0.67-0.406-1.67v-20.906c0-1.0086,0.19705-1.4472,0.40625-1.6562,0.2092-0.20909,0.64749-0.40625,1.6562-0.40625z"/>
<path id="path47" style="baseline-shift:baseline;block-progression:tb;color:#000000;direction:ltr;text-indent:0;text-align:start;enable-background:accumulate;text-transform:none;" fill="#f4f4f4" d="m7.1875,99.688c-1.2472,0-2.3349,0.24159-3.0938,1-0.7588,0.76-0.9687,1.81-0.9687,3.06v20.906c0,1.2468,0.21028,2.3036,0.96875,3.0625,0.75847,0.75886,1.8458,1,3.0938,1h39.844c1.2478,0,2.3352-0.24121,3.0938-1s0.96875-1.8153,0.96875-3.0625v-1-19.906c0-1.2468-0.21014-2.3039-0.96875-3.0625-0.75861-0.75861-1.8459-1-3.0938-1h-39.844zm0,2,39.844,0c1.0092,0,1.4471,0.19711,1.6562,0.40625,0.20914,0.20914,0.40625,0.64804,0.40625,1.6562v20.906c0,1.0088-0.1971,1.447-0.40625,1.6562-0.20915,0.20921-0.64708,0.40625-1.6562,0.40625h-39.844c-1.009,0-1.447-0.19686-1.6562-0.40625-0.2098-0.23-0.4068-0.67-0.4068-1.67v-20.906c0-1.0086,0.19705-1.4472,0.40625-1.6562,0.2092-0.20909,0.64749-0.40625,1.6562-0.40625z"/>
<path id="path49" style="baseline-shift:baseline;block-progression:tb;color:#000000;direction:ltr;text-indent:0;text-align:start;enable-background:accumulate;text-transform:none;" fill="#f4f4f4" d="m87.75,99.688c-1.2472,0-2.3037,0.24159-3.0625,1s-1,1.8151-1,3.0625v20.906c0,1.2469,0.24147,2.3038,1,3.0625,0.75853,0.75873,1.815,1,3.0625,1h20.781c1.2478,0,2.3352-0.24121,3.0938-1s0.96875-1.8153,0.96875-3.0625v-1-19.906c0-1.2468-0.21014-2.3039-0.96875-3.0625-0.75861-0.75861-1.8459-1-3.0938-1h-20.781zm0,2,20.781,0c1.0092,0,1.4784,0.19711,1.6875,0.40625,0.20914,0.20914,0.375,0.64804,0.375,1.6562v20.906c0,1.0088-0.16585,1.447-0.375,1.6562-0.20915,0.20921-0.67833,0.40625-1.6875,0.40625h-20.781c-1.0085,0-1.4468-0.19673-1.6562-0.40625-0.20947-0.20952-0.40625-0.64819-0.40625-1.6562v-20.906c0-1.0086,0.19705-1.4472,0.40625-1.6562,0.2092-0.20909,0.64749-0.40625,1.6562-0.40625z"/>
<path id="path51" style="baseline-shift:baseline;block-progression:tb;color:#000000;direction:ltr;text-indent:0;text-align:start;enable-background:accumulate;text-transform:none;" fill="#f4f4f4" d="m118.72,99.688c-1.2477,0-2.335,0.24146-3.0938,1-0.75874,0.75854-0.96875,1.8153-0.96875,3.0625v20.906c0,1.2468,0.21028,2.3036,0.96875,3.0625,0.75847,0.75886,1.8458,1,3.0938,1h20.781c1.2474,0,2.3038-0.24134,3.0625-1,0.75866-0.75866,1-1.8151,1-3.0625v-20.906c0-1.2468-0.24139-2.3039-1-3.0625-0.75861-0.75861-1.8147-1-3.0625-1h-20.781zm0,2,20.781,0c1.0092,0,1.4471,0.19711,1.6562,0.40625,0.20914,0.20914,0.40625,0.64804,0.40625,1.6562v20.906c0,1.0086-0.19691,1.4469-0.40625,1.6562-0.20934,0.20934-0.64764,0.40625-1.6562,0.40625h-20.781c-1.009,0-1.4782-0.19686-1.6875-0.40625-0.20928-0.20939-0.375-0.64804-0.375-1.6562v-20.906c0-1.0088,0.16599-1.4473,0.375-1.6562,0.20901-0.20896,0.67818-0.40625,1.6875-0.40625z"/>
<path id="path53" style="baseline-shift:baseline;block-progression:tb;color:#000000;direction:ltr;text-indent:0;text-align:start;enable-background:accumulate;text-transform:none;" fill="#f4f4f4" d="m149.66,99.688c-1.2472,0-2.3037,0.24159-3.0625,1s-1,1.8151-1,3.0625v20.906c0,1.2469,0.24147,2.3038,1,3.0625,0.75853,0.75873,1.815,1,3.0625,1h20.781c1.2474,0,2.3351-0.24134,3.0938-1,0.75866-0.75866,0.96875-1.8151,0.96875-3.0625v-20.906c0-1.2468-0.21014-2.3039-0.96875-3.0625-0.75861-0.75861-1.8459-1-3.0938-1h-20.781zm0,2,20.781,0c1.0092,0,1.4471,0.19711,1.6562,0.40625,0.20914,0.20914,0.40625,0.64804,0.40625,1.6562v20.906c0,1.0086-0.19691,1.4469-0.40625,1.6562-0.20934,0.20934-0.64764,0.40625-1.6562,0.40625h-20.781c-1.0085,0-1.4468-0.19673-1.6562-0.40625-0.20947-0.20952-0.40625-0.64819-0.40625-1.6562v-20.906c0-1.0086,0.19705-1.4472,0.40625-1.6562,0.2092-0.20909,0.64749-0.40625,1.6562-0.40625z"/>
<path id="path55" style="baseline-shift:baseline;block-progression:tb;color:#000000;direction:ltr;text-indent:0;text-align:start;enable-background:accumulate;text-transform:none;" fill="#f4f4f4" d="m180.62,99.688c-1.2477,0-2.335,0.24146-3.0938,1-0.75874,0.75854-0.96875,1.8153-0.96875,3.0625v20.906c0,1.2468,0.21028,2.3036,0.96875,3.0625,0.75847,0.75886,1.8458,1,3.0938,1h20.75c1.2478,0,2.3352-0.24121,3.0938-1s0.96875-1.8153,0.96875-3.0625v-20.906c0-1.2468-0.21014-2.3039-0.96875-3.0625-0.75861-0.75861-1.8459-1-3.0938-1h-20.75zm0,2,20.75,0c1.0092,0,1.4784,0.19711,1.6875,0.40625,0.20914,0.20914,0.375,0.64804,0.375,1.6562v20.906c0,1.0088-0.16585,1.447-0.375,1.6562-0.20915,0.20921-0.67833,0.40625-1.6875,0.40625h-20.75c-1.009,0-1.4782-0.19686-1.6875-0.40625-0.20928-0.20939-0.375-0.64804-0.375-1.6562v-20.906c0-1.0088,0.16599-1.4473,0.375-1.6562,0.20901-0.20896,0.67818-0.40625,1.6875-0.40625z"/>
<path id="path57" style="baseline-shift:baseline;block-progression:tb;color:#000000;direction:ltr;text-indent:0;text-align:start;enable-background:accumulate;text-transform:none;" fill="#f4f4f4" d="m211.56,99.688c-1.2472,0-2.3037,0.24159-3.0625,1s-1,1.8151-1,3.0625v20.906c0,1.2469,0.24147,2.3038,1,3.0625,0.75853,0.75873,1.815,1,3.0625,1h20.781c1.2478,0,2.3352-0.24121,3.0938-1s0.96875-1.8153,0.96875-3.0625v-20.906c0-1.2468-0.21014-2.3039-0.96875-3.0625-0.75861-0.75861-1.8459-1-3.0938-1h-20.781zm0,2,20.781,0c1.0092,0,1.4471,0.19711,1.6562,0.40625,0.20914,0.20914,0.40625,0.64804,0.40625,1.6562v20.906c0,1.0088-0.1971,1.447-0.40625,1.6562-0.20915,0.20921-0.64708,0.40625-1.6562,0.40625h-20.781c-1.0085,0-1.4468-0.19673-1.6562-0.40625-0.20947-0.20952-0.40625-0.64819-0.40625-1.6562v-20.906c0-1.0086,0.19705-1.4472,0.40625-1.6562,0.2092-0.20909,0.64749-0.40625,1.6562-0.40625z"/>
<path id="path59" style="baseline-shift:baseline;block-progression:tb;color:#000000;direction:ltr;text-indent:0;text-align:start;enable-background:accumulate;text-transform:none;" fill="#f4f4f4" d="m242.53,99.688c-1.2472,0-2.335,0.24159-3.0938,1s-0.96875,1.8151-0.96875,3.0625v20.906c0,1.2468,0.21028,2.3036,0.96875,3.0625,0.75847,0.75886,1.8458,1,3.0938,1h20.75c1.2478,0,2.3352-0.24121,3.0938-1s0.96875-1.8153,0.96875-3.0625v-20.906c0-1.2468-0.21014-2.3039-0.96875-3.0625-0.75861-0.75861-1.8459-1-3.0938-1h-20.75zm0,2,20.75,0c1.0092,0,1.4784,0.19711,1.6875,0.40625,0.20914,0.20914,0.375,0.64804,0.375,1.6562v20.906c0,1.0088-0.16585,1.447-0.375,1.6562-0.20915,0.20921-0.67833,0.40625-1.6875,0.40625h-20.75c-1.009,0-1.4782-0.19686-1.6875-0.40625-0.20928-0.20939-0.375-0.64804-0.375-1.6562v-20.906c0-1.0086,0.1658-1.4472,0.375-1.6562,0.2092-0.20909,0.67874-0.40625,1.6875-0.40625z"/>
<path id="path61" style="baseline-shift:baseline;block-progression:tb;color:#000000;direction:ltr;text-indent:0;text-align:start;enable-background:accumulate;text-transform:none;" fill="#f4f4f4" d="m273.47,99.688c-1.2472,0-2.335,0.24159-3.0938,1s-0.96875,1.8151-0.96875,3.0625v20.906c0,1.2469,0.21022,2.3038,0.96875,3.0625,0.75853,0.75873,1.8462,1,3.0938,1h20.781c1.2474,0,2.3351-0.24134,3.0938-1,0.75866-0.75866,0.96875-1.8151,0.96875-3.0625v-20.906c0-1.2468-0.21014-2.3039-0.96875-3.0625-0.75861-0.75861-1.8459-1-3.0938-1h-20.781zm0,2,20.781,0c1.0092,0,1.4471,0.19711,1.6562,0.40625,0.20914,0.20914,0.40625,0.64804,0.40625,1.6562v20.906c0,1.0086-0.19691,1.4469-0.40625,1.6562-0.20934,0.20934-0.64764,0.40625-1.6562,0.40625h-20.781c-1.0085,0-1.4468-0.19673-1.6562-0.40625-0.20947-0.20952-0.40625-0.64819-0.40625-1.6562v-20.906c0-1.0086,0.19705-1.4472,0.40625-1.6562,0.2092-0.20909,0.64749-0.40625,1.6562-0.40625z"/>
<path id="path63" style="baseline-shift:baseline;block-progression:tb;color:#000000;direction:ltr;text-indent:0;text-align:start;enable-background:accumulate;text-transform:none;" fill="#f4f4f4" d="m304.44,99.688c-1.2472,0-2.335,0.24159-3.0938,1s-0.96875,1.8151-0.96875,3.0625v20.906c0,1.2468,0.21028,2.3036,0.96875,3.0625,0.75847,0.75886,1.8458,1,3.0938,1h20.75c1.2474,0,2.3351-0.24134,3.0938-1,0.75866-0.75866,0.96875-1.8151,0.96875-3.0625v-20.906c0-1.2468-0.21014-2.3039-0.96875-3.0625-0.75861-0.75861-1.8459-1-3.0938-1h-20.75zm0,2,20.75,0c1.0092,0,1.4784,0.19711,1.6875,0.40625,0.20914,0.20914,0.375,0.64804,0.375,1.6562v20.906c0,1.0086-0.16566,1.4469-0.375,1.6562-0.20934,0.20934-0.67889,0.40625-1.6875,0.40625h-20.75c-1.009,0-1.4782-0.19686-1.6875-0.40625-0.20928-0.20939-0.375-0.64804-0.375-1.6562v-20.906c0-1.0086,0.1658-1.4472,0.375-1.6562,0.2092-0.20909,0.67874-0.40625,1.6875-0.40625z"/>
<path id="path65" style="baseline-shift:baseline;block-progression:tb;color:#000000;direction:ltr;text-indent:0;text-align:start;enable-background:accumulate;text-transform:none;" fill="#f4f4f4" d="m335.38,99.688c-1.2472,0-2.335,0.24159-3.0938,1s-0.96875,1.8151-0.96875,3.0625v20.906c0,1.2468,0.21028,2.3036,0.96875,3.0625,0.75847,0.75886,1.8458,1,3.0938,1h20.781c1.2474,0,2.3038-0.24134,3.0625-1,0.75866-0.75866,1-1.8151,1-3.0625v-20.906c0-1.2468-0.24139-2.3039-1-3.0625-0.75861-0.75861-1.8147-1-3.0625-1h-20.781zm0,2,20.781,0c1.0092,0,1.4471,0.19711,1.6562,0.40625,0.20914,0.20914,0.40625,0.64804,0.40625,1.6562v20.906c0,1.0086-0.19691,1.4469-0.40625,1.6562-0.20934,0.20934-0.64764,0.40625-1.6562,0.40625h-20.781c-1.009,0-1.447-0.19686-1.6562-0.40625-0.20928-0.20939-0.40625-0.64804-0.40625-1.6562v-20.906c0-1.0086,0.19705-1.4472,0.40625-1.6562,0.2092-0.20909,0.64749-0.40625,1.6562-0.40625z"/>
<path id="path67" style="baseline-shift:baseline;block-progression:tb;color:#000000;direction:ltr;text-indent:0;text-align:start;enable-background:accumulate;text-transform:none;" fill="#f4f4f4" d="m366.34,99.688c-1.2468,0-2.3351,0.24158-3.0938,1-0.75862,0.75842-0.96875,1.8151-0.96875,3.0625v20.906c0,1.2468,0.21047,2.3036,0.96875,3.0625,0.75828,0.75887,1.8462,1,3.0938,1h20.75c1.2478,0,2.3352-0.24121,3.0938-1s0.96875-1.8153,0.96875-3.0625v-20.906c0-1.2466-0.21021-2.3038-0.96875-3.0625-0.75854-0.75874-1.8455-1-3.0938-1h-20.75zm0,2,20.75,0c1.0097,0,1.4785,0.19724,1.6875,0.40625,0.20896,0.20901,0.375,0.64789,0.375,1.6562v20.906c0,1.0088-0.16585,1.447-0.375,1.6562-0.20915,0.20921-0.67833,0.40625-1.6875,0.40625h-20.75c-1.0085,0-1.4783-0.19687-1.6875-0.40625-0.20922-0.20938-0.375-0.64804-0.375-1.6562v-20.906c0-1.0086,0.16587-1.4472,0.375-1.6562,0.20913-0.20908,0.67929-0.40625,1.6875-0.40625z"/>
<path id="path69" style="baseline-shift:baseline;block-progression:tb;color:#000000;direction:ltr;text-indent:0;text-align:start;enable-background:accumulate;text-transform:none;" fill="#f4f4f4" d="m397.28,99.688c-1.2472,0-2.335,0.24159-3.0938,1s-0.96875,1.8151-0.96875,3.0625v20.906c0,1.2468,0.21028,2.3036,0.96875,3.0625,0.75847,0.75886,1.8458,1,3.0938,1h20.781c1.2474,0,2.3041-0.2412,3.0625-1,0.75841-0.7588,1-1.8153,1-3.0625v-20.906c0-1.2466-0.24164-2.3038-1-3.0625-0.75836-0.75875-1.8147-1-3.0625-1h-20.781zm0,2,20.781,0c1.0092,0,1.4474,0.19725,1.6562,0.40625,0.20889,0.209,0.40625,0.64789,0.40625,1.6562v20.906c0,1.0088-0.19716,1.447-0.40625,1.6562s-0.64764,0.40625-1.6562,0.40625h-20.781c-1.009,0-1.447-0.19686-1.6562-0.40625-0.20928-0.20939-0.40625-0.64804-0.40625-1.6562v-20.906c0-1.0086,0.19705-1.4472,0.40625-1.6562,0.2092-0.20909,0.64749-0.40625,1.6562-0.40625z"/>
<path id="path71" stroke="#F4F4F4" stroke-width="2" d="M480.52,127.71" fill="none"/>
<path id="path73" stroke="#F4F4F4" stroke-width="2" d="M482.93,133.73" fill="none"/>
<path id="path75" style="baseline-shift:baseline;block-progression:tb;color:#000000;direction:ltr;text-indent:0;text-align:start;enable-background:accumulate;text-transform:none;" fill="#f4f4f4" d="m427.09,99.688c-1.2478,0-2.3351,0.24139-3.0938,1-0.75861,0.75861-0.96875,1.8157-0.96875,3.0625v20.906c0,1.2474,0.21009,2.3038,0.96875,3.0625,0.75866,0.75866,1.8464,1,3.0938,1,1.5908,0.00049,2.4152,0.15679,2.5938,0.28125,0.0893,0.0622,0.14841,0.0961,0.21875,0.34375,0.0703,0.24761,0.0937,0.68066,0.0937,1.3125v23.938c0,1.2477,0.24146,2.335,1,3.0938,0.75854,0.75874,1.8153,0.96875,3.0625,0.96875h45.625c1.2478,0,2.3352-0.20996,3.0938-0.96875,0.7519-0.7521,0.96488-1.8292,0.96875-3.0625,0.00003-0.011,0-0.0202,0-0.0312l0.1875-50.812v-0.0312c0-1.2474-0.2412-2.3041-1-3.0625-0.7588-0.75841-1.8153-1-3.0625-1h-52.781zm0,2,52.781,0c1.0088,0,1.447,0.19716,1.6562,0.40625s0.40625,0.64764,0.40625,1.6562l-0.1875,50.844c0,1.0088-0.16585,1.4783-0.375,1.6875-0.20915,0.20921-0.67833,0.375-1.6875,0.375h-45.625c-1.0088,0-1.4473-0.16599-1.6562-0.375-0.2-0.21-0.4-0.68-0.4-1.69v-23.938c0-0.71616-0.0289-1.3167-0.1875-1.875-0.1586-0.55829-0.48328-1.0991-0.96875-1.4375-0.97094-0.67679-2.1068-0.62449-3.75-0.625-1.0086,0-1.4469-0.19691-1.6562-0.40625-0.20934-0.20934-0.40625-0.64764-0.40625-1.6562v-20.906c0-1.0082,0.19711-1.4471,0.40625-1.6562,0.20914-0.20914,0.64708-0.40625,1.6562-0.40625z"/>
<path id="path77" style="baseline-shift:baseline;block-progression:tb;color:#000000;direction:ltr;text-indent:0;text-align:start;enable-background:accumulate;text-transform:none;" fill="#f4f4f4" d="m62.938,129.88c-1.2477,0-2.335,0.24127-3.0938,1-0.75873,0.75873-0.96875,1.8148-0.96875,3.0625v20.906c0,1.2472,0.21015,2.3037,0.96875,3.0625,0.7586,0.75879,1.8459,1,3.0938,1h20.781c1.2477,0,2.3038-0.24127,3.0625-1,0.75873-0.75873,1-1.8148,1-3.0625v-20.906c0-1.2472-0.2414-2.3037-1-3.0625-0.7586-0.75879-1.8147-1-3.0625-1h-20.781zm0,2,20.781,0c1.0092,0,1.4471,0.19704,1.6562,0.40625,0.20915,0.20921,0.40625,0.64749,0.40625,1.6562v20.906c0,1.0093-0.19723,1.4472-0.40625,1.6562-0.20902,0.20902-0.64694,0.40625-1.6562,0.40625h-20.781c-1.0092,0-1.4471-0.19704-1.6562-0.40625-0.20915-0.20921-0.40625-0.64749-0.40625-1.6562v-20.906c0-1.0093,0.19723-1.4472,0.40625-1.6562,0.20902-0.20902,0.64694-0.40625,1.6562-0.40625z"/>
<path id="path79" style="baseline-shift:baseline;block-progression:tb;color:#000000;direction:ltr;text-indent:0;text-align:start;enable-background:accumulate;text-transform:none;" fill="#f4f4f4" d="m6.75,129.88c-1.2472,0-2.3037,0.2414-3.0625,1-0.75879,0.7586-1,1.8147-1,3.0625v20.906c0,1.2472,0.2414,2.3037,1,3.0625,0.7586,0.75879,1.8147,1,3.0625,1h48.031c1.2472,0,2.3037-0.2414,3.0625-1,0.75879-0.7586,1-1.8147,1-3.0625v-20.906c0-1.2472-0.2414-2.3037-1-3.0625-0.7586-0.75879-1.8147-1-3.0625-1h-48.031zm0,2,48.031,0c1.0092,0,1.4471,0.19704,1.6562,0.40625,0.20915,0.20921,0.40625,0.64749,0.40625,1.6562v20.906c0,1.0092-0.19704,1.4471-0.40625,1.6562-0.20921,0.20915-0.64749,0.40625-1.6562,0.40625h-48.031c-1.0092,0-1.4471-0.19704-1.6562-0.40625-0.20915-0.20921-0.40625-0.64749-0.40625-1.6562v-20.906c0-1.0092,0.19704-1.4471,0.40625-1.6562,0.2092-0.22,0.6474-0.41,1.6562-0.41z"/>
<path id="path81" style="baseline-shift:baseline;block-progression:tb;color:#000000;direction:ltr;text-indent:0;text-align:start;enable-background:accumulate;text-transform:none;" fill="#f4f4f4" d="m93.906,129.88c-1.2472,0-2.335,0.2414-3.0938,1-0.75879,0.7586-0.96875,1.8147-0.96875,3.0625v20.906c0,1.2474,0.21009,2.3038,0.96875,3.0625,0.75866,0.75866,1.8464,1,3.0938,1h20.75c1.2477,0,2.335-0.24127,3.0938-1,0.53837-0.53837,0.76531-1.2558,0.875-2.0625h0.0937v-1-20.906c0-1.2472-0.21015-2.3037-0.96875-3.0625-0.7586-0.75879-1.8459-1-3.0938-1h-20.75zm0,2,20.75,0c1.0092,0,1.4784,0.19704,1.6875,0.40625,0.20915,0.20921,0.375,0.64749,0.375,1.6562v19.906,1c0,1.0093-0.16598,1.4472-0.375,1.6562-0.20902,0.20902-0.67818,0.40625-1.6875,0.40625h-20.75c-1.0086,0-1.4782-0.19691-1.6875-0.40625-0.20934-0.20934-0.375-0.64764-0.375-1.6562v-20.906c0-1.0092,0.16579-1.4471,0.375-1.6562,0.20921-0.20915,0.67874-0.40625,1.6875-0.40625z"/>
<path id="path83" style="baseline-shift:baseline;block-progression:tb;color:#000000;direction:ltr;text-indent:0;text-align:start;enable-background:accumulate;text-transform:none;" fill="#f4f4f4" d="m124.84,129.88c-1.2472,0-2.335,0.2414-3.0938,1-0.75879,0.7586-0.96875,1.8147-0.96875,3.0625v20.906c0,1.2474,0.21009,2.3038,0.96875,3.0625,0.75866,0.75866,1.8464,1,3.0938,1h20.781c1.2472,0,2.3037-0.2414,3.0625-1,0.75879-0.7586,1-1.8147,1-3.0625v-20.906c0-1.2472-0.2414-2.3037-1-3.0625-0.7586-0.75879-1.8147-1-3.0625-1h-20.781zm0,2,20.781,0c1.0092,0,1.4471,0.19704,1.6562,0.40625,0.20915,0.20921,0.40625,0.64749,0.40625,1.6562v20.906c0,1.0092-0.19704,1.4471-0.40625,1.6562-0.20921,0.20915-0.64749,0.40625-1.6562,0.40625h-20.781c-1.0086,0-1.4469-0.19691-1.6562-0.40625-0.20934-0.20934-0.40625-0.64764-0.40625-1.6562v-20.906c0-1.0092,0.19704-1.4471,0.40625-1.6562,0.20921-0.20915,0.64749-0.40625,1.6562-0.40625z"/>
<path id="path85" style="baseline-shift:baseline;block-progression:tb;color:#000000;direction:ltr;text-indent:0;text-align:start;enable-background:accumulate;text-transform:none;" fill="#f4f4f4" d="m155.78,129.88c-1.2472,0-2.3037,0.2414-3.0625,1-0.75879,0.7586-1,1.8147-1,3.0625v20.906c0,1.2474,0.24134,2.3038,1,3.0625,0.75866,0.75866,1.8151,1,3.0625,1h20.781c1.2477,0,2.335-0.24127,3.0938-1,0.75873-0.75873,0.96875-1.8148,0.96875-3.0625v-20.906c0-1.2472-0.21015-2.3037-0.96875-3.0625-0.7586-0.75879-1.8459-1-3.0938-1h-20.781zm0,2,20.781,0c1.0092,0,1.4784,0.19704,1.6875,0.40625,0.20915,0.20921,0.375,0.64749,0.375,1.6562v20.906c0,1.0093-0.16598,1.4472-0.375,1.6562-0.20902,0.20902-0.67818,0.40625-1.6875,0.40625h-20.781c-1.0086,0-1.4469-0.19691-1.6562-0.40625-0.20934-0.20934-0.40625-0.64764-0.40625-1.6562v-20.906c0-1.0092,0.19704-1.4471,0.40625-1.6562,0.20921-0.20915,0.64749-0.40625,1.6562-0.40625z"/>
<path id="path87" style="baseline-shift:baseline;block-progression:tb;color:#000000;direction:ltr;text-indent:0;text-align:start;enable-background:accumulate;text-transform:none;" fill="#f4f4f4" d="m186.75,129.88c-1.2472,0-2.335,0.2414-3.0938,1-0.75879,0.7586-0.96875,1.8147-0.96875,3.0625v20.906c0,1.2472,0.21015,2.3037,0.96875,3.0625,0.7586,0.75879,1.8459,1,3.0938,1h20.781c1.2477,0,2.3038-0.24127,3.0625-1,0.75873-0.75873,1-1.8148,1-3.0625v-20.906c0-1.2472-0.2414-2.3037-1-3.0625-0.7586-0.75879-1.8147-1-3.0625-1h-20.781zm0,2,20.781,0c1.0092,0,1.4471,0.19704,1.6562,0.40625,0.20915,0.20921,0.40625,0.64749,0.40625,1.6562v20.906c0,1.0093-0.19723,1.4472-0.40625,1.6562-0.20902,0.20902-0.64693,0.40625-1.6562,0.40625h-20.781c-1.0092,0-1.4784-0.19704-1.6875-0.40625-0.20915-0.20921-0.375-0.64749-0.375-1.6562v-20.906c0-1.0092,0.16579-1.4471,0.375-1.6562,0.20921-0.20915,0.67874-0.40625,1.6875-0.40625z"/>
<path id="path89" style="baseline-shift:baseline;block-progression:tb;color:#000000;direction:ltr;text-indent:0;text-align:start;enable-background:accumulate;text-transform:none;" fill="#f4f4f4" d="m217.69,129.88c-1.2472,0-2.3037,0.2414-3.0625,1-0.75879,0.7586-1,1.8147-1,3.0625v20.906c0,1.2472,0.2414,2.3037,1,3.0625,0.7586,0.75879,1.8147,1,3.0625,1h20.781c1.2472,0,2.335-0.2414,3.0938-1,0.75879-0.7586,0.96875-1.8147,0.96875-3.0625v-20.906c0-1.2474-0.21009-2.3038-0.96875-3.0625-0.75866-0.75866-1.8464-1-3.0938-1h-20.781zm0,2,20.781,0c1.0086,0,1.4469,0.19691,1.6562,0.40625,0.20934,0.20934,0.40625,0.64764,0.40625,1.6562v20.906c0,1.0092-0.19704,1.4471-0.40625,1.6562-0.20921,0.20915-0.64749,0.40625-1.6562,0.40625h-20.781c-1.0092,0-1.4471-0.19704-1.6562-0.40625-0.20915-0.20921-0.40625-0.64749-0.40625-1.6562v-20.906c0-1.0092,0.19704-1.4471,0.40625-1.6562,0.20921-0.20915,0.64749-0.40625,1.6562-0.40625z"/>
<path id="path91" style="baseline-shift:baseline;block-progression:tb;color:#000000;direction:ltr;text-indent:0;text-align:start;enable-background:accumulate;text-transform:none;" fill="#f4f4f4" d="m248.66,129.88c-1.2472,0-2.335,0.2414-3.0938,1-0.75879,0.7586-0.96875,1.8147-0.96875,3.0625v20.906c0,1.2474,0.21009,2.3038,0.96875,3.0625,0.75866,0.75866,1.8464,1,3.0938,1h20.75c1.2477,0,2.335-0.24127,3.0938-1,0.75873-0.75873,0.96875-1.8148,0.96875-3.0625v-20.906c0-1.2472-0.21015-2.3037-0.96875-3.0625-0.7586-0.75879-1.8459-1-3.0938-1h-20.75zm0,2,20.75,0c1.0092,0,1.4784,0.19704,1.6875,0.40625,0.20915,0.20921,0.375,0.64749,0.375,1.6562v20.906c0,1.0093-0.16598,1.4472-0.375,1.6562-0.20902,0.20902-0.67818,0.40625-1.6875,0.40625h-20.75c-1.0086,0-1.4782-0.19691-1.6875-0.40625-0.20934-0.20934-0.375-0.64764-0.375-1.6562v-20.906c0-1.0092,0.16579-1.4471,0.375-1.6562,0.20921-0.20915,0.67874-0.40625,1.6875-0.40625z"/>
<path id="path93" style="baseline-shift:baseline;block-progression:tb;color:#000000;direction:ltr;text-indent:0;text-align:start;enable-background:accumulate;text-transform:none;" fill="#f4f4f4" d="m279.59,129.88c-1.2477,0-2.3038,0.24127-3.0625,1-0.75873,0.75873-1,1.8148-1,3.0625v20.906c0,1.2472,0.2414,2.3037,1,3.0625,0.7586,0.75879,1.8147,1,3.0625,1h20.781c1.2477,0,2.335-0.24127,3.0938-1,0.75873-0.75873,0.96875-1.8148,0.96875-3.0625v-20.906c0-1.2472-0.21015-2.3037-0.96875-3.0625-0.7586-0.75879-1.8459-1-3.0938-1h-20.781zm0,2,20.781,0c1.0092,0,1.4471,0.19704,1.6562,0.40625,0.20915,0.20921,0.40625,0.64749,0.40625,1.6562v20.906c0,1.0093-0.19723,1.4472-0.40625,1.6562-0.20902,0.20902-0.64693,0.40625-1.6562,0.40625h-20.781c-1.0092,0-1.4471-0.19704-1.6562-0.40625-0.20915-0.20921-0.40625-0.64749-0.40625-1.6562v-20.906c0-1.0093,0.19723-1.4472,0.40625-1.6562,0.20902-0.20902,0.64693-0.40625,1.6562-0.40625z"/>
<path id="path95" style="baseline-shift:baseline;block-progression:tb;color:#000000;direction:ltr;text-indent:0;text-align:start;enable-background:accumulate;text-transform:none;" fill="#f4f4f4" d="m310.56,129.88c-1.2472,0-2.335,0.2414-3.0938,1-0.75879,0.7586-0.96875,1.8147-0.96875,3.0625v20.906c0,1.2472,0.21015,2.3037,0.96875,3.0625,0.7586,0.75879,1.8459,1,3.0938,1h20.75c1.2472,0,2.3352-0.24126,3.0938-1,0.75854-0.75874,0.96875-1.8148,0.96875-3.0625v-20.906c0-1.2471-0.2104-2.3036-0.96875-3.0625-0.75835-0.75894-1.8459-1-3.0938-1h-20.75zm0,2,20.75,0c1.0092,0,1.4786,0.19719,1.6875,0.40625s0.375,0.64734,0.375,1.6562v20.906c0,1.0093-0.16604,1.4472-0.375,1.6562-0.20896,0.20901-0.67874,0.40625-1.6875,0.40625h-20.75c-1.0092,0-1.4784-0.19704-1.6875-0.40625-0.20915-0.20921-0.375-0.64749-0.375-1.6562v-20.906c0-1.0092,0.16579-1.4471,0.375-1.6562,0.20921-0.20915,0.67874-0.40625,1.6875-0.40625z"/>
<path id="path97" style="baseline-shift:baseline;block-progression:tb;color:#000000;direction:ltr;text-indent:0;text-align:start;enable-background:accumulate;text-transform:none;" fill="#f4f4f4" d="m341.5,129.88c-1.2472,0-2.3037,0.2414-3.0625,1-0.75879,0.7586-1,1.8147-1,3.0625v20.906c0,1.2472,0.21015,2.3037,0.96875,3.0625,0.7586,0.75879,1.8459,1,3.0938,1h20.781c1.2472,0,2.3352-0.24126,3.0938-1,0.75854-0.75874,0.96875-1.8148,0.96875-3.0625v-20.906c0-1.2471-0.2104-2.3036-0.96875-3.0625-0.75835-0.75894-1.8459-1-3.0938-1h-20.781zm0,2,20.781,0c1.0092,0,1.4474,0.19719,1.6562,0.40625,0.2089,0.20906,0.40625,0.64734,0.40625,1.6562v20.906c0,1.0093-0.19729,1.4472-0.40625,1.6562-0.20896,0.20901-0.64749,0.40625-1.6562,0.40625h-20.781c-1.0092,0-1.4471-0.19704-1.6562-0.40625-0.20915-0.20921-0.40625-0.64749-0.40625-1.6562v-20.906c0-1.0092,0.19704-1.4471,0.40625-1.6562,0.20921-0.20915,0.64749-0.40625,1.6562-0.40625z"/>
<path id="path99" style="baseline-shift:baseline;block-progression:tb;color:#000000;direction:ltr;text-indent:0;text-align:start;enable-background:accumulate;text-transform:none;" fill="#f4f4f4" d="m372.47,129.88c-1.2472,0-2.335,0.2414-3.0938,1-0.75879,0.7586-0.96875,1.8147-0.96875,3.0625v20.906c0,1.2472,0.21015,2.3037,0.96875,3.0625,0.7586,0.75879,1.8459,1,3.0938,1h20.75c1.2472,0,2.3352-0.24126,3.0938-1,0.75854-0.75874,0.96875-1.8148,0.96875-3.0625v-20.906c0-1.2471-0.2104-2.3036-0.96875-3.0625-0.75835-0.75894-1.8459-1-3.0938-1h-20.75zm0,2,20.75,0c1.0092,0,1.4786,0.19719,1.6875,0.40625s0.375,0.64734,0.375,1.6562v20.906c0,1.0093-0.16604,1.4472-0.375,1.6562-0.20896,0.20901-0.67874,0.40625-1.6875,0.40625h-20.75c-1.0092,0-1.4784-0.19704-1.6875-0.40625-0.20915-0.20921-0.375-0.64749-0.375-1.6562v-20.906c0-1.0092,0.16579-1.4471,0.375-1.6562,0.20921-0.20915,0.67874-0.40625,1.6875-0.40625z"/>
<path id="path101" style="baseline-shift:baseline;block-progression:tb;color:#000000;direction:ltr;text-indent:0;text-align:start;enable-background:accumulate;text-transform:none;" fill="#f4f4f4" d="m403.41,129.88c-1.2472,0-2.335,0.2414-3.0938,1-0.75879,0.7586-0.96875,1.8147-0.96875,3.0625v20.906c0,1.2472,0.21015,2.3037,0.96875,3.0625,0.7586,0.75879,1.8459,1,3.0938,1h20.781c1.2472,0,2.304-0.24126,3.0625-1,0.75854-0.75874,1-1.8148,1-3.0625v-20.906c0-1.2471-0.24165-2.3036-1-3.0625-0.75835-0.75894-1.8147-1-3.0625-1h-20.781zm0,2,20.781,0c1.0092,0,1.4474,0.19719,1.6562,0.40625,0.2089,0.20906,0.40625,0.64734,0.40625,1.6562v20.906c0,1.0093-0.19729,1.4472-0.40625,1.6562-0.20896,0.20901-0.64749,0.40625-1.6562,0.40625h-20.781c-1.0092,0-1.4471-0.19704-1.6562-0.40625-0.20915-0.20921-0.40625-0.64749-0.40625-1.6562v-20.906c0-1.0092,0.19704-1.4471,0.40625-1.6562,0.20921-0.20915,0.64749-0.40625,1.6562-0.40625z"/>
<path id="path103" style="baseline-shift:baseline;block-progression:tb;color:#000000;direction:ltr;text-indent:0;text-align:start;enable-background:accumulate;text-transform:none;" fill="#f4f4f4" d="m77.469,160.06c-1.2472,0-2.335,0.2414-3.0938,1-0.75879,0.7586-0.96875,1.8147-0.96875,3.0625v20.906c0,1.2472,0.21015,2.3037,0.96875,3.0625,0.7586,0.75879,1.8459,1,3.0938,1h20.781c1.2477,0,2.3038-0.24127,3.0625-1,0.53807-0.53807,0.7652-1.2563,0.875-2.0625h0.125v-1-20.906c0-1.2472-0.2414-2.3037-1-3.0625-0.7586-0.75879-1.8147-1-3.0625-1h-20.781zm0,2,20.781,0c1.0092,0,1.4471,0.19704,1.6562,0.40625,0.20915,0.20921,0.40625,0.64749,0.40625,1.6562v19.906,1c0,1.0093-0.19723,1.4472-0.40625,1.6562-0.20902,0.20902-0.64694,0.40625-1.6562,0.40625h-20.781c-1.0092,0-1.4471-0.19704-1.6562-0.40625-0.20915-0.20921-0.40625-0.64749-0.40625-1.6562v-20.906c0-1.0092,0.19704-1.4471,0.40625-1.6562,0.20921-0.20915,0.64749-0.40625,1.6562-0.40625z"/>
<path id="path105" style="baseline-shift:baseline;block-progression:tb;color:#000000;direction:ltr;text-indent:0;text-align:start;enable-background:accumulate;text-transform:none;" fill="#f4f4f4" d="m6.75,160.06c-1.2472,0-2.3037,0.2414-3.0625,1-0.75879,0.7586-1,1.8147-1,3.0625v20.906c0,1.2474,0.24134,2.3038,1,3.0625,0.75866,0.75866,1.8151,1,3.0625,1h61.969c1.2477,0,2.335-0.24127,3.0938-1,0.75873-0.75873,0.96875-1.8148,0.96875-3.0625v-20.906c0-1.2472-0.21015-2.3037-0.96875-3.0625-0.7586-0.75879-1.8459-1-3.0938-1h-61.969zm0,2,61.969,0c1.0092,0,1.4783,0.19704,1.6875,0.40625,0.20915,0.20921,0.375,0.64749,0.375,1.6562v20.906c0,1.0093-0.16598,1.4472-0.375,1.6562-0.20902,0.20902-0.67818,0.40625-1.6875,0.40625h-61.969c-1.0086,0-1.4469-0.19691-1.6562-0.40625-0.20934-0.20934-0.40625-0.64764-0.40625-1.6562v-20.906c0-1.0092,0.19704-1.4471,0.40625-1.6562,0.2102-0.21,0.6484-0.41,1.6572-0.41z"/>
<path id="path107" style="baseline-shift:baseline;block-progression:tb;color:#000000;direction:ltr;text-indent:0;text-align:start;enable-background:accumulate;text-transform:none;" fill="#f4f4f4" d="m108.41,160.06c-1.2472,0-2.3037,0.2414-3.0625,1-0.75879,0.7586-1,1.8147-1,3.0625v20.906c0,1.2474,0.24134,2.3038,1,3.0625,0.75866,0.75866,1.8151,1,3.0625,1h20.781c1.2472,0,2.335-0.2414,3.0938-1,0.75879-0.7586,0.96875-1.8147,0.96875-3.0625v-1-19.906c0-1.2472-0.21015-2.3037-0.96875-3.0625-0.7586-0.75879-1.8459-1-3.0938-1h-20.781zm0,2,20.781,0c1.0092,0,1.4471,0.19704,1.6562,0.40625,0.20915,0.20921,0.40625,0.64749,0.40625,1.6562v20.906c0,1.0092-0.16579,1.4471-0.375,1.6562-0.20921,0.20915-0.67874,0.40625-1.6875,0.40625h-20.781c-1.0086,0-1.4469-0.19691-1.6562-0.40625-0.20934-0.20934-0.40625-0.64764-0.40625-1.6562v-20.906c0-1.0092,0.19704-1.4471,0.40625-1.6562,0.20921-0.20915,0.64749-0.40625,1.6562-0.40625z"/>
<path id="path109" style="baseline-shift:baseline;block-progression:tb;color:#000000;direction:ltr;text-indent:0;text-align:start;enable-background:accumulate;text-transform:none;" fill="#f4f4f4" d="m139.38,160.06c-1.2472,0-2.335,0.2414-3.0938,1-0.75879,0.7586-0.96875,1.8147-0.96875,3.0625v20.906c0,1.2472,0.21015,2.3037,0.96875,3.0625,0.7586,0.75879,1.8459,1,3.0938,1h20.781c1.2472,0,2.3037-0.2414,3.0625-1,0.75879-0.7586,1-1.8147,1-3.0625v-20.906c0-1.2472-0.2414-2.3037-1-3.0625-0.7586-0.75879-1.8147-1-3.0625-1h-20.781zm0,2,20.781,0c1.0092,0,1.4471,0.19704,1.6562,0.40625,0.20915,0.20921,0.40625,0.64749,0.40625,1.6562v20.906c0,1.0092-0.19704,1.4471-0.40625,1.6562-0.20921,0.20915-0.64749,0.40625-1.6562,0.40625h-20.781c-1.0092,0-1.4784-0.19704-1.6875-0.40625-0.20915-0.20921-0.375-0.64749-0.375-1.6562v-20.906c0-1.0092,0.16579-1.4471,0.375-1.6562,0.20921-0.20915,0.67874-0.40625,1.6875-0.40625z"/>
<path id="path111" style="baseline-shift:baseline;block-progression:tb;color:#000000;direction:ltr;text-indent:0;text-align:start;enable-background:accumulate;text-transform:none;" fill="#f4f4f4" d="m170.31,160.06c-1.2472,0-2.3037,0.2414-3.0625,1-0.75879,0.7586-1,1.8147-1,3.0625v20.906c0,1.2474,0.24134,2.3038,1,3.0625,0.75866,0.75866,1.8151,1,3.0625,1h20.781c1.2472,0,2.335-0.2414,3.0938-1,0.75879-0.7586,0.96875-1.8147,0.96875-3.0625v-20.906c0-1.2472-0.21015-2.3037-0.96875-3.0625-0.7586-0.75879-1.8459-1-3.0938-1h-20.781zm0,2,20.781,0c1.0092,0,1.4471,0.19704,1.6562,0.40625,0.20915,0.20921,0.40625,0.64749,0.40625,1.6562v20.906c0,1.0092-0.19704,1.4471-0.40625,1.6562-0.20921,0.20915-0.64749,0.40625-1.6562,0.40625h-20.781c-1.0086,0-1.4469-0.19691-1.6562-0.40625-0.20934-0.20934-0.40625-0.64764-0.40625-1.6562v-20.906c0-1.0092,0.19704-1.4471,0.40625-1.6562,0.20921-0.20915,0.64749-0.40625,1.6562-0.40625z"/>
<path id="path113" style="baseline-shift:baseline;block-progression:tb;color:#000000;direction:ltr;text-indent:0;text-align:start;enable-background:accumulate;text-transform:none;" fill="#f4f4f4" d="m201.28,160.06c-1.2472,0-2.335,0.2414-3.0938,1-0.75879,0.7586-0.96875,1.8147-0.96875,3.0625v20.906c0,1.2472,0.21015,2.3037,0.96875,3.0625,0.7586,0.75879,1.8459,1,3.0938,1h20.75c1.2477,0,2.335-0.24127,3.0938-1,0.75873-0.75873,0.96875-1.8148,0.96875-3.0625v-20.906c0-1.2472-0.21015-2.3037-0.96875-3.0625-0.7586-0.75879-1.8459-1-3.0938-1h-20.75zm0,2,20.75,0c1.0092,0,1.4784,0.19704,1.6875,0.40625,0.20915,0.20921,0.375,0.64749,0.375,1.6562v20.906c0,1.0093-0.16598,1.4472-0.375,1.6562-0.20902,0.20902-0.67818,0.40625-1.6875,0.40625h-20.75c-1.0092,0-1.4784-0.19704-1.6875-0.40625-0.20915-0.20921-0.375-0.64749-0.375-1.6562v-20.906c0-1.0092,0.16579-1.4471,0.375-1.6562,0.20921-0.20915,0.67874-0.40625,1.6875-0.40625z"/>
<path id="path115" style="baseline-shift:baseline;block-progression:tb;color:#000000;direction:ltr;text-indent:0;text-align:start;enable-background:accumulate;text-transform:none;" fill="#f4f4f4" d="m232.22,160.06c-1.2472,0-2.3037,0.2414-3.0625,1-0.75879,0.7586-1,1.8147-1,3.0625v20.906c0,1.2474,0.24134,2.3038,1,3.0625,0.75866,0.75866,1.8151,1,3.0625,1h20.781c1.2477,0,2.335-0.24127,3.0938-1,0.75873-0.75873,0.96875-1.8148,0.96875-3.0625v-20.906c0-1.2472-0.21015-2.3037-0.96875-3.0625-0.7586-0.75879-1.8459-1-3.0938-1h-20.781zm0,2,20.781,0c1.0092,0,1.4471,0.19704,1.6562,0.40625,0.20915,0.20921,0.40625,0.64749,0.40625,1.6562v20.906c0,1.0093-0.19723,1.4472-0.40625,1.6562-0.20902,0.20902-0.64693,0.40625-1.6562,0.40625h-20.781c-1.0086,0-1.4469-0.19691-1.6562-0.40625-0.20934-0.20934-0.40625-0.64764-0.40625-1.6562v-20.906c0-1.0092,0.19704-1.4471,0.40625-1.6562,0.20921-0.20915,0.64749-0.40625,1.6562-0.40625z"/>
<path id="path117" style="baseline-shift:baseline;block-progression:tb;color:#000000;direction:ltr;text-indent:0;text-align:start;enable-background:accumulate;text-transform:none;" fill="#f4f4f4" d="m263.19,160.06c-1.2472,0-2.335,0.2414-3.0938,1-0.75879,0.7586-0.96875,1.8147-0.96875,3.0625v20.906c0,1.2472,0.21015,2.3037,0.96875,3.0625,0.7586,0.75879,1.8459,1,3.0938,1h20.75c1.2472,0,2.335-0.2414,3.0938-1,0.75879-0.7586,0.96875-1.8147,0.96875-3.0625v-20.906c0-1.2472-0.21015-2.3037-0.96875-3.0625-0.7586-0.75879-1.8459-1-3.0938-1h-20.75zm0,2,20.75,0c1.0092,0,1.4784,0.19704,1.6875,0.40625,0.20915,0.20921,0.375,0.64749,0.375,1.6562v20.906c0,1.0092-0.16579,1.4471-0.375,1.6562-0.20921,0.20915-0.67874,0.40625-1.6875,0.40625h-20.75c-1.0092,0-1.4784-0.19704-1.6875-0.40625-0.20915-0.20921-0.375-0.64749-0.375-1.6562v-20.906c0-1.0092,0.16579-1.4471,0.375-1.6562,0.20921-0.20915,0.67874-0.40625,1.6875-0.40625z"/>
<path id="path119" style="baseline-shift:baseline;block-progression:tb;color:#000000;direction:ltr;text-indent:0;text-align:start;enable-background:accumulate;text-transform:none;" fill="#f4f4f4" d="m294.12,160.06c-1.2472,0-2.335,0.2414-3.0938,1-0.75879,0.7586-0.96875,1.8147-0.96875,3.0625v20.906c0,1.2474,0.21009,2.3038,0.96875,3.0625,0.75866,0.75866,1.8464,1,3.0938,1h20.781c1.2472,0,2.3037-0.2414,3.0625-1,0.75879-0.7586,1-1.8147,1-3.0625v-20.906c0-1.2472-0.21015-2.3037-0.96875-3.0625-0.7586-0.75879-1.8459-1-3.0938-1h-20.781zm0,2,20.781,0c1.0092,0,1.4471,0.19704,1.6562,0.40625,0.20915,0.20921,0.40625,0.64749,0.40625,1.6562v20.906c0,1.0092-0.19704,1.4471-0.40625,1.6562-0.20921,0.20915-0.64749,0.40625-1.6562,0.40625h-20.781c-1.0086,0-1.4469-0.19691-1.6562-0.40625-0.20934-0.20934-0.40625-0.64764-0.40625-1.6562v-20.906c0-1.0092,0.19704-1.4471,0.40625-1.6562,0.20921-0.20915,0.64749-0.40625,1.6562-0.40625z"/>
<path id="path121" style="baseline-shift:baseline;block-progression:tb;color:#000000;direction:ltr;text-indent:0;text-align:start;enable-background:accumulate;text-transform:none;" fill="#f4f4f4" d="m325.09,160.06c-1.2472,0-2.335,0.2414-3.0938,1-0.75879,0.7586-0.96875,1.8147-0.96875,3.0625v20.906c0,1.2472,0.21015,2.3037,0.96875,3.0625,0.7586,0.75879,1.8459,1,3.0938,1h20.75c1.2472,0,2.335-0.2414,3.0938-1,0.75879-0.7586,0.96875-1.8147,0.96875-3.0625v-20.906c0-1.2472-0.21015-2.3037-0.96875-3.0625-0.7586-0.75879-1.8459-1-3.0938-1h-20.75zm0,2,20.75,0c1.0092,0,1.4784,0.19704,1.6875,0.40625,0.20915,0.20921,0.375,0.64749,0.375,1.6562v20.906c0,1.0092-0.16579,1.4471-0.375,1.6562-0.20921,0.20915-0.67874,0.40625-1.6875,0.40625h-20.75c-1.0092,0-1.4784-0.19704-1.6875-0.40625-0.20915-0.20921-0.375-0.64749-0.375-1.6562v-20.906c0-1.0092,0.16579-1.4471,0.375-1.6562,0.20921-0.20915,0.67874-0.40625,1.6875-0.40625z"/>
<path id="path123" style="baseline-shift:baseline;block-progression:tb;color:#000000;direction:ltr;text-indent:0;text-align:start;enable-background:accumulate;text-transform:none;" fill="#f4f4f4" d="m356.03,160.06c-1.2472,0-2.335,0.2414-3.0938,1-0.75879,0.7586-0.96875,1.8147-0.96875,3.0625v20.906c0,1.2472,0.21015,2.3037,0.96875,3.0625,0.7586,0.75879,1.8459,1,3.0938,1h20.781c1.2477,0,2.3035-0.24141,3.0625-1,0.75898-0.75859,1-1.8147,1-3.0625v-20.906c0-1.2472-0.24122-2.3037-1-3.0625-0.75878-0.75878-1.8142-1-3.0625-1h-20.781zm0,2,20.781,0c1.0097,0,1.447,0.19703,1.6562,0.40625,0.20922,0.20922,0.40625,0.64749,0.40625,1.6562v20.906c0,1.0092-0.19698,1.4471-0.40625,1.6562-0.20927,0.20916-0.64693,0.40625-1.6562,0.40625h-20.781c-1.0092,0-1.4471-0.19704-1.6562-0.40625-0.20915-0.20921-0.40625-0.64749-0.40625-1.6562v-20.906c0-1.0092,0.19704-1.4471,0.40625-1.6562,0.20921-0.20915,0.64749-0.40625,1.6562-0.40625z"/>
<path id="path125" style="baseline-shift:baseline;block-progression:tb;color:#000000;direction:ltr;text-indent:0;text-align:start;enable-background:accumulate;text-transform:none;" fill="#f4f4f4" d="m386.97,160.06c-1.2468,0-2.3039,0.24139-3.0625,1-0.75861,0.75861-1,1.8147-1,3.0625v20.906c0,1.2472,0.24159,2.3037,1,3.0625s1.8151,1,3.0625,1h20.781c1.2472,0,2.335-0.2414,3.0938-1,0.75879-0.7586,0.96875-1.8147,0.96875-3.0625v-20.906c0-1.2472-0.21015-2.3037-0.96875-3.0625-0.7586-0.75879-1.8459-1-3.0938-1h-20.781zm0,2,20.781,0c1.0092,0,1.4784,0.19704,1.6875,0.40625,0.20915,0.20921,0.375,0.64749,0.375,1.6562v20.906c0,1.0092-0.16579,1.4471-0.375,1.6562-0.20921,0.20915-0.67874,0.40625-1.6875,0.40625h-20.781c-1.0086,0-1.4472-0.19705-1.6562-0.40625-0.20909-0.2092-0.40625-0.64749-0.40625-1.6562v-20.906c0-1.0092,0.19711-1.4471,0.40625-1.6562,0.20914-0.20914,0.64804-0.40625,1.6562-0.40625z"/>
<path id="path127" style="baseline-shift:baseline;block-progression:tb;color:#000000;direction:ltr;text-indent:0;text-align:start;enable-background:accumulate;text-transform:none;" fill="#f4f4f4" d="m417.81,160.06c-1.2468,0-2.3349,0.24153-3.0938,1-0.75886,0.75847-1,1.8145-1,3.0625v20.906c0,1.2474,0.24134,2.3038,1,3.0625,0.75866,0.75866,1.8464,1,3.0938,1h62.625c1.2472,0,2.335-0.2414,3.0938-1,0.75879-0.7586,0.96875-1.8147,0.96875-3.0625v-20.906c0-1.2472-0.21015-2.3037-0.96875-3.0625-0.7586-0.75879-1.8459-1-3.0938-1h-62.625zm0,2,62.625,0c1.0092,0,1.4784,0.19704,1.6875,0.40625,0.20915,0.20921,0.375,0.64749,0.375,1.6562v20.906c0,1.0092-0.16579,1.4471-0.375,1.6562-0.20921,0.20915-0.67874,0.40625-1.6875,0.40625h-62.625c-1.0086,0-1.4782-0.19691-1.6875-0.40625-0.20934-0.20934-0.40625-0.64764-0.40625-1.6562v-20.906c0-1.009,0.19686-1.447,0.40625-1.6562,0.20939-0.20928,0.67929-0.40625,1.6875-0.40625z"/>
<path id="path129" style="baseline-shift:baseline;block-progression:tb;color:#000000;direction:ltr;text-indent:0;text-align:start;enable-background:accumulate;text-transform:none;" fill="#f4f4f4" d="m386.97,189.81c-1.2468,0-2.3039,0.21014-3.0625,0.96875-0.75861,0.75861-1,1.8459-1,3.0938v20.875c0,1.2472,0.24159,2.335,1,3.0938s1.8151,0.96875,3.0625,0.96875h20.781c1.2472,0,2.335-0.21015,3.0938-0.96875,0.75879-0.7586,0.96875-1.8459,0.96875-3.0938v-20.875c0-1.2472-0.21015-2.335-0.96875-3.0938-0.7586-0.75879-1.8459-0.96875-3.0938-0.96875h-20.781zm0,2,20.781,0c1.0092,0,1.4784,0.19704,1.6875,0.40625,0.20915,0.20921,0.375,0.64749,0.375,1.6562v20.875c0,1.0092-0.16579,1.4784-0.375,1.6875-0.20921,0.20915-0.67874,0.375-1.6875,0.375h-20.781c-1.0086,0-1.4472-0.1658-1.6562-0.375-0.20909-0.2092-0.40625-0.67874-0.40625-1.6875v-20.875c0-1.0092,0.19711-1.4471,0.40625-1.6562,0.20914-0.20914,0.64804-0.40625,1.6562-0.40625z"/>
<path id="path131" style="baseline-shift:baseline;block-progression:tb;color:#000000;direction:ltr;text-indent:0;text-align:start;enable-background:accumulate;text-transform:none;" fill="#f4f4f4" d="m106.09,189.81c-1.2472,0-2.335,0.21015-3.0938,0.96875-0.75879,0.7586-0.96875,1.8459-0.96875,3.0938v20.875c0,1.2474,0.21009,2.3351,0.96875,3.0938,0.75866,0.75866,1.8464,0.96875,3.0938,0.96875h271.69c1.2472,0,2.335-0.21015,3.0938-0.96875,0.75879-0.7586,0.96875-1.8459,0.96875-3.0938v-20.875c0-1.2472-0.21015-2.335-0.96875-3.0938-0.7586-0.75879-1.8459-0.96875-3.0938-0.96875h-271.69zm0,2,271.69,0c1.0092,0,1.4784,0.19704,1.6875,0.40625,0.20915,0.20921,0.375,0.64749,0.375,1.6562v20.875c0,1.0092-0.16579,1.4784-0.375,1.6875-0.20921,0.20915-0.67874,0.375-1.6875,0.375h-271.69c-1.0086,0-1.4469-0.16566-1.6562-0.375-0.20934-0.20934-0.40625-0.67889-0.40625-1.6875v-20.875c0-1.0092,0.19704-1.4471,0.40625-1.6562,0.20921-0.20915,0.64749-0.40625,1.6562-0.40625z"/>
<path id="path133" style="baseline-shift:baseline;block-progression:tb;color:#000000;direction:ltr;text-indent:0;text-align:start;enable-background:accumulate;text-transform:none;" fill="#f4f4f4" d="m8.0938,68.594c-1.2474,0-2.3351,0.24134-3.0938,1-0.75866,0.75866-0.96875,1.8151-0.96875,3.0625v20.906c0,1.2469,0.21022,2.3038,0.96875,3.0625,0.75853,0.75872,1.8462,1,3.0938,1h20.781c1.2478,0,2.3352-0.24121,3.0938-1s0.96875-1.8153,0.96875-3.0625v-20.906c0-1.2472-0.21015-2.3037-0.96875-3.0625-0.7586-0.75879-1.8459-1-3.0938-1h-20.781zm0,2,20.781,0c1.0092,0,1.4471,0.19704,1.6562,0.40625,0.20915,0.20921,0.40625,0.64749,0.40625,1.6562v20.906c0,1.0088-0.1971,1.447-0.40625,1.6562-0.209,0.21-0.647,0.407-1.656,0.407h-20.781c-1.0087,0-1.447-0.197-1.6565-0.406-0.2095-0.21-0.4063-0.648-0.4063-1.657v-20.906c0-1.008,0.197-1.447,0.4063-1.656s0.6476-0.406,1.6563-0.406z"/>
<path id="path135" style="baseline-shift:baseline;block-progression:tb;color:#000000;direction:ltr;text-indent:0;text-align:start;enable-background:accumulate;text-transform:none;" fill="#f4f4f4" d="m521.75,129.16c-1.2469,0-2.3353,0.21008-3.0938,0.96875-0.75848,0.75867-0.96875,1.8464-0.96875,3.0938v20.875c0,1.2472,0.21034,2.335,0.96875,3.0938s1.8464,0.96875,3.0938,0.96875h20.781c1.2472,0,2.3037-0.21015,3.0625-0.96875,0.75879-0.7586,1-1.8459,1-3.0938v-20.875c0-1.2468-0.24153-2.3349-1-3.0938-0.75847-0.75886-1.8145-0.96875-3.0625-0.96875h-20.781zm0,2,20.781,0c1.009,0,1.447,0.16561,1.6562,0.375,0.20928,0.20939,0.40625,0.67929,0.40625,1.6875v20.875c0,1.0092-0.19704,1.4784-0.40625,1.6875-0.20921,0.20915-0.64749,0.375-1.6562,0.375h-20.781c-1.0086,0-1.4472-0.1658-1.6562-0.375-0.20909-0.2092-0.40625-0.67874-0.40625-1.6875v-20.875c0-1.0086,0.19698-1.4782,0.40625-1.6875,0.20927-0.20933,0.64819-0.375,1.6562-0.375z"/>
<path id="path137" style="baseline-shift:baseline;block-progression:tb;color:#000000;direction:ltr;text-indent:0;text-align:start;enable-background:accumulate;text-transform:none;" fill="#f4f4f4" d="m521.75,159.97c-1.2468,0-2.3351,0.21014-3.0938,0.96875-0.75861,0.75861-0.96875,1.8459-0.96875,3.0938v20.875c0,1.2472,0.21034,2.335,0.96875,3.0938s1.8464,0.96875,3.0938,0.96875h20.781c1.2472,0,2.3037-0.21015,3.0625-0.96875,0.75879-0.7586,1-1.8459,1-3.0938v-20.875c0-1.2472-0.2414-2.335-1-3.0938-0.7586-0.75879-1.8147-0.96875-3.0625-0.96875h-20.781zm0,2,20.781,0c1.0092,0,1.4471,0.16579,1.6562,0.375,0.20915,0.20921,0.40625,0.67874,0.40625,1.6875v20.875c0,1.0092-0.19704,1.4784-0.40625,1.6875-0.20921,0.20915-0.64749,0.375-1.6562,0.375h-20.781c-1.0086,0-1.4472-0.1658-1.6562-0.375-0.20909-0.2092-0.40625-0.67874-0.40625-1.6875v-20.875c0-1.0092,0.19711-1.4784,0.40625-1.6875,0.20914-0.20914,0.64804-0.375,1.6562-0.375z"/>
<path id="path139" style="baseline-shift:baseline;block-progression:tb;color:#000000;direction:ltr;text-indent:0;text-align:start;enable-background:accumulate;text-transform:none;" fill="#f4f4f4" d="m521.75,190.78c-1.2468,0-2.3351,0.21014-3.0938,0.96875-0.75861,0.75861-0.96875,1.8459-0.96875,3.0938v20.875c0,1.2472,0.21034,2.335,0.96875,3.0938s1.8464,0.96875,3.0938,0.96875h20.781c1.2472,0,2.3037-0.21015,3.0625-0.96875,0.75879-0.7586,1-1.8459,1-3.0938v-20.875c0-1.2472-0.2414-2.335-1-3.0938-0.7586-0.75879-1.8147-0.96875-3.0625-0.96875h-20.781zm0,2,20.781,0c1.0092,0,1.4471,0.16579,1.6562,0.375,0.20915,0.20921,0.40625,0.67874,0.40625,1.6875v20.875c0,1.0092-0.19704,1.4784-0.40625,1.6875-0.20921,0.20915-0.64749,0.375-1.6562,0.375h-20.781c-1.0086,0-1.4472-0.1658-1.6562-0.375-0.20909-0.2092-0.40625-0.67874-0.40625-1.6875v-20.875c0-1.0092,0.19711-1.4784,0.40625-1.6875,0.20914-0.20914,0.64804-0.375,1.6562-0.375z"/>
<path id="path141" style="baseline-shift:baseline;block-progression:tb;color:#000000;direction:ltr;text-indent:0;text-align:start;enable-background:accumulate;text-transform:none;" fill="#f4f4f4" d="m552.66,98.344c-1.2468,0-2.3349,0.21047-3.0938,0.96875-0.75887,0.75828-0.96875,1.8462-0.96875,3.0938v20.875c0,1.2469,0.21008,2.3353,0.96875,3.0938,0.75867,0.75848,1.8464,0.96875,3.0938,0.96875h20.75c1.2472,0,2.335-0.21034,3.0938-0.96875s0.96875-1.8464,0.96875-3.0938v-20.875c0-1.2468-0.21014-2.3351-0.96875-3.0938-0.75861-0.75861-1.8459-0.96875-3.0938-0.96875h-20.75zm0,2,20.75,0c1.0092,0,1.4784,0.16586,1.6875,0.375,0.20914,0.20914,0.375,0.67929,0.375,1.6875v20.875c0,1.0086-0.1658,1.4784-0.375,1.6875-0.2092,0.20909-0.67874,0.375-1.6875,0.375h-20.75c-1.0086,0-1.4782-0.16573-1.6875-0.375-0.20933-0.20927-0.375-0.67944-0.375-1.6875v-20.875c0-1.0085,0.16562-1.4783,0.375-1.6875,0.20938-0.20922,0.67929-0.375,1.6875-0.375z"/>
<path id="path143" style="baseline-shift:baseline;block-progression:tb;color:#000000;direction:ltr;text-indent:0;text-align:start;enable-background:accumulate;text-transform:none;" fill="#f4f4f4" d="m552.75,129.16c-1.2474,0-2.3351,0.21009-3.0938,0.96875-0.75866,0.75866-0.96875,1.8464-0.96875,3.0938v20.875c0,1.2472,0.21015,2.335,0.96875,3.0938,0.7586,0.75879,1.8459,0.96875,3.0938,0.96875h20.75c1.2472,0,2.335-0.21015,3.0938-0.96875,0.75879-0.7586,0.96875-1.8459,0.96875-3.0938v-20.875c0-1.2468-0.21028-2.3349-0.96875-3.0938-0.75847-0.75886-1.8458-0.96875-3.0938-0.96875h-20.75zm0,2,20.75,0c1.009,0,1.4782,0.16561,1.6875,0.375,0.20928,0.20939,0.375,0.67929,0.375,1.6875v20.875c0,1.0092-0.16579,1.4784-0.375,1.6875-0.20921,0.20915-0.67874,0.375-1.6875,0.375h-20.75c-1.0092,0-1.4784-0.16579-1.6875-0.375-0.20915-0.20921-0.375-0.67874-0.375-1.6875v-20.875c0-1.0086,0.16566-1.4782,0.375-1.6875,0.20934-0.20934,0.67889-0.375,1.6875-0.375z"/>
<path id="path145" style="baseline-shift:baseline;block-progression:tb;color:#000000;direction:ltr;text-indent:0;text-align:start;enable-background:accumulate;text-transform:none;" fill="#f4f4f4" d="m552.75,159.97c-1.2472,0-2.335,0.21015-3.0938,0.96875-0.75879,0.7586-0.96875,1.8459-0.96875,3.0938v20.875c0,1.2472,0.21015,2.335,0.96875,3.0938,0.7586,0.75879,1.8459,0.96875,3.0938,0.96875h20.75c1.2472,0,2.335-0.21015,3.0938-0.96875,0.75879-0.7586,0.96875-1.8459,0.96875-3.0938v-20.875c0-1.2472-0.21015-2.335-0.96875-3.0938-0.7586-0.75879-1.8459-0.96875-3.0938-0.96875h-20.75zm0,2,20.75,0c1.0092,0,1.4784,0.16579,1.6875,0.375,0.20915,0.20921,0.375,0.67874,0.375,1.6875v20.875c0,1.0092-0.16579,1.4784-0.375,1.6875-0.20921,0.20915-0.67874,0.375-1.6875,0.375h-20.75c-1.0092,0-1.4784-0.16579-1.6875-0.375-0.20915-0.20921-0.375-0.67874-0.375-1.6875v-20.875c0-1.0092,0.16579-1.4784,0.375-1.6875,0.20921-0.20915,0.67874-0.375,1.6875-0.375z"/>
<path id="path147" style="baseline-shift:baseline;block-progression:tb;color:#000000;direction:ltr;text-indent:0;text-align:start;enable-background:accumulate;text-transform:none;" fill="#f4f4f4" d="m552.75,190.78c-1.2472,0-2.335,0.21015-3.0938,0.96875-0.75879,0.7586-0.96875,1.8459-0.96875,3.0938v20.875c0,1.2472,0.21015,2.335,0.96875,3.0938,0.7586,0.75879,1.8459,0.96875,3.0938,0.96875h20.75c1.2472,0,2.335-0.21015,3.0938-0.96875,0.75879-0.7586,0.96875-1.8459,0.96875-3.0938v-20.875c0-1.2472-0.21015-2.335-0.96875-3.0938-0.7586-0.75879-1.8459-0.96875-3.0938-0.96875h-20.75zm0,2,20.75,0c1.0092,0,1.4784,0.16579,1.6875,0.375,0.20915,0.20921,0.375,0.67874,0.375,1.6875v20.875c0,1.0092-0.16579,1.4784-0.375,1.6875-0.20921,0.20915-0.67874,0.375-1.6875,0.375h-20.75c-1.0092,0-1.4784-0.16579-1.6875-0.375-0.20915-0.20921-0.375-0.67874-0.375-1.6875v-20.875c0-1.0092,0.16579-1.4784,0.375-1.6875,0.20921-0.20915,0.67874-0.375,1.6875-0.375z"/>
<path id="path149" style="baseline-shift:baseline;block-progression:tb;color:#000000;direction:ltr;text-indent:0;text-align:start;enable-background:accumulate;text-transform:none;" fill="#f4f4f4" d="m583.56,98.344c-1.2477,0-2.3348,0.21035-3.0938,0.96875-0.75899,0.7584-1,1.8464-1,3.0938v20.875c0,1.2468,0.24121,2.3352,1,3.0938s1.8455,0.96875,3.0938,0.96875h20.75c1.2472,0,2.335-0.21034,3.0938-0.96875s0.96875-1.8464,0.96875-3.0938v-20.875c0-1.2468-0.21014-2.3351-0.96875-3.0938-0.75861-0.75861-1.8459-0.96875-3.0938-0.96875h-20.75zm0,2,20.75,0c1.0092,0,1.4784,0.16586,1.6875,0.375,0.20914,0.20914,0.375,0.67929,0.375,1.6875v20.875c0,1.0086-0.1658,1.4784-0.375,1.6875-0.2092,0.20909-0.67874,0.375-1.6875,0.375h-20.75c-1.0097,0-1.4783-0.16585-1.6875-0.375-0.20921-0.20915-0.40625-0.67929-0.40625-1.6875v-20.875c0-1.0086,0.19699-1.4784,0.40625-1.6875s0.67818-0.375,1.6875-0.375z"/>
<path id="path151" style="baseline-shift:baseline;block-progression:tb;color:#000000;direction:ltr;text-indent:0;text-align:start;enable-background:accumulate;text-transform:none;" fill="#f4f4f4" d="m583.56,129.16c-1.2478,0-2.3349,0.2101-3.0938,0.96875-0.75885,0.75865-1,1.8464-1,3.0938v20.875c0,1.2472,0.24122,2.335,1,3.0938,0.75878,0.75878,1.8455,0.96875,3.0938,0.96875h20.75c1.2472,0,2.335-0.21015,3.0938-0.96875,0.75879-0.7586,0.96875-1.8459,0.96875-3.0938v-20.875c0-1.2468-0.21028-2.3349-0.96875-3.0938-0.75847-0.75886-1.8458-0.96875-3.0938-0.96875h-20.75zm0,2,20.75,0c1.009,0,1.4782,0.16561,1.6875,0.375,0.20928,0.20939,0.375,0.67929,0.375,1.6875v20.875c0,1.0092-0.16579,1.4784-0.375,1.6875-0.20921,0.20915-0.67874,0.375-1.6875,0.375h-20.75c-1.0097,0-1.4783-0.16578-1.6875-0.375-0.20922-0.20922-0.40625-0.67874-0.40625-1.6875v-20.875c0-1.0086,0.19685-1.4782,0.40625-1.6875,0.2094-0.20935,0.67833-0.375,1.6875-0.375z"/>
<path id="path153" style="baseline-shift:baseline;block-progression:tb;color:#000000;direction:ltr;text-indent:0;text-align:start;enable-background:accumulate;text-transform:none;" fill="#f4f4f4" d="m583.56,159.97c-1.2477,0-2.3348,0.21016-3.0938,0.96875-0.75898,0.75859-1,1.8459-1,3.0938v20.875c0,1.2472,0.24122,2.335,1,3.0938,0.75878,0.75878,1.8455,0.96875,3.0938,0.96875h20.75c1.2472,0,2.335-0.21015,3.0938-0.96875,0.75879-0.7586,0.96875-1.8459,0.96875-3.0938v-20.875c0-1.2472-0.21015-2.335-0.96875-3.0938-0.7586-0.75879-1.8459-0.96875-3.0938-0.96875h-20.75zm0,2,20.75,0c1.0092,0,1.4784,0.16579,1.6875,0.375,0.20915,0.20921,0.375,0.67874,0.375,1.6875v20.875c0,1.0092-0.16579,1.4784-0.375,1.6875-0.20921,0.20915-0.67874,0.375-1.6875,0.375h-20.75c-1.0097,0-1.4783-0.16578-1.6875-0.375-0.20922-0.20922-0.40625-0.67874-0.40625-1.6875v-20.875c0-1.0092,0.19698-1.4783,0.40625-1.6875,0.20927-0.20916,0.67818-0.375,1.6875-0.375z"/>
<path id="path155" style="baseline-shift:baseline;block-progression:tb;color:#000000;direction:ltr;text-indent:0;text-align:start;enable-background:accumulate;text-transform:none;" fill="#f4f4f4" d="m583.56,190.78c-1.2477,0-2.3348,0.21016-3.0938,0.96875-0.75898,0.75859-1,1.8459-1,3.0938v20.875c0,1.2472,0.24122,2.335,1,3.0938,0.75878,0.75878,1.8455,0.96875,3.0938,0.96875h20.75c1.2472,0,2.335-0.21015,3.0938-0.96875,0.75879-0.7586,0.96875-1.8459,0.96875-3.0938v-20.875c0-1.2472-0.21015-2.335-0.96875-3.0938-0.7586-0.75879-1.8459-0.96875-3.0938-0.96875h-20.75zm0,2,20.75,0c1.0092,0,1.4784,0.16579,1.6875,0.375,0.20915,0.20921,0.375,0.67874,0.375,1.6875v20.875c0,1.0092-0.16579,1.4784-0.375,1.6875-0.20921,0.20915-0.67874,0.375-1.6875,0.375h-20.75c-1.0097,0-1.4783-0.16578-1.6875-0.375-0.20922-0.20922-0.40625-0.67874-0.40625-1.6875v-20.875c0-1.0092,0.19698-1.4783,0.40625-1.6875,0.20927-0.20916,0.67818-0.375,1.6875-0.375z"/>
<path id="path157" style="baseline-shift:baseline;block-progression:tb;color:#000000;direction:ltr;text-indent:0;text-align:start;enable-background:accumulate;text-transform:none;" fill="#f4f4f4" d="m582.94,29.844c-1.2474,0-2.3351,0.21009-3.0938,0.96875-0.75866,0.75866-0.96875,1.8464-0.96875,3.0938v20.875c0,1.2472,0.21015,2.335,0.96875,3.0938,0.7586,0.75879,1.8459,0.96875,3.0938,0.96875h20.75c1.2472,0,2.335-0.21015,3.0938-0.96875,0.75879-0.7586,0.96875-1.8459,0.96875-3.0938v-20.875c0-1.2472-0.21015-2.335-0.96875-3.0938-0.7586-0.75879-1.8459-0.96875-3.0938-0.96875h-20.75zm0,2,20.75,0c1.0092,0,1.4784,0.19704,1.6875,0.40625,0.20915,0.20921,0.375,0.64749,0.375,1.6562v20.875c0,1.0092-0.16579,1.4783-0.375,1.6875-0.20921,0.20915-0.67874,0.375-1.6875,0.375h-20.75c-1.0092,0-1.4784-0.16579-1.6875-0.375-0.20915-0.20921-0.375-0.67874-0.375-1.6875v-20.875c0-1.0086,0.16566-1.4469,0.375-1.6562,0.20934-0.20934,0.67889-0.40625,1.6875-0.40625z"/>
<path id="path159" style="baseline-shift:baseline;block-progression:tb;color:#000000;direction:ltr;text-indent:0;text-align:start;enable-background:accumulate;text-transform:none;" fill="#f4f4f4" d="m4.5938,65.188c-1.2478,0-2.3352,0.24121-3.0938,1s-0.96875,1.8153-0.96875,3.0625v118.28c0,1.2478,0.20996,2.3039,0.96875,3.0625s1.8465,1,3.0938,1h94.625c0.49358,0,0.68778,0.0884,0.65625,0.0625s0.0625,0.007,0.0625,0.625v26.094c0,1.2478,0.20996,2.3352,0.96875,3.0938s1.8465,0.96875,3.0938,0.96875h308.12c1.2478,0,2.3352-0.20996,3.0938-0.96875s0.96875-1.8465,0.96875-3.0938v-25.812c0-0.51159,0.10575-0.68159,0.21875-0.78125,0.113-0.0997,0.35413-0.1875,0.84375-0.1875h66.719c1.2478,0,2.3039-0.24121,3.0625-1s1-1.8153,1-3.0625v-118.28c0-1.2474-0.24134-2.3038-1-3.0625-0.75866-0.75866-1.8151-1-3.0625-1h-479.38zm0,2,479.38,0c1.0086,0,1.4469,0.19691,1.6562,0.40625,0.20934,0.20934,0.40625,0.64764,0.40625,1.6562v118.28c0,1.0088-0.1971,1.447-0.40625,1.6562-0.20915,0.20921-0.64708,0.40625-1.6562,0.40625h-66.719c-0.78638,0-1.5492,0.15216-2.1562,0.6875s-0.90625,1.3888-0.90625,2.2812v25.812c0,1.0088-0.1971,1.4783-0.40625,1.6875-0.20915,0.20921-0.64708,0.375-1.6562,0.375h-308.12c-1.0088,0-1.4783-0.16585-1.6875-0.375-0.20921-0.20915-0.375-0.67833-0.375-1.6875v-26.094c0-0.88564-0.20272-1.6861-0.8125-2.1875-0.60978-0.50143-1.2928-0.5-1.9062-0.5h-94.625c-1.0088,0-1.4783-0.1971-1.6875-0.40625-0.20921-0.20915-0.375-0.64708-0.375-1.6562v-118.28c0-1.0088,0.16585-1.447,0.375-1.6562,0.20915-0.20921,0.67833-0.40625,1.6875-0.40625z"/>
</svg>
