<?xml version="1.0" encoding="UTF-8" standalone="no"?>
<!-- Generator: Adobe Illustrator 13.0.0, SVG Export Plug-In . SVG Version: 6.00 Build 14948)  -->
<svg id="Layer_3" xmlns:rdf="http://www.w3.org/1999/02/22-rdf-syntax-ns#" xmlns="http://www.w3.org/2000/svg" xml:space="preserve" height="262.13px" viewBox="0 0 607.905 262.13" width="607.9px" version="1.2" y="0px" x="0px" xmlns:cc="http://creativecommons.org/ns#" xmlns:dc="http://purl.org/dc/elements/1.1/"><metadata id="metadata51"><rdf:RDF><cc:Work rdf:about=""><dc:format>image/svg+xml</dc:format><dc:type rdf:resource="http://purl.org/dc/dcmitype/StillImage"/><dc:title/></cc:Work></rdf:RDF></metadata>
<path id="path3" style="baseline-shift:baseline;block-progression:tb;color:#000000;direction:ltr;text-indent:0;text-align:start;enable-background:accumulate;text-transform:none;" fill="#f4f4f4" d="m130.16,0c-22.921,0-44.483,4.9189-63.188,15.438-0.0081,0.0045-0.02318-0.0045-0.03125,0v0.03125c-1.021,0.563-1.579,1.554-1.691,2.531-0.11346,0.99058,0,2.0143,0,3.3438h2c0-1.4376-0.10154-2.5113-0.03125-3.125,0.07029-0.61367,0.09879-0.71617,0.6875-1.0312h0.03125c18.369-10.336,39.573-15.188,62.223-15.188h65.09c1.4128,0,2.988,0.17922,4.0625,0.65625,1.0745,0.47702,1.625,1.0271,1.625,2.3438h2c0-2.0543-1.2803-3.5073-2.8125-4.1875-1.54-0.68022-3.33-0.8125-4.88-0.8125h-65.094z"/>
<path id="path5" style="baseline-shift:baseline;block-progression:tb;color:#000000;direction:ltr;text-indent:0;text-align:start;enable-background:accumulate;text-transform:none;" fill="#f4f4f4" d="M129.09,3.9688c-71.278,0-129.09,57.782-129.09,129.06,0,71.28,57.812,129.09,129.09,129.09,28.138,0,54.164-8.9942,75.375-24.281l0.0312-0.0312,2.6562-2.0312v-0.0312h0.0312c4.2708-3.4101,9.6673-5.4375,15.562-5.4375h47.625,67.156,47.625c5.8952,0,11.292,2.0274,15.562,5.4375h0.0312v0.0312l2.6562,2.0312,0.0312,0.0312c21.211,15.286,47.237,24.281,75.375,24.281,71.28,0,129.09-57.812,129.09-129.09,0-71.28-57.813-129.06-129.09-129.06h-140.31-25.969-1v1,1.3125h-14.875v-1.3125-1h-1-26.25-140.31zm0,2,140.31,0,25.25,0,0,1.3125,0,1,1,0,16.875,0,1,0,0-1,0-1.3125,24.969,0,140.31,0c70.2,0,127.09,56.863,127.09,127.06,0,70.201-56.894,127.09-127.09,127.09-27.702,0-53.308-8.8655-74.188-23.906h-0.0312l-2.625-2.0312c-4.6112-3.6819-10.456-5.875-16.812-5.875h-47.625-67.156-47.625c-6.3568,0-12.201,2.1931-16.812,5.875l-2.625,2.0312h-0.0312c-20.87,15.05-46.47,23.91-74.18,23.91-70.197,0-127.09-56.89-127.09-127.09,0-70.198,56.893-127.06,127.09-127.06z"/>
<path id="path7" style="baseline-shift:baseline;block-progression:tb;color:#000000;direction:ltr;text-indent:0;text-align:start;enable-background:accumulate;text-transform:none;" fill="#f4f4f4" d="m412.66,0c-1.5537,0-3.3431,0.13223-4.875,0.8125s-2.8125,2.1333-2.8125,4.1875h2c0-1.3168,0.55089-1.8668,1.625-2.3438,1.07-0.4769,2.64-0.6562,4.06-0.6562h65.09c22.645,0,43.85,4.8515,62.219,15.188h0.0312c0.58871,0.31508,0.61721,0.41758,0.6875,1.0312,0.0703,0.61367-0.0312,1.6874-0.0312,3.125h2c0-1.3294,0.11346-2.3532,0-3.3438-0.11195-0.9774-0.66961-1.9677-1.6875-2.5312-0.007-0.0037,0.007-0.02764,0-0.03125-0.008-0.0045-0.0232,0.0045-0.0312,0-18.71-10.519-40.27-15.438-63.19-15.438h-65.094z"/>
<path id="circle9" style="baseline-shift:baseline;block-progression:tb;color:#000000;direction:ltr;text-indent:0;text-align:start;enable-background:accumulate;text-transform:none;" fill="#f4f4f4" d="m129.72,63.312c-38.269,0-69.312,31.044-69.312,69.312,0,38.269,31.044,69.312,69.312,69.312,38.269,0,69.344-31.044,69.344-69.312,0-38.269-31.075-69.312-69.344-69.312zm0,2c37.188,0,67.344,30.125,67.344,67.312,0,37.188-30.156,67.312-67.344,67.312s-67.312-30.125-67.312-67.312c0-37.188,30.125-67.312,67.312-67.312z"/>
<path id="path11" style="baseline-shift:baseline;block-progression:tb;color:#000000;direction:ltr;text-indent:0;text-align:start;enable-background:accumulate;text-transform:none;" fill="#f4f4f4" d="m118.12,81.469c-3.2214,0-5.8438,2.6224-5.8438,5.8438v27.25c0,0.53199-0.0773,0.68273,0,0.59375,0.0773-0.089,0.00051,0.0312-0.65625,0.0312h-27.188c-3.2213,0-5.875,2.6224-5.875,5.8438v23.188c0,3.2214,2.6537,5.8438,5.875,5.8438h27.094c0.47405,0,0.63031,0.10123,0.65625,0.125,0.0259,0.0238,0.0937,0.11677,0.0937,0.53125v27.219c0,3.2214,2.6224,5.8438,5.8438,5.8438h23.219c3.2214,0,5.8438-2.6224,5.8438-5.8438v-27.312c0-0.30631,0.05-0.36394,0.0937-0.40625,0.0437-0.0423,0.18968-0.15625,0.59375-0.15625h27.156c3.2214,0,5.875-2.6224,5.875-5.8438v-23.188c0-3.2214-2.6536-5.8438-5.875-5.8438h-27.188c-0.33207,0-0.47008-0.0962-0.53125-0.15625-0.0612-0.0601-0.125-0.16071-0.125-0.46875v-27.25c0-3.2213-2.6224-5.8438-5.8438-5.8438h-23.219zm0,2,23.219,0c2.1406,0,3.8438,1.7031,3.8438,3.8438v27.25c0,0.70396,0.21817,1.4148,0.71875,1.9062,0.50058,0.49144,1.2246,0.71875,1.9375,0.71875h27.188c2.1406,0,3.875,1.7031,3.875,3.8438v23.188c0,2.1406-1.7344,3.8438-3.875,3.8438h-27.156c-0.74293,0-1.4587,0.22531-1.9688,0.71875-0.51002,0.49344-0.71875,1.1731-0.71875,1.8438v27.312c0,2.1406-1.7031,3.8438-3.8438,3.8438h-23.219c-2.1406,0-3.8438-1.7031-3.8438-3.8438v-27.219c0-0.73152-0.20019-1.4963-0.75-2-0.54981-0.50373-1.261-0.65625-2-0.65625h-27.094c-2.1407,0-3.875-1.7031-3.875-3.8438v-23.188c0-2.1406,1.7343-3.8438,3.875-3.8438h27.188c0.86024,0,1.6292-0.11177,2.1562-0.71875,0.52701-0.60698,0.5-1.2922,0.5-1.9062v-27.25c0-2.1407,1.7031-3.8438,3.8438-3.8438z"/>
<path id="path13" style="baseline-shift:baseline;block-progression:tb;color:#000000;direction:ltr;text-indent:0;text-align:start;enable-background:accumulate;text-transform:none;" fill="#f4f4f4" d="m115.97,78.781c-3.2214,0-5.8438,2.6224-5.8438,5.8438v27.25c0,0.53199-0.0773,0.65148,0,0.5625,0.0773-0.089,0.00051,0.0312-0.65625,0.0312h-27.188c-3.2213,0-5.875,2.6536-5.875,5.875v28.562c0,3.2214,2.6537,5.875,5.875,5.875h27.094c0.47405,0,0.63031,0.10123,0.65625,0.125,0.0259,0.0238,0.0937,0.0855,0.0937,0.5v27.219c0,3.2214,2.6224,5.8438,5.8438,5.8438h27.531c3.2214,0,5.8438-2.6224,5.8438-5.8438v-27.281c0-0.30562,0.05-0.39519,0.0937-0.4375,0.0438-0.0423,0.18946-0.12535,0.59375-0.125h27.156c3.2214,0,5.875-2.6536,5.875-5.875v-28.562c0-3.2214-2.6536-5.875-5.875-5.875h-27.188c-0.33175,0-0.46987-0.0647-0.53125-0.125-0.0614-0.0603-0.125-0.1614-0.125-0.46875v-27.25c0-3.2213-2.6224-5.8438-5.8438-5.8438h-27.531zm0,2,27.531,0c2.1406,0,3.8438,1.7031,3.8438,3.8438v27.25c0,0.70365,0.21838,1.4148,0.71875,1.9062,0.50037,0.49147,1.2242,0.6875,1.9375,0.6875h27.188c2.1406,0,3.875,1.7344,3.875,3.875v28.562c0,2.1406-1.7344,3.875-3.875,3.875h-27.156c-0.74371-0.00065-1.4585,0.19406-1.9688,0.6875-0.51024,0.49344-0.71875,1.2046-0.71875,1.875v27.281c0,2.1406-1.7031,3.8438-3.8438,3.8438h-27.531c-2.1406,0-3.8438-1.7031-3.8438-3.8438v-27.219c0-0.73152-0.20019-1.4963-0.75-2-0.54981-0.50373-1.261-0.625-2-0.625h-27.094c-2.1407,0-3.875-1.7344-3.875-3.875v-28.562c0-2.1406,1.7343-3.875,3.875-3.875h27.188c0.86024,0,1.6292-0.11177,2.1562-0.71875,0.52701-0.60698,0.5-1.261,0.5-1.875v-27.25c0-2.1407,1.7031-3.8438,3.8438-3.8438z"/>
<path id="circle15" style="baseline-shift:baseline;block-progression:tb;color:#000000;direction:ltr;text-indent:0;text-align:start;enable-background:accumulate;text-transform:none;" fill="#f4f4f4" d="m129.72,119.5c-7.2424,0-13.125,5.8826-13.125,13.125s5.8826,13.125,13.125,13.125,13.156-5.8826,13.156-13.125-5.9138-13.125-13.156-13.125zm0,2c6.1615,0,11.156,4.9635,11.156,11.125s-4.9947,11.125-11.156,11.125c-6.1615,0-11.125-4.9635-11.125-11.125s4.9635-11.125,11.125-11.125z"/>
<path id="path17" style="baseline-shift:baseline;block-progression:tb;color:#000000;direction:ltr;text-indent:0;text-align:start;enable-background:accumulate;text-transform:none;" fill="#f4f4f4" d="m129.72,85.781c-1.4633,0-2.7419,0.82758-3.4062,2.0312v0.03125l-0.0312,0.03125-7.5625,15.812c-0.2339,0.5014-0.375,1.0684-0.375,1.6562,0,2.1417,1.7652,3.875,3.9062,3.875h14.969c2.1411,0,3.9062-1.7333,3.9062-3.875,0-0.59415-0.13546-1.1815-0.375-1.6875l-7.625-15.875-0.0312-0.0625-0.0312-0.03125c-0.68218-1.1316-1.9336-1.9062-3.3438-1.9062zm0,2c0.68167,0,1.2889,0.37692,1.625,0.90625l0.0312,0.03125,7.5625,15.812c0.11646,0.246,0.1875,0.51865,0.1875,0.8125,0,1.0623-0.84533,1.875-1.9062,1.875h-14.969c-1.0609,0-1.9062-0.81274-1.9062-1.875,0-0.29018,0.0734-0.5679,0.1875-0.8125l7.5312-15.75,0.0312-0.0625c0.33155-0.5542,0.92461-0.9375,1.625-0.9375z"/>
<path id="path19" style="baseline-shift:baseline;block-progression:tb;color:#000000;direction:ltr;text-indent:0;text-align:start;enable-background:accumulate;text-transform:none;" fill="#f4f4f4" d="m102.44,121.25c-0.59415,0-1.1502,0.13546-1.6562,0.375l-15.906,7.625h-0.03125l-0.0625,0.0312c-1.1314,0.68206-1.875,1.9336-1.875,3.3438,0,1.4633,0.79633,2.7419,2,3.4062l0.03125,0.0312h0.03125l15.812,7.5625v0.0312c0.5014,0.2339,1.0684,0.34375,1.6562,0.34375,2.1407,0,3.9062-1.7333,3.9062-3.875v-14.969c0-2.1411-1.7648-3.9062-3.9062-3.9062zm0,2c1.0605,0,1.9062,0.84533,1.9062,1.9062v14.969c0,1.0623-0.84491,1.875-1.9062,1.875-0.27941,0-0.54382-0.05-0.78125-0.15625h-0.0312l-15.75-7.5625c-0.007-0.004-0.02433,0.004-0.03125,0-0.5749-0.32663-0.9375-0.94016-0.9375-1.6562,0-0.66733,0.33525-1.2229,0.84375-1.5625l15.875-7.625c0.246-0.11646,0.51865-0.1875,0.8125-0.1875z"/>
<path id="path21" style="baseline-shift:baseline;block-progression:tb;color:#000000;direction:ltr;text-indent:0;text-align:start;enable-background:accumulate;text-transform:none;" fill="#f4f4f4" d="m122.25,156.03c-2.1411,0-3.9062,1.7641-3.9062,3.9062,0,0.59265,0.13385,1.1484,0.375,1.6562l7.625,15.906,0.0312,0.0312,0.0312,0.0312c0.68287,1.1292,1.9024,1.9062,3.3125,1.9062,1.4633,0,2.7738-0.82631,3.4375-2.0312v-0.0312h0.0312l7.5625-15.812v-0.0312c0.2339-0.5014,0.375-1.0372,0.375-1.625,0-2.1411-1.7648-3.9062-3.9062-3.9062h-14.969zm0,2,14.969,0c1.0605,0,1.9062,0.84533,1.9062,1.9062,0,0.29018-0.0734,0.53665-0.1875,0.78125l-7.5312,15.75c-0.0108,0.0196-0.0198,0.0433-0.0312,0.0625-0.33038,0.55308-0.95586,0.9375-1.6562,0.9375-0.65824,0-1.2205-0.3442-1.5625-0.84375l-0.0312-0.0625c-0.008-0.0123-0.0237-0.0187-0.0312-0.0312l-7.57-15.79c-0.004-0.009,0.004-0.0222,0-0.0312-0.10888-0.23884-0.1875-0.49668-0.1875-0.78125,0-1.0618,0.84533-1.9062,1.9062-1.9062z"/>
<path id="path23" style="baseline-shift:baseline;block-progression:tb;color:#000000;direction:ltr;text-indent:0;text-align:start;enable-background:accumulate;text-transform:none;" fill="#f4f4f4" d="m157.03,121.25c-2.1411,0-3.9062,1.7641-3.9062,3.9062v14.969c0,2.1415,1.7652,3.875,3.9062,3.875,0.59265,0,1.1489-0.13484,1.6562-0.375l15.906-7.625h0.0312l0.0625-0.0312c1.1316-0.68218,1.875-1.9336,1.875-3.3438,0-1.4633-0.79506-2.7425-2-3.4062l-0.0312-0.0312h-0.0312l-15.812-7.5625c-0.50249-0.23575-1.0684-0.375-1.6562-0.375zm0,2c0.27958,0,0.54474,0.081,0.78125,0.1875,0.009,0.004,0.0224-0.004,0.0312,0l15.75,7.5312,0.0312,0.0312c0.56336,0.32795,0.9375,0.91676,0.9375,1.625,0,0.67297-0.32566,1.2557-0.84375,1.5938-0.0192,0.0125-0.0428,0.0194-0.0625,0.0312l-15.812,7.5938c-0.25,0.13-0.52,0.17-0.82,0.17-1.0609,0-1.9062-0.8145-1.9062-1.875v-14.969c0-1.0618,0.84533-1.9062,1.9062-1.9062z"/>
<path id="path25" style="baseline-shift:baseline;block-progression:tb;color:#000000;direction:ltr;text-indent:0;text-align:start;enable-background:accumulate;text-transform:none;" fill="#f4f4f4" d="m262.53,130.72c-2.3422-0.20627-4.7802,0.50103-6.7188,2.125l-26.156,21.938c-3.8764,3.2483-4.4055,9.0612-1.1562,12.938,3.2492,3.8762,9.0613,4.3731,12.938,1.125l26.188-21.938c3.8762-3.2492,4.373-9.0614,1.125-12.938-1.6241-1.9382-3.8765-3.0437-6.2188-3.25zm-0.1875,2c1.8283,0.16098,3.5981,1.0074,4.875,2.5312,2.554,3.0479,2.1728,7.5702-0.875,10.125l-26.188,21.938c-3.0478,2.5539-7.5702,2.1728-10.125-0.875s-2.1413-7.5713,0.90625-10.125l26.19-21.94c1.5244-1.277,3.3905-1.8172,5.2188-1.6562z"/>
<path id="path27" style="baseline-shift:baseline;block-progression:tb;color:#000000;direction:ltr;text-indent:0;text-align:start;enable-background:accumulate;text-transform:none;" fill="#f4f4f4" d="m260.25,125.81c-2.707,0.27997-5.3557,1.3429-7.5938,3.2188l-26.19,21.97c-5.9692,5.0032-6.752,13.906-1.75,19.875,5.0032,5.9692,13.937,6.7531,19.906,1.75l26.188-21.938c5.9681-5.0032,6.7532-13.906,1.75-19.875-3.1264-3.7308-7.8009-5.4666-12.312-5zm2.5312,1.9688c3.0886,0.27187,6.0961,1.7422,8.25,4.3125,4.3088,5.1408,3.6086,12.754-1.5312,17.062l-26.156,21.938c-5.1409,4.3089-12.785,3.6408-17.094-1.5-4.308-5.1408-3.6408-12.754,1.5-17.062l26.188-21.938c2.5699-2.1539,5.7552-3.0844,8.8438-2.8125z"/>
<path id="path29" style="baseline-shift:baseline;block-progression:tb;color:#000000;direction:ltr;text-indent:0;text-align:start;enable-background:accumulate;text-transform:none;" fill="#f4f4f4" d="m327.97,130.72c-2.342-0.20626-4.7494,0.50098-6.6875,2.125l-26.188,21.938c-3.869,3.2421-4.3852,9.03-1.1562,12.906v0.0312c3.2492,3.8763,9.0621,4.3733,12.938,1.125l26.188-21.938c3.8762-3.2492,4.3731-9.0613,1.125-12.938-1.6246-1.938-3.8768-3.0437-6.2188-3.25zm-0.1875,2c1.828,0.16099,3.5976,1.0073,4.875,2.5312,2.5539,3.0478,2.1728,7.5702-0.875,10.125l-26.188,21.938c-3.0466,2.5537-7.5702,2.1727-10.125-0.875-2.5547-3.0477-2.1414-7.5712,0.90625-10.125l26.188-21.938c1.5239-1.277,3.3908-1.8172,5.2188-1.6562z"/>
<path id="path31" style="baseline-shift:baseline;block-progression:tb;color:#000000;direction:ltr;text-indent:0;text-align:start;enable-background:accumulate;text-transform:none;" fill="#f4f4f4" d="m325.69,125.81c-2.707,0.27997-5.3557,1.3429-7.5938,3.2188l-26.19,21.97c-5.9692,5.0031-6.7532,13.906-1.75,19.875,5.0022,5.9693,13.937,6.7531,19.906,1.75l26.18-21.94c5.9692-5.0031,6.7532-13.906,1.75-19.875-3.1264-3.7308-7.8009-5.4666-12.312-5zm2.5312,1.9688c3.0886,0.27187,6.0961,1.7422,8.25,4.3125,4.3088,5.1408,3.6096,12.754-1.5312,17.062l-26.156,21.938c-5.1409,4.3089-12.786,3.6407-17.094-1.5-4.3088-5.1408-3.6408-12.754,1.5-17.062l26.188-21.938c2.5699-2.1539,5.7552-3.0844,8.8438-2.8125z"/>
<path id="path33" style="baseline-shift:baseline;block-progression:tb;color:#000000;direction:ltr;text-indent:0;text-align:start;enable-background:accumulate;text-transform:none;" fill="#f4f4f4" d="m479.38,17.969c-63.388,0-114.81,51.424-114.81,114.81,0,63.389,51.424,114.78,114.81,114.78,35.988,0,68.109-16.547,89.156-42.469l0.0937-0.125,0.0625-0.125,0.21875-0.53125,0.5-1.1875-1.2812-0.1875c-0.71889-0.0984-1.2812-0.68243-1.2812-1.4375,0-0.82483,0.64301-1.4688,1.4688-1.4688,0.68831,0,1.2686,0.44464,1.4375,1.0625l0.59375,2.2188,1.2188-1.9375,0.5625-0.9375,0.0312-0.0625c13.839-18.963,22-42.326,22-67.594,0-63.388-51.392-114.81-114.78-114.81zm0,2c62.309,0,112.78,50.505,112.78,112.81,0,24.771-7.9983,47.643-21.531,66.25-0.62356-0.58753-1.3946-1-2.3125-1-1.9063,0-3.4688,1.5636-3.4688,3.4688,0,1.2304,0.77359,2.1331,1.75,2.75-20.688,25.207-52.059,41.312-87.219,41.312-62.308,0-112.81-50.473-112.81-112.78,0-62.308,50.505-112.81,112.81-112.81z"/>
<path id="circle35" style="baseline-shift:baseline;block-progression:tb;color:#000000;direction:ltr;text-indent:0;text-align:start;enable-background:accumulate;text-transform:none;" fill="#f4f4f4" d="m420.94,110.03c-13.05,0-23.656,10.606-23.656,23.656s10.606,23.656,23.656,23.656,23.656-10.606,23.656-23.656-10.606-23.656-23.656-23.656zm0,2c11.969,0,21.656,9.6869,21.656,21.656s-9.6869,21.656-21.656,21.656-21.656-9.6869-21.656-21.656,9.6869-21.656,21.656-21.656z"/>
<path id="circle37" style="baseline-shift:baseline;block-progression:tb;color:#000000;direction:ltr;text-indent:0;text-align:start;enable-background:accumulate;text-transform:none;" fill="#f4f4f4" d="m478.38,65.281c-13.05,0-23.625,10.606-23.625,23.656s10.575,23.656,23.625,23.656,23.656-10.606,23.656-23.656-10.606-23.656-23.656-23.656zm0,2c11.969,0,21.656,9.6869,21.656,21.656s-9.6869,21.656-21.656,21.656-21.625-9.6869-21.625-21.656,9.6556-21.656,21.625-21.656z"/>
<path id="path39" style="baseline-shift:baseline;block-progression:tb;color:#000000;direction:ltr;text-indent:0;text-align:start;enable-background:accumulate;text-transform:none;" fill="#f4f4f4" d="M476.38,58.781c-5.74,0.387-11.41,2.422-16.29,6.219l-57.438,44.75c-12.998,10.124-15.342,28.908-5.2188,41.906s28.908,15.312,41.906,5.1875l57.44-44.73c13-10.12,15.34-28.903,5.22-41.901-6.33-8.124-16.06-12.083-25.62-11.438zm0.15625,1.9688c8.9196-0.60491,17.964,3.0966,23.875,10.688,9.4599,12.146,7.2716,29.634-4.875,39.094l-57.438,44.75c-12.146,9.4599-29.635,7.2706-39.094-4.875-9.4589-12.146-7.2707-29.634,4.875-39.094l57.438-44.719c4.555-3.5475,9.867-5.4808,15.219-5.8438z"/>
<path id="circle41" style="baseline-shift:baseline;block-progression:tb;color:#000000;direction:ltr;text-indent:0;text-align:start;enable-background:accumulate;text-transform:none;" fill="#f4f4f4" d="m480.28,153.72c-13.05,0-23.656,10.606-23.656,23.656s10.606,23.625,23.656,23.625,23.625-10.575,23.625-23.625-10.575-23.656-23.625-23.656zm0,2c11.969,0,21.625,9.6869,21.625,21.656s-9.6556,21.625-21.625,21.625-21.656-9.6556-21.656-21.625,9.6869-21.656,21.656-21.656z"/>
<path id="circle43" style="baseline-shift:baseline;block-progression:tb;color:#000000;direction:ltr;text-indent:0;text-align:start;enable-background:accumulate;text-transform:none;" fill="#f4f4f4" d="m537.72,108.97c-13.05,0-23.656,10.606-23.656,23.656s10.606,23.656,23.656,23.656,23.656-10.606,23.656-23.656-10.606-23.656-23.656-23.656zm0,2c11.969,0,21.656,9.6869,21.656,21.656s-9.6869,21.656-21.656,21.656-21.656-9.6869-21.656-21.656,9.6869-21.656,21.656-21.656z"/>
<path id="path45" style="baseline-shift:baseline;block-progression:tb;color:#000000;direction:ltr;text-indent:0;text-align:start;enable-background:accumulate;text-transform:none;" fill="#f4f4f4" d="m535.72,102.47c-5.7381,0.38726-11.438,2.4222-16.312,6.2188l-57.438,44.75c-12.998,10.124-15.342,28.907-5.2188,41.906,10.123,12.997,28.908,15.311,41.906,5.1875l57.438-44.719c12.998-10.124,15.343-28.908,5.2188-41.906-6.3263-8.124-16.03-12.083-25.594-11.438zm0.125,1.9688c8.9191-0.6052,17.964,3.0966,23.875,10.688,9.4599,12.146,7.3019,29.634-4.8438,39.094l-57.438,44.75c-12.146,9.4589-29.635,7.2696-39.094-4.875-9.459-12.147-7.3019-29.634,4.8438-39.094l57.469-44.719c4.5546-3.5475,9.8361-5.4806,15.188-5.8438z"/>
</svg>
