<?xml version="1.0" encoding="UTF-8" standalone="no"?>
<!-- Generator: Adobe Illustrator 13.0.0, SVG Export Plug-In . SVG Version: 6.00 Build 14948)  -->
<svg id="Layer_3" xmlns:rdf="http://www.w3.org/1999/02/22-rdf-syntax-ns#" xmlns="http://www.w3.org/2000/svg" xml:space="preserve" height="327.55px" viewBox="0 0 588.264 327.553" width="588.26px" version="1.2" y="0px" x="0px" xmlns:cc="http://creativecommons.org/ns#" xmlns:dc="http://purl.org/dc/elements/1.1/"><metadata id="metadata49"><rdf:RDF><cc:Work rdf:about=""><dc:format>image/svg+xml</dc:format><dc:type rdf:resource="http://purl.org/dc/dcmitype/StillImage"/><dc:title/></cc:Work></rdf:RDF></metadata>
<path id="path3" style="baseline-shift:baseline;block-progression:tb;color:#000000;direction:ltr;text-indent:0;text-align:start;enable-background:accumulate;text-transform:none;" fill="#f4f4f4" d="m175.59,1.5938c-17.037,0.78889-61.161,4.4549-89.406,44.125l1.625,1.1562c27.711-38.916,70.961-42.498,87.881-43.281l-0.0937-2z"/>
<path id="path5" style="baseline-shift:baseline;block-progression:tb;color:#000000;direction:ltr;text-indent:0;text-align:start;enable-background:accumulate;text-transform:none;" fill="#f4f4f4" d="m289.28,27.219c-44.134,0-91.349,3.1591-132.38,13.031-41.026,9.8722-75.902,26.427-95.219,53.375-20.514,28.619-31.714,57.877-32.281,84.875-0.56762,26.998,9.5356,51.732,31.469,71.125,22.496,19.891,40.432,27.78,54.781,32.375,14.349,4.5954,24.973,5.9455,33.188,12.562l1.28-1.56c-8.76-7.06-19.69-8.37-33.87-12.91s-31.733-12.25-54.031-31.97c-21.531-19.03-31.369-43.11-30.813-69.59,0.557-26.47,11.568-55.34,31.906-83.718,18.877-26.334,53.278-42.78,94.068-52.593,40.781-9.8133,87.868-13,131.91-13h9.6875c44.038,0,91.125,3.1866,131.91,13,40.781,9.8134,75.218,26.26,94.094,52.594,20.339,28.374,31.35,57.244,31.906,83.719,0.55663,26.475-9.2816,50.557-30.812,69.594-22.32,19.72-39.9,27.43-54.08,31.97s-25.08,5.85-33.84,12.91l1.25,1.5625c8.2144-6.617,18.869-7.9671,33.219-12.562,14.349-4.5954,32.254-12.484,54.75-32.375,21.933-19.393,32.068-44.127,31.5-71.125-0.56762-26.998-11.767-56.256-32.281-84.875-19.315-26.947-54.224-43.503-95.25-53.375-41.026-9.8723-88.24-13.031-132.38-13.031h-9.6875z"/>
<path id="path7" style="baseline-shift:baseline;block-progression:tb;color:#000000;direction:ltr;text-indent:0;text-align:start;enable-background:accumulate;text-transform:none;" fill="#f4f4f4" d="m199.53,0.03125c-11.155-0.26675-27.504,1.2529-45.375,6.1875-23.829,6.5795-50.279,19.27-70.25,42.094-39.754,45.43-81.345,122.75-83.722,178.85v0.0312c-2.3595,55.867,17.659,82.524,39.438,94.25,16.199,8.7236,36.669,7.1233,55.656,1.5312,18.987-5.592,36.52-15.222,47-22.844,20.74-15.09,80.07-57.79,139.47-57.79h24.781c59.404,0,118.7,42.697,139.44,57.781,10.48,7.6217,28.013,17.252,47,22.844,18.987,5.5919,39.489,7.1918,55.688-1.5312,21.783-11.729,41.776-38.393,39.406-94.281-2.38-56.09-43.95-133.41-83.69-178.84-19.98-22.823-46.46-35.514-70.29-42.093-23.82-6.5796-44.94-7.106-54.65-5.4063-19.1,3.3429-45.79,15.094-81.88,15.094h-6.875c-36.091,0-62.744-11.752-81.844-15.094-2.4278-0.42494-5.5943-0.69233-9.3125-0.78125zm0,2c3.6307,0.082434,6.6816,0.34969,8.9688,0.75,18.621,3.2581,45.664,15.125,82.188,15.125h6.875c36.523,0,63.597-11.866,82.219-15.125,9.1486-1.6012,30.223-1.1612,53.781,5.3438,23.559,6.505,49.677,19.059,69.312,41.5,39.462,45.102,80.85,122.41,83.188,177.59,2.3484,55.388-17.25,81.063-38.375,92.438-15.485,8.3389-35.414,6.8856-54.125,1.375s-36.14-15.034-46.406-22.5c-20.751-15.092-80.265-58.188-140.62-58.188h-24.781c-60.36,0-119.87,43.096-140.62,58.188-10.267,7.4663-27.696,16.989-46.406,22.5-18.711,5.5107-38.67,6.9644-54.156-1.375-21.131-11.38-40.728-37.05-38.38-92.44,2.3386-55.18,43.756-132.49,83.218-177.6,19.634-22.441,45.724-34.995,69.284-41.5,17.67-4.8787,33.95-6.3411,44.84-6.0938z"/>
<path id="path9" style="baseline-shift:baseline;block-progression:tb;color:#000000;direction:ltr;text-indent:0;text-align:start;enable-background:accumulate;text-transform:none;" fill="#f4f4f4" d="m412.66,1.5938-0.0937,2c16.912,0.78311,60.167,4.3654,87.875,43.281l1.625-1.1562c-28.24-39.67-72.37-43.336-89.4-44.125z"/>
<path id="path11" style="baseline-shift:baseline;block-progression:tb;color:#000000;direction:ltr;text-indent:0;text-align:start;enable-background:accumulate;text-transform:none;" fill="#f4f4f4" d="m260.28,48.906c-2.0824,0-4.7267,0.22317-7.3125,1.5s-5.0805,3.6355-6.8125,7.5938c-3.3847,7.7353-8.0625,24.875-8.0625,24.875l1.9375,0.53125s4.7515-17.272,7.9688-24.625c1.569-3.5858,3.6865-5.4818,5.875-6.5625s4.4807-1.3125,6.4062-1.3125h29,9.6875,29c1.9256,0,4.2493,0.23185,6.4375,1.3125,2.1882,1.0807,4.2747,2.9767,5.8438,6.5625,3.2173,7.3538,7.9688,24.625,7.9688,24.625l1.9375-0.53125s-4.6778-17.139-8.0625-24.875c-1.732-3.9582-4.227-6.3169-6.8125-7.5938-2.5855-1.2768-5.2301-1.5-7.3125-1.5h-29-9.6875-29z"/>
<path id="ellipse13" style="baseline-shift:baseline;block-progression:tb;color:#000000;direction:ltr;text-indent:0;text-align:start;enable-background:accumulate;text-transform:none;" fill="#f4f4f4" d="m193.81,79.418c-32.184-22.614-80.623-8.7523-108.27,30.596s-24.269,89.618,7.9142,112.23c32.184,22.614,80.648,8.7702,108.3-30.578,27.647-39.348,24.244-89.636-7.9398-112.25zm-1.1498,1.6364c31.094,21.848,34.596,70.833,7.4532,109.46-27.143,38.63-74.416,51.939-105.51,30.091-31.085-21.84-34.562-70.81-7.419-109.44,27.139-38.626,74.389-51.953,105.48-30.105z"/>
<path id="circle15" style="baseline-shift:baseline;block-progression:tb;color:#000000;direction:ltr;text-indent:0;text-align:start;enable-background:accumulate;text-transform:none;" fill="#f4f4f4" d="m144.94,90.781c-33.873,0-61.375,27.471-61.375,61.344s27.502,61.375,61.375,61.375,61.344-27.502,61.344-61.375-27.471-61.344-61.344-61.344zm0,2c32.792,0,59.344,26.552,59.344,59.344s-26.552,59.375-59.344,59.375-59.375-26.583-59.375-59.375,26.583-59.344,59.375-59.344z"/>
<path id="path17" style="baseline-shift:baseline;block-progression:tb;color:#000000;direction:ltr;text-indent:0;text-align:start;enable-background:accumulate;text-transform:none;" fill="#f4f4f4" d="m142.59,99.156c-2.1048,0.09026-4.1775,0.3237-6.2188,0.65625-0.0102,0.0017-0.0211-0.0017-0.0312,0v0.03125c-0.61329,0.09094-1.2847,0.36174-1.6875,0.90625-0.4117,0.55656-0.56201,1.2477-0.625,2.0625l-1.3125,16.781c-0.43292,5.6023-2.2137,9.6273-5.1875,12.188-2.9738,2.5602-7.2471,3.7493-12.906,3.3125l-16.422-1.28c-0.82502-0.0637-1.4859-0.096-2.1562,0.15625-0.67032,0.25228-1.1948,0.84622-1.4688,1.5v0.0625,0.0312c-1.3016,3.9671-2.1638,8.1537-2.5,12.5-0.32092,4.1516-0.16903,8.2082,0.4375,12.156v0.0312c0.27048,1.4781,1.6886,2.6918,3.6562,2.8438l16.312,1.25c5.4603,0.42177,9.4593,2.2727,12.031,5.375,2.572,3.1023,3.7597,7.5572,3.3125,13.344l-1.1875,15.5c-0.0763,0.9893-0.0647,1.7714,0.21875,2.4688,0.28347,0.69734,0.88499,1.1863,1.5,1.4688l0.0625,0.0312,0.0312,0.0312c3.935,1.2834,8.0998,2.1054,12.406,2.4375,4.2106,0.32499,8.3426,0.1592,12.344-0.46875h0.0312l0.0312-0.0312c0.68332-0.15044,1.3764-0.52329,1.8438-1.1562,0.46738-0.63296,0.7036-1.4377,0.78125-2.4375l1.1875-15.438c0.43828-5.6725,2.3478-9.9132,5.3438-12.656,2.996-2.7431,7.1382-4.0585,12.344-3.6562l16.688,1.2812c0.91186,0.0704,1.6636,0.089,2.4062-0.25,0.74267-0.33902,1.2403-1.0231,1.5625-1.8438l0.0312-0.0312v-0.0312c1.2222-3.8359,2.0208-7.8772,2.3438-12.062,0.32499-4.2045,0.15718-8.3184-0.46875-12.312v-0.0625l-0.0312-0.0625c-0.15519-0.57396-0.40675-1.188-0.9375-1.6875-0.53075-0.49946-1.2865-0.80542-2.1875-0.875l-17.219-1.3125c-5.1473-0.39754-9.05-2.2532-11.594-5.25-2.5438-2.9968-3.7889-7.2053-3.375-12.562l1.25-16.469c0.06-0.7777,0.16966-1.4079,0-2.125-0.16966-0.71709-0.80899-1.4014-1.5938-1.6875l-0.0312-0.0312c-3.9941-1.3202-8.2141-2.1608-12.594-2.5-2.1634-0.16708-4.291-0.21571-6.4062-0.125zm0.0625,2c2.0355-0.0873,4.1039-0.0359,6.1875,0.125,4.208,0.32595,8.2603,1.1417,12.094,2.4062,0.01,0.003,0.0217-0.003,0.0312,0,0.30463,0.10896,0.26985,0.0697,0.3125,0.25,0.0453,0.19166,0.0297,0.74195-0.0312,1.5312l-1.2812,16.469c-0.44412,5.7488,0.90626,10.539,3.8438,14,2.9375,3.4607,7.421,5.509,12.969,5.9375l17.23,1.34c0.58804,0.0454,0.81675,0.16946,0.96875,0.3125,0.13515,0.12718,0.27695,0.36819,0.375,0.6875,0.003,0.0113-0.003,0.0196,0,0.0312,0.59818,3.8324,0.74968,7.7738,0.4375,11.812-0.30923,4.0073-1.0545,7.8916-2.2188,11.562-0.007,0.0215-0.0244,0.041-0.0312,0.0625-0.19757,0.47321-0.33392,0.61168-0.5,0.6875-0.17958,0.082-0.62636,0.15636-1.4375,0.0937l-16.688-1.3125c-5.6264-0.43476-10.43,1.0331-13.875,4.1875-3.4453,3.1544-5.502,7.9283-5.9688,13.969l-1.17,15.44c-0.0593,0.76416-0.24138,1.183-0.40625,1.4062-0.16487,0.22329-0.31757,0.33169-0.65625,0.40625-3.83,0.5963-7.7784,0.74886-11.812,0.4375-4.1033-0.31646-8.0635-1.1002-11.812-2.3125-0.34299-0.15753-0.41497-0.19709-0.5-0.40625-0.085-0.20916-0.12823-0.7098-0.0625-1.5625l1.1875-15.5c0.47479-6.1434-0.8062-11.162-3.7812-14.75-2.975-3.5885-7.5958-5.6738-13.438-6.125l-16.281-1.25c-1.2902-0.0996-1.7005-0.62567-1.8125-1.1562-0.58347-3.7979-0.74658-7.7203-0.4375-11.719,0.32197-4.1622,1.1033-8.171,2.3438-11.969,0.01351-0.0323,0.01965-0.004,0.03125-0.0312,0.0031-0.01-0.0031-0.0217,0-0.0312,0.10806-0.24292,0.16568-0.30025,0.28125-0.34375,0.13343-0.0502,0.57052-0.0885,1.3125-0.0312l16.438,1.25c6.0138,0.46419,10.911-0.76799,14.375-3.75,3.4637-2.982,5.4149-7.6088,5.875-13.562l1.28-16.8c0.046-0.5952,0.1942-0.88231,0.28125-1,0.0871-0.11769,0.11136-0.15689,0.34375-0.1875h0.0312c1.973-0.32262,3.9645-0.53771,6-0.625z"/>
<path id="circle19" style="baseline-shift:baseline;block-progression:tb;color:#000000;direction:ltr;text-indent:0;text-align:start;enable-background:accumulate;text-transform:none;" fill="#f4f4f4" d="m144.94,139.91c-6.747,0-12.25,5.4717-12.25,12.219,0,6.747,5.503,12.25,12.25,12.25s12.219-5.503,12.219-12.25-5.4717-12.219-12.219-12.219zm0,2c5.6661,0,10.219,4.5526,10.219,10.219,0,5.6661-4.5526,10.25-10.219,10.25-5.6661,0-10.25-4.5839-10.25-10.25s4.5839-10.219,10.25-10.219z"/>
<path id="polygon21" style="baseline-shift:baseline;block-progression:tb;color:#000000;direction:ltr;text-indent:0;text-align:start;enable-background:accumulate;text-transform:none;" fill-rule="nonzero" d="m112.59,114.38,0.25,1,1.8125,6.8438,0.21875,0.75,0.59375-0.5,4.6562-4,0.59375-0.5l-0.71-0.35-6.4688-2.8125-0.9375-0.4375zm1.5,1.75,4.75,2.125-3.4375,2.9062-1.3125-5.0312z"/>
<path id="polygon23" style="baseline-shift:baseline;block-progression:tb;color:#000000;direction:ltr;text-indent:0;text-align:start;enable-background:accumulate;text-transform:none;" fill-rule="nonzero" d="m110.75,176.34-0.3125,0.71875-2.8438,6.4688-0.4375,0.9375,1-0.25,6.8438-1.8125,0.75-0.21875-0.5-0.59375-4-4.6562-0.5-0.59375zm0.28125,1.8438,2.9375,3.4688-5.0625,1.3125,2.125-4.7812z"/>
<path id="polygon25" style="baseline-shift:baseline;block-progression:tb;color:#000000;direction:ltr;text-indent:0;text-align:start;enable-background:accumulate;text-transform:none;" fill-rule="nonzero" d="m174.97,181.31-0.59375,0.5-4.6562,4-0.59375,0.5,0.71875,0.3125,6.4688,2.8438,0.9375,0.4375-0.25-1.0312-1.8125-6.8125-0.21875-0.75zm-0.53125,1.7812,1.3125,5.0625-4.7812-2.125,3.4688-2.9375z"/>
<path id="polygon27" style="baseline-shift:baseline;block-progression:tb;color:#000000;direction:ltr;text-indent:0;text-align:start;enable-background:accumulate;text-transform:none;" fill-rule="nonzero" d="m182.69,119.81-1,0.25-6.8438,1.8125-0.75,0.21875,0.5,0.59375,4,4.6562,0.5,0.59375,0.34375-0.71875,2.8125-6.4688,0.4375-0.9375zm-1.75,1.5-2.125,4.75-2.9062-3.4375,5.0312-1.3125z"/>
<path id="circle29" style="baseline-shift:baseline;block-progression:tb;color:#000000;direction:ltr;text-indent:0;text-align:start;enable-background:accumulate;text-transform:none;" fill="#f4f4f4" d="m380.44,115.69c-11.999,0-21.75,9.7513-21.75,21.75s9.7513,21.75,21.75,21.75,21.75-9.7513,21.75-21.75-9.7513-21.75-21.75-21.75zm0,2c10.918,0,19.75,8.8322,19.75,19.75s-8.8322,19.75-19.75,19.75-19.75-8.8322-19.75-19.75,8.8322-19.75,19.75-19.75z"/>
<path id="circle31" style="baseline-shift:baseline;block-progression:tb;color:#000000;direction:ltr;text-indent:0;text-align:start;enable-background:accumulate;text-transform:none;" fill="#f4f4f4" d="m426.97,84.25c-11.999,0-21.75,9.7513-21.75,21.75s9.7513,21.75,21.75,21.75,21.75-9.7513,21.75-21.75-9.7513-21.75-21.75-21.75zm0,2c10.918,0,19.75,8.8322,19.75,19.75s-8.8322,19.75-19.75,19.75-19.75-8.8322-19.75-19.75,8.8322-19.75,19.75-19.75z"/>
<path id="circle33" style="baseline-shift:baseline;block-progression:tb;color:#000000;direction:ltr;text-indent:0;text-align:start;enable-background:accumulate;text-transform:none;" fill="#f4f4f4" d="m475.69,66.344c-11.998,0-21.75,9.7519-21.75,21.75s9.7519,21.75,21.75,21.75,21.75-9.7519,21.75-21.75-9.7519-21.75-21.75-21.75zm0,2c10.917,0,19.75,8.8327,19.75,19.75s-8.8327,19.75-19.75,19.75-19.75-8.8327-19.75-19.75,8.8327-19.75,19.75-19.75z"/>
<path id="circle35" style="baseline-shift:baseline;block-progression:tb;color:#000000;direction:ltr;text-indent:0;text-align:start;enable-background:accumulate;text-transform:none;" fill="#f4f4f4" d="m400.56,175.44c-16.686,0-30.219,13.533-30.219,30.219s13.533,30.25,30.219,30.25,30.25-13.564,30.25-30.25-13.564-30.219-30.25-30.219zm0,2c15.605,0,28.25,12.614,28.25,28.219s-12.645,28.25-28.25,28.25-28.219-12.645-28.219-28.25,12.614-28.219,28.219-28.219z"/>
<path id="circle37" style="baseline-shift:baseline;block-progression:tb;color:#000000;direction:ltr;text-indent:0;text-align:start;enable-background:accumulate;text-transform:none;" fill="#f4f4f4" d="m456.53,138.34c-16.686,0-30.25,13.533-30.25,30.219s13.564,30.25,30.25,30.25,30.219-13.564,30.219-30.25-13.533-30.219-30.219-30.219zm0,2c15.605,0,28.219,12.614,28.219,28.219s-12.614,28.25-28.219,28.25-28.25-12.645-28.25-28.25,12.645-28.219,28.25-28.219z"/>
<path id="circle39" style="baseline-shift:baseline;block-progression:tb;color:#000000;direction:ltr;text-indent:0;text-align:start;enable-background:accumulate;text-transform:none;" fill="#f4f4f4" d="m517.5,115.06c-16.685,0-30.25,13.565-30.25,30.25s13.565,30.219,30.25,30.219,30.219-13.533,30.219-30.219c0-16.685-13.533-30.25-30.219-30.25zm0,2c15.604,0,28.219,12.646,28.219,28.25s-12.614,28.219-28.219,28.219c-15.604,0-28.25-12.614-28.25-28.219,0-15.604,12.646-28.25,28.25-28.25z"/>
<path id="ellipse41" style="baseline-shift:baseline;block-progression:tb;color:#000000;direction:ltr;text-indent:0;text-align:start;enable-background:accumulate;text-transform:none;" fill="#f4f4f4" d="m294.12,179.97c-10.372,0-19.765,2.0128-26.656,5.3125-6.8912,3.2997-11.438,7.9998-11.438,13.469,0,5.4689,4.5463,10.138,11.438,13.438,6.8912,3.2997,16.284,5.3125,26.656,5.3125s19.765-2.0128,26.656-5.3125c6.8912-3.2997,11.438-7.9686,11.438-13.438,0-5.4689-4.5463-10.169-11.438-13.469-6.8912-3.2997-16.284-5.3125-26.656-5.3125zm0,2c10.114,0,19.279,1.9965,25.812,5.125,6.5338,3.1285,10.281,7.316,10.281,11.656,0,4.3402-3.7474,8.5277-10.281,11.656-6.5338,3.1285-15.699,5.0938-25.812,5.0938-10.114,0-19.247-1.9652-25.781-5.0938-6.5338-3.1285-10.312-7.316-10.312-11.656,0-4.3402,3.7787-8.5277,10.312-11.656,6.5338-3.1285,15.668-5.125,25.781-5.125z"/>
<path id="ellipse43" style="baseline-shift:baseline;block-progression:tb;color:#000000;direction:ltr;text-indent:0;text-align:start;enable-background:accumulate;text-transform:none;" fill="#f4f4f4" d="m294.12,186.91c-6.9754,0-13.273,1.2128-17.938,3.25-2.3324,1.0186-4.273,2.228-5.6562,3.6562-1.3833,1.4283-2.2188,3.1307-2.2188,4.9375s0.83547,3.478,2.2188,4.9062c1.3833,1.4283,3.3238,2.6376,5.6562,3.6562,4.6648,2.0372,10.962,3.2812,17.938,3.2812,6.9754,0,13.304-1.244,17.969-3.2812,2.3324-1.0186,4.2417-2.228,5.625-3.6562,1.3833-1.4283,2.25-3.0995,2.25-4.9062,0-1.8068-0.86672-3.5092-2.25-4.9375s-3.2926-2.6376-5.625-3.6562c-4.6648-2.0372-10.993-3.25-17.969-3.25zm0,2c6.7394,0,12.833,1.2058,17.156,3.0938,2.1615,0.94395,3.87,2.052,5,3.2188,1.13,1.1667,1.6875,2.3432,1.6875,3.5312s-0.55754,2.3646-1.6875,3.5312c-1.13,1.1667-2.8385,2.2748-5,3.2188-4.3229,1.8879-10.417,3.0938-17.156,3.0938-6.7394,0-12.833-1.2058-17.156-3.0938-2.1615-0.94395-3.87-2.052-5-3.2188-1.13-1.1667-1.6562-2.3432-1.6562-3.5312s0.52629-2.3646,1.6562-3.5312c1.13-1.1667,2.8385-2.2748,5-3.2188,4.3229-1.8879,10.417-3.0938,17.156-3.0938z"/>
</svg>
