<?xml version="1.0" encoding="UTF-8" standalone="no"?>
<!-- Created with Inkscape (http://www.inkscape.org/) -->

<svg
   xmlns:dc="http://purl.org/dc/elements/1.1/"
   xmlns:cc="http://creativecommons.org/ns#"
   xmlns:rdf="http://www.w3.org/1999/02/22-rdf-syntax-ns#"
   xmlns:svg="http://www.w3.org/2000/svg"
   xmlns="http://www.w3.org/2000/svg"
   version="1.2"
   width="601.97302"
   height="400.64301"
   viewBox="0 0 601.973 400.643"
   id="Layer_3"
   xml:space="preserve"><metadata
   id="metadata29"><rdf:RDF><cc:Work
       rdf:about=""><dc:format>image/svg+xml</dc:format><dc:type
         rdf:resource="http://purl.org/dc/dcmitype/StillImage" /><dc:title></dc:title></cc:Work></rdf:RDF></metadata><defs
   id="defs27" />
<path
   d="m 466.71875,35.375 c -4.94779,0.281874 -9.90127,1.519344 -14.625,3.84375 -35.04581,17.229645 -64.6112,38.370124 -88.71875,63.125 -24.12612,24.7283 -42.66408,52.97474 -56.1875,83.5 -8.54016,19.24898 0.15628,41.80155 19.40625,50.34375 5.02618,2.23032 10.30056,3.31147 15.46875,3.3125 14.62961,0.002 28.56411,-8.46464 34.875,-22.6875 10.24347,-23.03337 23.51306,-43.15337 41.0625,-61.1875 17.56566,-18.00854 39.56369,-34.03806 67.78125,-47.9375 18.89589,-9.297585 26.6736,-32.165601 17.375,-51.0625 -6.97396,-14.171913 -21.59414,-22.095623 -36.4375,-21.25 z m 0.125,1.96875 c 14.06577,-0.807565 27.91521,6.711663 34.53125,20.15625 8.8214,17.927101 1.42611,39.585835 -16.5,48.40625 -28.39444,13.98656 -50.54691,30.13104 -68.28125,48.3125 C 398.87719,172.42462 385.45353,192.77537 375.125,216 c -5.98711,13.49314 -19.20411,21.50195 -33.0625,21.5 -4.89581,-9.7e-4 -9.88843,-1.00932 -14.65625,-3.125 -18.26203,-8.1038 -26.47684,-29.45773 -18.375,-47.71875 13.43458,-30.32474 31.82937,-58.35655 55.78125,-82.90625 23.93445,-24.577124 53.29206,-45.578395 88.15625,-62.71875 4.48127,-2.205094 9.18641,-3.418312 13.875,-3.6875 z"
   id="path3"
   style="font-size:medium;font-style:normal;font-variant:normal;font-weight:normal;font-stretch:normal;text-indent:0;text-align:start;text-decoration:none;line-height:normal;letter-spacing:normal;word-spacing:normal;text-transform:none;direction:ltr;block-progression:tb;writing-mode:lr-tb;text-anchor:start;baseline-shift:baseline;color:#000000;fill:#f4f4f4;fill-opacity:1;stroke:none;stroke-width:2;marker:none;visibility:visible;display:inline;overflow:visible;enable-background:accumulate;font-family:Sans;-inkscape-font-specification:Sans" />
<path
   d="m 342.75,175.0625 c -14.49723,0 -26.28125,11.75277 -26.28125,26.25 0,14.49723 11.78402,26.28125 26.28125,26.28125 14.49723,0 26.25,-11.78402 26.25,-26.28125 0,-14.49723 -11.75277,-26.25 -26.25,-26.25 z m 0,2 c 13.41635,0 24.25,10.83365 24.25,24.25 0,13.41635 -10.83365,24.28125 -24.25,24.28125 -13.41635,0 -24.28125,-10.8649 -24.28125,-24.28125 0,-13.41635 10.8649,-24.25 24.28125,-24.25 z"
   id="circle5"
   style="font-size:medium;font-style:normal;font-variant:normal;font-weight:normal;font-stretch:normal;text-indent:0;text-align:start;text-decoration:none;line-height:normal;letter-spacing:normal;word-spacing:normal;text-transform:none;direction:ltr;block-progression:tb;writing-mode:lr-tb;text-anchor:start;baseline-shift:baseline;color:#000000;fill:#f4f4f4;fill-opacity:1;stroke:none;stroke-width:2;marker:none;visibility:visible;display:inline;overflow:visible;enable-background:accumulate;font-family:Sans;-inkscape-font-specification:Sans" />
<path
   d="m 376.5625,121.5 c -14.49723,0 -26.28125,11.78402 -26.28125,26.28125 0,14.49723 11.78402,26.25 26.28125,26.25 14.49723,0 26.25,-11.75277 26.25,-26.25 0,-14.49723 -11.75277,-26.28125 -26.25,-26.28125 z m 0,2 c 13.41635,0 24.25,10.8649 24.25,24.28125 0,13.41635 -10.83365,24.25 -24.25,24.25 -13.41635,0 -24.28125,-10.83365 -24.28125,-24.25 0,-13.41635 10.8649,-24.28125 24.28125,-24.28125 z"
   id="circle7"
   style="font-size:medium;font-style:normal;font-variant:normal;font-weight:normal;font-stretch:normal;text-indent:0;text-align:start;text-decoration:none;line-height:normal;letter-spacing:normal;word-spacing:normal;text-transform:none;direction:ltr;block-progression:tb;writing-mode:lr-tb;text-anchor:start;baseline-shift:baseline;color:#000000;fill:#f4f4f4;fill-opacity:1;stroke:none;stroke-width:2;marker:none;visibility:visible;display:inline;overflow:visible;enable-background:accumulate;font-family:Sans;-inkscape-font-specification:Sans" />
<path
   d="m 419.40625,76.96875 c -14.49723,0 -26.28125,11.784022 -26.28125,26.28125 0,14.49723 11.78402,26.28125 26.28125,26.28125 14.49723,0 26.25,-11.78402 26.25,-26.28125 0,-14.497228 -11.75277,-26.28125 -26.25,-26.28125 z m 0,2 c 13.41635,0 24.25,10.864902 24.25,24.28125 0,13.41635 -10.83365,24.28125 -24.25,24.28125 -13.41635,0 -24.28125,-10.8649 -24.28125,-24.28125 0,-13.416348 10.8649,-24.28125 24.28125,-24.28125 z"
   id="circle9"
   style="font-size:medium;font-style:normal;font-variant:normal;font-weight:normal;font-stretch:normal;text-indent:0;text-align:start;text-decoration:none;line-height:normal;letter-spacing:normal;word-spacing:normal;text-transform:none;direction:ltr;block-progression:tb;writing-mode:lr-tb;text-anchor:start;baseline-shift:baseline;color:#000000;fill:#f4f4f4;fill-opacity:1;stroke:none;stroke-width:2;marker:none;visibility:visible;display:inline;overflow:visible;enable-background:accumulate;font-family:Sans;-inkscape-font-specification:Sans" />
<path
   d="m 470.59375,46.1875 c -14.49723,0 -26.25,11.784022 -26.25,26.28125 0,14.497228 11.75277,26.25 26.25,26.25 14.49723,0 26.28125,-11.752772 26.28125,-26.25 0,-14.497228 -11.78402,-26.28125 -26.28125,-26.28125 z m 0,2 c 13.41635,0 24.28125,10.864902 24.28125,24.28125 0,13.416348 -10.8649,24.25 -24.28125,24.25 -13.41635,0 -24.25,-10.833652 -24.25,-24.25 0,-13.416348 10.83365,-24.28125 24.25,-24.28125 z"
   id="circle11"
   style="font-size:medium;font-style:normal;font-variant:normal;font-weight:normal;font-stretch:normal;text-indent:0;text-align:start;text-decoration:none;line-height:normal;letter-spacing:normal;word-spacing:normal;text-transform:none;direction:ltr;block-progression:tb;writing-mode:lr-tb;text-anchor:start;baseline-shift:baseline;color:#000000;fill:#f4f4f4;fill-opacity:1;stroke:none;stroke-width:2;marker:none;visibility:visible;display:inline;overflow:visible;enable-background:accumulate;font-family:Sans;-inkscape-font-specification:Sans" />
<path
   d="m 167.53125,63.09375 c -43.88927,0 -79.5,35.610731 -79.5,79.5 0,43.88927 35.61073,79.46875 79.5,79.46875 43.88927,0 79.46875,-35.57948 79.46875,-79.46875 0,-43.889269 -35.57948,-79.5 -79.46875,-79.5 z m 0,2 c 42.80839,0 77.46875,34.691611 77.46875,77.5 0,42.80839 -34.66036,77.46875 -77.46875,77.46875 -42.80839,0 -77.5,-34.66036 -77.5,-77.46875 0,-42.808389 34.69161,-77.5 77.5,-77.5 z"
   id="circle13"
   style="font-size:medium;font-style:normal;font-variant:normal;font-weight:normal;font-stretch:normal;text-indent:0;text-align:start;text-decoration:none;line-height:normal;letter-spacing:normal;word-spacing:normal;text-transform:none;direction:ltr;block-progression:tb;writing-mode:lr-tb;text-anchor:start;baseline-shift:baseline;color:#000000;fill:#f4f4f4;fill-opacity:1;stroke:none;stroke-width:2;marker:none;visibility:visible;display:inline;overflow:visible;enable-background:accumulate;font-family:Sans;-inkscape-font-specification:Sans" />
<path
   d="m 167.53125,103.75 c -21.42951,0 -38.84375,17.41424 -38.84375,38.84375 0,21.42951 17.41424,38.8125 38.84375,38.8125 21.42951,0 38.8125,-17.38299 38.8125,-38.8125 0,-21.42951 -17.38299,-38.84375 -38.8125,-38.84375 z m 0,2 c 20.34863,0 36.8125,16.49512 36.8125,36.84375 0,20.34863 -16.46387,36.8125 -36.8125,36.8125 -20.34863,0 -36.84375,-16.46387 -36.84375,-36.8125 0,-20.34863 16.49512,-36.84375 36.84375,-36.84375 z"
   id="circle15"
   style="font-size:medium;font-style:normal;font-variant:normal;font-weight:normal;font-stretch:normal;text-indent:0;text-align:start;text-decoration:none;line-height:normal;letter-spacing:normal;word-spacing:normal;text-transform:none;direction:ltr;block-progression:tb;writing-mode:lr-tb;text-anchor:start;baseline-shift:baseline;color:#000000;fill:#f4f4f4;fill-opacity:1;stroke:none;stroke-width:2;marker:none;visibility:visible;display:inline;overflow:visible;enable-background:accumulate;font-family:Sans;-inkscape-font-specification:Sans" />
<path
   d="m 253.84375,31.34375 c -4.97864,-0.668973 -9.58104,2.833984 -10.25,7.8125 -0.66897,4.978641 2.86523,9.581043 7.84375,10.25 L 274.28125,52.5 c 4.97879,0.668993 9.58102,-2.866153 10.25,-7.84375 0.66897,-4.978641 -2.86523,-9.581043 -7.84375,-10.25 l -22.84375,-3.0625 z m -0.25,2 22.84375,3.0625 c 3.90748,0.525043 6.61878,4.092641 6.09375,8 -0.52502,3.906403 -4.09279,6.618757 -8,6.09375 L 251.6875,47.4375 c -3.90748,-0.525043 -6.61878,-4.092641 -6.09375,-8 0.52504,-3.907484 4.09264,-6.618777 8,-6.09375 z"
   id="path17"
   style="font-size:medium;font-style:normal;font-variant:normal;font-weight:normal;font-stretch:normal;text-indent:0;text-align:start;text-decoration:none;line-height:normal;letter-spacing:normal;word-spacing:normal;text-transform:none;direction:ltr;block-progression:tb;writing-mode:lr-tb;text-anchor:start;baseline-shift:baseline;color:#000000;fill:#f4f4f4;fill-opacity:1;stroke:none;stroke-width:2;marker:none;visibility:visible;display:inline;overflow:visible;enable-background:accumulate;font-family:Sans;-inkscape-font-specification:Sans" />
<path
   d="m 352.75,31.34375 -22.84375,3.0625 c -4.97852,0.668957 -8.48147,5.271359 -7.8125,10.25 0.6679,4.977893 5.27206,8.51278 10.25,7.84375 l 22.84375,-3.09375 c 4.97852,-0.668957 8.48147,-5.271359 7.8125,-10.25 -0.66896,-4.978516 -5.27223,-8.481507 -10.25,-7.8125 z m 0.28125,2 c 3.90623,-0.524993 7.47496,2.186266 8,6.09375 0.52503,3.907359 -2.18627,7.474957 -6.09375,8 L 332.0625,50.5 c -3.90606,0.52497 -7.4759,-2.187643 -8,-6.09375 -0.52503,-3.907359 2.21752,-7.474957 6.125,-8 l 22.84375,-3.0625 z"
   id="path19"
   style="font-size:medium;font-style:normal;font-variant:normal;font-weight:normal;font-stretch:normal;text-indent:0;text-align:start;text-decoration:none;line-height:normal;letter-spacing:normal;word-spacing:normal;text-transform:none;direction:ltr;block-progression:tb;writing-mode:lr-tb;text-anchor:start;baseline-shift:baseline;color:#000000;fill:#f4f4f4;fill-opacity:1;stroke:none;stroke-width:2;marker:none;visibility:visible;display:inline;overflow:visible;enable-background:accumulate;font-family:Sans;-inkscape-font-specification:Sans" />
<path
   d="M 8.03125,0 C 3.6088069,0 0,3.6088069 0,8.03125 L 0,392.625 c 0,4.4233 3.6089787,8.03125 8.03125,8.03125 l 585.90625,0 c 4.42313,0 8.03125,-3.60812 8.03125,-8.03125 l 0,-384.59375 C 601.96875,3.6089787 598.3608,0 593.9375,0 L 8.03125,0 z m 0,2 585.90625,0 c 3.3427,0 6.03125,2.6895213 6.03125,6.03125 l 0,384.59375 c 0,3.34287 -2.68838,6.03125 -6.03125,6.03125 l -585.90625,0 C 4.6895213,398.65625 2,395.9677 2,392.625 L 2,8.03125 C 2,4.6896931 4.6896931,2 8.03125,2 z"
   id="path21"
   style="font-size:medium;font-style:normal;font-variant:normal;font-weight:normal;font-stretch:normal;text-indent:0;text-align:start;text-decoration:none;line-height:normal;letter-spacing:normal;word-spacing:normal;text-transform:none;direction:ltr;block-progression:tb;writing-mode:lr-tb;text-anchor:start;baseline-shift:baseline;color:#000000;fill:#f4f4f4;fill-opacity:1;stroke:none;stroke-width:2;marker:none;visibility:visible;display:inline;overflow:visible;enable-background:accumulate;font-family:Sans;-inkscape-font-specification:Sans" />
<path
   d="m 26.40625,0 -0.125,2 c 0,0 52.464615,3.1430847 109.625,6.28125 57.16039,3.138165 118.9685,6.28125 137.96875,6.28125 l 54.21875,0 c 19.7505,0 81.5901,-3.143076 138.5625,-6.28125 C 523.62865,5.1430764 575.6875,2 575.6875,2 l -0.125,-2 c 0,0 -52.06515,3.1434236 -109.03125,6.28125 -56.9661,3.1378264 -118.9,6.28125 -138.4375,6.28125 l -54.21875,0 C 255.09625,12.5625 193.15436,9.4190847 136,6.28125 78.845635,3.1434153 26.40625,0 26.40625,0 z"
   id="path23"
   style="font-size:medium;font-style:normal;font-variant:normal;font-weight:normal;font-stretch:normal;text-indent:0;text-align:start;text-decoration:none;line-height:normal;letter-spacing:normal;word-spacing:normal;text-transform:none;direction:ltr;block-progression:tb;writing-mode:lr-tb;text-anchor:start;baseline-shift:baseline;color:#000000;fill:#f4f4f4;fill-opacity:1;stroke:none;stroke-width:2;marker:none;visibility:visible;display:inline;overflow:visible;enable-background:accumulate;font-family:Sans;-inkscape-font-specification:Sans" />
</svg>