<?xml version="1.0" encoding="UTF-8" standalone="no"?>
<!-- Generator: Adobe Illustrator 13.0.0, SVG Export Plug-In . SVG Version: 6.00 Build 14948)  -->
<svg id="Layer_3" xmlns:rdf="http://www.w3.org/1999/02/22-rdf-syntax-ns#" xmlns="http://www.w3.org/2000/svg" xml:space="preserve" height="445.82px" viewBox="0 0 197.22 445.821" width="197.22px" version="1.2" y="0px" x="0px" xmlns:cc="http://creativecommons.org/ns#" xmlns:dc="http://purl.org/dc/elements/1.1/"><metadata id="metadata99"><rdf:RDF><cc:Work rdf:about=""><dc:format>image/svg+xml</dc:format><dc:type rdf:resource="http://purl.org/dc/dcmitype/StillImage"/><dc:title/></cc:Work></rdf:RDF></metadata>
<path id="path3" style="baseline-shift:baseline;block-progression:tb;color:#000000;direction:ltr;text-indent:0;text-align:start;enable-background:accumulate;text-transform:none;" fill="#f4f4f4" d="M6.2812,4.0312c-3.4504,0-6.2812,2.7988-6.2812,6.2498v429.28c0,3.4504,2.8308,6.25,6.2812,6.25h184.66c3.0958,0,5.5634-2.2923,6.0625-5.25h0.21875v-1-429.28c0-3.4512-2.8316-6.25-6.2812-6.25h-184.66zm0,2,184.66,0c2.3684,0,4.2812,1.8792,4.2812,4.25v428.28,1c0,2.3686-1.9119,4.25-4.2812,4.25h-184.66c-2.3683,0-4.28-1.88-4.28-4.25v-429.28c0-2.3708,1.9117-4.25,4.2812-4.25z"/>
<path id="path5" style="baseline-shift:baseline;block-progression:tb;color:#000000;direction:ltr;text-indent:0;text-align:start;enable-background:accumulate;text-transform:none;" fill="#f4f4f4" d="m30.656,55.594c-12.179,0-22.062,9.9133-22.062,22.094v171.91c0,12.178,9.882,22.094,22.062,22.094h135.91c12.179,0,22.062-9.9152,22.062-22.094v-1-170.91c0-12.179-9.8831-22.094-22.062-22.094h-135.91zm0,2,135.91,0c11.099,0,20.062,8.9952,20.062,20.094v171.91c0,11.097-8.965,20.094-20.062,20.094h-135.91c-11.1,0-20.062-8.9973-20.062-20.094v-171.91c0-11.1,8.9639-20.094,20.062-20.094z"/>
<path id="path7" style="baseline-shift:baseline;block-progression:tb;color:#000000;direction:ltr;text-indent:0;text-align:start;enable-background:accumulate;text-transform:none;" fill="#f4f4f4" d="m39.812,68.344c-7.2784,0-13.188,5.9393-13.188,13.219v159.16c0,7.2794,5.9091,13.219,13.188,13.219h117.59c7.2784,0,13.188-5.9393,13.188-13.219v-159.16c0-7.2794-5.9091-13.219-13.188-13.219h-117.59zm0,2,117.59,0c6.1976,0,11.188,5.0202,11.188,11.219v159.16c0,6.1986-4.9899,11.219-11.188,11.219h-117.59c-6.1976,0-11.188-5.0202-11.188-11.219v-159.16c0-6.1986,4.9899-11.219,11.188-11.219z"/>
<path id="circle9" style="baseline-shift:baseline;block-progression:tb;color:#000000;direction:ltr;text-indent:0;text-align:start;enable-background:accumulate;text-transform:none;" fill="#f4f4f4" d="m98.625,278.56c-39.287,0-71.156,31.869-71.156,71.156s31.869,71.156,71.156,71.156,71.156-31.869,71.156-71.156-31.869-71.156-71.156-71.156zm0,2c38.206,0,69.156,30.95,69.156,69.156s-30.95,69.156-69.156,69.156-69.156-30.95-69.156-69.156,30.95-69.156,69.156-69.156z"/>
<path id="circle11" style="baseline-shift:baseline;block-progression:tb;color:#000000;direction:ltr;text-indent:0;text-align:start;enable-background:accumulate;text-transform:none;" fill="#f4f4f4" d="m98.625,298.5c-28.72,0-52.031,23.312-52.031,52.031,0,28.72,23.312,52.031,52.031,52.031,28.72,0,52-23.312,52-52.031,0-28.72-23.28-52.031-52-52.031zm0,2c27.639,0,50,22.392,50,50.031s-22.361,50.031-50,50.031-50.031-22.392-50.031-50.031c0.005-27.64,22.397-50.03,50.036-50.03z"/>
<path id="path13" style="baseline-shift:baseline;block-progression:tb;color:#000000;direction:ltr;text-indent:0;text-align:start;enable-background:accumulate;text-transform:none;" fill="#f4f4f4" d="M19.375,0c-1.155,0-2.125,0.94156-2.125,2.0938v2.75h2v-2.75c0-0.0699,0.054-0.0938,0.125-0.0938h158.47c0.0695,0,0.125,0.023939,0.125,0.09375v2.9062h2v-2.9062c0.01-1.1522-0.96-2.0938-2.12-2.0938h-158.46z"/>
<g id="g15">
	<g id="g17">
		<path id="path19" stroke="#F4F4F4" stroke-width="2" d="M73.284,110.3c0,2.451-1.988,4.437-4.438,4.437h-28.284c-2.451,0-4.437-1.986-4.437-4.437v-26.617c0-2.451,1.986-4.437,4.437-4.437h28.285c2.449,0,4.438,1.986,4.438,4.437v26.62z" fill="none"/>
		<path id="circle21" style="baseline-shift:baseline;block-progression:tb;color:#000000;direction:ltr;text-indent:0;text-align:start;enable-background:accumulate;text-transform:none;" fill="#f4f4f4" d="m54.719,82.312c-8.0957,0-14.688,6.5918-14.688,14.688,0,8.0957,6.5918,14.688,14.688,14.688,8.0957,0,14.656-6.5918,14.656-14.688,0-8.0957-6.5606-14.688-14.656-14.688zm0,2c7.0148,0,12.656,5.6727,12.656,12.688,0,7.0148-5.6414,12.688-12.656,12.688-7.0148,0-12.688-5.6727-12.688-12.688,0-7.0148,5.6727-12.688,12.688-12.688z"/>
	</g>
	<g id="g23">
		<path id="path25" stroke="#F4F4F4" stroke-width="2" d="M117.19,110.3c0,2.451-1.986,4.437-4.436,4.437h-28.282c-2.451,0-4.437-1.986-4.437-4.437v-26.617c0-2.451,1.986-4.437,4.437-4.437h28.286c2.449,0,4.436,1.986,4.436,4.437v26.62z" fill="none"/>
		<path id="circle27" style="baseline-shift:baseline;block-progression:tb;color:#000000;direction:ltr;text-indent:0;text-align:start;enable-background:accumulate;text-transform:none;" fill="#f4f4f4" d="m98.625,82.312c-8.0957,0-14.688,6.5918-14.688,14.688,0,8.0957,6.5918,14.688,14.688,14.688,8.0957,0,14.656-6.5918,14.656-14.688,0-8.0957-6.5606-14.688-14.656-14.688zm0,2c7.0148,0,12.656,5.6727,12.656,12.688,0,7.0148-5.6414,12.688-12.656,12.688-7.0148,0-12.688-5.6727-12.688-12.688,0-7.0148,5.6727-12.688,12.688-12.688z"/>
	</g>
	<g id="g29">
		<path id="path31" stroke="#F4F4F4" stroke-width="2" d="M161.1,110.3c0,2.451-1.986,4.437-4.436,4.437h-28.285c-2.451,0-4.438-1.986-4.438-4.437v-26.617c0-2.451,1.986-4.437,4.438-4.437h28.285c2.449,0,4.436,1.986,4.436,4.437v26.62z" fill="none"/>
		<path id="circle33" style="baseline-shift:baseline;block-progression:tb;color:#000000;direction:ltr;text-indent:0;text-align:start;enable-background:accumulate;text-transform:none;" fill="#f4f4f4" d="m142.53,82.312c-8.0957,0-14.688,6.5918-14.688,14.688,0,8.0957,6.5918,14.688,14.688,14.688,8.0957,0,14.656-6.5918,14.656-14.688,0-8.0957-6.5606-14.688-14.656-14.688zm0,2c7.0148,0,12.656,5.6727,12.656,12.688,0,7.0148-5.6414,12.688-12.656,12.688-7.0148,0-12.688-5.6727-12.688-12.688,0-7.0148,5.6727-12.688,12.688-12.688z"/>
	</g>
</g>
<g id="g35">
	<g id="g37">
		<path id="path39" stroke="#F4F4F4" stroke-width="2" d="M73.284,153.5c0,2.451-1.988,4.437-4.438,4.437h-28.284c-2.451,0-4.437-1.986-4.437-4.437v-26.62c0-2.451,1.986-4.437,4.437-4.437h28.285c2.449,0,4.438,1.986,4.438,4.437v26.621z" fill="none"/>
		<path id="circle41" style="baseline-shift:baseline;block-progression:tb;color:#000000;direction:ltr;text-indent:0;text-align:start;enable-background:accumulate;text-transform:none;" fill="#f4f4f4" d="m54.719,125.5c-8.0957,0-14.688,6.5918-14.688,14.688,0,8.0957,6.5918,14.688,14.688,14.688,8.0957,0,14.656-6.5918,14.656-14.688,0-8.0957-6.5606-14.688-14.656-14.688zm0,2c7.0148,0,12.656,5.6727,12.656,12.688,0,7.0148-5.6414,12.688-12.656,12.688-7.0148,0-12.688-5.6727-12.688-12.688,0-7.0148,5.6727-12.688,12.688-12.688z"/>
	</g>
	<g id="g43">
		<path id="path45" stroke="#F4F4F4" stroke-width="2" d="M117.19,153.5c0,2.451-1.986,4.437-4.436,4.437h-28.282c-2.451,0-4.437-1.986-4.437-4.437v-26.62c0-2.451,1.986-4.437,4.437-4.437h28.286c2.449,0,4.436,1.986,4.436,4.437v26.621z" fill="none"/>
		<path id="circle47" style="baseline-shift:baseline;block-progression:tb;color:#000000;direction:ltr;text-indent:0;text-align:start;enable-background:accumulate;text-transform:none;" fill="#f4f4f4" d="m98.625,125.5c-8.0957,0-14.688,6.5918-14.688,14.688,0,8.0957,6.5918,14.688,14.688,14.688,8.0957,0,14.656-6.5918,14.656-14.688,0-8.0957-6.5606-14.688-14.656-14.688zm0,2c7.0148,0,12.656,5.6727,12.656,12.688,0,7.0148-5.6414,12.688-12.656,12.688-7.0148,0-12.688-5.6727-12.688-12.688,0-7.0148,5.6727-12.688,12.688-12.688z"/>
	</g>
	<g id="g49">
		<path id="path51" stroke="#F4F4F4" stroke-width="2" d="M161.1,153.5c0,2.451-1.986,4.437-4.436,4.437h-28.285c-2.451,0-4.438-1.986-4.438-4.437v-26.62c0-2.451,1.986-4.437,4.438-4.437h28.285c2.449,0,4.436,1.986,4.436,4.437v26.621z" fill="none"/>
		<path id="circle53" style="baseline-shift:baseline;block-progression:tb;color:#000000;direction:ltr;text-indent:0;text-align:start;enable-background:accumulate;text-transform:none;" fill="#f4f4f4" d="m142.53,125.5c-8.0957,0-14.688,6.5918-14.688,14.688,0,8.0957,6.5918,14.688,14.688,14.688,8.0957,0,14.656-6.5918,14.656-14.688,0-8.0957-6.5606-14.688-14.656-14.688zm0,2c7.0148,0,12.656,5.6727,12.656,12.688,0,7.0148-5.6414,12.688-12.656,12.688-7.0148,0-12.688-5.6727-12.688-12.688,0-7.0148,5.6727-12.688,12.688-12.688z"/>
	</g>
</g>
<g id="g55">
	<g id="g57">
		<path id="path59" stroke="#F4F4F4" stroke-width="2" d="M72.091,196.7c0,2.451-1.987,4.437-4.438,4.437h-28.283c-2.451,0-4.437-1.986-4.437-4.437v-26.622c0-2.449,1.986-4.436,4.437-4.436h28.284c2.451,0,4.438,1.986,4.438,4.436v26.619z" fill="none"/>
		<path id="circle61" style="baseline-shift:baseline;block-progression:tb;color:#000000;direction:ltr;text-indent:0;text-align:start;enable-background:accumulate;text-transform:none;" fill="#f4f4f4" d="m53.5,168.72c-8.0957,0-14.656,6.5606-14.656,14.656,0,8.0957,6.5606,14.688,14.656,14.688,8.0957,0,14.688-6.5918,14.688-14.688,0-8.0957-6.5918-14.656-14.688-14.656zm0,2c7.0148,0,12.688,5.6414,12.688,12.656,0,7.0148-5.6727,12.688-12.688,12.688-7.0148,0-12.656-5.6727-12.656-12.688,0-7.0148,5.6414-12.656,12.656-12.656z"/>
	</g>
	<g id="g63">
		<path id="path65" stroke="#F4F4F4" stroke-width="2" d="M116,196.7c0,2.451-1.986,4.437-4.437,4.437h-28.286c-2.449,0-4.436-1.986-4.436-4.437v-26.622c0-2.449,1.986-4.436,4.436-4.436h28.286c2.45,0,4.437,1.986,4.437,4.436v26.619z" fill="none"/>
		<path id="circle67" style="baseline-shift:baseline;block-progression:tb;color:#000000;direction:ltr;text-indent:0;text-align:start;enable-background:accumulate;text-transform:none;" fill="#f4f4f4" d="m97.406,168.72c-8.0962,0-14.656,6.56-14.656,14.656,0,8.0962,6.56,14.688,14.656,14.688,8.0962,0,14.688-6.5912,14.688-14.688,0-8.0962-6.5912-14.656-14.688-14.656zm0,2c7.0154,0,12.688,5.6409,12.688,12.656,0,7.0154-5.6721,12.688-12.688,12.688-7.0154,0-12.656-5.6721-12.656-12.688,0-7.0154,5.6409-12.656,12.656-12.656z"/>
	</g>
	<g id="g69">
		<path id="path71" stroke="#F4F4F4" stroke-width="2" d="M159.9,196.7c0,2.451-1.987,4.437-4.438,4.437h-28.285c-2.449,0-4.436-1.986-4.436-4.437v-26.622c0-2.449,1.986-4.436,4.436-4.436h28.285c2.45,0,4.438,1.986,4.438,4.436v26.619z" fill="none"/>
		<path id="circle73" style="baseline-shift:baseline;block-progression:tb;color:#000000;direction:ltr;text-indent:0;text-align:start;enable-background:accumulate;text-transform:none;" fill="#f4f4f4" d="m141.31,168.72c-8.0957,0-14.656,6.5606-14.656,14.656,0,8.0957,6.5606,14.688,14.656,14.688,8.0957,0,14.688-6.5918,14.688-14.688,0-8.0957-6.5918-14.656-14.688-14.656zm0,2c7.0148,0,12.688,5.6414,12.688,12.656,0,7.0148-5.6727,12.688-12.688,12.688-7.0148,0-12.656-5.6727-12.656-12.688,0-7.0148,5.6414-12.656,12.656-12.656z"/>
	</g>
</g>
<g id="g75">
	<g id="g77">
		<path id="path79" stroke="#F4F4F4" stroke-width="2" d="M72.091,239.9c0,2.45-1.987,4.437-4.438,4.437h-28.283c-2.451,0-4.437-1.986-4.437-4.437v-26.622c0-2.449,1.986-4.438,4.437-4.438h28.284c2.451,0,4.438,1.988,4.438,4.438v26.616z" fill="none"/>
		<path id="circle81" style="baseline-shift:baseline;block-progression:tb;color:#000000;direction:ltr;text-indent:0;text-align:start;enable-background:accumulate;text-transform:none;" fill="#f4f4f4" d="m53.5,211.91c-8.0957,0-14.656,6.5918-14.656,14.688,0,8.0957,6.5606,14.656,14.656,14.656,8.0957,0,14.688-6.5606,14.688-14.656,0-8.0957-6.5918-14.688-14.688-14.688zm0,2c7.0148,0,12.688,5.6727,12.688,12.688,0,7.0148-5.6727,12.656-12.688,12.656-7.0148,0-12.656-5.6414-12.656-12.656,0-7.0148,5.6414-12.688,12.656-12.688z"/>
	</g>
	<g id="g83">
		<path id="path85" stroke="#F4F4F4" stroke-width="2" d="M116,239.9c0,2.45-1.986,4.437-4.437,4.437h-28.286c-2.449,0-4.436-1.986-4.436-4.437v-26.622c0-2.449,1.986-4.438,4.436-4.438h28.286c2.45,0,4.437,1.988,4.437,4.438v26.616z" fill="none"/>
		<path id="circle87" style="baseline-shift:baseline;block-progression:tb;color:#000000;direction:ltr;text-indent:0;text-align:start;enable-background:accumulate;text-transform:none;" fill="#f4f4f4" d="m97.406,211.91c-8.0962,0-14.656,6.5912-14.656,14.688,0,8.0962,6.56,14.656,14.656,14.656,8.0962,0,14.688-6.56,14.688-14.656,0-8.0962-6.5912-14.688-14.688-14.688zm0,2c7.0154,0,12.688,5.6721,12.688,12.688,0,7.0154-5.6721,12.656-12.688,12.656-7.0154,0-12.656-5.6409-12.656-12.656,0-7.0154,5.6409-12.688,12.656-12.688z"/>
	</g>
	<g id="g89">
		<path id="path91" stroke="#F4F4F4" stroke-width="2" d="M159.9,239.9c0,2.45-1.987,4.437-4.438,4.437h-28.285c-2.449,0-4.436-1.986-4.436-4.437v-26.622c0-2.449,1.986-4.438,4.436-4.438h28.285c2.45,0,4.438,1.988,4.438,4.438v26.616z" fill="none"/>
		<path id="circle93" style="baseline-shift:baseline;block-progression:tb;color:#000000;direction:ltr;text-indent:0;text-align:start;enable-background:accumulate;text-transform:none;" fill="#f4f4f4" d="m141.31,211.91c-8.0957,0-14.656,6.5918-14.656,14.688,0,8.0957,6.5606,14.656,14.656,14.656,8.0957,0,14.688-6.5606,14.688-14.656,0-8.0957-6.5918-14.688-14.688-14.688zm0,2c7.0148,0,12.688,5.6727,12.688,12.688,0,7.0148-5.6727,12.656-12.688,12.656-7.0148,0-12.656-5.6414-12.656-12.656,0-7.0148,5.6414-12.688,12.656-12.688z"/>
	</g>
</g>
</svg>
