<?xml version="1.0" encoding="UTF-8" standalone="no"?>
<!-- Generator: Adobe Illustrator 13.0.0, SVG Export Plug-In . SVG Version: 6.00 Build 14948)  -->
<svg id="Layer_3" xmlns:rdf="http://www.w3.org/1999/02/22-rdf-syntax-ns#" xmlns="http://www.w3.org/2000/svg" xml:space="preserve" height="439.35px" viewBox="0 0 193.077 439.35" width="193.08px" version="1.2" y="0px" x="0px" xmlns:cc="http://creativecommons.org/ns#" xmlns:dc="http://purl.org/dc/elements/1.1/"><metadata id="metadata43"><rdf:RDF><cc:Work rdf:about=""><dc:format>image/svg+xml</dc:format><dc:type rdf:resource="http://purl.org/dc/dcmitype/StillImage"/><dc:title/></cc:Work></rdf:RDF></metadata>
<path id="path3" style="baseline-shift:baseline;block-progression:tb;color:#000000;direction:ltr;text-indent:0;text-align:start;enable-background:accumulate;text-transform:none;" fill="#f4f4f4" d="m12.281,2.3438c-3.6934,0-6.7188,3.0253-6.7188,6.7188v423.59c0,3.6934,3.0253,6.6875,6.7188,6.6875h168.41c3.6934,0,6.7188-2.9941,6.7188-6.6875v-423.59c0-3.6934-3.0253-6.7188-6.7188-6.7188h-168.41zm0,2,168.41,0c2.6126,0,4.7188,2.1062,4.7188,4.7188v423.59c0,2.6126-2.1062,4.6875-4.7188,4.6875h-168.41c-2.6126,0-4.7188-2.0749-4.7188-4.6875v-423.59c0-2.6126,2.1062-4.7188,4.7188-4.7188z"/>
<g id="g5" fill="#f4f4f4">
	<path id="circle7" style="baseline-shift:baseline;block-progression:tb;color:#000000;direction:ltr;text-indent:0;text-align:start;enable-background:accumulate;text-transform:none;" d="m96.5,103.38c-38.611,0-69.938,31.326-69.938,69.938,0,38.611,31.326,69.938,69.938,69.938,38.611,0,69.906-31.326,69.906-69.938,0-38.611-31.295-69.938-69.906-69.938zm0,2c37.53,0,67.906,30.407,67.906,67.938,0,37.53-30.376,67.938-67.906,67.938s-67.938-30.407-67.938-67.938c0-37.53,30.407-67.938,67.938-67.938z"/>
	<path id="circle9" style="baseline-shift:baseline;block-progression:tb;color:#000000;direction:ltr;text-indent:0;text-align:start;enable-background:accumulate;text-transform:none;" d="m96.5,135.94c-20.64,0-37.406,16.735-37.406,37.375s16.766,37.406,37.406,37.406,37.375-16.766,37.375-37.406-16.735-37.375-37.375-37.375zm0,2c19.559,0,35.375,15.816,35.375,35.375s-15.816,35.406-35.375,35.406-35.406-15.847-35.406-35.406,15.847-35.375,35.406-35.375z"/>
	<path id="path11" style="baseline-shift:baseline;block-progression:tb;color:#000000;direction:ltr;text-indent:0;text-align:start;enable-background:accumulate;text-transform:none;" d="m96.5,115.91c-2.0653,0-3.7812,1.6858-3.7812,3.75v9.9062c0,2.0647,1.7166,3.75,3.7812,3.75,2.0647,0,3.75-1.6862,3.75-3.75v-9.9062c0-2.0642-1.686-3.75-3.75-3.75zm0,2c0.98196,0,1.75,0.76624,1.75,1.75v9.9062c0,0.98419-0.76668,1.75-1.75,1.75s-1.7812-0.76668-1.7812-1.75v-9.9062c0-0.98376,0.79658-1.75,1.7812-1.75z"/>
	<path id="circle13" style="baseline-shift:baseline;block-progression:tb;color:#000000;direction:ltr;text-indent:0;text-align:start;enable-background:accumulate;text-transform:none;" d="m96.5,112c-33.858,0-61.344,27.455-61.344,61.312,0,33.858,27.486,61.344,61.344,61.344s61.312-27.486,61.312-61.344c0-33.86-27.45-61.31-61.31-61.31zm0,2c32.777,0,59.312,26.536,59.312,59.312,0,32.777-26.536,59.344-59.312,59.344-32.777,0-59.344-26.567-59.344-59.344,0.002-32.77,26.569-59.31,59.346-59.31z"/>
	<path id="path15" style="baseline-shift:baseline;block-progression:tb;color:#000000;direction:ltr;text-indent:0;text-align:start;enable-background:accumulate;text-transform:none;" d="m58.531,131.62c-0.96431,0-1.9263,0.36376-2.6562,1.0938-1.4605,1.4592-1.46,3.8525,0,5.3125l7,7c1.46,1.46,3.8525,1.46,5.3125,0,1.4605-1.4592,1.46-3.8525,0-5.3125l-7-7c-0.73-0.72-1.692-1.09-2.657-1.09zm0,1.9688c0.44819,0,0.90199,0.18324,1.25,0.53125l7,7c0.69602,0.69602,0.69549,1.8052,0,2.5-0.67802,0.67802-1.7398,0.6742-2.4375,0.0312l-0.0625-0.0312-7-7c-0.69602-0.69602-0.69549-1.8052,0-2.5,0.34801-0.34801,0.80181-0.53125,1.25-0.53125z"/>
	<path id="path17" style="baseline-shift:baseline;block-progression:tb;color:#000000;direction:ltr;text-indent:0;text-align:start;enable-background:accumulate;text-transform:none;" d="m42.812,169.56c-2.0649,0-3.75,1.6858-3.75,3.75,0,2.0647,1.6853,3.7812,3.75,3.7812h9.9062c2.0647,0,3.75-1.717,3.75-3.7812,0.0014-2.065-1.6853-3.75-3.75-3.75h-9.9062zm0,2,9.9062,0c0.98332,0,1.7506,0.76704,1.75,1.75,0,0.98376-0.76668,1.7812-1.75,1.7812h-9.9062c-0.98332,0-1.75-0.79793-1.75-1.7812,0-0.98376,0.76489-1.75,1.75-1.75z"/>
	<path id="path19" style="baseline-shift:baseline;block-progression:tb;color:#000000;direction:ltr;text-indent:0;text-align:start;enable-background:accumulate;text-transform:none;" d="m65.531,200.53c-0.96427-0.00015-1.926,0.36354-2.6562,1.0938l-7,7c-1.4605,1.4592-1.46,3.8525,0,5.3125,1.4599,1.4586,3.8526,1.4586,5.3125,0l7-7c1.4607-1.4594,1.4602-3.8523,0-5.3125-0.72926-0.72993-1.692-1.0936-2.6562-1.0938zm0,1.9688c0.44823,0.0001,0.90326,0.18418,1.25,0.53125,0.6958,0.6958,0.69527,1.7741,0,2.4688l-7,7c-0.69606,0.69542-1.8039,0.69542-2.5,0-0.69602-0.69602-0.69549-1.7739,0-2.4688l7-7c0.34779-0.34779,0.80177-0.53135,1.25-0.53125z"/>
	<path id="path21" style="baseline-shift:baseline;block-progression:tb;color:#000000;direction:ltr;text-indent:0;text-align:start;enable-background:accumulate;text-transform:none;" d="m96.5,213.34c-2.0647,0-3.7812,1.6853-3.7812,3.75v9.9062c0,2.0658,1.7176,3.75,3.7812,3.75,2.0647,0,3.75-1.6853,3.75-3.75v-9.9062c0-2.0651-1.686-3.75-3.75-3.75zm0,2c0.98196,0,1.75,0.76712,1.75,1.75v9.9062c0,0.98332-0.76668,1.75-1.75,1.75-0.9824,0-1.7812-0.76577-1.7812-1.75v-9.9062c0-0.98332,0.79793-1.75,1.7812-1.75z"/>
	<path id="path23" style="baseline-shift:baseline;block-progression:tb;color:#000000;direction:ltr;text-indent:0;text-align:start;enable-background:accumulate;text-transform:none;" d="m127.44,200.53c-0.96424-0.00002-1.9263,0.36376-2.6562,1.0938-1.4591,1.4591-1.4602,3.8523,0,5.3125l7,7c1.4602,1.4588,3.8524,1.4588,5.3125,0,1.4588-1.4602,1.4588-3.8524,0-5.3125l-7-7c-0.72958-0.73025-1.692-1.0937-2.6562-1.0938zm0,1.9688c0.44801-0.00002,0.90258,0.1835,1.25,0.53125l7,7c0.6952,0.69585,0.6952,1.7729,0,2.4688-0.69585,0.6952-1.8042,0.6952-2.5,0l-7-7c-0.6958-0.6958-0.69489-1.7739,0-2.4688,0.34801-0.34801,0.80199-0.53123,1.25-0.53125z"/>
	<path id="path25" style="baseline-shift:baseline;block-progression:tb;color:#000000;direction:ltr;text-indent:0;text-align:start;enable-background:accumulate;text-transform:none;" d="m140.25,169.56c-2.066,0-3.75,1.6862-3.75,3.75,0,1.7041,1.1843,3.1078,2.75,3.5625v0.21875h1,9.9062c2.0643-0.001,3.75-1.7176,3.75-3.7812,0-2.0647-1.686-3.75-3.75-3.75h-9.9062zm0,2,9.9062,0c0.98196,0,1.75,0.76668,1.75,1.75,0,0.9824-0.76633,1.7806-1.75,1.7812h-8.9062-1c-0.98367-0.00065-1.75-0.8002-1.75-1.7812,0-0.98419,0.76397-1.75,1.75-1.75z"/>
	<path id="path27" style="baseline-shift:baseline;block-progression:tb;color:#000000;direction:ltr;text-indent:0;text-align:start;enable-background:accumulate;text-transform:none;" d="m134.44,131.62c-0.96384,0.00002-1.9267,0.36419-2.6562,1.0938l-7,7c-1.46,1.46-1.4612,3.8527,0,5.3125,1.4587,1.4601,3.853,1.4596,5.3125,0l7-7c1.4582-1.4595,1.4588-3.8524,0-5.3125-0.72997-0.72929-1.6924-1.0938-2.6562-1.0938zm0,1.9688c0.44791,0.00002,0.90197,0.18354,1.25,0.53125,0.6952,0.69585,0.69385,1.8055,0,2.5l-7,7c-0.69445,0.69445-1.8067,0.69392-2.5,0-0.69685-0.6962-0.69602-1.804,0-2.5l6.9375-6.9375,0.0625-0.0625c0.34744-0.34744,0.80209-0.53127,1.25-0.53125z"/>
	<path id="circle29" style="baseline-shift:baseline;block-progression:tb;color:#000000;direction:ltr;text-indent:0;text-align:start;enable-background:accumulate;text-transform:none;" d="m96.5,151.19c-12.206,0-22.125,9.9186-22.125,22.125s9.9186,22.125,22.125,22.125,22.125-9.9186,22.125-22.125-9.9186-22.125-22.125-22.125zm0,2c11.125,0,20.125,8.9995,20.125,20.125,0,11.125-8.9995,20.125-20.125,20.125-11.125,0-20.125-8.9995-20.125-20.125,0-11.125,8.9995-20.125,20.125-20.125z"/>
	<path id="circle31" style="baseline-shift:baseline;block-progression:tb;color:#000000;direction:ltr;text-indent:0;text-align:start;enable-background:accumulate;text-transform:none;" d="m96.5,143c-16.726,0-30.312,13.587-30.312,30.312,0,16.726,13.587,30.312,30.312,30.312,16.726,0,30.281-13.587,30.281-30.312,0-16.72-13.55-30.31-30.28-30.31zm0,2c15.645,0,28.281,12.668,28.281,28.312,0,15.645-12.636,28.312-28.281,28.312s-28.312-12.668-28.312-28.312c0.001-15.64,12.668-28.31,28.313-28.31z"/>
</g>
<path id="rect33" style="baseline-shift:baseline;block-progression:tb;color:#000000;direction:ltr;text-indent:0;text-align:start;enable-background:accumulate;text-transform:none;" fill="#f4f4f4" d="m13.688,10.656,0,1,0,48.344,0,1,1,0,162.91,0,1,0,0-1,0-48.344,0-1-1,0-162.91,0-1,0zm2,2,160.91,0,0,46.344-160.91,0,0-46.344z"/>
<path id="path35" style="baseline-shift:baseline;block-progression:tb;color:#000000;direction:ltr;text-indent:0;text-align:start;enable-background:accumulate;text-transform:none;" fill="#f4f4f4" d="M8.4375,0c-4.6395,0-8.4375,3.7677-8.4375,8.4062v106.59c0,3.9443,2.728,7.25,6.4062,8.1562l0.4688-1.94c-2.7997-0.69-4.875-3.19-4.875-6.22v-106.59c0-3.5574,2.879-6.4062,6.4375-6.4062h7.5938c1.8212,0,3.4569,0.75647,4.625,1.9688l1.438-1.4063c-1.53-1.5877-3.688-2.5625-6.063-2.5625h-7.5935z"/>
<path id="path37" style="baseline-shift:baseline;block-progression:tb;color:#000000;direction:ltr;text-indent:0;text-align:start;enable-background:accumulate;text-transform:none;" fill="#f4f4f4" d="m177.03,0c-2.3756,0-4.5311,0.97558-6.0625,2.5625l1.4375,1.4062c1.17-1.213,2.8-1.9687,4.62-1.9687h7.625c3.5598,0,6.4062,2.8477,6.4062,6.4062v106.59c0,3.0246-2.0755,5.529-4.875,6.2188l0.5,1.9375c3.6785-0.90627,6.375-4.2128,6.375-8.1562v-106.59c-0.02-4.6432-3.78-8.41-8.42-8.41h-7.625z"/>
</svg>
