<?xml version="1.0" encoding="UTF-8" standalone="no"?>
<!-- Generator: Adobe Illustrator 13.0.0, SVG Export Plug-In . SVG Version: 6.00 Build 14948)  -->
<svg id="Layer_3" xmlns:rdf="http://www.w3.org/1999/02/22-rdf-syntax-ns#" xmlns="http://www.w3.org/2000/svg" xml:space="preserve" height="459.63px" viewBox="0 0 271.61 459.63" width="271.61px" version="1.2" y="0px" x="0px" xmlns:cc="http://creativecommons.org/ns#" xmlns:dc="http://purl.org/dc/elements/1.1/"><metadata id="metadata101"><rdf:RDF><cc:Work rdf:about=""><dc:format>image/svg+xml</dc:format><dc:type rdf:resource="http://purl.org/dc/dcmitype/StillImage"/><dc:title/></cc:Work></rdf:RDF></metadata>
<path id="path3" style="baseline-shift:baseline;block-progression:tb;color:#000000;direction:ltr;text-indent:0;text-align:start;enable-background:accumulate;text-transform:none;" fill="#f4f4f4" d="M50.906,0c-7.832,0-29.073,1.4381-36.812,2.0938-3.957,0.3352-7.1752,1.2366-9.4065,3.6874-2.2313,2.4509-3.3006,6.2368-3.5,12.031-0.20135,5.838-0.505,52.603-0.75,100.6-0.245,47.99-0.4375,97.08-0.4375,107.15,0,10.086,0.40548,55.376,0.90625,99.562,0.25038,22.093,0.528,43.903,0.78125,60.875s0.4735,29.032,0.65625,31.906c0.52866,8.3266,2.129,14.435,4.9062,19.031,2.7773,4.5961,6.7447,7.6206,11.719,9.6875,9.9481,4.1338,23.975,4.7233,42.469,7.7188,37.165,6.0197,56.188,5.25,61.312,5.25h26.125c5.126,0,24.116,0.76972,61.281-5.25,18.493-2.9954,32.552-3.5849,42.5-7.7188,4.9741-2.0669,8.9101-5.0914,11.688-9.6875,2.7774-4.596,4.3773-10.705,4.9062-19.031,0.18219-2.874,0.40319-14.934,0.65625-31.906s0.53087-38.782,0.78125-60.875c0.50077-44.187,0.9375-89.477,0.9375-99.562,0-10.071-0.22387-59.165-0.46875-107.16-0.26-47.985-0.53-94.75-0.73-100.59-0.2-5.794-1.3-9.5799-3.53-12.031-2.24-2.4508-5.45-3.3522-9.41-3.6874-7.74-0.6557-28.95-2.0938-36.78-2.0938h-80.22-9.41-80.184zm0,2,80.188,0,9.4062,0,80.219,0c7.5827,0,28.949,1.4434,36.625,2.0938,3.7503,0.31776,6.3409,1.1061,8.0938,3.0312,1.7528,1.9252,2.8079,5.1795,3,10.75,0.19112,5.527,0.47388,52.573,0.71875,100.56,0.24487,47.989,0.46875,97.079,0.46875,107.12,0,10.031-0.43677,55.379-0.9375,99.562-0.25037,22.092-0.52825,43.876-0.78125,60.844s-0.49044,29.197-0.65625,31.812c-0.51658,8.1324-2.079,13.912-4.625,18.125-2.546,4.2132-6.0573,6.925-10.75,8.875-9.3853,3.8999-23.426,4.5802-42.031,7.5938-37.033,5.9983-55.643,5.2188-60.969,5.2188h-26.125c-5.325,0-23.936,0.77952-60.969-5.2188l-0.15625-0.0312c-18.516-2.9891-32.52-3.6751-41.875-7.5625-4.6926-1.95-8.2354-4.6618-10.781-8.875-2.5459-4.2132-4.1087-9.9926-4.625-18.125-0.1565-2.61-0.3933-14.84-0.6465-31.81s-0.5309-38.75-0.7813-60.85c-0.5007-44.18-0.9062-89.53-0.9062-99.56,0-10.04,0.1925-59.13,0.4375-107.12,0.245-47.992,0.5593-95.038,0.75-100.56,0.1916-5.571,1.2473-8.8248,3-10.75s4.3435-2.7135,8.0935-3.0312c7.677-0.6504,29.042-2.0938,36.625-2.0938z"/>
<path id="path5" style="baseline-shift:baseline;block-progression:tb;color:#000000;direction:ltr;text-indent:0;text-align:start;enable-background:accumulate;text-transform:none;" fill="#f4f4f4" d="m129.53,18.406c-22.223,0-91.322,0.54593-99.562,0.8125-4.0758,0.13135-7.3594,0.31478-9.8125,1.9375s-3.6875,4.6401-3.6875,9.5c0,4.6932-0.06113,46.446-0.09375,88.281-0.03261,41.82-0.0402,83.584,0.09375,88.844v0.0312c0.13088,5.1097,0.26288,8.6655,2.5,11.312,2.2371,2.647,6.2229,3.9953,13.469,5.3125,7.3718,1.3405,26.113,2.6445,45.688,3.625,19.574,0.98049,39.862,1.625,50.094,1.625h15.156c10.232,0,30.551-0.64451,50.125-1.625s38.316-2.2845,45.688-3.625c7.2464-1.3172,11.201-2.6654,13.438-5.3125s2.4004-6.2034,2.5312-11.312c0.1341-5.2349,0.12638-47.04,0.0937-88.875-0.0326-41.835-0.0937-83.587-0.0937-88.281,0-4.8604-1.2344-7.8774-3.6875-9.5s-5.7362-1.8062-9.8125-1.9375c-8.2394-0.26552-77.371-0.8125-99.594-0.8125h-12.531zm0,2,12.531,0c22.191,0,91.541,0.52477,99.5,0.78125,4.0237,0.12965,7.0201,0.47063,8.8125,1.6562s2.7812,3.2669,2.7812,7.8125c0,4.7122,0.0611,46.447,0.0937,88.281s0.0332,83.858-0.0937,88.812v0.0312c-0.13035,5.0566-0.38495,8.0461-2.0625,10.031-1.6818,1.9901-5.1576,3.3614-12.281,4.6562-6.9982,1.2725-25.888,2.6145-45.438,3.5938-19.55,0.97926-39.854,1.625-50,1.625h-15.156c-10.147,0-30.45-0.64574-50-1.625s-38.439-2.3212-45.438-3.5938c-7.114-1.3-10.59-2.67-12.272-4.66s-1.901-4.98-2.031-10.06c-0.127-4.95-0.127-46.98-0.094-88.81,0.03262-41.834,0.09375-83.57,0.09375-88.281,0-4.5451,0.98864-6.6267,2.7812-7.8125s4.7581-1.5266,8.7812-1.6562c7.9578-0.25743,77.309-0.78125,99.5-0.78125z"/>
<path id="path7" style="baseline-shift:baseline;block-progression:tb;color:#000000;direction:ltr;text-indent:0;text-align:start;enable-background:accumulate;text-transform:none;" fill="#f4f4f4" d="m59.344,40.719c-1.4053,0-2.5625,1.1561-2.5625,2.5625v136.22c0,1.4064,1.1572,2.5625,2.5625,2.5625h152.94c1.4056,0,2.5625-1.1568,2.5625-2.5625v-136.22c0-1.4053-1.1561-2.5625-2.5625-2.5625h-152.94zm0,2,152.94,0c0.32558,0,0.5625,0.23777,0.5625,0.5625v136.22c0,0.32635-0.23615,0.5625-0.5625,0.5625h-152.94c-0.32473,0-0.5625-0.23692-0.5625-0.5625v-136.22c0-0.32558,0.23777-0.5625,0.5625-0.5625z"/>
<path id="path9" style="baseline-shift:baseline;block-progression:tb;color:#000000;direction:ltr;text-indent:0;text-align:start;enable-background:accumulate;text-transform:none;" fill="#f4f4f4" d="m118.12,377.12c-3.3984,0-6.503,0.31929-8.875,1.125-1.186,0.40285-2.2026,0.93184-2.9688,1.6875-0.76613,0.75566-1.25,1.7803-1.25,2.9062,0,1.1261,0.48388,2.1504,1.25,2.9062,0.76612,0.75583,1.7828,1.2846,2.9688,1.6875,2.372,0.80585,5.4766,1.0938,8.875,1.0938s6.503-0.2879,8.875-1.0938c1.186-0.40293,2.2026-0.93167,2.9688-1.6875,0.76612-0.75583,1.25-1.7801,1.25-2.9062,0-1.126-0.48389-2.1505-1.25-2.9062-0.76611-0.75574-1.7828-1.2846-2.9688-1.6875-2.372-0.80585-5.4765-1.1255-8.875-1.125zm0,2c3.2745-0.00049,6.2175,0.3201,8.2188,1,1.0006,0.33995,1.762,0.76814,2.2188,1.2188,0.4568,0.45061,0.65625,0.89495,0.65625,1.5,0,0.60538-0.19947,1.0181-0.65625,1.4688-0.45678,0.45064-1.2181,0.8788-2.2188,1.2188-2.0012,0.6799-4.9442,1-8.2188,1s-6.2175-0.3201-8.2188-1c-1.0006-0.33995-1.762-0.76811-2.2188-1.2188-0.45678-0.45064-0.65625-0.86337-0.65625-1.4688,0-0.60505,0.19948-1.0495,0.65625-1.5,0.45677-0.45053,1.2181-0.87885,2.2188-1.2188,2.0013-0.67979,4.9442-1,8.2188-1z"/>
<path id="path11" style="baseline-shift:baseline;block-progression:tb;color:#000000;direction:ltr;text-indent:0;text-align:start;enable-background:accumulate;text-transform:none;" fill="#f4f4f4" d="m158.88,377.12c-3.3989,0-6.5031,0.31928-8.875,1.125-1.1859,0.40286-2.2027,0.93182-2.9688,1.6875-0.76605,0.75568-1.2188,1.7804-1.2188,2.9062,0,1.1261,0.45271,2.1504,1.2188,2.9062,0.76604,0.75584,1.7828,1.2846,2.9688,1.6875,2.3719,0.80586,5.4761,1.0938,8.875,1.0938s6.5029-0.2879,8.875-1.0938c1.1861-0.40292,2.2026-0.93167,2.9688-1.6875,0.76614-0.75583,1.25-1.7801,1.25-2.9062,0-1.126-0.48385-2.1506-1.25-2.9062-0.76615-0.75566-1.7827-1.2846-2.9688-1.6875-2.3721-0.8057-5.4761-1.125-8.875-1.125zm0,2c3.2751,0,6.2173,0.3202,8.2188,1,1.0007,0.3399,1.762,0.76822,2.2188,1.2188,0.45678,0.45053,0.65625,0.89495,0.65625,1.5,0,0.60538-0.19946,1.0181-0.65625,1.4688-0.45679,0.45064-1.2181,0.8788-2.2188,1.2188-2.0014,0.6799-4.9437,1-8.2188,1s-6.2176-0.32011-8.2188-1c-1.0006-0.33994-1.762-0.76812-2.2188-1.2188-0.45671-0.45063-0.625-0.86332-0.625-1.4688,0-0.6051,0.1683-1.0495,0.625-1.5,0.4567-0.45051,1.2182-0.87886,2.2188-1.2188,2.0011-0.67978,4.9437-1,8.2188-1z"/>
<path id="path13" style="baseline-shift:baseline;block-progression:tb;color:#000000;direction:ltr;text-indent:0;text-align:start;enable-background:accumulate;text-transform:none;" fill="#f4f4f4" d="m51.219,272.44c-2.8484,0-5.1875,2.338-5.1875,5.1875v15.844c0,0.15643,0.0097,0.0984,0,0.15625h-15.969c-2.8492,0-5.1875,2.3063-5.1875,5.1562v11.594c0,2.8503,2.3391,5.1875,5.1875,5.1875h15.969v15.969c0,2.8487,2.3388,5.1875,5.1875,5.1875h11.594c2.8487,0,5.1562-2.3388,5.1562-5.1875v-15.812c0-0.14183,0.02394-0.11896,0.03125-0.15625h15.969c2.8492,0,5.1875-2.3375,5.1875-5.1875v-11.594c0-2.8503-2.3391-5.1562-5.1875-5.1562h-16c-0.0051-0.0285,0,0.0297,0-0.0625v-15.938c0-2.8495-2.3078-5.1875-5.1562-5.1875h-11.594zm0,2,11.594,0c1.7676,0,3.1562,1.419,3.1562,3.1875v15.938c0,0.48117,0.08239,1.0262,0.46875,1.4688,0.38636,0.44252,0.97076,0.59375,1.4688,0.59375h16.062c1.7676,0,3.1875,1.3865,3.1875,3.1562v11.594c0,1.77-1.4187,3.1875-3.1875,3.1875h-16.031c-0.59438,0-1.2547,0.26208-1.5938,0.75-0.33906,0.48792-0.375,0.98208-0.375,1.4062v15.812c0,1.7673-1.389,3.1875-3.1562,3.1875h-11.594c-1.7673,0-3.1875-1.4202-3.1875-3.1875v-16.094c0-0.17893,0.06244-0.58185-0.25-1.0938-0.31244-0.5119-0.99261-0.78125-1.625-0.78125h-16.094c-1.7676,0-3.1875-1.4178-3.1875-3.1875v-11.594c0-1.77,1.4187-3.1562,3.1875-3.1562h16.156c0.54484,0,1.2249-0.28157,1.5312-0.78125,0.30632-0.49968,0.28125-0.94386,0.28125-1.375v-15.844c0-1.7685,1.4199-3.1875,3.1875-3.1875z"/>
<g id="g15">
	<path id="path17" stroke="#F4F4F4" stroke-width="2" d="M70.596,299.8c0-0.637,0.517-1.154,1.154-1.154,0.202,0,0.391,0.052,0.556,0.143l9.24,4.916c0.253,0.211,0.415,0.529,0.415,0.885,0,0.37-0.174,0.7-0.445,0.911l-9.229,4.902c-0.16,0.084-0.343,0.131-0.537,0.131-0.637,0-1.154-0.516-1.154-1.154v-9.595z" fill="none"/>
</g>
<path id="circle19" style="baseline-shift:baseline;block-progression:tb;color:#000000;direction:ltr;text-indent:0;text-align:start;enable-background:accumulate;text-transform:none;" fill="#f4f4f4" d="m57,296.72c-4.328,0-7.8438,3.547-7.8438,7.875s3.5157,7.8438,7.8438,7.8438c4.328,0,7.875-3.5157,7.875-7.8438,0-4.328-3.547-7.875-7.875-7.875zm0,2c3.2471,0,5.875,2.6279,5.875,5.875s-2.6279,5.8438-5.875,5.8438-5.8438-2.5966-5.8438-5.8438c0-3.2471,2.5966-5.875,5.8438-5.875z"/>
<g id="g21">
	<path id="path23" stroke="#F4F4F4" stroke-width="2" d="M52.22,291c-0.637,0-1.154-0.517-1.154-1.154,0-0.202,0.052-0.391,0.143-0.557l4.915-9.239c0.212-0.254,0.53-0.415,0.886-0.415,0.37,0,0.7,0.174,0.911,0.445l4.902,9.229c0.084,0.16,0.131,0.343,0.131,0.536,0,0.638-0.517,1.154-1.154,1.154h-9.58z" fill="none"/>
</g>
<g id="g25">
	<path id="path27" stroke="#F4F4F4" stroke-width="2" d="M43.424,309.38c0,0.637-0.517,1.154-1.154,1.154-0.201,0-0.391-0.052-0.556-0.143l-9.24-4.916c-0.253-0.211-0.415-0.529-0.415-0.885,0-0.37,0.174-0.7,0.446-0.911l9.229-4.902c0.161-0.084,0.343-0.131,0.536-0.131,0.637,0,1.154,0.516,1.154,1.154v9.585z" fill="none"/>
</g>
<g id="g29">
	<path id="path31" stroke="#F4F4F4" stroke-width="2" d="M61.8,318.17c0.637,0,1.154,0.518,1.154,1.154,0,0.202-0.052,0.391-0.143,0.557l-4.916,9.239c-0.212,0.254-0.53,0.415-0.885,0.415-0.371,0-0.7-0.174-0.912-0.445l-4.901-9.229c-0.084-0.16-0.132-0.343-0.132-0.536,0-0.637,0.517-1.154,1.154-1.154h9.581z" fill="none"/>
</g>
<path id="circle33" style="baseline-shift:baseline;block-progression:tb;color:#000000;direction:ltr;text-indent:0;text-align:start;enable-background:accumulate;text-transform:none;" fill="#f4f4f4" d="m185.44,294.12c-9.8713,0-17.906,8.0037-17.906,17.875s8.035,17.906,17.906,17.906c9.8713,0,17.906-8.035,17.906-17.906,0-9.8713-8.035-17.875-17.906-17.875zm0,2c8.7904,0,15.906,7.0846,15.906,15.875s-7.1158,15.906-15.906,15.906c-8.7904,0-15.906-7.1158-15.906-15.906,0-8.7904,7.1158-15.875,15.906-15.875z"/>
<path id="circle35" style="baseline-shift:baseline;block-progression:tb;color:#000000;direction:ltr;text-indent:0;text-align:start;enable-background:accumulate;text-transform:none;" fill="#f4f4f4" d="m235.09,277.91c-9.8713,0-17.906,8.035-17.906,17.906,0,9.8713,8.035,17.906,17.906,17.906,9.8713,0,17.875-8.035,17.875-17.906,0-9.8713-8.0037-17.906-17.875-17.906zm0,2c8.7904,0,15.875,7.1158,15.875,15.906,0,8.7904-7.0846,15.906-15.875,15.906s-15.906-7.1158-15.906-15.906c0-8.7904,7.1158-15.906,15.906-15.906z"/>
<path id="circle37" style="baseline-shift:baseline;block-progression:tb;color:#000000;direction:ltr;text-indent:0;text-align:start;enable-background:accumulate;text-transform:none;" fill="#f4f4f4" d="m201.41,389.5c-1.6704,0-3.0625,1.3608-3.0625,3.0312s1.3921,3.0625,3.0625,3.0625,3.0312-1.3921,3.0312-3.0625-1.3608-3.0312-3.0312-3.0312zm0,2c0.58953,0,1.0312,0.44172,1.0312,1.0312,0,0.58953-0.44172,1.0625-1.0312,1.0625-0.58953,0-1.0625-0.47297-1.0625-1.0625s0.47297-1.0312,1.0625-1.0312z"/>
<path id="circle39" style="baseline-shift:baseline;block-progression:tb;color:#000000;direction:ltr;text-indent:0;text-align:start;enable-background:accumulate;text-transform:none;" fill="#f4f4f4" d="m201.41,404.59c-1.6704,0-3.0625,1.3921-3.0625,3.0625s1.3921,3.0312,3.0625,3.0312,3.0312-1.3608,3.0312-3.0312-1.3608-3.0625-3.0312-3.0625zm0,2c0.58953,0,1.0312,0.47297,1.0312,1.0625s-0.44172,1.0312-1.0312,1.0312c-0.58953,0-1.0625-0.44172-1.0625-1.0312,0-0.58953,0.47297-1.0625,1.0625-1.0625z"/>
<path id="circle41" style="baseline-shift:baseline;block-progression:tb;color:#000000;direction:ltr;text-indent:0;text-align:start;enable-background:accumulate;text-transform:none;" fill="#f4f4f4" d="m201.41,419.72c-1.6704,0-3.0625,1.3608-3.0625,3.0312s1.3921,3.0625,3.0625,3.0625,3.0312-1.3921,3.0312-3.0625-1.3608-3.0312-3.0312-3.0312zm0,2c0.58953,0,1.0312,0.44172,1.0312,1.0312,0,0.58953-0.44172,1.0625-1.0312,1.0625-0.58953,0-1.0625-0.47297-1.0625-1.0625s0.47297-1.0312,1.0625-1.0312z"/>
<path id="circle43" style="baseline-shift:baseline;block-progression:tb;color:#000000;direction:ltr;text-indent:0;text-align:start;enable-background:accumulate;text-transform:none;" fill="#f4f4f4" d="m209.25,380.88c-1.6704,0-3.0625,1.3608-3.0625,3.0312s1.3921,3.0625,3.0625,3.0625,3.0312-1.3921,3.0312-3.0625-1.3608-3.0312-3.0312-3.0312zm0,2c0.58953,0,1.0312,0.44172,1.0312,1.0312,0,0.58953-0.44172,1.0625-1.0312,1.0625-0.58953,0-1.0625-0.47297-1.0625-1.0625s0.47297-1.0312,1.0625-1.0312z"/>
<path id="circle45" style="baseline-shift:baseline;block-progression:tb;color:#000000;direction:ltr;text-indent:0;text-align:start;enable-background:accumulate;text-transform:none;" fill="#f4f4f4" d="m209.25,395.84c-1.6704,0-3.0625,1.3921-3.0625,3.0625s1.3921,3.0312,3.0625,3.0312,3.0312-1.3608,3.0312-3.0312-1.3608-3.0625-3.0312-3.0625zm0,2c0.58953,0,1.0312,0.47297,1.0312,1.0625s-0.44172,1.0312-1.0312,1.0312c-0.58953,0-1.0625-0.44172-1.0625-1.0312,0-0.58953,0.47297-1.0625,1.0625-1.0625z"/>
<path id="circle47" style="baseline-shift:baseline;block-progression:tb;color:#000000;direction:ltr;text-indent:0;text-align:start;enable-background:accumulate;text-transform:none;" fill="#f4f4f4" d="m209.25,410.84c-1.6704,0-3.0625,1.3608-3.0625,3.0312s1.3921,3.0625,3.0625,3.0625,3.0312-1.3921,3.0312-3.0625-1.3608-3.0312-3.0312-3.0312zm0,2c0.58953,0,1.0312,0.44172,1.0312,1.0312,0,0.58953-0.44172,1.0625-1.0312,1.0625-0.58953,0-1.0625-0.47297-1.0625-1.0625s0.47297-1.0312,1.0625-1.0312z"/>
<path id="circle49" style="baseline-shift:baseline;block-progression:tb;color:#000000;direction:ltr;text-indent:0;text-align:start;enable-background:accumulate;text-transform:none;" fill="#f4f4f4" d="m209.25,425.81c-1.6704,0-3.0625,1.3608-3.0625,3.0312s1.3921,3.0625,3.0625,3.0625,3.0312-1.3921,3.0312-3.0625-1.3608-3.0312-3.0312-3.0312zm0,2c0.58953,0,1.0312,0.44172,1.0312,1.0312,0,0.58953-0.44172,1.0625-1.0312,1.0625-0.58953,0-1.0625-0.47297-1.0625-1.0625s0.47297-1.0312,1.0625-1.0312z"/>
<path id="circle51" style="baseline-shift:baseline;block-progression:tb;color:#000000;direction:ltr;text-indent:0;text-align:start;enable-background:accumulate;text-transform:none;" fill="#f4f4f4" d="m216.81,387.22c-1.6704,0-3.0312,1.3921-3.0312,3.0625s1.3608,3.0312,3.0312,3.0312,3.0625-1.3608,3.0625-3.0312-1.3921-3.0625-3.0625-3.0625zm0,2c0.58953,0,1.0625,0.47297,1.0625,1.0625s-0.47297,1.0312-1.0625,1.0312-1.0312-0.44172-1.0312-1.0312c0-0.58953,0.44172-1.0625,1.0312-1.0625z"/>
<path id="circle53" style="baseline-shift:baseline;block-progression:tb;color:#000000;direction:ltr;text-indent:0;text-align:start;enable-background:accumulate;text-transform:none;" fill="#f4f4f4" d="m216.81,402.22c-1.6704,0-3.0312,1.3608-3.0312,3.0312s1.3608,3.0625,3.0312,3.0625,3.0625-1.3921,3.0625-3.0625-1.3921-3.0312-3.0625-3.0312zm0,2c0.58953,0,1.0625,0.44172,1.0625,1.0312,0,0.58953-0.47297,1.0625-1.0625,1.0625s-1.0312-0.47297-1.0312-1.0625,0.44172-1.0312,1.0312-1.0312z"/>
<path id="circle55" style="baseline-shift:baseline;block-progression:tb;color:#000000;direction:ltr;text-indent:0;text-align:start;enable-background:accumulate;text-transform:none;" fill="#f4f4f4" d="m216.81,417.19c-1.6704,0-3.0312,1.3921-3.0312,3.0625s1.3608,3.0312,3.0312,3.0312,3.0625-1.3608,3.0625-3.0312-1.3921-3.0625-3.0625-3.0625zm0,2c0.58953,0,1.0625,0.47297,1.0625,1.0625s-0.47297,1.0312-1.0625,1.0312-1.0312-0.44172-1.0312-1.0312c0-0.58953,0.44172-1.0625,1.0312-1.0625z"/>
<path id="circle57" style="baseline-shift:baseline;block-progression:tb;color:#000000;direction:ltr;text-indent:0;text-align:start;enable-background:accumulate;text-transform:none;" fill="#f4f4f4" d="m216.81,432.16c-1.6704,0-3.0312,1.3921-3.0312,3.0625s1.3608,3.0312,3.0312,3.0312,3.0625-1.3608,3.0625-3.0312-1.3921-3.0625-3.0625-3.0625zm0,2c0.58953,0,1.0625,0.47297,1.0625,1.0625s-0.47297,1.0312-1.0625,1.0312-1.0312-0.44172-1.0312-1.0312c0-0.58953,0.44172-1.0625,1.0312-1.0625z"/>
<path id="circle59" style="baseline-shift:baseline;block-progression:tb;color:#000000;direction:ltr;text-indent:0;text-align:start;enable-background:accumulate;text-transform:none;" fill="#f4f4f4" d="m224.81,378.09c-1.6704,0-3.0312,1.3608-3.0312,3.0312s1.3608,3.0625,3.0312,3.0625,3.0625-1.3921,3.0625-3.0625-1.3921-3.0312-3.0625-3.0312zm0,2c0.58953,0,1.0625,0.44172,1.0625,1.0312,0,0.58953-0.47297,1.0625-1.0625,1.0625s-1.0312-0.47297-1.0312-1.0625,0.44172-1.0312,1.0312-1.0312z"/>
<path id="circle61" style="baseline-shift:baseline;block-progression:tb;color:#000000;direction:ltr;text-indent:0;text-align:start;enable-background:accumulate;text-transform:none;" fill="#f4f4f4" d="m224.81,393.06c-1.6704,0-3.0312,1.3921-3.0312,3.0625s1.3608,3.0312,3.0312,3.0312,3.0625-1.3608,3.0625-3.0312-1.3921-3.0625-3.0625-3.0625zm0,2c0.58953,0,1.0625,0.47297,1.0625,1.0625s-0.47297,1.0312-1.0625,1.0312-1.0312-0.44172-1.0312-1.0312c0-0.58953,0.44172-1.0625,1.0312-1.0625z"/>
<path id="circle63" style="baseline-shift:baseline;block-progression:tb;color:#000000;direction:ltr;text-indent:0;text-align:start;enable-background:accumulate;text-transform:none;" fill="#f4f4f4" d="m224.81,408.03c-1.6704,0-3.0312,1.3921-3.0312,3.0625s1.3608,3.0312,3.0312,3.0312,3.0625-1.3608,3.0625-3.0312-1.3921-3.0625-3.0625-3.0625zm0,2c0.58953,0,1.0625,0.47297,1.0625,1.0625s-0.47297,1.0312-1.0625,1.0312-1.0312-0.44172-1.0312-1.0312c0-0.58953,0.44172-1.0625,1.0312-1.0625z"/>
<path id="circle65" style="baseline-shift:baseline;block-progression:tb;color:#000000;direction:ltr;text-indent:0;text-align:start;enable-background:accumulate;text-transform:none;" fill="#f4f4f4" d="m224.81,423.03c-1.6704,0-3.0312,1.3608-3.0312,3.0312s1.3608,3.0625,3.0312,3.0625,3.0625-1.3921,3.0625-3.0625-1.3921-3.0312-3.0625-3.0312zm0,2c0.58953,0,1.0625,0.44172,1.0625,1.0312,0,0.58953-0.47297,1.0625-1.0625,1.0625s-1.0312-0.47297-1.0312-1.0625,0.44172-1.0312,1.0312-1.0312z"/>
<path id="circle67" style="baseline-shift:baseline;block-progression:tb;color:#000000;direction:ltr;text-indent:0;text-align:start;enable-background:accumulate;text-transform:none;" fill="#f4f4f4" d="m232.22,384.19c-1.6704,0-3.0312,1.3608-3.0312,3.0312s1.3608,3.0625,3.0312,3.0625,3.0625-1.3921,3.0625-3.0625-1.3921-3.0312-3.0625-3.0312zm0,2c0.58953,0,1.0625,0.44172,1.0625,1.0312,0,0.58953-0.47297,1.0625-1.0625,1.0625s-1.0312-0.47297-1.0312-1.0625,0.44172-1.0312,1.0312-1.0312z"/>
<path id="circle69" style="baseline-shift:baseline;block-progression:tb;color:#000000;direction:ltr;text-indent:0;text-align:start;enable-background:accumulate;text-transform:none;" fill="#f4f4f4" d="m232.22,399.16c-1.6704,0-3.0312,1.3921-3.0312,3.0625s1.3608,3.0312,3.0312,3.0312,3.0625-1.3608,3.0625-3.0312-1.3921-3.0625-3.0625-3.0625zm0,2c0.58953,0,1.0625,0.47297,1.0625,1.0625s-0.47297,1.0312-1.0625,1.0312-1.0312-0.44172-1.0312-1.0312c0-0.58953,0.44172-1.0625,1.0312-1.0625z"/>
<path id="circle71" style="baseline-shift:baseline;block-progression:tb;color:#000000;direction:ltr;text-indent:0;text-align:start;enable-background:accumulate;text-transform:none;" fill="#f4f4f4" d="m232.22,414.16c-1.6704,0-3.0312,1.3608-3.0312,3.0312s1.3608,3.0312,3.0312,3.0312,3.0625-1.3608,3.0625-3.0312-1.3921-3.0312-3.0625-3.0312zm0,2c0.58953,0,1.0625,0.44172,1.0625,1.0312,0,0.58953-0.47297,1.0312-1.0625,1.0312s-1.0312-0.44172-1.0312-1.0312c0-0.58953,0.44172-1.0312,1.0312-1.0312z"/>
<path id="circle73" style="baseline-shift:baseline;block-progression:tb;color:#000000;direction:ltr;text-indent:0;text-align:start;enable-background:accumulate;text-transform:none;" fill="#f4f4f4" d="m232.22,429.12c-1.6704,0-3.0312,1.3608-3.0312,3.0312s1.3608,3.0625,3.0312,3.0625,3.0625-1.3921,3.0625-3.0625-1.3921-3.0312-3.0625-3.0312zm0,2c0.58953,0,1.0625,0.44172,1.0625,1.0312,0,0.58953-0.47297,1.0625-1.0625,1.0625s-1.0312-0.47297-1.0312-1.0625,0.44172-1.0312,1.0312-1.0312z"/>
<path id="circle75" style="baseline-shift:baseline;block-progression:tb;color:#000000;direction:ltr;text-indent:0;text-align:start;enable-background:accumulate;text-transform:none;" fill="#f4f4f4" d="m239.91,374.97c-1.6704,0-3.0625,1.3608-3.0625,3.0312s1.3921,3.0312,3.0625,3.0312,3.0312-1.3608,3.0312-3.0312-1.3608-3.0312-3.0312-3.0312zm0,2c0.58953,0,1.0312,0.44172,1.0312,1.0312,0,0.58953-0.44172,1.0312-1.0312,1.0312-0.58953,0-1.0625-0.44172-1.0625-1.0312,0-0.58953,0.47297-1.0312,1.0625-1.0312z"/>
<path id="circle77" style="baseline-shift:baseline;block-progression:tb;color:#000000;direction:ltr;text-indent:0;text-align:start;enable-background:accumulate;text-transform:none;" fill="#f4f4f4" d="m239.91,389.94c-1.6704,0-3.0625,1.3608-3.0625,3.0312s1.3921,3.0625,3.0625,3.0625,3.0312-1.3921,3.0312-3.0625-1.3608-3.0312-3.0312-3.0312zm0,2c0.58953,0,1.0312,0.44172,1.0312,1.0312,0,0.58953-0.44172,1.0625-1.0312,1.0625-0.58953,0-1.0625-0.47297-1.0625-1.0625s0.47297-1.0312,1.0625-1.0312z"/>
<path id="circle79" style="baseline-shift:baseline;block-progression:tb;color:#000000;direction:ltr;text-indent:0;text-align:start;enable-background:accumulate;text-transform:none;" fill="#f4f4f4" d="m239.91,404.91c-1.6704,0-3.0625,1.3921-3.0625,3.0625s1.3921,3.0312,3.0625,3.0312,3.0312-1.3608,3.0312-3.0312-1.3608-3.0625-3.0312-3.0625zm0,2c0.58953,0,1.0312,0.47297,1.0312,1.0625s-0.44172,1.0312-1.0312,1.0312c-0.58953,0-1.0625-0.44172-1.0625-1.0312,0-0.58953,0.47297-1.0625,1.0625-1.0625z"/>
<path id="circle81" style="baseline-shift:baseline;block-progression:tb;color:#000000;direction:ltr;text-indent:0;text-align:start;enable-background:accumulate;text-transform:none;" fill="#f4f4f4" d="m239.91,419.88c-1.6704,0-3.0625,1.3921-3.0625,3.0625s1.3921,3.0312,3.0625,3.0312,3.0312-1.3608,3.0312-3.0312-1.3608-3.0625-3.0312-3.0625zm0,2c0.58953,0,1.0312,0.47297,1.0312,1.0625s-0.44172,1.0312-1.0312,1.0312c-0.58953,0-1.0625-0.44172-1.0625-1.0312,0-0.58953,0.47297-1.0625,1.0625-1.0625z"/>
<path id="circle83" style="baseline-shift:baseline;block-progression:tb;color:#000000;direction:ltr;text-indent:0;text-align:start;enable-background:accumulate;text-transform:none;" fill="#f4f4f4" d="m247.38,380.62c-1.6704,0-3.0312,1.3608-3.0312,3.0312s1.3608,3.0625,3.0312,3.0625,3.0625-1.3921,3.0625-3.0625-1.3921-3.0312-3.0625-3.0312zm0,2c0.58953,0,1.0625,0.44172,1.0625,1.0312,0,0.58953-0.47297,1.0625-1.0625,1.0625s-1.0312-0.47297-1.0312-1.0625,0.44172-1.0312,1.0312-1.0312z"/>
<path id="circle85" style="baseline-shift:baseline;block-progression:tb;color:#000000;direction:ltr;text-indent:0;text-align:start;enable-background:accumulate;text-transform:none;" fill="#f4f4f4" d="m247.38,395.59c-1.6704,0-3.0312,1.3608-3.0312,3.0312s1.3608,3.0625,3.0312,3.0625,3.0625-1.3921,3.0625-3.0625-1.3921-3.0312-3.0625-3.0312zm0,2c0.58953,0,1.0625,0.44172,1.0625,1.0312,0,0.58953-0.47297,1.0625-1.0625,1.0625s-1.0312-0.47297-1.0312-1.0625,0.44172-1.0312,1.0312-1.0312z"/>
<path id="circle87" style="baseline-shift:baseline;block-progression:tb;color:#000000;direction:ltr;text-indent:0;text-align:start;enable-background:accumulate;text-transform:none;" fill="#f4f4f4" d="m247.38,410.56c-1.6704,0-3.0312,1.3921-3.0312,3.0625s1.3608,3.0312,3.0312,3.0312,3.0625-1.3608,3.0625-3.0312-1.3921-3.0625-3.0625-3.0625zm0,2c0.58953,0,1.0625,0.47297,1.0625,1.0625s-0.47297,1.0312-1.0625,1.0312-1.0312-0.44172-1.0312-1.0312c0-0.58953,0.44172-1.0625,1.0312-1.0625z"/>
<path id="circle89" style="baseline-shift:baseline;block-progression:tb;color:#000000;direction:ltr;text-indent:0;text-align:start;enable-background:accumulate;text-transform:none;" fill="#f4f4f4" d="m254.88,386c-1.6704,0-3.0625,1.3921-3.0625,3.0625s1.3921,3.0312,3.0625,3.0312,3.0312-1.3608,3.0312-3.0312-1.3608-3.0625-3.0312-3.0625zm0,2c0.58953,0,1.0312,0.47297,1.0312,1.0625s-0.44172,1.0312-1.0312,1.0312c-0.58953,0-1.0625-0.44172-1.0625-1.0312,0-0.58953,0.47297-1.0625,1.0625-1.0625z"/>
<path id="circle91" style="baseline-shift:baseline;block-progression:tb;color:#000000;direction:ltr;text-indent:0;text-align:start;enable-background:accumulate;text-transform:none;" fill="#f4f4f4" d="m254.88,401c-1.6704,0-3.0625,1.3608-3.0625,3.0312s1.3921,3.0625,3.0625,3.0625,3.0312-1.3921,3.0312-3.0625-1.3608-3.0312-3.0312-3.0312zm0,2c0.58953,0,1.0312,0.44172,1.0312,1.0312,0,0.58953-0.44172,1.0625-1.0312,1.0625-0.58953,0-1.0625-0.47297-1.0625-1.0625s0.47297-1.0312,1.0625-1.0312z"/>
<path id="circle93" style="baseline-shift:baseline;block-progression:tb;color:#000000;direction:ltr;text-indent:0;text-align:start;enable-background:accumulate;text-transform:none;" fill="#f4f4f4" d="m254.88,415.97c-1.6704,0-3.0625,1.3921-3.0625,3.0625s1.3921,3.0312,3.0625,3.0312,3.0312-1.3608,3.0312-3.0312-1.3608-3.0625-3.0312-3.0625zm0,2c0.58953,0,1.0312,0.47297,1.0312,1.0625s-0.44172,1.0312-1.0312,1.0312c-0.58953,0-1.0625-0.44172-1.0625-1.0312,0-0.58953,0.47297-1.0625,1.0625-1.0625z"/>
<path id="circle95" style="baseline-shift:baseline;block-progression:tb;color:#000000;direction:ltr;text-indent:0;text-align:start;enable-background:accumulate;text-transform:none;" fill="#f4f4f4" d="m247.38,425.56c-1.6704,0-3.0312,1.3608-3.0312,3.0312s1.3608,3.0625,3.0312,3.0625,3.0625-1.3921,3.0625-3.0625-1.3921-3.0312-3.0625-3.0312zm0,2c0.58953,0,1.0625,0.44172,1.0625,1.0312,0,0.58953-0.47297,1.0625-1.0625,1.0625s-1.0312-0.47297-1.0312-1.0625,0.44172-1.0312,1.0312-1.0312z"/>
</svg>
