<?xml version="1.0" encoding="UTF-8" standalone="no"?>
<!-- Generator: Adobe Illustrator 13.0.0, SVG Export Plug-In . SVG Version: 6.00 Build 14948)  -->
<svg id="Layer_3" xmlns:rdf="http://www.w3.org/1999/02/22-rdf-syntax-ns#" xmlns="http://www.w3.org/2000/svg" xml:space="preserve" height="350.26px" viewBox="0 0 598.191 350.257" width="598.19px" version="1.2" y="0px" x="0px" xmlns:cc="http://creativecommons.org/ns#" xmlns:dc="http://purl.org/dc/elements/1.1/"><metadata id="metadata55"><rdf:RDF><cc:Work rdf:about=""><dc:format>image/svg+xml</dc:format><dc:type rdf:resource="http://purl.org/dc/dcmitype/StillImage"/><dc:title/></cc:Work></rdf:RDF></metadata>
<path id="path3" style="baseline-shift:baseline;block-progression:tb;color:#000000;direction:ltr;text-indent:0;text-align:start;enable-background:accumulate;text-transform:none;" fill="#f4f4f4" d="M294.78,0c-91.93,0-172.38,31.981-204.97,48.531-16.879,8.574-41.048,24.857-60.093,48.375-19.045,23.514-32.958,54.324-29.063,91.714,4.9996,47.998,27.068,87.065,50.562,114.66,11.747,13.795,23.846,24.715,34.375,32.469,10.529,7.7536,19.426,12.372,25.094,13.469,8.1265,1.5729,18.219,1.6845,28.031-1.9375,9.8125-3.622,19.294-11.037,26.094-24.375,13.446-26.375,21.082-52.288,48-66,27.04-13.775,62.088-16.375,69.594-16.375h33.375c7.5068,0,42.555,2.6004,69.594,16.375l0.19,0.1c26.76,13.738,34.399,39.595,47.812,65.906,6.7999,13.338,16.281,20.753,26.094,24.375,9.8125,3.6221,19.905,3.5104,28.031,1.9375,5.6673-1.0968,14.565-5.7151,25.094-13.469,10.529-7.7536,22.628-18.673,34.375-32.469,23.495-27.591,45.562-66.658,50.562-114.66,3.8947-37.392-10.017-68.2-29.062-91.719-19.04-23.513-43.21-39.796-60.08-48.37-32.59-16.549-113.04-48.531-204.97-48.531h-8.625zm0,2,8.625,0c91.467,0,171.74,31.894,204.06,48.312,16.654,8.4598,40.661,24.618,59.469,47.844,18.808,23.225,32.426,53.457,28.594,90.25-4.9489,47.506-26.802,86.242-50.094,113.59-11.646,13.676-23.636,24.501-34.031,32.156-10.395,7.6554-19.279,12.126-24.281,13.094-7.8435,1.5181-17.591,1.6179-26.969-1.8438-9.3778-3.4616-18.405-10.47-25-23.406-13.342-26.171-21.186-52.769-48.875-66.875-27.567-14.043-62.549-16.594-70.5-16.594h-33.375c-7.9467,0-42.907,2.5356-70.469,16.562l-0.0312,0.0312c-27.69,14.106-35.533,40.704-48.875,66.875-6.5951,12.937-15.622,19.945-25,23.406-9.3777,3.4615-19.125,3.3619-26.969,1.8438-4.99-0.97-13.873-5.44-24.269-13.09-10.395-7.66-22.385-18.48-34.031-32.16-23.291-27.35-45.145-66.09-50.094-113.59-3.8322-36.8,9.7858-67.03,28.594-90.254,18.808-23.225,42.815-39.384,59.469-47.844,32.331-16.419,112.59-48.312,204.06-48.312z"/>
<path id="circle5" style="baseline-shift:baseline;block-progression:tb;color:#000000;direction:ltr;text-indent:0;text-align:start;enable-background:accumulate;text-transform:none;" fill="#f4f4f4" d="m139.53,59.75c-51.186,0-92.688,41.502-92.688,92.688s41.502,92.719,92.688,92.719,92.719-41.533,92.719-92.719-41.533-92.688-92.719-92.688zm0,2c50.105,0,90.719,40.583,90.719,90.688s-40.614,90.719-90.719,90.719-90.688-40.614-90.688-90.719,40.583-90.688,90.688-90.688z"/>
<path id="circle7" style="baseline-shift:baseline;block-progression:tb;color:#000000;direction:ltr;text-indent:0;text-align:start;enable-background:accumulate;text-transform:none;" fill="#f4f4f4" d="m139.53,79.344c-40.373,0-73.094,32.72-73.094,73.094,0,40.373,32.72,73.125,73.094,73.125,40.373,0,73.125-32.752,73.125-73.125s-32.752-73.094-73.125-73.094zm0,2c39.293,0,71.125,31.801,71.125,71.094s-31.832,71.125-71.125,71.125-71.094-31.832-71.094-71.125,31.801-71.094,71.094-71.094z"/>
<path id="circle9" style="baseline-shift:baseline;block-progression:tb;color:#000000;direction:ltr;text-indent:0;text-align:start;enable-background:accumulate;text-transform:none;" fill="#f4f4f4" d="m139.53,97.625c-30.273,0-54.812,24.54-54.812,54.812,0,30.273,24.54,54.844,54.812,54.844,30.273,0,54.844-24.571,54.844-54.844s-24.571-54.812-54.844-54.812zm0,2c29.192,0,52.844,23.621,52.844,52.812,0,29.192-23.652,52.844-52.844,52.844s-52.812-23.652-52.812-52.844,23.621-52.812,52.812-52.812z"/>
<path id="path11" style="baseline-shift:baseline;block-progression:tb;color:#000000;direction:ltr;text-indent:0;text-align:start;enable-background:accumulate;text-transform:none;" fill="#f4f4f4" d="m129.59,101.75c-1.8201,0-3.3125,1.4913-3.3125,3.3125v27.875c0,2.1179-0.62293,3.6064-1.6875,4.625s-2.6671,1.625-4.8438,1.625h-27.594c-1.8206,0-3.3125,1.4919-3.3125,3.3125v19.906c0,1.8212,1.4925,3.3125,3.3125,3.3125h27.594c2.021,0,3.638,0.62774,4.75,1.7188,1.112,1.091,1.7812,2.6901,1.7812,4.8125v27.594c0,1.8212,1.4924,3.3125,3.3125,3.3125h19.906c1.8207,0,3.3125-1.4918,3.3125-3.3125v-27.5c0.00046-2.1151,0.52745-3.7504,1.5312-4.8438,1.0038-1.0933,2.5776-1.7812,5.0938-1.7812h27.5c1.8212,0,3.3125-1.4919,3.3125-3.3125v-19.906c0-1.8206-1.4913-3.3125-3.3125-3.3125h-27.469c-2.6217,0-4.209-0.67155-5.1875-1.6875-0.97853-1.016-1.4688-2.5069-1.4688-4.5625v-27.875c0-1.8212-1.4924-3.3125-3.3125-3.3125h-19.906zm0,2,19.906,0c0.7399,0,1.3125,0.5717,1.3125,1.3125v27.875c0,2.3664,0.58403,4.4662,2.0312,5.9688s3.6657,2.2812,6.625,2.2812h27.469c0.7408,0,1.3125,0.57313,1.3125,1.3125v19.906c0,0.73938-0.5717,1.3125-1.3125,1.3125h-27.5c-2.8928,0-5.15,0.86507-6.5938,2.4375-1.4437,1.5724-2.0307,3.7516-2.0312,6.1875v27.5c0,0.74132-0.57118,1.3125-1.3125,1.3125h-19.906c-0.7399,0-1.3125-0.5717-1.3125-1.3125v-27.594c0-2.5566-0.87821-4.7195-2.4062-6.2188-1.528-1.4992-3.68-2.3125-6.125-2.3125h-27.594c-0.73795,0-1.3125-0.57365-1.3125-1.3125v-19.906c0-0.73937,0.57312-1.3125,1.3125-1.3125h27.594c2.5453,0,4.7073-0.74134,6.2188-2.1875,1.5114-1.4462,2.3125-3.5434,2.3125-6.0625v-27.875c0-0.7408,0.5726-1.3125,1.3125-1.3125z"/>
<path id="path13" style="baseline-shift:baseline;block-progression:tb;color:#000000;direction:ltr;text-indent:0;text-align:start;enable-background:accumulate;text-transform:none;" fill="#f4f4f4" d="m150.78,117.09c0,12.554,10.781,24.125,24.156,24.125v-2c-12.212,0-22.156-10.723-22.156-22.125h-2z"/>
<path id="polygon15" style="baseline-shift:baseline;block-progression:tb;color:#000000;direction:ltr;text-indent:0;text-align:start;enable-background:accumulate;text-transform:none;" fill-rule="nonzero" d="m174.22,116.31-1.125,0.46875-8.75,3.7188-0.71875,0.28125,0.5625,0.53125,5.1562,4.8438,0.53125,0.5,0.28125-0.65625,3.5938-8.5625,0.46875-1.125zm-1.8438,1.875-2.875,6.75-4.0625-3.8438,6.9375-2.9062z"/>
<path id="circle17" style="baseline-shift:baseline;block-progression:tb;color:#000000;direction:ltr;text-indent:0;text-align:start;enable-background:accumulate;text-transform:none;" fill="#f4f4f4" d="m139.53,140.56c-6.5631,0-11.875,5.3119-11.875,11.875s5.3119,11.906,11.875,11.906,11.906-5.3431,11.906-11.906c0-6.5631-5.3431-11.875-11.906-11.875zm0,2c5.4822,0,9.9062,4.3928,9.9062,9.875s-4.424,9.9062-9.9062,9.9062-9.875-4.424-9.875-9.9062,4.3928-9.875,9.875-9.875z"/>
<path id="path19" style="baseline-shift:baseline;block-progression:tb;color:#000000;direction:ltr;text-indent:0;text-align:start;enable-background:accumulate;text-transform:none;" fill="#f4f4f4" d="m126.31,117.06c0,12.212-10.723,22.156-22.125,22.156v2c12.554,0,24.125-10.781,24.125-24.156h-2z"/>
<path id="polygon21" style="baseline-shift:baseline;block-progression:tb;color:#000000;direction:ltr;text-indent:0;text-align:start;enable-background:accumulate;text-transform:none;" fill-rule="nonzero" d="m103.41,117.78,0.46875,1.125,3.7188,8.75,0.28125,0.71875,0.53125-0.5625,4.8438-5.1562,0.5-0.53125-0.65625-0.28125-8.5625-3.5938-1.125-0.46875zm1.875,1.8438,6.75,2.875-3.8438,4.0625-2.9062-6.9375z"/>
<path id="path23" style="baseline-shift:baseline;block-progression:tb;color:#000000;direction:ltr;text-indent:0;text-align:start;enable-background:accumulate;text-transform:none;" fill="#f4f4f4" d="m104.16,163.69,0,2c12.211,0,22.156,10.722,22.156,22.125h2c0-12.555-10.782-24.125-24.156-24.125z"/>
<path id="polygon25" style="baseline-shift:baseline;block-progression:tb;color:#000000;direction:ltr;text-indent:0;text-align:start;enable-background:accumulate;text-transform:none;" fill-rule="nonzero" d="m109.22,178.25-0.28125,0.65625-3.5938,8.5625-0.46875,1.125,1.125-0.46875,8.75-3.7188,0.71875-0.28125-0.5625-0.53125-5.1562-4.8438-0.53125-0.5zm0.375,1.7188,4.0625,3.8125-6.9375,2.9375,2.875-6.75z"/>
<path id="path27" style="baseline-shift:baseline;block-progression:tb;color:#000000;direction:ltr;text-indent:0;text-align:start;enable-background:accumulate;text-transform:none;" fill="#f4f4f4" d="m174.91,163.69c-12.554,0-24.125,10.782-24.125,24.156h2c0-12.211,10.723-22.156,22.125-22.156v-2z"/>
<path id="polygon29" style="baseline-shift:baseline;block-progression:tb;color:#000000;direction:ltr;text-indent:0;text-align:start;enable-background:accumulate;text-transform:none;" fill-rule="nonzero" d="m171.22,176.53-0.53125,0.5625-4.8438,5.1562-0.5,0.53125,0.65625,0.28125,8.5625,3.5938,1.125,0.46875-0.46875-1.125-3.7188-8.75-0.28125-0.71875zm-0.34375,1.8125,2.9375,6.9375-6.75-2.875,3.8125-4.0625z"/>
<path id="path31" style="baseline-shift:baseline;block-progression:tb;color:#000000;direction:ltr;text-indent:0;text-align:start;enable-background:accumulate;text-transform:none;" fill="#f4f4f4" d="m503.53,81.906c-4.0692,0.07702-8.3971,0.29918-12.906,0.6875-18.037,1.5533-38.999,5.8627-58.375,15.031-14.463,6.8437-30.896,17.178-45,27.969-14.104,10.79-25.868,21.996-31,30.844-5.1525,8.8844-5.8039,20.51-3.8438,31.531,1.9602,11.021,6.5213,21.449,12.188,28,11.238,12.995,30.594,20.326,55.281,13.719,12.328-3.2986,20.222-8.2087,28.406-13.938,8.1838-5.7288,16.672-12.296,30.5-19.125,27.706-13.682,51.272-18.78,64.094-22.938,6.4803-2.1021,13.213-5.7405,18.344-12.375,5.1308-6.6345,8.6395-16.227,8.8125-30.125,0.17552-14.02-5.6556-24.874-13.406-32.625-7.7507-7.7506-17.388-12.441-25.125-14.375-5.821-1.4557-15.761-2.5123-27.969-2.2812zm0.0625,2.0312c12.094-0.21944,21.894,0.80899,27.406,2.1875,7.3739,1.8431,16.772,6.3968,24.219,13.844,7.4471,7.4469,12.981,17.73,12.812,31.188-0.169,13.577-3.5456,22.693-8.375,28.938-4.8294,6.2447-11.148,9.6676-17.375,11.688-12.569,4.0748-36.359,9.2367-64.219,22.969l-0.15625,0.0937c-13.991,6.9095-22.652,13.559-30.781,19.25-8.1297,5.691-15.693,10.43-27.75,13.656-24.083,6.4451-42.508-0.67297-53.25-13.094-5.3238-6.1555-9.8464-16.329-11.75-27.031s-1.2127-21.9,3.5938-30.188c4.8282-8.3242,16.502-19.541,30.5-30.25s30.337-20.989,44.625-27.75c19.09-9.0334,39.866-13.306,57.719-14.844,4.4633-0.38437,8.7501-0.5831,12.781-0.65625z"/>
<path id="path33" style="baseline-shift:baseline;block-progression:tb;color:#000000;direction:ltr;text-indent:0;text-align:start;enable-background:accumulate;text-transform:none;" fill="#f4f4f4" d="m518.62,94.5c-8.4685-0.25574-17.478,1.4208-26.219,4.8125-23.013,8.9303-51.828,20.256-65.344,27.188-10.751,5.5137-25.026,11.353-37.156,19.094-12.13,7.7408-22.206,17.45-24.156,30.75-3.8695,26.397,19.444,45.89,44.094,41.312,12.195-2.2644,20.464-7.176,29-13.125,8.5356-5.949,17.387-12.911,31.031-19.562,13.657-6.6574,28.184-11.454,40.875-15.312,12.69-3.8585,23.488-6.7793,29.844-9.7812,6.4857-3.0629,12.376-9.7754,15.25-18.219,2.8735-8.4434,2.689-18.633-3.125-28.5-5.8166-9.8704-15.14-15.644-25.844-17.75-2.676-0.52644-5.4272-0.821-8.25-0.90625zm-0.0625,2c2.7206,0.08117,5.3759,0.37107,7.9375,0.875,10.246,2.0157,18.983,7.4186,24.5,16.781,5.519,9.3662,5.6765,18.919,2.9688,26.875-2.7077,7.9561-8.3404,14.286-14.219,17.062-6.0069,2.837-16.838,5.7562-29.562,9.625s-27.368,8.7009-41.188,15.438c-13.833,6.7437-22.848,13.85-31.312,19.75-8.4649,5.8997-16.373,10.582-28.219,12.781-23.432,4.351-45.433-13.91-41.75-39.031,1.8273-12.459,11.336-21.772,23.25-29.375,11.914-7.6027,26.122-13.421,37-19,13.273-6.8067,42.181-18.166,65.188-27.094,8.5171-3.305,17.244-4.931,25.406-4.6875z"/>
<path id="circle35" style="baseline-shift:baseline;block-progression:tb;color:#000000;direction:ltr;text-indent:0;text-align:start;enable-background:accumulate;text-transform:none;" fill="#f4f4f4" d="m403.09,149.78c-16.9,0-30.625,13.725-30.625,30.625s13.725,30.625,30.625,30.625,30.625-13.725,30.625-30.625-13.725-30.625-30.625-30.625zm0,2c15.819,0,28.625,12.806,28.625,28.625s-12.806,28.625-28.625,28.625-28.625-12.806-28.625-28.625,12.806-28.625,28.625-28.625z"/>
<path id="circle37" style="baseline-shift:baseline;block-progression:tb;color:#000000;direction:ltr;text-indent:0;text-align:start;enable-background:accumulate;text-transform:none;" fill="#f4f4f4" d="m403.09,155.44c-13.77,0-24.938,11.198-24.938,24.969,0,13.77,11.167,24.969,24.938,24.969,13.77,0,24.969-11.198,24.969-24.969,0-13.77-11.198-24.969-24.969-24.969zm0,2c12.69,0,22.969,10.279,22.969,22.969s-10.279,22.969-22.969,22.969-22.938-10.279-22.938-22.969,10.248-22.969,22.938-22.969z"/>
<path id="circle39" style="baseline-shift:baseline;block-progression:tb;color:#000000;direction:ltr;text-indent:0;text-align:start;enable-background:accumulate;text-transform:none;" fill="#f4f4f4" d="m459.78,120.44c-16.9,0-30.625,13.694-30.625,30.594s13.725,30.625,30.625,30.625,30.594-13.725,30.594-30.625-13.694-30.594-30.594-30.594zm0,2c15.819,0,28.594,12.774,28.594,28.594,0,15.819-12.774,28.625-28.594,28.625-15.819,0-28.625-12.806-28.625-28.625s12.806-28.594,28.625-28.594z"/>
<path id="circle41" style="baseline-shift:baseline;block-progression:tb;color:#000000;direction:ltr;text-indent:0;text-align:start;enable-background:accumulate;text-transform:none;" fill="#f4f4f4" d="m459.78,126.09c-13.771,0-24.969,11.167-24.969,24.938s11.198,24.969,24.969,24.969,24.938-11.198,24.938-24.969-11.167-24.938-24.938-24.938zm0,2c12.69,0,22.938,10.247,22.938,22.938,0,12.69-10.247,22.969-22.938,22.969-12.69,0-22.969-10.279-22.969-22.969s10.279-22.938,22.969-22.938z"/>
<path id="circle43" style="baseline-shift:baseline;block-progression:tb;color:#000000;direction:ltr;text-indent:0;text-align:start;enable-background:accumulate;text-transform:none;" fill="#f4f4f4" d="m519.78,98.781c-16.901,0-30.625,13.724-30.625,30.625s13.724,30.625,30.625,30.625,30.625-13.724,30.625-30.625-13.724-30.625-30.625-30.625zm0,2c15.82,0,28.625,12.805,28.625,28.625s-12.805,28.625-28.625,28.625-28.625-12.805-28.625-28.625,12.805-28.625,28.625-28.625z"/>
<path id="circle45" style="baseline-shift:baseline;block-progression:tb;color:#000000;direction:ltr;text-indent:0;text-align:start;enable-background:accumulate;text-transform:none;" fill="#f4f4f4" d="m519.78,104.44c-13.771,0-24.938,11.198-24.938,24.969s11.167,24.969,24.938,24.969,24.969-11.198,24.969-24.969-11.198-24.969-24.969-24.969zm0,2c12.69,0,22.969,10.279,22.969,22.969s-10.279,22.969-22.969,22.969-22.938-10.279-22.938-22.969,10.247-22.969,22.938-22.969z"/>
<path id="path47" style="baseline-shift:baseline;block-progression:tb;color:#000000;direction:ltr;text-indent:0;text-align:start;enable-background:accumulate;text-transform:none;" fill="#f4f4f4" d="m442.91,50.344c-1.8765-0.12952-3.8,0.13099-5.6875,0.78125l-41.1,14.125c-7.5491,2.6-11.57,10.855-8.9688,18.406,2.601,7.5509,10.855,11.602,18.406,9l41.1-14.156c7.55-2.601,11.57-10.855,8.9688-18.406-1.9508-5.6625-7.0894-9.3614-12.719-9.75zm-0.125,2c4.8532,0.32901,9.2508,3.5103,10.938,8.4062,2.249,6.5291-1.1907,13.595-7.7188,15.844l-41.09,14.156c-6.5291,2.25-13.595-1.1897-15.844-7.7188s1.1918-13.627,7.7188-15.875l41.09-14.156c1.632-0.56224,3.2885-0.76592,4.9062-0.65625z"/>
<path id="path49" style="baseline-shift:baseline;block-progression:tb;color:#000000;direction:ltr;text-indent:0;text-align:start;enable-background:accumulate;text-transform:none;" fill="#f4f4f4" d="m441.84,56.844c-1.064-0.07399-2.1808,0.03801-3.25,0.40625l-39.78,13.719c-4.2769,1.473-6.5366,6.1604-5.0625,10.438,1.4729,4.278,6.1604,6.5679,10.438,5.0938l39.75-13.719c4.2779-1.4729,6.5666-6.1599,5.0938-10.438-1.1055-3.2076-3.9956-5.278-7.1875-5.5zm-0.15625,1.9688c2.4158,0.16232,4.6273,1.7461,5.4688,4.1875,1.1212,3.2564-0.58769,6.7852-3.8438,7.9062l-39.781,13.688c-3.2549,1.1218-6.7852-0.58774-7.9062-3.8438-1.1218-3.2549,0.58865-6.7852,3.8438-7.9062l39.79-13.688c0.81378-0.28026,1.6322-0.39786,2.4375-0.34375z"/>
</svg>
