<?xml version="1.0" encoding="utf-8"?>
<!-- Generator: Adobe Illustrator 13.0.0, SVG Export Plug-In . SVG Version: 6.00 Build 14948)  -->
<!DOCTYPE svg [
	<!ENTITY ns_flows "http://ns.adobe.com/Flows/1.0/">
	<!ENTITY ns_extend "http://ns.adobe.com/Extensibility/1.0/">
	<!ENTITY ns_ai "http://ns.adobe.com/AdobeIllustrator/10.0/">
	<!ENTITY ns_graphs "http://ns.adobe.com/Graphs/1.0/">
	<!ENTITY ns_vars "http://ns.adobe.com/Variables/1.0/">
	<!ENTITY ns_imrep "http://ns.adobe.com/ImageReplacement/1.0/">
	<!ENTITY ns_sfw "http://ns.adobe.com/SaveForWeb/1.0/">
	<!ENTITY ns_custom "http://ns.adobe.com/GenericCustomNamespace/1.0/">
	<!ENTITY ns_adobe_xpath "http://ns.adobe.com/XPath/1.0/">
]>
<svg version="1.2" baseProfile="tiny" id="Layer_3" xmlns:x="&ns_extend;" xmlns:i="&ns_ai;" xmlns:graph="&ns_graphs;"
	 xmlns="http://www.w3.org/2000/svg" xmlns:xlink="http://www.w3.org/1999/xlink" xmlns:a="http://ns.adobe.com/AdobeSVGViewerExtensions/3.0/"
	 x="0px" y="0px" width="598.191px" height="350.257px" viewBox="0 0 598.191 350.257" xml:space="preserve">
<metadata>
	<sfw  xmlns="&ns_sfw;">
		<slices></slices>
		<sliceSourceBounds  height="321.023" width="396.458" y="376.458" x="767.468" bottomLeftOrigin="true"></sliceSourceBounds>
	</sfw>
</metadata>
<path fill="#F4F4F4" d="M242.749,102.469c0-6.772,5.488-12.26,12.258-12.26l0,0c6.77,0,12.258,5.488,12.258,12.26l0,0h0.002
	c-0.002,6.77-5.49,12.258-12.26,12.258l0,0C248.237,114.727,242.749,109.239,242.749,102.469L242.749,102.469z M244.748,102.469
	c0.01,5.664,4.593,10.247,10.259,10.257l0,0c5.667-0.01,10.25-4.593,10.26-10.257l0,0c-0.01-5.667-4.593-10.25-10.26-10.26l0,0
	C249.341,92.219,244.758,96.802,244.748,102.469L244.748,102.469z"/>
<path fill="#F4F4F4" d="M213.473,90.459c0-6.772,5.489-12.259,12.259-12.261l0,0c6.772,0.002,12.259,5.489,12.259,12.261l0,0
	c0,6.77-5.487,12.257-12.259,12.259l0,0C218.962,102.716,213.473,97.229,213.473,90.459L213.473,90.459z M215.473,90.459
	c0.01,5.664,4.593,10.247,10.26,10.259l0,0c5.666-0.012,10.249-4.595,10.259-10.259l0,0c-0.01-5.667-4.593-10.25-10.259-10.26l0,0
	C220.068,80.209,215.483,84.792,215.473,90.459L215.473,90.459z"/>
<path fill="#F4F4F4" d="M169.769,95.662c-1.588,0-2.875-1.287-2.876-2.875l0,0V80.36c0.002-0.281-0.026-0.476-0.055-0.564l0,0
	c-0.008-0.075-0.021-0.059-0.021-0.063l0,0c0,0.002-0.006-0.008-0.069-0.028l0,0c-0.083-0.027-0.261-0.057-0.527-0.055l0,0h-12.463
	c-1.59-0.002-2.877-1.289-2.877-2.876l0,0V64.263c0-1.59,1.287-2.876,2.877-2.876l0,0h12.478c0.45-0.004,0.548-0.1,0.548-0.104l0,0
	c0.008,0,0.11-0.124,0.11-0.594l0,0V48.249c0.002-1.588,1.289-2.875,2.876-2.877l0,0l12.51,0.002c1.588,0,2.877,1.284,2.877,2.875
	l0,0v12.486c0.004,0.497,0.089,0.554,0.091,0.554l0,0c0-0.002,0.033,0.022,0.125,0.049l0,0c0.091,0.024,0.244,0.049,0.488,0.049l0,0
	h12.433c1.588,0,2.875,1.287,2.876,2.876l0,0v12.511c-0.002,1.588-1.289,2.875-2.876,2.876l0,0h-12.447
	c-0.479,0.002-0.574,0.098-0.574,0.102l0,0c-0.004,0-0.116,0.135-0.116,0.656l0,0v12.38c0,1.588-1.289,2.875-2.877,2.875l0,0
	H169.769L169.769,95.662z M152.88,64.263v12.511c0,0.482,0.393,0.875,0.877,0.875l0,0h12.463c0.768,0,1.527,0.145,2.077,0.739l0,0
	c0.525,0.604,0.59,1.301,0.596,1.973l0,0v12.427c0,0.482,0.391,0.875,0.875,0.875l0,0h12.51c0.485,0,0.875-0.393,0.877-0.875l0,0
	v-12.38c0-0.747,0.139-1.484,0.682-2.052l0,0c0.554-0.562,1.295-0.707,2.007-0.707l0,0h12.447c0.482,0,0.875-0.393,0.875-0.875l0,0
	V64.263c0-0.482-0.393-0.877-0.875-0.877l0,0H185.86c-0.686-0.002-1.393-0.105-1.971-0.629l0,0
	c-0.574-0.535-0.737-1.285-0.733-2.021l0,0V48.249c-0.002-0.482-0.393-0.875-0.877-0.875l0,0h-12.51
	c-0.484,0-0.875,0.391-0.875,0.875l0,0v12.439c0,0.717-0.148,1.441-0.68,1.993l0,0c-0.542,0.547-1.272,0.707-1.979,0.704l0,0
	h-12.478C153.272,63.385,152.88,63.78,152.88,64.263L152.88,64.263z"/>
<path fill="#F4F4F4" d="M158.937,61.959c1.841-3.668,4.824-6.661,8.49-8.51l0,0l0.9,1.787c-3.28,1.654-5.955,4.337-7.604,7.62l0,0
	l0.002,0.002L158.937,61.959L158.937,61.959z"/>
<path fill="#F4F4F4" d="M158.971,79.144l1.782-0.905c1.659,3.274,4.344,5.947,7.629,7.59l0,0l-0.895,1.788
	C163.817,85.782,160.823,82.802,158.971,79.144L158.971,79.144z"/>
<path fill="#F4F4F4" d="M183.744,85.791c3.256-1.649,5.917-4.313,7.562-7.572l0,0l1.786,0.903c-1.839,3.641-4.806,6.61-8.444,8.453
	l0,0L183.744,85.791L183.744,85.791z"/>
<path fill="#F4F4F4" d="M183.745,55.247l0.903-1.786c3.653,1.851,6.627,4.835,8.464,8.494l0,0l-1.788,0.897
	C189.68,59.579,187.012,56.9,183.745,55.247L183.745,55.247z"/>
<path fill="#F4F4F4" d="M169.863,70.519c0.002-3.404,2.758-6.161,6.162-6.163l0,0c3.402,0.002,6.158,2.758,6.161,6.163l0,0
	c-0.002,3.402-2.758,6.158-6.161,6.16l0,0C172.622,76.677,169.865,73.921,169.863,70.519L169.863,70.519z M171.864,70.519
	c0.004,2.295,1.863,4.155,4.162,4.16l0,0c2.297-0.004,4.156-1.863,4.16-4.16l0,0c-0.004-2.299-1.862-4.158-4.16-4.162l0,0
	C173.727,66.361,171.868,68.22,171.864,70.519L171.864,70.519z"/>
<path fill="#F4F4F4" d="M136.123,338.161c-10.888-0.307-27.272-7.632-29.486-35.109l0,0c-0.388-8.817-0.572-17.086-0.572-24.878l0,0
	c-0.01-60.639,11.272-92.536,26.92-129.803l0,0c2.229-5.317,3.191-10.547,3.191-16.011l0,0c0.008-11.805-4.55-24.758-10.714-41.431
	l0,0l0.002,0.002l1.875-0.694c6.154,16.684,10.83,29.792,10.838,42.123l0,0c0.002,5.701-1.015,11.224-3.347,16.784l0,0
	c-15.614,37.227-26.754,68.625-26.764,129.029l0,0c0,7.76,0.184,15.998,0.566,24.752l0,0c2.292,26.607,17.434,32.793,27.563,33.237
	l0,0c0.176,0.006,0.36,0.008,0.554,0.008l0,0c10.131,0.005,28.966-9.506,31.822-33.283l0,0
	c3.004-24.783,12.75-111.408,15.398-125.048l0,0c2.602-13.643,9.672-27.79,27.542-29.329l0,0c5.774-0.503,9.888-0.671,12.817-0.673
	l0,0c5.864,0.019,6.965,0.625,7.34,0.836l0,0l-1.111,1.665l-0.013,0.01c-0.122-0.042-0.379-0.115-0.824-0.191l0,0
	c-0.893-0.155-2.539-0.321-5.393-0.318l0,0c-2.852-0.002-6.911,0.164-12.646,0.663l0,0c-16.658,1.463-23.099,14.339-25.751,27.718
	l0,0c-2.606,13.383-12.377,100.151-15.375,124.907l0,0c-3.042,24.849-22.646,35.036-33.807,35.04l0,0
	C136.542,338.168,136.334,338.168,136.123,338.161L136.123,338.161z"/>
<path fill="#F4F4F4" d="M341.322,102.469c0-6.773,5.487-12.259,12.259-12.261l0,0c6.771,0.002,12.259,5.488,12.261,12.261l0,0
	c-0.002,6.769-5.49,12.257-12.261,12.257l0,0C346.81,114.727,341.322,109.238,341.322,102.469L341.322,102.469z M353.581,112.727
	c5.666-0.011,10.249-4.593,10.261-10.257l0,0c-0.012-5.666-4.595-10.25-10.261-10.261l0,0c-5.666,0.011-10.249,4.595-10.259,10.261
	l0,0C343.332,108.134,347.915,112.716,353.581,112.727L353.581,112.727z"/>
<path fill="#F4F4F4" d="M370.594,90.458c0.002-6.772,5.491-12.259,12.261-12.261l0,0c6.772,0.002,12.26,5.491,12.26,12.261l0,0
	c0,6.77-5.489,12.259-12.26,12.259l0,0C376.085,102.717,370.596,97.23,370.594,90.458L370.594,90.458z M382.854,100.716
	c5.666-0.008,10.25-4.593,10.259-10.258l0,0c-0.009-5.666-4.593-10.25-10.259-10.26l0,0c-5.665,0.011-10.249,4.595-10.26,10.26l0,0
	C372.605,96.124,377.189,100.708,382.854,100.716L382.854,100.716z"/>
<path fill="#F4F4F4" d="M426.309,95.663c-1.59-0.002-2.877-1.289-2.877-2.877l0,0V80.407c0-0.52-0.108-0.656-0.115-0.656l0,0
	c0,0-0.097-0.101-0.572-0.103l0,0h-12.45c-1.588,0-2.875-1.287-2.877-2.875l0,0V64.263c0.002-1.588,1.289-2.875,2.877-2.877l0,0
	h12.434c0.484,0.002,0.612-0.09,0.612-0.096l0,0c-0.007-0.008,0.088-0.059,0.092-0.556l0,0V48.25c0-1.59,1.287-2.877,2.877-2.877
	l0,0h12.511c1.587,0,2.873,1.287,2.873,2.877l0,0v12.438c0.003,0.469,0.105,0.595,0.113,0.595l0,0c0,0.004,0.097,0.101,0.547,0.103
	l0,0h12.479c1.589,0.002,2.875,1.289,2.878,2.877l0,0l-0.003,12.511c0,1.588-1.286,2.875-2.875,2.877l0,0l-12.462-0.002
	c-0.403-0.002-0.559,0.06-0.594,0.08l0,0c-0.002,0.003-0.02,0.029-0.037,0.1l0,0c-0.025,0.101-0.047,0.283-0.044,0.53l0,0v12.427
	c-0.003,1.589-1.289,2.875-2.876,2.877l0,0H426.309L426.309,95.663z M425.433,80.407v12.378c0,0.484,0.391,0.876,0.876,0.876l0,0
	h12.511c0.482,0,0.874-0.392,0.874-0.876l0,0l0.002-12.427c0.005-0.67,0.069-1.366,0.596-1.972l0,0
	c0.549-0.595,1.31-0.74,2.079-0.737l0,0h12.462c0.484,0,0.876-0.392,0.876-0.876l0,0V64.263c0-0.484-0.394-0.876-0.876-0.876l0,0
	l-12.479-0.002c-0.706,0.004-1.438-0.155-1.978-0.705l0,0c-0.532-0.551-0.682-1.276-0.68-1.993l0,0l-0.002-12.438
	c0-0.484-0.392-0.876-0.874-0.876l0,0l-12.511-0.002c-0.485,0.002-0.876,0.394-0.878,0.878l0,0v12.483
	c0.005,0.74-0.159,1.488-0.733,2.024l0,0c-0.578,0.522-1.284,0.625-1.97,0.629l0,0l-12.434-0.002
	c-0.481,0.002-0.876,0.396-0.876,0.878l0,0v12.511c0,0.482,0.395,0.876,0.876,0.876l0,0h12.45c0.709-0.002,1.45,0.145,2.004,0.706
	l0,0c0.545,0.568,0.683,1.304,0.683,2.052l0,0H425.433L425.433,80.407z"/>
<path fill="#F4F4F4" d="M440.263,55.235l0.9-1.786c3.664,1.851,6.647,4.84,8.489,8.511l0,0h0.002l-1.789,0.896
	C446.219,59.573,443.541,56.889,440.263,55.235L440.263,55.235z"/>
<path fill="#F4F4F4" d="M440.206,85.829c3.284-1.642,5.969-4.315,7.629-7.589l0,0l1.783,0.904c-1.854,3.66-4.849,6.639-8.517,8.473
	l0,0v0.002L440.206,85.829L440.206,85.829z"/>
<path fill="#F4F4F4" d="M415.495,79.121h0.002l1.785-0.902c1.645,3.258,4.306,5.922,7.563,7.571l0,0l-0.904,1.785
	C420.303,85.731,417.336,82.761,415.495,79.121L415.495,79.121z"/>
<path fill="#F4F4F4" d="M415.476,61.954c1.837-3.657,4.811-6.642,8.464-8.492l0,0l0.904,1.785c-3.27,1.653-5.937,4.332-7.58,7.606
	l0,0L415.476,61.954L415.476,61.954z"/>
<path fill="#F4F4F4" d="M426.401,70.519c0.002-3.404,2.76-6.16,6.162-6.162l0,0c3.401,0.002,6.159,2.758,6.161,6.162l0,0
	c-0.002,3.402-2.76,6.16-6.161,6.16l0,0C429.159,76.678,426.403,73.92,426.401,70.519L426.401,70.519z M432.563,74.677
	c2.298-0.004,4.156-1.863,4.16-4.159l0,0c-0.004-2.298-1.862-4.157-4.16-4.161l0,0c-2.298,0.004-4.157,1.863-4.161,4.161l0,0
	C428.406,72.814,430.266,74.673,432.563,74.677L432.563,74.677z"/>
<g>
	<path fill="#F4F4F4" d="M245.051,141.563l-0.047-0.008l-85.933-20.442l0.23-0.974l0.298-0.955l-0.298,0.955l-0.23,0.974
		l-0.039-0.011l-0.027-0.008c-21.646-6.733-37.356-26.92-37.359-50.779l0,0c0-29.362,23.806-53.166,53.17-53.168l0,0
		c5.151,0,10.135,0.734,14.789,2.087l0,0c0.785,0.191,2.231,0.853,4.596,1.973l0,0c2.33,1.111,5.43,2.652,9.068,4.497l0,0
		c7.273,3.692,16.695,8.602,26.357,13.726l0,0c19.335,10.258,39.567,21.333,45.583,25.287l0,0
		c11.246,7.595,18.64,20.466,18.642,35.062l0,0c-0.002,23.354-18.932,42.283-42.285,42.283l0,0
		C249.351,142.062,247.175,141.892,245.051,141.563L245.051,141.563z M251.566,140.063c11.127-0.002,21.192-4.507,28.485-11.799l0,0
		c7.292-7.293,11.799-17.358,11.799-28.485l0,0c0-13.909-7.043-26.164-17.751-33.397l0,0c-10.212-6.725-64.609-35.664-80.761-43.37
		l0,0c-2.271-1.093-3.904-1.781-4.23-1.841l0,0c-4.534-1.317-9.329-2.021-14.291-2.021l0,0c-14.135,0-26.919,5.726-36.183,14.985
		l0,0c-9.26,9.264-14.985,22.048-14.985,36.181l0,0c-0.002,22.957,15.12,42.383,35.94,48.865l0,0l85.794,20.41
		C247.398,139.902,249.462,140.063,251.566,140.063L251.566,140.063z"/>
	<path fill="#F4F4F4" d="M314.738,99.777c0-14.592,7.396-27.467,18.651-35.069l0,0c10.475-6.881,64.696-35.716,80.997-43.501l0,0
		c2.365-1.119,3.813-1.781,4.535-1.958l0,0c4.713-1.367,9.697-2.101,14.852-2.101l0,0c29.363,0,53.166,23.803,53.168,53.169l0,0
		c-0.002,23.857-15.713,44.046-37.358,50.777l0,0l-0.025,0.006l-85.986,20.455l-0.036,0.006c-2.122,0.33-4.299,0.5-6.513,0.5l0,0
		C333.669,142.061,314.738,123.132,314.738,99.777L314.738,99.777z M419.419,21.186c-0.264,0.042-1.897,0.732-4.171,1.826l0,0
		c-2.305,1.102-5.396,2.637-9.023,4.477l0,0c-7.259,3.682-16.674,8.59-26.326,13.709l0,0
		c-19.293,10.233-39.593,21.353-45.398,25.176l0,0c-10.719,7.243-17.764,19.497-17.762,33.403l0,0
		c0,11.129,4.507,21.193,11.798,28.486l0,0c7.293,7.291,17.357,11.797,28.486,11.8l0,0c2.096,0,4.154-0.162,6.164-0.469l0,0
		l85.84-20.421c20.808-6.491,35.916-25.91,35.913-48.856l0,0c0-14.134-5.726-26.92-14.985-36.184l0,0
		c-9.264-9.259-22.049-14.985-36.181-14.985l0,0C428.811,19.148,424.016,19.853,419.419,21.186L419.419,21.186z"/>
</g>
<path fill="#F4F4F4" d="M438.035,303.129c-3-24.758-12.771-111.526-15.378-124.909l0,0c-2.652-13.378-9.091-26.255-25.752-27.717
	l0,0c-5.734-0.5-9.795-0.664-12.647-0.664l0,0c-4.276-0.004-5.849,0.381-6.213,0.51l0,0l-0.013-0.011l-1.112-1.662
	c0.375-0.215,1.473-0.817,7.338-0.838l0,0c2.931,0.002,7.043,0.17,12.82,0.672l0,0c17.87,1.54,24.941,15.686,27.543,29.33l0,0
	c2.648,13.638,12.393,100.265,15.399,125.048l0,0c2.851,23.777,21.686,33.288,31.819,33.284l0,0c0.191,0,0.377-0.002,0.554-0.009
	l0,0c10.13-0.446,25.27-6.63,27.561-33.197l0,0c0.381-8.794,0.566-17.032,0.566-24.792l0,0
	c-0.011-60.405-11.149-91.804-26.762-129.029l0,0c-2.338-5.56-3.35-11.084-3.35-16.783l0,0c0.011-12.332,4.686-25.44,10.84-42.125
	l0,0h0.002l1.875,0.693c-6.164,16.673-10.726,29.626-10.715,41.431l0,0c0,5.465,0.96,10.692,3.191,16.008l0,0
	c15.649,37.268,26.93,69.166,26.919,129.805l0,0c-0.002,7.791-0.188,16.061-0.572,24.918l0,0
	c-2.21,27.438-18.596,34.763-29.485,35.07l0,0c-0.211,0.007-0.42,0.009-0.624,0.009l0,0
	C460.678,338.165,441.071,327.978,438.035,303.129L438.035,303.129z"/>
<path fill="#F4F4F4" d="M237.869,216.937c-4.077-0.002-7.381-3.305-7.381-7.381l0,0v-72.059h2l-0.002,72.059
	c0.006,2.973,2.41,5.374,5.382,5.38l0,0h132.852c2.973-0.006,5.374-2.407,5.38-5.38l0,0v-72.059h2.001l-0.002,72.059
	c0,4.076-3.303,7.379-7.379,7.381l0,0H237.869L237.869,216.937z"/>
<polygon fill="#F4F4F4" points="255.381,55.553 255.381,53.554 353.338,53.554 353.338,55.553 255.381,55.553 "/>
<polygon fill="#F4F4F4" points="267.268,62.309 267.268,60.309 340.829,60.309 340.829,62.309 267.268,62.309 "/>
<path fill="#F4F4F4" d="M295.889,76.446c-0.713,0-1.378-0.247-1.844-0.619l0,0l-10.096-6.928l-0.058-0.056
	c-0.584-0.555-0.951-1.349-0.951-2.217l0,0c0.002-1.693,1.374-3.064,3.065-3.064l0,0h36.578c1.691,0,3.063,1.372,3.063,3.064l0,0
	c0.002,0.869-0.365,1.663-0.95,2.219l0,0l-0.059,0.054l-10.04,6.889c-0.52,0.411-1.186,0.658-1.897,0.658l0,0v-1v-1
	c0.252,0,0.475-0.084,0.712-0.268l0,0l9.953-6.83c0.176-0.192,0.281-0.44,0.281-0.721l0,0c0-0.587-0.477-1.064-1.063-1.064l0,0
	h-36.578c-0.588,0-1.062,0.477-1.064,1.064l0,0c0,0.281,0.106,0.53,0.282,0.72l0,0l10.008,6.87c0.184,0.145,0.404,0.229,0.658,0.229
	l0,0h16.811v1v1H295.889L295.889,76.446z"/>
<path fill="#F4F4F4" d="M299.955,72.803c0,0.622-0.504,1.126-1.126,1.126h-0.281c-0.622,0-1.126-0.504-1.126-1.126v-6.287
	c0-0.622,0.504-1.126,1.126-1.126h0.281c0.622,0,1.126,0.504,1.126,1.126V72.803z"/>
<path fill="#F4F4F4" d="M305.562,72.803c0,0.622-0.505,1.126-1.126,1.126h-0.281c-0.622,0-1.127-0.504-1.127-1.126v-6.287
	c0-0.622,0.505-1.126,1.127-1.126h0.281c0.621,0,1.126,0.504,1.126,1.126V72.803z"/>
<path fill="#F4F4F4" d="M311.167,72.803c0,0.622-0.504,1.126-1.126,1.126h-0.281c-0.621,0-1.126-0.504-1.126-1.126v-6.287
	c0-0.622,0.505-1.126,1.126-1.126h0.281c0.622,0,1.126,0.504,1.126,1.126V72.803z"/>
<path fill="#F4F4F4" d="M245.875,184.661c-5.735,0-10.383-4.65-10.383-10.383l0,0v-14.011h2v14.011
	c0.008,4.629,3.752,8.373,8.384,8.381l0,0h115.845c4.627-0.009,8.373-3.754,8.382-8.381l0,0v-14.011h0.002h1.997l0.002,14.011
	c-0.002,5.735-4.649,10.383-10.383,10.383l0,0H245.875L245.875,184.661z"/>
<g>
	<path fill="#F4F4F4" d="M153.632,70.519c0-3.027,0.602-5.918,1.692-8.554l0,0l1.847,0.762c-0.991,2.399-1.54,5.029-1.54,7.792l0,0
		c0,2.759,0.546,5.384,1.538,7.781l0,0l-1.849,0.764C154.232,76.431,153.632,73.542,153.632,70.519L153.632,70.519z"/>
	<path fill="#F4F4F4" d="M167.592,91.27l0.753-1.854c2.371,0.963,4.96,1.494,7.681,1.494l0,0c2.739,0,5.349-0.538,7.734-1.517l0,0
		l0.759,1.85c-2.619,1.075-5.491,1.667-8.493,1.667l0,0C173.044,92.91,170.195,92.326,167.592,91.27L167.592,91.27z"/>
	<path fill="#F4F4F4" d="M194.889,78.278c0.985-2.392,1.528-5.01,1.53-7.761l0,0c-0.002-2.72-0.532-5.313-1.5-7.684l0,0h0.002
		l1.851-0.754c1.061,2.604,1.646,5.455,1.646,8.438l0,0c0,3.015-0.597,5.896-1.68,8.525l0,0L194.889,78.278L194.889,78.278z"/>
	<path fill="#F4F4F4" d="M167.447,49.826c2.644-1.097,5.542-1.701,8.579-1.701l0,0c3.018,0,5.903,0.598,8.536,1.685l0,0
		l-0.765,1.849c-2.396-0.987-5.019-1.534-7.771-1.534l0,0c-2.771,0-5.406,0.551-7.81,1.55l0,0L167.447,49.826L167.447,49.826z"/>
</g>
<g>
	<path fill="#F4F4F4" d="M410.169,70.519c0-3.027,0.603-5.918,1.694-8.555l0,0l1.85,0.765c-0.995,2.399-1.543,5.028-1.543,7.79l0,0
		c0,2.758,0.548,5.384,1.538,7.781l0,0h0.002l-1.851,0.765C410.771,76.43,410.169,73.541,410.169,70.519L410.169,70.519z"/>
	<path fill="#F4F4F4" d="M424.131,91.269l0.753-1.853c2.37,0.964,4.961,1.495,7.68,1.495l0,0c2.74,0,5.351-0.54,7.734-1.518l0,0
		v0.002l0.759,1.849c-2.62,1.075-5.491,1.667-8.493,1.667l0,0C429.583,92.91,426.732,92.327,424.131,91.269L424.131,91.269z"/>
	<path fill="#F4F4F4" d="M451.427,78.279c0.985-2.391,1.529-5.011,1.529-7.762l0,0c0-2.721-0.532-5.313-1.497-7.684l0,0l1.852-0.754
		c1.063,2.606,1.646,5.458,1.645,8.438l0,0c0.002,3.015-0.598,5.897-1.678,8.524l0,0L451.427,78.279L451.427,78.279z"/>
	<path fill="#F4F4F4" d="M423.986,49.827c2.641-1.096,5.542-1.702,8.576-1.702l0,0c3.021,0,5.904,0.6,8.538,1.686l0,0l-0.766,1.849
		c-2.395-0.989-5.018-1.533-7.772-1.533l0,0c-2.769,0-5.404,0.55-7.809,1.547l0,0L423.986,49.827L423.986,49.827z"/>
</g>
</svg>
