<?xml version="1.0" encoding="UTF-8" standalone="no"?>
<!-- Generator: Adobe Illustrator 13.0.0, SVG Export Plug-In . SVG Version: 6.00 Build 14948)  -->
<svg id="Layer_3" xmlns:rdf="http://www.w3.org/1999/02/22-rdf-syntax-ns#" xmlns="http://www.w3.org/2000/svg" xml:space="preserve" height="371.11px" viewBox="0 0 604.07 371.111" width="604.07px" version="1.2" y="0px" x="0px" xmlns:cc="http://creativecommons.org/ns#" xmlns:dc="http://purl.org/dc/elements/1.1/"><metadata id="metadata153"><rdf:RDF><cc:Work rdf:about=""><dc:format>image/svg+xml</dc:format><dc:type rdf:resource="http://purl.org/dc/dcmitype/StillImage"/><dc:title/></cc:Work></rdf:RDF></metadata>
<path id="path3" style="baseline-shift:baseline;block-progression:tb;color:#000000;direction:ltr;text-indent:0;text-align:start;enable-background:accumulate;text-transform:none;" fill="#f4f4f4" d="M10.781,0c-2.7019,0-5.2226-0.059997-7.281,0.71875-1.0292,0.38935-1.9365,1.042-2.5625,2s-0.9375,2.1696-0.9375,3.6562v359.25c0,1.4867,0.30678,2.6722,0.96875,3.5625,0.66197,0.89032,1.6254,1.4087,2.6562,1.6562,2.0616,0.49512,4.515,0.1875,7.1562,0.1875h582.44c2.6413,0,5.0948,0.30764,7.1562-0.1875,1.0307-0.24757,1.9944-0.76593,2.6562-1.6562,0.49611-0.66737,0.72683-1.5601,0.84375-2.5625h0.125v-1-359.25c0-1.4866-0.28027-2.6982-0.90625-3.6562-0.62598-0.95804-1.5646-1.6106-2.5938-2-2.06-0.77381-4.58-0.7138-7.28-0.7138h-582.44zm0,2,582.44,0c2.7044,0,5.0778,0.032006,6.5625,0.59375,0.74236,0.28087,1.2602,0.66048,1.625,1.2188,0.37,0.5582,0.6,1.346,0.6,2.5624v358.25,1c0,1.2164-0.23361,1.9326-0.5625,2.375-0.32889,0.44243-0.79047,0.69707-1.5312,0.875-1.4816,0.35586-3.9228,0.15625-6.6875,0.15625h-582.44c-2.7647,0-5.2056,0.19963-6.6875-0.15625-0.7397-0.18-1.201-0.44-1.53-0.88s-0.5625-1.16-0.5625-2.38v-359.24c0-1.2164,0.229-2.0042,0.5938-2.5625,0.3647-0.5583,0.8825-0.9379,1.625-1.2187,1.4848-0.5618,3.8576-0.5938,6.5622-0.5938z"/>
<path id="path5" style="baseline-shift:baseline;block-progression:tb;color:#000000;direction:ltr;text-indent:0;text-align:start;enable-background:accumulate;text-transform:none;" fill="#f4f4f4" d="m29.562,101.03c-8.9854,0-16.873,4.6505-21.406,11.688l1.6562,1.0938c4.1772-6.485,11.455-10.781,19.75-10.781h544.31c8.405,0,15.758,4.4025,19.906,11.031l1.69-1.06c-4.5017-7.1933-12.489-11.969-21.594-11.969h-544.31z"/>
<path id="path7" style="baseline-shift:baseline;block-progression:tb;color:#000000;direction:ltr;text-indent:0;text-align:start;enable-background:accumulate;text-transform:none;" fill="#f4f4f4" d="m18.312,111.78c-3.7858,0-7.234,1.488-9.7812,3.9062l1.375,1.4688c2.1907-2.0798,5.1421-3.375,8.4062-3.375h566.81c3.6084,0,6.8265,1.5805,9.0625,4.0625l1.5-1.3438c-2.6-2.886-6.3769-4.7188-10.562-4.7188h-566.81z"/>
<path id="path9" style="baseline-shift:baseline;block-progression:tb;color:#000000;direction:ltr;text-indent:0;text-align:start;enable-background:accumulate;text-transform:none;" fill="#f4f4f4" d="m27.125,141.91c-1.8924,0-3.4375,1.5457-3.4375,3.4375v19.812c0,1.8924,1.5451,3.4688,3.4375,3.4688h31.812c1.8918,0,3.4688-1.5763,3.4688-3.4688v-1h-0.03125v-18.812c0-1.8918-1.5457-3.4375-3.4375-3.4375h-31.812zm0,2,31.812,0c0.81017,0,1.4375,0.62733,1.4375,1.4375v19.812,0.0625c-0.03798,0.77531-0.65255,1.4062-1.4375,1.4062h-31.812c-0.81157,0-1.4375-0.65718-1.4375-1.4688v-19.812c0-0.81017,0.62593-1.4375,1.4375-1.4375z"/>
<path id="path11" style="baseline-shift:baseline;block-progression:tb;color:#000000;direction:ltr;text-indent:0;text-align:start;enable-background:accumulate;text-transform:none;" fill="#f4f4f4" d="m79.938,141.91c-1.8918,0-3.4375,1.5457-3.4375,3.4375v19.812c0,1.8924,1.5457,3.4688,3.4375,3.4688h31.812c1.8918,0,3.4375-1.5763,3.4375-3.4688v-1-18.812c0-1.8913-1.5451-3.4375-3.4375-3.4375h-31.812zm0,2,31.812,0c0.81157,0,1.4375,0.62684,1.4375,1.4375v19.812c0,0.81157-0.62733,1.4688-1.4375,1.4688h-31.812c-0.81017,0-1.4375-0.65718-1.4375-1.4688v-19.812c0-0.81017,0.62733-1.4375,1.4375-1.4375z"/>
<path id="path13" style="baseline-shift:baseline;block-progression:tb;color:#000000;direction:ltr;text-indent:0;text-align:start;enable-background:accumulate;text-transform:none;" fill="#f4f4f4" d="m132.75,141.91c-1.8918,0-3.4375,1.5457-3.4375,3.4375v19.812c0,1.8919,1.5451,3.4688,3.4375,3.4688h31.812c1.8918,0,3.4375-1.5763,3.4375-3.4688v-19.812c0-1.8918-1.5457-3.4375-3.4375-3.4375h-31.812zm0,2,31.812,0c0.81017,0,1.4375,0.62733,1.4375,1.4375v19.812c0,0.81157-0.62733,1.4688-1.4375,1.4688h-31.812c-0.81157,0-1.4375-0.65669-1.4375-1.4688v-19.812c0-0.81017,0.62733-1.4375,1.4375-1.4375z"/>
<path id="path15" style="baseline-shift:baseline;block-progression:tb;color:#000000;direction:ltr;text-indent:0;text-align:start;enable-background:accumulate;text-transform:none;" fill="#f4f4f4" d="m185.56,141.91c-1.8918,0-3.4688,1.5457-3.4688,3.4375v19.812c0,1.8919,1.5763,3.4688,3.4688,3.4688h31.812c1.8924,0,3.4375-1.5768,3.4375-3.4688v-19.812c0-1.8913-1.5451-3.4375-3.4375-3.4375h-31.812zm0,2,31.812,0c0.81157,0,1.4375,0.62684,1.4375,1.4375v19.812c0,0.81206-0.62593,1.4688-1.4375,1.4688h-31.812c-0.81157,0-1.4688-0.65669-1.4688-1.4688v-19.812c0-0.81017,0.65858-1.4375,1.4688-1.4375z"/>
<path id="path17" style="baseline-shift:baseline;block-progression:tb;color:#000000;direction:ltr;text-indent:0;text-align:start;enable-background:accumulate;text-transform:none;" fill="#f4f4f4" d="m238.38,141.91c-1.8918,0-3.4688,1.5457-3.4688,3.4375v19.812c0,1.8919,1.5763,3.4688,3.4688,3.4688h31.812c1.8918,0,3.4375-1.5763,3.4375-3.4688v-19.812c0-1.8918-1.5457-3.4375-3.4375-3.4375h-31.812zm0,2,31.812,0c0.81017,0,1.4375,0.62733,1.4375,1.4375v19.812c0,0.81157-0.62733,1.4688-1.4375,1.4688h-31.812c-0.81157,0-1.4688-0.65669-1.4688-1.4688v-19.812c0-0.81017,0.65858-1.4375,1.4688-1.4375z"/>
<path id="path19" style="baseline-shift:baseline;block-progression:tb;color:#000000;direction:ltr;text-indent:0;text-align:start;enable-background:accumulate;text-transform:none;" fill="#f4f4f4" d="m291.16,141.91c-1.8918,0-3.4375,1.5457-3.4375,3.4375v19.812c0,1.8924,1.5457,3.4688,3.4375,3.4688h31.812c1.8918,0,3.4688-1.5763,3.4688-3.4688v-19.812c0-1.8913-1.5763-3.4375-3.4688-3.4375h-31.812zm0,2,31.812,0c0.81157,0,1.4688,0.62684,1.4688,1.4375v19.812c0,0.81157-0.65858,1.4688-1.4688,1.4688h-31.812c-0.81017,0-1.4375-0.65718-1.4375-1.4688v-19.812c0-0.81017,0.62733-1.4375,1.4375-1.4375z"/>
<path id="path21" style="baseline-shift:baseline;block-progression:tb;color:#000000;direction:ltr;text-indent:0;text-align:start;enable-background:accumulate;text-transform:none;" fill="#f4f4f4" d="m343.97,141.91c-1.8924,0-3.4375,1.5457-3.4375,3.4375v19.812c0,1.8919,1.5445,3.4688,3.4375,3.4688h31.812c1.8918,0,3.4688-1.5763,3.4688-3.4688v-19.812c0-1.8913-1.5763-3.4375-3.4688-3.4375h-31.812zm0,2,31.812,0c0.81157,0,1.4688,0.62684,1.4688,1.4375v19.812c0,0.81157-0.65858,1.4688-1.4688,1.4688h-31.812c-0.81297,0-1.4375-0.65669-1.4375-1.4688v-19.812c0-0.81017,0.62593-1.4375,1.4375-1.4375z"/>
<path id="path23" style="baseline-shift:baseline;block-progression:tb;color:#000000;direction:ltr;text-indent:0;text-align:start;enable-background:accumulate;text-transform:none;" fill="#f4f4f4" d="m396.78,141.91c-1.8918,0-3.4375,1.5457-3.4375,3.4375v19.812c0,1.8919,1.5451,3.4688,3.4375,3.4688h31.812c1.8918,0,3.4375-1.5763,3.4375-3.4688v-19.812c0-1.8913-1.5451-3.4375-3.4375-3.4375h-31.812zm0,2,31.812,0c0.81157,0,1.4375,0.62684,1.4375,1.4375v19.812c0,0.81157-0.62733,1.4688-1.4375,1.4688h-31.812c-0.81157,0-1.4375-0.65669-1.4375-1.4688v-19.812c0-0.81017,0.62733-1.4375,1.4375-1.4375z"/>
<path id="path25" style="baseline-shift:baseline;block-progression:tb;color:#000000;direction:ltr;text-indent:0;text-align:start;enable-background:accumulate;text-transform:none;" fill="#f4f4f4" d="m449.59,141.91c-1.8918,0-3.4375,1.5457-3.4375,3.4375v19.812c0,1.8919,1.5451,3.4688,3.4375,3.4688h31.812c1.8918,0,3.4375-1.5763,3.4375-3.4688v-19.812c0-1.8913-1.5451-3.4375-3.4375-3.4375h-31.812zm0,2,31.812,0c0.81157,0,1.4375,0.62684,1.4375,1.4375v19.812c0,0.81157-0.62733,1.4688-1.4375,1.4688h-31.812c-0.81157,0-1.4375-0.65669-1.4375-1.4688v-19.812c0-0.81017,0.62733-1.4375,1.4375-1.4375z"/>
<path id="path27" style="baseline-shift:baseline;block-progression:tb;color:#000000;direction:ltr;text-indent:0;text-align:start;enable-background:accumulate;text-transform:none;" fill="#f4f4f4" d="m502.41,141.91c-1.8918,0-3.4688,1.5457-3.4688,3.4375v19.812c0,1.8919,1.5763,3.4688,3.4688,3.4688h31.812c1.8918,0,3.4375-1.5763,3.4375-3.4688v-19.812c0-1.8913-1.5451-3.4375-3.4375-3.4375h-31.812zm0,2,31.812,0c0.81157,0,1.4375,0.62684,1.4375,1.4375v19.812c0,0.81157-0.62733,1.4688-1.4375,1.4688h-31.812c-0.81157,0-1.4688-0.65669-1.4688-1.4688v-19.812c0-0.81017,0.65858-1.4375,1.4688-1.4375z"/>
<path id="path29" style="baseline-shift:baseline;block-progression:tb;color:#000000;direction:ltr;text-indent:0;text-align:start;enable-background:accumulate;text-transform:none;" fill="#f4f4f4" d="m55.031,193.53c-1.8918,0-3.4375,1.5451-3.4375,3.4375v19.844c0,1.8912,1.5452,3.4375,3.4375,3.4375h31.812c1.8924,0,3.4375-1.5457,3.4375-3.4375v-19.844c0-1.8918-1.5446-3.4375-3.4375-3.4375h-31.812zm0,2,31.812,0c0.81107,0,1.4375,0.62733,1.4375,1.4375v19.844c0,0.81017-0.62593,1.4375-1.4375,1.4375h-31.812c-0.80967,0-1.4375-0.62873-1.4375-1.4375v-19.844c0-0.81157,0.62733-1.4375,1.4375-1.4375z"/>
<path id="path31" style="baseline-shift:baseline;block-progression:tb;color:#000000;direction:ltr;text-indent:0;text-align:start;enable-background:accumulate;text-transform:none;" fill="#f4f4f4" d="m107.84,193.53c-1.8924,0-3.4688,1.5451-3.4688,3.4375v19.844c0,1.8912,1.5758,3.4375,3.4688,3.4375h31.812c1.8924,0,3.4375-1.5462,3.4375-3.4375v-19.844c0-1.8913-1.5446-3.4375-3.4375-3.4375h-31.812zm0,2,31.812,0c0.81107,0,1.4375,0.62684,1.4375,1.4375v19.844c0,0.81066-0.62593,1.4375-1.4375,1.4375h-31.812c-0.81107,0-1.4688-0.62873-1.4688-1.4375v-19.844c0-0.81157,0.65718-1.4375,1.4688-1.4375z"/>
<path id="path33" style="baseline-shift:baseline;block-progression:tb;color:#000000;direction:ltr;text-indent:0;text-align:start;enable-background:accumulate;text-transform:none;" fill="#f4f4f4" d="m160.66,193.53c-1.8918,0-3.4688,1.5451-3.4688,3.4375v19.844c0,1.8907,1.5758,3.4375,3.4688,3.4375h31.812c1.8924,0,3.4375-1.5457,3.4375-3.4375v-19.844c0-1.8918-1.5446-3.4375-3.4375-3.4375h-31.812zm0,2,31.812,0c0.81107,0,1.4375,0.62733,1.4375,1.4375v19.844c0,0.81017-0.62593,1.4375-1.4375,1.4375h-31.812c-0.81107,0-1.4688-0.62824-1.4688-1.4375v-19.844c0-0.81157,0.65858-1.4375,1.4688-1.4375z"/>
<path id="path35" style="baseline-shift:baseline;block-progression:tb;color:#000000;direction:ltr;text-indent:0;text-align:start;enable-background:accumulate;text-transform:none;" fill="#f4f4f4" d="m213.44,193.53c-1.8924,0-3.4375,1.5451-3.4375,3.4375v19.844c0,1.8912,1.5446,3.4375,3.4375,3.4375h31.812c1.8918,0,3.4688-1.5457,3.4688-3.4375v-19.844c0-1.8913-1.5758-3.4375-3.4688-3.4375h-31.812zm0,2,31.812,0c0.81107,0,1.4688,0.62684,1.4688,1.4375v19.844c0,0.81017-0.65858,1.4375-1.4688,1.4375h-31.812c-0.81107,0-1.4375-0.62873-1.4375-1.4375v-19.844c0-0.81157,0.62593-1.4375,1.4375-1.4375z"/>
<path id="path37" style="baseline-shift:baseline;block-progression:tb;color:#000000;direction:ltr;text-indent:0;text-align:start;enable-background:accumulate;text-transform:none;" fill="#f4f4f4" d="m266.25,193.53c-1.8918,0-3.4375,1.5451-3.4375,3.4375v19.844c0,1.8907,1.5446,3.4375,3.4375,3.4375h31.812c1.8924,0,3.4688-1.5462,3.4688-3.4375v-19.844c0-1.8913-1.5758-3.4375-3.4688-3.4375h-31.812zm0,2,31.812,0c0.81107,0,1.4688,0.62684,1.4688,1.4375v19.844c0,0.81066-0.65718,1.4375-1.4688,1.4375h-31.812c-0.81107,0-1.4375-0.62824-1.4375-1.4375v-19.844c0-0.81157,0.62733-1.4375,1.4375-1.4375z"/>
<path id="path39" style="baseline-shift:baseline;block-progression:tb;color:#000000;direction:ltr;text-indent:0;text-align:start;enable-background:accumulate;text-transform:none;" fill="#f4f4f4" d="m319.06,193.53c-1.8918,0-3.4375,1.5446-3.4375,3.4375v19.844c0,1.8912,1.5446,3.4375,3.4375,3.4375h31.812c1.8912,0,3.4688-1.5452,3.4688-3.4375v-19.844c0-1.8918-1.5764-3.4375-3.4688-3.4375h-31.812zm0,2,31.812,0c0.80967,0,1.4688,0.62733,1.4688,1.4375v19.844c0,0.80967-0.65998,1.4375-1.4688,1.4375h-31.812c-0.81107,0-1.4375-0.62873-1.4375-1.4375v-19.844c0-0.81107,0.62733-1.4375,1.4375-1.4375z"/>
<path id="path41" style="baseline-shift:baseline;block-progression:tb;color:#000000;direction:ltr;text-indent:0;text-align:start;enable-background:accumulate;text-transform:none;" fill="#f4f4f4" d="m371.88,193.53c-1.8918,0-3.4375,1.5451-3.4375,3.4375v19.844c0,1.8907,1.5446,3.4375,3.4375,3.4375h31.812c1.8918,0,3.4375-1.5457,3.4375-3.4375v-19.844c0-1.8913-1.5446-3.4375-3.4375-3.4375h-31.812zm0,2,31.812,0c0.81107,0,1.4375,0.62684,1.4375,1.4375v19.844c0,0.81017-0.62733,1.4375-1.4375,1.4375h-31.812c-0.81107,0-1.4375-0.62824-1.4375-1.4375v-19.844c0-0.81157,0.62733-1.4375,1.4375-1.4375z"/>
<path id="path43" style="baseline-shift:baseline;block-progression:tb;color:#000000;direction:ltr;text-indent:0;text-align:start;enable-background:accumulate;text-transform:none;" fill="#f4f4f4" d="m424.69,193.53c-1.8924,0-3.4375,1.5456-3.4375,3.4375v19.844c0,1.8902,1.544,3.4375,3.4375,3.4375h31.812c1.8918,0,3.4375-1.5452,3.4375-3.4375v-19.844c0-1.8918-1.5446-3.4375-3.4375-3.4375h-31.812zm0,2,31.812,0c0.81107,0,1.4375,0.62733,1.4375,1.4375v19.844c0,0.80967-0.62733,1.4375-1.4375,1.4375h-31.812c-0.81247,0-1.4375-0.62775-1.4375-1.4375v-19.844c0-0.81206,0.62593-1.4375,1.4375-1.4375z"/>
<path id="path45" style="baseline-shift:baseline;block-progression:tb;color:#000000;direction:ltr;text-indent:0;text-align:start;enable-background:accumulate;text-transform:none;" fill="#f4f4f4" d="m477.5,193.53c-1.8912,0-3.4688,1.5446-3.4688,3.4375v19.844c0,1.8912,1.5764,3.4375,3.4688,3.4375h31.812c1.8918,0,3.4375-1.5457,3.4375-3.4375v-19.844c0-1.8913-1.5446-3.4375-3.4375-3.4375h-31.812zm0,2,31.812,0c0.81107,0,1.4375,0.62684,1.4375,1.4375v19.844c0,0.81017-0.62733,1.4375-1.4375,1.4375h-31.812c-0.80967,0-1.4688-0.62873-1.4688-1.4375v-19.844c0-0.81107,0.65998-1.4375,1.4688-1.4375z"/>
<path id="path47" style="baseline-shift:baseline;block-progression:tb;color:#000000;direction:ltr;text-indent:0;text-align:start;enable-background:accumulate;text-transform:none;" fill="#f4f4f4" d="m530.31,193.53c-1.8918,0-3.4688,1.5451-3.4688,3.4375v19.844c0,1.8907,1.5758,3.4375,3.4688,3.4375h31.812c1.8918,0,3.4375-1.5462,3.4375-3.4375v-19.844c0-1.8908-1.5446-3.4375-3.4375-3.4375h-31.812zm0,2,31.812,0c0.81107,0,1.4375,0.62635,1.4375,1.4375v19.844c0,0.81066-0.62733,1.4375-1.4375,1.4375h-31.812c-0.81107,0-1.4688-0.62824-1.4688-1.4375v-19.844c0-0.81157,0.65858-1.4375,1.4688-1.4375z"/>
<path id="path49" style="baseline-shift:baseline;block-progression:tb;color:#000000;direction:ltr;text-indent:0;text-align:start;enable-background:accumulate;text-transform:none;" fill="#f4f4f4" d="m68.5,245.16c-1.8918,0-3.4688,1.5763-3.4688,3.4688v19.812c0,1.8918,1.5769,3.4375,3.4688,3.4375h31.812c1.8913,0,3.4375-1.5451,3.4375-3.4375v-1-18.812c0-1.8913-1.5446-3.4688-3.4375-3.4688h-31.812zm0,2,31.812,0c0.81107,0,1.4375,0.65809,1.4375,1.4688v19.812c0,0.81157-0.62684,1.4375-1.4375,1.4375h-31.812c-0.81017,0-1.4688-0.62733-1.4688-1.4375v-19.812c0-0.81157,0.65858-1.4688,1.4688-1.4688z"/>
<path id="path51" style="baseline-shift:baseline;block-progression:tb;color:#000000;direction:ltr;text-indent:0;text-align:start;enable-background:accumulate;text-transform:none;" fill="#f4f4f4" d="m121.28,245.16c-1.8924,0-3.4375,1.5763-3.4375,3.4688v19.812c0,1.8918,1.5451,3.4375,3.4375,3.4375h31.812c1.8919,0,3.4688-1.5456,3.4688-3.4375v-19.812c0-1.8913-1.5758-3.4688-3.4688-3.4688h-31.812zm0,2,31.812,0c0.81107,0,1.4688,0.65809,1.4688,1.4688v19.812c0,0.81206-0.65669,1.4375-1.4688,1.4375h-31.812c-0.81157,0-1.4375-0.62733-1.4375-1.4375v-19.812c0-0.81157,0.62593-1.4688,1.4375-1.4688z"/>
<path id="path53" style="baseline-shift:baseline;block-progression:tb;color:#000000;direction:ltr;text-indent:0;text-align:start;enable-background:accumulate;text-transform:none;" fill="#f4f4f4" d="m174.09,245.16c-1.8918,0-3.4375,1.5763-3.4375,3.4688v19.812c0,1.8918,1.5457,3.4375,3.4375,3.4375h31.812c1.8919,0,3.4688-1.5451,3.4688-3.4375v-19.812c0-1.8918-1.5758-3.4688-3.4688-3.4688h-31.812zm0,2,31.812,0c0.81107,0,1.4688,0.65858,1.4688,1.4688v19.812c0,0.81157-0.65669,1.4375-1.4688,1.4375h-31.812c-0.81017,0-1.4375-0.62733-1.4375-1.4375v-19.812c0-0.81157,0.62733-1.4688,1.4375-1.4688z"/>
<path id="path55" style="baseline-shift:baseline;block-progression:tb;color:#000000;direction:ltr;text-indent:0;text-align:start;enable-background:accumulate;text-transform:none;" fill="#f4f4f4" d="m226.91,245.16c-1.8924,0-3.4375,1.5763-3.4375,3.4688v19.812c0,1.8918,1.5451,3.4375,3.4375,3.4375h31.812c1.8913,0,3.4688-1.5451,3.4688-3.4375v-19.812c0-1.8918-1.5764-3.4688-3.4688-3.4688h-31.812zm0,2,31.812,0c0.80967,0,1.4688,0.65858,1.4688,1.4688v19.812c0,0.81157-0.65809,1.4375-1.4688,1.4375h-31.812c-0.81157,0-1.4375-0.62733-1.4375-1.4375v-19.812c0-0.81157,0.62593-1.4688,1.4375-1.4688z"/>
<path id="path57" style="baseline-shift:baseline;block-progression:tb;color:#000000;direction:ltr;text-indent:0;text-align:start;enable-background:accumulate;text-transform:none;" fill="#f4f4f4" d="m279.72,245.16c-1.8918,0-3.4375,1.5763-3.4375,3.4688v19.812c0,1.8913,1.5451,3.4375,3.4375,3.4375h31.812c1.8913,0,3.4375-1.5451,3.4375-3.4375v-19.812c0-1.8913-1.5446-3.4688-3.4375-3.4688h-31.812zm0,2,31.812,0c0.81107,0,1.4375,0.65809,1.4375,1.4688v19.812c0,0.81157-0.62684,1.4375-1.4375,1.4375h-31.812c-0.81157,0-1.4375-0.62684-1.4375-1.4375v-19.812c0-0.81157,0.62733-1.4688,1.4375-1.4688z"/>
<path id="path59" style="baseline-shift:baseline;block-progression:tb;color:#000000;direction:ltr;text-indent:0;text-align:start;enable-background:accumulate;text-transform:none;" fill="#f4f4f4" d="m332.53,245.16c-1.8918,0-3.4375,1.5763-3.4375,3.4688v19.812c0,1.8913,1.5451,3.4375,3.4375,3.4375h31.812c1.8913,0,3.4375-1.5451,3.4375-3.4375v-19.812c0-1.8913-1.5446-3.4688-3.4375-3.4688h-31.812zm0,2,31.812,0c0.81107,0,1.4375,0.65809,1.4375,1.4688v19.812c0,0.81157-0.62684,1.4375-1.4375,1.4375h-31.812c-0.81157,0-1.4375-0.62684-1.4375-1.4375v-19.812c0-0.81157,0.62733-1.4688,1.4375-1.4688z"/>
<path id="path61" style="baseline-shift:baseline;block-progression:tb;color:#000000;direction:ltr;text-indent:0;text-align:start;enable-background:accumulate;text-transform:none;" fill="#f4f4f4" d="m385.34,245.16c-1.8918,0-3.4688,1.5763-3.4688,3.4688v19.812c0,1.8913,1.5763,3.4375,3.4688,3.4375h31.812c1.8913,0,3.4375-1.5451,3.4375-3.4375v-19.812c0-1.8913-1.5446-3.4688-3.4375-3.4688h-31.812zm0,2,31.812,0c0.81107,0,1.4375,0.65809,1.4375,1.4688v19.812c0,0.81157-0.62684,1.4375-1.4375,1.4375h-31.812c-0.81157,0-1.4688-0.62684-1.4688-1.4375v-19.812c0-0.81157,0.65858-1.4688,1.4688-1.4688z"/>
<path id="path63" style="baseline-shift:baseline;block-progression:tb;color:#000000;direction:ltr;text-indent:0;text-align:start;enable-background:accumulate;text-transform:none;" fill="#f4f4f4" d="m438.16,245.16c-1.8924,0-3.4688,1.5763-3.4688,3.4688v19.812c0,1.8913,1.5757,3.4375,3.4688,3.4375h31.812c1.8913,0,3.4375-1.5451,3.4375-3.4375v-19.812c0-1.8913-1.5446-3.4688-3.4375-3.4688h-31.812zm0,2,31.812,0c0.81107,0,1.4375,0.65809,1.4375,1.4688v19.812c0,0.81157-0.62684,1.4375-1.4375,1.4375h-31.812c-0.81297,0-1.4688-0.62684-1.4688-1.4375v-19.812c0-0.81157,0.65718-1.4688,1.4688-1.4688z"/>
<path id="path65" style="baseline-shift:baseline;block-progression:tb;color:#000000;direction:ltr;text-indent:0;text-align:start;enable-background:accumulate;text-transform:none;" fill="#f4f4f4" d="m490.94,245.16c-1.8924,0-3.4375,1.5768-3.4375,3.4688v19.812c0,1.8908,1.5445,3.4375,3.4375,3.4375h31.812c1.8919,0,3.4688-1.5456,3.4688-3.4375v-19.812c0-1.8908-1.5752-3.4688-3.4688-3.4688h-31.812zm0,2,31.812,0c0.81247,0,1.4688,0.6576,1.4688,1.4688v19.812c0,0.81206-0.65669,1.4375-1.4688,1.4375h-31.812c-0.81297,0-1.4375-0.62635-1.4375-1.4375v-19.812c0-0.81206,0.62593-1.4688,1.4375-1.4688z"/>
<path id="path67" style="baseline-shift:baseline;block-progression:tb;color:#000000;direction:ltr;text-indent:0;text-align:start;enable-background:accumulate;text-transform:none;" fill="#f4f4f4" d="m93.406,296.81c-1.8908,0-3.4688,1.5445-3.4688,3.4375v19.812c0,1.8918,1.5769,3.4688,3.4688,3.4688h31.812c1.8919,0,3.4375-1.5768,3.4375-3.4688v-19.812c0-1.8919-1.5456-3.4375-3.4375-3.4375h-31.812zm0,2,31.812,0c0.81206,0,1.4375,0.62544,1.4375,1.4375v19.812c0,0.81206-0.62544,1.4688-1.4375,1.4688h-31.812c-0.81017,0-1.4688-0.65858-1.4688-1.4688v-19.812c0-0.81297,0.6576-1.4375,1.4688-1.4375z"/>
<path id="path69" style="baseline-shift:baseline;block-progression:tb;color:#000000;direction:ltr;text-indent:0;text-align:start;enable-background:accumulate;text-transform:none;" fill="#f4f4f4" d="m27.812,296.81c-1.8908,0-3.4375,1.5445-3.4375,3.4375v19.812c0,1.8918,1.5457,3.4688,3.4375,3.4688h41.125c1.8913,0,3.4375-1.5763,3.4375-3.4688v-1-18.812c0-1.8919-1.5456-3.4375-3.4375-3.4375h-41.125zm0,2,41.125,0c0.81206,0,1.4375,0.62544,1.4375,1.4375v19.812c0,0.81157-0.62684,1.4688-1.4375,1.4688h-41.125c-0.81017,0-1.4375-0.65858-1.4375-1.4688v-19.812c0-0.81297,0.62635-1.4375,1.4375-1.4375z"/>
<path id="path71" style="baseline-shift:baseline;block-progression:tb;color:#000000;direction:ltr;text-indent:0;text-align:start;enable-background:accumulate;text-transform:none;" fill="#f4f4f4" d="m146.22,296.81c-1.8908,0-3.4688,1.5445-3.4688,3.4375v19.812c0,1.8913,1.5763,3.4688,3.4688,3.4688h31.812c1.8913,0,3.4375-1.5763,3.4375-3.4688v-19.812c0-1.8924-1.5462-3.4375-3.4375-3.4375h-31.812zm0,2,31.812,0c0.81066,0,1.4375,0.62593,1.4375,1.4375v19.812c0,0.81157-0.62684,1.4688-1.4375,1.4688h-31.812c-0.81157,0-1.4688-0.65809-1.4688-1.4688v-19.812c0-0.81297,0.6576-1.4375,1.4688-1.4375z"/>
<path id="path73" style="baseline-shift:baseline;block-progression:tb;color:#000000;direction:ltr;text-indent:0;text-align:start;enable-background:accumulate;text-transform:none;" fill="#f4f4f4" d="m199,296.81c-1.8908,0-3.4375,1.5445-3.4375,3.4375v19.812c0,1.8918,1.5457,3.4688,3.4375,3.4688h31.812c1.8919,0,3.4688-1.5763,3.4688-3.4688v-19.812c0-1.8924-1.5768-3.4375-3.4688-3.4375h-31.812zm0,2,31.812,0c0.81206,0,1.4688,0.62593,1.4688,1.4375v19.812c0,0.81157-0.65669,1.4688-1.4688,1.4688h-31.812c-0.81017,0-1.4375-0.65858-1.4375-1.4688v-19.812c0-0.81297,0.62635-1.4375,1.4375-1.4375z"/>
<path id="path75" style="baseline-shift:baseline;block-progression:tb;color:#000000;direction:ltr;text-indent:0;text-align:start;enable-background:accumulate;text-transform:none;" fill="#f4f4f4" d="m251.81,296.81c-1.8914,0-3.4375,1.545-3.4375,3.4375v19.812c0,1.8913,1.5451,3.4688,3.4375,3.4688h31.812c1.8913,0,3.4688-1.5763,3.4688-3.4688v-19.812c0-1.8924-1.5774-3.4375-3.4688-3.4375h-31.812zm0,2,31.812,0c0.81066,0,1.4688,0.62593,1.4688,1.4375v19.812c0,0.81157-0.65809,1.4688-1.4688,1.4688h-31.812c-0.81157,0-1.4375-0.65809-1.4375-1.4688v-19.812c0-0.81346,0.62495-1.4375,1.4375-1.4375z"/>
<path id="path77" style="baseline-shift:baseline;block-progression:tb;color:#000000;direction:ltr;text-indent:0;text-align:start;enable-background:accumulate;text-transform:none;" fill="#f4f4f4" d="m304.62,296.81c-1.8914,0-3.4375,1.545-3.4375,3.4375v19.812c0,1.8908,1.5445,3.4688,3.4375,3.4688h31.812c1.8919,0,3.4375-1.5768,3.4375-3.4688v-19.812c0-1.8914-1.545-3.4375-3.4375-3.4375h-31.812zm0,2,31.812,0c0.81346,0,1.4375,0.62495,1.4375,1.4375v19.812c0,0.81206-0.62544,1.4688-1.4375,1.4688h-31.812c-0.81297,0-1.4375-0.6576-1.4375-1.4688v-19.812c0-0.81346,0.62495-1.4375,1.4375-1.4375z"/>
<path id="path79" style="baseline-shift:baseline;block-progression:tb;color:#000000;direction:ltr;text-indent:0;text-align:start;enable-background:accumulate;text-transform:none;" fill="#f4f4f4" d="m357.44,296.81c-1.8908,0-3.4375,1.545-3.4375,3.4375v19.812c0,1.8908,1.5451,3.4688,3.4375,3.4688h31.812c1.8919,0,3.4375-1.5763,3.4375-3.4688v-19.812c0-1.8919-1.545-3.4375-3.4375-3.4375h-31.812zm0,2,31.812,0c0.81346,0,1.4375,0.62544,1.4375,1.4375v19.812c0,0.81157-0.62544,1.4688-1.4375,1.4688h-31.812c-0.81157,0-1.4375-0.6576-1.4375-1.4688v-19.812c0-0.81346,0.62635-1.4375,1.4375-1.4375z"/>
<path id="path81" style="baseline-shift:baseline;block-progression:tb;color:#000000;direction:ltr;text-indent:0;text-align:start;enable-background:accumulate;text-transform:none;" fill="#f4f4f4" d="m410.25,296.81c-1.8914,0-3.4375,1.545-3.4375,3.4375v19.812c0,1.8908,1.5445,3.4688,3.4375,3.4688h31.812c1.8919,0,3.4375-1.5763,3.4375-3.4688v-19.812c0-1.8919-1.545-3.4375-3.4375-3.4375h-31.812zm0,2,31.812,0c0.81346,0,1.4375,0.62544,1.4375,1.4375v19.812c0,0.81157-0.62544,1.4688-1.4375,1.4688h-31.812c-0.81297,0-1.4375-0.6576-1.4375-1.4688v-19.812c0-0.81346,0.62495-1.4375,1.4375-1.4375z"/>
<path id="path83" style="baseline-shift:baseline;block-progression:tb;color:#000000;direction:ltr;text-indent:0;text-align:start;enable-background:accumulate;text-transform:none;" fill="#f4f4f4" d="m463.06,296.81c-1.8908,0-3.4688,1.5445-3.4688,3.4375v19.812c0,1.8913,1.5763,3.4688,3.4688,3.4688h31.812c1.8913,0,3.4375-1.5763,3.4375-3.4688v-19.812c0-1.8919-1.5456-3.4375-3.4375-3.4375h-31.812zm0,2,31.812,0c0.81206,0,1.4375,0.62544,1.4375,1.4375v19.812c0,0.81157-0.62684,1.4688-1.4375,1.4688h-31.812c-0.81157,0-1.4688-0.65809-1.4688-1.4688v-19.812c0-0.81297,0.6576-1.4375,1.4688-1.4375z"/>
<path id="path85" style="baseline-shift:baseline;block-progression:tb;color:#000000;direction:ltr;text-indent:0;text-align:start;enable-background:accumulate;text-transform:none;" fill="#f4f4f4" d="m517.12,296.81c-1.8908,0-3.4375,1.5445-3.4375,3.4375v19.812c0,1.8913,1.5451,3.4688,3.4375,3.4688h54.844c1.8913,0,3.4375-1.5763,3.4375-3.4688v-19.812c0-1.8919-1.5456-3.4375-3.4375-3.4375h-54.844zm0,2,54.844,0c0.81206,0,1.4375,0.62544,1.4375,1.4375v19.812c0,0.81157-0.62684,1.4688-1.4375,1.4688h-54.844c-0.81157,0-1.4375-0.65809-1.4375-1.4688v-19.812c0-0.81297,0.62635-1.4375,1.4375-1.4375z"/>
<path id="path87" style="baseline-shift:baseline;block-progression:tb;color:#000000;direction:ltr;text-indent:0;text-align:start;enable-background:accumulate;text-transform:none;" fill="#f4f4f4" d="m543.75,245.16c-1.8918,0-3.4375,1.5768-3.4375,3.4688v19.812c0,1.8908,1.5451,3.4375,3.4375,3.4375h31.812c1.8919,0,3.4688-1.5451,3.4688-3.4375v-19.812c0-1.8913-1.5752-3.4688-3.4688-3.4688h-31.812zm0,2,31.812,0c0.81247,0,1.4688,0.65809,1.4688,1.4688v19.812c0,0.81157-0.65669,1.4375-1.4688,1.4375h-31.812c-0.81157,0-1.4375-0.62635-1.4375-1.4375v-19.812c0-0.81206,0.62733-1.4688,1.4375-1.4688z"/>
<path id="path89" stroke="#F4F4F4" stroke-width="2" d="M512.91,369.76" fill="none"/>
<path id="line91" style="baseline-shift:baseline;block-progression:tb;color:#000000;direction:ltr;text-indent:0;text-align:start;enable-background:accumulate;text-transform:none;" fill="#f4f4f4" d="m532.19,322.19-16.156,37.75,1.8438,0.78125,16.125-37.75-1.8125-0.78125z"/>
<path id="line93" style="baseline-shift:baseline;block-progression:tb;color:#000000;direction:ltr;text-indent:0;text-align:start;enable-background:accumulate;text-transform:none;" fill="#f4f4f4" d="m554.22,270.66-11.438,26.75,1.8438,0.78125,11.438-26.75-1.8438-0.78125z"/>
<path id="line95" style="baseline-shift:baseline;block-progression:tb;color:#000000;direction:ltr;text-indent:0;text-align:start;enable-background:accumulate;text-transform:none;" fill="#f4f4f4" d="m601.97,158.97-37.062,86.656,1.8438,0.78125,37.062-86.656-1.8438-0.78125z"/>
<path id="path97" stroke="#F4F4F4" stroke-width="2" d="M520.91,369.76" fill="none"/>
<path id="line99" style="baseline-shift:baseline;block-progression:tb;color:#000000;direction:ltr;text-indent:0;text-align:start;enable-background:accumulate;text-transform:none;" fill="#f4f4f4" d="m540.12,322.28-16.062,37.531,1.8438,0.8125,16.062-37.562-1.8438-0.78125z"/>
<path id="line101" style="baseline-shift:baseline;block-progression:tb;color:#000000;direction:ltr;text-indent:0;text-align:start;enable-background:accumulate;text-transform:none;" fill="#f4f4f4" d="m562.16,270.75-11.375,26.625,1.8125,0.78125l11.41-26.63-1.84-0.78z"/>
<path id="line103" style="baseline-shift:baseline;block-progression:tb;color:#000000;direction:ltr;text-indent:0;text-align:start;enable-background:accumulate;text-transform:none;" fill="#f4f4f4" d="m602.06,177.41-29.25,68.406,1.8438,0.78125,29.25-68.406-1.8438-0.78125z"/>
<path id="path105" stroke="#F4F4F4" stroke-width="2" d="M528.9,369.76" fill="none"/>
<path id="line107" style="baseline-shift:baseline;block-progression:tb;color:#000000;direction:ltr;text-indent:0;text-align:start;enable-background:accumulate;text-transform:none;" fill="#f4f4f4" d="m548.16,322.16-16.344,38.25,1.8438,0.78125,16.344-38.25-1.8438-0.78125z"/>
<path id="line109" style="baseline-shift:baseline;block-progression:tb;color:#000000;direction:ltr;text-indent:0;text-align:start;enable-background:accumulate;text-transform:none;" fill="#f4f4f4" d="m570.19,270.62-11.438,26.781,1.8438,0.78125,11.438-26.781-1.8438-0.78125z"/>
<path id="line111" style="baseline-shift:baseline;block-progression:tb;color:#000000;direction:ltr;text-indent:0;text-align:start;enable-background:accumulate;text-transform:none;" fill="#f4f4f4" d="m601.88,196.53-24.875,58.125,1.8438,0.78125,24.875-58.125-1.8438-0.78125z"/>
<path id="path113" stroke="#F4F4F4" stroke-width="2" d="M536.9,369.76" fill="none"/>
<path id="line115" style="baseline-shift:baseline;block-progression:tb;color:#000000;direction:ltr;text-indent:0;text-align:start;enable-background:accumulate;text-transform:none;" fill="#f4f4f4" d="m556,322.5-16.125,37.781,1.8438,0.78125,16.125-37.781l-1.84-0.78z"/>
<path id="line117" style="baseline-shift:baseline;block-progression:tb;color:#000000;direction:ltr;text-indent:0;text-align:start;enable-background:accumulate;text-transform:none;" fill="#f4f4f4" d="m602.22,214.38-35.531,83.156,1.8125,0.8125,35.562-83.188-1.8438-0.78125z"/>
<path id="path119" stroke="#F4F4F4" stroke-width="2" d="M544.89,369.76" fill="none"/>
<path id="line121" style="baseline-shift:baseline;block-progression:tb;color:#000000;direction:ltr;text-indent:0;text-align:start;enable-background:accumulate;text-transform:none;" fill="#f4f4f4" d="M564.16,322.16,548,359.94,549.84,360.75,566,322.94l-1.8438-0.78125z"/>
<path id="line123" style="baseline-shift:baseline;block-progression:tb;color:#000000;direction:ltr;text-indent:0;text-align:start;enable-background:accumulate;text-transform:none;" fill="#f4f4f4" d="m602.19,233.19-28.688,67.094,1.8438,0.78125,28.688-67.094-1.8438-0.78125z"/>
<path id="polygon125" style="baseline-shift:baseline;block-progression:tb;color:#000000;direction:ltr;text-indent:0;text-align:start;enable-background:accumulate;text-transform:none;" fill="#f4f4f4" d="m22.094,10.094,0,1,0,14.562,0,1,1,0,27.875,0,0,0.34375-28,0-1,0,0,1,0,5.375,0,1,1,0,37.312,0,1,0,0-1,0-13.844,0-1-1,0-29.594,0,0-0.1875,29.969,0,1,0,0-1,0-6.25,0-1-1,0-37.562,0-1,0zm2,2,35.562,0,0,4.25-29.969,0-1,0,0,1,0,2.1875,0,1,1,0,29.594,0,0,11.844-35.312,0,0-3.375,28,0,1,0,0-1,0-2.3438,0-1-1,0-27.875,0,0-12.562z"/>
<path id="rect127" style="baseline-shift:baseline;block-progression:tb;color:#000000;direction:ltr;text-indent:0;text-align:start;enable-background:accumulate;text-transform:none;" fill="#f4f4f4" d="m62.031,9.8438,0,1,0,22.531,0,1,1,0,7.5938,0,1,0,0-1,0-22.531,0-1-1,0-7.5938,0-1,0zm2,2,5.5938,0,0,20.531-5.5938,0,0-20.531z"/>
<path id="rect129" style="baseline-shift:baseline;block-progression:tb;color:#000000;direction:ltr;text-indent:0;text-align:start;enable-background:accumulate;text-transform:none;" fill="#f4f4f4" d="m61.812,4.5938,0,1,0,3,0,1,1,0,7.875,0,1,0,0-1,0-3,0-1-1,0-7.875,0-1,0zm2,2,5.875,0,0,1-5.875,0,0-1z"/>
<path id="rect131" style="baseline-shift:baseline;block-progression:tb;color:#000000;direction:ltr;text-indent:0;text-align:start;enable-background:accumulate;text-transform:none;" fill="#f4f4f4" d="m198.59,9.8438,0,1,0,23.031,0,1,1,0,7.5938,0,1,0,0-1,0-23.031,0-1-1,0-7.5938,0-1,0zm2,2,5.5938,0,0,21.031-5.5938,0,0-21.031z"/>
<path id="rect133" style="baseline-shift:baseline;block-progression:tb;color:#000000;direction:ltr;text-indent:0;text-align:start;enable-background:accumulate;text-transform:none;" fill="#f4f4f4" d="m198.34,4.5938,0,1,0,3,0,1,1,0,7.9062,0,1,0,0-1,0-3,0-1-1,0-7.9062,0-1,0zm2,2,5.9062,0,0,1-5.9062,0,0-1z"/>
<path id="polygon135" style="baseline-shift:baseline;block-progression:tb;color:#000000;direction:ltr;text-indent:0;text-align:start;enable-background:accumulate;text-transform:none;" fill="#f4f4f4" d="m71.844,10.094,0,1,0,22.156,0,1,1,0,6.6562,0,1,0,0-1,0-14.469,20.406,0,0,14.656,0,1,1,0,6.7188,0,1,0,0-1,0-22.344,0-1-1,0-35.781,0-1,0zm2,2,33.781,0,0,20.344-4.7188,0,0-14.656,0-1-1,0-22.406,0-1,0,0,1,0,14.469-4.6562,0,0-20.156z"/>
<path id="polygon137" style="baseline-shift:baseline;block-progression:tb;color:#000000;direction:ltr;text-indent:0;text-align:start;enable-background:accumulate;text-transform:none;" fill="#f4f4f4" d="m110.38,9.7812,0,1,0,22.781,0,1,1,0,37.5,0,1,0,0-1,0-6.8125,0-1-1,0-28.125,0,0-7.0312,27.656,0,1,0,0-1,0-6.9375,0-1-1,0-37.031,0-1,0zm2,2,35.031,0,0,4.9375-27.656,0-1,0,0,1,0,9.0312,0,1,1,0,28.125,0,0,4.8125-35.5,0,0-20.781z"/>
<path id="rect139" style="baseline-shift:baseline;block-progression:tb;color:#000000;direction:ltr;text-indent:0;text-align:start;enable-background:accumulate;text-transform:none;" fill="#f4f4f4" d="m149.78,4.9062,0,1,0,27.656,0,1,1,0,7.4062,0,1,0,0-1,0-27.656,0-1-1,0-7.4062,0-1,0zm2,2,5.4062,0,0,25.656-5.4062,0,0-25.656z"/>
<path id="polygon141" style="baseline-shift:baseline;block-progression:tb;color:#000000;direction:ltr;text-indent:0;text-align:start;enable-background:accumulate;text-transform:none;" fill="#f4f4f4" d="m159.16,9.7812,0,1,0,6,0,1,1,0,29.156,0,0,1.4375-29.125,0-1,0,0,1,0,13.344,0,1,1,0,36.969,0,1,0,0-1,0-22.781,0-1-1,0-37,0-1,0zm2,2,35,0,0,20.781-34.969,0,0-11.344,29.125,0,1,0,0-1,0-3.4375,0-1-1,0-29.156,0,0-4z"/>
<path id="polygon143" style="baseline-shift:baseline;block-progression:tb;color:#000000;direction:ltr;text-indent:0;text-align:start;enable-background:accumulate;text-transform:none;" fill="#f4f4f4" d="m207.91,9.7812,0,1,0,23.031,0,1,1,0,7.5312,0,1,0,0-1,0-15.594,29.938,0,1,0,0-1,0-6.4375,0-1-1,0-38.469,0-1,0zm2,2,36.469,0,0,4.4375-29.938,0-1,0,0,1,0,15.594-5.5312,0,0-21.031z"/>
<path id="rect145" style="baseline-shift:baseline;block-progression:tb;color:#000000;direction:ltr;text-indent:0;text-align:start;enable-background:accumulate;text-transform:none;" fill="#f4f4f4" d="m166.97,23.625,0,1,0,4.4688,0,1,1,0,22.281,0,1,0,0-1,0-4.4688,0-1-1,0-22.281,0-1,0zm2,2,20.281,0,0,2.4688-20.281,0,0-2.4688z"/>
<path id="line147" style="baseline-shift:baseline;block-progression:tb;color:#000000;direction:ltr;text-indent:0;text-align:start;enable-background:accumulate;text-transform:none;" fill="#f4f4f4" d="m0.9375,359.47,0,2,602.06,0,0-2-602.06,0z"/>
</svg>
