<?xml version="1.0" encoding="UTF-8" standalone="no"?>
<!-- Generator: Adobe Illustrator 13.0.0, SVG Export Plug-In . SVG Version: 6.00 Build 14948)  -->
<svg id="Layer_3" xmlns:rdf="http://www.w3.org/1999/02/22-rdf-syntax-ns#" xmlns="http://www.w3.org/2000/svg" xml:space="preserve" height="353.39px" viewBox="0 0 629.742 353.39" width="629.74px" version="1.2" y="0px" x="0px" xmlns:cc="http://creativecommons.org/ns#" xmlns:dc="http://purl.org/dc/elements/1.1/"><metadata id="metadata75"><rdf:RDF><cc:Work rdf:about=""><dc:format>image/svg+xml</dc:format><dc:type rdf:resource="http://purl.org/dc/dcmitype/StillImage"/><dc:title/></cc:Work></rdf:RDF></metadata>
<path id="path3" style="baseline-shift:baseline;block-progression:tb;color:#000000;direction:ltr;text-indent:0;text-align:start;enable-background:accumulate;text-transform:none;" fill="#f4f4f4" d="m134.38,8.3125c-4.2655,0.36246-11.452,1.7648-24.031,5.3438-12.421,3.5333-31.139,6.1669-47.969,8.6562-8.4148,1.2447-16.35,2.4443-22.844,3.75-6.4942,1.3057-11.477,2.6265-14.25,4.375-10.406,6.5593-11.949,19.143-12.594,23.656-0.18707,1.3098,0.03827,2.411,0.5625,3.2188,0.52423,0.80773,1.3059,1.2469,2.0312,1.5,0.6675,0.2329,1.2945,0.29382,1.8125,0.3125,0.04575,1.0691,0.26587,2.7673,1.9688,4.2812l1.3438-1.5c-1.524-1.348-1.413-3.717-1.413-3.717l0.094-1.219-1.219,0.156s-1.0624,0.11785-1.9375-0.1875c-0.43757-0.15268-0.77376-0.37017-1-0.71875s-0.38743-0.88152-0.25-1.8438c0.65339-4.5747,2.1559-16.261,11.656-22.25,2.2031-1.389,7.142-2.8029,13.562-4.0938,6.4205-1.2909,14.373-2.5063,22.781-3.75,16.816-2.4874,35.509-5.0808,48.188-8.6875h0.0312c12.52-3.5621,19.614-4.9405,23.625-5.2812,2.0053-0.1704,3.2341-0.07868,3.9375,0.09375,0.70339,0.17243,0.86738,0.33466,1.0312,0.53125l1.5312-1.2812c-0.39-0.453-1.07-0.9345-2.1-1.188-1.04-0.2536-2.43-0.3375-4.56-0.1563z"/>
<path id="path5" style="baseline-shift:baseline;block-progression:tb;color:#000000;direction:ltr;text-indent:0;text-align:start;enable-background:accumulate;text-transform:none;" fill="#f4f4f4" d="m18.438,67.969c-1.0575,0.24016-2.1534,0.23369-3.3125,0.4375-1.159,0.20381-2.3934,0.68528-3.4062,1.875-2.0256,2.3794-3.2382,7.0729-4,17.844-1.518,21.463-5.4151,95.871-6.2812,118.19-0.43018,11.071-2.2779,27.176-0.96875,43.156,1.3091,15.981,5.7813,31.914,18.188,42.438,3.7222,3.1748,7.7873,6.109,11.688,8.0312,3.9002,1.9222,7.6868,2.8968,10.906,1.9062l-0.59375-1.9062c-2.4066,0.74046-5.7645-0.002-9.4375-1.8125-3.673-1.8103-7.6152-4.6185-11.25-7.7188-11.828-10.05-16.245-25.39-17.532-41.11-1.2876-15.718,0.56418-31.721,1-42.938,0.86383-22.256,4.738-96.715,6.25-118.09,0.75323-10.65,2.1491-15.064,3.5312-16.688,0.69107-0.81178,1.3333-1.0576,2.25-1.2188,0.91667-0.16119,2.0838-0.16841,3.4062-0.46875l-0.4375-1.9375z"/>
<path id="path7" style="baseline-shift:baseline;block-progression:tb;color:#000000;direction:ltr;text-indent:0;text-align:start;enable-background:accumulate;text-transform:none;" fill="#f4f4f4" d="m186.84,0c-13.746,0-22.207,0.88613-32.688,4.125s-22.936,8.7828-45,18.156c-44.041,18.713-59.271,17.363-72.15,18.969-6.9686,0.86896-11.561,3.4655-14.531,9.3438s-4.5158,14.873-6.25,29.031c-3.4642,28.29-9.2344,81.69-9.8125,123.31-0.28771,20.715-2.3463,40.724,0.5625,57.812s10.973,31.286,30.625,39.75c36.331,15.647,58.735,14.229,97.25,29.75,38.889,15.67,98.948,23.125,161.34,23.125h36.375,1c62.395,0,122.46-7.4545,161.34-23.125,38.514-15.521,60.92-14.103,97.25-29.75,19.652-8.4636,27.716-22.661,30.625-39.75,2.9088-17.089,0.85021-37.098,0.5625-57.812-0.57712-41.624-6.3483-95.023-9.8125-123.31-1.7337-14.158-3.2801-23.153-6.25-29.031-2.97-5.894-7.56-8.491-14.53-9.359-12.88-1.606-28.11-0.256-72.16-18.969-22.06-9.373-34.55-14.917-45.03-18.156-10.48-3.2391-18.91-4.125-32.65-4.125h-105.91-44.28-105.88zm0,2,105.88,0h44.28,105.91c13.661,0,21.772,0.85087,32.062,4.0312,10.291,3.1804,22.767,8.7152,44.844,18.094,44.234,18.792,60.14,17.561,72.688,19.125,6.6244,0.82555,10.249,2.8674,12.969,8.25,2.7194,5.3826,4.3342,14.261,6.0625,28.375,3.4598,28.254,9.2376,81.631,9.8125,123.09,0.28929,20.828,2.3074,40.792-0.53125,57.469-2.8387,16.677-10.341,30.026-29.438,38.25-36.014,15.511-58.417,14.05-97.219,29.688-38.222,15.402-97.72,22.919-159.59,23-0.33529,0.00044-0.66458,0-1,0h-37.375c-62.235,0-122.16-7.5145-160.59-23-38.799-15.63-61.2-14.17-97.215-29.68-19.097-8.23-26.599-21.58-29.438-38.25-2.8387-16.68-0.8205-36.64-0.5313-57.47,0.5759-41.46,6.3528-94.84,9.8128-123.1,1.729-14.114,3.312-22.993,6.031-28.375,2.7195-5.3825,6.3756-7.424,13-8.25,12.547-1.564,28.454-0.333,72.69-19.125,22.07-9.379,34.52-14.914,44.81-18.094,10.29-3.1801,18.43-4.0312,32.09-4.0312z"/>
<path id="path9" style="baseline-shift:baseline;block-progression:tb;color:#000000;direction:ltr;text-indent:0;text-align:start;enable-background:accumulate;text-transform:none;" fill="#f4f4f4" d="m495.38,8.3125c-2.1328-0.18123-3.5282-0.097278-4.5625,0.15625s-1.7166,0.73503-2.0938,1.1875l1.52,1.2817c0.16382-0.19653,0.32775-0.35881,1.0312-0.53125,0.7035-0.17244,1.9321-0.26415,3.9375-0.09375,4.0108,0.3408,11.105,1.7192,23.625,5.2812l0.28125,0.0625c12.674,3.5698,31.233,6.1543,47.938,8.625,8.4081,1.2436,16.33,2.4592,22.75,3.75,6.4204,1.2908,11.391,2.7048,13.594,4.0938,9.5003,5.9887,11.003,17.675,11.656,22.25,0.13722,0.96221-0.0236,1.4951-0.25,1.8438-0.22637,0.34865-0.56235,0.56606-1,0.71875-0.8753,0.30538-1.9375,0.1875-1.9375,0.1875l-1.25-0.15625,0.125,1.2188s0.11113,2.3697-1.4062,3.7188l1.3125,1.5c1.7036-1.5146,1.9548-3.2124,2-4.2812,0.51804-0.01868,1.145-0.07961,1.8125-0.3125,0.72535-0.25306,1.5069-0.69234,2.0312-1.5,0.52438-0.80766,0.74928-1.909,0.5625-3.2188-0.64461-4.5133-2.1881-17.097-12.594-23.656-2.7734-1.7485-7.7558-3.0694-14.25-4.375-6.48-1.307-14.41-2.507-22.82-3.752-16.83-2.489-35.55-5.122-47.97-8.656-12.58-3.579-19.77-4.981-24.03-5.3435z"/>
<path id="path11" style="baseline-shift:baseline;block-progression:tb;color:#000000;direction:ltr;text-indent:0;text-align:start;enable-background:accumulate;text-transform:none;" fill="#f4f4f4" d="m611.31,67.969-0.4375,1.9375c1.3225,0.30034,2.4583,0.30756,3.375,0.46875,0.91667,0.16119,1.5902,0.40697,2.2812,1.2188,1.3767,1.6172,2.7448,6.0341,3.5,16.594v0.09375c1.512,21.379,5.4174,95.838,6.2812,118.09,0.43532,11.216,2.2561,27.22,0.96875,42.938s-5.6727,31.062-17.5,41.094c-3.6343,3.1002-7.5769,5.9085-11.25,7.7188s-7.0309,2.553-9.4375,1.8125l-0.58,1.91c3.2194,0.99055,7.0059,0.016,10.906-1.9062,3.9004-1.9222,7.9658-4.8565,11.688-8.0312,12.407-10.523,16.879-26.457,18.188-42.438,1.3089-15.981-0.53907-32.085-0.96875-43.156-0.86616-22.316-4.7633-96.724-6.2812-118.19-0.76177-10.771-1.9744-15.464-4-17.844-1.0128-1.1897-2.2784-1.6712-3.4375-1.875-1.159-0.20381-2.2237-0.19734-3.2812-0.4375z"/>
<path id="path13" style="baseline-shift:baseline;block-progression:tb;color:#000000;direction:ltr;text-indent:0;text-align:start;enable-background:accumulate;text-transform:none;" fill="#f4f4f4" d="m305.03,38.938c-74.487,0-113.56,6.0897-129.5,7.8125-8.229,0.88966-13.401,4.373-16.562,10.188-3.1615,5.8145-4.4461,13.801-5.5312,24-2.1821,20.51-10.626,149.25-6.4688,187.19,0.57316,5.2295,1.0947,12.68,6.2812,19.844s14.962,13.929,33.719,18.219c37.316,8.534,86.46,13.75,106.97,13.75h41.875c20.509,0,69.652-5.216,106.97-13.75,18.758-4.2896,28.532-11.055,33.719-18.219,5.1863-7.164,5.7086-14.614,6.2812-19.844,4.1572-37.94-4.3179-166.68-6.5-187.19-1.0846-10.199-2.37-18.185-5.5312-24-3.1613-5.8146-8.333-9.2978-16.562-10.188-15.936-1.7228-55.013-7.8125-129.5-7.8125h-19.656zm0,2,19.656,0c74.379,0,113.19,6.0421,129.28,7.7812,7.7825,0.84134,12.134,3.8591,15.031,9.1875s4.2341,13.11,5.3125,23.25c2.1459,20.17,10.54,149.6,6.4688,186.75-0.58033,5.2995-1.0675,12.191-5.9062,18.875s-14.103,13.247-32.562,17.469c-37.116,8.488-86.331,13.688-106.5,13.688h-41.875c-20.169,0-69.416-5.1995-106.53-13.688-18.459-4.2214-27.724-10.785-32.562-17.469-4.839-6.684-5.3254-13.575-5.9062-18.875-4.0708-37.152,4.3541-166.58,6.5-186.75,1.0789-10.14,2.384-17.922,5.2812-23.25,2.8972-5.3285,7.2492-8.3462,15.031-9.1875,16.088-1.7392,54.903-7.7812,129.28-7.7812z"/>
<path id="path15" style="baseline-shift:baseline;block-progression:tb;color:#000000;direction:ltr;text-indent:0;text-align:start;enable-background:accumulate;text-transform:none;" fill="#f4f4f4" d="m176.69,67.812c-1.7356,0-3.1562,1.4212-3.1562,3.1562v181.47c0,1.735,1.4207,3.1562,3.1562,3.1562h276.38c1.7356,0,3.1562-1.4212,3.1562-3.1562v-1-180.47c0-1.735-1.4207-3.1562-3.1562-3.1562h-276.38zm0,2,276.38,0c0.65441,0,1.1562,0.50128,1.1562,1.1562v181.47c0,0.65497-0.50184,1.1562-1.1562,1.1562h-276.38c-0.65441,0-1.1562-0.50128-1.1562-1.1562v-181.47c0-0.65497,0.50184-1.1562,1.1562-1.1562z"/>
<g id="g17" stroke="#F4F4F4" stroke-width="2" fill="none">
	<circle id="circle19" r="9.953" cy="237.07" cx="127.25"/>
	<path id="path21" d="M124.8,246.72l-47.26-11.986c-5.329-1.351-8.553-6.765-7.201-12.094,1.351-5.328,6.766-8.552,12.094-7.201l47.26,11.985"/>
</g>
<g id="g23" stroke="#F4F4F4" stroke-width="2" fill="none">
	<circle id="circle25" r="9.953" cy="271.4" cx="127.25"/>
	<path id="path27" d="M124.8,281.05l-47.26-11.985c-5.329-1.351-8.553-6.767-7.201-12.094,1.351-5.329,6.766-8.553,12.094-7.202l47.26,11.986"/>
</g>
<path id="path29" style="baseline-shift:baseline;block-progression:tb;color:#000000;direction:ltr;text-indent:0;text-align:start;enable-background:accumulate;text-transform:none;" fill="#f4f4f4" d="m565.91,209.97c-0.5163-0.0851-1.0562-0.0998-1.5938,0.0312l-65.031,15.844c-2.1511,0.52288-3.4602,2.7247-2.9375,4.875,0.52389,2.1498,2.6924,3.4927,4.8438,2.9688l65.031-15.844c2.1507-0.52279,3.4928-2.7246,2.9688-4.875-0.39199-1.6136-1.7324-2.7447-3.2812-3zm-1.0938,2c1.0996-0.26796,2.1702,0.36825,2.4375,1.4688,0.26796,1.0996-0.40071,2.2015-1.5,2.4688l-65.031,15.812c-1.1007,0.26806-2.1694-0.36854-2.4375-1.4688-0.2673-1.0997,0.40109-2.2016,1.5-2.4688l65.031-15.812z"/>
<path id="path31" style="baseline-shift:baseline;block-progression:tb;color:#000000;direction:ltr;text-indent:0;text-align:start;enable-background:accumulate;text-transform:none;" fill="#f4f4f4" d="m565.91,222.78c-0.51628-0.085-1.0562-0.0685-1.5938,0.0625l-65.031,15.844c-2.1499,0.52391-3.46,2.7242-2.9375,4.875,0.52378,2.1507,2.6928,3.4614,4.8438,2.9375l65.031-15.812c2.1499-0.52391,3.4926-2.7241,2.9688-4.875-0.39209-1.613-1.7324-2.7761-3.2812-3.0312zm-1.0938,2c1.0996-0.26796,2.1703,0.40071,2.4375,1.5,0.26815,1.1011-0.39988,2.2007-1.5,2.4688l-65.031,15.812c-1.1011,0.26815-2.1693-0.36742-2.4375-1.4688-0.26751-1.1012,0.39988-2.2007,1.5-2.4688l65.031-15.844z"/>
<path id="path33" style="baseline-shift:baseline;block-progression:tb;color:#000000;direction:ltr;text-indent:0;text-align:start;enable-background:accumulate;text-transform:none;" fill="#f4f4f4" d="m565.91,235.62c-0.5163-0.0851-1.0562-0.0685-1.5938,0.0625l-65.031,15.844c-2.1507,0.52279-3.4602,2.6935-2.9375,4.8438,0.52378,2.1507,2.6928,3.4926,4.8438,2.9688l65.031-15.812c2.1507-0.52279,3.4928-2.7246,2.9688-4.875-0.39199-1.6136-1.7324-2.776-3.2812-3.0312zm-1.0938,2c1.0996-0.26796,2.1702,0.3995,2.4375,1.5,0.26796,1.0996-0.40071,2.1703-1.5,2.4375l-65.031,15.844c-1.1011,0.26815-2.1693-0.39867-2.4375-1.5-0.26733-1.0998,0.40071-2.1703,1.5-2.4375l65.02-15.84z"/>
<path id="path35" style="baseline-shift:baseline;block-progression:tb;color:#000000;direction:ltr;text-indent:0;text-align:start;enable-background:accumulate;text-transform:none;" fill="#f4f4f4" d="m565.91,248.47c-0.5163-0.0851-1.0562-0.0685-1.5938,0.0625l-65.04,15.85c-2.1507,0.52279-3.46,2.6929-2.9375,4.8438,0.52391,2.1499,2.6928,3.4926,4.8438,2.9688l65.031-15.844c2.1507-0.52279,3.4928-2.6934,2.9688-4.8438-0.39199-1.6136-1.7324-2.776-3.2812-3.0312zm-1.0938,2c1.0996-0.26796,2.1702,0.3995,2.4375,1.5,0.26796,1.0996-0.40071,2.1703-1.5,2.4375l-65.04,15.84c-1.1011,0.26815-2.1694-0.39988-2.4375-1.5-0.26749-1.1011,0.40071-2.1703,1.5-2.4375l65.031-15.844z"/>
<path id="path37" style="baseline-shift:baseline;block-progression:tb;color:#000000;direction:ltr;text-indent:0;text-align:start;enable-background:accumulate;text-transform:none;" fill="#f4f4f4" d="m565.91,261.31c-0.51628-0.085-1.0562-0.0685-1.5938,0.0625l-65.031,15.812c-2.1499,0.52391-3.46,2.7242-2.9375,4.875,0.52391,2.1499,2.6928,3.4926,4.8438,2.9688l65.031-15.844c2.1499-0.52391,3.4926-2.6928,2.9688-4.8438-0.39209-1.613-1.7324-2.7761-3.2812-3.0312zm-1.0938,2c1.0996-0.26796,2.1703,0.40071,2.4375,1.5,0.26815,1.1011-0.39988,2.1694-1.5,2.4375l-65.031,15.844c-1.1011,0.26815-2.1694-0.39988-2.4375-1.5-0.26751-1.1012,0.39988-2.1694,1.5-2.4375l65.02-15.84z"/>
<path id="circle39" style="baseline-shift:baseline;block-progression:tb;color:#000000;direction:ltr;text-indent:0;text-align:start;enable-background:accumulate;text-transform:none;" fill="#f4f4f4" d="m519.88,138.03c-11.773,0-21.312,9.5704-21.312,21.344,0,11.773,9.5391,21.344,21.312,21.344s21.344-9.5704,21.344-21.344c0-11.773-9.5704-21.344-21.344-21.344zm0,2c10.692,0,19.344,8.6513,19.344,19.344,0,10.692-8.6513,19.344-19.344,19.344-10.692,0-19.312-8.6513-19.312-19.344,0-10.692,8.62-19.344,19.312-19.344z"/>
<path id="circle41" style="baseline-shift:baseline;block-progression:tb;color:#000000;direction:ltr;text-indent:0;text-align:start;enable-background:accumulate;text-transform:none;" fill="#f4f4f4" d="m577.72,118.5c-11.773,0-21.312,9.5704-21.312,21.344,0,11.773,9.5391,21.344,21.312,21.344s21.344-9.5704,21.344-21.344c0-11.773-9.5704-21.344-21.344-21.344zm0,2c10.692,0,19.344,8.6513,19.344,19.344,0,10.692-8.6513,19.344-19.344,19.344-10.692,0-19.312-8.6513-19.312-19.344,0-10.692,8.62-19.344,19.312-19.344z"/>
<path id="circle43" style="baseline-shift:baseline;block-progression:tb;color:#000000;direction:ltr;text-indent:0;text-align:start;enable-background:accumulate;text-transform:none;" fill="#f4f4f4" d="m520.5,56.562c-3.8066,0-6.9062,3.0996-6.9062,6.9062,0,3.8067,3.0996,6.9062,6.9062,6.9062s6.9062-3.0996,6.9062-6.9062c0-3.8067-3.0996-6.9062-6.9062-6.9062zm0,2c2.7258,0,4.9062,2.1805,4.9062,4.9062,0,2.7258-2.1805,4.9062-4.9062,4.9062-2.7258,0-4.9062-2.1805-4.9062-4.9062,0-2.7258,2.1805-4.9062,4.9062-4.9062z"/>
<path id="path45" style="baseline-shift:baseline;block-progression:tb;color:#000000;direction:ltr;text-indent:0;text-align:start;enable-background:accumulate;text-transform:none;" fill="#f4f4f4" d="m70.188,106.78c-2.4524,0-4.4375,2.017-4.4375,4.4688v20.969c0,0.57662-0.12705,0.62672-0.125,0.625,0.002-0.002-0.11005,0.0625-0.4375,0.0625h-21.094c-2.4524,0-4.4688,2.0163-4.4688,4.4688v25.094c0,2.4524,2.0163,4.4688,4.4688,4.4688h21c0.30534,0,0.41971,0.0735,0.5,0.15625,0.08029,0.0828,0.15625,0.22245,0.15625,0.5v20.969c0,2.4524,1.9847,4.4688,4.4375,4.4688h25.125c2.4528,0,4.4375-2.0163,4.4375-4.4688v-20.906c0-0.52856,0.13035-0.66168,0.125-0.65625-0.0053,0.005,0.08862-0.0629,0.5625-0.0625h20.969c2.4524,0,4.4688-2.0163,4.4688-4.4688v-25.094c0-2.4524-2.0163-4.4688-4.4688-4.4688h-20.938c-0.39899,0-0.51089-0.10296-0.5625-0.15625-0.05161-0.0533-0.15625-0.15722-0.15625-0.53125v-20.969c0-2.4517-1.9851-4.4688-4.4375-4.4688h-25.125zm0,2,25.125,0c1.3716,0,2.4375,1.0985,2.4375,2.4688v20.969c0,0.70797,0.21111,1.4133,0.71875,1.9375,0.50764,0.52421,1.246,0.75,2,0.75h20.938c1.3716,0,2.4688,1.0972,2.4688,2.4688v25.094c0,1.3716-1.0972,2.4688-2.4688,2.4688h-20.969c-0.71612-0.0006-1.4627,0.11057-2,0.65625-0.53735,0.54568-0.6875,1.2931-0.6875,2.0625v20.906c0,1.3716-1.0663,2.4688-2.4375,2.4688h-25.125c-1.3712,0-2.4375-1.0972-2.4375-2.4688v-20.969c0-0.69645-0.23154-1.404-0.71875-1.9062-0.48721-0.50224-1.1968-0.75-1.9375-0.75h-21c-1.3716,0-2.4688-1.0972-2.4688-2.4688v-25.094c0-1.3716,1.0972-2.4688,2.4688-2.4688h21.094c0.50255,0,1.1492-0.051,1.7188-0.53125,0.56955-0.48022,0.84375-1.2549,0.84375-2.1562v-20.969c0-1.3703,1.0659-2.4688,2.4375-2.4688z"/>
<path id="path47" style="baseline-shift:baseline;block-progression:tb;color:#000000;direction:ltr;text-indent:0;text-align:start;enable-background:accumulate;text-transform:none;" fill="#f4f4f4" d="m75.25,109.38c-3.6469,0-6.625,2.9783-6.625,6.625v19.375c0,0.36971-0.08617,0.43224-0.0625,0.40625,0.02367-0.026,0.08206,0-0.125,0h-19.594c-3.6477,0-6.625,2.9775-6.625,6.625v15c0,3.6467,2.9775,6.625,6.625,6.625h19.438c0.04437,0,0.12907,0.0377,0.1875,0.0937,0.05843,0.0561,0.15625,0.15262,0.15625,0.53125v19.156c0,3.6465,2.9773,6.625,6.625,6.625h15c3.6477,0,6.625-2.9783,6.625-6.625v-19.438c0-0.34935,0.02802-0.30273,0-0.28125-0.02802,0.0215,0.12799-0.0625,0.53125-0.0625h19.25c3.6467,0,6.625-2.9783,6.625-6.625v-15c0-3.6473-2.9773-6.625-6.625-6.625h-19.312c-0.32212,0-0.3374-0.0462-0.375-0.0937s-0.09375-0.21368-0.09375-0.46875l-0.004-19.24c0-3.6467-2.9773-6.625-6.625-6.625h-15zm0,2,15,0c2.5663,0,4.625,2.0597,4.625,4.625v19.219c0,0.55593,0.11085,1.1875,0.53125,1.7188,0.4204,0.53124,1.1596,0.84375,1.9375,0.84375h19.312c2.5663,0,4.625,2.0583,4.625,4.625v15c0,2.5653-2.0597,4.625-4.625,4.625h-19.25c-0.58874,0-1.2005,0.0475-1.75,0.46875-0.54952,0.42123-0.78125,1.1774-0.78125,1.875v19.438c0,2.5653-2.0587,4.625-4.625,4.625h-15c-2.5663,0-4.625-2.0595-4.625-4.625v-19.156c0-0.81037-0.27943-1.5171-0.75-1.9688-0.47057-0.45167-1.0621-0.65625-1.5938-0.65625h-19.438c-2.5665,0-4.625-2.0597-4.625-4.625v-15c0-2.5665,2.0587-4.625,4.625-4.625h19.594c0.55094,0,1.1893-0.17776,1.625-0.65625,0.43567-0.47849,0.5625-1.0917,0.5625-1.75v-19.375c0-2.5653,2.0599-4.625,4.625-4.625z"/>
<path id="circle49" style="baseline-shift:baseline;block-progression:tb;color:#000000;direction:ltr;text-indent:0;text-align:start;enable-background:accumulate;text-transform:none;" fill="#f4f4f4" d="m82.75,140.25c-5.3205,0-9.6562,4.3358-9.6562,9.6562,0,5.3205,4.3358,9.6562,9.6562,9.6562,5.3205,0,9.6562-4.3358,9.6562-9.6562,0-5.3205-4.3358-9.6562-9.6562-9.6562zm0,2c4.2396,0,7.6562,3.4167,7.6562,7.6562,0,4.2396-3.4167,7.6562-7.6562,7.6562-4.2396,0-7.6562-3.4167-7.6562-7.6562,0-4.2396,3.4167-7.6562,7.6562-7.6562z"/>
<g id="g51">
	<path id="path53" stroke="#F4F4F4" stroke-width="2" d="M90.208,131.12c0.144,0.274,0.226,0.587,0.226,0.918,0,1.09-0.884,1.974-1.974,1.974h-11.414c-1.09,0-1.975-0.884-1.975-1.974,0-0.483,0.174-0.926,0.462-1.27l5.439-9.811c0.319-0.661,0.996-1.118,1.78-1.118,0.775,0,1.446,0.447,1.769,1.097l5.687,10.18z" fill="none"/>
</g>
<g id="g55">
	<path id="path57" stroke="#F4F4F4" stroke-width="2" d="M63.963,142.46c0.274-0.144,0.586-0.225,0.917-0.225,1.09,0,1.975,0.883,1.975,1.974v11.414c0,1.091-0.884,1.975-1.975,1.975-0.483,0-0.926-0.174-1.269-0.463l-9.811-5.438c-0.662-0.319-1.118-0.996-1.118-1.78,0-0.775,0.447-1.446,1.097-1.77l10.184-5.69z" fill="none"/>
</g>
<g id="g59">
	<path id="path61" stroke="#F4F4F4" stroke-width="2" d="M75.297,168.7c-0.144-0.273-0.226-0.585-0.226-0.917,0-1.09,0.884-1.974,1.975-1.974h11.414c1.09,0,1.974,0.884,1.974,1.974,0,0.483-0.174,0.927-0.462,1.27l-5.439,9.811c-0.319,0.662-0.996,1.118-1.78,1.118-0.775,0-1.446-0.446-1.77-1.097l-5.686-10.18z" fill="none"/>
</g>
<g id="g63">
	<path id="path65" stroke="#F4F4F4" stroke-width="2" d="M101.54,157.37c-0.274,0.144-0.586,0.226-0.917,0.226-1.09,0-1.974-0.884-1.974-1.975v-11.414c0-1.091,0.884-1.974,1.974-1.974,0.483,0,0.926,0.174,1.27,0.461l9.811,5.44c0.662,0.318,1.118,0.995,1.118,1.779,0,0.775-0.447,1.446-1.097,1.77l-10.18,5.68z" fill="none"/>
</g>
<path id="circle67" style="baseline-shift:baseline;block-progression:tb;color:#000000;direction:ltr;text-indent:0;text-align:start;enable-background:accumulate;text-transform:none;" fill="#f4f4f4" d="m519.88,134.94c-13.486,0-24.438,10.952-24.438,24.438s10.952,24.438,24.438,24.438,24.438-10.952,24.438-24.438-10.952-24.438-24.438-24.438zm0,2c12.405,0,22.438,10.032,22.438,22.438,0,12.405-10.032,22.438-22.438,22.438-12.405,0-22.438-10.032-22.438-22.438,0-12.405,10.032-22.438,22.438-22.438z"/>
<path id="circle69" style="baseline-shift:baseline;block-progression:tb;color:#000000;direction:ltr;text-indent:0;text-align:start;enable-background:accumulate;text-transform:none;" fill="#f4f4f4" d="m577.72,115.41c-13.486,0-24.438,10.952-24.438,24.438s10.952,24.438,24.438,24.438,24.438-10.952,24.438-24.438-10.952-24.438-24.438-24.438zm0,2c12.405,0,22.438,10.032,22.438,22.438,0,12.405-10.032,22.438-22.438,22.438-12.405,0-22.438-10.032-22.438-22.438,0-12.405,10.032-22.438,22.438-22.438z"/>
</svg>
