<?xml version="1.0" encoding="utf-8"?>
<!-- Generator: Adobe Illustrator 13.0.0, SVG Export Plug-In . SVG Version: 6.00 Build 14948)  -->
<!DOCTYPE svg [
	<!ENTITY ns_flows "http://ns.adobe.com/Flows/1.0/">
	<!ENTITY ns_extend "http://ns.adobe.com/Extensibility/1.0/">
	<!ENTITY ns_ai "http://ns.adobe.com/AdobeIllustrator/10.0/">
	<!ENTITY ns_graphs "http://ns.adobe.com/Graphs/1.0/">
	<!ENTITY ns_vars "http://ns.adobe.com/Variables/1.0/">
	<!ENTITY ns_imrep "http://ns.adobe.com/ImageReplacement/1.0/">
	<!ENTITY ns_sfw "http://ns.adobe.com/SaveForWeb/1.0/">
	<!ENTITY ns_custom "http://ns.adobe.com/GenericCustomNamespace/1.0/">
	<!ENTITY ns_adobe_xpath "http://ns.adobe.com/XPath/1.0/">
]>
<svg version="1.2" baseProfile="tiny" id="Lines" xmlns:x="&ns_extend;" xmlns:i="&ns_ai;" xmlns:graph="&ns_graphs;"
	 xmlns="http://www.w3.org/2000/svg" xmlns:xlink="http://www.w3.org/1999/xlink" xmlns:a="http://ns.adobe.com/AdobeSVGViewerExtensions/3.0/"
	 x="0px" y="0px" width="598.191px" height="350.257px" viewBox="0 0 598.191 350.257" xml:space="preserve">
<metadata>
	<sfw  xmlns="&ns_sfw;">
		<slices></slices>
		<sliceSourceBounds  height="309.827" width="310.463" y="380.535" x="809.117" bottomLeftOrigin="true"></sliceSourceBounds>
	</sfw>
</metadata>
<g>
	<path fill="#F4F4F4" d="M395.888,241.75c-3.419,0-6.711-1.672-9.701-4.675l0,0c-16.062-16.074-32.128-32.146-48.183-48.223l0,0
		c-2.918-2.915-4.54-6.164-4.54-9.523l0,0c0-3.367,1.624-6.622,4.557-9.543l0,0c16.147-16.17,32.297-32.337,48.451-48.497l0,0
		c2.822-2.835,6.071-4.39,9.403-4.386l0,0c3.332-0.004,6.578,1.547,9.405,4.38l0,0c15.659,15.666,31.295,31.348,46.979,46.978l0,0
		c2.348,2.345,4.738,4.902,5.85,8.529l0,0l0.066,0.214v4.449v0.223l-0.068,0.218c-1.121,3.628-3.523,6.172-5.868,8.513l0,0
		c-15.593,15.542-31.139,31.134-46.701,46.712l0,0c-2.972,2.978-6.247,4.634-9.645,4.633l0,0
		C395.892,241.75,395.89,241.75,395.888,241.75L395.888,241.75z M388.594,123.409c-16.153,16.16-32.305,32.327-48.453,48.497l0,0
		c-2.559,2.567-3.673,5.05-3.676,7.422l0,0c0.003,2.366,1.115,4.844,3.661,7.402l0,0c16.056,16.078,32.119,32.148,48.184,48.225l0,0
		c2.645,2.641,5.176,3.796,7.578,3.796l0,0c2.393-0.003,4.903-1.141,7.527-3.756l0,0c15.561-15.575,31.109-31.17,46.707-46.716l0,0
		c2.256-2.239,4.161-4.354,5.053-7.06l0,0v-3.761c-0.883-2.713-2.78-4.836-5.033-7.075l0,0
		c-15.688-15.634-31.325-31.321-46.982-46.98l0,0c-2.438-2.427-4.903-3.5-7.284-3.504l0,0
		C393.494,119.905,391.027,120.982,388.594,123.409L388.594,123.409z"/>
	<path fill="#F4F4F4" d="M301.403,333.471c-3.619-1.157-6.121-3.603-8.441-5.929l0,0c-15.527-15.606-31.102-31.165-46.665-46.746
		l0,0c-2.967-2.964-4.621-6.233-4.619-9.619l0,0c-0.002-3.381,1.643-6.64,4.603-9.588l0,0
		c16.105-16.118,32.208-32.236,48.318-48.353l0,0c2.875-2.883,6.145-4.472,9.504-4.468l0,0c3.34-0.004,6.586,1.563,9.435,4.422l0,0
		c16.107,16.118,32.213,32.236,48.316,48.358l0,0c2.959,2.955,4.598,6.249,4.596,9.65l0,0c0.002,3.385-1.624,6.658-4.559,9.588l0,0
		c-15.696,15.716-31.416,31.404-47.073,47.148l0,0c-2.276,2.285-4.791,4.544-8.324,5.548l0,0l-0.201,0.057h-2.936v0.553
		L301.403,333.471L301.403,333.471z M301.858,332.042l0.453-1.429L301.858,332.042L301.858,332.042z M305.87,330.54
		c2.623-0.793,4.673-2.554,6.821-4.72l0,0c15.663-15.747,31.385-31.439,47.077-47.151l0,0c2.559-2.571,3.681-5.073,3.681-7.469l0,0
		c0-2.408-1.134-4.934-3.718-7.529l0,0c-16.104-16.122-32.207-32.24-48.316-48.358l0,0c-2.467-2.458-4.932-3.542-7.312-3.544l0,0
		c-2.394,0.002-4.885,1.103-7.381,3.59l0,0c-16.112,16.116-32.215,32.234-48.32,48.352l0,0c-2.592,2.602-3.722,5.093-3.722,7.468
		l0,0c0,2.378,1.136,4.881,3.741,7.498l0,0c15.558,15.579,31.138,31.14,46.669,46.751l0,0c2.235,2.258,4.322,4.199,6.999,5.113l0,0
		H305.87L305.87,330.54z"/>
	<path fill="#F4F4F4" d="M246.007,204.641c-0.809-0.896-1.352-2.07-1.729-3.496l0,0c-0.406-1.573-0.421-3.138-0.425-4.552l0,0
		c-0.015-11.579-0.017-23.158-0.017-34.735l0,0c0-7.048,0-14.095,0.002-21.14l0,0h-0.002c0-9.89,0.049-19.774,0.049-29.649l0,0
		c0-8.035-0.033-16.064-0.151-24.086l0,0c-0.002-0.153-0.004-0.307-0.004-0.462l0,0c-0.035-5.21,1.438-9.77,5.647-13.357l0,0
		c3.088-2.666,5.89-5.812,8.914-8.844l0,0c11.805-11.817,23.61-23.637,35.421-35.45l0,0c2.953-2.961,6.222-4.605,9.607-4.603l0,0
		c3.387-0.002,6.655,1.646,9.606,4.605l0,0c16.063,16.068,32.124,32.141,48.186,48.215l0,0c2.945,2.939,4.574,6.222,4.572,9.615l0,0
		c0.002,3.395-1.631,6.68-4.576,9.623l0,0c-18.994,19.017-37.995,38.033-56.994,57.048l0,0
		c-16.776,16.795-33.551,33.589-50.333,50.38l0,0c-1.434,1.424-2.945,2.328-4.626,2.349l0,0c-0.013,0-0.025,0-0.038,0l0,0
		C247.93,206.1,246.792,205.529,246.007,204.641L246.007,204.641z M246.835,161.858c0,11.577,0.002,23.154,0.017,34.733l0,0
		c-0.002,1.374,0.04,2.7,0.33,3.795l0,0c0.288,1.113,0.69,1.854,1.047,2.24l0,0c0.371,0.384,0.595,0.46,0.928,0.473l0,0
		c0.458,0.019,1.382-0.336,2.504-1.468l0,0c16.781-16.791,33.556-33.586,50.333-50.38l0,0
		c18.999-19.016,38.001-38.031,56.994-57.048l0,0c2.567-2.584,3.697-5.099,3.697-7.502l0,0c0-2.402-1.126-4.916-3.693-7.494l0,0
		c-16.062-16.075-32.122-32.147-48.186-48.215l0,0c-2.602-2.593-5.103-3.725-7.484-3.725l0,0c-2.383,0-4.884,1.129-7.487,3.722l0,0
		c-11.809,11.813-23.612,23.633-35.419,35.45l0,0c-2.943,2.945-5.789,6.153-9.075,8.995l0,0c-3.49,3.057-4.57,6.337-4.607,11.085
		l0,0c0,0.135,0.002,0.274,0.004,0.417l0,0c0.116,8.046,0.149,16.089,0.149,24.132l0,0c0,9.886-0.047,19.77-0.047,29.649l0,0
		C246.838,147.763,246.835,154.812,246.835,161.858L246.835,161.858z"/>
	<path fill="#F4F4F4" d="M199.706,235.675c-7.567-7.553-15.109-15.124-22.658-22.687l0,0c-8.727-8.741-17.456-17.481-26.179-26.229
		l0,0c-2.057-2.056-3.161-4.62-3.157-7.213l0,0c-0.004-2.577,1.083-5.129,3.122-7.18l0,0c16.062-16.247,32.13-32.493,48.2-48.731
		l0,0c0.383-0.381,0.831-0.924,1.446-1.441l0,0c0.604-0.51,1.487-1.032,2.597-1.028l0,0c0.468-0.002,0.957,0.093,1.423,0.271l0,0
		c2.434,0.91,3.368,3.203,3.61,5.127l0,0c0.155,1.102,0.286,2.258,0.29,3.447l0,0c0.01,10.283,0.01,20.563,0.01,30.844l0,0
		c0,5.731,0,11.462,0,17.193l0,0h0.015v1.5c0,7.482,0.004,14.964,0.004,22.448l0,0c0,8.963-0.008,17.929-0.038,26.901l0,0
		c-0.01,1.714-0.273,3.528-0.916,5.197l0,0c-0.688,1.892-2.117,3.404-4.056,3.404l0,0
		C202.014,237.486,200.793,236.752,199.706,235.675L199.706,235.675z M202.401,124.5c-0.337,0.276-0.742,0.744-1.232,1.245l0,0
		c-16.072,16.24-32.139,32.484-48.201,48.733l0,0c-1.549,1.57-2.251,3.331-2.256,5.069l0,0c0.004,1.746,0.717,3.52,2.283,5.096l0,0
		c8.721,8.745,17.45,17.485,26.177,26.225l0,0c7.55,7.564,15.092,15.136,22.653,22.685l0,0c0.762,0.769,1.359,0.961,1.597,0.948l0,0
		c0.242,0,0.692-0.116,1.257-1.483l0,0c0.479-1.23,0.71-2.724,0.714-4.13l0,0c0.029-8.966,0.036-17.927,0.036-26.89l0,0
		c0-6.982-0.004-13.967-0.004-20.948l0,0h-0.012v-1.5c0-6.231,0-12.462,0-18.693l0,0c0-10.28-0.002-20.561-0.011-30.839l0,0
		c-0.002-0.97-0.112-1.989-0.261-3.026l0,0c-0.251-1.527-0.677-2.351-1.705-2.747l0,0c-0.172-0.064-0.277-0.077-0.358-0.077l0,0
		C202.917,124.169,202.749,124.219,202.401,124.5L202.401,124.5z"/>
</g>
</svg>
