<?xml version="1.0" encoding="utf-8"?>
<!-- Generator: Adobe Illustrator 13.0.0, SVG Export Plug-In . SVG Version: 6.00 Build 14948)  -->
<svg version="1.2" baseProfile="tiny" id="Layer_2" xmlns="http://www.w3.org/2000/svg" xmlns:xlink="http://www.w3.org/1999/xlink"
	 x="0px" y="0px" width="38.563px" height="18.813px" viewBox="-8.3 1.131 38.563 18.813" xml:space="preserve">
<path fill="#F4F4F4" d="M4.81,19.256c-0.799,0-1.446-0.647-1.447-1.446l0,0V3.375c0-0.799,0.648-1.447,1.447-1.447l0,0h12.788
	c0.799,0,1.446,0.648,1.446,1.447l0,0V17.81c0,0.799-0.647,1.446-1.446,1.446l0,0H4.81L4.81,19.256z M3.915,2.48
	C3.686,2.71,3.544,3.025,3.544,3.375l0,0V17.81c0,0.351,0.142,0.666,0.371,0.896l0,0c0.229,0.228,0.544,0.37,0.895,0.37l0,0h12.788
	c0.351,0,0.666-0.143,0.896-0.37l0,0c0.229-0.229,0.369-0.545,0.369-0.896l0,0V3.375c0-0.351-0.141-0.666-0.369-0.896l0,0
	c-0.229-0.229-0.545-0.371-0.896-0.371l0,0H4.81C4.46,2.109,4.144,2.251,3.915,2.48L3.915,2.48z"/>
<path fill="#F4F4F4" d="M4.958,11.349c0-1.027,0.254-1.993,0.685-2.851l0,0c0.06-0.132,0.083-0.246,0.083-0.35l0,0
	c0-0.228-0.117-0.421-0.269-0.629l0,0C5.308,7.312,5.012,7.044,4.541,6.48l0,0C4.222,6.098,4.014,5.611,4.014,5.071l0,0
	c0-1.188,0.962-2.15,2.15-2.15l0,0c0.815,0,1.506,0.465,1.887,1.119l0,0C8.199,4.295,8.348,4.55,8.505,4.756l0,0
	C8.661,4.962,8.827,5.117,8.998,5.18l0,0c0.198,0.073,0.346,0.098,0.484,0.098l0,0c0.129,0,0.25-0.022,0.395-0.052l0,0
	c0.435-0.091,0.886-0.146,1.35-0.146l0,0c3.461,0,6.269,2.806,6.269,6.269l0,0c0,3.462-2.808,6.269-6.269,6.269l0,0
	C7.765,17.617,4.959,14.811,4.958,11.349L4.958,11.349z M5.806,8.576v0.002c-0.42,0.835-0.667,1.772-0.667,2.771l0,0
	c0,1.681,0.682,3.202,1.783,4.305l0,0c1.102,1.102,2.624,1.783,4.304,1.783l0,0c1.681,0,3.204-0.682,4.305-1.783l0,0
	c1.102-1.103,1.783-2.624,1.783-4.305l0,0c0-1.682-0.682-3.203-1.783-4.305l0,0c-1.102-1.101-2.624-1.783-4.305-1.783l0,0
	c-0.45,0-0.888,0.053-1.313,0.142l0,0c-0.147,0.03-0.283,0.056-0.432,0.056l0,0c-0.161,0-0.334-0.03-0.547-0.11l0,0
	C8.711,5.266,8.528,5.084,8.361,4.865l0,0C8.195,4.646,8.044,4.386,7.895,4.132l0,0c-0.353-0.606-0.985-1.03-1.73-1.03l0,0
	c-0.544,0-1.036,0.22-1.393,0.577l0,0C4.416,4.035,4.194,4.526,4.194,5.071l0,0c0,0.494,0.19,0.939,0.485,1.294l0,0
	c0.467,0.559,0.753,0.813,0.925,1.048l0,0C5.76,7.626,5.907,7.855,5.907,8.149l0,0c0,0.131-0.031,0.273-0.1,0.426l0,0L5.806,8.576
	L5.806,8.576z"/>
<path fill="#F4F4F4" d="M6.024,11.347c0-2.874,2.33-5.204,5.203-5.204l0,0c2.875,0,5.205,2.33,5.205,5.204l0,0
	c0,2.874-2.33,5.203-5.205,5.203l0,0C8.353,16.55,6.024,14.221,6.024,11.347L6.024,11.347z M7.675,7.795
	c-0.909,0.91-1.47,2.165-1.47,3.552l0,0c0,1.387,0.561,2.642,1.47,3.553l0,0c0.91,0.908,2.165,1.47,3.552,1.47l0,0
	c1.387,0,2.642-0.562,3.552-1.47l0,0c0.908-0.911,1.471-2.166,1.471-3.553l0,0c0-1.387-0.563-2.642-1.471-3.552l0,0
	c-0.91-0.909-2.165-1.471-3.552-1.471l0,0C9.839,6.324,8.585,6.886,7.675,7.795L7.675,7.795z"/>
<path fill="#F4F4F4" d="M8.625,11.347c0-1.437,1.165-2.602,2.602-2.602l0,0c1.439,0,2.603,1.165,2.603,2.602l0,0
	c0,1.437-1.164,2.603-2.603,2.603l0,0C9.79,13.949,8.625,12.783,8.625,11.347L8.625,11.347z M9.515,9.635
	c-0.438,0.439-0.709,1.043-0.709,1.712l0,0c0,0.67,0.271,1.273,0.709,1.712l0,0c0.438,0.438,1.044,0.71,1.712,0.71l0,0
	c0.668,0,1.274-0.271,1.712-0.71l0,0c0.438-0.438,0.71-1.042,0.71-1.712l0,0c0-0.669-0.271-1.273-0.71-1.712l0,0
	c-0.438-0.438-1.044-0.708-1.712-0.708l0,0C10.558,8.926,9.953,9.197,9.515,9.635L9.515,9.635z"/>
<path fill="#F4F4F4" d="M6.749,11.347c0-2.473,2.005-4.477,4.478-4.477l0,0c2.473,0,4.477,2.004,4.477,4.477l0,0
	c0,2.473-2.004,4.478-4.477,4.478l0,0C8.754,15.824,6.749,13.82,6.749,11.347L6.749,11.347z M8.188,8.309
	C7.411,9.087,6.93,10.161,6.93,11.347l0,0c0,1.187,0.481,2.26,1.258,3.038l0,0c0.778,0.777,1.852,1.259,3.039,1.259l0,0
	c1.186,0,2.26-0.481,3.039-1.259l0,0c0.776-0.778,1.258-1.852,1.258-3.038l0,0c0-1.186-0.481-2.26-1.258-3.038l0,0
	c-0.778-0.778-1.853-1.258-3.039-1.258l0,0C10.04,7.051,8.967,7.531,8.188,8.309L8.188,8.309z"/>
<path fill="#F4F4F4" d="M7.426,11.347c0-2.099,1.702-3.801,3.801-3.801l0,0c2.099,0,3.8,1.702,3.8,3.801l0,0
	c0,2.099-1.701,3.8-3.8,3.801l0,0C9.128,15.147,7.427,13.446,7.426,11.347L7.426,11.347z M8.667,8.788
	c-0.656,0.655-1.06,1.56-1.06,2.559l0,0c0,1,0.404,1.904,1.06,2.56l0,0c0.655,0.655,1.56,1.061,2.56,1.061l0,0
	c1,0,1.905-0.405,2.56-1.061l0,0c0.654-0.655,1.06-1.56,1.06-2.56l0,0c0-1-0.405-1.904-1.06-2.559l0,0
	c-0.655-0.656-1.561-1.061-2.56-1.061l0,0C10.227,7.727,9.322,8.132,8.667,8.788L8.667,8.788z"/>
<path fill="#F4F4F4" d="M7.976,11.347c0-1.795,1.456-3.251,3.251-3.251l0,0c1.795,0,3.251,1.456,3.251,3.251l0,0
	c0,1.796-1.456,3.252-3.251,3.252l0,0C9.431,14.599,7.976,13.143,7.976,11.347L7.976,11.347z M9.055,9.176
	C8.5,9.731,8.156,10.499,8.156,11.347l0,0c0,0.848,0.344,1.616,0.899,2.171l0,0c0.556,0.557,1.323,0.899,2.171,0.899l0,0
	c0.848,0,1.616-0.343,2.17-0.899l0,0c0.557-0.555,0.9-1.323,0.9-2.171l0,0c0-0.848-0.344-1.616-0.9-2.171l0,0
	c-0.555-0.556-1.322-0.9-2.17-0.9l0,0C10.379,8.276,9.612,8.62,9.055,9.176L9.055,9.176z"/>
<path fill="#F4F4F4" d="M9.306,5.797l0.809-0.217l0.11,0.411l-0.087,0.023l0.087-0.023l0.024,0.087L9.44,6.295L9.306,5.797
	L9.306,5.797z M9.528,5.925l0.04,0.148l0.459-0.124l-0.04-0.148L9.528,5.925L9.528,5.925z"/>
<path fill="#F4F4F4" d="M8.372,6.215L9.13,5.861l0.18,0.386L9.228,6.284L9.31,6.246l0.039,0.082L8.59,6.682L8.372,6.215L8.372,6.215
	z M8.612,6.302l0.065,0.14l0.431-0.201l-0.065-0.14L8.612,6.302L8.612,6.302z"/>
<path fill="#F4F4F4" d="M7.524,6.788l0.685-0.479l0.244,0.347L8.38,6.708l0.074-0.052l0.052,0.075L7.82,7.21L7.524,6.788
	L7.524,6.788z M7.776,6.833l0.088,0.126l0.389-0.272L8.165,6.56L7.776,6.833L7.776,6.833z"/>
<path fill="#F4F4F4" d="M6.788,7.501L7.38,6.909l0.301,0.3L7.617,7.273l0.064-0.064l0.064,0.064L7.153,7.866L6.788,7.501
	L6.788,7.501z M7.044,7.501L7.153,7.61L7.49,7.273L7.38,7.164L7.044,7.501L7.044,7.501z"/>
<path fill="#F4F4F4" d="M6.188,8.33l0.479-0.686l0.349,0.244L6.964,7.963l0.053-0.075L7.09,7.94L6.611,8.626L6.188,8.33L6.188,8.33z
	 M6.44,8.286l0.126,0.088l0.272-0.39L6.713,7.896L6.44,8.286L6.44,8.286z"/>
<path fill="#F4F4F4" d="M5.741,9.251l0.354-0.759l0.385,0.179L6.442,8.754l0.038-0.083l0.083,0.038l-0.354,0.76L5.741,9.251
	L5.741,9.251z M5.981,9.163l0.14,0.065l0.201-0.431l-0.14-0.065L5.981,9.163L5.981,9.163z"/>
<path fill="#F4F4F4" d="M5.46,10.236l0.216-0.809l0.411,0.11L6.064,9.623l0.023-0.087L6.175,9.56l-0.217,0.808L5.46,10.236
	L5.46,10.236z M5.681,10.107l0.148,0.04l0.123-0.459l-0.148-0.04L5.681,10.107L5.681,10.107z"/>
<path fill="#F4F4F4" d="M4.976,11.262l0.418-0.467l0.033-0.376l0.423,0.037l-0.007,0.091l0.007-0.091l0.09,0.008l-0.072,0.83
	L4.976,11.262L4.976,11.262z M5.569,10.871l-0.2,0.224l0.334,0.012l0.042-0.478l-0.153-0.013L5.569,10.871L5.569,10.871z"/>
<path fill="#F4F4F4" d="M5.391,11.856l-0.432-0.427l0.824-0.025l0.085-0.003l0.072,0.83l-0.513,0.044L5.391,11.856L5.391,11.856z
	 M5.386,11.597l0.179,0.177l0.027,0.305l0.153-0.014l-0.042-0.478L5.386,11.597L5.386,11.597z"/>
<path fill="#F4F4F4" d="M5.46,12.458l0.411-0.109l0.087-0.022l0.217,0.808l-0.498,0.134L5.46,12.458L5.46,12.458z M5.681,12.587
	l0.123,0.458l0.148-0.039l-0.123-0.46L5.681,12.587L5.681,12.587z"/>
<path fill="#F4F4F4" d="M5.741,13.444l0.385-0.18l0.082-0.039l0.354,0.76l-0.467,0.218L5.741,13.444L5.741,13.444z M5.981,13.531
	l0.201,0.432l0.14-0.064L6.12,13.466L5.981,13.531L5.981,13.531z"/>
<path fill="#F4F4F4" d="M6.188,14.365l0.348-0.244l0.074-0.052l0.48,0.687L6.668,15.05L6.188,14.365L6.188,14.365z M6.44,14.408
	l0.273,0.39l0.126-0.088l-0.272-0.389L6.44,14.408L6.44,14.408z"/>
<path fill="#F4F4F4" d="M6.788,15.194l0.301-0.301l0.064-0.064l0.592,0.592L7.38,15.785L6.788,15.194L6.788,15.194z M7.044,15.194
	L7.38,15.53l0.11-0.109l-0.337-0.336L7.044,15.194L7.044,15.194z"/>
<path fill="#F4F4F4" d="M7.524,15.906l0.243-0.349l0.052-0.072l0.686,0.479l-0.296,0.423L7.524,15.906L7.524,15.906z M7.776,15.862
	l0.39,0.272l0.088-0.126l-0.389-0.272L7.776,15.862L7.776,15.862z"/>
<path fill="#F4F4F4" d="M8.372,16.479l0.18-0.385l0.039-0.082l0.758,0.354L9.13,16.832L8.372,16.479L8.372,16.479z M8.612,16.392
	l0.431,0.201l0.065-0.14l-0.431-0.201L8.612,16.392L8.612,16.392z"/>
<path fill="#F4F4F4" d="M9.306,16.898l0.11-0.41l0.023-0.089l0.809,0.217l-0.134,0.498L9.306,16.898L9.306,16.898z M9.528,16.77
	l0.458,0.124l0.04-0.15l-0.459-0.122L9.528,16.77L9.528,16.77z"/>
<path fill="#F4F4F4" d="M10.711,17.182L10.3,17.147l0.037-0.425l0.008-0.09l0.827,0.073l-0.011,0.769L10.711,17.182L10.711,17.182z
	 M10.495,16.982l0.276,0.025l0.213,0.138l0.004-0.273l-0.479-0.043L10.495,16.982L10.495,16.982z"/>
<path fill="#F4F4F4" d="M11.283,16.789l0.09-0.001l0.008,0.09l-0.008-0.09L11.283,16.789l-0.001-0.084l0.827-0.073l0.046,0.515
	l-0.408,0.035l-0.454,0.291L11.283,16.789L11.283,16.789z M11.469,17.145l0.216-0.138l0.272-0.025l-0.013-0.153l-0.479,0.043
	L11.469,17.145L11.469,17.145z"/>
<path fill="#F4F4F4" d="M12.228,16.703l0.088-0.022l0.024,0.086l-0.024-0.086L12.228,16.703l-0.022-0.088l0.809-0.217l0.133,0.499
	l-0.808,0.216L12.228,16.703L12.228,16.703z M12.467,16.894l0.459-0.124l-0.039-0.148l-0.46,0.122L12.467,16.894L12.467,16.894z"/>
<path fill="#F4F4F4" d="M13.143,16.448l0.082-0.037l0.039,0.082l-0.039-0.082L13.143,16.448l-0.037-0.082l0.759-0.354l0.218,0.468
	l-0.759,0.354L13.143,16.448L13.143,16.448z M13.411,16.593l0.432-0.201l-0.065-0.14l-0.431,0.201L13.411,16.593L13.411,16.593z"/>
<path fill="#F4F4F4" d="M14.001,16.038l0.073-0.053l0.053,0.074l-0.053-0.074L14.001,16.038l-0.053-0.075l0.687-0.479l0.295,0.422
	l-0.685,0.48L14.001,16.038L14.001,16.038z M14.289,16.134l0.39-0.272l-0.089-0.126l-0.389,0.272L14.289,16.134L14.289,16.134z"/>
<path fill="#F4F4F4" d="M14.772,15.486l0.064-0.065l0.063,0.065l-0.063-0.065L14.772,15.486l-0.063-0.065l0.592-0.592l0.365,0.365
	l-0.592,0.592L14.772,15.486L14.772,15.486z M15.074,15.53l0.336-0.336l-0.109-0.109l-0.337,0.336L15.074,15.53L15.074,15.53z"/>
<path fill="#F4F4F4" d="M15.437,14.807l0.053-0.074l0.073,0.052l-0.073-0.052L15.437,14.807l-0.074-0.052l0.48-0.687l0.424,0.296
	l-0.481,0.686L15.437,14.807L15.437,14.807z M15.741,14.798l0.271-0.39l-0.124-0.087l-0.274,0.389L15.741,14.798L15.741,14.798z"/>
<path fill="#F4F4F4" d="M15.974,14.023l0.037-0.082l0.083,0.038l-0.083-0.038L15.974,14.023l-0.081-0.038l0.353-0.76l0.467,0.219
	l-0.353,0.759L15.974,14.023L15.974,14.023z M16.271,13.962l0.202-0.432l-0.14-0.064l-0.2,0.432L16.271,13.962L16.271,13.962z"/>
<path fill="#F4F4F4" d="M16.367,13.156l0.022-0.086l0.089,0.023l-0.089-0.023L16.367,13.156l-0.088-0.022l0.217-0.808l0.498,0.132
	l-0.218,0.81L16.367,13.156L16.367,13.156z M16.65,13.045l0.122-0.458l-0.148-0.041l-0.123,0.46L16.65,13.045L16.65,13.045z"/>
<path fill="#F4F4F4" d="M16.603,12.238l0.007-0.09l0.091,0.008l-0.091-0.008L16.603,12.238l-0.09-0.007l0.071-0.83l0.847,0.028
	l-0.369,0.434l-0.036,0.412L16.603,12.238L16.603,12.238z M16.863,12.078l0.025-0.289l0.162-0.192l-0.301-0.01l-0.041,0.478
	L16.863,12.078L16.863,12.078z"/>
<path fill="#F4F4F4" d="M16.513,10.465l0.513-0.045l0.033,0.368l0.376,0.484l-0.765,0.021l-0.086,0.002L16.513,10.465L16.513,10.465
	z M16.667,11.2l0.091-0.008L16.667,11.2L16.667,11.2z M16.709,10.629l0.041,0.479l0.322-0.009l-0.189-0.243l-0.02-0.24
	L16.709,10.629L16.709,10.629z"/>
<path fill="#F4F4F4" d="M16.279,9.56l0.497-0.134l0.218,0.809l-0.411,0.109l-0.087,0.023L16.279,9.56L16.279,9.56z M16.56,10.258
	l0.088-0.023L16.56,10.258L16.56,10.258z M16.501,9.688l0.123,0.459l0.148-0.04L16.65,9.648L16.501,9.688L16.501,9.688z"/>
<path fill="#F4F4F4" d="M15.893,8.709l0.467-0.217l0.353,0.759l-0.385,0.18l-0.082,0.039L15.893,8.709L15.893,8.709z M16.289,9.348
	l0.082-0.038L16.289,9.348L16.289,9.348z M16.133,8.797l0.201,0.431l0.139-0.065l-0.201-0.431L16.133,8.797L16.133,8.797z"/>
<path fill="#F4F4F4" d="M15.363,7.94l0.423-0.296l0.48,0.687l-0.349,0.244l-0.074,0.052L15.363,7.94L15.363,7.94z M15.866,8.499
	l0.074-0.051L15.866,8.499L15.866,8.499z M15.614,7.984l0.274,0.39l0.124-0.088l-0.271-0.389L15.614,7.984L15.614,7.984z"/>
<path fill="#F4F4F4" d="M14.709,7.273l0.365-0.364l0.592,0.592l-0.301,0.301l-0.064,0.064L14.709,7.273L14.709,7.273z M15.301,7.738
	l0.064-0.064L15.301,7.738L15.301,7.738z M14.964,7.273l0.337,0.336l0.109-0.109l-0.336-0.336L14.964,7.273L14.964,7.273z"/>
<path fill="#F4F4F4" d="M13.948,6.731l0.297-0.423l0.685,0.48l-0.243,0.348L14.635,7.21L13.948,6.731L13.948,6.731z M14.612,7.085
	l0.052-0.074L14.612,7.085L14.612,7.085z M14.201,6.687l0.389,0.272l0.088-0.126l-0.389-0.274L14.201,6.687L14.201,6.687z"/>
<path fill="#F4F4F4" d="M13.106,6.328l0.218-0.468l0.759,0.354L13.902,6.6l-0.037,0.082L13.106,6.328L13.106,6.328z M13.82,6.561
	l0.038-0.082L13.82,6.561L13.82,6.561z M13.346,6.241l0.431,0.2l0.065-0.14l-0.432-0.201L13.346,6.241L13.346,6.241z"/>
<path fill="#F4F4F4" d="M12.206,6.078L12.34,5.58l0.808,0.217l-0.109,0.41l-0.023,0.088L12.206,6.078L12.206,6.078z M12.95,6.184
	l0.023-0.087L12.95,6.184L12.95,6.184z M12.427,5.95l0.46,0.124l0.039-0.148l-0.459-0.124L12.427,5.95L12.427,5.95z"/>
<path fill="#F4F4F4" d="M4.597,5.003c0-0.868,0.703-1.57,1.57-1.57l0,0c0.868,0,1.571,0.703,1.571,1.57l0,0
	c0,0.867-0.703,1.571-1.571,1.571l0,0C5.3,6.574,4.597,5.87,4.597,5.003L4.597,5.003z M5.185,4.021
	C4.933,4.273,4.778,4.619,4.778,5.003l0,0c0,0.384,0.155,0.731,0.407,0.982l0,0c0.252,0.251,0.599,0.408,0.982,0.408l0,0
	c0.385,0,0.731-0.156,0.983-0.408l0,0c0.251-0.251,0.407-0.598,0.407-0.982l0,0c0-0.384-0.156-0.73-0.407-0.982l0,0
	C6.898,3.769,6.552,3.614,6.167,3.614l0,0C5.783,3.614,5.437,3.769,5.185,4.021L5.185,4.021z"/>
<path fill="#F4F4F4" d="M10.476,13.25v-0.091l0.064-0.065l-0.064,0.065V13.25h-0.038l-1.114-1.115v-1.576l1.114-1.114h1.577
	l1.115,1.114v1.576l-1.115,1.115H10.476L10.476,13.25z M9.506,10.634v1.426l1.008,1.009h1.426l1.008-1.009v-1.426L11.94,9.626
	h-1.426L9.506,10.634L9.506,10.634z"/>
<path fill="#F4F4F4" d="M10.677,11.347c0-0.304,0.246-0.549,0.549-0.549l0,0c0.304,0,0.549,0.246,0.55,0.549l0,0
	c-0.001,0.304-0.246,0.549-0.55,0.549l0,0C10.924,11.896,10.677,11.651,10.677,11.347L10.677,11.347z M10.859,11.347
	c0,0.203,0.165,0.368,0.368,0.368l0,0c0.204,0,0.369-0.165,0.369-0.368l0,0c0-0.203-0.165-0.368-0.369-0.368l0,0
	C11.024,10.979,10.859,11.144,10.859,11.347L10.859,11.347z"/>
</svg>
