<?xml version="1.0" encoding="UTF-8" standalone="no"?>
<!-- Created with Inkscape (http://www.inkscape.org/) -->

<svg
   xmlns:dc="http://purl.org/dc/elements/1.1/"
   xmlns:cc="http://creativecommons.org/ns#"
   xmlns:rdf="http://www.w3.org/1999/02/22-rdf-syntax-ns#"
   xmlns:svg="http://www.w3.org/2000/svg"
   xmlns="http://www.w3.org/2000/svg"
   version="1.2"
   width="596.24298"
   height="218.47301"
   viewBox="0 0 596.243 218.473"
   id="Layer_2"
   xml:space="preserve"><metadata
   id="metadata75"><rdf:RDF><cc:Work
       rdf:about=""><dc:format>image/svg+xml</dc:format><dc:type
         rdf:resource="http://purl.org/dc/dcmitype/StillImage" /><dc:title></dc:title></cc:Work></rdf:RDF></metadata><defs
   id="defs73" />
<path
   d="m 400.375,0 -0.3125,0.53125 -6,9.28125 1.6875,1.09375 5.65625,-8.78125 91.5,9.90625 3.375,8.1875 1.84375,-0.75 -3.59375,-8.75 -0.21875,-0.5625 -0.59375,-0.0625 L 401,0.0625 400.375,0 z"
   id="polyline3"
   style="font-size:medium;font-style:normal;font-variant:normal;font-weight:normal;font-stretch:normal;text-indent:0;text-align:start;text-decoration:none;line-height:normal;letter-spacing:normal;word-spacing:normal;text-transform:none;direction:ltr;block-progression:tb;writing-mode:lr-tb;text-anchor:start;baseline-shift:baseline;color:#000000;fill:#f4f4f4;fill-opacity:1;stroke:none;stroke-width:2;marker:none;visibility:visible;display:inline;overflow:visible;enable-background:accumulate;font-family:Sans;-inkscape-font-specification:Sans" />
<path
   d="M 391.53125,6.5625 10.75,27.4375 10.34375,27.46875 10.0625,27.78125 0.25,39.3125 0,39.59375 l 0,0.375 0,49.59375 0,39.34375 0,49.59375 0,0.375 0.25,0.28125 9.8125,11.53125 0.28125,0.3125 0.40625,0.0312 380.78125,20.875 0.375,0.0312 0.3125,-0.25 17.65625,-13.8125 78.625,-5.8125 12.65625,11.46875 0.40625,0.375 0.5,-0.125 5.90625,-1.46875 0.3125,-0.0937 0.1875,-0.25 7.625,-8.8125 0.125,-0.15625 0.0625,-0.1875 4.90625,-14.71875 0.0625,-0.15625 0,-0.1875 0,-4.15625 0,-1 -0.53125,0 0,-0.59375 0.53125,0 0,-1 0,-59.09375 0,-5.34375 0,-59.09375 0,-1 -0.53125,0 0,-0.59375 0.53125,0 0,-1 0,-4.15625 0,-0.15625 -0.0625,-0.15625 -4.90625,-14.75 -0.0625,-0.1875 -0.125,-0.125 -7.625,-8.84375 -0.1875,-0.25 -0.3125,-0.09375 -5.90625,-1.46875 -0.5,-0.125 -0.40625,0.375 -12.6875,11.5 L 409.875,20.5937 392.21875,6.7812 l -0.3125,-0.21875 -0.375,0 z m -0.25,2.03125 17.625,13.75 0.25,0.1875 0.28125,0.03125 79.3125,5.875 0.40625,0.03125 L 489.5,28.1875 502.125,16.75 l 5.09375,1.3125 7.21875,8.40625 4.8125,14.46875 0,2.9375 -0.53125,0 0,1 0,2.59375 0,1 0.53125,0 0,58.09375 0,5.34375 0,58.09375 -0.53125,0 0,1 0,2.59375 0,1 0.53125,0 0,2.9375 -4.8125,14.4375 -7.25,8.46875 -5.0625,1.28125 L 489.5,190.28125 489.15625,190 l -0.40625,0.0312 -79.3125,5.875 -0.28125,0.0312 -0.25,0.1875 -17.625,13.75 L 11.3125,189.0625 2,178.125 2,128.90625 2,89.5625 2,40.34375 11.3125,29.40625 391.28125,8.59375 z"
   id="polygon5"
   style="font-size:medium;font-style:normal;font-variant:normal;font-weight:normal;font-stretch:normal;text-indent:0;text-align:start;text-decoration:none;line-height:normal;letter-spacing:normal;word-spacing:normal;text-transform:none;direction:ltr;block-progression:tb;writing-mode:lr-tb;text-anchor:start;baseline-shift:baseline;color:#000000;fill:#f4f4f4;fill-opacity:1;stroke:none;stroke-width:2;marker:none;visibility:visible;display:inline;overflow:visible;enable-background:accumulate;font-family:Sans;-inkscape-font-specification:Sans" />
<path
   d="m 496.28125,198.25 -3.375,8.1875 -91.5,9.90625 -5.65625,-8.78125 -1.6875,1.09375 6,9.3125 0.3125,0.5 0.625,-0.0625 92.71875,-10.03125 0.59375,-0.0625 0.21875,-0.5625 3.59375,-8.75 -1.84375,-0.75 z"
   id="polyline7"
   style="font-size:medium;font-style:normal;font-variant:normal;font-weight:normal;font-stretch:normal;text-indent:0;text-align:start;text-decoration:none;line-height:normal;letter-spacing:normal;word-spacing:normal;text-transform:none;direction:ltr;block-progression:tb;writing-mode:lr-tb;text-anchor:start;baseline-shift:baseline;color:#000000;fill:#f4f4f4;fill-opacity:1;stroke:none;stroke-width:2;marker:none;visibility:visible;display:inline;overflow:visible;enable-background:accumulate;font-family:Sans;-inkscape-font-specification:Sans" />
<path
   d="m 394.71875,39.9375 -386.59375,5.25 -0.09375,0 -0.125,0 -5.96875,1.5 -0.78125,0.1875 0,0.78125 0,41.5 0,40.15625 0,41.5 0,0.8125 0.78125,0.1875 5.96875,1.46875 0.125,0.0312 0.09375,0 386.59375,5.25 0.0312,0 125,-3.96875 -0.0625,-2 -124.9375,3.96875 -0.0625,0 -386.4375,-5.25 -5.09375,-1.28125 0,-40.71875 0,-40.15625 0,-40.71875 5.09375,-1.25 386.4375,-5.25 0.0625,0 124.9375,3.9375 0.0625,-2 -125,-3.9375 -0.0312,0 z"
   id="polyline9"
   style="font-size:medium;font-style:normal;font-variant:normal;font-weight:normal;font-stretch:normal;text-indent:0;text-align:start;text-decoration:none;line-height:normal;letter-spacing:normal;word-spacing:normal;text-transform:none;direction:ltr;block-progression:tb;writing-mode:lr-tb;text-anchor:start;baseline-shift:baseline;color:#000000;fill:#f4f4f4;fill-opacity:1;stroke:none;stroke-width:2;marker:none;visibility:visible;display:inline;overflow:visible;enable-background:accumulate;font-family:Sans;-inkscape-font-specification:Sans" />
<path
   d="m 266.90625,43.25 -1.03125,0.03125 -257.78125,3.1875 -0.125,0 L 7.84375,46.5 1.9375,48.21875 2.5,50.125 l 5.625,-1.65625 0.0625,0 256.71875,-3.1875 0,37.90625 0,52.09375 0,37.90625 L 8.1875,170 8.125,170 2.5,168.34375 1.9375,170.25 l 5.90625,1.71875 0.125,0.0312 0.125,0 257.78125,3.1875 1.03125,0.0312 0,-1.03125 0,-38.90625 0,-52.09375 0,-38.90625 0,-1.03125 z"
   id="polyline11"
   style="font-size:medium;font-style:normal;font-variant:normal;font-weight:normal;font-stretch:normal;text-indent:0;text-align:start;text-decoration:none;line-height:normal;letter-spacing:normal;word-spacing:normal;text-transform:none;direction:ltr;block-progression:tb;writing-mode:lr-tb;text-anchor:start;baseline-shift:baseline;color:#000000;fill:#f4f4f4;fill-opacity:1;stroke:none;stroke-width:2;marker:none;visibility:visible;display:inline;overflow:visible;enable-background:accumulate;font-family:Sans;-inkscape-font-specification:Sans" />
<g
   id="g13">
	<polygon
   points="381.01,128.294 391.966,128.294 391.966,126.177 381.01,126.177 381.01,122.954 391.966,122.954 391.966,120.192 381.01,120.192 381.01,116.97 391.966,116.97 391.966,114.116 381.01,114.116 381.01,110.894 391.966,110.894 391.966,108.5 381.01,108.5 381.01,105.277 391.966,105.277 391.966,103.068 381.01,103.068 381.01,99.847 391.966,99.847 391.966,97.268 381.01,97.268 381.01,94.046 391.966,94.046 391.966,91.468 381.01,91.468 381.01,88.246 391.966,88.246 391.966,85.852 381.01,85.852 381.01,82.63 391.966,82.63 391.966,52.371 384.232,44.639 274.86,44.639 267.986,51.512 267.986,82.63 277.898,82.63 277.898,85.852 267.986,85.852 267.986,88.246 277.898,88.246 277.898,91.468 267.986,91.468 267.986,94.046 277.898,94.046 277.898,97.268 267.986,97.268 267.986,99.847 277.898,99.847 277.898,103.068 267.986,103.068 267.986,105.277 277.898,105.277 277.898,108.5 267.986,108.5 267.986,110.894 277.898,110.894 277.898,114.116 267.986,114.116 267.986,116.97 277.898,116.97 277.898,120.192 267.986,120.192 267.986,122.954 277.898,122.954 277.898,126.177 267.986,126.177 267.986,128.294 277.898,128.294 277.898,131.517 267.986,131.517 267.986,134.799 267.986,166.96 274.86,173.835 384.232,173.835 391.966,166.102 391.966,135.535 391.966,131.517 381.01,131.517 "
   id="polygon15"
   style="fill:none;stroke:#f4f4f4;stroke-width:2" />
</g>
<g
   id="g17">
	<path
   d="m 456.227,170.059 5.984,-0.149 V 46.745 l -5.984,-0.167 v 123.481 z m -25.686,0.64 5.984,-0.149 V 46.025 l -5.984,-0.168 v 124.842 z m 8.562,-0.214 5.984,-0.149 V 46.265 l -5.984,-0.167 v 124.387 z m -25.686,0.641 5.984,-0.149 V 45.545 l -5.984,-0.168 v 125.749 z m -8.562,0.214 5.983,-0.149 V 45.305 l -5.983,-0.167 V 171.34 z m 17.124,-0.428 5.983,-0.148 V 45.785 l -5.983,-0.167 v 125.294 z m 25.685,-0.64 5.984,-0.149 V 46.505 l -5.984,-0.168 v 123.935 z m 17.124,-0.426 5.984,-0.149 V 46.984 l -5.984,-0.167 v 123.029 z m 34.248,-0.855 5.984,-0.149 V 47.944 l -5.984,-0.167 v 121.214 z m 8.563,-120.974 v 120.761 l 6.444,-0.16 V 48.197 l -6.444,-0.18 z m -111.767,123.547 6.444,-0.16 V 45.065 l -6.444,-0.181 v 126.68 z m 94.643,-2.359 5.983,-0.149 V 47.705 l -5.983,-0.168 v 121.668 z m -17.125,0.427 5.984,-0.149 V 47.225 l -5.984,-0.168 v 122.575 z m 8.563,-0.214 5.984,-0.148 V 47.464 l -5.984,-0.167 v 122.121 z"
   id="path19"
   style="fill:none;stroke:#f4f4f4;stroke-width:2" />
</g>
<path
   d="M 383.53125,43.90625 363.09375,63.5 364.5,64.9375 384.9375,45.375 383.53125,43.90625 z"
   id="line21"
   style="font-size:medium;font-style:normal;font-variant:normal;font-weight:normal;font-stretch:normal;text-indent:0;text-align:start;text-decoration:none;line-height:normal;letter-spacing:normal;word-spacing:normal;text-transform:none;direction:ltr;block-progression:tb;writing-mode:lr-tb;text-anchor:start;baseline-shift:baseline;color:#000000;fill:#f4f4f4;fill-opacity:1;stroke:none;stroke-width:2;marker:none;visibility:visible;display:inline;overflow:visible;enable-background:accumulate;font-family:Sans;-inkscape-font-specification:Sans" />
<path
   d="m 275.53125,43.90625 -1.34375,1.46875 21.15625,19.5625 1.375,-1.46875 -21.1875,-19.5625 z"
   id="line23"
   style="font-size:medium;font-style:normal;font-variant:normal;font-weight:normal;font-stretch:normal;text-indent:0;text-align:start;text-decoration:none;line-height:normal;letter-spacing:normal;word-spacing:normal;text-transform:none;direction:ltr;block-progression:tb;writing-mode:lr-tb;text-anchor:start;baseline-shift:baseline;color:#000000;fill:#f4f4f4;fill-opacity:1;stroke:none;stroke-width:2;marker:none;visibility:visible;display:inline;overflow:visible;enable-background:accumulate;font-family:Sans;-inkscape-font-specification:Sans" />
<path
   d="m 295.34375,153.53125 -21.15625,19.5625 1.34375,1.46875 21.1875,-19.5625 -1.375,-1.46875 z"
   id="line25"
   style="font-size:medium;font-style:normal;font-variant:normal;font-weight:normal;font-stretch:normal;text-indent:0;text-align:start;text-decoration:none;line-height:normal;letter-spacing:normal;word-spacing:normal;text-transform:none;direction:ltr;block-progression:tb;writing-mode:lr-tb;text-anchor:start;baseline-shift:baseline;color:#000000;fill:#f4f4f4;fill-opacity:1;stroke:none;stroke-width:2;marker:none;visibility:visible;display:inline;overflow:visible;enable-background:accumulate;font-family:Sans;-inkscape-font-specification:Sans" />
<path
   d="m 364.5,153.53125 -1.40625,1.4375 20.4375,19.59375 1.40625,-1.4375 L 364.5,153.53125 z"
   id="line27"
   style="font-size:medium;font-style:normal;font-variant:normal;font-weight:normal;font-stretch:normal;text-indent:0;text-align:start;text-decoration:none;line-height:normal;letter-spacing:normal;word-spacing:normal;text-transform:none;direction:ltr;block-progression:tb;writing-mode:lr-tb;text-anchor:start;baseline-shift:baseline;color:#000000;fill:#f4f4f4;fill-opacity:1;stroke:none;stroke-width:2;marker:none;visibility:visible;display:inline;overflow:visible;enable-background:accumulate;font-family:Sans;-inkscape-font-specification:Sans" />
<path
   d="m 391.15625,51.78125 -16.84375,23.15625 1.625,1.1875 16.84375,-23.15625 -1.625,-1.1875 z"
   id="line29"
   style="font-size:medium;font-style:normal;font-variant:normal;font-weight:normal;font-stretch:normal;text-indent:0;text-align:start;text-decoration:none;line-height:normal;letter-spacing:normal;word-spacing:normal;text-transform:none;direction:ltr;block-progression:tb;writing-mode:lr-tb;text-anchor:start;baseline-shift:baseline;color:#000000;fill:#f4f4f4;fill-opacity:1;stroke:none;stroke-width:2;marker:none;visibility:visible;display:inline;overflow:visible;enable-background:accumulate;font-family:Sans;-inkscape-font-specification:Sans" />
<path
   d="M 268.84375,51 267.125,52.03125 282.65625,77.25 284.375,76.21875 268.84375,51 z"
   id="line31"
   style="font-size:medium;font-style:normal;font-variant:normal;font-weight:normal;font-stretch:normal;text-indent:0;text-align:start;text-decoration:none;line-height:normal;letter-spacing:normal;word-spacing:normal;text-transform:none;direction:ltr;block-progression:tb;writing-mode:lr-tb;text-anchor:start;baseline-shift:baseline;color:#000000;fill:#f4f4f4;fill-opacity:1;stroke:none;stroke-width:2;marker:none;visibility:visible;display:inline;overflow:visible;enable-background:accumulate;font-family:Sans;-inkscape-font-specification:Sans" />
<path
   d="M 282.65625,141.21875 267.125,166.4375 268.84375,167.46875 284.375,142.25 282.65625,141.21875 z"
   id="line33"
   style="font-size:medium;font-style:normal;font-variant:normal;font-weight:normal;font-stretch:normal;text-indent:0;text-align:start;text-decoration:none;line-height:normal;letter-spacing:normal;word-spacing:normal;text-transform:none;direction:ltr;block-progression:tb;writing-mode:lr-tb;text-anchor:start;baseline-shift:baseline;color:#000000;fill:#f4f4f4;fill-opacity:1;stroke:none;stroke-width:2;marker:none;visibility:visible;display:inline;overflow:visible;enable-background:accumulate;font-family:Sans;-inkscape-font-specification:Sans" />
<path
   d="m 375.9375,142.34375 -1.625,1.1875 16.84375,23.15625 1.625,-1.1875 -16.84375,-23.15625 z"
   id="line35"
   style="font-size:medium;font-style:normal;font-variant:normal;font-weight:normal;font-stretch:normal;text-indent:0;text-align:start;text-decoration:none;line-height:normal;letter-spacing:normal;word-spacing:normal;text-transform:none;direction:ltr;block-progression:tb;writing-mode:lr-tb;text-anchor:start;baseline-shift:baseline;color:#000000;fill:#f4f4f4;fill-opacity:1;stroke:none;stroke-width:2;marker:none;visibility:visible;display:inline;overflow:visible;enable-background:accumulate;font-family:Sans;-inkscape-font-specification:Sans" />
<path
   d="m 329.375,60.8125 c -26.87835,0 -48.6875,21.809153 -48.6875,48.6875 0,26.87835 21.80915,48.6875 48.6875,48.6875 26.87835,0 48.6875,-21.80915 48.6875,-48.6875 0,-26.878347 -21.80915,-48.6875 -48.6875,-48.6875 z m 0,2 c 25.79747,0 46.6875,20.890033 46.6875,46.6875 0,25.79747 -20.89003,46.6875 -46.6875,46.6875 -25.79747,0 -46.6875,-20.89003 -46.6875,-46.6875 0,-25.797467 20.89003,-46.6875 46.6875,-46.6875 z"
   id="circle37"
   style="font-size:medium;font-style:normal;font-variant:normal;font-weight:normal;font-stretch:normal;text-indent:0;text-align:start;text-decoration:none;line-height:normal;letter-spacing:normal;word-spacing:normal;text-transform:none;direction:ltr;block-progression:tb;writing-mode:lr-tb;text-anchor:start;baseline-shift:baseline;color:#000000;fill:#f4f4f4;fill-opacity:1;stroke:none;stroke-width:2;marker:none;visibility:visible;display:inline;overflow:visible;enable-background:accumulate;font-family:Sans;-inkscape-font-specification:Sans" />
<g
   id="g39">
	<path
   d="m 363.794,64.216 h -19.515 c 14.823,4.879 26.43,16.825 30.839,31.856 V 75.541 L 363.794,64.216 z m -80.28,12.522 v 19.659 c 4.336,-15.184 16,-27.266 30.93,-32.181 h -18.41 l -12.52,12.522 z m 0,45.89 v 19.107 l 12.52,12.521 h 16.797 c -14.156,-5.233 -25.138,-16.993 -29.317,-31.628 z m 62.378,31.628 h 17.902 l 11.324,-11.324 v -19.979 c -4.248,14.484 -15.174,26.11 -29.226,31.303 z"
   id="path41"
   style="fill:none;stroke:#f4f4f4;stroke-width:2" />
</g>
<path
   d="M 520.119,122.31"
   id="path43"
   style="fill:none;stroke:#f4f4f4;stroke-width:2" />
<path
   d="m 527.40625,121.3125 0,2 6.5,0 0,-2 -6.5,0 z"
   id="line45"
   style="font-size:medium;font-style:normal;font-variant:normal;font-weight:normal;font-stretch:normal;text-indent:0;text-align:start;text-decoration:none;line-height:normal;letter-spacing:normal;word-spacing:normal;text-transform:none;direction:ltr;block-progression:tb;writing-mode:lr-tb;text-anchor:start;baseline-shift:baseline;color:#000000;fill:#f4f4f4;fill-opacity:1;stroke:none;stroke-width:2;marker:none;visibility:visible;display:inline;overflow:visible;enable-background:accumulate;font-family:Sans;-inkscape-font-specification:Sans" />
<path
   d="m 540.875,121.3125 0,2 6.5,0 0,-2 -6.5,0 z"
   id="line47"
   style="font-size:medium;font-style:normal;font-variant:normal;font-weight:normal;font-stretch:normal;text-indent:0;text-align:start;text-decoration:none;line-height:normal;letter-spacing:normal;word-spacing:normal;text-transform:none;direction:ltr;block-progression:tb;writing-mode:lr-tb;text-anchor:start;baseline-shift:baseline;color:#000000;fill:#f4f4f4;fill-opacity:1;stroke:none;stroke-width:2;marker:none;visibility:visible;display:inline;overflow:visible;enable-background:accumulate;font-family:Sans;-inkscape-font-specification:Sans" />
<path
   d="m 554.34375,121.3125 0,2 6.5,0 0,-2 -6.5,0 z"
   id="line49"
   style="font-size:medium;font-style:normal;font-variant:normal;font-weight:normal;font-stretch:normal;text-indent:0;text-align:start;text-decoration:none;line-height:normal;letter-spacing:normal;word-spacing:normal;text-transform:none;direction:ltr;block-progression:tb;writing-mode:lr-tb;text-anchor:start;baseline-shift:baseline;color:#000000;fill:#f4f4f4;fill-opacity:1;stroke:none;stroke-width:2;marker:none;visibility:visible;display:inline;overflow:visible;enable-background:accumulate;font-family:Sans;-inkscape-font-specification:Sans" />
<path
   d="m 567.84375,121.3125 0,2 6.53125,0 0,-2 -6.53125,0 z"
   id="line51"
   style="font-size:medium;font-style:normal;font-variant:normal;font-weight:normal;font-stretch:normal;text-indent:0;text-align:start;text-decoration:none;line-height:normal;letter-spacing:normal;word-spacing:normal;text-transform:none;direction:ltr;block-progression:tb;writing-mode:lr-tb;text-anchor:start;baseline-shift:baseline;color:#000000;fill:#f4f4f4;fill-opacity:1;stroke:none;stroke-width:2;marker:none;visibility:visible;display:inline;overflow:visible;enable-background:accumulate;font-family:Sans;-inkscape-font-specification:Sans" />
<path
   d="m 581.28125,121.3125 0,2 6.53125,0 0,-2 -6.53125,0 z"
   id="line53"
   style="font-size:medium;font-style:normal;font-variant:normal;font-weight:normal;font-stretch:normal;text-indent:0;text-align:start;text-decoration:none;line-height:normal;letter-spacing:normal;word-spacing:normal;text-transform:none;direction:ltr;block-progression:tb;writing-mode:lr-tb;text-anchor:start;baseline-shift:baseline;color:#000000;fill:#f4f4f4;fill-opacity:1;stroke:none;stroke-width:2;marker:none;visibility:visible;display:inline;overflow:visible;enable-background:accumulate;font-family:Sans;-inkscape-font-specification:Sans" />
<path
   d="m 581.4375,103.09375 0,2 6.375,0 0,-2 -6.375,0 z"
   id="line55"
   style="font-size:medium;font-style:normal;font-variant:normal;font-weight:normal;font-stretch:normal;text-indent:0;text-align:start;text-decoration:none;line-height:normal;letter-spacing:normal;word-spacing:normal;text-transform:none;direction:ltr;block-progression:tb;writing-mode:lr-tb;text-anchor:start;baseline-shift:baseline;color:#000000;fill:#f4f4f4;fill-opacity:1;stroke:none;stroke-width:2;marker:none;visibility:visible;display:inline;overflow:visible;enable-background:accumulate;font-family:Sans;-inkscape-font-specification:Sans" />
<path
   d="m 567.9375,103.09375 0,2 6.5,0 0,-2 -6.5,0 z"
   id="line57"
   style="font-size:medium;font-style:normal;font-variant:normal;font-weight:normal;font-stretch:normal;text-indent:0;text-align:start;text-decoration:none;line-height:normal;letter-spacing:normal;word-spacing:normal;text-transform:none;direction:ltr;block-progression:tb;writing-mode:lr-tb;text-anchor:start;baseline-shift:baseline;color:#000000;fill:#f4f4f4;fill-opacity:1;stroke:none;stroke-width:2;marker:none;visibility:visible;display:inline;overflow:visible;enable-background:accumulate;font-family:Sans;-inkscape-font-specification:Sans" />
<path
   d="m 554.375,103.09375 0,2 6.59375,0 0,-2 -6.59375,0 z"
   id="line59"
   style="font-size:medium;font-style:normal;font-variant:normal;font-weight:normal;font-stretch:normal;text-indent:0;text-align:start;text-decoration:none;line-height:normal;letter-spacing:normal;word-spacing:normal;text-transform:none;direction:ltr;block-progression:tb;writing-mode:lr-tb;text-anchor:start;baseline-shift:baseline;color:#000000;fill:#f4f4f4;fill-opacity:1;stroke:none;stroke-width:2;marker:none;visibility:visible;display:inline;overflow:visible;enable-background:accumulate;font-family:Sans;-inkscape-font-specification:Sans" />
<path
   d="m 540.90625,103.09375 0,2 6.5625,0 0,-2 -6.5625,0 z"
   id="line61"
   style="font-size:medium;font-style:normal;font-variant:normal;font-weight:normal;font-stretch:normal;text-indent:0;text-align:start;text-decoration:none;line-height:normal;letter-spacing:normal;word-spacing:normal;text-transform:none;direction:ltr;block-progression:tb;writing-mode:lr-tb;text-anchor:start;baseline-shift:baseline;color:#000000;fill:#f4f4f4;fill-opacity:1;stroke:none;stroke-width:2;marker:none;visibility:visible;display:inline;overflow:visible;enable-background:accumulate;font-family:Sans;-inkscape-font-specification:Sans" />
<path
   d="m 527.46875,103.09375 0,2 6.46875,0 0,-2 -6.46875,0 z"
   id="line63"
   style="font-size:medium;font-style:normal;font-variant:normal;font-weight:normal;font-stretch:normal;text-indent:0;text-align:start;text-decoration:none;line-height:normal;letter-spacing:normal;word-spacing:normal;text-transform:none;direction:ltr;block-progression:tb;writing-mode:lr-tb;text-anchor:start;baseline-shift:baseline;color:#000000;fill:#f4f4f4;fill-opacity:1;stroke:none;stroke-width:2;marker:none;visibility:visible;display:inline;overflow:visible;enable-background:accumulate;font-family:Sans;-inkscape-font-specification:Sans" />
<path
   d="M 520.119,104.082"
   id="path65"
   style="fill:none;stroke:#f4f4f4;stroke-width:2" />
<g
   id="g67">
	<path
   d="m 533.867,128.699 6.966,-0.308 V 97.998 l -6.966,-0.308 v 31.009 z m 13.471,-0.594 6.967,-0.308 V 98.592 l -6.967,-0.308 v 29.821 z m 13.473,-0.594 6.967,-0.308 V 99.187 l -6.967,-0.307 v 28.631 z m 13.471,-0.594 6.967,-0.308 V 99.781 l -6.967,-0.308 v 27.444 z m -54.163,2.389 7.241,-0.319 V 97.403 l -7.241,-0.319 v 32.222 z m 67.636,-29.238 v 26.254 l 7.488,-0.33 v -25.594 l -7.488,-0.33 z"
   id="path69"
   style="fill:none;stroke:#f4f4f4;stroke-width:2" />
</g>
</svg>