<?xml version="1.0" encoding="utf-8"?>
<!-- Generator: Adobe Illustrator 13.0.0, SVG Export Plug-In . SVG Version: 6.00 Build 14948)  -->
<!DOCTYPE svg [
	<!ENTITY ns_flows "http://ns.adobe.com/Flows/1.0/">
	<!ENTITY ns_extend "http://ns.adobe.com/Extensibility/1.0/">
	<!ENTITY ns_ai "http://ns.adobe.com/AdobeIllustrator/10.0/">
	<!ENTITY ns_graphs "http://ns.adobe.com/Graphs/1.0/">
	<!ENTITY ns_vars "http://ns.adobe.com/Variables/1.0/">
	<!ENTITY ns_imrep "http://ns.adobe.com/ImageReplacement/1.0/">
	<!ENTITY ns_sfw "http://ns.adobe.com/SaveForWeb/1.0/">
	<!ENTITY ns_custom "http://ns.adobe.com/GenericCustomNamespace/1.0/">
	<!ENTITY ns_adobe_xpath "http://ns.adobe.com/XPath/1.0/">
]>
<svg version="1.2" baseProfile="tiny" id="Layer_2" xmlns:x="&ns_extend;" xmlns:i="&ns_ai;" xmlns:graph="&ns_graphs;"
	 xmlns="http://www.w3.org/2000/svg" xmlns:xlink="http://www.w3.org/1999/xlink" xmlns:a="http://ns.adobe.com/AdobeSVGViewerExtensions/3.0/"
	 x="0px" y="0px" width="596.243px" height="218.473px" viewBox="0 0 596.243 218.473" xml:space="preserve">
<metadata>
	<sfw  xmlns="&ns_sfw;">
		<slices></slices>
		<sliceSourceBounds  x="662.378" y="430.265" width="596.243" height="218.474" bottomLeftOrigin="true"></sliceSourceBounds>
	</sfw>
</metadata>
<polygon fill="#F4F4F4" points="492.904,12.028 401.402,2.121 395.751,10.899 395.754,10.901 394.072,9.816 400.387,-0.002 
	494.301,10.166 498.12,19.462 496.266,20.222 492.904,12.028 "/>
<path fill="#F4F4F4" d="M10.335,191.012L0,178.865v-49.956V89.566V39.605L10.335,27.46l381.58-20.913l17.98,14.039l78.567,5.837
	l13.089-11.854l6.718,1.679l7.946,9.229l5.023,15.074v5.333h-0.537l-0.001,0.579h0.558v60.104v5.34v60.104h-0.557l-0.001,0.58h0.538
	v5.333l-5.023,15.071l-7.946,9.229l-6.718,1.68l-13.089-11.854l-78.567,5.837l-17.978,14.037L10.335,191.012L10.335,191.012z
	 M11.302,29.409L2,40.34v49.226v39.343v49.222l9.302,10.933l379.973,20.822l17.866-13.951l80.028-5.944l12.933,11.714l5.064-1.267
	l7.277-8.449l4.796-14.39v-3.01h-0.537v-4.576h0.554v-58.106v-5.34V48.459h-0.554v-4.576h0.537v-3.011l-4.796-14.388l-7.275-8.449
	l-5.064-1.267l-12.937,11.714l-80.026-5.947L391.275,8.584L11.302,29.409L11.302,29.409z"/>
<path fill="#F4F4F4" d="M394.071,208.656l1.683-1.084l5.65,8.777l91.501-9.904l3.363-8.194l1.851,0.758l-3.816,9.298l-93.914,10.166
	L394.071,208.656L394.071,208.656z M394.07,208.654l0.001,0.002h-0.001V208.654L394.07,208.654z"/>
<polygon fill="#F4F4F4" points="8.021,173.297 1.167,171.609 1.167,129.306 1.167,89.166 1.167,46.862 8.025,45.173 394.757,39.926 
	519.736,43.885 519.67,45.883 394.739,41.924 8.28,47.168 3.167,48.429 3.167,89.166 3.167,129.306 3.167,170.042 8.282,171.3 
	394.694,176.547 519.67,172.59 519.734,174.587 394.713,178.546 8.021,173.297 "/>
<path fill="#F4F4F4" d="M7.966,172.009l-6.018-1.757l0.559-1.921l5.763,1.681l256.628,3.179v-37.901V83.182l-0.002-37.901
	L8.267,48.46L2.508,50.14l-0.56-1.921l6.024-1.757l258.926-3.206v39.926v52.107v39.926L7.966,172.009L7.966,172.009z M1.948,170.252
	L1.948,170.252v0.002V170.252L1.948,170.252z"/>
<g>
	<path fill="#F4F4F4" d="M274.445,174.835l-7.459-7.462v-32.574v-4.284h9.912v-1.221h-9.912v-4.12h9.912v-1.221h-9.912v-4.764h9.912
		v-1.221h-9.912v-4.854h9.912v-1.221h-9.912V107.5h9.912v-1.225h-9.912v-4.209h9.912v-1.219h-9.912v-4.581h9.912v-1.221h-9.912
		v-4.577h9.912v-1.223h-9.912v-4.394h9.912v-1.221h-9.912V51.097l7.459-7.459h110.2l8.32,8.318v31.674h-10.957v1.221h10.955v4.394
		h-10.955v1.223h10.955v4.577h-10.955v1.221h10.955v4.581l-10.955-0.002v1.221h10.955v4.209h-10.955v1.225h10.955v4.394
		l-10.955-0.002v1.223h10.955v4.854h-10.955v1.221h10.955v4.764h-10.955v1.221h10.955v4.12l-10.955-0.002v1.223h10.957v5.021v30.979
		l-8.32,8.32H274.445L274.445,174.835z M268.986,134.799v31.745l6.287,6.288h108.545l7.146-7.147v-30.149v-3.02h-9.953v-0.999h0.998
		h-0.998v0.999h-1v-5.223l10.953-0.002v-0.114H380.01v-5.224h10.955v-0.762H380.01v-5.224h10.955v-0.853H380.01v-5.224h10.955
		v-0.391H380.01v-5.224h10.953v-0.21H380.01v-5.22h10.953v-0.58H380.01v-5.222h10.953v-0.578H380.01v-5.222h10.955v-0.393H380.01
		V81.63h10.953V52.786l-7.146-7.147H275.273l-6.289,6.287V81.63h9.914v5.222h-9.914v0.393h9.914v5.222h-9.914v0.578h9.914v5.222
		h-9.914v0.58h9.914v5.22h-9.914v0.21h9.914v5.224h-9.914v0.391h9.914v5.224h-9.914v0.853h9.914v5.224l-9.914-0.002v0.764h9.914
		v5.224h-9.914v0.116h9.914v5.223h-9.914L268.986,134.799L268.986,134.799z"/>
</g>
<g>
	<path fill="#F4F4F4" d="M394.833,43.856l8.442,0.234v128.287l-7.419,0.186l-0.023-1l0.023,1l-1.023,0.023V43.856L394.833,43.856z
		 M396.833,170.537l4.442-0.109V46.036l-4.442-0.125V170.537L396.833,170.537z M403.855,44.109l7.981,0.222v127.833l-6.958,0.175
		l-0.022-1l0.022,1l-1.023,0.025V44.109L403.855,44.109z M405.856,170.314l3.982-0.1V46.276l-3.982-0.112V170.314L405.856,170.314z
		 M412.415,44.349l7.985,0.222v127.38l-6.96,0.173l-0.023-0.998l0.023,0.998l-1.025,0.025V44.349L412.415,44.349z M414.416,170.1
		l3.983-0.101V46.517l-3.983-0.112V170.1L414.416,170.1z M420.978,44.59l7.982,0.222v126.926l-6.957,0.174l-0.025-0.998l0.025,0.998
		l-1.025,0.025V44.59L420.978,44.59z M422.978,169.887l3.982-0.101V46.758l-3.982-0.112V169.887L422.978,169.887z M429.54,44.829
		l7.986,0.221v126.475l-6.961,0.173l-0.023-0.998l0.023,0.998l-1.025,0.025V44.829L429.54,44.829z M431.542,169.673l3.982-0.101
		V46.996l-3.982-0.112V169.673L431.542,169.673z M438.102,45.069l7.983,0.222V171.31l-6.957,0.173l-0.025-0.998l0.025,0.998
		l-1.026,0.025V45.069L438.102,45.069z M440.103,169.459l3.982-0.1V47.237l-3.982-0.11V169.459L440.103,169.459z M446.664,45.308
		l7.983,0.224v125.565l-6.958,0.173l-0.025-0.998l0.025,0.998l-1.025,0.025V45.308L446.664,45.308z M448.665,169.245l3.983-0.099
		V47.477l-3.983-0.112V169.245L448.665,169.245z M455.225,45.551l7.985,0.221v125.113l-6.96,0.171l-0.023-0.998l0.023,0.998
		l-1.025,0.025V45.551L455.225,45.551z M457.227,169.032l3.982-0.099V47.718l-3.982-0.112V169.032L457.227,169.032z M463.786,45.789
		l7.985,0.222v124.662l-6.959,0.173l-0.025-1l0.025,1l-1.026,0.023V45.789L463.786,45.789z M465.787,168.82l3.984-0.1V47.956
		l-3.984-0.112V168.82L465.787,168.82z M472.349,46.03l7.985,0.221v124.207l-6.959,0.173l-0.025-0.998l0.025,0.998l-1.026,0.025
		V46.03L472.349,46.03z M474.348,168.607l3.983-0.1V48.197l-3.983-0.112V168.607L474.348,168.607z M480.913,46.268l7.983,0.224
		v123.753l-6.96,0.173l-0.023-1.001l0.023,1.001l-1.023,0.023V46.268L480.913,46.268z M482.912,168.393l3.985-0.101V48.435
		l-3.985-0.109V168.393L482.912,168.393z M489.474,46.509l7.983,0.224v123.298l-6.958,0.173l-0.025-0.998l0.025,0.998l-1.025,0.025
		V46.509L489.474,46.509z M491.474,168.18l3.982-0.102V48.677l-3.982-0.112V168.18L491.474,168.18z M498.036,46.749l7.982,0.222
		v122.845l-6.959,0.175l-0.023-1l0.023,1l-1.023,0.023V46.749L498.036,46.749z M500.034,167.965l3.984-0.1V48.916l-3.984-0.112
		V167.965L500.034,167.965z M506.596,48.017v-1.03l8.447,0.236v122.368l-8.447,0.209V48.017L506.596,48.017z M508.597,167.752
		l4.444-0.11V49.169l-4.444-0.125V167.752L508.597,167.752z M507.569,49.015l0.028-0.998L507.569,49.015L507.569,49.015z"/>
</g>
<polygon fill="#F4F4F4" points="363.1,63.492 383.54,43.915 384.925,45.362 364.484,64.939 363.1,63.492 "/>
<polygon fill="#F4F4F4" points="274.181,45.373 275.539,43.905 296.712,63.481 295.356,64.949 274.181,45.373 "/>
<polygon fill="#F4F4F4" points="274.18,173.1 295.355,153.522 296.713,154.989 275.539,174.569 274.18,173.1 "/>
<polygon fill="#F4F4F4" points="363.1,154.977 364.484,153.532 384.925,173.112 383.54,174.556 363.1,154.977 "/>
<polygon fill="#F4F4F4" points="374.307,74.953 391.156,51.782 392.774,52.959 375.925,76.13 374.307,74.953 "/>
<polygon fill="#F4F4F4" points="267.133,52.035 268.836,50.987 284.366,76.214 282.663,77.26 267.133,52.035 "/>
<polygon fill="#F4F4F4" points="267.134,166.435 282.663,141.21 284.364,142.258 268.836,167.484 267.134,166.435 "/>
<polygon fill="#F4F4F4" points="374.307,143.52 375.925,142.342 392.774,165.513 391.156,166.69 374.307,143.52 "/>
<path fill="#F4F4F4" d="M280.671,109.512c0.002-26.891,21.799-48.689,48.689-48.689l0,0v1v1c-12.896,0-24.562,5.223-33.013,13.674
	l0,0c-8.451,8.453-13.676,20.117-13.676,33.014l0,0c0,12.896,5.225,24.562,13.676,33.013l0,0
	c8.451,8.452,20.117,13.676,33.013,13.676l0,0c12.896,0,24.562-5.224,33.014-13.676l0,0c8.451-8.451,13.676-20.117,13.676-33.013
	l0,0c0-12.897-5.225-24.562-13.676-33.014l0,0c-8.452-8.451-20.117-13.674-33.014-13.674l0,0v-1v-1
	c26.891,0,48.688,21.798,48.69,48.689l0,0c-0.002,26.889-21.8,48.688-48.69,48.689l0,0
	C302.47,158.199,280.673,136.401,280.671,109.512L280.671,109.512z"/>
<g>
	<path fill="#F4F4F4" d="M345.89,155.256l-0.347-1.938c13.756-5.083,24.456-16.471,28.613-30.647l0,0l1.961,0.282v20.393
		l-11.91,11.911H345.89L345.89,155.256z M350.759,153.254l12.618-0.001l10.738-10.738v-13.828
		C369.518,139.406,361.191,148.14,350.759,153.254L350.759,153.254z M295.619,155.256l-13.106-13.11v-19.519l1.963-0.274
		c4.088,14.324,14.843,25.843,28.7,30.965l0,0l-0.347,1.938H295.619L295.619,155.256z M284.514,141.318l11.935,11.938h11.513
		c-10.503-5.15-18.873-13.971-23.448-24.792l0,0V141.318L284.514,141.318z M282.552,122.903l0.961-0.275L282.552,122.903
		L282.552,122.903z M282.513,96.396v-19.66v-0.413l13.106-13.108h18.825l0.312,1.951c-14.614,4.809-26.037,16.642-30.279,31.504l0,0
		L282.513,96.396L282.513,96.396z M284.514,90.564c4.747-11.225,13.579-20.293,24.638-25.348l0,0h-12.705l-11.933,11.936V90.564
		L284.514,90.564z M343.966,65.166l0.313-1.951h19.513v1l-0.708,0.708l0.708-0.708v-1h0.413l11.91,11.908v20.949l-1.959,0.28
		C369.844,81.64,358.475,69.94,343.966,65.166L343.966,65.166z M374.117,90.342l-0.001-14.386l-10.738-10.74h-13.807
		C360.557,70.236,369.346,79.219,374.117,90.342L374.117,90.342z"/>
</g>
<path fill="#F4F4F4" d="M520.12,122.31"/>
<polygon fill="#F4F4F4" points="527.403,123.309 527.403,121.31 533.915,121.31 533.915,123.309 527.403,123.309 "/>
<polygon fill="#F4F4F4" points="540.868,123.309 540.868,121.309 547.382,121.309 547.382,123.309 540.868,123.309 "/>
<polygon fill="#F4F4F4" points="554.332,123.308 554.332,121.31 560.859,121.31 560.859,123.308 554.332,123.308 "/>
<polygon fill="#F4F4F4" points="567.84,123.309 567.84,121.31 574.379,121.31 574.379,123.309 567.84,123.309 "/>
<polygon fill="#F4F4F4" points="581.283,123.31 581.283,121.309 587.821,121.309 587.821,123.31 581.283,123.31 "/>
<polygon fill="#F4F4F4" points="581.434,105.082 581.434,103.082 587.817,103.082 587.817,105.082 581.434,105.082 "/>
<polygon fill="#F4F4F4" points="567.928,105.081 567.928,103.081 574.438,103.081 574.438,105.081 567.928,105.081 "/>
<polygon fill="#F4F4F4" points="554.367,105.083 554.367,103.082 560.965,103.082 560.965,105.083 554.367,105.083 "/>
<polygon fill="#F4F4F4" points="540.897,105.082 540.897,103.082 547.461,103.082 547.461,105.082 540.897,105.082 "/>
<polygon fill="#F4F4F4" points="527.453,105.083 527.453,103.082 533.928,103.082 533.928,105.083 527.453,105.083 "/>
<path fill="#F4F4F4" d="M520.12,104.082"/>
<g>
	<path fill="#F4F4F4" d="M519.119,96.039l9.241,0.405v33.498l-8.197,0.361l-0.044-0.997l0.044,0.997l-1.044,0.047V96.039
		L519.119,96.039z M521.12,128.259l5.239-0.231V98.36l-5.239-0.23V128.259L521.12,128.259z M532.868,96.644l8.964,0.396v32.304
		l-7.92,0.352l-0.045-0.997l0.045,0.997l-1.044,0.047V96.644L532.868,96.644z M534.867,127.654l4.964-0.22v-28.48l-4.964-0.22
		V127.654L534.867,127.654z M546.337,97.239l8.968,0.396v31.117l-7.924,0.352l-0.042-0.999l0.042,0.999l-1.044,0.045V97.239
		L546.337,97.239z M548.336,127.057l4.966-0.218V99.548l-4.966-0.219V127.057L548.336,127.057z M559.809,97.833l8.968,0.396v29.928
		l-7.921,0.352l-0.045-0.999l0.045,0.999l-1.047,0.047V97.833L559.809,97.833z M561.81,126.465l4.967-0.221v-26.102l-4.967-0.217
		V126.465L561.81,126.465z M573.282,98.427l8.965,0.396v28.74l-7.921,0.352l-0.045-1l0.045,1l-1.044,0.045V98.427L573.282,98.427z
		 M575.282,125.872l4.965-0.222v-24.914l-4.965-0.219V125.872L575.282,125.872z M586.753,100.068v-1.046l9.489,0.417v27.508
		l-9.489,0.42V100.068L586.753,100.068z M588.753,125.276l5.486-0.241v-23.679l-5.486-0.242V125.276L588.753,125.276z
		 M587.709,101.068l0.045-1L587.709,101.068L587.709,101.068z"/>
</g>
</svg>
