<?xml version="1.0" encoding="UTF-8" standalone="no"?>
<!-- Generator: Adobe Illustrator 13.0.0, SVG Export Plug-In . SVG Version: 6.00 Build 14948)  -->
<svg id="Layer_3" xmlns:rdf="http://www.w3.org/1999/02/22-rdf-syntax-ns#" xmlns="http://www.w3.org/2000/svg" xml:space="preserve" height="446.86px" viewBox="0 0 326.139 446.858" width="326.14px" version="1.2" y="0px" x="0px" xmlns:cc="http://creativecommons.org/ns#" xmlns:dc="http://purl.org/dc/elements/1.1/"><metadata id="metadata33"><rdf:RDF><cc:Work rdf:about=""><dc:format>image/svg+xml</dc:format><dc:type rdf:resource="http://purl.org/dc/dcmitype/StillImage"/><dc:title/></cc:Work></rdf:RDF></metadata>
<path id="path3" style="baseline-shift:baseline;block-progression:tb;color:#000000;direction:ltr;text-indent:0;text-align:start;enable-background:accumulate;text-transform:none;" fill="#f4f4f4" d="m34.031,39.688c-3.2993,0-6,2.7007-6,6v192.88c0,3.3001,2.7009,6,6,6h258.09c3.299,0,5.9688-2.6999,5.9688-6v-192.88c0-3.2993-2.6695-6-5.9688-6h-258.09zm0,2,258.09,0c2.2187,0,3.9688,1.7813,3.9688,4v192.88c0,2.2199-1.7498,4-3.9688,4h-258.09c-2.2189,0-4-1.7801-4-4v-192.88c0-2.2187,1.7813-4,4-4z"/>
<path id="path5" style="baseline-shift:baseline;block-progression:tb;color:#000000;direction:ltr;text-indent:0;text-align:start;enable-background:accumulate;text-transform:none;" fill="#f4f4f4" d="m16.812,15.531c-3.2995,0-6,2.7007-6,6v353.56c0,3.2993,2.7007,6,6,6h292.5c3.2993,0,6-2.7007,6-6v-353.56c0-3.3001-2.7007-6-6-6h-292.5zm0,2,292.5,0c2.2187,0,4,1.7801,4,4v353.56c0,2.2187-1.7813,4-4,4h-292.5c-2.2187,0-4-1.7813-4-4v-353.56c0-2.2187,1.7815-4,4-4z"/>
<path id="path7" style="baseline-shift:baseline;block-progression:tb;color:#000000;direction:ltr;text-indent:0;text-align:start;enable-background:accumulate;text-transform:none;" fill="#f4f4f4" d="M14.312,0c-7.8969,0-14.312,6.4151-14.312,14.312v358.57c0,7.8965,6.4151,14.312,14.312,14.312h297.5c7.8965,0,14.312-6.416,14.312-14.312v-358.56c0-7.9049-6.41-14.32-14.31-14.32h-297.5zm0,2,297.5,0c6.8155,0,12.312,5.4959,12.312,12.312v358.56c0,6.8155-5.497,12.312-12.312,12.312h-297.5c-6.8141,0.01-12.31-5.49-12.31-12.3v-358.57c0-6.8161,5.4959-12.312,12.312-12.312z"/>
<path id="path9" style="baseline-shift:baseline;block-progression:tb;color:#000000;direction:ltr;text-indent:0;text-align:start;enable-background:accumulate;text-transform:none;" fill="#f4f4f4" d="m28.688,316.22c-1.4594,0-2.6562,1.2269-2.6562,2.6875v18.719c0,1.4602,1.1961,2.6562,2.6562,2.6562h18.875c1.4602,0,2.6562-1.1961,2.6562-2.6562v-18.719c0-1.4606-1.1968-2.6875-2.6562-2.6875h-18.875zm0,2,18.875,0c0.37856,0,0.65625,0.30808,0.65625,0.6875v18.719c0,0.37783-0.27842,0.65625-0.65625,0.65625h-18.875c-0.37783,0-0.65625-0.27842-0.65625-0.65625v-18.719c0-0.37942,0.27769-0.6875,0.65625-0.6875z"/>
<path id="path11" style="baseline-shift:baseline;block-progression:tb;color:#000000;direction:ltr;text-indent:0;text-align:start;enable-background:accumulate;text-transform:none;" fill="#f4f4f4" d="m239.03,403.5c-2.6862,0-4.875,2.22-4.875,4.9062v20.938c0,2.6862,2.1888,4.875,4.875,4.875h45.031c2.6862,0,4.875-2.1888,4.875-4.875v-20.938c0-2.6862-2.1888-4.9062-4.875-4.9062h-45.031zm0,2,45.031,0c1.6058,0,2.875,1.3005,2.875,2.9062v20.938c0,1.6058-1.2692,2.875-2.875,2.875h-45.031c-1.6058,0-2.875-1.2692-2.875-2.875v-20.938c0-1.6058,1.2692-2.9062,2.875-2.9062z"/>
<path id="path13" style="baseline-shift:baseline;block-progression:tb;color:#000000;direction:ltr;text-indent:0;text-align:start;enable-background:accumulate;text-transform:none;" fill="#f4f4f4" d="m266.09,407.75c-1.1524,0-2.0938,0.93915-2.0938,2.0938v16.188c0,1.1545,0.94024,2.0938,2.0938,2.0938h14.844c1.1535,0,2.125-0.94036,2.125-2.0938v-16.188c0-1.1535-0.97258-2.0938-2.125-2.0938h-14.844zm0,2,14.844,0c0.0736,0,0.125,0.0213,0.125,0.0937v16.188c0,0.0706-0.0525,0.0937-0.125,0.0937h-14.844c-0.0725,0-0.0937-0.0242-0.0937-0.0937v-16.188c0-0.0714,0.0202-0.0937,0.0937-0.0937z"/>
<path id="path15" style="baseline-shift:baseline;block-progression:tb;color:#000000;direction:ltr;text-indent:0;text-align:start;enable-background:accumulate;text-transform:none;" fill="#f4f4f4" d="m248.41,285.84c-3.6055,0-6.5625,2.9562-6.5625,6.5625v0.90625c0,0.31325-0.0707,0.52441-0.15625,0.625-0.0856,0.10059-0.21923,0.21875-0.78125,0.21875h-84.625c-2.3795,0-4.3438,1.9642-4.3438,4.3438v9.2812c0,2.3802,1.9646,4.3438,4.3438,4.3438h84.625c0.62883-0.0004,0.76389,0.0979,0.8125,0.15625,0.0486,0.0583,0.125,0.323,0.125,0.875v1.8438c0,3.6053,2.9562,6.5625,6.5625,6.5625h46.344c3.6053,0,6.5625-2.956,6.5625-6.5625v-22.594c0-3.6055-2.956-6.5625-6.5625-6.5625h-46.344zm0,2,46.344,0c2.5254,0,4.5625,2.038,4.5625,4.5625v22.594c0,2.5254-2.0378,4.5625-4.5625,4.5625h-46.344c-2.5257,0-4.5625-2.0378-4.5625-4.5625v-1.8438c0-0.743-0.0639-1.4893-0.59375-2.125-0.52989-0.63568-1.4006-0.90685-2.3438-0.90625h-84.625c-1.2988,0-2.3438-1.044-2.3438-2.3438v-9.2812c0-1.2985,1.0453-2.3438,2.3438-2.3438h84.625c0.96498,0,1.8084-0.31384,2.3125-0.90625,0.50415-0.59241,0.625-1.3248,0.625-1.9375v-0.90625c0-2.5257,2.038-4.5625,4.5625-4.5625z"/>
<path id="path17" style="baseline-shift:baseline;block-progression:tb;color:#000000;direction:ltr;text-indent:0;text-align:start;enable-background:accumulate;text-transform:none;" fill="#f4f4f4" d="m165.84,298.25c-1.1535,0-2.0938,0.94024-2.0938,2.0938v5.1875c0,1.1534,0.94024,2.0938,2.0938,2.0938h85.656c0.34167,0,0.35737,0.0779,0.34375,0.0625-0.0136-0.0154,0.0625,0.0797,0.0625,0.4375v8.2188c0,1.1524,0.94024,2.125,2.0938,2.125h32.938c1.1535,0,2.0938-0.97149,2.0938-2.125v-16c0-1.1535-0.94024-2.0938-2.0938-2.0938h-121.09zm0,2,121.09,0c0.0725,0,0.0937,0.0213,0.0937,0.0937v16c0,0.0725-0.0213,0.125-0.0937,0.125h-32.938c-0.0725,0-0.0937-0.0514-0.0937-0.125v-8.2188c0-0.6132-0.10863-1.2686-0.5625-1.7812-0.45387-0.51263-1.1684-0.71875-1.8438-0.71875h-85.656c-0.0725,0-0.0937-0.0231-0.0937-0.0937v-5.1875c0-0.0725,0.0213-0.0937,0.0937-0.0937z"/>
<path id="circle19" style="baseline-shift:baseline;block-progression:tb;color:#000000;direction:ltr;text-indent:0;text-align:start;enable-background:accumulate;text-transform:none;" fill-rule="nonzero" d="m295.03,307.44c-1.4201,0-2.5938,1.1424-2.5938,2.5625s1.1737,2.5938,2.5938,2.5938,2.5938-1.1737,2.5938-2.5938-1.1737-2.5625-2.5938-2.5625zm0,1c0.87964,0,1.5938,0.68286,1.5938,1.5625s-0.71411,1.5938-1.5938,1.5938c-0.87964,0-1.5938-0.71411-1.5938-1.5938,0-0.87964,0.71411-1.5625,1.5938-1.5625z"/>
<path id="path21" style="baseline-shift:baseline;block-progression:tb;color:#000000;direction:ltr;text-indent:0;text-align:start;enable-background:accumulate;text-transform:none;" fill="#f4f4f4" d="m22.906,385.75-1.6875,1.0938c3.4471,5.45,9.519,9.0625,16.438,9.0625,6.9142,0,13.021-3.6178,16.469-9.0625l-1.6875-1.0625c-3.0939,4.8853-8.5634,8.125-14.781,8.125-6.2215,0-11.657-3.2662-14.75-8.1562z"/>
<path id="path23" style="baseline-shift:baseline;block-progression:tb;color:#000000;direction:ltr;text-indent:0;text-align:start;enable-background:accumulate;text-transform:none;" fill-rule="nonzero" d="m45.406,385.69c-2.0927,1.7489-4.8074,2.8125-7.75,2.8125-2.9118,0-5.5732-1.0338-7.6562-2.75l-0.625,0.78125c2.2549,1.8578,5.1331,2.9688,8.2812,2.9688,3.1814,0,6.1097-1.1382,8.375-3.0312l-0.625-0.78125z"/>
<path id="path25" style="baseline-shift:baseline;block-progression:tb;color:#000000;direction:ltr;text-indent:0;text-align:start;enable-background:accumulate;text-transform:none;" fill="#f4f4f4" d="m7.5,384.53,0,56.344c0,3.2993,2.7007,5.9688,6,5.9688h299.16c3.2993,0,6-2.6695,6-5.9688v-55.781h-2v55.781c0,2.2187-1.7813,3.9688-4,3.9688h-299.16c-2.2187,0-4-1.75-4-3.9688v-56.344h-2z"/>
<path id="path27" style="baseline-shift:baseline;block-progression:tb;color:#000000;direction:ltr;text-indent:0;text-align:start;enable-background:accumulate;text-transform:none;" fill="#f4f4f4" d="M164.59,44.844c-34.53,0.055-69.59,1.922-106.46,5.437h-0.03125c-11.296,1.3288-20.188,10.612-20.188,22.125v139.41c0,11.514,8.893,20.827,20.188,22.156h0.03125c73.75,7.03,140.17,7.4746,209.91,0,11.321-1.2122,20.188-10.643,20.188-22.156v-139.41c0-11.511-8.8665-20.912-20.188-22.125-34.869-3.7368-68.899-5.4927-103.44-5.4375zm0,2c34.469-0.05509,68.421,1.7083,103.22,5.4375,10.345,1.1087,18.406,9.6404,18.406,20.125v139.41c0,10.487-8.0612,19.048-18.406,20.156-69.586,7.4583-135.84,7.0171-209.47,0-0.01025-0.001-0.02101,0.001-0.03125,0-10.331-1.2302-18.406-9.6807-18.406-20.156v-139.41c0-10.475,8.0746-18.895,18.406-20.125,0.01047-0.000998,0.02078,0.000998,0.03125,0,36.811-3.5081,71.791-5.3824,106.25-5.4375z"/>
</svg>
