<?xml version="1.0" encoding="utf-8"?>
<!-- Generator: Adobe Illustrator 13.0.0, SVG Export Plug-In . SVG Version: 6.00 Build 14948)  -->
<!DOCTYPE svg [
	<!ENTITY ns_flows "http://ns.adobe.com/Flows/1.0/">
	<!ENTITY ns_extend "http://ns.adobe.com/Extensibility/1.0/">
	<!ENTITY ns_ai "http://ns.adobe.com/AdobeIllustrator/10.0/">
	<!ENTITY ns_graphs "http://ns.adobe.com/Graphs/1.0/">
	<!ENTITY ns_vars "http://ns.adobe.com/Variables/1.0/">
	<!ENTITY ns_imrep "http://ns.adobe.com/ImageReplacement/1.0/">
	<!ENTITY ns_sfw "http://ns.adobe.com/SaveForWeb/1.0/">
	<!ENTITY ns_custom "http://ns.adobe.com/GenericCustomNamespace/1.0/">
	<!ENTITY ns_adobe_xpath "http://ns.adobe.com/XPath/1.0/">
]>
<svg version="1.2" baseProfile="tiny" id="Layer_3" xmlns:x="&ns_extend;" xmlns:i="&ns_ai;" xmlns:graph="&ns_graphs;"
	 xmlns="http://www.w3.org/2000/svg" xmlns:xlink="http://www.w3.org/1999/xlink" xmlns:a="http://ns.adobe.com/AdobeSVGViewerExtensions/3.0/"
	 x="0px" y="0px" width="609.543px" height="266.684px" viewBox="0 0 609.543 266.684" xml:space="preserve">
<metadata>
	<sfw  xmlns="&ns_sfw;">
		<slices></slices>
		<sliceSourceBounds  x="655.728" y="408.803" width="609.543" height="254.039" bottomLeftOrigin="true"></sliceSourceBounds>
	</sfw>
</metadata>
<path fill="#F4F4F4" d="M-0.001,167.594c0.002-53.265,43.179-96.444,96.445-96.447l0,0v1v1c-26.083,0-49.688,10.57-66.783,27.662
	l0,0C12.57,117.905,2,141.51,2,167.594l0,0c0,26.083,10.57,49.688,27.662,66.781l0,0c17.095,17.093,40.7,27.663,66.783,27.663l0,0
	c26.084,0,49.688-10.57,66.783-27.663l0,0c17.093-17.093,27.661-40.698,27.663-66.781l0,0c-0.002-26.084-10.57-49.689-27.663-66.784
	l0,0c-17.095-17.091-40.699-27.662-66.783-27.662l0,0v-1v-1c53.266,0.002,96.445,43.182,96.445,96.447l0,0
	c0,53.264-43.18,96.443-96.445,96.445l0,0C43.178,264.037,0.001,220.858-0.001,167.594L-0.001,167.594z"/>
<path fill="#F4F4F4" d="M55.763,167.593c0-22.468,18.213-40.68,40.681-40.68l0,0v1v1c-10.684,0-20.348,4.328-27.352,11.329l0,0
	c-7.002,7.002-11.33,16.665-11.33,27.352l0,0c0,10.685,4.328,20.35,11.33,27.352l0,0c7.004,7.002,16.667,11.33,27.352,11.33l0,0
	c10.687,0,20.35-4.328,27.354-11.33l0,0c7.002-7.002,11.328-16.667,11.33-27.352l0,0c-0.002-10.687-4.328-20.35-11.33-27.352l0,0
	c-7.004-7.001-16.667-11.329-27.354-11.329l0,0v-1v-1c22.468,0,40.681,18.212,40.683,40.68l0,0
	c-0.002,22.468-18.215,40.681-40.683,40.681l0,0C73.976,208.274,55.763,190.061,55.763,167.593L55.763,167.593z"/>
<polygon fill="#F4F4F4" points="90.892,122.623 96.445,101.542 101.999,122.623 "/>
<polygon fill="#F4F4F4" points="60.719,139.721 49.739,120.888 68.572,131.868 "/>
<polygon fill="#F4F4F4" points="51.474,173.147 30.393,167.594 51.474,162.041 "/>
<polygon fill="#F4F4F4" points="68.573,203.32 49.739,214.301 60.719,195.466 "/>
<polygon fill="#F4F4F4" points="101.999,212.565 96.445,233.646 90.892,212.565 "/>
<polygon fill="#F4F4F4" points="132.171,195.466 143.151,214.301 124.318,203.32 "/>
<polygon fill="#F4F4F4" points="141.417,162.041 162.497,167.594 141.417,173.147 "/>
<polygon fill="#F4F4F4" points="124.318,131.868 143.151,120.888 132.171,139.721 "/>
<g>
	<path fill="#F4F4F4" d="M269.272,133.596c0.002-19.7,15.971-35.669,35.671-35.671l0,0v1.001v0.999
		c-18.596,0.033-33.638,15.075-33.671,33.671l0,0c0.033,18.593,15.075,33.635,33.671,33.668l0,0
		c18.594-0.033,33.636-15.075,33.669-33.668l0,0c-0.033-18.596-15.075-33.638-33.669-33.671l0,0v-0.999v-1.001
		c19.698,0.002,35.67,15.971,35.67,35.671l0,0c0,19.698-15.972,35.667-35.67,35.669l0,0
		C285.243,169.264,269.274,153.294,269.272,133.596L269.272,133.596z"/>
	<path fill="#F4F4F4" d="M280.69,133.596c0-13.395,10.858-24.252,24.252-24.252l0,0v1v1c-12.289,0.022-22.23,9.963-22.252,22.252
		l0,0c0.022,12.289,9.963,22.229,22.252,22.25l0,0c12.289-0.021,22.23-9.961,22.25-22.25l0,0
		c-0.021-12.289-9.962-22.23-22.25-22.252l0,0v-1v-1c13.394,0,24.25,10.858,24.252,24.252l0,0
		c-0.002,13.392-10.858,24.25-24.252,24.252l0,0C291.548,157.846,280.69,146.988,280.69,133.596L280.69,133.596z"/>
</g>
<g>
	<path fill="#F4F4F4" d="M359.774,123.595c0.002-19.7,15.972-35.667,35.671-35.669l0,0v1.002v1
		c-18.596,0.033-33.636,15.074-33.669,33.667l0,0c0.033,18.595,15.073,33.636,33.669,33.669l0,0
		c18.594-0.033,33.634-15.074,33.667-33.669l0,0c-0.033-18.594-15.073-33.634-33.667-33.667l0,0v-1v-1.002
		c19.698,0.002,35.667,15.969,35.669,35.669l0,0c-0.002,19.699-15.971,35.669-35.669,35.669l0,0
		C375.746,159.264,359.776,143.294,359.774,123.595L359.774,123.595z"/>
	<path fill="#F4F4F4" d="M371.193,123.595c0-13.394,10.856-24.251,24.252-24.251l0,0v1.001v0.999
		c-12.291,0.023-22.23,9.962-22.251,22.251l0,0c0.021,12.289,9.96,22.228,22.251,22.251l0,0c12.287-0.023,22.229-9.963,22.25-22.251
		l0,0c-0.021-12.289-9.963-22.229-22.25-22.251l0,0v-0.999v-1.001c13.392,0,24.249,10.857,24.251,24.251l0,0
		c-0.002,13.393-10.859,24.25-24.251,24.25l0,0C382.05,147.846,371.193,136.989,371.193,123.595L371.193,123.595z"/>
</g>
<g>
	<path fill="#F4F4F4" d="M450.276,113.596c0.002-19.701,15.97-35.669,35.671-35.669l0,0v1v1
		c-18.596,0.032-33.637,15.073-33.669,33.668l0,0c0.032,18.595,15.073,33.635,33.669,33.668l0,0
		c18.593-0.033,33.635-15.073,33.669-33.668l0,0c-0.034-18.595-15.076-33.637-33.669-33.668l0,0v-1v-1
		c19.696,0,35.667,15.968,35.669,35.669l0,0c-0.002,19.699-15.973,35.667-35.669,35.669l0,0
		C466.246,149.263,450.278,133.295,450.276,113.596L450.276,113.596z"/>
	<path fill="#F4F4F4" d="M461.693,113.596c0.002-13.395,10.858-24.251,24.253-24.253l0,0v1.001v1.001
		c-12.29,0.021-22.23,9.961-22.251,22.251l0,0c0.021,12.288,9.961,22.229,22.251,22.251l0,0c12.29-0.022,22.23-9.963,22.252-22.251
		l0,0c-0.021-12.29-9.962-22.23-22.252-22.251l0,0v-1.001v-1.001c13.395,0.002,24.252,10.859,24.252,24.253l0,0
		c0,13.395-10.857,24.251-24.252,24.251l0,0C472.552,137.847,461.695,126.99,461.693,113.596L461.693,113.596z"/>
</g>
<g>
	<path fill="#F4F4F4" d="M538.204,45.67c0-19.7,15.969-35.669,35.669-35.669l0,0v1v1c-18.596,0.034-33.635,15.073-33.669,33.669l0,0
		c0.034,18.596,15.073,33.635,33.669,33.669l0,0c18.596-0.034,33.634-15.073,33.668-33.669l0,0
		c-0.034-18.596-15.072-33.635-33.668-33.669l0,0v-1v-1c19.7,0,35.669,15.969,35.669,35.669l0,0c0,19.7-15.969,35.669-35.669,35.669
		l0,0C554.173,81.339,538.204,65.37,538.204,45.67L538.204,45.67z"/>
	<path fill="#F4F4F4" d="M549.62,45.67c0.002-13.394,10.858-24.252,24.254-24.252l0,0v1v0.999
		c-12.291,0.023-22.23,9.963-22.252,22.252l0,0c0.021,12.289,9.961,22.229,22.252,22.252l0,0
		c12.289-0.023,22.229-9.964,22.251-22.252l0,0c-0.021-12.289-9.962-22.229-22.251-22.252l0,0v-0.999v-1
		c13.393,0,24.25,10.858,24.252,24.252l0,0c-0.002,13.394-10.859,24.252-24.252,24.252l0,0
		C560.479,69.922,549.622,59.064,549.62,45.67L549.62,45.67z"/>
</g>
<g>
	<path fill="#F4F4F4" d="M269.272,222.428c0-19.7,15.97-35.671,35.67-35.671l0,0v1.002v1c-18.596,0.033-33.638,15.073-33.671,33.669
		l0,0c0.033,18.595,15.075,33.636,33.671,33.67l0,0c18.594-0.034,33.635-15.075,33.669-33.67l0,0
		c-0.034-18.596-15.075-33.636-33.669-33.669l0,0v-1v-1.002c19.7,0,35.668,15.971,35.67,35.671l0,0
		c-0.002,19.7-15.971,35.669-35.67,35.671l0,0C285.243,258.097,269.272,242.128,269.272,222.428L269.272,222.428z"/>
	<path fill="#F4F4F4" d="M280.691,222.429c0-13.396,10.856-24.252,24.252-24.254l0,0v1.002v0.999
		c-12.291,0.022-22.23,9.962-22.251,22.253l0,0c0.021,12.289,9.961,22.229,22.251,22.252l0,0
		c12.289-0.023,22.23-9.963,22.251-22.252l0,0c-0.021-12.291-9.963-22.23-22.251-22.253l0,0v-0.999v-1.002
		c13.393,0.002,24.25,10.858,24.252,24.254l0,0c-0.003,13.394-10.859,24.25-24.252,24.252l0,0
		C291.547,246.679,280.691,235.823,280.691,222.429L280.691,222.429z"/>
</g>
<g>
	<path fill="#F4F4F4" d="M359.774,212.428c0.002-19.699,15.972-35.669,35.671-35.669l0,0v1v1
		c-18.596,0.033-33.636,15.074-33.669,33.669l0,0c0.033,18.596,15.073,33.636,33.669,33.668l0,0
		c18.594-0.032,33.634-15.072,33.667-33.668l0,0c-0.033-18.595-15.073-33.636-33.667-33.669l0,0v-1v-1
		c19.698,0,35.667,15.97,35.669,35.669l0,0c-0.002,19.7-15.971,35.67-35.669,35.67l0,0
		C375.746,248.098,359.776,232.128,359.774,212.428L359.774,212.428z"/>
	<path fill="#F4F4F4" d="M371.193,212.428c0-13.395,10.856-24.251,24.252-24.251l0,0v1.001v1
		c-12.291,0.021-22.23,9.961-22.251,22.25l0,0c0.021,12.289,9.96,22.229,22.251,22.251l0,0c12.287-0.022,22.229-9.962,22.25-22.251
		l0,0c-0.021-12.289-9.963-22.229-22.25-22.25l0,0v-1v-1.001c13.392,0,24.249,10.856,24.251,24.251l0,0
		c-0.002,13.394-10.859,24.25-24.251,24.252l0,0C382.05,236.678,371.193,225.822,371.193,212.428L371.193,212.428z"/>
</g>
<path fill="#F4F4F4" d="M450.276,202.429c0.002-19.7,15.97-35.669,35.671-35.671l0,0v1v1.001
	c-18.596,0.033-33.637,15.073-33.669,33.67l0,0c0.032,18.594,15.073,33.635,33.669,33.667l0,0
	c18.593-0.032,33.635-15.073,33.669-33.667l0,0c-0.034-18.597-15.076-33.637-33.669-33.67l0,0v-1.001v-1
	c19.696,0.002,35.667,15.971,35.669,35.671l0,0c-0.002,19.699-15.973,35.667-35.669,35.67l0,0
	C466.246,238.096,450.278,222.128,450.276,202.429L450.276,202.429z"/>
<path fill="#F4F4F4" d="M461.693,202.429c0.002-13.395,10.858-24.254,24.253-24.254l0,0v1.001v1.001
	c-12.29,0.021-22.23,9.962-22.251,22.252l0,0c0.021,12.288,9.961,22.229,22.251,22.249l0,0c12.29-0.021,22.23-9.961,22.252-22.249
	l0,0c-0.021-12.29-9.962-22.23-22.252-22.252l0,0v-1.001v-1.001c13.395,0,24.252,10.859,24.252,24.254l0,0
	c0,13.393-10.857,24.251-24.252,24.251l0,0C472.552,226.68,461.695,215.822,461.693,202.429L461.693,202.429z"/>
</svg>
