<?xml version="1.0" encoding="UTF-8" standalone="no"?>
<!-- Created with Inkscape (http://www.inkscape.org/) -->

<svg
   xmlns:dc="http://purl.org/dc/elements/1.1/"
   xmlns:cc="http://creativecommons.org/ns#"
   xmlns:rdf="http://www.w3.org/1999/02/22-rdf-syntax-ns#"
   xmlns:svg="http://www.w3.org/2000/svg"
   xmlns="http://www.w3.org/2000/svg"
   xmlns:sodipodi="http://sodipodi.sourceforge.net/DTD/sodipodi-0.dtd"
   xmlns:inkscape="http://www.inkscape.org/namespaces/inkscape"
   width="36.811859mm"
   height="11.038103mm"
   viewBox="0 0 36.811859 11.038103"
   version="1.1"
   id="svg8"
   inkscape:version="0.92.4 (5da689c313, 2019-01-14)"
   sodipodi:docname="system.svg">
  <defs
     id="defs2" />
  <sodipodi:namedview
     id="base"
     pagecolor="#ffffff"
     bordercolor="#666666"
     borderopacity="1.0"
     inkscape:pageopacity="0.0"
     inkscape:pageshadow="2"
     inkscape:zoom="7.9195959"
     inkscape:cx="89.308379"
     inkscape:cy="7.825153"
     inkscape:document-units="mm"
     inkscape:current-layer="layer1"
     showgrid="false"
     fit-margin-top="0"
     fit-margin-left="0"
     fit-margin-right="0"
     fit-margin-bottom="0"
     inkscape:window-width="2736"
     inkscape:window-height="1699"
     inkscape:window-x="-13"
     inkscape:window-y="-13"
     inkscape:window-maximized="1" />
  <metadata
     id="metadata5">
    <rdf:RDF>
      <cc:Work
         rdf:about="">
        <dc:format>image/svg+xml</dc:format>
        <dc:type
           rdf:resource="http://purl.org/dc/dcmitype/StillImage" />
        <dc:title></dc:title>
      </cc:Work>
    </rdf:RDF>
  </metadata>
  <g
     inkscape:label="Layer 1"
     inkscape:groupmode="layer"
     id="layer1"
     transform="translate(-22.017261,-182.10775)">
    <g
       aria-label="TM"
       style="font-style:normal;font-variant:normal;font-weight:normal;font-stretch:normal;font-size:2.11290359px;line-height:1.25;font-family:sans-serif;-inkscape-font-specification:sans-serif;letter-spacing:0px;word-spacing:0px;fill:#777777;fill-opacity:1;stroke:none;stroke-width:0.11319127"
       id="text970">
      <path
         inkscape:connector-curvature="0"
         d="m 57.252697,191.66083 h -0.54886 v 1.35461 h -0.204275 v -1.35461 h -0.548859 v -0.18158 h 1.301994 z"
         style="stroke-width:0.11319127;fill:#777777;fill-opacity:1"
         id="path972" />
      <path
         d="m 58.829121,193.01544 h -0.204275 v -1.19003 l -0.410416,1.15124 h -0.121739 l -0.44073,-1.10112 v 1.13991 h -0.190862 v -1.53619 h 0.278556 l 0.409582,1.08914 0.396169,-1.08914 h 0.283715 z"
         style="stroke-width:0.11319127;fill:#777777;fill-opacity:1"
         id="path974"
         inkscape:connector-curvature="0"
         sodipodi:nodetypes="cccccccccccccc" />
    </g>
    <g
       id="g1025"
       style="fill:#777777;fill-opacity:1">
      <g
         id="g834"
         style="fill:#777777;fill-opacity:1">
        <rect
           style="opacity:1;fill:#777777;fill-opacity:1;fill-rule:nonzero;stroke:none;stroke-width:1.51589584;stroke-linecap:round;stroke-linejoin:round;stroke-miterlimit:4;stroke-dasharray:none;stroke-opacity:1;paint-order:stroke fill markers"
           id="rect828"
           width="2.6726954"
           height="10.590555"
           x="34.010048"
           y="182.40819" />
        <path
           inkscape:connector-curvature="0"
           id="path830"
           transform="scale(0.26458333)"
           d="m 125.38477,689.41602 -17.86133,30.9375 h 39.70703 v -7.70313 h -15.91016 l 7.32227,-23.23437 z m 3.53515,8.58789 v 14.39453 h -7.70117 z"
           style="fill:#777777;stroke:none;stroke-width:0.99999994px;stroke-linecap:butt;stroke-linejoin:miter;stroke-opacity:1;fill-opacity:1" />
      </g>
      <path
         inkscape:connector-curvature="0"
         id="path869"
         transform="scale(0.26458333)"
         d="m 105.72852,688.28125 c -11.387056,0 -22.513665,9.86101 -22.513676,21.24805 v 3.15625 c 1.1e-5,11.38703 4.939076,17.33713 16.347656,17.31445 9.61155,-0.0256 15.54882,-7.09508 15.54883,-15.04297 l -1.22071,-1.61133 c 2e-5,-4.31229 -2.72046,-8.20193 -6.89257,-9.85351 -4.17212,-1.65158 -9.607597,-0.74114 -13.0918,1.82422 2.353266,-6.24348 9.75191,-8.40719 15.60742,-8.36524 l 0.0879,-8.66992 z m -6.923832,21.7168 a 4.8617958,6.3770242 0 0 1 4.863282,6.37695 4.8617958,6.3770242 0 0 1 -4.863282,6.37695 4.8617958,6.3770242 0 0 1 -4.861329,-6.37695 4.8617958,6.3770242 0 0 1 4.861329,-6.37695 z"
         style="opacity:1;fill:#777777;fill-opacity:1;fill-rule:nonzero;stroke:none;stroke-width:0.73322839;stroke-linecap:round;stroke-linejoin:round;stroke-miterlimit:4;stroke-dasharray:none;stroke-opacity:1;paint-order:stroke fill markers" />
      <path
         inkscape:connector-curvature="0"
         id="path935-8"
         transform="scale(0.26458333)"
         d="m 177.76758,689.39844 v 21.41992 18.65234 h 15.36328 c 10.30118,0 18.65039,-5.85086 18.65039,-19.54492 0,-14.94402 -8.34921,-20.52734 -18.65039,-20.52734 z m 10.25195,7.91601 h 3.34766 c 13.34087,0 12.21606,25.17774 0,25.17774 h -3.34766 v -12.49414 z"
         style="opacity:1;fill:#777777;fill-opacity:1;fill-rule:nonzero;stroke:none;stroke-width:0.56396425;stroke-linecap:round;stroke-linejoin:round;stroke-miterlimit:4;stroke-dasharray:none;stroke-opacity:1;paint-order:stroke fill markers" />
      <g
         transform="translate(-8.5526249)"
         id="g1013"
         style="fill:#777777;fill-opacity:1">
        <path
           inkscape:connector-curvature="0"
           id="path935-8-7"
           transform="matrix(0.26458333,0,0,0.26458333,8.5526249,0)"
           d="m 145.44336,689.39844 v 21.41992 18.65234 h 15.36133 c 10.30118,0 18.65234,-5.85086 18.65234,-19.54492 0,-14.94402 -8.35116,-20.52734 -18.65234,-20.52734 z m 10.25,7.91601 h 3.34766 c 13.34087,0 12.21606,25.17774 0,25.17774 h -3.34766 v -12.49414 z"
           style="opacity:1;fill:#777777;fill-opacity:1;fill-rule:nonzero;stroke:none;stroke-width:0.56396425;stroke-linecap:round;stroke-linejoin:round;stroke-miterlimit:4;stroke-dasharray:none;stroke-opacity:1;paint-order:stroke fill markers" />
      </g>
    </g>
  </g>
</svg>
