<?xml version="1.0" encoding="UTF-8" standalone="no"?>
<!-- Generator: Adobe Illustrator 13.0.0, SVG Export Plug-In . SVG Version: 6.00 Build 14948)  -->
<svg id="Layer_3" xmlns:rdf="http://www.w3.org/1999/02/22-rdf-syntax-ns#" xmlns="http://www.w3.org/2000/svg" xml:space="preserve" height="219.98px" viewBox="0 0 596.614 219.979" width="596.61px" version="1.2" y="0px" x="0px" xmlns:cc="http://creativecommons.org/ns#" xmlns:dc="http://purl.org/dc/elements/1.1/"><metadata id="metadata47"><rdf:RDF><cc:Work rdf:about=""><dc:format>image/svg+xml</dc:format><dc:type rdf:resource="http://purl.org/dc/dcmitype/StillImage"/><dc:title/></cc:Work></rdf:RDF></metadata>
<path id="path3" style="baseline-shift:baseline;block-progression:tb;color:#000000;direction:ltr;text-indent:0;text-align:start;enable-background:accumulate;text-transform:none;" fill="#f4f4f4" d="m30.312,19.312c-7.7785,0-14.094,6.3153-14.094,14.094v146.94c0,7.7794,6.3153,14.125,14.094,14.125h536c7.7785,0,14.094-6.3456,14.094-14.125v-146.94c0-7.7785-6.3153-14.094-14.094-14.094h-219.69v2h219.69c6.6975,0,12.094,5.3962,12.094,12.094v146.94c0,6.6986-5.3962,12.125-12.094,12.125h-536c-6.6975,0-12.094-5.4264-12.094-12.125v-146.94c0-6.6975,5.3962-12.094,12.094-12.094h261.66v-2h-261.66z"/>
<path id="path5" style="baseline-shift:baseline;block-progression:tb;color:#000000;direction:ltr;text-indent:0;text-align:start;enable-background:accumulate;text-transform:none;" fill="#f4f4f4" d="M14.094,0c-7.7787,0-14.094,6.3153-14.094,14.094v191.79c0,7.7785,6.3152,14.095,14.094,14.094h568.41c7.7785,0,14.125-6.3153,14.125-14.094v-191.78c0-7.7847-6.34-14.1-14.12-14.1h-235.94-0.78125l-0.1875,0.71875-0.125,0.46875-0.0312,0.125v0.15625,32.25c0,14.636-11.865,26.469-26.5,26.469-14.636,0-26.469-11.834-26.469-26.469v-32.25-0.21875l-0.0625-0.15625-0.18-0.469-0.28-0.625h-0.66-277.19zm0,2,276.38,0,0,31.719c0,15.715,12.752,28.469,28.469,28.469,15.715,0,28.5-12.752,28.5-28.469v-31.719h235.06c6.6975,0,12.125,5.3962,12.125,12.094v191.78c0,6.6975-5.4275,12.094-12.125,12.094h-568.41c-6.6937,0.01-12.09-5.39-12.09-12.08v-191.79c0-6.6978,5.3962-12.094,12.094-12.094z"/>
<path id="path7" style="baseline-shift:baseline;block-progression:tb;color:#000000;direction:ltr;text-indent:0;text-align:start;enable-background:accumulate;text-transform:none;" fill="#f4f4f4" d="m287.59,20.406,0,13.312c0,17.303,14.041,31.344,31.344,31.344s31.375-14.04,31.375-31.344v-13.219h-2v13.219c0,16.222-13.152,29.344-29.375,29.344-16.222,0-29.344-13.121-29.344-29.344v-13.312h-2z"/>
<path id="line9" style="baseline-shift:baseline;block-progression:tb;color:#000000;direction:ltr;text-indent:0;text-align:start;enable-background:accumulate;text-transform:none;" fill="#f4f4f4" d="m291.41,0.875,0,2,54.969,0,0-2-54.969,0z"/>
<path id="circle11" style="baseline-shift:baseline;block-progression:tb;color:#000000;direction:ltr;text-indent:0;text-align:start;enable-background:accumulate;text-transform:none;" fill="#f4f4f4" d="m144.72,71.969c-20.351,0-36.875,16.524-36.875,36.875s16.524,36.875,36.875,36.875,36.875-16.524,36.875-36.875-16.524-36.875-36.875-36.875zm0,2c19.27,0,34.875,15.605,34.875,34.875s-15.605,34.875-34.875,34.875-34.875-15.605-34.875-34.875,15.605-34.875,34.875-34.875z"/>
<path id="circle13" style="baseline-shift:baseline;block-progression:tb;color:#000000;direction:ltr;text-indent:0;text-align:start;enable-background:accumulate;text-transform:none;" fill="#f4f4f4" d="m144.72,91.969c-9.303,0-16.875,7.572-16.875,16.875s7.572,16.875,16.875,16.875,16.844-7.572,16.844-16.875-7.5408-16.875-16.844-16.875zm0,2c8.2221,0,14.844,6.6529,14.844,14.875s-6.6216,14.875-14.844,14.875c-8.2221,0-14.875-6.6529-14.875-14.875s6.6529-14.875,14.875-14.875z"/>
<path id="circle15" style="baseline-shift:baseline;block-progression:tb;color:#000000;direction:ltr;text-indent:0;text-align:start;enable-background:accumulate;text-transform:none;" fill="#f4f4f4" d="m144.72,95.656c-7.2706,0-13.188,5.9169-13.188,13.188,0,7.2706,5.9169,13.188,13.188,13.188,7.2706,0,13.188-5.9169,13.188-13.188,0-7.2706-5.9169-13.188-13.188-13.188zm0,2c6.1897,0,11.188,4.9978,11.188,11.188,0,6.1897-4.9978,11.188-11.188,11.188-6.1897,0-11.188-4.9978-11.188-11.188,0-6.1897,4.9978-11.188,11.188-11.188z"/>
<path id="circle17" style="baseline-shift:baseline;block-progression:tb;color:#000000;direction:ltr;text-indent:0;text-align:start;enable-background:accumulate;text-transform:none;" fill="#f4f4f4" d="m144.94,81.625c-15.272,0-27.656,12.416-27.656,27.688s12.385,27.656,27.656,27.656c15.272,0,27.688-12.385,27.688-27.656,0-15.272-12.416-27.688-27.688-27.688zm0,2c14.191,0,25.688,11.497,25.688,25.688s-11.497,25.656-25.688,25.656-25.656-11.466-25.656-25.656c0-14.191,11.466-25.688,25.656-25.688z"/>
<path id="circle19" style="baseline-shift:baseline;block-progression:tb;color:#000000;direction:ltr;text-indent:0;text-align:start;enable-background:accumulate;text-transform:none;" fill="#f4f4f4" d="m278.56,84.156c-13.922,0-25.219,11.297-25.219,25.219s11.297,25.25,25.219,25.25,25.219-11.328,25.219-25.25-11.297-25.219-25.219-25.219zm0,2c12.841,0,23.219,10.378,23.219,23.219s-10.378,23.25-23.219,23.25-23.219-10.409-23.219-23.25,10.378-23.219,23.219-23.219z"/>
<path id="circle21" style="baseline-shift:baseline;block-progression:tb;color:#000000;direction:ltr;text-indent:0;text-align:start;enable-background:accumulate;text-transform:none;" fill="#f4f4f4" d="m356.28,84.156c-13.922,0-25.219,11.297-25.219,25.219s11.297,25.25,25.219,25.25,25.219-11.328,25.219-25.25-11.297-25.219-25.219-25.219zm0,2c12.841,0,23.219,10.378,23.219,23.219s-10.378,23.25-23.219,23.25-23.219-10.409-23.219-23.25,10.378-23.219,23.219-23.219z"/>
<path id="circle23" style="baseline-shift:baseline;block-progression:tb;color:#000000;direction:ltr;text-indent:0;text-align:start;enable-background:accumulate;text-transform:none;" fill="#f4f4f4" d="m434,84.156c-13.922,0-25.219,11.297-25.219,25.219s11.297,25.25,25.219,25.25,25.219-11.328,25.219-25.25-11.297-25.219-25.219-25.219zm0,2c12.841,0,23.219,10.378,23.219,23.219s-10.378,23.25-23.219,23.25-23.219-10.409-23.219-23.25,10.378-23.219,23.219-23.219z"/>
<path id="circle25" style="baseline-shift:baseline;block-progression:tb;color:#000000;direction:ltr;text-indent:0;text-align:start;enable-background:accumulate;text-transform:none;" fill="#f4f4f4" d="M511.72,84.156c-13.92,0-25.22,11.297-25.22,25.224,0,13.922,11.297,25.25,25.219,25.25s25.219-11.328,25.219-25.25-11.297-25.219-25.219-25.219zm0,2c12.841,0,23.219,10.378,23.219,23.219s-10.378,23.25-23.219,23.25-23.219-10.409-23.219-23.25,10.378-23.219,23.219-23.219z"/>
<path id="path27" style="baseline-shift:baseline;block-progression:tb;color:#000000;direction:ltr;text-indent:0;text-align:start;enable-background:accumulate;text-transform:none;" fill="#f4f4f4" d="m144.59,54.5c-14.916,0-28.407,6.0363-38.188,15.812-9.7751,9.7822-15.81,23.273-15.812,38.188,0.0031,14.916,6.0373,28.406,15.812,38.188,9.7813,9.7762,23.272,15.811,38.188,15.812,14.916-0.002,28.406-6.0373,38.188-15.812,9.7762-9.7813,15.811-23.271,15.812-38.188-0.001-14.915-6.0363-28.406-15.812-38.188-9.78-9.775-23.27-15.811-38.19-15.812zm0,2c14.376,0.000982,27.359,5.8019,36.781,15.219,9.4178,9.4227,15.218,22.406,15.219,36.781-0.00098,14.377-5.8009,27.327-15.219,36.75-9.4227,9.4168-22.405,15.248-36.781,15.25-14.376-0.00098-27.359-5.8322-36.781-15.25-9.414-9.42-15.213-22.37-15.216-36.75,0.002-14.375,5.802-27.357,15.216-36.781,9.42-9.418,22.41-15.219,36.78-15.219z"/>
<path id="path29" style="baseline-shift:baseline;block-progression:tb;color:#000000;direction:ltr;text-indent:0;text-align:start;enable-background:accumulate;text-transform:none;" fill="#f4f4f4" d="m278.56,79.688c-8.2101,0.001-15.615,3.3058-21,8.6875-5.3816,5.3857-8.7177,12.79-8.7188,21,0.001,8.2082,3.3382,15.646,8.7188,21.031,5.3848,5.3806,12.79,8.6865,21,8.6875,8.2092-0.001,15.614-3.307,21-8.6875,5.3795-5.3857,8.7167-12.822,8.7188-21.031-0.002-8.2091-3.3393-15.614-8.7188-21-5.3857-5.3805-12.791-8.6865-21-8.6875zm0,2c7.6708,0.000966,14.565,3.0703,19.594,8.0938,5.0225,5.0283,8.1231,11.923,8.125,19.594-0.002,7.6709-3.1025,14.565-8.125,19.594-5.0283,5.0235-11.923,8.124-19.594,8.125-7.6718-0.00097-14.566-3.1016-19.594-8.125-5.0234-5.0282-8.124-11.924-8.125-19.594,0.00097-7.6719,3.1006-14.565,8.125-19.594,5.0272-5.0243,11.922-8.0928,19.594-8.0938z"/>
<path id="path31" style="baseline-shift:baseline;block-progression:tb;color:#000000;direction:ltr;text-indent:0;text-align:start;enable-background:accumulate;text-transform:none;" fill="#f4f4f4" d="m356.28,79.688c-8.2102,0.001-15.616,3.3079-21,8.6875-5.3806,5.3857-8.7167,12.79-8.7188,21,0.002,8.2081,3.338,15.646,8.7188,21.031,5.3838,5.3807,12.79,8.6854,21,8.6875,8.2082-0.002,15.613-3.307,21-8.6875,5.3785-5.3847,8.7177-12.822,8.7188-21.031-0.001-8.2102-3.3402-15.615-8.7188-21-5.3866-5.3794-12.791-8.6865-21-8.6875zm0,2c7.6707,0.000966,14.564,3.0711,19.594,8.0938,5.0215,5.0273,8.124,11.922,8.125,19.594-0.00097,7.6707-3.1035,14.566-8.125,19.594-5.0293,5.0235-11.924,8.1231-19.594,8.125-7.6719-0.002-14.568-3.1017-19.594-8.125-5.0233-5.0272-8.1231-11.924-8.125-19.594,0.002-7.672,3.1016-14.565,8.125-19.594,5.0262-5.0224,11.922-8.0928,19.594-8.0938z"/>
<path id="path33" style="baseline-shift:baseline;block-progression:tb;color:#000000;direction:ltr;text-indent:0;text-align:start;enable-background:accumulate;text-transform:none;" fill="#f4f4f4" d="m434,79.688c-8.2093,0.001-15.612,3.3082-21,8.6875-5.3794,5.3866-8.7177,12.79-8.7188,21,0.001,8.2073,3.3392,15.646,8.7188,21.031,5.3876,5.3804,12.791,8.6865,21,8.6875,8.2073-0.001,15.613-3.307,21-8.6875,5.3795-5.3857,8.7167-12.823,8.7188-21.031-0.002-8.2101-3.3394-15.613-8.7188-21-5.3866-5.3794-12.792-8.6865-21-8.6875zm0,2c7.6697,0.000966,14.564,3.0711,19.594,8.0938,5.0226,5.0294,8.1231,11.922,8.125,19.594-0.002,7.6698-3.1025,14.565-8.125,19.594-5.0293,5.0235-11.925,8.124-19.594,8.125-7.6708-0.00097-14.563-3.1014-19.594-8.125-5.0225-5.0283-8.124-11.925-8.125-19.594,0.00097-7.6718,3.1024-14.564,8.125-19.594,5.02-5.037,11.91-8.108,19.58-8.108z"/>
<path id="path35" style="baseline-shift:baseline;block-progression:tb;color:#000000;direction:ltr;text-indent:0;text-align:start;enable-background:accumulate;text-transform:none;" fill="#f4f4f4" d="m511.72,79.688c-8.2093,0.001-15.614,3.307-21,8.6875-5.3804,5.3866-8.7177,12.791-8.7188,21,0.001,8.2083,3.3382,15.646,8.7188,21.031,5.3857,5.3805,12.791,8.6854,21,8.6875,8.2082-0.002,15.613-3.307,21-8.6875,5.3805-5.3857,8.7167-12.822,8.7188-21.031-0.002-8.2091-3.3383-15.613-8.7188-21-5.3866-5.3804-12.791-8.6854-21-8.6875zm0,2c7.6709,0.0019,14.564,3.0702,19.594,8.0938,5.0236,5.0294,8.1231,11.923,8.125,19.594-0.002,7.6709-3.1015,14.565-8.125,19.594-5.0293,5.0236-11.924,8.1231-19.594,8.125-7.6709-0.002-14.565-3.1015-19.594-8.125-5.0235-5.0283-8.124-11.924-8.125-19.594,0.00097-7.6707,3.1014-14.564,8.125-19.594,5.0283-5.0235,11.923-8.0928,19.594-8.0938z"/>
<path id="path37" stroke="#F4F4F4" stroke-width="2" d="M201.04,111.94" fill="none"/>
<path id="path39" style="baseline-shift:baseline;block-progression:tb;color:#000000;direction:ltr;text-indent:0;text-align:start;enable-background:accumulate;text-transform:none;" fill="#f4f4f4" d="m144.59,47.594c-33.623,0.003-60.903,27.284-60.906,60.906,0.003,33.622,27.283,60.903,60.906,60.906,32.122-0.003,58.398-24.925,60.688-56.469h36.906c1.7925,18.545,17.368,33.06,36.375,33.062,19.001-0.002,34.575-14.526,36.375-33.062h4.9688c1.8009,18.535,17.373,33.058,36.375,33.062,19-0.004,34.541-14.529,36.344-33.062h5c1.798,18.539,17.371,33.06,36.375,33.062,19.005-0.002,34.58-14.521,36.375-33.062h4.9688c1.8048,18.534,17.376,33.06,36.375,33.062,20.208-0.002,36.592-16.417,36.594-36.625-0.002-20.209-16.385-36.593-36.594-36.594-18.386,0.001-33.59,13.575-36.188,31.25h-5.375c-2.6-17.684-17.77-31.257-36.16-31.259-18.387,0.002-33.558,13.575-36.156,31.25h-5.4062c-2.597-17.676-17.769-31.249-36.156-31.25-18.387,0.001-33.559,13.572-36.156,31.25h-5.4062c-2.6067-17.664-17.778-31.247-36.156-31.25-18.384,0.003-33.556,13.577-36.156,31.25h-37.125c-2.2866-31.545-28.564-56.434-60.688-56.438zm0,2c31.361,0.0029,56.958,24.479,58.781,55.375v0.0312l0.0312,0.0625v0.96875h1,38.719,0.375l0.28125-0.21875,0.0937-0.0625,0.28125-0.25,0.0625-0.40625c2.1121-17.094,16.668-30.31,34.344-30.312,17.648,0.0029,32.196,13.196,34.344,30.25l0.0312,0.1875,0.0937,0.1875,0.0937,0.15625,0.3125,0.46875h0.5625,6.9375,0.84375l0.125-0.84375,0.0312-0.21875c2.1762-17.026,16.718-30.187,34.344-30.188,17.655,0.000973,32.205,13.184,34.344,30.25l0.0312,0.28125,0.1875,0.21875,0.0937,0.15625,0.3125,0.34375h0.46875,6.9062,0.71875l0.21875-0.6875,0.0625-0.15625,0.0312-0.0937v-0.0937c2.19-17.062,16.73-30.227,34.38-30.229,17.65,0.002,32.19,13.167,34.34,30.219v0.0312l0.0312,0.15625,0.125,0.84375h0.84375,7,0.65625l0.25-0.59375,0.0312-0.0937,0.0625-0.125,0.0312-0.15625c2.1257-17.078,16.679-30.28,34.344-30.281,19.128,0.000973,34.592,15.465,34.594,34.594-0.002,19.128-15.466,34.623-34.594,34.625-18.263-0.002-33.213-14.111-34.531-32.031v-0.25l-0.125-0.1875-0.0625-0.0937-0.28125-0.5h-0.5625-6.625-0.875l-0.125,0.875v0.0937l-0.0312,0.0312v0.0312c-1.33,17.91-16.25,32.03-34.51,32.03-18.278-0.002-33.234-14.155-34.531-32.094v-0.3125l-0.21875-0.25-0.0312-0.0312-0.3125-0.375h-0.46875-6.5625-0.4375l-0.28125,0.3125-0.0937,0.0937-0.25,0.25-0.0312,0.375c-1.3163,17.919-16.236,32.027-34.5,32.031-18.253-0.004-33.2-14.095-34.531-32v-0.0937-0.0625l-0.0312-0.125-0.1875-0.78125h-0.78125-6.5938-0.5625l-0.28125,0.5-0.0937,0.15625-0.125,0.1875-0.0312,0.25c-1.3445,17.891-16.257,31.967-34.5,31.969-18.189-0.002-33.078-13.997-34.5-31.812-0.00053,0.006-0.002-0.0723,0-0.0937v-0.0625c-0.0005-0.0868,0.006-0.1876-0.0625-0.375-0.069-0.1874-0.24565-0.4581-0.5-0.59375l-0.25-0.125h-0.25-38.594-1v1,0.0312,0.0312c-1.8113,30.909-27.443,55.403-58.812,55.406-32.58-0.03-58.94-26.39-58.942-58.93,0.003-32.542,26.364-58.903,58.906-58.906z"/>
<path id="path41" stroke="#F4F4F4" stroke-width="2" d="M243.02,111.92" fill="none"/>
</svg>
