<?xml version="1.0" encoding="UTF-8" standalone="no"?>
<!-- Created with Inkscape (http://www.inkscape.org/) -->

<svg
   xmlns:dc="http://purl.org/dc/elements/1.1/"
   xmlns:cc="http://creativecommons.org/ns#"
   xmlns:rdf="http://www.w3.org/1999/02/22-rdf-syntax-ns#"
   xmlns:svg="http://www.w3.org/2000/svg"
   xmlns="http://www.w3.org/2000/svg"
   version="1.2"
   width="458.79199"
   height="448.81799"
   viewBox="0 0 458.792 448.818"
   id="Layer_3"
   xml:space="preserve"><metadata
   id="metadata81"><rdf:RDF><cc:Work
       rdf:about=""><dc:format>image/svg+xml</dc:format><dc:type
         rdf:resource="http://purl.org/dc/dcmitype/StillImage" /><dc:title></dc:title></cc:Work></rdf:RDF></metadata><defs
   id="defs79" />
<path
   d="m 7.875,149.6875 -2,0.0625 c 0.2526364,5.54561 -1.4258722,20.05825 -3.40625,33.65625 -2.00330848,13.76239 -5.456071,58.57671 2.65625,95.8125 4.0367421,18.53207 8.77037,36.98516 14.96875,51.28125 6.19838,14.29609 13.896878,24.63217 24.1875,26.3125 9.994642,1.632 17.174818,-1.7369 22.375,-9 5.200182,-7.2631 8.623632,-18.29415 11.9375,-32.34375 6.610971,-28.03436 13.606137,-59.38026 15.0625,-66 0.659467,-2.99638 2.977277,-6.49777 6.03125,-9.15625 3.05397,-2.65848 6.82397,-4.46257 10.15625,-4.34375 L 109.90625,234 c -4.07172,-0.14518 -8.20697,1.88748 -11.53125,4.78125 -3.324277,2.89377 -5.860717,6.66663 -6.65625,10.28125 -1.451637,6.59826 -8.486721,37.91986 -15.09375,65.9375 -3.296132,13.9744 -6.713932,24.80935 -11.59375,31.625 -4.879818,6.81565 -11.000142,9.7285 -20.4375,8.1875 -9.141378,-1.49267 -16.59163,-11.06534 -22.6875,-25.125 C 15.81038,315.62784 11.088758,297.26518 7.0625,278.78125 -0.95317898,241.98904 2.4768085,197.18836 4.4375,183.71875 6.4231222,170.08475 8.1523636,155.77589 7.875,149.6875 z"
   id="path3"
   style="font-size:medium;font-style:normal;font-variant:normal;font-weight:normal;font-stretch:normal;text-indent:0;text-align:start;text-decoration:none;line-height:normal;letter-spacing:normal;word-spacing:normal;text-transform:none;direction:ltr;block-progression:tb;writing-mode:lr-tb;text-anchor:start;baseline-shift:baseline;color:#000000;fill:#f4f4f4;fill-opacity:1;stroke:none;stroke-width:2;marker:none;visibility:visible;display:inline;overflow:visible;enable-background:accumulate;font-family:Sans;-inkscape-font-specification:Sans" />
<path
   d="m 131,35.375 c -0.77057,0.02041 -1.87142,0.205971 -4.4375,0.46875 -2.76758,0.283951 -13.76079,2.150857 -25.96875,4.5 -12.207959,2.349143 -25.486557,5.134499 -32.53125,7.28125 -7.078926,2.157339 -14.800291,6.201307 -20.9375,9.84375 -3.068605,1.821221 -5.747853,3.525703 -7.71875,4.875 -0.985449,0.674648 -1.798769,1.262632 -2.40625,1.71875 -0.607481,0.456118 -0.95,0.725355 -1.25,1.0625 -0.848168,0.953989 -0.993877,2.252719 -1.0625,4.15625 -0.06862,1.903531 0.02376,4.469472 0.15625,7.90625 l 2,-0.09375 C 36.711241,73.656528 36.623873,71.139969 36.6875,69.375 c 0.06363,-1.764969 0.352668,-2.701489 0.5625,-2.9375 -0.0355,0.0399 0.394137,-0.34981 0.96875,-0.78125 0.574613,-0.43144 1.345949,-0.994539 2.3125,-1.65625 1.933103,-1.323422 4.564855,-3.014846 7.59375,-4.8125 6.057791,-3.595307 13.730176,-7.583589 20.53125,-9.65625 6.836307,-2.083249 20.130709,-4.874643 32.3125,-7.21875 12.18179,-2.344107 23.39283,-4.254951 25.78125,-4.5 2.58992,-0.265221 3.79632,-0.424657 4.28125,-0.4375 0.24247,-0.0064 0.25436,0.002 0.25,0 -0.004,-0.002 0.0884,0.06776 0.34375,0.25 L 132.78125,36 c -0.20769,-0.148256 -0.36095,-0.291077 -0.6875,-0.4375 C 131.7672,35.416077 131.38528,35.364796 131,35.375 z"
   id="path5"
   style="font-size:medium;font-style:normal;font-variant:normal;font-weight:normal;font-stretch:normal;text-indent:0;text-align:start;text-decoration:none;line-height:normal;letter-spacing:normal;word-spacing:normal;text-transform:none;direction:ltr;block-progression:tb;writing-mode:lr-tb;text-anchor:start;baseline-shift:baseline;color:#000000;fill:#f4f4f4;fill-opacity:1;stroke:none;stroke-width:2;marker:none;visibility:visible;display:inline;overflow:visible;enable-background:accumulate;font-family:Sans;-inkscape-font-specification:Sans" />
<path
   d="m 229.09375,0 c -36.3228,0 -69.0617,8.9682749 -92.21875,23.40625 l -0.5625,0.34375 0.0937,0.625 12.40625,87.53125 -17.8125,-65.875 -1.90625,0.53125 22,81.46875 0,0.0312 0.0312,0.0937 1.9375,-0.375 0,-0.125 -0.0312,-0.125 -14.5625,-102.75 C 161.19493,10.779828 193.36976,2 229.09375,2 l 0.59375,0 c 35.7121,0 67.90007,8.787962 90.625,22.78125 l -14.5625,102.875 -0.0312,0.125 1.96875,0.375 22.03125,-81.59375 -1.9375,-0.53125 -17.84375,66.0625 12.4375,-87.71875 0.0937,-0.625 -0.53125,-0.34375 C 298.78045,8.9682749 266.0103,0 229.6875,0 l -0.59375,0 z"
   id="path7"
   style="font-size:medium;font-style:normal;font-variant:normal;font-weight:normal;font-stretch:normal;text-indent:0;text-align:start;text-decoration:none;line-height:normal;letter-spacing:normal;word-spacing:normal;text-transform:none;direction:ltr;block-progression:tb;writing-mode:lr-tb;text-anchor:start;baseline-shift:baseline;color:#000000;fill:#f4f4f4;fill-opacity:1;stroke:none;stroke-width:2;marker:none;visibility:visible;display:inline;overflow:visible;enable-background:accumulate;font-family:Sans;-inkscape-font-specification:Sans" />
<path
   d="m 136.34375,24.21875 c 0,0 -2.66841,5.475925 -4.9375,11.75 -1.14066,3.153941 -1.75349,5.47863 -2.78125,7.09375 -1.02776,1.61512 -2.43243,2.678503 -5.65625,3.5 -3.16286,0.805842 -12.493,2.034186 -23.5,3.9375 -11.007001,1.903314 -23.787591,4.516674 -34.3125,8.25 -34.848134,12.360343 -59.3125,46.26496 -59.3125,85.375 0,50.28365 40.790848,89.86531 91.03125,91.0625 22.13605,0.52675 37.19155,3.34037 47.4375,7.40625 10.24595,4.06588 15.68068,9.34753 18.875,14.96875 1.4559,2.56265 3.0583,9.30834 4.5,18.125 1.4417,8.81666 2.83701,19.79815 4.21875,31.28125 2.76348,22.9662 5.51774,47.89973 8.90625,61.78125 4.10286,16.8084 9.48432,36.67707 17.03125,52.4375 3.77347,7.88021 8.1049,14.7188 13.125,19.65625 5.0201,4.93745 10.79239,7.96875 17.34375,7.96875 l 2.15625,0 c 6.55136,0 12.3548,-3.0313 17.375,-7.96875 5.0202,-4.93745 9.32016,-11.77604 13.09375,-19.65625 7.54719,-15.76043 12.92839,-35.62909 17.03125,-52.4375 3.388,-13.88099 6.1739,-38.81505 8.9375,-61.78125 1.3818,-11.4831 2.74572,-22.46446 4.1875,-31.28125 1.44178,-8.81679 3.04405,-15.56205 4.5,-18.125 3.19431,-5.62121 8.66029,-10.90299 18.90625,-14.96875 10.24596,-4.06576 25.27019,-6.879 47.40625,-7.40625 50.2404,-1.19719 91.03125,-40.77887 91.03125,-91.0625 0,-39.11004 -24.46536,-73.014651 -59.3125,-85.375 -10.52541,-3.733325 -23.30563,-6.346813 -34.3125,-8.25 -11.00687,-1.903187 -20.33852,-3.131301 -23.5,-3.9375 -3.22434,-0.821507 -4.62839,-1.884898 -5.65625,-3.5 -1.02786,-1.615102 -1.60934,-3.939809 -2.75,-7.09375 -2.27003,-6.273898 -4.9375,-11.75 -4.9375,-11.75 l -1.8125,0.875 c 0,0 2.61778,5.379148 4.84375,11.53125 1.10634,3.059059 1.68311,5.479852 2.96875,7.5 1.28564,2.020148 3.32509,3.478507 6.84375,4.375 3.57952,0.912801 12.69637,2.073687 23.65625,3.96875 10.95988,1.895063 23.67941,4.495575 34,8.15625 34.03886,12.073651 57.96875,45.22404 57.96875,83.5 0,49.20237 -39.87615,87.88969 -89.09375,89.0625 -22.28294,0.53075 -37.51896,3.33501 -48.09375,7.53125 -10.57479,4.19624 -16.49056,9.83296 -19.90625,15.84375 -1.84855,3.25405 -3.26706,9.90388 -4.71875,18.78125 -1.45169,8.87737 -2.83618,19.88547 -4.21875,31.375 -2.76515,22.97905 -5.559,47.94524 -8.875,61.53125 -4.09314,16.76859 -9.48219,36.55918 -16.90625,52.0625 -3.71203,7.75166 -7.92104,14.4371 -12.6875,19.125 -4.76646,4.6879 -10.02761,7.375 -15.96875,7.375 l -2.15625,0 c -5.94114,0 -11.20238,-2.68711 -15.96875,-7.375 -4.76637,-4.68789 -8.97559,-11.37334 -12.6875,-19.125 -7.42382,-15.50332 -12.81311,-35.2939 -16.90625,-52.0625 -3.31649,-13.58648 -6.10998,-38.5522 -8.875,-61.53125 -1.38251,-11.48952 -2.76714,-22.49776 -4.21875,-31.375 -1.45161,-8.87724 -2.87015,-15.5274 -4.71875,-18.78125 -3.41568,-6.01078 -9.33145,-11.64738 -19.90625,-15.84375 -10.5748,-4.19637 -25.8108,-7.001 -48.09375,-7.53125 C 47.719902,232.01469 7.84375,193.32735 7.84375,144.125 c 0,-38.27596 23.928884,-71.426343 57.96875,-83.5 10.320091,-3.660674 23.040001,-6.261064 34,-8.15625 10.96,-1.895186 20.07611,-3.056592 23.65625,-3.96875 3.51818,-0.896503 5.55826,-2.35487 6.84375,-4.375 1.28549,-2.02013 1.86241,-4.440941 2.96875,-7.5 2.22491,-6.151925 4.84375,-11.53125 4.84375,-11.53125 l -1.78125,-0.875 z"
   id="path9"
   style="font-size:medium;font-style:normal;font-variant:normal;font-weight:normal;font-stretch:normal;text-indent:0;text-align:start;text-decoration:none;line-height:normal;letter-spacing:normal;word-spacing:normal;text-transform:none;direction:ltr;block-progression:tb;writing-mode:lr-tb;text-anchor:start;baseline-shift:baseline;color:#000000;fill:#f4f4f4;fill-opacity:1;stroke:none;stroke-width:2;marker:none;visibility:visible;display:inline;overflow:visible;enable-background:accumulate;font-family:Sans;-inkscape-font-specification:Sans" />
<path
   d="m 450.90625,149.6875 c -0.2763,6.08812 1.45188,20.39725 3.4375,34.03125 1.96068,13.46957 5.38969,58.27026 -2.625,95.0625 -4.02626,18.48393 -8.74776,36.84659 -14.84375,50.90625 -6.09599,14.05966 -13.5456,23.63232 -22.6875,25.125 -9.43787,1.54101 -15.52643,-1.37185 -20.40625,-8.1875 -4.87982,-6.81565 -8.32837,-17.65058 -11.625,-31.625 -6.60702,-28.01762 -13.60975,-59.3387 -15.0625,-65.9375 -0.79449,-3.61483 -3.3632,-7.38746 -6.6875,-10.28125 -3.3243,-2.89379 -7.45953,-4.92643 -11.53125,-4.78125 l 0.0937,1.96875 c 3.33228,-0.11882 7.07105,1.68529 10.125,4.34375 3.05395,2.65846 5.37274,6.16008 6.03125,9.15625 1.45725,6.6192 8.48277,37.96562 15.09375,66 3.31437,14.04958 6.73732,25.08065 11.9375,32.34375 5.20018,7.2631 12.37987,10.63199 22.375,9 10.2911,-1.68032 17.98899,-12.01641 24.1875,-26.3125 6.19851,-14.29609 10.93201,-32.74918 14.96875,-51.28125 8.11131,-37.23576 4.65957,-82.05007 2.65625,-95.8125 -1.98038,-13.598 -3.6892,-28.11037 -3.4375,-33.65625 l -2,-0.0625 z"
   id="path11"
   style="font-size:medium;font-style:normal;font-variant:normal;font-weight:normal;font-stretch:normal;text-indent:0;text-align:start;text-decoration:none;line-height:normal;letter-spacing:normal;word-spacing:normal;text-transform:none;direction:ltr;block-progression:tb;writing-mode:lr-tb;text-anchor:start;baseline-shift:baseline;color:#000000;fill:#f4f4f4;fill-opacity:1;stroke:none;stroke-width:2;marker:none;visibility:visible;display:inline;overflow:visible;enable-background:accumulate;font-family:Sans;-inkscape-font-specification:Sans" />
<path
   d="m 327.8125,35.375 c -0.38533,-0.0102 -0.76711,0.04099 -1.09375,0.1875 C 326.39211,35.709009 326.20747,35.851741 326,36 l 1.15625,1.625 c 0.25503,-0.182241 0.37955,-0.25204 0.375,-0.25 -0.005,0.002 -0.0238,-0.0064 0.21875,0 0.48509,0.01284 1.69134,0.17228 4.28125,0.4375 2.38795,0.245048 13.59908,2.155892 25.78125,4.5 12.18217,2.344108 25.50746,5.135505 32.34375,7.21875 6.80107,2.072661 14.44247,6.060952 20.5,9.65625 3.02876,1.797649 5.66095,3.489097 7.59375,4.8125 0.9664,0.661701 1.76937,1.224845 2.34375,1.65625 0.57438,0.431405 0.97387,0.822198 0.9375,0.78125 0.21004,0.236019 0.53012,1.172531 0.59375,2.9375 0.0636,1.764969 -0.0242,4.281456 -0.15625,7.71875 l 1.96875,0.09375 c 0.13199,-3.436706 0.25612,-6.002719 0.1875,-7.90625 -0.0686,-1.903531 -0.24479,-3.202269 -1.09375,-4.15625 -0.30037,-0.338198 -0.64267,-0.606347 -1.25,-1.0625 -0.60733,-0.456153 -1.42093,-1.044092 -2.40625,-1.71875 -1.97064,-1.349316 -4.61901,-3.053774 -7.6875,-4.875 -6.13697,-3.642452 -13.88982,-7.686411 -20.96875,-9.84375 -7.04471,-2.146755 -20.32292,-4.932108 -32.53125,-7.28125 -12.20833,-2.349142 -23.17045,-4.216048 -25.9375,-4.5 -2.56609,-0.26278 -3.66684,-0.448344 -4.4375,-0.46875 z"
   id="path13"
   style="font-size:medium;font-style:normal;font-variant:normal;font-weight:normal;font-stretch:normal;text-indent:0;text-align:start;text-decoration:none;line-height:normal;letter-spacing:normal;word-spacing:normal;text-transform:none;direction:ltr;block-progression:tb;writing-mode:lr-tb;text-anchor:start;baseline-shift:baseline;color:#000000;fill:#f4f4f4;fill-opacity:1;stroke:none;stroke-width:2;marker:none;visibility:visible;display:inline;overflow:visible;enable-background:accumulate;font-family:Sans;-inkscape-font-specification:Sans" />
<path
   d="m 84.75,97.28125 c -29.159836,0 -52.8125,23.68391 -52.8125,52.84375 0,29.15984 23.652664,52.8125 52.8125,52.8125 29.15984,0 52.8125,-23.65266 52.8125,-52.8125 0,-29.15984 -23.65266,-52.84375 -52.8125,-52.84375 z m 0,2 c 28.07896,0 50.8125,22.76479 50.8125,50.84375 0,28.07896 -22.73354,50.8125 -50.8125,50.8125 -28.078955,0 -50.8125,-22.73354 -50.8125,-50.8125 0,-28.07896 22.733545,-50.84375 50.8125,-50.84375 z"
   id="circle15"
   style="font-size:medium;font-style:normal;font-variant:normal;font-weight:normal;font-stretch:normal;text-indent:0;text-align:start;text-decoration:none;line-height:normal;letter-spacing:normal;word-spacing:normal;text-transform:none;direction:ltr;block-progression:tb;writing-mode:lr-tb;text-anchor:start;baseline-shift:baseline;color:#000000;fill:#f4f4f4;fill-opacity:1;stroke:none;stroke-width:2;marker:none;visibility:visible;display:inline;overflow:visible;enable-background:accumulate;font-family:Sans;-inkscape-font-specification:Sans" />
<path
   d="m 229.40625,139.71875 c -13.68206,0 -24.8125,11.13044 -24.8125,24.8125 0,13.68206 11.13044,24.78125 24.8125,24.78125 13.68206,0 24.78125,-11.09919 24.78125,-24.78125 0,-13.68206 -11.09919,-24.8125 -24.78125,-24.8125 z m 0,2 c 12.60118,0 22.78125,10.21132 22.78125,22.8125 0,12.60118 -10.18007,22.78125 -22.78125,22.78125 -12.60118,0 -22.8125,-10.18007 -22.8125,-22.78125 0,-12.60118 10.21132,-22.8125 22.8125,-22.8125 z"
   id="circle17"
   style="font-size:medium;font-style:normal;font-variant:normal;font-weight:normal;font-stretch:normal;text-indent:0;text-align:start;text-decoration:none;line-height:normal;letter-spacing:normal;word-spacing:normal;text-transform:none;direction:ltr;block-progression:tb;writing-mode:lr-tb;text-anchor:start;baseline-shift:baseline;color:#000000;fill:#f4f4f4;fill-opacity:1;stroke:none;stroke-width:2;marker:none;visibility:visible;display:inline;overflow:visible;enable-background:accumulate;font-family:Sans;-inkscape-font-specification:Sans" />
<path
   d="m 229.40625,207.28125 c -27.99175,0 -50.71875,22.727 -50.71875,50.71875 0,27.99175 22.727,50.6875 50.71875,50.6875 27.99175,0 50.6875,-22.69575 50.6875,-50.6875 0,-27.99175 -22.69575,-50.71875 -50.6875,-50.71875 z m 0,2 c 26.91087,0 48.6875,21.80788 48.6875,48.71875 0,26.91087 -21.77663,48.6875 -48.6875,48.6875 -26.91087,0 -48.71875,-21.77663 -48.71875,-48.6875 0,-26.91087 21.80788,-48.71875 48.71875,-48.71875 z"
   id="circle19"
   style="font-size:medium;font-style:normal;font-variant:normal;font-weight:normal;font-stretch:normal;text-indent:0;text-align:start;text-decoration:none;line-height:normal;letter-spacing:normal;word-spacing:normal;text-transform:none;direction:ltr;block-progression:tb;writing-mode:lr-tb;text-anchor:start;baseline-shift:baseline;color:#000000;fill:#f4f4f4;fill-opacity:1;stroke:none;stroke-width:2;marker:none;visibility:visible;display:inline;overflow:visible;enable-background:accumulate;font-family:Sans;-inkscape-font-specification:Sans" />
<path
   d="m 229.40625,145.8125 c -10.32361,0 -18.71875,8.39514 -18.71875,18.71875 0,10.32361 8.39514,18.71875 18.71875,18.71875 10.32361,0 18.71875,-8.39514 18.71875,-18.71875 0,-10.32361 -8.39514,-18.71875 -18.71875,-18.71875 z m 0,2 c 9.24273,0 16.71875,7.47602 16.71875,16.71875 0,9.24273 -7.47602,16.71875 -16.71875,16.71875 -9.24273,0 -16.71875,-7.47602 -16.71875,-16.71875 0,-9.24273 7.47602,-16.71875 16.71875,-16.71875 z"
   id="circle21"
   style="font-size:medium;font-style:normal;font-variant:normal;font-weight:normal;font-stretch:normal;text-indent:0;text-align:start;text-decoration:none;line-height:normal;letter-spacing:normal;word-spacing:normal;text-transform:none;direction:ltr;block-progression:tb;writing-mode:lr-tb;text-anchor:start;baseline-shift:baseline;color:#000000;fill:#f4f4f4;fill-opacity:1;stroke:none;stroke-width:2;marker:none;visibility:visible;display:inline;overflow:visible;enable-background:accumulate;font-family:Sans;-inkscape-font-specification:Sans" />
<path
   d="m 326.40625,143.3125 c -11.34589,0 -20.5625,9.21661 -20.5625,20.5625 0,11.34589 9.21661,20.5625 20.5625,20.5625 11.34589,0 20.5625,-9.21661 20.5625,-20.5625 0,-11.34589 -9.21661,-20.5625 -20.5625,-20.5625 z m 0,2 c 10.26501,0 18.5625,8.29749 18.5625,18.5625 0,10.26501 -8.29749,18.5625 -18.5625,18.5625 -10.26501,0 -18.5625,-8.29749 -18.5625,-18.5625 0,-10.26501 8.29749,-18.5625 18.5625,-18.5625 z"
   id="circle23"
   style="font-size:medium;font-style:normal;font-variant:normal;font-weight:normal;font-stretch:normal;text-indent:0;text-align:start;text-decoration:none;line-height:normal;letter-spacing:normal;word-spacing:normal;text-transform:none;direction:ltr;block-progression:tb;writing-mode:lr-tb;text-anchor:start;baseline-shift:baseline;color:#000000;fill:#f4f4f4;fill-opacity:1;stroke:none;stroke-width:2;marker:none;visibility:visible;display:inline;overflow:visible;enable-background:accumulate;font-family:Sans;-inkscape-font-specification:Sans" />
<path
   d="m 360.25,176.625 c -11.34589,0 -20.5625,9.21661 -20.5625,20.5625 0,11.34589 9.21661,20.5625 20.5625,20.5625 11.34589,0 20.5625,-9.21661 20.5625,-20.5625 0,-11.34589 -9.21661,-20.5625 -20.5625,-20.5625 z m 0,2 c 10.26501,0 18.5625,8.29749 18.5625,18.5625 0,10.26501 -8.29749,18.5625 -18.5625,18.5625 -10.26501,0 -18.5625,-8.29749 -18.5625,-18.5625 0,-10.26501 8.29749,-18.5625 18.5625,-18.5625 z"
   id="circle25"
   style="font-size:medium;font-style:normal;font-variant:normal;font-weight:normal;font-stretch:normal;text-indent:0;text-align:start;text-decoration:none;line-height:normal;letter-spacing:normal;word-spacing:normal;text-transform:none;direction:ltr;block-progression:tb;writing-mode:lr-tb;text-anchor:start;baseline-shift:baseline;color:#000000;fill:#f4f4f4;fill-opacity:1;stroke:none;stroke-width:2;marker:none;visibility:visible;display:inline;overflow:visible;enable-background:accumulate;font-family:Sans;-inkscape-font-specification:Sans" />
<path
   d="m 74.4375,108.40625 c -3.753305,0 -6.8125,3.06023 -6.8125,6.8125 l 0,15.5 c 0,0.91997 -0.121525,1.51705 -0.3125,1.78125 -0.190975,0.2642 -0.513315,0.5 -1.65625,0.5 l -15.8125,0 c -3.753305,0 -6.8125,3.06003 -6.8125,6.8125 l 0,20.625 c 0,3.75247 3.059195,6.8125 6.8125,6.8125 l 15.59375,0 c 0.761339,4e-4 1.291633,0.18138 1.625,0.5 0.333367,0.31862 0.5625,0.8185 0.5625,1.6875 l 0,15.59375 c 0,3.75227 3.059195,6.8125 6.8125,6.8125 l 20.625,0 c 3.752473,0 6.8125,-3.06003 6.8125,-6.8125 l 0,-15.625 c 0,-1.17596 0.24783,-1.60129 0.5,-1.8125 0.25217,-0.21121 0.76764,-0.34375 1.59375,-0.34375 l 15.6875,0 c 3.75247,0 6.8125,-3.06003 6.8125,-6.8125 l 0,-20.625 c 0,-3.75247 -3.06003,-6.8125 -6.8125,-6.8125 L 104,133 c -1.20229,0 -2.125,-0.76885 -2.125,-2.1875 l 0,-15.59375 c 0,-3.75247 -3.060027,-6.8125 -6.8125,-6.8125 l -20.625,0 z m 0,2 20.625,0 c 2.671527,0 4.8125,2.14097 4.8125,4.8125 l 0,15.59375 c 0,2.41535 1.93529,4.1875 4.125,4.1875 l 15.65625,0 c 2.67153,0 4.8125,2.14097 4.8125,4.8125 l 0,20.625 c 0,2.67153 -2.14097,4.8125 -4.8125,4.8125 l -15.6875,0 c -1.00289,0 -2.04192,0.11471 -2.875,0.8125 -0.83308,0.69779 -1.21875,1.85371 -1.21875,3.34375 l 0,15.625 c 0,2.67153 -2.140973,4.8125 -4.8125,4.8125 l -20.625,0 c -2.672695,0 -4.8125,-2.14077 -4.8125,-4.8125 l 0,-15.59375 c 0,-1.268 -0.407617,-2.37962 -1.1875,-3.125 -0.779883,-0.74538 -1.866339,-1.0619 -3,-1.0625 l -15.59375,0 c -2.672695,0 -4.8125,-2.14097 -4.8125,-4.8125 l 0,-20.625 c 0,-2.67153 2.139805,-4.8125 4.8125,-4.8125 l 15.8125,0 c 1.479065,0 2.640225,-0.45695 3.28125,-1.34375 0.641025,-0.8868 0.6875,-1.89747 0.6875,-2.9375 l 0,-15.5 c 0,-2.67173 2.139805,-4.8125 4.8125,-4.8125 z"
   id="path27"
   style="font-size:medium;font-style:normal;font-variant:normal;font-weight:normal;font-stretch:normal;text-indent:0;text-align:start;text-decoration:none;line-height:normal;letter-spacing:normal;word-spacing:normal;text-transform:none;direction:ltr;block-progression:tb;writing-mode:lr-tb;text-anchor:start;baseline-shift:baseline;color:#000000;fill:#f4f4f4;fill-opacity:1;stroke:none;stroke-width:2;marker:none;visibility:visible;display:inline;overflow:visible;enable-background:accumulate;font-family:Sans;-inkscape-font-specification:Sans" />
<path
   d="m 75.8125,111.65625 c -3.329218,0 -6.0625,2.73409 -6.0625,6.0625 l 0,15.5625 c 0,0.79054 -0.113947,1.28045 -0.25,1.46875 -0.136053,0.1883 -0.373881,0.375 -1.34375,0.375 l -15.8125,0 c -3.328411,0 -6.0625,2.70284 -6.0625,6.03125 l 0,17.90625 c 0,3.32841 2.734089,6.0625 6.0625,6.0625 l 15.65625,0 c 0.636279,0 1.053275,0.15837 1.3125,0.40625 0.259225,0.24788 0.4375,0.61596 0.4375,1.34375 l 0,15.65625 c 0,3.32922 2.733282,6.03125 6.0625,6.03125 l 17.875,0 c 3.328411,0 6.0625,-2.70203 6.0625,-6.03125 l 0,-15.6875 c 0,-0.99998 0.194484,-1.31755 0.375,-1.46875 0.18052,-0.1512 0.60687,-0.25 1.3125,-0.25 l 15.71875,0 c 3.32922,0 6.0625,-2.73409 6.0625,-6.0625 l 0,-17.90625 c 0,-3.32841 -2.73328,-6.03125 -6.0625,-6.03125 l -15.6875,0 c -0.97834,0 -1.71875,-0.5844 -1.71875,-1.75 l 0,-15.65625 c 0,-3.32922 -2.734328,-6.0625 -6.0625,-6.0625 l -17.875,0 z m 0,2 17.875,0 c 2.247828,0 4.0625,1.81372 4.0625,4.0625 l 0,15.65625 c 0,2.1624 1.753091,3.75 3.71875,3.75 l 15.6875,0 c 2.24878,0 4.0625,1.78366 4.0625,4.03125 l 0,17.90625 c 0,2.24759 -1.81372,4.0625 -4.0625,4.0625 l -15.71875,0 c -0.88237,0 -1.832266,0.081 -2.59375,0.71875 -0.761484,0.6378 -1.09375,1.68598 -1.09375,3 l 0,15.6875 c 0,2.24878 -1.814911,4.03125 -4.0625,4.03125 l -17.875,0 c -2.248782,0 -4.0625,-1.78247 -4.0625,-4.03125 l 0,-15.65625 c 0,-1.12621 -0.356475,-2.10613 -1.0625,-2.78125 C 69.981475,163.41863 69.008721,163.125 68,163.125 l -15.65625,0 c -2.247589,0 -4.0625,-1.81491 -4.0625,-4.0625 l 0,-17.90625 c 0,-2.24759 1.814911,-4.03125 4.0625,-4.03125 l 15.8125,0 c 1.306131,0 2.382803,-0.4078 2.96875,-1.21875 0.585947,-0.81095 0.625,-1.71454 0.625,-2.625 l 0,-15.5625 c 0,-2.24759 1.813718,-4.0625 4.0625,-4.0625 z"
   id="path29"
   style="font-size:medium;font-style:normal;font-variant:normal;font-weight:normal;font-stretch:normal;text-indent:0;text-align:start;text-decoration:none;line-height:normal;letter-spacing:normal;word-spacing:normal;text-transform:none;direction:ltr;block-progression:tb;writing-mode:lr-tb;text-anchor:start;baseline-shift:baseline;color:#000000;fill:#f4f4f4;fill-opacity:1;stroke:none;stroke-width:2;marker:none;visibility:visible;display:inline;overflow:visible;enable-background:accumulate;font-family:Sans;-inkscape-font-specification:Sans" />
<path
   d="m 104.125,141.09375 c -1.56277,0 -2.84375,1.28163 -2.84375,2.84375 l 0,12.34375 c 0,1.56212 1.28098,2.875 2.84375,2.875 0.56121,0 1.08588,-0.18246 1.53125,-0.46875 0.0109,-0.007 0.0205,-0.0241 0.0312,-0.0312 l 0.0312,0 10.125,-6.125 0.0312,0 c 0.81018,-0.50308 1.34375,-1.39232 1.34375,-2.40625 0,-1.07472 -0.60897,-2.0165 -1.5,-2.5 l -0.0312,-0.0312 -10,-6.03125 c -0.008,-0.006 -0.0229,0.005 -0.0312,0 -0.44723,-0.29281 -0.95971,-0.46875 -1.53125,-0.46875 z m 0,2 c 0.17978,0 0.33275,0.0339 0.46875,0.125 l 0,0.0312 0.0312,0 10.0625,6.09375 0.0312,0 0.0312,0.0312 c 0.27101,0.14146 0.46875,0.41475 0.46875,0.75 0,0.31207 -0.16643,0.56983 -0.40625,0.71875 l -10.1875,6.125 0,0.0312 -0.0312,0 c -0.13349,0.0905 -0.28614,0.15625 -0.46875,0.15625 -0.48123,0 -0.84375,-0.39312 -0.84375,-0.875 l 0,-12.34375 c 0,-0.48188 0.36252,-0.84375 0.84375,-0.84375 z"
   id="path31"
   style="font-size:medium;font-style:normal;font-variant:normal;font-weight:normal;font-stretch:normal;text-indent:0;text-align:start;text-decoration:none;line-height:normal;letter-spacing:normal;word-spacing:normal;text-transform:none;direction:ltr;block-progression:tb;writing-mode:lr-tb;text-anchor:start;baseline-shift:baseline;color:#000000;fill:#f4f4f4;fill-opacity:1;stroke:none;stroke-width:2;marker:none;visibility:visible;display:inline;overflow:visible;enable-background:accumulate;font-family:Sans;-inkscape-font-specification:Sans" />
<path
   d="m 84.75,141.4375 c -4.774807,0 -8.65625,3.91269 -8.65625,8.6875 0,4.77481 3.881443,8.65625 8.65625,8.65625 4.774807,0 8.65625,-3.88144 8.65625,-8.65625 0,-4.77481 -3.881443,-8.6875 -8.65625,-8.6875 z m 0,2 c 3.693927,0 6.65625,2.99357 6.65625,6.6875 0,3.69393 -2.962323,6.65625 -6.65625,6.65625 -3.693927,0 -6.65625,-2.96232 -6.65625,-6.65625 0,-3.69393 2.962323,-6.6875 6.65625,-6.6875 z"
   id="circle33"
   style="font-size:medium;font-style:normal;font-variant:normal;font-weight:normal;font-stretch:normal;text-indent:0;text-align:start;text-decoration:none;line-height:normal;letter-spacing:normal;word-spacing:normal;text-transform:none;direction:ltr;block-progression:tb;writing-mode:lr-tb;text-anchor:start;baseline-shift:baseline;color:#000000;fill:#f4f4f4;fill-opacity:1;stroke:none;stroke-width:2;marker:none;visibility:visible;display:inline;overflow:visible;enable-background:accumulate;font-family:Sans;-inkscape-font-specification:Sans" />
<path
   d="m 84.75,117.65625 c -1.059648,0 -1.979428,0.59956 -2.46875,1.46875 -0.01458,0.0259 -0.04873,0.0361 -0.0625,0.0625 l -6,10 -0.03125,-0.0312 c -0.01086,0.0163 0.01053,0.046 0,0.0625 -0.281328,0.44164 -0.46875,0.97004 -0.46875,1.53125 0,1.56212 1.280509,2.84375 2.84375,2.84375 l 12.375,0 c 1.563241,0 2.84375,-1.28098 2.84375,-2.84375 0,-0.57618 -0.201382,-1.11194 -0.5,-1.5625 l 0,-0.0312 L 87.1875,119 l -0.03125,0 c -0.502771,-0.80566 -1.390844,-1.34375 -2.40625,-1.34375 z m 0,2 c 0.312594,0 0.567521,0.16391 0.71875,0.40625 l 6.125,10.15625 0.03125,0.0312 0,0.0312 c 0.09137,0.13477 0.15625,0.28941 0.15625,0.46875 0,0.48123 -0.360991,0.84375 -0.84375,0.84375 l -12.375,0 c -0.482759,0 -0.84375,-0.36187 -0.84375,-0.84375 0,-0.17978 0.06504,-0.33193 0.15625,-0.46875 l 0,-0.0312 6.09375,-10.09375 0,-0.0312 0.03125,0 c 0.141866,-0.2718 0.413218,-0.46875 0.75,-0.46875 z"
   id="path35"
   style="font-size:medium;font-style:normal;font-variant:normal;font-weight:normal;font-stretch:normal;text-indent:0;text-align:start;text-decoration:none;line-height:normal;letter-spacing:normal;word-spacing:normal;text-transform:none;direction:ltr;block-progression:tb;writing-mode:lr-tb;text-anchor:start;baseline-shift:baseline;color:#000000;fill:#f4f4f4;fill-opacity:1;stroke:none;stroke-width:2;marker:none;visibility:visible;display:inline;overflow:visible;enable-background:accumulate;font-family:Sans;-inkscape-font-specification:Sans" />
<path
   d="m 65.375,141.09375 c -0.562817,0 -1.087848,0.15236 -1.53125,0.4375 l -0.0625,0.0312 -10.125,6.125 -0.03125,0 c -0.807687,0.50249 -1.34375,1.42209 -1.34375,2.4375 0,1.0761 0.61005,2.01712 1.5,2.5 l 0.03125,0.0312 10,6 0.03125,0.0312 0,-0.0312 c 0.448532,0.29368 0.961306,0.5 1.53125,0.5 1.56277,0 2.875,-1.31223 2.875,-2.875 l 0,-12.34375 c 0,-1.56389 -1.313354,-2.84375 -2.875,-2.84375 z m 0,2 c 0.480354,0 0.875,0.36164 0.875,0.84375 l 0,12.34375 c 0,0.48123 -0.39377,0.875 -0.875,0.875 -0.181525,0 -0.334051,-0.066 -0.46875,-0.15625 l -0.03125,-0.0312 -10.0625,-6.0625 -0.03125,-0.0312 -0.03125,0 c -0.272205,-0.14208 -0.46875,-0.41415 -0.46875,-0.75 0,-0.31259 0.165937,-0.56924 0.40625,-0.71875 L 64.875,143.25 l 0.03125,-0.0312 c 0.135638,-0.092 0.287875,-0.125 0.46875,-0.125 z"
   id="path37"
   style="font-size:medium;font-style:normal;font-variant:normal;font-weight:normal;font-stretch:normal;text-indent:0;text-align:start;text-decoration:none;line-height:normal;letter-spacing:normal;word-spacing:normal;text-transform:none;direction:ltr;block-progression:tb;writing-mode:lr-tb;text-anchor:start;baseline-shift:baseline;color:#000000;fill:#f4f4f4;fill-opacity:1;stroke:none;stroke-width:2;marker:none;visibility:visible;display:inline;overflow:visible;enable-background:accumulate;font-family:Sans;-inkscape-font-specification:Sans" />
<path
   d="m 78.5625,166.625 c -1.563241,0 -2.84375,1.28163 -2.84375,2.84375 0,0.5612 0.182041,1.11696 0.46875,1.5625 l 0.03125,0.0625 6.09375,10.125 0.03125,0 c 0.502602,0.8094 1.391848,1.34375 2.40625,1.34375 1.059648,0 1.979428,-0.59956 2.46875,-1.46875 l 0.03125,0 c 0.01095,-0.0198 0.02077,-0.0424 0.03125,-0.0625 l 6.03125,-9.96875 0,-0.0312 c 0.292976,-0.44729 0.46875,-0.99124 0.46875,-1.5625 0,-1.56342 -1.28098,-2.84375 -2.84375,-2.84375 l -12.375,0 z m 0,2 12.375,0 c 0.48123,0 0.84375,0.36317 0.84375,0.84375 0,0.17825 -0.06512,0.364 -0.15625,0.5 l 0,0.0312 -6.09375,10.0625 0,0.0312 L 85.5,180.125 c -0.141866,0.2718 -0.413218,0.4375 -0.75,0.4375 -0.313598,0 -0.569352,-0.1344 -0.71875,-0.375 L 77.90625,170 77.875,169.96875 c -0.0905,-0.13349 -0.15625,-0.31891 -0.15625,-0.5 0,-0.48188 0.360991,-0.84375 0.84375,-0.84375 z"
   id="path39"
   style="font-size:medium;font-style:normal;font-variant:normal;font-weight:normal;font-stretch:normal;text-indent:0;text-align:start;text-decoration:none;line-height:normal;letter-spacing:normal;word-spacing:normal;text-transform:none;direction:ltr;block-progression:tb;writing-mode:lr-tb;text-anchor:start;baseline-shift:baseline;color:#000000;fill:#f4f4f4;fill-opacity:1;stroke:none;stroke-width:2;marker:none;visibility:visible;display:inline;overflow:visible;enable-background:accumulate;font-family:Sans;-inkscape-font-specification:Sans" />
<path
   d="m 227.5,226.75 -0.28125,0.0937 -22.40625,8.5625 -0.5,0.1875 -0.125,0.5 -5.96875,23.46875 -0.0625,0.3125 0.0937,0.3125 8.5625,22.40625 0.1875,0.46875 0.5,0.125 23.5,5.96875 0.28125,0.0625 0.3125,-0.0937 22.40625,-8.5625 0.46875,-0.1875 0.125,-0.5 5.96875,-23.46875 0.0937,-0.3125 -0.125,-0.3125 -8.5625,-22.375 -0.1875,-0.5 -0.5,-0.125 L 227.8125,226.8125 227.5,226.75 z m 0.125,2.09375 22.65625,5.75 8.25,21.625 -5.75,22.65625 -21.625,8.25 -22.65625,-5.75 -8.25,-21.625 5.75,-22.65625 21.625,-8.25 z"
   id="polygon41"
   style="font-size:medium;font-style:normal;font-variant:normal;font-weight:normal;font-stretch:normal;text-indent:0;text-align:start;text-decoration:none;line-height:normal;letter-spacing:normal;word-spacing:normal;text-transform:none;direction:ltr;block-progression:tb;writing-mode:lr-tb;text-anchor:start;baseline-shift:baseline;color:#000000;fill:#f4f4f4;fill-opacity:1;stroke:none;stroke-width:2;marker:none;visibility:visible;display:inline;overflow:visible;enable-background:accumulate;font-family:Sans;-inkscape-font-specification:Sans" />
<path
   d="m 229.40625,233.90625 c -13.2927,0 -24.09375,10.80105 -24.09375,24.09375 0,13.2927 10.80105,24.0625 24.09375,24.0625 13.2927,0 24.09375,-10.7698 24.09375,-24.0625 0,-13.2927 -10.80105,-24.09375 -24.09375,-24.09375 z m 0,2 c 12.21181,0 22.09375,9.88194 22.09375,22.09375 0,12.21181 -9.88194,22.0625 -22.09375,22.0625 -12.21181,0 -22.09375,-9.85069 -22.09375,-22.0625 0,-12.21181 9.88194,-22.09375 22.09375,-22.09375 z"
   id="circle43"
   style="font-size:medium;font-style:normal;font-variant:normal;font-weight:normal;font-stretch:normal;text-indent:0;text-align:start;text-decoration:none;line-height:normal;letter-spacing:normal;word-spacing:normal;text-transform:none;direction:ltr;block-progression:tb;writing-mode:lr-tb;text-anchor:start;baseline-shift:baseline;color:#000000;fill:#f4f4f4;fill-opacity:1;stroke:none;stroke-width:2;marker:none;visibility:visible;display:inline;overflow:visible;enable-background:accumulate;font-family:Sans;-inkscape-font-specification:Sans" />
<path
   d="m 338.84375,178.875 -1.34375,1.4375 6.1875,5.84375 1.375,-1.46875 -6.21875,-5.8125 z"
   id="line45"
   style="font-size:medium;font-style:normal;font-variant:normal;font-weight:normal;font-stretch:normal;text-indent:0;text-align:start;text-decoration:none;line-height:normal;letter-spacing:normal;word-spacing:normal;text-transform:none;direction:ltr;block-progression:tb;writing-mode:lr-tb;text-anchor:start;baseline-shift:baseline;color:#000000;fill:#f4f4f4;fill-opacity:1;stroke:none;stroke-width:2;marker:none;visibility:visible;display:inline;overflow:visible;enable-background:accumulate;font-family:Sans;-inkscape-font-specification:Sans" />
<path
   d="m 343.21875,174.09375 -1.375,1.46875 6.21875,5.8125 1.375,-1.4375 -6.21875,-5.84375 z"
   id="line47"
   style="font-size:medium;font-style:normal;font-variant:normal;font-weight:normal;font-stretch:normal;text-indent:0;text-align:start;text-decoration:none;line-height:normal;letter-spacing:normal;word-spacing:normal;text-transform:none;direction:ltr;block-progression:tb;writing-mode:lr-tb;text-anchor:start;baseline-shift:baseline;color:#000000;fill:#f4f4f4;fill-opacity:1;stroke:none;stroke-width:2;marker:none;visibility:visible;display:inline;overflow:visible;enable-background:accumulate;font-family:Sans;-inkscape-font-specification:Sans" />
<g
   id="g49">
	<path
   d="m 369.90625,123.1875 c -0.56282,0 -1.08862,0.15284 -1.53125,0.4375 l -0.0625,0.0312 -10.125,6.125 -0.0312,0 c -0.80644,0.50326 -1.34375,1.39084 -1.34375,2.40625 0,1.07518 0.61075,2.01668 1.5,2.5 l 0.0312,0.0312 10,6.03125 0.0312,0.0312 0,-0.0312 c 0.4464,0.29083 0.96017,0.46875 1.53125,0.46875 1.56259,0 2.875,-1.28051 2.875,-2.84375 l 0,-12.34375 c 0,-1.56342 -1.31223,-2.84375 -2.875,-2.84375 z m 0,2 c 0.48123,0 0.875,0.36317 0.875,0.84375 l 0,12.34375 c 0,0.48276 -0.39159,0.84375 -0.875,0.84375 -0.17825,0 -0.33193,-0.0338 -0.46875,-0.125 l 0,-0.0312 -0.0312,0 -10.0625,-6.0625 -0.0312,-0.0312 -0.0312,0 c -0.27088,-0.14163 -0.46875,-0.44447 -0.46875,-0.78125 0,-0.30229 0.17782,-0.53474 0.40625,-0.6875 l 10.1875,-6.15625 0.0312,0 0,-0.0312 c 0.13651,-0.0926 0.28787,-0.125 0.46875,-0.125 z"
   id="path51"
   style="font-size:medium;font-style:normal;font-variant:normal;font-weight:normal;font-stretch:normal;text-indent:0;text-align:start;text-decoration:none;line-height:normal;letter-spacing:normal;word-spacing:normal;text-transform:none;direction:ltr;block-progression:tb;writing-mode:lr-tb;text-anchor:start;baseline-shift:baseline;color:#000000;fill:#f4f4f4;fill-opacity:1;stroke:none;stroke-width:2;marker:none;visibility:visible;display:inline;overflow:visible;enable-background:accumulate;font-family:Sans;-inkscape-font-specification:Sans" />
	<path
   d="m 366.375,116.59375 c -8.60766,0 -15.59375,7.01734 -15.59375,15.625 0,8.60766 6.98609,15.59375 15.59375,15.59375 8.60766,0 15.625,-6.98609 15.625,-15.59375 0,-8.60766 -7.01734,-15.625 -15.625,-15.625 z m 0,2 c 7.52678,0 13.625,6.09822 13.625,13.625 0,7.52678 -6.09822,13.59375 -13.625,13.59375 -7.52678,0 -13.59375,-6.06697 -13.59375,-13.59375 0,-7.52678 6.06697,-13.625 13.59375,-13.625 z"
   id="circle53"
   style="font-size:medium;font-style:normal;font-variant:normal;font-weight:normal;font-stretch:normal;text-indent:0;text-align:start;text-decoration:none;line-height:normal;letter-spacing:normal;word-spacing:normal;text-transform:none;direction:ltr;block-progression:tb;writing-mode:lr-tb;text-anchor:start;baseline-shift:baseline;color:#000000;fill:#f4f4f4;fill-opacity:1;stroke:none;stroke-width:2;marker:none;visibility:visible;display:inline;overflow:visible;enable-background:accumulate;font-family:Sans;-inkscape-font-specification:Sans" />
	<path
   d="m 421.8125,123.1875 c -1.56324,0 -2.875,1.28163 -2.875,2.84375 l 0,12.34375 c 0,1.56324 1.31288,2.84375 2.875,2.84375 0.56115,0 1.08591,-0.15127 1.53125,-0.4375 0.0109,-0.007 0.0205,-0.0241 0.0312,-0.0312 l 0.0312,0 10.125,-6.125 0.0312,0 c 0.80942,-0.50203 1.34375,-1.39185 1.34375,-2.40625 0,-1.07473 -0.61017,-2.01641 -1.5,-2.5 l -0.0312,-0.0312 -10,-6.03125 c -0.008,-0.006 -0.0229,0.005 -0.0312,0 -0.44713,-0.2918 -0.96017,-0.46875 -1.53125,-0.46875 z m 0,2 c 0.17825,0 0.33067,0.0328 0.46875,0.125 l 0,0.0312 0.0312,0 10.0625,6.0625 0.0312,0.0312 0.0312,0 c 0.27428,0.14338 0.46875,0.44201 0.46875,0.78125 0,0.30326 -0.18053,0.53735 -0.40625,0.6875 l -10.1875,6.15625 -0.0312,0.0312 c -0.13349,0.0905 -0.28614,0.125 -0.46875,0.125 -0.48188,0 -0.875,-0.36099 -0.875,-0.84375 l 0,-12.34375 c 0,-0.48188 0.39224,-0.84375 0.875,-0.84375 z"
   id="path55"
   style="font-size:medium;font-style:normal;font-variant:normal;font-weight:normal;font-stretch:normal;text-indent:0;text-align:start;text-decoration:none;line-height:normal;letter-spacing:normal;word-spacing:normal;text-transform:none;direction:ltr;block-progression:tb;writing-mode:lr-tb;text-anchor:start;baseline-shift:baseline;color:#000000;fill:#f4f4f4;fill-opacity:1;stroke:none;stroke-width:2;marker:none;visibility:visible;display:inline;overflow:visible;enable-background:accumulate;font-family:Sans;-inkscape-font-specification:Sans" />
	<path
   d="m 425.34375,116.59375 c -8.60766,0 -15.625,7.01734 -15.625,15.625 0,8.60766 7.01734,15.59375 15.625,15.59375 8.60766,0 15.59375,-6.98609 15.59375,-15.59375 0,-8.60766 -6.98609,-15.625 -15.59375,-15.625 z m 0,2 c 7.52678,0 13.59375,6.09822 13.59375,13.625 0,7.52678 -6.06697,13.59375 -13.59375,13.59375 -7.52678,0 -13.625,-6.06697 -13.625,-13.59375 0,-7.52678 6.09822,-13.625 13.625,-13.625 z"
   id="circle57"
   style="font-size:medium;font-style:normal;font-variant:normal;font-weight:normal;font-stretch:normal;text-indent:0;text-align:start;text-decoration:none;line-height:normal;letter-spacing:normal;word-spacing:normal;text-transform:none;direction:ltr;block-progression:tb;writing-mode:lr-tb;text-anchor:start;baseline-shift:baseline;color:#000000;fill:#f4f4f4;fill-opacity:1;stroke:none;stroke-width:2;marker:none;visibility:visible;display:inline;overflow:visible;enable-background:accumulate;font-family:Sans;-inkscape-font-specification:Sans" />
</g>
<g
   id="g59">
	<path
   d="m 395.875,93.15625 c -1.01487,0 -1.93462,0.536366 -2.4375,1.34375 l 0,0.03125 -6.125,10.125 c -0.006,0.008 0.005,0.023 0,0.0312 l -0.0312,0.0312 c -0.28438,0.44455 -0.4375,0.9701 -0.4375,1.53125 0,1.56212 1.28004,2.875 2.84375,2.875 l 12.34375,0 c 1.56277,0 2.875,-1.31158 2.875,-2.875 0,-0.5712 -0.20456,-1.08235 -0.5,-1.53125 l 0,-0.0312 -6.03125,-10 c -0.007,-0.01339 -0.024,-0.01799 -0.0312,-0.03125 -0.4833,-0.889247 -1.39403,-1.5 -2.46875,-1.5 z m 0,2 c 0.33525,0 0.60837,0.197867 0.75,0.46875 l 0,0.03125 0.0312,0.03125 6.0625,10.0625 0.0312,0.0312 c 0.0905,0.13432 0.15625,0.2905 0.15625,0.46875 0,0.48058 -0.39377,0.875 -0.875,0.875 l -12.34375,0 c -0.48429,0 -0.84375,-0.39312 -0.84375,-0.875 0,-0.18261 0.0344,-0.33447 0.125,-0.46875 L 389,105.75 395.15625,95.5625 c 0.15286,-0.229576 0.41378,-0.40625 0.71875,-0.40625 z"
   id="path61"
   style="font-size:medium;font-style:normal;font-variant:normal;font-weight:normal;font-stretch:normal;text-indent:0;text-align:start;text-decoration:none;line-height:normal;letter-spacing:normal;word-spacing:normal;text-transform:none;direction:ltr;block-progression:tb;writing-mode:lr-tb;text-anchor:start;baseline-shift:baseline;color:#000000;fill:#f4f4f4;fill-opacity:1;stroke:none;stroke-width:2;marker:none;visibility:visible;display:inline;overflow:visible;enable-background:accumulate;font-family:Sans;-inkscape-font-specification:Sans" />
	<path
   d="m 395.875,87.125 c -8.60822,0 -15.625,6.985534 -15.625,15.59375 0,8.60822 7.01678,15.625 15.625,15.625 8.60822,0 15.59375,-7.01678 15.59375,-15.625 0,-8.608216 -6.98553,-15.59375 -15.59375,-15.59375 z m 0,2 c 7.52734,0 13.59375,6.066415 13.59375,13.59375 0,7.52734 -6.06641,13.625 -13.59375,13.625 -7.52734,0 -13.625,-6.09766 -13.625,-13.625 0,-7.527335 6.09766,-13.59375 13.625,-13.59375 z"
   id="circle63"
   style="font-size:medium;font-style:normal;font-variant:normal;font-weight:normal;font-stretch:normal;text-indent:0;text-align:start;text-decoration:none;line-height:normal;letter-spacing:normal;word-spacing:normal;text-transform:none;direction:ltr;block-progression:tb;writing-mode:lr-tb;text-anchor:start;baseline-shift:baseline;color:#000000;fill:#f4f4f4;fill-opacity:1;stroke:none;stroke-width:2;marker:none;visibility:visible;display:inline;overflow:visible;enable-background:accumulate;font-family:Sans;-inkscape-font-specification:Sans" />
	<path
   d="m 389.6875,155.28125 c -1.56259,0 -2.84375,1.31176 -2.84375,2.875 0,0.56936 0.17362,1.08187 0.46875,1.53125 l -0.0312,0 0.0312,0.0312 6.03125,10 0.0312,0.0312 c 0.4842,0.88951 1.42527,1.5 2.5,1.5 1.01393,0 1.90337,-0.53637 2.40625,-1.34375 l 0,-0.0312 6.125,-10.125 0,-0.0312 c 0.007,-0.0107 0.0243,-0.0204 0.0312,-0.0312 0.28457,-0.44227 0.46875,-0.96671 0.46875,-1.53125 0,-1.56277 -1.31176,-2.875 -2.875,-2.875 l -12.34375,0 z m 0,2 12.34375,0 c 0.48276,0 0.875,0.39377 0.875,0.875 0,0.17914 -0.0634,0.33183 -0.15625,0.46875 l -0.0312,0.0312 -6.15625,10.1875 c -0.15295,0.22928 -0.38571,0.40625 -0.6875,0.40625 -0.33924,0 -0.63851,-0.19616 -0.78125,-0.46875 l 0,-0.0312 -0.0312,-0.0312 -6.0625,-10.0625 -0.0312,-0.0312 c -0.0886,-0.13174 -0.125,-0.28875 -0.125,-0.46875 0,-0.48276 0.36034,-0.875 0.84375,-0.875 z"
   id="path65"
   style="font-size:medium;font-style:normal;font-variant:normal;font-weight:normal;font-stretch:normal;text-indent:0;text-align:start;text-decoration:none;line-height:normal;letter-spacing:normal;word-spacing:normal;text-transform:none;direction:ltr;block-progression:tb;writing-mode:lr-tb;text-anchor:start;baseline-shift:baseline;color:#000000;fill:#f4f4f4;fill-opacity:1;stroke:none;stroke-width:2;marker:none;visibility:visible;display:inline;overflow:visible;enable-background:accumulate;font-family:Sans;-inkscape-font-specification:Sans" />
	<path
   d="m 395.875,146.0625 c -8.60766,0 -15.625,7.01734 -15.625,15.625 0,8.60766 7.01734,15.59375 15.625,15.59375 8.60766,0 15.59375,-6.98609 15.59375,-15.59375 0,-8.60766 -6.98609,-15.625 -15.59375,-15.625 z m 0,2 c 7.52678,0 13.59375,6.09822 13.59375,13.625 0,7.52678 -6.06697,13.59375 -13.59375,13.59375 -7.52678,0 -13.625,-6.06697 -13.625,-13.59375 0,-7.52678 6.09822,-13.625 13.625,-13.625 z"
   id="circle67"
   style="font-size:medium;font-style:normal;font-variant:normal;font-weight:normal;font-stretch:normal;text-indent:0;text-align:start;text-decoration:none;line-height:normal;letter-spacing:normal;word-spacing:normal;text-transform:none;direction:ltr;block-progression:tb;writing-mode:lr-tb;text-anchor:start;baseline-shift:baseline;color:#000000;fill:#f4f4f4;fill-opacity:1;stroke:none;stroke-width:2;marker:none;visibility:visible;display:inline;overflow:visible;enable-background:accumulate;font-family:Sans;-inkscape-font-specification:Sans" />
</g>
<path
   d="m 381.09375,99 c -8.2564,3.67465 -14.8946,10.31872 -18.53125,18.59375 l 1.84375,0.8125 c 3.43535,-7.81697 9.7004,-14.1224 17.5,-17.59375 L 381.09375,99 z"
   id="path69"
   style="font-size:medium;font-style:normal;font-variant:normal;font-weight:normal;font-stretch:normal;text-indent:0;text-align:start;text-decoration:none;line-height:normal;letter-spacing:normal;word-spacing:normal;text-transform:none;direction:ltr;block-progression:tb;writing-mode:lr-tb;text-anchor:start;baseline-shift:baseline;color:#000000;fill:#f4f4f4;fill-opacity:1;stroke:none;stroke-width:2;marker:none;visibility:visible;display:inline;overflow:visible;enable-background:accumulate;font-family:Sans;-inkscape-font-specification:Sans" />
<path
   d="m 364.5,146.25 -1.8125,0.8125 c 3.65621,8.15576 10.21123,14.70409 18.375,18.34375 l 0.84375,-1.8125 C 374.19402,160.15541 367.95379,153.95424 364.5,146.25 z"
   id="path71"
   style="font-size:medium;font-style:normal;font-variant:normal;font-weight:normal;font-stretch:normal;text-indent:0;text-align:start;text-decoration:none;line-height:normal;letter-spacing:normal;word-spacing:normal;text-transform:none;direction:ltr;block-progression:tb;writing-mode:lr-tb;text-anchor:start;baseline-shift:baseline;color:#000000;fill:#f4f4f4;fill-opacity:1;stroke:none;stroke-width:2;marker:none;visibility:visible;display:inline;overflow:visible;enable-background:accumulate;font-family:Sans;-inkscape-font-specification:Sans" />
<path
   d="m 427.1875,146.25 c -3.43347,7.64419 -9.58137,13.80099 -17.21875,17.25 l 0.84375,1.84375 c 8.08462,-3.65099 14.58422,-10.18944 18.21875,-18.28125 L 427.1875,146.25 z"
   id="path73"
   style="font-size:medium;font-style:normal;font-variant:normal;font-weight:normal;font-stretch:normal;text-indent:0;text-align:start;text-decoration:none;line-height:normal;letter-spacing:normal;word-spacing:normal;text-transform:none;direction:ltr;block-progression:tb;writing-mode:lr-tb;text-anchor:start;baseline-shift:baseline;color:#000000;fill:#f4f4f4;fill-opacity:1;stroke:none;stroke-width:2;marker:none;visibility:visible;display:inline;overflow:visible;enable-background:accumulate;font-family:Sans;-inkscape-font-specification:Sans" />
<path
   d="m 410.8125,99.0625 -0.84375,1.84375 c 7.64407,3.45188 13.81846,9.62537 17.25,17.28125 l 1.8125,-0.84375 C 425.39879,109.23963 418.90443,102.71662 410.8125,99.0625 z"
   id="path75"
   style="font-size:medium;font-style:normal;font-variant:normal;font-weight:normal;font-stretch:normal;text-indent:0;text-align:start;text-decoration:none;line-height:normal;letter-spacing:normal;word-spacing:normal;text-transform:none;direction:ltr;block-progression:tb;writing-mode:lr-tb;text-anchor:start;baseline-shift:baseline;color:#000000;fill:#f4f4f4;fill-opacity:1;stroke:none;stroke-width:2;marker:none;visibility:visible;display:inline;overflow:visible;enable-background:accumulate;font-family:Sans;-inkscape-font-specification:Sans" />
</svg>