<?xml version="1.0" encoding="UTF-8" standalone="no"?>
<!-- Generator: Adobe Illustrator 13.0.0, SVG Export Plug-In . SVG Version: 6.00 Build 14948)  -->
<svg id="Layer_3" xmlns:rdf="http://www.w3.org/1999/02/22-rdf-syntax-ns#" xmlns="http://www.w3.org/2000/svg" xml:space="preserve" height="264.89px" viewBox="0 0 609.543 264.889" width="609.54px" version="1.2" y="0px" x="0px" xmlns:cc="http://creativecommons.org/ns#" xmlns:dc="http://purl.org/dc/elements/1.1/"><metadata id="metadata51"><rdf:RDF><cc:Work rdf:about=""><dc:format>image/svg+xml</dc:format><dc:type rdf:resource="http://purl.org/dc/dcmitype/StillImage"/><dc:title/></cc:Work></rdf:RDF></metadata>
<path id="path3" style="baseline-shift:baseline;block-progression:tb;color:#000000;direction:ltr;text-indent:0;text-align:start;enable-background:accumulate;text-transform:none;" fill="#f4f4f4" d="M8.25,0c-4.5415,0-8.25,3.7085-8.25,8.25v248.41c0,4.5415,3.7085,8.2188,8.25,8.2188h593.06c4.5415,0,8.2188-3.6774,8.2188-8.2188v-248.41c0-4.5414-3.68-8.25-8.22-8.25h-593.06zm0,2,593.06,0c3.4605,0,6.2188,2.7894,6.2188,6.25v248.41c0,3.4606-2.7583,6.2188-6.2188,6.2188h-593.06c-3.4605,0-6.25-2.76-6.25-6.22v-248.41c0-3.4605,2.7895-6.25,6.25-6.25z"/>
<path id="path5" style="baseline-shift:baseline;block-progression:tb;color:#000000;direction:ltr;text-indent:0;text-align:start;enable-background:accumulate;text-transform:none;" fill="#f4f4f4" d="m23.25,43.469c-2.8267,0-5.125,2.3288-5.125,5.1562v191.97c0,2.8264,2.2976,5.1562,5.125,5.1562h562.53c2.8267,0,5.125-2.3296,5.125-5.1562v-191.97c0-2.8274-2.2983-5.1562-5.125-5.1562h-562.53zm0,2,562.53,0c1.7453,0,3.125,1.4097,3.125,3.1562v191.97c0,1.7453-1.3797,3.1562-3.125,3.1562h-562.53c-1.7466,0-3.125-1.4106-3.125-3.1562v-191.97c0-1.7466,1.3797-3.1562,3.125-3.1562z"/>
<path id="path7" style="baseline-shift:baseline;block-progression:tb;color:#000000;direction:ltr;text-indent:0;text-align:start;enable-background:accumulate;text-transform:none;" fill="#f4f4f4" d="m208.66,155.25c-6.2574,0-11.344,5.0874-11.344,11.344v39.844c0,6.2565,5.0873,11.375,11.344,11.375h146.47c5.9038,0,10.594-4.6078,11.125-10.375h0.21875v-1-39.844c0-6.2565-5.0864-11.344-11.344-11.344h-146.47zm0,2,146.47,0c5.1766,0,9.3438,4.1682,9.3438,9.3438v38.844,1c0,5.1755-4.1671,9.375-9.3438,9.375h-146.47c-5.1755,0-9.3438-4.1995-9.3438-9.375v-39.844c0-5.1756,4.1671-9.3438,9.3438-9.3438z"/>
<path id="path9" style="baseline-shift:baseline;block-progression:tb;color:#000000;direction:ltr;text-indent:0;text-align:start;enable-background:accumulate;text-transform:none;" fill="#f4f4f4" d="m207.38,161.97c-2.5414,0-4.625,2.0843-4.625,4.625v39.844c0,2.5417,2.0843,4.625,4.625,4.625h149.03c2.5414,0,4.625-2.0836,4.625-4.625v-39.844c0-2.5407-2.0836-4.625-4.625-4.625h-149.03zm0,2,149.03,0c1.4606,0,2.625,1.1657,2.625,2.625v39.844c0,1.4606-1.1644,2.625-2.625,2.625h-149.03c-1.4593,0-2.625-1.1647-2.625-2.625v-39.844c0-1.4593,1.1644-2.625,2.625-2.625z"/>
<path id="path11" style="baseline-shift:baseline;block-progression:tb;color:#000000;direction:ltr;text-indent:0;text-align:start;enable-background:accumulate;text-transform:none;" fill="#f4f4f4" d="m205.56,117.47c-5.1125,0-9.2812,4.1677-9.2812,9.2812v12.438c0,5.1127,4.1687,9.25,9.2812,9.25h152.66c5.1143,0,9.2812-4.1376,9.2812-9.25v-12.438c0-5.1133-4.167-9.2812-9.2812-9.2812h-152.66zm0,2,152.66,0c4.0337,0,7.2812,3.2485,7.2812,7.2812v12.438c0,4.0316-3.2476,7.25-7.2812,7.25h-152.66c-4.0315,0-7.2812-3.2187-7.2812-7.25v-12.438c0-4.0324,3.2498-7.2812,7.2812-7.2812z"/>
<path id="path13" style="baseline-shift:baseline;block-progression:tb;color:#000000;direction:ltr;text-indent:0;text-align:start;enable-background:accumulate;text-transform:none;" fill="#f4f4f4" d="m205.56,80.719c-5.1125,0-9.2812,4.1686-9.2812,9.2812v12.438c0,5.1136,4.1687,9.2812,9.2812,9.2812h152.66c5.1143,0,9.2812-4.168,9.2812-9.2812v-12.44c0-5.1124-4.167-9.2812-9.2812-9.2812h-152.66zm0,2,152.66,0c4.0337,0,7.2812,3.2496,7.2812,7.2812v12.438c0,4.0327-3.2476,7.2812-7.2812,7.2812h-152.66c-4.0315,0-7.2812-3.2488-7.2812-7.2812v-12.438c0-4.0313,3.2498-7.2812,7.2812-7.2812z"/>
<path id="path15" style="baseline-shift:baseline;block-progression:tb;color:#000000;direction:ltr;text-indent:0;text-align:start;enable-background:accumulate;text-transform:none;" fill="#f4f4f4" d="m196.28,44.469,0,18.625c0,5.1127,4.1687,9.2812,9.2812,9.2812h152.66c5.1143,0,9.2812-4.1689,9.2812-9.2812v-18.625h-2v18.625c0,4.0316-3.2476,7.2812-7.2812,7.2812h-152.66c-4.0315,0-7.2812-3.2499-7.2812-7.2812v-18.625h-2z"/>
<path id="path17" style="baseline-shift:baseline;block-progression:tb;color:#000000;direction:ltr;text-indent:0;text-align:start;enable-background:accumulate;text-transform:none;" fill="#f4f4f4" d="m205.56,227.69c-5.1127,0-9.2812,4.1686-9.2812,9.2812v7.8438h2v-7.8438c0-4.0313,3.2499-7.2812,7.2812-7.2812h152.66c4.0336,0,7.2812,3.2496,7.2812,7.2812v7.7812h2v-7.7812c0-5.1124-4.1668-9.2812-9.2812-9.2812h-152.66z"/>
<path id="path19" style="baseline-shift:baseline;block-progression:tb;color:#000000;direction:ltr;text-indent:0;text-align:start;enable-background:accumulate;text-transform:none;" fill="#f4f4f4" d="m399.22,152.66c-3.1119,0-5.6562,2.5444-5.6562,5.6562v56.406c0,3.1127,2.5446,5.6562,5.6562,5.6562h56.406c3.1124,0,5.6562-2.5438,5.6562-5.6562v-56.406c0-3.1116-2.5436-5.6562-5.6562-5.6562h-56.406zm0,2,56.406,0c2.0313,0,3.6562,1.6259,3.6562,3.6562v56.406c0,2.0316-1.6247,3.6562-3.6562,3.6562h-56.406c-2.0304,0-3.6562-1.6249-3.6562-3.6562v-56.406c0-2.0301,1.6262-3.6562,3.6562-3.6562z"/>
<path id="circle21" style="baseline-shift:baseline;block-progression:tb;color:#000000;direction:ltr;text-indent:0;text-align:start;enable-background:accumulate;text-transform:none;" fill="#f4f4f4" d="m427.41,158.88c-15.259,0-27.625,12.397-27.625,27.656s12.366,27.656,27.625,27.656,27.656-12.397,27.656-27.656-12.397-27.656-27.656-27.656zm0,2c14.178,0,25.656,11.478,25.656,25.656s-11.478,25.656-25.656,25.656-25.625-11.478-25.625-25.656,11.446-25.656,25.625-25.656z"/>
<path id="path23" style="baseline-shift:baseline;block-progression:tb;color:#000000;direction:ltr;text-indent:0;text-align:start;enable-background:accumulate;text-transform:none;" fill="#f4f4f4" d="m477.88,152.66c-3.1127,0-5.6562,2.5446-5.6562,5.6562v56.406c0,3.1124,2.5438,5.6562,5.6562,5.6562h56.406c3.1124,0,5.6562-2.5438,5.6562-5.6562v-56.406c0-3.1116-2.5436-5.6562-5.6562-5.6562h-56.406zm0,2,56.406,0c2.0313,0,3.6562,1.6259,3.6562,3.6562v56.406c0,2.0316-1.6247,3.6562-3.6562,3.6562h-56.406c-2.0316,0-3.6562-1.6247-3.6562-3.6562v-56.406c0-2.0304,1.6249-3.6562,3.6562-3.6562z"/>
<path id="circle25" style="baseline-shift:baseline;block-progression:tb;color:#000000;direction:ltr;text-indent:0;text-align:start;enable-background:accumulate;text-transform:none;" fill="#f4f4f4" d="m506.09,158.88c-15.259,0-27.656,12.397-27.656,27.656s12.397,27.656,27.656,27.656,27.625-12.397,27.625-27.656-12.366-27.656-27.625-27.656zm0,2c14.178,0,25.625,11.478,25.625,25.656s-11.446,25.656-25.625,25.656c-14.178,0-25.656-11.478-25.656-25.656s11.478-25.656,25.656-25.656z"/>
<path id="polyline27" style="baseline-shift:baseline;block-progression:tb;color:#000000;direction:ltr;text-indent:0;text-align:start;enable-background:accumulate;text-transform:none;" fill="#f4f4f4" d="m158,3.75,0,6.4062,0,1,1,0,23.469,0,1,0,0-1,0-6.4062-2,0,0,5.4062-21.469,0,0-5.4062-2,0z"/>
<g id="g29" stroke="#F4F4F4" stroke-width="2" fill="none">
	<path id="path31" d="M227.12,195.92c-5.383,0-9.747-4.363-9.747-9.746s4.364-9.746,9.747-9.746h30.532c5.382,0,9.746,4.363,9.746,9.746s-4.364,9.746-9.746,9.746h-30.527z"/>
	<path id="path33" d="M306.13,195.92c-5.382,0-9.747-4.363-9.747-9.746s4.364-9.746,9.747-9.746h30.532c5.382,0,9.747,4.363,9.747,9.746s-4.365,9.746-9.747,9.746h-30.533z"/>
</g>
<path id="path35" style="baseline-shift:baseline;block-progression:tb;color:#000000;direction:ltr;text-indent:0;text-align:start;enable-background:accumulate;text-transform:none;" fill="#f4f4f4" d="m89.875,94.25c-5.6856,0.0022-10.31,4.6269-10.312,10.312v24.438h-24.438c-5.6847,0.002-10.31,4.6258-10.312,10.312v35.031c0.0022,5.6847,4.6269,10.31,10.312,10.312h24.438v24.438c0.0022,5.6847,4.627,10.309,10.312,10.312h35c5.6847-0.002,10.31-4.6269,10.312-10.312v-24.438h24.469c5.6857-0.001,10.31-4.6269,10.312-10.312v-35.031c-0.002-5.6865-4.6269-10.31-10.312-10.312h-24.469v-24.438c0-5.683-4.63-10.308-10.31-10.31h-35zm0,2,35,0c4.6064,0.0018,8.3107,3.706,8.3125,8.3125v25.438,1h1,25.469c4.6064,0.002,8.3107,3.705,8.3125,8.3125v35.031c-0.002,4.6064-3.7062,8.3116-8.3125,8.3125h-25.469-1v1,25.438c-0.002,4.6064-3.7072,8.3107-8.3125,8.3125h-35c-4.6065-0.003-8.3107-3.7072-8.3125-8.3125v-25.438-1h-1-25.438c-4.6064-0.002-8.3107-3.7072-8.3125-8.3125v-35.031c0.0018-4.6074,3.7072-8.3107,8.3125-8.3125h25.438,1v-1-25.438c0.0018-4.6064,3.7061-8.3107,8.3125-8.3125zm0,4.1875c-2.2533,0.004-4.0898,1.8728-4.0938,4.125v27.031s-0.000319,0.0286,0,0.0625c0.000159,0.0169-0.000342,0.004,0,0.0312-0.0099,0.60157-0.06431,1.2059-0.5,1.9688-0.35927,0.6525-1.3517,1.2571-1.875,1.375l-0.03125,0.0312c-0.47586,0.12635-0.87137,0.15443-1.3125,0.15625h-26.938c-2.2518,0.004-4.1211,1.8398-4.125,4.0938v35.031c0.0039,2.2525,1.8718,4.0898,4.125,4.0938h27.062,0.03125c0.0045-0.00015,0.0325,0,0.0625,0,0.77743,0,1.8842,0.33196,2.5625,1.0938,0.73597,0.82026,0.90875,1.779,0.90625,2.5938v26.969c0.0039,2.2533,1.8717,4.0924,4.125,4.0938h35c2.2529-0.003,4.1211-1.8415,4.125-4.0938v-26.969c-0.009-0.93749,0.38022-1.9914,1.0625-2.6562,0.68595-0.68364,1.6832-1.0367,2.5938-1.0312h27c2.2525-0.004,4.0898-1.8408,4.0938-4.0938v-0.0312-35c-0.004-2.2547-1.8416-4.0911-4.0938-4.0938h-27c-0.61909-0.007-1.218-0.0721-1.9688-0.46875-0.62082-0.31304-1.3367-1.2247-1.5-1.8125v-0.0312c-0.15-0.48-0.18-0.93-0.18-1.39v-26.938c-0.004-2.2529-1.8721-4.1224-4.125-4.125h-35zm0,2,35,0c1.1731,0.001,2.1229,0.94992,2.125,2.125v26.938,0.0312c0.002,0.57406,0.0626,1.221,0.28125,1.9375,0.002,0.009-0.002,0.0225,0,0.0312,0.34607,1.2174,1.2281,2.3591,2.4688,3v0.0312c0.007,0.004,0.0238-0.004,0.0312,0,1.1063,0.57503,2.1614,0.67898,2.875,0.6875h27c1.1738,0.001,2.0917,0.91643,2.0938,2.0938v35c-0.002,1.1751-0.91828,2.1229-2.0938,2.125h-27c-1.4211-0.008-2.8728,0.54356-3.9688,1.625h-0.0312c-1.109,1.0917-1.6709,2.5885-1.6562,4.0625v26.969c-0.002,1.1738-0.95194,2.0924-2.125,2.0938h-35c-1.1727-0.00068-2.1229-0.91906-2.125-2.0938v-26.969c0.0035-1.1393-0.25622-2.6558-1.4062-3.9375-1.1577-1.3002-2.7739-1.75-4.0625-1.75-0.0225,0-0.05825-0.00071-0.09375,0h-0.03125-27.031c-1.1768-0.002-2.1229-0.91828-2.125-2.0938v-35.031c0.0021-1.176,0.95084-2.0917,2.125-2.0938h26.938c0.52003-0.002,1.1422-0.0448,1.8125-0.21875,0.0087-0.002,0.02251,0.002,0.03125,0,1.1654-0.26983,2.4017-1.0614,3.125-2.375,0.66581-1.1658,0.73946-2.2565,0.75-2.9375v-0.0312c-0.000974-0.0789,0-0.0625,0-0.0625v-27.031c0.0021-1.1738,0.91906-2.1229,2.0938-2.125z"/>
<path id="polygon37" style="baseline-shift:baseline;block-progression:tb;color:#000000;direction:ltr;text-indent:0;text-align:start;enable-background:accumulate;text-transform:none;" fill="#f4f4f4" d="m73.656,141.31-1.7188,1.7188-13.062,13.094-0.71875,0.6875,0.71875,0.71875,13.062,13.094,1.7188,1.6875,0-2.4062,0-3.3438,8.0625,0,1,0,0-1,0-17.469,0-1-1,0-8.0625,0,0-3.375,0-2.4062zm-2,4.8438,0,1.9375,0,1,1,0,8.0625,0,0,15.469-8.0625,0-1,0,0,1,0,1.9062l-10.656-10.66,10.656-10.65z"/>
<path id="circle39" style="baseline-shift:baseline;block-progression:tb;color:#000000;direction:ltr;text-indent:0;text-align:start;enable-background:accumulate;text-transform:none;" fill="#f4f4f4" d="m107.38,143.91c-7.1143,0-12.906,5.792-12.906,12.906,0,7.1143,5.792,12.906,12.906,12.906,7.1143,0,12.906-5.792,12.906-12.906,0-7.1143-5.792-12.906-12.906-12.906zm0,2c6.0334,0,10.906,4.8728,10.906,10.906,0,6.0334-4.8728,10.906-10.906,10.906-6.0334,0-10.906-4.8728-10.906-10.906,0-6.0334,4.8728-10.906,10.906-10.906z"/>
<path id="polygon41" style="baseline-shift:baseline;block-progression:tb;color:#000000;direction:ltr;text-indent:0;text-align:start;enable-background:accumulate;text-transform:none;" fill="#f4f4f4" d="m97.656,181.47,0,1,0,8.0625-3.375,0-2.4062,0,1.7188,1.7188,13.094,13.094,0.6875,0.6875,0.71875-0.6875,13.094-13.094,1.6875-1.7188-2.4062,0-3.3438,0,0-8.0625,0-1-1,0-17.469,0-1,0zm2,2,15.469,0,0,8.0625,0,1,1,0,1.9375,0-10.688,10.688-10.688-10.688,1.9688,0,1,0,0-1,0-8.0625z"/>
<path id="polygon43" style="baseline-shift:baseline;block-progression:tb;color:#000000;direction:ltr;text-indent:0;text-align:start;enable-background:accumulate;text-transform:none;" fill="#f4f4f4" d="m141.09,141.31,0,2.4062,0,3.375-8.0625,0-1,0,0,1,0,17.469,0,1,1,0,8.0625,0,0,3.3438,0,2.4062,1.7188-1.6875,13.094-13.094,0.6875-0.71875-0.6875-0.6875-13.094-13.094-1.7188-1.7188zm2,4.8125,10.688,10.688-10.688,10.688,0-1.9375,0-1-1,0-8.0625,0,0-15.469,8.0625,0,1,0,0-1,0-1.9688z"/>
<path id="polygon45" style="baseline-shift:baseline;block-progression:tb;color:#000000;direction:ltr;text-indent:0;text-align:start;enable-background:accumulate;text-transform:none;" fill="#f4f4f4" d="m107.38,107.59-0.6875,0.71875-13.094,13.062-1.7188,1.7188,2.4062,0,3.375,0,0,8.0625,0,1,1,0,17.469,0,1,0,0-1,0-8.0625,3.3438,0,2.4062,0-1.6875-1.7188-13.094-13.062-0.71875-0.71875zm0,2.8438,10.656,10.656-1.9062,0-1,0,0,1,0,8.0625-15.469,0,0-8.0625,0-1-1,0-1.9375,0,10.656-10.656z"/>
</svg>
