<?xml version="1.0" encoding="UTF-8" standalone="no"?>
<!-- Generator: Adobe Illustrator 13.0.0, SVG Export Plug-In . SVG Version: 6.00 Build 14948)  -->
<svg id="Layer_3" xmlns:rdf="http://www.w3.org/1999/02/22-rdf-syntax-ns#" xmlns="http://www.w3.org/2000/svg" xml:space="preserve" height="302.28px" viewBox="0 0 615.908 302.284" width="615.91px" version="1.2" y="0px" x="0px" xmlns:cc="http://creativecommons.org/ns#" xmlns:dc="http://purl.org/dc/elements/1.1/"><metadata id="metadata203"><rdf:RDF><cc:Work rdf:about=""><dc:format>image/svg+xml</dc:format><dc:type rdf:resource="http://purl.org/dc/dcmitype/StillImage"/><dc:title/></cc:Work></rdf:RDF></metadata>
<path id="path3" stroke-linejoin="round" d="M43.721,20.316" stroke="#F4F4F4" stroke-linecap="round" stroke-dasharray="none" stroke-miterlimit="4" stroke-width="2.00000002" fill="none"/>
<path id="path5" style="baseline-shift:baseline;block-progression:tb;color:#000000;direction:ltr;text-indent:0;text-align:start;enable-background:accumulate;text-transform:none;" fill="#f4f4f4" d="m206.75,32.875a1.0001,1.0001,0,0,0,-0.84375,0.59375c-0.60302,1.3335-1.5261,2.5266-2.6875,3.4375a1.0005,1.0005,0,1,0,1.25,1.5625c1.4066-1.1031,2.5403-2.5177,3.2812-4.1562a1.0001,1.0001,0,0,0,-1,-1.4375z"/>
<path id="path7" style="baseline-shift:baseline;block-progression:tb;color:#000000;direction:ltr;text-indent:0;text-align:start;enable-background:accumulate;text-transform:none;" fill="#f4f4f4" d="m43.719,21.562c-4.6066,0-8.375,3.7363-8.375,8.3438,0,4.6066,3.7684,8.375,8.375,8.375h154.38c4.6074,0,8.375-3.7686,8.375-8.375,0-4.6073-3.7676-8.3438-8.375-8.3438h-154.38zm0,2,154.38,0c3.5266,0,6.375,2.817,6.375,6.3438,0,3.5256-2.8484,6.375-6.375,6.375h-154.38c-3.5254,0-6.375-2.8496-6.375-6.375,0-3.5266,2.8496-6.3438,6.375-6.3438z"/>
<path id="polyline9" style="baseline-shift:baseline;block-progression:tb;color:#000000;direction:ltr;text-indent:0;text-align:start;enable-background:accumulate;text-transform:none;" fill="#f4f4f4" d="m206.66,32.938a1.0044,1.0044,0,1,0,0.1875,2h57.312,87.312,164.62a1.0001,1.0001,0,1,0,0,-2h-164.62-87.312-57.312a1.0001,1.0001,0,0,0,-0.1875,0z"/>
<path id="polyline11" style="baseline-shift:baseline;block-progression:tb;color:#000000;direction:ltr;text-indent:0;text-align:start;enable-background:accumulate;text-transform:none;" fill="#f4f4f4" d="m207.44,30.812a1.0011,1.0011,0,1,0,0.0937,2h56.625,87.312,163.94a1.0001,1.0001,0,1,0,0,-2h-163.94-87.312-56.625a1.0001,1.0001,0,0,0,-0.0937,0z"/>
<path id="polygon13" style="baseline-shift:baseline;block-progression:tb;color:#000000;direction:ltr;text-indent:0;text-align:start;enable-background:accumulate;text-transform:none;" fill="#f4f4f4" d="m0.1875,41.438a1.0001,1.0001,0,0,0,-0.78125,1v2.0938a1.0001,1.0001,0,0,0,1,1h263.75,172.53,178.56a1.0001,1.0001,0,0,0,1,-1v-2.0938a1.0001,1.0001,0,0,0,-1,-1h-178.56-172.53-263.75a1.0001,1.0001,0,0,0,-0.21875,0zm1.2188,2,262.75,0,172.53,0,177.56,0,0,0.09375-177.56,0-172.53,0-262.75,0,0-0.09375z"/>
<path id="path15" stroke-linejoin="round" d="M549.83,20.316" stroke="#F4F4F4" stroke-linecap="round" stroke-dasharray="none" stroke-miterlimit="4" stroke-width="2.00000002" fill="none"/>
<path id="polyline17" style="baseline-shift:baseline;block-progression:tb;color:#000000;direction:ltr;text-indent:0;text-align:start;enable-background:accumulate;text-transform:none;" fill="#f4f4f4" d="m43.625,38.906a1.0011,1.0011,0,1,0,0.09375,2h154.38a1.0001,1.0001,0,0,0,0.0312,0h0.59375,0.0312,65.406,87.312,172.72,0.0312,0.59375a1.0001,1.0001,0,0,0,0.0312,0h25a1.0001,1.0001,0,1,0,0,-2h-24.969-0.0312-0.59375a1.0001,1.0001,0,0,0,-0.0312,0h-172.75-87.312-65.438-0.625-0.0312-154.34a1.0001,1.0001,0,0,0,-0.09375,0z"/>
<path id="polyline19" style="baseline-shift:baseline;block-progression:tb;color:#000000;direction:ltr;text-indent:0;text-align:start;enable-background:accumulate;text-transform:none;" fill="#f4f4f4" d="m203.66,36.75a1.0044,1.0044,0,1,0,0.1875,2h60.312,87.312,167.62a1.0001,1.0001,0,1,0,0,-2h-167.62-87.312-60.312a1.0001,1.0001,0,0,0,-0.1875,0z"/>
<path id="path21" style="baseline-shift:baseline;block-progression:tb;color:#000000;direction:ltr;text-indent:0;text-align:start;enable-background:accumulate;text-transform:none;" fill="#f4f4f4" d="m516.06,32.875a1.0001,1.0001,0,0,0,-0.875,1.4375c0.74174,1.6378,1.8733,3.0529,3.2812,4.1562a1.0005,1.0005,0,1,0,1.25,-1.5625c-1.1621-0.91066-2.0832-2.1033-2.6875-3.4375a1.0001,1.0001,0,0,0,-0.96,-0.593z"/>
<path id="path23" style="baseline-shift:baseline;block-progression:tb;color:#000000;direction:ltr;text-indent:0;text-align:start;enable-background:accumulate;text-transform:none;" fill="#f4f4f4" d="m207.44,27.219-0.0937,0.03125a1.0001,1.0001,0,0,0,-0.78125,1.1562c0.0867,0.48902,0.125,0.98297,0.125,1.5,0,0.58554-0.0459,1.1662-0.15625,1.7188a1.0021,1.0021,0,1,0,1.96,0.375c0.13567-0.67948,0.1875-1.3753,0.1875-2.0938,0-0.23614-0.0473-0.45478-0.0625-0.6875h55.531,87.312,162.84c-0.0153,0.23266-0.0625,0.45092-0.0625,0.6875,0,0.71846,0.0818,1.4445,0.21875,2.125a1.0001,1.0001,0,1,0,1.9375,-0.40625c-0.11-0.552-0.16-1.133-0.16-1.719,0-0.51587,0.0388-1.0087,0.125-1.5a1.0001,1.0001,0,0,0,-0.79,-1.156l-0.09-0.031a1.0001,1.0001,0,0,0,-0.21875,0h-163.81-87.312-56.5a1.0001,1.0001,0,0,0,-0.21875,0z"/>
<path id="path25" style="baseline-shift:baseline;block-progression:tb;color:#000000;direction:ltr;text-indent:0;text-align:start;enable-background:accumulate;text-transform:none;" fill="#f4f4f4" d="m204.09,21.469a1.0001,1.0001,0,0,0,-0.46875,1.9062,1.0001,1.0001,0,0,0,0.0312,0c1.0085,0.85762,1.8172,1.9229,2.3438,3.1562a1.0001,1.0001,0,0,0,1.25,0.5625h56.906,87.312,164.25a1.0001,1.0001,0,0,0,1.2188,-0.5625c0.52924-1.2395,1.36-2.2969,2.375-3.1562a1.0001,1.0001,0,0,0,-0.46875,-1.9062h-167.38-87.312-60.062zm2.375,2,57.688,0,87.312,0,165,0c-0.38798,0.50371-0.70632,1.055-1,1.625h-164-87.312-56.688c-0.29399-0.57043-0.61156-1.1211-1-1.625z"/>
<path id="path27" style="baseline-shift:baseline;block-progression:tb;color:#000000;direction:ltr;text-indent:0;text-align:start;enable-background:accumulate;text-transform:none;" fill="#f4f4f4" d="m0.28125,19.375a1.0001,1.0001,0,0,0,-0.875,1v2.0938a1.0001,1.0001,0,0,0,1,1h34.906c-0.38203,0.4981-0.67878,1.0622-0.96875,1.625h-33.938a1.0001,1.0001,0,0,0,-1,1v2.125a1.0001,1.0001,0,0,0,1,1h32.781c-0.01523,0.2324-0.0625,0.45145-0.0625,0.6875,0,0.30703,0.06811,0.60535,0.09375,0.90625h-32.812a1.0001,1.0001,0,0,0,-1,1v2.125a1.0001,1.0001,0,0,0,1,1h34.031c0.34432,0.64214,0.72617,1.2534,1.1875,1.8125h-35.219a1.0001,1.0001,0,0,0,-1,1.0312l0.0625,2.1562a1.0001,1.0001,0,0,0,1,0.96875h43.375a1.0001,1.0001,0,1,0,0,-2h-42.406v-0.15625h36.562,0.0625a1.0001,1.0001,0,0,0,0.84375,-0.5,1.0001,1.0001,0,0,0,-0.25,-1.3125c-0.01183-0.0091-0.01947-0.02209-0.03125-0.03125-1.1411-0.88777-2.0776-2.017-2.6875-3.3125a1.0001,1.0001,0,0,0,-0.03125,-0.0625c-0.0037-0.008,0.0037-0.02323,0-0.03125a1.0001,1.0001,0,0,0,-0.03,-0.032,1.0001,1.0001,0,0,0,-0.031,-0.094l-0.032-0.031a1.0001,1.0001,0,0,0,-1.156,-0.406h-33.25v-0.125h32.656a1.0001,1.0001,0,0,0,0.907,-0.188l0.031-0.031a1.0001,1.0001,0,0,0,0.312,-1.094,1.0001,1.0001,0,0,0,-0.031,-0.031c-0.09172-0.50376-0.15625-1.0311-0.15625-1.5625,0-0.52464,0.0355-1.0345,0.125-1.5312a1.0001,1.0001,0,0,0,-0.96875,-1.1562h-0.21875-32.656v-0.125h33.281,0.21875a1.0001,1.0001,0,0,0,0.906,-0.594c0.54322-1.2574,1.3943-2.3575,2.4375-3.2188a1.0001,1.0001,0,0,0,-0.4375,-1.75l-0.093-0.031a1.0001,1.0001,0,0,0,-0.219,-0.031h-36.094v-0.09375h40.906,156.88,64.969,87.312,172.28,27.469,63.031v0.09375h-58.188a1.0001,1.0001,0,0,0,-0.22,0.031l-0.125,0.03125a1.0001,1.0001,0,0,0,-0.40625,1.75c1.0438,0.86102,1.8618,1.9606,2.4062,3.2188a1.0001,1.0001,0,0,0,0.9375,0.59375,1.0001,1.0001,0,0,0,0.0312,0h0.0937,55.469v0.125h-54.781-0.1875a1.0001,1.0001,0,0,0,-0.97,1.156h-0.0312c0.0888,0.49786,0.15625,1.0066,0.15625,1.5312,0,0.53141-0.0645,1.0587-0.15625,1.5625-0.004,0.021-0.0273,0.04155-0.0312,0.0625a1.0001,1.0001,0,0,0,0,0.03125,1.0001,1.0001,0,0,0,0.3125,1.0312l0.0312,0.03125a1.0001,1.0001,0,0,0,0.9375,0.1875h54.719v0.125h-55.375a1.0001,1.0001,0,0,0,-1.125,0.40625l-0.0312,0.03125a1.0001,1.0001,0,0,0,-0.0625,0.09375,1.0001,1.0001,0,0,0,-0.0312,0.0625c-0.60946,1.3214-1.5281,2.473-2.6875,3.375a1.0001,1.0001,0,0,0,-0.0312,0.03125,1.0001,1.0001,0,0,0,-0.1875,1.4375,1.0001,1.0001,0,0,0,0.78125,0.375h0.125,58.594v0.15625h-64.5a1.0001,1.0001,0,1,0,0,2h65.469a1.0001,1.0001,0,0,0,1,-0.96875l0.0625-2.1562a1.0001,1.0001,0,0,0,-1,-1.0312h-57.312c0.46133-0.55913,0.84318-1.1704,1.1875-1.8125h56.125a1.0001,1.0001,0,0,0,1,-1v-2.125a1.0001,1.0001,0,0,0,-1,-1h-54.906c0.0256-0.3009,0.0937-0.59922,0.0937-0.90625,0-0.23569-0.0474-0.4556-0.0625-0.6875h54.875a1.0001,1.0001,0,0,0,1,-1v-2.125a1.0001,1.0001,0,0,0,-1,-1h-56.031c-0.28998-0.56236-0.5869-1.1271-0.96875-1.625h57a1.0001,1.0001,0,0,0,1,-1v-2.0938a1.0001,1.0001,0,0,0,-1,-1h-64.031-27.469-172.28-87.312-64.969-156.88-41.906a1.0001,1.0001,0,0,0,-0.125,0z"/>
<path id="path29" style="baseline-shift:baseline;block-progression:tb;color:#000000;direction:ltr;text-indent:0;text-align:start;enable-background:accumulate;text-transform:none;" fill="#f4f4f4" d="m524.84,21.562c-4.6066,0-8.3438,3.7363-8.3438,8.3438,0,4.6066,3.7372,8.375,8.3438,8.375h25c4.6066,0,8.3438-3.7686,8.3438-8.375,0-4.6073-3.7372-8.3438-8.3438-8.3438h-25zm0,2,25,0c3.5254,0,6.3438,2.817,6.3438,6.3438,0,3.5256-2.8183,6.375-6.3438,6.375h-25c-3.5254,0-6.3438-2.8496-6.3438-6.375,0-3.5266,2.8183-6.3438,6.3438-6.3438z"/>
<path id="path31" style="baseline-shift:baseline;block-progression:tb;color:#000000;direction:ltr;text-indent:0;text-align:start;enable-background:accumulate;text-transform:none;" fill="#f4f4f4" d="m3.9062-0.59375c-2.4475,0-4.4375,1.9911-4.4375,4.4375v13.75a1.0001,1.0001,0,0,0,1,1h615.03a1.0001,1.0001,0,0,0,1,-1v-13.75c0-2.4475-1.9911-4.4375-4.4375-4.4375h-608.16zm0,2,608.16,0c1.3656,0,2.4375,1.071,2.4375,2.4375v12.75h-613.03v-12.75c0-1.3656,1.071-2.4375,2.4375-2.4375z"/>
<path id="path33" style="baseline-shift:baseline;block-progression:tb;color:#000000;direction:ltr;text-indent:0;text-align:start;enable-background:accumulate;text-transform:none;" fill="#f4f4f4" d="m0.25,47a1.0001,1.0001,0,0,0,-0.78125,1v250.44c0,2.4464,1.9904,4.4375,4.4375,4.4375h608.16c2.4464,0,4.4375-1.9908,4.4375-4.4375l-0.01-250.44a1.0001,1.0001,0,0,0,-1,-1h-615.03a1.0001,1.0001,0,0,0,-0.21875,0zm1.2188,2,613.03,0,0,249.44c0,1.3652-1.0719,2.4375-2.4375,2.4375h-608.16c-1.3669,0-2.4375-1.0719-2.4375-2.4375l0.0063-249.44z"/>
<path id="path35" style="baseline-shift:baseline;block-progression:tb;color:#000000;direction:ltr;text-indent:0;text-align:start;enable-background:accumulate;text-transform:none;" fill="#f4f4f4" d="m28.656,104.84c-1.8472,0-3.3438,1.5267-3.3438,3.375v20.781c0,1.8471,1.4961,3.375,3.3438,3.375h20.781c1.8472,0,3.375-1.5273,3.375-3.375v-20.781c0-1.8483-1.5278-3.375-3.375-3.375h-20.781zm0,2,20.781,0c0.76683,0,1.375,0.60727,1.375,1.375v20.781c0,0.76632-0.60817,1.375-1.375,1.375h-20.781c-0.76632,0-1.3438-0.61009-1.3438-1.375v-20.781c0-0.76773,0.57692-1.375,1.3438-1.375z"/>
<path id="path37" style="baseline-shift:baseline;block-progression:tb;color:#000000;direction:ltr;text-indent:0;text-align:start;enable-background:accumulate;text-transform:none;" fill="#f4f4f4" d="m58,104.84c-1.8472,0-3.375,1.5267-3.375,3.375v20.781c0,1.8466,1.5267,3.375,3.375,3.375h20.75c1.8472,0,3.375-1.5273,3.375-3.375v-20.781c0-1.8483-1.5278-3.375-3.375-3.375h-20.75zm0,2,20.75,0c0.76683,0,1.375,0.60727,1.375,1.375v20.781c0,0.76632-0.60817,1.375-1.375,1.375h-20.75c-0.76774,0-1.375-0.60958-1.375-1.375v-20.781c0-0.76773,0.60817-1.375,1.375-1.375z"/>
<path id="path39" style="baseline-shift:baseline;block-progression:tb;color:#000000;direction:ltr;text-indent:0;text-align:start;enable-background:accumulate;text-transform:none;" fill="#f4f4f4" d="m87.312,104.84c-1.8472,0-3.375,1.5267-3.375,3.375v20.781c0,1.8471,1.5273,3.375,3.375,3.375h20.781c1.6926,0,3.0245-1.3026,3.25-2.9375a1.0001,1.0001,0,0,0,0.0312,-0.0625c0.001-0.0103-0.001-0.0209,0-0.0312a1.0001,1.0001,0,0,0,0.0312,-0.0937,1.0001,1.0001,0,0,0,0.0312,-0.1875,1.0001,1.0001,0,0,0,0.0312,-0.0625v-20.781c0-1.8483-1.5278-3.375-3.375-3.375h-20.781zm0,2,20.781,0c0.76683,0,1.375,0.60727,1.375,1.375v20.594a1.0001,1.0001,0,0,0,0,0.125,1.0001,1.0001,0,0,0,-0.0312,0.0625c0,0.76632-0.57692,1.375-1.3438,1.375h-20.781c-0.76632,0-1.375-0.61009-1.375-1.375v-20.781c0-0.76773,0.60817-1.375,1.375-1.375z"/>
<path id="path41" style="baseline-shift:baseline;block-progression:tb;color:#000000;direction:ltr;text-indent:0;text-align:start;enable-background:accumulate;text-transform:none;" fill="#f4f4f4" d="m116.62,104.84c-1.8472,0-3.3438,1.5267-3.3438,3.375v20.781c0,1.8471,1.4961,3.375,3.3438,3.375h20.781c1.8472,0,3.375-1.5273,3.375-3.375v-20.781c0-1.8483-1.5278-3.375-3.375-3.375h-20.781zm0,2,20.781,0c0.76683,0,1.375,0.60727,1.375,1.375v20.781c0,0.76632-0.60817,1.375-1.375,1.375h-20.781c-0.76632,0-1.3438-0.61009-1.3438-1.375v-20.781c0-0.76773,0.57692-1.375,1.3438-1.375z"/>
<path id="path43" style="baseline-shift:baseline;block-progression:tb;color:#000000;direction:ltr;text-indent:0;text-align:start;enable-background:accumulate;text-transform:none;" fill="#f4f4f4" d="m145.97,104.84c-1.8472,0-3.375,1.5267-3.375,3.375v20.781c0,1.8471,1.5273,3.375,3.375,3.375h20.75c1.8472,0,3.375-1.5273,3.375-3.375v-20.781c0-1.8483-1.5278-3.375-3.375-3.375h-20.75zm0,2,20.75,0c0.76683,0,1.375,0.60727,1.375,1.375v20.781c0,0.76632-0.60817,1.375-1.375,1.375h-20.75c-0.76632,0-1.375-0.61009-1.375-1.375v-20.781c0-0.76773,0.60817-1.375,1.375-1.375z"/>
<path id="path45" style="baseline-shift:baseline;block-progression:tb;color:#000000;direction:ltr;text-indent:0;text-align:start;enable-background:accumulate;text-transform:none;" fill="#f4f4f4" d="m175.28,104.84c-1.8472,0-3.375,1.5267-3.375,3.375v20.781c0,1.8471,1.5273,3.375,3.375,3.375h20.781c1.8472,0,3.3438-1.5273,3.3438-3.375v-20.781c0-1.8483-1.4966-3.375-3.3438-3.375h-20.781zm0,2,20.781,0c0.76683,0,1.3438,0.60727,1.3438,1.375v20.781c0,0.76632-0.57692,1.375-1.3438,1.375h-20.781c-0.76632,0-1.375-0.61009-1.375-1.375v-20.781c0-0.76773,0.60817-1.375,1.375-1.375z"/>
<path id="path47" style="baseline-shift:baseline;block-progression:tb;color:#000000;direction:ltr;text-indent:0;text-align:start;enable-background:accumulate;text-transform:none;" fill="#f4f4f4" d="m204.59,104.84c-1.8472,0-3.3438,1.5267-3.3438,3.375v20.781c0,1.8471,1.4961,3.375,3.3438,3.375h20.781c1.8472,0,3.375-1.5273,3.375-3.375v-20.781c0-1.8483-1.5278-3.375-3.375-3.375h-20.781zm0,2,20.781,0c0.76683,0,1.375,0.60727,1.375,1.375v20.781c0,0.76632-0.60817,1.375-1.375,1.375h-20.781c-0.76632,0-1.3438-0.61009-1.3438-1.375v-20.781c0-0.76773,0.57692-1.375,1.3438-1.375z"/>
<path id="path49" style="baseline-shift:baseline;block-progression:tb;color:#000000;direction:ltr;text-indent:0;text-align:start;enable-background:accumulate;text-transform:none;" fill="#f4f4f4" d="m233.94,104.84c-1.8472,0-3.375,1.5267-3.375,3.375v20.781c0,1.8471,1.5273,3.375,3.375,3.375h20.75c1.8466,0,3.375-1.5273,3.375-3.375v-20.781c0-1.8478-1.5278-3.375-3.375-3.375h-20.75zm0,2,20.75,0c0.76683,0,1.375,0.60676,1.375,1.375v20.781c0,0.76632-0.60958,1.375-1.375,1.375h-20.75c-0.76632,0-1.375-0.61009-1.375-1.375v-20.781c0-0.76773,0.60817-1.375,1.375-1.375z"/>
<path id="path51" style="baseline-shift:baseline;block-progression:tb;color:#000000;direction:ltr;text-indent:0;text-align:start;enable-background:accumulate;text-transform:none;" fill="#f4f4f4" d="m263.25,104.84c-1.8472,0-3.375,1.5267-3.375,3.375v20.781c0,1.8471,1.5273,3.375,3.375,3.375h20.781c1.8466,0,3.3438-1.5273,3.3438-3.375v-20.781c0-1.8478-1.4966-3.375-3.3438-3.375h-20.781zm0,2,20.781,0c0.76683,0,1.3438,0.60676,1.3438,1.375v20.781c0,0.76632-0.57833,1.375-1.3438,1.375h-20.781c-0.76632,0-1.375-0.61009-1.375-1.375v-20.781c0-0.76773,0.60817-1.375,1.375-1.375z"/>
<path id="path53" style="baseline-shift:baseline;block-progression:tb;color:#000000;direction:ltr;text-indent:0;text-align:start;enable-background:accumulate;text-transform:none;" fill="#f4f4f4" d="m292.56,104.84c-1.8472,0-3.375,1.5267-3.375,3.375v20.781c0,1.8466,1.5267,3.375,3.375,3.375h20.781c1.8466,0,3.375-1.5273,3.375-3.375v-20.781c0-1.8478-1.5278-3.375-3.375-3.375h-20.781zm0,2,20.781,0c0.76683,0,1.375,0.60676,1.375,1.375v20.781c0,0.76632-0.60958,1.375-1.375,1.375h-20.781c-0.76773,0-1.375-0.60958-1.375-1.375v-20.781c0-0.76773,0.60817-1.375,1.375-1.375z"/>
<path id="path55" style="baseline-shift:baseline;block-progression:tb;color:#000000;direction:ltr;text-indent:0;text-align:start;enable-background:accumulate;text-transform:none;" fill="#f4f4f4" d="m321.91,104.84c-1.8472,0-3.375,1.5267-3.375,3.375v20.781c0,1.8466,1.5267,3.375,3.375,3.375h20.75c1.8466,0,3.375-1.5268,3.375-3.375v-20.781c0-1.8483-1.5278-3.375-3.375-3.375h-20.75zm0,2,20.75,0c0.76683,0,1.375,0.60727,1.375,1.375v20.781c0,0.76581-0.60958,1.375-1.375,1.375h-20.75c-0.76773,0-1.375-0.60958-1.375-1.375v-20.781c0-0.76773,0.60817-1.375,1.375-1.375z"/>
<path id="path57" style="baseline-shift:baseline;block-progression:tb;color:#000000;direction:ltr;text-indent:0;text-align:start;enable-background:accumulate;text-transform:none;" fill="#f4f4f4" d="m351.22,104.84c-1.8466,0-3.375,1.5267-3.375,3.375v20.781c0,1.8466,1.5273,3.375,3.375,3.375h20.781c1.8466,0,3.3438-1.5273,3.3438-3.375v-20.781c0-1.8478-1.4966-3.375-3.3438-3.375h-20.781zm0,2,20.781,0c0.76683,0,1.3438,0.60676,1.3438,1.375v20.781c0,0.76632-0.57833,1.375-1.3438,1.375h-20.781c-0.76632,0-1.375-0.60958-1.375-1.375v-20.781c0-0.76773,0.60958-1.375,1.375-1.375z"/>
<path id="path59" style="baseline-shift:baseline;block-progression:tb;color:#000000;direction:ltr;text-indent:0;text-align:start;enable-background:accumulate;text-transform:none;" fill="#f4f4f4" d="m380.53,104.84c-1.8466,0-3.3438,1.5267-3.3438,3.375v20.781c0,1.8466,1.4961,3.375,3.3438,3.375h20.781c1.8466,0,3.375-1.5268,3.375-3.375v-20.781c0-1.8483-1.5278-3.375-3.375-3.375h-20.781zm0,2,20.781,0c0.76683,0,1.375,0.60727,1.375,1.375v20.781c0,0.76581-0.60958,1.375-1.375,1.375h-20.781c-0.76632,0-1.3438-0.60958-1.3438-1.375v-20.781c0-0.76773,0.57833-1.375,1.3438-1.375z"/>
<path id="path61" style="baseline-shift:baseline;block-progression:tb;color:#000000;direction:ltr;text-indent:0;text-align:start;enable-background:accumulate;text-transform:none;" fill="#f4f4f4" d="m409.88,104.84c-1.8466,0-3.375,1.5267-3.375,3.375v20.78c0,1.8466,1.5273,3.375,3.375,3.375h20.75c1.8472,0,3.375-1.5273,3.375-3.375a1.0001,1.0001,0,0,0,0,-0.0937v-20.688c0-1.8478-1.5272-3.375-3.375-3.375h-20.75zm0,2,20.75,0c0.76824,0,1.375,0.60676,1.375,1.375v20.78c0,0.76632-0.60817,1.375-1.375,1.375h-20.75c-0.76632,0-1.375-0.60958-1.375-1.375v-20.781c0-0.76773,0.60958-1.375,1.375-1.375z"/>
<path id="path63" style="baseline-shift:baseline;block-progression:tb;color:#000000;direction:ltr;text-indent:0;text-align:start;enable-background:accumulate;text-transform:none;" fill="#f4f4f4" d="m73.375,133.84c-1.8472,0-3.375,1.5273-3.375,3.375v20.78c0,1.8471,1.5273,3.3438,3.375,3.3438h20.781c1.6889,0,3.0199-1.2764,3.25-2.9062a1.0001,1.0001,0,0,0,0.03125,-0.0625c0.0013-0.0105-0.0012-0.0207,0-0.0312a1.0001,1.0001,0,0,0,0.032,-0.09,1.0001,1.0001,0,0,0,0.031,-0.19,1.0001,1.0001,0,0,0,0.031,-0.06v-20.781c0-1.8471-1.5273-3.375-3.375-3.375h-20.781zm0,2,20.781,0c0.76632,0,1.375,0.61009,1.375,1.375v20.594a1.0001,1.0001,0,0,0,0,0.0937,1.0001,1.0001,0,0,0,-0.031,0.1c0,0.76632-0.57692,1.3438-1.3438,1.3438h-20.781c-0.766,0-1.375-0.58-1.375-1.34v-20.781c0-0.76632,0.60817-1.375,1.375-1.375z"/>
<path id="path65" style="baseline-shift:baseline;block-progression:tb;color:#000000;direction:ltr;text-indent:0;text-align:start;enable-background:accumulate;text-transform:none;" fill="#f4f4f4" d="m28.656,133.84c-1.8472,0-3.3438,1.5273-3.3438,3.375v20.781c0,1.8471,1.4961,3.3438,3.3438,3.3438h35.781c1.8472,0,3.375-1.4961,3.375-3.3438v-20.781c0-1.8466-1.5267-3.375-3.375-3.375h-35.781zm0,2,35.781,0c0.76774,0,1.375,0.60958,1.375,1.375v20.781c0,0.76632-0.60817,1.3438-1.375,1.3438h-35.781c-0.76632,0-1.3438-0.57884-1.3438-1.3438v-20.781c0-0.76632,0.57692-1.375,1.3438-1.375z"/>
<path id="path67" style="baseline-shift:baseline;block-progression:tb;color:#000000;direction:ltr;text-indent:0;text-align:start;enable-background:accumulate;text-transform:none;" fill="#f4f4f4" d="m102.69,133.84c-1.8472,0-3.375,1.5273-3.375,3.375v20.781c0,1.8471,1.5273,3.3438,3.375,3.3438h20.781c1.8472,0,3.375-1.4961,3.375-3.3438v-20.781c0-1.8471-1.5273-3.375-3.375-3.375h-20.781zm0,2,20.781,0c0.76632,0,1.375,0.61009,1.375,1.375v20.781c0,0.76632-0.60817,1.3438-1.375,1.3438h-20.781c-0.76632,0-1.375-0.57884-1.375-1.3438v-20.781c0-0.76632,0.60817-1.375,1.375-1.375z"/>
<path id="path69" style="baseline-shift:baseline;block-progression:tb;color:#000000;direction:ltr;text-indent:0;text-align:start;enable-background:accumulate;text-transform:none;" fill="#f4f4f4" d="m132.03,133.84c-1.8472,0-3.375,1.5273-3.375,3.375v20.781c0,1.8471,1.5273,3.3438,3.375,3.3438h20.75c1.8472,0,3.375-1.4961,3.375-3.3438v-20.781c0-1.8471-1.5273-3.375-3.375-3.375h-20.75zm0,2,20.75,0c0.76632,0,1.375,0.61009,1.375,1.375v20.781c0,0.76632-0.60817,1.3438-1.375,1.3438h-20.75c-0.76632,0-1.375-0.57884-1.375-1.3438v-20.781c0-0.76632,0.60817-1.375,1.375-1.375z"/>
<path id="path71" style="baseline-shift:baseline;block-progression:tb;color:#000000;direction:ltr;text-indent:0;text-align:start;enable-background:accumulate;text-transform:none;" fill="#f4f4f4" d="m161.34,133.84c-1.8472,0-3.375,1.5273-3.375,3.375v20.781c0,1.8471,1.5273,3.3438,3.375,3.3438h20.781c1.8472,0,3.3438-1.4961,3.3438-3.3438v-20.781c0-1.8471-1.4961-3.375-3.3438-3.375h-20.781zm0,2,20.781,0c0.76632,0,1.3438,0.61009,1.3438,1.375v20.781c0,0.76632-0.57692,1.3438-1.3438,1.3438h-20.781c-0.76632,0-1.375-0.57884-1.375-1.3438v-20.781c0-0.76632,0.60817-1.375,1.375-1.375z"/>
<path id="path73" style="baseline-shift:baseline;block-progression:tb;color:#000000;direction:ltr;text-indent:0;text-align:start;enable-background:accumulate;text-transform:none;" fill="#f4f4f4" d="m190.66,133.84c-1.8472,0-3.3438,1.5273-3.3438,3.375v20.781c0,1.8466,1.4955,3.3438,3.3438,3.3438h20.781c1.8472,0,3.375-1.4961,3.375-3.3438v-20.781c0-1.8471-1.5273-3.375-3.375-3.375h-20.781zm0,2,20.781,0c0.76632,0,1.375,0.61009,1.375,1.375v20.781c0,0.76632-0.60817,1.3438-1.375,1.3438h-20.781c-0.76773,0-1.3438-0.57833-1.3438-1.3438v-20.781c0-0.76632,0.57692-1.375,1.3438-1.375z"/>
<path id="path75" style="baseline-shift:baseline;block-progression:tb;color:#000000;direction:ltr;text-indent:0;text-align:start;enable-background:accumulate;text-transform:none;" fill="#f4f4f4" d="m220,133.84c-1.8472,0-3.375,1.5273-3.375,3.375v20.781c0,1.8471,1.5273,3.3438,3.375,3.3438h20.75c1.8466,0,3.375-1.4961,3.375-3.3438v-20.781c0-1.8466-1.5273-3.375-3.375-3.375h-20.75zm0,2,20.75,0c0.76632,0,1.375,0.60958,1.375,1.375v20.781c0,0.76632-0.60958,1.3438-1.375,1.3438h-20.75c-0.76632,0-1.375-0.57884-1.375-1.3438v-20.781c0-0.76632,0.60817-1.375,1.375-1.375z"/>
<path id="path77" style="baseline-shift:baseline;block-progression:tb;color:#000000;direction:ltr;text-indent:0;text-align:start;enable-background:accumulate;text-transform:none;" fill="#f4f4f4" d="m249.31,133.84c-1.8472,0-3.375,1.5273-3.375,3.375v20.781c0,1.8471,1.5273,3.3438,3.375,3.3438h20.781c1.8472,0,3.3438-1.4961,3.3438-3.3438v-20.781c0-1.8471-1.4961-3.375-3.3438-3.375h-20.781zm0,2,20.781,0c0.76632,0,1.3438,0.61009,1.3438,1.375v20.781c0,0.76632-0.57692,1.3438-1.3438,1.3438h-20.781c-0.76632,0-1.375-0.57884-1.375-1.3438v-20.781c0-0.76632,0.60817-1.375,1.375-1.375z"/>
<path id="path79" style="baseline-shift:baseline;block-progression:tb;color:#000000;direction:ltr;text-indent:0;text-align:start;enable-background:accumulate;text-transform:none;" fill="#f4f4f4" d="m278.62,133.84c-1.8472,0-3.375,1.5273-3.375,3.375v20.781c0,1.8471,1.5273,3.3438,3.375,3.3438h20.781c1.8472,0,3.375-1.4961,3.375-3.3438v-20.781c0-1.8471-1.5273-3.375-3.375-3.375h-20.781zm0,2,20.781,0c0.76632,0,1.375,0.61009,1.375,1.375v20.781c0,0.76632-0.60817,1.3438-1.375,1.3438h-20.781c-0.76632,0-1.375-0.57884-1.375-1.3438v-20.781c0-0.76632,0.60817-1.375,1.375-1.375z"/>
<path id="path81" style="baseline-shift:baseline;block-progression:tb;color:#000000;direction:ltr;text-indent:0;text-align:start;enable-background:accumulate;text-transform:none;" fill="#f4f4f4" d="m307.97,133.84c-1.8472,0-3.375,1.5273-3.375,3.375v20.781c0,1.8471,1.5273,3.3438,3.375,3.3438h20.75c1.8466,0,3.375-1.4956,3.375-3.3438v-20.781c0-1.8471-1.5273-3.375-3.375-3.375h-20.75zm0,2,20.75,0c0.76632,0,1.375,0.61009,1.375,1.375v20.781c0,0.76581-0.60958,1.3438-1.375,1.3438h-20.75c-0.76632,0-1.375-0.57884-1.375-1.3438v-20.781c0-0.76632,0.60817-1.375,1.375-1.375z"/>
<path id="path83" style="baseline-shift:baseline;block-progression:tb;color:#000000;direction:ltr;text-indent:0;text-align:start;enable-background:accumulate;text-transform:none;" fill="#f4f4f4" d="m337.28,133.84c-1.8472,0-3.375,1.5273-3.375,3.375v20.781c0,1.8466,1.5267,3.3438,3.375,3.3438h20.781c1.8466,0,3.3438-1.4961,3.3438-3.3438v-20.781c0-1.8466-1.4961-3.375-3.3438-3.375h-20.781zm0,2,20.781,0c0.76632,0,1.3438,0.60958,1.3438,1.375v20.781c0,0.76632-0.57833,1.3438-1.3438,1.3438h-20.781c-0.76773,0-1.375-0.57833-1.375-1.3438v-20.781c0-0.76632,0.60817-1.375,1.375-1.375z"/>
<path id="path85" style="baseline-shift:baseline;block-progression:tb;color:#000000;direction:ltr;text-indent:0;text-align:start;enable-background:accumulate;text-transform:none;" fill="#f4f4f4" d="m366.59,133.84c-1.8466,0-3.375,1.5268-3.375,3.375v20.781c0,1.8471,1.5273,3.3438,3.375,3.3438h20.781c1.8466,0,3.375-1.4956,3.375-3.3438v-20.781c0-1.8471-1.5273-3.375-3.375-3.375h-20.781zm0,2,20.781,0c0.76632,0,1.375,0.61009,1.375,1.375v20.781c0,0.76581-0.60958,1.3438-1.375,1.3438h-20.781c-0.76632,0-1.375-0.57884-1.375-1.3438v-20.781c0-0.76581,0.60958-1.375,1.375-1.375z"/>
<path id="path87" style="baseline-shift:baseline;block-progression:tb;color:#000000;direction:ltr;text-indent:0;text-align:start;enable-background:accumulate;text-transform:none;" fill="#f4f4f4" d="m395.94,133.84c-1.8472,0-3.375,1.5273-3.375,3.375v20.781c0,1.8466,1.5267,3.3438,3.375,3.3438h20.75c1.8466,0,3.375-1.4961,3.375-3.3438v-20.781c0-1.8466-1.5273-3.375-3.375-3.375h-20.75zm0,2,20.75,0c0.76632,0,1.375,0.60958,1.375,1.375v20.781c0,0.76632-0.60958,1.3438-1.375,1.3438h-20.75c-0.76773,0-1.375-0.57833-1.375-1.3438v-20.781c0-0.76632,0.60817-1.375,1.375-1.375z"/>
<path id="path89" style="baseline-shift:baseline;block-progression:tb;color:#000000;direction:ltr;text-indent:0;text-align:start;enable-background:accumulate;text-transform:none;" fill="#f4f4f4" d="m425.25,133.84c-1.8472,0-3.375,1.5273-3.375,3.375v20.781c0,1.8466,1.5267,3.3438,3.375,3.3438h20.781c1.8466,0,3.3438-1.4956,3.3438-3.3438v-20.781c0-1.8471-1.4961-3.375-3.3438-3.375h-20.781zm0,2,20.781,0c0.76632,0,1.3438,0.61009,1.3438,1.375v20.781c0,0.76581-0.57833,1.3438-1.3438,1.3438h-20.781c-0.76773,0-1.375-0.57833-1.375-1.3438v-20.781c0-0.76632,0.60817-1.375,1.375-1.375z"/>
<path id="path91" style="baseline-shift:baseline;block-progression:tb;color:#000000;direction:ltr;text-indent:0;text-align:start;enable-background:accumulate;text-transform:none;" fill="#f4f4f4" d="m528.94,133.84c-1.8472,0-3.375,1.5273-3.375,3.375v20.781c0,1.8466,1.5267,3.3438,3.375,3.3438h37.719c1.8466,0,3.375-1.4956,3.375-3.3438v-20.781c0-1.8471-1.5273-3.375-3.375-3.375h-37.719zm0,2,37.719,0c0.76632,0,1.375,0.61009,1.375,1.375v20.781c0,0.76581-0.60958,1.3438-1.375,1.3438h-37.719c-0.76773,0-1.375-0.57833-1.375-1.3438v-20.781c0-0.76632,0.60817-1.375,1.375-1.375z"/>
<path id="path93" style="baseline-shift:baseline;block-progression:tb;color:#000000;direction:ltr;text-indent:0;text-align:start;enable-background:accumulate;text-transform:none;" fill="#f4f4f4" d="m454.31,133.84c-1.8466,0-3.375,1.5268-3.375,3.375v20.781c0,1.8471,1.5273,3.3438,3.375,3.3438h34.969c1.8472,0,3.375-1.4961,3.375-3.3438v-20.781c0-1.8466-1.5267-3.375-3.375-3.375h-34.969zm0,2,34.969,0c0.76773,0,1.375,0.60958,1.375,1.375v20.781c0,0.76632-0.60817,1.3438-1.375,1.3438h-34.969c-0.76632,0-1.375-0.57884-1.375-1.3438v-20.781c0-0.76581,0.60958-1.375,1.375-1.375z"/>
<path id="path95" style="baseline-shift:baseline;block-progression:tb;color:#000000;direction:ltr;text-indent:0;text-align:start;enable-background:accumulate;text-transform:none;" fill="#f4f4f4" d="m439.19,104.84c-1.8472,0-3.375,1.5267-3.375,3.375v20.781c0,1.8466,1.5267,3.375,3.375,3.375h20.781c1.8466,0,3.3438-1.5268,3.3438-3.375v-20.781c0-1.8483-1.4966-3.375-3.3438-3.375h-20.781zm0,2,20.781,0c0.76683,0,1.3438,0.60727,1.3438,1.375v20.781c0,0.76581-0.57833,1.375-1.3438,1.375h-20.781c-0.76773,0-1.375-0.60958-1.375-1.375v-20.781c0-0.76773,0.60817-1.375,1.375-1.375z"/>
<path id="path97" style="baseline-shift:baseline;block-progression:tb;color:#000000;direction:ltr;text-indent:0;text-align:start;enable-background:accumulate;text-transform:none;" fill="#f4f4f4" d="m20.781,162.84c-1.8467,0-3.375,1.5267-3.375,3.375v20.75c0,1.8471,1.5273,3.375,3.375,3.375h20.781c1.8472,0,3.3438-1.5273,3.3438-3.375v-20.75c0-1.8477-1.4966-3.375-3.3438-3.375h-20.781zm0,2,20.781,0c0.76683,0,1.3438,0.60868,1.3438,1.375v20.75c0,0.76632-0.57692,1.375-1.3438,1.375h-20.781c-0.76632,0-1.375-0.61009-1.375-1.375v-20.75c0-0.76773,0.60766-1.375,1.375-1.375z"/>
<path id="path99" style="baseline-shift:baseline;block-progression:tb;color:#000000;direction:ltr;text-indent:0;text-align:start;enable-background:accumulate;text-transform:none;" fill="#f4f4f4" d="m50.094,162.84c-1.8467,0-3.375,1.5267-3.375,3.375v20.75c0,1.8471,1.5273,3.375,3.375,3.375h20.781c1.8472,0,3.375-1.5273,3.375-3.375v-20.75c0-1.8477-1.5278-3.375-3.375-3.375h-20.781zm0,2,20.781,0c0.76683,0,1.375,0.60868,1.375,1.375v20.75c0,0.76632-0.60817,1.375-1.375,1.375h-20.781c-0.76632,0-1.375-0.61009-1.375-1.375v-20.75c0-0.76773,0.60766-1.375,1.375-1.375z"/>
<path id="path101" style="baseline-shift:baseline;block-progression:tb;color:#000000;direction:ltr;text-indent:0;text-align:start;enable-background:accumulate;text-transform:none;" fill="#f4f4f4" d="m79.406,162.84c-1.8467,0-3.3438,1.5267-3.3438,3.375v20.75c0,1.8471,1.4961,3.375,3.3438,3.375h20.781c1.6827,0,3.0434-1.2851,3.2812-2.9062a1.0001,1.0001,0,0,0,0.0312,-0.0937,1.0001,1.0001,0,0,0,0.0625,-0.375v-20.75c0-1.8477-1.5278-3.375-3.375-3.375h-20.781zm0,2,20.781,0c0.76683,0,1.375,0.60868,1.375,1.375v20.594a1.0001,1.0001,0,0,0,0,0.0937v0.0625c0,0.76632-0.60817,1.375-1.375,1.375h-20.781c-0.76632,0-1.3438-0.61009-1.3438-1.375v-20.75c0-0.76773,0.57641-1.375,1.3438-1.375z"/>
<path id="path103" style="baseline-shift:baseline;block-progression:tb;color:#000000;direction:ltr;text-indent:0;text-align:start;enable-background:accumulate;text-transform:none;" fill="#f4f4f4" d="m108.75,162.84c-1.8467,0-3.375,1.5267-3.375,3.375v20.75c0,1.8471,1.5273,3.375,3.375,3.375h20.781c1.8472,0,3.3438-1.5273,3.3438-3.375v-20.75c0-1.8477-1.4966-3.375-3.3438-3.375h-20.781zm0,2,20.781,0c0.76683,0,1.3438,0.60868,1.3438,1.375v20.75c0,0.76632-0.57692,1.375-1.3438,1.375h-20.781c-0.76632,0-1.375-0.61009-1.375-1.375v-20.75c0-0.76773,0.60766-1.375,1.375-1.375z"/>
<path id="path105" style="baseline-shift:baseline;block-progression:tb;color:#000000;direction:ltr;text-indent:0;text-align:start;enable-background:accumulate;text-transform:none;" fill="#f4f4f4" d="m138.06,162.84c-1.8467,0-3.375,1.5267-3.375,3.375v20.75c0,1.8471,1.5273,3.375,3.375,3.375h20.781c1.8472,0,3.375-1.5273,3.375-3.375v-20.75c0-1.8477-1.5278-3.375-3.375-3.375h-20.781zm0,2,20.781,0c0.76683,0,1.375,0.60868,1.375,1.375v20.75c0,0.76632-0.60817,1.375-1.375,1.375h-20.781c-0.76632,0-1.375-0.61009-1.375-1.375v-20.75c0-0.76773,0.60766-1.375,1.375-1.375z"/>
<path id="path107" style="baseline-shift:baseline;block-progression:tb;color:#000000;direction:ltr;text-indent:0;text-align:start;enable-background:accumulate;text-transform:none;" fill="#f4f4f4" d="m167.38,162.84c-1.8467,0-3.3438,1.5267-3.3438,3.375v20.75c0,1.8466,1.4955,3.375,3.3438,3.375h20.781c1.8466,0,3.375-1.5268,3.375-3.375v-20.75c0-1.8477-1.5278-3.375-3.375-3.375h-20.781zm0,2,20.781,0c0.76683,0,1.375,0.60868,1.375,1.375v20.75c0,0.76581-0.60958,1.375-1.375,1.375h-20.781c-0.76773,0-1.3438-0.60958-1.3438-1.375v-20.75c0-0.76773,0.57641-1.375,1.3438-1.375z"/>
<path id="path109" style="baseline-shift:baseline;block-progression:tb;color:#000000;direction:ltr;text-indent:0;text-align:start;enable-background:accumulate;text-transform:none;" fill="#f4f4f4" d="m196.72,162.84c-1.8461,0-3.375,1.5262-3.375,3.375v20.75c0,1.8471,1.5273,3.375,3.375,3.375h20.781c1.8472,0,3.3438-1.5273,3.3438-3.375v-20.75c0-1.8477-1.4966-3.375-3.3438-3.375h-20.781zm0,2,20.781,0c0.76683,0,1.3438,0.60868,1.3438,1.375v20.75c0,0.76632-0.57692,1.375-1.3438,1.375h-20.781c-0.76632,0-1.375-0.61009-1.375-1.375v-20.75c0-0.76723,0.60907-1.375,1.375-1.375z"/>
<path id="path111" style="baseline-shift:baseline;block-progression:tb;color:#000000;direction:ltr;text-indent:0;text-align:start;enable-background:accumulate;text-transform:none;" fill="#f4f4f4" d="m226.03,162.84c-1.8472,0-3.375,1.5272-3.375,3.375v20.75c0,1.8466,1.5267,3.375,3.375,3.375h20.781c1.8472,0,3.375-1.5273,3.375-3.375v-20.75c0-1.8477-1.5278-3.375-3.375-3.375h-20.781zm0,2,20.781,0c0.76683,0,1.375,0.60868,1.375,1.375v20.75c0,0.76632-0.60817,1.375-1.375,1.375h-20.781c-0.76773,0-1.375-0.60958-1.375-1.375v-20.75c0-0.76824,0.60625-1.375,1.375-1.375z"/>
<path id="path113" style="baseline-shift:baseline;block-progression:tb;color:#000000;direction:ltr;text-indent:0;text-align:start;enable-background:accumulate;text-transform:none;" fill="#f4f4f4" d="m255.34,162.84c-1.8461,0-3.3438,1.5262-3.3438,3.375v20.75c0,1.8471,1.4961,3.375,3.3438,3.375h20.781c1.8472,0,3.375-1.5273,3.375-3.375v-20.75c0-1.8477-1.5278-3.375-3.375-3.375h-20.781zm0,2,20.781,0c0.76683,0,1.375,0.60868,1.375,1.375v20.75c0,0.76632-0.60817,1.375-1.375,1.375h-20.781c-0.76632,0-1.3438-0.61009-1.3438-1.375v-20.75c0-0.76723,0.57782-1.375,1.3438-1.375z"/>
<path id="path115" style="baseline-shift:baseline;block-progression:tb;color:#000000;direction:ltr;text-indent:0;text-align:start;enable-background:accumulate;text-transform:none;" fill="#f4f4f4" d="m284.69,162.84c-1.8467,0-3.375,1.5267-3.375,3.375v20.75c0,1.8471,1.5273,3.375,3.375,3.375h20.781c1.8466,0,3.3438-1.5273,3.3438-3.375v-20.75c0-1.8472-1.4966-3.375-3.3438-3.375h-20.781zm0,2,20.781,0c0.76683,0,1.3438,0.60817,1.3438,1.375v20.75c0,0.76632-0.57833,1.375-1.3438,1.375h-20.781c-0.76632,0-1.375-0.61009-1.375-1.375v-20.75c0-0.76773,0.60766-1.375,1.375-1.375z"/>
<path id="path117" style="baseline-shift:baseline;block-progression:tb;color:#000000;direction:ltr;text-indent:0;text-align:start;enable-background:accumulate;text-transform:none;" fill="#f4f4f4" d="m314,162.84c-1.8467,0-3.375,1.5267-3.375,3.375v20.75c0,1.8466,1.5267,3.375,3.375,3.375h20.781c1.8466,0,3.375-1.5268,3.375-3.375v-20.75c0-1.8477-1.5278-3.375-3.375-3.375h-20.781zm0,2,20.781,0c0.76683,0,1.375,0.60868,1.375,1.375v20.75c0,0.76581-0.60958,1.375-1.375,1.375h-20.781c-0.76773,0-1.375-0.60958-1.375-1.375v-20.75c0-0.76773,0.60766-1.375,1.375-1.375z"/>
<path id="path119" style="baseline-shift:baseline;block-progression:tb;color:#000000;direction:ltr;text-indent:0;text-align:start;enable-background:accumulate;text-transform:none;" fill="#f4f4f4" d="m343.31,162.84c-1.8461,0-3.3438,1.5267-3.3438,3.375v20.75c0,1.8466,1.4961,3.375,3.3438,3.375h20.781c1.8466,0,3.375-1.5268,3.375-3.375v-20.75c0-1.8477-1.5278-3.375-3.375-3.375h-20.781zm0,2,20.781,0c0.76683,0,1.375,0.60868,1.375,1.375v20.75c0,0.76581-0.60958,1.375-1.375,1.375h-20.781c-0.76632,0-1.3438-0.60958-1.3438-1.375v-20.75c0-0.76773,0.57782-1.375,1.3438-1.375z"/>
<path id="path121" style="baseline-shift:baseline;block-progression:tb;color:#000000;direction:ltr;text-indent:0;text-align:start;enable-background:accumulate;text-transform:none;" fill="#f4f4f4" d="m372.66,162.84c-1.8467,0-3.375,1.5267-3.375,3.375v20.75c0,1.8466,1.5267,3.375,3.375,3.375h20.781c1.8466,0,3.3438-1.5268,3.3438-3.375v-20.75c0-1.8477-1.4966-3.375-3.3438-3.375h-20.781zm0,2,20.781,0c0.76683,0,1.3438,0.60868,1.3438,1.375v20.75c0,0.76581-0.57833,1.375-1.3438,1.375h-20.781c-0.76773,0-1.375-0.60958-1.375-1.375v-20.75c0-0.76773,0.60766-1.375,1.375-1.375z"/>
<path id="path123" style="baseline-shift:baseline;block-progression:tb;color:#000000;direction:ltr;text-indent:0;text-align:start;enable-background:accumulate;text-transform:none;" fill="#f4f4f4" d="m401.97,162.84c-1.8461,0-3.375,1.5262-3.375,3.375v20.75c0,1.8471,1.5273,3.375,3.375,3.375h20.781c1.8466,0,3.375-1.5273,3.375-3.375v-20.75c0-1.8472-1.5278-3.375-3.375-3.375h-20.781zm0,2,20.781,0c0.76683,0,1.375,0.60817,1.375,1.375v20.75c0,0.76632-0.60958,1.375-1.375,1.375h-20.781c-0.76632,0-1.375-0.61009-1.375-1.375v-20.75c0-0.76723,0.60907-1.375,1.375-1.375z"/>
<path id="path125" style="baseline-shift:baseline;block-progression:tb;color:#000000;direction:ltr;text-indent:0;text-align:start;enable-background:accumulate;text-transform:none;" fill="#f4f4f4" d="m528.94,162.84c-1.8467,0-3.375,1.5267-3.375,3.375v20.75c0,1.8466,1.5267,3.375,3.375,3.375h37.719c1.8466,0,3.375-1.5268,3.375-3.375v-20.75c0-1.8477-1.5278-3.375-3.375-3.375h-37.719zm0,2,37.719,0c0.76683,0,1.375,0.60868,1.375,1.375v20.75c0,0.76581-0.60958,1.375-1.375,1.375h-37.719c-0.76773,0-1.375-0.60958-1.375-1.375v-20.75c0-0.76773,0.60766-1.375,1.375-1.375z"/>
<path id="path127" style="baseline-shift:baseline;block-progression:tb;color:#000000;direction:ltr;text-indent:0;text-align:start;enable-background:accumulate;text-transform:none;" fill="#f4f4f4" d="m432.09,162.84c-1.8467,0-3.375,1.5267-3.375,3.375v20.75c0,1.8466,1.5267,3.375,3.375,3.375h48.781c1.8466,0,3.3438-1.5268,3.3438-3.375v-20.75c0-1.8477-1.4966-3.375-3.3438-3.375h-48.781zm0,2,48.781,0c0.76683,0,1.3438,0.60868,1.3438,1.375v20.75c0,0.76581-0.57833,1.375-1.3438,1.375h-48.781c-0.76773,0-1.375-0.60958-1.375-1.375v-20.75c0-0.76773,0.60766-1.375,1.375-1.375z"/>
<path id="path129" style="baseline-shift:baseline;block-progression:tb;color:#000000;direction:ltr;text-indent:0;text-align:start;enable-background:accumulate;text-transform:none;" fill="#f4f4f4" d="m20.781,191.84c-1.8467,0-3.375,1.4955-3.375,3.3438v20.781c0,1.8471,1.5273,3.375,3.375,3.375h20.781c1.8472,0,3.3438-1.5273,3.3438-3.375v-20.781c0-1.8477-1.4966-3.3438-3.3438-3.3438h-20.781zm0,2,20.781,0c0.76683,0,1.3438,0.57743,1.3438,1.3438v20.781c0,0.76632-0.57692,1.375-1.3438,1.375h-20.781c-0.76632,0-1.375-0.61009-1.375-1.375v-20.781c0-0.76773,0.60766-1.3438,1.375-1.3438z"/>
<path id="path131" style="baseline-shift:baseline;block-progression:tb;color:#000000;direction:ltr;text-indent:0;text-align:start;enable-background:accumulate;text-transform:none;" fill="#f4f4f4" d="m50.094,191.84c-1.8467,0-3.375,1.4955-3.375,3.3438v20.781c0,1.8471,1.5273,3.375,3.375,3.375h34.969c1.682,0,3.0424-1.2861,3.2812-2.9062a1.0001,1.0001,0,0,0,0,-0.0312c0.0031-0.0224,0.02861-0.0399,0.03125-0.0625a1.0001,1.0001,0,0,0,0.0625,-0.3125,1.0001,1.0001,0,0,0,0,-0.0625v-20.781c0-1.8477-1.5278-3.3438-3.375-3.3438h-34.969zm0,2,34.969,0c0.76683,0,1.375,0.57743,1.375,1.3438v20.719,0.0625c0,0.76632-0.60817,1.375-1.375,1.375h-34.969c-0.76632,0-1.375-0.61009-1.375-1.375v-20.781c0-0.76773,0.60766-1.3438,1.375-1.3438z"/>
<path id="path133" style="baseline-shift:baseline;block-progression:tb;color:#000000;direction:ltr;text-indent:0;text-align:start;enable-background:accumulate;text-transform:none;" fill="#f4f4f4" d="m93.625,191.84c-1.8467,0-3.375,1.4955-3.375,3.3438v20.781c0,1.8471,1.5273,3.375,3.375,3.375h20.781c1.8472,0,3.3438-1.5273,3.3438-3.375v-20.781c0-1.8477-1.4966-3.3438-3.3438-3.3438h-20.781zm0,2,20.781,0c0.76683,0,1.3438,0.57743,1.3438,1.3438v20.781c0,0.76632-0.57692,1.375-1.3438,1.375h-20.781c-0.76632,0-1.375-0.61009-1.375-1.375v-20.781c0-0.76773,0.60766-1.3438,1.375-1.3438z"/>
<path id="path135" style="baseline-shift:baseline;block-progression:tb;color:#000000;direction:ltr;text-indent:0;text-align:start;enable-background:accumulate;text-transform:none;" fill="#f4f4f4" d="m122.94,191.84c-1.8467,0-3.375,1.4955-3.375,3.3438v20.781c0,1.8471,1.5273,3.375,3.375,3.375h20.781c1.8472,0,3.375-1.5273,3.375-3.375v-20.781c0-1.8477-1.5278-3.3438-3.375-3.3438h-20.781zm0,2,20.781,0c0.76683,0,1.375,0.57743,1.375,1.3438v20.781c0,0.76632-0.60817,1.375-1.375,1.375h-20.781c-0.76632,0-1.375-0.61009-1.375-1.375v-20.781c0-0.76773,0.60766-1.3438,1.375-1.3438z"/>
<path id="path137" style="baseline-shift:baseline;block-progression:tb;color:#000000;direction:ltr;text-indent:0;text-align:start;enable-background:accumulate;text-transform:none;" fill="#f4f4f4" d="m152.28,191.84c-1.8467,0-3.375,1.4955-3.375,3.3438v20.781c0,1.8471,1.5273,3.375,3.375,3.375h20.75c1.8472,0,3.375-1.5273,3.375-3.375v-20.781c0-1.8472-1.5272-3.3438-3.375-3.3438h-20.75zm0,2,20.75,0c0.76824,0,1.375,0.57692,1.375,1.3438v20.781c0,0.76632-0.60817,1.375-1.375,1.375h-20.75c-0.76632,0-1.375-0.61009-1.375-1.375v-20.781c0-0.76773,0.60766-1.3438,1.375-1.3438z"/>
<path id="path139" style="baseline-shift:baseline;block-progression:tb;color:#000000;direction:ltr;text-indent:0;text-align:start;enable-background:accumulate;text-transform:none;" fill="#f4f4f4" d="m101,220.81c-1.8467,0-3.375,1.5267-3.375,3.375v20.781c0,1.8477,1.5273,3.375,3.375,3.375h258.62c1.8472,0,3.375-1.5267,3.375-3.375v-20.781c0-1.8472-1.5272-3.375-3.375-3.375h-258.62zm0,2,258.62,0c0.76824,0,1.375,0.60817,1.375,1.375v20.781c0,0.76773-0.60817,1.375-1.375,1.375h-258.62c-0.76632,0-1.375-0.60868-1.375-1.375v-20.781c0-0.76773,0.60766-1.375,1.375-1.375z"/>
<path id="path141" style="baseline-shift:baseline;block-progression:tb;color:#000000;direction:ltr;text-indent:0;text-align:start;enable-background:accumulate;text-transform:none;" fill="#f4f4f4" d="m181.59,191.84c-1.8467,0-3.375,1.4955-3.375,3.3438v20.781c0,1.8466,1.5267,3.375,3.375,3.375h20.781c1.8472,0,3.3438-1.5273,3.3438-3.375v-20.781c0-1.8477-1.4966-3.3438-3.3438-3.3438h-20.781zm0,2,20.781,0c0.76683,0,1.3438,0.57743,1.3438,1.3438v20.781c0,0.76632-0.57692,1.375-1.3438,1.375h-20.781c-0.76773,0-1.375-0.60958-1.375-1.375v-20.781c0-0.76773,0.60766-1.3438,1.375-1.3438z"/>
<path id="path143" style="baseline-shift:baseline;block-progression:tb;color:#000000;direction:ltr;text-indent:0;text-align:start;enable-background:accumulate;text-transform:none;" fill="#f4f4f4" d="m210.91,191.84c-1.8467,0-3.375,1.4955-3.375,3.3438v20.781c0,1.8471,1.5273,3.375,3.375,3.375h20.781c1.8472,0,3.375-1.5273,3.375-3.375v-20.781c0-1.8472-1.5272-3.3438-3.375-3.3438h-20.781zm0,2,20.781,0c0.76824,0,1.375,0.57692,1.375,1.3438v20.781c0,0.76632-0.60817,1.375-1.375,1.375h-20.781c-0.76632,0-1.375-0.61009-1.375-1.375v-20.781c0-0.76773,0.60766-1.3438,1.375-1.3438z"/>
<path id="path145" style="baseline-shift:baseline;block-progression:tb;color:#000000;direction:ltr;text-indent:0;text-align:start;enable-background:accumulate;text-transform:none;" fill="#f4f4f4" d="m240.25,191.84c-1.8461,0-3.375,1.4955-3.375,3.3438v20.781c0,1.8466,1.5273,3.375,3.375,3.375h20.75c1.8472,0,3.375-1.5273,3.375-3.375v-20.781c0-1.8477-1.5278-3.3438-3.375-3.3438h-20.75zm0,2,20.75,0c0.76683,0,1.375,0.57743,1.375,1.3438v20.781c0,0.76632-0.60817,1.375-1.375,1.375h-20.75c-0.76632,0-1.375-0.60958-1.375-1.375v-20.781c0-0.76773,0.60907-1.3438,1.375-1.3438z"/>
<path id="path147" style="baseline-shift:baseline;block-progression:tb;color:#000000;direction:ltr;text-indent:0;text-align:start;enable-background:accumulate;text-transform:none;" fill="#f4f4f4" d="m269.56,191.84c-1.8467,0-3.375,1.4955-3.375,3.3438v20.781c0,1.8471,1.5273,3.375,3.375,3.375h20.781c1.8472,0,3.3438-1.5273,3.3438-3.375v-20.781c0-1.8472-1.496-3.3438-3.3438-3.3438h-20.781zm0,2,20.781,0c0.76824,0,1.3438,0.57692,1.3438,1.3438v20.781c0,0.76632-0.57692,1.375-1.3438,1.375h-20.781c-0.76632,0-1.375-0.61009-1.375-1.375v-20.781c0-0.76773,0.60766-1.3438,1.375-1.3438z"/>
<path id="path149" style="baseline-shift:baseline;block-progression:tb;color:#000000;direction:ltr;text-indent:0;text-align:start;enable-background:accumulate;text-transform:none;" fill="#f4f4f4" d="m298.88,191.84c-1.8461,0-3.375,1.4955-3.375,3.3438v20.781c0,1.8466,1.5273,3.375,3.375,3.375h20.781c1.8466,0,3.375-1.5268,3.375-3.375v-20.781c0-1.8477-1.5278-3.3438-3.375-3.3438h-20.781zm0,2,20.781,0c0.76683,0,1.375,0.57743,1.375,1.3438v20.781c0,0.76581-0.60958,1.375-1.375,1.375h-20.781c-0.76632,0-1.375-0.60958-1.375-1.375v-20.781c0-0.76773,0.60907-1.3438,1.375-1.3438z"/>
<path id="path151" style="baseline-shift:baseline;block-progression:tb;color:#000000;direction:ltr;text-indent:0;text-align:start;enable-background:accumulate;text-transform:none;" fill="#f4f4f4" d="m328.22,191.84c-1.8461,0-3.375,1.495-3.375,3.3438v20.781c0,1.8471,1.5273,3.375,3.375,3.375h20.75c1.8466,0,3.375-1.5268,3.375-3.375v-20.781c0-1.8477-1.5278-3.3438-3.375-3.3438h-20.75zm0,2,20.75,0c0.76683,0,1.375,0.57743,1.375,1.3438v20.781c0,0.76581-0.60958,1.375-1.375,1.375h-20.75c-0.76632,0-1.375-0.61009-1.375-1.375v-20.781c0-0.76723,0.60907-1.3438,1.375-1.3438z"/>
<path id="path153" style="baseline-shift:baseline;block-progression:tb;color:#000000;direction:ltr;text-indent:0;text-align:start;enable-background:accumulate;text-transform:none;" fill="#f4f4f4" d="m357.53,191.84c-1.8461,0-3.375,1.495-3.375,3.3438v20.781c0,1.8471,1.5273,3.375,3.375,3.375h20.781c1.8466,0,3.3438-1.5268,3.3438-3.375v-20.781c0-1.8477-1.4966-3.3438-3.3438-3.3438h-20.781zm0,2,20.781,0c0.76683,0,1.3438,0.57743,1.3438,1.3438v20.781c0,0.76581-0.57833,1.375-1.3438,1.375h-20.781c-0.76632,0-1.375-0.61009-1.375-1.375v-20.781c0-0.76723,0.60907-1.3438,1.375-1.3438z"/>
<path id="path155" style="baseline-shift:baseline;block-progression:tb;color:#000000;direction:ltr;text-indent:0;text-align:start;enable-background:accumulate;text-transform:none;" fill="#f4f4f4" d="m386.84,191.84c-1.8461,0-3.375,1.495-3.375,3.3438v20.781c0,1.8471,1.5273,3.375,3.375,3.375h36.156c1.8466,0,3.375-1.5268,3.375-3.375v-20.781c0-1.8477-1.5278-3.3438-3.375-3.3438h-36.156zm0,2,36.156,0c0.76683,0,1.375,0.57743,1.375,1.3438v20.781c0,0.76581-0.60958,1.375-1.375,1.375h-36.156c-0.76632,0-1.375-0.61009-1.375-1.375v-20.781c0-0.76723,0.60907-1.3438,1.375-1.3438z"/>
<path id="path157" style="baseline-shift:baseline;block-progression:tb;color:#000000;direction:ltr;text-indent:0;text-align:start;enable-background:accumulate;text-transform:none;" fill="#f4f4f4" d="m430.78,191.84c-1.8461,0-3.375,1.4955-3.375,3.3438v20.781c0,1.8466,1.5273,3.375,3.375,3.375h20.75c1.8472,0,3.375-1.5273,3.375-3.375v-20.781c0-1.8472-1.5272-3.3438-3.375-3.3438h-20.75zm0,2,20.75,0c0.76824,0,1.375,0.57692,1.375,1.3438v20.781c0,0.76632-0.60817,1.375-1.375,1.375h-20.75c-0.76632,0-1.375-0.60958-1.375-1.375v-20.781c0-0.76773,0.60907-1.3438,1.375-1.3438z"/>
<path id="path159" style="baseline-shift:baseline;block-progression:tb;color:#000000;direction:ltr;text-indent:0;text-align:start;enable-background:accumulate;text-transform:none;" fill="#f4f4f4" d="m528.94,191.84c-1.8467,0-3.375,1.4955-3.375,3.3438v20.781c0,1.8466,1.5267,3.375,3.375,3.375h37.719c1.8466,0,3.375-1.5268,3.375-3.375v-20.781c0-1.8477-1.5278-3.3438-3.375-3.3438h-37.719zm0,2,37.719,0c0.76683,0,1.375,0.57743,1.375,1.3438v20.781c0,0.76581-0.60958,1.375-1.375,1.375h-37.719c-0.76773,0-1.375-0.60958-1.375-1.375v-20.781c0-0.76773,0.60766-1.3438,1.375-1.3438z"/>
<path id="path161" style="baseline-shift:baseline;block-progression:tb;color:#000000;direction:ltr;text-indent:0;text-align:start;enable-background:accumulate;text-transform:none;" fill="#f4f4f4" d="m460.09,191.84c-1.8467,0-3.375,1.4955-3.375,3.3438v20.781c0,1.8466,1.5267,3.375,3.375,3.375h20.781c1.8466,0,3.3438-1.5268,3.3438-3.375v-20.781c0-1.8477-1.4966-3.3438-3.3438-3.3438h-20.781zm0,2,20.781,0c0.76683,0,1.3438,0.57743,1.3438,1.3438v20.781c0,0.76581-0.57833,1.375-1.3438,1.375h-20.781c-0.76773,0-1.375-0.60958-1.375-1.375v-20.781c0-0.76773,0.60766-1.3438,1.375-1.3438z"/>
<path id="path163" style="baseline-shift:baseline;block-progression:tb;color:#000000;direction:ltr;text-indent:0;text-align:start;enable-background:accumulate;text-transform:none;" fill="#f4f4f4" d="m468.5,104.84c-1.8466,0-3.375,1.5262-3.375,3.375v20.781c0,1.8471,1.5273,3.375,3.375,3.375h20.781c1.8472,0,3.375-1.5273,3.375-3.375v-20.781c0-1.8478-1.5272-3.375-3.375-3.375h-20.781zm0,2,20.781,0c0.76824,0,1.375,0.60676,1.375,1.375v20.781c0,0.76632-0.60817,1.375-1.375,1.375h-20.781c-0.76632,0-1.375-0.61009-1.375-1.375v-20.781c0-0.76723,0.60958-1.375,1.375-1.375z"/>
<path id="path165" style="baseline-shift:baseline;block-progression:tb;color:#000000;direction:ltr;text-indent:0;text-align:start;enable-background:accumulate;text-transform:none;" fill="#f4f4f4" d="m528.94,104.84c-1.8472,0-3.375,1.5267-3.375,3.375v20.781c0,1.8466,1.5267,3.375,3.375,3.375h37.719c1.8466,0,3.375-1.5268,3.375-3.375v-20.781c0-1.8483-1.5278-3.375-3.375-3.375h-37.719zm0,2,37.719,0c0.76683,0,1.375,0.60727,1.375,1.375v20.781c0,0.76581-0.60958,1.375-1.375,1.375h-37.719c-0.76773,0-1.375-0.60958-1.375-1.375v-20.781c0-0.76773,0.60817-1.375,1.375-1.375z"/>
<path id="polygon167" style="baseline-shift:baseline;block-progression:tb;color:#000000;direction:ltr;text-indent:0;text-align:start;enable-background:accumulate;text-transform:none;" fill="#f4f4f4" d="m22.906,101.56a1.0001,1.0001,0,0,0,-0.90625,1v57h-6.875a1.0001,1.0001,0,0,0,-1,1v61.906a1.0001,1.0001,0,0,0,1,1h78.688v27.406a1.0001,1.0001,0,0,0,1,1h270.22a1.0001,1.0001,0,0,0,1,-1v-27.781h120.5a1.0001,1.0001,0,0,0,1,-1v-57h7.6562a1.0001,1.0001,0,0,0,1,-1v-61.531a1.0001,1.0001,0,0,0,-1,-1h-472.19a1.0001,1.0001,0,0,0,-0.09375,0zm1.0938,2,470.19,0,0,59.531-7.6562,0a1.0001,1.0001,0,0,0,-1,1v57h-120.5a1.0001,1.0001,0,0,0,-1,1v27.781h-268.22v-27.406a1.0001,1.0001,0,0,0,-1,-1h-78.688v-59.906h6.875a1.0001,1.0001,0,0,0,1,-1v-57z"/>
<path id="rect169" style="baseline-shift:baseline;block-progression:tb;color:#000000;direction:ltr;text-indent:0;text-align:start;enable-background:accumulate;text-transform:none;" fill="#f4f4f4" d="m523.69,102.16a1.0001,1.0001,0,0,0,-0.875,1v118.34a1.0001,1.0001,0,0,0,1,1h47.719a1.0001,1.0001,0,0,0,1,-1v-118.34a1.0001,1.0001,0,0,0,-1,-1h-47.719a1.0001,1.0001,0,0,0,-0.125,0zm1.125,2,45.719,0,0,116.34-45.719,0,0-116.34z"/>
<path id="path171" style="baseline-shift:baseline;block-progression:tb;color:#000000;direction:ltr;text-indent:0;text-align:start;enable-background:accumulate;text-transform:none;" fill="#f4f4f4" d="m10,91.188c-2.5012,0-4.5625,2.03-4.5625,4.5312v163.31c0,2.5012,2.061,4.5625,4.5625,4.5625h596.84c2.5015,0,4.5312-2.061,4.5312-4.5625v-163.31c0-2.5015-2.03-4.5312-4.5312-4.5312l-596.84-0.001zm0,2,596.84,0c1.4208,0,2.5312,1.1108,2.5312,2.5312v163.31c0,1.4205-1.1108,2.5625-2.5312,2.5625h-596.84c-1.4205,0-2.5625-1.1417-2.5625-2.5625v-163.31c0-1.422,1.1417-2.532,2.5625-2.532z"/>
<path id="line173" style="baseline-shift:baseline;block-progression:tb;color:#000000;direction:ltr;text-indent:0;text-align:start;enable-background:accumulate;text-transform:none;" fill="#f4f4f4" d="m614.06,43.5a1.0001,1.0001,0,0,0,-1,1.0312v3.4688a1.0001,1.0001,0,1,0,2,0v-3.4688a1.0001,1.0001,0,0,0,-1,-1.0312z"/>
<path id="line175" style="baseline-shift:baseline;block-progression:tb;color:#000000;direction:ltr;text-indent:0;text-align:start;enable-background:accumulate;text-transform:none;" fill="#f4f4f4" d="m614.06,38.812a1.0001,1.0001,0,0,0,-1,1.0312v2.5a1.0001,1.0001,0,1,0,2,0v-2.5a1.0001,1.0001,0,0,0,-1,-1.0312z"/>
<path id="line177" style="baseline-shift:baseline;block-progression:tb;color:#000000;direction:ltr;text-indent:0;text-align:start;enable-background:accumulate;text-transform:none;" fill="#f4f4f4" d="m613.94,32.812a1.0001,1.0001,0,0,0,-0.875,1v3.9062a1.0001,1.0001,0,1,0,2,0v-3.9062a1.0001,1.0001,0,0,0,-1.125,-1z"/>
<path id="line179" style="baseline-shift:baseline;block-progression:tb;color:#000000;direction:ltr;text-indent:0;text-align:start;enable-background:accumulate;text-transform:none;" fill="#f4f4f4" d="m614.06,27.031a1.0001,1.0001,0,0,0,-1,1.0312v3.75a1.0001,1.0001,0,1,0,2,0v-3.75a1.0001,1.0001,0,0,0,-1,-1.0312z"/>
<path id="line181" style="baseline-shift:baseline;block-progression:tb;color:#000000;direction:ltr;text-indent:0;text-align:start;enable-background:accumulate;text-transform:none;" fill="#f4f4f4" d="m613.94,21.562a1.0001,1.0001,0,0,0,-0.875,1.0312v3.5a1.0001,1.0001,0,1,0,2,0v-3.5a1.0001,1.0001,0,0,0,-1.125,-1.0312z"/>
<path id="line183" style="baseline-shift:baseline;block-progression:tb;color:#000000;direction:ltr;text-indent:0;text-align:start;enable-background:accumulate;text-transform:none;" fill="#f4f4f4" d="m614.06,16.594a1.0001,1.0001,0,0,0,-1,1.0312v2.75a1.0001,1.0001,0,1,0,2,0v-2.75a1.0001,1.0001,0,0,0,-1,-1.0312z"/>
<path id="line185" style="baseline-shift:baseline;block-progression:tb;color:#000000;direction:ltr;text-indent:0;text-align:start;enable-background:accumulate;text-transform:none;" fill="#f4f4f4" d="m0.96875,16.594a1.0001,1.0001,0,0,0,-0.875,1v2.8125a1.0001,1.0001,0,1,0,2,0v-2.8125a1.0001,1.0001,0,0,0,-1.125,-1z"/>
<path id="line187" style="baseline-shift:baseline;block-progression:tb;color:#000000;direction:ltr;text-indent:0;text-align:start;enable-background:accumulate;text-transform:none;" fill="#f4f4f4" d="m0.875,21.531a1.0001,1.0001,0,0,0,-0.78125,1v3.5625a1.0001,1.0001,0,1,0,2,0v-3.5625a1.0001,1.0001,0,0,0,-1.2188,-1z"/>
<path id="line189" style="baseline-shift:baseline;block-progression:tb;color:#000000;direction:ltr;text-indent:0;text-align:start;enable-background:accumulate;text-transform:none;" fill="#f4f4f4" d="m0.875,27.5a1.0001,1.0001,0,0,0,-0.78125,1v3.25a1.0001,1.0001,0,1,0,2,0v-3.25a1.0001,1.0001,0,0,0,-1.2188,-1z"/>
<path id="line191" style="baseline-shift:baseline;block-progression:tb;color:#000000;direction:ltr;text-indent:0;text-align:start;enable-background:accumulate;text-transform:none;" fill="#f4f4f4" d="m0.875,32.875a1.0001,1.0001,0,0,0,-0.78125,1v3.6562a1.0001,1.0001,0,1,0,2,0v-3.6562a1.0001,1.0001,0,0,0,-1.2188,-1z"/>
<path id="line193" style="baseline-shift:baseline;block-progression:tb;color:#000000;direction:ltr;text-indent:0;text-align:start;enable-background:accumulate;text-transform:none;" fill="#f4f4f4" d="m0.875,38.938a1.0001,1.0001,0,0,0,-0.78125,1v2.5312a1.0001,1.0001,0,1,0,2,0v-2.5312a1.0001,1.0001,0,0,0,-1.2188,-1z"/>
<path id="line195" style="baseline-shift:baseline;block-progression:tb;color:#000000;direction:ltr;text-indent:0;text-align:start;enable-background:accumulate;text-transform:none;" fill="#f4f4f4" d="m0.96875,43.812a1.0001,1.0001,0,0,0,-0.875,1v2.9688a1.0001,1.0001,0,1,0,2,0v-2.9688a1.0001,1.0001,0,0,0,-1.125,-1z"/>
<path id="circle197" style="baseline-shift:baseline;block-progression:tb;color:#000000;direction:ltr;text-indent:0;text-align:start;enable-background:accumulate;text-transform:none;" fill="#f4f4f4" d="m548.78,24.188c-3.2273,0-5.875,2.6164-5.875,5.8438,0,3.2273,2.6477,5.875,5.875,5.875s5.875-2.6477,5.875-5.875-2.6477-5.8438-5.875-5.8438zm0,2c2.1464,0,3.875,1.6973,3.875,3.8438,0,2.1464-1.7286,3.875-3.875,3.875s-3.875-1.7286-3.875-3.875,1.7286-3.8438,3.875-3.8438z"/>
</svg>
