<?xml version="1.0" encoding="UTF-8" standalone="no"?>
<!-- Generator: Adobe Illustrator 13.0.0, SVG Export Plug-In . SVG Version: 6.00 Build 14948)  -->
<svg id="Layer_3" xmlns:rdf="http://www.w3.org/1999/02/22-rdf-syntax-ns#" xmlns="http://www.w3.org/2000/svg" xml:space="preserve" height="281.59px" viewBox="0 0 594.329 281.586" width="594.33px" version="1.2" y="0px" x="0px" xmlns:cc="http://creativecommons.org/ns#" xmlns:dc="http://purl.org/dc/elements/1.1/"><metadata id="metadata99"><rdf:RDF><cc:Work rdf:about=""><dc:format>image/svg+xml</dc:format><dc:type rdf:resource="http://purl.org/dc/dcmitype/StillImage"/><dc:title/></cc:Work></rdf:RDF></metadata>
<path id="path3" style="baseline-shift:baseline;block-progression:tb;color:#000000;direction:ltr;text-indent:0;text-align:start;enable-background:accumulate;text-transform:none;" fill="#f4f4f4" d="m117.97,4c-1.9002-0.046381-4.7366,0.00324-9.9062,0.09375-10.292,0.1802-61.389,0.375-62.562,0.375-0.82494,0-1.8187,0.31914-2.6562,1.1562-0.83758,0.83711-1.5951,2.128-2.4375,4.1875-0.27388,0.6696-0.7329,2.1752-1.4375,4.6875s-1.6358,5.9195-2.6875,10.062c-2.1,8.286-4.741,19.483-7.34,32.094-5.199,25.222-10.188,56.144-10.188,81.034v6.2188c0,24.89,4.9889,55.81,10.188,81.031,2.5993,12.611,5.2404,23.777,7.3438,32.062,1.0517,4.143,1.9829,7.5814,2.6875,10.094,0.7046,2.5123,1.1636,4.0179,1.4375,4.6875,0.84235,2.0594,1.6002,3.3499,2.4375,4.1875,0.83729,0.8376,1.8304,1.1562,2.6562,1.1562,1.1755,0,52.27,0.1948,62.562,0.375,5.1696,0.0905,8.0062,0.10849,9.9062,0.0625,1.9001-0.046,2.8818-0.18967,4.0938-0.46875,0.70312-0.16258,2.7545-0.74259,5.5938-1.5625s6.4179-1.8507,9.9062-2.875c6.9767-2.0486,13.656-4.0312,13.656-4.0312l-0.5625-1.9375s-6.6827,1.9836-13.656,4.0312c-3.4868,1.0238-7.041,2.0879-9.875,2.9062-2.834,0.81838-5.0246,1.4213-5.5,1.5312-1.1461,0.26392-1.8696,0.39349-3.6875,0.4375-1.8179,0.044-4.6753-0.003-9.8438-0.0937h-0.0312c-10.417-0.19-61.196-0.39-62.56-0.39-0.44419,0-0.72679-0.0391-1.25-0.5625s-1.2104-1.6007-2-3.5312c-0.13412-0.3279-0.64496-2.0084-1.3438-4.5-0.69879-2.4916-1.6394-5.8709-2.6875-10-2.0963-8.2582-4.7203-19.423-7.3125-32-5.184-25.15-10.156-56-10.156-80.62v-6.2188c0-24.623,4.9718-55.472,10.156-80.625,2.5922-12.577,5.2162-23.742,7.3125-32,1.0481-4.1291,1.9887-7.5397,2.6875-10.031,0.69879-2.4916,1.2096-4.1409,1.3438-4.4688,0.7896-1.9305,1.4768-3.0084,2-3.5312,0.52317-0.52289,0.80594-0.5625,1.25-0.5625,1.3639,0,52.144-0.19329,62.562-0.375h0.0312c5.17-0.093,8.03-0.1407,9.85-0.0963,1.8178,0.04437,2.5413,0.17307,3.6875,0.4375l0.21,0.0625c0.58452,0.14306,2.5602,0.68322,5.2812,1.4688,2.834,0.81814,6.3883,1.8514,9.875,2.875,6.9734,2.0473,13.656,4.0312,13.656,4.0312l0.5625-1.9062s-6.6797-1.983-13.656-4.0312c-3.4883-1.0241-7.0669-2.0553-9.9062-2.875-2.83-0.82-4.88-1.4003-5.59-1.5628-1.21-0.2796-2.19-0.4536-4.09-0.5z"/>
<path id="path5" style="baseline-shift:baseline;block-progression:tb;color:#000000;direction:ltr;text-indent:0;text-align:start;enable-background:accumulate;text-transform:none;" fill="#f4f4f4" d="m118.34,0.03125c-1.9-0.046251-4.7679-0.028011-9.9375,0.0625-10.272,0.17984-79.263,0.375-80.438,0.375-1.2543,0-2.5689,0.2277-3.7188,1.0625s-2.0798,2.1835-2.9062,4.2812c-0.25658,0.65123-0.71414,2.165-1.4062,4.6562-0.69212,2.4913-1.5889,5.8791-2.625,10-2.0722,8.2418-4.6847,19.418-7.25,32.094-5.1241,25.351-10.056,56.757-10.056,83.127v10.219c0,26.363,4.9319,57.774,10.062,83.125,2.5653,12.676,5.1778,23.821,7.25,32.062,1.0361,4.1208,1.9329,7.54,2.625,10.031,0.69212,2.4913,1.1497,4.005,1.4062,4.6562,0.82649,2.0978,1.7563,3.4467,2.9062,4.2812,1.15,0.83455,2.4646,1.0625,3.7188,1.0625,1.1745,0,70.166,0.16391,80.438,0.34375,5.1696,0.091,8.0373,0.14013,9.9375,0.0937,1.9002-0.0464,2.8824-0.18864,4.0938-0.46875,0.72484-0.16685,2.8796-0.79695,5.9062-1.6875s6.8248-2.0376,10.562-3.1562c7.4755-2.2374,14.656-4.4062,14.656-4.4062l-0.57-1.89s-7.184,2.1698-14.656,4.4062c-3.7361,1.1182-7.5414,2.2673-10.562,3.1562-3.0211,0.88892-5.3266,1.5204-5.7812,1.625v0.0312c-1.1456,0.26489-1.9012,0.36188-3.7188,0.40625-1.8176,0.0444-4.6754-0.003-9.8438-0.0937-10.403-0.18216-79.103-0.34375-80.469-0.34375-1.0438,0-1.8072-0.16205-2.5312-0.6875-0.72404-0.52545-1.4732-1.514-2.2188-3.4062-0.13643-0.34627-0.65719-1.9975-1.3438-4.4688-0.68656-2.4713-1.5924-5.8308-2.625-9.9375-2.0651-8.2135-4.6606-19.36-7.2188-32-5.1181-25.3-10.033-56.62-10.033-82.73v-10.22c0-26.11,4.9149-57.472,10.031-82.752,2.558-12.641,5.154-23.756,7.219-31.969,1.033-4.107,1.938-7.498,2.625-9.969,0.687-2.4713,1.207-4.0912,1.344-4.4375,0.745-1.8923,1.494-2.8806,2.219-3.4063,0.72411-0.5257,1.4876-0.6875,2.5312-0.6875,1.365,0,70.065-0.19284,80.469-0.375,5.1684-0.090489,8.026-0.10675,9.8438-0.0625,1.8178,0.044249,2.573,0.14231,3.7188,0.40625,0.45639,0.10544,2.7601,0.76713,5.7812,1.6562,3.0211,0.88912,6.8264,2.038,10.562,3.1562,7.48,2.2366,14.66,4.4062,14.66,4.4062l0.5625-1.9375s-7.1808-2.1689-14.656-4.4062c-3.7377-1.1187-7.5359-2.2343-10.562-3.125-3.02-0.8905-5.18-1.5202-5.9-1.6873-1.21-0.27906-2.2-0.4225-4.1-0.46875z"/>
<path id="path7" style="baseline-shift:baseline;block-progression:tb;color:#000000;direction:ltr;text-indent:0;text-align:start;enable-background:accumulate;text-transform:none;" fill="#f4f4f4" d="M151.66,267.22,149.94,268.25c1.9008,3.1673,4.065,4.75,6.4375,4.75h62.625,156.31,62.656c2.3718,0,4.5054-1.5827,6.4062-4.75l-1.7188-1.0312c-1.73,2.87-3.2,3.78-4.69,3.78h-62.66-156.31-62.625c-1.4974,0-2.9936-0.90658-4.7188-3.7812z"/>
<path id="path9" style="baseline-shift:baseline;block-progression:tb;color:#000000;direction:ltr;text-indent:0;text-align:start;enable-background:accumulate;text-transform:none;" fill="#f4f4f4" d="m476.34,4c-1.9001,0.046381-2.8824,0.22042-4.0938,0.5-0.70384,0.16245-2.7545,0.74282-5.5938,1.5625-2.8392,0.81968-6.3868,1.8509-9.875,2.875-6.9764,2.0482-13.656,4.0312-13.656,4.0312l0.5625,1.9062s6.6829-1.984,13.656-4.0312c3.4867-1.0236,7.0411-2.0569,9.875-2.875,2.8339-0.81814,4.9941-1.4217,5.4688-1.5312,1.1456-0.26442,1.9011-0.39313,3.7188-0.4375,1.8177-0.044369,4.6754,0.00326,9.8438,0.09375,10.384,0.1818,61.229,0.375,62.594,0.375,0.44406,0,0.69564,0.039583,1.2188,0.5625,0.52311,0.52292,1.2411,1.6007,2.0312,3.5312,0.13415,0.32818,0.64502,1.9772,1.3438,4.4688,0.69873,2.4916,1.6081,5.9021,2.6562,10.031,2.0962,8.2582,4.7515,19.423,7.3438,32,5.1846,25.153,10.156,56.002,10.156,80.625v6.2188c0,24.622-4.9717,55.472-10.156,80.625-2.5923,12.577-5.2475,23.742-7.3438,32-1.0481,4.1291-1.9575,7.5084-2.6562,10-0.69873,2.4916-1.2096,4.1718-1.3438,4.5-0.79017,1.9307-1.5081,3.0078-2.0312,3.5312-0.52314,0.52343-0.77456,0.5625-1.2188,0.5625-1.3645,0-52.21,0.1932-62.594,0.375-5.1684,0.0905-8.026,0.13776-9.8438,0.0937-1.8178-0.044-2.5732-0.17359-3.7188-0.4375-0.47537-0.10992-2.6348-0.71287-5.4688-1.5312-2.8339-0.81838-6.3883-1.8824-9.875-2.9062-6.9733-2.0477-13.656-4.0312-13.656-4.0312l-0.5625,1.9375s6.6798,1.9827,13.656,4.0312c3.4882,1.0243,7.0358,2.0551,9.875,2.875,2.8392,0.81991,4.8906,1.3999,5.5938,1.5625,1.2114,0.27909,2.1938,0.42276,4.0938,0.46875,1.9,0.046,4.7679,0.028,9.9375-0.0625,10.292-0.1802,61.387-0.375,62.562-0.375,0.82581,0,1.8191-0.31868,2.6562-1.1562,0.83711-0.83757,1.5947-2.1282,2.4375-4.1875,0.2736-0.66932,0.73297-2.1752,1.4375-4.6875s1.6046-5.9508,2.6562-10.094c2.1033-8.2859,4.7444-19.452,7.3438-32.062,5.1987-25.221,10.219-56.141,10.219-81.031v-6.2188c0-24.891-5.0201-55.81-10.219-81.031-2.6-12.604-5.25-23.801-7.35-32.087-1.05-4.142-1.95-7.55-2.65-10.062-0.71-2.512-1.17-4.018-1.44-4.6875-0.85-2.0595-1.6-3.3504-2.44-4.1875-0.83739-0.83708-1.8313-1.1562-2.6562-1.1562-1.1734,0-52.27-0.1948-62.562-0.375-5.17-0.0906-8.04-0.1402-9.94-0.0938z"/>
<path id="path11" style="baseline-shift:baseline;block-progression:tb;color:#000000;direction:ltr;text-indent:0;text-align:start;enable-background:accumulate;text-transform:none;" fill="#f4f4f4" d="m476,0.03125c-1.9,0.046251-2.9128,0.18973-4.125,0.46875-0.72233,0.16702-2.8799,0.79678-5.9062,1.6875-3.0264,0.89072-6.8248,2.0063-10.562,3.125-7.48,2.2373-14.66,4.4063-14.66,4.4063l0.59375,1.9375s7.1527-2.1698,14.625-4.4062c3.7362-1.1182,7.5415-2.2671,10.562-3.1562,3.021-0.88912,5.3563-1.5508,5.8125-1.6562,1.1468-0.26398,1.8698-0.362,3.6875-0.40625,1.8178-0.044249,4.6744-0.027989,9.8438,0.0625,10.405,0.18317,79.136,0.375,80.5,0.375,1.0442,0,1.8071,0.1618,2.5312,0.6875,0.72411,0.5257,1.4727,1.5139,2.2188,3.4062,0.13643,0.34628,0.62592,1.9662,1.3125,4.4375s1.5924,5.862,2.625,9.9688c2.0652,8.2136,4.6917,19.328,7.25,31.969,5.1166,25.281,10.031,56.638,10.031,82.75v10.219c0,26.113-4.9146,57.438-10.031,82.719-2.5583,12.64-5.1848,23.787-7.25,32-1.0326,4.1067-1.9384,7.4663-2.625,9.9375-0.68658,2.4712-1.1761,4.1224-1.3125,4.4688-0.74551,1.8922-1.4946,2.8808-2.2188,3.4062-0.72413,0.52545-1.4869,0.6875-2.5312,0.6875-1.3655,0-70.096,0.16159-80.5,0.34375-5.1694,0.091-8.0262,0.13812-9.8438,0.0937-1.8176-0.0444-2.5408-0.14133-3.6875-0.40625v-0.0312c-0.45444-0.10469-2.7916-0.73607-5.8125-1.625s-6.8264-2.038-10.562-3.1562c-7.4723-2.2364-14.625-4.4062-14.625-4.4062l-0.59375,1.9062s7.1808,2.1689,14.656,4.4062c3.7377,1.1187,7.5361,2.2657,10.562,3.1562,3.0264,0.89054,5.1822,1.5207,5.9062,1.6875,1.2123,0.28008,2.2248,0.42237,4.125,0.46875,1.9002,0.0464,4.7356-0.003,9.9062-0.0937,10.272-0.17984,79.294-0.34375,80.469-0.34375,1.2546,0,2.5374-0.22795,3.6875-1.0625s2.0798-2.1835,2.9062-4.2812c0.25656-0.6512,0.71411-2.165,1.4062-4.6562,0.69214-2.4912,1.5888-5.9104,2.625-10.031,2.0723-8.2416,4.6846-19.387,7.25-32.062,5.1309-25.351,10.094-56.761,10.094-83.125v-10.219c0-26.363-4.9629-57.774-10.094-83.125-2.5654-12.676-5.1777-23.852-7.25-32.094-1.0362-4.1209-1.9329-7.5087-2.625-10-0.69214-2.4913-1.1497-4.005-1.4062-4.6562-0.82696-2.0976-1.7564-3.4464-2.9062-4.2812-1.1499-0.8348-2.4327-1.0625-3.6875-1.0625-1.1755,0-70.197-0.19417-80.469-0.375-5.18-0.10286-8.02-0.1211-9.92-0.07485z"/>
<path id="path13" style="baseline-shift:baseline;block-progression:tb;color:#000000;direction:ltr;text-indent:0;text-align:start;enable-background:accumulate;text-transform:none;" fill="#f4f4f4" d="m154.81,11.344c-0.98834,0-1.9946,0.02562-2.9688,0.5625-0.97411,0.53688-1.8012,1.4804-2.75,3.0625v0.0625l-0.0312,0.03125c-15.74,31.857-23.18,86.639-23.18,123.53v4.4062c0,36.893,7.4432,91.677,23.188,123.53l0.0312,0.0312v0.0312c0.94887,1.5822,1.7759,2.5254,2.75,3.0625,0.97408,0.5371,1.9807,0.5625,2.9688,0.5625h62.625,159.47,62.625c0.98883,0,1.9633-0.0255,2.9375-0.5625,0.97421-0.53701,1.8002-1.48,2.75-3.0625l0.0312-0.0312v-0.0312c15.73-31.85,23.21-86.64,23.21-123.53v-4.4062c0-36.894-7.4755-91.676-23.219-123.53v-0.03125l-0.0312-0.0625c-0.94936-1.5821-1.7757-2.5257-2.75-3.0625-0.97433-0.53682-1.9487-0.5625-2.9375-0.5625h-62.625-159.47-62.625zm0,2,62.625,0,159.47,0,62.625,0c0.94717,0,1.4616,0.03307,1.9688,0.3125,0.496,0.27328,1.1333,0.90701,1.9688,2.2812,0.0188,0.03093,0.0122,0.03078,0.0312,0.0625,15.429,31.269,22.969,85.995,22.969,122.59v4.4062c0,36.588-7.5477,91.289-22.969,122.56-0.8652,1.4415-1.493,2.0643-2,2.3438-0.50704,0.27949-1.0216,0.3125-1.9688,0.3125h-62.625-159.47-62.625c-0.94597,0-1.4928-0.0328-2-0.3125-0.48875-0.26949-1.1212-0.91802-1.9375-2.25-0.006-0.0116-0.0255-0.0197-0.0312-0.0312-15.44-31.26-22.97-86.01-22.97-122.62v-4.4062c0-36.621,7.5493-91.396,23-122.66,0.82631-1.3547,1.4451-2.0099,1.9375-2.2812,0.50689-0.27937,1.0533-0.3125,2-0.3125z"/>
<path id="path15" style="baseline-shift:baseline;block-progression:tb;color:#000000;direction:ltr;text-indent:0;text-align:start;enable-background:accumulate;text-transform:none;" fill="#f4f4f4" d="m156.38,8.5625c-2.3726,0-4.5367,1.6119-6.4375,4.7812l1.7188,1.0312c1.7252-2.8766,3.2213-3.8125,4.7188-3.8125h62.625,156.31,62.656c1.4962,0,2.9623,0.93588,4.6875,3.8125l1.72-1.03c-1.91-3.17-4.04-4.7815-6.41-4.7815h-62.656-156.31-62.625z"/>
<g id="g17">
	<path id="path19" d="M484.98,136.53c-0.05-17.643-1.421-35.279-4.102-52.717-0.133-0.866,0.531-1.691,1.486-1.843,0.958-0.152,1.845,0.436,1.979,1.31,2.717,17.649,4.098,35.505,4.142,53.363,0.002,0.664,0.002,0.996,0,1.659-0.044,17.856-1.422,35.711-4.142,53.359-0.135,0.876-1.021,1.461-1.979,1.309-0.955-0.152-1.619-0.973-1.486-1.84,2.68-17.438,4.052-35.073,4.102-52.716v-1.88z" fill="#F4F4F4"/>
</g>
<g id="g21">
	<path id="path23" d="M492.86,136.62c-0.051-18.215-1.465-36.427-4.236-54.431-0.138-0.894,0.551-1.746,1.537-1.901,0.989-0.156,1.904,0.448,2.043,1.351,2.805,18.222,4.234,36.661,4.276,55.098,0.002,0.686,0.002,1.028,0,1.713-0.042,18.438-1.471,36.874-4.276,55.097-0.14,0.905-1.054,1.508-2.043,1.351-0.986-0.156-1.673-1.006-1.535-1.902,2.766-18.002,4.184-36.214,4.234-54.429,0.01-0.78,0.01-1.17,0.01-1.95z" fill="#F4F4F4"/>
</g>
<g id="g25">
	<path id="path27" d="M117.68,136.53c0.044-17.642,1.419-35.28,4.101-52.717,0.133-0.866-0.531-1.691-1.488-1.842-0.956-0.151-1.844,0.435-1.979,1.309-2.716,17.647-4.102,35.506-4.142,53.363-0.001,0.664-0.001,0.996,0,1.659,0.042,17.856,1.423,35.711,4.142,53.359,0.135,0.876,1.022,1.463,1.979,1.312s1.621-0.976,1.488-1.843c-2.682-17.437-4.057-35.075-4.101-52.716v-1.88z" fill="#F4F4F4"/>
</g>
<g id="g29">
	<path id="path31" d="M109.8,136.62c0.051-18.216,1.469-36.425,4.233-54.431,0.138-0.894-0.547-1.745-1.535-1.901s-1.904,0.448-2.043,1.351c-2.801,18.224-4.236,36.66-4.275,55.098-0.001,0.686-0.001,1.028,0,1.713,0.042,18.438,1.473,36.874,4.275,55.097,0.139,0.905,1.055,1.508,2.043,1.351s1.673-1.006,1.535-1.902c-2.767-18.003-4.183-36.214-4.233-54.429-0.02-0.78-0.02-1.17-0.01-1.95z" fill="#F4F4F4"/>
</g>
<g id="g33">
	<path id="path35" d="M502.11,137.06c-0.055-18.917-1.669-37.836-4.835-56.488-0.157-0.926,0.54-1.823,1.561-2.001s1.986,0.437,2.145,1.373c3.2,18.901,4.827,38.063,4.889,57.235,0.002,0.713,0.002,1.07,0,1.783-0.062,19.173-1.69,38.331-4.889,57.236-0.159,0.937-1.124,1.551-2.145,1.373s-1.72-1.076-1.563-2.002c3.166-18.644,4.781-37.57,4.837-56.487,0-0.8,0-1.21-0.01-2.02z" fill="#F4F4F4"/>
</g>
<g id="g37">
	<path id="path39" d="M512.59,136.9c-0.051-19.723-1.749-39.443-5.04-58.889-0.164-0.965,0.563-1.898,1.628-2.084,1.068-0.187,2.068,0.455,2.233,1.43,3.338,19.703,5.048,39.684,5.096,59.668,0.002,0.743,0.002,1.115,0,1.858-0.048,19.985-1.759,39.963-5.095,59.667-0.166,0.979-1.166,1.618-2.234,1.432-1.065-0.186-1.793-1.119-1.629-2.088,3.295-19.443,4.99-39.165,5.041-58.887-0.01-0.84-0.01-1.26-0.01-2.1z" fill="#F4F4F4"/>
</g>
<g id="g41">
	<path id="path43" d="M525.98,137.1c-0.064-20.547-1.986-41.085-5.724-61.289-0.187-1.005,0.553-1.988,1.659-2.199s2.158,0.441,2.347,1.458c3.798,20.483,5.733,41.323,5.796,62.16,0.002,0.774,0.002,1.163,0,1.937-0.063,20.837-1.993,41.671-5.796,62.159-0.188,1.017-1.24,1.67-2.347,1.459s-1.845-1.195-1.659-2.2c3.738-20.202,5.659-40.742,5.724-61.289,0.01-0.88,0.01-1.32,0-2.2z" fill="#F4F4F4"/>
</g>
<g id="g45">
	<path id="path47" d="M541.11,136.91c-0.063-21.735-2.104-43.461-6.056-64.833-0.196-1.062,0.587-2.104,1.757-2.326,1.167-0.222,2.284,0.466,2.483,1.541,4.01,21.675,6.068,43.711,6.13,65.756,0.002,0.819,0.002,1.229,0,2.047-0.062,22.044-2.119,44.078-6.131,65.754-0.199,1.076-1.315,1.766-2.482,1.543-1.17-0.224-1.954-1.264-1.757-2.327,3.957-21.37,5.992-43.1,6.056-64.833,0.01-0.92,0.01-1.39,0-2.32z" fill="#F4F4F4"/>
</g>
<g id="g49">
	<path id="path51" d="M557.83,136.42c-0.075-22.924-2.216-45.837-6.387-68.379-0.207-1.121,0.518-2.198,1.627-2.409,1.111-0.211,2.186,0.532,2.396,1.665,4.226,22.832,6.39,46.047,6.456,69.271,0.002,0.863,0.002,1.293,0,2.156-0.066,23.22-2.223,46.438-6.458,69.269-0.21,1.132-1.282,1.879-2.394,1.667-1.109-0.212-1.834-1.291-1.627-2.411,4.173-22.54,6.312-45.454,6.387-68.379-0.01-1-0.01-1.49-0.01-2.46z" fill="#F4F4F4"/>
</g>
<path id="path53" style="baseline-shift:baseline;block-progression:tb;color:#000000;direction:ltr;text-indent:0;text-align:start;enable-background:accumulate;text-transform:none;" fill="#f4f4f4" d="m499.19,21.594c-0.59087-0.11048-1.2225-0.10588-1.8438,0.03125l-31.531,6.9688c-2.4833,0.54619-4.0484,3.0144-3.5,5.5v0.0625l0.0312,0.0625,9.9375,28.75,0.0312,0.125h0.0312c0.60814,2.4034,3.0308,3.9444,5.4688,3.4062l31.531-6.9688c2.4848-0.54725,4.0487-3.0158,3.5-5.5v-0.0625l-0.0312-0.0625-9.9375-28.75c-0.007-0.03358-0.0231-0.0605-0.0312-0.09375-0.44134-1.812-1.9156-3.1433-3.6562-3.4688zm-1.4062,2c1.4291-0.31546,2.8102,0.57084,3.125,2l0.0312,0.0625v0.0625l9.9688,28.75c0.31534,1.4278-0.57084,2.8102-2,3.125l-31.531,6.9375c-1.4291,0.31546-2.8104-0.57203-3.125-2l-0.0312-0.03125v-0.0625l-9.9688-28.75c-0.002-0.01085,0.002-0.0204,0-0.03125-0.29513-1.4189,0.5841-2.8136,2-3.125l31.531-6.9375z"/>
<path id="circle55" style="baseline-shift:baseline;block-progression:tb;color:#000000;direction:ltr;text-indent:0;text-align:start;enable-background:accumulate;text-transform:none;" fill="#f4f4f4" d="m487.56,28c-8.8551,0-16.031,7.2074-16.031,16.062,0,8.8551,7.1762,16.062,16.031,16.062,8.8551,0,16.062-7.2074,16.062-16.062,0-8.855-7.2-16.062-16.06-16.062zm0,2c7.7742,0,14.062,6.2883,14.062,14.062,0,7.7742-6.2883,14.062-14.062,14.062-7.7742,0-14.031-6.2883-14.031-14.062,0-7.7742,6.257-14.062,14.031-14.062z"/>
<path id="path57" style="baseline-shift:baseline;block-progression:tb;color:#000000;direction:ltr;text-indent:0;text-align:start;enable-background:accumulate;text-transform:none;" fill="#f4f4f4" d="m542.53,12.281c-0.5908-0.11055-1.2226-0.10554-1.8438,0.03125l-31.53,6.938c-2.4828,0.54735-4.0487,3.0145-3.5,5.5v0.0625l0.0312,0.0625,9.9375,28.75,0.0312,0.125h0.0312c0.60805,2.4042,3.0326,3.9433,5.4688,3.4062l31.531-6.9375c2.4829-0.54738,4.0459-3.0467,3.5-5.5312v-0.0625l-0.0312-0.03125-9.9375-28.781c-0.007-0.03359-0.0231-0.0605-0.0312-0.09375-0.44135-1.812-1.9158-3.1118-3.6562-3.4375zm-1.41,1.969c1.4295-0.31483,2.8103,0.57091,3.125,2l0.0312,0.0625v0.0625l9.9688,28.75c0.31408,1.4294-0.5729,2.8104-2,3.125l-31.531,6.9375c-1.4269,0.31458-2.8103-0.57091-3.125-2l-0.0312-0.03125v-0.0625l-9.9688-28.75c-0.002-0.01084,0.002-0.02041,0-0.03125-0.29485-1.417,0.58359-2.8127,2-3.125l31.54-6.936z"/>
<path id="circle59" style="baseline-shift:baseline;block-progression:tb;color:#000000;direction:ltr;text-indent:0;text-align:start;enable-background:accumulate;text-transform:none;" fill="#f4f4f4" d="m530.94,18.688c-8.8545,0-16.062,7.1767-16.062,16.031,0,8.8545,7.208,16.062,16.062,16.062,8.8545,0,16.031-7.208,16.031-16.062,0-8.8545-7.1767-16.031-16.031-16.031zm0,2c7.7736,0,14.031,6.2576,14.031,14.031,0,7.7737-6.2576,14.062-14.031,14.062-7.7736,0-14.062-6.2888-14.062-14.062,0-7.7737,6.2888-14.031,14.062-14.031z"/>
<path id="path61" style="baseline-shift:baseline;block-progression:tb;color:#000000;direction:ltr;text-indent:0;text-align:start;enable-background:accumulate;text-transform:none;" fill="#f4f4f4" d="m519.31,221.84c-1.7272,0.32304-3.1719,1.646-3.625,3.4375h-0.0312l-0.0312,0.125-9.9375,28.75-0.0312,0.0312v0.0625c-0.54868,2.4856,1.0169,4.9838,3.5,5.5312l31.531,6.9375c2.438,0.53817,4.8607-1.0021,5.4688-3.4062h0.0312l0.0312-0.125,9.9375-28.75,0.0312-0.0625v-0.0312c0.54593-2.4846-1.0168-4.9838-3.5-5.5312l-31.531-6.9375c-0.62088-0.1372-1.2531-0.14171-1.8438-0.0312zm1.4062,1.9688,31.531,6.9688c1.416,0.31216,2.2936,1.6759,2,3.0938-0.002,0.0108,0.002,0.0204,0,0.0312l-9.9688,28.75v0.0625l-0.0312,0.0625c-0.31475,1.4292-1.6959,2.3155-3.125,2l-31.531-6.9688c-1.4161-0.31219-2.2948-1.6768-2-3.0938,0.002-0.0108-0.002-0.0204,0-0.0312l9.9688-28.75,0.0312-0.0625v-0.0625c0.31475-1.4292,1.6985-2.3152,3.125-2z"/>
<path id="circle63" style="baseline-shift:baseline;block-progression:tb;color:#000000;direction:ltr;text-indent:0;text-align:start;enable-background:accumulate;text-transform:none;" fill="#f4f4f4" d="m530.94,228.25c-8.8545,0-16.062,7.1767-16.062,16.031,0,8.8545,7.208,16.062,16.062,16.062,8.8545,0,16.031-7.208,16.031-16.062,0-8.8545-7.1767-16.031-16.031-16.031zm0,2c7.7736,0,14.031,6.2576,14.031,14.031,0,7.7736-6.2576,14.062-14.031,14.062-7.7736,0-14.062-6.2888-14.062-14.062,0-7.7736,6.2888-14.031,14.062-14.031z"/>
<path id="path65" style="baseline-shift:baseline;block-progression:tb;color:#000000;direction:ltr;text-indent:0;text-align:start;enable-background:accumulate;text-transform:none;" fill="#f4f4f4" d="m475.97,212.5c-1.7279,0.32308-3.1719,1.646-3.625,3.4375h-0.0312l-0.0312,0.125-9.9375,28.75-0.0312,0.0625v0.0312c-0.54851,2.4848,1.0158,4.9841,3.5,5.5312l31.531,6.9375c2.4511,0.53856,4.9087-0.98074,5.5-3.4062,0.008-0.0332,0.0238-0.0602,0.0312-0.0937l9.9375-28.781,0.0312-0.0312v-0.0625c0.54879-2.4835-1.0152-4.984-3.5-5.5312l-31.531-6.9375c-0.62123-0.13713-1.2529-0.14173-1.8438-0.0312zm1.4062,1.9688,31.531,6.9688c1.4183,0.31236,2.2948,1.6787,2,3.0938-0.002,0.0108,0.002,0.0204,0,0.0312l-9.9688,28.75v0.0625l-0.0312,0.0625c-0.31455,1.4268-1.6956,2.3141-3.125,2l-31.53-6.96c-1.4189-0.3125-2.295-1.6761-2-3.0938,0.002-0.0108-0.002-0.0204,0-0.0312l9.9688-28.75v-0.0625l0.0312-0.0625c0.31475-1.4292,1.6959-2.3155,3.125-2z"/>
<path id="circle67" style="baseline-shift:baseline;block-progression:tb;color:#000000;direction:ltr;text-indent:0;text-align:start;enable-background:accumulate;text-transform:none;" fill="#f4f4f4" d="m487.56,218.91c-8.8551,0-16.031,7.2074-16.031,16.062,0,8.8551,7.1762,16.031,16.031,16.031,8.8551,0,16.062-7.1762,16.062-16.031,0-8.8551-7.2074-16.062-16.062-16.062zm0,2c7.7742,0,14.062,6.2883,14.062,14.062,0,7.7742-6.2883,14.031-14.062,14.031-7.7742,0-14.031-6.257-14.031-14.031,0-7.7742,6.257-14.062,14.031-14.062z"/>
<path id="path69" style="baseline-shift:baseline;block-progression:tb;color:#000000;direction:ltr;text-indent:0;text-align:start;enable-background:accumulate;text-transform:none;" fill="#f4f4f4" d="m51.219,95.938c-2.7104,0-4.9375,2.2271-4.9375,4.9375v11.469c0,2.7412-2.1651,5.1562-5.125,5.1562h-11.469c-2.7104,0-4.9375,2.1951-4.9375,4.9062v24.312c0,2.7104,2.2274,4.9375,4.9375,4.9375h11.469c1.2564,0,2.5384,0.41109,3.5,1.25,0.96164,0.83891,1.625,2.084,1.625,3.9062v11.438c0,2.7104,2.2268,4.9375,4.9375,4.9375h24.312c2.7107,0,4.9375-2.2268,4.9375-4.9375v-11.438c0-1.861,0.51858-3.096,1.375-3.9062,0.85642-0.81026,2.1063-1.25,3.75-1.25h11.469c2.7101,0,4.9375-2.2268,4.9375-4.9375v-24.312c0-2.73-2.227-4.92-4.938-4.92h-11.469c-2.0116,0-3.2053-0.52332-3.9688-1.3438-0.76345-0.82043-1.1562-2.0714-1.1562-3.8125v-11.469c0-2.7107-2.2271-4.9375-4.9375-4.9375h-24.312zm0,2,24.312,0c1.6296,0,2.9375,1.3082,2.9375,2.9375v11.469c0,2.0519,0.47145,3.8494,1.6875,5.1562,1.2161,1.3068,3.0671,2,5.4375,2h11.469c1.6296,0,2.9375,1.2757,2.9375,2.9062v24.312c0,1.6293-1.3076,2.9375-2.9375,2.9375h-11.469c-2.0133,0-3.8202,0.54676-5.125,1.7812-1.3048,1.2345-2,3.111-2,5.375v11.438c0,1.6293-1.3082,2.9375-2.9375,2.9375h-24.312c-1.6293,0-2.9375-1.3079-2.9375-2.9375v-11.438c0-2.3338-0.90789-4.2082-2.2812-5.4062-1.3734-1.1981-3.1381-1.75-4.8438-1.75h-11.469c-1.6299,0-2.9375-1.3079-2.9375-2.9375v-24.312c0-1.6308,1.3079-2.9062,2.9375-2.9062h11.469c4.0521,0,7.125-3.3395,7.125-7.1562v-11.469c0-1.6296,1.3079-2.9375,2.9375-2.9375z"/>
<g id="g71">
	<path id="path73" stroke="#F4F4F4" stroke-width="2" d="M200.61,226.79c-8.601,0-17.482-6.844-19.403-15.362-10.618-51.517-10.615-102.01,0-153.52,1.92-8.52,10.802-15.362,19.403-15.362,68.045,0.002,136.09,0,204.14,0,8.6,0,17.486,6.841,19.406,15.361,10.608,51.523,10.61,102,0,153.52-1.92,8.519-10.807,15.362-19.406,15.362h-204.14z" fill="none"/>
</g>
<path id="path75" style="baseline-shift:baseline;block-progression:tb;color:#000000;direction:ltr;text-indent:0;text-align:start;enable-background:accumulate;text-transform:none;" fill="#f4f4f4" d="m206.31,71.281c-2.0762,0-3.7812,1.7051-3.7812,3.7812v120.41c0,2.0762,1.7051,3.7812,3.7812,3.7812h190.31c2.0774,0,3.7812-1.706,3.7812-3.7812v-120.41c0-2.0753-1.7038-3.7812-3.7812-3.7812h-190.31zm0,2,190.31,0c0.99655,0,1.7812,0.78653,1.7812,1.7812v120.41c0,0.99472-0.7847,1.7812-1.7812,1.7812h-190.31c-0.99385,0-1.7812-0.7874-1.7812-1.7812v-120.41c0-0.99385,0.7874-1.7812,1.7812-1.7812z"/>
<path id="circle77" style="baseline-shift:baseline;block-progression:tb;color:#000000;direction:ltr;text-indent:0;text-align:start;enable-background:accumulate;text-transform:none;" fill="#f4f4f4" d="m171.12,23.625c-1.8759,0-3.4062,1.5304-3.4062,3.4062,0,1.8759,1.5304,3.4375,3.4062,3.4375,1.8759,0,3.4062-1.5616,3.4062-3.4375s-1.5304-3.4062-3.4062-3.4062zm0,2c0.79498,0,1.4062,0.61127,1.4062,1.4062,0,0.79498-0.61127,1.4375-1.4062,1.4375-0.79498,0-1.4062-0.64252-1.4062-1.4375s0.61127-1.4062,1.4062-1.4062z"/>
<path id="path79" style="baseline-shift:baseline;block-progression:tb;color:#000000;direction:ltr;text-indent:0;text-align:start;enable-background:accumulate;text-transform:none;" fill="#f4f4f4" d="m63.375,98.125c-8.3535,0-15.156,6.7726-15.156,15.125,0,2.51-0.54619,3.965-1.5,4.8438-0.95381,0.87871-2.5121,1.3438-4.875,1.3438-8.3534,0-15.125,6.7716-15.125,15.125s6.7716,15.156,15.125,15.156c3.9896,0,6.375,2.8156,6.375,6.5938,0,8.3534,6.8029,15.125,15.156,15.125,8.3535,0,15.156-6.7726,15.156-15.125,0-2.4222,0.60816-4.0123,1.6562-5.0312,1.0481-1.019,2.646-1.5625,4.8438-1.5625,8.3534,0,15.125-6.8029,15.125-15.156,0-8.3535-6.7725-15.125-15.125-15.125-2.2086,0-3.8393-0.32599-4.8438-1.125s-1.6562-2.2003-1.6562-5.0625c0-8.3535-6.8038-15.125-15.156-15.125zm0,2c7.2715,0,13.156,5.8525,13.156,13.125,0,3.1838,0.8072,5.353,2.4062,6.625s3.7223,1.5625,6.0938,1.5625c7.2715,0,13.125,5.8525,13.125,13.125,0,7.2726-5.8524,13.156-13.125,13.156-2.5343,0-4.7013,0.64974-6.2188,2.125-1.5174,1.4753-2.2812,3.692-2.2812,6.4688,0,7.2716-5.8837,13.125-13.156,13.125-7.2726,0-13.156-5.8524-13.156-13.125,0-4.6878-3.3886-8.5938-8.375-8.5938-7.2726,0-13.125-5.8836-13.125-13.156,0-7.2726,5.8524-13.125,13.125-13.125,2.6101,0,4.7591-0.50146,6.25-1.875s2.125-3.5015,2.125-6.3125c0-7.2716,5.8837-13.125,13.156-13.125z"/>
<path id="path81" style="baseline-shift:baseline;block-progression:tb;color:#000000;direction:ltr;text-indent:0;text-align:start;enable-background:accumulate;text-transform:none;" fill="#f4f4f4" d="m151.22,74.344c-1.3896-0.23376-2.7367,0.73458-2.9688,2.125l-4.19,25.031c-0.23229,1.3889,0.7359,2.7351,2.125,2.9688l8.9375,1.5c1.3894,0.23183,2.7367-0.73583,2.9688-2.125l4.1875-25.031c0.23205-1.3891-0.73532-2.7369-2.125-2.9688l-8.9375-1.5zm-0.3125,1.9688,8.9375,1.5c0.32432,0.05412,0.5227,0.33332,0.46875,0.65625l-4.1875,25.062c-0.0539,0.32283-0.33163,0.52292-0.65625,0.46875l-8.9375-1.5c-0.3229-0.0543-0.55371-0.33514-0.5-0.65625l4.22-25.028v-0.03125c0.054-0.32358,0.33385-0.52299,0.65625-0.46875z"/>
<path id="path83" style="baseline-shift:baseline;block-progression:tb;color:#000000;direction:ltr;text-indent:0;text-align:start;enable-background:accumulate;text-transform:none;" fill="#f4f4f4" d="m154.03,158.16-8.9375,1.5c-1.3873,0.23473-2.3272,1.5478-2.0938,2.9375l4.1875,25.062c0.23236,1.3893,1.5476,2.326,2.9375,2.0938l8.9688-1.5c1.3898-0.23217,2.3262-1.5479,2.0938-2.9375l-4.19-25.06c-0.23199-1.3903-1.578-2.3293-2.9688-2.0938zm0.34375,1.9688c0.32125-0.0544,0.60224,0.14505,0.65625,0.46875l4.1875,25.031c0.0536,0.32036-0.14654,0.60242-0.46875,0.65625l-8.9375,1.5c-0.32206,0.0538-0.60261-0.14803-0.65625-0.46875l-4.1875-25.031c-0.0545-0.32434,0.14207-0.60098,0.46875-0.65625l8.9375-1.5z"/>
<path id="path85" style="baseline-shift:baseline;block-progression:tb;color:#000000;direction:ltr;text-indent:0;text-align:start;enable-background:accumulate;text-transform:none;" fill="#f4f4f4" d="m144.16,116.66c-1.4087,0-2.5625,1.185-2.5625,2.5938v25.375c0,1.4095,1.1546,2.5938,2.5625,2.5938h9.0625c1.4079,0,2.5938-1.1843,2.5938-2.5938v-25.375c0-1.4087-1.185-2.5938-2.5938-2.5938h-9.0625zm0,2,9.0625,0c0.32729,0,0.59375,0.26646,0.59375,0.59375v25.375c0,0.33054-0.26569,0.59375-0.59375,0.59375h-9.0625c-0.32806,0-0.5625-0.26321-0.5625-0.59375v-25.375c0-0.32729,0.23521-0.59375,0.5625-0.59375z"/>
<path id="path87" style="baseline-shift:baseline;block-progression:tb;color:#000000;direction:ltr;text-indent:0;text-align:start;enable-background:accumulate;text-transform:none;" fill="#f4f4f4" d="m149.66,70.094c-0.99007-0.16501-1.9475,0.09914-2.75,0.5625-0.80252,0.46336-1.5186,1.1476-1.6875,2.1562l-5.22,31.158c-0.16887,1.0086,0.29824,1.8944,0.90625,2.5938,0.60801,0.6993,1.4161,1.2718,2.4062,1.4375l13.375,2.2188c0.99046,0.16568,1.9474-0.0992,2.75-0.5625,0.80258-0.46332,1.5187-1.1479,1.6875-2.1562l5.2188-31.156c0.16903-1.0086-0.2984-1.8631-0.90625-2.5625-0.60785-0.69944-1.4162-1.271-2.4062-1.4375l-13.375-2.25zm-0.3125,1.9688,13.344,2.25c0.37194,0.06254,0.9021,0.38094,1.25,0.78125s0.45147,0.85414,0.4375,0.9375l-5.2188,31.156c-0.0142,0.0846-0.25983,0.45382-0.71875,0.71875s-1.0337,0.40607-1.4062,0.34375l-13.375-2.25c-0.37184-0.0623-0.90226-0.35005-1.25-0.75s-0.45163-0.85314-0.4375-0.9375l5.22-31.185c0.0141-0.08435,0.25952-0.45361,0.71875-0.71875s1.0656-0.40574,1.4375-0.34375z"/>
<path id="path89" style="baseline-shift:baseline;block-progression:tb;color:#000000;direction:ltr;text-indent:0;text-align:start;enable-background:accumulate;text-transform:none;" fill="#f4f4f4" d="m448.22,74.344-8.9375,1.5c-1.3896,0.23186-2.3572,1.5789-2.125,2.9688l4.1875,25.031c0.23491,1.3868,1.5795,2.3568,2.9688,2.125l8.9375-1.5c1.3895-0.23347,2.3608-1.5783,2.125-2.9688l-4.1875-25.031c-0.23201-1.3904-1.5788-2.3585-2.9688-2.125zm0.34375,1.9688c0.32409-0.05446,0.60226,0.14518,0.65625,0.46875v0.03125l4.1875,25.031c0.0542,0.31956-0.14424,0.60172-0.46875,0.65625-0.32474,0.0542-0.63241-0.14355-0.6875-0.46875l-4.1875-25.062c-0.0538-0.32218,0.1443-0.60211,0.46875-0.65625l8.9688-1.5z"/>
<path id="path91" style="baseline-shift:baseline;block-progression:tb;color:#000000;direction:ltr;text-indent:0;text-align:start;enable-background:accumulate;text-transform:none;" fill="#f4f4f4" d="m445.41,158.16c-1.3904-0.23581-2.7338,0.70507-2.9688,2.0938l-4.1875,25.062c-0.22879,1.3873,0.73547,2.7051,2.125,2.9375l8.9375,1.5c1.3896,0.23242,2.7364-0.70447,2.9688-2.0938l4.1875-25.062c0.23532-1.3908-0.73884-2.7024-2.125-2.9375l-8.9375-1.5zm-0.34375,1.9688,8.9375,1.5c0.32384,0.0549,0.55468,0.33305,0.5,0.65625l-4.2188,25.031c-0.0536,0.32072-0.33589,0.52233-0.65625,0.46875l-8.9375-1.5c-0.32047-0.0536-0.52196-0.33357-0.46875-0.65625l4.1875-25.031c0.055-0.32532,0.33669-0.52294,0.65625-0.46875z"/>
<path id="path93" style="baseline-shift:baseline;block-progression:tb;color:#000000;direction:ltr;text-indent:0;text-align:start;enable-background:accumulate;text-transform:none;" fill="#f4f4f4" d="m445.84,116.66c-1.4091,0-2.5625,1.1858-2.5625,2.5938v25.375c0,1.4087,1.1542,2.5938,2.5625,2.5938h9.0625c1.4083,0,2.5938-1.185,2.5938-2.5938v-25.375c0-1.4079-1.1847-2.5938-2.5938-2.5938h-9.0625zm0,2,9.0625,0c0.32892,0,0.59375,0.26569,0.59375,0.59375v25.375c0,0.3313-0.26407,0.59375-0.59375,0.59375h-9.0625c-0.32968,0-0.5625-0.26245-0.5625-0.59375v-25.375c0-0.32806,0.23358-0.59375,0.5625-0.59375z"/>
</svg>
