<?xml version="1.0" encoding="utf-8"?>
<!-- Generator: Adobe Illustrator 13.0.0, SVG Export Plug-In . SVG Version: 6.00 Build 14948)  -->
<!DOCTYPE svg [
	<!ENTITY ns_flows "http://ns.adobe.com/Flows/1.0/">
	<!ENTITY ns_extend "http://ns.adobe.com/Extensibility/1.0/">
	<!ENTITY ns_ai "http://ns.adobe.com/AdobeIllustrator/10.0/">
	<!ENTITY ns_graphs "http://ns.adobe.com/Graphs/1.0/">
	<!ENTITY ns_vars "http://ns.adobe.com/Variables/1.0/">
	<!ENTITY ns_imrep "http://ns.adobe.com/ImageReplacement/1.0/">
	<!ENTITY ns_sfw "http://ns.adobe.com/SaveForWeb/1.0/">
	<!ENTITY ns_custom "http://ns.adobe.com/GenericCustomNamespace/1.0/">
	<!ENTITY ns_adobe_xpath "http://ns.adobe.com/XPath/1.0/">
]>
<svg version="1.2" baseProfile="tiny" id="Layer_2" xmlns:x="&ns_extend;" xmlns:i="&ns_ai;" xmlns:graph="&ns_graphs;"
	 xmlns="http://www.w3.org/2000/svg" xmlns:xlink="http://www.w3.org/1999/xlink" xmlns:a="http://ns.adobe.com/AdobeSVGViewerExtensions/3.0/"
	 x="0px" y="0px" width="598.191px" height="350.257px" viewBox="0 0 598.191 350.257" xml:space="preserve">
<metadata>
	<sfw  xmlns="&ns_sfw;">
		<slices></slices>
		<sliceSourceBounds  height="322" width="537.082" y="376.501" x="693.5" bottomLeftOrigin="true"></sliceSourceBounds>
	</sfw>
</metadata>
<path fill="#F4F4F4" d="M258.178,338.127c-53.157,0-101.513-2.58-137.833-5.549l0,0c-36.362-2.979-60.511-6.297-65.752-7.904l0,0
	l-0.044-0.015l-0.036-0.015c-13.149-5.36-22.417-18.273-22.417-33.352l0,0V30.128c0.002-3.997,2.604-7.386,6.209-8.558l0,0
	l0.034-0.013l0.03-0.006c2.052-0.514,12.852-1.834,25.585-3.075l0,0c12.699-1.232,27.15-2.347,36.141-2.349l0,0h401.082
	c8.991,0.002,23.442,1.117,36.142,2.349l0,0c12.732,1.24,23.533,2.561,25.648,3.094l0,0c3.607,1.172,6.209,4.562,6.211,8.558l0,0
	v261.166c-0.002,15.078-9.267,27.991-22.418,33.352l0,0l-0.049,0.019l-0.032,0.011c-5.241,1.607-29.391,4.925-65.752,7.904l0,0
	c-36.32,2.969-84.674,5.549-137.831,5.549l0,0v-1v-1.001c53.092,0,101.398-2.577,137.669-5.542l0,0
	c36.125-2.943,60.455-6.319,65.279-7.808l0,0c12.398-5.075,21.134-17.258,21.132-31.483l0,0V30.128
	c0.002-3.109-2.026-5.744-4.766-6.638l0,0c-1.635-0.429-12.656-1.803-25.285-3.024l0,0c-12.661-1.229-27.105-2.338-35.948-2.338l0,0
	H100.095c-8.842,0-23.287,1.108-35.948,2.338l0,0c-12.562,1.214-23.533,2.581-25.259,3.017l0,0c-2.784,0.924-4.794,3.55-4.792,6.645
	l0,0v261.166c-0.002,14.226,8.735,26.408,21.132,31.483l0,0c4.826,1.488,29.159,4.864,65.279,7.808l0,0
	c36.271,2.965,84.578,5.542,137.671,5.542l0,0h84.917v1.001v1H258.178L258.178,338.127z"/>
<path fill="#F4F4F4" d="M179.603,276.441c-2.873-0.167-4.542-0.275-5.156-0.403l0,0c-2.314-0.438-4.059-2.469-4.061-4.911l0,0
	V32.129c0-2.764,2.237-5,5.001-5l0,0h250.5c2.761,0,4.998,2.237,4.998,5l0,0l0.002,238.998c-0.004,2.334-1.596,4.293-3.76,4.847l0,0
	l-0.001-0.003l0.001,0.003l-0.001-0.003c-0.41,0.108-0.767,0.116-1.558,0.19l0,0c-0.804,0.065-1.911,0.137-3.298,0.214l0,0
	c-2.77,0.158-6.645,0.342-11.341,0.545l0,0c-9.39,0.405-22.056,0.877-35.684,1.328l0,0c-27.254,0.9-58.332,1.713-74.692,1.715l0,0
	C271.343,279.96,199.449,277.554,179.603,276.441L179.603,276.441z M172.385,32.129l0.002,238.998
	c-0.004,1.465,1.051,2.685,2.465,2.954l0,0c0.207,0.057,2.072,0.213,4.861,0.363l0,0c2.822,0.159,6.714,0.345,11.391,0.546l0,0
	c9.356,0.4,21.862,0.864,35.302,1.305l0,0c26.879,0.882,57.508,1.667,74.148,1.667l0,0c16.051,0,46.419-0.787,73.347-1.671l0,0
	c26.882-0.877,50.532-1.876,52.656-2.239l0,0l0.001,0.005l0.03-0.011l0.044-0.011c1.293-0.332,2.256-1.508,2.254-2.908l0,0V32.129
	c-0.004-1.656-1.345-2.998-2.999-3.001l0,0h-250.5C173.73,29.131,172.39,30.473,172.385,32.129L172.385,32.129z"/>
<path fill="#F4F4F4" d="M191.637,255.126c-1.105,0-2.001-0.894-2.001-1.998l0,0V47.127c0-1.104,0.894-1.999,2.001-1.999l0,0h217.999
	c1.104,0,1.998,0.894,1.998,1.999l0,0v206.001c0,1.104-0.894,1.998-1.998,1.998l0,0H191.637L191.637,255.126z M191.637,253.128
	h217.999V47.127H191.637V253.128L191.637,253.128z"/>
<g>
	<path fill="#F4F4F4" d="M69.596,68.961c-7.181,0-13.001-5.82-13.001-12.999l0,0c0-7.181,5.82-13,13.001-13l0,0h23.165
		c5.87,0.002,10.83,3.887,12.446,9.23l0,0c0.001,0.003,0.003,0.006,0.005,0.01l0,0c0.024,0.041,0.063,0.101,0.107,0.148l0,0
		c0.1,0.109,0.138,0.114,0.15,0.112l0,0h19.376c0.396-0.021,0.357-0.14,0.438-0.236l0,0l0.001,0.001l0.013-0.054l0.024-0.061
		c1.536-3.896,5.333-6.649,9.772-6.652l0,0c5.799,0.002,10.499,4.702,10.499,10.501l0,0c0,5.797-4.699,10.499-10.499,10.499l0,0
		c-4.459-0.002-8.269-2.778-9.792-6.702l0,0c-0.026-0.038-0.072-0.092-0.125-0.142l0,0c-0.118-0.106-0.215-0.156-0.333-0.156l0,0
		H105.47c-0.083,0-0.143,0.003-0.187,0.008l0,0c-1.531,5.479-6.558,9.49-12.522,9.493l0,0H69.596L69.596,68.961z M58.596,55.962
		c0.01,6.075,4.925,10.988,11,10.998l0,0h23.165c5.095,0.002,9.381-3.464,10.631-8.161l0,0l0.021-0.071l0.028-0.067
		c0.077-0.181,0.251-0.572,0.657-0.848l0,0c0.402-0.272,0.863-0.351,1.372-0.351l0,0h19.376c1.599,0.065,2.173,1.301,2.234,1.37l0,0
		l-0.876,0.479l0.876-0.479l0.034,0.063l0.024,0.063c1.211,3.214,4.316,5.505,7.957,5.503l0,0c4.695-0.008,8.492-3.805,8.5-8.498
		l0,0c-0.008-4.695-3.805-8.492-8.5-8.5l0,0c-3.581-0.002-6.646,2.216-7.898,5.352l0,0c-0.049,0.158-0.166,0.464-0.443,0.801l0,0
		c-0.343,0.428-1.037,0.86-1.908,0.846l0,0H105.47c-0.8-0.002-1.36-0.448-1.654-0.79l0,0c-0.307-0.353-0.435-0.659-0.463-0.718l0,0
		l-0.022-0.053l-0.016-0.057c-1.345-4.554-5.56-7.883-10.554-7.881l0,0H69.596C63.521,44.972,58.606,49.887,58.596,55.962
		L58.596,55.962z"/>
</g>
<path fill="#F4F4F4" d="M69.626,63.679v-0.998v-1.001h23.563c3.158-0.004,5.712-2.559,5.719-5.719l0,0
	c-0.006-3.157-2.561-5.712-5.719-5.718l0,0H69.626c-3.158,0.006-5.712,2.561-5.719,5.718l0,0c0.006,3.16,2.561,5.714,5.719,5.719
	l0,0v1.001V63.679c-4.263,0-7.718-3.454-7.718-7.718l0,0c0-4.262,3.456-7.718,7.718-7.718l0,0h23.563
	c4.263,0,7.718,3.456,7.718,7.718l0,0c0,4.265-3.456,7.718-7.718,7.718l0,0H69.626L69.626,63.679z"/>
<circle fill="#F4F4F4" cx="135.127" cy="55.961" r="6.281"/>
<path fill="#F4F4F4" d="M60.314,140.128c0-29.134,23.617-52.749,52.75-52.75l0,0c29.132,0.002,52.749,23.617,52.75,52.75l0,0
	c-0.002,29.134-23.619,52.749-52.75,52.75l0,0C83.931,192.876,60.314,169.262,60.314,140.128L60.314,140.128z M77.179,104.243
	c-9.187,9.187-14.865,21.867-14.865,35.885l0,0c0,14.018,5.678,26.699,14.865,35.885l0,0c9.187,9.185,21.867,14.864,35.885,14.864
	l0,0c14.016,0,26.699-5.68,35.885-14.864l0,0c9.185-9.187,14.863-21.867,14.865-35.885l0,0c-0.002-14.018-5.68-26.699-14.865-35.885
	l0,0c-9.187-9.187-21.869-14.865-35.885-14.865l0,0C99.046,89.378,86.366,95.056,77.179,104.243L77.179,104.243z"/>
<polyline fill="#F4F4F4" points="109.158,96.503 109.158,90.253 117.033,90.253 117.033,96.503 "/>
<polyline fill="#F4F4F4" points="69.471,144.066 63.221,144.066 63.221,136.191 69.471,136.191 "/>
<polyline fill="#F4F4F4" points="117.033,183.753 117.033,190.003 109.158,190.003 109.158,183.753 "/>
<polyline fill="#F4F4F4" points="156.721,136.191 162.971,136.191 162.971,144.066 156.721,144.066 "/>
<polyline fill="#F4F4F4" points="80.768,110.938 76.348,106.519 79.442,103.425 83.861,107.845 "/>
<polyline fill="#F4F4F4" points="83.875,172.425 79.455,176.845 76.361,173.751 80.781,169.332 "/>
<polyline fill="#F4F4F4" points="145.361,169.318 149.781,173.738 146.687,176.832 142.268,172.412 "/>
<polyline fill="#F4F4F4" points="142.254,107.832 146.674,103.412 149.768,106.506 145.348,110.925 "/>
<path fill="#F4F4F4" d="M68.688,140.128c0.002-24.509,19.868-44.374,44.376-44.376l0,0c24.506,0.002,44.374,19.867,44.375,44.376
	l0,0c-0.002,24.506-19.869,44.373-44.375,44.375l0,0C88.556,184.501,68.691,164.635,68.688,140.128L68.688,140.128z M83.1,110.164
	c-7.668,7.673-12.411,18.26-12.411,29.965l0,0c0,11.705,4.742,22.292,12.411,29.962l0,0c7.673,7.67,18.26,12.411,29.965,12.411l0,0
	c11.705,0,22.292-4.74,29.962-12.411l0,0c7.671-7.671,12.411-18.258,12.413-29.962l0,0c-0.002-11.705-4.742-22.292-12.413-29.965
	l0,0c-7.671-7.668-18.258-12.411-29.962-12.411l0,0C101.36,97.753,90.772,102.495,83.1,110.164L83.1,110.164z"/>
<path fill="#F4F4F4" d="M80.69,140.127c0-17.88,14.493-32.375,32.375-32.375l0,0c17.88,0,32.375,14.495,32.375,32.375l0,0
	c0,17.881-14.495,32.375-32.375,32.375l0,0C95.183,172.502,80.69,158.009,80.69,140.127L80.69,140.127z M82.689,140.127
	c0.031,16.776,13.599,30.346,30.375,30.375l0,0c16.776-0.029,30.344-13.599,30.375-30.375l0,0
	c-0.031-16.774-13.599-30.344-30.375-30.375l0,0C96.289,109.783,82.72,123.353,82.689,140.127L82.689,140.127z"/>
<path fill="#F4F4F4" d="M94.251,140.128c0-10.39,8.422-18.812,18.812-18.812l0,0c10.39,0,18.813,8.422,18.813,18.812l0,0
	c0,10.39-8.422,18.811-18.813,18.813l0,0C102.674,158.939,94.251,150.519,94.251,140.128L94.251,140.128z M96.252,140.128
	c0.016,9.284,7.528,16.795,16.812,16.812l0,0c9.286-0.017,16.796-7.528,16.814-16.812l0,0c-0.018-9.286-7.528-16.795-16.814-16.814
	l0,0C103.78,123.333,96.268,130.842,96.252,140.128L96.252,140.128z"/>
<g>
	<circle fill="#F4F4F4" cx="93.929" cy="235.962" r="2.833"/>
	<circle fill="#F4F4F4" cx="103.637" cy="235.962" r="2.833"/>
	<circle fill="#F4F4F4" cx="113.345" cy="235.962" r="2.833"/>
	<circle fill="#F4F4F4" cx="123.054" cy="235.962" r="2.833"/>
	<circle fill="#F4F4F4" cx="132.762" cy="235.962" r="2.833"/>
</g>
<g>
	<circle fill="#F4F4F4" cx="93.929" cy="245.74" r="2.833"/>
	<circle fill="#F4F4F4" cx="103.637" cy="245.74" r="2.833"/>
	<circle fill="#F4F4F4" cx="113.345" cy="245.74" r="2.833"/>
	<circle fill="#F4F4F4" cx="123.054" cy="245.74" r="2.833"/>
	<circle fill="#F4F4F4" cx="132.762" cy="245.74" r="2.833"/>
</g>
<g>
	<circle fill="#F4F4F4" cx="93.929" cy="255.518" r="2.833"/>
	<circle fill="#F4F4F4" cx="103.637" cy="255.518" r="2.833"/>
	<circle fill="#F4F4F4" cx="113.345" cy="255.518" r="2.833"/>
	<circle fill="#F4F4F4" cx="123.054" cy="255.518" r="2.833"/>
	<circle fill="#F4F4F4" cx="132.762" cy="255.518" r="2.833"/>
</g>
<g>
	<circle fill="#F4F4F4" cx="93.929" cy="265.295" r="2.833"/>
	<circle fill="#F4F4F4" cx="103.637" cy="265.295" r="2.833"/>
	<circle fill="#F4F4F4" cx="113.345" cy="265.295" r="2.833"/>
	<circle fill="#F4F4F4" cx="123.054" cy="265.295" r="2.833"/>
	<circle fill="#F4F4F4" cx="132.762" cy="265.295" r="2.833"/>
</g>
<g>
	<circle fill="#F4F4F4" cx="464.596" cy="217.296" r="4.167"/>
	<circle fill="#F4F4F4" cx="464.596" cy="257.046" r="4.167"/>
	<circle fill="#F4F4F4" cx="464.596" cy="296.796" r="4.167"/>
</g>
<g>
	<circle fill="#F4F4F4" cx="499.929" cy="213.463" r="4.167"/>
	<circle fill="#F4F4F4" cx="499.929" cy="253.213" r="4.167"/>
	<circle fill="#F4F4F4" cx="499.929" cy="292.963" r="4.167"/>
</g>
<g>
	<circle fill="#F4F4F4" cx="535.262" cy="209.796" r="4.167"/>
	<circle fill="#F4F4F4" cx="535.262" cy="249.546" r="4.167"/>
	<circle fill="#F4F4F4" cx="535.262" cy="289.296" r="4.167"/>
</g>
<path fill="#F4F4F4" d="M451.594,158.252c0.002-12.426,10.074-22.5,22.502-22.5l0,0c12.426,0,22.498,10.074,22.5,22.5l0,0
	c-0.002,12.426-10.074,22.5-22.5,22.5l0,0C461.668,180.752,451.596,170.679,451.594,158.252L451.594,158.252z M453.596,158.252
	c0.02,11.323,9.178,20.48,20.5,20.5l0,0c11.321-0.02,20.479-9.177,20.498-20.5l0,0c-0.019-11.32-9.177-20.479-20.498-20.5l0,0
	C462.773,137.774,453.615,146.932,453.596,158.252L453.596,158.252z"/>
<path fill="#F4F4F4" d="M506.469,120.377c0.002-12.426,10.074-22.499,22.501-22.499l0,0c12.427,0,22.499,10.072,22.501,22.499l0,0
	c-0.002,12.427-10.074,22.499-22.501,22.501l0,0C516.543,142.876,506.471,132.804,506.469,120.377L506.469,120.377z
	 M508.469,120.377c0.021,11.323,9.179,20.479,20.501,20.5l0,0c11.322-0.021,20.479-9.178,20.501-20.5l0,0
	c-0.021-11.32-9.179-20.479-20.501-20.498l0,0C517.647,99.898,508.49,109.057,508.469,120.377L508.469,120.377z"/>
<path fill="#F4F4F4" d="M516.97,54.878c0-8.492,6.885-15.374,15.376-15.376l0,0c8.49,0.002,15.374,6.884,15.374,15.376l0,0
	c0,8.492-6.884,15.374-15.374,15.376l0,0C523.854,70.252,516.97,63.37,516.97,54.878L516.97,54.878z M518.97,54.878
	c0.013,7.386,5.988,13.362,13.376,13.375l0,0c7.387-0.013,13.361-5.988,13.374-13.375l0,0c-0.013-7.386-5.987-13.361-13.374-13.374
	l0,0C524.958,41.517,518.982,47.492,518.97,54.878L518.97,54.878z"/>
<path fill="#F4F4F4" d="M522.22,54.879c0-5.593,4.535-10.125,10.125-10.125l0,0c5.591,0,10.125,4.532,10.125,10.125l0,0
	c0,5.591-4.534,10.123-10.125,10.123l0,0C526.755,65.002,522.22,60.47,522.22,54.879L522.22,54.879z M524.219,54.879
	c0.01,4.486,3.639,8.116,8.126,8.125l0,0c4.486-0.008,8.116-3.639,8.125-8.125l0,0c-0.009-4.488-3.639-8.118-8.125-8.126l0,0
	C527.857,46.761,524.229,50.391,524.219,54.879L524.219,54.879z"/>
</svg>
