<?xml version="1.0" encoding="UTF-8" standalone="no"?>
<svg
   id="_3DS"
   data-name=" 3DS"
   width="589"
   height="350"
   viewBox="0 0 589 350"
   version="1.1"
   sodipodi:docname="controller-01.svg"
   inkscape:version="1.1 (c68e22c387, 2021-05-23)"
   xmlns:inkscape="http://www.inkscape.org/namespaces/inkscape"
   xmlns:sodipodi="http://sodipodi.sourceforge.net/DTD/sodipodi-0.dtd"
   xmlns="http://www.w3.org/2000/svg"
   xmlns:svg="http://www.w3.org/2000/svg">
  <defs
     id="defs42" />
  <sodipodi:namedview
     id="namedview40"
     pagecolor="#ffffff"
     bordercolor="#666666"
     borderopacity="1.0"
     inkscape:pageshadow="2"
     inkscape:pageopacity="0.0"
     inkscape:pagecheckerboard="0"
     showgrid="false"
     inkscape:zoom="1.7962649"
     inkscape:cx="294.22164"
     inkscape:cy="175.08554"
     inkscape:window-width="1920"
     inkscape:window-height="1027"
     inkscape:window-x="1912"
     inkscape:window-y="-8"
     inkscape:window-maximized="1"
     inkscape:current-layer="_3D" />
  <g
     id="g78">
    <g
       id="body">
      <path
         id="bottom"
         d="m 149.5,336.88 a 9.76,9.76 0 0 1 -9.75,-9.75 V 178.38 h 1.5 v 148.75 a 8.26,8.26 0 0 0 8.25,8.25 h 290 a 8.26,8.26 0 0 0 8.25,-8.25 V 178.38 h 1.5 v 148.75 a 9.76,9.76 0 0 1 -9.75,9.75 z"
         style="fill:#f4f4f4" />
      <path
         id="hinge"
         d="m 151.16,189.21 a 11.42,11.42 0 0 1 0,-22.83 h 286.68 a 11.42,11.42 0 0 1 0,22.83 z m 0,-21.33 a 9.92,9.92 0 1 0 0,19.83 h 286.68 a 9.92,9.92 0 0 0 0,-19.83 z"
         style="fill:#f4f4f4" />
      <path
         id="top"
         d="m 410.25,188.71 v -25.33 h 37.5 V 25.13 a 8.26,8.26 0 0 0 -8.25,-8.25 h -290 a 8.26,8.26 0 0 0 -8.25,8.25 v 138.25 h 37.5 v 24.75 h -1.5 v -23.25 h -37.5 V 25.13 a 9.76,9.76 0 0 1 9.75,-9.75 h 290 a 9.76,9.76 0 0 1 9.75,9.75 v 139.75 h -37.5 v 23.83 z"
         style="fill:#f4f4f4" />
    </g>
    <g
       id="screens">
      <path
         id="bottom-2"
         d="m 213.47,331.13 a 4,4 0 0 1 -3.94,-3.94 V 191.57 a 4,4 0 0 1 3.94,-3.94 h 162.06 a 4,4 0 0 1 3.94,3.94 v 135.61 a 3.94,3.94 0 0 1 -3.93,3.95 z m 0,-141.9 a 2.36,2.36 0 0 0 -2.35,2.34 v 135.61 a 2.37,2.37 0 0 0 2.35,2.35 h 162.06 a 2.34,2.34 0 0 0 2.34,-2.34 V 191.57 a 2.34,2.34 0 0 0 -2.34,-2.34 z m 5.9,123 a 1.85,1.85 0 0 1 -1.84,-1.84 v -112 a 1.84,1.84 0 0 1 1.83,-1.85 h 150.27 a 1.85,1.85 0 0 1 1.84,1.84 v 112 a 1.85,1.85 0 0 1 -1.84,1.84 z m -0.25,-1.57 H 369.88 V 198.14 H 219.12 Z"
         style="fill:#f4f4f4" />
      <path
         id="top-2"
         d="m 196.92,160.54 a 4.76,4.76 0 0 1 -4.5,-4.74 V 27.46 a 4.75,4.75 0 0 1 4.75,-4.75 h 194.67 a 4.75,4.75 0 0 1 4.75,4.75 v 128.33 a 4.75,4.75 0 0 1 -4.75,4.75 z m 0.25,-136.33 a 3.26,3.26 0 0 0 -3.25,3.25 v 128.33 a 3.26,3.26 0 0 0 3.25,3.25 h 194.67 a 3.26,3.26 0 0 0 3.25,-3.25 V 27.46 a 3.26,3.26 0 0 0 -3.25,-3.25 z m 5.33,129.34 a 2.75,2.75 0 0 1 -2.75,-2.75 V 32.46 a 2.75,2.75 0 0 1 2.75,-2.75 h 184 a 2.75,2.75 0 0 1 2.75,2.75 V 150.8 a 2.75,2.75 0 0 1 -2.75,2.75 z m 0,-122.34 a 1.25,1.25 0 0 0 -1.25,1.25 v 118.33 a 1.25,1.25 0 0 0 1.25,1.21 h 184 a 1.25,1.25 0 0 0 1.25,-1.25 V 32.46 a 1.25,1.25 0 0 0 -1.25,-1.25 z"
         style="fill:#f4f4f4" />
    </g>
    <g
       id="joystick">
      <path
         id="back"
         d="m 172,246.19 a 21,21 0 1 1 21,-21 21,21 0 0 1 -21,21 z m 0,-40.67 A 19.68,19.68 0 1 0 191.68,225.23 19.71,19.71 0 0 0 172,205.52 Z"
         style="fill:#f4f4f4" />
      <path
         id="stick"
         d="m 172,239.25 a 14,14 0 1 1 14,-14 14,14 0 0 1 -14,14 z m 0,-26.86 a 12.81,12.81 0 1 0 12.81,12.86 v -0.07 -0.06 A 12.82,12.82 0 0 0 172,212.39 Z"
         style="fill:#f4f4f4" />
    </g>
    <path
       id="d-pad"
       d="m 166.63,297.13 h -0.25 a 1.55,1.55 0 0 1 -1.56,-1.54 v -11.18 h -11.15 a 1.56,1.56 0 0 1 -1.56,-1.56 v -12 a 1.56,1.56 0 0 1 1.56,-1.55 h 11.15 v -11.14 a 1.56,1.56 0 0 1 1.56,-1.55 h 12 a 1.56,1.56 0 0 1 1.56,1.55 v 11.16 h 11.15 a 1.56,1.56 0 0 1 1.56,1.55 v 12 a 1.56,1.56 0 0 1 -1.56,1.56 h -11.15 v 11.15 a 1.56,1.56 0 0 1 -1.55,1.55 z m -1.95,-14.05 a 1.78,1.78 0 0 1 0.95,0.27 1.32,1.32 0 0 1 0.46,1.1 v 11.25 l 0.19,0.09 h 0.1 12.25 v -11.23 a 1.62,1.62 0 0 1 0.27,-0.94 1.36,1.36 0 0 1 1.06,-0.5 h 11.35 v -12.5 h -11.25 a 1.53,1.53 0 0 1 -1,-0.35 1.5,1.5 0 0 1 -0.45,-1.14 v -11.26 h -12.5 v 11.25 a 1.49,1.49 0 0 1 -0.33,1 1.33,1.33 0 0 1 -1,0.48 h -11.4 v 12.5 h 11.3 z"
       style="fill:#f4f4f4" />
    <g
       id="bumpers">
      <g
         id="bottom-3">
        <path
           id="right"
           d="m 416,153.75 a 2.15,2.15 0 0 1 -2.15,-2.14 v -4.21 a 2.16,2.16 0 0 1 2.15,-2.15 h 4.2 a 2.15,2.15 0 0 1 2.15,2.15 v 4.21 a 2.14,2.14 0 0 1 -2.14,2.14 z m 0,-7.4 a 1,1 0 0 0 -1,1.05 v 4.21 a 1,1 0 0 0 1,1 h 4.21 a 1,1 0 0 0 1.05,-1 v -4.21 a 1,1 0 0 0 -1.05,-1.05 z"
           style="fill:#f4f4f4" />
        <path
           id="left"
           d="m 168.81,153.75 a 2.15,2.15 0 0 1 -2.15,-2.15 v -4.2 a 2.17,2.17 0 0 1 0.62,-1.52 2.13,2.13 0 0 1 1.51,-0.63 H 173 a 2.15,2.15 0 0 1 2.15,2.15 v 4.2 a 2.16,2.16 0 0 1 -2.15,2.15 z m -1.05,-2.15 a 1,1 0 0 0 1,1 H 173 a 1.05,1.05 0 0 0 1.05,-1 v -4.2 a 1,1 0 0 0 -1,-1 h -4.25 a 1,1 0 0 0 -1.05,1 v 0.6 0 z"
           style="fill:#f4f4f4" />
      </g>
      <g
         id="top-3">
        <path
           id="right-2"
           d="M 416,37.25 A 2.15,2.15 0 0 1 413.85,35.1 V 30.9 A 2.16,2.16 0 0 1 416,28.75 h 4.2 a 2.15,2.15 0 0 1 2.15,2.15 v 4.2 a 2.17,2.17 0 0 1 -0.62,1.52 2.13,2.13 0 0 1 -1.51,0.63 z m 0,-7.4 a 1,1 0 0 0 -1.05,1 v 4.2 a 1,1 0 0 0 1.05,1 h 4.2 a 1,1 0 0 0 1.05,-1 V 30.9 a 1,1 0 0 0 -1.05,-1 z"
           style="fill:#f4f4f4" />
        <path
           id="left-2"
           d="m 168.8,37.25 a 2.15,2.15 0 0 1 -2.14,-2.13 V 30.9 a 2.15,2.15 0 0 1 2.15,-2.15 H 173 a 2.16,2.16 0 0 1 2.15,2.15 v 4.2 A 2.15,2.15 0 0 1 173,37.25 Z m -1,-2.15 a 1,1 0 0 0 1.05,1 H 173 a 1,1 0 0 0 1.05,-1 v -4.2 a 1.06,1.06 0 0 0 -1.05,-1 h -4.2 a 1,1 0 0 0 -1.05,1 v 0.25 0 z"
           style="fill:#f4f4f4" />
      </g>
    </g>
    <path
       id="LED"
       d="m 430.25,178.53 c 0,0.4 -0.89,0.73 -2,0.73 v 0 c -1.1,0 -2,-0.33 -2,-0.73 V 176 c 0,-0.4 0.9,-0.72 2,-0.72 v 0 c 1.11,0 2,0.32 2,0.72 z"
       style="fill:#f4f4f4" />
    <g
       id="speakers">
      <path
         id="right-3"
         d="m 409.11,76.11 a 1.21,1.21 0 1 1 -1.21,1.21 v 0 a 1.21,1.21 0 0 1 1.21,-1.21 z m 9,-8.79 a 1.21,1.21 0 1 1 -1.21,1.21 v 0 a 1.21,1.21 0 0 1 1.19,-1.21 z m 0,8.79 a 1.21,1.21 0 0 1 0,2.42 v 0 a 1.21,1.21 0 0 1 0,-2.42 z m 9,0 a 1.21,1.21 0 1 1 -1.21,1.21 v 0 a 1.21,1.21 0 0 1 1.18,-1.21 z m -19.21,1.21 a 1.21,1.21 0 1 1 1.21,1.21 v 0 a 1.21,1.21 0 0 1 -1.21,-1.21 z m 9,8.79 a 1.21,1.21 0 1 1 1.21,1.21 v 0 a 1.21,1.21 0 0 1 -1.23,-1.19 v 0 z m 0,-8.79 a 1.21,1.21 0 1 1 1.21,1.21 v 0 a 1.21,1.21 0 0 1 -1.23,-1.19 v 0 z m 9,0 a 1.21,1.21 0 1 1 1.21,1.21 v 0 a 1.21,1.21 0 0 1 -1.24,-1.18 v 0 z"
         style="fill:#f4f4f4" />
      <path
         id="left-3"
         d="m 161.92,76.11 a 1.21,1.21 0 1 1 -1.21,1.21 1.21,1.21 0 0 1 1.21,-1.21 z m 9,-8.79 a 1.21,1.21 0 1 1 -1.21,1.21 1.21,1.21 0 0 1 1.21,-1.21 z m 0,8.79 a 1.21,1.21 0 1 1 -1.21,1.21 1.21,1.21 0 0 1 1.21,-1.21 z m 9,0 a 1.21,1.21 0 1 1 -1.21,1.21 1.21,1.21 0 0 1 1.21,-1.21 z m -19.18,1.21 a 1.21,1.21 0 1 1 1.26,1.21 1.21,1.21 0 0 1 -1.21,-1.21 v 0 z m 9,8.79 a 1.21,1.21 0 1 1 1.26,1.21 1.21,1.21 0 0 1 -1.21,-1.21 v 0 z m 0,-8.79 a 1.21,1.21 0 1 1 1.26,1.21 1.21,1.21 0 0 1 -1.21,-1.21 z m 9,0 a 0.86,0.86 0 1 1 -0.06,0.06 v -0.06 z"
         style="fill:#f4f4f4" />
    </g>
    <g
       id="buttons">
      <path
         id="select"
         d="m 393.74,313.75 a 4.73,4.73 0 1 1 4.75,-4.75 4.75,4.75 0 0 1 -4.75,4.75 z m -0.05,-8.09 a 3.35,3.35 0 1 0 3.36,3.34 3.34,3.34 0 0 0 -3.36,-3.34 z"
         style="fill:#f4f4f4" />
      <path
         id="start"
         d="m 393.74,297.33 a 4.75,4.75 0 1 1 4.75,-4.75 4.75,4.75 0 0 1 -4.75,4.75 z m 0,-8.1 a 3.35,3.35 0 1 0 3.35,3.35 3.38,3.38 0 0 0 -3.35,-3.35 z"
         style="fill:#f4f4f4" />
      <path
         id="Y"
         d="m 397.26,252.36 a 8.58,8.58 0 1 1 8.58,-8.58 8.59,8.59 0 0 1 -8.58,8.58 z m 0,-15.83 a 7.25,7.25 0 1 0 7.25,7.25 7.26,7.26 0 0 0 -7.22,-7.25 z"
         style="fill:#f4f4f4" />
      <path
         id="B"
         d="m 413.69,268.78 a 8.58,8.58 0 1 1 8.58,-8.58 8.59,8.59 0 0 1 -8.58,8.58 z m 0,-15.83 a 7.25,7.25 0 1 0 7.31,7.25 7.26,7.26 0 0 0 -7.29,-7.2 z"
         style="fill:#f4f4f4" />
      <path
         id="A"
         d="m 430.57,252.36 a 8.58,8.58 0 1 1 8.59,-8.58 8.59,8.59 0 0 1 -8.59,8.58 z m 0,-15.83 a 7.25,7.25 0 1 0 7.25,7.25 7.26,7.26 0 0 0 -7.22,-7.25 z"
         style="fill:#f4f4f4" />
      <path
         id="X"
         d="m 413.69,235.78 a 8.58,8.58 0 1 1 8.58,-8.58 8.59,8.59 0 0 1 -8.58,8.58 z m 0,-15.83 a 7.25,7.25 0 1 0 7.31,7.25 7.26,7.26 0 0 0 -7.29,-7.2 z"
         style="fill:#f4f4f4" />
    </g>
    <path
       id="c-stick"
       d="m 397.45,217.68 a 6.75,6.75 0 1 1 6.75,-6.75 6.76,6.76 0 0 1 -6.75,6.75 z m 0,-12.5 a 5.76,5.76 0 1 0 5.75,5.75 5.77,5.77 0 0 0 -5.78,-5.75 z"
       style="fill:#f4f4f4" />
    <g
       id="_3D"
       data-name="3D">
      <path
         id="slot-2"
         d="m 442.64,100.16 h 5.72 v 34.51 h -5.72 a 1,1 0 0 1 -1,-1 v -32.51 a 1,1 0 0 1 1,-1 z"
         style="fill:none;stroke:#f4f4f4;stroke-width:1.5px;stroke-miterlimit:10" />
      <path
         id="slider-2"
         d="m 442.64,100.16 h 5.72 v 10 h -5.72 a 1,1 0 0 1 -1,-1 v -8 a 1,1 0 0 1 1,-1 z"
         style="fill:none;stroke:#f4f4f4;stroke-width:1.5px;stroke-miterlimit:10" />
    </g>
    <g
       id="volume">
      <path
         id="slot-2-2"
         data-name="slot-2"
         d="m 140.64,100.16 h 5.72 a 1,1 0 0 1 1,1 v 32.51 a 1,1 0 0 1 -1,1 h -5.72 z"
         style="fill:none;stroke:#f4f4f4;stroke-width:1.5px;stroke-miterlimit:10" />
      <path
         id="slider-2-2"
         data-name="slider-2"
         d="m 140.64,100.16 h 5.72 a 1,1 0 0 1 1,1 v 8 a 1,1 0 0 1 -1,1 h -5.72 z"
         style="fill:none;stroke:#f4f4f4;stroke-width:1.5px;stroke-miterlimit:10" />
    </g>
  </g>
</svg>
