<svg height="357.64096" viewBox="0 0 2304.2888 1037.1588" width="794.58234" xmlns="http://www.w3.org/2000/svg"><g fill="#f4f4f4" fill-opacity=".5" stroke-width="2.9"><path d="m1464.1179 129.16004q0 .928-.2243 1.56213-.3325.94347-1.0672.94347-.4872 0-1.0208-.22427-.6419-.27066-.7037-.66506.2165 0 .5104.0773.6805.17787.8506.17787.6574 0 .9899-.65734.2629-.52586.2629-1.26053 0-.51814-.3402-1.47707-.3326-.96667-.3326-1.3456 0-.116.062-.1856.07-.0773.1856-.0773.3016 0 .5877 1.392.2398 1.17546.2398 1.74z"/><path d="m1467.0952 129.94884q0 .7888-.4563 1.23733-.4562.44854-1.2605.44854-.4408 0-.6805-.2088-.2398-.2088-.2398-.64187 0-.61093.7966-1.2296.7578-.58773 1.3997-.58773.2939 0 .3867.36346.054.2088.054.61867zm-.4717.21653q0-.0928-.023-.17786-.015-.0928-.062-.2088-.1237.0851-.4099.4176-.1469.17013-.2552.24746 0-.14693.031-.23973.062-.13147.1005-.22427-.3403 0-.7115.28614-.3634.28613-.3634.61866 0 .22427.2474.22427.4718 0 .9126-.232.5336-.2784.5336-.71147z"/><path d="m1470.2813 130.26591q0 .37893-.2861.85066-.3248.5336-.6728.5336-.1005 0-.1701-.10826-.062-.116-.062-.22427 0-.1392.2939-.43307.3016-.3016.3016-.40986 0-.0696-.023-.1392-.023-.0696-.031-.0928-.58.13146-1.1832.66506-.5954.5336-.9048.6032-.062-.17013-.062-.348 0-.21653.1005-.45626.07-.17014.232-.40987.2707-.40987.5723-.928.1546-.27067.5336-.93574.3866-.66506.5645-.94346.093-.1392.1624-.2088.1005-.0928.2397-.12374.093.0309.1315.116.046.0851.046.20107 0 .26293-.3403.71147-.6186.80427-.6341.8352-.348.52587-.348.9512l.015.0773q.4253-.2088.5026-.23973.3171-.13147.5414-.13147.2474 0 .3634.17014.116.1624.116.4176z"/><path d="m1473.8696 129.80964q0 .52587-.2552 1.12133-.2784.65734-.6883.9048-.085-.10053-.1469-.22426-.054-.12374-.054-.24747 0-.13147.3866-.78107.1702-.28613.1547-.50266l-.01-.10054q-.2862.0851-.9899.51814-.696.42533-1.4075.86613-.1082 0-.201-.0773-.085-.0851-.085-.1856 0-.1624.5181-1.0904.1547-.2784.5568-.96667.1238.1624.1624.36347.039.19333.039.464 0 .116 0 .17786.7115-.42533 1.1136-.64186.4408-.23974.6032-.23974.1083 0 .2011.24747.1005.24747.1005.3944z"/><path d="m1480.5899 131.30991q0 .1392-.1238.21653-.116.0696-.2629.0696-.1315 0-.3325-.0309-.4563-.0696-.5878-.0696-.232 0-.9125.0541-.3867.0309-.5568.0309-.4717 0-.4717-.47173 0-.44853.2938-1.28373.1624-.47174.611-1.54667.4021-.96667.5104-1.36107.039-.12373.062-.1624.062-.0928.1547-.0928.1469 0 .2475.21653.1005.2088.1005.37894 0 .27066-.3171.91253-.317.63414-.6186 1.24507-.3326.72693-.3326 1.10587 0 .19333.1624.27066.116.0541.3403.0541.1701 0 .5877-.0387.4176-.0464.5568-.0464.348 0 .5723.10053.3171.1392.3171.44854z"/><path d="m1483.4667 129.94884q0 .7888-.4563 1.23733-.4562.44854-1.2605.44854-.4408 0-.6806-.2088-.2397-.2088-.2397-.64187 0-.61093.7966-1.2296.7578-.58773 1.3997-.58773.2939 0 .3867.36346.054.2088.054.61867zm-.4717.21653q0-.0928-.023-.17786-.015-.0928-.062-.2088-.1237.0851-.4099.4176-.1469.17013-.2552.24746 0-.14693.031-.23973.062-.13147.1005-.22427-.3403 0-.7115.28614-.3634.28613-.3634.61866 0 .22427.2474.22427.4718 0 .9126-.232.5336-.2784.5336-.71147z"/><path d="m1486.7224 129.78644q0 .24747-.1314.52587-.1238.2784-.3171.464l-.01-.10827q0-.0928.023-.28613.023-.19334.023-.28614 0-.13146-.039-.19333-.039-.0696-.1624-.0696-.3635 0-.9048.56453-.5877.61867-1.1677 1.2296-.046 0-.093-.008-.116-.0309-.1547-.0387.023-.2784.1933-.61866.4563-.92027.4718-.98214.062-.24746.093-.36346.031-.116.085-.23974.062-.13146.1392-.232.085-.10826.2166-.1624l.077.928q.3325-.27066.5104-.4176.3403-.27066.5877-.27066.2475 0 .4022.1624.1546.1624.1546.40213z"/><path d="m1490.5195 128.88937q0 .3248-.8661.8584-.8352.5104-1.2142.5104-.1778 0-.2397-.12373-.054-.12373-.054-.348 0-.14693 0-.2088.5181 0 .9434-.15467.4254-.15466.7424-.5104-.232-.0851-.4717-.0851-.5645 0-1.1987.43306-.696.47174-.696 1.00534 0 .5104.696.71146.1083.0309 1.307.21654.7037.10826.7037.37893 0 .116-.2552.1856-.2552.0773-.6496.0773-.9899 0-1.5621-.3016-.7579-.40213-.7579-1.29146 0-.928.928-1.47707.7888-.464 1.7941-.464.3016 0 .5491.1392.3016.17013.3016.44853z"/><path d="m1493.5974 127.5051q0 .17014-.4099.71147-.4099.54134-.4099.82747 0 .14693.1702.29387.3866.34026.3866.4176 0 .10053-.07.19333-.062.0928-.1624.0928-.085 0-.2397-.0928-.1083-.0619-.4176-.3016-.116.22427-.1779.34027-.2165.40986-.2938.59546-.116.35574-.232.71147-.2011.47947-.5027.47947l-.01-.17787q0-.54907.3557-1.2992.07-.1392.3867-.7192-.611-.33253-1.3456-.33253 0-.28614.116-.4176.1237-.13921.4098-.13921.263 0 .6574.0928.1933.0464.3866.0928.147-.0464.4022-.50267.6264-1.09814.8506-1.26054.062.10054.1006.20107.046.10053.046.19333z"/><path d="m1496.451 130.26591q0 .37893-.2862.85066-.3248.5336-.6728.5336-.1005 0-.1701-.10826-.062-.116-.062-.22427 0-.1392.2939-.43307.3016-.3016.3016-.40986 0-.0696-.023-.1392-.023-.0696-.031-.0928-.58.13146-1.1832.66506-.5955.5336-.9048.6032-.062-.17013-.062-.348 0-.21653.1005-.45626.07-.17014.232-.40987.2707-.40987.5723-.928.1547-.27067.5336-.93574.3867-.66506.5645-.94346.093-.1392.1624-.2088.1006-.0928.2398-.12374.093.0309.1314.116.046.0851.046.20107 0 .26293-.3402.71147-.6187.80427-.6342.8352-.348.52587-.348.9512l.015.0773q.4253-.2088.5027-.23973.317-.13147.5413-.13147.2475 0 .3635.17014.116.1624.116.4176z"/><path d="m1502.8001 127.74484q0 .36346-.3867.9744-.2475.38667-.812 1.1136-.5645.7192-.7037.94347.023.008.58.1856.5645.17013.5645.61866-.232.0387-.4563.0696l-.085-.008v-.0619q-.1238-.0309-.2011-.0309-.1469 0-.464.0464-.3171.0464-.4795.0464-.2088 0-.3402-.0773-.1315-.0773-.1315-.2784 0-.1624.5955-.92027 1.1136-1.4152 1.1213-1.43067.6032-.81973.6032-1.09813 0-.10827-.077-.1624-.07-.0541-.2862-.0541-.1469 0-.6109.28614-.2243.1392-.3635.1392l-.1314-.0232q-.046-.0309-.1006-.116-.054-.0928-.054-.14694 0-.3248.6264-.59546.5336-.232.928-.232.3325 0 .5104.24746.1547.21654.1547.56454z"/><path d="m1507.4478 129.13684q0 .93573-1.0131 1.65493-.928.65734-1.9101.65734-.4872 0-.7733-.24747-.2862-.24747-.2862-.7192 0-1.05173.9203-1.82507.8739-.73467 1.9565-.73467.5491 0 .8275.3248.2784.3248.2784.88934zm-.4717.17787q0-.35574-.4022-.5336-.3016-.13147-.7192-.13147-.6109 0-1.276.59547-.665.59546-.665 1.19866 0 .24747.1237.35574.1315.10053.3944.10053.7579 0 1.5776-.4176.9667-.49493.9667-1.16773z"/><path d="m1510.9897 127.74484q0 .36346-.3867.9744-.2475.38667-.812 1.1136-.5645.7192-.7037.94347.023.008.58.1856.5645.17013.5645.61866-.232.0387-.4563.0696l-.085-.008v-.0619q-.1238-.0309-.2011-.0309-.1469 0-.464.0464-.3171.0464-.4795.0464-.2088 0-.3402-.0773-.1315-.0773-.1315-.2784 0-.1624.5955-.92027 1.1136-1.4152 1.1213-1.43067.6032-.81973.6032-1.09813 0-.10827-.077-.1624-.07-.0541-.2862-.0541-.1469 0-.6109.28614-.2243.1392-.3635.1392l-.1314-.0232q-.046-.0309-.1006-.116-.054-.0928-.054-.14694 0-.3248.6264-.59546.5336-.232.928-.232.3325 0 .5104.24746.1547.21654.1547.56454z"/><path d="m1514.547 127.74484q0 .36346-.3867.9744-.2474.38667-.812 1.1136-.5645.7192-.7037.94347.023.008.58.1856.5645.17013.5645.61866-.232.0387-.4562.0696l-.085-.008v-.0619q-.1237-.0309-.2011-.0309-.1469 0-.464.0464-.317.0464-.4794.0464-.2088 0-.3403-.0773-.1315-.0773-.1315-.2784 0-.1624.5955-.92027 1.1136-1.4152 1.1213-1.43067.6032-.81973.6032-1.09813 0-.10827-.077-.1624-.07-.0541-.2861-.0541-.147 0-.611.28614-.2242.1392-.3634.1392l-.1315-.0232q-.046-.0309-.1005-.116-.054-.0928-.054-.14694 0-.3248.6264-.59546.5336-.232.928-.232.3326 0 .5104.24746.1547.21654.1547.56454z"/></g><g fill="none" stroke="#f4f4f4"><rect height="1035.1588" rx="6.223695" stroke-width="5.8" width="2302.2888" x="1" y="1"/><rect height="91.623199" rx="8.863914" stroke-width="5.8" width="1405.3051" x="119.680271" y="20.859547"/><rect height="790.0777" rx="27.201654" stroke-width="5.8" width="2172.4619" x="64.700111" y="136.583416"/><circle cx="2017.315661" cy="966.878046" r="10.054414" stroke-width="2.9"/><g stroke-width="5.79734" transform="matrix(1.0009188 0 0 1 -55.956985 -60.015354)"><path d="m216.03249 834.15625h93.03006c1.44048 0 2.60014 1.15966 2.60014 2.60014v93.03006c0 1.44047-1.15966 2.60013-2.60014 2.60013h-93.03006c-1.44047 0-2.60013-1.15966-2.60013-2.60013v-93.03006c0-1.44048 1.15966-2.60014 2.60013-2.60014z"/><rect height="97.802025" rx="2.597753" ry="2.60014" width="923.14331" x="569.08185" y="835.25623"/></g><g stroke-width="5.79907" transform="matrix(1.0003219 0 0 1 -55.466444 172.287106)"><path d="m1162.3523 486.15625h93.0301c1.4405 0 2.6001 1.15966 2.6001 2.60014v93.03006c0 1.44047-1.1596 2.60013-2.6001 2.60013h-93.0301c-1.4404 0-2.6001-1.15966-2.6001-2.60013v-93.03006c0-1.44048 1.1597-2.60014 2.6001-2.60014z"/><path d="m1044.3523 486.15625h93.0301c1.4405 0 2.6001 1.15966 2.6001 2.60014v93.03006c0 1.44047-1.1596 2.60013-2.6001 2.60013h-93.0301c-1.4404 0-2.6001-1.15966-2.6001-2.60013v-93.03006c0-1.44048 1.1597-2.60014 2.6001-2.60014z"/><path d="m926.35233 486.15625h93.03007c1.4405 0 2.6001 1.15966 2.6001 2.60014v93.03006c0 1.44047-1.1596 2.60013-2.6001 2.60013h-93.03007c-1.44047 0-2.60013-1.15966-2.60013-2.60013v-93.03006c0-1.44048 1.15966-2.60014 2.60013-2.60014z"/><path d="m808.35233 486.15625h93.03006c1.44048 0 2.60014 1.15966 2.60014 2.60014v93.03006c0 1.44047-1.15966 2.60013-2.60014 2.60013h-93.03006c-1.44047 0-2.60013-1.15966-2.60013-2.60013v-93.03006c0-1.44048 1.15966-2.60014 2.60013-2.60014z"/><path d="m690.35233 486.15625h93.03006c1.44048 0 2.60014 1.15966 2.60014 2.60014v93.03006c0 1.44047-1.15966 2.60013-2.60014 2.60013h-93.03006c-1.44047 0-2.60013-1.15966-2.60013-2.60013v-93.03006c0-1.44048 1.15966-2.60014 2.60013-2.60014z"/><path d="m572.35233 486.15625h93.03006c1.44048 0 2.60014 1.15966 2.60014 2.60014v93.03006c0 1.44047-1.15966 2.60013-2.60014 2.60013h-93.03006c-1.44047 0-2.60013-1.15966-2.60013-2.60013v-93.03006c0-1.44048 1.15966-2.60014 2.60013-2.60014z"/><path d="m454.35233 486.15625h93.03006c1.44048 0 2.60014 1.15966 2.60014 2.60014v93.03006c0 1.44047-1.15966 2.60013-2.60014 2.60013h-93.03006c-1.44047 0-2.60013-1.15966-2.60013-2.60013v-93.03006c0-1.44048 1.15966-2.60014 2.60013-2.60014z"/><path d="m1516.3523 486.15625h93.0301c1.4405 0 2.6001 1.15966 2.6001 2.60014v93.03006c0 1.44047-1.1596 2.60013-2.6001 2.60013h-93.0301c-1.4404 0-2.6001-1.15966-2.6001-2.60013v-93.03006c0-1.44048 1.1597-2.60014 2.6001-2.60014z"/><path d="m1398.3523 486.15625h93.0301c1.4405 0 2.6001 1.15966 2.6001 2.60014v93.03006c0 1.44047-1.1596 2.60013-2.6001 2.60013h-93.0301c-1.4404 0-2.6001-1.15966-2.6001-2.60013v-93.03006c0-1.44048 1.1597-2.60014 2.6001-2.60014z"/><path d="m1280.3523 486.15625h93.0301c1.4405 0 2.6001 1.15966 2.6001 2.60014v93.03006c0 1.44047-1.1596 2.60013-2.6001 2.60013h-93.0301c-1.4404 0-2.6001-1.15966-2.6001-2.60013v-93.03006c0-1.44048 1.1597-2.60014 2.6001-2.60014z"/><rect height="98.230637" rx="2.510032" ry="2.51003" width="256.04642" x="176.16466" y="486.04932"/><rect height="98.230637" rx="2.510032" ry="2.51003" width="241.2896" x="1631.6993" y="486.04932"/></g><g stroke-width="5.82772" transform="matrix(.99051001 0 0 1 -54.044996 -60.015354)"><rect height="98.230637" rx="2.510032" ry="2.51003" width="197.48837" x="176.16692" y="602.04932"/><path d="m1104.3523 602.15625h93.0301c1.4405 0 2.6001 1.15966 2.6001 2.60014v93.03006c0 1.44047-1.1596 2.60013-2.6001 2.60013h-93.0301c-1.4404 0-2.6001-1.15966-2.6001-2.60013v-93.03006c0-1.44048 1.1597-2.60014 2.6001-2.60014z"/><path d="m986.35233 602.15625h93.03007c1.4405 0 2.6001 1.15966 2.6001 2.60014v93.03006c0 1.44047-1.1596 2.60013-2.6001 2.60013h-93.03007c-1.44047 0-2.60013-1.15966-2.60013-2.60013v-93.03006c0-1.44048 1.15966-2.60014 2.60013-2.60014z"/><path d="m868.35233 602.15625h93.03006c1.44048 0 2.60014 1.15966 2.60014 2.60014v93.03006c0 1.44047-1.15966 2.60013-2.60014 2.60013h-93.03006c-1.44047 0-2.60013-1.15966-2.60013-2.60013v-93.03006c0-1.44048 1.15966-2.60014 2.60013-2.60014z"/><path d="m750.35233 602.15625h93.03006c1.44048 0 2.60014 1.15966 2.60014 2.60014v93.03006c0 1.44047-1.15966 2.60013-2.60014 2.60013h-93.03006c-1.44047 0-2.60013-1.15966-2.60013-2.60013v-93.03006c0-1.44048 1.15966-2.60014 2.60013-2.60014z"/><path d="m632.35233 602.15625h93.03006c1.44048 0 2.60014 1.15966 2.60014 2.60014v93.03006c0 1.44047-1.15966 2.60013-2.60014 2.60013h-93.03006c-1.44047 0-2.60013-1.15966-2.60013-2.60013v-93.03006c0-1.44048 1.15966-2.60014 2.60013-2.60014z"/><path d="m514.35233 602.15625h93.03006c1.44048 0 2.60014 1.15966 2.60014 2.60014v93.03006c0 1.44047-1.15966 2.60013-2.60014 2.60013h-93.03006c-1.44047 0-2.60013-1.15966-2.60013-2.60013v-93.03006c0-1.44048 1.15966-2.60014 2.60013-2.60014z"/><path d="m396.35233 602.15625h93.03006c1.44048 0 2.60014 1.15966 2.60014 2.60014v93.03006c0 1.44047-1.15966 2.60013-2.60014 2.60013h-93.03006c-1.44047 0-2.60013-1.15966-2.60013-2.60013v-93.03006c0-1.44048 1.15966-2.60014 2.60013-2.60014z"/><path d="m1889.7997 697.39583c0 1.42838-1.1499 2.5783-2.5783 2.5783h-192.4784c-1.4284 0-2.5783-1.14992-2.5783-2.5783v-92.2488c0-1.42838 1.1499-2.5784 2.5783-2.5783l96.5565.007c2.6633-.00002 3.8229-1.15968 3.8183-4.57907l-.06-108.75027c-.0009-1.71114 1.587-3.0887 3.5586-3.0887h87.528c1.9715 0 3.558 1.37756 3.5587 3.0887l.048 113.20542z"/><path d="m1458.3523 602.15625h93.0301c1.4405 0 2.6001 1.15966 2.6001 2.60014v93.03006c0 1.44047-1.1596 2.60013-2.6001 2.60013h-93.0301c-1.4404 0-2.6001-1.15966-2.6001-2.60013v-93.03006c0-1.44048 1.1597-2.60014 2.6001-2.60014z"/><path d="m1340.3523 602.15625h93.0301c1.4405 0 2.6001 1.15966 2.6001 2.60014v93.03006c0 1.44047-1.1596 2.60013-2.6001 2.60013h-93.0301c-1.4404 0-2.6001-1.15966-2.6001-2.60013v-93.03006c0-1.44048 1.1597-2.60014 2.6001-2.60014z"/><path d="m1222.3523 602.15625h93.0301c1.4405 0 2.6001 1.15966 2.6001 2.60014v93.03006c0 1.44047-1.1596 2.60013-2.6001 2.60013h-93.0301c-1.4404 0-2.6001-1.15966-2.6001-2.60013v-93.03006c0-1.44048 1.1597-2.60014 2.6001-2.60014z"/><path d="m1577.4851 602.15625h93.0301c1.4405 0 2.6001 1.15966 2.6001 2.60014v93.03006c0 1.44047-1.1596 2.60013-2.6001 2.60013h-93.0301c-1.4404 0-2.6001-1.15966-2.6001-2.60013v-93.03006c0-1.44048 1.1597-2.60014 2.6001-2.60014z"/></g><g stroke-width="5.8"><g transform="translate(-84.881947 -176.015354)"><rect height="98.230637" rx="2.510032" ry="2.51003" width="167.48839" x="206.1669" y="602.04932"/><path d="m1104.3523 602.15625h93.0301c1.4405 0 2.6001 1.15966 2.6001 2.60014v93.03006c0 1.44047-1.1596 2.60013-2.6001 2.60013h-93.0301c-1.4404 0-2.6001-1.15966-2.6001-2.60013v-93.03006c0-1.44048 1.1597-2.60014 2.6001-2.60014z"/><path d="m986.35233 602.15625h93.03007c1.4405 0 2.6001 1.15966 2.6001 2.60014v93.03006c0 1.44047-1.1596 2.60013-2.6001 2.60013h-93.03007c-1.44047 0-2.60013-1.15966-2.60013-2.60013v-93.03006c0-1.44048 1.15966-2.60014 2.60013-2.60014z"/><path d="m868.35233 602.15625h93.03006c1.44048 0 2.60014 1.15966 2.60014 2.60014v93.03006c0 1.44047-1.15966 2.60013-2.60014 2.60013h-93.03006c-1.44047 0-2.60013-1.15966-2.60013-2.60013v-93.03006c0-1.44048 1.15966-2.60014 2.60013-2.60014z"/><path d="m750.35233 602.15625h93.03006c1.44048 0 2.60014 1.15966 2.60014 2.60014v93.03006c0 1.44047-1.15966 2.60013-2.60014 2.60013h-93.03006c-1.44047 0-2.60013-1.15966-2.60013-2.60013v-93.03006c0-1.44048 1.15966-2.60014 2.60013-2.60014z"/><path d="m632.35233 602.15625h93.03006c1.44048 0 2.60014 1.15966 2.60014 2.60014v93.03006c0 1.44047-1.15966 2.60013-2.60014 2.60013h-93.03006c-1.44047 0-2.60013-1.15966-2.60013-2.60013v-93.03006c0-1.44048 1.15966-2.60014 2.60013-2.60014z"/><path d="m514.35233 602.15625h93.03006c1.44048 0 2.60014 1.15966 2.60014 2.60014v93.03006c0 1.44047-1.15966 2.60013-2.60014 2.60013h-93.03006c-1.44047 0-2.60013-1.15966-2.60013-2.60013v-93.03006c0-1.44048 1.15966-2.60014 2.60013-2.60014z"/><path d="m396.35233 602.15625h93.03006c1.44048 0 2.60014 1.15966 2.60014 2.60014v93.03006c0 1.44047-1.15966 2.60013-2.60014 2.60013h-93.03006c-1.44047 0-2.60013-1.15966-2.60013-2.60013v-93.03006c0-1.44048 1.15966-2.60014 2.60013-2.60014z"/><path d="m1576.3523 602.15625h93.0301c1.4405 0 2.6001 1.15966 2.6001 2.60014v93.03006c0 1.44047-1.1596 2.60013-2.6001 2.60013h-93.0301c-1.4404 0-2.6001-1.15966-2.6001-2.60013v-93.03006c0-1.44048 1.1597-2.60014 2.6001-2.60014z"/><path d="m1458.3523 602.15625h93.0301c1.4405 0 2.6001 1.15966 2.6001 2.60014v93.03006c0 1.44047-1.1596 2.60013-2.6001 2.60013h-93.0301c-1.4404 0-2.6001-1.15966-2.6001-2.60013v-93.03006c0-1.44048 1.1597-2.60014 2.6001-2.60014z"/><path d="m1340.3523 602.15625h93.0301c1.4405 0 2.6001 1.15966 2.6001 2.60014v93.03006c0 1.44047-1.1596 2.60013-2.6001 2.60013h-93.0301c-1.4404 0-2.6001-1.15966-2.6001-2.60013v-93.03006c0-1.44048 1.1597-2.60014 2.6001-2.60014z"/><path d="m1222.3523 602.15625h93.0301c1.4405 0 2.6001 1.15966 2.6001 2.60014v93.03006c0 1.44047-1.1596 2.60013-2.6001 2.60013h-93.0301c-1.4404 0-2.6001-1.15966-2.6001-2.60013v-93.03006c0-1.44048 1.1597-2.60014 2.6001-2.60014z"/><path d="m1694.3523 602.15625h93.0301c1.4405 0 2.6001 1.15966 2.6001 2.60014v93.03006c0 1.44047-1.1596 2.60013-2.6001 2.60013h-93.0301c-1.4404 0-2.6001-1.15966-2.6001-2.60013v-93.03006c0-1.44048 1.1597-2.60014 2.6001-2.60014z"/></g><g transform="translate(-94.55446 -176.015354)"><path d="m1162.3523 486.15625h93.0301c1.4405 0 2.6001 1.15966 2.6001 2.60014v93.03006c0 1.44047-1.1596 2.60013-2.6001 2.60013h-93.0301c-1.4404 0-2.6001-1.15966-2.6001-2.60013v-93.03006c0-1.44048 1.1597-2.60014 2.6001-2.60014z"/><path d="m1044.3523 486.15625h93.0301c1.4405 0 2.6001 1.15966 2.6001 2.60014v93.03006c0 1.44047-1.1596 2.60013-2.6001 2.60013h-93.0301c-1.4404 0-2.6001-1.15966-2.6001-2.60013v-93.03006c0-1.44048 1.1597-2.60014 2.6001-2.60014z"/><path d="m926.35233 486.15625h93.03007c1.4405 0 2.6001 1.15966 2.6001 2.60014v93.03006c0 1.44047-1.1596 2.60013-2.6001 2.60013h-93.03007c-1.44047 0-2.60013-1.15966-2.60013-2.60013v-93.03006c0-1.44048 1.15966-2.60014 2.60013-2.60014z"/><path d="m808.35233 486.15625h93.03006c1.44048 0 2.60014 1.15966 2.60014 2.60014v93.03006c0 1.44047-1.15966 2.60013-2.60014 2.60013h-93.03006c-1.44047 0-2.60013-1.15966-2.60013-2.60013v-93.03006c0-1.44048 1.15966-2.60014 2.60013-2.60014z"/><path d="m690.35233 486.15625h93.03006c1.44048 0 2.60014 1.15966 2.60014 2.60014v93.03006c0 1.44047-1.15966 2.60013-2.60014 2.60013h-93.03006c-1.44047 0-2.60013-1.15966-2.60013-2.60013v-93.03006c0-1.44048 1.15966-2.60014 2.60013-2.60014z"/><path d="m572.35233 486.15625h93.03006c1.44048 0 2.60014 1.15966 2.60014 2.60014v93.03006c0 1.44047-1.15966 2.60013-2.60014 2.60013h-93.03006c-1.44047 0-2.60013-1.15966-2.60013-2.60013v-93.03006c0-1.44048 1.15966-2.60014 2.60013-2.60014z"/><path d="m454.35233 486.15625h93.03006c1.44048 0 2.60014 1.15966 2.60014 2.60014v93.03006c0 1.44047-1.15966 2.60013-2.60014 2.60013h-93.03006c-1.44047 0-2.60013-1.15966-2.60013-2.60013v-93.03006c0-1.44048 1.15966-2.60014 2.60013-2.60014z"/><path d="m1634.3523 486.15625h93.0301c1.4405 0 2.6001 1.15966 2.6001 2.60014v93.03006c0 1.44047-1.1596 2.60013-2.6001 2.60013h-93.0301c-1.4404 0-2.6001-1.15966-2.6001-2.60013v-93.03006c0-1.44048 1.1597-2.60014 2.6001-2.60014z"/><path d="m1516.3523 486.15625h93.0301c1.4405 0 2.6001 1.15966 2.6001 2.60014v93.03006c0 1.44047-1.1596 2.60013-2.6001 2.60013h-93.0301c-1.4404 0-2.6001-1.15966-2.6001-2.60013v-93.03006c0-1.44048 1.1597-2.60014 2.6001-2.60014z"/><path d="m1398.3523 486.15625h93.0301c1.4405 0 2.6001 1.15966 2.6001 2.60014v93.03006c0 1.44047-1.1596 2.60013-2.6001 2.60013h-93.0301c-1.4404 0-2.6001-1.15966-2.6001-2.60013v-93.03006c0-1.44048 1.1597-2.60014 2.6001-2.60014z"/><path d="m1280.3523 486.15625h93.0301c1.4405 0 2.6001 1.15966 2.6001 2.60014v93.03006c0 1.44047-1.1596 2.60013-2.6001 2.60013h-93.0301c-1.4404 0-2.6001-1.15966-2.6001-2.60013v-93.03006c0-1.44048 1.1597-2.60014 2.6001-2.60014z"/><path d="m1752.3523 486.15625h93.0301c1.4405 0 2.6001 1.15966 2.6001 2.60014v93.03006c0 1.44047-1.1596 2.60013-2.6001 2.60013h-93.0301c-1.4404 0-2.6001-1.15966-2.6001-2.60013v-93.03006c0-1.44048 1.1597-2.60014 2.6001-2.60014z"/><path d="m336.35233 486.15625h93.03006c1.44048 0 2.60014 1.15966 2.60014 2.60014v93.03006c0 1.44047-1.15966 2.60013-2.60014 2.60013h-93.03006c-1.44047 0-2.60013-1.15966-2.60013-2.60013v-93.03006c0-1.44048 1.15966-2.60014 2.60013-2.60014z"/><path d="m218.35233 486.15625h93.03006c1.44048 0 2.60014 1.15966 2.60014 2.60014v93.03006c0 1.44047-1.15966 2.60013-2.60014 2.60013h-93.03006c-1.44047 0-2.60013-1.15966-2.60013-2.60013v-93.03006c0-1.44048 1.15966-2.60014 2.60013-2.60014z"/></g><g transform="translate(-56.55446 -60.015354)"><path d="m1661.7585 254.15625h93.0301c1.4405 0 2.6001 1.15966 2.6001 2.60014v93.03006c0 1.44047-1.1596 2.60013-2.6001 2.60013h-93.0301c-1.4404 0-2.6001-1.15966-2.6001-2.60013v-93.03006c0-1.44048 1.1597-2.60014 2.6001-2.60014z"/><path d="m1779.7585 254.15625h93.0301c1.4405 0 2.6001 1.15966 2.6001 2.60014v93.03006c0 1.44047-1.1596 2.60013-2.6001 2.60013h-93.0301c-1.4404 0-2.6001-1.15966-2.6001-2.60013v-93.03006c0-1.44048 1.1597-2.60014 2.6001-2.60014z"/><path d="m298.1669 253.40011h93.03006c1.44048 0 2.60014 1.15966 2.60014 2.60014v93.03006c0 1.44047-1.15966 2.60013-2.60014 2.60013h-93.03006c-1.44047 0-2.60013-1.15966-2.60013-2.60013v-93.03006c0-1.44048 1.15966-2.60014 2.60013-2.60014z"/><path d="m180.1669 253.40011h93.03006c1.44048 0 2.60014 1.15966 2.60014 2.60014v93.03006c0 1.44047-1.15966 2.60013-2.60014 2.60013h-93.03006c-1.44047 0-2.60013-1.15966-2.60013-2.60013v-93.03006c0-1.44048 1.15966-2.60014 2.60013-2.60014z"/><path d="m867.7947 254.15625h151.351c2.3436 0 4.2302 1.15966 4.2302 2.60014v93.03006c0 1.44047-1.8866 2.60013-4.2302 2.60013h-151.351c-2.3435 0-4.23016-1.15966-4.23016-2.60013v-93.03006c0-1.44048 1.88666-2.60014 4.23016-2.60014z"/><path d="m1047.7947 254.15625h151.351c2.3436 0 4.2302 1.15966 4.2302 2.60014v93.03006c0 1.44047-1.8866 2.60013-4.2302 2.60013h-151.351c-2.3435 0-4.2302-1.15966-4.2302-2.60013v-93.03006c0-1.44048 1.8867-2.60014 4.2302-2.60014z"/><path d="m507.7947 254.15625h151.351c2.3436 0 4.2302 1.15966 4.2302 2.60014v93.03006c0 1.44047-1.8866 2.60013-4.2302 2.60013h-151.351c-2.3435 0-4.23016-1.15966-4.23016-2.60013v-93.03006c0-1.44048 1.88666-2.60014 4.23016-2.60014z"/><path d="m687.7947 254.15625h151.351c2.3436 0 4.2302 1.15966 4.2302 2.60014v93.03006c0 1.44047-1.8866 2.60013-4.2302 2.60013h-151.351c-2.3435 0-4.2302-1.15966-4.2302-2.60013v-93.03006c0-1.44048 1.8867-2.60014 4.2302-2.60014z"/><path d="m1227.7947 254.15625h151.351c2.3436 0 4.2302 1.15966 4.2302 2.60014v93.03006c0 1.44047-1.8866 2.60013-4.2302 2.60013h-151.351c-2.3435 0-4.2302-1.15966-4.2302-2.60013v-93.03006c0-1.44048 1.8867-2.60014 4.2302-2.60014z"/><path d="m1407.7947 254.15625h151.351c2.3436 0 4.2302 1.15966 4.2302 2.60014v93.03006c0 1.44047-1.8866 2.60013-4.2302 2.60013h-151.351c-2.3435 0-4.2302-1.15966-4.2302-2.60013v-93.03006c0-1.44048 1.8867-2.60014 4.2302-2.60014z"/></g><g transform="translate(-56.55446 -60.015354)"><path d="m1908.7859 718.15625h93.0301c1.4405 0 2.6001 1.15966 2.6001 2.60014v93.03006c0 1.44047-1.1596 2.60013-2.6001 2.60013h-93.0301c-1.4404 0-2.6001-1.15966-2.6001-2.60013v-93.03006c0-1.44048 1.1597-2.60014 2.6001-2.60014z"/><path d="m2026.7859 718.15625h93.0301c1.4405 0 2.6001 1.15966 2.6001 2.60014v93.03006c0 1.44047-1.1596 2.60013-2.6001 2.60013h-93.0301c-1.4404 0-2.6001-1.15966-2.6001-2.60013v-93.03006c0-1.44048 1.1597-2.60014 2.6001-2.60014z"/><path d="m2026.7859 604.15625h93.0301c1.4405 0 2.6001 1.15966 2.6001 2.60014v93.03006c0 1.44047-1.1596 2.60013-2.6001 2.60013h-93.0301c-1.4404 0-2.6001-1.15966-2.6001-2.60013v-93.03006c0-1.44048 1.1597-2.60014 2.6001-2.60014z"/><path d="m2026.7859 834.15625h93.0301c1.4405 0 2.6001 1.15966 2.6001 2.60014v93.03006c0 1.44047-1.1596 2.60013-2.6001 2.60013h-93.0301c-1.4404 0-2.6001-1.15966-2.6001-2.60013v-93.03006c0-1.44048 1.1597-2.60014 2.6001-2.60014z"/><path d="m2142.7859 718.15625h93.0301c1.4405 0 2.6001 1.15966 2.6001 2.60014v93.03006c0 1.44047-1.1596 2.60013-2.6001 2.60013h-93.0301c-1.4404 0-2.6001-1.15966-2.6001-2.60013v-93.03006c0-1.44048 1.1597-2.60014 2.6001-2.60014z"/></g><g transform="translate(-56.55446 -60.015354)"><path d="m2026.7859 370.22276h93.0301c1.4405 0 2.6001 1.15966 2.6001 2.60014v93.03006c0 1.44047-1.1596 2.60013-2.6001 2.60013h-93.0301c-1.4404 0-2.6001-1.15966-2.6001-2.60013v-93.03006c0-1.44048 1.1597-2.60014 2.6001-2.60014z"/><path d="m2026.7859 254.22276h93.0301c1.4405 0 2.6001 1.15966 2.6001 2.60014v93.03006c0 1.44047-1.1596 2.60013-2.6001 2.60013h-93.0301c-1.4404 0-2.6001-1.15966-2.6001-2.60013v-93.03006c0-1.44048 1.1597-2.60014 2.6001-2.60014z"/><path d="m1908.7859 370.22276h93.0301c1.4405 0 2.6001 1.15966 2.6001 2.60014v93.03006c0 1.44047-1.1596 2.60013-2.6001 2.60013h-93.0301c-1.4404 0-2.6001-1.15966-2.6001-2.60013v-93.03006c0-1.44048 1.1597-2.60014 2.6001-2.60014z"/><path d="m1908.7859 254.22276h93.0301c1.4405 0 2.6001 1.15966 2.6001 2.60014v93.03006c0 1.44047-1.1596 2.60013-2.6001 2.60013h-93.0301c-1.4404 0-2.6001-1.15966-2.6001-2.60013v-93.03006c0-1.44048 1.1597-2.60014 2.6001-2.60014z"/><path d="m2144.7859 370.22276h93.0301c1.4405 0 2.6001 1.15966 2.6001 2.60014v93.03006c0 1.44047-1.1596 2.60013-2.6001 2.60013h-93.0301c-1.4404 0-2.6001-1.15966-2.6001-2.60013v-93.03006c0-1.44048 1.1597-2.60014 2.6001-2.60014z"/><path d="m2144.7859 254.22276h93.0301c1.4405 0 2.6001 1.15966 2.6001 2.60014v93.03006c0 1.44047-1.1596 2.60013-2.6001 2.60013h-93.0301c-1.4404 0-2.6001-1.15966-2.6001-2.60013v-93.03006c0-1.44048 1.1597-2.60014 2.6001-2.60014z"/></g></g></g></svg>