<svg height="353.35919" viewBox="0 0 380.87882 212.01552" width="634.79803" xmlns="http://www.w3.org/2000/svg"><g fill="#f4f4f4" fill-opacity=".5" stroke-width=".6"><path d="m215.28144 73.741672q0 .192-.0464.3232-.0688.1952-.2208.1952-.1008 0-.2112-.0464-.1328-.056-.1456-.1376.0448 0 .1056.016.1408.0368.176.0368.136 0 .2048-.136.0544-.1088.0544-.2608 0-.1072-.0704-.3056-.0688-.2-.0688-.2784 0-.024.0128-.0384.0144-.016.0384-.016.0624 0 .1216.288.0496.2432.0496.36z"/><path d="m215.89744 73.904872q0 .1632-.0944.256-.0944.0928-.2608.0928-.0912 0-.1408-.0432-.0496-.0432-.0496-.1328 0-.1264.1648-.2544.1568-.1216.2896-.1216.0608 0 .08.0752.0112.0432.0112.128zm-.0976.0448q0-.0192-.005-.0368-.003-.0192-.0128-.0432-.0256.0176-.0848.0864-.0304.0352-.0528.0512 0-.0304.006-.0496.0128-.0272.0208-.0464-.0704 0-.1472.0592-.0752.0592-.0752.128 0 .0464.0512.0464.0976 0 .1888-.048.1104-.0576.1104-.1472z"/><path d="m216.55664 73.970472q0 .0784-.0592.176-.0672.1104-.1392.1104-.0208 0-.0352-.0224-.0128-.024-.0128-.0464 0-.0288.0608-.0896.0624-.0624.0624-.0848 0-.0144-.005-.0288-.005-.0144-.006-.0192-.12.0272-.2448.1376-.1232.1104-.1872.1248-.0128-.0352-.0128-.072 0-.0448.0208-.0944.0144-.0352.048-.0848.056-.0848.1184-.192.032-.056.1104-.1936.08-.1376.1168-.1952.0192-.0288.0336-.0432.0208-.0192.0496-.0256.0192.0064.0272.024.01.0176.01.0416 0 .0544-.0704.1472-.128.1664-.1312.1728-.072.1088-.072.1968l.003.016q.088-.0432.104-.0496.0656-.0272.112-.0272.0512 0 .0752.0352.024.0336.024.0864z"/><path d="m217.29904 73.876072q0 .1088-.0528.232-.0576.136-.1424.1872-.0176-.0208-.0304-.0464-.0112-.0256-.0112-.0512 0-.0272.08-.1616.0352-.0592.032-.104l-.002-.0208q-.0592.0176-.2048.1072-.144.088-.2912.1792-.0224 0-.0416-.016-.0176-.0176-.0176-.0384 0-.0336.1072-.2256.032-.0576.1152-.2.0256.0336.0336.0752.008.04.008.096 0 .024 0 .0368.1472-.088.2304-.1328.0912-.0496.1248-.0496.0224 0 .0416.0512.0208.0512.0208.0816z"/><path d="m218.68944 74.186472q0 .0288-.0256.0448-.024.0144-.0544.0144-.0272 0-.0688-.0064-.0944-.0144-.1216-.0144-.048 0-.1888.0112-.08.0064-.1152.0064-.0976 0-.0976-.0976 0-.0928.0608-.2656.0336-.0976.1264-.32.0832-.2.1056-.2816.008-.0256.0128-.0336.0128-.0192.032-.0192.0304 0 .0512.0448.0208.0432.0208.0784 0 .056-.0656.1888-.0656.1312-.128.2576-.0688.1504-.0688.2288 0 .04.0336.056.024.0112.0704.0112.0352 0 .1216-.008.0864-.0096.1152-.0096.072 0 .1184.0208.0656.0288.0656.0928z"/><path d="m219.28464 73.904872q0 .1632-.0944.256-.0944.0928-.2608.0928-.0912 0-.1408-.0432-.0496-.0432-.0496-.1328 0-.1264.1648-.2544.1568-.1216.2896-.1216.0608 0 .08.0752.0112.0432.0112.128zm-.0976.0448q0-.0192-.005-.0368-.003-.0192-.0128-.0432-.0256.0176-.0848.0864-.0304.0352-.0528.0512 0-.0304.006-.0496.0128-.0272.0208-.0464-.0704 0-.1472.0592-.0752.0592-.0752.128 0 .0464.0512.0464.0976 0 .1888-.048.1104-.0576.1104-.1472z"/><path d="m219.95824 73.871272q0 .0512-.0272.1088-.0256.0576-.0656.096l-.002-.0224q0-.0192.005-.0592.005-.04.005-.0592 0-.0272-.008-.04-.008-.0144-.0336-.0144-.0752 0-.1872.1168-.1216.128-.2416.2544-.01 0-.0192-.0016-.024-.0064-.032-.008.005-.0576.04-.128.0944-.1904.0976-.2032.0128-.0512.0192-.0752.006-.024.0176-.0496.0128-.0272.0288-.048.0176-.0224.0448-.0336l.016.192q.0688-.056.1056-.0864.0704-.056.1216-.056.0512 0 .0832.0336.032.0336.032.0832z"/><path d="m220.74384 73.685672q0 .0672-.1792.1776-.1728.1056-.2512.1056-.0368 0-.0496-.0256-.0112-.0256-.0112-.072 0-.0304 0-.0432.1072 0 .1952-.032.088-.032.1536-.1056-.048-.0176-.0976-.0176-.1168 0-.248.0896-.144.0976-.144.208 0 .1056.144.1472.0224.0064.2704.0448.1456.0224.1456.0784 0 .024-.0528.0384-.0528.016-.1344.016-.2048 0-.3232-.0624-.1568-.0832-.1568-.2672 0-.192.192-.3056.1632-.096.3712-.096.0624 0 .1136.0288.0624.0352.0624.0928z"/><path d="m221.38064 73.399272q0 .0352-.0848.1472-.0848.112-.0848.1712 0 .0304.0352.0608.08.0704.08.0864 0 .0208-.0144.04-.0128.0192-.0336.0192-.0176 0-.0496-.0192-.0224-.0128-.0864-.0624-.024.0464-.0368.0704-.0448.0848-.0608.1232-.024.0736-.048.1472-.0416.0992-.104.0992l-.002-.0368q0-.1136.0736-.2688.0144-.0288.08-.1488-.1264-.0688-.2784-.0688 0-.0592.024-.0864.0256-.0288.0848-.0288.0544 0 .136.0192.04.0096.08.0192.0304-.0096.0832-.104.1296-.2272.176-.2608.0128.0208.0208.0416.01.0208.01.04z"/><path d="m221.97104 73.970472q0 .0784-.0592.176-.0672.1104-.1392.1104-.0208 0-.0352-.0224-.0128-.024-.0128-.0464 0-.0288.0608-.0896.0624-.0624.0624-.0848 0-.0144-.005-.0288-.005-.0144-.006-.0192-.12.0272-.2448.1376-.1232.1104-.1872.1248-.0128-.0352-.0128-.072 0-.0448.0208-.0944.0144-.0352.048-.0848.056-.0848.1184-.192.032-.056.1104-.1936.08-.1376.1168-.1952.0192-.0288.0336-.0432.0208-.0192.0496-.0256.0192.0064.0272.024.01.0176.01.0416 0 .0544-.0704.1472-.128.1664-.1312.1728-.072.1088-.072.1968l.003.016q.088-.0432.104-.0496.0656-.0272.112-.0272.0512 0 .0752.0352.024.0336.024.0864z"/><path d="m223.28465 73.448872q0 .0752-.08.2016-.0512.08-.168.2304-.1168.1488-.1456.1952.005.0016.12.0384.1168.0352.1168.128-.048.008-.0944.0144l-.0176-.0016v-.0128q-.0256-.0064-.0416-.0064-.0304 0-.096.0096-.0656.0096-.0992.0096-.0432 0-.0704-.016-.0272-.016-.0272-.0576 0-.0336.1232-.1904.2304-.2928.232-.296.1248-.1696.1248-.2272 0-.0224-.016-.0336-.0144-.0112-.0592-.0112-.0304 0-.1264.0592-.0464.0288-.0752.0288l-.0272-.0048q-.01-.0064-.0208-.024-.0112-.0192-.0112-.0304 0-.0672.1296-.1232.1104-.048.192-.048.0688 0 .1056.0512.032.0448.032.1168z"/><path d="m224.24624 73.736872q0 .1936-.2096.3424-.192.136-.3952.136-.1008 0-.16-.0512-.0592-.0512-.0592-.1488 0-.2176.1904-.3776.1808-.152.4048-.152.1136 0 .1712.0672.0576.0672.0576.184zm-.0976.0368q0-.0736-.0832-.1104-.0624-.0272-.1488-.0272-.1264 0-.264.1232-.1376.1232-.1376.248 0 .0512.0256.0736.0272.0208.0816.0208.1568 0 .3264-.0864.2-.1024.2-.2416z"/><path d="m224.97905 73.448872q0 .0752-.08.2016-.0512.08-.168.2304-.1168.1488-.1456.1952.005.0016.12.0384.1168.0352.1168.128-.048.008-.0944.0144l-.0176-.0016v-.0128q-.0256-.0064-.0416-.0064-.0304 0-.096.0096-.0656.0096-.0992.0096-.0432 0-.0704-.016-.0272-.016-.0272-.0576 0-.0336.1232-.1904.2304-.2928.232-.296.1248-.1696.1248-.2272 0-.0224-.016-.0336-.0144-.0112-.0592-.0112-.0304 0-.1264.0592-.0464.0288-.0752.0288l-.0272-.0048q-.01-.0064-.0208-.024-.0112-.0192-.0112-.0304 0-.0672.1296-.1232.1104-.048.192-.048.0688 0 .1056.0512.032.0448.032.1168z"/><path d="m225.71504 73.448872q0 .0752-.08.2016-.0512.08-.168.2304-.1168.1488-.1456.1952.005.0016.12.0384.1168.0352.1168.128-.048.008-.0944.0144l-.0176-.0016v-.0128q-.0256-.0064-.0416-.0064-.0304 0-.096.0096-.0656.0096-.0992.0096-.0432 0-.0704-.016-.0272-.016-.0272-.0576 0-.0336.1232-.1904.2304-.2928.232-.296.1248-.1696.1248-.2272 0-.0224-.016-.0336-.0144-.0112-.0592-.0112-.0304 0-.1264.0592-.0464.0288-.0752.0288l-.0272-.0048q-.01-.0064-.0208-.024-.0112-.0192-.0112-.0304 0-.0672.1296-.1232.1104-.048.192-.048.0688 0 .1056.0512.032.0448.032.1168z"/></g><g stroke="#f4f4f4"><g fill="none" transform="translate(-40.550515 -350.68557)"><rect height="170.12999" rx="4.380915" stroke-width="1.2" width="312.46622" x="74.959343" y="371.51062"/><rect height="62.933182" rx="4.38091" stroke-width="1.2" width="84.501266" x="189.09749" y="470.49722"/><g stroke-width=".3"><rect height="36.60601" rx="4.38091" width="59.126625" x="201.015" y="483.13159"/><rect height="48.458061" rx="4.38091" width="70.477348" x="195.6049" y="477.62759"/><path d="m231.29883 488.39062c-7.00449 0-13.37696 6.37247-13.37695 13.37696 0 7.00449 6.37246 13.37695 13.37695 13.37695s13.37695-6.37246 13.37695-13.37695-6.37246-13.37696-13.37695-13.37696z"/></g><rect height="66.56369" rx="4.38091" stroke-width="1.2" width="65.099426" x="303.84036" y="468.58041"/><rect height="66.56369" rx="4.38091" stroke-width="1.2" width="65.099426" x="93.840363" y="468.58041"/><rect height="8.760559" rx=".815794" stroke-width=".6" width="18.171879" x="318.6756" y="449.10553"/><rect height="20.479412" rx=".4192" stroke-width=".6" width="311.58832" x="75.734329" y="442.84872"/><path d="m230.9899 351.68558h-185.03276c-2.44126 0-4.40662 1.96535-4.40662 4.40662v201.20226c0 2.44127 1.96536 4.40662 4.40662 4.40662h185.0878m-.055-210.0155h185.03276c2.44126 0 4.40662 1.96535 4.40662 4.40662v201.20226c0 2.44127-1.96536 4.40662-4.40662 4.40662h-185.0878" stroke-width="1.2"/></g><g transform="translate(-40.550515 -350.68557)"><rect fill="none" height="40.518551" rx="4.406619" stroke-width="1.2" width="78.384651" x="191.94528" y="385.71616"/><path d="m208.81325 392.7598h44.904392v26.991323h-44.904392z" fill="none" stroke-width=".6"/><path d="m244.2427 392.92647h1.18417v3.62323h-1.18417zm-3.09332 0h1.18417v3.62323h-1.18417zm-6.18663 0h1.18417v3.62323h-1.18417zm3.09332 0h1.18417v3.62323h-1.18417zm-9.27995 0h1.18417v3.62323h-1.18417zm3.09332 0h1.18417v3.62323h-1.18417zm-9.27995 0h1.18417v3.62323h-1.18417zm3.09332 0h1.18417v3.62323h-1.18417zm-9.27995 0h1.18417v3.62323h-1.18417zm3.09331 0h1.18418v3.62323h-1.18418zm24.74649 22.8h1.18417v3.62323h-1.18417zm-3.09331 0h1.18417v3.62323h-1.18417zm-6.18663 0h1.18417v3.62323h-1.18417zm3.09331 0h1.18417v3.62323h-1.18417zm-9.27995 0h1.18418v3.62323h-1.18418zm3.09332 0h1.18417v3.62323h-1.18417zm-9.27995 0h1.18418v3.62323h-1.18418zm3.09332 0h1.18417v3.62323h-1.18417zm-9.27995 0h1.18418v3.62323h-1.18418zm3.09332 0h1.18417v3.62323h-1.18417z" fill="#fff4f4" stroke-width=".999992"/></g><g fill="none" stroke-width="1.2"><circle cx="190.748575" cy="151.08183" r="7.4"/><g transform="matrix(.70710678 -.70710678 .70710678 .70710678 -40.550515 -350.68557)"><rect height="16.598124" rx="1.102223" width="16.598124" x="-136.82588" y="595.98248"/><rect height="16.598124" rx="1.102223" width="16.598124" x="-113.14836" y="595.98248"/><rect height="16.598124" rx="1.102223" width="16.598124" x="-113.14836" y="572.74518"/><rect height="16.598124" rx="1.102223" width="16.598124" x="-136.82588" y="572.74518"/></g><g transform="matrix(.70710678 -.70710678 .70710678 .70710678 -250.550515 -350.68557)"><rect height="16.598124" rx="1.102223" width="16.598124" x="-136.82588" y="595.98248"/><rect height="16.598124" rx="1.102223" width="16.598124" x="-113.14836" y="595.98248"/><rect height="16.598124" rx="1.102223" width="16.598124" x="-113.14836" y="572.74518"/><rect height="16.598124" rx="1.102223" width="16.598124" x="-136.82588" y="572.74518"/></g></g></g><rect fill="#f4f4e9" height="6" rx=".4192" width="6" x="284.082025" y="99.73667"/><circle cx="90.931765" cy="102.77409" fill="none" r="2" stroke="#f4f4f4" stroke-width=".6"/></svg>