<?xml version="1.0" encoding="UTF-8" standalone="no"?>
<svg
   version="1.0"
   width="1920.000000pt"
   height="1080.000000pt"
   viewBox="0 0 1920.000000 1080.000000"
   preserveAspectRatio="xMidYMid meet"
   id="svg22"
   sodipodi:docname="cd32-controller-RESCUE-2.svg"
   inkscape:version="1.1.1 (3bf5ae0d25, 2021-09-20)"
   xmlns:inkscape="http://www.inkscape.org/namespaces/inkscape"
   xmlns:sodipodi="http://sodipodi.sourceforge.net/DTD/sodipodi-0.dtd"
   xmlns="http://www.w3.org/2000/svg"
   xmlns:svg="http://www.w3.org/2000/svg">
  <defs
     id="defs26" />
  <sodipodi:namedview
     id="namedview24"
     pagecolor="#ffffff"
     bordercolor="#666666"
     borderopacity="1.0"
     inkscape:pageshadow="2"
     inkscape:pageopacity="0.0"
     inkscape:pagecheckerboard="0"
     inkscape:document-units="pt"
     showgrid="false"
     inkscape:zoom="0.41757813"
     inkscape:cx="1280"
     inkscape:cy="719.62582"
     inkscape:window-width="1920"
     inkscape:window-height="1017"
     inkscape:window-x="-8"
     inkscape:window-y="-8"
     inkscape:window-maximized="1"
     inkscape:current-layer="svg22" />
  <g
     transform="translate(0.000000,1080.000000) scale(0.100000,-0.100000)"
     fill="#000000"
     stroke="none"
     id="g20"
     style="fill:#ffffff">
    <path
       d="M13482 9164 c-62 -31 -92 -79 -92 -147 l0 -44 -60 -7 c-66 -8 -91 -15 -200 -58 -213 -84 -366 -263 -411 -481 -29 -142 -26 -282 11 -451 17 -76 34 -145 39 -155 10 -18 11 -20 141 -421 50 -157 135 -413 187 -569 60 -178 91 -287 85 -293 -5 -5 -40 -13 -78 -19 -38 -5 -123 -20 -189 -33 -163 -32 -275 -52 -435 -76 -74 -11 -175 -28 -225 -36 -135 -23 -622 -81 -970 -114 -182 -18 -905 -61 -1180 -70 -680 -23 -1683 -2 -2160 45 -82 8 -274 26 -425 40 -151 14 -405 44 -565 65 -379 51 -1215 201 -1215 217 0 7 8 32 19 55 10 24 26 66 35 93 9 28 51 149 93 270 41 121 87 254 100 295 13 41 33 95 43 120 11 25 47 131 81 235 34 105 68 203 76 219 8 16 23 57 33 90 10 34 27 86 39 116 30 77 30 267 0 383 -35 141 -75 210 -181 313 -76 75 -111 100 -188 139 -100 51 -247 94 -316 95 l-41 0 -7 48 c-7 53 -41 94 -106 128 -34 18 -87 19 -1240 21 l-1205 3 -40 -23 c-54 -30 -85 -79 -85 -132 l0 -43 -72 -5 c-128 -10 -363 -87 -468 -155 -14 -9 -52 -31 -84 -49 -99 -56 -173 -122 -278 -248 -100 -121 -174 -246 -221 -375 -82 -230 -189 -545 -265 -785 -104 -326 -121 -384 -137 -445 -9 -36 -45 -159 -80 -275 -35 -115 -74 -248 -85 -295 -12 -47 -37 -138 -56 -203 -19 -64 -50 -181 -68 -260 -19 -78 -52 -214 -75 -302 -23 -88 -50 -214 -62 -279 -11 -66 -22 -122 -24 -126 -10 -17 -96 -556 -109 -690 -26 -251 -17 -463 28 -718 26 -143 96 -314 205 -501 82 -141 344 -382 501 -461 66 -33 193 -82 270 -103 30 -9 82 -23 115 -32 85 -24 412 -110 530 -140 55 -14 183 -48 285 -75 102 -27 217 -54 255 -61 39 -6 185 -38 325 -71 370 -86 452 -103 785 -164 165 -30 352 -66 415 -79 206 -45 1208 -198 1535 -235 94 -10 229 -26 300 -34 421 -50 612 -69 985 -101 228 -19 530 -39 670 -45 140 -6 307 -15 370 -21 333 -30 1769 -38 2411 -14 400 15 1113 61 1384 90 77 8 205 19 285 25 80 6 228 22 330 35 102 13 214 27 250 30 114 11 440 55 590 80 80 13 213 34 295 45 83 12 204 33 270 46 66 14 200 38 297 54 189 32 438 83 634 130 66 16 192 42 280 59 87 17 337 78 554 136 690 185 813 217 895 231 287 48 526 154 789 349 86 63 246 237 300 326 121 197 168 316 217 541 34 151 34 156 33 403 0 335 -26 529 -113 855 -42 156 -93 365 -141 580 -27 120 -59 251 -145 605 -14 55 -47 201 -75 325 -28 124 -66 288 -85 365 -19 77 -41 169 -49 205 -73 324 -149 555 -251 765 -14 28 -40 85 -59 128 -40 88 -183 318 -263 421 -60 77 -212 223 -288 277 -76 55 -224 135 -280 153 -139 44 -269 73 -335 76 -3 0 -5 21 -5 48 0 63 -24 96 -99 135 l-61 32 -1185 3 -1185 2 -53 -26z m2438 -63 c68 -35 80 -49 80 -93 l0 -38 -1272 2 -1273 3 -3 27 c-5 42 24 87 71 109 41 18 79 19 1197 16 l1155 -2 45 -24z m-10569 9 c20 -6 52 -20 70 -33 27 -18 35 -30 37 -60 l3 -37 -1275 0 -1276 0 0 28 c1 39 22 73 61 93 32 17 96 18 1189 19 744 0 1168 -4 1191 -10z m324 -214 c210 -54 398 -191 470 -341 74 -155 97 -350 54 -471 -11 -32 -29 -86 -39 -120 -10 -33 -25 -74 -33 -90 -8 -16 -42 -114 -76 -219 -34 -104 -70 -210 -81 -235 -10 -25 -30 -79 -43 -120 -13 -41 -59 -174 -100 -295 -42 -121 -84 -242 -93 -270 -9 -27 -25 -70 -35 -95 -10 -25 -21 -58 -24 -74 -3 -17 -13 -35 -21 -40 -18 -14 -120 -341 -213 -684 -121 -445 -212 -864 -261 -1207 -11 -82 -25 -168 -30 -190 -16 -74 -49 -349 -60 -500 -6 -82 -15 -179 -20 -215 -29 -213 -34 -1269 -7 -1530 8 -80 14 -146 12 -148 -4 -5 -452 68 -565 93 -63 14 -250 49 -415 79 -333 61 -415 78 -785 164 -140 33 -286 65 -325 71 -38 7 -153 34 -255 61 -102 27 -230 61 -285 75 -118 30 -445 116 -530 140 -33 9 -85 23 -115 32 -77 21 -204 70 -270 103 -155 78 -391 295 -471 432 -152 259 -199 403 -234 713 -19 165 -19 253 1 445 13 134 99 673 109 690 2 4 13 60 24 126 12 65 39 191 62 279 23 88 56 224 75 302 18 79 49 196 68 260 19 65 44 156 56 203 11 47 50 180 85 295 35 116 71 239 80 275 16 61 33 119 137 445 76 240 183 555 265 785 86 236 299 507 467 592 22 11 53 29 67 39 50 35 244 116 315 133 39 8 82 20 95 25 15 6 562 10 1439 10 l1415 1 90 -24z m10440 4 c66 -10 142 -29 260 -66 55 -18 202 -98 280 -152 71 -50 200 -175 260 -252 77 -97 221 -329 261 -417 19 -43 45 -100 59 -128 102 -210 178 -441 251 -765 8 -36 30 -128 49 -205 19 -77 57 -241 85 -365 28 -124 61 -270 75 -325 86 -354 118 -485 145 -605 48 -215 99 -424 141 -580 84 -317 112 -520 113 -825 1 -214 0 -224 -33 -373 -48 -222 -99 -350 -211 -532 -121 -197 -357 -394 -618 -515 -136 -64 -342 -127 -457 -140 -33 -3 -69 -10 -80 -15 -11 -5 -74 -23 -140 -39 -66 -17 -331 -87 -590 -156 -258 -69 -542 -139 -629 -156 -88 -17 -214 -43 -280 -59 -189 -45 -442 -97 -608 -125 -84 -14 -233 -41 -330 -60 -97 -19 -183 -35 -191 -35 -11 0 -15 74 -20 438 -6 383 -16 606 -57 1352 -9 176 -48 635 -55 660 -3 8 -11 71 -19 140 -48 399 -138 911 -210 1190 -71 277 -204 621 -275 710 -19 25 -64 149 -160 440 -73 223 -157 477 -186 565 -29 88 -65 197 -79 243 -14 46 -30 92 -36 102 -23 42 -70 296 -70 374 1 238 107 456 272 559 88 54 218 107 298 120 56 9 2718 6 2785 -3z m-10375 -2431 c0 -5 -11 -37 -25 -72 -14 -34 -35 -98 -46 -142 -11 -44 -40 -141 -64 -215 -24 -74 -60 -202 -79 -285 -135 -562 -185 -806 -227 -1089 -11 -77 -22 -142 -24 -146 -11 -18 -58 -410 -90 -755 -49 -519 -52 -1235 -9 -1672 6 -60 6 -62 -15 -56 -11 3 -21 10 -21 15 0 6 -7 85 -17 177 -27 280 -23 1251 7 1471 5 36 14 133 20 215 11 151 44 426 60 500 5 22 19 108 30 190 70 484 227 1140 416 1741 40 126 47 141 64 137 11 -3 20 -9 20 -14z m7555 -114 c100 -198 211 -551 270 -855 78 -399 115 -631 151 -930 8 -69 16 -132 19 -140 7 -25 46 -484 55 -660 41 -740 51 -968 56 -1341 l7 -426 -29 -6 c-16 -3 -30 -5 -30 -4 -1 1 -7 234 -13 517 -6 283 -18 652 -26 820 -8 168 -14 323 -13 345 0 22 -11 168 -26 325 -15 157 -25 306 -21 332 3 25 1 49 -4 52 -12 8 -28 109 -41 256 -6 63 -19 167 -30 230 -10 63 -21 140 -25 170 -11 97 -74 442 -101 555 -81 333 -155 566 -237 737 -61 129 -66 151 -32 144 6 -1 37 -56 70 -121z m-7090 40 c429 -77 907 -144 1285 -180 151 -14 343 -32 425 -40 83 -8 331 -24 553 -35 446 -22 1185 -27 1667 -10 275 9 998 52 1180 70 348 33 835 91 970 114 50 8 151 25 225 36 177 27 472 80 588 106 21 4 29 -8 94 -143 144 -302 275 -806 352 -1358 8 -60 22 -157 30 -215 8 -58 19 -156 26 -217 6 -62 13 -119 15 -125 5 -14 -299 -66 -621 -108 -83 -11 -174 -24 -202 -30 -78 -14 -350 -48 -492 -60 -69 -6 -177 -17 -240 -25 -156 -20 -642 -62 -930 -80 -129 -8 -293 -19 -365 -25 -285 -21 -1005 -32 -1705 -27 -605 5 -779 10 -1130 31 -634 39 -1009 66 -1075 76 -33 5 -121 14 -195 20 -74 6 -160 15 -190 20 -30 5 -109 14 -175 20 -66 6 -126 13 -134 16 -8 2 -107 16 -221 29 -114 13 -236 31 -271 40 -35 8 -83 15 -107 15 -24 0 -73 6 -110 14 -37 8 -84 17 -104 21 -42 7 -41 -7 -12 145 7 41 20 122 29 180 33 235 90 509 221 1055 19 83 55 211 79 285 24 74 51 164 60 200 9 36 32 108 52 161 27 74 39 96 52 93 9 -2 178 -33 376 -69z m7444 -2362 c12 -159 23 -295 24 -302 2 -18 -56 -29 -337 -66 -104 -14 -228 -32 -275 -40 -113 -19 -534 -71 -686 -85 -66 -6 -172 -17 -235 -25 -157 -20 -656 -63 -930 -80 -124 -8 -287 -19 -363 -25 -132 -10 -547 -22 -1192 -35 -607 -13 -2105 39 -2448 85 -40 5 -169 16 -287 25 -118 8 -240 20 -270 25 -30 5 -113 14 -185 20 -71 6 -155 15 -185 20 -30 5 -129 17 -220 26 -90 8 -168 18 -172 20 -3 2 -89 16 -190 29 -101 14 -217 32 -258 40 -41 7 -98 17 -125 20 -78 10 -77 8 -65 116 6 52 17 157 25 234 8 77 17 165 21 196 l6 56 47 -8 c25 -4 66 -12 91 -18 25 -6 65 -11 90 -11 25 0 74 -7 109 -15 35 -9 157 -27 271 -40 114 -13 213 -27 221 -29 8 -3 68 -10 134 -16 66 -6 145 -15 175 -20 30 -5 116 -14 190 -20 74 -6 162 -15 195 -20 66 -10 437 -36 1075 -76 357 -22 520 -26 1160 -31 729 -5 1448 6 1735 27 72 6 236 17 365 25 288 18 774 60 930 80 63 8 171 19 240 25 163 14 346 37 490 60 63 11 187 29 275 40 88 11 237 33 330 49 94 16 177 30 185 30 13 1 19 -44 39 -286z m31 -410 c0 -16 7 -165 15 -333 14 -278 35 -1012 35 -1221 l0 -86 -192 -31 c-193 -31 -445 -65 -568 -77 -36 -3 -148 -17 -250 -30 -102 -13 -250 -29 -330 -35 -80 -6 -208 -17 -285 -25 -271 -29 -984 -75 -1384 -90 -635 -24 -2020 -15 -2351 14 -63 6 -230 15 -370 21 -140 6 -442 26 -670 45 -373 32 -564 51 -985 101 -71 8 -206 24 -300 34 -200 23 -786 107 -793 115 -11 11 -31 257 -43 525 -11 264 -3 663 20 985 l6 90 50 -3 c28 -1 84 -9 125 -17 41 -8 157 -26 258 -40 101 -13 187 -27 190 -29 4 -2 82 -12 172 -20 91 -9 190 -21 220 -26 30 -5 114 -14 185 -20 72 -6 155 -15 185 -20 30 -5 152 -17 270 -25 118 -9 247 -20 287 -25 350 -47 1840 -98 2488 -85 602 11 1072 25 1212 35 76 6 239 17 363 25 274 17 773 60 930 80 63 8 169 19 235 25 152 14 573 66 686 85 47 8 171 26 275 40 104 14 209 29 234 34 75 15 80 14 80 -16z"
       id="path2"
       style="fill:#ffffff" />
    <path
       d="M3100 7480 c-283 -46 -536 -176 -740 -380 -172 -172 -295 -385 -353 -610 -31 -121 -32 -132 -32 -335 0 -204 1 -214 33 -335 50 -196 134 -358 272 -523 182 -219 424 -372 686 -437 243 -60 435 -60 677 0 201 49 349 126 522 272 219 184 370 422 435 684 60 243 60 435 0 677 -65 263 -216 501 -434 684 -165 139 -329 225 -521 274 -108 28 -138 31 -305 34 -102 2 -210 0 -240 -5z m515 -89 c454 -115 816 -479 926 -930 57 -235 57 -377 0 -612 -111 -455 -475 -819 -930 -930 -235 -57 -377 -57 -612 0 -451 110 -811 469 -931 926 -29 114 -31 129 -31 310 0 180 2 196 31 310 129 498 543 870 1062 955 30 5 125 7 210 5 132 -3 173 -8 275 -34z"
       id="path4"
       style="fill:#ffffff" />
    <path
       d="M3130 7334 c-240 -45 -398 -118 -599 -277 -160 -127 -325 -399 -377 -622 -27 -115 -27 -425 0 -540 40 -171 136 -354 270 -517 121 -146 392 -313 581 -356 219 -50 382 -50 599 0 170 39 400 171 536 308 137 136 269 366 308 536 50 218 50 380 0 599 -43 189 -210 460 -356 581 -161 133 -346 230 -512 269 -73 17 -387 30 -450 19z m420 -79 c84 -20 256 -90 322 -131 138 -86 229 -167 308 -272 142 -189 211 -362 240 -603 10 -85 -3 -238 -29 -339 l-9 -35 -1 33 c-1 42 -21 79 -63 118 -47 45 -69 54 -133 54 -64 0 -97 -14 -141 -62 -45 -47 -54 -69 -54 -133 0 -64 14 -97 62 -141 47 -45 69 -54 133 -54 64 0 86 9 133 54 l34 31 -36 -79 c-40 -86 -157 -258 -221 -321 -67 -67 -234 -181 -337 -228 -101 -47 -225 -80 -369 -97 -67 -8 -112 -7 -199 5 -62 8 -115 16 -117 18 -2 3 10 7 26 10 35 7 106 68 127 108 18 36 18 132 0 167 -16 31 -71 84 -103 101 -28 14 -128 14 -156 0 -32 -17 -87 -70 -103 -101 -17 -32 -19 -130 -3 -161 6 -12 25 -37 43 -55 l31 -33 -88 40 c-96 44 -106 51 -244 153 -90 67 -175 165 -257 296 -41 66 -111 239 -130 322 -22 92 -31 260 -21 364 7 81 15 86 34 25 6 -19 29 -53 51 -74 37 -36 46 -39 104 -43 82 -5 126 10 163 56 46 57 53 76 53 140 0 55 -3 65 -39 110 -66 83 -155 101 -253 51 -22 -11 -48 -34 -58 -52 -31 -50 -24 -26 25 88 51 120 72 155 167 282 67 90 165 175 296 257 100 63 260 119 422 150 57 10 317 -2 390 -19z m-1092 -756 c37 -13 82 -75 82 -113 0 -34 -20 -74 -55 -106 -21 -20 -37 -25 -80 -25 -60 0 -89 19 -111 72 -48 112 48 213 164 172z m1790 -499 c40 -25 72 -75 72 -115 0 -63 -72 -135 -135 -135 -63 0 -135 72 -135 135 0 63 72 135 135 135 17 0 45 -9 63 -20z m-1140 -610 c40 -25 72 -75 72 -115 0 -63 -72 -135 -135 -135 -63 0 -135 72 -135 135 0 63 72 135 135 135 17 0 45 -9 63 -20z"
       id="path6"
       style="fill:#ffffff" />
    <path
       d="M3465 7208 c-32 -17 -85 -71 -101 -100 -17 -32 -19 -130 -3 -161 17 -32 70 -87 101 -103 15 -8 52 -14 83 -14 31 0 68 6 83 14 31 16 84 71 101 103 16 31 14 129 -3 161 -16 31 -71 84 -103 101 -28 14 -132 14 -158 -1z m143 -68 c40 -25 72 -75 72 -115 0 -63 -72 -135 -135 -135 -63 0 -135 72 -135 135 0 63 72 135 135 135 17 0 45 -9 63 -20z"
       id="path8"
       style="fill:#ffffff" />
    <path
       d="M15997 7531 c-70 -23 -124 -58 -196 -125 -67 -64 -107 -143 -127 -251 -15 -77 -15 -93 0 -176 20 -120 67 -201 165 -286 103 -90 155 -108 311 -108 120 0 128 1 192 32 118 55 201 142 260 269 20 43 23 65 23 179 l0 130 -42 86 c-52 106 -123 176 -233 228 -70 32 -83 35 -185 38 -87 2 -122 -1 -168 -16z m323 -83 c108 -51 153 -94 203 -196 41 -85 42 -89 42 -187 0 -86 -4 -108 -26 -155 -55 -117 -117 -182 -225 -232 -63 -30 -78 -33 -164 -32 -118 0 -185 24 -269 96 -118 102 -172 251 -145 397 24 128 82 213 193 286 113 75 262 84 391 23z"
       id="path10"
       style="fill:#ffffff" />
    <path
       d="M14377 7081 c-70 -23 -124 -58 -196 -125 -67 -64 -107 -143 -127 -251 -15 -77 -15 -93 0 -176 20 -120 67 -201 165 -286 103 -90 155 -108 311 -108 120 0 128 1 192 32 118 55 201 142 260 269 20 43 23 65 23 179 l0 130 -42 86 c-52 106 -123 176 -233 228 -70 32 -83 35 -185 38 -87 2 -122 -1 -168 -16z m323 -83 c108 -51 153 -94 203 -196 41 -85 42 -89 42 -187 0 -86 -4 -108 -26 -155 -55 -117 -117 -182 -225 -232 -63 -30 -78 -33 -164 -32 -118 0 -185 24 -269 96 -118 102 -172 251 -145 397 24 128 82 213 193 286 113 75 262 84 391 23z"
       id="path12"
       style="fill:#ffffff" />
    <path
       d="M16447 5931 c-70 -23 -124 -58 -196 -125 -67 -64 -107 -143 -127 -251 -15 -77 -15 -93 0 -176 20 -120 67 -201 165 -286 103 -90 155 -108 311 -108 120 0 128 1 192 32 118 55 201 142 260 269 20 43 23 65 23 179 l0 130 -42 86 c-52 106 -123 176 -233 228 -70 32 -83 35 -185 38 -87 2 -122 -1 -168 -16z m323 -83 c108 -51 153 -94 203 -196 41 -85 42 -89 42 -187 0 -86 -4 -108 -26 -155 -55 -117 -117 -182 -225 -232 -63 -30 -78 -33 -164 -32 -118 0 -185 24 -269 96 -118 102 -172 251 -145 397 24 128 82 213 193 286 113 75 262 84 391 23z"
       id="path14"
       style="fill:#ffffff" />
    <path
       d="M14825 5590 c-33 -9 -96 -35 -140 -58 -149 -75 -257 -231 -291 -419 -15 -88 -16 -103 -2 -189 31 -185 144 -351 296 -431 109 -58 168 -73 287 -73 127 0 198 18 296 76 108 63 185 147 244 267 48 97 49 99 53 214 6 144 -6 202 -65 315 -105 200 -305 319 -533 317 -48 -1 -111 -9 -145 -19z m272 -59 c91 -24 195 -80 254 -138 54 -52 131 -193 149 -272 8 -33 11 -88 8 -143 -5 -82 -10 -98 -53 -186 -58 -116 -113 -177 -214 -236 -174 -103 -350 -102 -532 1 -128 74 -226 220 -254 381 -13 71 -12 88 4 168 35 172 125 299 260 368 146 75 249 90 378 57z"
       id="path16"
       style="fill:#ffffff" />
    <path
       d="M12475 4114 c-11 -2 -157 -16 -325 -30 -168 -14 -348 -30 -400 -35 -52 -5 -171 -15 -265 -23 -870 -74 -838 -70 -911 -112 -88 -50 -124 -117 -124 -229 1 -88 26 -136 95 -180 98 -63 140 -67 457 -39 150 12 395 32 543 44 149 11 380 29 515 40 135 12 322 27 416 34 167 12 173 13 220 45 86 56 125 119 140 226 14 96 -51 197 -152 235 -53 19 -168 33 -209 24z m182 -86 c91 -34 132 -107 109 -196 -19 -69 -31 -87 -87 -131 -55 -44 -58 -45 -279 -61 -80 -6 -253 -20 -385 -31 -132 -11 -352 -28 -490 -39 -137 -10 -371 -29 -519 -41 -299 -25 -336 -23 -419 28 -58 35 -83 88 -74 158 9 65 32 102 82 134 70 45 92 47 915 116 91 8 217 19 280 25 372 36 750 66 780 62 19 -3 58 -13 87 -24z"
       id="path18"
       style="fill:#ffffff" />
  </g>
</svg>
