<svg height="354.92783" viewBox="0 0 3874.4962 2484.4948" width="553.49945" xmlns="http://www.w3.org/2000/svg"><g fill="#f4f4ff" fill-opacity=".5" stroke-width="7" transform="translate(-86.52043 -263.22265)"><path d="m3417.9245 2495.4655q0 2.24-.5413 3.7707-.8027 2.2773-2.576 2.2773-1.176 0-2.4641-.5413-1.5493-.6533-1.6986-1.6054.5226 0 1.232.1867 1.6427.4294 2.0533.4294 1.5867 0 2.3894-1.5867.6346-1.2694.6346-3.0427 0-1.2507-.8213-3.5653-.8027-2.3334-.8027-3.248 0-.28.1494-.448.168-.1867.448-.1867.728 0 1.4186 3.36.5787 2.8373.5787 4.2z"/><path d="m3425.1112 2497.3695q0 1.904-1.1014 2.9867-1.1013 1.0827-3.0426 1.0827-1.064 0-1.6427-.504-.5787-.504-.5787-1.5494 0-1.4747 1.9227-2.968 1.8293-1.4187 3.3787-1.4187.7093 0 .9333.8774.1307.504.1307 1.4933zm-1.1387.5227q0-.224-.056-.4294-.037-.224-.1493-.504-.2987.2054-.9894 1.008-.3546.4107-.616.5974 0-.3547.075-.5787.1493-.3173.2427-.5413-.8214 0-1.7174.6906-.8773.6907-.8773 1.4934 0 .5413.5973.5413 1.1387 0 2.2027-.56 1.288-.672 1.288-1.7173z"/><path d="m3432.8019 2498.1348q0 .9147-.6907 2.0534-.784 1.288-1.624 1.288-.2427 0-.4107-.2613-.1493-.28-.1493-.5414 0-.336.7093-1.0453.728-.728.728-.9894 0-.168-.056-.336-.056-.168-.075-.224-1.4.3174-2.856 1.6054-1.4374 1.288-2.184 1.456-.1494-.4107-.1494-.84 0-.5227.2427-1.1014.168-.4106.56-.9893.6533-.9893 1.3813-2.24.3734-.6533 1.288-2.2587.9334-1.6053 1.3627-2.2773.224-.336.392-.504.2427-.224.5787-.2987.224.075.3173.28.112.2054.112.4854 0 .6346-.8213 1.7173-1.4934 1.9413-1.5307 2.016-.84 1.2693-.84 2.296l.037.1867q1.0267-.504 1.2134-.5787.7653-.3173 1.3066-.3173.5974 0 .8774.4106.28.392.28 1.008z"/><path d="m3441.4632 2497.0335q0 1.2693-.616 2.7067-.672 1.5867-1.6613 2.184-.2053-.2427-.3547-.5413-.1306-.2987-.1306-.5974 0-.3173.9333-1.8853.4107-.6907.3733-1.2134l-.019-.2426q-.6907.2053-2.3894 1.2506-1.68 1.0267-3.3973 2.0907-.2613 0-.4854-.1866-.2053-.2054-.2053-.448 0-.3921 1.2507-2.6321.3733-.672 1.344-2.3333.2987.392.392.8773.093.4667.093 1.12 0 .28 0 .4294 1.7174-1.0267 2.688-1.5494 1.064-.5786 1.456-.5786.2614 0 .4854.5973.2426.5973.2426.952z"/><path d="m3457.6846 2500.6549q0 .336-.2987.5226-.28.168-.6347.168-.3173 0-.8026-.075-1.1014-.168-1.4187-.168-.56 0-2.2027.1306-.9333.075-1.344.075-1.1386 0-1.1386-1.1387 0-1.0827.7093-3.0987.392-1.1386 1.4747-3.7333.9706-2.3333 1.232-3.2853.093-.2987.1493-.392.1493-.224.3733-.224.3547 0 .5974.5226.2426.504.2426.9147 0 .6533-.7653 2.2027-.7653 1.5306-1.4933 3.0053-.8027 1.7547-.8027 2.6693 0 .4667.392.6534.28.1306.8213.1306.4107 0 1.4187-.093 1.008-.112 1.344-.112.84 0 1.3813.2427.7654.336.7654 1.0827z"/><path d="m3464.6286 2497.3695q0 1.904-1.1013 2.9867-1.1014 1.0827-3.0427 1.0827-1.064 0-1.6427-.504-.5786-.504-.5786-1.5494 0-1.4747 1.9226-2.968 1.8294-1.4187 3.3787-1.4187.7093 0 .9333.8774.1307.504.1307 1.4933zm-1.1387.5227q0-.224-.056-.4294-.037-.224-.1493-.504-.2987.2054-.9893 1.008-.3547.4107-.616.5974 0-.3547.075-.5787.1494-.3173.2427-.5413-.8213 0-1.7173.6906-.8774.6907-.8774 1.4934 0 .5413.5974.5413 1.1386 0 2.2026-.56 1.288-.672 1.288-1.7173z"/><path d="m3472.4873 2496.9775q0 .5973-.3174 1.2693-.2986.672-.7653 1.12l-.019-.2613q0-.224.056-.6907.056-.4666.056-.6906 0-.3174-.093-.4667-.093-.168-.392-.168-.8773 0-2.184 1.3627-1.4187 1.4933-2.8187 2.968-.112 0-.224-.019-.28-.075-.3733-.093.056-.672.4667-1.4934 1.1013-2.2213 1.1386-2.3706.1494-.5974.224-.8774.075-.28.2054-.5786.1493-.3174.336-.56.2053-.2614.5226-.392l.1867 2.24q.8027-.6534 1.232-1.008.8213-.6534 1.4187-.6534.5973 0 .9706.392.3734.392.3734.9707z"/><path d="m3481.6526 2494.8122q0 .784-2.0906 2.072-2.016 1.232-2.9307 1.232-.4293 0-.5787-.2987-.1306-.2987-.1306-.84 0-.3547 0-.504 1.2506 0 2.2773-.3733 1.0267-.3734 1.792-1.232-.56-.2054-1.1387-.2054-1.3626 0-2.8933 1.0454-1.68 1.1386-1.68 2.4266 0 1.232 1.68 1.7174.2613.075 3.1547.5227 1.6986.2613 1.6986.9146 0 .28-.616.448-.616.1867-1.568.1867-2.3893 0-3.7706-.728-1.8294-.9707-1.8294-3.1174 0-2.24 2.24-3.5653 1.904-1.12 4.3307-1.12.728 0 1.3253.336.728.4107.728 1.0827z"/><path d="m3489.082 2491.4708q0 .4107-.9893 1.7174-.9894 1.3066-.9894 1.9973 0 .3547.4107.7093.9333.8214.9333 1.008 0 .2427-.168.4667-.1493.224-.392.224-.2053 0-.5786-.224-.2614-.1493-1.008-.728-.28.5413-.4294.8213-.5226.9894-.7093 1.4374-.28.8586-.56 1.7173-.4853 1.1574-1.2133 1.1574l-.019-.4294q0-1.3253.8587-3.136.168-.336.9333-1.736-1.4747-.8027-3.248-.8027 0-.6906.28-1.008.2986-.336.9893-.336.6347 0 1.5867.224.4667.112.9333.224.3547-.112.9707-1.2133 1.512-2.6507 2.0533-3.0427.1494.2427.2427.4854.112.2426.112.4666z"/><path d="m3495.97 2498.1348q0 .9147-.6906 2.0534-.784 1.288-1.624 1.288-.2427 0-.4107-.2613-.1493-.28-.1493-.5414 0-.336.7093-1.0453.728-.728.728-.9894 0-.168-.056-.336-.056-.168-.075-.224-1.4.3174-2.856 1.6054-1.4373 1.288-2.184 1.456-.1493-.4107-.1493-.84 0-.5227.2426-1.1014.168-.4106.56-.9893.6534-.9893 1.3814-2.24.3733-.6533 1.288-2.2587.9333-1.6053 1.3627-2.2773.224-.336.392-.504.2426-.224.5786-.2987.224.075.3174.28.112.2054.112.4854 0 .6346-.8214 1.7173-1.4933 1.9413-1.5306 2.016-.84 1.2693-.84 2.296l.037.1867q1.0267-.504 1.2133-.5787.7654-.3173 1.3067-.3173.5973 0 .8773.4106.28.392.28 1.008z"/><path d="m3511.2954 2492.0495q0 .8773-.9333 2.352-.5974.9333-1.96 2.688-1.3627 1.736-1.6987 2.2773.056.019 1.4.448 1.3627.4107 1.3627 1.4934-.56.093-1.1014.168l-.2053-.019v-.1493q-.2987-.075-.4853-.075-.3547 0-1.12.112-.7654.112-1.1574.112-.504 0-.8213-.1866-.3173-.1867-.3173-.672 0-.392 1.4373-2.2214 2.688-3.416 2.7067-3.4533 1.456-1.9787 1.456-2.6507 0-.2613-.1867-.392-.168-.1307-.6907-.1307-.3546 0-1.4746.6907-.5414.336-.8774.336l-.3173-.056q-.112-.075-.2427-.28-.1306-.224-.1306-.3547 0-.784 1.512-1.4373 1.288-.56 2.24-.56.8026 0 1.232.5973.3733.5227.3733 1.3627z"/><path d="m3522.5141 2495.4095q0 2.2587-2.4454 3.9947-2.24 1.5867-4.6106 1.5867-1.176 0-1.8667-.5974-.6907-.5973-.6907-1.736 0-2.5387 2.2214-4.4053 2.1093-1.7734 4.7226-1.7734 1.3254 0 1.9974.784.672.784.672 2.1467zm-1.1387.4293q0-.8586-.9707-1.288-.728-.3173-1.736-.3173-1.4746 0-3.08 1.4373-1.6053 1.4374-1.6053 2.8934 0 .5973.2987.8586.3173.2427.952.2427 1.8293 0 3.808-1.008 2.3333-1.1947 2.3333-2.8187z"/><path d="m3531.0634 2492.0495q0 .8773-.9333 2.352-.5973.9333-1.96 2.688-1.3627 1.736-1.6987 2.2773.056.019 1.4.448 1.3627.4107 1.3627 1.4934-.56.093-1.1013.168l-.2054-.019v-.1493q-.2986-.075-.4853-.075-.3547 0-1.12.112-.7653.112-1.1573.112-.504 0-.8214-.1866-.3173-.1867-.3173-.672 0-.392 1.4373-2.2214 2.688-3.416 2.7067-3.4533 1.456-1.9787 1.456-2.6507 0-.2613-.1867-.392-.168-.1307-.6906-.1307-.3547 0-1.4747.6907-.5413.336-.8773.336l-.3174-.056q-.112-.075-.2426-.28-.1307-.224-.1307-.3547 0-.784 1.512-1.4373 1.288-.56 2.24-.56.8027 0 1.232.5973.3733.5227.3733 1.3627z"/><path d="m3539.6501 2492.0495q0 .8773-.9333 2.352-.5974.9333-1.96 2.688-1.3627 1.736-1.6987 2.2773.056.019 1.4.448 1.3627.4107 1.3627 1.4934-.56.093-1.1014.168l-.2053-.019v-.1493q-.2987-.075-.4853-.075-.3547 0-1.12.112-.7654.112-1.1574.112-.504 0-.8213-.1866-.3173-.1867-.3173-.672 0-.392 1.4373-2.2214 2.688-3.416 2.7067-3.4533 1.456-1.9787 1.456-2.6507 0-.2613-.1867-.392-.168-.1307-.6907-.1307-.3546 0-1.4746.6907-.5414.336-.8774.336l-.3173-.056q-.112-.075-.2427-.28-.1306-.224-.1306-.3547 0-.784 1.512-1.4373 1.288-.56 2.24-.56.8026 0 1.232.5973.3733.5227.3733 1.3627z"/></g><circle cx="406.29781" cy="1833.74515" fill="#f4f4ff" r="14"/><g fill="none" stroke="#f4f4f4" transform="translate(-86.52043 -263.22265)"><g><rect height="1462.891" rx="14.442335" stroke-width="14" width="3866.937" x="90.299965" y="1281.0469"/><path d="m175.07794 903.22392-56.29474 362.70768c-1.2271 7.9063 6.44236 14.4414 14.44336 14.4414h1888.68944 8 1880.6914c8.001 0 15.6685-6.5351 14.4414-14.4414l-48.2988-311.18999-.2139-1.36874-23.2539 3.64574c-1.4551.22813-2.8097-.76119-3.0371-2.21633l-38.9283-249.16019c-.2274-1.45515.7799-2.71129 2.2163-3.03703l23.917-5.42427-1.1725-6.65418-35.2288-223.52853c-1.2252-7.90674-6.4404-14.44335-14.4414-14.44338l-37.8144.42575-1.7442-14.29104-18-135.34761c-1.0548-7.93119-6.4403-14.4414-14.4414-14.44142l-4.6699.00001v-21.99805c0-1.48458-1.1854-2.67968-2.6582-2.67968h-13.9258c-1.4728.00001-2.6582 1.1951-2.6582 2.67968v21.99804l-26.248.00001h-.5098v-21.99805c0-1.48458-1.1854-2.67968-2.6582-2.67967l-13.9258-.00002c-1.4728.00001-2.6582 1.19511-2.6582 2.67969v21.99806l-26.7578-.00001v-21.99805c0-1.48459-1.1854-2.67969-2.6582-2.67968h-13.9258c-1.4728 0-2.6582 1.1951-2.6582 2.67969v21.99804h-26.7578v-21.99805c0-1.48458-1.1854-2.67968-2.6582-2.67968h-13.9258c-1.4728.00001-2.6582 1.1951-2.6582 2.67968v21.99804l-26.7578.00001v-21.99805c0-1.48458-1.1854-2.67968-2.6582-2.67967l-13.9258-.00002c-1.4728.00001-2.6582 1.19511-2.6582 2.67969v21.99806h-26.7578v-21.99806c0-1.48459-1.1854-2.67967-2.6582-2.67968h-13.9258c-1.4728 0-2.6582 1.1951-2.6582 2.67969v21.99804h-26.7578v-21.99806c0-1.48457-1.1854-2.67967-2.6582-2.67967h-13.9258c-1.4728.00001-2.6582 1.1951-2.6582 2.67968v21.99804l-26.7578.00001v-21.99805c0-1.48458-1.1854-2.67968-2.6582-2.67967h-13.9258c-1.4728-.00001-2.6582 1.19509-2.6582 2.67967v21.99806l-26.7578-.00001v-21.99805c0-1.48459-1.1854-2.67967-2.6582-2.67968h-13.9258c-1.4728 0-2.6582 1.1951-2.6582 2.67969v21.99804h-26.7578v-21.99805c0-1.48458-1.1854-2.67968-2.6582-2.67968l-13.9258-.00001c-1.4728.00002-2.6582 1.19511-2.6582 2.67969v21.99806l-26.7578-.00001v-21.99805c0-1.48459-1.1854-2.67969-2.6582-2.67968l-13.9258.00001c-1.4728-.00001-2.6582 1.19509-2.6582 2.67967v21.99805h-26.7578v-21.99805c0-1.48457-1.1854-2.67967-2.6582-2.67968h-13.9258c-1.4728 0-2.6582 1.1951-2.6582 2.67968v21.99805h-26.7578v-21.99805c0-1.48458-1.1854-2.67968-2.6582-2.67968l-13.9258-.00001c-1.4728.00001-2.6582 1.1951-2.6582 2.67969v21.99806l-26.7578-.00001v-21.99805c0-1.48459-1.1854-2.67969-2.6582-2.67968l-13.9258.00001c-1.4728-.00001-2.6582 1.19509-2.6582 2.67968v21.99804h-26.7578v-21.99805c0-1.48457-1.1854-2.67967-2.6582-2.67968h-13.9258c-1.4728 0-2.6582 1.1951-2.6582 2.67968v21.99805h-26.7578v-21.99805c0-1.48458-1.1854-2.67968-2.6582-2.67967l-13.9258-.00002c-1.4728.00001-2.6582 1.19511-2.6582 2.67969v21.99806l-26.7578-.00001v-21.99805c0-1.48459-1.1854-2.67969-2.6582-2.67968l-13.9258.00001c-1.4728-.00001-2.6582 1.19509-2.6582 2.67968v21.99804h-26.7578v-21.99806c0-1.48456-1.1854-2.67966-2.6582-2.67967h-13.9258c-1.4728.00001-2.6582 1.1951-2.6582 2.67968v21.99805h-26.7578v-21.99805c0-1.48458-1.1854-2.67968-2.6582-2.67967l-13.9258-.00002c-1.4728.00001-2.6582 1.19511-2.6582 2.67969v21.99806l-26.7578-.00002v-21.99804c0-1.48459-1.1854-2.67969-2.6582-2.67968l-13.9258.00001c-1.4728-.00001-2.6582 1.19509-2.6582 2.67968v21.99804h-26.7578v-21.99806c0-1.48456-1.1854-2.67966-2.6582-2.67967l-13.9258-.00001c-1.4728.00002-2.6582 1.19511-2.6582 2.67969v21.99805h-26.7578v-21.99805c0-1.48459-1.1854-2.67969-2.6582-2.67968l-13.9258-.00001c-1.4728.00001-2.6582 1.19511-2.6582 2.67969v21.99805l-26.7578-.00001v-21.99804c0-1.48459-1.1854-2.67967-2.6582-2.67968l-13.9258.00001c-1.4728-.00001-2.6582 1.19509-2.6582 2.67967v21.99805h-26.7578v-21.99806c0-1.48456-1.1854-2.67966-2.6582-2.67967l-13.9258-.00001c-1.4728.00001-2.6582 1.1951-2.6582 2.67969v21.99805h-26.7578v-21.99805c0-1.48459-1.1854-2.67969-2.6582-2.67968l-13.9258.00001c-1.4728-.00001-2.6582 1.19509-2.6582 2.67967v21.99805h-26.7578v-21.99805c0-1.48459-1.1854-2.67967-2.6582-2.67968l-13.9258.00001c-1.4728-.00001-2.6582 1.19509-2.6582 2.67967v21.99805h-26.7578v-21.99804c0-1.48458-1.1854-2.67968-2.6582-2.67969l-13.9258-.00001c-1.4728.00001-2.6582 1.1951-2.6582 2.67969v21.99805h-26.7578v-21.99805c0-1.48459-1.1854-2.67969-2.6582-2.67968l-13.9258.00001c-1.4728-.00001-2.6582 1.19509-2.6582 2.67967v21.99805h-26.7578v-21.99806c0-1.48456-1.1854-2.67966-2.6582-2.67967l-13.9258.00001c-1.4728-.00001-2.6582 1.19509-2.6582 2.67967v21.99805h-26.7578v-21.99804c0-1.48458-1.1854-2.67968-2.6582-2.67969l-13.9258-.00001c-1.4728.00001-2.6582 1.1951-2.6582 2.67969v21.99806l-26.7578-.00002v-21.99804c0-1.48459-1.1854-2.67969-2.6582-2.67968l-13.9258.00001c-1.4728-.00001-2.6582 1.19509-2.6582 2.67968v21.99804h-26.7578v-21.99806c0-1.48456-1.1854-2.67966-2.6582-2.67967h-13.9258c-1.4728 0-2.6582 1.1951-2.6582 2.67968v21.99805h-26.7578v-21.99804c0-1.48459-1.1854-2.67969-2.6582-2.6797h-13.9258c-1.4728.00001-2.6582 1.19512-2.6582 2.67969v21.99805l-26.7578-.00001v-21.99804c0-1.48459-1.1854-2.67969-2.6582-2.67968l-13.9258.00001c-1.4728-.00001-2.6582 1.19509-2.6582 2.67967v21.99805h-26.7578v-21.99806c0-1.48456-1.1854-2.67966-2.6582-2.67967h-13.9258c-1.4728-.00001-2.6582 1.19509-2.6582 2.67968v21.99805h-26.7578v-21.99804c0-1.48459-1.1854-2.67969-2.6582-2.67969l-13.9258-.00001c-1.4728.00001-2.6582 1.19512-2.6582 2.67969v21.99805l-26.7578-.00001v-21.99804c0-1.48459-1.1854-2.67969-2.6582-2.67968l-13.9258.00001c-1.4728-.00001-2.6582 1.19509-2.6582 2.67967v21.99805h-12.7793-13.9785v-21.99806c0-1.48456-1.1854-2.67966-2.6582-2.67967h-13.9258c-1.4728 0-2.6582 1.19509-2.6582 2.67968v21.99805h-26.7578v-21.99804c0-1.48459-1.1854-2.67969-2.6582-2.67969l-13.9258-.00001c-1.4728.00001-2.6582 1.19512-2.6582 2.67969v21.99805l-26.7578-.00001v-21.99805c0-1.48458-1.1854-2.67968-2.6582-2.67967l-13.9258.00001c-1.4728-.00001-2.6582 1.19509-2.6582 2.67967v21.99805h-26.7578v-21.99806c0-1.48456-1.1854-2.67966-2.6582-2.67967h-13.9258c-1.4728 0-2.6582 1.19509-2.6582 2.67968v21.99805l-26.7578-.00001v-21.99803c0-1.48459-1.1854-2.67969-2.6582-2.67969l-13.9258-.00001c-1.4728.00001-2.6582 1.19512-2.6582 2.67969v21.99805l-26.7578.00001v-21.99807c0-1.48458-1.1854-2.67966-2.6582-2.67967h-13.9258c-1.4728 0-2.6582 1.1951-2.6582 2.67968v21.99805h-26.7578v-21.99806c0-1.48457-1.1854-2.67967-2.6582-2.67968l-13.9258.00001c-1.4728 0-2.6582 1.19509-2.6582 2.67968v21.99804h-26.7578v-21.99803c0-1.48459-1.1854-2.67969-2.6582-2.67969l-13.9258.00001c-1.4728-.00001-2.6582 1.1951-2.6582 2.67966v21.99806l-26.7578.00001v-21.99807c0-1.48456-1.1854-2.67966-2.6582-2.67967h-13.9258c-1.4728-.00001-2.6582 1.19509-2.6582 2.67968v21.99805h-26.7578v-21.99804c0-1.48459-1.1854-2.67969-2.6582-2.6797l-13.9258.00001c-1.4728 0-2.6582 1.19509-2.6582 2.67968v21.99805l-26.7578-.00001v-21.99803c0-1.48459-1.1854-2.67969-2.6582-2.67969l-13.9258.00001c-1.4728-.00001-2.6582 1.1951-2.6582 2.67966v21.99806l-26.7578.00001v-21.99807c0-1.48456-1.1854-2.67966-2.6582-2.67967h-13.9258c-1.4728-.00001-2.6582 1.19509-2.6582 2.67968v21.99805h-26.7578v-21.99804c0-1.48459-1.1854-2.67969-2.6582-2.6797l-13.9258.00001c-1.4728 0-2.6582 1.19511-2.6582 2.67968v21.99805l-26.7578-.00001v-21.99804c0-1.48458-1.1854-2.67968-2.6582-2.67968l-13.9258.00001c-1.4728-.00001-2.6582 1.1951-2.6582 2.67967v21.99805l-26.7578.00001v-21.99807c0-1.48456-1.1854-2.67966-2.6582-2.67967h-13.9258c-1.4728-.00001-2.6582 1.19509-2.6582 2.67968v21.99805l-26.7578-.00001v-21.99803c0-1.48459-1.1854-2.67969-2.6582-2.67968l-13.9258-.00001c-1.4728 0-2.6582 1.19511-2.6582 2.67968v21.99805l-26.7578-.00001v-21.99804c0-1.48458-1.1854-2.67968-2.6582-2.67968h-13.9258c-1.4728 0-2.6582 1.19511-2.6582 2.67968v21.99805l-26.7578.00001v-21.99807c0-1.48457-1.1854-2.67967-2.6582-2.67968l-13.9258.00001c-1.4728.00001-2.6582 1.19509-2.6582 2.67968v21.99804h-26.7578v-21.99803c0-1.48459-1.1854-2.67969-2.6582-2.67968l-13.9258-.00001c-1.4728 0-2.6582 1.19511-2.6582 2.67967v21.99806l-26.7578-.00001v-21.99804c0-1.48458-1.1854-2.67968-2.6582-2.67968h-13.9258c-1.4728-.00001-2.6582 1.1951-2.6582 2.67968v21.99805l-26.7578.00001v-21.99807c0-1.48457-1.1854-2.67967-2.6582-2.67968l-13.9258.00001c-1.4728.00001-2.6582 1.19509-2.6582 2.67968v21.99804l-26.7578.00001v-21.99805c0-1.48458-1.1854-2.67968-2.6582-2.67968h-13.9258c-1.4728 0-2.6582 1.1951-2.6582 2.67968v21.99805h-26.7578v-21.99805c0-1.48458-1.18539-2.67968-2.6582-2.67968h-13.92578c-1.4728 0-2.6582 1.1951-2.65821 2.67968v21.99805h-26.75781v-21.99805c0-1.48458-1.1854-2.67968-2.6582-2.67968h-13.92578c-1.4728 0-2.65821 1.1951-2.65821 2.67968v21.99805h-26.75781v-21.99805c0-1.48458-1.1854-2.67968-2.6582-2.67968h-13.92578c-1.4728 0-2.65821 1.1951-2.65821 2.67968v21.99805h-26.75781v-21.99805c0-1.48458-1.1854-2.67968-2.6582-2.67968h-13.92578c-1.4728 0-2.65821 1.1951-2.65821 2.67968v21.99805h-26.75781v-21.99805c0-1.48458-1.1854-2.67968-2.6582-2.67968h-13.92578c-1.4728 0-2.65821 1.1951-2.65821 2.67968v21.99805h-26.75781v-21.99805c0-1.48458-1.1854-2.67968-2.6582-2.67968h-13.92578c-1.4728 0-2.65821 1.1951-2.65821 2.67968v21.99805h-26.75781v-21.99805c0-1.48458-1.1854-2.67968-2.6582-2.67969l-13.92578.00001c-1.4728-.00001-2.65821 1.1951-2.65821 2.67968v21.99805h-26.75781v-21.99805c0-1.48458-1.1854-2.67968-2.6582-2.67968h-13.92578c-1.4728 0-2.65821 1.1951-2.65821 2.67968v21.99805h-26.75781l-.00001-21.99805c.00001-1.48458-1.18539-2.67968-2.65819-2.67968h-13.92578c-1.4728 0-2.65821 1.1951-2.65821 2.67968l.00001 21.99805h-26.75782v-21.99805c0-1.48458-1.1854-2.67968-2.6582-2.67968h-13.92578c-1.4728 0-2.65821 1.1951-2.65821 2.67968v21.99805h-26.75781v-21.99804c0-1.48459-1.1854-2.67969-2.6582-2.67969h-13.92578c-1.4728 0-2.65821 1.1951-2.65822 2.67968l.00001 21.99805h-26.75781v-21.99805c0-1.48458-1.1854-2.67968-2.6582-2.67968h-13.92578c-1.4728 0-2.65821 1.1951-2.65821 2.67968v21.99805l-26.75781.00001v-21.99806c0-1.48458-1.1854-2.67968-2.6582-2.67968h-13.92578c-1.4728 0-2.65821 1.1951-2.65821 2.67968v21.99805h-26.75781v-21.99805c0-1.48458-1.1854-2.67968-2.6582-2.67968h-13.92578c-1.4728 0-2.65821 1.1951-2.65821 2.67968v21.99805h-26.75781v-21.99805c0-1.48458-1.1854-2.67967-2.65819-2.67968h-13.92579c-1.47279 0-2.65821 1.1951-2.65821 2.67968v21.99805h-3.46875c-8.0011 0-13.38856 6.51021-14.44336 14.44141l-18 135.34765-1.74218 14.29102-37.81446-.42578c-8.001-.00001-13.21626 6.53699-14.44336 14.44336l-64.6478 416.52655m0 0-3.05746 19.69932m119.96308-450.24345 3451.75108.15073" stroke-width="14"/><rect height="119.03036" rx="14.4423" stroke-width="7" width="559.51654" x="3253.2444" y="1349.608"/><path d="m1991.3537 264.22307h13.9249c1.4728 0 2.6585 1.19517 2.6585 2.67975v183.35891c0 1.48459-1.1857 2.67976-2.6585 2.67976h-13.9249c-1.4728 0-2.6585-1.19517-2.6585-2.67976v-183.35891c0-1.48458 1.1857-2.67975 2.6585-2.67975zm-46 0h13.9249c1.4728 0 2.6585 1.19517 2.6585 2.67975v183.35891c0 1.48459-1.1857 2.67976-2.6585 2.67976h-13.9249c-1.4728 0-2.6585-1.19517-2.6585-2.67976v-183.35891c0-1.48458 1.1857-2.67975 2.6585-2.67975zm-46 0h13.9249c1.4728 0 2.6585 1.19517 2.6585 2.67975v183.35891c0 1.48459-1.1857 2.67976-2.6585 2.67976h-13.9249c-1.4728 0-2.6585-1.19517-2.6585-2.67976v-183.35891c0-1.48458 1.1857-2.67975 2.6585-2.67975zm-46 0h13.9249c1.4728 0 2.6585 1.19517 2.6585 2.67975v183.35891c0 1.48459-1.1857 2.67976-2.6585 2.67976h-13.9249c-1.4728 0-2.6585-1.19517-2.6585-2.67976v-183.35891c0-1.48458 1.1857-2.67975 2.6585-2.67975zm-46 0h13.9249c1.4728 0 2.6585 1.19517 2.6585 2.67975v183.35891c0 1.48459-1.1857 2.67976-2.6585 2.67976h-13.9249c-1.4728 0-2.6585-1.19517-2.6585-2.67976v-183.35891c0-1.48458 1.1857-2.67975 2.6585-2.67975zm-46 0h13.9249c1.4728 0 2.6585 1.19517 2.6585 2.67975v183.35891c0 1.48459-1.1857 2.67976-2.6585 2.67976h-13.9249c-1.4728 0-2.6585-1.19517-2.6585-2.67976v-183.35891c0-1.48458 1.1857-2.67975 2.6585-2.67975zm-46 0h13.9249c1.4728 0 2.6585 1.19517 2.6585 2.67975v183.35891c0 1.48459-1.1857 2.67976-2.6585 2.67976h-13.9249c-1.4728 0-2.6585-1.19517-2.6585-2.67976v-183.35891c0-1.48458 1.1857-2.67975 2.6585-2.67975zm-46 0h13.9249c1.4728 0 2.6585 1.19517 2.6585 2.67975v183.35891c0 1.48459-1.1857 2.67976-2.6585 2.67976h-13.9249c-1.4728 0-2.6585-1.19517-2.6585-2.67976v-183.35891c0-1.48458 1.1857-2.67975 2.6585-2.67975zm-46 0h13.9249c1.4728 0 2.6585 1.19517 2.6585 2.67975v183.35891c0 1.48459-1.1857 2.67976-2.6585 2.67976h-13.9249c-1.4728 0-2.6585-1.19517-2.6585-2.67976v-183.35891c0-1.48458 1.1857-2.67975 2.6585-2.67975zm-46 0h13.9249c1.4728 0 2.6585 1.19517 2.6585 2.67975v183.35891c0 1.48459-1.1857 2.67976-2.6585 2.67976h-13.9249c-1.4728 0-2.6585-1.19517-2.6585-2.67976v-183.35891c0-1.48458 1.1857-2.67975 2.6585-2.67975zm-46 0h13.9249c1.4728 0 2.6585 1.19517 2.6585 2.67975v183.35891c0 1.48459-1.1857 2.67976-2.6585 2.67976h-13.9249c-1.4728 0-2.6585-1.19517-2.6585-2.67976v-183.35891c0-1.48458 1.1857-2.67975 2.6585-2.67975zm-46 0h13.9249c1.4728 0 2.6585 1.19517 2.6585 2.67975v183.35891c0 1.48459-1.1857 2.67976-2.6585 2.67976h-13.9249c-1.4728 0-2.6585-1.19517-2.6585-2.67976v-183.35891c0-1.48458 1.1857-2.67975 2.6585-2.67975zm-46 0h13.9249c1.4728 0 2.6585 1.19517 2.6585 2.67975v183.35891c0 1.48459-1.1857 2.67976-2.6585 2.67976h-13.9249c-1.4728 0-2.6585-1.19517-2.6585-2.67976v-183.35891c0-1.48458 1.1857-2.67975 2.6585-2.67975zm-46 0h13.9249c1.4728 0 2.6585 1.19517 2.6585 2.67975v183.35891c0 1.48459-1.1857 2.67976-2.6585 2.67976h-13.9249c-1.4728 0-2.6585-1.19517-2.6585-2.67976v-183.35891c0-1.48458 1.1857-2.67975 2.6585-2.67975zm-46 0h13.9249c1.4728 0 2.6585 1.19517 2.6585 2.67975v183.35891c0 1.48459-1.1857 2.67976-2.6585 2.67976h-13.9249c-1.4728 0-2.6585-1.19517-2.6585-2.67976v-183.35891c0-1.48458 1.1857-2.67975 2.6585-2.67975zm-46 0h13.9249c1.4728 0 2.6585 1.19517 2.6585 2.67975v183.35891c0 1.48459-1.1857 2.67976-2.6585 2.67976h-13.9249c-1.4728 0-2.6585-1.19517-2.6585-2.67976v-183.35891c0-1.48458 1.1857-2.67975 2.6585-2.67975zm-46 0h13.9249c1.4728 0 2.6585 1.19517 2.6585 2.67975v183.35891c0 1.48459-1.1857 2.67976-2.6585 2.67976h-13.9249c-1.4728 0-2.6585-1.19517-2.6585-2.67976v-183.35891c0-1.48458 1.1857-2.67975 2.6585-2.67975zm-46 0h13.9249c1.4728 0 2.6585 1.19517 2.6585 2.67975v183.35891c0 1.48459-1.1857 2.67976-2.6585 2.67976h-13.9249c-1.4728 0-2.6585-1.19517-2.6585-2.67976v-183.35891c0-1.48458 1.1857-2.67975 2.6585-2.67975zm-46 0h13.9249c1.4728 0 2.6585 1.19517 2.6585 2.67975v183.35891c0 1.48459-1.1857 2.67976-2.6585 2.67976h-13.9249c-1.4728 0-2.6585-1.19517-2.6585-2.67976v-183.35891c0-1.48458 1.1857-2.67975 2.6585-2.67975zm-46 0h13.9249c1.4728 0 2.6585 1.19517 2.6585 2.67975v183.35891c0 1.48459-1.1857 2.67976-2.6585 2.67976h-13.9249c-1.4728 0-2.6585-1.19517-2.6585-2.67976v-183.35891c0-1.48458 1.1857-2.67975 2.6585-2.67975zm-46 0h13.9249c1.4728 0 2.6585 1.19517 2.6585 2.67975v183.35891c0 1.48459-1.1857 2.67976-2.6585 2.67976h-13.9249c-1.4728 0-2.6585-1.19517-2.6585-2.67976v-183.35891c0-1.48458 1.1857-2.67975 2.6585-2.67975zm-46 0h13.9249c1.4728 0 2.6585 1.19517 2.6585 2.67975v183.35891c0 1.48459-1.1857 2.67976-2.6585 2.67976h-13.9249c-1.4728 0-2.6585-1.19517-2.6585-2.67976v-183.35891c0-1.48458 1.1857-2.67975 2.6585-2.67975zm-46.00002 0h13.9249c1.4728 0 2.6585 1.19517 2.6585 2.67975v183.35891c0 1.48459-1.1857 2.67976-2.6585 2.67976h-13.9249c-1.4728 0-2.6585-1.19517-2.6585-2.67976v-183.35891c0-1.48458 1.1857-2.67975 2.6585-2.67975zm-46 0h13.9249c1.4728 0 2.6585 1.19517 2.6585 2.67975v183.35891c0 1.48459-1.1857 2.67976-2.6585 2.67976h-13.9249c-1.4728 0-2.6585-1.19517-2.6585-2.67976v-183.35891c0-1.48458 1.1857-2.67975 2.6585-2.67975zm-46 0h13.9249c1.4728 0 2.6585 1.19517 2.6585 2.67975v183.35891c0 1.48459-1.1857 2.67976-2.6585 2.67976h-13.9249c-1.4728 0-2.6585-1.19517-2.6585-2.67976v-183.35891c0-1.48458 1.1857-2.67975 2.6585-2.67975zm-46 0h13.9249c1.4728 0 2.6585 1.19517 2.6585 2.67975v183.35891c0 1.48459-1.1857 2.67976-2.6585 2.67976h-13.9249c-1.4728 0-2.6585-1.19517-2.6585-2.67976v-183.35891c0-1.48458 1.1857-2.67975 2.6585-2.67975zm-46 0h13.9249c1.4728 0 2.6585 1.19517 2.6585 2.67975v183.35891c0 1.48459-1.1857 2.67976-2.6585 2.67976h-13.9249c-1.4728 0-2.6585-1.19517-2.6585-2.67976v-183.35891c0-1.48458 1.1857-2.67975 2.6585-2.67975zm-46 0h13.9249c1.4728 0 2.6585 1.19517 2.6585 2.67975v183.35891c0 1.48459-1.1857 2.67976-2.6585 2.67976h-13.9249c-1.4728 0-2.6585-1.19517-2.6585-2.67976v-183.35891c0-1.48458 1.1857-2.67975 2.6585-2.67975zm-46 0h13.9249c1.4728 0 2.6585 1.19517 2.6585 2.67975v183.35891c0 1.48459-1.1857 2.67976-2.6585 2.67976h-13.9249c-1.4728 0-2.6585-1.19517-2.6585-2.67976v-183.35891c0-1.48458 1.1857-2.67975 2.6585-2.67975zm-46 0h13.9249c1.4728 0 2.6585 1.19517 2.6585 2.67975v183.35891c0 1.48459-1.1857 2.67976-2.6585 2.67976h-13.9249c-1.4728 0-2.6585-1.19517-2.6585-2.67976v-183.35891c0-1.48458 1.1857-2.67975 2.6585-2.67975zm-46 0h13.9249c1.4728 0 2.6585 1.19517 2.6585 2.67975v183.35891c0 1.48459-1.1857 2.67976-2.6585 2.67976h-13.9249c-1.4728 0-2.6585-1.19517-2.6585-2.67976v-183.35891c0-1.48458 1.1857-2.67975 2.6585-2.67975zm-46 0h13.9249c1.4728 0 2.6585 1.19517 2.6585 2.67975v183.35891c0 1.48459-1.1857 2.67976-2.6585 2.67976h-13.9249c-1.4728 0-2.6585-1.19517-2.6585-2.67976v-183.35891c0-1.48458 1.1857-2.67975 2.6585-2.67975zm-46 0h13.9249c1.4728 0 2.6585 1.19517 2.6585 2.67975v183.35891c0 1.48459-1.1857 2.67976-2.6585 2.67976h-13.9249c-1.4728 0-2.6585-1.19517-2.6585-2.67976v-183.35891c0-1.48458 1.1857-2.67975 2.6585-2.67975zm-46 0h13.9249c1.4728 0 2.6585 1.19517 2.6585 2.67975v183.35891c0 1.48459-1.1857 2.67976-2.6585 2.67976h-13.9249c-1.4728 0-2.6585-1.19517-2.6585-2.67976v-183.35891c0-1.48458 1.1857-2.67975 2.6585-2.67975zm-46 0h13.9249c1.4728 0 2.6585 1.19517 2.6585 2.67975v183.35891c0 1.48459-1.1857 2.67976-2.6585 2.67976h-13.9249c-1.4728 0-2.6585-1.19517-2.6585-2.67976v-183.35891c0-1.48458 1.1857-2.67975 2.6585-2.67975zm-46 0h13.9249c1.4728 0 2.6585 1.19517 2.6585 2.67975v183.35891c0 1.48459-1.1857 2.67976-2.6585 2.67976h-13.9249c-1.4728 0-2.6585-1.19517-2.6585-2.67976v-183.35891c0-1.48458 1.1857-2.67975 2.6585-2.67975zm-46 0h13.9249c1.4728 0 2.6585 1.19517 2.6585 2.67975v183.35891c0 1.48459-1.1857 2.67976-2.6585 2.67976h-13.9249c-1.4728 0-2.6585-1.19517-2.6585-2.67976v-183.35891c0-1.48458 1.1857-2.67975 2.6585-2.67975zm3358.00002 0h13.9249c1.4728 0 2.6585 1.19517 2.6585 2.67975v183.35891c0 1.48459-1.1857 2.67976-2.6585 2.67976h-13.9249c-1.4728 0-2.6585-1.19517-2.6585-2.67976v-183.35891c0-1.48458 1.1857-2.67975 2.6585-2.67975zm-46 0h13.9249c1.4728 0 2.6585 1.19517 2.6585 2.67975v183.35891c0 1.48459-1.1857 2.67976-2.6585 2.67976h-13.9249c-1.4728 0-2.6585-1.19517-2.6585-2.67976v-183.35891c0-1.48458 1.1857-2.67975 2.6585-2.67975zm-46 0h13.9249c1.4728 0 2.6585 1.19517 2.6585 2.67975v183.35891c0 1.48459-1.1857 2.67976-2.6585 2.67976h-13.9249c-1.4728 0-2.6585-1.19517-2.6585-2.67976v-183.35891c0-1.48458 1.1857-2.67975 2.6585-2.67975zm-46 0h13.9249c1.4728 0 2.6585 1.19517 2.6585 2.67975v183.35891c0 1.48459-1.1857 2.67976-2.6585 2.67976h-13.9249c-1.4728 0-2.6585-1.19517-2.6585-2.67976v-183.35891c0-1.48458 1.1857-2.67975 2.6585-2.67975zm-46 0h13.9249c1.4728 0 2.6585 1.19517 2.6585 2.67975v183.35891c0 1.48459-1.1857 2.67976-2.6585 2.67976h-13.9249c-1.4728 0-2.6585-1.19517-2.6585-2.67976v-183.35891c0-1.48458 1.1857-2.67975 2.6585-2.67975zm-46 0h13.9249c1.4728 0 2.6585 1.19517 2.6585 2.67975v183.35891c0 1.48459-1.1857 2.67976-2.6585 2.67976h-13.9249c-1.4728 0-2.6585-1.19517-2.6585-2.67976v-183.35891c0-1.48458 1.1857-2.67975 2.6585-2.67975zm-46 0h13.9249c1.4728 0 2.6585 1.19517 2.6585 2.67975v183.35891c0 1.48459-1.1857 2.67976-2.6585 2.67976h-13.9249c-1.4728 0-2.6585-1.19517-2.6585-2.67976v-183.35891c0-1.48458 1.1857-2.67975 2.6585-2.67975zm-46 0h13.9249c1.4728 0 2.6585 1.19517 2.6585 2.67975v183.35891c0 1.48459-1.1857 2.67976-2.6585 2.67976h-13.9249c-1.4728 0-2.6585-1.19517-2.6585-2.67976v-183.35891c0-1.48458 1.1857-2.67975 2.6585-2.67975zm-46 0h13.9249c1.4728 0 2.6585 1.19517 2.6585 2.67975v183.35891c0 1.48459-1.1857 2.67976-2.6585 2.67976h-13.9249c-1.4728 0-2.6585-1.19517-2.6585-2.67976v-183.35891c0-1.48458 1.1857-2.67975 2.6585-2.67975zm-46 0h13.9249c1.4728 0 2.6585 1.19517 2.6585 2.67975v183.35891c0 1.48459-1.1857 2.67976-2.6585 2.67976h-13.9249c-1.4728 0-2.6585-1.19517-2.6585-2.67976v-183.35891c0-1.48458 1.1857-2.67975 2.6585-2.67975zm-46 0h13.9249c1.4728 0 2.6585 1.19517 2.6585 2.67975v183.35891c0 1.48459-1.1857 2.67976-2.6585 2.67976h-13.9249c-1.4728 0-2.6585-1.19517-2.6585-2.67976v-183.35891c0-1.48458 1.1857-2.67975 2.6585-2.67975zm-46 0h13.9249c1.4728 0 2.6585 1.19517 2.6585 2.67975v183.35891c0 1.48459-1.1857 2.67976-2.6585 2.67976h-13.9249c-1.4728 0-2.6585-1.19517-2.6585-2.67976v-183.35891c0-1.48458 1.1857-2.67975 2.6585-2.67975zm-46 0h13.9249c1.4728 0 2.6585 1.19517 2.6585 2.67975v183.35891c0 1.48459-1.1857 2.67976-2.6585 2.67976h-13.9249c-1.4728 0-2.6585-1.19517-2.6585-2.67976v-183.35891c0-1.48458 1.1857-2.67975 2.6585-2.67975zm-46 0h13.9249c1.4728 0 2.6585 1.19517 2.6585 2.67975v183.35891c0 1.48459-1.1857 2.67976-2.6585 2.67976h-13.9249c-1.4728 0-2.6585-1.19517-2.6585-2.67976v-183.35891c0-1.48458 1.1857-2.67975 2.6585-2.67975zm-46 0h13.9249c1.4728 0 2.6585 1.19517 2.6585 2.67975v183.35891c0 1.48459-1.1857 2.67976-2.6585 2.67976h-13.9249c-1.4728 0-2.6585-1.19517-2.6585-2.67976v-183.35891c0-1.48458 1.1857-2.67975 2.6585-2.67975zm-46 0h13.9249c1.4728 0 2.6585 1.19517 2.6585 2.67975v183.35891c0 1.48459-1.1857 2.67976-2.6585 2.67976h-13.9249c-1.4728 0-2.6585-1.19517-2.6585-2.67976v-183.35891c0-1.48458 1.1857-2.67975 2.6585-2.67975zm-46 0h13.9249c1.4728 0 2.6585 1.19517 2.6585 2.67975v183.35891c0 1.48459-1.1857 2.67976-2.6585 2.67976h-13.9249c-1.4728 0-2.6585-1.19517-2.6585-2.67976v-183.35891c0-1.48458 1.1857-2.67975 2.6585-2.67975zm-46 0h13.9249c1.4728 0 2.6585 1.19517 2.6585 2.67975v183.35891c0 1.48459-1.1857 2.67976-2.6585 2.67976h-13.9249c-1.4728 0-2.6585-1.19517-2.6585-2.67976v-183.35891c0-1.48458 1.1857-2.67975 2.6585-2.67975zm-46 0h13.9249c1.4728 0 2.6585 1.19517 2.6585 2.67975v183.35891c0 1.48459-1.1857 2.67976-2.6585 2.67976h-13.9249c-1.4728 0-2.6585-1.19517-2.6585-2.67976v-183.35891c0-1.48458 1.1857-2.67975 2.6585-2.67975zm-46 0h13.9249c1.4728 0 2.6585 1.19517 2.6585 2.67975v183.35891c0 1.48459-1.1857 2.67976-2.6585 2.67976h-13.9249c-1.4728 0-2.6585-1.19517-2.6585-2.67976v-183.35891c0-1.48458 1.1857-2.67975 2.6585-2.67975zm-46 0h13.9249c1.4728 0 2.6585 1.19517 2.6585 2.67975v183.35891c0 1.48459-1.1857 2.67976-2.6585 2.67976h-13.9249c-1.4728 0-2.6585-1.19517-2.6585-2.67976v-183.35891c0-1.48458 1.1857-2.67975 2.6585-2.67975zm-46 0h13.9249c1.4728 0 2.6585 1.19517 2.6585 2.67975v183.35891c0 1.48459-1.1857 2.67976-2.6585 2.67976h-13.9249c-1.4728 0-2.6585-1.19517-2.6585-2.67976v-183.35891c0-1.48458 1.1857-2.67975 2.6585-2.67975zm-46 0h13.9249c1.4728 0 2.6585 1.19517 2.6585 2.67975v183.35891c0 1.48459-1.1857 2.67976-2.6585 2.67976h-13.9249c-1.4728 0-2.6585-1.19517-2.6585-2.67976v-183.35891c0-1.48458 1.1857-2.67975 2.6585-2.67975zm-46 0h13.9249c1.4728 0 2.6585 1.19517 2.6585 2.67975v183.35891c0 1.48459-1.1857 2.67976-2.6585 2.67976h-13.9249c-1.4728 0-2.6585-1.19517-2.6585-2.67976v-183.35891c0-1.48458 1.1857-2.67975 2.6585-2.67975zm-46 0h13.9249c1.4728 0 2.6585 1.19517 2.6585 2.67975v183.35891c0 1.48459-1.1857 2.67976-2.6585 2.67976h-13.9249c-1.4728 0-2.6585-1.19517-2.6585-2.67976v-183.35891c0-1.48458 1.1857-2.67975 2.6585-2.67975zm-46 0h13.9249c1.4728 0 2.6585 1.19517 2.6585 2.67975v183.35891c0 1.48459-1.1857 2.67976-2.6585 2.67976h-13.9249c-1.4728 0-2.6585-1.19517-2.6585-2.67976v-183.35891c0-1.48458 1.1857-2.67975 2.6585-2.67975zm-46 0h13.9249c1.4728 0 2.6585 1.19517 2.6585 2.67975v183.35891c0 1.48459-1.1857 2.67976-2.6585 2.67976h-13.9249c-1.4728 0-2.6585-1.19517-2.6585-2.67976v-183.35891c0-1.48458 1.1857-2.67975 2.6585-2.67975zm-46 0h13.9249c1.4728 0 2.6585 1.19517 2.6585 2.67975v183.35891c0 1.48459-1.1857 2.67976-2.6585 2.67976h-13.9249c-1.4728 0-2.6585-1.19517-2.6585-2.67976v-183.35891c0-1.48458 1.1857-2.67975 2.6585-2.67975zm-46 0h13.9249c1.4728 0 2.6585 1.19517 2.6585 2.67975v183.35891c0 1.48459-1.1857 2.67976-2.6585 2.67976h-13.9249c-1.4728 0-2.6585-1.19517-2.6585-2.67976v-183.35891c0-1.48458 1.1857-2.67975 2.6585-2.67975zm-46 0h13.9249c1.4728 0 2.6585 1.19517 2.6585 2.67975v183.35891c0 1.48459-1.1857 2.67976-2.6585 2.67976h-13.9249c-1.4728 0-2.6585-1.19517-2.6585-2.67976v-183.35891c0-1.48458 1.1857-2.67975 2.6585-2.67975zm-46 0h13.9249c1.4728 0 2.6585 1.19517 2.6585 2.67975v183.35891c0 1.48459-1.1857 2.67976-2.6585 2.67976h-13.9249c-1.4728 0-2.6585-1.19517-2.6585-2.67976v-183.35891c0-1.48458 1.1857-2.67975 2.6585-2.67975zm-46 0h13.9249c1.4728 0 2.6585 1.19517 2.6585 2.67975v183.35891c0 1.48459-1.1857 2.67976-2.6585 2.67976h-13.9249c-1.4728 0-2.6585-1.19517-2.6585-2.67976v-183.35891c0-1.48458 1.1857-2.67975 2.6585-2.67975zm-46 0h13.9249c1.4728 0 2.6585 1.19517 2.6585 2.67975v183.35891c0 1.48459-1.1857 2.67976-2.6585 2.67976h-13.9249c-1.4728 0-2.6585-1.19517-2.6585-2.67976v-183.35891c0-1.48458 1.1857-2.67975 2.6585-2.67975zm-46 0h13.9249c1.4728 0 2.6585 1.19517 2.6585 2.67975v183.35891c0 1.48459-1.1857 2.67976-2.6585 2.67976h-13.9249c-1.4728 0-2.6585-1.19517-2.6585-2.67976v-183.35891c0-1.48458 1.1857-2.67975 2.6585-2.67975zm-46 0h13.9249c1.4728 0 2.6585 1.19517 2.6585 2.67975v183.35891c0 1.48459-1.1857 2.67976-2.6585 2.67976h-13.9249c-1.4728 0-2.6585-1.19517-2.6585-2.67976v-183.35891c0-1.48458 1.1857-2.67975 2.6585-2.67975zm-46 0h13.9249c1.4728 0 2.6585 1.19517 2.6585 2.67975v183.35891c0 1.48459-1.1857 2.67976-2.6585 2.67976h-13.9249c-1.4728 0-2.6585-1.19517-2.6585-2.67976v-183.35891c0-1.48458 1.1857-2.67975 2.6585-2.67975zm-46 0h13.9249c1.4728 0 2.6585 1.19517 2.6585 2.67975v183.35891c0 1.48459-1.1857 2.67976-2.6585 2.67976h-13.9249c-1.4728 0-2.6585-1.19517-2.6585-2.67976v-183.35891c0-1.48458 1.1857-2.67975 2.6585-2.67975z" stroke-width="14"/><g stroke-width="7"><g><path d="m178.24989 882.93304h3580.52941c1.4728 0 2.6585 1.18573 2.6585 2.65858v14.55787c0 1.47285-1.1857 2.65858-2.6585 2.65858h-3583.68365"/><path d="m184.78038 838.93304h3573.99892c1.4728 0 2.6585 1.18573 2.6585 2.65858v14.55787c0 1.47285-1.1857 2.65858-2.6585 2.65858h-3577.20372"/><path d="m191.83072 794.93304h3566.94858c1.4728 0 2.6585 1.18573 2.6585 2.65858v14.55787c0 1.47285-1.1857 2.65858-2.6585 2.65858h-3569.87752"/><path d="m198.71181 750.93304h3560.06749c1.4728 0 2.6585 1.18573 2.6585 2.65858v14.55787c0 1.47285-1.1857 2.65858-2.6585 2.65858h-3562.99863"/><path d="m205.70829 706.93304h3553.07101c1.4728 0 2.6585 1.18573 2.6585 2.65858v14.55787c0 1.47285-1.1857 2.65858-2.6585 2.65858h-3556.46374"/><path d="m212.66851 662.93304h3546.11079c1.4728 0 2.6585 1.18573 2.6585 2.65858v14.55787c0 1.47285-1.1857 2.65858-2.6585 2.65858h-3549.68707"/><path d="m218.95721 618.93304h3539.82209c1.4728 0 2.6585 1.18573 2.6585 2.65858v14.55787c0 1.47285-1.1857 2.65858-2.6585 2.65858h-3543.20164"/><path d="m225.6009 574.93304h3533.1784c1.4728 0 2.6585 1.18573 2.6585 2.65858v14.55787c0 1.47285-1.1857 2.65858-2.6585 2.65858h-3535.51715"/><path d="m232.82599 530.93304h3525.95331c1.4728 0 2.6585 1.18573 2.6585 2.65858v14.55787c0 1.47285-1.1857 2.65858-2.6585 2.65858h-3528.96138"/></g><path d="m3683.6367 1542.5215h133.50688v17.811031h-133.50688z"/><path d="m3683.6367 1608.5215h133.50688v17.811031h-133.50688z"/><g><path d="m3061.7484 1111.5045c.7594 8.6798 1.8104 17.8556 2.3216 26.5354.9668 13.8878-2.81 16.1197-11.2071 16.6156-6.4111.4961-12.1208.4961-11.6218 6.1999.4556 5.2079 6.4136 5.2079 9.6408 5.2079 6.2063 0 14.8082-.992 31.9375-.992 12.4124 0 26.8977.992 33.104.992 3.7238 0 10.1782 0 9.6575-5.9519-.3906-4.4638-3.8878-4.7119-10.4507-5.9518-8.5489-1.24-9.4144-5.456-10.6728-19.8396-2.4058-21.8235-7.4591-99.4458-9.6696-119.0374-.3471-3.9679-2.3235-6.6959-11.2605-6.6959-12.4126 0-17.7004 1.984-22.3496 8.4318-28.5309 39.9272-54.7965 77.3744-81.3753 114.0776-9.0935 12.3997-15.0586 20.8316-24.0485 23.0635-5.0832 1.488-9.2165 2.4799-8.8476 6.6958.1301 1.4879.952 5.2079 7.903 5.2079 6.7027 0 14.5599-.992 22.2557-.992 8.6888 0 17.216.992 25.6565.992 3.972 0 9.9083-.248 9.4527-5.4559-.3689-4.2158-4.1795-5.2079-8.713-5.9519-4.7818-.744-10.8266-1.7359-11.3473-7.6878-.3038-3.4719 2.0148-8.1838 4.6249-12.3997 4.7888-7.6879 10.0091-16.1197 13.7738-21.3276 1.0893-1.7359 1.8341-1.7359 3.8201-1.7359zm-.6317-12.8957h-41.2095c12.3615-17.6077 24.5182-34.7193 36.6315-52.3269l.5182.248z"/><path d="m3167.6615 1023.2631c.4509 5.0032 7.0762 5.0032 8.7939 5.0032 3.9475.2383 10.5943.4765 11.131 6.4327.2361 2.6207-1.095 6.9091-1.8404 9.5299-8.1562 29.3042-16.8032 58.6085-25.4288 88.1511-4.8343 17.1536-6.7943 22.6333-18.956 23.8246-7.0732.4764-9.8676 2.1442-9.5025 6.1943.3434 3.812 5.5608 4.5267 8.7508 4.5267 4.4169 0 12.1833-.953 20.7717-.953 9.5699 0 19.2256.953 23.1517.953 3.4354 0 8.7909-.4764 8.34-5.4796-.3863-4.2884-4.6008-4.765-9.0606-5.2414-4.4598-.4765-8.7816-2.1442-9.4256-9.2916-.6871-7.6239 3.497-23.8246 5.9141-32.4015 6.5488-22.6335 13.3645-45.0286 19.935-67.4237h.4908c1.328 9.2916 2.1437 18.345 3.4718 27.6366 3.0332 25.4923 6.0664 50.9846 9.0782 76.2387.9446 10.4829 2.0672 14.7713 10.6556 14.7713 6.8708 0 8.4167-1.906 11.8489-7.3856 22.4162-37.1664 45.0992-74.0946 67.5152-111.261l.7576.2383c-5.1257 30.2572-10.23 60.7527-15.3557 91.01-1.9786 10.7211-3.3406 17.392-18.0421 17.6302-3.6593.2383-8.2141 1.4295-7.8062 5.9561.4507 5.0032 7.5669 5.0032 11.9838 5.0032 4.9075 0 16.8454-.953 29.36-.953 16.686 0 30.7585.953 37.3839.953 3.19 0 10.0607 0 9.524-5.9561-.3434-3.8119-4.6009-4.7649-9.9993-4.7649-4.193-.2383-10.4134-1.1913-10.9072-6.671-.2361-2.6206.583-7.1474 1.1781-11.4358 5.3282-30.7337 10.1656-61.4675 15.27-91.963 2.5736-15.0095 4.8341-17.1538 15.588-17.6302 1.9417-.2383 8.7695-.7147 8.2972-5.9562-.3006-3.3354-3.6408-5.0031-10.0208-5.0031-6.1345 0-18.3393.7148-26.9277.7148-11.533 0-16.5049-.7148-22.8849-.7148-6.1131.2382-7.1254 2.6207-11.3675 10.0063-16.5115 26.4453-33.2469 53.1289-49.7368 79.8125h-.4908c-3.1191-26.4454-6.2383-52.8906-9.3359-79.0978-.73-8.1003-.4753-10.721-6.1191-10.721-5.8892 0-16.8669.7148-28.4.7148-12.5145 0-20.9218-.7148-27.3018-.7148-3.1899 0-10.7968 0-10.303 5.4796z"/><path d="m3422.2445 1147.856c-.3266-3.8139 1.3535-11.4418 1.9806-15.0174l17.3639-86.0515c2.8234-13.3487 3.4302-17.1627 14.1022-17.8778 7.1721-.7151 12.0517-.9535 11.5822-6.436-.4287-5.0057-6.4954-5.0057-8.362-5.0057-9.1 0-18.3517.9534-34.4517.9534-14.4667 0-23.1816-.9534-30.8816-.9534-3.2666 0-12.1537-.2384-11.623 5.9592.4287 5.0058 6.3028 5.4825 8.3824 5.2441 6.3 0 11.4743.4768 11.9438 5.9593.2449 2.8604-.4027 6.1976-1.3944 10.965l-18.0522 88.9121c-2.9139 15.0172-4.6056 19.7847-13.8777 20.4998-8.8054.7151-13.685.9534-13.1951 6.6743.2858 3.3372 4.1825 5.2441 9.5491 5.2441 7.7 0 18.8184-.9534 30.4851-.9534 17.7333 0 28.7815.9534 35.3148.9534 3.9667 0 11.4334 0 10.9027-6.1975-.4083-4.7675-5.3287-5.0058-8.3621-5.0058-5.1537-.2383-10.8558-1.4302-11.3866-7.6279z"/><path d="m3447.3262 1115.8636c.945 10.322 6.9175 33.4237 31.6022 47.4321 14.0926 7.8644 32.4768 12.0424 54.0789 12.0424 12.3439 0 30.9373-1.9662 43.8502-4.178 11.907-1.9662 17.195-3.1949 18.3105-7.8644l8.1849-39.8135c1.9963-9.0932 2.8546-13.7627 12.5145-14.9915 7.6025-1.2289 12.4661-1.4746 11.9937-6.6356-.4726-5.161-6.6445-5.161-9.9877-5.161-6.4292 0-20.4609 1.2288-35.8909 1.2288-10.801 0-22.4861-1.2288-33.2871-1.2288-4.8862 0-11.7172 1.2288-11.1997 6.8813.45 4.9153 6.8792 4.9153 10.7591 5.161 7.7601.4916 11.0711 2.9492 11.4986 7.6187.2475 2.7033-.254 5.6525-.8006 8.1101l-5.0182 23.8389c-.9259 3.9323-2.0189 8.8475-4.4105 10.8136-2.604 2.4576-7.6573 3.4408-12.0291 3.4408-10.801 0-20.4416-4.178-28.1725-12.7798-7.1268-7.6186-12.8132-19.1694-13.8706-30.7203-2.3399-25.5592 8.7282-47.9236 23.5797-62.6694 17.5777-18.6779 42.1597-28.2626 59.1328-28.2626 10.801 0 13.1732 3.4407 13.5783 7.8644.36 3.9322-.283 13.7627.1219 18.1864.4275 4.6694 2.6552 9.339 8.5699 9.339 5.6578 0 7.5898-4.178 9.3869-9.8306 2.2438-6.3897 5.6707-16.7118 7.3778-23.3474 1.0158-2.9491 1.5848-5.161 1.4498-6.6356-.2925-3.1948-4.0278-4.6694-7.7182-5.6524-7.94-2.4577-19.7697-2.4577-27.2276-2.4577-33.9461 0-67.2943 9.339-91.8507 24.822-28.2116 17.6949-47.2937 45.2202-44.5487 75.2033z"/><path d="m3724.5976 1113.2823c1.3537 8.5341 3.0327 17.556 4.1391 26.0901 1.9186 13.6548-1.6943 15.8493-10.0342 16.3369-6.359.4877-12.0531.4877-11.1636 6.0958.8123 5.1205 6.7539 5.1205 9.9723 5.1205 6.1891 0 14.6992-.9753 31.7813-.9753 12.3783 0 26.8916.9753 33.0807.9753 3.7135 0 10.1503 0 9.2221-5.852-.6962-4.3889-4.2011-4.6328-10.8313-5.8519-8.6107-1.2192-9.7631-5.3645-12.007-19.5068-3.8992-21.4573-14.2744-97.7772-17.8253-117.04-.619-3.9014-2.7774-6.5836-11.6898-6.5836-12.3782 0-17.5153 1.9507-21.7083 8.2904-25.708 39.2571-49.3269 76.076-73.3096 112.1634-8.216 12.1916-13.585 20.4821-22.3968 22.6766-4.9665 1.463-9.0206 2.4383-8.3631 6.5834.2323 1.463 1.3075 5.1205 8.2393 5.1205 6.6843 0 14.4517-.9753 22.1263-.9753 8.6648 0 17.2365.9753 25.6538.9753 3.9611 0 9.8642-.2438 9.0517-5.3643-.6577-4.1451-4.5259-5.1205-9.0982-5.852-4.8195-.7315-10.9161-1.7068-11.8443-7.5589-.5416-3.4137 1.4464-8.0465 3.7598-12.1916 4.2474-7.5589 8.8734-15.8492 12.2699-20.9697.9671-1.7068 1.7098-1.7068 3.6902-1.7068zm-1.5164-12.6794h-41.0958c11.1171-17.3122 22.0639-34.1367 32.9334-51.4489l.534.2438z"/></g></g></g><g stroke-width="15.5854"><g transform="matrix(.89825151 0 0 .89830172 292.30212 392.31759)"><rect height="147.20753" rx="9.822514" ry="9.821964" width="187.32634" x="2034.7043" y="2210.7769"/><rect height="147.20753" rx="9.822514" ry="9.821964" width="1532.3552" x="471.65701" y="2210.7769"/><rect height="147.20753" rx="9.822514" ry="9.821964" width="187.03008" x="253.45474" y="2210.7769"/><rect height="147.20753" rx="9.822514" ry="9.821964" width="187.03008" x="35.253136" y="2210.7769"/><rect height="147.20753" rx="9.822514" ry="9.821964" width="187.03008" x="2252.9075" y="2210.7769"/></g><g transform="matrix(.89825151 0 0 .89830172 214.30212 232.31759)"><rect height="147.20753" rx="9.822514" ry="9.821964" width="142.98062" x="1861.0325" y="2210.7769"/><rect height="147.20753" rx="9.822514" ry="9.821964" width="142.98062" x="1687.3606" y="2210.7769"/><rect height="147.20753" rx="9.822514" ry="9.821964" width="142.98062" x="1513.6887" y="2210.7769"/><rect height="147.20753" rx="9.822514" ry="9.821964" width="142.98062" x="2034.7043" y="2210.7769"/><rect height="147.20753" rx="9.822514" ry="9.821964" width="142.98062" x="1861.0325" y="2210.7769"/><rect height="147.20753" rx="9.822514" ry="9.821964" width="142.98062" x="1687.3606" y="2210.7769"/><rect height="147.20753" rx="9.822514" ry="9.821964" width="142.98062" x="1513.6887" y="2210.7769"/><rect height="147.20753" rx="9.822514" ry="9.821964" width="142.98062" x="1340.0168" y="2210.7769"/><rect height="147.20753" rx="9.822514" ry="9.821964" width="142.98062" x="1166.345" y="2210.7769"/><rect height="147.20753" rx="9.822514" ry="9.821964" width="142.98062" x="992.67346" y="2210.7769"/><rect height="147.20753" rx="9.822514" ry="9.821964" width="142.98062" x="819.00159" y="2210.7769"/><rect height="147.20753" rx="9.822514" ry="9.821964" width="142.98062" x="645.32971" y="2210.7769"/><rect height="147.20753" rx="9.822514" ry="9.821964" width="142.98062" x="471.65784" y="2210.7769"/><rect height="147.20753" rx="9.822514" ry="9.821964" width="142.98062" x="297.98596" y="2210.7769"/><rect height="147.20753" rx="9.822514" ry="9.821964" width="316.65131" x="-49.355675" y="2210.7769"/><rect height="147.20753" rx="9.822514" ry="9.821964" width="450.24634" x="2208.3762" y="2210.7769"/></g><g transform="matrix(.89825151 0 0 .89830172 136.30212 72.31759)"><path d="m2523.2378 2179.8781c-5.4417 0-9.8225-4.3806-9.8225-9.822v-127.5636c0-5.4414 4.3808-9.822 9.8225-9.822h212.3978c5.4416 0 9.8225 4.3806 9.8225 9.822v127.5636 50.5427 127.5636c0 5.4414-4.3809 9.822-9.8225 9.822h-170.0931c-5.4417 0-9.8225-4.3806-9.8225-9.822v-127.5636"/><rect height="147.20753" rx="9.822514" ry="9.821964" width="142.98062" x="2034.7043" y="2210.7769"/><rect height="147.20753" rx="9.822514" ry="9.821964" width="142.98062" x="1861.0325" y="2210.7769"/><rect height="147.20753" rx="9.822514" ry="9.821964" width="142.98062" x="1687.3606" y="2210.7769"/><rect height="147.20753" rx="9.822514" ry="9.821964" width="142.98062" x="1513.6887" y="2210.7769"/><rect height="147.20753" rx="9.822514" ry="9.821964" width="142.98062" x="1340.0168" y="2210.7769"/><rect height="147.20753" rx="9.822514" ry="9.821964" width="142.98062" x="1166.345" y="2210.7769"/><rect height="147.20753" rx="9.822514" ry="9.821964" width="142.98062" x="992.67346" y="2210.7769"/><rect height="147.20753" rx="9.822514" ry="9.821964" width="142.98062" x="819.00159" y="2210.7769"/><rect height="147.20753" rx="9.822514" ry="9.821964" width="142.98062" x="645.32971" y="2210.7769"/><rect height="147.20753" rx="9.822514" ry="9.821964" width="142.98062" x="471.65784" y="2210.7769"/><rect height="147.20753" rx="9.822514" ry="9.821964" width="142.98062" x="297.98596" y="2210.7769"/><rect height="147.20753" rx="9.822514" ry="9.821964" width="142.98062" x="2382.0481" y="2210.7769"/><rect height="147.20753" rx="9.822514" ry="9.821964" width="142.98062" x="2208.3762" y="2210.7769"/><rect height="147.20753" rx="9.822514" ry="9.821964" width="229.81593" x="37.479683" y="2210.7769"/><path d="m2523.2377 2179.878c16.3383.2305 32.911-1.7821 32.4822 40.7208"/></g><g transform="matrix(.89825151 0 0 .89830172 98.30212 -87.68241)"><rect height="147.20753" rx="9.822514" ry="9.821964" width="142.98062" x="2034.7043" y="2210.7769"/><rect height="147.20753" rx="9.822514" ry="9.821964" width="142.98062" x="1861.0325" y="2210.7769"/><rect height="147.20753" rx="9.822514" ry="9.821964" width="142.98062" x="1687.3606" y="2210.7769"/><rect height="147.20753" rx="9.822514" ry="9.821964" width="142.98062" x="1513.6887" y="2210.7769"/><rect height="147.20753" rx="9.822514" ry="9.821964" width="142.98062" x="1340.0168" y="2210.7769"/><rect height="147.20753" rx="9.822514" ry="9.821964" width="142.98062" x="1166.345" y="2210.7769"/><rect height="147.20753" rx="9.822514" ry="9.821964" width="142.98062" x="992.67346" y="2210.7769"/><rect height="147.20753" rx="9.822514" ry="9.821964" width="142.98062" x="819.00159" y="2210.7769"/><rect height="147.20753" rx="9.822514" ry="9.821964" width="142.98062" x="645.32971" y="2210.7769"/><rect height="147.20753" rx="9.822514" ry="9.821964" width="142.98062" x="471.65784" y="2210.7769"/><rect height="147.20753" rx="9.822514" ry="9.821964" width="361.18246" x="79.784088" y="2210.7769"/><rect height="147.20753" rx="9.822514" ry="9.821964" width="142.98062" x="2382.0481" y="2210.7769"/><rect height="147.20753" rx="9.822514" ry="9.821964" width="142.98062" x="2208.3762" y="2210.7769"/></g><g transform="matrix(.89825151 0 0 .89830172 176.30212 -247.68241)"><rect height="147.20753" rx="9.822514" ry="9.821964" width="142.98062" x="2034.7043" y="2210.7769"/><rect height="147.20753" rx="9.822514" ry="9.821964" width="142.98062" x="1861.0325" y="2210.7769"/><rect height="147.20753" rx="9.822514" ry="9.821964" width="142.98062" x="1687.3606" y="2210.7769"/><rect height="147.20753" rx="9.822514" ry="9.821964" width="142.98062" x="1513.6887" y="2210.7769"/><rect height="147.20753" rx="9.822514" ry="9.821964" width="142.98062" x="1340.0168" y="2210.7769"/><rect height="147.20753" rx="9.822514" ry="9.821964" width="142.98062" x="1166.345" y="2210.7769"/><rect height="147.20753" rx="9.822514" ry="9.821964" width="142.98062" x="992.67346" y="2210.7769"/><rect height="147.20753" rx="9.822514" ry="9.821964" width="142.98062" x="819.00159" y="2210.7769"/><rect height="147.20753" rx="9.822514" ry="9.821964" width="142.98062" x="645.32971" y="2210.7769"/><rect height="147.20753" rx="9.822514" ry="9.821964" width="142.98062" x="471.65784" y="2210.7769"/><rect height="147.20753" rx="9.822514" ry="9.821964" width="142.98062" x="2382.0481" y="2210.7769"/><rect height="147.20753" rx="9.822514" ry="9.821964" width="142.98062" x="2208.3762" y="2210.7769"/><rect height="147.20753" rx="9.822514" ry="9.821964" width="142.98062" x="2557.9465" y="2210.7769"/><rect height="147.20753" rx="9.822514" ry="9.821964" width="142.98062" x="297.98596" y="2210.7769"/><rect height="147.20753" rx="9.822514" ry="9.821964" width="274.34689" x="-7.05127" y="2210.7769"/></g><g transform="matrix(.89825151 0 0 .89830172 176.30212 -473.68241)"><rect height="147.20753" rx="9.822514" ry="9.821964" width="187.03008" x="2337.5168" y="2210.7769"/><rect height="147.20753" rx="9.822514" ry="9.821964" width="187.03008" x="2119.3137" y="2210.7769"/><rect height="147.20753" rx="9.822514" ry="9.821964" width="187.03008" x="1901.1106" y="2210.7769"/><rect height="147.20753" rx="9.822514" ry="9.821964" width="187.03008" x="1682.9075" y="2210.7769"/><rect height="147.20753" rx="9.822514" ry="9.821964" width="187.03008" x="1464.7043" y="2210.7769"/><rect height="147.20753" rx="9.822514" ry="9.821964" width="187.03008" x="1157.4387" y="2210.7769"/><rect height="147.20753" rx="9.822514" ry="9.821964" width="187.03008" x="939.23596" y="2210.7769"/><rect height="147.20753" rx="9.822514" ry="9.821964" width="187.03008" x="721.03284" y="2210.7769"/><rect height="147.20753" rx="9.822514" ry="9.821964" width="187.03008" x="502.82971" y="2210.7769"/><rect height="147.20753" rx="9.822514" ry="9.821964" width="187.03008" x="284.62659" y="2210.7769"/><rect height="147.20772" rx="9.822514" ry="9.821963" width="147.21606" x="-7.051266" y="2210.7769"/></g><g transform="matrix(.89825151 0 0 .89830172 2440.3021 232.31759)"><rect height="147.20753" rx="9.822514" ry="9.821964" width="142.98062" x="645.32971" y="2210.7769"/><rect height="147.20753" rx="9.822514" ry="9.821964" width="142.98062" x="471.65784" y="2210.7769"/><rect height="147.20753" rx="9.822514" ry="9.821964" width="142.98062" x="297.98596" y="2210.7769"/><rect height="147.20753" rx="9.822514" ry="9.821964" width="142.98062" x="471.65784" y="2032.6705"/></g><g transform="matrix(.89825151 0 0 .89830172 2996.3021 232.31759)"><rect height="147.20753" rx="9.822514" ry="9.821964" width="142.98062" x="645.32971" y="2210.7769"/><rect height="147.20753" rx="9.822514" ry="9.821964" width="142.98062" x="471.65784" y="2210.7769"/><rect height="147.20753" rx="9.822514" ry="9.821964" width="142.98062" x="297.98596" y="2210.7769"/><rect height="147.20753" rx="9.822514" ry="9.821964" width="142.98062" x="471.65784" y="2032.6705"/><rect height="147.20753" rx="9.822514" ry="9.821964" width="142.98062" x="295.7594" y="2032.6705"/><rect height="147.20753" rx="9.822514" ry="9.821964" width="142.98062" x="645.32971" y="2032.6705"/><rect height="147.20753" rx="9.822514" ry="9.821964" width="142.98062" x="471.65784" y="1854.5553"/><rect height="147.20753" rx="9.822514" ry="9.821964" width="142.98062" x="295.7594" y="1854.5553"/><rect height="147.20753" rx="9.822514" ry="9.821964" width="142.98062" x="645.32971" y="1854.5553"/><rect height="147.20753" rx="9.822514" ry="9.821964" width="142.98062" x="645.32971" y="2388.8823"/><rect height="147.20753" rx="9.822514" ry="9.821964" width="316.65247" x="297.98596" y="2388.8823"/><rect height="325.31302" rx="9.822514" ry="9.821964" width="142.98062" x="819.00159" y="2210.7769"/><rect height="147.20753" rx="9.822514" ry="9.821964" width="142.98062" x="819.00159" y="2032.6705"/><rect height="147.20753" rx="9.822514" ry="9.821964" width="142.98062" x="819.00159" y="1854.5553"/><rect height="147.20753" rx="9.822514" ry="9.821964" width="142.98062" x="471.65784" y="1676.4401"/><rect height="147.20753" rx="9.822514" ry="9.821964" width="142.98062" x="295.7594" y="1676.4401"/><rect height="147.20753" rx="9.822514" ry="9.821964" width="142.98062" x="645.32971" y="1676.4401"/><rect height="147.20753" rx="9.822514" ry="9.821964" width="142.98062" x="819.00159" y="1676.4401"/></g><g transform="matrix(.89825151 0 0 .89830172 2440.3021 -247.68242)"><rect height="147.20753" rx="9.822514" ry="9.821964" width="253.82652" x="569.62659" y="2210.7769"/><rect height="147.20753" rx="9.822514" ry="9.821964" width="239.41331" x="297.98596" y="2210.7769"/></g></g></g></svg>