<?xml version="1.0" encoding="UTF-8" standalone="no"?>
<svg
   version="1.0"
   width="640"
   height="360"
   viewBox="0 0 480 270"
   preserveAspectRatio="xMidYMid meet"
   id="svg28"
   sodipodi:docname="amigacd32.svg"
   inkscape:version="1.1.1 (3bf5ae0d25, 2021-09-20)"
   xmlns:inkscape="http://www.inkscape.org/namespaces/inkscape"
   xmlns:sodipodi="http://sodipodi.sourceforge.net/DTD/sodipodi-0.dtd"
   xmlns="http://www.w3.org/2000/svg"
   xmlns:svg="http://www.w3.org/2000/svg">
  <defs
     id="defs32" />
  <sodipodi:namedview
     id="namedview30"
     pagecolor="#ffffff"
     bordercolor="#666666"
     borderopacity="1.0"
     inkscape:pageshadow="2"
     inkscape:pageopacity="0.0"
     inkscape:pagecheckerboard="0"
     inkscape:document-units="px"
     showgrid="false"
     units="px"
     inkscape:zoom="0.83515625"
     inkscape:cx="345.44434"
     inkscape:cy="68.849392"
     inkscape:window-width="1920"
     inkscape:window-height="1017"
     inkscape:window-x="-8"
     inkscape:window-y="-8"
     inkscape:window-maximized="1"
     inkscape:current-layer="svg28" />
  <g
     transform="matrix(0.0215937,0,0,-0.0221687,33.650199,256.96611)"
     fill="#000000"
     stroke="none"
     id="g26"
     style="fill:#ffffff">
    <path
       d="m 2998,9179 c -80,-13 -148,-81 -148,-148 v -37 l -72,-12 c -160,-25 -372,-98 -468,-160 -14,-9 -52,-31 -84,-49 -99,-56 -173,-122 -278,-248 -85,-103 -111,-142 -174,-270 -40,-82 -84,-188 -97,-235 -14,-47 -58,-184 -99,-305 -41,-121 -94,-278 -116,-350 -106,-335 -121,-384 -137,-445 -9,-36 -45,-159 -80,-275 -35,-115 -74,-248 -85,-295 -12,-47 -37,-138 -56,-203 -19,-64 -50,-181 -68,-260 -19,-78 -52,-214 -75,-302 -23,-88 -50,-214 -62,-279 -11,-66 -22,-122 -24,-126 -2,-3 -24,-125 -49,-270 -85,-500 -96,-753 -47,-1047 40,-233 91,-372 220,-592 83,-142 344,-382 502,-462 130,-65 355,-133 914,-274 55,-14 183,-48 285,-75 102,-27 217,-54 255,-61 39,-6 185,-38 325,-71 370,-86 452,-103 785,-164 165,-30 352,-66 415,-79 206,-45 1208,-198 1535,-235 94,-10 229,-26 300,-34 421,-50 612,-69 985,-101 228,-19 530,-39 670,-45 140,-6 307,-15 370,-21 333,-30 1769,-38 2411,-14 400,15 1113,61 1384,90 77,8 205,19 285,25 80,6 228,22 330,35 102,13 214,27 250,30 120,11 444,56 620,85 96,16 228,36 294,45 65,9 173,27 240,41 66,13 201,38 298,54 186,32 433,82 615,126 59,14 186,41 282,60 171,33 887,219 1211,314 91,26 196,51 233,54 118,11 326,74 469,141 194,90 377,223 508,367 183,202 286,410 351,708 38,177 48,395 29,638 -15,194 -37,323 -99,567 -26,105 -57,231 -68,280 -39,173 -123,531 -164,695 -78,321 -89,367 -139,590 -28,124 -66,288 -85,365 -19,77 -41,169 -49,205 -20,88 -61,253 -80,318 -93,323 -308,759 -493,996 -60,77 -212,223 -288,277 -77,55 -224,135 -280,153 -125,39 -191,56 -263,67 l -77,12 v 46 c 0,62 -25,95 -99,134 l -61,32 -1184,3 -1185,2 -53,-26 c -63,-30 -93,-78 -93,-147 v -44 l -60,-7 c -66,-8 -91,-15 -200,-58 -107,-42 -205,-111 -267,-188 -124,-154 -169,-304 -160,-532 7,-160 26,-253 90,-433 13,-38 66,-198 117,-355 50,-157 135,-413 187,-569 60,-178 91,-287 85,-293 -5,-5 -40,-13 -78,-19 -38,-5 -123,-20 -189,-33 -163,-32 -275,-52 -435,-76 -74,-11 -175,-28 -225,-36 -135,-23 -622,-81 -970,-114 -182,-18 -905,-61 -1180,-70 -680,-23 -1683,-2 -2160,45 -82,8 -274,26 -425,40 -372,35 -856,102 -1255,175 -312,57 -515,98 -524,106 -3,2 5,25 16,52 11,26 28,70 37,97 9,28 51,149 93,270 41,121 87,254 100,295 13,41 33,95 43,120 11,25 47,131 81,235 34,105 68,203 76,219 8,16 23,57 33,90 10,34 28,88 39,120 29,83 29,264 0,379 -36,144 -75,211 -186,317 -85,82 -111,101 -198,142 -112,52 -255,98 -308,98 -33,0 -35,2 -41,43 -11,70 -88,131 -178,143 -58,7 -2306,10 -2350,3 z m 12922,-78 c 77,-40 93,-65 74,-115 -6,-14 -127,-16 -1275,-16 h -1269 v 30 c 0,49 27,90 73,111 41,18 79,19 1197,16 l 1155,-2 z m -10569,9 c 62,-17 104,-51 107,-88 l 3,-32 H 4186 2910 v 23 c 1,35 24,68 61,88 32,17 96,18 1189,19 744,0 1168,-4 1191,-10 z m 308,-206 c 47,-14 131,-46 186,-72 132,-62 249,-170 300,-276 69,-145 94,-334 60,-451 -25,-85 -56,-178 -80,-235 -13,-30 -48,-134 -79,-230 -31,-96 -65,-195 -76,-220 -10,-25 -30,-79 -43,-120 -13,-41 -59,-174 -100,-295 -42,-121 -84,-242 -93,-270 -9,-27 -25,-69 -35,-93 -11,-23 -19,-51 -19,-62 0,-11 -9,-27 -19,-37 -38,-35 -242,-747 -347,-1206 -62,-274 -102,-484 -134,-702 -11,-82 -25,-168 -30,-190 -16,-74 -49,-349 -60,-500 -6,-82 -15,-179 -20,-215 -29,-213 -34,-1269 -7,-1530 8,-80 14,-146 12,-148 -4,-5 -452,68 -565,93 -63,14 -250,49 -415,79 -333,61 -415,78 -785,164 -140,33 -286,65 -325,71 -38,7 -153,34 -255,61 -102,27 -230,61 -285,75 -559,141 -784,209 -914,274 -156,79 -392,295 -472,433 -129,219 -180,358 -220,591 -34,202 -37,332 -13,567 13,134 99,673 109,690 2,4 13,60 24,126 12,65 39,191 62,279 23,88 56,224 75,302 18,79 49,196 68,260 19,65 44,156 56,203 11,47 50,180 85,295 35,116 71,239 80,275 16,61 31,110 137,445 22,72 75,229 116,350 41,121 85,258 99,305 13,47 57,153 97,235 60,122 91,170 163,257 90,109 183,193 257,230 22,11 53,29 67,39 81,57 309,140 464,169 22,4 658,8 1414,9 l 1373,1 z m 10467,-4 c 58,-11 151,-35 249,-66 55,-18 202,-98 280,-152 70,-50 200,-175 261,-252 179,-228 398,-671 490,-992 19,-65 60,-230 80,-318 8,-36 30,-128 49,-205 19,-77 57,-241 85,-365 50,-223 61,-269 139,-590 41,-164 125,-522 164,-695 11,-49 42,-175 68,-280 62,-244 84,-373 100,-568 17,-226 8,-399 -30,-577 -47,-217 -99,-349 -211,-530 -121,-197 -357,-394 -618,-515 -143,-67 -351,-130 -469,-141 -37,-3 -142,-28 -233,-54 -324,-95 -1040,-281 -1211,-314 -96,-19 -223,-46 -282,-60 -176,-42 -426,-94 -589,-121 -84,-14 -233,-41 -330,-60 -97,-19 -183,-35 -191,-35 -11,0 -15,74 -20,438 -6,383 -16,606 -57,1352 -9,176 -48,635 -55,660 -3,8 -11,71 -19,140 -48,399 -138,911 -210,1190 -70,272 -235,695 -286,733 -15,12 -121,321 -310,907 -51,157 -104,317 -117,355 -59,167 -82,268 -90,402 -15,250 92,486 269,596 88,54 218,107 298,120 59,10 2739,7 2796,-3 z M 5714,6412 c -13,-43 -33,-113 -45,-157 -11,-44 -40,-141 -64,-215 -24,-74 -60,-202 -79,-285 -131,-546 -188,-820 -221,-1055 -9,-58 -22,-139 -30,-180 -16,-81 -50,-342 -60,-455 -3,-38 -10,-101 -15,-140 -61,-448 -72,-1346 -24,-1832 6,-60 6,-62 -15,-56 -11,3 -21,10 -21,15 0,6 -7,85 -17,177 -27,280 -23,1251 7,1471 5,36 14,133 20,215 11,151 44,426 60,500 5,22 19,108 30,190 66,458 214,1084 396,1678 35,114 64,209 64,211 0,2 9,2 19,-1 18,-5 18,-7 -5,-81 z m 7584,-59 c 104,-220 209,-554 267,-853 78,-404 115,-631 151,-930 8,-69 16,-132 19,-140 7,-25 46,-484 55,-660 41,-740 51,-968 56,-1341 l 7,-426 -29,-6 c -16,-3 -30,-5 -30,-4 -1,1 -7,232 -13,512 -18,815 -63,1632 -106,1920 -8,55 -20,152 -25,215 -6,63 -19,167 -30,230 -10,63 -21,140 -25,170 -11,97 -74,442 -101,555 -82,337 -159,578 -239,740 -62,126 -65,144 -29,145 6,0 38,-57 72,-127 z m -7088,42 c 417,-77 896,-144 1280,-180 151,-14 343,-32 425,-40 83,-8 331,-24 553,-35 446,-22 1185,-27 1667,-10 275,9 998,52 1180,70 348,33 835,91 970,114 50,8 151,25 225,36 176,26 468,79 587,105 19,4 29,-11 92,-139 143,-290 277,-803 355,-1361 8,-60 22,-157 30,-215 8,-58 20,-156 26,-219 6,-62 12,-118 13,-124 2,-12 -301,-66 -548,-97 -88,-12 -212,-29 -275,-40 -144,-23 -327,-46 -490,-60 -69,-6 -177,-17 -240,-25 -156,-20 -642,-62 -930,-80 -129,-8 -293,-19 -365,-25 -285,-21 -1005,-32 -1705,-27 -605,5 -779,10 -1130,31 -634,39 -1009,66 -1075,76 -33,5 -121,14 -195,20 -74,6 -160,15 -190,20 -30,5 -109,14 -175,20 -66,6 -126,13 -134,16 -8,2 -107,16 -221,29 -114,13 -236,31 -271,40 -35,8 -83,15 -107,15 -24,0 -73,6 -110,14 -37,8 -84,17 -104,21 -42,7 -41,-7 -12,145 7,41 20,122 29,180 33,235 90,509 221,1055 19,83 55,211 79,285 24,74 51,164 60,200 9,36 30,109 47,163 29,96 31,99 57,93 14,-3 186,-35 381,-71 z m 7438,-2352 c 13,-153 23,-287 22,-299 0,-19 -14,-23 -137,-47 -76,-14 -181,-31 -233,-37 -52,-6 -147,-20 -210,-30 -144,-24 -556,-76 -715,-90 -66,-6 -172,-17 -235,-25 -157,-20 -656,-63 -930,-80 -124,-8 -287,-19 -363,-25 -132,-10 -547,-22 -1192,-35 -607,-13 -2105,39 -2448,85 -40,5 -169,16 -287,25 -118,8 -240,20 -270,25 -30,5 -113,14 -185,20 -71,6 -155,15 -185,20 -30,5 -129,17 -220,26 -90,8 -168,18 -172,20 -3,2 -89,16 -190,29 -101,14 -217,32 -258,40 -41,7 -98,17 -125,20 -78,10 -77,8 -65,116 6,52 17,157 25,234 8,77 17,165 21,196 l 6,56 47,-8 c 25,-4 66,-12 91,-18 25,-6 65,-11 90,-11 25,0 74,-7 109,-15 35,-9 157,-27 271,-40 114,-13 213,-27 221,-29 8,-3 68,-10 134,-16 66,-6 145,-15 175,-20 30,-5 116,-14 190,-20 74,-6 162,-15 195,-20 66,-10 437,-36 1075,-76 357,-22 520,-26 1160,-31 729,-5 1448,6 1735,27 72,6 236,17 365,25 288,18 774,60 930,80 63,8 171,19 240,25 163,14 346,37 490,60 63,11 187,28 275,40 88,11 234,33 325,49 91,16 174,29 185,30 20,1 22,-11 43,-276 z m 32,-415 c 0,-18 7,-170 15,-338 14,-278 35,-1012 35,-1221 v -86 l -192,-31 c -193,-31 -445,-65 -568,-77 -36,-3 -148,-17 -250,-30 -102,-13 -250,-29 -330,-35 -80,-6 -208,-17 -285,-25 -271,-29 -984,-75 -1384,-90 -635,-24 -2020,-15 -2351,14 -63,6 -230,15 -370,21 -140,6 -442,26 -670,45 -373,32 -564,51 -985,101 -71,8 -206,24 -300,34 -93,11 -309,40 -480,65 -170,25 -313,45 -316,45 -3,0 -9,37 -12,83 -3,45 -12,152 -18,237 -16,201 -14,925 3,1130 l 13,155 50,-3 c 28,-1 84,-9 125,-17 41,-8 157,-26 258,-40 101,-13 187,-27 190,-29 4,-2 82,-12 172,-20 91,-9 190,-21 220,-26 30,-5 114,-14 185,-20 72,-6 155,-15 185,-20 30,-5 152,-17 270,-25 118,-9 247,-20 287,-25 350,-47 1840,-98 2488,-85 602,11 1072,25 1212,35 76,6 239,17 363,25 274,17 773,60 930,80 63,8 169,19 235,25 160,14 571,66 715,90 63,10 174,26 245,35 72,9 166,24 210,34 109,25 105,26 105,-11 z"
       id="path2"
       style="fill:#ffffff" />
    <path
       d="m 3145,7485 c -310,-41 -567,-167 -785,-385 -173,-173 -298,-389 -350,-605 -60,-253 -60,-429 0,-680 46,-188 131,-351 270,-518 184,-220 419,-370 694,-441 117,-30 128,-31 331,-31 203,0 214,1 331,31 211,55 355,130 529,276 220,185 368,418 439,692 30,117 31,128 31,331 0,203 -1,214 -31,331 -71,274 -219,507 -438,691 -217,182 -428,273 -716,308 -137,17 -173,17 -305,0 z m 275,-60 c 290,-35 518,-134 727,-317 195,-170 329,-391 396,-652 30,-114 32,-132 32,-301 0,-169 -2,-187 -32,-301 -37,-147 -95,-280 -168,-388 -191,-285 -445,-466 -769,-549 -114,-30 -132,-32 -301,-32 -169,0 -187,2 -301,32 -384,98 -677,340 -853,703 -59,122 -97,257 -116,423 -12,101 -12,133 0,230 22,175 57,297 125,434 199,403 559,657 1015,718 129,17 112,17 245,0 z"
       id="path4"
       style="fill:#ffffff" />
    <path
       d="m 3155,7335 c -140,-20 -192,-34 -305,-82 -289,-123 -510,-343 -633,-633 -124,-292 -124,-618 0,-910 82,-194 209,-359 370,-480 135,-101 292,-179 428,-211 87,-21 124,-24 290,-24 226,0 327,19 483,92 112,51 272,162 352,243 81,80 192,240 243,352 73,156 92,257 92,483 0,166 -3,203 -24,290 -48,201 -210,468 -359,591 -217,179 -415,264 -677,294 -110,12 -145,11 -260,-5 z m 230,-55 c 139,-16 231,-39 342,-86 118,-50 153,-71 281,-166 116,-87 227,-230 306,-393 78,-161 101,-267 101,-470 0,-134 -4,-176 -24,-260 -32,-136 -110,-293 -211,-427 -67,-89 -99,-121 -188,-188 -134,-101 -291,-179 -427,-211 -84,-20 -126,-24 -260,-24 -203,0 -309,23 -470,101 -163,79 -306,190 -393,306 -95,128 -116,163 -166,281 -118,279 -118,565 0,844 50,118 71,153 166,280 67,90 165,175 296,257 60,38 237,111 302,126 44,10 198,34 245,39 6,0 51,-4 100,-9 z"
       id="path6"
       style="fill:#ffffff" />
    <path
       d="m 3425,7188 c -32,-17 -85,-71 -101,-100 -17,-32 -19,-130 -3,-161 17,-32 70,-87 101,-103 15,-8 52,-14 83,-14 31,0 68,6 83,14 31,16 84,71 101,103 16,31 14,129 -3,161 -16,31 -71,84 -103,101 -28,14 -132,14 -158,-1 z m 143,-68 c 40,-25 72,-75 72,-115 0,-63 -72,-135 -135,-135 -63,0 -135,72 -135,135 0,63 72,135 135,135 17,0 45,-9 63,-20 z"
       id="path8"
       style="fill:#ffffff" />
    <path
       d="m 2368,6546 c -58,-21 -86,-43 -107,-84 -46,-90 -32,-178 39,-247 37,-36 46,-39 104,-43 82,-5 126,10 163,56 46,57 53,76 53,140 0,55 -3,65 -39,110 -30,37 -52,54 -87,66 -57,19 -77,19 -126,2 z m 110,-67 c 37,-13 82,-75 82,-113 0,-34 -20,-74 -55,-106 -21,-20 -37,-25 -80,-25 -60,0 -89,19 -111,72 -48,112 48,213 164,172 z"
       id="path10"
       style="fill:#ffffff" />
    <path
       d="m 4085,6068 c -32,-17 -85,-71 -101,-100 -17,-32 -19,-130 -3,-161 17,-32 70,-87 101,-103 15,-8 52,-14 83,-14 31,0 68,6 83,14 31,16 84,71 101,103 16,31 14,129 -3,161 -16,31 -71,84 -103,101 -28,14 -132,14 -158,-1 z m 143,-68 c 40,-25 72,-75 72,-115 0,-63 -72,-135 -135,-135 -63,0 -135,72 -135,135 0,63 72,135 135,135 17,0 45,-9 63,-20 z"
       id="path12"
       style="fill:#ffffff" />
    <path
       d="m 2985,5478 c -32,-17 -85,-71 -101,-100 -17,-32 -19,-130 -3,-161 17,-32 70,-87 101,-103 15,-8 52,-14 83,-14 31,0 68,6 83,14 31,16 84,71 101,103 16,31 14,129 -3,161 -16,31 -71,84 -103,101 -28,14 -132,14 -158,-1 z m 143,-68 c 40,-25 72,-75 72,-115 0,-63 -72,-135 -135,-135 -63,0 -135,72 -135,135 0,63 72,135 135,135 17,0 45,-9 63,-20 z"
       id="path14"
       style="fill:#ffffff" />
    <path
       d="m 15997,7531 c -70,-23 -124,-58 -196,-125 -67,-64 -107,-143 -127,-251 -15,-77 -15,-93 0,-176 20,-120 67,-201 165,-286 103,-90 155,-108 311,-108 120,0 128,1 192,32 118,55 201,142 260,269 20,43 23,65 23,179 v 130 l -42,86 c -52,106 -123,176 -233,228 -70,32 -83,35 -185,38 -87,2 -122,-1 -168,-16 z m 323,-83 c 108,-51 153,-94 203,-196 41,-85 42,-89 42,-187 0,-86 -4,-108 -26,-155 -55,-117 -117,-182 -225,-232 -63,-30 -78,-33 -164,-32 -118,0 -185,24 -269,96 -118,102 -172,251 -145,397 24,128 82,213 193,286 113,75 262,84 391,23 z"
       id="path16"
       style="fill:#ffffff" />
    <path
       d="m 14377,7081 c -70,-23 -124,-58 -196,-125 -67,-64 -107,-143 -127,-251 -15,-77 -15,-93 0,-176 20,-120 67,-201 165,-286 103,-90 155,-108 311,-108 120,0 128,1 192,32 118,55 201,142 260,269 20,43 23,65 23,179 v 130 l -42,86 c -52,106 -123,176 -233,228 -70,32 -83,35 -185,38 -87,2 -122,-1 -168,-16 z m 323,-83 c 108,-51 153,-94 203,-196 41,-85 42,-89 42,-187 0,-86 -4,-108 -26,-155 -55,-117 -117,-182 -225,-232 -63,-30 -78,-33 -164,-32 -118,0 -185,24 -269,96 -118,102 -172,251 -145,397 24,128 82,213 193,286 113,75 262,84 391,23 z"
       id="path18"
       style="fill:#ffffff" />
    <path
       d="m 16447,5931 c -70,-23 -124,-58 -196,-125 -67,-64 -107,-143 -127,-251 -15,-77 -15,-93 0,-176 20,-120 67,-201 165,-286 103,-90 155,-108 311,-108 120,0 128,1 192,32 118,55 201,142 260,269 20,43 23,65 23,179 v 130 l -42,86 c -52,106 -123,176 -233,228 -70,32 -83,35 -185,38 -87,2 -122,-1 -168,-16 z m 323,-83 c 108,-51 153,-94 203,-196 41,-85 42,-89 42,-187 0,-86 -4,-108 -26,-155 -55,-117 -117,-182 -225,-232 -63,-30 -78,-33 -164,-32 -118,0 -185,24 -269,96 -118,102 -172,251 -145,397 24,128 82,213 193,286 113,75 262,84 391,23 z"
       id="path20"
       style="fill:#ffffff" />
    <path
       d="m 14825,5590 c -33,-9 -96,-35 -140,-58 -149,-75 -257,-231 -291,-419 -15,-88 -16,-103 -2,-189 31,-185 144,-351 296,-431 109,-58 168,-73 287,-73 127,0 198,18 296,76 108,63 185,147 244,267 48,97 49,99 53,214 6,144 -6,202 -65,315 -105,200 -305,319 -533,317 -48,-1 -111,-9 -145,-19 z m 272,-59 c 91,-24 195,-80 254,-138 54,-52 131,-193 149,-272 8,-33 11,-88 8,-143 -5,-82 -10,-98 -53,-186 -58,-116 -113,-177 -214,-236 -174,-103 -350,-102 -532,1 -128,74 -226,220 -254,381 -13,71 -12,88 4,168 35,172 125,299 260,368 146,75 249,90 378,57 z"
       id="path22"
       style="fill:#ffffff" />
    <path
       d="m 12470,4115 c -13,-4 -193,-20 -785,-71 -93,-7 -213,-18 -265,-23 -52,-5 -237,-21 -410,-35 -176,-15 -339,-34 -368,-43 -60,-17 -127,-64 -158,-110 -11,-17 -27,-58 -34,-91 -33,-159 77,-280 265,-290 44,-2 193,5 330,17 138,12 365,30 505,41 140,11 368,29 505,40 138,11 327,27 422,34 166,13 174,15 220,45 58,39 109,101 123,150 13,48 13,167 -1,194 -23,45 -84,98 -137,117 -51,19 -179,34 -212,25 z m 172,-81 c 84,-27 128,-78 128,-151 0,-86 -32,-144 -108,-197 -37,-26 -52,-28 -219,-42 -98,-8 -288,-23 -423,-35 -135,-11 -357,-28 -495,-39 -137,-10 -371,-29 -519,-41 -299,-25 -336,-23 -419,28 -58,35 -83,88 -74,158 9,65 32,102 82,134 62,39 114,48 455,77 168,14 348,30 400,35 52,5 172,16 265,23 575,49 772,67 790,70 28,5 82,-3 137,-20 z"
       id="path24"
       style="fill:#ffffff" />
  </g>
</svg>
