<?xml version="1.0" encoding="UTF-8" standalone="no"?>
<svg
   version="1.0"
   width="640"
   height="360"
   viewBox="0 0 480 270"
   preserveAspectRatio="xMidYMid meet"
   id="svg68"
   sodipodi:docname="amigacdtv.svg"
   inkscape:version="1.1.1 (3bf5ae0d25, 2021-09-20)"
   xmlns:inkscape="http://www.inkscape.org/namespaces/inkscape"
   xmlns:sodipodi="http://sodipodi.sourceforge.net/DTD/sodipodi-0.dtd"
   xmlns="http://www.w3.org/2000/svg"
   xmlns:svg="http://www.w3.org/2000/svg">
  <defs
     id="defs72" />
  <sodipodi:namedview
     id="namedview70"
     pagecolor="#ffffff"
     bordercolor="#666666"
     borderopacity="1.0"
     inkscape:pageshadow="2"
     inkscape:pageopacity="0.0"
     inkscape:pagecheckerboard="0"
     inkscape:document-units="px"
     showgrid="false"
     units="px"
     inkscape:zoom="1.6703125"
     inkscape:cx="451.11319"
     inkscape:cy="150.57063"
     inkscape:window-width="1920"
     inkscape:window-height="1017"
     inkscape:window-x="-8"
     inkscape:window-y="-8"
     inkscape:window-maximized="1"
     inkscape:current-layer="svg68" />
  <g
     transform="matrix(0.02493848,0,0,-0.02494439,1.8069903,266.05111)"
     fill="#000000"
     stroke="none"
     id="g66"
     style="fill:#ffffff">
    <path
       d="m 1705,8231 c -59,-15 -121,-55 -184,-120 -116,-119 -151,-242 -151,-529 0,-103 -9,-398 -20,-657 -11,-258 -25,-585 -30,-725 -5,-140 -14,-340 -20,-445 -6,-104 -15,-314 -20,-465 -5,-151 -14,-391 -20,-533 -20,-546 40,-827 243,-1132 52,-78 185,-214 267,-274 67,-49 196,-115 246,-125 16,-3 92,-10 169,-16 77,-6 219,-18 315,-26 96,-8 267,-21 380,-29 113,-8 215,-17 227,-20 21,-5 104,-12 428,-34 77,-6 192,-15 255,-21 63,-6 252,-22 420,-36 168,-14 352,-29 410,-35 548,-50 1706,-94 3160,-120 1196,-21 1754,-24 2110,-12 504,17 930,32 1225,43 143,5 395,14 560,20 493,17 854,30 1140,40 149,6 461,17 695,25 234,8 470,19 525,25 143,14 408,37 635,55 107,8 242,20 300,25 58,6 173,15 255,21 335,23 399,28 424,34 14,3 118,12 231,20 113,8 284,21 380,29 96,8 238,20 315,26 77,6 153,13 168,16 46,9 189,80 242,120 69,51 199,179 243,239 20,28 42,56 48,62 23,24 103,180 133,258 77,198 105,464 91,842 -6,142 -14,375 -20,518 -5,143 -16,404 -24,580 -15,308 -19,421 -51,1175 -8,190 -15,429 -15,532 0,203 -15,301 -63,409 -30,69 -135,177 -207,215 l -55,29 -7665,1 c -4216,1 -7678,-1 -7695,-5 z m 6177,-173 3,-123 h 1530 1530 l 3,123 3,122 3042,-2 3042,-3 54,-28 c 70,-37 147,-118 178,-186 38,-85 63,-211 63,-316 v -95 l -1587,-2 -1588,-3 v -60 -60 l 1588,-3 1587,-2 v -40 -40 l -1587,-2 -1588,-3 v -60 -60 l 1593,-3 1592,-2 v -48 -47 l -1581,3 c -1193,1 -1585,-1 -1596,-10 -10,-8 -13,-28 -11,-67 l 3,-56 1598,-3 1597,-2 v -50 -50 l -1597,-2 -1598,-3 v -65 -65 l 1601,-3 1600,-2 13,-298 c 7,-163 19,-430 27,-592 7,-162 19,-423 24,-580 6,-157 15,-386 19,-510 17,-434 -30,-711 -161,-950 -123,-224 -263,-365 -449,-452 -93,-43 -99,-45 -274,-58 -77,-6 -219,-18 -315,-26 -96,-8 -267,-21 -380,-29 -113,-8 -217,-17 -231,-20 -25,-6 -89,-11 -424,-34 -82,-6 -197,-15 -255,-21 -58,-5 -193,-17 -300,-25 -224,-18 -490,-41 -635,-55 -55,-5 -296,-17 -535,-25 -239,-8 -554,-19 -700,-25 -269,-10 -594,-21 -1135,-40 -165,-6 -419,-15 -565,-20 -146,-6 -393,-15 -550,-20 -157,-6 -415,-15 -575,-21 -537,-21 -2673,9 -3930,56 -622,23 -1101,49 -1375,74 -58,6 -242,21 -410,35 -168,14 -357,30 -420,36 -63,6 -178,15 -255,21 -324,22 -407,29 -428,34 -12,3 -114,12 -227,20 -113,8 -284,21 -380,29 -96,8 -238,20 -315,26 -175,13 -181,15 -274,58 -275,128 -506,441 -580,786 -25,117 -51,391 -46,481 3,39 9,212 15,385 6,173 20,506 30,740 10,234 25,557 31,717 l 13,293 1600,2 1601,3 v 65 65 l -1597,3 -1598,2 v 50 50 l 1598,2 1597,3 v 65 65 l -1592,3 -1593,2 v 45 45 l 1593,2 1592,3 v 65 65 l -1587,3 -1588,2 v 35 35 l 1588,2 1587,3 v 65 65 l -1587,3 -1588,2 v 95 c 0,105 25,231 63,316 42,94 150,187 242,210 17,4 1406,7 3087,8 l 3057,1 z m 3008,27 v -95 H 9415 7940 v 95 95 h 1475 1475 z m 6430,-600 c 0,-13 -179,-15 -1555,-15 -1376,0 -1555,2 -1555,15 0,13 179,15 1555,15 1376,0 1555,-2 1555,-15 z m -12770,-5 c 0,-7 -525,-10 -1555,-10 -1030,0 -1555,3 -1555,10 0,7 525,10 1555,10 1030,0 1555,-3 1555,-10 z m 12780,-205 c 0,-13 -180,-15 -1560,-15 -1380,0 -1560,2 -1560,15 0,13 180,15 1560,15 1380,0 1560,-2 1560,-15 z m -12780,-5 c 0,-7 -527,-10 -1560,-10 -1033,0 -1560,3 -1560,10 0,7 527,10 1560,10 1033,0 1560,-3 1560,-10 z m 12790,-220 c 0,-7 -528,-10 -1565,-10 -1037,0 -1565,3 -1565,10 0,7 528,10 1565,10 1037,0 1565,-3 1565,-10 z M 4550,7040 c 0,-7 -528,-10 -1565,-10 -1037,0 -1565,3 -1565,10 0,7 528,10 1565,10 1037,0 1565,-3 1565,-10 z m 12800,-230 c 0,-7 -530,-10 -1570,-10 -1040,0 -1570,3 -1570,10 0,7 530,10 1570,10 1040,0 1570,-3 1570,-10 z M 4550,6800 c 0,-7 -530,-10 -1570,-10 -1040,0 -1570,3 -1570,10 0,7 530,10 1570,10 1040,0 1570,-3 1570,-10 z"
       id="path2"
       style="fill:#ffffff" />
    <path
       d="m 4707,7523 c -4,-3 -7,-901 -7,-1995 0,-1582 3,-1989 13,-1993 12,-4 141,-13 592,-40 132,-8 260,-17 285,-20 93,-11 1486,-64 1995,-77 1634,-39 4182,11 5665,112 80,6 289,20 465,31 176,11 326,22 333,24 10,4 12,405 10,1982 l -3,1978 -4671,3 c -2569,1 -4674,-1 -4677,-5 z m 9293,-1979 c 0,-1273 -3,-1933 -10,-1929 -5,3 -146,-3 -312,-14 -1054,-70 -1129,-74 -2153,-111 -1215,-43 -2861,-57 -3910,-32 -508,12 -1907,66 -1990,77 -22,3 -152,12 -290,20 -137,8 -311,19 -385,25 -74,5 -147,9 -162,10 h -28 v 1940 1940 l 4603,3 c 2531,1 4610,3 4620,5 16,2 17,-96 17,-1934 z"
       id="path4"
       style="fill:#ffffff" />
    <path
       d="m 5054,6795 c -4,-8 -4,-22 0,-30 5,-13 497,-15 4373,-13 l 4368,3 v 25 25 l -4368,3 c -3876,2 -4368,0 -4373,-13 z"
       id="path6"
       style="fill:#ffffff" />
    <path
       d="m 5074,6241 c -55,-25 -74,-73 -74,-184 0,-98 24,-161 66,-177 17,-7 139,-10 330,-8 376,4 347,-10 352,171 4,148 -3,171 -60,197 -39,18 -67,20 -308,20 -237,0 -269,-2 -306,-19 z m 571,-55 c 22,-10 37,-24 41,-40 8,-34 1,-192 -9,-203 -10,-9 -530,-17 -565,-8 -45,11 -68,127 -41,205 19,54 45,59 307,60 180,0 240,-3 267,-14 z"
       id="path8"
       style="fill:#ffffff" />
    <path
       d="m 6194,6241 c -55,-25 -74,-73 -74,-184 0,-98 24,-161 66,-177 17,-7 139,-10 330,-8 376,4 347,-10 352,171 4,148 -3,171 -60,197 -39,18 -67,20 -308,20 -237,0 -269,-2 -306,-19 z m 571,-55 c 22,-10 37,-24 41,-40 8,-34 1,-192 -9,-203 -10,-9 -530,-17 -565,-8 -45,11 -68,127 -41,205 19,54 45,59 307,60 180,0 240,-3 267,-14 z"
       id="path10"
       style="fill:#ffffff" />
    <path
       d="m 8414,6231 c -55,-25 -74,-73 -74,-184 0,-98 24,-161 66,-177 17,-7 139,-10 330,-8 376,4 347,-10 352,171 4,148 -3,171 -60,197 -39,18 -67,20 -308,20 -237,0 -269,-2 -306,-19 z m 571,-55 c 22,-10 37,-24 41,-40 8,-34 1,-192 -9,-203 -10,-9 -530,-17 -565,-8 -45,11 -68,127 -41,205 19,54 45,59 307,60 180,0 240,-3 267,-14 z"
       id="path12"
       style="fill:#ffffff" />
    <path
       d="m 9245,6238 c -3,-7 -4,-528 -3,-1158 l 3,-1145 h 25 25 v 1155 1155 l -23,3 c -12,2 -24,-3 -27,-10 z"
       id="path14"
       style="fill:#ffffff" />
    <path
       d="m 7304,6221 c -55,-25 -74,-73 -74,-184 0,-98 24,-161 66,-177 17,-7 139,-10 330,-8 376,4 347,-10 352,171 4,148 -3,171 -60,197 -39,18 -67,20 -308,20 -237,0 -269,-2 -306,-19 z m 571,-55 c 22,-10 37,-24 41,-40 8,-34 1,-192 -9,-203 -10,-9 -530,-17 -565,-8 -45,11 -68,127 -41,205 19,54 45,59 307,60 180,0 240,-3 267,-14 z"
       id="path16"
       style="fill:#ffffff" />
    <path
       d="m 13045,6227 c -3,-7 -4,-100 -3,-207 l 3,-195 h 405 405 v 205 205 l -403,3 c -321,2 -404,0 -407,-11 z m 755,-197 v -150 h -350 -350 v 150 150 h 350 350 z"
       id="path18"
       style="fill:#ffffff" />
    <path
       d="m 13210,6030 v -130 h 130 130 v 130 130 h -130 -130 z m 220,5 v -95 h -90 -90 v 95 95 h 90 90 z"
       id="path20"
       style="fill:#ffffff" />
    <path
       d="m 9524,6211 c -55,-25 -74,-73 -74,-184 0,-98 24,-161 66,-177 17,-7 139,-10 330,-8 376,4 347,-10 352,171 4,148 -3,171 -60,197 -39,18 -67,20 -308,20 -237,0 -269,-2 -306,-19 z m 571,-55 c 22,-10 37,-24 41,-40 8,-34 1,-192 -9,-203 -10,-9 -530,-17 -565,-8 -45,11 -68,127 -41,205 19,54 45,59 307,60 180,0 240,-3 267,-14 z"
       id="path22"
       style="fill:#ffffff" />
    <path
       d="m 10624,6211 c -55,-25 -74,-73 -74,-184 0,-98 24,-161 66,-177 17,-7 139,-10 330,-8 376,4 347,-10 352,171 4,148 -3,171 -60,197 -39,18 -67,20 -308,20 -237,0 -269,-2 -306,-19 z m 571,-55 c 22,-10 37,-24 41,-40 8,-34 1,-192 -9,-203 -10,-9 -530,-17 -565,-8 -45,11 -68,127 -41,205 19,54 45,59 307,60 180,0 240,-3 267,-14 z"
       id="path24"
       style="fill:#ffffff" />
    <path
       d="m 11704,6201 c -55,-25 -74,-73 -74,-184 0,-98 24,-161 66,-177 17,-7 139,-10 330,-8 376,4 347,-10 352,171 4,148 -3,171 -60,197 -39,18 -67,20 -308,20 -237,0 -269,-2 -306,-19 z m 571,-55 c 22,-10 37,-24 41,-40 8,-34 1,-192 -9,-203 -10,-9 -530,-17 -565,-8 -45,11 -68,127 -41,205 19,54 45,59 307,60 180,0 240,-3 267,-14 z"
       id="path26"
       style="fill:#ffffff" />
    <path
       d="m 12845,6208 c -3,-7 -4,-528 -3,-1158 l 3,-1145 h 25 25 v 1155 1155 l -23,3 c -12,2 -24,-3 -27,-10 z"
       id="path28"
       style="fill:#ffffff" />
    <path
       d="m 9444,5715 c -4,-8 -4,-22 0,-30 5,-13 192,-15 1628,-13 l 1623,3 v 25 25 l -1623,3 c -1436,2 -1623,0 -1628,-13 z"
       id="path30"
       style="fill:#ffffff" />
    <path
       d="m 7274,5301 c -55,-25 -74,-73 -74,-184 0,-98 24,-161 66,-177 17,-7 139,-10 330,-8 376,4 347,-10 352,171 4,148 -3,171 -60,197 -39,18 -67,20 -308,20 -237,0 -269,-2 -306,-19 z m 571,-55 c 22,-10 37,-24 41,-40 8,-34 1,-192 -9,-203 -10,-9 -530,-17 -565,-8 -45,11 -68,127 -41,205 19,54 45,59 307,60 180,0 240,-3 267,-14 z"
       id="path32"
       style="fill:#ffffff" />
    <path
       d="m 9534,5301 c -55,-25 -74,-73 -74,-184 0,-97 24,-161 65,-177 15,-6 80,-10 146,-10 h 119 l 2,-392 3,-393 383,-3 382,-2 v -33 c 1,-49 35,-115 66,-127 17,-7 199,-10 510,-8 l 483,3 23,22 c 17,18 23,37 26,88 l 4,65 407,2 406,3 3,382 2,381 90,4 c 129,5 134,11 138,171 4,148 -3,171 -60,197 -39,18 -68,20 -305,20 -308,0 -333,-5 -364,-74 -10,-23 -19,-53 -19,-68 v -28 h -155 -155 v 44 c 0,68 -14,94 -62,116 -40,18 -70,20 -485,20 -508,0 -510,0 -544,-74 -10,-23 -19,-51 -19,-63 0,-23 0,-23 -170,-23 h -170 v 34 c 0,58 -16,85 -62,106 -39,18 -67,20 -308,20 -237,0 -269,-2 -306,-19 z m 571,-55 c 22,-10 37,-24 41,-40 8,-34 1,-192 -9,-203 -10,-9 -529,-16 -565,-8 -45,11 -68,127 -41,205 19,54 45,59 307,60 180,0 240,-3 267,-14 z m 1450,0 c 22,-10 37,-24 41,-40 8,-34 1,-232 -9,-243 -10,-9 -889,-17 -925,-8 -33,8 -52,61 -52,143 0,91 14,131 54,148 47,20 842,20 891,0 z m 1060,-10 c 22,-10 37,-24 41,-40 8,-34 1,-192 -9,-203 -10,-9 -530,-17 -565,-8 -45,11 -68,127 -41,205 19,54 45,59 307,60 180,0 240,-3 267,-14 z m -2065,-188 c 1,-68 30,-135 66,-148 17,-7 199,-10 510,-8 l 483,3 23,22 c 18,18 23,37 26,93 l 4,70 h 154 154 v -27 c 1,-45 36,-112 65,-123 15,-6 109,-10 211,-10 h 184 v -355 -355 h -380 -380 v 49 c 0,73 -13,99 -62,121 -40,18 -70,20 -488,20 -412,0 -448,-2 -486,-19 -47,-21 -74,-73 -74,-141 v -40 h -355 -355 v 364 365 l 155,3 c 187,4 196,9 203,108 l 4,60 h 169 169 z m 1015,-722 c 22,-10 37,-24 41,-40 8,-34 1,-232 -9,-243 -10,-9 -889,-17 -925,-8 -33,8 -52,61 -52,143 0,91 14,131 54,148 47,20 842,20 891,0 z"
       id="path34"
       style="fill:#ffffff" />
    <path
       d="m 8414,5291 c -55,-25 -74,-73 -74,-184 0,-98 24,-161 66,-177 17,-7 139,-10 330,-8 376,4 347,-10 352,171 4,148 -3,171 -60,197 -39,18 -67,20 -308,20 -237,0 -269,-2 -306,-19 z m 571,-55 c 22,-10 37,-24 41,-40 8,-34 1,-192 -9,-203 -10,-9 -530,-17 -565,-8 -45,11 -68,127 -41,205 19,54 45,59 307,60 180,0 240,-3 267,-14 z"
       id="path36"
       style="fill:#ffffff" />
    <path
       d="m 5064,5281 c -55,-25 -74,-73 -74,-184 0,-98 24,-161 66,-177 17,-7 139,-10 330,-8 376,4 347,-10 352,171 4,148 -3,171 -60,197 -39,18 -67,20 -308,20 -237,0 -269,-2 -306,-19 z m 571,-55 c 22,-10 37,-24 41,-40 8,-34 1,-192 -9,-203 -10,-9 -530,-17 -565,-8 -45,11 -68,127 -41,205 19,54 45,59 307,60 180,0 240,-3 267,-14 z"
       id="path38"
       style="fill:#ffffff" />
    <path
       d="m 6154,5281 c -55,-25 -74,-73 -74,-184 0,-98 24,-161 66,-177 17,-7 139,-10 330,-8 376,4 347,-10 352,171 4,148 -3,171 -60,197 -39,18 -67,20 -308,20 -237,0 -269,-2 -306,-19 z m 571,-55 c 22,-10 37,-24 41,-40 8,-34 1,-192 -9,-203 -10,-9 -530,-17 -565,-8 -45,11 -68,127 -41,205 19,54 45,59 307,60 180,0 240,-3 267,-14 z"
       id="path40"
       style="fill:#ffffff" />
    <path
       d="m 13164,5281 c -55,-25 -74,-73 -74,-184 0,-98 24,-161 66,-177 17,-7 139,-10 330,-8 376,4 347,-10 352,171 4,148 -3,171 -60,197 -39,18 -67,20 -308,20 -237,0 -269,-2 -306,-19 z m 571,-55 c 22,-10 37,-24 41,-40 8,-34 1,-192 -9,-203 -10,-9 -530,-17 -565,-8 -45,11 -68,127 -41,205 19,54 45,59 307,60 180,0 240,-3 267,-14 z"
       id="path42"
       style="fill:#ffffff" />
    <path
       d="m 6134,4351 c -55,-25 -74,-73 -74,-184 0,-98 24,-161 66,-177 17,-7 139,-10 330,-8 376,4 347,-10 352,171 4,148 -3,171 -60,197 -39,18 -67,20 -308,20 -237,0 -269,-2 -306,-19 z m 571,-55 c 22,-10 37,-24 41,-40 8,-34 1,-192 -9,-203 -10,-9 -530,-17 -565,-8 -45,11 -68,127 -41,205 19,54 45,59 307,60 180,0 240,-3 267,-14 z"
       id="path44"
       style="fill:#ffffff" />
    <path
       d="m 5034,4341 c -55,-25 -74,-73 -74,-184 0,-98 24,-161 66,-177 17,-7 139,-10 330,-8 376,4 347,-10 352,171 4,148 -3,171 -60,197 -39,18 -67,20 -308,20 -237,0 -269,-2 -306,-19 z m 571,-55 c 22,-10 37,-24 41,-40 8,-34 1,-192 -9,-203 -10,-9 -530,-17 -565,-8 -45,11 -68,127 -41,205 19,54 45,59 307,60 180,0 240,-3 267,-14 z"
       id="path46"
       style="fill:#ffffff" />
    <path
       d="m 7264,4341 c -55,-25 -74,-73 -74,-184 0,-98 24,-161 66,-177 17,-7 139,-10 330,-8 376,4 347,-10 352,171 4,148 -3,171 -60,197 -39,18 -67,20 -308,20 -237,0 -269,-2 -306,-19 z m 571,-55 c 22,-10 37,-24 41,-40 8,-34 1,-192 -9,-203 -10,-9 -530,-17 -565,-8 -45,11 -68,127 -41,205 19,54 45,59 307,60 180,0 240,-3 267,-14 z"
       id="path48"
       style="fill:#ffffff" />
    <path
       d="m 13134,4341 c -55,-25 -74,-73 -74,-184 0,-98 24,-161 66,-177 17,-7 139,-10 330,-8 376,4 347,-10 352,171 4,148 -3,171 -60,197 -39,18 -67,20 -308,20 -237,0 -269,-2 -306,-19 z m 571,-55 c 22,-10 37,-24 41,-40 8,-34 1,-192 -9,-203 -10,-9 -530,-17 -565,-8 -45,11 -68,127 -41,205 19,54 45,59 307,60 180,0 240,-3 267,-14 z"
       id="path50"
       style="fill:#ffffff" />
    <path
       d="m 8385,4331 c -55,-25 -65,-52 -65,-182 0,-122 13,-163 56,-179 40,-16 603,-13 634,3 40,20 54,62 58,167 4,122 -11,163 -71,190 -38,18 -67,20 -307,20 -235,0 -270,-2 -305,-19 z m 564,-52 c 41,-14 61,-54 61,-120 0,-72 -18,-126 -44,-133 -11,-3 -139,-6 -283,-6 -319,0 -303,-6 -303,124 0,102 4,114 44,132 40,17 477,20 525,3 z"
       id="path52"
       style="fill:#ffffff" />
    <path
       d="m 2587,6183 c -4,-3 -7,-124 -7,-267 v -261 l 170,-170 170,-170 170,170 170,170 -2,265 -3,265 -331,3 c -182,1 -333,-1 -337,-5 z m 613,-276 v -222 l -140,-140 -140,-140 -140,140 -140,140 v 222 223 h 280 280 z"
       id="path54"
       style="fill:#ffffff" />
    <path
       d="m 16425,5773 c -260,-47 -455,-286 -455,-558 0,-190 103,-378 265,-483 167,-109 443,-109 610,0 101,66 194,178 237,287 19,48 23,75 23,191 0,125 -2,141 -29,215 -25,66 -42,93 -106,165 -99,109 -190,161 -325,184 -105,19 -114,18 -220,-1 z m 215,-64 c 158,-26 311,-152 374,-307 28,-70 31,-87 31,-187 -1,-90 -5,-120 -23,-166 -62,-156 -178,-265 -335,-314 -226,-72 -476,29 -587,236 -38,72 -70,183 -70,244 0,52 28,157 61,230 59,132 206,240 364,268 44,8 89,13 100,11 11,-2 49,-8 85,-15 z"
       id="path56"
       style="fill:#ffffff" />
    <path
       d="m 14925,5763 c -31,-7 -123,-42 -156,-58 -35,-19 -148,-123 -191,-177 -17,-22 -44,-72 -61,-111 -25,-61 -30,-89 -34,-182 -6,-120 8,-196 51,-291 34,-74 143,-184 234,-238 65,-38 93,-48 180,-62 96,-16 108,-16 204,0 87,14 115,24 178,61 91,54 164,127 218,220 34,58 44,88 58,173 16,96 16,109 1,204 -15,86 -24,113 -63,179 -54,93 -164,201 -238,235 -85,38 -163,54 -266,53 -52,-1 -104,-3 -115,-6 z m 240,-68 c 93,-24 155,-57 217,-114 178,-163 222,-426 106,-626 -54,-93 -98,-137 -188,-190 -157,-91 -344,-91 -502,1 -175,103 -268,273 -255,469 9,138 65,248 179,350 64,57 144,98 233,118 45,10 155,6 210,-8 z"
       id="path58"
       style="fill:#ffffff" />
    <path
       d="m 1985,5537 c -3,-7 -4,-158 -3,-337 l 3,-325 265,-3 265,-2 170,170 170,170 -170,170 -170,170 h -263 c -202,0 -264,-3 -267,-13 z m 640,-187 140,-140 -140,-140 -140,-140 h -222 -223 v 280 280 h 223 222 z"
       id="path60"
       style="fill:#ffffff" />
    <path
       d="m 3145,5380 -170,-170 170,-170 170,-170 265,2 265,3 v 335 335 l -265,3 -265,2 z m 645,-170 v -280 h -223 -222 l -140,140 -140,140 140,140 140,140 h 222 223 z"
       id="path62"
       style="fill:#ffffff" />
    <path
       d="m 2747,4932 -167,-168 2,-264 3,-265 h 335 335 l 3,265 2,264 -167,168 c -92,92 -170,168 -173,168 -3,0 -81,-76 -173,-168 z m 315,-59 138,-138 v -222 -223 h -280 -280 v 222 223 l 137,137 c 76,76 140,138 143,138 2,0 67,-62 142,-137 z"
       id="path64"
       style="fill:#ffffff" />
  </g>
</svg>
