<svg height="354.47867" viewBox="0 0 5234.8854 2516.7985" width="737.3078" xmlns="http://www.w3.org/2000/svg"><g transform="translate(-70.263588 -862.72815)"><g stroke="#f4f4f4" stroke-width="14.2"><g fill="none" stroke="#f4f4f4"><path d="m2687.3595 3378.5267h2550.0127c8.424 0 15.2059-6.7818 15.2059-15.2059v-1879.8312c0-8.4241-6.7819-15.2059-15.2059-15.2059h-2549.7247m.288 1910.243h-2550.01264c-8.42406 0-15.20589-6.7818-15.20589-15.2059v-1879.8312c0-8.4241 6.78183-15.2059 15.20589-15.2059h2549.72464" stroke-width="14.2"/><path d="m5252.7396 2087.3793h36.2047c8.4234 0 15.2047-6.7363 15.2047-15.1039v-60.1367l-51.5816-.028h45.5021m-5174.8908 75.2686h-36.710406c-8.423407 0-15.204706-6.7363-15.204706-15.1039v-1193.44336c0-8.36756 6.781299-15.10389 15.204706-15.10389h2601.238006m2549.616 603.91765v-318.941c0-3.3746 2.7167-6.0913 6.0912-6.0913h54.656l6.0795-.021v-263.76046c0-8.36756-6.7813-15.10389-15.2047-15.10389h-2601.238" stroke-width="14.2"/><g stroke-width="7.1"><g><path d="m2687.9089 1357.7855h2467.307c3.3746 0 6.0913-2.7167 6.0913-6.0912v-14.6272c0-3.3746-2.7167-6.0913-6.0913-6.0913h-2467.307m0 26.8097h-2467.30701c-3.37456 0-6.09127-2.7167-6.09127-6.0912v-14.6272c0-3.3746 2.71671-6.0913 6.09127-6.0913h2467.30701"/><path d="m2687.9089 1291.7855h2467.307c3.3746 0 6.0913-2.7167 6.0913-6.0912v-14.6272c0-3.3746-2.7167-6.0913-6.0913-6.0913h-2467.307m0 26.8097h-2467.30701c-3.37456 0-6.09127-2.7167-6.09127-6.0912v-14.6272c0-3.3746 2.71671-6.0913 6.09127-6.0913h2467.30701"/><path d="m2687.9089 1225.7855h2467.307c3.3746 0 6.0913-2.7167 6.0913-6.0912v-14.6272c0-3.3746-2.7167-6.0913-6.0913-6.0913h-2467.307m0 26.8097h-2467.30701c-3.37456 0-6.09127-2.7167-6.09127-6.0912v-14.6272c0-3.3746 2.71671-6.0913 6.09127-6.0913h2467.30701"/><path d="m2687.9089 1159.7855h2467.307c3.3746 0 6.0913-2.7167 6.0913-6.0912v-14.6272c0-3.3746-2.7167-6.0913-6.0913-6.0913h-2467.307m0 26.8097h-2467.30701c-3.37456 0-6.09127-2.7167-6.09127-6.0912v-14.6272c0-3.3746 2.71671-6.0913 6.09127-6.0913h2467.30701"/><path d="m2687.9089 1093.7855h2467.307c3.3746 0 6.0913-2.7167 6.0913-6.0912v-14.6272c0-3.3746-2.7167-6.0913-6.0913-6.0913h-2467.307m0 26.8097h-2467.30701c-3.37456 0-6.09127-2.7167-6.09127-6.0912v-14.6272c0-3.3746 2.71671-6.0913 6.09127-6.0913h2467.30701"/><path d="m2687.9089 1027.7855h2467.307c3.3746 0 6.0913-2.7167 6.0913-6.0912v-14.6272c0-3.3746-2.7167-6.0913-6.0913-6.0913h-2467.307m0 26.8097h-2467.30701c-3.37456 0-6.09127-2.7167-6.09127-6.0912v-14.6272c0-3.3746 2.71671-6.0913 6.09127-6.0913h2467.30701"/><path d="m2687.9089 961.7855h2467.307c3.3746 0 6.0913-2.7167 6.0913-6.0912v-14.6272c0-3.3746-2.7167-6.0913-6.0913-6.0913h-2467.307m0 26.8097h-2467.30701c-3.37456 0-6.09127-2.7167-6.09127-6.0912v-14.6272c0-3.3746 2.71671-6.0913 6.09127-6.0913h2467.30701"/></g><rect height="134.75363" rx="6.09127" width="538.86865" x="209.33217" y="1547.3242"/><rect height="23.931437" rx="6.09127" width="175.63364" x="4828.2168" y="1798.8901"/><rect height="23.931437" rx="6.09127" width="175.63364" x="4828.2168" y="1888.8901"/><rect height="23.931437" rx="6.09127" width="175.63364" x="4828.2168" y="1976.8901"/></g><g stroke-width="5.25683" transform="matrix(1.3165504 0 0 1.3855769 -418.25353 399.82393)"><path d="m3061.7484 1111.5045c.7594 8.6798 1.8104 17.8556 2.3216 26.5354.9668 13.8878-2.81 16.1197-11.2071 16.6156-6.4111.4961-12.1208.4961-11.6218 6.1999.4556 5.2079 6.4136 5.2079 9.6408 5.2079 6.2063 0 14.8082-.992 31.9375-.992 12.4124 0 26.8977.992 33.104.992 3.7238 0 10.1782 0 9.6575-5.9519-.3906-4.4638-3.8878-4.7119-10.4507-5.9518-8.5489-1.24-9.4144-5.456-10.6728-19.8396-2.4058-21.8235-7.4591-99.4458-9.6696-119.0374-.3471-3.9679-2.3235-6.6959-11.2605-6.6959-12.4126 0-17.7004 1.984-22.3496 8.4318-28.5309 39.9272-54.7965 77.3744-81.3753 114.0776-9.0935 12.3997-15.0586 20.8316-24.0485 23.0635-5.0832 1.488-9.2165 2.4799-8.8476 6.6958.1301 1.4879.952 5.2079 7.903 5.2079 6.7027 0 14.5599-.992 22.2557-.992 8.6888 0 17.216.992 25.6565.992 3.972 0 9.9083-.248 9.4527-5.4559-.3689-4.2158-4.1795-5.2079-8.713-5.9519-4.7818-.744-10.8266-1.7359-11.3473-7.6878-.3038-3.4719 2.0148-8.1838 4.6249-12.3997 4.7888-7.6879 10.0091-16.1197 13.7738-21.3276 1.0893-1.7359 1.8341-1.7359 3.8201-1.7359zm-.6317-12.8957h-41.2095c12.3615-17.6077 24.5182-34.7193 36.6315-52.3269l.5182.248z"/><path d="m3167.6615 1023.2631c.4509 5.0032 7.0762 5.0032 8.7939 5.0032 3.9475.2383 10.5943.4765 11.131 6.4327.2361 2.6207-1.095 6.9091-1.8404 9.5299-8.1562 29.3042-16.8032 58.6085-25.4288 88.1511-4.8343 17.1536-6.7943 22.6333-18.956 23.8246-7.0732.4764-9.8676 2.1442-9.5025 6.1943.3434 3.812 5.5608 4.5267 8.7508 4.5267 4.4169 0 12.1833-.953 20.7717-.953 9.5699 0 19.2256.953 23.1517.953 3.4354 0 8.7909-.4764 8.34-5.4796-.3863-4.2884-4.6008-4.765-9.0606-5.2414-4.4598-.4765-8.7816-2.1442-9.4256-9.2916-.6871-7.6239 3.497-23.8246 5.9141-32.4015 6.5488-22.6335 13.3645-45.0286 19.935-67.4237h.4908c1.328 9.2916 2.1437 18.345 3.4718 27.6366 3.0332 25.4923 6.0664 50.9846 9.0782 76.2387.9446 10.4829 2.0672 14.7713 10.6556 14.7713 6.8708 0 8.4167-1.906 11.8489-7.3856 22.4162-37.1664 45.0992-74.0946 67.5152-111.261l.7576.2383c-5.1257 30.2572-10.23 60.7527-15.3557 91.01-1.9786 10.7211-3.3406 17.392-18.0421 17.6302-3.6593.2383-8.2141 1.4295-7.8062 5.9561.4507 5.0032 7.5669 5.0032 11.9838 5.0032 4.9075 0 16.8454-.953 29.36-.953 16.686 0 30.7585.953 37.3839.953 3.19 0 10.0607 0 9.524-5.9561-.3434-3.8119-4.6009-4.7649-9.9993-4.7649-4.193-.2383-10.4134-1.1913-10.9072-6.671-.2361-2.6206.583-7.1474 1.1781-11.4358 5.3282-30.7337 10.1656-61.4675 15.27-91.963 2.5736-15.0095 4.8341-17.1538 15.588-17.6302 1.9417-.2383 8.7695-.7147 8.2972-5.9562-.3006-3.3354-3.6408-5.0031-10.0208-5.0031-6.1345 0-18.3393.7148-26.9277.7148-11.533 0-16.5049-.7148-22.8849-.7148-6.1131.2382-7.1254 2.6207-11.3675 10.0063-16.5115 26.4453-33.2469 53.1289-49.7368 79.8125h-.4908c-3.1191-26.4454-6.2383-52.8906-9.3359-79.0978-.73-8.1003-.4753-10.721-6.1191-10.721-5.8892 0-16.8669.7148-28.4.7148-12.5145 0-20.9218-.7148-27.3018-.7148-3.1899 0-10.7968 0-10.303 5.4796z"/><path d="m3422.2445 1147.856c-.3266-3.8139 1.3535-11.4418 1.9806-15.0174l17.3639-86.0515c2.8234-13.3487 3.4302-17.1627 14.1022-17.8778 7.1721-.7151 12.0517-.9535 11.5822-6.436-.4287-5.0057-6.4954-5.0057-8.362-5.0057-9.1 0-18.3517.9534-34.4517.9534-14.4667 0-23.1816-.9534-30.8816-.9534-3.2666 0-12.1537-.2384-11.623 5.9592.4287 5.0058 6.3028 5.4825 8.3824 5.2441 6.3 0 11.4743.4768 11.9438 5.9593.2449 2.8604-.4027 6.1976-1.3944 10.965l-18.0522 88.9121c-2.9139 15.0172-4.6056 19.7847-13.8777 20.4998-8.8054.7151-13.685.9534-13.1951 6.6743.2858 3.3372 4.1825 5.2441 9.5491 5.2441 7.7 0 18.8184-.9534 30.4851-.9534 17.7333 0 28.7815.9534 35.3148.9534 3.9667 0 11.4334 0 10.9027-6.1975-.4083-4.7675-5.3287-5.0058-8.3621-5.0058-5.1537-.2383-10.8558-1.4302-11.3866-7.6279z"/><path d="m3447.3262 1115.8636c.945 10.322 6.9175 33.4237 31.6022 47.4321 14.0926 7.8644 32.4768 12.0424 54.0789 12.0424 12.3439 0 30.9373-1.9662 43.8502-4.178 11.907-1.9662 17.195-3.1949 18.3105-7.8644l8.1849-39.8135c1.9963-9.0932 2.8546-13.7627 12.5145-14.9915 7.6025-1.2289 12.4661-1.4746 11.9937-6.6356-.4726-5.161-6.6445-5.161-9.9877-5.161-6.4292 0-20.4609 1.2288-35.8909 1.2288-10.801 0-22.4861-1.2288-33.2871-1.2288-4.8862 0-11.7172 1.2288-11.1997 6.8813.45 4.9153 6.8792 4.9153 10.7591 5.161 7.7601.4916 11.0711 2.9492 11.4986 7.6187.2475 2.7033-.254 5.6525-.8006 8.1101l-5.0182 23.8389c-.9259 3.9323-2.0189 8.8475-4.4105 10.8136-2.604 2.4576-7.6573 3.4408-12.0291 3.4408-10.801 0-20.4416-4.178-28.1725-12.7798-7.1268-7.6186-12.8132-19.1694-13.8706-30.7203-2.3399-25.5592 8.7282-47.9236 23.5797-62.6694 17.5777-18.6779 42.1597-28.2626 59.1328-28.2626 10.801 0 13.1732 3.4407 13.5783 7.8644.36 3.9322-.283 13.7627.1219 18.1864.4275 4.6694 2.6552 9.339 8.5699 9.339 5.6578 0 7.5898-4.178 9.3869-9.8306 2.2438-6.3897 5.6707-16.7118 7.3778-23.3474 1.0158-2.9491 1.5848-5.161 1.4498-6.6356-.2925-3.1948-4.0278-4.6694-7.7182-5.6524-7.94-2.4577-19.7697-2.4577-27.2276-2.4577-33.9461 0-67.2943 9.339-91.8507 24.822-28.2116 17.6949-47.2937 45.2202-44.5487 75.2033z"/><path d="m3724.5976 1113.2823c1.3537 8.5341 3.0327 17.556 4.1391 26.0901 1.9186 13.6548-1.6943 15.8493-10.0342 16.3369-6.359.4877-12.0531.4877-11.1636 6.0958.8123 5.1205 6.7539 5.1205 9.9723 5.1205 6.1891 0 14.6992-.9753 31.7813-.9753 12.3783 0 26.8916.9753 33.0807.9753 3.7135 0 10.1503 0 9.2221-5.852-.6962-4.3889-4.2011-4.6328-10.8313-5.8519-8.6107-1.2192-9.7631-5.3645-12.007-19.5068-3.8992-21.4573-14.2744-97.7772-17.8253-117.04-.619-3.9014-2.7774-6.5836-11.6898-6.5836-12.3782 0-17.5153 1.9507-21.7083 8.2904-25.708 39.2571-49.3269 76.076-73.3096 112.1634-8.216 12.1916-13.585 20.4821-22.3968 22.6766-4.9665 1.463-9.0206 2.4383-8.3631 6.5834.2323 1.463 1.3075 5.1205 8.2393 5.1205 6.6843 0 14.4517-.9753 22.1263-.9753 8.6648 0 17.2365.9753 25.6538.9753 3.9611 0 9.8642-.2438 9.0517-5.3643-.6577-4.1451-4.5259-5.1205-9.0982-5.852-4.8195-.7315-10.9161-1.7068-11.8443-7.5589-.5416-3.4137 1.4464-8.0465 3.7598-12.1916 4.2474-7.5589 8.8734-15.8492 12.2699-20.9697.9671-1.7068 1.7098-1.7068 3.6902-1.7068zm-1.5164-12.6794h-41.0958c11.1171-17.3122 22.0639-34.1367 32.9334-51.4489l.534.2438z"/></g></g><path d="m323.20869 1629.4176-13.75026-14.4345h-16.99321v14.4345zm0-31.7937-13.75026 14.4342h-16.99321v-14.4342zm-43.68235-25.7847c-22.78991 0-41.27853 18.6366-41.27853 41.6086 0 22.9721 18.48862 41.5839 41.27853 41.5839 4.38266 0 8.61257-.7014 12.57474-1.9766v-20.755c-3.42158 2.0054-7.42576 3.1627-11.71682 3.1627-12.54061 0-22.69827-9.8556-22.69827-22.015 0-12.1592 10.15766-22.0148 22.69827-22.0148 4.29106 0 8.29524 1.1572 11.71682 3.1626v-20.7796c-3.96217-1.2767-8.19208-1.9768-12.57474-1.9768z" fill="#f4f4f4" stroke="none"/></g><g fill="#f4f4f4" fill-opacity=".5"><path d="m4689.8613 3105.1281q0 .32-.077.5387-.1146.3253-.368.3253-.168 0-.352-.077-.2213-.093-.2426-.2293.075 0 .176.027.2346.061.2933.061.2267 0 .3413-.2267.091-.1813.091-.4347 0-.1786-.1173-.5093-.1147-.3333-.1147-.464 0-.04.021-.064.024-.027.064-.027.104 0 .2027.48.083.4054.083.6z"/><path d="m4690.888 3105.4001q0 .272-.1574.4267-.1573.1547-.4346.1547-.152 0-.2347-.072-.083-.072-.083-.2214 0-.2106.2747-.424.2613-.2026.4827-.2026.1013 0 .1333.1253.019.072.019.2133zm-.1627.075q0-.032-.01-.061-.01-.032-.021-.072-.043.029-.1414.144-.051.059-.088.085 0-.051.011-.083.021-.045.035-.077-.1174 0-.2454.099-.1253.099-.1253.2133 0 .077.085.077.1627 0 .3147-.08.184-.096.184-.2453z"/><path d="m4691.9866 3105.5095q0 .1306-.099.2933-.112.184-.232.184-.035 0-.059-.037-.021-.04-.021-.077 0-.048.1013-.1493.104-.104.104-.1413 0-.024-.01-.048-.01-.024-.011-.032-.2.045-.408.2293-.2053.184-.312.208-.021-.059-.021-.12 0-.075.035-.1573.024-.059.08-.1414.093-.1413.1973-.32.053-.093.184-.3226.1333-.2294.1947-.3254.032-.048.056-.072.035-.032.083-.043.032.011.045.04.016.029.016.069 0 .091-.1174.2453-.2133.2774-.2186.288-.12.1814-.12.328l.01.027q.1467-.072.1733-.083.1094-.045.1867-.045.085 0 .1253.059.04.056.04.144z"/><path d="m4693.224 3105.3521q0 .1814-.088.3867-.096.2267-.2374.312-.029-.035-.051-.077-.019-.043-.019-.085 0-.045.1333-.2693.059-.099.053-.1733v-.035q-.099.029-.3413.1787-.24.1466-.4854.2986-.037 0-.069-.027-.029-.029-.029-.064 0-.056.1786-.376.053-.096.192-.3334.043.056.056.1254.013.067.013.16 0 .04 0 .061.2453-.1467.384-.2213.152-.083.208-.083.037 0 .069.085.035.085.035.136z"/><path d="m4695.5413 3105.8695q0 .048-.043.075-.04.024-.091.024-.045 0-.1147-.011-.1573-.024-.2027-.024-.08 0-.3146.019-.1334.011-.192.011-.1627 0-.1627-.1627 0-.1546.1013-.4426.056-.1627.2107-.5334.1387-.3333.176-.4693.013-.043.021-.056.021-.032.053-.032.051 0 .085.075.035.072.035.1306 0 .093-.1094.3147-.1093.2187-.2133.4293-.1147.2507-.1147.3814 0 .067.056.093.04.019.1174.019.059 0 .2026-.013.144-.016.192-.016.12 0 .1974.035.1093.048.1093.1547z"/><path d="m4696.5333 3105.4001q0 .272-.1573.4267-.1574.1547-.4347.1547-.152 0-.2347-.072-.083-.072-.083-.2214 0-.2106.2746-.424.2614-.2026.4827-.2026.1013 0 .1333.1253.019.072.019.2133zm-.1627.075q0-.032-.01-.061-.01-.032-.021-.072-.043.029-.1413.144-.051.059-.088.085 0-.051.011-.083.021-.045.035-.077-.1173 0-.2453.099-.1254.099-.1254.2133 0 .077.085.077.1626 0 .3146-.08.184-.096.184-.2453z"/><path d="m4697.656 3105.3441q0 .085-.045.1814-.043.096-.1093.16v-.037q0-.032.01-.099.01-.067.01-.099 0-.045-.013-.067-.013-.024-.056-.024-.1253 0-.312.1947-.2027.2133-.4027.424-.016 0-.032 0-.04-.011-.053-.013.01-.096.067-.2133.1573-.3174.1626-.3387.021-.085.032-.1253.011-.04.029-.083.021-.045.048-.08.029-.037.075-.056l.027.32q.1147-.093.176-.144.1173-.093.2027-.093.085 0 .1386.056.053.056.053.1386z"/><path d="m4698.9653 3105.0348q0 .112-.2987.296-.288.176-.4186.176-.061 0-.083-.043-.019-.043-.019-.12 0-.051 0-.072.1787 0 .3254-.053.1466-.053.256-.176-.08-.029-.1627-.029-.1947 0-.4133.1493-.24.1627-.24.3467 0 .176.24.2453.037.011.4506.075.2427.037.2427.1306 0 .04-.088.064-.088.027-.224.027-.3413 0-.5387-.104-.2613-.1387-.2613-.4453 0-.32.32-.5094.272-.16.6187-.16.104 0 .1893.048.104.059.104.1547z"/><path d="m4700.0266 3104.5575q0 .059-.1413.2453-.1413.1867-.1413.2853 0 .051.059.1014.1334.1173.1334.144 0 .035-.024.067-.021.032-.056.032-.029 0-.083-.032-.037-.021-.144-.104-.04.077-.061.1174-.075.1413-.1014.2053-.04.1227-.08.2453-.069.1654-.1733.1654v-.061q0-.1893.1227-.448.024-.048.1333-.248-.2106-.1146-.464-.1146 0-.099.04-.144.043-.048.1414-.048.091 0 .2266.032.067.016.1334.032.051-.016.1386-.1734.216-.3786.2934-.4346.021.035.035.069.016.035.016.067z"/><path d="m4701.0106 3105.5095q0 .1306-.099.2933-.112.184-.232.184-.035 0-.059-.037-.021-.04-.021-.077 0-.048.1013-.1493.104-.104.104-.1413 0-.024-.01-.048-.01-.024-.011-.032-.2.045-.408.2293-.2053.184-.312.208-.021-.059-.021-.12 0-.075.035-.1573.024-.059.08-.1414.093-.1413.1973-.32.053-.093.184-.3226.1333-.2294.1947-.3254.032-.048.056-.072.035-.032.083-.043.032.011.045.04.016.029.016.069 0 .091-.1174.2453-.2133.2774-.2186.288-.12.1814-.12.328l.01.027q.1467-.072.1733-.083.1094-.045.1867-.045.085 0 .1253.059.04.056.04.144z"/><path d="m4703.4773 3104.8721q0 .091-.2107.16-.2106.069-.4186.1334-.2454.099-.304.2453.1546.091.2613.1413.128.061.272.112.043.013.08.059.037.045.037.091 0 .053-.035.083-.032.027-.088.027-.099 0-.4774-.224-.3893-.232-.3893-.312 0-.099.3307-.2667.3306-.168.864-.352l.069.069z"/><path d="m4704.6906 3104.6481q0 .085-.053.1547-.051.069-.104.1413 0 .043.075.1734.075.1306.075.216 0 .32-.304.5306-.2693.1867-.608.1867.021-.016.021-.045-.056-.072-.064-.083-.027-.043-.027-.099.2693 0 .376-.032.1627-.048.3067-.224.045-.053.08-.1226.037-.072.037-.1307 0-.072-.061-.1013-.061-.029-.1654-.029-.059 0-.1573.011-.099.011-.12.011-.053 0-.091-.029-.035-.032-.035-.083 0-.067.3173-.2267.184-.093.2507-.168-.051-.024-.112-.035-.059-.013-.1254-.013-.072 0-.16.019-.2133.045-.2506.045l-.059-.021q-.016-.021-.027-.045-.011-.027-.011-.051 0-.088.1706-.1387.128-.037.2507-.037.312 0 .4427.053.1306.051.1306.1733z"/><path d="m4707.8747 3104.6828q-.035.032-.064.04-.029.01-.088.01-.1174 0-.2774-.027-.3706-.061-.4613-.061-.112 0-.1493.2987-.019.1413-.032.552-.011.408-.051.4907l-.056.029q-.1253-.032-.1253-.1627 0-.1333.08-.648.037-.24.037-.3946 0-.176-.2107-.224-.1973-.024-.392-.048-.2107-.043-.2107-.2027 0-.035.032-.059.032-.024.069-.024.067 0 .16.032.136.045.1546.051.08.019.5174.056.4373.037.672.088.3387.075.3947.208z"/><path d="m4708.2987 3105.3441q0 .085-.045.1814-.043.096-.1093.16v-.037q0-.032.01-.099.01-.067.01-.099 0-.045-.013-.067-.013-.024-.056-.024-.1253 0-.312.1947-.2027.2133-.4027.424-.016 0-.032 0-.04-.011-.053-.013.01-.096.067-.2133.1573-.3174.1626-.3387.021-.085.032-.1253.011-.04.029-.083.021-.045.048-.08.029-.037.075-.056l.027.32q.1147-.093.176-.144.1173-.093.2027-.093.085 0 .1386.056.053.056.053.1386z"/><path d="m4709.232 3104.8855q0 .035-.01.069-.01.035-.019.112l-.048-.045q-.013 0-.043.021-.029.019-.048.024-.01-.04-.011-.093-.01-.056-.01-.069 0-.1226.085-.2053h.048q.021.053.032.096.013.043.013.091zm-.2667.4q0 .168-.192.456-.192.288-.3546.3573-.016-.04-.024-.067-.01-.027-.01-.061 0-.088.093-.2187.072-.1013.1466-.2026.072-.1334.1334-.216.104-.1387.1893-.152.013.059.013.104z"/><path d="m4710.272 3105.0988q0 .053-.037.083-.035.027-.091.027-.059 0-.1547-.093-.096-.093-.1333-.093-.144 0-.3307.1866-.1866.1867-.1866.328 0 .1174.1066.1947.096.069.2214.069.048 0 .16-.013.1146-.016.1493-.016.072 0 .1333.032.061.029.061.093 0 .056-.04.077-.04.021-.1014.021-.048 0-.096 0-.048 0-.096 0-.408 0-.544-.1227-.1226-.112-.1226-.3467 0-.3013.184-.456.12-.1013.384-.176.264-.075.3253-.128.067.035.136.1467.072.1093.072.184z"/><path d="m4711.224 3104.8855q0 .035-.01.069-.01.035-.019.112l-.048-.045q-.013 0-.043.021-.029.019-.048.024-.01-.04-.011-.093-.01-.056-.01-.069 0-.1226.085-.2053h.048q.021.053.032.096.013.043.013.091zm-.2667.4q0 .168-.192.456-.192.288-.3546.3573-.016-.04-.024-.067-.01-.027-.01-.061 0-.088.093-.2187.072-.1013.1466-.2026.072-.1334.1334-.216.104-.1387.1893-.152.013.059.013.104z"/><path d="m4712.6107 3105.9175q-.075.032-.1387.048-.061.016-.1333.016-.1067 0-.176-.059-.067-.059-.1067-.168-.1307.1067-.2667.176-.1733.088-.3066.088-.168 0-.2534-.1467-.069-.12-.069-.3013 0-.2773.1653-.488.1787-.2293.4507-.2293.208 0 .288.1306.045.075.085.312l.1387-.208q.067.061.067.144 0 .067-.04.16-.088.2054-.088.2614 0 .083.048.144.051.059.1306.059.035 0 .099-.013.064-.016.085-.019 0 .016.01.051.011.032.013.043zm-.4827-.5894v-.032q-.048.021-.067.029-.019.01-.048.01-.045 0-.1014-.1493-.056-.1494-.2186-.1494-.1734 0-.3067.216-.1173.192-.1173.376 0 .1174.056.1814.059.064.176.064.2026 0 .4106-.168.2187-.1787.2187-.3734z"/><path d="m4715.5733 3104.4721q0 .064-.1253.3254-.077.1626-.088.192-.168.48-.2507.624-.2106.3706-.5093.3706-.1253 0-.176-.256-.027-.1573-.035-.2026-.096.1386-.1893.2773-.1547.2053-.2373.2053-.1174 0-.1494-.3413-.011-.112-.011-.2933 0-.061 0-.08 0-.051 0-.1787 0-.1307 0-.2027 0-.2346.013-.336.013-.1013.048-.2.1013.024.136.1254.024.069.024.2026 0 .043 0 .064 0 .088-.016.3014-.013.2133-.013.28 0 .088.01.1493.01.059.024.1413.091-.061.272-.4.077-.1413.1413-.1653.093.037.136.2907.056.3253.077.368.2214-.1227.376-.3867.083-.1413.2267-.5147.1307-.3413.232-.5013.035 0 .064.051.029.048.029.091z"/><path d="m4716.8667 3105.9175q-.075.032-.1387.048-.061.016-.1333.016-.1067 0-.176-.059-.067-.059-.1067-.168-.1307.1067-.2667.176-.1733.088-.3066.088-.168 0-.2534-.1467-.069-.12-.069-.3013 0-.2773.1653-.488.1787-.2293.4507-.2293.208 0 .288.1306.045.075.085.312l.1387-.208q.067.061.067.144 0 .067-.04.16-.088.2054-.088.2614 0 .083.048.144.051.059.1306.059.035 0 .099-.013.064-.016.085-.019 0 .016.01.051.011.032.013.043zm-.4827-.5894v-.032q-.048.021-.067.029-.019.01-.048.01-.045 0-.1014-.1493-.056-.1494-.2186-.1494-.1734 0-.3067.216-.1173.192-.1173.376 0 .1174.056.1814.059.064.176.064.2026 0 .4106-.168.2187-.1787.2187-.3734z"/><path d="m4717.784 3104.4215q0 .1786-.176.536-.1653.3226-.3307.6426-.1786.376-.1786.5894-.069-.019-.1094-.061-.037-.043-.037-.112 0-.051.013-.104.016-.056.04-.112.048-.1306.1307-.296.2187-.4373.2373-.4826.128-.3174.256-.6347.021-.043.048-.072.029-.032.067-.053.04.077.04.16z"/><path d="m4719.0533 3104.8481q0 .064-.168.2267-.1413.1387-.3413.296-.16.1253-.2667.2.12.1147.2427.2293.128.1414.128.2987-.085-.016-.1627-.112-.093-.1147-.1386-.1387-.152-.075-.192-.099-.1067-.061-.1787-.1307-.027.053-.037.1227-.01.069-.01.1493 0 .061 0 .093-.1867-.021-.1867-.2026 0-.091.099-.3814.1013-.2906.2213-.552.1307-.2826.192-.312.029.075.029.152 0 .1094-.1626.4747-.077.1733-.077.2907v.048q.208-.1467.344-.2507.2-.1547.3254-.2747.1573-.152.28-.3226.024.061.035.096.024.067.024.099zm-1.0133.6667q-.016.013-.056.051-.037.035-.037.043l.029-.013h.021q.027-.01.027-.013 0-.024-.011-.032.013-.027.027-.037z"/><path d="m4720.32 3105.0348q0 .112-.2987.296-.288.176-.4186.176-.061 0-.083-.043-.019-.043-.019-.12 0-.051 0-.072.1787 0 .3254-.053.1466-.053.256-.176-.08-.029-.1627-.029-.1947 0-.4133.1493-.24.1627-.24.3467 0 .176.24.2453.037.011.4506.075.2427.037.2427.1306 0 .04-.088.064-.088.027-.224.027-.3413 0-.5387-.104-.2613-.1387-.2613-.4453 0-.32.32-.5094.272-.16.6187-.16.104 0 .1893.048.104.059.104.1547z"/><path d="m4721.44 3105.3441q0 .085-.045.1814-.043.096-.1094.16v-.037q0-.032.01-.099.01-.067.01-.099 0-.045-.013-.067-.013-.024-.056-.024-.1253 0-.312.1947-.2026.2133-.4026.424-.016 0-.032 0-.04-.011-.053-.013.01-.096.067-.2133.1573-.3174.1627-.3387.021-.085.032-.1253.011-.04.029-.083.021-.045.048-.08.029-.037.075-.056l.027.32q.1147-.093.176-.144.1174-.093.2027-.093.085 0 .1387.056.053.056.053.1386z"/><path d="m4723.6053 3104.6401q0 .1254-.1333.336-.085.1334-.28.384-.1947.248-.2427.3254.01 0 .2.064.1947.059.1947.2133-.08.013-.1573.024h-.029v-.021q-.043-.011-.069-.011-.051 0-.16.016-.1093.016-.1653.016-.072 0-.1174-.027-.045-.027-.045-.096 0-.056.2053-.3174.384-.488.3867-.4933.208-.2827.208-.3787 0-.037-.027-.056-.024-.019-.099-.019-.051 0-.2107.099-.077.048-.1253.048l-.045-.01q-.016-.011-.035-.04-.019-.032-.019-.051 0-.112.216-.2054.184-.08.32-.08.1147 0 .176.085.053.075.053.1946z"/><path d="m4725.208 3105.1201q0 .3227-.3493.5707-.32.2267-.6587.2267-.168 0-.2667-.085-.099-.085-.099-.248 0-.3626.3173-.6293.3013-.2533.6747-.2533.1893 0 .2853.112.096.112.096.3066zm-.1627.061q0-.1227-.1386-.184-.104-.045-.248-.045-.2107 0-.44.2054-.2294.2053-.2294.4133 0 .085.043.1227.045.035.136.035.2613 0 .544-.144.3333-.1706.3333-.4026z"/><path d="m4726.4293 3104.6401q0 .1254-.1333.336-.085.1334-.28.384-.1947.248-.2427.3254.01 0 .2.064.1947.059.1947.2133-.08.013-.1573.024h-.029v-.021q-.043-.011-.069-.011-.051 0-.16.016-.1093.016-.1653.016-.072 0-.1174-.027-.045-.027-.045-.096 0-.056.2053-.3174.384-.488.3867-.4933.208-.2827.208-.3787 0-.037-.027-.056-.024-.019-.099-.019-.051 0-.2107.099-.077.048-.1253.048l-.045-.01q-.016-.011-.035-.04-.019-.032-.019-.051 0-.112.216-.2054.184-.08.32-.08.1147 0 .176.085.053.075.053.1946z"/><path d="m4727.656 3104.6401q0 .1254-.1333.336-.085.1334-.28.384-.1947.248-.2427.3254.01 0 .2.064.1947.059.1947.2133-.08.013-.1574.024h-.029v-.021q-.043-.011-.069-.011-.051 0-.16.016-.1094.016-.1654.016-.072 0-.1173-.027-.045-.027-.045-.096 0-.056.2053-.3174.384-.488.3867-.4933.208-.2827.208-.3787 0-.037-.027-.056-.024-.019-.099-.019-.051 0-.2106.099-.077.048-.1254.048l-.045-.01q-.016-.011-.035-.04-.019-.032-.019-.051 0-.112.216-.2054.184-.08.32-.08.1146 0 .176.085.053.075.053.1946z"/></g><g fill="none" stroke="#f4f4f4" stroke-width="12.0222" transform="matrix(1.3338628 0 0 1.2962058 -2.412238 -145.12405)"><g transform="matrix(.89825151 0 0 .89830172 292.30212 392.31759)"><rect height="147.20753" rx="1.051995" ry="1.082496" width="187.32634" x="2034.7043" y="2210.7769"/><rect height="147.20753" rx="1.051995" ry="1.082496" width="1532.3552" x="471.65701" y="2210.7769"/><rect height="147.20753" rx="1.051995" ry="1.082496" width="187.03008" x="253.45474" y="2210.7769"/><rect height="147.20753" rx="1.051995" ry="1.082496" width="187.03008" x="35.253136" y="2210.7769"/><rect height="147.20753" rx="1.051995" ry="1.082496" width="187.03008" x="2252.9075" y="2210.7769"/></g><g transform="matrix(.89825151 0 0 .89830172 214.30212 232.31759)"><rect height="147.20753" rx="1.051995" ry="1.082496" width="142.98062" x="1861.0325" y="2210.7769"/><rect height="147.20753" rx="1.051995" ry="1.082496" width="142.98062" x="1687.3606" y="2210.7769"/><rect height="147.20753" rx="1.051995" ry="1.082496" width="142.98062" x="1513.6887" y="2210.7769"/><rect height="147.20753" rx="1.051995" ry="1.082496" width="142.98062" x="2034.7043" y="2210.7769"/><rect height="147.20753" rx="1.051995" ry="1.082496" width="142.98062" x="1861.0325" y="2210.7769"/><rect height="147.20753" rx="1.051995" ry="1.082496" width="142.98062" x="1687.3606" y="2210.7769"/><rect height="147.20753" rx="1.051995" ry="1.082496" width="142.98062" x="1513.6887" y="2210.7769"/><rect height="147.20753" rx="1.051995" ry="1.082496" width="142.98062" x="1340.0168" y="2210.7769"/><rect height="147.20753" rx="1.051995" ry="1.082496" width="142.98062" x="1166.345" y="2210.7769"/><rect height="147.20753" rx="1.051995" ry="1.082496" width="142.98062" x="992.67346" y="2210.7769"/><rect height="147.20753" rx="1.051995" ry="1.082496" width="142.98062" x="819.00159" y="2210.7769"/><rect height="147.20753" rx="1.051995" ry="1.082496" width="142.98062" x="645.32971" y="2210.7769"/><rect height="147.20753" rx="1.051995" ry="1.082496" width="142.98062" x="471.65784" y="2210.7769"/><rect height="147.20753" rx="1.051995" ry="1.082496" width="142.98062" x="297.98596" y="2210.7769"/><rect height="147.20753" rx="1.051995" ry="1.082496" width="316.65131" x="-49.355675" y="2210.7769"/><rect height="147.20753" rx="1.051995" ry="1.082496" width="450.24634" x="2208.3762" y="2210.7769"/></g><g transform="matrix(.89825151 0 0 .89830172 136.30212 72.31759)"><path d="m2523.2378 2179.8781c-5.4417 0-9.8225-4.3806-9.8225-9.822v-127.5636c0-5.4414 4.3808-9.822 9.8225-9.822h212.3978c5.4416 0 9.8225 4.3806 9.8225 9.822v127.5636 50.5427 127.5636c0 5.4414-4.3809 9.822-9.8225 9.822h-170.0931c-5.4417 0-9.8225-4.3806-9.8225-9.822v-127.5636"/><rect height="147.20753" rx="1.051995" ry="1.082496" width="142.98062" x="2034.7043" y="2210.7769"/><rect height="147.20753" rx="1.051995" ry="1.082496" width="142.98062" x="1861.0325" y="2210.7769"/><rect height="147.20753" rx="1.051995" ry="1.082496" width="142.98062" x="1687.3606" y="2210.7769"/><rect height="147.20753" rx="1.051995" ry="1.082496" width="142.98062" x="1513.6887" y="2210.7769"/><rect height="147.20753" rx="1.051995" ry="1.082496" width="142.98062" x="1340.0168" y="2210.7769"/><rect height="147.20753" rx="1.051995" ry="1.082496" width="142.98062" x="1166.345" y="2210.7769"/><rect height="147.20753" rx="1.051995" ry="1.082496" width="142.98062" x="992.67346" y="2210.7769"/><rect height="147.20753" rx="1.051995" ry="1.082496" width="142.98062" x="819.00159" y="2210.7769"/><rect height="147.20753" rx="1.051995" ry="1.082496" width="142.98062" x="645.32971" y="2210.7769"/><rect height="147.20753" rx="1.051995" ry="1.082496" width="142.98062" x="471.65784" y="2210.7769"/><rect height="147.20753" rx="1.051995" ry="1.082496" width="142.98062" x="297.98596" y="2210.7769"/><rect height="147.20753" rx="1.051995" ry="1.082496" width="142.98062" x="2382.0481" y="2210.7769"/><rect height="147.20753" rx="1.051995" ry="1.082496" width="142.98062" x="2208.3762" y="2210.7769"/><rect height="147.20753" rx="1.051995" ry="1.082496" width="229.81593" x="37.479683" y="2210.7769"/><path d="m2523.2377 2179.878c16.3383.2305 32.911-1.7821 32.4822 40.7208"/></g><g transform="matrix(.89825151 0 0 .89830172 98.30212 -87.68241)"><rect height="147.20753" rx="1.051995" ry="1.082496" width="142.98062" x="2034.7043" y="2210.7769"/><rect height="147.20753" rx="1.051995" ry="1.082496" width="142.98062" x="1861.0325" y="2210.7769"/><rect height="147.20753" rx="1.051995" ry="1.082496" width="142.98062" x="1687.3606" y="2210.7769"/><rect height="147.20753" rx="1.051995" ry="1.082496" width="142.98062" x="1513.6887" y="2210.7769"/><rect height="147.20753" rx="1.051995" ry="1.082496" width="142.98062" x="1340.0168" y="2210.7769"/><rect height="147.20753" rx="1.051995" ry="1.082496" width="142.98062" x="1166.345" y="2210.7769"/><rect height="147.20753" rx="1.051995" ry="1.082496" width="142.98062" x="992.67346" y="2210.7769"/><rect height="147.20753" rx="1.051995" ry="1.082496" width="142.98062" x="819.00159" y="2210.7769"/><rect height="147.20753" rx="1.051995" ry="1.082496" width="142.98062" x="645.32971" y="2210.7769"/><rect height="147.20753" rx="1.051995" ry="1.082496" width="142.98062" x="471.65784" y="2210.7769"/><rect height="147.20753" rx="1.051995" ry="1.082496" width="361.18246" x="79.784088" y="2210.7769"/><rect height="147.20753" rx="1.051995" ry="1.082496" width="142.98062" x="2382.0481" y="2210.7769"/><rect height="147.20753" rx="1.051995" ry="1.082496" width="142.98062" x="2208.3762" y="2210.7769"/></g><g transform="matrix(.89825151 0 0 .89830172 176.30212 -247.68241)"><rect height="147.20753" rx="1.051995" ry="1.082496" width="142.98062" x="2034.7043" y="2210.7769"/><rect height="147.20753" rx="1.051995" ry="1.082496" width="142.98062" x="1861.0325" y="2210.7769"/><rect height="147.20753" rx="1.051995" ry="1.082496" width="142.98062" x="1687.3606" y="2210.7769"/><rect height="147.20753" rx="1.051995" ry="1.082496" width="142.98062" x="1513.6887" y="2210.7769"/><rect height="147.20753" rx="1.051995" ry="1.082496" width="142.98062" x="1340.0168" y="2210.7769"/><rect height="147.20753" rx="1.051995" ry="1.082496" width="142.98062" x="1166.345" y="2210.7769"/><rect height="147.20753" rx="1.051995" ry="1.082496" width="142.98062" x="992.67346" y="2210.7769"/><rect height="147.20753" rx="1.051995" ry="1.082496" width="142.98062" x="819.00159" y="2210.7769"/><rect height="147.20753" rx="1.051995" ry="1.082496" width="142.98062" x="645.32971" y="2210.7769"/><rect height="147.20753" rx="1.051995" ry="1.082496" width="142.98062" x="471.65784" y="2210.7769"/><rect height="147.20753" rx="1.051995" ry="1.082496" width="142.98062" x="2382.0481" y="2210.7769"/><rect height="147.20753" rx="1.051995" ry="1.082496" width="142.98062" x="2208.3762" y="2210.7769"/><rect height="147.20753" rx="1.051995" ry="1.082496" width="142.98062" x="2557.9465" y="2210.7769"/><rect height="147.20753" rx="1.051995" ry="1.082496" width="142.98062" x="297.98596" y="2210.7769"/><rect height="147.20753" rx="1.051995" ry="1.082496" width="274.34689" x="-7.05127" y="2210.7769"/></g><g transform="matrix(.89825151 0 0 .89830172 176.30212 -473.68241)"><rect height="147.20753" rx="1.051995" ry="1.082496" width="187.03008" x="2337.5168" y="2210.7769"/><rect height="147.20753" rx="1.051995" ry="1.082496" width="187.03008" x="2119.3137" y="2210.7769"/><rect height="147.20753" rx="1.051995" ry="1.082496" width="187.03008" x="1901.1106" y="2210.7769"/><rect height="147.20753" rx="1.051995" ry="1.082496" width="187.03008" x="1682.9075" y="2210.7769"/><rect height="147.20753" rx="1.051995" ry="1.082496" width="187.03008" x="1464.7043" y="2210.7769"/><rect height="147.20753" rx="1.051995" ry="1.082496" width="187.03008" x="1157.4387" y="2210.7769"/><rect height="147.20753" rx="1.051995" ry="1.082496" width="187.03008" x="939.23596" y="2210.7769"/><rect height="147.20753" rx="1.051995" ry="1.082496" width="187.03008" x="721.03284" y="2210.7769"/><rect height="147.20753" rx="1.051995" ry="1.082496" width="187.03008" x="502.82971" y="2210.7769"/><rect height="147.20753" rx="1.051995" ry="1.082496" width="187.03008" x="284.62659" y="2210.7769"/><rect height="147.20772" rx="1.051995" ry="1.082496" width="147.21606" x="-7.051266" y="2210.7769"/></g><g transform="matrix(.89825151 0 0 .89830172 2440.3021 232.31759)"><rect height="147.20753" rx="1.051995" ry="1.082496" width="142.98062" x="645.32971" y="2210.7769"/><rect height="147.20753" rx="1.051995" ry="1.082496" width="142.98062" x="471.65784" y="2210.7769"/><rect height="147.20753" rx="1.051995" ry="1.082496" width="142.98062" x="297.98596" y="2210.7769"/><rect height="147.20753" rx="1.051995" ry="1.082496" width="142.98062" x="471.65784" y="2032.6705"/></g><g transform="matrix(.89825151 0 0 .89830172 2996.3021 232.31759)"><rect height="147.20753" rx="1.051995" ry="1.082496" width="142.98062" x="645.32971" y="2210.7769"/><rect height="147.20753" rx="1.051995" ry="1.082496" width="142.98062" x="471.65784" y="2210.7769"/><rect height="147.20753" rx="1.051995" ry="1.082496" width="142.98062" x="297.98596" y="2210.7769"/><rect height="147.20753" rx="1.051995" ry="1.082496" width="142.98062" x="471.65784" y="2032.6705"/><rect height="147.20753" rx="1.051995" ry="1.082496" width="142.98062" x="295.7594" y="2032.6705"/><rect height="147.20753" rx="1.051995" ry="1.082496" width="142.98062" x="645.32971" y="2032.6705"/><rect height="147.20753" rx="1.051995" ry="1.082496" width="142.98062" x="471.65784" y="1854.5553"/><rect height="147.20753" rx="1.051995" ry="1.082496" width="142.98062" x="295.7594" y="1854.5553"/><rect height="147.20753" rx="1.051995" ry="1.082496" width="142.98062" x="645.32971" y="1854.5553"/><rect height="147.20753" rx="1.051995" ry="1.082496" width="142.98062" x="645.32971" y="2388.8823"/><rect height="147.20753" rx="1.051995" ry="1.082496" width="316.65247" x="297.98596" y="2388.8823"/><rect height="325.31302" rx="1.051995" ry="1.082496" width="142.98062" x="819.00159" y="2210.7769"/><rect height="147.20753" rx="1.051995" ry="1.082496" width="142.98062" x="819.00159" y="2032.6705"/><rect height="147.20753" rx="1.051995" ry="1.082496" width="142.98062" x="819.00159" y="1854.5553"/><rect height="147.20753" rx="1.051995" ry="1.082496" width="142.98062" x="471.65784" y="1676.4401"/><rect height="147.20753" rx="1.051995" ry="1.082496" width="142.98062" x="295.7594" y="1676.4401"/><rect height="147.20753" rx="1.051995" ry="1.082496" width="142.98062" x="645.32971" y="1676.4401"/><rect height="147.20753" rx="1.051995" ry="1.082496" width="142.98062" x="819.00159" y="1676.4401"/></g><g transform="matrix(.89825151 0 0 .89830172 2440.3021 -247.68242)"><rect height="147.20753" rx="1.051995" ry="1.082496" width="253.82652" x="569.62659" y="2210.7769"/><rect height="147.20753" rx="1.051995" ry="1.082496" width="239.41331" x="297.98596" y="2210.7769"/></g></g></g></svg>