<?xml version="1.0" encoding="UTF-8" standalone="no"?>
<svg
   xmlns:dc="http://purl.org/dc/elements/1.1/"
   xmlns:cc="http://creativecommons.org/ns#"
   xmlns:rdf="http://www.w3.org/1999/02/22-rdf-syntax-ns#"
   xmlns:svg="http://www.w3.org/2000/svg"
   xmlns="http://www.w3.org/2000/svg"
   id="svg222"
   preserveAspectRatio="xMidYMid meet"
   viewBox="0 0 480 270"
   height="360"
   width="640"
   version="1.0">
  <metadata
     id="metadata115">
    <rdf:RDF>
      <cc:Work
         rdf:about="">
        <dc:format>image/svg+xml</dc:format>
        <dc:type
           rdf:resource="http://purl.org/dc/dcmitype/StillImage" />
        <dc:title></dc:title>
      </cc:Work>
    </rdf:RDF>
  </metadata>
  <defs
     id="defs226" />
  <g
     style="fill:#ffffff;stroke:none"
     id="g220"
     transform="matrix(0.02289655,0,0,-0.02215964,14.144156,254.3836)">
    <path
       style="fill:#ffffff"
       id="path2"
       d="m 775,9768 c -3,-7 -4,-989 -3,-2183 l 3,-2170 53,-3 52,-3 V 4079 c 0,-879 3,-1329 10,-1329 7,0 10,-315 10,-924 V 902 l 31,-26 c 17,-14 38,-26 47,-27 172,-5 17509,-2 17505,4 -2,4 5,7 16,7 11,0 33,12 50,26 l 31,26 v 923 c 0,611 3,924 10,927 7,2 10,818 10,2452 1,2210 -1,2450 -15,2466 -14,16 -14,18 5,23 20,5 20,11 20,456 v 450 l 48,3 47,3 3,569 c 1,412 -1,573 -9,582 -16,20 -17917,21 -17924,2 z m 17875,-572 v -525 l -47,-3 -48,-3 -3,-471 -2,-472 H 9767 c -4830,-1 -8792,-1 -8804,-1 -13,-1 -36,-13 -53,-28 l -30,-28 -1,-1097 -2,-1098 h -23 -24 v 2125 2125 h 8910 8910 z m -112,-1544 c 16,-20 18,-4702 2,-4702 -7,0 -10,-345 -10,-1014 V 922 l -42,-7 C 18436,906 1125,896 1022,905 l -72,7 v 1014 c 0,669 -3,1014 -10,1014 -7,0 -10,788 -10,2343 0,2008 2,2346 14,2363 14,19 118,19 8783,24 4822,3 8775,3 8783,1 8,-2 21,-11 28,-19 z" />
    <path
       style="fill:#ffffff"
       id="path4"
       d="m 1242,9388 c -18,-18 -14,-63 6,-81 17,-16 625,-17 8549,-17 h 8530 l 21,23 c 27,28 28,49 4,70 -17,16 -626,17 -8558,17 -6629,0 -8543,-3 -8552,-12 z" />
    <path
       style="fill:#ffffff"
       id="path6"
       d="m 1242,9168 c -18,-18 -14,-63 6,-81 17,-16 625,-17 8549,-17 h 8530 l 21,23 c 27,28 28,49 4,70 -17,16 -626,17 -8558,17 -6629,0 -8543,-3 -8552,-12 z" />
    <path
       style="fill:#ffffff"
       id="path8"
       d="m 1242,8948 c -18,-18 -14,-63 6,-81 17,-16 625,-17 8549,-17 h 8530 l 21,23 c 27,28 28,49 4,70 -17,16 -626,17 -8558,17 -6629,0 -8543,-3 -8552,-12 z" />
    <path
       style="fill:#ffffff"
       id="path10"
       d="m 1242,8728 c -18,-18 -14,-63 6,-81 17,-16 625,-17 8549,-17 h 8530 l 21,23 c 27,28 28,49 4,70 -17,16 -626,17 -8558,17 -6629,0 -8543,-3 -8552,-12 z" />
    <path
       style="fill:#ffffff"
       id="path12"
       d="m 1242,8508 c -18,-18 -14,-63 6,-81 17,-16 625,-17 8549,-17 h 8530 l 21,23 c 27,28 28,49 4,70 -17,16 -626,17 -8558,17 -6629,0 -8543,-3 -8552,-12 z" />
    <path
       style="fill:#ffffff"
       id="path14"
       d="m 1242,8288 c -18,-18 -14,-63 6,-81 17,-16 625,-17 8549,-17 h 8530 l 21,23 c 27,28 28,49 4,70 -17,16 -626,17 -8558,17 -6629,0 -8543,-3 -8552,-12 z" />
    <path
       style="fill:#ffffff"
       id="path16"
       d="m 1242,8068 c -18,-18 -14,-63 6,-81 17,-16 625,-17 8549,-17 h 8530 l 21,23 c 27,28 28,49 4,70 -17,16 -626,17 -8558,17 -6629,0 -8543,-3 -8552,-12 z" />
    <path
       style="fill:#ffffff"
       id="path18"
       d="m 1401,6499 c -50,-20 -50,-25 -50,-329 0,-209 3,-289 12,-301 28,-36 51,-39 322,-39 298,0 317,4 329,61 8,41 8,517 0,559 -12,55 -38,60 -331,59 -142,0 -269,-5 -282,-10 z m 567,-323 c 1,-154 -2,-284 -6,-288 -14,-14 -541,-11 -558,3 -11,9 -14,61 -14,271 0,161 4,267 10,279 10,19 22,19 288,17 l 277,-3 z" />
    <path
       style="fill:#ffffff"
       id="path20"
       d="m 2437,6492 c -15,-16 -17,-54 -17,-324 0,-272 2,-307 17,-319 13,-11 91,-14 414,-14 369,0 400,1 416,18 16,16 18,45 21,313 2,255 1,299 -13,320 l -15,24 h -404 c -378,0 -404,-1 -419,-18 z m 798,-322 v -285 l -379,-3 c -297,-2 -381,1 -388,10 -13,22 -10,542 4,556 9,9 104,12 388,10 l 375,-3 z" />
    <path
       style="fill:#ffffff"
       id="path22"
       d="m 3336,6494 c -14,-13 -16,-57 -16,-323 0,-275 2,-310 17,-322 13,-11 89,-14 387,-16 204,-1 388,1 408,3 30,5 39,11 47,36 7,19 11,138 11,312 0,239 -2,285 -16,304 l -15,22 h -404 c -354,0 -406,-2 -419,-16 z m 799,-324 v -285 l -379,-3 c -297,-2 -381,1 -388,10 -13,22 -10,542 4,556 9,9 104,12 388,10 l 375,-3 z" />
    <path
       style="fill:#ffffff"
       id="path24"
       d="m 4267,6492 c -15,-16 -17,-54 -17,-324 0,-272 2,-307 17,-319 13,-11 92,-14 418,-14 382,0 404,1 424,19 20,19 21,27 21,318 0,285 -1,299 -20,318 -19,19 -33,20 -423,20 -379,0 -405,-1 -420,-18 z m 798,-322 v -285 l -379,-3 c -297,-2 -381,1 -388,10 -13,22 -10,542 4,556 9,9 104,12 388,10 l 375,-3 z" />
    <path
       style="fill:#ffffff"
       id="path26"
       d="m 5176,6494 c -14,-13 -16,-57 -16,-323 0,-275 2,-310 17,-322 13,-11 89,-14 387,-16 204,-1 388,1 408,3 30,5 39,11 47,36 7,19 11,138 11,312 0,239 -2,285 -16,304 l -15,22 h -404 c -354,0 -406,-2 -419,-16 z m 799,-324 v -285 l -379,-3 c -297,-2 -381,1 -388,10 -13,22 -10,542 4,556 9,9 104,12 388,10 l 375,-3 z" />
    <path
       style="fill:#ffffff"
       id="path28"
       d="m 6086,6494 c -14,-13 -16,-57 -16,-323 0,-275 2,-310 17,-322 13,-11 89,-14 387,-16 204,-1 388,1 408,3 30,5 39,11 47,36 7,19 11,138 11,312 0,239 -2,285 -16,304 l -15,22 h -404 c -354,0 -406,-2 -419,-16 z m 799,-324 v -285 l -379,-3 c -297,-2 -381,1 -388,10 -13,22 -10,542 4,556 9,9 104,12 388,10 l 375,-3 z" />
    <path
       style="fill:#ffffff"
       id="path30"
       d="m 7316,6484 c -14,-13 -16,-57 -16,-323 0,-275 2,-310 17,-322 13,-11 89,-14 387,-16 204,-1 388,1 408,3 30,5 39,11 47,36 7,19 11,138 11,312 0,239 -2,285 -16,304 l -15,22 h -404 c -354,0 -406,-2 -419,-16 z m 799,-324 v -285 l -379,-3 c -297,-2 -381,1 -388,10 -13,22 -10,542 4,556 9,9 104,12 388,10 l 375,-3 z" />
    <path
       style="fill:#ffffff"
       id="path32"
       d="m 8218,6489 c -17,-9 -18,-35 -18,-323 0,-280 2,-315 17,-327 13,-11 92,-14 419,-14 392,0 404,1 418,20 23,31 23,600 1,633 l -16,22 h -402 c -254,0 -408,-4 -419,-11 z m 797,-329 v -285 l -379,-3 c -297,-2 -381,1 -388,10 -13,22 -10,542 4,556 9,9 104,12 388,10 l 375,-3 z" />
    <path
       style="fill:#ffffff"
       id="path34"
       d="m 9147,6482 c -15,-16 -17,-54 -17,-324 0,-272 2,-307 17,-319 13,-11 92,-14 418,-14 382,0 404,1 424,19 20,19 21,27 21,318 0,285 -1,299 -20,318 -19,19 -33,20 -423,20 -379,0 -405,-1 -420,-18 z m 798,-322 v -285 l -379,-3 c -297,-2 -381,1 -388,10 -13,22 -10,542 4,556 9,9 104,12 388,10 l 375,-3 z" />
    <path
       style="fill:#ffffff"
       id="path36"
       d="m 10058,6489 c -17,-9 -18,-35 -18,-323 0,-280 2,-315 17,-327 13,-11 92,-14 419,-14 392,0 404,1 418,20 23,31 23,600 1,633 l -16,22 h -402 c -254,0 -408,-4 -419,-11 z m 797,-329 v -285 l -379,-3 c -297,-2 -381,1 -388,10 -13,22 -10,542 4,556 9,9 104,12 388,10 l 375,-3 z" />
    <path
       style="fill:#ffffff"
       id="path38"
       d="m 10968,6489 c -17,-9 -18,-35 -18,-323 0,-280 2,-315 17,-327 13,-11 92,-14 419,-14 392,0 404,1 418,20 23,31 23,600 1,633 l -16,22 h -402 c -254,0 -408,-4 -419,-11 z m 797,-329 v -285 l -379,-3 c -297,-2 -381,1 -388,10 -13,22 -10,542 4,556 9,9 104,12 388,10 l 375,-3 z" />
    <path
       style="fill:#ffffff"
       id="path40"
       d="m 17194,6477 c -3,-8 -4,-45 -2,-83 l 3,-69 h 310 310 v 80 80 l -308,3 c -252,2 -308,0 -313,-11 z m 566,-72 v -25 h -255 -255 v 25 25 h 255 255 z" />
    <path
       style="fill:#ffffff"
       id="path42"
       d="m 17194,6167 c -3,-8 -4,-45 -2,-83 l 3,-69 h 310 310 v 80 80 l -308,3 c -252,2 -308,0 -313,-11 z m 566,-72 v -25 h -255 -255 v 25 25 h 255 255 z" />
    <path
       style="fill:#ffffff"
       id="path44"
       d="m 17194,5867 c -3,-8 -4,-45 -2,-83 l 3,-69 h 310 310 v 80 80 l -308,3 c -252,2 -308,0 -313,-11 z m 566,-72 v -25 h -255 -255 v 25 25 h 255 255 z" />
    <path
       style="fill:#ffffff"
       id="path46"
       d="m 12911,5411 c -20,-13 -21,-21 -21,-326 0,-279 2,-314 17,-326 13,-12 105,-14 505,-14 477,0 490,1 501,20 21,37 21,49 22,332 0,269 -1,283 -20,302 -19,19 -38,20 -502,23 -395,2 -485,1 -502,-11 z m 967,-325 c 1,-177 -1,-283 -8,-290 -6,-6 -173,-9 -466,-8 -364,1 -459,4 -465,14 -14,22 -11,542 3,556 9,9 123,12 473,10 l 460,-3 z" />
    <path
       style="fill:#ffffff"
       id="path48"
       d="m 14001,5411 c -20,-13 -21,-21 -21,-326 0,-279 2,-314 17,-326 13,-12 105,-14 504,-14 h 487 l 21,25 c 19,24 20,37 21,316 0,289 0,291 -22,312 -23,20 -31,21 -505,24 -395,2 -485,1 -502,-11 z m 967,-325 c 1,-177 -1,-283 -8,-290 -6,-6 -173,-9 -466,-8 -364,1 -459,4 -465,14 -14,22 -11,542 3,556 9,9 123,12 473,10 l 460,-3 z" />
    <path
       style="fill:#ffffff"
       id="path50"
       d="m 1347,5402 c -15,-16 -17,-54 -17,-324 0,-272 2,-307 17,-319 25,-21 971,-14 993,7 13,12 15,61 15,315 v 301 l -24,19 c -22,18 -45,19 -496,19 -444,0 -473,-1 -488,-18 z m 978,-322 v -285 l -469,-3 c -369,-2 -471,0 -478,10 -13,22 -10,542 4,556 9,9 124,12 478,10 l 465,-3 z" />
    <path
       style="fill:#ffffff"
       id="path52"
       d="m 2456,5410 c -66,-13 -66,-11 -66,-332 0,-271 1,-289 19,-307 29,-29 79,-33 354,-29 l 249,3 24,28 24,28 v 279 279 l -24,28 -24,28 -259,2 c -142,0 -276,-2 -297,-7 z m 549,-330 v -285 l -279,-3 c -217,-2 -281,1 -288,10 -13,22 -10,542 4,556 9,9 82,12 288,10 l 275,-3 z" />
    <path
       style="fill:#ffffff"
       id="path54"
       d="m 3165,5411 c -49,-21 -50,-25 -50,-332 0,-287 0,-289 23,-311 22,-23 27,-23 295,-26 172,-2 283,1 301,7 52,21 58,54 54,352 -3,264 -3,269 -26,291 -22,23 -26,23 -300,25 -152,1 -286,-2 -297,-6 z m 563,-53 c 17,-17 17,-539 0,-556 -9,-9 -84,-12 -274,-12 -144,0 -269,3 -278,6 -14,5 -16,40 -16,283 0,153 3,281 7,284 3,4 128,7 278,7 197,0 274,-3 283,-12 z" />
    <path
       style="fill:#ffffff"
       id="path56"
       d="m 3894,5410 c -52,-21 -54,-34 -54,-332 v -277 l 24,-28 24,-28 269,-3 c 147,-2 278,0 291,3 12,3 31,14 42,25 19,19 20,35 20,306 0,167 -4,293 -10,304 -5,10 -24,23 -41,29 -38,13 -533,14 -565,1 z m 564,-52 c 19,-19 17,-541 -2,-557 -9,-8 -94,-11 -287,-9 l -274,3 -3,275 c -1,151 0,280 3,287 6,18 545,19 563,1 z" />
    <path
       style="fill:#ffffff"
       id="path58"
       d="m 4614,5406 c -17,-8 -34,-21 -38,-31 -3,-9 -6,-143 -6,-298 1,-206 4,-286 13,-298 28,-36 51,-39 322,-39 278,0 313,5 329,45 10,28 7,575 -4,595 -18,34 -65,40 -329,40 -192,-1 -264,-4 -287,-14 z m 576,-55 c 6,-12 10,-117 10,-271 0,-154 -4,-259 -10,-271 -10,-18 -24,-19 -285,-19 -261,0 -275,1 -285,19 -6,12 -10,117 -10,271 0,154 4,259 10,271 10,18 24,19 285,19 261,0 275,-1 285,-19 z" />
    <path
       style="fill:#ffffff"
       id="path60"
       d="m 5344,5406 c -17,-8 -34,-21 -38,-31 -8,-21 -8,-568 0,-590 16,-40 51,-45 334,-45 h 272 l 29,29 29,29 v 281 280 l -24,28 -24,28 -274,2 c -214,2 -280,0 -304,-11 z m 571,-326 v -285 l -275,-3 c -250,-2 -276,-1 -287,15 -17,22 -18,514 -3,544 10,19 22,19 288,17 l 277,-3 z" />
    <path
       style="fill:#ffffff"
       id="path62"
       d="m 6073,5410 c -12,-5 -26,-18 -32,-29 -7,-13 -11,-122 -11,-305 0,-271 1,-287 20,-306 11,-11 30,-22 42,-25 13,-3 143,-5 290,-3 263,3 268,3 290,26 23,22 23,24 23,312 0,288 0,290 -23,312 -22,23 -26,23 -300,25 -152,1 -287,-2 -299,-7 z m 572,-330 v -285 l -274,-3 c -193,-2 -278,1 -287,9 -19,16 -21,538 -2,557 9,9 82,12 288,10 l 275,-3 z" />
    <path
       style="fill:#ffffff"
       id="path64"
       d="m 6800,5407 c -48,-24 -50,-41 -48,-339 3,-274 3,-278 26,-300 22,-23 24,-23 311,-23 270,0 290,1 310,19 20,19 21,27 21,316 0,289 -1,297 -21,316 -19,18 -42,19 -298,22 -209,2 -282,-1 -301,-11 z m 568,-49 c 17,-17 17,-539 0,-556 -9,-9 -84,-12 -274,-12 -144,0 -269,3 -278,6 -14,5 -16,40 -16,283 0,153 3,281 7,284 3,4 128,7 278,7 197,0 274,-3 283,-12 z" />
    <path
       style="fill:#ffffff"
       id="path66"
       d="m 7534,5410 c -52,-21 -54,-33 -54,-333 v -279 l 29,-29 29,-29 h 272 c 283,0 318,5 334,45 10,28 7,575 -4,595 -5,10 -24,23 -41,29 -38,13 -533,14 -565,1 z m 564,-52 c 9,-9 12,-86 12,-285 v -273 l -22,-5 c -13,-3 -142,-4 -288,-3 l -265,3 -3,275 c -1,151 0,280 3,287 6,18 545,19 563,1 z" />
    <path
       style="fill:#ffffff"
       id="path68"
       d="m 8259,5409 c -14,-5 -31,-21 -38,-35 -12,-27 -16,-539 -5,-582 13,-47 42,-52 329,-52 271,0 294,3 322,39 9,12 12,92 12,301 0,307 0,309 -53,330 -35,13 -531,12 -567,-1 z m 571,-58 c 6,-12 10,-119 10,-279 0,-208 -3,-262 -14,-271 -9,-8 -94,-11 -287,-9 l -274,3 -3,275 c -1,151 0,280 3,287 3,10 67,13 279,13 262,0 276,-1 286,-19 z" />
    <path
       style="fill:#ffffff"
       id="path70"
       d="m 8984,5406 c -17,-8 -34,-21 -38,-31 -8,-21 -8,-568 0,-590 16,-40 51,-45 328,-45 281,0 305,3 325,47 7,16 11,118 11,298 v 274 l -24,28 -24,28 -274,2 c -214,2 -280,0 -304,-11 z m 574,-320 c 1,-154 -2,-284 -6,-288 -5,-5 -130,-9 -278,-8 -239,0 -270,2 -281,17 -17,22 -18,514 -3,544 10,19 22,19 288,17 l 277,-3 z" />
    <path
       style="fill:#ffffff"
       id="path72"
       d="m 9725,5413 c -11,-3 -28,-12 -37,-21 -16,-14 -18,-42 -18,-312 0,-289 1,-297 21,-316 20,-18 40,-19 310,-19 287,0 289,0 311,23 23,22 23,24 23,312 0,288 0,290 -23,312 -22,23 -26,23 -295,25 -149,0 -281,-1 -292,-4 z m 560,-333 v -285 l -265,-3 c -146,-1 -275,0 -287,3 l -23,5 v 279 c 0,214 3,281 13,284 6,3 136,5 287,4 l 275,-2 z" />
    <path
       style="fill:#ffffff"
       id="path74"
       d="m 10440,5407 c -48,-24 -50,-41 -48,-339 3,-274 3,-278 26,-300 22,-23 24,-23 312,-23 288,0 290,0 312,23 23,22 23,24 23,312 0,288 0,290 -23,312 -22,23 -26,23 -300,26 -210,2 -283,-1 -302,-11 z m 564,-43 c 14,-5 16,-40 16,-284 0,-239 -2,-279 -15,-284 -21,-8 -542,-9 -555,-1 -11,7 -14,557 -3,568 8,9 536,9 557,1 z" />
    <path
       style="fill:#ffffff"
       id="path76"
       d="m 11170,5407 c -47,-23 -50,-44 -50,-323 0,-160 4,-273 11,-292 7,-20 21,-34 41,-41 19,-7 131,-11 290,-11 270,0 306,5 322,45 10,28 7,575 -4,595 -18,34 -65,40 -329,40 -185,0 -263,-4 -281,-13 z m 568,-49 c 19,-19 17,-541 -2,-557 -9,-8 -94,-11 -287,-9 l -274,3 -3,275 c -1,151 0,280 3,287 6,18 545,19 563,1 z" />
    <path
       style="fill:#ffffff"
       id="path78"
       d="m 11901,5409 c -50,-20 -50,-25 -50,-329 0,-209 3,-289 12,-301 28,-36 51,-39 322,-39 298,0 317,4 329,61 8,41 8,517 0,559 -12,55 -38,60 -331,59 -142,0 -269,-5 -282,-10 z m 567,-323 c 1,-154 -2,-284 -6,-288 -14,-14 -541,-11 -558,3 -11,9 -14,61 -14,271 0,161 4,267 10,279 10,19 22,19 288,17 l 277,-3 z" />
    <path
       style="fill:#ffffff"
       id="path80"
       d="m 15475,5413 c -11,-3 -28,-12 -37,-21 -16,-14 -18,-42 -18,-312 0,-289 1,-297 21,-316 20,-18 40,-19 310,-19 287,0 289,0 311,23 23,22 23,24 23,312 0,288 0,290 -23,312 -22,23 -26,23 -295,25 -149,0 -281,-1 -292,-4 z m 560,-333 v -285 l -265,-3 c -146,-1 -275,0 -287,3 l -23,5 v 279 c 0,214 3,281 13,284 6,3 136,5 287,4 l 275,-2 z" />
    <path
       style="fill:#ffffff"
       id="path82"
       d="m 16190,5407 c -48,-24 -50,-41 -48,-339 3,-274 3,-278 26,-300 22,-23 24,-23 312,-23 288,0 290,0 312,23 23,22 23,24 23,312 0,288 0,290 -23,312 -22,23 -26,23 -300,26 -210,2 -283,-1 -302,-11 z m 564,-43 c 14,-5 16,-40 16,-284 0,-239 -2,-279 -15,-284 -21,-8 -542,-9 -555,-1 -11,7 -14,557 -3,568 8,9 536,9 557,1 z" />
    <path
       style="fill:#ffffff"
       id="path84"
       d="m 16920,5407 c -47,-23 -50,-44 -50,-323 0,-160 4,-273 11,-292 7,-20 21,-34 41,-41 19,-7 131,-11 290,-11 270,0 306,5 322,45 10,28 7,575 -4,595 -18,34 -65,40 -329,40 -185,0 -263,-4 -281,-13 z m 568,-49 c 19,-19 17,-541 -2,-557 -9,-8 -94,-11 -287,-9 l -274,3 -3,275 c -1,151 0,280 3,287 6,18 545,19 563,1 z" />
    <path
       style="fill:#ffffff"
       id="path86"
       d="m 17651,5409 c -50,-20 -50,-25 -50,-329 0,-209 3,-289 12,-301 28,-36 51,-39 322,-39 298,0 317,4 329,61 8,41 8,517 0,559 -12,55 -38,60 -331,59 -142,0 -269,-5 -282,-10 z m 567,-323 c 1,-154 -2,-284 -6,-288 -14,-14 -541,-11 -558,3 -11,9 -14,61 -14,271 0,161 4,267 10,279 10,19 22,19 288,17 l 277,-3 z" />
    <path
       style="fill:#ffffff"
       id="path88"
       d="m 1380,4693 c -8,-3 -23,-12 -32,-21 -16,-14 -18,-41 -18,-302 0,-268 1,-289 19,-311 l 19,-24 645,-3 c 418,-1 654,1 671,8 52,19 58,54 54,347 l -3,265 -28,24 -28,24 -642,-1 c -353,0 -649,-3 -657,-6 z m 1281,-43 c 18,-10 19,-24 19,-278 0,-151 -4,-274 -10,-282 -8,-13 -91,-15 -630,-18 -422,-2 -627,1 -640,8 -19,10 -20,22 -20,285 0,250 2,275 18,284 24,14 1236,15 1263,1 z" />
    <path
       style="fill:#ffffff"
       id="path90"
       d="m 2819,4671 -24,-19 v -297 -297 l 24,-19 c 22,-18 42,-19 308,-19 h 284 l 24,25 25,24 v 289 289 l -23,21 c -23,22 -29,22 -309,22 -266,0 -287,-1 -309,-19 z m 582,-31 c 18,-10 19,-24 19,-285 0,-261 -1,-275 -19,-285 -31,-16 -536,-14 -549,3 -16,19 -17,544 -1,563 9,11 58,14 271,14 160,0 267,-4 279,-10 z" />
    <path
       style="fill:#ffffff"
       id="path92"
       d="m 3539,4671 -24,-19 v -297 -297 l 24,-19 c 22,-18 43,-19 311,-19 268,0 289,1 311,19 l 24,19 3,274 c 2,150 0,283 -3,296 -3,12 -14,31 -25,42 -19,19 -35,20 -309,20 -269,0 -290,-1 -312,-19 z m 589,-33 c 9,-9 12,-86 12,-285 0,-259 -1,-273 -19,-283 -12,-6 -118,-10 -275,-10 -218,0 -257,2 -270,16 -14,13 -16,53 -16,283 0,194 3,270 12,279 17,17 539,17 556,0 z" />
    <path
       style="fill:#ffffff"
       id="path94"
       d="m 4269,4669 -24,-21 v -295 -295 l 24,-19 c 22,-18 42,-19 306,-19 270,0 283,1 309,21 l 26,20 v 294 c 0,290 0,295 -22,315 -21,19 -34,20 -308,20 -276,0 -288,-1 -311,-21 z m 589,-31 c 9,-9 12,-86 12,-285 0,-259 -1,-273 -19,-283 -12,-6 -117,-10 -271,-10 -154,0 -259,4 -271,10 -18,10 -19,24 -19,283 0,199 3,276 12,285 17,17 539,17 556,0 z" />
    <path
       style="fill:#ffffff"
       id="path96"
       d="m 4998,4679 c -31,-17 -38,-79 -38,-324 0,-249 7,-307 40,-325 25,-13 575,-13 600,0 34,18 40,65 40,325 0,260 -6,307 -40,325 -25,13 -579,13 -602,-1 z m 580,-41 c 9,-9 12,-86 12,-285 0,-259 -1,-273 -19,-283 -12,-6 -117,-10 -271,-10 -154,0 -259,4 -271,10 -18,10 -19,24 -19,283 0,199 3,276 12,285 17,17 539,17 556,0 z" />
    <path
       style="fill:#ffffff"
       id="path98"
       d="m 5717,4678 c -9,-7 -21,-26 -27,-41 -13,-35 -14,-526 -1,-560 22,-58 18,-57 327,-57 173,0 293,4 304,10 33,18 40,76 40,331 0,254 -6,301 -40,319 -29,16 -582,13 -603,-2 z m 581,-40 c 9,-9 12,-86 12,-285 0,-259 -1,-273 -19,-283 -12,-6 -117,-10 -271,-10 -154,0 -259,4 -271,10 -18,10 -19,24 -19,283 0,199 3,276 12,285 17,17 539,17 556,0 z" />
    <path
       style="fill:#ffffff"
       id="path100"
       d="m 6432,4667 c -22,-23 -22,-29 -22,-314 v -292 l 26,-20 c 26,-20 39,-21 309,-21 264,0 284,1 306,19 l 24,19 v 297 297 l -24,19 c -22,18 -43,19 -310,19 h -288 z m 586,-29 c 9,-9 12,-86 12,-285 0,-259 -1,-273 -19,-283 -12,-6 -117,-10 -271,-10 -154,0 -259,4 -271,10 -18,10 -19,24 -19,283 0,199 3,276 12,285 17,17 539,17 556,0 z" />
    <path
       style="fill:#ffffff"
       id="path102"
       d="m 7152,4667 c -22,-23 -22,-29 -22,-311 v -287 l 25,-24 24,-25 h 284 c 266,0 286,1 308,19 l 24,19 v 297 297 l -24,19 c -22,18 -43,19 -310,19 h -288 z m 582,-23 c 14,-5 16,-40 16,-283 0,-202 -3,-280 -12,-289 -9,-9 -84,-12 -274,-12 -225,0 -265,2 -278,16 -14,13 -16,52 -16,275 0,160 4,268 10,280 10,18 24,19 275,19 145,0 270,-3 279,-6 z" />
    <path
       style="fill:#ffffff"
       id="path104"
       d="m 7871,4664 c -20,-26 -21,-39 -21,-311 v -284 l 25,-24 24,-25 h 286 286 l 24,25 25,24 v 286 286 l -25,24 -24,25 h -290 -290 z m 589,-24 c 13,-8 15,-51 15,-285 0,-234 -2,-277 -15,-285 -20,-13 -530,-13 -550,0 -13,8 -15,51 -15,285 0,234 2,277 15,285 20,13 530,13 550,0 z" />
    <path
       style="fill:#ffffff"
       id="path106"
       d="m 8590,4663 c -20,-26 -21,-34 -18,-316 l 3,-289 24,-19 c 22,-18 43,-19 308,-19 h 284 l 24,25 25,24 v 284 c 0,272 -1,285 -21,311 l -20,26 h -294 -294 z m 594,-29 c 24,-23 24,-535 0,-558 -13,-14 -52,-16 -274,-16 -142,0 -265,3 -274,6 -14,5 -16,40 -16,289 0,217 3,285 13,288 6,3 130,6 274,6 225,1 264,-1 277,-15 z" />
    <path
       style="fill:#ffffff"
       id="path108"
       d="m 9319,4671 -24,-19 v -297 -297 l 24,-19 c 22,-18 42,-19 306,-19 270,0 283,1 309,21 l 26,20 v 293 293 l -23,21 c -23,22 -29,22 -309,22 -266,0 -287,-1 -309,-19 z m 582,-31 c 18,-10 19,-24 19,-285 0,-261 -1,-275 -19,-285 -12,-6 -117,-10 -271,-10 -154,0 -259,4 -271,10 -18,10 -19,24 -19,283 0,199 3,276 12,285 16,16 520,17 549,2 z" />
    <path
       style="fill:#ffffff"
       id="path110"
       d="m 10046,4677 c -28,-21 -35,-85 -35,-322 0,-237 7,-301 35,-322 23,-17 564,-19 596,-2 42,22 48,63 48,317 0,262 -3,291 -32,321 -18,20 -28,21 -306,21 -222,0 -292,-3 -306,-13 z m 582,-39 c 9,-9 12,-86 12,-285 0,-259 -1,-273 -19,-283 -12,-6 -117,-10 -271,-10 -154,0 -259,4 -271,10 -18,10 -19,24 -19,283 0,199 3,276 12,285 17,17 539,17 556,0 z" />
    <path
       style="fill:#ffffff"
       id="path112"
       d="m 10768,4679 c -31,-17 -38,-79 -38,-324 0,-249 7,-307 40,-325 11,-6 129,-10 300,-10 171,0 289,4 300,10 33,18 40,76 40,325 0,249 -7,307 -40,325 -25,13 -579,13 -602,-1 z m 580,-41 c 9,-9 12,-86 12,-285 0,-259 -1,-273 -19,-283 -12,-6 -117,-10 -271,-10 -154,0 -259,4 -271,10 -18,10 -19,24 -19,283 0,199 3,276 12,285 17,17 539,17 556,0 z" />
    <path
       style="fill:#ffffff"
       id="path114"
       d="m 11472,4683 c -7,-3 -19,-18 -27,-33 -12,-24 -15,-80 -15,-299 v -269 l 26,-31 c 24,-29 30,-31 93,-31 39,0 72,-5 79,-12 9,-9 12,-97 12,-334 v -322 l 26,-17 c 23,-15 65,-17 410,-16 245,0 391,4 404,11 38,21 40,61 34,700 -6,601 -7,616 -27,638 l -20,22 -491,-1 c -270,0 -497,-3 -504,-6 z m 986,-45 c 9,-9 12,-165 12,-639 0,-562 -2,-627 -16,-633 -25,-10 -748,-7 -763,3 -12,8 -13,56 -8,304 6,307 2,358 -33,377 -10,5 -46,10 -79,10 -99,0 -91,-26 -91,295 0,217 3,285 13,288 6,3 224,6 482,6 354,1 474,-2 483,-11 z" />
    <path
       style="fill:#ffffff"
       id="path116"
       d="m 15485,4683 c -11,-3 -28,-12 -37,-21 -16,-14 -18,-42 -18,-312 0,-289 1,-297 21,-316 20,-18 40,-19 310,-19 287,0 289,0 311,23 23,22 23,24 23,312 0,288 0,290 -23,312 -22,23 -26,23 -295,25 -149,0 -281,-1 -292,-4 z m 560,-333 v -285 l -265,-3 c -146,-1 -275,0 -287,3 l -23,5 v 279 c 0,214 3,281 13,284 6,3 136,5 287,4 l 275,-2 z" />
    <path
       style="fill:#ffffff"
       id="path118"
       d="m 16200,4677 c -48,-24 -50,-41 -48,-339 3,-274 3,-278 26,-300 22,-23 24,-23 312,-23 288,0 290,0 312,23 23,22 23,24 23,312 0,288 0,290 -23,312 -22,23 -26,23 -300,26 -210,2 -283,-1 -302,-11 z m 564,-43 c 14,-5 16,-40 16,-284 0,-239 -2,-279 -15,-284 -21,-8 -542,-9 -555,-1 -11,7 -14,557 -3,568 8,9 536,9 557,1 z" />
    <path
       style="fill:#ffffff"
       id="path120"
       d="m 16930,4677 c -47,-23 -50,-44 -50,-323 0,-160 4,-273 11,-292 7,-20 21,-34 41,-41 19,-7 131,-11 290,-11 270,0 306,5 322,45 10,28 7,575 -4,595 -18,34 -65,40 -329,40 -185,0 -263,-4 -281,-13 z m 568,-49 c 19,-19 17,-541 -2,-557 -9,-8 -94,-11 -287,-9 l -274,3 -3,275 c -1,151 0,280 3,287 6,18 545,19 563,1 z" />
    <path
       style="fill:#ffffff"
       id="path122"
       d="m 17661,4679 c -50,-20 -50,-25 -50,-329 0,-209 3,-289 12,-301 28,-36 51,-39 322,-39 298,0 317,4 329,61 8,41 8,517 0,559 -12,55 -38,60 -331,59 -142,0 -269,-5 -282,-10 z m 567,-323 c 1,-154 -2,-284 -6,-288 -14,-14 -541,-11 -558,3 -11,9 -14,61 -14,271 0,161 4,267 10,279 10,19 22,19 288,17 l 277,-3 z" />
    <path
       style="fill:#ffffff"
       id="path124"
       d="m 1337,3972 c -15,-16 -17,-54 -17,-324 0,-272 2,-307 17,-319 13,-12 89,-13 422,-11 359,3 407,5 419,20 9,12 12,90 12,312 0,251 -2,299 -16,318 l -15,22 h -403 c -378,0 -404,-1 -419,-18 z m 821,-319 -3,-288 -384,-3 c -301,-2 -386,1 -393,10 -13,22 -10,542 4,556 9,9 110,12 395,12 h 383 z" />
    <path
       style="fill:#ffffff"
       id="path126"
       d="m 2259,3959 -29,-31 v -273 -273 l 26,-31 26,-31 h 293 294 l 20,26 c 20,26 21,39 21,311 v 284 l -25,24 -24,25 h -287 -286 z m 601,-38 c 13,-25 14,-500 0,-535 l -10,-26 h -275 -275 l -10,26 c -14,35 -13,510 0,535 10,18 24,19 285,19 261,0 275,-1 285,-19 z" />
    <path
       style="fill:#ffffff"
       id="path128"
       d="m 2721,3894 c -23,-17 -28,-53 -9,-72 33,-33 95,7 79,51 -11,29 -44,39 -70,21 z" />
    <path
       style="fill:#ffffff"
       id="path130"
       d="m 2973,3966 -28,-24 v -274 c 0,-150 3,-285 8,-300 13,-49 29,-52 342,-51 l 289,1 23,26 c 23,27 23,30 23,307 0,164 -4,288 -10,299 -19,35 -64,40 -346,40 h -273 z m 595,-310 c 2,-217 -1,-281 -10,-288 -7,-4 -133,-8 -279,-8 h -266 l -7,31 c -8,40 -8,497 0,527 l 6,22 277,-2 276,-3 z" />
    <path
       style="fill:#ffffff"
       id="path132"
       d="m 3693,3966 -28,-24 v -274 c 0,-150 3,-285 8,-300 4,-15 17,-32 28,-39 14,-7 116,-11 311,-10 260,0 293,2 310,17 17,16 18,35 18,321 l -1,304 -34,15 c -27,11 -94,14 -309,14 h -275 z m 595,-310 c 2,-217 -1,-281 -10,-288 -7,-4 -133,-8 -279,-8 h -266 l -7,31 c -8,40 -8,497 0,527 l 6,22 277,-2 276,-3 z" />
    <path
       style="fill:#ffffff"
       id="path134"
       d="m 4413,3966 -28,-24 -3,-239 c -4,-270 1,-336 29,-364 18,-18 37,-19 312,-19 286,0 294,1 313,21 18,20 19,40 19,311 v 290 l -28,24 -28,24 h -279 -279 z m 595,-310 c 2,-217 -1,-281 -10,-288 -22,-13 -542,-10 -556,4 -13,13 -18,549 -5,561 4,4 133,6 287,5 l 281,-3 z" />
    <path
       style="fill:#ffffff"
       id="path136"
       d="m 5135,3965 -25,-24 v -291 c 0,-277 1,-291 20,-310 19,-19 33,-20 314,-20 h 295 l 20,26 c 20,26 21,39 21,300 0,289 -3,313 -47,333 -16,7 -119,11 -299,11 h -275 z m 590,-315 v -285 l -274,-3 c -193,-2 -278,1 -287,9 -11,9 -14,64 -14,274 0,145 3,271 6,279 6,15 38,16 288,14 l 281,-3 z" />
    <path
       style="fill:#ffffff"
       id="path138"
       d="m 5855,3966 -25,-25 v -289 c 0,-276 1,-289 20,-310 20,-22 25,-22 315,-22 h 294 l 21,27 c 20,26 21,34 18,315 -3,260 -5,289 -21,305 -16,16 -45,18 -307,21 l -290,3 z m 590,-316 v -285 l -274,-3 c -193,-2 -278,1 -287,9 -19,16 -21,555 -1,562 6,3 136,5 287,4 l 275,-2 z" />
    <path
       style="fill:#ffffff"
       id="path140"
       d="m 6579,3971 -24,-19 -3,-289 c -3,-282 -2,-290 18,-316 l 21,-27 h 294 294 l 20,26 c 20,26 21,39 21,311 v 284 l -25,24 -24,25 h -284 c -265,0 -286,-1 -308,-19 z m 589,-43 c 16,-16 17,-520 2,-549 -10,-18 -24,-19 -285,-19 -208,0 -276,3 -282,13 -10,15 -17,444 -8,515 l 6,52 h 278 c 202,0 280,-3 289,-12 z" />
    <path
       style="fill:#ffffff"
       id="path142"
       d="m 7320,3983 c -8,-3 -23,-15 -32,-27 -16,-19 -18,-51 -18,-302 0,-270 1,-282 21,-308 l 20,-26 h 294 c 290,0 295,0 315,22 19,21 20,34 20,310 v 289 l -25,24 -24,25 -278,-1 c -153,0 -285,-3 -293,-6 z m 574,-65 c 10,-40 7,-518 -4,-539 -10,-18 -24,-19 -286,-19 h -274 l -10,26 c -6,14 -10,133 -10,264 0,131 4,250 10,264 l 10,26 h 279 279 z" />
    <path
       style="fill:#ffffff"
       id="path144"
       d="m 8033,3978 c -40,-20 -44,-49 -41,-340 3,-255 4,-278 22,-297 19,-20 27,-21 313,-21 280,0 294,1 313,20 19,19 20,33 20,314 v 295 l -26,20 c -26,20 -38,21 -303,20 -171,0 -284,-4 -298,-11 z m 585,-317 c 2,-193 -1,-278 -9,-287 -9,-11 -64,-14 -274,-14 -145,0 -270,3 -279,6 -14,5 -16,40 -16,283 0,153 3,281 7,284 4,4 133,6 287,5 l 281,-3 z" />
    <path
       style="fill:#ffffff"
       id="path146"
       d="m 8739,3960 -30,-29 3,-285 c 3,-263 4,-285 22,-305 19,-20 27,-21 313,-21 280,0 294,1 313,20 19,19 20,33 20,314 v 295 l -26,20 c -26,20 -39,21 -306,21 h -280 z m 595,-36 c 3,-9 6,-134 6,-278 0,-190 -3,-265 -12,-274 -17,-17 -539,-17 -556,0 -9,9 -12,86 -12,283 0,150 3,275 7,278 3,4 131,7 284,7 243,0 278,-2 283,-16 z" />
    <path
       style="fill:#ffffff"
       id="path148"
       d="m 9463,3966 -28,-24 v -292 -292 l 24,-19 c 22,-18 43,-19 312,-19 274,0 290,1 309,20 11,11 22,30 25,42 3,13 5,144 3,291 l -3,269 -28,24 -28,24 h -279 -279 z m 595,-305 c 2,-193 -1,-278 -9,-287 -16,-19 -538,-21 -557,-2 -13,13 -18,549 -5,561 4,4 133,6 287,5 l 281,-3 z" />
    <path
       style="fill:#ffffff"
       id="path150"
       d="m 10183,3966 -28,-24 v -291 c 0,-282 1,-291 21,-312 21,-20 29,-21 314,-20 283,0 294,1 314,21 20,20 21,31 21,311 v 291 l -28,24 -28,24 h -279 -279 z m 595,-305 c 2,-193 -1,-278 -9,-287 -16,-19 -538,-21 -557,-2 -13,13 -18,549 -5,561 4,4 133,6 287,5 l 281,-3 z" />
    <path
       style="fill:#ffffff"
       id="path152"
       d="m 10905,3965 -25,-24 v -291 c 0,-277 1,-291 20,-310 19,-19 33,-20 313,-20 286,0 294,1 313,21 17,19 19,42 22,288 4,290 -1,330 -43,349 -18,8 -113,12 -301,12 h -275 z m 593,-304 c 2,-193 -1,-278 -9,-287 -16,-19 -538,-21 -557,-2 -9,9 -12,84 -12,274 0,144 3,270 6,278 6,15 38,16 288,14 l 281,-3 z" />
    <path
       style="fill:#ffffff"
       id="path154"
       d="m 13630,3967 c -48,-24 -50,-41 -48,-339 3,-274 3,-278 26,-300 22,-23 24,-23 312,-23 288,0 290,0 312,23 23,22 23,24 23,312 0,288 0,290 -23,312 -22,23 -26,23 -300,26 -210,2 -283,-1 -302,-11 z m 564,-43 c 14,-5 16,-40 16,-284 0,-239 -2,-279 -15,-284 -21,-8 -542,-9 -555,-1 -11,7 -14,557 -3,568 8,9 536,9 557,1 z" />
    <path
       style="fill:#ffffff"
       id="path156"
       d="m 15475,3963 c -11,-3 -28,-12 -37,-21 -16,-14 -18,-42 -18,-312 0,-289 1,-297 21,-316 20,-18 40,-19 310,-19 287,0 289,0 311,23 23,22 23,24 23,312 0,288 0,290 -23,312 -22,23 -26,23 -295,25 -149,0 -281,-1 -292,-4 z m 560,-333 v -285 l -265,-3 c -146,-1 -275,0 -287,3 l -23,5 v 279 c 0,214 3,281 13,284 6,3 136,5 287,4 l 275,-2 z" />
    <path
       style="fill:#ffffff"
       id="path158"
       d="m 16190,3957 c -48,-24 -50,-41 -48,-339 3,-274 3,-278 26,-300 22,-23 24,-23 312,-23 288,0 290,0 312,23 23,22 23,24 23,312 0,288 0,290 -23,312 -22,23 -26,23 -300,26 -210,2 -283,-1 -302,-11 z m 564,-43 c 14,-5 16,-40 16,-284 0,-239 -2,-279 -15,-284 -21,-8 -542,-9 -555,-1 -11,7 -14,557 -3,568 8,9 536,9 557,1 z" />
    <path
       style="fill:#ffffff"
       id="path160"
       d="m 16920,3957 c -47,-23 -50,-44 -50,-323 0,-160 4,-273 11,-292 7,-20 21,-34 41,-41 19,-7 131,-11 290,-11 270,0 306,5 322,45 10,28 7,575 -4,595 -18,34 -65,40 -329,40 -185,0 -263,-4 -281,-13 z m 568,-49 c 19,-19 17,-541 -2,-557 -9,-8 -94,-11 -287,-9 l -274,3 -3,275 c -1,151 0,280 3,287 6,18 545,19 563,1 z" />
    <path
       style="fill:#ffffff"
       id="path162"
       d="m 17651,3959 c -50,-20 -50,-25 -50,-329 0,-209 3,-289 12,-301 28,-36 51,-39 322,-39 298,0 317,4 329,61 8,41 8,517 0,559 -12,55 -38,60 -331,59 -142,0 -269,-5 -282,-10 z m 567,-323 c 1,-154 -2,-284 -6,-288 -14,-14 -541,-11 -558,3 -11,9 -14,61 -14,271 0,161 4,267 10,279 10,19 22,19 288,17 l 277,-3 z" />
    <path
       style="fill:#ffffff"
       id="path164"
       d="m 1337,3272 c -15,-16 -17,-54 -17,-324 0,-272 2,-307 17,-319 25,-21 1181,-14 1203,7 12,12 16,61 18,284 4,297 -2,345 -44,360 -15,6 -256,10 -593,10 -537,0 -569,-1 -584,-18 z m 1181,-324 2,-288 h -574 c -514,0 -574,2 -580,16 -3,9 -6,134 -6,278 0,191 3,265 12,274 9,9 146,12 578,10 l 565,-3 z" />
    <path
       style="fill:#ffffff"
       id="path166"
       d="m 2645,3280 c -49,-19 -50,-24 -50,-330 0,-269 1,-289 19,-309 19,-20 27,-21 317,-21 h 299 l 17,27 c 16,24 18,58 21,280 2,159 -1,267 -8,293 -18,68 -30,70 -332,69 -145,0 -272,-4 -283,-9 z m 563,-52 c 14,-14 17,-534 4,-556 -7,-9 -71,-12 -288,-10 l -279,3 -3,275 c -1,151 0,280 3,287 6,18 545,19 563,1 z" />
    <path
       style="fill:#ffffff"
       id="path168"
       d="m 3360,3277 c -47,-24 -50,-43 -50,-333 0,-259 1,-272 21,-298 l 20,-26 h 298 c 290,0 298,1 317,21 18,20 19,40 19,310 0,287 0,289 -23,311 -22,23 -26,23 -300,26 -210,2 -283,-1 -302,-11 z m 569,-51 c 8,-9 11,-94 9,-287 l -3,-274 h -285 -285 l -3,265 c -1,146 0,275 3,288 l 5,22 h 274 c 220,0 276,-3 285,-14 z" />
    <path
       style="fill:#ffffff"
       id="path170"
       d="m 4055,3280 c -49,-19 -50,-24 -50,-330 0,-269 1,-289 19,-309 19,-20 27,-21 317,-21 h 299 l 17,27 c 16,24 18,58 21,280 2,159 -1,267 -8,293 -18,68 -30,70 -332,69 -145,0 -272,-4 -283,-9 z m 563,-52 c 14,-14 17,-534 4,-556 -7,-9 -71,-12 -288,-10 l -279,3 -3,275 c -1,151 0,280 3,287 6,18 545,19 563,1 z" />
    <path
       style="fill:#ffffff"
       id="path172"
       d="m 4770,3277 c -47,-24 -50,-43 -50,-333 0,-259 1,-272 21,-298 l 20,-26 h 298 c 290,0 298,1 317,21 18,20 19,40 19,310 0,287 0,289 -23,311 -22,23 -26,23 -300,26 -210,2 -283,-1 -302,-11 z m 569,-51 c 8,-9 11,-94 9,-287 l -3,-274 h -285 -285 l -3,265 c -1,146 0,275 3,288 l 5,22 h 274 c 220,0 276,-3 285,-14 z" />
    <path
       style="fill:#ffffff"
       id="path174"
       d="m 5493,3280 c -12,-5 -26,-18 -32,-29 -7,-13 -11,-123 -11,-309 0,-281 1,-289 21,-308 20,-18 40,-19 310,-19 287,0 289,0 311,23 23,22 23,24 23,312 0,288 0,290 -23,312 -22,23 -26,23 -300,25 -152,1 -287,-2 -299,-7 z m 572,-330 v -285 l -279,-3 c -217,-2 -281,1 -288,10 -13,22 -10,542 4,556 9,9 82,12 288,10 l 275,-3 z" />
    <path
       style="fill:#ffffff"
       id="path176"
       d="m 6214,3276 c -17,-8 -34,-21 -38,-31 -3,-9 -6,-144 -6,-300 0,-263 1,-284 19,-306 19,-24 19,-24 288,-27 174,-2 281,1 305,8 56,16 60,40 56,352 -3,263 -3,268 -26,290 -22,23 -26,23 -295,25 -213,2 -279,0 -303,-11 z m 571,-326 v -285 l -279,-3 c -217,-2 -281,1 -288,10 -13,22 -10,542 4,556 9,9 82,12 288,10 l 275,-3 z" />
    <path
       style="fill:#ffffff"
       id="path178"
       d="m 6934,3276 c -17,-8 -34,-21 -38,-31 -3,-9 -6,-144 -6,-300 0,-263 1,-284 19,-306 l 19,-24 278,-3 c 297,-3 323,0 343,44 7,17 11,117 11,299 v 274 l -24,28 -24,28 -274,2 c -214,2 -280,0 -304,-11 z m 571,-326 v -285 l -281,-3 -282,-2 -6,22 c -10,40 -7,518 4,539 10,19 22,19 288,17 l 277,-3 z" />
    <path
       style="fill:#ffffff"
       id="path180"
       d="m 7663,3280 c -52,-21 -54,-35 -51,-344 3,-258 5,-287 21,-303 16,-16 43,-18 312,-18 269,0 296,2 312,18 16,16 18,45 21,306 l 3,289 -25,28 -24,29 -274,2 c -150,1 -283,-2 -295,-7 z m 564,-52 c 10,-16 17,-467 8,-525 l -6,-43 h -279 c -266,0 -280,1 -290,19 -15,29 -14,533 2,549 18,18 554,17 565,0 z" />
    <path
       style="fill:#ffffff"
       id="path182"
       d="m 8384,3280 c -52,-21 -54,-34 -54,-327 0,-149 4,-283 9,-296 17,-44 47,-48 345,-45 l 278,3 19,24 c 18,22 19,43 19,308 0,166 -4,292 -10,303 -5,10 -24,23 -41,29 -38,13 -533,14 -565,1 z m 566,-59 c 6,-12 10,-119 10,-279 0,-208 -3,-262 -14,-271 -9,-8 -94,-11 -287,-9 l -274,3 -3,275 c -1,151 0,280 3,287 3,10 67,13 279,13 262,0 276,-1 286,-19 z" />
    <path
       style="fill:#ffffff"
       id="path184"
       d="m 9100,3277 c -47,-24 -50,-43 -50,-329 0,-182 4,-275 12,-293 19,-42 59,-47 351,-43 269,3 269,3 288,27 18,22 19,43 19,308 0,166 -4,292 -10,303 -18,34 -65,40 -329,40 -185,0 -263,-4 -281,-13 z m 568,-49 c 14,-14 17,-534 4,-556 -7,-9 -71,-12 -288,-10 l -279,3 -3,275 c -1,151 0,280 3,287 6,18 545,19 563,1 z" />
    <path
       style="fill:#ffffff"
       id="path186"
       d="m 9820,3277 c -48,-25 -50,-41 -48,-339 3,-274 3,-278 26,-300 22,-23 24,-23 311,-23 270,0 290,1 310,19 20,19 21,27 21,311 0,273 -1,294 -19,316 l -19,24 -279,3 c -211,2 -284,-1 -303,-11 z m 568,-49 c 14,-14 17,-534 4,-556 -7,-9 -71,-12 -288,-10 l -279,3 -3,275 c -1,151 0,280 3,287 6,18 545,19 563,1 z" />
    <path
       style="fill:#ffffff"
       id="path188"
       d="m 10550,3284 c -51,-22 -50,-16 -50,-334 0,-289 1,-297 21,-316 20,-18 53,-19 965,-22 l 945,-2 24,24 25,25 v 286 286 l -25,24 -24,25 h -589 c -324,0 -744,2 -933,5 -189,3 -351,2 -359,-1 z m 1868,-56 c 9,-9 12,-86 12,-285 0,-271 0,-272 -22,-284 -35,-19 -1847,-6 -1859,13 -10,15 -12,528 -3,552 6,14 97,16 933,16 708,0 930,-3 939,-12 z" />
    <path
       style="fill:#ffffff"
       id="path190"
       d="m 12925,3243 c -11,-3 -28,-12 -37,-21 -16,-14 -18,-42 -18,-312 0,-289 1,-297 21,-316 20,-18 40,-19 310,-19 287,0 289,0 311,23 23,22 23,24 23,312 0,288 0,290 -23,312 -22,23 -26,23 -295,25 -149,0 -281,-1 -292,-4 z m 560,-333 v -285 l -265,-3 c -146,-1 -275,0 -287,3 l -23,5 v 279 c 0,214 3,281 13,284 6,3 136,5 287,4 l 275,-2 z" />
    <path
       style="fill:#ffffff"
       id="path192"
       d="m 13640,3237 c -48,-24 -50,-41 -48,-339 3,-274 3,-278 26,-300 22,-23 24,-23 312,-23 288,0 290,0 312,23 23,22 23,24 23,312 0,288 0,290 -23,312 -22,23 -26,23 -300,26 -210,2 -283,-1 -302,-11 z m 564,-43 c 14,-5 16,-40 16,-284 0,-239 -2,-279 -15,-284 -21,-8 -542,-9 -555,-1 -11,7 -14,557 -3,568 8,9 536,9 557,1 z" />
    <path
       style="fill:#ffffff"
       id="path194"
       d="m 14370,3237 c -47,-23 -50,-44 -50,-323 0,-160 4,-273 11,-292 7,-20 21,-34 41,-41 19,-7 131,-11 290,-11 270,0 306,5 322,45 10,28 7,575 -4,595 -18,34 -65,40 -329,40 -185,0 -263,-4 -281,-13 z m 568,-49 c 19,-19 17,-541 -2,-557 -9,-8 -94,-11 -287,-9 l -274,3 -3,275 c -1,151 0,280 3,287 6,18 545,19 563,1 z" />
    <path
       style="fill:#ffffff"
       id="path196"
       d="m 15485,3233 c -11,-3 -28,-12 -37,-21 -16,-14 -18,-42 -18,-312 0,-289 1,-297 21,-316 20,-18 40,-19 310,-19 287,0 289,0 311,23 23,22 23,24 23,312 0,288 0,290 -23,312 -22,23 -26,23 -295,25 -149,0 -281,-1 -292,-4 z m 560,-333 v -285 l -265,-3 c -146,-1 -275,0 -287,3 l -23,5 v 279 c 0,214 3,281 13,284 6,3 136,5 287,4 l 275,-2 z" />
    <path
       style="fill:#ffffff"
       id="path198"
       d="m 16200,3227 c -48,-24 -50,-41 -48,-339 3,-274 3,-278 26,-300 22,-23 24,-23 312,-23 288,0 290,0 312,23 23,22 23,24 23,312 0,288 0,290 -23,312 -22,23 -26,23 -300,26 -210,2 -283,-1 -302,-11 z m 564,-43 c 14,-5 16,-40 16,-284 0,-239 -2,-279 -15,-284 -21,-8 -542,-9 -555,-1 -11,7 -14,557 -3,568 8,9 536,9 557,1 z" />
    <path
       style="fill:#ffffff"
       id="path200"
       d="m 16930,3227 c -47,-23 -50,-44 -50,-323 0,-160 4,-273 11,-292 7,-20 21,-34 41,-41 19,-7 131,-11 290,-11 270,0 306,5 322,45 10,28 7,575 -4,595 -18,34 -65,40 -329,40 -185,0 -263,-4 -281,-13 z m 568,-49 c 19,-19 17,-541 -2,-557 -9,-8 -94,-11 -287,-9 l -274,3 -3,275 c -1,151 0,280 3,287 6,18 545,19 563,1 z" />
    <path
       style="fill:#ffffff"
       id="path202"
       d="m 17600,3224 c -11,-12 -13,-148 -11,-671 1,-360 5,-661 8,-669 11,-29 76,-35 346,-32 l 269,3 24,28 24,28 v 628 c 0,539 -2,634 -15,665 l -15,36 h -309 c -267,0 -310,-2 -321,-16 z m 608,-673 c 1,-464 -1,-637 -9,-648 -10,-11 -63,-13 -288,-11 l -276,3 -3,635 c -1,349 0,641 3,648 3,10 66,12 287,10 l 283,-3 z" />
    <path
       style="fill:#ffffff"
       id="path204"
       d="m 10216,2534 c -23,-23 -24,-625 -1,-644 11,-9 116,-12 422,-11 406,0 408,0 426,22 15,19 17,50 17,311 v 289 l -25,24 -24,25 h -400 c -350,0 -402,-2 -415,-16 z m 819,-324 v -285 l -389,-3 c -305,-2 -391,1 -398,10 -13,22 -10,542 4,556 9,9 106,12 398,10 l 385,-3 z" />
    <path
       style="fill:#ffffff"
       id="path206"
       d="m 11116,2535 c -14,-14 -16,-54 -16,-324 0,-258 2,-311 15,-321 10,-9 116,-12 414,-12 358,1 402,2 425,17 l 26,17 v 297 c 0,241 -3,301 -14,317 -14,18 -32,19 -424,22 -366,3 -411,1 -426,-13 z m 809,-325 v -285 l -384,-3 c -301,-2 -386,1 -393,10 -13,22 -10,542 4,556 9,9 105,12 393,10 l 380,-3 z" />
    <path
       style="fill:#ffffff"
       id="path208"
       d="m 1906,2514 c -23,-23 -24,-625 -1,-644 11,-9 114,-12 422,-11 354,0 409,3 422,16 14,13 17,56 19,273 4,284 0,334 -29,363 -18,18 -37,19 -418,19 -350,0 -402,-2 -415,-16 z m 819,-324 v -285 l -389,-3 c -305,-2 -391,1 -398,10 -13,22 -10,542 4,556 9,9 106,12 398,10 l 385,-3 z" />
    <path
       style="fill:#ffffff"
       id="path210"
       d="m 2806,2515 c -14,-14 -16,-55 -16,-324 0,-260 2,-310 15,-321 11,-9 113,-12 417,-11 402,0 403,0 421,22 16,20 18,46 15,320 -2,228 -6,301 -16,311 -10,10 -102,14 -416,16 -360,2 -406,1 -420,-13 z m 809,-325 v -285 l -384,-3 c -301,-2 -386,1 -393,10 -13,22 -10,542 4,556 9,9 105,12 393,10 l 380,-3 z" />
    <path
       style="fill:#ffffff"
       id="path212"
       d="m 2981,2305 -92,-105 h 37 c 29,0 35,3 30,16 -9,24 12,44 45,44 33,0 37,-15 12,-42 -15,-17 -14,-18 35,-18 29,0 52,5 52,10 0,6 -5,10 -11,10 -7,0 -8,30 -3,95 4,62 3,95 -3,95 -6,0 -52,-47 -102,-105 z m 49,0 c 0,-8 -7,-15 -16,-15 -14,0 -14,3 -4,15 7,8 14,15 16,15 2,0 4,-7 4,-15 z" />
    <path
       style="fill:#ffffff"
       id="path214"
       d="m 3714,2509 c -18,-20 -19,-40 -19,-316 v -295 l 24,-19 c 23,-19 87,-19 3196,-19 h 3174 l 20,26 c 20,26 21,38 21,313 0,275 -1,288 -20,309 l -21,22 H 6911 3733 Z m 6357,-29 c 18,-10 19,-24 19,-285 0,-261 -1,-275 -19,-285 -24,-12 -6315,-9 -6328,3 -4,5 -8,132 -8,283 0,233 2,276 15,284 22,14 6295,13 6321,0 z" />
    <path
       style="fill:#ffffff"
       id="path216"
       d="m 16930,2507 c -47,-23 -50,-44 -50,-323 0,-160 4,-273 11,-292 7,-20 21,-34 41,-41 19,-7 131,-11 290,-11 270,0 306,5 322,45 10,28 7,575 -4,595 -18,34 -65,40 -329,40 -185,0 -263,-4 -281,-13 z m 568,-49 c 19,-19 17,-541 -2,-557 -9,-8 -94,-11 -287,-9 l -274,3 -3,275 c -1,151 0,280 3,287 6,18 545,19 563,1 z" />
    <path
       style="fill:#ffffff"
       id="path218"
       d="m 15433,2486 -28,-24 -3,-269 c -3,-277 2,-334 36,-348 19,-8 1307,-6 1328,2 29,11 35,76 32,346 l -3,269 -28,24 -28,24 h -639 -639 z m 1316,-40 c 8,-9 11,-94 9,-287 l -3,-274 h -650 -650 l -3,279 c -2,217 1,281 10,288 7,4 297,8 644,8 523,0 634,-2 643,-14 z" />
  </g>
</svg>
