<svg height="334.24249" viewBox="0 0 1514.4475 434.51524" width="1164.9596" xmlns="http://www.w3.org/2000/svg"><g fill="#f4f4f4" fill-opacity=".5" stroke-width=".9997"><path d="m1421.0323 431.11583q0 .32-.077.53867-.1147.32533-.368.32533-.168 0-.352-.0773-.2214-.0933-.2427-.22933.075 0 .176.0267.2347.0613.2933.0613.2267 0 .3414-.22667.091-.18134.091-.43467 0-.17867-.1173-.50933-.1147-.33334-.1147-.464 0-.04.021-.064.024-.0267.064-.0267.104 0 .2026.48.083.40533.083.6z"/><path d="m1422.059 431.38783q0 .272-.1574.42667-.1573.15467-.4346.15467-.152 0-.2347-.072-.083-.072-.083-.22134 0-.21067.2747-.424.2613-.20267.4827-.20267.1013 0 .1333.12534.019.072.019.21333zm-.1627.0747q0-.032-.01-.0613-.01-.032-.021-.072-.043.0293-.1414.144-.051.0587-.088.0853 0-.0507.011-.0827.021-.0453.035-.0773-.1174 0-.2454.0987-.1253.0987-.1253.21333 0 .0773.085.0773.1627 0 .3147-.08.184-.096.184-.24533z"/><path d="m1423.1576 431.49717q0 .13066-.099.29333-.112.184-.232.184-.035 0-.059-.0373-.021-.04-.021-.0773 0-.048.1013-.14933.104-.104.104-.14133 0-.024-.01-.048-.01-.024-.011-.032-.2.0453-.408.22934-.2053.184-.312.208-.021-.0587-.021-.12 0-.0747.035-.15733.024-.0587.08-.14134.093-.14133.1973-.32.053-.0933.184-.32267.1333-.22933.1947-.32533.032-.048.056-.072.035-.032.083-.0427.032.0107.045.04.016.0293.016.0693 0 .0907-.1174.24533-.2133.27733-.2186.288-.12.18133-.12.328l.01.0267q.1467-.072.1733-.0827.1094-.0453.1867-.0453.085 0 .1253.0587.04.056.04.14401z"/><path d="m1424.395 431.33983q0 .18134-.088.38667-.096.22667-.2374.312-.029-.0347-.051-.0773-.019-.0427-.019-.0853 0-.0453.1333-.26933.059-.0987.053-.17334v-.0347q-.099.0293-.3413.17867-.24.14666-.4854.29866-.037 0-.069-.0267-.029-.0293-.029-.064 0-.056.1786-.37601.053-.096.192-.33333.043.056.056.12533.013.0667.013.16 0 .04 0 .0613.2453-.14667.384-.22134.152-.0827.208-.0827.037 0 .069.0853.035.0853.035.136z"/><path d="m1426.7123 431.85717q0 .048-.043.0747-.04.024-.091.024-.045 0-.1147-.0107-.1573-.024-.2027-.024-.08 0-.3146.0187-.1334.0107-.192.0107-.1627 0-.1627-.16267 0-.15466.1013-.44267.056-.16266.2107-.53333.1387-.33333.176-.46933.013-.0427.021-.056.021-.032.053-.032.051 0 .085.0747.035.072.035.13067 0 .0933-.1094.31467-.1093.21866-.2133.42933-.1147.25067-.1147.38134 0 .0667.056.0933.04.0187.1174.0187.059 0 .2026-.0133.144-.016.192-.016.12 0 .1974.0347.1093.048.1093.15467z"/><path d="m1427.7043 431.38783q0 .272-.1573.42667-.1574.15467-.4347.15467-.152 0-.2347-.072-.083-.072-.083-.22134 0-.21067.2746-.424.2614-.20267.4827-.20267.1013 0 .1333.12534.019.072.019.21333zm-.1627.0747q0-.032-.01-.0613-.01-.032-.021-.072-.043.0293-.1413.144-.051.0587-.088.0853 0-.0507.011-.0827.021-.0453.035-.0773-.1173 0-.2453.0987-.1254.0987-.1254.21333 0 .0773.085.0773.1626 0 .3146-.08.184-.096.184-.24533z"/><path d="m1428.827 431.33183q0 .0853-.045.18134-.043.096-.1093.16v-.0373q0-.032.01-.0987.01-.0667.01-.0987 0-.0453-.013-.0667-.013-.024-.056-.024-.1253 0-.312.19467-.2027.21333-.4027.424-.016 0-.032-.003-.04-.0107-.053-.0133.01-.096.067-.21333.1573-.31734.1626-.33867.021-.0853.032-.12534.011-.04.029-.0827.021-.0453.048-.08.029-.0373.075-.056l.027.32q.1147-.0933.176-.144.1173-.0933.2027-.0933.085 0 .1386.056.053.056.053.13867z"/><path d="m1430.1363 431.0225q0 .112-.2986.296-.288.176-.4187.176-.061 0-.083-.0427-.019-.0427-.019-.12 0-.0507 0-.072.1786 0 .3253-.0533.1467-.0533.256-.176-.08-.0293-.1627-.0293-.1946 0-.4133.14934-.24.16266-.24.34667 0 .176.24.24533.037.0107.4507.0747.2426.0373.2426.13066 0 .04-.088.064-.088.0267-.224.0267-.3413 0-.5386-.104-.2614-.13867-.2614-.44534 0-.32.32-.50933.272-.16.6187-.16.104 0 .1893.048.104.0587.104.15467z"/><path d="m1431.1977 430.54516q0 .0587-.1414.24534-.1413.18666-.1413.28533 0 .0507.059.10133.1333.11734.1333.144 0 .0347-.024.0667-.021.032-.056.032-.029 0-.083-.032-.037-.0213-.144-.104-.04.0773-.061.11733-.075.14134-.1013.20534-.04.12267-.08.24533-.069.16534-.1734.16534v-.0613q0-.18933.1226-.448.024-.048.1334-.248-.2107-.11467-.464-.11467 0-.0987.04-.144.043-.048.1413-.048.091 0 .2267.032.067.016.1333.032.051-.016.1387-.17333.216-.37867.2933-.43467.021.0347.035.0693.016.0347.016.0667z"/><path d="m1432.1817 431.49717q0 .13066-.099.29333-.112.184-.232.184-.035 0-.059-.0373-.021-.04-.021-.0773 0-.048.1013-.14933.104-.104.104-.14133 0-.024-.01-.048-.01-.024-.011-.032-.2.0453-.408.22934-.2054.184-.312.208-.021-.0587-.021-.12 0-.0747.035-.15733.024-.0587.08-.14134.093-.14133.1973-.32.053-.0933.184-.32267.1334-.22933.1947-.32533.032-.048.056-.072.035-.032.083-.0427.032.0107.045.04.016.0293.016.0693 0 .0907-.1173.24533-.2134.27733-.2187.288-.12.18133-.12.328l.01.0267q.1467-.072.1734-.0827.1093-.0453.1866-.0453.085 0 .1254.0587.04.056.04.14401z"/><path d="m1434.6483 430.85983q0 .0907-.2106.16-.2107.0693-.4187.13333-.2453.0987-.304.24534.1547.0907.2613.14133.128.0613.272.112.043.0133.08.0587.037.0453.037.0907 0 .0533-.035.0827-.032.0267-.088.0267-.099 0-.4773-.224-.3894-.232-.3894-.312 0-.0987.3307-.26667.3307-.168.864-.352l.069.0693z"/><path d="m1435.8617 430.63583q0 .0853-.053.15467-.051.0693-.104.14133 0 .0427.075.17333.075.13067.075.216 0 .32001-.304.53067-.2694.18667-.608.18667.021-.016.021-.0453-.056-.072-.064-.0827-.027-.0427-.027-.0987.2694 0 .376-.032.1627-.048.3067-.224.045-.0533.08-.12267.037-.072.037-.13066 0-.072-.061-.10134-.061-.0293-.1653-.0293-.059 0-.1574.0107-.099.0107-.12.0107-.053 0-.091-.0293-.035-.032-.035-.0827 0-.0667.3173-.22666.184-.0933.2507-.168-.051-.024-.112-.0347-.059-.0133-.1253-.0133-.072 0-.16.0187-.2134.0453-.2507.0453l-.059-.0213q-.016-.0213-.027-.0453-.011-.0267-.011-.0507 0-.088.1707-.13866.128-.0373.2506-.0373.312 0 .4427.0533.1307.0507.1307.17333z"/><path d="m1439.0457 430.6705q-.035.032-.064.04-.029.005-.088.005-.1174 0-.2774-.0267-.3706-.0613-.4613-.0613-.112 0-.1493.29867-.019.14133-.032.552-.011.408-.051.49067l-.056.0293q-.1253-.032-.1253-.16267 0-.13333.08-.648.037-.24.037-.39467 0-.176-.2107-.224-.1973-.024-.392-.048-.2106-.0427-.2106-.20266 0-.0347.032-.0587.032-.024.069-.024.067 0 .16.032.136.0453.1547.0507.08.0187.5173.056.4373.0373.672.088.3387.0747.3947.208z"/><path d="m1439.4697 431.33183q0 .0853-.045.18134-.043.096-.1093.16v-.0373q0-.032.01-.0987.01-.0667.01-.0987 0-.0453-.013-.0667-.013-.024-.056-.024-.1253 0-.312.19467-.2027.21333-.4027.424-.016 0-.032-.003-.04-.0107-.053-.0133.01-.096.067-.21333.1573-.31734.1626-.33867.021-.0853.032-.12534.011-.04.029-.0827.021-.0453.048-.08.029-.0373.075-.056l.027.32q.1147-.0933.176-.144.1173-.0933.2027-.0933.085 0 .1386.056.053.056.053.13867z"/><path d="m1440.403 430.87316q0 .0347-.01.0693-.01.0347-.019.112l-.048-.0453q-.013.003-.043.0213-.029.0187-.048.024-.01-.04-.011-.0933-.01-.056-.01-.0693 0-.12267.085-.20533h.048q.021.0533.032.096.013.0427.013.0907zm-.2667.4q0 .168-.192.45601-.192.288-.3546.35733-.016-.04-.024-.0667-.01-.0267-.01-.0613 0-.088.093-.21867.072-.10133.1466-.20266.072-.13334.1334-.21601.104-.13866.1893-.152.013.0587.013.104z"/><path d="m1441.443 431.0865q0 .0533-.037.0827-.035.0267-.091.0267-.059 0-.1547-.0933-.096-.0933-.1333-.0933-.144 0-.3307.18667-.1866.18667-.1866.328 0 .11734.1066.19467.096.0693.2214.0693.048 0 .16-.0133.1146-.016.1493-.016.072 0 .1333.032.061.0293.061.0933 0 .056-.04.0773-.04.0213-.1014.0213-.048 0-.096 0-.048 0-.096.003-.408 0-.544-.12267-.1226-.112-.1226-.34667 0-.30133.184-.456.12-.10133.384-.176.264-.0747.3253-.128.067.0347.136.14667.072.10933.072.184z"/><path d="m1442.395 430.87316q0 .0347-.01.0693-.01.0347-.019.112l-.048-.0453q-.013.003-.043.0213-.029.0187-.048.024-.01-.04-.011-.0933-.01-.056-.01-.0693 0-.12267.085-.20533h.048q.021.0533.032.096.013.0427.013.0907zm-.2667.4q0 .168-.192.45601-.192.288-.3546.35733-.016-.04-.024-.0667-.01-.0267-.01-.0613 0-.088.093-.21867.072-.10133.1466-.20266.072-.13334.1334-.21601.104-.13866.1893-.152.013.0587.013.104z"/><path d="m1443.7817 431.90517q-.075.032-.1387.048-.061.016-.1333.016-.1067 0-.176-.0587-.067-.0587-.1067-.168-.1307.10667-.2667.176-.1733.088-.3066.088-.168 0-.2534-.14667-.069-.12-.069-.30133 0-.27734.1653-.488.1787-.22934.4507-.22934.208 0 .288.13067.045.0747.085.312l.1387-.208q.067.0613.067.144 0 .0667-.04.16-.088.20534-.088.26134 0 .0827.048.144.051.0587.1306.0587.035 0 .099-.0133.064-.016.085-.0187 0 .016.01.0507.011.032.013.0427zm-.4827-.58934v-.032q-.048.0213-.067.0293-.019.005-.048.005-.045 0-.1014-.14934-.056-.14933-.2186-.14933-.1734 0-.3067.216-.1173.192-.1173.376 0 .11734.056.18134.059.064.176.064.2026 0 .4106-.168.2187-.17867.2187-.37334z"/><path d="m1446.7443 430.45983q0 .064-.1253.32533-.077.16267-.088.192-.168.48-.2507.62401-.2106.37066-.5093.37066-.1253 0-.176-.256-.027-.15733-.035-.20266-.096.13866-.1893.27733-.1547.20533-.2373.20533-.1174 0-.1494-.34133-.011-.112-.011-.29334 0-.0613 0-.08 0-.0507 0-.17866 0-.13067 0-.20267 0-.23467.013-.336.013-.10133.048-.2.1013.024.136.12533.024.0693.024.20267 0 .0427 0 .064 0 .088-.016.30133-.013.21334-.013.28 0 .088.01.14934.01.0587.024.14133.091-.0613.272-.4.077-.14133.1413-.16533.093.0373.136.29066.056.32534.077.36801.2214-.12267.376-.38667.083-.14134.2267-.51467.1307-.34133.232-.50133.035 0 .064.0507.029.048.029.0907z"/><path d="m1448.0377 431.90517q-.075.032-.1387.048-.061.016-.1333.016-.1067 0-.176-.0587-.067-.0587-.1067-.168-.1307.10667-.2667.176-.1733.088-.3066.088-.168 0-.2534-.14667-.069-.12-.069-.30133 0-.27734.1653-.488.1787-.22934.4507-.22934.208 0 .288.13067.045.0747.085.312l.1387-.208q.067.0613.067.144 0 .0667-.04.16-.088.20534-.088.26134 0 .0827.048.144.051.0587.1306.0587.035 0 .099-.0133.064-.016.085-.0187 0 .016.01.0507.011.032.013.0427zm-.4827-.58934v-.032q-.048.0213-.067.0293-.019.005-.048.005-.045 0-.1014-.14934-.056-.14933-.2186-.14933-.1734 0-.3067.216-.1173.192-.1173.376 0 .11734.056.18134.059.064.176.064.2026 0 .4106-.168.2187-.17867.2187-.37334z"/><path d="m1448.955 430.40916q0 .17867-.176.536-.1653.32267-.3307.64267-.1786.376-.1786.58934-.069-.0187-.1094-.0613-.037-.0427-.037-.112 0-.0507.013-.104.016-.056.04-.112.048-.13066.1307-.296.2187-.43733.2373-.48267.128-.31733.256-.63466.021-.0427.048-.072.029-.032.067-.0533.04.0773.04.16z"/><path d="m1450.2244 430.83583q0 .064-.168.22667-.1414.13866-.3414.296-.16.12533-.2667.2.12.11467.2427.22933.128.14134.128.29867-.085-.016-.1627-.112-.093-.11467-.1386-.13867-.152-.0747-.192-.0987-.1067-.0613-.1787-.13067-.027.0533-.037.12267-.01.0693-.01.14933 0 .0613 0 .0933-.1867-.0213-.1867-.20266 0-.0907.099-.38134.1013-.29067.2213-.552.1307-.28267.192-.312.029.0747.029.152 0 .10933-.1626.47467-.077.17333-.077.29066v.048q.208-.14666.344-.25066.2-.15467.3254-.27467.1573-.152.28-.32267.024.0613.035.096.024.0667.024.0987zm-1.0134.66667q-.016.0133-.056.0507-.037.0347-.037.0427l.029-.0133.021.003q.027-.005.027-.0133 0-.024-.011-.032.013-.0267.027-.0373z"/><path d="m1451.491 431.0225q0 .112-.2986.296-.288.176-.4187.176-.061 0-.083-.0427-.019-.0427-.019-.12 0-.0507 0-.072.1786 0 .3253-.0533.1467-.0533.256-.176-.08-.0293-.1627-.0293-.1946 0-.4133.14934-.24.16266-.24.34667 0 .176.24.24533.037.0107.4507.0747.2426.0373.2426.13066 0 .04-.088.064-.088.0267-.224.0267-.3413 0-.5386-.104-.2614-.13867-.2614-.44534 0-.32.32-.50933.272-.16.6187-.16.104 0 .1893.048.104.0587.104.15467z"/><path d="m1452.611 431.33183q0 .0853-.045.18134-.043.096-.1093.16v-.0373q0-.032.01-.0987.01-.0667.01-.0987 0-.0453-.013-.0667-.013-.024-.056-.024-.1254 0-.312.19467-.2027.21333-.4027.424-.016 0-.032-.003-.04-.0107-.053-.0133.01-.096.067-.21333.1574-.31734.1627-.33867.021-.0853.032-.12534.011-.04.029-.0827.021-.0453.048-.08.029-.0373.075-.056l.027.32q.1146-.0933.176-.144.1173-.0933.2026-.0933.085 0 .1387.056.053.056.053.13867z"/><path d="m1454.7764 430.62783q0 .12533-.1334.336-.085.13333-.28.384-.1946.248-.2426.32534.01.003.2.064.1946.0587.1946.21333-.08.0133-.1573.024l-.029-.003v-.0213q-.043-.0107-.069-.0107-.051 0-.16.016-.1093.016-.1653.016-.072 0-.1173-.0267-.045-.0267-.045-.096 0-.056.2054-.31734.384-.488.3866-.49333.208-.28267.208-.37867 0-.0373-.027-.056-.024-.0187-.099-.0187-.051 0-.2107.0987-.077.048-.1253.048l-.045-.008q-.016-.0107-.035-.04-.019-.032-.019-.0507 0-.112.216-.20533.184-.08.32-.08.1147 0 .176.0853.053.0747.053.19467z"/><path d="m1456.379 431.10783q0 .32267-.3493.57067-.32.22667-.6587.22667-.168 0-.2666-.0853-.099-.0853-.099-.248 0-.36267.3173-.62933.3014-.25334.6747-.25334.1893 0 .2853.112.096.112.096.30667zm-.1626.0613q0-.12266-.1387-.184-.104-.0453-.248-.0453-.2107 0-.44.20533-.2293.20534-.2293.41334 0 .0853.043.12267.045.0347.136.0347.2614 0 .544-.144.3334-.17067.3334-.40267z"/><path d="m1457.6004 430.62783q0 .12533-.1334.336-.085.13333-.28.384-.1946.248-.2426.32534.01.003.2.064.1946.0587.1946.21333-.08.0133-.1573.024l-.029-.003v-.0213q-.043-.0107-.069-.0107-.051 0-.16.016-.1093.016-.1653.016-.072 0-.1173-.0267-.045-.0267-.045-.096 0-.056.2054-.31734.384-.488.3866-.49333.208-.28267.208-.37867 0-.0373-.027-.056-.024-.0187-.099-.0187-.051 0-.2107.0987-.077.048-.1253.048l-.045-.008q-.016-.0107-.035-.04-.019-.032-.019-.0507 0-.112.216-.20533.184-.08.32-.08.1147 0 .176.0853.053.0747.053.19467z"/><path d="m1458.827 430.62783q0 .12533-.1333.336-.085.13333-.28.384-.1947.248-.2427.32534.01.003.2.064.1947.0587.1947.21333-.08.0133-.1573.024l-.029-.003v-.0213q-.043-.0107-.069-.0107-.051 0-.16.016-.1093.016-.1653.016-.072 0-.1174-.0267-.045-.0267-.045-.096 0-.056.2053-.31734.384-.488.3867-.49333.208-.28267.208-.37867 0-.0373-.027-.056-.024-.0187-.099-.0187-.051 0-.2107.0987-.077.048-.1253.048l-.045-.008q-.016-.0107-.035-.04-.019-.032-.019-.0507 0-.112.216-.20533.184-.08.32-.08.1147 0 .176.0853.053.0747.053.19467z"/></g><g fill="none"><g stroke="#f4f4f4"><rect height="432.40314" rx="10.2918" ry="10.291798" stroke-width="2.6" width="1512.4474" x="1.00001" y="1.1121"/><g stroke-width="1.3" transform="translate(544.12098 133.19024)"><g stroke-linecap="round"><path d="m622.35675 172.79398h93.968193v12.562985h-93.968193z"/><path d="m622.35675 195.78844h93.968163v11.560596h-93.968163z"/><path d="m622.35675 216.99271h93.968193v13.827494h-93.968193z"/><path d="m774.21289 207.79405h113.32178v24.689587h-113.32178z"/><path d="m809.45782 172.94664h40.582348v28.595446h-40.582348z"/><path d="m781.96265 219.21638h66.810081v7.890932h-66.810081z"/></g><path d="m869.1417 208.12674v-28.9411h-19.06189"/><path d="m716.32495 179.18564h92.78215"/><path d="m774.21289 224.16641h-57.88794z"/><path d="m716.32495 201.30733h31.388v14.19474h26.49994"/><path d="m854.23865 212.16473h28.207228v16.098629h-28.207228z" stroke-linecap="round"/></g><g stroke-linecap="round" stroke-width="1.3"><rect height="25.957619" rx="2.052046" width="6.513081" x="692.51917" y="1.00001"/><rect height="25.957619" rx="2.052046" width="6.513081" x="707.83686" y=".99999"/><rect height="25.957619" rx="2.052046" width="6.513081" x="738.51917" y="1.00001"/><rect height="25.957619" rx="2.052046" width="6.513081" x="723.83686" y=".99999"/><rect height="25.957619" rx="2.052046" width="6.513081" x="754.51917" y="1.00001"/><rect height="25.957619" rx="2.052046" width="6.513081" x="769.83686" y=".99999"/><rect height="25.957619" rx="2.052046" width="6.513081" x="800.51917" y="1.00001"/><rect height="25.957619" rx="2.052046" width="6.513081" x="785.83686" y=".99999"/><rect height="25.957619" rx="2.052046" width="6.513081" x="816.51917" y="1.00001"/><rect height="25.957619" rx="2.052046" width="6.513081" x="831.83686" y=".99999"/><rect height="25.957619" rx="2.052046" width="6.513081" x="862.51926" y="1.00001"/><rect height="25.957619" rx="2.052046" width="6.513081" x="847.83686" y=".99999"/><rect height="25.957619" rx="2.052046" width="6.513081" x="878.51926" y="1.00001"/><rect height="25.957619" rx="2.052046" width="6.513081" x="893.83686" y=".99999"/><rect height="25.957619" rx="2.052046" width="6.513081" x="924.51926" y="1.00001"/><rect height="25.957619" rx="2.052046" width="6.513081" x="909.83686" y=".99999"/><rect height="25.957619" rx="2.052046" width="6.513081" x="940.51926" y="1.00001"/><rect height="25.957619" rx="2.052046" width="6.513081" x="955.83686" y=".99999"/><rect height="25.957619" rx="2.052046" width="6.513081" x="986.51926" y="1.00001"/><rect height="25.957619" rx="2.052046" width="6.513081" x="971.83686" y=".99999"/><rect height="25.957619" rx="2.052046" width="6.513081" x="1002.51926" y="1.00001"/><rect height="25.957619" rx="2.052046" width="6.513081" x="1017.83686" y=".99999"/><rect height="25.957619" rx="2.052046" width="6.513081" x="1048.51926" y="1.00001"/><rect height="25.957619" rx="2.052046" width="6.513081" x="1033.83686" y=".99999"/><rect height="25.957619" rx="2.052046" width="6.513081" x="1064.51926" y="1.00001"/><rect height="25.957619" rx="2.052046" width="6.513081" x="1079.83686" y=".99999"/><rect height="25.957619" rx="2.052046" width="6.513081" x="1110.51926" y="1.00001"/><rect height="25.957619" rx="2.052046" width="6.513081" x="1095.83686" y=".99999"/><rect height="25.957619" rx="2.052046" width="6.513081" x="1126.51926" y="1.00001"/><rect height="25.957619" rx="2.052046" width="6.513081" x="1141.83686" y=".99999"/><rect height="25.957619" rx="2.052046" width="6.513081" x="1172.51926" y="1.00001"/><rect height="25.957619" rx="2.052046" width="6.513081" x="1157.83686" y=".99999"/><rect height="25.957619" rx="2.052046" width="6.513081" x="1188.51926" y="1.00001"/><rect height="25.957619" rx="2.052046" width="6.513081" x="1203.83686" y=".99999"/><rect height="25.957619" rx="2.052046" width="6.513081" x="1234.51926" y="1.00001"/><rect height="25.957619" rx="2.052046" width="6.513081" x="1219.83686" y=".99999"/><rect height="25.957619" rx="2.052046" width="6.513081" x="1250.51926" y="1.00001"/><rect height="25.957619" rx="2.052046" width="6.513081" x="1265.83686" y=".99999"/><rect height="25.957619" rx="2.052046" width="6.513081" x="1296.51926" y="1.00001"/><rect height="25.957619" rx="2.052046" width="6.513081" x="1281.83686" y=".99999"/><rect height="25.957619" rx="2.052046" width="6.513081" x="1312.51926" y="1.00001"/><rect height="25.957619" rx="2.052046" width="6.513081" x="1327.83686" y=".99999"/><rect height="25.957619" rx="2.052046" width="6.513081" x="1358.51926" y="1.00001"/><rect height="25.957619" rx="2.052046" width="6.513081" x="1343.83686" y=".99999"/><rect height="25.957619" rx="2.052046" width="6.513081" x="1374.51926" y="1.00001"/><rect height="25.957619" rx="2.052046" width="6.513081" x="1389.83686" y=".99999"/><rect height="25.957619" rx="2.052046" width="6.513081" x="1420.51926" y="1.00001"/><rect height="25.957619" rx="2.052046" width="6.513081" x="1405.83686" y=".99999"/><rect height="25.957619" rx="2.052046" width="6.513081" x="1436.51926" y="1.00001"/><rect height="25.957619" rx="2.052046" width="6.513081" x="1451.83686" y=".99999"/><rect height="25.957619" rx="2.052046" width="6.513081" x="55.83686" y=".99999"/><rect height="25.957619" rx="2.052046" width="6.513081" x="86.51923" y="1.00001"/><rect height="25.957619" rx="2.052046" width="6.513081" x="71.83686" y=".99999"/><rect height="25.957619" rx="2.052046" width="6.513081" x="102.51923" y="1.00001"/><rect height="25.957619" rx="2.052046" width="6.513081" x="117.83686" y=".99999"/><rect height="25.957619" rx="2.052046" width="6.513081" x="148.51923" y="1.00001"/><rect height="25.957619" rx="2.052046" width="6.513081" x="133.83686" y=".99999"/><rect height="25.957619" rx="2.052046" width="6.513081" x="164.51923" y="1.00001"/><rect height="25.957619" rx="2.052046" width="6.513081" x="179.83686" y=".99999"/><rect height="25.957619" rx="2.052046" width="6.513081" x="210.51923" y="1.00001"/><rect height="25.957619" rx="2.052046" width="6.513081" x="195.83686" y=".99999"/><rect height="25.957619" rx="2.052046" width="6.513081" x="226.51923" y="1.00001"/><rect height="25.957619" rx="2.052046" width="6.513081" x="241.83686" y=".99999"/><rect height="25.957619" rx="2.052046" width="6.513081" x="272.51923" y="1.00001"/><rect height="25.957619" rx="2.052046" width="6.513081" x="257.83686" y=".99999"/><rect height="25.957619" rx="2.052046" width="6.513081" x="288.51923" y="1.00001"/><rect height="25.957619" rx="2.052046" width="6.513081" x="303.83686" y=".99999"/><rect height="25.957619" rx="2.052046" width="6.513081" x="334.51923" y="1.00001"/><rect height="25.957619" rx="2.052046" width="6.513081" x="319.83686" y=".99999"/><rect height="25.957619" rx="2.052046" width="6.513081" x="350.51923" y="1.00001"/><rect height="25.957619" rx="2.052046" width="6.513081" x="365.83686" y=".99999"/><rect height="25.957619" rx="2.052046" width="6.513081" x="396.51923" y="1.00001"/><rect height="25.957619" rx="2.052046" width="6.513081" x="381.83686" y=".99999"/><rect height="25.957619" rx="2.052046" width="6.513081" x="412.51923" y="1.00001"/><rect height="25.957619" rx="2.052046" width="6.513081" x="427.83686" y=".99999"/><rect height="25.957619" rx="2.052046" width="6.513081" x="458.51923" y="1.00001"/><rect height="25.957619" rx="2.052046" width="6.513081" x="443.83686" y=".99999"/><rect height="25.957619" rx="2.052046" width="6.513081" x="474.51923" y="1.00001"/><rect height="25.957619" rx="2.052046" width="6.513081" x="489.83686" y=".99999"/><rect height="25.957619" rx="2.052046" width="6.513081" x="520.51923" y="1.00001"/><rect height="25.957619" rx="2.052046" width="6.513081" x="505.83686" y=".99999"/><rect height="25.957619" rx="2.052046" width="6.513081" x="536.51923" y="1.00001"/><rect height="25.957619" rx="2.052046" width="6.513081" x="551.83686" y=".99999"/><rect height="25.957619" rx="2.052046" width="6.513081" x="582.51923" y="1.00001"/><rect height="25.957619" rx="2.052046" width="6.513081" x="567.83686" y=".99999"/><rect height="25.957619" rx="2.052046" width="6.513081" x="598.51923" y="1.00001"/><rect height="25.957619" rx="2.052046" width="6.513081" x="613.83686" y=".99999"/><rect height="25.957619" rx="2.052046" width="6.513081" x="644.51923" y="1.00001"/><rect height="25.957619" rx="2.052046" width="6.513081" x="629.83686" y=".99999"/><rect height="25.957619" rx="2.052046" width="6.513081" x="660.51923" y="1.00001"/><rect height="25.957619" rx="2.052046" width="6.513081" x="675.83686" y=".99999"/></g><g stroke-width="1.95" transform="translate(545.70913 133.19024)"><path d="m811.86583 77.42589v18.803441l-3.44551.000001-106.64386-.000001h-2.72867v-18.803441"/><path d="m782.08581 77.42589v18.803441"/><path d="m776.5824 90.252442v5.976889"/><path d="m771.29171 90.252442v5.976889"/><path d="m766.02701 90.252442v5.976889"/><path d="m760.88329 90.252442v5.976889"/><path d="m755.24347 77.42589v26.89384"/><path d="m750.14467 90.252442v5.976889"/><path d="m744.85398 90.252442v5.976889"/><path d="m739.58928 90.252442v5.976889"/><path d="m734.01098 90.252442v5.976889"/><path d="m728.97127 77.42589v18.803441"/><path d="m806.29797 87.93369h11.0432"/><path d="m693.47993 87.93369h11.0432"/></g><g stroke-width="2.6"><g transform="translate(-163.63604 -166.74735)"><rect height="15.047355" rx="3.15699" stroke-linecap="round" width="266.41949" x="1330.1138" y="425.44638"/><circle cx="1408.1985" cy="348.06079" r="11.5" stroke-linecap="round"/><rect height="34.468258" rx="3.15699" width="64.989258" x="1432.6934" y="331.48715"/><path d="m1307.2432 377.36348h315.3463"/><path d="m1306.5173 265.11609h316.20184v190.27242h-316.20184z"/><rect height="122.40376" rx="1.722496" width="316.20181" x="1306.5173" y="254.95972"/><circle cx="1520.9031" cy="348.42227" r="11.5" stroke-linecap="round"/></g><rect height="71.826347" rx="5.634117" width="316.20184" x="1142.88126" y="299.03952"/><rect height="19.025469" rx="3.156993" width="66.624779" x="1191.29656" y="57.38369"/></g></g><g stroke-linecap="round"><ellipse cx="846.50256" cy="83.04383" rx="5.42258" ry="5.42258" stroke="#fff4f4" stroke-width="1.3"/><rect height="63.188751" rx="2.05205" stroke="#f4f4f4" stroke-width="2.6" width="790.90448" x="89.4703" y="62.07968"/><rect height="20.879948" rx="1.857534" stroke="#f4f4f4" stroke-width="2.6" width="57.841461" x="743.25715" y="95.06109"/><g stroke="#f4f4f4" stroke-width="2.6"><rect height="46" rx="3.15699" width="46" x="1196.86816" y="379.40914"/><rect height="46" rx="3.15699" width="46" x="1142.86816" y="379.40914"/><rect height="46" rx="3.15699" width="46" x="1304.86816" y="379.40914"/><rect height="46" rx="3.15699" width="46" x="1250.86816" y="379.40914"/><rect height="46" rx="3.15699" width="46" x="1412.86816" y="379.40914"/><rect height="46" rx="3.15699" width="46" x="1358.86816" y="379.40914"/></g><g stroke="#f4f4f4" stroke-width="2.6"><rect height="41" rx="3.15699" width="41" x="1037.09856" y="257.25726"/><rect height="41" rx="3.15699" width="41" x="985.09856" y="257.25726"/><rect height="41" rx="3.15699" width="41" x="933.09856" y="257.25726"/><rect height="41" rx="3.15699" width="41" x="1037.09856" y="205.25726"/><rect height="41" rx="3.15699" width="41" x="985.09856" y="205.25726"/><rect height="41" rx="3.15699" width="41" x="933.09856" y="205.25726"/><rect height="41" rx="3.15699" width="41" x="1037.09856" y="361.25729"/><rect height="41" rx="3.15699" width="41" x="985.09856" y="361.25729"/><rect height="41" rx="3.15699" width="41" x="933.09856" y="361.25729"/><rect height="41" rx="3.15699" width="41" x="1037.09856" y="309.25726"/><rect height="41" rx="3.15699" width="41" x="985.09856" y="309.25726"/><rect height="41" rx="3.15699" width="41" x="933.09856" y="309.25726"/></g><g stroke="#f4f4f4" stroke-width="2.6"><rect height="41" rx="3.15699" width="41" x="985.09856" y="141.25726"/><rect height="41" rx="3.15699" width="41" x="1037.09856" y="89.25726"/><rect height="41" rx="3.15699" width="41" x="985.09856" y="89.25726"/><rect height="41" rx="3.15699" width="41" x="933.09856" y="89.25726"/><rect height="41" rx="3.15699" width="41" x="985.09856" y="37.25726"/></g><g stroke="#f4f4f4" stroke-width="2.6"><rect height="41" rx="3.156991" ry="3.15699" width="456.99991" x="255.09873" y="359.25726"/><rect height="41" rx="3.15699" width="41" x="723.09864" y="359.25726"/></g><g stroke="#f4f4f4" stroke-width="2.6"><rect height="41" rx="3.15699" width="41" x="515.09864" y="309.25726"/><rect height="41" rx="3.15699" width="41" x="463.09864" y="309.25726"/><rect height="41" rx="3.15699" width="41" x="411.09864" y="309.25726"/><rect height="41" rx="3.15699" width="41" x="359.09864" y="309.25726"/><rect height="41" rx="3.15699" width="41" x="307.09864" y="309.25726"/><rect height="41" rx="3.15699" width="41" x="255.09864" y="309.25726"/><rect height="41" rx="3.15699" width="41" x="203.09864" y="309.25726"/><rect height="41" rx="3.15699" width="102.62834" x="89.47028" y="309.25726"/><rect height="41" rx="3.15699" width="105.27615" x="775.09864" y="309.25726"/><rect height="41" rx="3.15699" width="41" x="723.09864" y="309.25726"/><rect height="41" rx="3.15699" width="41" x="671.09864" y="309.25726"/><rect height="41" rx="3.15699" width="41" x="619.09864" y="309.25726"/><rect height="41" rx="3.15699" width="41" x="567.09864" y="309.25726"/></g><g stroke="#f4f4f4" stroke-width="2.6" transform="translate(-163.63604 -166.74735)"><rect height="41" rx="3.15699" width="41" x="704.73468" y="424.00461"/><rect height="41" rx="3.15699" width="41" x="652.73468" y="424.00461"/><rect height="41" rx="3.15699" width="41" x="600.73468" y="424.00461"/><rect height="41" rx="3.15699" width="41" x="548.73468" y="424.00461"/><rect height="41" rx="3.15699" width="41" x="496.73468" y="424.00461"/><rect height="41" rx="3.15699" width="41" x="444.73468" y="424.00461"/><rect height="41" rx="3.15699" width="41" x="392.73468" y="424.00461"/><rect height="41" rx="3.15699" width="41" x="340.73468" y="424.00461"/><rect height="41" rx="3.15699" width="76.628342" x="253.10634" y="424.00461"/><rect height="41" rx="3.15699" width="41" x="912.73468" y="424.00461"/><rect height="41" rx="3.15699" width="41" x="860.73468" y="424.00461"/><rect height="41" rx="3.15699" width="41" x="808.73468" y="424.00461"/><rect height="41" rx="3.15699" width="41" x="756.73468" y="424.00461"/><path d="m964.75678 421.56351-.0221 5.59809v34.68602c0 1.74897 1.40802 3.15699 3.15699 3.15699h72.96213c1.749 0 3.157-1.40802 3.157-3.15699v-34.68602l.0001-17.31398v-34.68602c0-1.74897-1.408-3.15699-3.157-3.15699h-86.96217c-1.74897 0-3.15699 1.40802-3.15699 3.15699v34.68602c0 1.74897 1.40802 3.15699 3.15699 3.15699h4.1897l3.49625-.0188c1.749 0 3.157 1.40802 3.157 3.15699z"/></g><g stroke="#f4f4f4" stroke-width="2.6"><rect height="41" rx="3.15699" width="41" x="527.09864" y="205.25726"/><rect height="41" rx="3.15699" width="41" x="475.09864" y="205.25726"/><rect height="41" rx="3.15699" width="41" x="423.09864" y="205.25726"/><rect height="41" rx="3.15699" width="41" x="371.09864" y="205.25726"/><rect height="41" rx="3.15699" width="41" x="319.09864" y="205.25726"/><rect height="41" rx="3.15699" width="41" x="267.09864" y="205.25726"/><rect height="41" rx="3.15699" width="41" x="215.09864" y="205.25726"/><rect height="41" rx="3.15699" width="41" x="163.09864" y="205.25726"/><rect height="41" rx="3.15699" width="62.628345" x="89.47028" y="205.25726"/><rect height="41" rx="3.15699" width="41" x="735.09864" y="205.25726"/><rect height="41" rx="3.15699" width="41" x="683.09864" y="205.25726"/><rect height="41" rx="3.15699" width="41" x="631.09864" y="205.25726"/><rect height="41" rx="3.15699" width="41" x="579.09864" y="205.25726"/></g><g stroke="#f4f4f4" stroke-width="2.6"><rect height="41" rx="3.15699" width="41" x="554.130816" y="153.25726"/><rect height="41" rx="3.15699" width="41" x="502.130816" y="153.25726"/><rect height="41" rx="3.15699" width="41" x="450.130816" y="153.25726"/><rect height="41" rx="3.15699" width="41" x="398.130816" y="153.25726"/><rect height="41" rx="3.15699" width="41" x="346.130816" y="153.25726"/><rect height="41" rx="3.15699" width="41" x="294.130816" y="153.25726"/><rect height="41" rx="3.15699" width="41" x="242.130816" y="153.25726"/><rect height="41" rx="3.15699" width="41" x="190.130816" y="153.25726"/><rect height="41" rx="3.15699" width="66.243973" x="814.130816" y="153.25726"/><rect height="41" rx="3.15699" width="41" x="762.130816" y="153.25726"/><rect height="41" rx="3.15699" width="41" x="710.130816" y="153.25726"/><rect height="41" rx="3.15699" width="41" x="658.130816" y="153.25726"/><rect height="41" rx="3.15699" width="41" x="606.130816" y="153.25726"/><rect height="41" rx="3.15699" width="39.527756" x="139.603076" y="153.25726"/><rect height="41" rx="3.15699" width="39.527756" x="89.470296" y="153.25726"/></g><rect height="9.1" rx=".524598" stroke="#f4f4f4" stroke-width="1.3" width="9.1" x="1242.83396" y="62.31568"/></g></g></svg>