<svg height="351.53839" viewBox="0 0 505.06294 878.84598" width="202.02518" xmlns="http://www.w3.org/2000/svg"><g fill="#f4f4f4" fill-opacity=".5" stroke-width="2.5"><path d="m280.92033 476.38743q0 .8-.19333 1.34667-.28667.81334-.92001.81334-.42 0-.88-.19334-.55333-.23333-.60667-.57333.18667 0 .44001.0667.58666.15334.73333.15334.56667 0 .85334-.56667.22666-.45333.22666-1.08667 0-.44667-.29333-1.27333-.28667-.83334-.28667-1.16001 0-.1.0533-.16.06-.0667.16-.0667.26001 0 .50667 1.2.20667 1.01333.20667 1.5z"/><path d="m283.48701 477.06743q0 .68-.39334 1.06667-.39333.38667-1.08667.38667-.38 0-.58667-.18-.20666-.18-.20666-.55334 0-.52666.68667-1.06.65333-.50667 1.20666-.50667.25334 0 .33334.31334.0467.18.0467.53333zm-.40667.18667q0-.08-.02-.15333-.0133-.08-.0533-.18-.10666.0733-.35333.36-.12667.14666-.22.21333 0-.12667.0267-.20667.0533-.11333.0867-.19333-.29333 0-.61333.24667-.31333.24666-.31333.53333 0 .19333.21333.19333.40667 0 .78667-.2.46-.24.46-.61333z"/><path d="m286.23368 477.34077q0 .32666-.24667.73333-.28.46-.58.46-.0867 0-.14667-.0933-.0533-.1-.0533-.19334 0-.12.25333-.37333.26-.26.26-.35333 0-.06-.02-.12-.02-.06-.0267-.08-.5.11333-1.02001.57333-.51333.46-.78.52-.0533-.14667-.0533-.3 0-.18667.0867-.39333.06-.14667.2-.35334.23333-.35333.49333-.8.13333-.23333.46-.80667.33334-.57333.48667-.81333.08-.12.14-.18.0867-.08.20667-.10667.08.0267.11333.1.04.0733.04.17333 0 .22667-.29333.61334-.53334.69333-.54667.72-.3.45334-.3.82l.0133.0667q.36667-.18.43334-.20667.27333-.11333.46666-.11333.21334 0 .31334.14667.1.14.1.36z"/><path d="m289.32702 476.94743q0 .45334-.22.96667-.24.56667-.59333.78-.0733-.0867-.12667-.19333-.0467-.10667-.0467-.21334 0-.11333.33334-.67333.14667-.24667.13333-.43333l-.007-.0867q-.24667.0733-.85334.44667-.6.36666-1.21334.74666-.0933 0-.17333-.0667-.0733-.0733-.0733-.16 0-.14.44667-.94.13333-.24.48-.83334.10666.14.14.31333.0333.16667.0333.40001 0 .1 0 .15333.61333-.36667.96-.55334.38-.20666.52-.20666.0933 0 .17334.21333.0867.21334.0867.34z"/><path d="m295.12036 478.24077q0 .12-.10666.18667-.1.06-.22667.06-.11333 0-.28667-.0267-.39333-.06-.50666-.06-.2 0-.78667.0467-.33334.0267-.48.0267-.40667 0-.40667-.40667 0-.38666.25333-1.10666.14-.40667.52667-1.33334.34667-.83334.44-1.17334.0333-.10666.0533-.14.0533-.08.13334-.08.12667 0 .21333.18667.0867.18.0867.32667 0 .23333-.27333.78667-.27334.54666-.53334 1.07333-.28667.62667-.28667.95334 0 .16666.14.23333.1.0467.29334.0467.14666 0 .50667-.0333.36-.04.48-.04.3 0 .49333.0867.27333.12.27333.38667z"/><path d="m297.60037 477.06743q0 .68-.39333 1.06667-.39334.38667-1.08667.38667-.38 0-.58667-.18-.20667-.18-.20667-.55334 0-.52666.68667-1.06.65333-.50667 1.20667-.50667.25333 0 .33333.31334.0467.18.0467.53333zm-.40667.18667q0-.08-.02-.15333-.0133-.08-.0533-.18-.10667.0733-.35334.36-.12666.14666-.22.21333 0-.12667.0267-.20667.0533-.11333.0867-.19333-.29334 0-.61334.24667-.31333.24666-.31333.53333 0 .19333.21333.19333.40667 0 .78667-.2.46-.24.46-.61333z"/><path d="m300.40704 476.92743q0 .21334-.11333.45334-.10667.24-.27333.4l-.007-.0933q0-.08.02-.24666.02-.16667.02-.24667 0-.11333-.0333-.16667-.0333-.06-.14-.06-.31334 0-.78001.48667-.50666.53333-1.00666 1.06-.04 0-.08-.007-.1-.0267-.13333-.0333.02-.24.16667-.53333.39333-.79334.40667-.84667.0533-.21333.08-.31333.0267-.10001.0733-.20667.0533-.11334.12-.2.0733-.0933.18667-.14l.0667.8q.28667-.23333.44-.36.29334-.23334.50667-.23334.21334 0 .34667.14.13333.14001.13333.34667z"/><path d="m303.68039 476.1541q0 .28-.74667.74-.72.44-1.04667.44-.15333 0-.20667-.10667-.0467-.10666-.0467-.3 0-.12666 0-.18.44666 0 .81333-.13333.36667-.13334.64-.44-.2-.0733-.40666-.0733-.48667 0-1.03334.37334-.6.40667-.6.86667 0 .44.6.61333.0933.0267 1.12667.18667.60667.0933.60667.32667 0 .1-.22.16-.22.0667-.56.0667-.85334 0-1.34667-.26-.65334-.34667-.65334-1.11333 0-.80001.8-1.27334.68-.4 1.54667-.4.26 0 .47334.12.26.14667.26.38667z"/><path d="m306.33373 474.96076q0 .14667-.35334.61334-.35333.46666-.35333.71333 0 .12667.14667.25333.33333.29334.33333.36001 0 .0867-.06.16666-.0533.08-.14.08-.0733 0-.20667-.08-.0933-.0533-.36-.26-.1.19334-.15333.29334-.18667.35333-.25333.51333-.1.30667-.2.61333-.17334.41334-.43334.41334l-.007-.15333q0-.47334.30667-1.12001.06-.12.33334-.62-.52667-.28667-1.16001-.28667 0-.24666.1-.36.10667-.12.35334-.12.22667 0 .56667.08.16666.04.33333.08.12667-.04.34667-.43333.54-.94667.73333-1.08667.0533.0867.0867.17333.04.0867.04.16667z"/><path d="m308.79374 477.34077q0 .32666-.24667.73333-.28.46-.58.46-.0867 0-.14667-.0933-.0533-.1-.0533-.19334 0-.12.25334-.37333.26-.26.26-.35333 0-.06-.02-.12-.02-.06-.0267-.08-.5.11333-1.02.57333-.51334.46-.78.52-.0533-.14667-.0533-.3 0-.18667.0867-.39333.06-.14667.2-.35334.23333-.35333.49333-.8.13334-.23333.46-.80667.33334-.57333.48667-.81333.08-.12.14-.18.0867-.08.20667-.10667.08.0267.11333.1.04.0733.04.17333 0 .22667-.29333.61334-.53334.69333-.54667.72-.3.45334-.3.82l.0133.0667q.36667-.18.43334-.20667.27333-.11333.46667-.11333.21333 0 .31333.14667.1.14.1.36z"/><path d="m314.26709 475.16743q0 .31333-.33333.84-.21333.33333-.7.96-.48667.62-.60667.81334.02.007.5.16.48667.14666.48667.53333-.2.0333-.39333.06l-.0733-.007v-.0533q-.10667-.0267-.17333-.0267-.12667 0-.4.04-.27334.04-.41334.04-.18 0-.29333-.0667-.11333-.0667-.11333-.24 0-.14.51333-.79334.96-1.22.96667-1.23333.52-.70667.52-.94667 0-.0933-.0667-.14-.06-.0467-.24666-.0467-.12667 0-.52667.24667-.19334.12-.31334.12l-.11333-.02q-.04-.0267-.0867-.1-.0467-.08-.0467-.12667 0-.28.54-.51333.46-.2.8-.2.28667 0 .44.21333.13333.18667.13333.48667z"/><path d="m318.27376 476.36743q0 .80667-.87333 1.42667-.80001.56667-1.64667.56667-.42 0-.66667-.21334-.24667-.21333-.24667-.62 0-.90667.79334-1.57333.75333-.63334 1.68667-.63334.47333 0 .71333.28.24.28.24.76667zm-.40667.15333q0-.30666-.34666-.46-.26-.11333-.62-.11333-.52667 0-1.10001.51333-.57333.51334-.57333 1.03334 0 .21333.10667.30667.11333.0867.34.0867.65333 0 1.36-.36.83333-.42666.83333-1.00667z"/><path d="m321.32711 475.16743q0 .31333-.33334.84-.21333.33333-.7.96-.48667.62-.60667.81334.02.007.5.16.48667.14666.48667.53333-.2.0333-.39333.06l-.0733-.007v-.0533q-.10666-.0267-.17333-.0267-.12667 0-.4.04-.27333.04-.41333.04-.18 0-.29334-.0667-.11333-.0667-.11333-.24 0-.14.51333-.79334.96-1.22.96667-1.23333.52-.70667.52-.94667 0-.0933-.0667-.14-.06-.0467-.24667-.0467-.12667 0-.52667.24667-.19333.12-.31333.12l-.11334-.02q-.04-.0267-.0867-.1-.0467-.08-.0467-.12667 0-.28.54-.51333.46-.2.8-.2.28667 0 .44.21333.13334.18667.13334.48667z"/><path d="m324.39377 475.16743q0 .31333-.33333.84-.21334.33333-.7.96-.48667.62-.60667.81334.02.007.5.16.48667.14666.48667.53333-.2.0333-.39334.06l-.0733-.007v-.0533q-.10667-.0267-.17333-.0267-.12667 0-.4.04-.27334.04-.41334.04-.18 0-.29333-.0667-.11334-.0667-.11334-.24 0-.14.51334-.79334.96-1.22.96667-1.23333.52-.70667.52-.94667 0-.0933-.0667-.14-.06-.0467-.24667-.0467-.12666 0-.52666.24667-.19334.12-.31334.12l-.11333-.02q-.04-.0267-.0867-.1-.0467-.08-.0467-.12667 0-.28.54-.51333.46-.2.8-.2.28667 0 .44.21333.13333.18667.13333.48667z"/></g><g fill="none" stroke="#f4f4f4" transform="translate(-77.839111 -57.714375)"><g stroke-width="5"><path d="m350.59571 540.06293h55.7673c2.50195 0 4.51616 2.0142 4.51616 4.51615v55.76731c0 2.50195-2.01421 4.51615-4.51616 4.51615h-55.7673c-2.50195 0-4.51615-2.0142-4.51615-4.51615v-55.76731c0-2.50195 2.0142-4.51615 4.51615-4.51615z"/><path d="m446.59571 540.06293h55.7673c2.50195 0 4.51616 2.0142 4.51616 4.51615v55.76731c0 2.50195-2.01421 4.51615-4.51616 4.51615h-55.7673c-2.50195 0-4.51615-2.0142-4.51615-4.51615v-55.76731c0-2.50195 2.0142-4.51615 4.51615-4.51615z"/><path d="m254.59571 540.06293h55.7673c2.50195 0 4.51616 2.0142 4.51616 4.51615v55.76731c0 2.50195-2.01421 4.51615-4.51616 4.51615h-55.7673c-2.50195 0-4.51615-2.0142-4.51615-4.51615v-55.76731c0-2.50195 2.0142-4.51615 4.51615-4.51615z"/><path d="m162.59571 540.06293h55.7673c2.50195 0 4.51616 2.0142 4.51616 4.51615v55.76731c0 2.50195-2.01421 4.51615-4.51616 4.51615h-55.7673c-2.50195 0-4.51615-2.0142-4.51615-4.51615v-55.76731c0-2.50195 2.0142-4.51615 4.51615-4.51615z"/><path d="m350.59571 656.06293h55.7673c2.50195 0 4.51616 2.0142 4.51616 4.51615v55.76731c0 2.50195-2.01421 4.51615-4.51616 4.51615h-55.7673c-2.50195 0-4.51615-2.0142-4.51615-4.51615v-55.76731c0-2.50195 2.0142-4.51615 4.51615-4.51615z"/><path d="m446.59571 656.06293h55.7673c2.50195 0 4.51616 2.0142 4.51616 4.51615v55.76731c0 2.50195-2.01421 4.51615-4.51616 4.51615h-55.7673c-2.50195 0-4.51615-2.0142-4.51615-4.51615v-55.76731c0-2.50195 2.0142-4.51615 4.51615-4.51615z"/><path d="m254.59571 656.06293h55.7673c2.50195 0 4.51616 2.0142 4.51616 4.51615v55.76731c0 2.50195-2.01421 4.51615-4.51616 4.51615h-55.7673c-2.50195 0-4.51615-2.0142-4.51615-4.51615v-55.76731c0-2.50195 2.0142-4.51615 4.51615-4.51615z"/><path d="m162.59571 656.06293h55.7673c2.50195 0 4.51616 2.0142 4.51616 4.51615v55.76731c0 2.50195-2.01421 4.51615-4.51616 4.51615h-55.7673c-2.50195 0-4.51615-2.0142-4.51615-4.51615v-55.76731c0-2.50195 2.0142-4.51615 4.51615-4.51615z"/><path d="m350.59571 776.06293h55.7673c2.50195 0 4.51616 2.0142 4.51616 4.51615v55.76731c0 2.50195-2.01421 4.51615-4.51616 4.51615h-55.7673c-2.50195 0-4.51615-2.0142-4.51615-4.51615v-55.76731c0-2.50195 2.0142-4.51615 4.51615-4.51615z"/><path d="m446.59571 776.06293h55.7673c2.50195 0 4.51616 2.0142 4.51616 4.51615v55.76731c0 2.50195-2.01421 4.51615-4.51616 4.51615h-55.7673c-2.50195 0-4.51615-2.0142-4.51615-4.51615v-55.76731c0-2.50195 2.0142-4.51615 4.51615-4.51615z"/><path d="m254.59571 776.06293h55.7673c2.50195 0 4.51616 2.0142 4.51616 4.51615v55.76731c0 2.50195-2.01421 4.51615-4.51616 4.51615h-55.7673c-2.50195 0-4.51615-2.0142-4.51615-4.51615v-55.76731c0-2.50195 2.0142-4.51615 4.51615-4.51615z"/><path d="m162.59571 776.06293h55.7673c2.50195 0 4.51616 2.0142 4.51616 4.51615v55.76731c0 2.50195-2.01421 4.51615-4.51616 4.51615h-55.7673c-2.50195 0-4.51615-2.0142-4.51615-4.51615v-55.76731c0-2.50195 2.0142-4.51615 4.51615-4.51615z"/></g><g><path d="m472.49541 260.3757a143.52971 143.52911 0 0 1 -143.52971 143.52912 143.52971 143.52911 0 0 1 -143.52971-143.52912 143.52971 143.52911 0 0 1 143.52971-143.52911 143.52971 143.52911 0 0 1 143.52971 143.52911z" stroke-width="5"/><path d="m450.96583 260.37549a122.00025 121.99975 0 0 1 -122.00025 121.99975 122.00025 121.99975 0 0 1 -122.00026-121.99975 122.00025 121.99975 0 0 1 122.00026-121.99975 122.00025 121.99975 0 0 1 122.00025 121.99975z" stroke-width="5"/><g stroke-width="2.5"><path d="m330.49219 153.90625-16.29297 16.05078-.0488 15.51172 16.27149-16.01367 16.39453 16.01367-.0937-15.4668zm-6.64063 30.2207v20.23828h4.47852v-20.23828zm8.95899 0v20.23828h4.48047v-20.23828z"/><path d="m330.47641 366.26372 16.29297-16.05078.0488-15.51172-16.27149 16.01367-16.39453-16.01367.0937 15.4668zm6.64063-30.2207v-20.23828h-4.47852v20.23828zm-8.95899 0v-20.23828h-4.48047v20.23828z"/><path d="m435.71435 260.45718-16.05101-16.29321-15.51194-.0488 16.0139 16.27173-16.0139 16.39476 15.46702-.0937zm-30.22113-6.64073h-20.23857v4.47859h20.23857zm0 8.95912h-20.23857v4.48053h20.23857z"/><path d="m223.35616 260.44139 16.05101 16.29321 15.51194.0488-16.0139-16.27173 16.0139-16.39476-15.46702.0937zm30.22113 6.64073h20.23857v-4.47859h-20.23857zm0-8.95912h20.23857v-4.48053h-20.23857z"/></g></g><g stroke-width="5"><path d="m85.574971 58.714375h489.591239c3.73167 0 6.73586 3.004193 6.73586 6.735859v863.374286c0 3.73167-3.00419 6.73586-6.73586 6.73586h-489.591239c-3.731666 0-6.73586-3.00419-6.73586-6.73586v-863.374286c0-3.731666 3.004194-6.735859 6.73586-6.735859z"/><path d="m97.814754 80.635529h465.111686c3.54508 0 6.39907 2.853983 6.39907 6.399066v820.205585c0 3.54509-2.85399 6.39907-6.39907 6.39907h-465.111686c-3.545083 0-6.399066-2.85398-6.399066-6.39907v-820.205585c0-3.545083 2.853983-6.399066 6.399066-6.399066z"/><path d="m133.13216 502.27713h392.86802c5.74589 0 10.37164 4.62575 10.37164 10.37164v350.16971c0 5.74589-4.62575 10.37164-10.37164 10.37164h-392.86802c-5.74589 0-10.37164-4.62575-10.37164-10.37164v-350.16971c0-5.74589 4.62575-10.37164 10.37164-10.37164z"/><path d="m123.08782 102.91774h414.42078c5.72945 0 10.34196 4.61251 10.34196 10.34196v293.95112c0 5.72945-4.61251 10.34196-10.34196 10.34196h-414.42078c-5.72945 0-10.34196-4.61251-10.34196-10.34196v-293.95112c0-5.72945 4.61251-10.34196 10.34196-10.34196z"/></g></g></svg>