<svg height="368.22092" viewBox="0 0 645.60217 184.11046" width="1291.2043" xmlns="http://www.w3.org/2000/svg"><g fill="#f4f4f4" fill-opacity=".5" stroke-width=".5"><path d="m484.65138 181.41589q0 .16-.0387.26933-.0573.16267-.184.16267-.084 0-.176-.0387-.11067-.0467-.12134-.11467.0373 0 .088.0133.11733.0307.14666.0307.11334 0 .17067-.11333.0453-.0907.0453-.21733 0-.0893-.0587-.25467-.0573-.16667-.0573-.232 0-.02.0107-.032.012-.0133.032-.0133.052 0 .10133.24.0413.20267.0413.30001z"/><path d="m485.16471 181.55189q0 .136-.0787.21333-.0787.0773-.21734.0773-.076 0-.11733-.036-.0413-.036-.0413-.11066 0-.10534.13733-.212.13067-.10134.24133-.10134.0507 0 .0667.0627.009.036.009.10667zm-.0813.0373q0-.016-.004-.0307-.003-.016-.0107-.036-.0213.0147-.0707.072-.0253.0293-.044.0427 0-.0253.005-.0413.0107-.0227.0173-.0387-.0587 0-.12266.0493-.0627.0493-.0627.10667 0 .0387.0427.0387.0813 0 .15733-.04.092-.048.092-.12267z"/><path d="m485.71405 181.60655q0 .0653-.0493.14667-.056.092-.116.092-.0173 0-.0293-.0187-.0107-.02-.0107-.0387 0-.024.0507-.0747.052-.052.052-.0707 0-.012-.004-.024-.004-.012-.005-.016-.1.0227-.204.11467-.10267.092-.156.104-.0107-.0293-.0107-.06 0-.0373.0173-.0787.012-.0293.04-.0707.0467-.0707.0987-.16.0267-.0467.092-.16134.0667-.11467.0973-.16267.016-.024.028-.036.0173-.016.0413-.0213.016.005.0227.02.008.0147.008.0347 0 .0453-.0587.12266-.10667.13867-.10933.14401-.06.0907-.06.164l.003.0133q.0733-.036.0867-.0413.0547-.0227.0933-.0227.0427 0 .0627.0293.02.028.02.072z"/><path d="m486.33272 181.52789q0 .0907-.044.19333-.048.11333-.11867.156-.0147-.0173-.0253-.0387-.009-.0213-.009-.0427 0-.0227.0667-.13467.0293-.0493.0267-.0867l-.001-.0173q-.0493.0147-.17067.0893-.12.0733-.24267.14934-.0187 0-.0347-.0133-.0147-.0147-.0147-.032 0-.028.0893-.188.0267-.048.096-.16666.0213.028.028.0627.007.0333.007.08 0 .02 0 .0307.12267-.0733.192-.11067.076-.0413.104-.0413.0187 0 .0347.0427.0173.0427.0173.068z"/><path d="m487.49139 181.78655q0 .024-.0213.0373-.02.012-.0453.012-.0227 0-.0573-.005-.0787-.012-.10133-.012-.04 0-.15734.009-.0667.005-.096.005-.0813 0-.0813-.0813 0-.0773.0507-.22134.028-.0813.10533-.26667.0693-.16666.088-.23466.007-.0213.0107-.028.0107-.016.0267-.016.0253 0 .0427.0373.0173.036.0173.0653 0 .0467-.0547.15734-.0547.10933-.10667.21467-.0573.12533-.0573.19066 0 .0333.028.0467.02.009.0587.009.0293 0 .10134-.007.072-.008.096-.008.06 0 .0987.0173.0547.024.0547.0773z"/><path d="m487.9874 181.55189q0 .136-.0787.21333-.0787.0773-.21734.0773-.076 0-.11733-.036-.0413-.036-.0413-.11066 0-.10534.13733-.212.13067-.10134.24134-.10134.0507 0 .0667.0627.009.036.009.10667zm-.0813.0373q0-.016-.004-.0307-.003-.016-.0107-.036-.0213.0147-.0707.072-.0253.0293-.044.0427 0-.0253.005-.0413.0107-.0227.0173-.0387-.0587 0-.12266.0493-.0627.0493-.0627.10667 0 .0387.0427.0387.0813 0 .15733-.04.092-.048.092-.12267z"/><path d="m488.54873 181.52389q0 .0427-.0227.0907-.0213.048-.0547.08l-.001-.0187q0-.016.004-.0493.004-.0333.004-.0493 0-.0227-.007-.0333-.007-.012-.028-.012-.0627 0-.156.0973-.10134.10667-.20134.212-.008 0-.016-.001-.02-.005-.0267-.007.004-.048.0333-.10667.0787-.15866.0813-.16933.0107-.0427.016-.0627.005-.02.0147-.0413.0107-.0227.024-.04.0147-.0187.0373-.028l.0133.16q.0573-.0467.088-.072.0587-.0467.10133-.0467.0427 0 .0693.028.0267.028.0267.0693z"/><path d="m489.2034 181.36922q0 .056-.14933.148-.144.088-.20934.088-.0307 0-.0413-.0213-.009-.0213-.009-.06 0-.0253 0-.036.0893 0 .16267-.0267.0733-.0267.128-.088-.04-.0147-.0813-.0147-.0973 0-.20667.0747-.12.0813-.12.17333 0 .088.12.12267.0187.005.22534.0373.12133.0187.12133.0653 0 .02-.044.032-.044.0133-.112.0133-.17067 0-.26933-.052-.13067-.0693-.13067-.22267 0-.16.16-.25467.136-.08.30934-.08.052 0 .0947.024.052.0293.052.0773z"/><path d="m489.73407 181.13055q0 .0293-.0707.12267-.0707.0933-.0707.14267 0 .0253.0293.0507.0667.0587.0667.072 0 .0173-.012.0333-.0107.016-.028.016-.0147 0-.0413-.016-.0187-.0107-.072-.052-.02.0387-.0307.0587-.0373.0707-.0507.10267-.02.0613-.04.12267-.0347.0827-.0867.0827l-.001-.0307q0-.0947.0613-.224.012-.024.0667-.124-.10533-.0573-.232-.0573 0-.0493.02-.072.0213-.024.0707-.024.0453 0 .11333.016.0333.008.0667.016.0253-.008.0693-.0867.108-.18933.14667-.21733.0107.0173.0173.0347.008.0173.008.0333z"/><path d="m490.22608 181.60655q0 .0653-.0493.14667-.056.092-.116.092-.0173 0-.0293-.0187-.0107-.02-.0107-.0387 0-.024.0507-.0747.052-.052.052-.0707 0-.012-.004-.024-.004-.012-.005-.016-.1.0227-.20401.11467-.10266.092-.156.104-.0107-.0293-.0107-.06 0-.0373.0173-.0787.012-.0293.04-.0707.0467-.0707.0987-.16.0267-.0467.092-.16134.0667-.11467.0973-.16267.016-.024.028-.036.0173-.016.0413-.0213.016.005.0227.02.008.0147.008.0347 0 .0453-.0587.12266-.10667.13867-.10934.14401-.06.0907-.06.164l.003.0133q.0733-.036.0867-.0413.0547-.0227.0933-.0227.0427 0 .0627.0293.02.028.02.072z"/><path d="m491.32075 181.17188q0 .0627-.0667.168-.0427.0667-.14.19201-.0973.124-.12133.16266.004.001.1.032.0973.0293.0973.10667-.04.007-.0787.012l-.0147-.001v-.0107q-.0213-.005-.0347-.005-.0253 0-.08.008-.0547.008-.0827.008-.036 0-.0587-.0133-.0227-.0133-.0227-.048 0-.028.10267-.15866.192-.24401.19333-.24667.104-.14134.104-.18934 0-.0187-.0133-.028-.012-.009-.0493-.009-.0253 0-.10534.0493-.0387.024-.0627.024l-.0227-.004q-.008-.005-.0173-.02-.009-.016-.009-.0253 0-.056.108-.10267.092-.04.16-.04.0573 0 .088.0427.0267.0373.0267.0973z"/><path d="m492.12209 181.41189q0 .16133-.17467.28533-.16.11333-.32934.11333-.084 0-.13333-.0427-.0493-.0427-.0493-.124 0-.18134.15866-.31467.15067-.12667.33734-.12667.0947 0 .14267.056.048.056.048.15334zm-.0813.0307q0-.0613-.0693-.092-.052-.0227-.124-.0227-.10534 0-.22.10267-.11467.10267-.11467.20667 0 .0427.0213.0613.0227.0173.068.0173.13067 0 .27201-.072.16666-.0853.16666-.20134z"/><path d="m492.73276 181.17188q0 .0627-.0667.168-.0427.0667-.14.19201-.0973.124-.12133.16266.004.001.1.032.0973.0293.0973.10667-.04.007-.0787.012l-.0147-.001v-.0107q-.0213-.005-.0347-.005-.0253 0-.08.008-.0547.008-.0827.008-.036 0-.0587-.0133-.0227-.0133-.0227-.048 0-.028.10267-.15866.192-.24401.19333-.24667.104-.14134.104-.18934 0-.0187-.0133-.028-.012-.009-.0493-.009-.0253 0-.10533.0493-.0387.024-.0627.024l-.0227-.004q-.008-.005-.0173-.02-.009-.016-.009-.0253 0-.056.108-.10267.092-.04.16-.04.0573 0 .088.0427.0267.0373.0267.0973z"/><path d="m493.34609 181.17188q0 .0627-.0667.168-.0427.0667-.14001.19201-.0973.124-.12133.16266.004.001.1.032.0973.0293.0973.10667-.04.007-.0787.012l-.0147-.001v-.0107q-.0213-.005-.0347-.005-.0253 0-.08.008-.0547.008-.0827.008-.036 0-.0587-.0133-.0227-.0133-.0227-.048 0-.028.10267-.15866.192-.24401.19333-.24667.10401-.14134.10401-.18934 0-.0187-.0133-.028-.012-.009-.0493-.009-.0253 0-.10534.0493-.0387.024-.0627.024l-.0227-.004q-.008-.005-.0173-.02-.009-.016-.009-.0253 0-.056.108-.10267.092-.04.16001-.04.0573 0 .088.0427.0267.0373.0267.0973z"/></g><g transform="translate(-107.13639 -211.23049)"><g fill="none" stroke="#f4f4f4"><g stroke-width=".5"><path d="m526.76725 390.37563h21.86615"/><path d="m526.76725 250.0379h21.86615"/><path d="m548.6334 278.35035h-21.86615"/><path d="m548.6334 305.84067h-21.86615"/><path d="m548.6334 333.92732h-21.86615"/><path d="m526.76725 361.64343h21.86615z"/></g><g stroke-linecap="round"><path d="m608.87596 245.18271h54.60286c3.44737 0 6.2227 2.77532 6.2227 6.22269v136.71285c0 3.44737-2.77533 6.22269-6.2227 6.22269h-549.11974c-3.44737 0-6.22269-2.77532-6.22269-6.22269v-136.71285c0-3.44737 2.77532-6.22269 6.22269-6.22269h51.10844l6.97431.068c3.44737 0 6.22269-2.77532 6.22269-6.22269v-4.06796-16.50688c0-3.44737 2.77532-6.22269 6.22269-6.22269h406.86276c3.44737 0 6.22269 2.77532 6.22269 6.22269v16.50688 4c0 3.44737 2.77532 6.22269 6.22269 6.22269z" stroke-width="2"/><rect height="24.747194" rx="4.100216" width="57.269859" x="253.65384" y="220.43231"/></g></g><path d="m262.26214 228.84322 4.16332-2.4037 4.16332-2.4037v4.8074 4.80739l-4.16332-2.4037z" fill="#f4f4f4" transform="matrix(.73551296 0 0 .73551296 68.015631 64.681344)"/><path d="m218.20274 228.58961c.42157.00001.93028.0949 1.52611.28461.60145.18974 1.00054.28461 1.19729.2846.25294.00001.66608-.10709 1.23944-.32133.57334-.21421 1.0708-.32132 1.49239-.32132.69137 0 1.30688.20198 1.84651.60593.30352.23259.60424.5478.90217.94562-.44969.41622-.77852.78651-.98649 1.11089-.37662.58758-.56493 1.23636-.56491 1.94634-.00002.77731.19953 1.47812.59864 2.10241.39908.6243.85439 1.01907 1.36591 1.18433-.21361.75283-.56773 1.53932-1.06238 2.35948-.74761 1.23022-1.48958 1.84534-2.22593 1.84534-.2923 0-.69702-.10099-1.21415-.30297-.51152-.20197-.94434-.30296-1.29845-.30296-.35414 0-.76729.10404-1.23944.31215-.46656.21422-.84598.32133-1.13827.32133-.88251 0-1.74814-.81404-2.59692-2.44211-.84879-1.6097-1.27317-3.18881-1.27317-4.73731 0-1.43833.32321-2.61041.96963-3.51626.65204-.90584 1.47271-1.35876 2.46202-1.35877m5.31188-3.61725c.0225.0796.0366.14997.0421.21116.005.0612.008.12243.008.18361-.00001.39173-.0843.82018-.25295 1.28532-.16864.46518-.43564.89667-.801 1.2945-.31479.33665-.62676.5631-.9359.67938-.19675.0674-.49466.11936-.89375.15608.0112-.93032.23326-1.73517.66609-2.41456.43844-.67937 1.16075-1.14453 2.16692-1.39549" fill="none" stroke="#f4f4f4" stroke-width=".75"/></g><g fill="none" stroke="#f4f4f4"><g stroke-linecap="round" stroke-width="1.13386"><g><rect height="23.86614" rx="6.672216" width="23.86614" x="529.630857" y="97.006676"/><rect height="23.86614" rx="6.672216" width="23.86614" x="501.630857" y="97.006676"/><rect height="23.86614" rx="6.672216" width="23.86614" x="473.630857" y="97.006676"/><rect height="23.86614" rx="6.672216" width="23.86614" x="445.630857" y="97.006676"/><rect height="51.866131" rx="6.672216" width="23.86614" x="529.630857" y="125.006676"/><rect height="23.86614" rx="6.672216" width="23.86614" x="501.630857" y="125.006676"/><rect height="23.86614" rx="6.672216" width="23.86614" x="473.630857" y="125.006676"/><rect height="23.86614" rx="6.672216" width="23.86614" x="445.630857" y="125.006676"/><rect height="23.86614" rx="6.672216" width="23.86614" x="501.630857" y="153.006676"/><rect height="23.86614" rx="6.672216" width="51.866138" x="445.630857" y="153.006676"/><rect height="23.86614" rx="6.672216" width="23.86614" x="529.630857" y="69.006676"/><rect height="23.86614" rx="6.672216" width="23.86614" x="501.630857" y="69.006676"/><rect height="23.86614" rx="6.672216" width="23.86614" x="473.630857" y="69.006676"/><rect height="23.86614" rx="6.672216" width="23.86614" x="445.630857" y="69.006676"/><rect height="23.86614" rx="6.672216" width="23.86614" x="529.630857" y="41.006676"/><rect height="23.86614" rx="6.672216" width="23.86614" x="501.630857" y="41.006676"/><rect height="23.86614" rx="6.672216" width="23.86614" x="473.630857" y="41.006676"/><rect height="23.86614" rx="6.672216" width="23.86614" x="445.630857" y="41.006676"/></g><g><rect height="23.86614" rx="6.672216" width="129.15462" x="145.842847" y="153.006677"/><rect height="23.86614" rx="6.672216" width="23.86614" x="117.842837" y="153.006677"/><rect height="23.86614" rx="6.672216" width="48.866138" x="64.490507" y="153.006677"/><rect height="23.86614" rx="6.672216" width="23.86614" x="36.990527" y="153.006677"/><rect height="23.86614" rx="6.672216" width="23.86614" x="335.842817" y="153.006677"/><rect height="23.86614" rx="6.672216" width="23.86614" x="307.842817" y="153.006677"/><rect height="23.86614" rx="6.672216" width="23.86614" x="279.842817" y="153.006677"/><rect height="23.86614" rx="6.672216" width="23.86614" x="391.842817" y="153.006677"/><rect height="23.86614" rx="6.672216" width="23.86614" x="363.842817" y="153.006677"/><rect height="23.86614" rx="6.672216" width="23.86614" x="8.990527" y="153.006677"/></g><g><rect height="23.86614" rx="6.672216" width="23.86614" x="239.84287" y="125.006676"/><rect height="23.86614" rx="6.672216" width="23.86614" x="211.84287" y="125.006676"/><rect height="23.86614" rx="6.672216" width="23.86614" x="183.84287" y="125.006676"/><rect height="23.86614" rx="6.672216" width="23.86614" x="155.84287" y="125.006676"/><rect height="23.86614" rx="6.672216" width="23.86614" x="127.84287" y="125.006676"/><rect height="23.86614" rx="6.672216" width="23.86614" x="99.84287" y="125.006676"/><rect height="23.86614" rx="6.672216" width="23.86614" x="71.84287" y="125.006676"/><rect height="23.86614" rx="6.672216" width="58.718483" x="8.99053" y="125.006676"/><rect height="23.86614" rx="6.672216" width="63.866146" x="351.84287" y="125.006676"/><rect height="23.86614" rx="6.672216" width="23.86614" x="323.84287" y="125.006676"/><rect height="23.86614" rx="6.672216" width="23.86614" x="295.84287" y="125.006676"/><rect height="23.86614" rx="6.672216" width="23.86614" x="267.84287" y="125.006676"/></g><g transform="translate(-108.473453 -212.016244)"><rect height="23.86614" rx="6.672216" width="23.86614" x="362.86081" y="309.02292"/><rect height="23.86614" rx="6.672216" width="23.86614" x="334.86081" y="309.02292"/><rect height="23.86614" rx="6.672216" width="23.86614" x="306.86081" y="309.02292"/><rect height="23.86614" rx="6.672216" width="23.86614" x="278.86081" y="309.02292"/><rect height="23.86614" rx="6.672216" width="23.86614" x="250.86081" y="309.02292"/><rect height="23.86614" rx="6.672216" width="23.86614" x="222.86081" y="309.02292"/><rect height="23.86614" rx="6.672216" width="23.86614" x="194.86081" y="309.02292"/><rect height="23.86614" rx="6.672216" width="23.86614" x="166.86081" y="309.02292"/><rect height="23.86614" rx="6.672216" width="45.26297" x="117.46398" y="309.02292"/><rect height="23.86614" rx="6.672216" width="23.86614" x="446.86081" y="309.02292"/><rect height="23.86614" rx="6.672216" width="23.86614" x="418.86081" y="309.02292"/><rect height="23.86614" rx="6.672216" width="23.86614" x="390.86081" y="309.02292"/><path d="m495.3226 287.69513c0-3.6964 2.97581-6.67221 6.67222-6.67221h15.51538c3.69641 0 6.67222 2.97581 6.67222 6.67221v10.52171 17.47829 10.52171c0 3.69641-2.97581 6.67222-6.67221 6.67222h-35.97718c-3.69641 0-6.67222-2.97581-6.67222-6.67222v-10.52171c0-3.6964 2.97581-6.67221 6.67222-6.67221h13.78957z"/></g><g><rect height="23.86614" rx="6.672216" width="23.86614" x="246.849147" y="69.006676"/><rect height="23.86614" rx="6.672216" width="23.86614" x="218.849147" y="69.006676"/><rect height="23.86614" rx="6.672216" width="23.86614" x="190.849147" y="69.006676"/><rect height="23.86614" rx="6.672216" width="23.86614" x="162.849147" y="69.006676"/><rect height="23.86614" rx="6.672216" width="23.86614" x="134.849147" y="69.006676"/><rect height="23.86614" rx="6.672216" width="23.86614" x="106.849147" y="69.006676"/><rect height="23.86614" rx="6.672216" width="23.86614" x="78.849147" y="69.006676"/><rect height="23.86614" rx="6.672216" width="23.86614" x="50.849147" y="69.006676"/><rect height="23.86614" rx="6.672216" width="37.724758" x="8.990517" y="69.006676"/><rect height="23.86614" rx="6.672216" width="23.86614" x="330.849147" y="69.006676"/><rect height="23.86614" rx="6.672216" width="23.86614" x="302.849147" y="69.006676"/><rect height="23.86614" rx="6.672216" width="23.86614" x="274.849147" y="69.006676"/><rect height="23.86614" rx="6.672216" width="23.86614" x="358.849147" y="69.006676"/></g><g><rect height="23.86614" rx="6.672216" width="23.86614" x="260.990523" y="41.006676"/><rect height="23.86614" rx="6.672216" width="23.86614" x="232.990523" y="41.006676"/><rect height="23.86614" rx="6.672216" width="23.86614" x="204.990523" y="41.006676"/><rect height="23.86614" rx="6.672216" width="23.86614" x="176.990523" y="41.006676"/><rect height="23.86614" rx="6.672216" width="23.86614" x="148.990523" y="41.006676"/><rect height="23.86614" rx="6.672216" width="23.86614" x="120.990523" y="41.006676"/><rect height="23.86614" rx="6.672216" width="23.86614" x="92.990523" y="41.006676"/><rect height="23.86614" rx="6.672216" width="23.86614" x="64.990523" y="41.006676"/><rect height="23.86614" rx="6.672216" width="23.86614" x="36.990523" y="41.006676"/><rect height="23.86614" rx="6.672216" width="42.718456" x="372.990523" y="41.006676"/><rect height="23.86614" rx="6.672216" width="23.86614" x="344.990523" y="41.006676"/><rect height="23.86614" rx="6.672216" width="23.86614" x="316.990523" y="41.006676"/><rect height="23.86614" rx="6.672216" width="23.86614" x="288.990523" y="41.006676"/><rect height="23.86614" rx="6.672216" width="23.86614" x="8.990523" y="41.006676"/></g></g><g transform="translate(-112.13639 -211.23049)"><path d="m700.1602 365.18355c.25857.00001.57059.0593.93605.1779.3689.1186.61368.17789.73436.17789.15514 0 .40854-.0669.76021-.20085.35166-.13389.65678-.20084.91536-.20084.42405 0 .80158.12625 1.13256.37874.18616.14538.37061.3424.55335.59106-.27582.26016-.47751.49161-.60507.69436-.231.36727-.3465.7728-.34649 1.21657-.00001.48586.12238.92391.36718 1.31412.24478.39022.52404.63697.83778.74027-.13102.47056-.34822.96216-.65161 1.4748-.45855.76895-.91364 1.15344-1.36528 1.15344-.17928 0-.42752-.0631-.7447-.18937-.31374-.12625-.57921-.18937-.79641-.18937-.21721 0-.47061.065-.76021.19511-.28616.1339-.51888.20085-.69816.20085-.54129 0-1.07222-.50882-1.59282-1.52645-.52061-1.00615-.78091-1.99318-.78091-2.96107 0-.89904.19825-1.63165.59473-2.19786.39993-.56619.90329-.84929 1.51008-.8493m3.25805-2.26097c.0138.0498.0225.0937.0258.13198.003.0383.005.0765.005.11477 0 .24485-.0517.51265-.15514.80339-.10344.29076-.2672.56047-.4913.80913-.19308.21043-.38442.35197-.57403.42465-.12068.0421-.30341.0746-.54819.0976.007-.5815.14307-1.08457.40855-1.50923.26892-.42464.71195-.71539 1.32908-.87225" stroke-width=".75"/><g stroke-linecap="round"><rect height="29.245907" rx="3.478985" width="41.188591" x="702.74756" y="281.05923"/><path d="m723.27181 386.71014h27.22758c3.69641 0 6.67222-2.97581 6.67222-6.67222v-31.91675l-4-66.41266c-.22223-3.68972-2.97581-6.67222-6.67222-6.67222l-23.24264.15523m.0151 111.51862h-27.22758c-3.69641 0-6.67222-2.97581-6.67222-6.67222v-31.91675l4-66.41266c.22223-3.68972 2.97581-6.67222 6.67222-6.67222l23.24264.15523"/></g></g></g></svg>