<svg height="351.58005" viewBox="0 0 536.82863 632.84409" width="298.23813" xmlns="http://www.w3.org/2000/svg"><g fill="#f4f4f4" fill-opacity=".5"><path d="m358.75554 606.74739q0 .32-.0773.53867-.11467.32533-.368.32533-.168 0-.352-.0773-.22134-.0933-.24267-.22933.0747 0 .176.0267.23467.0613.29333.0613.22667 0 .34134-.22667.0907-.18133.0907-.43467 0-.17866-.11733-.50933-.11467-.33334-.11467-.464 0-.04.0213-.064.024-.0267.064-.0267.104 0 .20266.48.0827.40534.0827.6z"/><path d="m359.78221 607.01939q0 .272-.15733.42667-.15734.15467-.43467.15467-.152 0-.23467-.072-.0827-.072-.0827-.22134 0-.21066.27467-.424.26134-.20266.48267-.20266.10133 0 .13333.12533.0187.072.0187.21333zm-.16267.0747q0-.032-.008-.0613-.005-.032-.0213-.072-.0427.0293-.14133.144-.0507.0587-.088.0853 0-.0507.0107-.0827.0213-.0453.0347-.0773-.11733 0-.24534.0987-.12533.0987-.12533.21333 0 .0773.0853.0773.16267 0 .31467-.08.184-.096.184-.24533z"/><path d="m360.88088 607.12873q0 .13066-.0987.29333-.112.184-.232.184-.0347 0-.0587-.0373-.0213-.04-.0213-.0773 0-.048.10133-.14933.104-.104.104-.14133 0-.024-.008-.048-.008-.024-.0107-.032-.2.0453-.408.22933-.20534.184-.312.208-.0213-.0587-.0213-.12 0-.0747.0347-.15733.024-.0587.08-.14134.0933-.14133.19733-.32.0533-.0933.184-.32266.13334-.22934.19467-.32534.032-.048.056-.072.0347-.032.0827-.0427.032.0107.0453.04.016.0293.016.0693 0 .0907-.11733.24533-.21334.27734-.21867.288-.12.18134-.12.328l.005.0267q.14667-.072.17334-.0827.10933-.0453.18666-.0453.0853 0 .12534.0587.04.056.04.144z"/><path d="m362.11821 606.97139q0 .18134-.088.38667-.096.22667-.23733.312-.0293-.0347-.0507-.0773-.0187-.0427-.0187-.0853 0-.0453.13333-.26933.0587-.0987.0533-.17333l-.003-.0347q-.0987.0293-.34134.17867-.24.14666-.48533.29866-.0373 0-.0693-.0267-.0293-.0293-.0293-.064 0-.056.17867-.376.0533-.096.192-.33334.0427.056.056.12534.0133.0667.0133.16 0 .04 0 .0613.24534-.14667.384-.22133.152-.0827.208-.0827.0373 0 .0693.0853.0347.0853.0347.136z"/><path d="m364.43555 607.48873q0 .048-.0427.0747-.04.024-.0907.024-.0453 0-.11467-.0107-.15733-.024-.20267-.024-.08 0-.31467.0187-.13333.0107-.192.0107-.16266 0-.16266-.16267 0-.15466.10133-.44266.056-.16267.21067-.53334.13866-.33333.176-.46933.0133-.0427.0213-.056.0213-.032.0533-.032.0507 0 .0853.0747.0347.072.0347.13067 0 .0933-.10934.31467-.10933.21867-.21333.42933-.11467.25067-.11467.38134 0 .0667.056.0933.04.0187.11733.0187.0587 0 .20267-.0133.144-.016.192-.016.12 0 .19734.0347.10933.048.10933.15467z"/><path d="m365.42755 607.01939q0 .272-.15733.42667-.15734.15467-.43467.15467-.152 0-.23467-.072-.0827-.072-.0827-.22134 0-.21066.27466-.424.26134-.20266.48267-.20266.10133 0 .13333.12533.0187.072.0187.21333zm-.16267.0747q0-.032-.008-.0613-.005-.032-.0213-.072-.0427.0293-.14133.144-.0507.0587-.088.0853 0-.0507.0107-.0827.0213-.0453.0347-.0773-.11733 0-.24533.0987-.12534.0987-.12534.21333 0 .0773.0853.0773.16266 0 .31466-.08.184-.096.184-.24533z"/><path d="m366.55022 606.96339q0 .0853-.0453.18134-.0427.096-.10934.16l-.003-.0373q0-.032.008-.0987.008-.0667.008-.0987 0-.0453-.0133-.0667-.0133-.024-.056-.024-.12533 0-.312.19467-.20266.21333-.40267.424-.016 0-.032-.003-.04-.0107-.0533-.0133.008-.096.0667-.21333.15733-.31734.16267-.33867.0213-.0853.032-.12533.0107-.04.0293-.0827.0213-.0453.048-.08.0293-.0373.0747-.056l.0267.32q.11467-.0933.176-.144.11734-.0933.20267-.0933.0853 0 .13867.056.0533.056.0533.13866z"/><path d="m367.85956 606.65406q0 .112-.29867.296-.288.176-.41867.176-.0613 0-.0827-.0427-.0187-.0427-.0187-.12 0-.0507 0-.072.17867 0 .32533-.0533.14667-.0533.256-.176-.08-.0293-.16266-.0293-.19467 0-.41334.14933-.24.16267-.24.34667 0 .176.24.24533.0373.0107.45067.0747.24267.0373.24267.13066 0 .04-.088.064-.088.0267-.224.0267-.34134 0-.53867-.104-.26133-.13867-.26133-.44533 0-.32.32-.50934.272-.16.61866-.16.104 0 .18934.048.104.0587.104.15467z"/><path d="m368.92089 606.17673q0 .0587-.14133.24533-.14133.18667-.14133.28533 0 .0507.0587.10134.13334.11733.13334.144 0 .0347-.024.0667-.0213.032-.056.032-.0293 0-.0827-.032-.0373-.0213-.144-.104-.04.0773-.0613.11734-.0747.14133-.10134.20533-.04.12267-.08.24533-.0693.16534-.17333.16534l-.003-.0613q0-.18933.12267-.448.024-.048.13333-.248-.21067-.11466-.464-.11466 0-.0987.04-.144.0427-.048.14133-.048.0907 0 .22667.032.0667.016.13334.032.0507-.016.13866-.17334.216-.37867.29334-.43467.0213.0347.0347.0693.016.0347.016.0667z"/><path d="m369.9049 607.12873q0 .13066-.0987.29333-.112.184-.232.184-.0347 0-.0587-.0373-.0213-.04-.0213-.0773 0-.048.10133-.14933.104-.104.104-.14133 0-.024-.008-.048-.008-.024-.0107-.032-.2.0453-.408.22933-.20534.184-.312.208-.0213-.0587-.0213-.12 0-.0747.0347-.15733.024-.0587.08-.14134.0933-.14133.19733-.32.0533-.0933.184-.32266.13334-.22934.19467-.32534.032-.048.056-.072.0347-.032.0827-.0427.032.0107.0453.04.016.0293.016.0693 0 .0907-.11733.24533-.21334.27734-.21867.288-.12.18134-.12.328l.005.0267q.14667-.072.17334-.0827.10933-.0453.18666-.0453.0853 0 .12534.0587.04.056.04.144z"/><path d="m372.09424 606.25939q0 .12534-.13334.336-.0853.13334-.28.384-.19467.248-.24267.32534.008.003.2.064.19467.0587.19467.21333-.08.0133-.15733.024l-.0293-.003v-.0213q-.0427-.0107-.0693-.0107-.0507 0-.16.016-.10933.016-.16533.016-.072 0-.11734-.0267-.0453-.0267-.0453-.096 0-.056.20533-.31734.384-.488.38667-.49333.208-.28267.208-.37867 0-.0373-.0267-.056-.024-.0187-.0987-.0187-.0507 0-.21067.0987-.0773.048-.12533.048l-.0453-.008q-.016-.0107-.0347-.04-.0187-.032-.0187-.0507 0-.112.216-.20534.184-.08.32-.08.11467 0 .176.0853.0533.0747.0533.19467z"/><path d="m373.6969 606.73939q0 .32267-.34933.57067-.32.22667-.65867.22667-.168 0-.26667-.0853-.0987-.0853-.0987-.248 0-.36266.31733-.62933.30133-.25333.67467-.25333.18933 0 .28533.112.096.112.096.30666zm-.16266.0613q0-.12267-.13867-.184-.104-.0453-.248-.0453-.21067 0-.44.20534-.22934.20533-.22934.41333 0 .0853.0427.12267.0453.0347.136.0347.26133 0 .544-.144.33334-.17066.33334-.40266z"/><path d="m374.91824 606.25939q0 .12534-.13333.336-.0853.13334-.28.384-.19467.248-.24267.32534.008.003.2.064.19467.0587.19467.21333-.08.0133-.15734.024l-.0293-.003v-.0213q-.0427-.0107-.0693-.0107-.0507 0-.16.016-.10934.016-.16534.016-.072 0-.11733-.0267-.0453-.0267-.0453-.096 0-.056.20534-.31734.384-.488.38667-.49333.208-.28267.208-.37867 0-.0373-.0267-.056-.024-.0187-.0987-.0187-.0507 0-.21066.0987-.0773.048-.12534.048l-.0453-.008q-.016-.0107-.0347-.04-.0187-.032-.0187-.0507 0-.112.21601-.20534.184-.08.32-.08.11466 0 .176.0853.0533.0747.0533.19467z"/><path d="m376.1449 606.25939q0 .12534-.13333.336-.0853.13334-.28.384-.19467.248-.24267.32534.008.003.2.064.19467.0587.19467.21333-.08.0133-.15733.024l-.0293-.003v-.0213q-.0427-.0107-.0693-.0107-.0507 0-.16.016-.10933.016-.16533.016-.072 0-.11734-.0267-.0453-.0267-.0453-.096 0-.056.20533-.31734.384-.488.38667-.49333.208-.28267.208-.37867 0-.0373-.0267-.056-.024-.0187-.0987-.0187-.0507 0-.21067.0987-.0773.048-.12533.048l-.0453-.008q-.016-.0107-.0347-.04-.0187-.032-.0187-.0507 0-.112.216-.20534.184-.08.32-.08.11467 0 .176.0853.0533.0747.0533.19467z"/></g><g fill="none" stroke="#f4f4f4" stroke-linecap="round"><rect height="630.84406" rx="22.863056" stroke-width="3.6" width="534.55573" x="1.128833" y="1.000005"/><rect height="150.07278" rx="9.290022" ry="9.290021" stroke-width="1.8" width="473.66385" x="29.008508" y="459.074906"/><rect height="203.00923" rx="22.863056" ry="22.86306" stroke-width="3.6" width="534.55573" x="1.128833" y="428.834856"/><rect height="397.26141" rx="22.863056" stroke-width="3.6" width="534.55573" x="1.128833" y="1.000005"/><g stroke-width="1.8"><rect height="242.52783" rx="6.155934" width="468.5238" x="35.276495" y="28.84856"/><g transform="translate(-13.16799 -8.930004)"><path d="m548.98147 281.79832h-14.39831c-1.33798 0-2.41513-1.07715-2.41513-2.41514 0-1.33798 1.07715-2.41513 2.41513-2.41513h14.41345"/><path d="m548.98147 267.79832h-14.39831c-1.33798 0-2.41513-1.07715-2.41513-2.41514 0-1.33798 1.07715-2.41513 2.41513-2.41513h14.41345"/><path d="m548.98147 253.79832h-14.39831c-1.33798 0-2.41513-1.07715-2.41513-2.41514 0-1.33798 1.07715-2.41513 2.41513-2.41513h14.41345"/><path d="m548.98147 239.79832h-14.39831c-1.33798 0-2.41513-1.07715-2.41513-2.41514 0-1.33798 1.07715-2.41513 2.41513-2.41513h14.41345"/><path d="m548.98147 225.79832h-14.39831c-1.33798 0-2.41513-1.07715-2.41513-2.41514 0-1.33798 1.07715-2.41513 2.41513-2.41513h14.41345"/><path d="m548.98147 211.79832h-14.39831c-1.33798 0-2.41513-1.07715-2.41513-2.41514 0-1.33798 1.07715-2.41513 2.41513-2.41513h14.41345"/><path d="m548.98147 197.79832h-14.39831c-1.33798 0-2.41513-1.07715-2.41513-2.41514 0-1.33798 1.07715-2.41513 2.41513-2.41513h14.41345"/><path d="m548.98147 183.79832h-14.39831c-1.33798 0-2.41513-1.07715-2.41513-2.41514 0-1.33798 1.07715-2.41513 2.41513-2.41513h14.41345"/><path d="m548.98147 169.79832h-14.39831c-1.33798 0-2.41513-1.07715-2.41513-2.41514 0-1.33798 1.07715-2.41513 2.41513-2.41513h14.41345"/><path d="m548.98147 155.79832h-14.39831c-1.33798 0-2.41513-1.07715-2.41513-2.41514 0-1.33798 1.07715-2.41513 2.41513-2.41513h14.41345"/><path d="m548.98147 141.79832h-14.39831c-1.33798 0-2.41513-1.07715-2.41513-2.41514 0-1.33798 1.07715-2.41513 2.41513-2.41513h14.41345"/><path d="m548.98147 127.79832h-14.39831c-1.33798 0-2.41513-1.07715-2.41513-2.41514 0-1.33798 1.07715-2.41513 2.41513-2.41513h14.41345"/><path d="m548.98147 113.79832h-14.39831c-1.33798 0-2.41513-1.07715-2.41513-2.41514 0-1.33798 1.07715-2.41513 2.41513-2.41513h14.41345"/><path d="m548.98147 99.79832h-14.39831c-1.33798 0-2.41513-1.07715-2.41513-2.41514 0-1.33798 1.07715-2.41513 2.41513-2.41513h14.41345"/><path d="m548.98147 85.79832h-14.39831c-1.33798 0-2.41513-1.07715-2.41513-2.41514 0-1.33798 1.07715-2.41513 2.41513-2.41513h14.41345"/><path d="m548.98147 71.79832h-14.39831c-1.33798 0-2.41513-1.07715-2.41513-2.41514 0-1.33798 1.07715-2.41513 2.41513-2.41513h14.41345"/><path d="m548.98147 57.79832h-14.39831c-1.33798 0-2.41513-1.07715-2.41513-2.41514 0-1.33798 1.07715-2.41513 2.41513-2.41513h14.41345"/><path d="m548.98147 43.79832h-14.39831c-1.33798 0-2.41513-1.07715-2.41513-2.41514 0-1.33798 1.07715-2.41513 2.41513-2.41513h14.41345"/><g transform="matrix(-1 0 0 1 563.1646 0)"><path d="m548.98147 281.79832h-14.39831c-1.33798 0-2.41513-1.07715-2.41513-2.41514 0-1.33798 1.07715-2.41513 2.41513-2.41513h14.41345"/><path d="m548.98147 267.79832h-14.39831c-1.33798 0-2.41513-1.07715-2.41513-2.41514 0-1.33798 1.07715-2.41513 2.41513-2.41513h14.41345"/><path d="m548.98147 253.79832h-14.39831c-1.33798 0-2.41513-1.07715-2.41513-2.41514 0-1.33798 1.07715-2.41513 2.41513-2.41513h14.41345"/><path d="m548.98147 239.79832h-14.39831c-1.33798 0-2.41513-1.07715-2.41513-2.41514 0-1.33798 1.07715-2.41513 2.41513-2.41513h14.41345"/><path d="m548.98147 225.79832h-14.39831c-1.33798 0-2.41513-1.07715-2.41513-2.41514 0-1.33798 1.07715-2.41513 2.41513-2.41513h14.41345"/><path d="m548.98147 211.79832h-14.39831c-1.33798 0-2.41513-1.07715-2.41513-2.41514 0-1.33798 1.07715-2.41513 2.41513-2.41513h14.41345"/><path d="m548.98147 197.79832h-14.39831c-1.33798 0-2.41513-1.07715-2.41513-2.41514 0-1.33798 1.07715-2.41513 2.41513-2.41513h14.41345"/><path d="m548.98147 183.79832h-14.39831c-1.33798 0-2.41513-1.07715-2.41513-2.41514 0-1.33798 1.07715-2.41513 2.41513-2.41513h14.41345"/><path d="m548.98147 169.79832h-14.39831c-1.33798 0-2.41513-1.07715-2.41513-2.41514 0-1.33798 1.07715-2.41513 2.41513-2.41513h14.41345"/><path d="m548.98147 155.79832h-14.39831c-1.33798 0-2.41513-1.07715-2.41513-2.41514 0-1.33798 1.07715-2.41513 2.41513-2.41513h14.41345"/><path d="m548.98147 141.79832h-14.39831c-1.33798 0-2.41513-1.07715-2.41513-2.41514 0-1.33798 1.07715-2.41513 2.41513-2.41513h14.41345"/><path d="m548.98147 127.79832h-14.39831c-1.33798 0-2.41513-1.07715-2.41513-2.41514 0-1.33798 1.07715-2.41513 2.41513-2.41513h14.41345"/><path d="m548.98147 113.79832h-14.39831c-1.33798 0-2.41513-1.07715-2.41513-2.41514 0-1.33798 1.07715-2.41513 2.41513-2.41513h14.41345"/><path d="m548.98147 99.79832h-14.39831c-1.33798 0-2.41513-1.07715-2.41513-2.41514 0-1.33798 1.07715-2.41513 2.41513-2.41513h14.41345"/><path d="m548.98147 85.79832h-14.39831c-1.33798 0-2.41513-1.07715-2.41513-2.41514 0-1.33798 1.07715-2.41513 2.41513-2.41513h14.41345"/><path d="m548.98147 71.79832h-14.39831c-1.33798 0-2.41513-1.07715-2.41513-2.41514 0-1.33798 1.07715-2.41513 2.41513-2.41513h14.41345"/><path d="m548.98147 57.79832h-14.39831c-1.33798 0-2.41513-1.07715-2.41513-2.41514 0-1.33798 1.07715-2.41513 2.41513-2.41513h14.41345"/><path d="m548.98147 43.79832h-14.39831c-1.33798 0-2.41513-1.07715-2.41513-2.41514 0-1.33798 1.07715-2.41513 2.41513-2.41513h14.41345"/></g></g><rect height="34.550087" rx="3.783088" width="79.939796" x="41.742765" y="328.517446"/><rect height="34.550087" rx="3.783088" width="29.72365" x="128.4716" y="328.517446"/></g><g stroke-width="3.6"><g transform="translate(-.502246 19.069996)"><rect height="21" rx="2.41513" width="164.20581" x="157.55583" y="560.09021"/><rect height="21" rx="2.41513" width="21" x="71.900444" y="560.09021"/><rect height="21" rx="2.41513" width="21" x="129.55588" y="560.09021"/><rect height="21" rx="2.41513" width="21" x="101.55587" y="560.09021"/><rect height="21" rx="2.41513" width="21" x="42.245018" y="560.09021"/><rect height="21" rx="2.41513" width="21" x="71.900444" y="560.09021"/><g transform="scale(-1 1)"><rect height="21" rx="2.41513" width="21" x="-349.65097" y="560.09021"/><rect height="21" rx="2.41513" width="21" x="-377.65097" y="560.09021"/><rect height="21" rx="2.41513" width="21" x="-436.96182" y="560.09021"/><rect height="21" rx="2.41513" width="21" x="-407.3064" y="560.09021"/><rect height="21" rx="2.41513" width="21" x="-466.61725" y="560.09021"/></g></g><g stroke-width="3.6"><rect height="21" rx="2.41513" width="21" x="260.998207" y="551.160206"/><rect height="21" rx="2.41513" width="21" x="232.998207" y="551.160206"/><rect height="21" rx="2.41513" width="21" x="204.998207" y="551.160206"/><rect height="21" rx="2.41513" width="21" x="176.998207" y="551.160206"/><rect height="21" rx="2.41513" width="21" x="148.998207" y="551.160206"/><rect height="21" rx="2.41513" width="21" x="120.998207" y="551.160206"/><rect height="21" rx="2.41513" width="72.255424" x="41.742769" y="551.160206"/></g><rect height="21" rx="2.41513" stroke-width="3.59999" width="65.116814" x="400.998207" y="551.160206"/><g stroke-width="3.6"><rect height="21" rx="2.41513" width="21" x="372.998207" y="551.160206"/><rect height="21" rx="2.41513" width="21" x="344.998207" y="551.160206"/><rect height="21" rx="2.41513" width="21" x="316.998207" y="551.160206"/><rect height="21" rx="2.41513" width="21" x="288.998207" y="551.160206"/><g><rect height="21" rx="2.41513" width="21" x="243.98789" y="523.160206"/><rect height="21" rx="2.41513" width="21" x="215.98789" y="523.160206"/><rect height="21" rx="2.41513" width="21" x="187.98789" y="523.160206"/><rect height="21" rx="2.41513" width="21" x="159.98789" y="523.160206"/><rect height="21" rx="2.41513" width="21" x="131.98789" y="523.160206"/><rect height="21" rx="2.41513" width="21" x="103.98789" y="523.160206"/></g></g><rect height="21" rx="2.41513" stroke-width="3.60001" width="55.24511" x="41.74277" y="523.160206"/><rect height="21" rx="2.41513" stroke-width="3.59999" width="54.127113" x="411.98789" y="523.160206"/><rect height="21" rx="2.41513" stroke-width="3.6" width="21" x="383.98789" y="523.160206"/><rect height="21" rx="2.41513" stroke-width="3.6" width="21" x="355.98789" y="523.160206"/><rect height="21" rx="2.41513" stroke-width="3.6" width="21" x="327.98789" y="523.160206"/><rect height="21" rx="2.41513" stroke-width="3.6" width="21" x="299.98789" y="523.160206"/><rect height="21" rx="2.41513" stroke-width="3.6" width="21" x="271.98789" y="523.160206"/><rect height="21" rx="2.41513" width="21" x="226.78789" y="495.160206"/><rect height="21" rx="2.41513" width="21" x="198.78789" y="495.160206"/><rect height="21" rx="2.41513" width="21" x="170.78789" y="495.160206"/><rect height="21" rx="2.41513" width="21" x="142.78789" y="495.160206"/><rect height="21" rx="2.41513" width="21" x="114.78789" y="495.160206"/><rect height="21" rx="2.41513" width="21" x="86.78789" y="495.160206"/><rect height="21" rx="2.41513" width="38.045124" x="41.742767" y="495.160206"/><rect height="21" rx="2.41513" width="71.327133" x="394.78789" y="495.160206"/><rect height="21" rx="2.41513" width="21" x="366.78789" y="495.160206"/><rect height="21" rx="2.41513" width="21" x="338.78789" y="495.160206"/><rect height="21" rx="2.41513" width="21" x="310.78789" y="495.160206"/><rect height="21" rx="2.41513" width="21" x="282.78789" y="495.160206"/><rect height="21" rx="2.41513" width="21" x="254.78789" y="495.160206"/><rect height="21" rx="2.41513" width="21" x="209.742769" y="467.160206"/><rect height="21" rx="2.41513" width="21" x="181.742769" y="467.160206"/><rect height="21" rx="2.41513" width="21" x="153.742769" y="467.160206"/><rect height="21" rx="2.41513" width="21" x="125.742769" y="467.160206"/><rect height="21" rx="2.41513" width="21" x="97.742769" y="467.160206"/><rect height="21" rx="2.41513" width="21" x="69.742769" y="467.160206"/><rect height="21" rx="2.41513" width="21" x="377.742769" y="467.160206"/><rect height="21" rx="2.41513" width="21" x="349.742769" y="467.160206"/><rect height="21" rx="2.41513" width="21" x="321.742769" y="467.160206"/><rect height="21" rx="2.41513" width="21" x="293.742769" y="467.160206"/><rect height="21" rx="2.41513" width="21" x="265.742769" y="467.160206"/><rect height="21" rx="2.41513" width="21" x="237.742769" y="467.160206"/><rect height="21" rx="2.41513" width="21" x="405.742769" y="467.160206"/><rect height="21" rx="2.41513" width="21" x="41.742769" y="467.160206"/><rect height="21" rx="2.41513" width="21" x="69.742769" y="467.160206"/><rect height="21" rx="2.41513" width="21" x="41.742769" y="467.160206"/><rect height="21" rx="2.41513" width="32.372196" x="433.742799" y="467.160206"/><rect height="15.096" rx="2.41513" width="15.096" x="474.689269" y="470.112236"/></g></g></svg>