<svg height="369.84689" viewBox="0 0 266.82106 517.78565" width="190.58647" xmlns="http://www.w3.org/2000/svg"><g fill="#f4f4f4" fill-opacity=".5"><path d="m206.7251 301.22484q0 .32-.0773.53867-.11466.32533-.368.32533-.168 0-.352-.0773-.22133-.0933-.24266-.22934.0747 0 .176.0267.23466.0613.29333.0613.22667 0 .34133-.22666.0907-.18134.0907-.43467 0-.17867-.11733-.50933-.11467-.33334-.11467-.464 0-.04.0213-.064.024-.0267.064-.0267.104 0 .20267.48.0827.40533.0827.6z"/><path d="m207.75177 301.49684q0 .272-.15734.42667-.15733.15466-.43466.15466-.152 0-.23467-.072-.0827-.072-.0827-.22133 0-.21067.27467-.424.26133-.20267.48267-.20267.10133 0 .13333.12534.0187.072.0187.21333zm-.16267.0747q0-.032-.008-.0613-.005-.032-.0213-.072-.0427.0293-.14134.144-.0507.0587-.088.0853 0-.0507.0107-.0827.0213-.0453.0347-.0773-.11734 0-.24534.0987-.12533.0987-.12533.21334 0 .0773.0853.0773.16267 0 .31467-.08.184-.096.184-.24533z"/><path d="m208.85044 301.60617q0 .13067-.0987.29334-.112.184-.232.184-.0347 0-.0587-.0373-.0213-.04-.0213-.0773 0-.048.10133-.14933.104-.104.104-.14134 0-.024-.008-.048-.008-.024-.0107-.032-.2.0453-.40801.22934-.20533.184-.312.208-.0213-.0587-.0213-.12 0-.0747.0347-.15734.024-.0587.08-.14133.0933-.14133.19733-.32.0533-.0933.184-.32267.13334-.22933.19467-.32533.032-.048.056-.072.0347-.032.0827-.0427.032.0107.0453.04.016.0293.016.0693 0 .0907-.11733.24533-.21334.27733-.21867.288-.12.18133-.12.328l.005.0267q.14667-.072.17334-.0827.10933-.0453.18666-.0453.0853 0 .12534.0587.04.056.04.144z"/><path d="m210.08777 301.44884q0 .18133-.088.38667-.096.22666-.23733.312-.0293-.0347-.0507-.0773-.0187-.0427-.0187-.0853 0-.0453.13333-.26933.0587-.0987.0533-.17334l-.003-.0347q-.0987.0293-.34134.17866-.24.14667-.48533.29867-.0373 0-.0693-.0267-.0293-.0293-.0293-.064 0-.056.17867-.376.0533-.096.192-.33333.0427.056.056.12533.0133.0667.0133.16 0 .04 0 .0613.24534-.14667.384-.22134.152-.0827.208-.0827.0373 0 .0693.0853.0347.0853.0347.136z"/><path d="m212.40511 301.96617q0 .048-.0427.0747-.04.024-.0907.024-.0453 0-.11466-.0107-.15734-.024-.20267-.024-.08 0-.31467.0187-.13333.0107-.192.0107-.16266 0-.16266-.16267 0-.15467.10133-.44267.056-.16266.21067-.53333.13866-.33333.176-.46933.0133-.0427.0213-.056.0213-.032.0533-.032.0507 0 .0853.0747.0347.072.0347.13067 0 .0933-.10933.31467-.10933.21866-.21333.42933-.11467.25067-.11467.38133 0 .0667.056.0933.04.0187.11733.0187.0587 0 .20267-.0133.144-.016.192-.016.12 0 .19733.0347.10934.048.10934.15466z"/><path d="m213.39711 301.49684q0 .272-.15733.42667-.15734.15466-.43467.15466-.152 0-.23467-.072-.0827-.072-.0827-.22133 0-.21067.27466-.424.26134-.20267.48267-.20267.10133 0 .13333.12534.0187.072.0187.21333zm-.16267.0747q0-.032-.008-.0613-.005-.032-.0213-.072-.0427.0293-.14133.144-.0507.0587-.088.0853 0-.0507.0107-.0827.0213-.0453.0347-.0773-.11733 0-.24533.0987-.12534.0987-.12534.21334 0 .0773.0853.0773.16266 0 .31466-.08.184-.096.184-.24533z"/><path d="m214.51978 301.44084q0 .0853-.0453.18133-.0427.096-.10933.16l-.003-.0373q0-.032.008-.0987.008-.0667.008-.0987 0-.0453-.0133-.0667-.0133-.024-.056-.024-.12533 0-.312.19467-.20267.21333-.40267.424-.016 0-.032-.003-.04-.0107-.0533-.0133.008-.096.0667-.21334.15733-.31733.16266-.33866.0213-.0853.032-.12534.0107-.04.0293-.0827.0213-.0453.048-.08.0293-.0373.0747-.056l.0267.32q.11467-.0933.176-.144.11733-.0933.20267-.0933.0853 0 .13866.056.0533.056.0533.13867z"/><path d="m215.82912 301.13151q0 .112-.29867.296-.288.176-.41867.176-.0613 0-.0827-.0427-.0187-.0427-.0187-.12 0-.0507 0-.072.17866 0 .32533-.0533.14667-.0533.256-.176-.08-.0293-.16267-.0293-.19466 0-.41333.14934-.24.16266-.24.34666 0 .176.24.24534.0373.0107.45067.0747.24267.0373.24267.13067 0 .04-.088.064-.088.0267-.22401.0267-.34133 0-.53866-.104-.26134-.13867-.26134-.44534 0-.32.32-.50933.272-.16.61867-.16.104 0 .18934.048.104.0587.104.15467z"/><path d="m216.89045 300.65417q0 .0587-.14133.24534-.14134.18666-.14134.28533 0 .0507.0587.10133.13333.11734.13333.144 0 .0347-.024.0667-.0213.032-.056.032-.0293 0-.0827-.032-.0373-.0213-.144-.104-.04.0773-.0613.11733-.0747.14134-.10133.20534-.04.12266-.08.24533-.0693.16533-.17333.16533l-.003-.0613q0-.18933.12267-.448.024-.048.13333-.248-.21067-.11467-.464-.11467 0-.0987.04-.144.0427-.048.14133-.048.0907 0 .22667.032.0667.016.13333.032.0507-.016.13867-.17333.216-.37867.29333-.43467.0213.0347.0347.0693.016.0347.016.0667z"/><path d="m217.87446 301.60617q0 .13067-.0987.29334-.112.184-.232.184-.0347 0-.0587-.0373-.0213-.04-.0213-.0773 0-.048.10133-.14933.104-.104.104-.14134 0-.024-.008-.048-.008-.024-.0107-.032-.2.0453-.408.22934-.20533.184-.312.208-.0213-.0587-.0213-.12 0-.0747.0347-.15734.024-.0587.08-.14133.0933-.14133.19733-.32.0533-.0933.184-.32267.13333-.22933.19467-.32533.032-.048.056-.072.0347-.032.0827-.0427.032.0107.0453.04.016.0293.016.0693 0 .0907-.11734.24533-.21333.27733-.21866.288-.12.18133-.12.328l.005.0267q.14667-.072.17333-.0827.10934-.0453.18667-.0453.0853 0 .12533.0587.04.056.04.144z"/><path d="m220.06379 300.73684q0 .12533-.13333.336-.0853.13333-.28.384-.19467.248-.24267.32533.008.003.2.064.19467.0587.19467.21334-.08.0133-.15733.024l-.0293-.003v-.0213q-.0427-.0107-.0693-.0107-.0507 0-.16.016-.10933.016-.16533.016-.072 0-.11734-.0267-.0453-.0267-.0453-.096 0-.056.20533-.31733.384-.488.38667-.49333.208-.28267.208-.37867 0-.0373-.0267-.056-.024-.0187-.0987-.0187-.0507 0-.21067.0987-.0773.048-.12533.048l-.0453-.008q-.016-.0107-.0347-.04-.0187-.032-.0187-.0507 0-.112.216-.20533.184-.08.32-.08.11467 0 .176.0853.0533.0747.0533.19467z"/><path d="m221.66646 301.21684q0 .32267-.34933.57067-.32.22666-.65867.22666-.168 0-.26667-.0853-.0987-.0853-.0987-.248 0-.36267.31733-.62933.30133-.25334.67467-.25334.18933 0 .28533.112.096.112.096.30667zm-.16267.0613q0-.12266-.13866-.184-.104-.0453-.248-.0453-.21067 0-.44.20533-.22934.20534-.22934.41334 0 .0853.0427.12266.0453.0347.136.0347.26133 0 .544-.144.33333-.17067.33333-.40267z"/><path d="m222.8878 300.73684q0 .12533-.13334.336-.0853.13333-.28.384-.19466.248-.24266.32533.008.003.2.064.19466.0587.19466.21334-.08.0133-.15733.024l-.0293-.003v-.0213q-.0427-.0107-.0693-.0107-.0507 0-.16.016-.10933.016-.16533.016-.072 0-.11733-.0267-.0453-.0267-.0453-.096 0-.056.20534-.31733.384-.488.38666-.49333.208-.28267.208-.37867 0-.0373-.0267-.056-.024-.0187-.0987-.0187-.0507 0-.21067.0987-.0773.048-.12533.048l-.0453-.008q-.016-.0107-.0347-.04-.0187-.032-.0187-.0507 0-.112.216-.20533.184-.08.32-.08.11467 0 .176.0853.0533.0747.0533.19467z"/><path d="m224.11446 300.73684q0 .12533-.13333.336-.0853.13333-.28.384-.19467.248-.24267.32533.008.003.2.064.19467.0587.19467.21334-.08.0133-.15733.024l-.0293-.003v-.0213q-.0427-.0107-.0693-.0107-.0507 0-.16.016-.10933.016-.16533.016-.072 0-.11734-.0267-.0453-.0267-.0453-.096 0-.056.20533-.31733.384-.488.38667-.49333.208-.28267.208-.37867 0-.0373-.0267-.056-.024-.0187-.0987-.0187-.0507 0-.21067.0987-.0773.048-.12533.048l-.0453-.008q-.016-.0107-.0347-.04-.0187-.032-.0187-.0507 0-.112.216-.20533.184-.08.32-.08.11467 0 .176.0853.0533.0747.0533.19467z"/></g><g fill="none" stroke="#f4f4f4" stroke-linecap="round" transform="translate(-945.57989 -519.20355)"><g><path d="m1202.2027 670.47329c-5.462 0-9.8591 4.50949-9.8591 10.11095v58.64856c0 5.60149 4.4857 10.1472 9.9477 10.1472m0 0 .01 2.09423m0 0v277.34377c0 3.9729-3.1983 7.1712-7.1712 7.1712h-232.5274m-7.1712-365.51241v-143.10206c0-3.97283 3.1984-7.17118 7.1712-7.17118h232.5224c3.9728 0 7.1712 3.19835 7.1712 7.17118v143.05642m-246.7712.0421c5.46196 0 9.86533 4.50949 9.85914 10.11095l-.0648 58.63598c-.006 5.60148-4.39718 10.11098-9.85914 10.11098m-.0288.14303v277.34381c0 3.9729 3.19834 9.1712 7.17118 9.1712h232.52242c3.9728 0 7.1712-3.1983 7.1712-7.1712m0-358.34121v-143.10206c0-3.97283-3.1984-7.17118-7.1712-7.17118h-232.5224c-3.97284 0-7.17118 3.19835-7.17118 7.17118v143.05642" stroke-width="2.8"/><rect height="185.50778" rx="4.83661" stroke-width="2.8" width="227.95375" x="964.38635" y="841.85828"/><g stroke-width="1.4"><rect height="19.049175" rx="4.83661" width="203.18446" x="977.49261" y="822.65253"/><path d="m1087.2949 861.95898c-21.0373 0-41.9446 8.66146-56.8203 23.53711-14.8756 14.87566-23.5371 35.78296-23.5371 56.82032 0 21.03735 8.6615 41.94466 23.5371 56.82031 14.8757 14.87568 35.783 23.53708 56.8203 23.53708 21.0374 0 41.9447-8.6614 56.8203-23.53708 14.8757-14.87565 23.5371-35.78296 23.5371-56.82031 0-21.03736-8.6614-41.94466-23.5371-56.82032-14.8756-14.87565-35.7829-23.53711-56.8203-23.53711z" transform="translate(-8.6102 -8.651638)"/><path d="m1162.9919 598.66156h16.5313v217.4666h-16.5313zm-185.49922-.42242h16.53122v217.46659h-16.53122zm8.73205.15616v-5.43155h184.89987v5.80648m0 217.30959v6.57271h-184.89987v-6.85553"/><rect height="21.199038" rx="4.83661" width="203.18446" x="977.49261" y="571.66791"/></g><rect height="35.840824" rx="6.784318" stroke-width="2.8" width="207.07492" x="975.37091" y="535.50055"/></g><g stroke-width="2.8"><circle cx="1078.8627" cy="933.02289" r="69.5"/><circle cx="1079.0195" cy="933.81073" r="17"/><circle cx="1079.420424" cy="789.23865" r="19"/><circle cx="1131.628324" cy="788.79486" r="19"/><circle cx="1026.480624" cy="790.29706" r="19"/><circle cx="1079.420424" cy="737.23865" r="19"/><circle cx="1131.628324" cy="736.79486" r="19"/><circle cx="1026.480624" cy="738.29706" r="19"/><circle cx="1079.420424" cy="685.23865" r="19"/><circle cx="1131.628324" cy="684.79486" r="19"/><circle cx="1026.480624" cy="686.29706" r="19"/><circle cx="1079.420424" cy="633.23865" r="19"/><circle cx="1131.628324" cy="632.79486" r="19"/><circle cx="1026.480624" cy="634.29706" r="19"/><path d="m1192.5844 740.26001c10.3497 0 20.118-4.45002 18.6818-9.85915m0 0c-3.3516-12.62338-3.1847-25.48742 0-38.55789 1.32-5.41737-8.3321-9.85914-18.6818-9.85914"/><path d="m965.05889 740.24201c-10.34971 0-19.7759-4.43202-18.33975-9.84115m0 0c3.3516-12.62338 3.18472-25.48742 0-38.55789-1.31997-5.41737 8.3321-9.85914 18.68181-9.85914"/></g></g></svg>