<svg height="369.92862" viewBox="0 0 723.91885 480.90721" width="556.86066" xmlns="http://www.w3.org/2000/svg"><g fill="none" stroke="#f4f4f4" stroke-width="2.6"><path d="m573.213661 327.762437h21.091867v21.091866h-21.091867z"/><path d="m600.844221 327.762437h21.091867v21.091866h-21.091867z"/><path d="m628.569561 327.762437h21.091867v21.091866h-21.091867z"/><path d="m656.227951 327.762437h21.091867v21.091866h-21.091867z"/><path d="m573.213661 355.371207h21.091867v21.091866h-21.091867z"/><path d="m600.844221 355.371207h21.091867v21.091866h-21.091867z"/><path d="m628.569561 355.371207h21.091867v21.091866h-21.091867z"/><path d="m656.227951 355.371207h21.091867v21.091866h-21.091867z"/><path d="m573.213661 383.762437h21.091867v21.091866h-21.091867z"/><path d="m600.844221 383.762437h21.091867v21.091866h-21.091867z"/><path d="m628.569561 383.762437h21.091867v21.091866h-21.091867z"/><path d="m656.227951 383.762437h21.091867v21.091866h-21.091867z"/><path d="m573.213661 411.371207h21.091867v21.091866h-21.091867z"/><path d="m600.844221 411.371207h21.091867v21.091866h-21.091867z"/><path d="m628.569561 411.371207h21.091867v21.091866h-21.091867z"/><path d="m656.227951 412.491197h21.091867v46.851852h-21.091867z"/><path d="m574.313761 439.371207h46.39386v21.091866h-46.39386z"/><path d="m628.569561 439.371207h21.091867v21.091866h-21.091867z"/><path d="m507.560458 411.636767h21.091867v21.091866h-21.091867z"/><path d="m479.929898 439.245537h21.091867v21.091866h-21.091867z"/><path d="m507.560458 439.245537h21.091867v21.091866h-21.091867z"/><path d="m535.285798 439.245537h21.091867v21.091866h-21.091867z"/><path d="m535.285803 355.37121h21.091867v21.091866h-21.091867z"/><path d="m507.560463 355.37121h21.091867v21.091866h-21.091867z"/><path d="m479.929903 355.37121h21.091867v21.091866h-21.091867z"/><path d="m535.285803 327.76245h21.091867v21.091866h-21.091867z"/><path d="m507.560463 327.76245h21.091867v21.091866h-21.091867z"/><path d="m479.929903 327.76245h21.091867v21.091866h-21.091867z"/><g transform="translate(-26.639789 -34.685893)"><path d="m451.8389 473.59515h35.309742v21.909513h-35.309742z"/><path d="m381.5564 473.28125h34.870918v22.210321h-34.870918z"/><path d="m189.41501-495.49033h178.63844v22.239237h-178.63844z" transform="scale(1 -1)"/><path d="m143.79089 473.59515h32.293892v21.909515h-32.293892z"/><path d="m73.757553 473.59515h34.671577v21.909513h-34.671577z"/></g><path d="m388.389721 410.909257h72.136269v21.909513h-72.136269z"/><path d="m360.434701 410.909257h21.909517v21.909513h-21.909517z"/><path d="m332.562911 410.909257h21.909515v21.909515h-21.909515z"/><path d="m304.616501 410.909257h21.909517v21.909513h-21.909517z"/><path d="m276.389721 410.909257h21.909517v21.909513h-21.909517z"/><path d="m248.434701 410.909257h21.909517v21.909513h-21.909517z"/><path d="m220.562891 410.909257h21.909515v21.909515h-21.909515z"/><path d="m192.616481 410.909257h21.909517v21.909513h-21.909517z"/><path d="m164.389711 410.909257h21.909517v21.909513h-21.909517z"/><path d="m136.434691 410.909257h21.909517v21.909513h-21.909517z"/><path d="m108.562891 410.909257h21.909515v21.909515h-21.909515z"/><path d="m46.562886 410.909257h55.954494v21.909513h-55.954494z"/><path d="m402.389691 382.909257h58.136269v21.909513h-58.136269z"/><path d="m374.434701 382.909257h21.909517v21.909513h-21.909517z"/><path d="m346.562911 382.909257h21.909515v21.909515h-21.909515z"/><path d="m318.616501 382.909257h21.909517v21.909513h-21.909517z"/><path d="m290.389721 382.909257h21.909517v21.909513h-21.909517z"/><path d="m262.434701 382.909257h21.909517v21.909513h-21.909517z"/><path d="m234.562911 382.909257h21.909515v21.909515h-21.909515z"/><path d="m206.616481 382.909257h21.909517v21.909513h-21.909517z"/><path d="m178.389711 382.909257h21.909517v21.909513h-21.909517z"/><path d="m150.434691 382.909257h21.909517v21.909513h-21.909517z"/><path d="m122.562891 382.909257h21.909515v21.909515h-21.909515z"/><path d="m94.389711 382.909257h21.909517v21.909513h-21.909517z"/><path d="m46.562886 382.909257h41.781311v21.909513h-41.781311z"/><path d="m424.344741 354.909257h36.181278v21.909513h-36.181278z"/><path d="m396.389721 354.909257h21.909517v21.909513h-21.909517z"/><path d="m368.434701 354.909257h21.909517v21.909513h-21.909517z"/><path d="m340.562911 354.909257h21.909515v21.909515h-21.909515z"/><path d="m312.616501 354.909257h21.909517v21.909513h-21.909517z"/><path d="m284.389721 354.909257h21.909517v21.909513h-21.909517z"/><path d="m256.434701 354.909257h21.909517v21.909513h-21.909517z"/><path d="m228.562891 354.909257h21.909515v21.909515h-21.909515z"/><path d="m200.616481 354.909257h21.909517v21.909513h-21.909517z"/><path d="m172.389711 354.909257h21.909517v21.909513h-21.909517z"/><path d="m144.434691 354.909257h21.909517v21.909513h-21.909517z"/><path d="m116.562891 354.909257h21.909515v21.909515h-21.909515z"/><path d="m88.389711 354.909257h21.909517v21.909513h-21.909517z"/><path d="m46.562886 354.909257h35.781311v21.909513h-35.781311z"/><path d="m438.616501 326.909257h21.909517v21.909513h-21.909517z"/><path d="m410.389721 326.909257h21.909517v21.909513h-21.909517z"/><path d="m382.434701 326.909257h21.909517v21.909513h-21.909517z"/><path d="m354.562911 326.909257h21.909515v21.909515h-21.909515z"/><path d="m326.616501 326.909257h21.909517v21.909513h-21.909517z"/><path d="m298.389721 326.909257h21.909517v21.909513h-21.909517z"/><path d="m270.434701 326.909257h21.909517v21.909513h-21.909517z"/><path d="m242.562911 326.909257h21.909515v21.909515h-21.909515z"/><path d="m214.616481 326.909257h21.909517v21.909513h-21.909517z"/><path d="m186.389711 326.909257h21.909517v21.909513h-21.909517z"/><path d="m158.434691 326.909257h21.909517v21.909513h-21.909517z"/><path d="m130.562891 326.909257h21.909515v21.909515h-21.909515z"/><path d="m102.389711 326.909257h21.909517v21.909513h-21.909517z"/><path d="m74.434691 326.909257h21.909517v21.909513h-21.909517z"/><path d="m46.479657 326.909257h21.909515v21.909515h-21.909515z"/><path d="m357.020861 280.34143h21.091867v21.091866h-21.091867z"/><path d="m384.651451 280.34143h21.091867v21.091866h-21.091867z"/><path d="m412.376731 280.34143h21.091867v21.091866h-21.091867z"/><path d="m440.035111 280.34143h21.091867v21.091866h-21.091867z"/><path d="m535.285791 280.34143h21.091867v21.091866h-21.091867z"/><path d="m507.560441 280.34143h21.091867v21.091866h-21.091867z"/><path d="m479.929891 280.34143h21.091867v21.091866h-21.091867z"/><path d="m225.139761 280.34143h21.091867v21.091866h-21.091867z"/><path d="m252.770341 280.34143h21.091867v21.091866h-21.091867z"/><path d="m280.495621 280.34143h21.091867v21.091866h-21.091867z"/><path d="m308.154011 280.34143h21.091867v21.091866h-21.091867z"/><path d="m93.954331 280.34143h21.091867v21.091866h-21.091867z"/><path d="m121.584921 280.34143h21.091867v21.091866h-21.091867z"/><path d="m149.310201 280.34143h21.091867v21.091866h-21.091867z"/><path d="m176.968591 280.34143h21.091867v21.091866h-21.091867z"/><path d="m46.521751 280.47577h20.963121v20.963118h-20.963121z"/></g><g fill="none" stroke="#f4f4f4" stroke-width="2" transform="translate(-26.902714 -32.085893)"><g stroke-width="1.3"><path d="m600.16809 310.39636h104.76764v24.376602h-104.76764z"/><path d="m693.20258 313.87192h6.55118v6.551176h-6.55118z"/><path d="m693.40564 324.46616h6.55118v6.551176h-6.55118z"/></g><path d="m388.86299 282.67488h-344.93082l-.08406-49.4687 4.653768-190.185647c.29488-3.70877 3.79403-4.145373 7.73398-4.509187l230.290782-5.404046m204.62853-.02141 230.29077 5.404046c3.93995.363814 7.4391.800417 7.73398 4.509187l4.63058 191.615247-.002 48.0605h-344.9384m102.28507-249.588977h-102.29478l-102.33375.021407m-229.517537 249.58626 10.322547 218.76748 643.05678-.45762 8.91732-218.45764" stroke-width="2.6"/><path d="m31.232464 233.31958c-1.84468 0-3.32975 1.48507-3.32975 3.32975m0 0v272.01396c0 1.84468 1.48507 3.32975 3.32975 3.32975 119.209886 0-150.281534.00009 357.629656 0m-357.629656-278.67346 13.22359-.001m690.166996.001h11.86873m0 0c1.84468 0 3.32975 1.48507 3.32975 3.32975m0 0v272.01396c0 1.84468-1.48507 3.32975-3.32975 3.32975h-357.62966" stroke-width="2.6"/><g stroke-width="1.3"><path d="m51.066841 241.4225h56.482578v29.946922h-56.482578z"/><g><path d="m205.48372 35.372288h3.369303v162.64377h-3.369303z"/><path d="m215.48372 35.372288h3.369303v162.64377h-3.369303z"/><path d="m225.48372 34.669758h3.369303v163.3463h-3.369303z"/><path d="m235.48372 34.584564h3.369303v161.39005h-3.369303z"/><path d="m195.48372 35.372288h3.369303v162.64377h-3.369303z"/><path d="m185.48372 35.559715h3.369303v162.45634h-3.369303z"/><path d="m175.48372 36.001579h3.369303v162.01448h-3.369303z"/><path d="m165.48372 36.067589h3.369303v161.94847h-3.369303z"/><path d="m155.48372 36.441101h3.369303v161.57495h-3.369303z"/><path d="m145.48372 36.420273h3.369303v161.59578h-3.369303z"/><path d="m135.48372 36.739914h3.369303v161.27614h-3.369303z"/><path d="m125.48372 37.05899h3.369303v160.95706h-3.369303z"/><path d="m115.48187 37.387909h3.373002v158.5867h-3.373002z"/><path d="m105.47668 37.702126h3.383387v153.97232h-3.383387z"/><path d="m95.437737 37.802883h3.461266v113.96407h-3.461266z"/><path d="m85.437737 38.115772h3.461266v113.65118h-3.461266z"/><path d="m75.437737 38.31855h3.461266v113.4484h-3.461266z"/><path d="m65.437737 38.318367h3.461266v113.44859h-3.461266z"/><path d="m55.437737 38.839573h3.461266v112.92738h-3.461266z"/><path d="m245.47795 34.054367h3.380847v157.62007h-3.380847z"/><path d="m255.43805 33.96521h3.460675v117.80174h-3.460675z"/><path d="m265.43805 33.920971h3.460675v117.84599h-3.460675z"/><path d="m275.43805 33.358978h3.460675v118.40797h-3.460675z"/><path d="m285.43805 33.194851h3.460675v118.57211h-3.460675z"/><path d="m295.43805 33.140953h3.460675v118.626h-3.460675z"/><path d="m305.43805 33.032276h3.460675v118.73467h-3.460675z"/><path d="m315.43805 33.263634h3.460675v118.50332h-3.460675z"/><path d="m325.43805 33.250759h3.460675v118.5162h-3.460675z"/><path d="m335.43805 33.138363h3.460675v118.62859h-3.460675z"/><path d="m345.43805 33.297173h3.460675v118.46978h-3.460675z"/><path d="m355.43805 33.198868h3.460675v118.56808h-3.460675z"/><path d="m365.43805 33.290707h3.460675v118.47625h-3.460675z"/><path d="m375.43805 33.300098h3.460675v118.46686h-3.460675z"/><path d="m385.43805 33.368576h3.460675v118.39838h-3.460675z"/><path d="m395.43805 33.394783h3.460675v118.37217h-3.460675z"/><path d="m405.43805 33.306175h3.460675v118.46078h-3.460675z"/><path d="m415.43805 33.071327h3.460675v118.69563h-3.460675z"/><path d="m425.43805 33.188984h3.460675v118.57797h-3.460675z"/><path d="m435.43805 33.490753h3.460675v118.2762h-3.460675z"/><path d="m445.43805 33.281036h3.460675v118.48592h-3.460675z"/><path d="m455.43805 33.023418h3.460675v118.74353h-3.460675z"/><path d="m495.43805 33.555218h3.460675v118.21173h-3.460675z"/><path d="m485.43805 33.119175h3.460675v118.64778h-3.460675z"/><path d="m475.43805 33.25684h3.460675v118.51012h-3.460675z"/><path d="m465.43805 33.213593h3.460675v118.55336h-3.460675z"/><path d="m529.43805 34.285572h3.460675v117.48138h-3.460675z"/><path d="m539.43805 34.538879h3.460675v117.22807h-3.460675z"/><path d="m549.43805 34.538879h3.460675v117.22807h-3.460675z"/><path d="m559.43805 34.538879h3.460675v117.22807h-3.460675z"/><path d="m569.43805 34.907993h3.460675v116.85896h-3.460675z"/><path d="m579.43805 35.371094h3.460675v116.39586h-3.460675z"/><path d="m589.43805 36.114948h3.460675v115.652h-3.460675z"/><path d="m599.43805 35.990997h3.460675v115.77596h-3.460675z"/><path d="m609.43805 36.45969h3.460675v115.30726h-3.460675z"/><path d="m619.43805 36.53001h3.460675v115.23695h-3.460675z"/><path d="m629.43805 36.457001h3.460675v115.30995h-3.460675z"/><path d="m639.43805 36.872818h3.460675v114.89413h-3.460675z"/><path d="m649.43805 36.655392h3.460675v115.11157h-3.460675z"/><path d="m659.43805 37.059273h3.460675v114.70768h-3.460675z"/><path d="m669.43805 37.490601h3.460675v114.27635h-3.460675z"/><path d="m679.43805 37.552841h3.460675v114.21411h-3.460675z"/><path d="m689.43805 37.856888h3.460675v113.91006h-3.460675z"/><path d="m699.43805 38.159134h3.460675v113.60782h-3.460675z"/><path d="m709.43805 38.033306h3.460675v113.73365h-3.460675z"/><path d="m719.43805 38.450592h3.460675v113.31636h-3.460675z"/></g></g></g><g fill="#f4f4f4" fill-opacity=".5" stroke-width="1.3"><path d="m660.44674 472.01311q0 .416-.10053.70027-.14907.42294-.4784.42294-.2184 0-.4576-.10054-.28774-.12133-.31547-.29813.0971 0 .2288.0347.30507.0797.38134.0797.29466 0 .44373-.29467.11787-.23573.11787-.56507 0-.23226-.15254-.66213-.14906-.43333-.14906-.6032 0-.052.0277-.0832.0312-.0347.0832-.0347.1352 0 .26347.624.10746.52694.10746.78z"/><path d="m661.78141 472.36671q0 .35361-.20453.55467-.20453.20107-.56507.20107-.1976 0-.30507-.0936-.10746-.0936-.10746-.28773 0-.27387.35707-.55121.33973-.26346.62746-.26346.13174 0 .17334.16293.0243.0936.0243.27733zm-.21146.0971q0-.0416-.0104-.0797-.007-.0416-.0277-.0936-.0555.0381-.18373.1872-.0659.0763-.1144.11093 0-.0659.0139-.10747.0277-.0589.0451-.10053-.15253 0-.31893.12827-.16294.12827-.16294.27733 0 .10054.11094.10054.21147 0 .40907-.104.2392-.1248.2392-.31894z"/><path d="m663.20968 472.50885q0 .16987-.12827.38133-.1456.2392-.3016.2392-.0451 0-.0763-.0485-.0277-.052-.0277-.10053 0-.0624.13174-.19414.1352-.1352.1352-.18373 0-.0312-.0104-.0624-.0104-.0312-.0139-.0416-.26.0589-.5304.29813-.26693.2392-.4056.2704-.0277-.0763-.0277-.156 0-.0971.0451-.20453.0312-.0763.104-.18374.12134-.18373.25654-.416.0693-.12133.2392-.41946.17333-.29814.25306-.42294.0416-.0624.0728-.0936.0451-.0416.10747-.0555.0416.0139.0589.052.0208.0381.0208.0901 0 .11787-.15253.31893-.27733.36054-.28427.3744-.156.23574-.156.4264l.007.0347q.19066-.0936.22533-.10747.14213-.0589.24267-.0589.11093 0 .16293.0763.052.0728.052.1872z"/><path d="m664.81822 472.30431q0 .23574-.1144.50267-.1248.29467-.30854.4056-.0381-.0451-.0659-.10053-.0243-.0555-.0243-.11093 0-.0589.17333-.35014.0763-.12827.0693-.22533l-.003-.0451q-.12827.0381-.44373.23227-.312.19067-.63094.38827-.0485 0-.0901-.0347-.0381-.0381-.0381-.0832 0-.0728.23226-.4888.0693-.1248.2496-.43334.0555.0728.0728.16294.0173.0867.0173.208 0 .052 0 .0797.31893-.19067.4992-.28773.1976-.10747.2704-.10747.0485 0 .0901.11093.0451.11094.0451.1768z"/><path d="m667.83075 472.97685q0 .0624-.0555.0971-.052.0312-.11787.0312-.0589 0-.14907-.0139-.20453-.0312-.26346-.0312-.104 0-.40907.0243-.17334.0139-.2496.0139-.21147 0-.21147-.21146 0-.20107.13173-.57547.0728-.21147.27387-.69334.18027-.43333.2288-.61013.0173-.0555.0277-.0728.0277-.0416.0693-.0416.0659 0 .11093.0971.0451.0936.0451.16986 0 .12134-.14213.40907-.14214.28427-.27734.55813-.14907.32587-.14907.49574 0 .0867.0728.12133.052.0243.15253.0243.0763 0 .26347-.0173.1872-.0208.2496-.0208.156 0 .25653.0451.14213.0624.14213.20107z"/><path d="m669.12035 472.36671q0 .35361-.20453.55467-.20453.20107-.56507.20107-.1976 0-.30506-.0936-.10747-.0936-.10747-.28773 0-.27387.35707-.55121.33973-.26346.62746-.26346.13174 0 .17334.16293.0243.0936.0243.27733zm-.21146.0971q0-.0416-.0104-.0797-.007-.0416-.0277-.0936-.0555.0381-.18373.1872-.0659.0763-.1144.11093 0-.0659.0139-.10747.0277-.0589.0451-.10053-.15253 0-.31893.12827-.16293.12827-.16293.27733 0 .10054.11093.10054.21147 0 .40907-.104.2392-.1248.2392-.31894z"/><path d="m670.57982 472.29391q0 .11094-.0589.23574-.0555.1248-.14213.208l-.003-.0485q0-.0416.0104-.12827.0104-.0867.0104-.12827 0-.0589-.0173-.0867-.0173-.0312-.0728-.0312-.16294 0-.4056.25307-.26347.27734-.52347.5512-.0208 0-.0416-.003-.052-.0139-.0693-.0173.0104-.1248.0867-.27733.20454-.41254.21147-.44027.0277-.11093.0416-.16293.0139-.052.0381-.10747.0277-.0589.0624-.104.0381-.0485.0971-.0728l.0347.416q.14906-.12133.2288-.1872.15253-.12133.26346-.12133.11094 0 .18027.0728.0693.0728.0693.18026z"/><path d="m672.28196 471.89178q0 .1456-.38827.3848-.3744.2288-.54426.2288-.0797 0-.10747-.0555-.0243-.0555-.0243-.156 0-.0659 0-.0936.23227 0 .42294-.0693.19066-.0693.3328-.2288-.104-.0381-.21147-.0381-.25307 0-.53733.19413-.312.21147-.312.45067 0 .2288.312.31893.0485.0139.58586.0971.31547.0485.31547.16987 0 .052-.1144.0832-.1144.0347-.2912.0347-.44373 0-.70027-.1352-.33973-.18026-.33973-.57893 0-.416.416-.66214.3536-.208.80427-.208.1352 0 .24613.0624.1352.0763.1352.20107z"/><path d="m673.6617 471.27125q0 .0763-.18374.31893-.18373.24267-.18373.37093 0 .0659.0763.13174.17333.15253.17333.1872 0 .0451-.0312.0867-.0277.0416-.0728.0416-.0381 0-.10747-.0416-.0485-.0277-.1872-.1352-.052.10054-.0797.15254-.0971.18373-.13173.26693-.052.15947-.104.31894-.0901.21493-.22534.21493l-.003-.0797q0-.24614.15946-.58241.0312-.0624.17334-.3224-.27387-.14906-.6032-.14906 0-.12827.052-.1872.0555-.0624.18373-.0624.11787 0 .29467.0416.0867.0208.17333.0416.0659-.0208.18027-.22534.2808-.49226.38133-.56506.0277.0451.0451.0901.0208.0451.0208.0867z"/><path d="m674.9409 472.50885q0 .16987-.12827.38133-.1456.2392-.3016.2392-.0451 0-.0763-.0485-.0277-.052-.0277-.10053 0-.0624.13174-.19414.1352-.1352.1352-.18373 0-.0312-.0104-.0624-.0104-.0312-.0139-.0416-.26.0589-.5304.29813-.26693.2392-.4056.2704-.0277-.0763-.0277-.156 0-.0971.0451-.20453.0312-.0763.104-.18374.12134-.18373.25654-.416.0693-.12133.2392-.41946.17333-.29814.25306-.42294.0416-.0624.0728-.0936.0451-.0416.10747-.0555.0416.0139.0589.052.0208.0381.0208.0901 0 .11787-.15253.31893-.27733.36054-.28427.3744-.156.23574-.156.4264l.007.0347q.19066-.0936.22533-.10747.14213-.0589.24267-.0589.11093 0 .16293.0763.052.0728.052.1872z"/><path d="m677.78704 471.37871q0 .16294-.17333.4368-.11094.17334-.364.4992-.25307.32241-.31547.42294.0104.003.26.0832.25307.0763.25307.27733-.104.0173-.20454.0312l-.0381-.003v-.0277q-.0555-.0139-.0901-.0139-.0659 0-.208.0208-.14214.0208-.21494.0208-.0936 0-.15253-.0347-.0589-.0347-.0589-.1248 0-.0728.26693-.41254.4992-.6344.50267-.64133.2704-.36747.2704-.49227 0-.0485-.0347-.0728-.0312-.0243-.12827-.0243-.0659 0-.27386.12826-.10054.0624-.16294.0624l-.0589-.0104q-.0208-.0139-.0451-.052-.0243-.0416-.0243-.0659 0-.1456.2808-.26694.2392-.104.416-.104.14906 0 .2288.11094.0693.0971.0693.25306z"/><path d="m679.87051 472.00271q0 .41947-.45414.74187-.416.29467-.85626.29467-.2184 0-.34667-.11093-.12827-.11094-.12827-.3224 0-.47147.41254-.81814.39173-.32933.87706-.32933.24614 0 .37094.1456.1248.1456.1248.39866zm-.21147.0797q0-.15947-.18027-.2392-.1352-.0589-.3224-.0589-.27386 0-.572.26694-.29813.26693-.29813.53733 0 .11094.0555.15947.0589.0451.1768.0451.33973 0 .7072-.1872.43333-.22187.43333-.52347z"/><path d="m681.45824 471.37871q0 .16294-.17333.4368-.11093.17334-.364.4992-.25307.32241-.31547.42294.0104.003.26.0832.25307.0763.25307.27733-.104.0173-.20453.0312l-.0381-.003v-.0277q-.0555-.0139-.0901-.0139-.0659 0-.208.0208-.14213.0208-.21493.0208-.0936 0-.15254-.0347-.0589-.0347-.0589-.1248 0-.0728.26693-.41254.4992-.6344.50267-.64133.2704-.36747.2704-.49227 0-.0485-.0347-.0728-.0312-.0243-.12826-.0243-.0659 0-.27387.12826-.10053.0624-.16293.0624l-.0589-.0104q-.0208-.0139-.0451-.052-.0243-.0416-.0243-.0659 0-.1456.2808-.26694.2392-.104.416-.104.14907 0 .2288.11094.0693.0971.0693.25306z"/><path d="m683.05291 471.37871q0 .16294-.17333.4368-.11094.17334-.364.4992-.25307.32241-.31547.42294.0104.003.26.0832.25307.0763.25307.27733-.104.0173-.20454.0312l-.0381-.003v-.0277q-.0555-.0139-.0901-.0139-.0659 0-.208.0208-.14214.0208-.21494.0208-.0936 0-.15253-.0347-.0589-.0347-.0589-.1248 0-.0728.26693-.41254.4992-.6344.50267-.64133.2704-.36747.2704-.49227 0-.0485-.0347-.0728-.0312-.0243-.12827-.0243-.0659 0-.27386.12826-.10054.0624-.16294.0624l-.0589-.0104q-.0208-.0139-.0451-.052-.0243-.0416-.0243-.0659 0-.1456.2808-.26694.2392-.104.416-.104.14906 0 .2288.11094.0693.0971.0693.25306z"/></g></svg>