<svg height="350.26" viewBox="0 0 598.189 350.26" width="598.189" xmlns="http://www.w3.org/2000/svg"><g fill="#f4f4f4"><path d="m228.53 10.779v.924l1.099 189.347h1.849l-1.1-188.447h135.508l-1.1 188.447h1.823l1.1-189.347v-.924h-.899-137.355z"/><path d="m231.453 200.949-1.823.2 15.39 137.706.099.825h.825 34.375v-1.823h-33.577z"/><path d="m364.787 200.949-15.29 136.908h-33.526v1.823h34.353.823l.075-.825 15.389-137.706z"/><path d="m255.461 222.86c-1.159 0-2.148.928-2.148 2.099v18.013c0 1.169.989 2.098 2.148 2.098h24.009c.804 0 1.406-.507 1.774-1.175h.375v-.923-18.013c0-1.171-.964-2.099-2.124-2.099zm0 1.824h24.034c.199 0 .3.126.3.275v17.088.925c0 .147-.125.274-.325.274h-24.009c-.2 0-.324-.127-.324-.274v-18.013c0-.149.125-.275.324-.275z"/><g stroke="#eaeaea" stroke-width="1.8313"><path d="m273.416 45.92c0 .463-.386.836-.862.836h-25.279c-.477 0-.864-.373-.864-.836v-19.218c0-.463.386-.836.864-.836h25.279c.476 0 .862.374.862.836z"/><path d="m311.629 45.92c0 .463-.387.836-.864.836h-25.278c-.476 0-.862-.373-.862-.836v-19.218c0-.463.386-.836.862-.836h25.278c.478 0 .864.374.864.836z"/><path d="m349.843 45.92c0 .463-.387.836-.863.836h-25.28c-.476 0-.864-.373-.864-.836v-19.218c0-.463.389-.836.864-.836h25.279c.477 0 .863.374.863.836v19.218z"/></g><path d="m286.466 222.86c-1.16 0-2.149.928-2.149 2.099v18.013c0 1.169.989 2.098 2.149 2.098h24.033c.804 0 1.383-.51 1.749-1.175h.4v-.923-18.013c0-1.169-.99-2.099-2.149-2.099zm0 1.824h24.033c.199 0 .301.125.301.275v17.088.925c0 .148-.102.274-.301.274h-24.033c-.2 0-.326-.127-.326-.274v-18.013c.001-.149.126-.275.326-.275z"/><path d="m316.87 222.86c-1.159 0-2.147.93-2.147 2.099v18.013c0 1.167.988 2.098 2.147 2.098h24.033c1.159 0 2.124-.931 2.124-2.098v-18.013c0-1.169-.965-2.099-2.124-2.099zm0 1.824h24.033c.197 0 .299.125.299.275v18.013c0 .148-.102.274-.299.274h-24.033c-.201 0-.325-.126-.325-.274v-18.013c0-.15.124-.275.325-.275z"/><path d="m255.461 250.217c-1.159 0-2.148.928-2.148 2.098v18.013c0 1.17.989 2.1 2.148 2.1h24.009c.806 0 1.409-.528 1.774-1.199h.375v-.9-18.013c0-1.17-.964-2.098-2.124-2.098h-24.034zm0 1.823h24.034c.199 0 .3.126.3.274v17.089.924c0 .15-.125.274-.325.274h-24.009c-.2 0-.324-.124-.324-.274v-18.013c0-.148.125-.274.324-.274z"/><path d="m286.466 250.217c-1.16 0-2.149.928-2.149 2.098v18.013c0 1.17.989 2.1 2.149 2.1h24.033c.806 0 1.385-.531 1.749-1.199h.4v-.9-18.013c0-1.168-.99-2.098-2.149-2.098h-24.033zm0 1.823h24.033c.199 0 .301.125.301.274v17.089.924c0 .151-.102.274-.301.274h-24.033c-.2 0-.326-.124-.326-.274v-18.013c.001-.148.126-.274.326-.274z"/><path d="m316.87 250.217c-1.159 0-2.147.93-2.147 2.098v18.013c0 1.169.988 2.1 2.147 2.1h24.033c1.159 0 2.124-.931 2.124-2.1v-18.013c0-1.168-.965-2.098-2.124-2.098zm0 1.823h24.033c.197 0 .299.125.299.274v18.013c0 .151-.102.274-.299.274h-24.033c-.201 0-.325-.123-.325-.274v-18.013c0-.149.124-.274.325-.274z"/><path d="m255.461 275.474c-1.159 0-2.148.953-2.148 2.124v17.988c0 1.168.989 2.122 2.148 2.122h24.009c.804 0 1.406-.533 1.774-1.198h.375v-.924-17.988c0-1.171-.964-2.124-2.124-2.124zm0 1.823h24.034c.199 0 .3.152.3.301v17.089.899c0 .149-.125.274-.325.274h-24.009c-.2 0-.324-.125-.324-.274v-17.988c0-.149.125-.301.324-.301z"/><path d="m286.466 275.474c-1.16 0-2.149.953-2.149 2.124v17.988c0 1.168.989 2.122 2.149 2.122h24.033c.804 0 1.383-.534 1.749-1.198h.4v-.924-17.988c0-1.169-.99-2.124-2.149-2.124zm0 1.823h24.033c.199 0 .301.151.301.301v17.089.899c0 .15-.102.274-.301.274h-24.033c-.2 0-.326-.125-.326-.274v-17.988c.001-.149.126-.301.326-.301z"/><path d="m316.87 275.474c-1.159 0-2.147.955-2.147 2.124v17.988c0 1.168.988 2.122 2.147 2.122h24.033c1.159 0 2.124-.954 2.124-2.122v-17.988c0-1.169-.965-2.124-2.124-2.124zm0 1.823h24.033c.197 0 .299.151.299.301v17.988c0 .15-.102.274-.299.274h-24.033c-.201 0-.325-.124-.325-.274v-17.988c0-.15.124-.301.325-.301z"/><path d="m255.461 300.382c-1.159 0-2.148.956-2.148 2.124v17.988c0 1.169.989 2.098 2.148 2.098h24.009c.804 0 1.406-.509 1.774-1.175h.375v-.923-17.988c0-1.168-.964-2.124-2.124-2.124zm0 1.824h24.034c.199 0 .3.15.3.3v17.063.926c0 .148-.125.274-.325.274h-24.009c-.2 0-.324-.126-.324-.274v-17.988c0-.151.125-.301.324-.301z"/><path d="m286.466 300.382c-1.16 0-2.149.956-2.149 2.124v17.988c0 1.169.989 2.098 2.149 2.098h24.033c.804 0 1.383-.512 1.749-1.175h.4v-.923-17.988c0-1.168-.99-2.124-2.149-2.124zm0 1.824h24.033c.199 0 .301.148.301.3v17.063.926c0 .148-.102.274-.301.274h-24.033c-.2 0-.326-.126-.326-.274v-17.988c.001-.151.126-.301.326-.301z"/><path d="m316.87 300.382c-1.159 0-2.147.956-2.147 2.124v17.988c0 1.168.988 2.098 2.147 2.098h24.033c1.159 0 2.124-.93 2.124-2.098v-17.988c0-1.168-.965-2.124-2.124-2.124zm0 1.824h24.033c.197 0 .299.148.299.3v17.988c0 .148-.102.274-.299.274h-24.033c-.201 0-.325-.126-.325-.274v-17.988c0-.152.124-.3.325-.3z"/><path d="m279.271 325.766v.924 13.541.924h.899 35.902.923v-.924-13.541-.924h-.923-35.902zm1.824 1.823h34.051v11.717h-34.051z"/><path d="m230.729 180.712v1.851h135.158v-1.851z"/><path d="m230.729 201.224v1.85h135.158v-1.85z"/><path d="m300.526 149.218c-.037-.545-.481-.97-1.026-.97-.547 0-.988.425-1.025.97l-.062.91-.91-.056c-4.301-.268-8.371-1.399-12.036-3.22l-.819-.406.404-.817c.076-.155.111-.314.111-.469-.002-.361-.182-.699-.514-.891-.165-.095-.333-.136-.508-.136-.336 0-.667.165-.867.466l-.508.761-.762-.507c-3.486-2.324-6.482-5.321-8.808-8.807l-.506-.761.76-.508c.301-.2.466-.533.466-.869 0-.173-.042-.344-.136-.507-.194-.334-.533-.512-.894-.514-.157 0-.312.035-.462.109l-.821.407-.407-.819c-1.82-3.666-2.949-7.735-3.217-12.036l-.058-.91.91-.06c.545-.037.97-.481.97-1.025 0-.547-.425-.991-.97-1.028l-.91-.062.058-.91c.266-4.301 1.397-8.369 3.217-12.034l.407-.817.817.405c.15.074.31.109.466.109.361-.002.702-.182.892-.512.097-.167.138-.338.138-.512 0-.334-.165-.667-.464-.865l-.764-.508.508-.761c2.324-3.488 5.32-6.485 8.806-8.809l.762-.51.51.764c.198.299.528.466.865.466.175 0 .347-.043.51-.136.33-.192.512-.532.512-.892 0-.159-.033-.315-.107-.464l-.406-.821.819-.407c3.665-1.82 7.735-2.949 12.034-3.219l.91-.058.062.913c.04.544.481.972 1.028.97.542.002.989-.425 1.026-.97l.06-.91.91.056c4.301.27 8.371 1.399 12.036 3.219l.827.411-.419.825c-.071.143-.106.295-.106.456.002.359.182.698.514.89.161.095.336.138.51.138.338-.002.666-.167.866-.466l.508-.764.764.51c3.484 2.324 6.48 5.321 8.805 8.806l.51.764-.766.508c-.3.198-.465.528-.465.867 0 .171.042.343.141.51.188.331.526.51.89.512.159 0 .315-.035.466-.109l.817-.405.409.817c1.82 3.666 2.949 7.733 3.217 12.034l.059.912-.91.06c-.545.035-.971.48-.971 1.028 0 .544.424.988.971 1.025l.908.06-.057.912c-.268 4.301-1.396 8.369-3.217 12.034l-.409.821-.819-.409c-.152-.076-.305-.109-.464-.109-.361.002-.697.18-.892.512l-.793-.456.789.464c-.093.159-.135.326-.135.501 0 .334.167.667.469.867l.764.507-.508.764c-2.326 3.486-5.322 6.482-8.809 8.807l-.762.505-.507-.757c-.205-.306-.533-.468-.867-.468-.171 0-.345.041-.514.138-.33.19-.508.528-.512.892 0 .155.035.312.111.464l.406.819-.819.409c-3.663 1.82-7.733 2.949-12.034 3.217l-.912.056zm-3.668-1.031c.429-1.036 1.445-1.77 2.642-1.77s2.213.732 2.642 1.77c3.509-.308 6.837-1.223 9.886-2.642-.017-.127-.025-.255-.025-.382-.002-.982.51-1.951 1.431-2.479.445-.258.94-.384 1.426-.384.63 0 1.246.21 1.749.598 2.809-1.977 5.26-4.428 7.238-7.236-.39-.503-.6-1.122-.6-1.753 0-.478.122-.975.386-1.423l-.002-.001c.528-.917 1.494-1.432 2.479-1.43.127 0 .255.008.383.026 1.418-3.05 2.334-6.38 2.644-9.887-1.037-.43-1.77-1.446-1.77-2.642 0-1.197.732-2.215 1.77-2.645-.31-3.507-1.226-6.838-2.645-9.888-.128.017-.255.026-.382.026-.984.002-1.95-.512-2.477-1.426-.26-.448-.386-.943-.386-1.426 0-.63.209-1.248.598-1.751-1.979-2.809-4.43-5.26-7.237-7.238-.503.387-1.121.596-1.75.596-.485 0-.98-.124-1.424-.382-.919-.528-1.433-1.494-1.431-2.477 0-.127.009-.255.025-.383-3.05-1.418-6.381-2.334-9.888-2.643-.429 1.036-1.443 1.77-2.64 1.771-1.199-.001-2.214-.736-2.644-1.771-3.509.309-6.838 1.225-9.889 2.644.017.127.025.255.025.382.002.982-.512 1.946-1.428 2.477-.448.258-.941.384-1.426.382-.629 0-1.247-.209-1.75-.596-2.808 1.978-5.259 4.43-7.236 7.239.387.503.596 1.12.596 1.749 0 .485-.126.979-.384 1.426-.528.918-1.494 1.43-2.479 1.428-.127 0-.254-.009-.381-.026-1.418 3.05-2.335 6.38-2.643 9.888 1.036.429 1.768 1.447 1.77 2.645 0 1.196-.733 2.212-1.769 2.642.309 3.507 1.225 6.837 2.643 9.887.127-.018.254-.026.381-.026.984-.002 1.948.512 2.48 1.43.258.448.382.941.382 1.424 0 .631-.209 1.248-.597 1.751 1.978 2.808 4.428 5.26 7.237 7.238.503-.388 1.121-.598 1.751-.598.481 0 .978.124 1.426.384.916.528 1.428 1.495 1.426 2.477 0 .128-.009.256-.026.384 3.056 1.416 6.386 2.333 9.893 2.641z"/><path d="m299.507 65.167c-29.471 0-53.389 23.917-53.389 53.389 0 29.471 23.917 53.388 53.389 53.388 29.473 0 53.364-23.917 53.364-53.388 0-29.472-23.892-53.389-53.364-53.389zm0 1.824c28.482 0 51.539 23.083 51.539 51.565 0 28.481-23.057 51.54-51.539 51.54-28.481 0-51.565-23.059-51.565-51.54 0-28.482 23.083-51.565 51.565-51.565z"/><path d="m299.507 71.938c-25.729 0-46.619 20.889-46.619 46.618s20.89 46.593 46.619 46.593 46.593-20.865 46.593-46.593c0-25.729-20.864-46.618-46.593-46.618zm0 1.848c24.74 0 44.769 20.03 44.769 44.77 0 24.739-20.028 44.769-44.769 44.769-24.74 0-44.794-20.03-44.794-44.769-.001-24.74 20.054-44.77 44.794-44.77z"/><path d="m299.507 95.671c-12.631 0-22.909 10.253-22.909 22.885 0 12.631 10.278 22.884 22.909 22.884s22.885-10.253 22.885-22.884c0-12.632-10.254-22.885-22.885-22.885zm0 1.824c11.643 0 21.061 9.419 21.061 21.062 0 11.642-9.418 21.06-21.061 21.06-11.641 0-21.061-9.418-21.061-21.06 0-11.643 9.42-21.062 21.061-21.062z"/><path d="m235.925 15.426v.899 42.971.924h.925 122.566.925v-.924-42.97-.899h-.925-122.566-.925zm1.824 1.824h120.742v41.146h-120.742z"/><path d="m240.747 20.173v.924 30.279.924h.924 112.923.924v-.924-30.279-.924h-.924-112.923zm1.823 1.848h111.1v28.431h-111.1z"/><path d="m229.929 10.905-.95 1.574 7.496 4.646.974-1.574z"/><path d="m237.474 15.675-1.273 1.299 4.821 4.772 1.273-1.299z"/><path d="m366.312 10.929-7.395 4.622.975 1.549 7.395-4.621z"/><path d="m358.566 15.701-4.621 4.747 1.299 1.299 4.647-4.772z"/><path d="m355.37 50.902-1.575.95 4.646 7.794 1.574-.925z"/><path d="m240.872 50.902-4.821 7.919 1.574.975 4.822-7.944z"/><path d="m366.711 32.115v1.823h2.024c.311 0 .557.059.698.201.145.141.387.529.227 1.699-.112.805-.235 2.784-.375 5.545-.142 2.762-.301 6.217-.45 9.668-.297 6.905-.566 13.886-.65 15.065-.094 1.311-.157 2.444-.399 3.123-.239.679-.425.965-1.45 1.074l.201 1.799c1.54-.165 2.572-1.119 2.973-2.248.4-1.131.411-2.371.499-3.624.101-1.385.354-8.19.651-15.09.148-3.45.31-6.917.449-9.668.141-2.751.277-4.874.35-5.396.205-1.484-.064-2.588-.726-3.248-.658-.66-1.483-.724-1.997-.724h-2.025z"/><path d="m227.306 32.115c-.514 0-1.339.064-1.999.724-.659.66-.929 1.763-.724 3.248.072.523.21 2.645.35 5.396.141 2.752.302 6.219.449 9.668.298 6.9.552 13.705.649 15.09.09 1.253.1 2.493.501 3.624.4 1.129 1.432 2.083 2.973 2.248l.2-1.799c-1.024-.109-1.209-.396-1.449-1.074-.241-.679-.306-1.812-.4-3.123-.083-1.179-.351-8.16-.649-15.065-.148-3.452-.31-6.907-.45-9.668-.141-2.761-.264-4.741-.375-5.545-.161-1.169.083-1.558.225-1.699.142-.142.389-.201.699-.201h2.023v-1.823h-2.023z"/><path d="m266.13 330.36099h10.518v3.747h-10.518z"/><path d="m319.38 330.36099h10.518v3.747h-10.518z"/></g></svg>