<svg height="349.64749" viewBox="0 0 569.05542 349.64749" width="569.05542" xmlns="http://www.w3.org/2000/svg"><g fill="#f4f4f4" fill-opacity=".5"><path d="m91.465844 91.667505q0 .32-.07733.538667-.114667.325334-.368.325334-.168 0-.352001-.07733-.221333-.09333-.242667-.229334.07467 0 .176001.02667.234667.06133.293333.06133.226667 0 .341334-.226667.09067-.181333.09067-.434667 0-.178667-.117334-.509334-.114666-.333334-.114666-.464001 0-.04.02133-.064.024-.02667.064-.02667.104 0 .202667.48.08267.405334.08267.600001z"/><path d="m92.492513 91.939505q0 .272001-.157333.426668-.157334.154666-.434667.154666-.152001 0-.234667-.072-.08267-.072-.08267-.221333 0-.210667.274667-.424001.261334-.202667.482667-.202667.101334 0 .133334.125334.01867.072.01867.213333zm-.162666.07467q0-.032-.008-.06133-.0053-.032-.02133-.072-.04267.02933-.141333.144-.05067.05867-.088.08533 0-.05067.01067-.08267.02133-.04533.03467-.07733-.117334 0-.245334.09867-.125333.09867-.125333.213333 0 .07733.08533.07733.162667 0 .314667-.08.184001-.096.184001-.245334z"/><path d="m93.591181 92.048839q0 .130667-.09867.293334-.112001.184-.232001.184-.03467 0-.05867-.03733-.02133-.04-.02133-.07733 0-.048.101334-.149334.104-.104.104-.141333 0-.024-.008-.048-.008-.024-.01067-.032-.2.04533-.408001.229334-.205333.184-.312.208-.02133-.05867-.02133-.12 0-.07467.03467-.157334.024-.05867.08-.141333.09333-.141334.197333-.320001.05333-.09333.184-.322667.133334-.229334.194667-.325334.032-.048.056-.072.03467-.032.08267-.04267.032.01067.04533.04.016.02933.016.06933 0 .09067-.117334.245334-.213334.277333-.218667.288-.12.181334-.12.328l.0053.02667q.146667-.072.173334-.08267.109333-.04533.186667-.04533.08533 0 .125333.05867.04.056.04.144z"/><path d="m94.828519 91.891505q0 .181334-.088.386668-.096.226666-.237334.312-.02933-.03467-.05067-.07733-.01867-.04267-.01867-.08533 0-.04533.133333-.269334.05867-.09867.05333-.173333l-.0027-.03467q-.09867.02933-.341334.178667-.24.146667-.485334.298667-.03733 0-.06933-.02667-.02933-.02933-.02933-.064 0-.056.178667-.376.05333-.096.192001-.333334.04267.056.056.125334.01333.06667.01333.16 0 .04 0 .06133.245334-.146667.384001-.221333.152-.08267.208-.08267.03733 0 .06933.08533.03467.08533.03467.136z"/><path d="m97.145853 92.408839q0 .048-.04267.07467-.04.024-.09067.024-.04533 0-.114667-.01067-.157333-.024-.202667-.024-.08 0-.314667.01867-.133333.01067-.192.01067-.162667 0-.162667-.162667 0-.154667.101333-.442667.056-.162667.210667-.533334.138667-.333334.176001-.469334.01333-.04267.02133-.056.02133-.032.05333-.032.05067 0 .08533.07467.03467.072.03467.130667 0 .09333-.109333.314667-.109333.218667-.213334.429334-.114666.250667-.114666.381334 0 .06667.056.09333.04.01867.117333.01867.05867 0 .202667-.01333.144-.016.192-.016.12 0 .197334.03467.109333.048.109333.154667z"/><path d="m98.137856 91.939505q0 .272001-.157334.426668-.157333.154666-.434667.154666-.152 0-.234667-.072-.08267-.072-.08267-.221333 0-.210667.274667-.424001.261334-.202667.482668-.202667.101333 0 .133333.125334.01867.072.01867.213333zm-.162667.07467q0-.032-.008-.06133-.0053-.032-.02133-.072-.04267.02933-.141334.144-.05067.05867-.088.08533 0-.05067.01067-.08267.02133-.04533.03467-.07733-.117333 0-.245333.09867-.125334.09867-.125334.213333 0 .07733.08533.07733.162667 0 .314667-.08.184-.096.184-.245334z"/><path d="m99.260524 91.883505q0 .08533-.04533.181334-.04267.096-.109333.16l-.0027-.03733q0-.032.008-.09867.008-.06667.008-.09867 0-.04533-.01333-.06667-.01333-.024-.056-.024-.125334 0-.312001.194667-.202667.213334-.402667.424001-.016 0-.032-.0027-.04-.01067-.05333-.01333.008-.096.06667-.213334.157334-.317334.162667-.338667.02133-.08533.032-.125333.01067-.04.02933-.08267.02133-.04533.048-.08.02933-.03733.07467-.056l.02667.32q.114667-.09333.176001-.144.117333-.09333.202666-.09333.08533 0 .138667.056.05333.056.05333.138666z"/><path d="m100.56986 91.574172q0 .112-.29867.296-.287996.176-.418663.176-.06133 0-.08267-.04267-.01867-.04267-.01867-.12 0-.05067 0-.072.178667 0 .325333-.05333.14666-.05333.256-.176-.08-.02933-.16267-.02933-.194662 0-.413329.149334-.240001.162667-.240001.346667 0 .176.240001.245334.03733.01067.450659.07467.24267.03733.24267.130667 0 .04-.088.064-.088.02667-.224.02667-.341329 0-.538663-.104-.261334-.138667-.261334-.445334 0-.320001.320001-.509334.272-.16.618666-.16.104 0 .18933.048.104.05867.104.154667z"/><path d="m101.6312 91.096838q0 .05867-.14134.245333-.14133.186667-.14133.285334 0 .05067.0587.101333.13333.117334.13333.144001 0 .03467-.024.06667-.0213.032-.056.032-.0293 0-.0827-.032-.0373-.02133-.144-.104-.04.07733-.0613.117334-.0747.141333-.10133.205333-.04.122667-.08.245334-.0693.165334-.17334.165334l-.003-.06133q0-.189333.12266-.448.024-.048.13334-.248001-.21067-.114667-.464-.114667 0-.09867.04-.144.0427-.048.14133-.048.0907 0 .22667.032.0667.016.13333.032.0507-.016.13867-.173333.216-.378667.29333-.434668.0213.03467.0347.06933.016.03467.016.06667z"/><path d="m102.6152 92.048839q0 .130667-.0987.293334-.112.184-.232.184-.0347 0-.0587-.03733-.0213-.04-.0213-.07733 0-.048.10134-.149334.104-.104.104-.141333 0-.024-.008-.048-.008-.024-.0107-.032-.2.04533-.408.229334-.20533.184-.312.208-.0213-.05867-.0213-.12 0-.07467.0347-.157334.024-.05867.08-.141333.0933-.141334.19734-.320001.0533-.09333.184-.322667.13333-.229334.19466-.325334.032-.048.056-.072.0347-.032.0827-.04267.032.01067.0453.04.016.02933.016.06933 0 .09067-.11733.245334-.21333.277333-.21867.288-.12.181334-.12.328l.005.02667q.14666-.072.17333-.08267.10933-.04533.18667-.04533.0853 0 .12533.05867.04.056.04.144z"/><path d="m104.80454 91.179504q0 .125334-.13333.336001-.0853.133333-.28.384-.19467.248001-.24267.325334.008.0027.2.064.19467.05867.19467.213334-.08.01333-.15734.024l-.0293-.0027v-.02133q-.0427-.01067-.0693-.01067-.0507 0-.16.016-.10934.016-.16534.016-.072 0-.11733-.02667-.0453-.02667-.0453-.096 0-.056.20534-.317333.384-.488001.38667-.493334.208-.282667.208-.378668 0-.03733-.0267-.056-.024-.01867-.0987-.01867-.0507 0-.21066.09867-.0773.048-.12534.048l-.0453-.008q-.016-.01067-.0347-.04-.0187-.032-.0187-.05067 0-.112.216-.205334.184-.08.32-.08.11466 0 .176.08533.0533.07467.0533.194666z"/><path d="m106.40721 91.659505q0 .322667-.34934.570667-.32.226667-.65867.226667-.168 0-.26666-.08533-.0987-.08533-.0987-.248 0-.362667.31733-.629334.30134-.253334.67467-.253334.18934 0 .28534.112.096.112.096.306667zm-.16267.06133q0-.122666-.13867-.184-.104-.04533-.248-.04533-.21066 0-.44.205333-.22933.205334-.22933.413334 0 .08533.0427.122667.0453.03467.136.03467.26134 0 .54401-.144.33333-.170667.33333-.402668z"/><path d="m107.62854 91.179504q0 .125334-.13333.336001-.0853.133333-.28.384-.19467.248001-.24267.325334.008.0027.2.064.19467.05867.19467.213334-.08.01333-.15733.024l-.0293-.0027v-.02133q-.0427-.01067-.0693-.01067-.0507 0-.16.016-.10933.016-.16533.016-.072 0-.11734-.02667-.0453-.02667-.0453-.096 0-.056.20533-.317333.384-.488001.38667-.493334.208-.282667.208-.378668 0-.03733-.0267-.056-.024-.01867-.0987-.01867-.0507 0-.21067.09867-.0773.048-.12533.048l-.0453-.008q-.016-.01067-.0347-.04-.0187-.032-.0187-.05067 0-.112.216-.205334.184-.08.32-.08.11467 0 .176.08533.0533.07467.0533.194666z"/><path d="m108.85521 91.179504q0 .125334-.13333.336001-.0853.133333-.28.384-.19467.248001-.24267.325334.008.0027.2.064.19467.05867.19467.213334-.08.01333-.15734.024l-.0293-.0027v-.02133q-.0427-.01067-.0693-.01067-.0507 0-.16001.016-.10933.016-.16533.016-.072 0-.11733-.02667-.0453-.02667-.0453-.096 0-.056.20534-.317333.384-.488001.38667-.493334.208-.282667.208-.378668 0-.03733-.0267-.056-.024-.01867-.0987-.01867-.0507 0-.21067.09867-.0773.048-.12533.048l-.0453-.008q-.016-.01067-.0347-.04-.0187-.032-.0187-.05067 0-.112.216-.205334.18401-.08.32001-.08.11466 0 .176.08533.0533.07467.0533.194666z"/></g><path d="m82.499092 94.131379h25.156248v21.437501h-25.156248z" fill="none" stroke="#f4f4f4" stroke-width="2"/><path d="m112.58232 92.5625h168.03125v24.71875h-168.03125z" fill="none" stroke="#f4f4f4" stroke-width="2"/><g transform="translate(-12.79263 -11.53125)"><g><g fill="none" stroke="#f4f4f4" stroke-width="2"><path d="m82.3125 12.081908v129.886842c0 2.52611 2.0687 4.59375 4.59375 4.59375h159.46875l2 .0625v18.84375h-203.28125-1v1 54.8125 1h1 6.3125v54.40625 1h1 71.0625v27.5625 1h1 259.875 1v-1-27.5625h86.0625 1v-1-54.40625h6.28125 1v-1-54.8125-1h-1-132.65625v-18.84375-.0625h161.5625c2.52611 0 4.59375-2.0687 4.59375-4.59375v-130.043565"/><path d="m581.34805 330.04632-14.72942-188.99258-43.59038-43.55374m-225.38974-85.468744h-15.74288m15.42471 348.647494h253.38055c16.97853 0 30.64716-13.66864 30.64716-30.64716v-287.353175c0-16.978526-13.66863-30.647159-30.64716-30.647159h-253.06238m-284.345878 318.015064 14.729418-188.99258 43.590377-43.55374m225.389743-85.468744h15.74288m-15.42471 348.647494h-253.38055c-16.978527 0-30.64716-13.66864-30.64716-30.64716v-287.353175c0-16.978526 13.668633-30.647159 30.64716-30.647159h253.06238"/><path d="m71.65625 13.03125-.043823 84.46875h438.825073 10.6875 1v-1-83.46875-1h-1-448.46875-1z"/><path d="m503.15625 165.46875h42.03125v140.53124h-42.03125z"/></g><path d="m294.35889 157.42859 1.42621 2.47028 1.42621 2.47027h-2.85242-2.85243l1.42621-2.47027z" fill="#fff" transform="matrix(2.32573 0 0 -1 -387.49622 316.46987)"/><g stroke="#f4f4f4"><path d="m252.37529 146.69043h-1.11318v18.68457h92.06249v-18.68457h-.5651l-.62196.002-.00044-5.41059h-88.93749v5.40909h-.63924-.18508" fill="none" stroke-width="2"/><g fill="#fff"><path d="m86.65625 15.1875v.5 28.84375.5h.5 3.875.5v-.5-28.84375-.5h-.5-3.875zm1 1h2.875v27.84375h-2.875z"/><path d="m93.25 15.1875v.5 28.84375.5h.5 3.875.5v-.5-28.84375-.5h-.5-3.875zm1 1h2.875v27.84375h-2.875z"/><path d="m99.84375 15.1875v.5 28.84375.5h.5 3.90625.5v-.5-28.84375-.5h-.5-3.90625zm1 1h2.90625v27.84375h-2.90625z"/><path d="m106.4375 15.1875v.5 28.84375.5h.5 3.90625.5v-.5-28.84375-.5h-.5-3.90625zm1 1h2.90625v27.84375h-2.90625z"/><path d="m113.0625 15.1875v.5 28.84375.5h.5 3.875.5v-.5-28.84375-.5h-.5-3.875zm1 1h2.875v27.84375h-2.875z"/><path d="m119.65625 15.1875v.5 28.84375.5h.5 3.875.5v-.5-28.84375-.5h-.5-3.875zm1 1h2.875v27.84375h-2.875z"/><path d="m126.25 15.1875v.5 28.84375.5h.5 3.90625.5v-.5-28.84375-.5h-.5-3.90625zm1 1h2.90625v27.84375h-2.90625z"/><path d="m132.84375 15.1875v.5 28.84375.5h.5 3.90625.5v-.5-28.84375-.5h-.5-3.90625zm1 1h2.90625v27.84375h-2.90625z"/><path d="m139.46875 15.1875v.5 28.84375.5h.5 3.875.5v-.5-28.84375-.5h-.5-3.875zm1 1h2.875v27.84375h-2.875z"/><path d="m146.0625 15.1875v.5 28.84375.5h.5 3.875.5v-.5-28.84375-.5h-.5-3.875zm1 1h2.875v27.84375h-2.875z"/><path d="m152.65625 15.1875v.5 28.84375.5h.5 3.90625.5v-.5-28.84375-.5h-.5-3.90625zm1 1h2.90625v27.84375h-2.90625z"/><path d="m159.25 15.1875v.5 28.84375.5h.5 3.90625.5v-.5-28.84375-.5h-.5-3.90625zm1 1h2.90625v27.84375h-2.90625z"/><path d="m165.875 15.1875v.5 28.84375.5h.5 3.875.5v-.5-28.84375-.5h-.5-3.875zm1 1h2.875v27.84375h-2.875z"/><path d="m172.46875 15.1875v.5 28.84375.5h.5 3.875.5v-.5-28.84375-.5h-.5-3.875zm1 1h2.875v27.84375h-2.875z"/><path d="m179.0625 15.1875v.5 28.84375.5h.5 3.90625.5v-.5-28.84375-.5h-.5-3.90625zm1 1h2.90625v27.84375h-2.90625z"/><path d="m185.65625 15.1875v.5 28.84375.5h.5 3.90625.5v-.5-28.84375-.5h-.5-3.90625zm1 1h2.90625v27.84375h-2.90625z"/><path d="m192.28125 15.1875v.5 28.84375.5h.5 3.875.5v-.5-28.84375-.5h-.5-3.875zm1 1h2.875v27.84375h-2.875z"/><path d="m198.875 15.1875v.5 28.84375.5h.5 3.90625.5v-.5-28.84375-.5h-.5-3.90625zm1 1h2.90625v27.84375h-2.90625z"/><path d="m205.46875 15.1875v.5 28.84375.5h.5 3.90625.5v-.5-28.84375-.5h-.5-3.90625zm1 1h2.90625v27.84375h-2.90625z"/><path d="m212.0625 15.1875v.5 28.84375.5h.5 3.90625.5v-.5-28.84375-.5h-.5-3.90625zm1 1h2.90625v27.84375h-2.90625z"/><path d="m218.6875 15.1875v.5 28.84375.5h.5 3.875.5v-.5-28.84375-.5h-.5-3.875zm1 1h2.875v27.84375h-2.875z"/><path d="m225.28125 15.1875v.5 28.84375.5h.5 3.90625.5v-.5-28.84375-.5h-.5-3.90625zm1 1h2.90625v27.84375h-2.90625z"/><path d="m231.875 15.1875v.5 28.84375.5h.5 3.90625.5v-.5-28.84375-.5h-.5-3.90625zm1 1h2.90625v27.84375h-2.90625z"/><path d="m238.5 15.1875v.5 28.84375.5h.5 3.875.5v-.5-28.84375-.5h-.5-3.875zm1 1h2.875v27.84375h-2.875z"/><path d="m245.09375 15.1875v.5 28.84375.5h.5 3.875.5v-.5-28.84375-.5h-.5-3.875zm1 1h2.875v27.84375h-2.875z"/><path d="m251.6875 15.1875v.5 28.84375.5h.5 3.90625.5v-.5-28.84375-.5h-.5-3.90625zm1 1h2.90625v27.84375h-2.90625z"/><path d="m258.28125 15.1875v.5 28.84375.5h.5 3.90625.5v-.5-28.84375-.5h-.5-3.90625zm1 1h2.90625v27.84375h-2.90625z"/><path d="m264.90625 15.1875v.5 28.84375.5h.5 3.875.5v-.5-28.84375-.5h-.5-3.875zm1 1h2.875v27.84375h-2.875z"/><path d="m271.5 15.1875v.5 28.84375.5h.5 3.875.5v-.5-28.84375-.5h-.5-3.875zm1 1h2.875v27.84375h-2.875z"/><path d="m278.09375 15.1875v.5 28.84375.5h.5 3.90625.5v-.5-28.84375-.5h-.5-3.90625zm1 1h2.90625v27.84375h-2.90625z"/><path d="m284.6875 15.1875v.5 28.84375.5h.5 3.90625.5v-.5-28.84375-.5h-.5-3.90625zm1 1h2.90625v27.84375h-2.90625z"/><path d="m291.3125 15.1875v.5 28.84375.5h.5 3.875.5v-.5-28.84375-.5h-.5-3.875zm1 1h2.875v27.84375h-2.875z"/><path d="m297.90625 15.1875v.5 28.84375.5h.5 3.875.5v-.5-28.84375-.5h-.5-3.875zm1 1h2.875v27.84375h-2.875z"/><path d="m304.5 15.1875v.5 28.84375.5h.5 3.90625.5v-.5-28.84375-.5h-.5-3.90625zm1 1h2.90625v27.84375h-2.90625z"/><path d="m311.09375 15.1875v.5 28.84375.5h.5 3.90625.5v-.5-28.84375-.5h-.5-3.90625zm1 1h2.90625v27.84375h-2.90625z"/><path d="m317.71875 15.1875v.5 28.84375.5h.5 3.875.5v-.5-28.84375-.5h-.5-3.875zm1 1h2.875v27.84375h-2.875z"/><path d="m324.3125 15.1875v.5 28.84375.5h.5 3.90625.5v-.5-28.84375-.5h-.5-3.90625zm1 1h2.90625v27.84375h-2.90625z"/><path d="m330.90625 15.1875v.5 28.84375.5h.5 3.90625.5v-.5-28.84375-.5h-.5-3.90625zm1 1h2.90625v27.84375h-2.90625z"/><path d="m337.5 15.1875v.5 28.84375.5h.5 3.90625.5v-.5-28.84375-.5h-.5-3.90625zm1 1h2.90625v27.84375h-2.90625z"/><path d="m344.125 15.1875v.5 28.84375.5h.5 3.875.5v-.5-28.84375-.5h-.5-3.875zm1 1h2.875v27.84375h-2.875z"/><path d="m350.71875 15.1875v.5 28.84375.5h.5 3.90625.5v-.5-28.84375-.5h-.5-3.90625zm1 1h2.90625v27.84375h-2.90625z"/><path d="m357.3125 15.1875v.5 28.84375.5h.5 3.90625.5v-.5-28.84375-.5h-.5-3.90625zm1 1h2.90625v27.84375h-2.90625z"/><path d="m363.9375 15.1875v.5 28.84375.5h.5 3.875.5v-.5-28.84375-.5h-.5-3.875zm1 1h2.875v27.84375h-2.875z"/><path d="m370.53125 15.1875v.5 28.84375.5h.5 3.875.5v-.5-28.84375-.5h-.5-3.875zm1 1h2.875v27.84375h-2.875z"/><path d="m377.125 15.1875v.5 28.84375.5h.5 3.90625.5v-.5-28.84375-.5h-.5-3.90625zm1 1h2.90625v27.84375h-2.90625z"/><path d="m383.71875 15.1875v.5 28.84375.5h.5 3.90625.5v-.5-28.84375-.5h-.5-3.90625zm1 1h2.90625v27.84375h-2.90625z"/><path d="m390.34375 15.1875v.5 28.84375.5h.5 3.875.5v-.5-28.84375-.5h-.5-3.875zm1 1h2.875v27.84375h-2.875z"/><path d="m396.9375 15.1875v.5 28.84375.5h.5 3.875.5v-.5-28.84375-.5h-.5-3.875zm1 1h2.875v27.84375h-2.875z"/><path d="m403.53125 15.1875v.5 28.84375.5h.5 3.90625.5v-.5-28.84375-.5h-.5-3.90625zm1 1h2.90625v27.84375h-2.90625z"/><path d="m410.125 15.1875v.5 28.84375.5h.5 3.90625.5v-.5-28.84375-.5h-.5-3.90625zm1 1h2.90625v27.84375h-2.90625z"/><path d="m416.75 15.1875v.5 28.84375.5h.5 3.875.5v-.5-28.84375-.5h-.5-3.875zm1 1h2.875v27.84375h-2.875z"/><path d="m423.34375 15.1875v.5 28.84375.5h.5 3.875.5v-.5-28.84375-.5h-.5-3.875zm1 1h2.875v27.84375h-2.875z"/><path d="m429.9375 15.1875v.5 28.84375.5h.5 3.90625.5v-.5-28.84375-.5h-.5-3.90625zm1 1h2.90625v27.84375h-2.90625z"/><path d="m436.53125 15.1875v.5 28.84375.5h.5 3.90625.5v-.5-28.84375-.5h-.5-3.90625zm1 1h2.90625v27.84375h-2.90625z"/><path d="m443.15625 15.1875v.5 28.84375.5h.5 3.875.5v-.5-28.84375-.5h-.5-3.875zm1 1h2.875v27.84375h-2.875z"/><path d="m449.75 15.1875v.5 28.84375.5h.5 3.90625.5v-.5-28.84375-.5h-.5-3.90625zm1 1h2.90625v27.84375h-2.90625z"/><path d="m456.34375 15.1875v.5 28.84375.5h.5 3.90625.5v-.5-28.84375-.5h-.5-3.90625zm1 1h2.90625v27.84375h-2.90625z"/><path d="m462.9375 15.1875v.5 28.84375.5h.5 3.90625.5v-.5-28.84375-.5h-.5-3.90625zm1 1h2.90625v27.84375h-2.90625z"/><path d="m469.5625 15.1875v.5 28.84375.5h.5 3.875.5v-.5-28.84375-.5h-.5-3.875zm1 1h2.875v27.84375h-2.875z"/><path d="m476.15625 15.1875v.5 28.84375.5h.5 3.90625.5v-.5-28.84375-.5h-.5-3.90625zm1 1h2.90625v27.84375h-2.90625z"/><path d="m482.75 15.1875v.5 28.84375.5h.5 3.90625.5v-.5-28.84375-.5h-.5-3.90625zm1 1h2.90625v27.84375h-2.90625z"/><path d="m489.34375 15.1875v.5 28.84375.5h.5 3.90625.5v-.5-28.84375-.5h-.5-3.90625zm1 1h2.90625v27.84375h-2.90625z"/><path d="m495.96875 15.1875v.5 28.84375.5h.5 3.875.5v-.5-28.84375-.5h-.5-3.875zm1 1h2.875v27.84375h-2.875z"/><path d="m502.5625 15.1875v.5 28.84375.5h.5 3.90625.5v-.5-28.84375-.5h-.5-3.90625zm1 1h2.90625v27.84375h-2.90625z"/></g></g></g><g fill="none" stroke="#f4f4f4"><g stroke-width="2"><path d="m132.3816 278.84375h243.63837c1.42675 0 2.56169 1.1482 2.56169 2.59375v16.375c0 1.44334-1.13401 2.59375-2.56169 2.59375h-243.63837c-1.4255 0-2.56169-1.14947-2.56169-2.59375v-16.375c0-1.44461 1.13527-2.59375 2.56169-2.59375z"/><rect height="21.5625" rx="2.619713" width="21.5625" x="298.291204" y="251.651373"/><rect height="21.5625" rx="2.619713" width="21.5625" x="271.291204" y="251.651373"/><rect height="21.5625" rx="2.619713" width="21.5625" x="244.291204" y="251.651373"/><rect height="21.5625" rx="2.619713" width="21.5625" x="217.291204" y="251.651373"/><rect height="21.5625" rx="2.619713" width="21.5625" x="190.291204" y="251.651373"/><rect height="21.5625" rx="2.619713" width="21.5625" x="163.291204" y="251.651373"/><rect height="21.5625" rx="2.619713" width="21.5625" x="136.291204" y="251.651373"/><rect height="21.5625" rx="2.619713" width="21.5625" x="109.745218" y="251.651373"/><rect height="21.5625" rx="2.619713" width="28.844006" x="433.009954" y="251.651373"/><rect height="21.5625" rx="2.619713" width="21.5625" x="406.291204" y="251.651373"/><rect height="21.5625" rx="2.619713" width="21.5625" x="379.291204" y="251.651373"/><rect height="21.5625" rx="2.619713" width="21.5625" x="352.291204" y="251.651373"/><rect height="21.5625" rx="2.619713" width="21.5625" x="325.291204" y="251.651373"/><rect height="21.5625" rx="2.619713" width="37.843498" x="66.463968" y="251.651373"/><rect height="21.5625" rx="2.619713" width="21.5625" x="278.291203" y="225.224501"/><rect height="21.5625" rx="2.619713" width="21.5625" x="251.291203" y="225.224501"/><rect height="21.5625" rx="2.619713" width="21.5625" x="224.291203" y="225.224501"/><rect height="21.5625" rx="2.619713" width="21.5625" x="197.291203" y="225.224501"/><rect height="21.5625" rx="2.619713" width="21.5625" x="170.291203" y="225.224501"/><rect height="21.5625" rx="2.619713" width="21.5625" x="143.291203" y="225.224501"/><rect height="21.5625" rx="2.619713" width="21.5625" x="116.291203" y="225.224501"/><rect height="21.5625" rx="2.619713" width="44.125" x="66.463967" y="225.224501"/><rect height="21.5625" rx="2.619713" width="21.5625" x="440.291203" y="225.224501"/><rect height="21.5625" rx="2.619713" width="21.5625" x="413.291203" y="225.224501"/><rect height="21.5625" rx="2.619713" width="21.5625" x="386.291203" y="225.224501"/><rect height="21.5625" rx="2.619713" width="21.5625" x="359.291203" y="225.224501"/><rect height="21.5625" rx="2.619713" width="21.5625" x="332.291203" y="225.224501"/><rect height="21.5625" rx="2.619713" width="21.5625" x="305.291203" y="225.224501"/><rect height="21.5625" rx="2.619713" width="21.5625" x="265.90311" y="197.99525"/><rect height="21.5625" rx="2.619713" width="21.5625" x="238.90311" y="197.99525"/><rect height="21.5625" rx="2.619713" width="21.5625" x="211.90311" y="197.99525"/><rect height="21.5625" rx="2.619713" width="21.5625" x="184.90311" y="197.99525"/><rect height="21.5625" rx="2.619713" width="21.5625" x="157.90311" y="197.99525"/><rect height="21.5625" rx="2.619713" width="21.5625" x="130.90311" y="197.99525"/><rect height="21.5625" rx="2.619713" width="21.5625" x="103.90311" y="197.99525"/><rect height="21.5625" rx="2.619713" width="44.125" x="54.075874" y="197.99525"/><rect height="21.5625" rx="2.619713" width="44.125" x="428.36932" y="197.99525"/><rect height="21.5625" rx="2.619713" width="21.5625" x="400.90311" y="197.99525"/><rect height="21.5625" rx="2.619713" width="21.5625" x="373.90311" y="197.99525"/><rect height="21.5625" rx="2.619713" width="21.5625" x="346.90311" y="197.99525"/><rect height="21.5625" rx="2.619713" width="21.5625" x="319.90311" y="197.99525"/><rect height="21.5625" rx="2.619713" width="21.5625" x="292.90311" y="197.99525"/><rect height="21.5625" rx="2.619713" width="21.5625" x="251.62186" y="170.995249"/><rect height="21.5625" rx="2.619713" width="21.5625" x="222.62186" y="170.995249"/><rect height="21.5625" rx="2.619713" width="21.5625" x="193.62186" y="170.995249"/><rect height="21.5625" rx="2.619713" width="21.5625" x="164.62186" y="170.995249"/><rect height="21.5625" rx="2.619713" width="21.5625" x="135.62186" y="170.995249"/><rect height="21.5625" rx="2.619713" width="21.5625" x="106.62186" y="170.995249"/><rect height="21.5625" rx="2.619713" width="21.5625" x="77.621857" y="170.995249"/><rect height="21.5625" rx="2.619713" width="21.5625" x="49.075874" y="170.995249"/><rect height="21.5625" rx="2.619713" width="21.5625" x="423.36932" y="170.995249"/><rect height="21.5625" rx="2.619713" width="21.5625" x="394.62186" y="170.995249"/><rect height="21.5625" rx="2.619713" width="21.5625" x="365.62186" y="170.995249"/><rect height="21.5625" rx="2.619713" width="21.5625" x="337.62186" y="170.995249"/><rect height="21.5625" rx="2.619713" width="21.5625" x="308.62186" y="170.995249"/><rect height="21.5625" rx="2.619713" width="21.5625" x="280.62186" y="170.995249"/><rect height="21.5625" rx="2.619713" width="21.5625" x="452.36932" y="170.995249"/></g><g stroke-width="1.98344" transform="matrix(1 0 0 1.0167686 0 -5.125955)"><path d="m507.15402 172.07968h34.052227v22.575592h-34.052227z"/><path d="m507.15402 198.63432h34.052227v22.575592h-34.052227z"/><path d="m507.15402 225.18896h34.052227v22.575592h-34.052227z"/><path d="m507.15402 251.74362h34.052227v22.575592h-34.052227z"/><path d="m507.15402 278.29858h34.052227v22.575592h-34.052227z"/></g></g></g></svg>