<svg height="351.31458" viewBox="0 0 2019.4535 1229.601" width="576.98669" xmlns="http://www.w3.org/2000/svg"><g fill="#f4f4f4" fill-opacity=".5" stroke-width="3.5"><path d="m1564.837 945.73996q0 1.12-.2707 1.88533-.4013 1.13867-1.288 1.13867-.588 0-1.232-.27067-.7746-.32666-.8493-.80266.2613 0 .616.0933.8213.21467 1.0267.21467.7933 0 1.1946-.79334.3174-.63467.3174-1.52133 0-.62534-.4107-1.78267-.4013-1.16667-.4013-1.62401 0-.14.075-.224.084-.0933.224-.0933.364 0 .7094 1.68.2893 1.41867.2893 2.10001z"/><path d="m1568.4303 946.69196q0 .952-.5506 1.49333-.5507.54134-1.5214.54134-.532 0-.8213-.252-.2893-.252-.2893-.77467 0-.73733.9613-1.484.9147-.70934 1.6893-.70934.3547 0 .4667.43867.065.252.065.74667zm-.5693.26133q0-.112-.028-.21467-.019-.112-.075-.252-.1493.10267-.4946.50401-.1774.20533-.308.29866 0-.17733.037-.28933.075-.15867.1213-.27067-.4106 0-.8586.34534-.4387.34533-.4387.74666 0 .27067.2987.27067.5693 0 1.1013-.28.644-.336.644-.85867z"/><path d="m1572.2757 947.07463q0 .45733-.3453 1.02666-.392.64401-.812.64401-.1214 0-.2054-.13067-.075-.14-.075-.27067 0-.168.3546-.52267.364-.364.364-.49466 0-.084-.028-.168-.028-.084-.037-.112-.7.15866-1.428.80266-.7187.644-1.092.728-.075-.20533-.075-.42 0-.26133.1213-.55066.084-.20534.28-.49467.3267-.49467.6907-1.12.1867-.32667.644-1.12934.4667-.80267.6814-1.13867.112-.168.196-.252.1213-.112.2893-.14933.112.0373.1587.14.056.10267.056.24267 0 .31733-.4107.85866-.7467.97067-.7653 1.00801-.42.63466-.42 1.148l.019.0933q.5134-.252.6067-.28933.3827-.15867.6533-.15867.2987 0 .4387.20533.14.19601.14.50401z"/><path d="m1576.6064 946.52396q0 .63467-.308 1.35333-.336.79334-.8307 1.09201-.1027-.12134-.1773-.27067-.065-.14934-.065-.29867 0-.15867.4667-.94267.2053-.34533.1867-.60666l-.01-.12134q-.3453.10267-1.1946.62534-.84.51333-1.6987 1.04533-.1307 0-.2427-.0933-.1026-.10267-.1026-.224 0-.196.6253-1.316.1867-.33601.672-1.16667.1493.196.196.43866.047.23334.047.56 0 .14 0 .21467.8586-.51333 1.344-.77467.532-.28933.728-.28933.1306 0 .2426.29867.1214.29866.1214.476z"/><path d="m1584.717 948.33463q0 .168-.1493.26133-.14.084-.3173.084-.1587 0-.4014-.0373-.5506-.084-.7093-.084-.28 0-1.1013.0653-.4667.0373-.672.0373-.5694 0-.5694-.56934 0-.54133.3547-1.54934.196-.56933.7373-1.86667.4854-1.16666.616-1.64267.047-.14933.075-.196.075-.112.1867-.112.1773 0 .2986.26134.1214.252.1214.45733 0 .32667-.3827 1.10134-.3827.76533-.7467 1.50267-.4013.87733-.4013 1.33467 0 .23333.196.32666.14.0653.4107.0653.2053 0 .7093-.0467.504-.056.672-.056.42 0 .6907.12133.3826.168.3826.54134z"/><path d="m1588.1891 946.69196q0 .952-.5507 1.49333-.5507.54134-1.5213.54134-.532 0-.8214-.252-.2893-.252-.2893-.77467 0-.73733.9613-1.484.9147-.70934 1.6894-.70934.3546 0 .4666.43867.065.252.065.74667zm-.5694.26133q0-.112-.028-.21467-.019-.112-.075-.252-.1494.10267-.4947.50401-.1773.20533-.308.29866 0-.17733.037-.28933.075-.15867.1214-.27067-.4107 0-.8587.34534-.4387.34533-.4387.74666 0 .27067.2987.27067.5693 0 1.1013-.28.644-.336.644-.85867z"/><path d="m1592.1184 946.49596q0 .29867-.1587.63467-.1493.336-.3826.56l-.01-.13067q0-.112.028-.34533.028-.23334.028-.34534 0-.15867-.047-.23333-.047-.084-.196-.084-.4387 0-1.092.68133-.7094.74667-1.4094 1.48401-.056 0-.112-.009-.14-.0373-.1866-.0467.028-.33601.2333-.74667.5507-1.11067.5693-1.18534.075-.29867.112-.43867.037-.14.1027-.28933.075-.15867.168-.28.1027-.13067.2613-.196l.093 1.12q.4013-.32667.616-.504.4106-.32667.7093-.32667.2987 0 .4853.196.1867.196.1867.48534z"/><path d="m1596.7011 945.41329q0 .392-1.0454 1.036-1.008.616-1.4653.616-.2147 0-.2893-.14933-.065-.14933-.065-.42 0-.17734 0-.252.6254 0 1.1387-.18667.5133-.18667.896-.616-.28-.10267-.5693-.10267-.6814 0-1.4467.52267-.84.56933-.84 1.21334 0 .616.84.85866.1307.0373 1.5773.26134.8494.13066.8494.45733 0 .14-.308.224-.308.0933-.784.0933-1.1947 0-1.8854-.364-.9146-.48534-.9146-1.55867 0-1.12001 1.12-1.78267.952-.56001 2.1653-.56001.364 0 .6627.168.364.20534.364.54134z"/><path d="m1600.4158 943.74262q0 .20533-.4947.85867-.4947.65333-.4947.99867 0 .17733.2054.35466.4666.41067.4666.504 0 .12134-.084.23334-.075.112-.196.112-.1026 0-.2893-.112-.1307-.0747-.504-.364-.14.27066-.2147.41066-.2613.49467-.3547.71867-.14.42934-.28.85867-.2426.57867-.6066.57867l-.01-.21467q0-.66267.4294-1.568.084-.168.4666-.868-.7373-.40134-1.624-.40134 0-.34533.14-.504.1494-.168.4947-.168.3173 0 .7933.112.2334.056.4667.112.1774-.056.4854-.60667.756-1.32533 1.0266-1.52133.075.12133.1214.24267.056.12133.056.23333z"/><path d="m1603.8598 947.07463q0 .45733-.3454 1.02666-.392.64401-.812.64401-.1213 0-.2053-.13067-.075-.14-.075-.27067 0-.168.3547-.52267.364-.364.364-.49466 0-.084-.028-.168-.028-.084-.037-.112-.7.15866-1.428.80266-.7187.644-1.092.728-.075-.20533-.075-.42 0-.26133.1213-.55066.084-.20534.28-.49467.3267-.49467.6907-1.12.1867-.32667.644-1.12934.4667-.80267.6813-1.13867.112-.168.196-.252.1214-.112.2894-.14933.112.0373.1586.14.056.10267.056.24267 0 .31733-.4106.85866-.7467.97067-.7654 1.00801-.42.63466-.42 1.148l.019.0933q.5133-.252.6067-.28933.3826-.15867.6533-.15867.2987 0 .4387.20533.14.19601.14.50401z"/><path d="m1611.5225 944.03195q0 .43867-.4667 1.17601-.2987.46666-.98 1.344-.6813.868-.8493 1.13867.028.009.7.224.6813.20533.6813.74667-.28.0467-.5507.084l-.1026-.009v-.0747q-.1494-.0373-.2427-.0373-.1773 0-.56.056-.3827.056-.5787.056-.252 0-.4106-.0933-.1587-.0933-.1587-.336 0-.196.7187-1.11067 1.344-1.708 1.3533-1.72667.728-.98934.728-1.32534 0-.13066-.093-.196-.084-.0653-.3454-.0653-.1773 0-.7373.34533-.2707.168-.4387.168l-.1586-.028q-.056-.0373-.1214-.14-.065-.112-.065-.17733 0-.392.756-.71867.644-.28 1.12-.28.4013 0 .616.29867.1867.26133.1867.68133z"/><path d="m1617.1318 945.71196q0 1.12933-1.2227 1.99733-1.12.79334-2.3053.79334-.588 0-.9333-.29867-.3454-.29867-.3454-.868 0-1.26934 1.1107-2.20267 1.0547-.88667 2.3613-.88667.6627 0 .9987.392.336.392.336 1.07334zm-.5693.21466q0-.42933-.4854-.644-.364-.15866-.868-.15866-.7373 0-1.54.71866-.8026.71867-.8026 1.44667 0 .29867.1493.42934.1587.12133.476.12133.9147 0 1.904-.504 1.1667-.59734 1.1667-1.40934z"/><path d="m1621.4065 944.03195q0 .43867-.4667 1.17601-.2987.46666-.98 1.344-.6813.868-.8493 1.13867.028.009.7.224.6813.20533.6813.74667-.28.0467-.5507.084l-.1026-.009v-.0747q-.1494-.0373-.2427-.0373-.1773 0-.56.056-.3827.056-.5787.056-.252 0-.4106-.0933-.1587-.0933-.1587-.336 0-.196.7187-1.11067 1.344-1.708 1.3533-1.72667.728-.98934.728-1.32534 0-.13066-.093-.196-.084-.0653-.3454-.0653-.1773 0-.7373.34533-.2707.168-.4387.168l-.1586-.028q-.056-.0373-.1214-.14-.065-.112-.065-.17733 0-.392.756-.71867.644-.28 1.12-.28.4013 0 .616.29867.1867.26133.1867.68133z"/><path d="m1625.6998 944.03195q0 .43867-.4667 1.17601-.2986.46666-.98 1.344-.6813.868-.8493 1.13867.028.009.7.224.6813.20533.6813.74667-.28.0467-.5506.084l-.1027-.009v-.0747q-.1493-.0373-.2427-.0373-.1773 0-.56.056-.3826.056-.5786.056-.252 0-.4107-.0933-.1587-.0933-.1587-.336 0-.196.7187-1.11067 1.344-1.708 1.3533-1.72667.728-.98934.728-1.32534 0-.13066-.093-.196-.084-.0653-.3453-.0653-.1774 0-.7374.34533-.2706.168-.4386.168l-.1587-.028q-.056-.0373-.1213-.14-.065-.112-.065-.17733 0-.392.756-.71867.644-.28 1.12-.28.4014 0 .616.29867.1867.26133.1867.68133z"/></g><g transform="translate(-37.166695 -154.9487)"><g fill="none" stroke="#f4f4f4"><path d="m163.9207 720.5498h1762.8688v607.15344h-1762.8688z" stroke-width="7"/><path d="m1046.3688 1381.0497h983.3448c12.9672 0 23.4065-10.4393 23.4065-23.4065v-666.83104l-49.635-508.4768c-1.2598-12.90586-12.2276-23.11953-25.1948-23.13006l-931.9219-.7566m-.0004 1222.601h-983.344818c-12.967194 0-23.406487-10.4393-23.406487-23.4065v-666.83104l49.635066-508.4768c1.259808-12.90586 12.227639-23.11953 25.194829-23.13006l931.92181-.7566" stroke-width="7"/><path d="m39.616695 690.81216h2013.503405" stroke-width="2"/></g><path d="m147.05214 156.85723c-2.01159 0-3.63085 1.61148-3.63085 3.61343v561.01555h7.29101v-561.01555c0-2.00195-1.61927-3.61343-3.63086-3.61343zm19.47852 0c-2.01159 0-3.63086 1.61148-3.63086 3.61343v561.01555h7.28906v-561.01555c0-2.00195-1.61927-3.61343-3.63086-3.61343zm19.16602 0c-2.01159 0-3.63086 1.61148-3.63086 3.61343v561.01555h7.28906v-561.01555c0-2.00195-1.61926-3.61343-3.63086-3.61343zm19.47656 0c-2.01159 0-3.63086 1.61148-3.63086 3.61343v561.01555h7.29101v-561.01555c0-2.00195-1.61926-3.61343-3.63086-3.61343zm19.16797 0c-2.01159 0-3.63086 1.61148-3.63086 3.61343v561.01555h7.28906v-561.01555c0-2.00195-1.61927-3.61343-3.63086-3.61343zm19.47656 0c-2.0116 0-3.63086 1.61148-3.63086 3.61343v561.01555h7.28906v-561.01555c0-2.00195-1.61927-3.61343-3.63086-3.61343zm19.16797 0c-2.01159 0-3.63086 1.61148-3.63086 3.61343v561.01555h7.28906v-561.01555c0-2.00195-1.61927-3.61343-3.63086-3.61343zm19.47656 0c-2.01159 0-3.63086 1.61148-3.63086 3.61343v561.01555h7.28906v-561.01555c0-2.00195-1.61927-3.61343-3.63086-3.61343zm19.16602 0c-2.01159 0-3.63086 1.61148-3.63086 3.61343v561.01555h7.29101v-561.01555c0-2.00195-1.61927-3.61343-3.63086-3.61343zm19.47851 0c-2.01159 0-3.63086 1.61148-3.63086 3.61343v561.01555h7.28906v-561.01555c0-2.00195-1.61926-3.61343-3.63085-3.61343zm19.16602 0c-2.01159 0-3.63086 1.61148-3.63086 3.61343v561.01555h7.28906v-561.01555c0-2.00195-1.61927-3.61343-3.63086-3.61343zm19.47656 0c-2.01159 0-3.63086 1.61148-3.63086 3.61343v561.01555h7.29102v-561.01555c0-2.00195-1.61927-3.61343-3.63086-3.61343zm19.16797 0c-2.0116 0-3.63086 1.61148-3.63086 3.61343v561.01555h7.28906v-561.01555c0-2.00195-1.61927-3.61343-3.63086-3.61343zm19.47656 0c-2.01159 0-3.63086 1.61148-3.63086 3.61343v561.01555h7.28906v-561.01555c0-2.00195-1.61926-3.61343-3.63085-3.61343zm19.16797 0c-2.01159 0-3.63086 1.61148-3.63086 3.61343v561.01555h7.28906v-561.01555c0-2.00195-1.61927-3.61343-3.63086-3.61343zm19.47656 0c-2.01159 0-3.63086 1.61148-3.63086 3.61343v561.01555h7.28907v-561.01555c0-2.00195-1.61927-3.61343-3.63086-3.61343zm19.16602 0c-2.01159 0-3.63086 1.61148-3.63086 3.61343v561.01555h7.29101v-561.01555c0-2.00195-1.61926-3.61343-3.63085-3.61343zm19.47851 0c-2.01159 0-3.63086 1.61148-3.63086 3.61343v561.01555h7.28907v-561.01555c0-2.00195-1.61927-3.61343-3.63086-3.61343zm19.16602 0c-2.01159 0-3.63086 1.61148-3.63086 3.61343v561.01555h7.28906v-561.01555c0-2.00195-1.61927-3.61343-3.63086-3.61343zm19.47656 0c-1.0058 0-1.91205.4023-2.56836 1.05546-.65631.65315-1.0625 1.557-1.0625 2.55797v561.01555h7.29102v-561.01555c0-2.00195-1.61927-3.61343-3.63086-3.61343zm19.16797 0c-2.01159 0-3.63086 1.61148-3.63086 3.61343v561.01555h7.28906v-561.01555c0-2.00195-1.61927-3.61343-3.63086-3.61343zm19.47656 0c-2.01159 0-3.63086 1.61148-3.63086 3.61343v561.01555h7.28907v-561.01555c0-2.00195-1.61927-3.61343-3.63086-3.61343zm19.16797 0c-2.01159 0-3.63086 1.61148-3.63086 3.61343v561.01555h7.28907v-561.01555c0-2.00195-1.61926-3.61343-3.63086-3.61343zm19.47656 0c-1.00579 0-1.914.4023-2.57031 1.05546-.65631.65315-1.06054 1.557-1.06054 2.55797v561.01555h7.28906v-561.01555c0-2.00195-1.61927-3.61343-3.63086-3.61343zm19.16602 0c-1.0058 0-1.91205.4023-2.56836 1.05546-.65631.65315-1.0625 1.557-1.0625 2.55797v561.01555h7.29102v-561.01555c0-2.00195-1.61927-3.61343-3.63086-3.61343zm19.47852 0c-1.0058 0-1.91401.4023-2.57032 1.05546-.65631.65315-1.06054 1.557-1.06054 2.55797v561.01555h7.28906v-561.01555c0-2.00195-1.61927-3.61343-3.63086-3.61343zm19.16601 0c-1.0058 0-1.914.4023-2.57031 1.05546-.65631.65315-1.06055 1.557-1.06055 2.55797v561.01555h7.28906v-561.01555c0-2.00195-1.61927-3.61343-3.63086-3.61343zm19.47656 0c-1.0058 0-1.91205.4023-2.56836 1.05546-.65631.65315-1.0625 1.557-1.0625 2.55797v561.01555h7.29102v-561.01555c0-2.00195-1.61927-3.61343-3.63086-3.61343zm19.16797 0c-1.00579 0-1.914.4023-2.57031 1.05546-.65631.65315-1.06055 1.557-1.06055 2.55797v561.01555h7.28907v-561.01555c0-2.00195-1.61927-3.61343-3.63086-3.61343zm19.47657 0c-2.0116 0-3.63086 1.61148-3.63086 3.61343v561.01555h7.28906v-561.01555c0-2.00195-1.61926-3.61343-3.63086-3.61343zm19.16796 0c-2.01159 0-3.63086 1.61148-3.63086 3.61343v561.01555h7.28907v-561.01555c0-2.00195-1.61927-3.61343-3.63086-3.61343zm19.47657 0c-1.0058 0-1.91401.4023-2.57032 1.05546-.6563.65315-1.06054 1.557-1.06054 2.55797v561.01555h7.28906v-561.01555c0-2.00195-1.61927-3.61343-3.63086-3.61343zm19.16601 0c-2.01159 0-3.63086 1.61148-3.63086 3.61343v561.01555h7.29102v-561.01555c0-2.00195-1.61927-3.61343-3.63086-3.61343zm19.16797 0c-2.01159 0-3.63086 1.61148-3.63086 3.61343v561.01555h7.28906v-561.01555c0-2.00195-1.61927-3.61343-3.63086-3.61343zm19.47656 0c-2.01159 0-3.63086 1.61148-3.63086 3.61343v561.01555h7.28907v-561.01555c0-2.00195-1.61927-3.61343-3.63086-3.61343zm19.16797 0c-2.01159 0-3.63086 1.61148-3.63086 3.61343v561.01555h7.28906v-561.01555c0-2.00195-1.61926-3.61343-3.63085-3.61343zm19.47656 0c-2.01159 0-3.63086 1.61148-3.63086 3.61343v561.01555h7.28907v-561.01555c0-2.00195-1.61926-3.61343-3.63086-3.61343zm19.16602 0c-2.01159 0-3.63086 1.61148-3.63086 3.61343v561.01555h7.29102v-561.01555c0-2.00195-1.61927-3.61343-3.63086-3.61343zm19.47852 0c-2.01159 0-3.63086 1.61148-3.63086 3.61343v561.01555h7.28906v-561.01555c0-2.00195-1.61927-3.61343-3.63086-3.61343zm19.16601 0c-2.01159 0-3.63086 1.61148-3.63086 3.61343v561.01555h7.28906v-561.01555c0-2.00195-1.61927-3.61343-3.63085-3.61343zm19.47656 0c-2.01159 0-3.63086 1.61148-3.63086 3.61343v561.01555h7.29102v-561.01555c0-2.00195-1.61927-3.61343-3.63086-3.61343zm19.16797 0c-1.00579 0-1.914.4023-2.57031 1.05546-.65631.65315-1.06055 1.557-1.06055 2.55797v561.01555h7.28907v-561.01555c0-2.00195-1.61927-3.61343-3.63086-3.61343zm19.47656 0c-1.00579 0-1.914.4023-2.57031 1.05546-.65631.65315-1.06054 1.557-1.06054 2.55797v561.01555h7.28906v-561.01555c0-2.00195-1.61926-3.61343-3.63086-3.61343zm19.16797 0c-2.01159 0-3.63086 1.61148-3.63086 3.61343v561.01555h7.28907v-561.01555c0-2.00195-1.61927-3.61343-3.63086-3.61343zm19.16601 0c-2.0116 0-3.6309 1.61148-3.6309 3.61343v561.01555h7.28909v-561.01555c0-2.00195-1.61929-3.61343-3.63079-3.61343zm19.47659 0c-2.0116 0-3.6309 1.61148-3.6309 3.61343v561.01555h7.291v-561.01555c0-2.00195-1.6192-3.61343-3.6308-3.61343zm19.1679 0c-2.0116 0-3.6308 1.61148-3.6308 3.61343v561.01555h7.289v-561.01555c0-2.00195-1.6192-3.61343-3.6308-3.61343zm19.4766 0c-2.0116 0-3.6309 1.61148-3.6309 3.61343v561.01555h7.2911v-561.01555c0-2.00195-1.6193-3.61343-3.6309-3.61343zm19.168 0c-2.0116 0-3.6309 1.61148-3.6309 3.61343v561.01555h7.2891v-561.01555c0-2.00195-1.6193-3.61343-3.6309-3.61343zm19.4765 0c-2.0116 0-3.6308 1.61148-3.6308 3.61343v561.01555h7.289v-561.01555c0-2.00195-1.6192-3.61343-3.6308-3.61343zm19.1661 0c-2.0116 0-3.6309 1.61148-3.6309 3.61343v561.01555h7.291v-561.01555c0-2.00195-1.6194-3.61343-3.6309-3.61343zm19.4785 0c-2.0116 0-3.6309 1.61148-3.6309 3.61343v561.01555h7.2891v-561.01555c0-2.00195-1.6193-3.61343-3.6309-3.61343zm19.166 0c-2.0116 0-3.6309 1.61148-3.6309 3.61343v561.01555h7.291v-561.01555c0-2.00195-1.6192-3.61343-3.6308-3.61343zm19.4765 0c-2.0116 0-3.6308 1.61148-3.6308 3.61343v561.01555h7.291v-561.01555c0-2.00195-1.6194-3.61343-3.6309-3.61343zm19.168 0c-2.0116 0-3.6308 1.61148-3.6308 3.61343v561.01555h7.289v-561.01555c0-2.00195-1.6192-3.61343-3.6308-3.61343zm19.4766 0c-2.0116 0-3.6309 1.61148-3.6309 3.61343v561.01555h7.291v-561.01555c0-2.00195-1.6192-3.61343-3.6308-3.61343zm19.1679 0c-2.0116 0-3.6308 1.61148-3.6308 3.61343v561.01555h7.289v-561.01555c0-2.00195-1.6192-3.61343-3.6308-3.61343zm19.4766 0c-2.0116 0-3.6309 1.61148-3.6309 3.61343v561.01555h7.2891v-561.01555c0-2.00195-1.6192-3.61343-3.6309-3.61343zm19.166 0c-2.0116 0-3.6308 1.61148-3.6308 3.61343v561.01555h7.291v-561.01555c0-2.00195-1.6193-3.61343-3.6309-3.61343zm19.4785 0c-2.0116 0-3.6308 1.61148-3.6308 3.61343v561.01555h7.289v-561.01555c0-2.00195-1.6192-3.61343-3.6308-3.61343zm19.1661 0c-2.0116 0-3.6309 1.61148-3.6309 3.61343v561.01555h7.291v-561.01555c0-2.00195-1.6192-3.61343-3.6308-3.61343zm19.4765 0c-2.0116 0-3.6308 1.61148-3.6308 3.61343v561.01555h7.291v-561.01555c0-2.00195-1.6193-3.61343-3.6309-3.61343zm19.168 0c-2.0116 0-3.6309 1.61148-3.6309 3.61343v561.01555h7.2891v-561.01555c0-2.00195-1.6193-3.61343-3.6309-3.61343zm19.4765 0c-2.0116 0-3.6308 1.61148-3.6308 3.61343v561.01555h7.291v-561.01555c0-2.00195-1.6193-3.61343-3.6309-3.61343zm19.168 0c-2.0115 0-3.6308 1.61148-3.6308 3.61343v561.01555h7.289v-561.01555c0-2.00195-1.6192-3.61343-3.6308-3.61343zm19.4766 0c-1.0058 0-1.914.4023-2.5703 1.05546-.6563.65315-1.0606 1.557-1.0606 2.55797v561.01555h7.2891v-561.01555c0-2.00195-1.6193-3.61343-3.6309-3.61343zm19.166 0c-2.0116 0-3.6309 1.61148-3.6309 3.61343v561.01555h7.291v-561.01555c0-2.00195-1.6192-3.61343-3.6308-3.61343zm19.4785 0c-1.0058 0-1.914.4023-2.5703 1.05546-.6563.65315-1.0605 1.557-1.0605 2.55797v561.01555h7.289v-561.01555c0-2.00195-1.6193-3.61343-3.6308-3.61343zm19.166 0c-2.0116 0-3.6308 1.61148-3.6308 3.61343v561.01555h7.291v-561.01555c0-2.00195-1.6193-3.61343-3.6309-3.61343zm19.4766 0c-2.0116 0-3.6309 1.61148-3.6309 3.61343v561.01555h7.291v-561.01555c0-2.00195-1.6192-3.61343-3.6308-3.61343zm19.168 0c-2.0116 0-3.6309 1.61148-3.6309 3.61343v561.01555h7.2891v-561.01555c0-2.00195-1.6193-3.61343-3.6309-3.61343zm19.4765 0c-2.0116 0-3.6308 1.61148-3.6308 3.61343v561.01555h7.291v-561.01555c0-2.00195-1.6193-3.61343-3.6309-3.61343zm19.168 0c-1.0058 0-1.914.4023-2.5703 1.05546-.6563.65315-1.0606 1.557-1.0606 2.55797v561.01555h7.2891v-561.01555c0-2.00195-1.6193-3.61343-3.6309-3.61343zm19.4765 0c-2.0116 0-3.6308 1.61148-3.6308 3.61343v561.01555h7.2891v-561.01555c0-2.00195-1.6193-3.61343-3.6309-3.61343zm19.1661 0c-2.0116 0-3.6309 1.61148-3.6309 3.61343v561.01555h7.291v-561.01555c0-2.00195-1.6192-3.61343-3.6308-3.61343zm19.4785 0c-1.0058 0-1.914.4023-2.5703 1.05546-.6563.65315-1.0606 1.557-1.0606 2.55797v561.01555h7.2891v-561.01555c0-2.00195-1.6193-3.61343-3.6309-3.61343zm19.166 0c-1.0058 0-1.914.4023-2.5703 1.05546-.6563.65315-1.0606 1.557-1.0606 2.55797v561.01555h7.2911v-561.01555c0-2.00195-1.6193-3.61343-3.6309-3.61343zm19.4766 0c-1.0058 0-1.9121.4023-2.5684 1.05546-.6563.65315-1.0625 1.557-1.0625 2.55797v561.01555h7.291v-561.01555c0-2.00195-1.6192-3.61343-3.6308-3.61343zm19.1679 0c-2.0115 0-3.6308 1.61148-3.6308 3.61343v561.01555h7.289v-561.01555c0-2.00195-1.6192-3.61343-3.6308-3.61343zm19.166 0c-2.0116 0-3.6308 1.61148-3.6308 3.61343v561.01555h7.291v-561.01555c0-2.00195-1.6194-3.61343-3.6309-3.61343zm19.4786 0c-2.0116 0-3.6309 1.61148-3.6309 3.61343v561.01555h7.2891v-561.01555c0-2.00195-1.6193-3.61343-3.6309-3.61343zm19.166 0c-2.0116 0-3.6309 1.61148-3.6309 3.61343v561.01555h7.291v-561.01555c0-2.00195-1.6192-3.61343-3.6308-3.61343zm19.4765 0c-2.0116 0-3.6308 1.61148-3.6308 3.61343v561.01555h7.291v-561.01555c0-2.00195-1.6193-3.61343-3.6309-3.61343zm19.168 0c-2.0116 0-3.6309 1.61148-3.6309 3.61343v561.01555h7.2891v-561.01555c0-2.00195-1.6192-3.61343-3.6308-3.61343zm19.4766 0c-2.0116 0-3.6309 1.61148-3.6309 3.61343v561.01555h7.291v-561.01555c0-2.00195-1.6192-3.61343-3.6308-3.61343zm19.1679 0c-2.0116 0-3.6308 1.61148-3.6308 3.61343v561.01555h7.289v-561.01555c0-2.00195-1.6192-3.61343-3.6308-3.61343zm19.4766 0c-2.0116 0-3.6309 1.61148-3.6309 3.61343v561.01555h7.2891v-561.01555c0-2.00195-1.6193-3.61343-3.6309-3.61343zm19.166 0c-2.0116 0-3.6308 1.61148-3.6308 3.61343v561.01555h7.291v-561.01555c0-2.00195-1.6193-3.61343-3.6309-3.61343zm19.4785 0c-2.0116 0-3.6308 1.61148-3.6308 3.61343v561.01555h7.289v-561.01555c0-2.00195-1.6192-3.61343-3.6308-3.61343zm19.166 0c-1.0058 0-1.9139.4023-2.5703 1.05546-.6563.65315-1.0605 1.557-1.0605 2.55797v561.01555h7.291v-561.01555c0-2.00195-1.6193-3.61343-3.6309-3.61343zm19.168 0c-2.0115 0-3.6308 1.61148-3.6308 3.61343v561.01555h7.289v-561.01555c0-2.00195-1.6192-3.61343-3.6308-3.61343zm19.4766 0c-2.0116 0-3.6309 1.61148-3.6309 3.61343v561.01555h7.2891v-561.01555c0-2.00195-1.6193-3.61343-3.6309-3.61343zm-1761.47071 1168.86967v54.9246c0 2.002 1.61926 3.6135 3.63085 3.6135h.0293c2.01159 0 3.63086-1.6115 3.63086-3.6135v-54.9246zm19.47851 0v54.9246c0 2.002 1.61927 3.6135 3.63086 3.6135h.0273c2.01159 0 3.63086-1.6115 3.63086-3.6135v-54.9246zm19.16602 0v54.9246c0 2.002 1.61927 3.6135 3.63086 3.6135h.0273c2.0116 0 3.63086-1.6115 3.63086-3.6135v-54.9246zm19.47656 0v54.9246c0 2.002 1.61927 3.6135 3.63086 3.6135h.0293c2.01159 0 3.63086-1.6115 3.63086-3.6135v-54.9246zm19.16797 0v54.9246c0 2.002 1.61927 3.6135 3.63086 3.6135h.0273c2.01159 0 3.63086-1.6115 3.63086-3.6135v-54.9246zm19.47656 0v54.9246c0 2.002 1.61926 3.6135 3.63086 3.6135h.0273c2.01159 0 3.63086-1.6115 3.63086-3.6135v-54.9246zm19.16797 0v54.9246c0 2.002 1.61927 3.6135 3.63086 3.6135h.0273c2.01159 0 3.63086-1.6115 3.63086-3.6135v-54.9246zm19.47656 0v54.9246c0 2.002 1.61927 3.6135 3.63086 3.6135h.0273c2.01159 0 3.63086-1.6115 3.63086-3.6135v-54.9246zm19.16602 0v54.9246c0 2.002 1.61927 3.6135 3.63086 3.6135h.0293c2.01159 0 3.63086-1.6115 3.63086-3.6135v-54.9246zm19.47851 0v54.9246c0 2.002 1.61927 3.6135 3.63086 3.6135h.0274c2.01159 0 3.63085-1.6115 3.63085-3.6135v-54.9246zm19.16602 0v54.9246c0 2.002 1.61927 3.6135 3.63086 3.6135h.0273c2.01159 0 3.63086-1.6115 3.63086-3.6135v-54.9246zm19.47656 0v54.9246c0 2.002 1.61927 3.6135 3.63086 3.6135h.0293c2.01159 0 3.63086-1.6115 3.63086-3.6135v-54.9246zm19.16797 0v54.9246c0 2.002 1.61926 3.6135 3.63086 3.6135h.0273c2.01159 0 3.63086-1.6115 3.63086-3.6135v-54.9246zm19.47656 0v54.9246c0 2.002 1.61927 3.6135 3.63086 3.6135h.0274c2.01159 0 3.63085-1.6115 3.63085-3.6135v-54.9246zm19.16797 0v54.9246c0 2.002 1.61927 3.6135 3.63086 3.6135h.0273c2.01159 0 3.63086-1.6115 3.63086-3.6135v-54.9246zm19.47656 0v54.9246c0 2.002 1.61927 3.6135 3.63086 3.6135h.0274c2.01159 0 3.63086-1.6115 3.63086-3.6135v-54.9246zm19.16602 0v54.9246c0 2.002 1.61927 3.6135 3.63086 3.6135h.0293c2.01159 0 3.63085-1.6115 3.63085-3.6135v-54.9246zm19.47851 0v54.9246c0 2.002 1.61927 3.6135 3.63086 3.6135h.0274c2.01159 0 3.63086-1.6115 3.63086-3.6135v-54.9246zm19.16602 0v54.9246c0 2.002 1.61927 3.6135 3.63086 3.6135h.0273c2.01159 0 3.63086-1.6115 3.63086-3.6135v-54.9246zm19.47656 0v54.9246c0 1.001.40619 1.9048 1.0625 2.5579.65631.6532 1.56256 1.0556 2.56836 1.0556h.0293c2.01159 0 3.63086-1.6115 3.63086-3.6135v-54.9246zm19.16797 0v54.9246c0 2.002 1.61927 3.6135 3.63086 3.6135h.0273c2.01159 0 3.63086-1.6115 3.63086-3.6135v-54.9246zm19.47656 0v54.9246c0 2.002 1.61927 3.6135 3.63086 3.6135h.0274c2.01159 0 3.63086-1.6115 3.63086-3.6135v-54.9246zm19.16797 0v54.9246c0 2.002 1.61927 3.6135 3.63086 3.6135h.0273c2.0116 0 3.63086-1.6115 3.63086-3.6135v-54.9246zm19.47657 0v54.9246c0 2.002 1.61926 3.6135 3.63085 3.6135h.0273c2.01159 0 3.63086-1.6115 3.63086-3.6135v-54.9246zm19.16601 0v54.9246c0 1.001.40619 1.9048 1.0625 2.5579.65631.6532 1.56256 1.0556 2.56836 1.0556h.0293c2.01159 0 3.63086-1.6115 3.63086-3.6135v-54.9246zm19.47852 0v54.9246c0 1.001.40423 1.9048 1.06054 2.5579.65631.6532 1.56452 1.0556 2.57032 1.0556h.0273c2.01159 0 3.63086-1.6115 3.63086-3.6135v-54.9246zm19.16601 0v54.9246c0 1.001.40424 1.9048 1.06055 2.5579.65631.6532 1.56451 1.0556 2.57031 1.0556h.0273c2.0116 0 3.63086-1.6115 3.63086-3.6135v-54.9246zm19.47656 0v54.9246c0 1.001.40619 1.9048 1.0625 2.5579.65631.6532 1.56256 1.0556 2.56836 1.0556h.0293c2.01159 0 3.63086-1.6115 3.63086-3.6135v-54.9246zm19.16797 0v54.9246c0 2.002 1.61927 3.6135 3.63086 3.6135h.0274c2.01159 0 3.63086-1.6115 3.63086-3.6135v-54.9246zm19.47657 0v54.9246c0 1.001.40423 1.9048 1.06054 2.5579.65631.6532 1.56452 1.0556 2.57032 1.0556h.0273c2.0116 0 3.63086-1.6115 3.63086-3.6135v-54.9246zm19.16796 0v54.9246c0 1.001.40424 1.9048 1.06055 2.5579.65631.6532 1.56452 1.0556 2.57031 1.0556h.0274c2.01159 0 3.63086-1.6115 3.63086-3.6135v-54.9246zm19.47657 0v54.9246c0 1.001.40424 1.9048 1.06054 2.5579.65631.6532 1.56452 1.0556 2.57032 1.0556h.0273c2.01159 0 3.63086-1.6115 3.63086-3.6135v-54.9246zm19.16601 0v54.9246c0 2.002 1.61927 3.6135 3.63086 3.6135h.0293c2.01159 0 3.63086-1.6115 3.63086-3.6135v-54.9246zm19.16797 0v54.9246c0 2.002 1.61927 3.6135 3.63086 3.6135h.0273c2.01159 0 3.63086-1.6115 3.63086-3.6135v-54.9246zm19.47656 0v54.9246c0 2.002 1.61927 3.6135 3.63086 3.6135h.0274c2.01159 0 3.63086-1.6115 3.63086-3.6135v-54.9246zm19.16797 0v54.9246c0 2.002 1.61927 3.6135 3.63086 3.6135h.0273c2.01159 0 3.63085-1.6115 3.63085-3.6135v-54.9246zm19.47656 0v54.9246c0 2.002 1.61927 3.6135 3.63086 3.6135h.0273c2.0116 0 3.63086-1.6115 3.63086-3.6135v-54.9246zm19.16602 0v54.9246c0 2.002 1.61927 3.6135 3.63086 3.6135h.0293c2.01159 0 3.63086-1.6115 3.63086-3.6135v-54.9246zm19.47852 0v54.9246c0 2.002 1.61927 3.6135 3.63086 3.6135h.0273c2.01159 0 3.63086-1.6115 3.63086-3.6135v-54.9246zm19.16601 0v54.9246c0 2.002 1.61927 3.6135 3.63086 3.6135h.0273c2.01158 0 3.63085-1.6115 3.63085-3.6135v-54.9246zm19.47656 0v54.9246c0 2.002 1.61927 3.6135 3.63086 3.6135h.0293c2.01159 0 3.63086-1.6115 3.63086-3.6135v-54.9246zm19.16797 0v54.9246c0 1.001.40424 1.9048 1.06055 2.5579.65631.6532 1.56452 1.0556 2.57031 1.0556h.0274c2.01159 0 3.63086-1.6115 3.63086-3.6135v-54.9246zm19.47657 0v54.9246c0 2.002 1.61927 3.6135 3.63085 3.6135h.0273c2.0116 0 3.63086-1.6115 3.63086-3.6135v-54.9246zm19.16796 0v54.9246c0 2.002 1.61927 3.6135 3.63086 3.6135h.0274c2.01159 0 3.63081-1.6115 3.63081-3.6135v-54.9246zm19.16597 0v54.9246c0 2.002 1.6193 3.6135 3.6309 3.6135h.027c2.0115 0 3.63079-1.6115 3.63079-3.6135v-54.9246zm19.47659 0v54.9246c0 2.002 1.6193 3.6135 3.6309 3.6135h.029c2.0116 0 3.6308-1.6115 3.6308-3.6135v-54.9246zm19.168 0v54.9246c0 2.002 1.6192 3.6135 3.6308 3.6135h.027c2.0116 0 3.6308-1.6115 3.6308-3.6135v-54.9246zm19.4765 0v54.9246c0 2.002 1.6193 3.6135 3.6309 3.6135h.029c2.0116 0 3.6309-1.6115 3.6309-3.6135v-54.9246zm19.168 0v54.9246c0 2.002 1.6193 3.6135 3.6309 3.6135h.027c2.0116 0 3.6309-1.6115 3.6309-3.6135v-54.9246zm19.4766 0v54.9246c0 2.002 1.6192 3.6135 3.6308 3.6135h.027c2.0116 0 3.6308-1.6115 3.6308-3.6135v-54.9246zm19.166 0v54.9246c0 2.002 1.6193 3.6135 3.6309 3.6135h.029c2.0115 0 3.6309-1.6115 3.6309-3.6135v-54.9246zm19.4785 0v54.9246c0 2.002 1.6193 3.6135 3.6309 3.6135h.027c2.0116 0 3.6309-1.6115 3.6309-3.6135v-54.9246zm19.166 0v54.9246c0 2.002 1.6193 3.6135 3.6309 3.6135h.029c2.0116 0 3.6308-1.6115 3.6308-3.6135v-54.9246zm19.4766 0v54.9246c0 2.002 1.6192 3.6135 3.6308 3.6135h.029c2.0115 0 3.6309-1.6115 3.6309-3.6135v-54.9246zm19.168 0v54.9246c0 2.002 1.6192 3.6135 3.6308 3.6135h.027c2.0116 0 3.6308-1.6115 3.6308-3.6135v-54.9246zm19.4765 0v54.9246c0 2.002 1.6193 3.6135 3.6309 3.6135h.029c2.0116 0 3.6308-1.6115 3.6308-3.6135v-54.9246zm19.168 0v54.9246c0 2.002 1.6192 3.6135 3.6308 3.6135h.027c2.0116 0 3.6308-1.6115 3.6308-3.6135v-54.9246zm19.4765 0v54.9246c0 2.002 1.6193 3.6135 3.6309 3.6135h.027c2.0117 0 3.6309-1.6115 3.6309-3.6135v-54.9246zm19.1661 0v54.9246c0 2.002 1.6192 3.6135 3.6308 3.6135h.029c2.0116 0 3.6309-1.6115 3.6309-3.6135v-54.9246zm19.4785 0v54.9246c0 2.002 1.6192 3.6135 3.6308 3.6135h.027c2.0116 0 3.6308-1.6115 3.6308-3.6135v-54.9246zm19.166 0v54.9246c0 2.002 1.6193 3.6135 3.6309 3.6135h.029c2.0116 0 3.6308-1.6115 3.6308-3.6135v-54.9246zm19.4766 0v54.9246c0 2.002 1.6192 3.6135 3.6308 3.6135h.029c2.0116 0 3.6309-1.6115 3.6309-3.6135v-54.9246zm19.1679 0v54.9246c0 2.002 1.6193 3.6135 3.6309 3.6135h.027c2.0116 0 3.6309-1.6115 3.6309-3.6135v-54.9246zm19.4766 0v54.9246c0 2.002 1.6192 3.6135 3.6308 3.6135h.029c2.0116 0 3.6309-1.6115 3.6309-3.6135v-54.9246zm19.168 0v54.9246c0 2.002 1.6193 3.6135 3.6308 3.6135h.027c2.0116 0 3.6308-1.6115 3.6308-3.6135v-54.9246zm19.4765 0v54.9246c0 1.001.4043 1.9048 1.0606 2.5579.6563.6532 1.5645 1.0556 2.5703 1.0556h.027c2.0116 0 3.6309-1.6115 3.6309-3.6135v-54.9246zm19.166 0v54.9246c0 2.002 1.6193 3.6135 3.6309 3.6135h.029c2.0116 0 3.6308-1.6115 3.6308-3.6135v-54.9246zm19.4786 0v54.9246c0 2.002 1.6192 3.6135 3.6308 3.6135h.027c2.0115 0 3.6308-1.6115 3.6308-3.6135v-54.9246zm19.166 0v54.9246c0 2.002 1.6192 3.6135 3.6308 3.6135h.029c2.0116 0 3.6309-1.6115 3.6309-3.6135v-54.9246zm19.4765 0v54.9246c0 1.001.4062 1.9048 1.0625 2.5579.6563.6532 1.5626 1.0556 2.5684 1.0556h.029c2.0116 0 3.6308-1.6115 3.6308-3.6135v-54.9246zm19.168 0v54.9246c0 1.001.4042 1.9048 1.0605 2.5579.6564.6532 1.5646 1.0556 2.5704 1.0556h.027c2.0116 0 3.6309-1.6115 3.6309-3.6135v-54.9246zm19.4766 0v54.9246c0 2.002 1.6192 3.6135 3.6308 3.6135h.029c2.0116 0 3.6309-1.6115 3.6309-3.6135v-54.9246zm19.1679 0v54.9246c0 1.001.4043 1.9048 1.0606 2.5579.6563.6532 1.5645 1.0556 2.5703 1.0556h.027c2.0116 0 3.6309-1.6115 3.6309-3.6135v-54.9246zm19.4766 0v54.9246c0 2.002 1.6192 3.6135 3.6308 3.6135h.027c2.0116 0 3.6309-1.6115 3.6309-3.6135v-54.9246zm19.166 0v54.9246c0 2.002 1.6193 3.6135 3.6309 3.6135h.029c2.0116 0 3.6308-1.6115 3.6308-3.6135v-54.9246zm19.4785 0v54.9246c0 1.001.4043 1.9048 1.0606 2.5579.6563.6532 1.5645 1.0556 2.5703 1.0556h.027c2.0116 0 3.6309-1.6115 3.6309-3.6135v-54.9246zm19.166 0v54.9246c0 1.001.4043 1.9048 1.0606 2.5579.6563.6532 1.5645 1.0556 2.5703 1.0556h.029c2.0116 0 3.6309-1.6115 3.6309-3.6135v-54.9246zm19.4766 0v54.9246c0 1.001.4062 1.9048 1.0625 2.5579.6563.6532 1.5626 1.0556 2.5684 1.0556h.029c2.0116 0 3.6308-1.6115 3.6308-3.6135v-54.9246zm19.168 0v54.9246c0 2.002 1.6193 3.6135 3.6308 3.6135h.027c2.0116 0 3.6308-1.6115 3.6308-3.6135v-54.9246zm19.166 0v54.9246c0 2.002 1.6192 3.6135 3.6308 3.6135h.029c2.0115 0 3.6309-1.6115 3.6309-3.6135v-54.9246zm19.4785 0v54.9246c0 2.002 1.6193 3.6135 3.6309 3.6135h.027c2.0116 0 3.6309-1.6115 3.6309-3.6135v-54.9246zm19.166 0v54.9246c0 2.002 1.6193 3.6135 3.6309 3.6135h.029c2.0116 0 3.6308-1.6115 3.6308-3.6135v-54.9246zm19.4766 0v54.9246c0 2.002 1.6192 3.6135 3.6308 3.6135h.029c2.0116 0 3.6309-1.6115 3.6309-3.6135v-54.9246zm19.1679 0v54.9246c0 2.002 1.6193 3.6135 3.6309 3.6135h.027c2.0116 0 3.6308-1.6115 3.6308-3.6135v-54.9246zm19.4766 0v54.9246c0 2.002 1.6193 3.6135 3.6309 3.6135h.029c2.0116 0 3.6308-1.6115 3.6308-3.6135v-54.9246zm19.168 0v54.9246c0 2.002 1.6192 3.6135 3.6308 3.6135h.027c2.0116 0 3.6308-1.6115 3.6308-3.6135v-54.9246zm19.4765 0v54.9246c0 2.002 1.6193 3.6135 3.6309 3.6135h.027c2.0116 0 3.6309-1.6115 3.6309-3.6135v-54.9246zm19.1661 0v54.9246c0 1.001.4062 1.9048 1.0625 2.5579.6563.6532 1.5625 1.0556 2.5683 1.0556h.029c2.0116 0 3.6309-1.6115 3.6309-3.6135v-54.9246zm19.4785 0v54.9246c0 2.002 1.6192 3.6135 3.6308 3.6135h.027c2.0116 0 3.6308-1.6115 3.6308-3.6135v-54.9246zm19.166 0v54.9246c0 1.001.4042 1.9048 1.0605 2.5579.6564.6532 1.5645 1.0556 2.5703 1.0556h.029c2.0116 0 3.6309-1.6115 3.6309-3.6135v-54.9246zm19.168 0v54.9246c0 2.002 1.6193 3.6135 3.6308 3.6135h.027c2.0116 0 3.6308-1.6115 3.6308-3.6135v-54.9246zm19.4765 0v54.9246c0 2.002 1.6193 3.6135 3.6309 3.6135h.027c2.0116 0 3.6309-1.6115 3.6309-3.6135v-54.9246z" fill="#f4f4f4" transform="translate(19.125588 .048602)"/></g><g fill="none" stroke="#f4f4f4" stroke-width="7"><rect height="83.105675" rx="12.116609" width="83.105675" x="951.951835" y="953.7273"/><rect height="83.105675" rx="12.116609" width="83.105675" x="851.951835" y="953.7273"/><rect height="83.105675" rx="12.116609" width="83.105675" x="751.951835" y="953.7273"/><rect height="83.105675" rx="12.116609" width="83.105675" x="651.951835" y="953.7273"/><rect height="83.105675" rx="12.116609" width="83.105675" x="551.951835" y="953.7273"/><rect height="83.105675" rx="12.116609" width="83.105675" x="451.951835" y="953.7273"/><rect height="83.105675" rx="12.116609" width="83.105675" x="351.951835" y="953.7273"/><rect height="83.105675" rx="12.116609" width="83.105675" x="251.951835" y="953.7273"/><rect height="83.105675" rx="12.116609" width="83.105675" x="1251.951805" y="953.7273"/><rect height="83.105675" rx="12.116609" width="83.105675" x="1151.951805" y="953.7273"/><rect height="83.105675" rx="12.116609" width="83.105675" x="1051.951805" y="953.7273"/><rect height="83.105675" rx="12.116609" width="83.105675" x="1551.951805" y="953.7273"/><rect height="83.105675" rx="12.116609" width="83.105675" x="1451.951805" y="953.7273"/><rect height="83.105675" rx="12.116609" width="83.105675" x="1351.951805" y="953.7273"/><rect height="83.105675" rx="12.116609" width="83.105675" x="901.249752" y="849.7273"/><rect height="83.105675" rx="12.116609" width="83.105675" x="801.249752" y="849.7273"/><rect height="83.105675" rx="12.116609" width="83.105675" x="701.249752" y="849.7273"/><rect height="83.105675" rx="12.116609" width="83.105675" x="601.249752" y="849.7273"/><rect height="83.105675" rx="12.116609" width="83.105675" x="501.249752" y="849.7273"/><rect height="83.105675" rx="12.116609" width="83.105675" x="401.249752" y="849.7273"/><rect height="83.105675" rx="12.116609" width="83.105675" x="301.249752" y="849.7273"/><rect height="83.105675" rx="12.116609" width="83.105675" x="201.249752" y="849.7273"/><rect height="83.105675" rx="12.116609" width="83.105675" x="1201.249722" y="849.7273"/><rect height="83.105675" rx="12.116609" width="83.105675" x="1101.249722" y="849.7273"/><rect height="83.105675" rx="12.116609" width="83.105675" x="1001.249722" y="849.7273"/><rect height="83.105675" rx="12.116609" width="83.105675" x="1501.249722" y="849.7273"/><rect height="83.105675" rx="12.116609" width="83.105675" x="1401.249722" y="849.7273"/><rect height="83.105675" rx="12.116609" width="83.105675" x="1301.249722" y="849.7273"/><rect height="83.105675" rx="12.116609" width="83.105675" x="1601.249722" y="849.7273"/><rect height="83.105675" rx="12.116609" width="83.105675" x="975.951835" y="747.7273"/><rect height="83.105675" rx="12.116609" width="83.105675" x="875.951835" y="747.7273"/><rect height="83.105675" rx="12.116609" width="83.105675" x="775.951835" y="747.7273"/><rect height="83.105675" rx="12.116609" width="83.105675" x="675.951835" y="747.7273"/><rect height="83.105675" rx="12.116609" width="83.105675" x="575.951835" y="747.7273"/><rect height="83.105675" rx="12.116609" width="83.105675" x="475.951835" y="747.7273"/><rect height="83.105675" rx="12.116609" width="83.105675" x="375.951835" y="747.7273"/><rect height="83.105675" rx="12.116609" width="83.105675" x="275.951835" y="747.7273"/><rect height="83.105675" rx="12.116609" width="83.105675" x="1275.951805" y="747.7273"/><rect height="83.105675" rx="12.116609" width="83.105675" x="1175.951805" y="747.7273"/><rect height="83.105675" rx="12.116609" width="83.105675" x="1075.951805" y="747.7273"/><rect height="83.105675" rx="12.116609" width="83.105675" x="1575.951805" y="747.7273"/><rect height="83.105675" rx="12.116609" width="83.105675" x="1475.951805" y="747.7273"/><rect height="83.105675" rx="12.116609" width="83.105675" x="1375.951805" y="747.7273"/><rect height="83.105675" rx="12.116609" width="83.105675" x="175.951835" y="747.7273"/><rect height="83.105675" rx="12.116609" width="83.105675" x="1025.951835" y="643.7273"/><rect height="83.105675" rx="12.116609" width="83.105675" x="925.951835" y="643.7273"/><rect height="83.105675" rx="12.116609" width="83.105675" x="825.951835" y="643.7273"/><rect height="83.105675" rx="12.116609" width="83.105675" x="725.951835" y="643.7273"/><rect height="83.105675" rx="12.116609" width="83.105675" x="625.951835" y="643.7273"/><rect height="83.105675" rx="12.116609" width="83.105675" x="525.951835" y="643.7273"/><rect height="83.105675" rx="12.116609" width="83.105675" x="425.951835" y="643.7273"/><rect height="83.105675" rx="12.116609" width="83.105675" x="325.951835" y="643.7273"/><rect height="83.105675" rx="12.116609" width="83.105675" x="1325.951805" y="643.7273"/><rect height="83.105675" rx="12.116609" width="83.105675" x="1225.951805" y="643.7273"/><rect height="83.105675" rx="12.116609" width="83.105675" x="1125.951805" y="643.7273"/><rect height="83.105675" rx="12.116609" width="83.105675" x="1625.951805" y="643.7273"/><rect height="83.105675" rx="12.116609" width="83.105675" x="1525.951805" y="643.7273"/><rect height="83.105675" rx="12.116609" width="83.105675" x="1425.951805" y="643.7273"/><rect height="83.105675" rx="12.116609" width="83.105675" x="225.951835" y="643.7273"/></g></svg>