<svg height="351.07077" viewBox="0 0 2569.5532 1965.9963" width="458.84879" xmlns="http://www.w3.org/2000/svg"><g fill="#f4f4f4" fill-opacity=".5" stroke-width="5.6"><path d="m402.91034 1088.1018q0 1.792-.43307 3.0165-.64213 1.8219-2.06081 1.8219-.9408 0-1.97121-.4331-1.23947-.5227-1.35894-1.2843.41814 0 .98561.1494 1.31414.3434 1.64267.3434 1.26934 0 1.91148-1.2693.50773-1.0155.50773-2.4341 0-1.0006-.65707-2.8523-.64213-1.8667-.64213-2.5984 0-.224.11946-.3584.13441-.1494.35841-.1494.5824 0 1.13493 2.688.46294 2.2699.46294 3.3601z"/><path d="m408.65971 1089.625q0 1.5232-.88107 2.3893-.88107.8662-2.43415.8662-.8512 0-1.31414-.4032-.46293-.4033-.46293-1.2395 0-1.1798 1.53814-2.3744 1.46347-1.135 2.70295-1.135.56746 0 .74667.7019.10453.4032.10453 1.1947zm-.91094.4181q0-.1792-.0448-.3435-.0299-.1792-.11947-.4032-.23893.1643-.79147.8064-.28373.3286-.4928.4779 0-.2837.0597-.4629.11946-.2539.19413-.4331-.65707 0-1.37387.5525-.70187.5526-.70187 1.1947 0 .4331.47787.4331.91093 0 1.76214-.448 1.0304-.5376 1.0304-1.3739z"/><path d="m414.81227 1090.2372q0 .7318-.55254 1.6427-.6272 1.0304-1.2992 1.0304-.19414 0-.32854-.209-.11946-.224-.11946-.4331 0-.2688.56746-.8363.58241-.5824.58241-.7915 0-.1344-.0448-.2688-.0448-.1344-.0597-.1792-1.12.2539-2.28481 1.2843-1.14987 1.0304-1.7472 1.1648-.11947-.3285-.11947-.672 0-.4181.19413-.8811.1344-.3285.448-.7914.52267-.7915 1.10508-1.792.29866-.5227 1.0304-1.807.74667-1.2842 1.09014-1.8219.1792-.2688.3136-.4032.19413-.1792.46294-.2389.1792.06.25386.224.0896.1643.0896.3883 0 .5077-.65707 1.3739-1.19467 1.553-1.22453 1.6128-.67201 1.0154-.67201 1.8368l.0299.1493q.82134-.4032.97067-.4629.61227-.2539 1.04534-.2539.47787 0 .70187.3285.224.3136.224.8064z"/><path d="m421.74138 1089.3562q0 1.0154-.4928 2.1653-.5376 1.2694-1.32907 1.7472-.16427-.1941-.28374-.433-.10453-.239-.10453-.4779 0-.2539.74667-1.5083.32853-.5525.29867-.9707l-.0149-.1941q-.55253.1643-1.91147 1.0005-1.34401.8214-2.71788 1.6726-.20907 0-.38827-.1494-.16427-.1642-.16427-.3584 0-.3136 1.00054-2.1056.29867-.5376 1.07521-1.8666.23893.3136.3136.7018.0747.3734.0747.896 0 .224 0 .3435 1.37388-.8213 2.15041-1.2395.85121-.4629 1.16481-.4629.20907 0 .38827.4779.19413.4778.19413.7616z"/><path d="m434.7185 1092.2532q0 .2689-.23894.4182-.224.1344-.50773.1344-.25387 0-.64214-.06-.88107-.1344-1.13494-.1344-.448 0-1.76214.1045-.74667.06-1.0752.06-.91094 0-.91094-.9109 0-.8662.56747-2.479.3136-.9109 1.17974-2.9866.77653-1.8667.9856-2.6283.0747-.239.11947-.3136.11947-.1792.29867-.1792.28373 0 .47787.4181.19413.4032.19413.7317 0 .5227-.61227 1.7622-.61227 1.2245-1.19467 2.4043-.64214 1.4037-.64214 2.1354 0 .3734.3136.5227.224.1045.65707.1045.32854 0 1.13494-.075.80641-.09 1.07521-.09.672 0 1.10507.1941.61227.2688.61227.8661z"/><path d="m440.27373 1089.625q0 1.5232-.88107 2.3893-.88107.8662-2.43415.8662-.8512 0-1.31414-.4032-.46293-.4033-.46293-1.2395 0-1.1798 1.53814-2.3744 1.46347-1.135 2.70294-1.135.56747 0 .74667.7019.10454.4032.10454 1.1947zm-.91094.4181q0-.1792-.0448-.3435-.0299-.1792-.11947-.4032-.23893.1643-.79147.8064-.28373.3286-.4928.4779 0-.2837.0597-.4629.11947-.2539.19414-.4331-.65707 0-1.37387.5525-.70187.5526-.70187 1.1947 0 .4331.47786.4331.91094 0 1.76215-.448 1.0304-.5376 1.0304-1.3739z"/><path d="m446.56069 1089.3114q0 .4778-.25387 1.0154-.23894.5376-.61227.896l-.0149-.209q0-.1792.0448-.5526.0448-.3733.0448-.5525 0-.2539-.0747-.3733-.0747-.1344-.3136-.1344-.70187 0-1.74721 1.0901-1.13494 1.1947-2.25494 2.3744-.0896 0-.17921-.015-.224-.06-.29866-.075.0448-.5376.37333-1.1947.88107-1.777.91094-1.8965.11947-.4779.1792-.7019.0597-.224.16427-.4629.11946-.2539.2688-.448.16427-.2091.41813-.3136l.14934 1.792q.64213-.5227.9856-.8064.65707-.5227 1.13494-.5227.47787 0 .77654.3136.29867.3136.29867.7766z"/><path d="m453.893 1087.5791q0 .6272-1.67254 1.6576-1.61281.9856-2.34454.9856-.34347 0-.46294-.2389-.10453-.239-.10453-.672 0-.2838 0-.4032 1.00053 0 1.82187-.2987.82134-.2987 1.43361-.9856-.448-.1643-.91094-.1643-1.09014 0-2.31468.8363-1.344.9109-1.344 1.9413 0 .9856 1.344 1.3739.20907.06 2.52375.4181 1.35894.2091 1.35894.7318 0 .224-.49281.3584-.4928.1493-1.2544.1493-1.91148 0-3.01655-.5824-1.46347-.7765-1.46347-2.4939 0-1.792 1.79201-2.8522 1.5232-.896 3.46455-.896.5824 0 1.06027.2688.5824.3285.5824.8661z"/><path d="m459.8365 1084.906q0 .3286-.79147 1.3739-.79147 1.0453-.79147 1.5979 0 .2837.32853.5674.74667.6571.74667.8064 0 .1942-.1344.3734-.11947.1792-.3136.1792-.16427 0-.46294-.1792-.20906-.1195-.8064-.5824-.224.433-.34347.657-.41813.7915-.56747 1.1499-.224.6869-.448 1.3739-.38827.9259-.97067.9259l-.0149-.3435q0-1.0603.68693-2.5088.1344-.2688.74667-1.3888-1.17973-.6422-2.59841-.6422 0-.5525.224-.8064.23894-.2688.79147-.2688.50774 0 1.26934.1792.37334.09.74667.1792.28374-.09.77654-.9706 1.2096-2.1206 1.64267-2.4342.11947.1941.19414.3883.0896.1941.0896.3733z"/><path d="m465.34694 1090.2372q0 .7318-.55254 1.6427-.6272 1.0304-1.29921 1.0304-.19413 0-.32853-.209-.11947-.224-.11947-.4331 0-.2688.56747-.8363.5824-.5824.5824-.7915 0-.1344-.0448-.2688-.0448-.1344-.0597-.1792-1.12001.2539-2.28481 1.2843-1.14987 1.0304-1.74721 1.1648-.11947-.3285-.11947-.672 0-.4181.19414-.8811.1344-.3285.448-.7914.52267-.7915 1.10507-1.792.29867-.5227 1.03041-1.807.74667-1.2842 1.09014-1.8219.1792-.2688.3136-.4032.19413-.1792.46293-.2389.1792.06.25387.224.0896.1643.0896.3883 0 .5077-.65707 1.3739-1.19467 1.553-1.22454 1.6128-.672 1.0154-.672 1.8368l.0299.1493q.82133-.4032.97067-.4629.61227-.2539 1.04533-.2539.47787 0 .70187.3285.22401.3136.22401.8064z"/><path d="m477.60728 1085.369q0 .7018-.74667 1.8816-.47787.7466-1.56801 2.1504-1.09014 1.3888-1.35894 1.8218.0448.015 1.12001.3584 1.09014.3286 1.09014 1.1947-.44801.075-.88108.1344l-.16426-.015v-.1195q-.23894-.06-.38827-.06-.28374 0-.89601.09-.61226.09-.92587.09-.4032 0-.65707-.1493-.25386-.1494-.25386-.5377 0-.3136 1.14987-1.777 2.15041-2.7328 2.16534-2.7627 1.16481-1.5829 1.16481-2.1205 0-.2091-.14934-.3136-.1344-.1046-.55253-.1046-.28374 0-1.17974.5526-.43307.2688-.70187.2688l-.25387-.045q-.0896-.06-.19413-.224-.10454-.1792-.10454-.2838 0-.6272 1.20961-1.1499 1.0304-.448 1.79201-.448.64213 0 .9856.4779.29867.4181.29867 1.0902z"/><path d="m486.58223 1088.057q0 1.8069-1.95627 3.1957-1.79201 1.2694-3.68855 1.2694-.94081 0-1.49334-.4779-.55254-.4779-.55254-1.3888 0-2.031 1.77708-3.5243 1.68747-1.4187 3.77815-1.4187 1.06027 0 1.59787.6272.5376.6272.5376 1.7174zm-.91093.3434q0-.6869-.77654-1.0304-.5824-.2538-1.38881-.2538-1.17973 0-2.46401 1.1498-1.28427 1.1499-1.28427 2.3147 0 .4779.23893.6869.25387.1942.76161.1942 1.46347 0 3.04641-.8064 1.86668-.9558 1.86668-2.255z"/><path d="m493.42175 1085.369q0 .7018-.74667 1.8816-.47787.7466-1.56801 2.1504-1.09014 1.3888-1.35894 1.8218.0448.015 1.12001.3584 1.09013.3286 1.09013 1.1947-.448.075-.88107.1344l-.16426-.015v-.1195q-.23894-.06-.38827-.06-.28374 0-.89601.09-.61227.09-.92587.09-.4032 0-.65707-.1493-.25387-.1494-.25387-.5377 0-.3136 1.14988-1.777 2.15041-2.7328 2.16534-2.7627 1.1648-1.5829 1.1648-2.1205 0-.2091-.14933-.3136-.1344-.1046-.55253-.1046-.28374 0-1.17974.5526-.43307.2688-.70187.2688l-.25387-.045q-.0896-.06-.19414-.224-.10453-.1792-.10453-.2838 0-.6272 1.20961-1.1499 1.0304-.448 1.792-.448.64214 0 .98561.4779.29867.4181.29867 1.0902z"/><path d="m500.2911 1085.369q0 .7018-.74667 1.8816-.47787.7466-1.56801 2.1504-1.09013 1.3888-1.35894 1.8218.0448.015 1.12001.3584 1.09014.3286 1.09014 1.1947-.448.075-.88107.1344l-.16427-.015v-.1195q-.23893-.06-.38827-.06-.28373 0-.896.09-.61227.09-.92587.09-.40321 0-.65707-.1493-.25387-.1494-.25387-.5377 0-.3136 1.14987-1.777 2.15041-2.7328 2.16534-2.7627 1.16481-1.5829 1.16481-2.1205 0-.2091-.14933-.3136-.13441-.1046-.55254-.1046-.28374 0-1.17974.5526-.43307.2688-.70187.2688l-.25387-.045q-.0896-.06-.19413-.224-.10453-.1792-.10453-.2838 0-.6272 1.2096-1.1499 1.03041-.448 1.79201-.448.64213 0 .9856.4779.29867.4181.29867 1.0902z"/></g><g fill="none" stroke="#f4f4f4"><g transform="translate(-365.62064 -269.16364)"><path d="m2801.9092 270.16373h-1151.3935m-.1185 1963.99627h1254.543c16.1954 0 29.2336-13.0382 29.2336-29.2336v-1003.3807l-103.031-902.14839c-1.8377-16.0908-13.0382-29.23358-29.2336-29.23358m-2303.02392-.00009h1151.39342m.1185 1963.99636h-1254.54297c-16.19541 0-29.23359-13.0382-29.23359-29.2336v-1003.3807l103.03105-902.14848c1.83767-16.0908 13.03818-29.23358 29.23359-29.23358" stroke-linecap="round" stroke-width="11.2"/><path d="m506.6953 1201.2654h2287.3674c4.3859 0 7.9168 3.5309 7.9168 7.9168v926.7384c0 4.3859-3.5309 7.9167-7.9168 7.9167h-2287.3674c-4.38589 0-7.91677-3.5308-7.91677-7.9167v-926.7384c0-4.3859 3.53088-7.9168 7.91677-7.9168z" stroke-linecap="round" stroke-width="11.2"/><g stroke-width="5.6"><path d="m584.2951 1495.0896h138v331.20001h-138z" stroke-linecap="round"/><path d="m2750.1491 1201.2654v166.0451m29.9-166.0451v166.0451m-1909.15185-166.0451v166.0451m-372.11872 0h2303.00897"/><g stroke-linecap="round"><g><rect height="105.67883" rx="7.562764" width="15.125527" x="548.99919" y="1226.5044"/><rect height="105.67883" rx="7.562764" width="15.125527" x="585.799" y="1226.5044"/><rect height="105.67883" rx="7.562764" width="15.125527" x="622.5988" y="1226.5044"/><rect height="105.67883" rx="7.562764" width="15.125527" x="659.39861" y="1226.5044"/><rect height="105.67883" rx="7.562764" width="15.125527" x="696.19841" y="1226.5044"/><rect height="105.67883" rx="7.562764" width="15.125527" x="732.99822" y="1226.5044"/><rect height="105.67883" rx="7.562764" width="15.125527" x="769.79802" y="1226.5044"/><rect height="105.67883" rx="7.562764" width="15.125527" x="806.59783" y="1226.5044"/></g><circle cx="1087.1107" cy="2086.5793" r="12.65"/><circle cx="959.68011" cy="2086.5793" r="12.65"/><circle cx="835.48077" cy="2086.5793" r="12.65"/></g></g></g><g stroke-linecap="round" stroke-width="11.2"><g><rect height="96.599998" rx="13.899245" width="96.599998" x="1417.30126" y="1593.58836"/><rect height="96.599998" rx="13.899245" width="96.599998" x="1536.90056" y="1593.58836"/><rect height="96.599998" rx="13.899245" width="96.599998" x="1651.89986" y="1593.58836"/><rect height="96.599998" rx="13.899245" width="96.599998" x="1771.49986" y="1593.58836"/><rect height="96.599998" rx="13.899246" ry="13.899245" width="156.40256" x="1886.50226" y="1593.58836"/><rect height="96.599998" rx="13.899245" width="96.599998" x="2065.90856" y="1593.58826"/><rect height="96.599998" rx="13.899245" width="96.599998" x="1302.30166" y="1593.58836"/><rect height="96.599998" rx="13.899245" width="96.599998" x="1182.70236" y="1593.58836"/><rect height="96.599998" rx="13.899245" width="96.599998" x="1067.70296" y="1593.58836"/><rect height="96.599998" rx="13.899245" width="96.599998" x="948.10356" y="1593.58836"/><rect height="96.599998" rx="13.899245" width="96.599998" x="833.10416" y="1593.58836"/><rect height="96.599998" rx="13.899245" width="96.599998" x="713.50476" y="1593.58836"/><rect height="96.599998" rx="13.899244" ry="13.899245" width="156.39999" x="534.10565" y="1593.58836"/><rect height="96.599998" rx="13.899245" width="96.599998" x="414.50598" y="1593.58836"/><rect height="96.599998" rx="13.899245" width="96.599998" x="2180.90826" y="1593.58826"/></g><g><rect height="96.599998" rx="13.899245" width="96.599998" x="1352.90126" y="1473.98836"/><rect height="96.599998" rx="13.899245" width="96.599998" x="1472.50056" y="1473.98836"/><rect height="96.599998" rx="13.899245" width="96.599998" x="1587.49986" y="1473.98836"/><rect height="96.599998" rx="13.899245" width="96.599998" x="1707.09986" y="1473.98836"/><rect height="96.599998" rx="13.899245" width="96.599998" x="1822.10226" y="1473.98836"/><rect height="96.599998" rx="13.899245" width="96.599998" x="1941.70476" y="1473.98836"/><rect height="96.599998" rx="13.899245" width="96.599998" x="1237.90166" y="1473.98836"/><rect height="96.599998" rx="13.899245" width="96.599998" x="1118.30236" y="1473.98836"/><rect height="96.599998" rx="13.899245" width="96.599998" x="1003.30296" y="1473.98836"/><rect height="96.599998" rx="13.899245" width="96.599998" x="883.70356" y="1473.98836"/><rect height="96.599998" rx="13.899245" width="96.599998" x="768.70416" y="1473.98836"/><rect height="96.599998" rx="13.899245" width="96.599998" x="649.10476" y="1473.98836"/><rect height="96.599998" rx="13.899245" width="96.599998" x="534.10537" y="1473.98836"/><rect height="96.599998" rx="13.899245" width="96.599998" x="414.50601" y="1473.98836"/><rect height="96.599998" rx="13.899245" width="220.8" x="2056.70826" y="1473.98836"/></g><g><rect height="96.599998" rx="13.899245" width="96.599998" x="1320.70126" y="1354.38836"/><rect height="96.599998" rx="13.899245" width="96.599998" x="1440.30056" y="1354.38836"/><rect height="96.599998" rx="13.899245" width="96.599998" x="1555.29986" y="1354.38836"/><rect height="96.599998" rx="13.899245" width="96.599998" x="1674.89986" y="1354.38836"/><rect height="96.599998" rx="13.899245" width="96.599998" x="1789.90226" y="1354.38836"/><rect height="96.599998" rx="13.899245" width="96.599998" x="1909.50476" y="1354.38836"/><rect height="96.599998" rx="13.899245" width="96.599998" x="1205.70166" y="1354.38836"/><rect height="96.599998" rx="13.899245" width="96.599998" x="1086.10236" y="1354.38836"/><rect height="96.599998" rx="13.899245" width="96.599998" x="971.10296" y="1354.38836"/><rect height="96.599998" rx="13.899245" width="96.599998" x="851.50356" y="1354.38836"/><rect height="96.599998" rx="13.899245" width="96.599998" x="736.50416" y="1354.38836"/><rect height="96.599998" rx="13.899245" width="96.599998" x="616.90476" y="1354.38836"/><rect height="96.599998" rx="13.899244" ry="13.899245" width="151.79886" x="446.70603" y="1354.38836"/><rect height="96.599998" rx="13.899245" width="96.599998" x="2024.50726" y="1354.38836"/><rect height="96.599998" rx="13.899245" width="96.599998" x="2139.50966" y="1354.38836"/><rect height="96.599998" rx="13.899245" width="96.599998" x="2259.11226" y="1354.38836"/></g><g><rect height="96.599998" rx="13.899245" width="96.599998" x="1385.10126" y="1234.78836"/><rect height="96.599998" rx="13.899245" width="96.599998" x="1504.70056" y="1234.78836"/><rect height="96.599998" rx="13.899245" width="96.599998" x="1619.69986" y="1234.78836"/><rect height="96.599998" rx="13.899245" width="96.599998" x="1739.29986" y="1234.78836"/><rect height="96.599998" rx="13.899245" width="96.599998" x="1854.30226" y="1234.78836"/><rect height="96.599998" rx="13.899245" width="96.599998" x="1973.90476" y="1234.78836"/><rect height="96.599998" rx="13.899245" width="96.599998" x="1270.10166" y="1234.78836"/><rect height="96.599998" rx="13.899245" width="96.599998" x="1150.50236" y="1234.78836"/><rect height="96.599998" rx="13.899245" width="96.599998" x="1035.50296" y="1234.78836"/><rect height="96.599998" rx="13.899245" width="96.599998" x="915.90356" y="1234.78836"/><rect height="96.599998" rx="13.899245" width="96.599998" x="800.90416" y="1234.78836"/><rect height="96.599998" rx="13.899245" width="96.599998" x="681.30476" y="1234.78836"/><rect height="96.599998" rx="13.899245" width="96.599998" x="2088.90726" y="1234.78836"/><rect height="96.599998" rx="13.899245" width="96.599998" x="2203.90966" y="1234.78836"/><rect height="96.599998" rx="13.899245" width="96.599998" x="566.30537" y="1234.78836"/></g><g><rect height="96.599998" rx="13.899245" width="96.599998" x="1412.70126" y="1115.18836"/><rect height="96.599998" rx="13.899245" width="96.599998" x="1532.30056" y="1115.18836"/><rect height="96.599998" rx="13.899245" width="96.599998" x="1647.29986" y="1115.18836"/><rect height="96.599998" rx="13.899245" width="96.599998" x="1766.89986" y="1115.18836"/><rect height="96.599998" rx="13.899245" width="96.599998" x="1881.90226" y="1115.18836"/><rect height="96.599998" rx="13.899245" width="96.599998" x="1297.70166" y="1115.18836"/><rect height="96.599998" rx="13.899245" width="96.599998" x="1178.10236" y="1115.18836"/><rect height="96.599998" rx="13.899245" width="96.599998" x="1063.10296" y="1115.18836"/><rect height="96.599998" rx="13.899245" width="96.599998" x="943.50356" y="1115.18836"/><rect height="96.599998" rx="13.899245" width="96.599998" x="828.50416" y="1115.18836"/><rect height="96.599998" rx="13.899245" width="96.599998" x="708.90476" y="1115.18836"/></g><rect height="96.599976" rx="13.899249" ry="13.899245" width="915.39551" x="833.10426" y="1713.18766"/></g></g></svg>