<svg height="361.1972" viewBox="0 0 1317.12 866.87329" width="548.79999" xmlns="http://www.w3.org/2000/svg"><g transform="translate(-66.423783 -74.154902)"><g fill="#f4f4f4" fill-opacity=".5" stroke-width="2.4"><path d="m1253.1379 374.88061q0 .384-.093.6464-.1376.3904-.4416.3904-.2016 0-.4224-.0928-.2656-.112-.2912-.2752.09 0 .2112.032.2816.0736.352.0736.272 0 .4096-.272.1088-.2176.1088-.5216 0-.2144-.1408-.6112-.1376-.4-.1376-.5568 0-.048.026-.0768.029-.032.077-.032.1248 0 .2432.576.099.4864.099.72z"/><path d="m1254.3699 375.20701q0 .3264-.1888.512-.1888.1856-.5216.1856-.1824 0-.2816-.0864-.099-.0864-.099-.2656 0-.2528.3296-.5088.3136-.2432.5792-.2432.1216 0 .16.1504.022.0864.022.256zm-.1952.0896q0-.0384-.01-.0736-.01-.0384-.026-.0864-.051.0352-.1696.1728-.061.0704-.1056.1024 0-.0608.013-.0992.026-.0544.042-.0928-.1408 0-.2944.1184-.1504.1184-.1504.256 0 .0928.1024.0928.1952 0 .3776-.096.2208-.1152.2208-.2944z"/><path d="m1255.6883 375.33821q0 .1568-.1184.352-.1344.2208-.2784.2208-.042 0-.07-.0448-.026-.048-.026-.0928 0-.0576.1216-.1792.1248-.1248.1248-.1696 0-.0288-.01-.0576-.01-.0288-.013-.0384-.24.0544-.4896.2752-.2464.2208-.3744.2496-.026-.0704-.026-.144 0-.0896.042-.1888.029-.0704.096-.1696.112-.1696.2368-.384.064-.112.2208-.3872.16-.2752.2336-.3904.038-.0576.067-.0864.042-.0384.099-.0512.038.0128.054.048.019.0352.019.0832 0 .1088-.1408.2944-.256.3328-.2624.3456-.144.2176-.144.3936l.01.032q.176-.0864.208-.0992.1312-.0544.224-.0544.1024 0 .1504.0704.048.0672.048.1728z"/><path d="m1257.1731 375.14941q0 .2176-.1056.464-.1152.272-.2848.3744-.035-.0416-.061-.0928-.022-.0512-.022-.1024 0-.0544.16-.3232.07-.1184.064-.208v-.0416q-.1184.0352-.4096.2144-.288.176-.5824.3584-.045 0-.083-.032-.035-.0352-.035-.0768 0-.0672.2144-.4512.064-.1152.2304-.4.051.0672.067.1504.016.08.016.192 0 .048 0 .0736.2944-.176.4608-.2656.1824-.0992.2496-.0992.045 0 .083.1024.042.1024.042.1632z"/><path d="m1259.9539 375.77021q0 .0576-.051.0896-.048.0288-.1088.0288-.054 0-.1376-.0128-.1888-.0288-.2432-.0288-.096 0-.3776.0224-.16.0128-.2304.0128-.1952 0-.1952-.1952 0-.1856.1216-.5312.067-.1952.2528-.64.1664-.4.2112-.5632.016-.0512.026-.0672.026-.0384.064-.0384.061 0 .1024.0896.042.0864.042.1568 0 .112-.1312.3776-.1312.2624-.256.5152-.1376.3008-.1376.4576 0 .08.067.112.048.0224.1408.0224.07 0 .2432-.016.1728-.0192.2304-.0192.144 0 .2368.0416.1312.0576.1312.1856z"/><path d="m1261.1443 375.20701q0 .3264-.1888.512-.1888.1856-.5216.1856-.1824 0-.2816-.0864-.099-.0864-.099-.2656 0-.2528.3296-.5088.3136-.2432.5792-.2432.1216 0 .16.1504.022.0864.022.256zm-.1952.0896q0-.0384-.01-.0736-.01-.0384-.026-.0864-.051.0352-.1696.1728-.061.0704-.1056.1024 0-.0608.013-.0992.026-.0544.042-.0928-.1408 0-.2944.1184-.1504.1184-.1504.256 0 .0928.1024.0928.1952 0 .3776-.096.2208-.1152.2208-.2944z"/><path d="m1262.4915 375.13981q0 .1024-.054.2176-.051.1152-.1312.192v-.0448q0-.0384.01-.1184.01-.08.01-.1184 0-.0544-.016-.08-.016-.0288-.067-.0288-.1504 0-.3744.2336-.2432.256-.4832.5088-.019 0-.038-.003-.048-.0128-.064-.016.01-.1152.08-.256.1888-.3808.1952-.4064.026-.1024.038-.1504.013-.048.035-.0992.026-.0544.058-.096.035-.0448.09-.0672l.032.384q.1376-.112.2112-.1728.1408-.112.2432-.112.1024 0 .1664.0672.064.0672.064.1664z"/><path d="m1264.0627 374.76861q0 .1344-.3584.3552-.3456.2112-.5024.2112-.074 0-.099-.0512-.022-.0512-.022-.144 0-.0608 0-.0864.2144 0 .3904-.064.176-.064.3072-.2112-.096-.0352-.1952-.0352-.2336 0-.496.1792-.288.1952-.288.416 0 .2112.288.2944.045.0128.5408.0896.2912.0448.2912.1568 0 .048-.1056.0768-.1056.032-.2688.032-.4096 0-.6464-.1248-.3136-.1664-.3136-.5344 0-.384.384-.6112.3264-.192.7424-.192.1248 0 .2272.0576.1248.0704.1248.1856z"/><path d="m1265.3363 374.19581q0 .0704-.1696.2944-.1696.224-.1696.3424 0 .0608.07.1216.16.1408.16.1728 0 .0416-.029.08-.026.0384-.067.0384-.035 0-.099-.0384-.045-.0256-.1728-.1248-.048.0928-.074.1408-.09.1696-.1216.2464-.048.1472-.096.2944-.083.1984-.208.1984v-.0736q0-.2272.1472-.5376.029-.0576.16-.2976-.2528-.1376-.5568-.1376 0-.1184.048-.1728.051-.0576.1696-.0576.1088 0 .272.0384.08.0192.16.0384.061-.0192.1664-.208.2592-.4544.352-.5216.026.0416.042.0832.019.0416.019.08z"/><path d="m1266.5171 375.33821q0 .1568-.1184.352-.1344.2208-.2784.2208-.042 0-.07-.0448-.026-.048-.026-.0928 0-.0576.1216-.1792.1248-.1248.1248-.1696 0-.0288-.01-.0576-.01-.0288-.013-.0384-.24.0544-.4896.2752-.2464.2208-.3744.2496-.026-.0704-.026-.144 0-.0896.042-.1888.029-.0704.096-.1696.112-.1696.2368-.384.064-.112.2208-.3872.16-.2752.2336-.3904.038-.0576.067-.0864.042-.0384.099-.0512.038.0128.054.048.019.0352.019.0832 0 .1088-.1408.2944-.256.3328-.2624.3456-.144.2176-.144.3936l.01.032q.176-.0864.208-.0992.1312-.0544.224-.0544.1024 0 .1504.0704.048.0672.048.1728z"/><path d="m1269.1443 374.29501q0 .1504-.16.4032-.1024.16-.336.4608-.2336.2976-.2912.3904.01.003.24.0768.2336.0704.2336.256-.096.016-.1888.0288l-.035-.003v-.0256q-.051-.0128-.083-.0128-.061 0-.192.0192-.1312.0192-.1984.0192-.086 0-.1408-.032-.054-.032-.054-.1152 0-.0672.2464-.3808.4608-.5856.464-.592.2496-.3392.2496-.4544 0-.0448-.032-.0672-.029-.0224-.1184-.0224-.061 0-.2528.1184-.093.0576-.1504.0576l-.054-.01q-.019-.0128-.042-.048-.022-.0384-.022-.0608 0-.1344.2592-.2464.2208-.096.384-.096.1376 0 .2112.1024.064.0896.064.2336z"/><path d="m1271.0675 374.87101q0 .3872-.4192.6848-.384.272-.7904.272-.2016 0-.32-.1024-.1184-.1024-.1184-.2976 0-.4352.3808-.7552.3616-.304.8096-.304.2272 0 .3424.1344.1152.1344.1152.368zm-.1952.0736q0-.1472-.1664-.2208-.1248-.0544-.2976-.0544-.2528 0-.528.2464-.2752.2464-.2752.496 0 .1024.051.1472.054.0416.1632.0416.3136 0 .6528-.1728.4-.2048.4-.4832z"/><path d="m1272.5331 374.29501q0 .1504-.16.4032-.1024.16-.336.4608-.2336.2976-.2912.3904.01.003.24.0768.2336.0704.2336.256-.096.016-.1888.0288l-.035-.003v-.0256q-.051-.0128-.083-.0128-.061 0-.192.0192-.1312.0192-.1984.0192-.086 0-.1408-.032-.054-.032-.054-.1152 0-.0672.2464-.3808.4608-.5856.464-.592.2496-.3392.2496-.4544 0-.0448-.032-.0672-.029-.0224-.1184-.0224-.061 0-.2528.1184-.093.0576-.1504.0576l-.054-.01q-.019-.0128-.042-.048-.022-.0384-.022-.0608 0-.1344.2592-.2464.2208-.096.384-.096.1376 0 .2112.1024.064.0896.064.2336z"/><path d="m1274.0051 374.29501q0 .1504-.16.4032-.1024.16-.336.4608-.2336.2976-.2912.3904.01.003.24.0768.2336.0704.2336.256-.096.016-.1888.0288l-.035-.003v-.0256q-.051-.0128-.083-.0128-.061 0-.192.0192-.1312.0192-.1984.0192-.086 0-.1408-.032-.054-.032-.054-.1152 0-.0672.2464-.3808.4608-.5856.464-.592.2496-.3392.2496-.4544 0-.0448-.032-.0672-.029-.0224-.1184-.0224-.061 0-.2528.1184-.093.0576-.1504.0576l-.054-.01q-.019-.0128-.042-.048-.022-.0384-.022-.0608 0-.1344.2592-.2464.2208-.096.384-.096.1376 0 .2112.1024.064.0896.064.2336z"/></g><g fill="none" stroke="#f4f4f4"><path d="m725.0116 940.02817h647.1087c5.7699 0 10.6546-4.65007 10.415-10.415l-20-481.24123c-.2396-5.76493-4.6451-10.415-10.415-10.415h-10-617.13653m-.0278 502.07123h-647.108726c-5.76991 0-10.654587-4.65007-10.415001-10.415l20-481.24123c.239586-5.76493 4.645091-10.415 10.415001-10.415h9.999996 617.13653" stroke-width="4.8"/><path d="m1361.5715 444.08549c-.3551-.34473-14.6912-60.44374-14.6912-60.44374m-621.68358 14.76482h612.44298c5.7699 0 11.097-4.68554 10.415-10.415l-36-302.421979c-.682-5.72946-4.6451-10.415004-10.415-10.415004h-2-574.59216m-636.523992 368.930903c.355119-.34473 14.691192-60.44374 14.691192-60.44374m621.68362 14.76482h-612.44302c-5.76991 0-11.09703-4.68554-10.415-10.415l36-302.421983c.68203-5.729459 4.64509-10.415 10.415-10.415h2 574.5922" stroke-width="4.8"/><g stroke-width="2.4"><path d="m140.98206 455.87418h43.105v6.556762h-43.105z"/><rect height="28.174776" rx="2.849696" width="216.92123" x="1060.2683" y="350.18027"/><g><path d="m724.91983 252.06315h-606.56287m.78812-7.10636h605.76218"/><path d="m724.91983 238.06315h-604.90356m.82611-7.10636h604.06488"/><path d="m724.91983 224.06315h-603.59731m1.34587-7.10636h602.23887"/><path d="m724.91983 210.06315h-601.60214m.90126-7.10636h600.68831"/><path d="m724.91983 196.06315h-600.14231m1.09309-7.10636h599.03665"/><path d="m724.91983 182.06315h-598.20453m.57634-7.10636h597.61562"/><path d="m724.91983 168.06315h-596.73896m1.01794-7.10636h595.70845"/><path d="m724.91983 154.06315h-595.08976m.66051-7.10636h594.41668"/><path d="m724.89466 252.06315h606.56294m-.7881-7.10636h-605.76224"/><path d="m724.89466 238.06315h604.90364m-.8261-7.10636h-604.06494"/><path d="m724.89466 224.06315h603.59734m-1.3458-7.10636h-602.23894"/><path d="m724.89466 210.06315h601.60224m-.9013-7.10636h-600.68834"/><path d="m724.89466 196.06315h600.14234m-1.093-7.10636h-599.03674"/><path d="m724.89466 182.06315h598.20464m-.5764-7.10636h-597.61564"/><path d="m724.89466 168.06315h596.73904m-1.0179-7.10636h-595.70854"/><path d="m724.89466 154.06315h595.08984m-.6605-7.10636h-594.41674"/></g></g><g stroke-width="4.60915" transform="matrix(1.0405339 0 0 1.0422788 -30.284848 -30.404914)"><rect height="43.000629" rx="5.381655" ry="5.381654" width="488.93307" x="348.24069" y="808.94696"/><rect height="43.000629" rx="5.381654" width="43.000629" x="1199.739959" y="697.65167"/><rect height="43.000629" rx="5.381654" width="43.000629" x="1143.998459" y="697.65167"/><rect height="43.000629" rx="5.381654" width="43.000629" x="1088.257059" y="697.65167"/><rect height="98.6483" rx="5.381654" width="43.000629" x="1255.481359" y="697.65167"/><rect height="43.000629" rx="5.381654" width="43.000629" x="1199.739959" y="753.29932"/><rect height="43.000629" rx="5.381654" width="98.742111" x="1088.257059" y="753.29932"/><rect height="43.000629" rx="5.381654" width="43.000629" x="1199.739959" y="586.35638"/><rect height="43.000629" rx="5.381654" width="43.000629" x="1143.998459" y="586.35638"/><rect height="43.000629" rx="5.381654" width="43.000629" x="1088.257059" y="586.35638"/><rect height="43.000629" rx="5.381654" width="43.000629" x="1255.481359" y="586.35638"/><rect height="43.000629" rx="5.381654" width="43.000629" x="1199.739959" y="642.00403"/><rect height="43.000629" rx="5.381654" width="43.000629" x="1143.998459" y="642.00403"/><rect height="43.000629" rx="5.381654" width="43.000629" x="1088.257059" y="642.00403"/><rect height="43.000629" rx="5.381654" width="43.000629" x="1255.481359" y="642.00403"/><rect height="43.000629" rx="5.381654" width="43.000629" x="682.690289" y="753.29896"/><rect height="43.000629" rx="5.381654" width="43.000629" x="626.948829" y="753.29896"/><rect height="43.000629" rx="5.381654" width="43.000629" x="571.207379" y="753.29896"/><rect height="43.000629" rx="5.381654" width="43.000629" x="515.465919" y="753.29896"/><rect height="43.000629" rx="5.381654" width="43.000629" x="459.724899" y="753.29896"/><rect height="43.000629" rx="5.381654" width="43.000629" x="403.984329" y="753.29896"/><rect height="43.000629" rx="5.381654" width="43.000629" x="348.243759" y="753.29896"/><rect height="43.000629" rx="5.381654" width="43.000629" x="292.503189" y="753.29896"/><rect height="43.000629" rx="5.381654" width="71.83194" x="207.931289" y="753.29896"/><rect height="43.000629" rx="5.381654" width="43.000629" x="152.190729" y="753.29896"/><rect height="43.000629" rx="5.381654" width="43.000629" x="988.307439" y="753.29896"/><rect height="43.000629" rx="5.381654" width="43.000629" x="932.565959" y="753.29896"/><rect height="43.000629" rx="5.381654" width="69.909904" x="849.914709" y="753.29896"/><rect height="43.000629" rx="5.381654" width="43.000629" x="794.173199" y="753.29896"/><rect height="43.000629" rx="5.381654" width="43.000629" x="738.431739" y="753.29896"/><rect height="43.000629" rx="5.381654" width="43.000629" x="709.59955" y="697.65167"/><rect height="43.000629" rx="5.381654" width="43.000629" x="653.85809" y="697.65167"/><rect height="43.000629" rx="5.381654" width="43.000629" x="598.11664" y="697.65167"/><rect height="43.000629" rx="5.381654" width="43.000629" x="542.37518" y="697.65167"/><rect height="43.000629" rx="5.381654" width="43.000629" x="486.63416" y="697.65167"/><rect height="43.000629" rx="5.381654" width="43.000629" x="430.89359" y="697.65167"/><rect height="43.000629" rx="5.381654" width="43.000629" x="375.15302" y="697.65167"/><rect height="43.000629" rx="5.381654" width="43.000629" x="319.41245" y="697.65167"/><rect height="43.000629" rx="5.381654" width="43.000629" x="263.67188" y="697.65167"/><rect height="43.000629" rx="5.381654" width="43.000629" x="207.9313" y="697.65167"/><rect height="43.000629" rx="5.381654" width="43.000629" x="988.30682" y="697.65167"/><rect height="43.000629" rx="5.381654" width="43.000629" x="932.56537" y="697.65167"/><rect height="43.000629" rx="5.381654" width="43.000629" x="876.82391" y="697.65167"/><rect height="43.000629" rx="5.381654" width="43.000629" x="821.08246" y="697.65167"/><rect height="43.000629" rx="5.381654" width="43.000629" x="765.341" y="697.65167"/><rect height="43.000629" rx="5.381654" width="43.000629" x="152.19073" y="697.65167"/><rect height="43.000629" rx="5.381654" width="43.000629" x="680.768199" y="642.00438"/><rect height="43.000629" rx="5.381654" width="43.000629" x="625.026739" y="642.00438"/><rect height="43.000629" rx="5.381654" width="43.000629" x="569.285289" y="642.00438"/><rect height="43.000629" rx="5.381654" width="43.000629" x="513.543829" y="642.00438"/><rect height="43.000629" rx="5.381654" width="43.000629" x="457.802809" y="642.00438"/><rect height="43.000629" rx="5.381654" width="43.000629" x="402.062239" y="642.00438"/><rect height="43.000629" rx="5.381654" width="43.000629" x="346.321669" y="642.00438"/><rect height="43.000629" rx="5.381654" width="43.000629" x="290.581099" y="642.00438"/><rect height="43.000629" rx="5.381654" width="43.000629" x="234.840529" y="642.00438"/><rect height="43.000629" rx="5.381654" width="69.909851" x="152.190739" y="642.00438"/><rect height="43.000629" rx="5.381654" width="71.832565" x="959.475469" y="642.00438"/><rect height="43.000629" rx="5.381654" width="43.000629" x="903.734019" y="642.00438"/><rect height="43.000629" rx="5.381654" width="43.000629" x="847.992559" y="642.00438"/><rect height="43.000629" rx="5.381654" width="43.000629" x="792.251109" y="642.00438"/><rect height="43.000629" rx="5.381654" width="43.000629" x="736.509649" y="642.00438"/><rect height="43.000629" rx="5.381654" width="43.000629" x="653.858939" y="586.3571"/><rect height="43.000629" rx="5.381654" width="43.000629" x="598.117479" y="586.3571"/><rect height="43.000629" rx="5.381654" width="43.000629" x="542.376029" y="586.3571"/><rect height="43.000629" rx="5.381654" width="43.000629" x="486.634569" y="586.3571"/><rect height="43.000629" rx="5.381654" width="43.000629" x="430.893549" y="586.3571"/><rect height="43.000629" rx="5.381654" width="43.000629" x="375.152979" y="586.3571"/><rect height="43.000629" rx="5.381654" width="43.000629" x="319.412409" y="586.3571"/><rect height="43.000629" rx="5.381654" width="43.000629" x="263.671839" y="586.3571"/><rect height="43.000629" rx="5.381654" width="43.000629" x="207.931269" y="586.3571"/><rect height="43.000629" rx="5.381654" width="43.000629" x="932.566209" y="586.3571"/><rect height="43.000629" rx="5.381654" width="43.000629" x="876.824759" y="586.3571"/><rect height="43.000629" rx="5.381654" width="43.000629" x="821.083299" y="586.3571"/><rect height="43.000629" rx="5.381654" width="43.000629" x="765.341849" y="586.3571"/><rect height="43.000629" rx="5.381654" width="43.000629" x="709.600389" y="586.3571"/><rect height="43.000629" rx="5.381654" width="43.000629" x="152.190689" y="586.3571"/><rect height="43.000629" rx="5.381654" width="43.000629" x="988.307489" y="586.3571"/><rect height="43.000629" rx="5.381654" width="43.000629" x="653.858939" y="503.84569"/><rect height="43.000629" rx="5.381654" width="43.000629" x="598.117479" y="503.84569"/><rect height="43.000629" rx="5.381654" width="43.000629" x="542.376029" y="503.84569"/><rect height="43.000629" rx="5.381654" width="43.000629" x="486.634569" y="503.84569"/><rect height="43.000629" rx="5.381654" width="43.000629" x="319.412409" y="503.84569"/><rect height="43.000629" rx="5.381654" width="43.000629" x="263.671839" y="503.84569"/><rect height="43.000629" rx="5.381654" width="43.000629" x="207.931269" y="503.84569"/><rect height="43.000629" rx="5.381654" width="43.000629" x="932.566209" y="503.84569"/><rect height="43.000629" rx="5.381654" width="43.000629" x="876.824759" y="503.84569"/><rect height="43.000629" rx="5.381654" width="43.000629" x="821.083299" y="503.84569"/><rect height="43.000629" rx="5.381654" width="43.000629" x="152.190689" y="503.84569"/><rect height="43.000629" rx="5.381654" width="43.000629" x="988.307489" y="503.84569"/><rect height="43.000629" rx="5.381654" width="43.000629" x="1199.740589" y="503.84569"/><rect height="43.000629" rx="5.381654" width="43.000629" x="1143.999089" y="503.84569"/><rect height="43.000629" rx="5.381654" width="43.000629" x="1088.257689" y="503.84569"/><rect height="43.000629" rx="5.381654" width="43.000629" x="1255.482089" y="503.84569"/></g></g></g></svg>