<svg height="360.5701" viewBox="0 0 667.48282 324.51309" width="741.64758" xmlns="http://www.w3.org/2000/svg"><g fill="#f4f4f4" fill-opacity=".5" stroke-width=".9" transform="translate(-36.391586 -30.55043)"><path d="m685.93375 86.044595q0 .288-.0696.4848-.1032.2928-.3312.2928-.1512 0-.3168-.0696-.1992-.084-.2184-.2064.0672 0 .1584.024.2112.0552.264.0552.204 0 .3072-.204.0816-.1632.0816-.3912 0-.1608-.1056-.4584-.1032-.3-.1032-.4176 0-.036.0192-.0576.0216-.024.0576-.024.0936 0 .1824.432.0744.3648.0744.54z"/><path d="m686.85775 86.289395q0 .2448-.1416.384-.1416.1392-.3912.1392-.1368 0-.2112-.0648-.0744-.0648-.0744-.1992 0-.1896.2472-.3816.2352-.1824.4344-.1824.0912 0 .12.1128.0168.0648.0168.192zm-.1464.0672q0-.0288-.007-.0552-.005-.0288-.0192-.0648-.0384.0264-.1272.1296-.0456.0528-.0792.0768 0-.0456.01-.0744.0192-.0408.0312-.0696-.1056 0-.2208.0888-.1128.0888-.1128.192 0 .0696.0768.0696.1464 0 .2832-.072.1656-.0864.1656-.2208z"/><path d="m687.84655 86.387795q0 .1176-.0888.264-.1008.1656-.2088.1656-.0312 0-.0528-.0336-.0192-.036-.0192-.0696 0-.0432.0912-.1344.0936-.0936.0936-.1272 0-.0216-.007-.0432-.007-.0216-.01-.0288-.18.0408-.3672.2064-.1848.1656-.2808.1872-.0192-.0528-.0192-.108 0-.0672.0312-.1416.0216-.0528.072-.1272.084-.1272.1776-.288.048-.084.1656-.2904.12-.2064.1752-.2928.0288-.0432.0504-.0648.0312-.0288.0744-.0384.0288.0096.0408.036.0144.0264.0144.0624 0 .0816-.1056.2208-.192.2496-.1968.2592-.108.1632-.108.2952l.005.024q.132-.0648.156-.0744.0984-.0408.168-.0408.0768 0 .1128.0528.036.0504.036.1296z"/><path d="m688.96015 86.246195q0 .1632-.0792.348-.0864.204-.2136.2808-.0264-.0312-.0456-.0696-.0168-.0384-.0168-.0768 0-.0408.12-.2424.0528-.0888.048-.156l-.002-.0312q-.0888.0264-.3072.1608-.216.132-.4368.2688-.0336 0-.0624-.024-.0264-.0264-.0264-.0576 0-.0504.1608-.3384.048-.0864.1728-.3.0384.0504.0504.1128.012.06.012.144 0 .036 0 .0552.2208-.132.3456-.1992.1368-.0744.1872-.0744.0336 0 .0624.0768.0312.0768.0312.1224z"/><path d="m691.04575 86.711795q0 .0432-.0384.0672-.036.0216-.0816.0216-.0408 0-.1032-.0096-.1416-.0216-.1824-.0216-.072 0-.2832.0168-.12.0096-.1728.0096-.1464 0-.1464-.1464 0-.1392.0912-.3984.0504-.1464.1896-.48.1248-.3.1584-.4224.012-.0384.0192-.0504.0192-.0288.048-.0288.0456 0 .0768.0672.0312.0648.0312.1176 0 .084-.0984.2832-.0984.1968-.192.3864-.1032.2256-.1032.3432 0 .06.0504.084.036.0168.1056.0168.0528 0 .1824-.012.1296-.0144.1728-.0144.108 0 .1776.0312.0984.0432.0984.1392z"/><path d="m691.93855 86.289395q0 .2448-.1416.384-.1416.1392-.3912.1392-.1368 0-.2112-.0648-.0744-.0648-.0744-.1992 0-.1896.2472-.3816.2352-.1824.4344-.1824.0912 0 .12.1128.0168.0648.0168.192zm-.1464.0672q0-.0288-.007-.0552-.005-.0288-.0192-.0648-.0384.0264-.1272.1296-.0456.0528-.0792.0768 0-.0456.01-.0744.0192-.0408.0312-.0696-.1056 0-.2208.0888-.1128.0888-.1128.192 0 .0696.0768.0696.1464 0 .2832-.072.1656-.0864.1656-.2208z"/><path d="m692.94895 86.238995q0 .0768-.0408.1632-.0384.0864-.0984.144l-.002-.0336q0-.0288.007-.0888.007-.06.007-.0888 0-.0408-.012-.06-.012-.0216-.0504-.0216-.1128 0-.2808.1752-.1824.192-.3624.3816-.0144 0-.0288-.0024-.036-.0096-.048-.012.007-.0864.06-.192.1416-.2856.1464-.3048.0192-.0768.0288-.1128.01-.036.0264-.0744.0192-.0408.0432-.072.0264-.0336.0672-.0504l.024.288q.1032-.084.1584-.1296.1056-.084.1824-.084.0768 0 .1248.0504.048.0504.048.1248z"/><path d="m694.12735 85.960595q0 .1008-.2688.2664-.2592.1584-.3768.1584-.0552 0-.0744-.0384-.0168-.0384-.0168-.108 0-.0456 0-.0648.1608 0 .2928-.048.132-.048.2304-.1584-.072-.0264-.1464-.0264-.1752 0-.372.1344-.216.1464-.216.312 0 .1584.216.2208.0336.0096.4056.0672.2184.0336.2184.1176 0 .036-.0792.0576-.0792.024-.2016.024-.3072 0-.4848-.0936-.2352-.1248-.2352-.4008 0-.288.288-.4584.2448-.144.5568-.144.0936 0 .1704.0432.0936.0528.0936.1392z"/><path d="m695.08255 85.530995q0 .0528-.1272.2208-.1272.168-.1272.2568 0 .0456.0528.0912.12.1056.12.1296 0 .0312-.0216.06-.0192.0288-.0504.0288-.0264 0-.0744-.0288-.0336-.0192-.1296-.0936-.036.0696-.0552.1056-.0672.1272-.0912.1848-.036.1104-.072.2208-.0624.1488-.156.1488l-.002-.0552q0-.1704.1104-.4032.0216-.0432.12-.2232-.1896-.1032-.4176-.1032 0-.0888.036-.1296.0384-.0432.1272-.0432.0816 0 .204.0288.06.0144.12.0288.0456-.0144.1248-.156.1944-.3408.264-.3912.0192.0312.0312.0624.0144.0312.0144.06z"/><path d="m695.96815 86.387795q0 .1176-.0888.264-.1008.1656-.2088.1656-.0312 0-.0528-.0336-.0192-.036-.0192-.0696 0-.0432.0912-.1344.0936-.0936.0936-.1272 0-.0216-.007-.0432-.007-.0216-.01-.0288-.18.0408-.3672.2064-.1848.1656-.2808.1872-.0192-.0528-.0192-.108 0-.0672.0312-.1416.0216-.0528.072-.1272.084-.1272.1776-.288.048-.084.1656-.2904.12-.2064.1752-.2928.0288-.0432.0504-.0648.0312-.0288.0744-.0384.0288.0096.0408.036.0144.0264.0144.0624 0 .0816-.1056.2208-.192.2496-.1968.2592-.108.1632-.108.2952l.005.024q.132-.0648.156-.0744.0984-.0408.168-.0408.0768 0 .1128.0528.036.0504.036.1296z"/><path d="m697.93856 85.605395q0 .1128-.12.3024-.0768.12-.252.3456-.1752.2232-.2184.2928.007.0024.18.0576.1752.0528.1752.192-.072.012-.1416.0216l-.0264-.0024v-.0192q-.0384-.0096-.0624-.0096-.0456 0-.144.0144-.0984.0144-.1488.0144-.0648 0-.1056-.024-.0408-.024-.0408-.0864 0-.0504.1848-.2856.3456-.4392.348-.444.1872-.2544.1872-.3408 0-.0336-.024-.0504-.0216-.0168-.0888-.0168-.0456 0-.1896.0888-.0696.0432-.1128.0432l-.0408-.0072q-.0144-.0096-.0312-.036-.0168-.0288-.0168-.0456 0-.1008.1944-.1848.1656-.072.288-.072.1032 0 .1584.0768.048.0672.048.1752z"/><path d="m699.38096 86.037395q0 .2904-.3144.5136-.288.204-.5928.204-.1512 0-.24-.0768-.0888-.0768-.0888-.2232 0-.3264.2856-.5664.2712-.228.6072-.228.1704 0 .2568.1008.0864.1008.0864.276zm-.1464.0552q0-.1104-.1248-.1656-.0936-.0408-.2232-.0408-.1896 0-.396.1848-.2064.1848-.2064.372 0 .0768.0384.1104.0408.0312.1224.0312.2352 0 .4896-.1296.3-.1536.3-.3624z"/><path d="m700.48016 85.605395q0 .1128-.12.3024-.0768.12-.252.3456-.1752.2232-.2184.2928.007.0024.18.0576.1752.0528.1752.192-.072.012-.1416.0216l-.0264-.0024v-.0192q-.0384-.0096-.0624-.0096-.0456 0-.144.0144-.0984.0144-.1488.0144-.0648 0-.1056-.024-.0408-.024-.0408-.0864 0-.0504.1848-.2856.3456-.4392.348-.444.1872-.2544.1872-.3408 0-.0336-.024-.0504-.0216-.0168-.0888-.0168-.0456 0-.1896.0888-.0696.0432-.1128.0432l-.0408-.0072q-.0144-.0096-.0312-.036-.0168-.0288-.0168-.0456 0-.1008.1944-.1848.1656-.072.288-.072.1032 0 .1584.0768.048.0672.048.1752z"/><path d="m701.58416 85.605395q0 .1128-.12.3024-.0768.12-.252.3456-.1752.2232-.2184.2928.007.0024.18.0576.1752.0528.1752.192-.072.012-.1416.0216l-.0264-.0024v-.0192q-.0384-.0096-.0624-.0096-.0456 0-.144.0144-.0984.0144-.1488.0144-.0648 0-.1056-.024-.0408-.024-.0408-.0864 0-.0504.1848-.2856.3456-.4392.348-.444.1872-.2544.1872-.3408 0-.0336-.024-.0504-.0216-.0168-.0888-.0168-.0456 0-.1896.0888-.0696.0432-.1128.0432l-.0408-.0072q-.0144-.0096-.0312-.036-.0168-.0288-.0168-.0456 0-.1008.1944-.1848.1656-.072.288-.072.1032 0 .1584.0768.048.0672.048.1752z"/></g><g transform="translate(-36.391586 -30.55043)"><g fill="none" stroke="#f4f4f4"><rect height="322.51309" rx="15.852322" ry="15.852323" stroke-width="1.8" width="665.48285" x="37.391586" y="31.55043"/><rect height="188.31354" rx="4.453005" ry="4.453004" stroke-width=".9" width="640.914" x="48.980789" y="139.99364"/><g stroke-width=".45"><path d="m37.873894 87.34985h664.877226"/><path d="m37.325498 80.16485h665.625202"/><path d="m702.92945 73.31659h-63.30947m-34.26225 0h-352.72935m-172.616745 0h-42.346242"/><path d="m37.888056 66.87118h39.319032m178.007752 0h347.97183m39.11844 0h60.80295"/><path d="m702.64621 60.02293h-64.80651m-30.92626 0h-355.55576m-171.060639 0h-43.029766"/><path d="m38.020237 53.98035h664.123213"/></g><path d="m608.42689 59.911199h28.37178c3.06993 0 5.54139 2.775448 5.54139 6.222978v1.873168c0 3.447529-2.47146 6.222978-5.54139 6.222978h-28.37178c-3.06993 0-5.54139-2.775449-5.54139-6.222978v-1.873168c0-3.44753 2.47146-6.222978 5.54139-6.222978z" stroke-width=".9"/></g><circle cx="634.69946" cy="66.959351" fill="#f4f4f4" r="3"/><rect fill="none" height="15.676079" rx="7.838039" stroke="#f4f4f4" stroke-width=".9" width="178.24342" x="76.932701" y="59.083496"/></g><g fill="none" stroke="#f4f4f4" transform="translate(-30.391586 -29.396566)"><rect height="27" rx="4.453" stroke-width="1.8" width="274.7821" x="148.97644" y="284.56494"/><g stroke-width="1.40745" transform="matrix(1.6355958 0 0 1 -351.57687 -96)"><rect height="27" rx="2.722555" ry="4.453" width="27" x="587.75854" y="252.56496"/><rect height="27" rx="2.722555" ry="4.453" width="27" x="587.75854" y="284.56494"/><rect height="27" rx="2.722555" ry="4.453" width="27" x="587.75854" y="316.56494"/><rect height="27" rx="2.722555" ry="4.453" width="27" x="587.75854" y="348.56494"/></g><g stroke-width="1.8"><g><rect height="27" rx="4.453" width="27" x="391.75858" y="252.56496"/><rect height="27" rx="4.453" width="27" x="359.75858" y="252.56496"/><rect height="27" rx="4.453" width="27" x="327.75858" y="252.56496"/><rect height="27" rx="4.453" width="27" x="295.75858" y="252.56496"/><rect height="27" rx="4.453" width="27" x="263.75858" y="252.56496"/><rect height="27" rx="4.453" width="27" x="231.75858" y="252.56496"/><rect height="27" rx="4.453" width="27" x="199.75858" y="252.56496"/><rect height="27" rx="4.453" width="27" x="167.75858" y="252.56496"/><rect height="27" rx="4.453" width="27" x="135.75858" y="252.56496"/><rect height="27" rx="4.453" width="45" x="85.758591" y="252.56496"/><rect height="27" rx="4.453" width="27" x="53.758583" y="252.56496"/><rect height="27" rx="4.453" width="27" x="501.75858" y="252.56496"/><rect height="27" rx="4.453" width="41.000004" x="455.75858" y="252.56496"/><rect height="27" rx="4.453" width="27" x="423.75858" y="252.56496"/><rect height="27" rx="4.453" width="27" x="533.75854" y="252.56496"/></g><g><rect height="27" rx="4.453" width="27" x="405.75858" y="220.56496"/><rect height="27" rx="4.453" width="27" x="373.75858" y="220.56496"/><rect height="27" rx="4.453" width="27" x="341.75858" y="220.56496"/><rect height="27" rx="4.453" width="27" x="309.75858" y="220.56496"/><rect height="27" rx="4.453" width="27" x="277.75858" y="220.56496"/><rect height="27" rx="4.453" width="27" x="245.75858" y="220.56496"/><rect height="27" rx="4.453" width="27" x="213.75858" y="220.56496"/><rect height="27" rx="4.453" width="27" x="181.75858" y="220.56496"/><rect height="27" rx="4.453" width="27" x="149.75858" y="220.56496"/><rect height="27" rx="4.453" width="27" x="117.75858" y="220.56496"/><rect height="27" rx="4.453" width="27" x="85.758583" y="220.56496"/><rect height="27" rx="4.453" width="59.000031" x="501.75854" y="220.56496"/><rect height="27" rx="4.453" width="27" x="469.75858" y="220.56496"/><rect height="27" rx="4.453" width="27" x="437.75858" y="220.56496"/><rect height="27" rx="4.453" width="27" x="53.758583" y="220.56496"/></g><g><rect height="27" rx="4.453" width="27" x="399.75858" y="188.56496"/><rect height="27" rx="4.453" width="27" x="367.75858" y="188.56496"/><rect height="27" rx="4.453" width="27" x="335.75858" y="188.56496"/><rect height="27" rx="4.453" width="27" x="303.75858" y="188.56496"/><rect height="27" rx="4.453" width="27" x="271.75858" y="188.56496"/><rect height="27" rx="4.453" width="27" x="239.75858" y="188.56496"/><rect height="27" rx="4.453" width="27" x="207.75858" y="188.56496"/><rect height="27" rx="4.453" width="27" x="175.75858" y="188.56496"/><rect height="27" rx="4.453" width="27" x="143.75858" y="188.56496"/><rect height="27" rx="4.453" width="27" x="111.75858" y="188.56496"/><rect height="27" rx="4.453" width="27" x="463.75858" y="188.56496"/><rect height="27" rx="4.453" width="27" x="431.75858" y="188.56496"/><rect height="27" rx="4.453" width="40.999992" x="527.75854" y="188.56496"/><rect height="27" rx="4.453" width="27" x="495.75858" y="188.56496"/><rect height="27" rx="4.453001" ry="4.453" width="45" x="61.758583" y="188.56496"/></g><g><rect height="27" rx="4.453" width="27" x="413.75858" y="156.56496"/><rect height="27" rx="4.453" width="27" x="381.75858" y="156.56496"/><rect height="27" rx="4.453" width="27" x="349.75858" y="156.56496"/><rect height="27" rx="4.453" width="27" x="317.75858" y="156.56496"/><rect height="27" rx="4.453" width="27" x="285.75858" y="156.56496"/><rect height="27" rx="4.453" width="27" x="253.75858" y="156.56496"/><rect height="27" rx="4.453" width="27" x="221.75858" y="156.56496"/><rect height="27" rx="4.453" width="27" x="189.75858" y="156.56496"/><rect height="27" rx="4.453" width="27" x="157.75858" y="156.56496"/><rect height="27" rx="4.453" width="27" x="125.75858" y="156.56496"/><rect height="27" rx="4.453" width="27" x="477.75858" y="156.56496"/><rect height="27" rx="4.453" width="27" x="445.75858" y="156.56496"/><rect height="27" rx="4.453" width="27" x="541.75854" y="156.56496"/><rect height="27" rx="4.453" width="27" x="509.75858" y="156.56496"/><rect height="27" rx="4.453" width="27" x="93.758583" y="156.56496"/><rect height="27" rx="4.453" width="27" x="61.758583" y="156.56496"/></g></g></g></svg>