<svg height="348.94168" viewBox="0 0 1208.8529 697.88336" width="604.42645" xmlns="http://www.w3.org/2000/svg"><g fill="#f4f4f4" fill-opacity=".5" stroke-width="2"><path d="m815.45651 594.23282q0 .64-.15466 1.07734-.22934.65066-.736.65066-.336 0-.70401-.15466-.44266-.18667-.48533-.45867.14933 0 .352.0533.46934.12267.58667.12267.45333 0 .68267-.45333.18133-.36267.18133-.86934 0-.35733-.23467-1.01867-.22933-.66666-.22933-.928 0-.08.0427-.128.048-.0533.128-.0533.208 0 .40533.96.16533.81067.16533 1.2z"/><path d="m817.50985 594.77682q0 .544-.31466.85334-.31467.30933-.86934.30933-.304 0-.46933-.144-.16534-.144-.16534-.44267 0-.42133.54934-.848.52267-.40533.96533-.40533.20267 0 .26667.25067.0373.144.0373.42666zm-.32533.14934q0-.064-.016-.12267-.0107-.064-.0427-.144-.0853.0587-.28266.288-.10134.11733-.176.17067 0-.10134.0213-.16534.0427-.0907.0693-.15466-.23467 0-.49067.19733-.25066.19733-.25066.42667 0 .15466.17066.15466.32534 0 .62934-.16.368-.192.368-.49066z"/><path d="m819.70719 594.99549q0 .26133-.19733.58667-.22401.368-.46401.368-.0693 0-.11733-.0747-.0427-.08-.0427-.15467 0-.096.20267-.29866.208-.208.208-.28267 0-.048-.016-.096-.016-.048-.0213-.064-.4.0907-.816.45867-.41067.368-.624.416-.0427-.11734-.0427-.24 0-.14934.0693-.31467.048-.11733.16-.28267.18667-.28266.39467-.64.10667-.18666.368-.64533.26667-.45867.38933-.65067.064-.096.112-.144.0693-.064.16534-.0853.064.0213.0907.08.032.0587.032.13866 0 .18134-.23467.49067-.42667.55467-.43734.576-.24.36267-.24.656l.0107.0533q.29333-.144.34667-.16534.21866-.0907.37333-.0907.17067 0 .25067.11733.08.112.08.288z"/><path d="m822.18186 594.68082q0 .36267-.176.77334-.192.45333-.47466.624-.0587-.0693-.10134-.15467-.0373-.0853-.0373-.17067 0-.0907.26667-.53866.11733-.19734.10666-.34667l-.005-.0693q-.19733.0587-.68267.35733-.48.29333-.97067.59733-.0747 0-.13866-.0533-.0587-.0587-.0587-.128 0-.112.35733-.752.10667-.192.38401-.66667.0853.112.112.25067.0267.13333.0267.32 0 .08 0 .12267.49067-.29334.768-.44267.304-.16533.416-.16533.0747 0 .13867.17066.0693.17067.0693.272z"/><path d="m826.81653 595.71549q0 .096-.0853.14933-.08.048-.18133.048-.0907 0-.22934-.0213-.31466-.048-.40533-.048-.16 0-.62934.0373-.26666.0213-.384.0213-.32533 0-.32533-.32534 0-.30933.20267-.88533.112-.32533.42133-1.06667.27733-.66667.352-.93867.0267-.0853.0427-.112.0427-.064.10666-.064.10134 0 .17067.14934.0693.144.0693.26133 0 .18667-.21867.62933-.21867.43734-.42667.85867-.22933.50134-.22933.76267 0 .13333.112.18667.08.0373.23466.0373.11734 0 .40534-.0267.288-.032.384-.032.24 0 .39467.0693.21866.096.21866.30933z"/><path d="m828.80054 594.77682q0 .544-.31467.85334-.31467.30933-.86933.30933-.304 0-.46934-.144-.16533-.144-.16533-.44267 0-.42133.54933-.848.52267-.40533.96534-.40533.20266 0 .26666.25067.0373.144.0373.42666zm-.32534.14934q0-.064-.016-.12267-.0107-.064-.0427-.144-.0853.0587-.28267.288-.10133.11733-.176.17067 0-.10134.0213-.16534.0427-.0907.0693-.15466-.23467 0-.49067.19733-.25067.19733-.25067.42667 0 .15466.17067.15466.32533 0 .62933-.16.368-.192.368-.49066z"/><path d="m831.04587 594.66482q0 .17067-.0907.36267-.0853.192-.21867.32l-.005-.0747q0-.064.016-.19733.016-.13333.016-.19733 0-.0907-.0267-.13334-.0267-.048-.112-.048-.25067 0-.624.38934-.40534.42666-.80534.848-.032 0-.064-.005-.08-.0213-.10666-.0267.016-.192.13333-.42667.31467-.63467.32533-.67733.0427-.17067.064-.25067.0213-.08.0587-.16533.0427-.0907.096-.16.0587-.0747.14934-.112l.0533.64q.22933-.18667.352-.288.23467-.18667.40533-.18667.17067 0 .27734.112.10666.112.10666.27733z"/><path d="m833.66455 594.04616q0 .224-.59734.592-.576.352-.83733.352-.12267 0-.16533-.0853-.0373-.0853-.0373-.24 0-.10133 0-.144.35734 0 .65067-.10666.29333-.10667.512-.352-.16-.0587-.32533-.0587-.38934 0-.82667.29867-.48.32533-.48.69333 0 .352.48.49067.0747.0213.90133.14933.48534.0747.48534.26133 0 .08-.176.128-.176.0533-.448.0533-.68267 0-1.07734-.208-.52267-.27734-.52267-.89067 0-.64.64001-1.01867.544-.32 1.23733-.32.208 0 .37867.096.208.11733.208.30934z"/><path d="m835.78722 593.09149q0 .11733-.28267.49066-.28266.37334-.28266.57067 0 .10134.11733.20267.26667.23467.26667.288 0 .0693-.048.13333-.0427.064-.112.064-.0587 0-.16534-.064-.0747-.0427-.288-.208-.08.15467-.12266.23467-.14934.28267-.20267.41067-.08.24533-.16.49066-.13867.33067-.34667.33067l-.005-.12267q0-.37866.24533-.896.048-.096.26667-.496-.42134-.22933-.928-.22933 0-.19733.08-.288.0853-.096.28266-.096.18134 0 .45334.064.13333.032.26667.064.10133-.032.27733-.34667.432-.75733.58667-.86933.0427.0693.0693.13866.032.0693.032.13334z"/><path d="m837.75523 594.99549q0 .26133-.19734.58667-.224.368-.464.368-.0693 0-.11733-.0747-.0427-.08-.0427-.15467 0-.096.20267-.29866.208-.208.208-.28267 0-.048-.016-.096-.016-.048-.0213-.064-.4.0907-.816.45867-.41067.368-.62401.416-.0427-.11734-.0427-.24 0-.14934.0693-.31467.048-.11733.16-.28267.18667-.28266.39467-.64.10667-.18666.368-.64533.26667-.45867.38933-.65067.064-.096.112-.144.0693-.064.16534-.0853.064.0213.0907.08.032.0587.032.13866 0 .18134-.23466.49067-.42667.55467-.43734.576-.24.36267-.24.656l.0107.0533q.29333-.144.34667-.16534.21866-.0907.37333-.0907.17067 0 .25067.11733.08.112.08.288z"/><path d="m842.1339 593.25682q0 .25067-.26666.672-.17067.26667-.56.768-.38934.496-.48534.65067.016.005.4.128.38934.11733.38934.42667-.16.0267-.31467.048l-.0587-.005v-.0427q-.0853-.0213-.13866-.0213-.10134 0-.32.032-.21867.032-.33067.032-.144 0-.23467-.0533-.0907-.0533-.0907-.192 0-.112.41066-.63467.768-.976.77334-.98666.416-.56534.416-.75734 0-.0747-.0533-.112-.048-.0373-.19733-.0373-.10133 0-.42133.19733-.15467.096-.25067.096l-.0907-.016q-.032-.0213-.0693-.08-.0373-.064-.0373-.10133 0-.224.432-.41067.368-.16.64-.16.22933 0 .352.17067.10666.14933.10666.38933z"/><path d="m845.33924 594.21682q0 .64534-.69867 1.14134-.64.45333-1.31733.45333-.336 0-.53334-.17067-.19733-.17066-.19733-.496 0-.72533.63467-1.25867.60266-.50666 1.34933-.50666.37867 0 .57067.224.192.224.192.61333zm-.32534.12267q0-.24533-.27733-.368-.208-.0907-.496-.0907-.42133 0-.88.41067-.45867.41067-.45867.82667 0 .17066.0853.24533.0907.0693.272.0693.52266 0 1.088-.288.66666-.34133.66666-.80533z"/><path d="m847.78191 593.25682q0 .25067-.26666.672-.17067.26667-.56.768-.38934.496-.48534.65067.016.005.4.128.38934.11733.38934.42667-.16.0267-.31467.048l-.0587-.005v-.0427q-.0853-.0213-.13866-.0213-.10134 0-.32001.032-.21866.032-.33066.032-.144 0-.23467-.0533-.0907-.0533-.0907-.192 0-.112.41067-.63467.768-.976.77334-.98666.416-.56534.416-.75734 0-.0747-.0533-.112-.048-.0373-.19733-.0373-.10133 0-.42133.19733-.15467.096-.25067.096l-.0907-.016q-.032-.0213-.0693-.08-.0373-.064-.0373-.10133 0-.224.432-.41067.36801-.16.64001-.16.22933 0 .352.17067.10666.14933.10666.38933z"/><path d="m850.23524 593.25682q0 .25067-.26666.672-.17067.26667-.56.768-.38934.496-.48534.65067.016.005.4.128.38934.11733.38934.42667-.16.0267-.31467.048l-.0587-.005v-.0427q-.0853-.0213-.13866-.0213-.10134 0-.32.032-.21867.032-.33067.032-.144 0-.23467-.0533-.0907-.0533-.0907-.192 0-.112.41067-.63467.768-.976.77334-.98666.416-.56534.416-.75734 0-.0747-.0533-.112-.048-.0373-.19733-.0373-.10133 0-.42133.19733-.15467.096-.25067.096l-.0907-.016q-.032-.0213-.0693-.08-.0373-.064-.0373-.10133 0-.224.432-.41067.368-.16.64-.16.22933 0 .352.17067.10666.14933.10666.38933z"/></g><g fill="none" stroke="#f4f4f4"><g stroke-width="4"><rect height="55.562" rx="5.0124" width="514.00745" x="341.091988" y="598.485787"/><g><rect height="56.007545" ry="5.0124" width="56.007549" x="667.092018" y="531.973027"/><rect height="56.007545" ry="5.0124" width="56.007549" x="733.092018" y="531.973027"/><rect height="56.007545" ry="5.0124" width="56.007549" x="799.092018" y="531.973027"/><rect height="56.007545" ry="5.0124" width="56.007549" x="865.092018" y="531.973027"/><rect height="56.007545" ry="5.0124" width="56.007549" x="603.092018" y="531.973027"/><rect height="56.007545" ry="5.0124" width="56.007549" x="537.092018" y="531.973027"/><rect height="56.007545" ry="5.0124" width="56.007549" x="471.092018" y="531.973027"/><rect height="56.007545" ry="5.0124" width="56.007549" x="405.092018" y="531.973027"/><rect height="56.007545" ry="5.0124" width="56.007999" x="341.092018" y="531.973027"/><rect height="56.007545" ry="5.0124" width="56.007549" x="275.092018" y="531.973027"/><rect height="55.561543" ry="4.972485" width="84.561531" x="181.315008" y="532.196057"/><rect height="55.561543" ry="4.972485" width="84.561531" x="87.538348" y="532.419077"/><rect height="55.561543" ry="4.972485" width="84.561531" x="1024.094908" y="532.196057"/><rect height="55.561543" ry="4.972485" width="84.561531" x="930.318338" y="532.419077"/></g><g><rect height="56.007545" ry="5.0124" width="56.007549" x="699.092018" y="465.973027"/><rect height="56.007545" ry="5.0124" width="56.007549" x="765.092018" y="465.973027"/><rect height="56.007545" ry="5.0124" width="56.007549" x="831.092018" y="465.973027"/><rect height="56.007545" ry="5.0124" width="56.007549" x="897.092018" y="465.973027"/><rect height="56.007545" ry="5.0124" width="56.007549" x="635.092018" y="465.973027"/><rect height="56.007545" ry="5.0124" width="56.007549" x="569.092018" y="465.973027"/><rect height="56.007545" ry="5.0124" width="56.007549" x="503.092018" y="465.973027"/><rect height="56.007545" ry="5.0124" width="56.007549" x="437.092018" y="465.973027"/><rect height="56.007545" ry="5.0124" width="56.007549" x="373.092018" y="465.973027"/><rect height="56.007545" ry="5.0124" width="56.007549" x="307.092018" y="465.973027"/><rect height="56.007545" ry="5.0124" width="56.007549" x="241.092018" y="465.973027"/><rect height="56.007545" ry="5.0124" width="56.007549" x="177.092018" y="465.973027"/><rect height="56.007545" ry="5.0124" width="56.007549" x="111.092018" y="465.973027"/><rect height="56.007545" ry="5.0124" width="56.007549" x="963.092018" y="465.973027"/><rect height="56.007545" ry="5.0124" width="56.007549" x="1029.092108" y="465.973027"/></g><g><rect height="55.561543" ry="4.972485" width="84.561531" x="127.538348" y="400.419077"/><rect height="56.007545" ry="5.0124" width="56.007549" x="681.092018" y="399.973027"/><rect height="56.007545" ry="5.0124" width="56.007549" x="747.092018" y="399.973027"/><rect height="56.007545" ry="5.0124" width="56.007549" x="813.092018" y="399.973027"/><rect height="56.007545" ry="5.0124" width="56.007549" x="879.092018" y="399.973027"/><rect height="56.007545" ry="5.0124" width="56.007549" x="617.092018" y="399.973027"/><rect height="56.007545" ry="5.0124" width="56.007549" x="551.092018" y="399.973027"/><rect height="56.007545" ry="5.0124" width="56.007549" x="485.092018" y="399.973027"/><rect height="56.007545" ry="5.0124" width="56.007549" x="419.092018" y="399.973027"/><rect height="56.007545" ry="5.0124" width="56.007549" x="355.092018" y="399.973027"/><rect height="56.007545" ry="5.0124" width="56.007549" x="289.092018" y="399.973027"/><rect height="56.007545" ry="5.0124" width="56.007549" x="223.092018" y="399.973027"/><rect height="56.007545" ry="5.0124" width="56.007549" x="945.092018" y="399.973027"/><rect height="56.007545" ry="5.0124" width="56.007549" x="1011.092108" y="399.973027"/></g><g><rect height="55.561543" ry="4.972485" width="84.561531" x="980.094888" y="334.196057"/><rect height="56.007545" ry="5.0124" width="56.007549" x="715.092018" y="333.973027"/><rect height="56.007545" ry="5.0124" width="56.007549" x="781.092018" y="333.973027"/><rect height="56.007545" ry="5.0124" width="56.007549" x="847.092018" y="333.973027"/><rect height="56.007545" ry="5.0124" width="56.007549" x="913.092018" y="333.973027"/><rect height="56.007545" ry="5.0124" width="56.007549" x="651.092018" y="333.973027"/><rect height="56.007545" ry="5.0124" width="56.007549" x="585.092018" y="333.973027"/><rect height="56.007545" ry="5.0124" width="56.007549" x="519.092018" y="333.973027"/><rect height="56.007545" ry="5.0124" width="56.007549" x="453.092018" y="333.973027"/><rect height="56.007545" ry="5.0124" width="56.007549" x="389.092018" y="333.973027"/><rect height="56.007545" ry="5.0124" width="56.007549" x="323.092018" y="333.973027"/><rect height="56.007545" ry="5.0124" width="56.007549" x="257.092018" y="333.973027"/><rect height="56.007545" ry="5.0124" width="56.007549" x="193.092018" y="333.973027"/><rect height="56.007545" ry="5.0124" width="56.007549" x="127.092018" y="333.973027"/></g></g><g transform="translate(-48.075892 -65.488273)"><path d="m1235.5218 68.057852c7.3895.162506 12.0706 6.293145 12.2893 13.616917l8.1168 269.438151-23.8286 396.19391c-.5274 10.17649-7.6201 13.95228-12.1035 13.77156l-567.79347 1.29386-567.793408-1.29386c-4.483399.18072-11.576099-3.59507-12.103499-13.77156l-23.828599-396.19391 8.116799-269.438151c.2187-7.323772 4.8998-13.454411 12.2893-13.616917l583.319407-1.569577z" stroke-width="4"/><g stroke-width="2"><rect height="104.15467" ry="1.201261" width="10.393495" x="680.54608" y="74.928268"/><rect height="104.15467" ry="1.201261" width="10.393495" x="658.54608" y="74.928268"/><rect height="104.15467" ry="1.201261" width="10.393495" x="636.54608" y="74.928268"/><rect height="104.15467" ry="1.201261" width="10.393495" x="614.54608" y="74.928268"/><rect height="104.15467" ry="1.201261" width="10.393495" x="592.54608" y="74.928268"/><rect height="104.15467" ry="1.201261" width="10.393495" x="570.54608" y="74.928268"/><rect height="104.15467" ry="1.201261" width="10.393495" x="548.54608" y="74.928268"/><rect height="104.15467" ry="1.201261" width="10.393495" x="526.54608" y="74.928268"/><rect height="104.15467" ry="1.201261" width="10.393495" x="504.54608" y="74.928268"/><rect height="104.15467" ry="1.201261" width="10.393495" x="482.54608" y="74.928268"/><rect height="104.15467" ry="1.201261" width="10.393495" x="460.54608" y="74.928268"/><rect height="104.15467" ry="1.201261" width="10.393495" x="438.54608" y="74.928268"/><rect height="104.15467" ry="1.201261" width="10.393495" x="416.54608" y="74.928268"/><rect height="104.15467" ry="1.201261" width="10.393495" x="394.54608" y="74.928268"/><rect height="104.15467" ry="1.201261" width="10.393495" x="372.54608" y="74.928268"/><rect height="104.15467" ry="1.201261" width="10.393495" x="350.54608" y="74.928268"/><rect height="104.15467" ry="1.201261" width="10.393495" x="328.54608" y="74.928268"/><rect height="104.15467" ry="1.201261" width="10.393495" x="306.54608" y="74.928268"/><rect height="104.15467" ry="1.201261" width="10.393495" x="284.54608" y="74.928268"/><rect height="104.15467" ry="1.201261" width="10.393495" x="262.54608" y="74.928268"/><rect height="104.15467" ry="1.201261" width="10.393495" x="240.5461" y="74.928268"/><rect height="104.15467" ry="1.201261" width="10.393495" x="218.5461" y="74.928268"/><rect height="104.15467" ry="1.201261" width="10.393495" x="196.5461" y="74.928268"/><rect height="104.15467" ry="1.201261" width="10.393495" x="174.5461" y="74.928268"/><rect height="104.15467" ry="1.201261" width="10.393495" x="152.5461" y="74.928268"/><rect height="104.15467" ry="1.201261" width="10.393495" x="130.5461" y="74.928268"/><rect height="104.15467" ry="1.201261" width="10.393495" x="108.54609" y="74.928268"/><rect height="104.15467" ry="1.201261" width="10.393495" x="86.546089" y="74.928268"/><rect height="104.15467" ry="1.201261" width="10.393495" x="1208.546" y="74.928268"/><rect height="104.15467" ry="1.201261" width="10.393495" x="1186.546" y="74.928268"/><rect height="104.15467" ry="1.201261" width="10.393495" x="1164.546" y="74.928268"/><rect height="104.15467" ry="1.201261" width="10.393495" x="1142.546" y="74.928268"/><rect height="104.15467" ry="1.201261" width="10.393495" x="1120.546" y="74.928268"/><rect height="104.15467" ry="1.201261" width="10.393495" x="1098.546" y="74.928268"/><rect height="104.15467" ry="1.201261" width="10.393495" x="1076.546" y="74.928268"/><rect height="104.15467" ry="1.201261" width="10.393495" x="1054.546" y="74.928268"/><rect height="104.15467" ry="1.201261" width="10.393495" x="1032.546" y="74.928268"/><rect height="104.15467" ry="1.201261" width="10.393495" x="1010.5461" y="74.928268"/><rect height="104.15467" ry="1.201261" width="10.393495" x="988.54608" y="74.928268"/><rect height="104.15467" ry="1.201261" width="10.393495" x="966.54608" y="74.928268"/><rect height="104.15467" ry="1.201261" width="10.393495" x="944.54608" y="74.928268"/><rect height="104.15467" ry="1.201261" width="10.393495" x="922.54608" y="74.928268"/><rect height="104.15467" ry="1.201261" width="10.393495" x="900.54608" y="74.928268"/><rect height="104.15467" ry="1.201261" width="10.393495" x="878.54608" y="74.928268"/><rect height="104.15467" ry="1.201261" width="10.393495" x="856.54608" y="74.928268"/><rect height="104.15467" ry="1.201261" width="10.393495" x="834.54608" y="74.928268"/><rect height="104.15467" ry="1.201261" width="10.393495" x="812.54608" y="74.928268"/><rect height="104.15467" ry="1.201261" width="10.393495" x="790.54608" y="74.928268"/><rect height="104.15467" ry="1.201261" width="10.393495" x="768.54608" y="74.928268"/><rect height="104.15467" ry="1.201261" width="10.393495" x="746.54608" y="74.928268"/><rect height="104.15467" ry="1.201261" width="10.393495" x="724.54608" y="74.928268"/><rect height="104.15467" ry="1.201261" width="10.393495" x="702.54608" y="74.928268"/></g><path d="m84.833687 204.7524h189.88525v72.42849h-189.88525z" stroke-width="2"/><path d="m48.476797 351.11266h1207.451103"/></g></g></svg>