<svg height="379.69666" viewBox="0 0 174.30438 379.69666" width="174.30438" xmlns="http://www.w3.org/2000/svg"><g transform="translate(-21.238055 -19.602333)"><g fill="#f4f4f4" fill-opacity=".5"><path d="m114.08014 362.54568q0 .24-.058.404-.086.244-.276.244-.126 0-.264-.058-.166-.07-.182-.172.056 0 .132.02.176.046.22.046.17 0 .256-.17.068-.136.068-.326 0-.134-.088-.382-.086-.25-.086-.348 0-.03.016-.048.018-.02.048-.02.078 0 .152.36.062.304.062.45z"/><path d="m114.85014 362.74968q0 .204-.118.32-.118.116-.326.116-.114 0-.176-.054-.062-.054-.062-.166 0-.158.206-.318.196-.152.362-.152.076 0 .1.094.014.054.014.16zm-.122.056q0-.024-.006-.046-.004-.024-.016-.054-.032.022-.106.108-.038.044-.066.064 0-.038.008-.062.016-.034.026-.058-.088 0-.184.074-.094.074-.094.16 0 .058.064.058.122 0 .236-.06.138-.072.138-.184z"/><path d="m115.67414 362.83168q0 .098-.074.22-.084.138-.174.138-.026 0-.044-.028-.016-.03-.016-.058 0-.036.076-.112.078-.078.078-.106 0-.018-.006-.036-.006-.018-.008-.024-.15.034-.306.172-.154.138-.234.156-.016-.044-.016-.09 0-.056.026-.118.018-.044.06-.106.07-.106.148-.24.04-.07.138-.242.1-.172.146-.244.024-.036.042-.054.026-.024.062-.032.024.008.034.03.012.022.012.052 0 .068-.088.184-.16.208-.164.216-.09.136-.09.246l.004.02q.11-.054.13-.062.082-.034.14-.034.064 0 .094.044.03.042.03.108z"/><path d="m116.60215 362.71368q0 .136-.066.29-.072.17-.178.234-.022-.026-.038-.058-.014-.032-.014-.064 0-.034.1-.202.044-.074.04-.13l-.002-.026q-.074.022-.256.134-.18.11-.364.224-.028 0-.052-.02-.022-.022-.022-.048 0-.042.134-.282.04-.072.144-.25.032.042.042.094.01.05.01.12 0 .03 0 .046.184-.11.288-.166.114-.062.156-.062.028 0 .052.064.026.064.026.102z"/><path d="m118.34014 363.10168q0 .036-.032.056-.03.018-.068.018-.034 0-.086-.008-.118-.018-.152-.018-.06 0-.236.014-.1.008-.144.008-.122 0-.122-.122 0-.116.076-.332.042-.122.158-.4.104-.25.132-.352.01-.032.016-.042.016-.024.04-.024.038 0 .064.056.026.054.026.098 0 .07-.082.236-.082.164-.16.322-.086.188-.086.286 0 .05.042.07.03.014.088.014.044 0 .152-.01.108-.012.144-.012.09 0 .148.026.082.036.082.116z"/><path d="m119.08414 362.74968q0 .204-.118.32-.118.116-.326.116-.114 0-.176-.054-.062-.054-.062-.166 0-.158.206-.318.196-.152.362-.152.076 0 .1.094.014.054.014.16zm-.122.056q0-.024-.006-.046-.004-.024-.016-.054-.032.022-.106.108-.038.044-.066.064 0-.038.008-.062.016-.034.026-.058-.088 0-.184.074-.094.074-.094.16 0 .058.064.058.122 0 .236-.06.138-.072.138-.184z"/><path d="m119.92614 362.70768q0 .064-.034.136-.032.072-.082.12l-.002-.028q0-.024.006-.074.006-.05.006-.074 0-.034-.01-.05-.01-.018-.042-.018-.094 0-.234.146-.152.16-.302.318-.012 0-.024-.002-.03-.008-.04-.01.006-.072.05-.16.118-.238.122-.254.016-.064.024-.094.008-.03.022-.062.016-.034.036-.06.022-.028.056-.042l.02.24q.086-.07.132-.108.088-.07.152-.07.064 0 .104.042.04.042.04.104z"/><path d="m120.90815 362.47568q0 .084-.224.222-.216.132-.314.132-.046 0-.062-.032-.014-.032-.014-.09 0-.038 0-.054.134 0 .244-.04.11-.04.192-.132-.06-.022-.122-.022-.146 0-.31.112-.18.122-.18.26 0 .132.18.184.028.008.338.056.182.028.182.098 0 .03-.066.048-.066.02-.168.02-.256 0-.404-.078-.196-.104-.196-.334 0-.24.24-.382.204-.12.464-.12.078 0 .142.036.078.044.078.116z"/><path d="m121.70415 362.11768q0 .044-.106.184-.106.14-.106.214 0 .038.044.076.1.088.1.108 0 .026-.018.05-.016.024-.042.024-.022 0-.062-.024-.028-.016-.108-.078-.03.058-.046.088-.056.106-.076.154-.03.092-.06.184-.052.124-.13.124l-.002-.046q0-.142.092-.336.018-.036.1-.186-.158-.086-.348-.086 0-.074.03-.108.032-.036.106-.036.068 0 .17.024.05.012.1.024.038-.012.104-.13.162-.284.22-.326.016.026.026.052.012.026.012.05z"/><path d="m122.44215 362.83168q0 .098-.074.22-.084.138-.174.138-.026 0-.044-.028-.016-.03-.016-.058 0-.036.076-.112.078-.078.078-.106 0-.018-.006-.036-.006-.018-.008-.024-.15.034-.306.172-.154.138-.234.156-.016-.044-.016-.09 0-.056.026-.118.018-.044.06-.106.07-.106.148-.24.04-.07.138-.242.1-.172.146-.244.024-.036.042-.054.026-.024.062-.032.024.008.034.03.012.022.012.052 0 .068-.088.184-.16.208-.164.216-.09.136-.09.246l.004.02q.11-.054.13-.062.082-.034.14-.034.064 0 .094.044.03.042.03.108z"/><path d="m124.08415 362.17968q0 .094-.1.252-.064.1-.21.288-.146.186-.182.244.006.002.15.048.146.044.146.16-.06.01-.118.018l-.022-.002v-.016q-.032-.008-.052-.008-.038 0-.12.012-.082.012-.124.012-.054 0-.088-.02-.034-.02-.034-.072 0-.042.154-.238.288-.366.29-.37.156-.212.156-.284 0-.028-.02-.042-.018-.014-.074-.014-.038 0-.158.074-.058.036-.094.036l-.034-.006q-.012-.008-.026-.03-.014-.024-.014-.038 0-.084.162-.154.138-.06.24-.06.086 0 .132.064.04.056.04.146z"/><path d="m125.28615 362.53968q0 .242-.262.428-.24.17-.494.17-.126 0-.2-.064-.074-.064-.074-.186 0-.272.238-.472.226-.19.506-.19.142 0 .214.084.072.084.072.23zm-.122.046q0-.092-.104-.138-.078-.034-.186-.034-.158 0-.33.154-.172.154-.172.31 0 .064.032.092.034.026.102.026.196 0 .408-.108.25-.128.25-.302z"/><path d="m126.20215 362.17968q0 .094-.1.252-.064.1-.21.288-.146.186-.182.244.006.002.15.048.146.044.146.16-.06.01-.118.018l-.022-.002v-.016q-.032-.008-.052-.008-.038 0-.12.012-.082.012-.124.012-.054 0-.088-.02-.034-.02-.034-.072 0-.042.154-.238.288-.366.29-.37.156-.212.156-.284 0-.028-.02-.042-.018-.014-.074-.014-.038 0-.158.074-.058.036-.094.036l-.034-.006q-.012-.008-.026-.03-.014-.024-.014-.038 0-.084.162-.154.138-.06.24-.06.086 0 .132.064.04.056.04.146z"/><path d="m127.12215 362.17968q0 .094-.1.252-.064.1-.21.288-.146.186-.182.244.006.002.15.048.146.044.146.16-.06.01-.118.018l-.022-.002v-.016q-.032-.008-.052-.008-.038 0-.12.012-.082.012-.124.012-.054 0-.088-.02-.034-.02-.034-.072 0-.042.154-.238.288-.366.29-.37.156-.212.156-.284 0-.028-.02-.042-.018-.014-.074-.014-.038 0-.158.074-.058.036-.094.036l-.034-.006q-.012-.008-.026-.03-.014-.024-.014-.038 0-.084.162-.154.138-.06.24-.06.086 0 .132.064.04.056.04.146z"/></g><g><g fill="none" stroke="#f4f4f4" stroke-linecap="round"><path d="m108.60927 398.29898c29.43948 0 53.13985-23.70037 53.13985-53.13985v-158.16002c-.26465-8.62183 4.08437-14.49667 9.74744-21.2882m-62.88729 232.58807c-29.439479 0-53.139852-23.70037-53.139852-53.13985v-158.16002c.264652-8.62183-4.084362-14.49667-9.747435-21.2882" opacity=".98" stroke-width="2"/><path d="m55.126276 350.06862c-2.253843-43.65893-7.373218-88.3832-12.677167-131.16658l-5.080024-40.09111c-1.206625-12.79019-17.695964-38.58901-15.173612-72.20259" opacity=".98" stroke-width="1.5"/><path d="m161.85869 350.06862c2.25384-43.65893 7.37322-88.3832 12.67717-131.16658l5.08003-40.09111c1.20661-12.79019 17.69595-38.58901 15.1736-72.20259" opacity=".98" stroke-width="1.5"/><path d="m194.54243 106.71257a86.110237 86.110237 0 0 1 -86.11024 86.11024 86.110237 86.110237 0 0 1 -86.110237-86.11024 86.110237 86.110237 0 0 1 86.110237-86.110237 86.110237 86.110237 0 0 1 86.11024 86.110237z" opacity=".98" stroke-width="2"/><path d="m134.2134 37.115542c-12.58845-11.807759-29.75344-18.638016-47.019815-18.637797-17.414439.000174-34.724715 6.949781-47.341285 18.945136" opacity=".98" transform="translate(21.238055 19.602333)"/><path d="m18.741645 91.964391c1.19827 16.291909 8.363351 32.116169 19.922644 43.675469 12.704859 12.70486 30.561912 20.10138 48.529296 20.10156 17.967645.00023 35.824115-7.39666 48.529295-20.10156 11.55728-11.55702 18.72318-27.37702 19.92384-43.665638" opacity=".98" transform="translate(21.238055 19.602333)"/></g><g fill="#f4f4f4" stroke-width=".055378" transform="matrix(9.0288 0 0 9.0288 87.921184 330.86638)"><path d="m68.257812 332.69922c-.588684 0-1.066406.47755-1.066406 1.0664v6.77149c0 .58886.477682 1.06641 1.066406 1.06641h38.248048c.58872 0 1.06445-.47752 1.06445-1.06641v-6.77149c0-.58889-.47573-1.0664-1.06445-1.0664zm.488282 1.25781h.623047v6.5918h-.623047zm27.855468 0h.603516v.81641h-.603516zm-21.064453.53125h.548829v1.31836h.886718v.45898h-.886718v3.24805c0 .46686.01688.66992.474609.66992.146483 0 .302735-.0277.449219-.0644v.44727c-.128146.0273-.365395.11132-.63086.11132-.540094 0-.841797-.23854-.841797-.94335v-3.46876h-.669921v-.45898h.669921zm19.025391 0h.548828v1.31836h.886719v.45898h-.886719v3.24805c0 .46687.01889.66992.476563.66992.146483 0 .300818-.0279.447265-.0644v.44727c-.128155.0273-.365385.11132-.630859.11132-.540058 0-.841797-.23854-.841797-.94335v-3.46876h-.669922v-.45898h.669922zm-21.863281 1.19141c.576705 0 1.106624.18148 1.445312.67578.228885.33869.238281.69623.238281 1.08984v3.10352h-.548828v-3.09375c0-.85129-.347785-1.28125-1.226562-1.28125-.677373 0-1.144429.43865-1.31836.92383-.109835.30204-.11914.56693-.11914.89648v2.55469h-.548828v-4.74219h.548828v.66016c.439389-.46684.870229-.78711 1.529297-.78711zm6.753906 0c1.299867 0 2.095075.92431 2.085937 2.62695h-3.679687c-.0092 1.02523.541046 1.87695 1.59375 1.87695.714025 0 1.272743-.39412 1.4375-1.08984h.613281c-.274629.89708-.842457 1.58398-2.050781 1.58398-1.519538 0-2.179687-1.08185-2.179687-2.48242 0-1.38226.824907-2.51562 2.179687-2.51562zm4.933594 0v.59375c-1.235781-.0274-1.566407.88928-1.566407 1.95117v2.32422h-.548828v-4.74219h.548828v.88867h.01953c.302076-.75977.750484-1.01562 1.546875-1.01562zm2.373047 0c.03191-.00089.06338 0 .0957 0 .961181 0 1.720703.37421 1.720703 1.47265v2.58204c0 .43026.109365.53001.576172.36523v.43164c-.08243.0274-.274058.0918-.429688.0918-.09152 0-.163688-.0106-.246094-.0293-.366126-.0549-.430288-.37357-.439453-.70313-.457651.51262-1.081035.78711-1.767578.78711-.833042 0-1.583984-.44983-1.583984-1.36523 0-.79642.550581-1.28126 1.658203-1.42773l.759766-.0996c.201369-.0183.539588-.0739.722656-.15625.183104-.0824.201172-.32934.201172-.49414 0-.55836-.330353-.96094-1.181641-.96094-.759782 0-1.280166.24644-1.380859 1.07031h-.558591c.07986-1.08185.864161-1.53709 1.853516-1.56445zm4.835937 0c1.08933 0 1.803959.52064 1.96875 1.61914h-.558594c-.192268-.70484-.677849-1.125-1.410156-1.125-1.125861 0-1.591797 1.02506-1.591797 2.01367.000044.9978.45676 1.99609 1.591797 1.99609.814696 0 1.328892-.48623 1.457031-1.27343h.585938c-.192269 1.05267-.852978 1.76757-2.042969 1.76757-1.510332 0-2.177734-1.08965-2.177734-2.49023 0-1.31816.758947-2.50781 2.177734-2.50781zm12.759767 0c1.29987 0 2.09511.92431 2.08594 2.62695h-3.67969c-.009 1.02523.54105 1.87695 1.59375 1.87695.71403 0 1.27079-.39412 1.43555-1.08984h.61328c-.2746.89708-.8405 1.58398-2.04883 1.58398-1.51953 0-2.17969-1.08185-2.17969-2.48242 0-1.38226.82492-2.51562 2.17969-2.51562zm-7.726564.12695h.548828v4.74219h-.548828zm1.080078 0h.595704l1.537109 4.06445 1.537113-4.06445h.5957l-1.83984 4.74219h-.613286zm-18.255859.36719c-.970315 0-1.483878.77674-1.59375 1.67383h3.09375c0-.92458-.511345-1.67383-1.5-1.67383zm24.902345 0c-.97028 0-1.48388.77674-1.59375 1.67383h3.09375c0-.92458-.51137-1.67383-1.5-1.67383zm-16.328126 1.88476c-.466861.19227-.941966.22903-1.417969.26563-.832997.064-1.337891.36701-1.337891 1.00781 0 .57666.503606.85156 1.025391.85156.869645 0 1.730469-.42164 1.730469-1.38281z" transform="matrix(.11075669 0 0 .11075669 -7.385603 -34.474575)"/><path d="m4.09139.324598c-.0003386.0127874-.000752.0232913-.00118.0270551-.00328.0288189 0 .0424409-.083094.0424409-.083091 0-.079811-.013622-.083091-.0424409-.00106-.009382-.00205-.0606929-.00195-.0847008.0000984-.0240079.0008819-.0753189.00195-.0846969.00328-.0288228 0-.0424449.083091-.0424449.083094 0 .079815.013626.083094.0424449.0004449.003925.0008425.0152323.00116.0288031l.113665-.00000394c-.0007322-.0257598-.00195-.0472835-.00322-.0585-.00655-.0576378.016153-.112827-.194567-.112827-.210717-.00000393-.188012.055189-.194567.112827-.00213.0187598-.00411.0663819-.0039.114398.0002047.0480157.00177.0956378.0039.114402.00656.0576339-.01615.112827.194567.112827.210724-.00000393.188016-.0551929.194567-.112827.00125-.0109646.0023-.0317717.003-.056752z"/><path d="m2.52181.051252-.16592-.0008662v.4348942h.11091v-.323997l.1109.323997h.11091l.11003-.323997v.323997h.1109v-.4348942l-.16593.0008662-.11089.323992z"/><path d="m4.22993.0503858h.31876v.1108972h-.10393v.323997h-.1109v-.323997h-.10393z"/><path d="m3.63698.324598-.05152-.177287-.09956.337969h-.1109l.1272-.4353233h.16534l.1275.4353233h-.1109l-.0262-.089957h-.14552l.02062-.070725z"/><path d="m2.0888.139811c.083095 0 .079815.013626.083095.0424449.00107.009378.00185.060689.00195.0846969.0001024.0240079-.0008858.0753189-.00195.0847008-.00328.0288189 0 .0424409-.083095.0424409-.083087 0-.079815-.013622-.083091-.0424409-.00106-.009382-.00205-.0606929-.00195-.0847008.0001023-.0240079.0008819-.0753189.00195-.0846969.00328-.0288228 0-.0424449.083091-.0424449l.0001299-.100087c-.210717 0-.188012.0551929-.194567.112831-.00213.0187598-.00411.0663819-.0039.114398.0002047.0480157.00177.0956378.0039.114402.00656.0576339-.01615.112827.194567.112827.21072-.00000394.188016-.0551929.194567-.112827.00213-.0187638.0037-.0663858.0039-.114402.0002047-.0480157-.00177-.0956339-.0039-.114398-.00655-.0576378.016154-.112827-.194567-.112827z"/><path d="m1.71434.324598c-.0003386.0127874-.000752.0232913-.00118.0270551-.00328.0288189 0 .0424409-.083091.0424409-.083087 0-.079811-.013622-.083091-.0424409-.00106-.009382-.00205-.0606929-.00195-.0847008.0000984-.0240079.0008858-.0753189.00195-.0846969.00328-.0288228 0-.0424449.083091-.0424449s.079815.013626.083091.0424449c.0004488.003925.0008425.0152323.00116.0288031l.113669-.00000394c-.0007323-.0257598-.00195-.0472835-.00322-.0585-.00655-.0576378.01615-.112827-.194567-.112827-.210717-.00000393-.188012.055189-.194567.112827-.00213.0187598-.00411.0663819-.0039.114398.0002048.0480157.00177.0956378.0039.114402.00656.0576339-.01615.112827.194567.112827.21072-.00000393.188012-.0551929.194567-.112827.00124-.0109646.0023-.0317717.003-.056752l-.113421-.00000393z"/><path d="m3.17957.385815-.067291-.00003543v-.0992008l.067276-.00040552c.083095 0 .080516-.013622.083791-.0424409.00107-.009386.0008465-.001673.0007441-.0256811-.0001024-.0240079.0003228-.0157638-.0007441-.0251417-.00328-.0288189-.0007008-.0424488-.083791-.0424488l-.067311.00017717.0001142.334209h-.111122v-.434461l.178335-.00000394c.210724 0 .187626.0553386.195378.112827.0009212.006811.0009212.038248.0009212.0551969 0 .0136181 0 .0450551-.0009212.0550236-.00532.0577598.015343.11239-.195378.112386z"/><path d="m1.02277 2.12283-.694197-.0008071c-.100445 0-.181862-.081429-.181862-.181862v-1.05666999c0-.100449.0814173-.181866.181862-.181866l.434472-.00049212c.0521772 0 .0944843-.0422953.0944843-.0944803l.001272-.422484c0-.0218661.0177283-.0395984.0395984-.0395984h.2547006c.02187 0 .039614.0177323.039614.0396024l.00261 1.89920001c0 .021866-.017732.039614-.039594.039614l-.132961-.0001575-.00323.094366.173736-.0000512c.052173 0 .09448-.042291.09448-.09448v-1.97884997c0-.0521693-.042307-.0944646-.094484-.0944646l-.33416099-.00000394c-.0521732 0-.0944843.0422992-.0944843.0944724l.00047638.423543c0 .0218661-.0177323.0396142-.0396142.0396142l-.396913-.00072835c-.153122 0-.277256.124118-.277256.277244l.00000393 1.05665996c0 .153106.12413001.27724.27725201.27724l.69096497-.0002007.00323-.094366z"/><path d="m.76461 1.73389v-.683614c0-.0572835-.0464449-.103728-.103748-.103728-.0572835 0-.103728.0464449-.103728.103732v.737921c0 .057291.0464409.103748.103728.103748.0573031 0 .103748-.046457.103748-.103744v-.054315l.0942992.00323v.051079c0 .109366-.0886693.198035-.198047.198035-.109358 0-.198028-.088669-.198028-.198031v-.737927c0-.10936202.0886693-.19802802.198028-.19802802.109378-.00000394.198047.0886693.198047.19803102v.686843l-.0942992-.0032323z"/><path d="m1.68258 2.12283-.129921.0000079c-.021886 0-.039614-.017748-.039614-.039614l.00159-1.34114003c0-.0218819.017728-.0396102.039606-.0396102h.254709c.021878 0 .03961.0177283.03961.0396102l.00261 1.34113003c0 .021882-.017732.039614-.039602.039614l-.128996.0000078v.09398l.166543.0001733c.052189 0 .09448-.042291.09448-.094468v-1.42079022c0-.0521693-.042295-.0944803-.09448-.0944803h-.334177c-.052173 0-.094469.042311-.094469.0944803l-.0001878 1.42043002c0 .052185.041972.09448.094146.09448l.168154.0001771v-.09398z"/><path d="m2.88252.966354-.279811-.00038189c-.086098 0-.155921.0698189-.155921.15592099 0 .08611.069819.155917.155917.155917l.38337.00104c.100433 0 .181862.081437.181862.18187l-.00128.477268c0 .100449-.081433.181866-.181866.181866l-.761028.00138c-.021866 0-.03961-.017744-.03961-.03961v-.184843c0-.021882.017744-.03961.03961-.03961l.518665-.00169c.08611 0 .155929-.069803.155929-.155917.000004-.086114-.069819-.155917-.155933-.155917l-.3755-.00148c-.100433 0-.181866-.081429-.181866-.181862v-.47680935c0-.100449.081433-.181866.181866-.181866l.705449-.003299c.021866 0 .039594.017748.039594.0396142l.0000158.189059c0 .0218661-.017732.0396142-.039614.0396142l-.189846-.00026378-.00323.0929528.232024.0000708c.052169 0 .09448-.041972.09448-.0941417l.0003504-.264839c0-.052189-.042295-.0944803-.094484-.0944803l-.744736.00033464c-.15311 0-.27724.124118-.27724.277244v.47680689c0 .153106.12413.27724.27724.27724l.375504-.0006418c.034622 0 .062677.028055.062677.062665 0 .034622-.028055.062681-.062681.062681l-.559012-.0001141c-.052177 0-.094469.042295-.094469.094484v.264303c0 .052185.042291.09448.094465.09448l.801386-.0001693c.15311 0 .277236-.124114.277236-.277236l.00129-.477276c0-.153106-.12413-.27724-.27724-.27724l-.383366.00109c-.03461 0-.062669-.028059-.062669-.062681 0-.034614.028055-.062669.062665-.062669l.276583.0000826.00323-.0929528z"/><path d="m4.29271 1.22856h.120181c.021878 0 .039606-.017728.039606-.03961l-.0005-.305449c0-.100449-.081417-.181866-.181866-.181866h-.601232c-.100445 0-.181882.0814173-.181882.181866v1.05666c0 .100437.081433.181866.181878.181866h.601236c.100449 0 .181866-.081429.181866-.181862l.0005-.290437c0-.021878-.017728-.039606-.03961-.039606h-.226815c-.021866 0-.039598.017728-.039598.03961l.00128.138476c0 .109366-.068874.198035-.178236.198035-.109374 0-.178228-.088669-.178228-.198031v-.737929c0-.109362.068854-.198028.178228-.198028.109366-.00000394.178236.0886693.178236.198031l-.00127.138661c0 .021882.017728.03961.039594.03961h.106638l-.00323.09522h-.142693c-.052173 0-.094484-.042303-.094484-.094476l.00115-.17902c0-.0572835-.02665-.103728-.083937-.103728-.057299 0-.083945.0464449-.083945.103732v.737921c0 .057291.026646.103748.083945.103748.057291 0 .083933-.046457.083933-.103744l-.00114-.178835c0-.052173.042303-.09448.09448-.09448l.306272-.0000039c.052189 0 .094484.042311.094484.094488l-.0001653.33078c0 .153106-.124122.27724-.277244.27724h-.601232c-.153122 0-.277256-.12413-.277256-.277236v-1.05667014c0-.153126.12413-.277244.277252-.277244h.601236c.153126 0 .27724.124118.27724.277244l.0001594.34579904c0 .052177-.042295.094484-.094484.094484l-.163579-.000004.00323-.09522z"/></g></g><g><path d="m159.3607 53.129838-7.3572 6.75593c-2.04108 1.878077-1.07748 3.881175-.0833 5.265738 8.27179 11.311024 17.15424 22.058547 16.61514 41.500064-.0546 3.86404 1.23423 4.7232 3.36863 4.85655l8.34672.11106c3.72308.0432 3.40373-1.85896 3.38229-3.47696-.20482-19.329897-5.98024-37.488236-20.20726-53.268667-2.83588-3.169341-2.7385-2.892066-4.06503-1.743715z" fill="none" opacity=".98" stroke="#f4f4f4" stroke-linecap="round" stroke-width="2"/><path d="m56.844848 53.129838 7.357196 6.75593c2.041085 1.878077 1.077485 3.881175.08329 5.265738-8.271788 11.311024-17.154234 22.058547-16.615136 41.500064.05456 3.86404-1.234229 4.7232-3.368634 4.85655l-8.346712.11106c-3.723083.0432-3.403735-1.85896-3.382289-3.47696.20482-19.329897 5.980232-37.488236 20.207253-53.268667 2.835881-3.169341 2.738501-2.892066 4.065032-1.743715z" fill="none" opacity=".98" stroke="#f4f4f4" stroke-linecap="round" stroke-width="2"/><g><g fill="none" stroke="#f4f4f4" stroke-linecap="round"><circle cx="108.46871" cy="107.15056" opacity=".98" r="40" stroke-width="2"/><circle cx="108.55296" cy="106.94628" opacity=".98" r="14" stroke-width="2"/><path d="m74.974727 107.19912h10.672422" opacity=".98" stroke-width="1.5"/><path d="m130.97473 107.19912h10.67242" opacity=".98" stroke-width="1.5"/><path d="m108.59737 73.86291v10.67242" opacity=".98" stroke-width="1.5"/><path d="m108.59737 129.86291v10.67242" opacity=".98" stroke-width="1.5"/></g><circle cx="84.831299" cy="130.85304" fill="#f4f4f4" opacity=".98" r="1"/><circle cx="85.283165" cy="83.894394" fill="#f4f4f4" opacity=".98" r="1"/><circle cx="132.16556" cy="83.657188" fill="#f4f4f4" opacity=".98" r="1"/><circle cx="132.04872" cy="130.63548" fill="#f4f4f4" opacity=".98" r="1"/></g></g></g></svg>