<svg height="351.24887" viewBox="0 0 921.66626 772.74752" width="418.93921" xmlns="http://www.w3.org/2000/svg"><g fill="#f4f4f4" fill-opacity=".5" stroke-width="2.2" transform="translate(-284.25419 -127.98341)"><path d="m784.77264 830.79227q0 .70401-.17013 1.18507-.25227.71574-.8096.71574-.3696 0-.7744-.17014-.48694-.20533-.53387-.50453.16427 0 .3872.0587.51627.13493.64533.13493.49867 0 .75094-.49867.19946-.39893.19946-.95627 0-.39306-.25813-1.12053-.25227-.73333-.25227-1.0208 0-.088.0469-.1408.0528-.0587.1408-.0587.2288 0 .44586 1.056.18187.89174.18187 1.32z"/><path d="m787.03131 831.39068q0 .5984-.34613.93866-.34614.34027-.95627.34027-.3344 0-.51627-.1584-.18186-.1584-.18186-.48693 0-.46347.60426-.9328.57494-.44587 1.06187-.44587.22294 0 .29334.27573.0411.1584.0411.46934zm-.35786.16426q0-.0704-.0176-.13493-.0117-.0704-.0469-.1584-.0939.0645-.31093.3168-.11147.12907-.1936.18773 0-.11146.0235-.18186.0469-.0997.0763-.17014-.25813 0-.53973.21707-.27574.21707-.27574.46933 0 .17014.18774.17014.35786 0 .69226-.176.40481-.2112.40481-.53974z"/><path d="m789.44838 831.63121q0 .28747-.21707.64533-.2464.4048-.5104.4048-.0763 0-.12906-.0821-.0469-.088-.0469-.17013 0-.1056.22294-.32854.2288-.2288.2288-.31093 0-.0528-.0176-.1056-.0176-.0528-.0235-.0704-.44.0997-.8976.50453-.45173.4048-.6864.4576-.0469-.12906-.0469-.264 0-.16426.0763-.34613.0528-.12907.176-.31093.20534-.31094.43414-.704.11733-.20534.4048-.70987.29333-.50454.42826-.71574.0704-.1056.1232-.1584.0763-.0704.18187-.0939.0704.0235.0997.088.0352.0645.0352.15253 0 .19947-.25813.53973-.46933.61014-.48107.6336-.264.39894-.264.72161l.0117.0587q.32266-.1584.38133-.18186.24053-.0997.41067-.0997.18773 0 .27573.12907.088.1232.088.3168z"/><path d="m792.17052 831.28508q0 .39893-.1936.85066-.2112.49867-.52213.6864-.0645-.0763-.11147-.17013-.0411-.0939-.0411-.18773 0-.0997.29334-.59254.12906-.21706.11733-.38133l-.006-.0763q-.21706.0645-.75093.39307-.528.32267-1.06773.65707-.0821 0-.15254-.0587-.0645-.0645-.0645-.1408 0-.1232.39307-.8272.11733-.2112.4224-.73334.0939.1232.1232.27574.0293.14667.0293.352 0 .088 0 .13493.53973-.32266.8448-.48693.3344-.18187.4576-.18187.0821 0 .15253.18774.0763.18773.0763.2992z"/><path d="m797.26865 832.42321q0 .1056-.0939.16427-.088.0528-.19947.0528-.0997 0-.25227-.0235-.34613-.0528-.44586-.0528-.176 0-.69227.0411-.29333.0235-.4224.0235-.35787 0-.35787-.35786 0-.34027.22294-.97387.1232-.35787.46346-1.17334.30507-.73333.3872-1.03253.0293-.0939.0469-.1232.0469-.0704.11733-.0704.11147 0 .18773.16427.0763.1584.0763.28746 0 .20534-.24053.69227-.24054.48107-.46934.94454-.25226.55146-.25226.83893 0 .14667.1232.20533.088.0411.25813.0411.12907 0 .44587-.0293.3168-.0352.4224-.0352.264 0 .43413.0763.24053.1056.24053.34027z"/><path d="m799.45106 831.39068q0 .5984-.34614.93866-.34613.34027-.95626.34027-.3344 0-.51627-.1584-.18187-.1584-.18187-.48693 0-.46347.60427-.9328.57493-.44587 1.06187-.44587.22293 0 .29333.27573.0411.1584.0411.46934zm-.35787.16426q0-.0704-.0176-.13493-.0117-.0704-.0469-.1584-.0939.0645-.31094.3168-.11146.12907-.1936.18773 0-.11146.0235-.18186.0469-.0997.0763-.17014-.25814 0-.53974.21707-.27573.21707-.27573.46933 0 .17014.18773.17014.35787 0 .69227-.176.4048-.2112.4048-.53974z"/><path d="m801.92092 831.26748q0 .18773-.0997.39893-.0939.2112-.24053.352l-.006-.0821q0-.0704.0176-.21707.0176-.14667.0176-.21707 0-.0997-.0293-.14666-.0293-.0528-.1232-.0528-.27574 0-.6864.42826-.44587.46934-.88587.9328-.0352 0-.0704-.006-.088-.0235-.11733-.0293.0176-.2112.14666-.46933.34614-.69813.35787-.74507.0469-.18773.0704-.27573.0235-.088.0645-.18187.0469-.0997.1056-.176.0645-.0821.16427-.1232l.0587.704q.25226-.20533.3872-.3168.25813-.20533.44586-.20533.18774 0 .30507.1232.11733.1232.11733.30507z"/><path d="m804.80147 830.58694q0 .2464-.65707.6512-.6336.3872-.92107.3872-.13493 0-.18187-.0939-.0411-.0939-.0411-.264 0-.11147 0-.1584.39306 0 .71573-.11734.32267-.11733.5632-.3872-.176-.0645-.35786-.0645-.42827 0-.90934.32853-.528.35787-.528.76267 0 .3872.528.53973.0821.0235.99147.16427.53387.0821.53387.28747 0 .088-.1936.1408-.1936.0587-.4928.0587-.75094 0-1.18507-.2288-.57494-.30506-.57494-.97973 0-.704.704-1.12054.5984-.352 1.36107-.352.2288 0 .41654.1056.2288.12907.2288.34027z"/><path d="m807.1364 829.53681q0 .12906-.31093.53973-.31094.41067-.31094.62773 0 .11147.12907.22294.29333.25813.29333.3168 0 .0763-.0528.14667-.0469.0704-.1232.0704-.0645 0-.18186-.0704-.0821-.0469-.3168-.2288-.088.17013-.13494.25813-.16426.31093-.22293.45173-.088.26987-.176.53974-.15253.36373-.38133.36373l-.006-.13493q0-.41654.26987-.9856.0528-.1056.29333-.5456-.46347-.25227-1.0208-.25227 0-.21707.088-.3168.0939-.1056.31093-.1056.19947 0 .49867.0704.14667.0352.29333.0704.11147-.0352.30507-.38134.4752-.83306.64533-.95626.0469.0763.0763.15253.0352.0763.0352.14667z"/><path d="m809.30121 831.63121q0 .28747-.21707.64533-.2464.4048-.5104.4048-.0763 0-.12907-.0821-.0469-.088-.0469-.17013 0-.1056.22293-.32854.2288-.2288.2288-.31093 0-.0528-.0176-.1056-.0176-.0528-.0235-.0704-.44.0997-.8976.50453-.45174.4048-.6864.4576-.0469-.12906-.0469-.264 0-.16426.0763-.34613.0528-.12907.176-.31093.20533-.31094.43413-.704.11734-.20534.4048-.70987.29334-.50454.42827-.71574.0704-.1056.1232-.1584.0763-.0704.18187-.0939.0704.0235.0997.088.0352.0645.0352.15253 0 .19947-.25813.53973-.46934.61014-.48107.6336-.264.39894-.264.72161l.0117.0587q.32267-.1584.38134-.18186.24053-.0997.41066-.0997.18774 0 .27574.12907.088.1232.088.3168z"/><path d="m814.11775 829.71867q0 .27574-.29333.7392-.18774.29334-.616.84481-.42827.5456-.53387.71573.0176.006.44.1408.42827.12907.42827.46933-.176.0293-.34614.0528l-.0645-.006v-.0469q-.0939-.0235-.15253-.0235-.11147 0-.352.0352-.24054.0352-.36374.0352-.1584 0-.25813-.0587-.0997-.0587-.0997-.2112 0-.1232.45173-.69813.8448-1.07361.85067-1.08534.4576-.62187.4576-.83307 0-.0821-.0587-.1232-.0528-.0411-.21707-.0411-.11146 0-.46346.21706-.17014.1056-.27574.1056l-.0997-.0176q-.0352-.0235-.0763-.088-.0411-.0704-.0411-.11146 0-.2464.4752-.45174.4048-.176.704-.176.25226 0 .3872.18774.11733.16426.11733.42826z"/><path d="m817.64362 830.77467q0 .70987-.76854 1.25547-.704.49867-1.44907.49867-.3696 0-.58666-.18773-.21707-.18774-.21707-.5456 0-.79787.69813-1.38454.66294-.55733 1.48427-.55733.41653 0 .62774.2464.2112.2464.2112.67466zm-.35787.13494q0-.26987-.30507-.4048-.2288-.0997-.5456-.0997-.46347 0-.968.45174-.50453.45173-.50453.90933 0 .18774.0939.26987.0997.0763.2992.0763.57494 0 1.1968-.3168.73334-.37547.73334-.88587z"/><path d="m820.33056 829.71867q0 .27574-.29334.7392-.18773.29334-.616.84481-.42826.5456-.53387.71573.0176.006.44001.1408.42826.12907.42826.46933-.176.0293-.34613.0528l-.0645-.006v-.0469q-.0939-.0235-.15254-.0235-.11146 0-.352.0352-.24053.0352-.36373.0352-.1584 0-.25814-.0587-.0997-.0587-.0997-.2112 0-.1232.45173-.69813.84481-1.07361.85067-1.08534.4576-.62187.4576-.83307 0-.0821-.0587-.1232-.0528-.0411-.21707-.0411-.11147 0-.46347.21706-.17013.1056-.27573.1056l-.0997-.0176q-.0352-.0235-.0763-.088-.0411-.0704-.0411-.11146 0-.2464.4752-.45174.4048-.176.704-.176.25227 0 .3872.18774.11734.16426.11734.42826z"/><path d="m823.02922 829.71867q0 .27574-.29334.7392-.18773.29334-.616.84481-.42826.5456-.53386.71573.0176.006.44.1408.42826.12907.42826.46933-.176.0293-.34613.0528l-.0645-.006v-.0469q-.0939-.0235-.15254-.0235-.11146 0-.352.0352-.24053.0352-.36373.0352-.1584 0-.25813-.0587-.0997-.0587-.0997-.2112 0-.1232.45174-.69813.8448-1.07361.85066-1.08534.4576-.62187.4576-.83307 0-.0821-.0587-.1232-.0528-.0411-.21707-.0411-.11147 0-.46347.21706-.17013.1056-.27573.1056l-.0997-.0176q-.0352-.0235-.0763-.088-.0411-.0704-.0411-.11146 0-.2464.4752-.45174.4048-.176.704-.176.25227 0 .3872.18774.11734.16426.11734.42826z"/></g><g fill="none" stroke="#f4f4f4"><g transform="translate(-284.25419 -127.98341)"><path d="m745.08664 896.95136h443.81056c7.337 0 13.2437-5.90673 13.2437-13.24378v-408.09235l-20-330.60851c-.443-7.32366-5.9067-13.24378-13.2437-13.24378l-423.80986.0602m.0007 765.12825h-443.81054c-7.33705 0-13.24378-5.90673-13.24378-13.24378v-408.09235l20-330.60851c.44304-7.32366 5.90673-13.24378 13.24378-13.24378l423.80984.0602" stroke-width="4.4"/><rect height="290.16693" rx="34.448299" ry="34.448296" stroke-linecap="round" stroke-width="4.4" width="851.54968" x="319.61795" y="567.28149"/><g stroke-width="2.2"><rect height="242.85301" rx="15.310495" stroke-linecap="round" width="709.88477" x="390.80905" y="591.71759"/><rect height="420.50354" rx="16.812542" width="913.06531" x="289.13321" y="475.90756"/><path d="m289.90573 429.03131h47.86069c1.84587 0 3.33188 1.48602 3.33188 3.33188 0 1.84587-1.48601 3.33188-3.33188 3.33188h-47.86069"/><path d="m291.16531 415.13766h45.86069c1.84587 0 5.33188 1.48602 5.33188 3.33188 0 1.84587-1.48601 3.33188-3.33188 3.33188h-47.86069"/><path d="m290.83325 401.03131h47.86069c1.84587 0 3.33188 1.48602 3.33188 3.33188 0 1.84587-1.48601 3.33188-3.33188 3.33188h-47.86069"/><path d="m291.58189 387.13766h45.86069c1.84587 0 5.33188 1.48602 5.33188 3.33188 0 1.84587-1.48601 3.33188-3.33188 3.33188h-47.86069"/><path d="m292.82422 373.03131h47.86069c1.84587 0 3.33188 1.48602 3.33188 3.33188 0 1.84587-1.48601 3.33188-3.33188 3.33188h-47.86069"/><path d="m292.39667 359.13766h45.86069c1.84587 0 5.33188 1.48602 5.33188 3.33188 0 1.84587-1.48601 3.33188-3.33188 3.33188h-47.86069"/><path d="m294.17632 345.03131h47.86069c1.84587 0 3.33188 1.48602 3.33188 3.33188 0 1.84587-1.48601 3.33188-3.33188 3.33188h-47.86069"/><path d="m294.31248 331.13766h45.86069c1.84587 0 5.33188 1.48602 5.33188 3.33188 0 1.84587-1.48601 3.33188-3.33188 3.33188h-47.86069"/><path d="m295.14303 317.03131h47.86069c1.84587 0 3.33188 1.48602 3.33188 3.33188 0 1.84587-1.48601 3.33188-3.33188 3.33188h-47.86069"/><path d="m295.74055 303.13766h45.86069c1.84587 0 5.33188 1.48602 5.33188 3.33188 0 1.84587-1.48601 3.33188-3.33188 3.33188h-47.86069"/><path d="m296.22007 289.03131h47.86069c1.84587 0 3.33188 1.48602 3.33188 3.33188 0 1.84587-1.48601 3.33188-3.33188 3.33188h-47.86069"/><path d="m300.15953 275.13766h41.86069c1.84587 0 5.33188 1.48602 5.33188 3.33188 0 1.84587-1.48601 3.33188-3.33188 3.33188h-45.86069"/><path d="m302.04952 261.03131h43.86069c1.84587 0 3.33188 1.48602 3.33188 3.33188 0 1.84587-1.48601 3.33188-3.33188 3.33188h-45.86069"/><path d="m301.80268 247.13766h41.86069c1.84587 0 5.33188 1.48602 5.33188 3.33188 0 1.84587-1.48601 3.33188-3.33188 3.33188h-45.86069"/><path d="m303.52396 233.03131h43.86069c1.84587 0 3.33188 1.48602 3.33188 3.33188 0 1.84587-1.48601 3.33188-3.33188 3.33188h-45.86069"/><path d="m303.76167 219.13766h41.86069c1.84587 0 5.33188 1.48602 5.33188 3.33188 0 1.84587-1.48601 3.33188-3.33188 3.33188h-45.86069"/><path d="m304.07407 205.03131h43.86069c1.84587 0 3.33188 1.48602 3.33188 3.33188 0 1.84587-1.48601 3.33188-3.33188 3.33188h-45.86069"/><path d="m305.14415 191.13766h41.86069c1.84587 0 5.33188 1.48602 5.33188 3.33188 0 1.84587-1.48601 3.33188-3.33188 3.33188h-45.86069"/><path d="m305.75721 177.03131h43.86069c1.84587 0 3.33188 1.48602 3.33188 3.33188 0 1.84587-1.48601 3.33188-3.33188 3.33188h-45.86069"/><path d="m306.50345 163.13766h41.86069c1.84587 0 5.33188 1.48602 5.33188 3.33188 0 1.84587-1.48601 3.33188-3.33188 3.33188h-45.86069"/><g transform="matrix(-1 0 0 1 1485.4915 0)"><path d="m289.90573 429.03131h47.86069c1.84587 0 3.33188 1.48602 3.33188 3.33188 0 1.84587-1.48601 3.33188-3.33188 3.33188h-47.86069"/><path d="m291.16531 415.13766h45.86069c1.84587 0 5.33188 1.48602 5.33188 3.33188 0 1.84587-1.48601 3.33188-3.33188 3.33188h-47.86069"/><path d="m290.83325 401.03131h47.86069c1.84587 0 3.33188 1.48602 3.33188 3.33188 0 1.84587-1.48601 3.33188-3.33188 3.33188h-47.86069"/><path d="m291.58189 387.13766h45.86069c1.84587 0 5.33188 1.48602 5.33188 3.33188 0 1.84587-1.48601 3.33188-3.33188 3.33188h-47.86069"/><path d="m292.82422 373.03131h47.86069c1.84587 0 3.33188 1.48602 3.33188 3.33188 0 1.84587-1.48601 3.33188-3.33188 3.33188h-47.86069"/><path d="m292.39667 359.13766h45.86069c1.84587 0 5.33188 1.48602 5.33188 3.33188 0 1.84587-1.48601 3.33188-3.33188 3.33188h-47.86069"/><path d="m294.17632 345.03131h47.86069c1.84587 0 3.33188 1.48602 3.33188 3.33188 0 1.84587-1.48601 3.33188-3.33188 3.33188h-47.86069"/><path d="m294.31248 331.13766h45.86069c1.84587 0 5.33188 1.48602 5.33188 3.33188 0 1.84587-1.48601 3.33188-3.33188 3.33188h-47.86069"/><path d="m295.14303 317.03131h47.86069c1.84587 0 3.33188 1.48602 3.33188 3.33188 0 1.84587-1.48601 3.33188-3.33188 3.33188h-47.86069"/><path d="m295.74055 303.13766h45.86069c1.84587 0 5.33188 1.48602 5.33188 3.33188 0 1.84587-1.48601 3.33188-3.33188 3.33188h-47.86069"/><path d="m296.22007 289.03131h47.86069c1.84587 0 3.33188 1.48602 3.33188 3.33188 0 1.84587-1.48601 3.33188-3.33188 3.33188h-47.86069"/><path d="m300.15953 275.13766h41.86069c1.84587 0 5.33188 1.48602 5.33188 3.33188 0 1.84587-1.48601 3.33188-3.33188 3.33188h-45.86069"/><path d="m302.04952 261.03131h43.86069c1.84587 0 3.33188 1.48602 3.33188 3.33188 0 1.84587-1.48601 3.33188-3.33188 3.33188h-45.86069"/><path d="m301.80268 247.13766h41.86069c1.84587 0 5.33188 1.48602 5.33188 3.33188 0 1.84587-1.48601 3.33188-3.33188 3.33188h-45.86069"/><path d="m303.52396 233.03131h43.86069c1.84587 0 3.33188 1.48602 3.33188 3.33188 0 1.84587-1.48601 3.33188-3.33188 3.33188h-45.86069"/><path d="m303.76167 219.13766h41.86069c1.84587 0 5.33188 1.48602 5.33188 3.33188 0 1.84587-1.48601 3.33188-3.33188 3.33188h-45.86069"/><path d="m304.07407 205.03131h43.86069c1.84587 0 3.33188 1.48602 3.33188 3.33188 0 1.84587-1.48601 3.33188-3.33188 3.33188h-45.86069"/><path d="m305.14415 191.13766h41.86069c1.84587 0 5.33188 1.48602 5.33188 3.33188 0 1.84587-1.48601 3.33188-3.33188 3.33188h-45.86069"/><path d="m305.75721 177.03131h43.86069c1.84587 0 3.33188 1.48602 3.33188 3.33188 0 1.84587-1.48601 3.33188-3.33188 3.33188h-45.86069"/><path d="m306.50345 163.13766h41.86069c1.84587 0 5.33188 1.48602 5.33188 3.33188 0 1.84587-1.48601 3.33188-3.33188 3.33188h-45.86069"/></g></g><g stroke-width="1.001"><g stroke-width="2.2"><rect height="28.747101" rx="2.381437" ry="2.381438" width="378.08316" x="556.81989" y="521.44208"/><path d="m702.49242 524.12772.45344 23.14721"/><path d="m790.39076 523.74664-.14135 26.52375"/></g><g stroke-width="1.65"><rect height="7.842574" rx="1.480766" width="19.705093" x="709.23804" y="532.66223"/><rect height="7.842574" rx="1.480766" width="19.705093" x="736.7439" y="532.66223"/><rect height="7.842574" rx="1.480766" width="19.705093" x="763.95062" y="532.66223"/></g></g></g><g stroke-width="4.4"><rect height="27.698629" rx="2.38144" width="253.23523" x="329.50759" y="663.302938"/><g><rect height="29.110241" rx="2.38144" width="29.110241" x="451.87569" y="617.528028"/><rect height="29.110241" rx="2.38144" width="29.110241" x="403.87569" y="617.528028"/><rect height="29.110241" rx="2.38144" width="29.110241" x="355.87569" y="617.528028"/><rect height="29.110241" rx="2.38144" width="29.110241" x="307.87569" y="617.528028"/><rect height="29.110241" rx="2.38144" width="29.110241" x="259.87569" y="617.528028"/><rect height="29.110241" rx="2.38144" width="29.110241" x="211.87569" y="617.528028"/><rect height="29.110241" rx="2.38144" width="53.110245" x="139.87569" y="617.528028"/><rect height="29.110241" rx="2.38144" width="53.110237" x="691.87569" y="617.528028"/><rect height="29.110241" rx="2.38144" width="29.110241" x="643.87569" y="617.528028"/><rect height="29.110241" rx="2.38144" width="29.110241" x="595.87569" y="617.528028"/><rect height="29.110241" rx="2.38144" width="29.110241" x="547.87569" y="617.528028"/><rect height="29.110241" rx="2.38144" width="29.110241" x="499.87569" y="617.528028"/></g><g><rect height="29.110241" rx="2.38144" width="29.110241" x="475.87569" y="571.528028"/><rect height="29.110241" rx="2.38144" width="29.110241" x="427.87569" y="571.528028"/><rect height="29.110241" rx="2.38144" width="29.110241" x="379.87569" y="571.528028"/><rect height="29.110241" rx="2.38144" width="29.110241" x="331.87569" y="571.528028"/><rect height="29.110241" rx="2.38144" width="29.110241" x="283.87569" y="571.528028"/><rect height="29.110241" rx="2.38144" width="29.110241" x="235.87569" y="571.528028"/><rect height="29.110241" rx="2.38144" width="29.110241" x="187.87569" y="571.528028"/><rect height="29.110241" rx="2.38144" width="77.11026" x="667.87569" y="571.528028"/><rect height="29.110241" rx="2.38144" width="29.110241" x="619.87569" y="571.528028"/><rect height="29.110241" rx="2.38144" width="29.110241" x="571.87569" y="571.528028"/><rect height="29.110241" rx="2.38144" width="29.110241" x="523.87569" y="571.528028"/><rect height="29.110241" rx="2.38144" width="29.110241" x="139.87569" y="571.528028"/><rect height="29.110241" rx="2.38144" width="29.110241" x="763.87571" y="571.528028"/></g><g><rect height="29.110241" rx="2.38144" width="29.110241" x="463.87569" y="525.528028"/><rect height="29.110241" rx="2.38144" width="29.110241" x="415.87569" y="525.528028"/><rect height="29.110241" rx="2.38144" width="29.110241" x="367.87569" y="525.528028"/><rect height="29.110241" rx="2.38144" width="29.110241" x="319.87569" y="525.528028"/><rect height="29.110241" rx="2.38144" width="29.110241" x="271.87569" y="525.528028"/><rect height="29.110241" rx="2.38144" width="29.110241" x="223.87569" y="525.528028"/><rect height="29.110241" rx="2.38144" width="29.110241" x="175.87569" y="525.528028"/><rect height="29.110241" rx="2.38144" width="29.110241" x="607.87569" y="525.528028"/><rect height="29.110241" rx="2.38144" width="29.110241" x="559.87569" y="525.528028"/><rect height="29.110241" rx="2.38144" width="29.110241" x="511.87569" y="525.528028"/><rect height="29.110241" rx="2.38144" width="29.110241" x="127.87569" y="525.528028"/><rect height="29.110241" rx="2.38144" width="29.110241" x="751.87571" y="525.528028"/><rect height="29.110241" rx="2.38144" width="29.110241" x="703.87569" y="525.528028"/><rect height="29.110241" rx="2.38144" width="29.110241" x="655.87569" y="525.528028"/></g><g><rect height="29.110241" rx="2.38144" width="29.110241" x="487.87569" y="479.528028"/><rect height="29.110241" rx="2.38144" width="29.110241" x="439.87569" y="479.528028"/><rect height="29.110241" rx="2.38144" width="29.110241" x="391.87569" y="479.528028"/><rect height="29.110241" rx="2.38144" width="29.110241" x="343.87569" y="479.528028"/><rect height="29.110241" rx="2.38144" width="29.110241" x="295.87569" y="479.528028"/><rect height="29.110241" rx="2.38144" width="29.110241" x="247.87569" y="479.528028"/><rect height="29.110241" rx="2.38144" width="29.110241" x="199.87569" y="479.528028"/><rect height="29.110241" rx="2.38144" width="29.110241" x="631.87569" y="479.528028"/><rect height="29.110241" rx="2.38144" width="29.110241" x="583.87569" y="479.528028"/><rect height="29.110241" rx="2.38144" width="29.110241" x="535.87569" y="479.528028"/><rect height="29.110241" rx="2.38144" width="29.110241" x="151.87569" y="479.528028"/><rect height="29.110241" rx="2.38144" width="29.110241" x="727.87569" y="479.528028"/><rect height="29.110241" rx="2.38144" width="29.110241" x="679.87569" y="479.528028"/></g></g></g></svg>