<svg height="355.60156" viewBox="0 0 3134.9054 1884.6883" width="591.49158" xmlns="http://www.w3.org/2000/svg"><g fill="#f4f4f4" fill-opacity=".5" transform="translate(-65.812218 -239.23553)"><path d="m1759.1543 970.32851q0 .32-.077.53867-.1146.32533-.368.32533-.168 0-.352-.0773-.2213-.0933-.2426-.22934.075 0 .176.0267.2346.0613.2933.0613.2267 0 .3413-.22666.091-.18134.091-.43467 0-.17867-.1173-.50934-.1147-.33333-.1147-.464 0-.04.021-.064.024-.0267.064-.0267.104 0 .2027.48.083.40533.083.6z"/><path d="m1760.1809 970.60051q0 .272-.1573.42667-.1573.15466-.4347.15466-.152 0-.2346-.072-.083-.072-.083-.22133 0-.21067.2747-.424.2613-.20267.4826-.20267.1014 0 .1334.12533.019.072.019.21334zm-.1626.0747q0-.032-.01-.0613-.01-.032-.021-.072-.043.0293-.1413.144-.051.0587-.088.0853 0-.0507.011-.0827.021-.0453.035-.0773-.1173 0-.2453.0987-.1253.0987-.1253.21334 0 .0773.085.0773.1627 0 .3147-.08.184-.096.184-.24533z"/><path d="m1761.2796 970.70984q0 .13067-.099.29334-.112.184-.232.184-.035 0-.059-.0373-.021-.04-.021-.0773 0-.048.1014-.14933.104-.104.104-.14134 0-.024-.01-.048-.01-.024-.011-.032-.2.0453-.408.22934-.2053.184-.312.208-.021-.0587-.021-.12 0-.0747.035-.15734.024-.0587.08-.14133.093-.14133.1974-.32.053-.0933.184-.32267.1333-.22933.1946-.32533.032-.048.056-.072.035-.032.083-.0427.032.0107.045.04.016.0293.016.0693 0 .0907-.1173.24534-.2133.27733-.2187.288-.12.18133-.12.328l.01.0267q.1466-.072.1733-.0827.1093-.0453.1867-.0453.085 0 .1253.0587.04.056.04.144z"/><path d="m1762.5169 970.55251q0 .18133-.088.38667-.096.22666-.2373.312-.029-.0347-.051-.0773-.019-.0427-.019-.0853 0-.0453.1333-.26933.059-.0987.053-.17334v-.0347q-.099.0293-.3414.17866-.24.14667-.4853.29867-.037 0-.069-.0267-.029-.0293-.029-.064 0-.056.1787-.376.053-.096.192-.33333.043.056.056.12533.013.0667.013.16 0 .04 0 .0613.2454-.14667.384-.22134.152-.0827.208-.0827.037 0 .069.0853.035.0853.035.136z"/><path d="m1764.8343 971.06984q0 .048-.043.0747-.04.024-.091.024-.045 0-.1146-.0107-.1574-.024-.2027-.024-.08 0-.3147.0187-.1333.0107-.192.0107-.1626 0-.1626-.16267 0-.15467.1013-.44267.056-.16267.2107-.53333.1386-.33334.176-.46934.013-.0427.021-.056.021-.032.053-.032.051 0 .085.0747.035.072.035.13067 0 .0933-.1093.31466-.1093.21867-.2133.42934-.1147.25067-.1147.38133 0 .0667.056.0933.04.0187.1173.0187.059 0 .2027-.0133.144-.016.192-.016.12 0 .1973.0347.1094.048.1094.15466z"/><path d="m1765.8263 970.60051q0 .272-.1574.42667-.1573.15466-.4346.15466-.152 0-.2347-.072-.083-.072-.083-.22133 0-.21067.2747-.424.2613-.20267.4827-.20267.1013 0 .1333.12533.019.072.019.21334zm-.1627.0747q0-.032-.01-.0613-.01-.032-.021-.072-.043.0293-.1414.144-.051.0587-.088.0853 0-.0507.011-.0827.021-.0453.035-.0773-.1174 0-.2454.0987-.1253.0987-.1253.21334 0 .0773.085.0773.1627 0 .3147-.08.184-.096.184-.24533z"/><path d="m1766.9489 970.54451q0 .0853-.045.18133-.043.096-.1093.16v-.0373q0-.032.01-.0987.01-.0667.01-.0987 0-.0453-.013-.0667-.013-.024-.056-.024-.1254 0-.312.19467-.2027.21333-.4027.424-.016 0-.032-.003-.04-.0107-.053-.0133.01-.096.067-.21334.1574-.31733.1627-.33866.021-.0853.032-.12534.011-.04.029-.0827.021-.0453.048-.08.029-.0373.075-.056l.027.32001q.1146-.0933.176-.14401.1173-.0933.2026-.0933.085 0 .1387.056.053.056.053.13867z"/><path d="m1768.2583 970.23517q0 .112-.2987.29601-.288.176-.4187.176-.061 0-.083-.0427-.019-.0427-.019-.12 0-.0507 0-.072.1787 0 .3253-.0533.1467-.0533.256-.176-.08-.0293-.1626-.0293-.1947 0-.4134.14933-.24.16267-.24.34667 0 .176.24.24534.037.0107.4507.0747.2427.0373.2427.13067 0 .04-.088.064-.088.0267-.224.0267-.3414 0-.5387-.104-.2613-.13867-.2613-.44534 0-.32.32-.50933.272-.16.6186-.16.104 0 .1894.048.104.0587.104.15466z"/><path d="m1769.3196 969.75784q0 .0587-.1413.24533-.1414.18667-.1414.28534 0 .0507.059.10133.1333.11734.1333.144 0 .0347-.024.0667-.021.032-.056.032-.029 0-.083-.032-.037-.0213-.144-.104-.04.0773-.061.11733-.075.14134-.1013.20534-.04.12266-.08.24533-.069.16533-.1733.16533v-.0613q0-.18933.1227-.448.024-.048.1333-.248-.2107-.11467-.464-.11467 0-.0987.04-.144.043-.048.1413-.048.091 0 .2267.032.067.016.1333.032.051-.016.1387-.17333.216-.37867.2933-.43467.021.0347.035.0693.016.0347.016.0667z"/><path d="m1770.3036 970.70984q0 .13067-.099.29334-.112.184-.232.184-.035 0-.059-.0373-.021-.04-.021-.0773 0-.048.1014-.14933.104-.104.104-.14134 0-.024-.01-.048-.01-.024-.011-.032-.2.0453-.408.22934-.2053.184-.312.208-.021-.0587-.021-.12 0-.0747.035-.15734.024-.0587.08-.14133.093-.14133.1974-.32.053-.0933.184-.32267.1333-.22933.1946-.32533.032-.048.056-.072.035-.032.083-.0427.032.0107.045.04.016.0293.016.0693 0 .0907-.1173.24534-.2133.27733-.2187.288-.12.18133-.12.328l.01.0267q.1466-.072.1733-.0827.1093-.0453.1867-.0453.085 0 .1253.0587.04.056.04.144z"/><path d="m1772.4929 969.84051q0 .12533-.1333.336-.085.13333-.28.384-.1947.248-.2427.32533.01.003.2.064.1947.0587.1947.21334-.08.0133-.1573.024l-.029-.003v-.0213q-.043-.0107-.069-.0107-.051 0-.16.016-.1093.016-.1653.016-.072 0-.1174-.0267-.045-.0267-.045-.096 0-.056.2053-.31733.384-.488.3867-.49334.208-.28266.208-.37866 0-.0373-.027-.056-.024-.0187-.099-.0187-.051 0-.2107.0987-.077.048-.1253.048l-.045-.008q-.016-.0107-.035-.04-.019-.032-.019-.0507 0-.112.216-.20533.184-.08.32-.08.1147 0 .176.0853.053.0747.053.19467z"/><path d="m1774.0956 970.32051q0 .32267-.3493.57067-.32.22666-.6587.22666-.168 0-.2667-.0853-.099-.0853-.099-.248 0-.36267.3173-.62934.3013-.25333.6747-.25333.1893 0 .2853.112.096.112.096.30667zm-.1627.0613q0-.12267-.1386-.184-.104-.0453-.248-.0453-.2107 0-.44.20533-.2294.20534-.2294.41334 0 .0853.043.12266.045.0347.136.0347.2613 0 .544-.144.3333-.17067.3333-.40267z"/><path d="m1775.317 969.84051q0 .12533-.1334.336-.085.13333-.28.384-.1946.248-.2426.32533.01.003.2.064.1946.0587.1946.21334-.08.0133-.1573.024l-.029-.003v-.0213q-.043-.0107-.069-.0107-.051 0-.16.016-.1093.016-.1653.016-.072 0-.1173-.0267-.045-.0267-.045-.096 0-.056.2054-.31733.384-.488.3866-.49334.208-.28266.208-.37866 0-.0373-.027-.056-.024-.0187-.099-.0187-.051 0-.2107.0987-.077.048-.1253.048l-.045-.008q-.016-.0107-.035-.04-.019-.032-.019-.0507 0-.112.216-.20533.184-.08.32-.08.1147 0 .176.0853.053.0747.053.19467z"/><path d="m1776.5436 969.84051q0 .12533-.1333.336-.085.13333-.28.384-.1947.248-.2427.32533.01.003.2.064.1947.0587.1947.21334-.08.0133-.1574.024l-.029-.003v-.0213q-.043-.0107-.069-.0107-.051 0-.16.016-.1094.016-.1654.016-.072 0-.1173-.0267-.045-.0267-.045-.096 0-.056.2053-.31733.384-.488.3867-.49334.208-.28266.208-.37866 0-.0373-.027-.056-.024-.0187-.099-.0187-.051 0-.2106.0987-.077.048-.1254.048l-.045-.008q-.016-.0107-.035-.04-.019-.032-.019-.0507 0-.112.216-.20533.184-.08.32-.08.1147 0 .176.0853.053.0747.053.19467z"/></g><g fill="none" stroke="#f4f4f4"><g transform="translate(-65.812218 -239.23553)"><g stroke-width="10.6"><path d="m1633.7138 2122.9238h1550.4849c8.5975 0 15.5189-6.9214 15.5189-15.5188v-1726.07144c0-8.59745-6.9214-15.51886-15.5189-15.51886h-132.668l.031-6v-72.67871h-52.1966m-1366.5491 1835.78781h-1550.484921c-8.597449 0-15.518861-6.9214-15.518861-15.5188v-1726.07144c0-8.59745 6.921412-15.51886 15.518861-15.51886h132.605381l.0314-8v-70.67871h32.54803"/><path d="m1632.6925 2019.4722h1479.6541c8.5975 0 15.5189-6.9215 15.5189-15.5189v-1636.6197m-1494.0282 1652.1386h-1479.65414c-8.59747 0-15.5189-6.9215-15.5189-15.5189v-1636.6197"/><path d="m1633.2649 860.2576h1434.3137c8.5975 0 15.5189-6.92143 15.5189-15.5189v-479.40513m-1449.8326 494.92403h-1434.31375c-8.59747 0-15.5189-6.92143-15.5189-15.5189v-479.40513"/></g><path d="m34.283721 9.0378225.0293-.0000001m4.812497-.0000001 6.13086.0000002m4.812502.0000002 6.130861.0000001m4.814452.0000001 6.128906-.0000003m4.814452-.0000002 6.128911.0000003m4.814453.0000002h6.128909m4.814451-.0000002h6.128909m4.814456-.0000001 6.1289-.0000003m4.81445-.0000002h6.12891m4.81445-.0000002 6.12891.0000001m4.81445.0000002 6.12891.0000002m4.81445 0 6.12891.0000001m4.81446 0 6.1289.0000001m4.81446-.0000001 6.12891.0000001m4.81445.0000001 6.1289-.0000002m4.81446-.0000001 6.1289-.0000003m4.81444-.0000001 6.12893.0000003m4.81445.0000001 6.1289-.0000002m4.81446 0h6.12891m4.81444-.0000002h6.1289m4.81447 0h6.1289m15.75782.0000002 6.1289-.0000002m4.81446-.0000001 6.1289-.0000002m4.81445.0000001 6.12892-.0000001m4.81445.0000001 6.12889.0000001m4.81448-.0000001 6.1289.0000003m4.81444-.0000002 6.12891-.0000002m4.81446.0000002 6.12891-.0000002m4.81444-.0000001 6.12893.0000003m4.81445 0 6.12888-.0000002m4.81448.0000001 6.12889-.0000002m4.81445.0000002h6.12892m4.81445 0 6.12891-.0000002m4.81446.0000003 6.12892-.0000001m4.81445.0000002 6.1289.0000001m4.81448 0 6.12889.0000001m4.81445.0000001 6.12891-.0000003m4.81444-.0000002 6.12891-.0000001m4.81446.0000002 6.1289.0000001m4.81447-.0000001h6.12889m4.81446.0000003 6.12892-.0000001m4.81445.0000002 6.12891-.0000002m4.81445 0h6.12892m4.81445 0 6.12888-.0000001m4.8145.0000003 6.1289.0000002m4.81444-.0000001h6.12892m4.81445.0000001h6.12892m4.81445 0h.0351m-295.25039-.0583524h6.1289" stroke-width="2" transform="matrix(5.3000001 0 0 5.3000001 65.812218 239.23553)"/><g stroke-width="5.3"><path d="m1581.6641 239.73553h25.516346v462.7981h-25.516346z"/><path d="m1523.6641 239.73553h25.516346v462.7981h-25.516346z"/><path d="m1465.6641 239.73553h25.516346v462.7981h-25.516346z"/><path d="m1407.6641 239.73553h25.516346v462.7981h-25.516346z"/><path d="m1349.6641 239.73553h25.516346v462.7981h-25.516346z"/><path d="m1291.6641 239.73553h25.516346v462.7981h-25.516346z"/><path d="m1233.6641 239.73553h25.516346v462.7981h-25.516346z"/><path d="m1175.6641 239.73553h25.516346v462.7981h-25.516346z"/><path d="m1117.6641 239.73553h25.516346v462.7981h-25.516346z"/><path d="m1059.6641 239.73553h25.516346v462.7981h-25.516346z"/><path d="m1001.6641 239.73553h25.516346v462.7981h-25.516346z"/><path d="m943.66412 239.73553h25.516346v462.7981h-25.516346z"/><path d="m885.66412 239.73553h25.516346v462.7981h-25.516346z"/><path d="m827.66412 239.73553h25.516346v462.7981h-25.516346z"/><path d="m769.66412 239.73553h25.516346v462.7981h-25.516346z"/><path d="m711.66412 239.73553h25.516346v462.7981h-25.516346z"/><path d="m653.66412 239.73553h25.516346v462.7981h-25.516346z"/><path d="m595.66412 239.73553h25.516346v462.7981h-25.516346z"/><path d="m537.66412 239.73553h25.516346v462.7981h-25.516346z"/><path d="m479.66412 239.73553h25.516346v462.7981h-25.516346z"/><path d="m421.66412 239.73553h25.516346v462.7981h-25.516346z"/><path d="m363.66412 239.73553h25.516346v462.7981h-25.516346z"/><path d="m305.66412 239.73553h25.516346v462.7981h-25.516346z"/><path d="m247.66412 239.73553h25.516346v462.7981h-25.516346z"/><path d="m2973.6641 239.73553h25.516346v462.7981h-25.516346z"/><path d="m2915.6641 239.73553h25.516346v462.7981h-25.516346z"/><path d="m2857.6641 239.73553h25.516346v462.7981h-25.516346z"/><path d="m2799.6641 239.73553h25.516346v462.7981h-25.516346z"/><path d="m2741.6641 239.73553h25.516346v462.7981h-25.516346z"/><path d="m2683.6641 239.73553h25.516346v462.7981h-25.516346z"/><path d="m2625.6641 239.73553h25.516346v462.7981h-25.516346z"/><path d="m2567.6641 239.73553h25.516346v462.7981h-25.516346z"/><path d="m2509.6641 239.73553h25.516346v462.7981h-25.516346z"/><path d="m2451.6641 239.73553h25.516346v462.7981h-25.516346z"/><path d="m2393.6641 239.73553h25.516346v462.7981h-25.516346z"/><path d="m2335.6641 239.73553h25.516346v462.7981h-25.516346z"/><path d="m2277.6641 239.73553h25.516346v462.7981h-25.516346z"/><path d="m2219.6641 239.73553h25.516346v462.7981h-25.516346z"/><path d="m2161.6641 239.73553h25.516346v462.7981h-25.516346z"/><path d="m2103.6641 239.73553h25.516346v462.7981h-25.516346z"/><path d="m2045.6641 239.73553h25.516346v462.7981h-25.516346z"/><path d="m1987.6641 239.73553h25.516346v462.7981h-25.516346z"/><path d="m1929.6641 239.73553h25.516346v462.7981h-25.516346z"/><path d="m1871.6641 239.73553h25.516346v462.7981h-25.516346z"/><path d="m1813.6641 239.73553h25.516346v462.7981h-25.516346z"/><path d="m1755.6641 239.73553h25.516346v462.7981h-25.516346z"/><path d="m1697.6641 239.73553h25.516346v462.7981h-25.516346z"/><path d="m1639.6641 239.73553h25.516346v462.7981h-25.516346z"/></g><rect height="85.467995" rx="8.260209" stroke-width="5.3" width="1437.8104" x="352.20926" y="736.71667"/></g><rect height="138" rx="8.26021" stroke-width="10.6" width="1593.9999" x="768.136212" y="1572.64127"/><g stroke-width="10.6"><rect height="138" rx="8.26021" width="138" x="1496.136482" y="1388.64127"/><rect height="138" rx="8.26021" width="138" x="1314.136482" y="1388.64127"/><rect height="138" rx="8.26021" width="138" x="1132.136482" y="1388.64127"/><rect height="138" rx="8.26021" width="138" x="950.136482" y="1388.64127"/><rect height="138" rx="8.26021" width="138" x="768.136512" y="1388.64127"/><rect height="138" rx="8.26021" width="138" x="586.136512" y="1388.64127"/><rect height="138" rx="8.26021" width="234" x="308.136512" y="1388.64127"/><rect height="138" rx="8.26021" width="138" x="126.136512" y="1388.64127"/><rect height="138" rx="8.26021" width="239.19127" x="2406.136482" y="1388.64127"/><rect height="138" rx="8.26021" width="138" x="2224.136482" y="1388.64127"/><rect height="138" rx="8.26021" width="138" x="2042.136482" y="1388.64127"/><rect height="138" rx="8.26021" width="138" x="1860.136482" y="1388.64127"/><rect height="138" rx="8.26021" width="138" x="1678.136482" y="1388.64127"/></g><g stroke-width="10.6"><rect height="138" rx="8.26021" width="138" x="1582.136482" y="1206.64127"/><rect height="138" rx="8.26021" width="138" x="1400.136482" y="1206.64127"/><rect height="138" rx="8.26021" width="138" x="1218.136482" y="1206.64127"/><rect height="138" rx="8.26021" width="138" x="1036.136482" y="1206.64127"/><rect height="138" rx="8.26021" width="138" x="854.136512" y="1206.64127"/><rect height="138" rx="8.26021" width="138" x="672.136512" y="1206.64127"/><rect height="138" rx="8.26021" width="138" x="490.136512" y="1206.64127"/><rect height="138" rx="8.26021" width="138" x="308.136512" y="1206.64127"/><rect height="138" rx="8.26021" width="305.62985" x="2492.136482" y="1206.64127"/><rect height="138" rx="8.26021" width="138" x="2310.136482" y="1206.64127"/><rect height="138" rx="8.26021" width="138" x="2128.136482" y="1206.64127"/><rect height="138" rx="8.26021" width="138" x="1946.136482" y="1206.64127"/><rect height="138" rx="8.26021" width="138" x="1764.136482" y="1206.64127"/><rect height="138" rx="8.26021" width="138" x="126.136512" y="1206.64127"/></g><g stroke-width="10.6"><rect height="138" rx="8.26021" width="138" x="1676.136482" y="1024.64127"/><rect height="138" rx="8.26021" width="138" x="1494.136482" y="1024.64127"/><rect height="138" rx="8.26021" width="138" x="1312.136482" y="1024.64127"/><rect height="138" rx="8.26021" width="138" x="1130.136482" y="1024.64127"/><rect height="138" rx="8.26021" width="138" x="948.136512" y="1024.64127"/><rect height="138" rx="8.26021" width="138" x="766.136512" y="1024.64127"/><rect height="138" rx="8.26021" width="138" x="584.136512" y="1024.64127"/><rect height="138" rx="8.26021" width="138" x="402.136512" y="1024.64127"/><rect height="138" rx="8.26021" width="138" x="2586.136482" y="1024.64127"/><rect height="138" rx="8.26021" width="138" x="2404.136482" y="1024.64127"/><rect height="138" rx="8.26021" width="138" x="2222.136482" y="1024.64127"/><rect height="138" rx="8.26021" width="138" x="2040.136482" y="1024.64127"/><rect height="138" rx="8.26021" width="138" x="1858.136482" y="1024.64127"/><rect height="138" rx="8.26021" width="232" x="126.136506" y="1024.64127"/><rect height="138" rx="8.26021" width="231.99997" x="2768.136482" y="1024.64127"/></g><g stroke-width="10.6"><rect height="138" rx="8.26021" width="138" x="1770.136482" y="842.64127"/><rect height="138" rx="8.26021" width="138" x="1588.136482" y="842.64127"/><rect height="138" rx="8.26021" width="138" x="1406.136482" y="842.64127"/><rect height="138" rx="8.26021" width="138" x="1224.136482" y="842.64127"/><rect height="138" rx="8.26021" width="138" x="1042.136512" y="842.64127"/><rect height="138" rx="8.26021" width="138" x="860.136512" y="842.64127"/><rect height="138" rx="8.26021" width="138" x="678.136512" y="842.64127"/><rect height="138" rx="8.26021" width="138" x="496.136512" y="842.64127"/><rect height="138" rx="8.26021" width="138" x="2680.136482" y="842.64127"/><rect height="138" rx="8.26021" width="138" x="2498.136482" y="842.64127"/><rect height="138" rx="8.26021" width="138" x="2316.136482" y="842.64127"/><rect height="138" rx="8.26021" width="138" x="2134.136482" y="842.64127"/><rect height="138" rx="8.26021" width="138" x="1952.136482" y="842.64127"/><rect height="138" rx="8.26021" width="138" x="2862.136482" y="842.64127"/><rect height="138" rx="8.26021" width="140.58749" x="311.549012" y="842.64127"/><rect height="138" rx="8.26021" width="140.58749" x="126.136512" y="842.64127"/></g><g stroke-width="5.3" transform="translate(-65.812218 -239.23553)"><path d="m2938.4707 1739.1863v-27.4101l27.4101 27.4101 18.8171-18.8171-1.9099-1.9547-18.5282-18.9204-38.9493-39.6933-38.9492 39.6933-18.4986 18.8903-1.8581 2.0673 18.7346 18.7346 28.9855-28.9855.2733 28.9855m0-.0008v38.4727h24.4727v-38.4727"/><path d="m2912.2603 1895.8449v27.4101l-27.4101-27.4101-18.8171 18.8171 1.9099 1.9547 18.5282 18.9204 38.9493 39.6933 38.9492-39.6933 18.4986-18.8903 1.8581-2.0673-18.7346-18.7346-28.9855 28.9855-.2733-28.9855m0 .0008v-38.4727h-24.4727v38.4727"/><path d="m2846.0362 1803.4104h-27.4101l27.4101-27.4101-18.8171-18.8171-1.9547 1.9099-18.9204 18.5282-39.6933 38.9493 39.6933 38.9492 18.8903 18.4986 2.0673 1.8581 18.7346-18.7346-28.9855-28.9855 28.9855-.2733m-.0008 0h38.4727v-24.4727h-38.4727"/><path d="m3004.6948 1803.4104h27.4101l-27.4101-27.4101 18.8171-18.8171 1.9547 1.9099 18.9204 18.5282 39.6933 38.9493-39.6933 38.9492-18.8903 18.4986-2.0673 1.8581-18.7346-18.7346 28.9855-28.9855-28.9855-.2733m.0008 0h-38.4727v-24.4727h38.4727"/></g><g stroke-width="5.3"><rect height="44.075191" rx="5.289301" width="306.78644" x="1409.137282" y="690.3592"/><rect height="44.075191" rx="5.289301" width="306.78644" x="1047.137282" y="690.3592"/><rect height="44.075191" rx="5.289301" width="306.78644" x="685.137302" y="690.3592"/><rect height="44.075191" rx="5.289301" width="306.78644" x="323.137302" y="690.3592"/></g><g stroke-width="5.3" transform="translate(-65.812218 -239.23553)"><path d="m2938.4707 1739.1863v-27.4101l27.4101 27.4101 18.8171-18.8171-1.9099-1.9547-18.5282-18.9204-38.9493-39.6933-38.9492 39.6933-18.4986 18.8903-1.8581 2.0673 18.7346 18.7346 28.9855-28.9855.2733 28.9855m0-.0008v38.4727h24.4727v-38.4727"/><path d="m2912.2603 1895.8449v27.4101l-27.4101-27.4101-18.8171 18.8171 1.9099 1.9547 18.5282 18.9204 38.9493 39.6933 38.9492-39.6933 18.4986-18.8903 1.8581-2.0673-18.7346-18.7346-28.9855 28.9855-.2733-28.9855m0 .0008v-38.4727h-24.4727v38.4727"/><path d="m2846.0362 1803.4104h-27.4101l27.4101-27.4101-18.8171-18.8171-1.9547 1.9099-18.9204 18.5282-39.6933 38.9493 39.6933 38.9492 18.8903 18.4986 2.0673 1.8581 18.7346-18.7346-28.9855-28.9855 28.9855-.2733m-.0008 0h38.4727v-24.4727h-38.4727"/><path d="m3004.6948 1803.4104h27.4101l-27.4101-27.4101 18.8171-18.8171 1.9547 1.9099 18.9204 18.5282 39.6933 38.9493-39.6933 38.9492-18.8903 18.4986-2.0673 1.8581-18.7346-18.7346 28.9855-28.9855-28.9855-.2733m.0008 0h-38.4727v-24.4727h38.4727"/></g><g stroke-width="5.3"><rect height="44.075191" rx="5.289301" width="306.78644" x="1409.137282" y="690.3592"/><rect height="44.075191" rx="5.289301" width="306.78644" x="1047.137282" y="690.3592"/><rect height="44.075191" rx="5.289301" width="306.78644" x="685.137302" y="690.3592"/><rect height="44.075191" rx="5.289301" width="306.78644" x="323.137302" y="690.3592"/></g></g></svg>