<svg height="366.19971" viewBox="0 0 127.61794 256.3398" width="182.31134" xmlns="http://www.w3.org/2000/svg"><g fill="#f4f4f4" fill-opacity=".5" stroke-width=".7" transform="translate(-7.981479 -8.990357)"><path d="m93.896335 262.6817q0 .168-.0406.2828-.0602.1708-.1932.1708-.0882 0-.1848-.0406-.1162-.049-.1274-.1204.0392 0 .0924.014.1232.0322.154.0322.119 0 .1792-.119.0476-.0952.0476-.2282 0-.0938-.0616-.2674-.0602-.175-.0602-.2436 0-.021.0112-.0336.0126-.014.0336-.014.0546 0 .1064.252.0434.2128.0434.315z"/><path d="m94.435336 262.8245q0 .1428-.0826.224-.0826.0812-.2282.0812-.0798 0-.1232-.0378-.0434-.0378-.0434-.1162 0-.1106.1442-.2226.1372-.1064.2534-.1064.0532 0 .07.0658.0098.0378.0098.112zm-.0854.0392q0-.0168-.0042-.0322-.0028-.0168-.0112-.0378-.0224.0154-.0742.0756-.0266.0308-.0462.0448 0-.0266.0056-.0434.0112-.0238.0182-.0406-.0616 0-.1288.0518-.0658.0518-.0658.112 0 .0406.0448.0406.0854 0 .1652-.042.0966-.0504.0966-.1288z"/><path d="m95.012135 262.8819q0 .0686-.0518.154-.0588.0966-.1218.0966-.0182 0-.0308-.0196-.0112-.021-.0112-.0406 0-.0252.0532-.0784.0546-.0546.0546-.0742 0-.0126-.0042-.0252-.0042-.0126-.0056-.0168-.105.0238-.2142.1204-.1078.0966-.1638.1092-.0112-.0308-.0112-.063 0-.0392.0182-.0826.0126-.0308.042-.0742.049-.0742.1036-.168.028-.049.0966-.1694.07-.1204.1022-.1708.0168-.0252.0294-.0378.0182-.0168.0434-.0224.0168.006.0238.021.0084.0154.0084.0364 0 .0476-.0616.1288-.112.1456-.1148.1512-.063.0952-.063.1722l.0028.014q.077-.0378.091-.0434.0574-.0238.098-.0238.0448 0 .0658.0308.021.0294.021.0756z"/><path d="m95.661737 262.7993q0 .0952-.0462.203-.0504.119-.1246.1638-.0154-.0182-.0266-.0406-.0098-.0224-.0098-.0448 0-.0238.07-.1414.0308-.0518.028-.091l-.0014-.0182q-.0518.0154-.1792.0938-.126.077-.2548.1568-.0196 0-.0364-.014-.0154-.0154-.0154-.0336 0-.0294.0938-.1974.028-.0504.1008-.175.0224.0294.0294.0658.007.035.007.084 0 .021 0 .0322.1288-.077.2016-.1162.0798-.0434.1092-.0434.0196 0 .0364.0448.0182.0448.0182.0714z"/><path d="m96.878336 263.0709q0 .0252-.0224.0392-.021.0126-.0476.0126-.0238 0-.0602-.006-.0826-.0126-.1064-.0126-.042 0-.1652.01-.07.006-.1008.006-.0854 0-.0854-.0854 0-.0812.0532-.2324.0294-.0854.1106-.28.0728-.175.0924-.2464.007-.0224.0112-.0294.0112-.0168.028-.0168.0266 0 .0448.0392.0182.0378.0182.0686 0 .049-.0574.1652-.0574.1148-.112.2254-.0602.1316-.0602.2002 0 .035.0294.049.021.01.0616.01.0308 0 .1064-.007.0756-.008.1008-.008.063 0 .1036.0182.0574.0252.0574.0812z"/><path d="m97.399136 262.8245q0 .1428-.0826.224-.0826.0812-.2282.0812-.0798 0-.1232-.0378-.0434-.0378-.0434-.1162 0-.1106.1442-.2226.1372-.1064.2534-.1064.0532 0 .07.0658.0098.0378.0098.112zm-.0854.0392q0-.0168-.0042-.0322-.0028-.0168-.0112-.0378-.0224.0154-.0742.0756-.0266.0308-.0462.0448 0-.0266.0056-.0434.0112-.0238.0182-.0406-.0616 0-.1288.0518-.0658.0518-.0658.112 0 .0406.0448.0406.0854 0 .1652-.042.0966-.0504.0966-.1288z"/><path d="m97.988536 262.7951q0 .0448-.0238.0952-.0224.0504-.0574.084l-.0014-.0196q0-.0168.0042-.0518.0042-.035.0042-.0518 0-.0238-.007-.035-.007-.0126-.0294-.0126-.0658 0-.1638.1022-.1064.112-.2114.2226-.0084 0-.0168-.001-.021-.006-.028-.007.0042-.0504.035-.112.0826-.1666.0854-.1778.0112-.0448.0168-.0658.0056-.021.0154-.0434.0112-.0238.0252-.042.0154-.0196.0392-.0294l.014.168q.0602-.049.0924-.0756.0616-.049.1064-.049.0448 0 .0728.0294.028.0294.028.0728z"/><path d="m98.675937 262.6327q0 .0588-.1568.1554-.1512.0924-.2198.0924-.0322 0-.0434-.0224-.0098-.0224-.0098-.063 0-.0266 0-.0378.0938 0 .1708-.028.077-.028.1344-.0924-.042-.0154-.0854-.0154-.1022 0-.217.0784-.126.0854-.126.182 0 .0924.126.1288.0196.006.2366.0392.1274.0196.1274.0686 0 .021-.0462.0336-.0462.014-.1176.014-.1792 0-.2828-.0546-.1372-.0728-.1372-.2338 0-.168.168-.2674.1428-.084.3248-.084.0546 0 .0994.0252.0546.0308.0546.0812z"/><path d="m99.233138 262.3821q0 .0308-.0742.1288-.0742.098-.0742.1498 0 .0266.0308.0532.07.0616.07.0756 0 .0182-.0126.035-.0112.0168-.0294.0168-.0154 0-.0434-.0168-.0196-.0112-.0756-.0546-.021.0406-.0322.0616-.0392.0742-.0532.1078-.021.0644-.042.1288-.0364.0868-.091.0868l-.0014-.0322q0-.0994.0644-.2352.0126-.0252.07-.1302-.1106-.0602-.2436-.0602 0-.0518.021-.0756.0224-.0252.0742-.0252.0476 0 .119.0168.035.008.07.0168.0266-.008.0728-.091.1134-.1988.154-.2282.0112.0182.0182.0364.0084.0182.0084.035z"/><path d="m99.749739 262.8819q0 .0686-.0518.154-.0588.0966-.1218.0966-.0182 0-.0308-.0196-.0112-.021-.0112-.0406 0-.0252.0532-.0784.0546-.0546.0546-.0742 0-.0126-.0042-.0252-.0042-.0126-.0056-.0168-.105.0238-.2142.1204-.1078.0966-.1638.1092-.0112-.0308-.0112-.063 0-.0392.0182-.0826.0126-.0308.042-.0742.049-.0742.1036-.168.028-.049.0966-.1694.07-.1204.1022-.1708.0168-.0252.0294-.0378.0182-.0168.0434-.0224.0168.006.0238.021.0084.0154.0084.0364 0 .0476-.0616.1288-.112.1456-.1148.1512-.063.0952-.063.1722l.0028.014q.077-.0378.091-.0434.0574-.0238.098-.0238.0448 0 .0658.0308.021.0294.021.0756z"/><path d="m100.89914 262.4255q0 .0658-.07.1764-.0448.07-.147.2016-.1022.1302-.1274.1708.004.001.105.0336.1022.0308.1022.112-.042.007-.0826.0126l-.0154-.001v-.0112q-.0224-.006-.0364-.006-.0266 0-.084.008-.0574.008-.0868.008-.0378 0-.0616-.014-.0238-.014-.0238-.0504 0-.0294.1078-.1666.2016-.2562.203-.259.1092-.1484.1092-.1988 0-.0196-.014-.0294-.0126-.01-.0518-.01-.0266 0-.1106.0518-.0406.0252-.0658.0252l-.0238-.004q-.008-.006-.0182-.021-.01-.0168-.01-.0266 0-.0588.1134-.1078.0966-.042.168-.042.0602 0 .0924.0448.028.0392.028.1022z"/><path d="m101.74054 262.6775q0 .1694-.1834.2996-.168.119-.3458.119-.0882 0-.14-.0448-.0518-.0448-.0518-.1302 0-.1904.1666-.3304.1582-.133.3542-.133.0994 0 .1498.0588.0504.0588.0504.161zm-.0854.0322q0-.0644-.0728-.0966-.0546-.0238-.1302-.0238-.1106 0-.231.1078-.1204.1078-.1204.217 0 .0448.0224.0644.0238.0182.0714.0182.1372 0 .2856-.0756.175-.0896.175-.2114z"/><path d="m102.38174 262.4255q0 .0658-.07.1764-.0448.07-.147.2016-.1022.1302-.1274.1708.004.001.105.0336.1022.0308.1022.112-.042.007-.0826.0126l-.0154-.001v-.0112q-.0224-.006-.0364-.006-.0266 0-.084.008-.0574.008-.0868.008-.0378 0-.0616-.014-.0238-.014-.0238-.0504 0-.0294.1078-.1666.2016-.2562.203-.259.1092-.1484.1092-.1988 0-.0196-.014-.0294-.0126-.01-.0518-.01-.0266 0-.1106.0518-.0406.0252-.0658.0252l-.0238-.004q-.008-.006-.0182-.021-.01-.0168-.01-.0266 0-.0588.1134-.1078.0966-.042.168-.042.0602 0 .0924.0448.028.0392.028.1022z"/><path d="m103.02574 262.4255q0 .0658-.07.1764-.0448.07-.147.2016-.1022.1302-.1274.1708.004.001.105.0336.1022.0308.1022.112-.042.007-.0826.0126l-.0154-.001v-.0112q-.0224-.006-.0364-.006-.0266 0-.084.008-.0574.008-.0868.008-.0378 0-.0616-.014-.0238-.014-.0238-.0504 0-.0294.1078-.1666.2016-.2562.203-.259.1092-.1484.1092-.1988 0-.0196-.014-.0294-.0126-.01-.0518-.01-.0266 0-.1106.0518-.0406.0252-.0658.0252l-.0238-.004q-.008-.006-.0182-.021-.01-.0168-.01-.0266 0-.0588.1134-.1078.0966-.042.168-.042.0602 0 .0924.0448.028.0392.028.1022z"/></g><g fill="none" stroke="#f4f4f4"><g transform="translate(-7.981479 -8.990357)"><rect height="254.3398" opacity=".98" rx="3.304127" stroke-width="1.4" width="125.61794" x="8.981479" y="9.990357"/><path d="m121.75543 256.15213v-142.33562c.27454-9.06849-3.22736-10.28636-9.0504-10.5933h-41.071144m-50.121543 152.92892v-142.33562c-.274541-9.06849 3.227361-10.28636 9.050397-10.5933h41.071146" opacity=".98" stroke-width="1.4"/><path d="m121.75543 259.73163h-100.243087m100.243087-3.5795v7.96126m-100.243087-7.96126v8.19037" opacity=".98" stroke-width=".7"/><circle cx="71.960014" cy="55.934719" opacity=".98" r="28.5" stroke-width="1.4"/><path d="m68.771484 46.791016c-6.986508 0-13.34375 6.357241-13.34375 13.34375 0 6.986508 6.357242 13.34375 13.34375 13.34375 6.986509 0 13.34375-6.357242 13.34375-13.34375 0-6.986509-6.357241-13.34375-13.34375-13.34375z" opacity=".98" stroke-width=".7" transform="translate(3.187639 -4.2)"/></g><g stroke-width="1.4"><path d="m66.17147 225.740583h15.200007v18.800007h-15.200007z" opacity=".98"/><path d="m46.571449 225.740583h15.200007v18.800007h-15.200007z" opacity=".98"/><path d="m26.971423 225.740583h15.200007v18.800007h-15.200007z" opacity=".98"/><path d="m85.771491 225.740583h15.200007v18.800007h-15.200007z" opacity=".98"/><path d="m66.17147 201.740583h15.200007v18.800007h-15.200007z" opacity=".98"/><path d="m46.571449 201.740583h15.200007v18.800007h-15.200007z" opacity=".98"/><path d="m26.971423 201.740583h15.200007v18.800007h-15.200007z" opacity=".98"/><path d="m85.771491 201.740583h15.200007v18.800007h-15.200007z" opacity=".98"/><path d="m66.17147 177.740583h15.200007v18.800007h-15.200007z" opacity=".98"/><path d="m46.571449 177.740583h15.200007v18.800007h-15.200007z" opacity=".98"/><path d="m26.971423 177.740583h15.200007v18.800007h-15.200007z" opacity=".98"/><path d="m85.771491 177.740583h15.200007v18.800007h-15.200007z" opacity=".98"/><path d="m66.17147 153.740583h15.200007v18.800007h-15.200007z" opacity=".98"/><path d="m46.571449 153.740583h15.200007v18.800007h-15.200007z" opacity=".98"/><path d="m26.971423 153.740583h15.200007v18.800007h-15.200007z" opacity=".98"/><path d="m85.771491 153.740583h15.200007v18.800007h-15.200007z" opacity=".98"/><path d="m66.17147 129.740583h15.200007v18.800007h-15.200007z" opacity=".98"/><path d="m46.571449 129.740583h15.200007v18.800007h-15.200007z" opacity=".98"/><path d="m26.971423 129.740583h15.200007v18.800007h-15.200007z" opacity=".98"/><path d="m85.771491 129.740583h15.200007v18.800007h-15.200007z" opacity=".98"/><path d="m66.17147 105.740583h15.200007v18.800007h-15.200007z" opacity=".98"/><path d="m46.571449 105.740583h15.200007v18.800007h-15.200007z" opacity=".98"/><path d="m26.971423 105.740583h15.200007v18.800007h-15.200007z" opacity=".98"/><path d="m85.771491 105.740583h15.200007v18.800007h-15.200007z" opacity=".98"/></g></g></svg>