<?xml version="1.0" encoding="UTF-8" standalone="no"?>
<!-- Generator: Adobe Illustrator 22.0.1, SVG Export Plug-In . SVG Version: 6.00 Build 0)  -->

<svg
   xmlns:dc="http://purl.org/dc/elements/1.1/"
   xmlns:cc="http://creativecommons.org/ns#"
   xmlns:rdf="http://www.w3.org/1999/02/22-rdf-syntax-ns#"
   xmlns:svg="http://www.w3.org/2000/svg"
   xmlns="http://www.w3.org/2000/svg"
   xmlns:sodipodi="http://sodipodi.sourceforge.net/DTD/sodipodi-0.dtd"
   xmlns:inkscape="http://www.inkscape.org/namespaces/inkscape"
   version="1.1"
   id="Calque_1"
   x="0px"
   y="0px"
   viewBox="0 0 960 960"
   style="enable-background:new 0 0 960 960;"
   xml:space="preserve"
   sodipodi:docname="splash.svg"
   inkscape:version="0.92.4 (5da689c313, 2019-01-14)"><metadata
   id="metadata4050"><rdf:RDF><cc:Work
       rdf:about=""><dc:format>image/svg+xml</dc:format><dc:type
         rdf:resource="http://purl.org/dc/dcmitype/StillImage" /></cc:Work></rdf:RDF></metadata><defs
   id="defs4048" /><sodipodi:namedview
   pagecolor="#ffffff"
   bordercolor="#666666"
   borderopacity="1"
   objecttolerance="10"
   gridtolerance="10"
   guidetolerance="10"
   inkscape:pageopacity="0"
   inkscape:pageshadow="2"
   inkscape:window-width="1920"
   inkscape:window-height="1017"
   id="namedview4046"
   showgrid="false"
   inkscape:zoom="0.62461099"
   inkscape:cx="249.78057"
   inkscape:cy="410.6391"
   inkscape:window-x="1912"
   inkscape:window-y="-8"
   inkscape:window-maximized="1"
   inkscape:current-layer="Calque_1" />
<g
   id="g3973"
   transform="matrix(1.6048567,0,0,1.5326157,-143.9187,-231.73302)">
	
	
	
	
	
	
	
	
</g>

<g
   id="g4043"
   transform="matrix(1.6048567,0,0,1.5326157,-143.9187,-115.25423)">
	<path
   d="m 641.7,355.8 c 2.2,3.6 3.8,7.6 4.5,11.9 0.5,3.1 0.7,6.2 0.3,9.5 L 635,478.8 c -1.8,15.5 -16.4,26 -31.7,22.8 L 450.6,469.1 c -13.6,-2.9 -21.7,-17 -17.3,-30.3 l 27,-80.5 2.8,-8.5 c 0.6,-1.7 1.2,-3.3 2,-4.9 1.3,-2.6 2.8,-5.1 4.5,-7.3 3.9,-5 8.9,-9 14.5,-11.7 l -45.7,-8.5 c -23.4,-4.4 -46.8,7.4 -57.3,28.7 l -33.8,69 c -13.8,-2.8 -42.4,-7.4 -62.7,-1.7 -32.1,9.1 -38.8,28.8 -44.8,46.1 -4.7,13.7 -8.8,25.6 -25.2,32.8 -8.5,3.7 -25.9,4 -39.8,4.2 -12.4,0.2 -23.1,0.4 -29.7,2.5 -23.3,7.7 -40.8,26.2 -46.8,49.5 -2.7,10.5 -2.5,19.8 0.6,27.7 8,20.4 30.6,28.2 38.1,30.7 0.4,0.2 0.8,0.3 1.1,0.4 l 0.4,0.1 59.3,14.3 3.3,-13.6 -58.3,-14.1 c -0.3,-0.1 -0.6,-0.2 -0.9,-0.3 -5.9,-2 -24,-8.1 -29.5,-22.5 -2,-5.1 -2,-11.6 -0.1,-19.2 4.8,-18.6 18.8,-33.5 37.6,-39.6 4.5,-1.5 15.2,-1.7 25.5,-1.8 16,-0.3 34.2,-0.5 45.3,-5.4 22,-9.7 27.7,-26.4 32.8,-41.1 5.5,-16.1 10.3,-30 35.3,-37.1 14.9,-4.2 36.4,-1.7 50.1,0.8 1.5,-1.9 3.2,-3.7 5.1,-5.3 2.8,-2.3 6.1,-4.4 9.7,-6 6,-2.7 13,-4.2 20.4,-4.2 22.6,0 41,14.1 41,31.5 v 12.6 c 0,0.5 0,1 0,1.5 0,0.2 0,0.3 0,0.5 0,0.3 -0.1,0.7 -0.1,1 0,0.2 -0.1,0.4 -0.1,0.6 0,0.3 -0.1,0.6 -0.2,0.9 0,0.2 -0.1,0.4 -0.1,0.6 0,0.1 0,0.2 -0.1,0.3 0,0.2 -0.1,0.4 -0.1,0.6 0,0.2 -0.1,0.4 -0.2,0.6 -0.1,0.3 -0.2,0.6 -0.3,0.9 -0.1,0.2 -0.1,0.4 -0.2,0.6 -0.1,0.3 -0.2,0.6 -0.4,1 -0.1,0.2 -0.1,0.3 -0.2,0.5 -0.2,0.5 -0.4,0.9 -0.6,1.4 0,0 0,0 0,0 -0.2,0.5 -0.5,1 -0.8,1.5 -0.1,0.2 -0.2,0.3 -0.3,0.5 -0.2,0.3 -0.4,0.7 -0.6,1 -0.1,0.2 -0.2,0.4 -0.4,0.6 -0.2,0.3 -0.4,0.6 -0.6,0.8 -0.1,0.2 -0.3,0.4 -0.4,0.6 -0.2,0.3 -0.4,0.5 -0.6,0.8 0,0 -0.1,0.1 -0.1,0.1 -0.1,0.1 -0.2,0.2 -0.3,0.3 -0.3,0.4 -0.6,0.8 -1,1.1 -0.2,0.2 -0.3,0.3 -0.4,0.5 -0.3,0.4 -0.7,0.7 -1,1.1 -0.1,0.1 -0.3,0.3 -0.4,0.4 -0.5,0.5 -1,0.9 -1.5,1.3 -0.1,0.1 -0.2,0.2 -0.3,0.2 -0.4,0.4 -0.9,0.7 -1.3,1.1 -0.2,0.1 -0.4,0.3 -0.5,0.4 -0.4,0.3 -0.8,0.6 -1.2,0.9 -0.2,0.1 -0.4,0.2 -0.5,0.3 -0.6,0.4 -1.2,0.8 -1.8,1.1 0,0 0,0 0,0 -0.6,0.4 -1.3,0.7 -1.9,1 -0.2,0.1 -0.4,0.2 -0.6,0.3 -0.5,0.2 -1,0.5 -1.4,0.7 -0.2,0.1 -0.4,0.2 -0.7,0.3 -0.5,0.2 -1.1,0.5 -1.7,0.7 -0.1,0 -0.3,0.1 -0.4,0.2 -0.7,0.3 -1.4,0.5 -2.1,0.7 -0.2,0.1 -0.4,0.1 -0.6,0.2 -0.5,0.2 -1.1,0.3 -1.7,0.5 -0.2,0.1 -0.5,0.1 -0.7,0.2 -0.6,0.1 -1.1,0.3 -1.7,0.4 -0.2,0 -0.4,0.1 -0.6,0.1 -0.8,0.1 -1.5,0.3 -2.3,0.4 -0.2,0 -0.3,0 -0.5,0.1 -0.6,0.1 -1.3,0.2 -2,0.2 -0.3,0 -0.5,0.1 -0.8,0.1 -0.6,0 -1.2,0.1 -1.8,0.1 -0.3,0 -0.5,0 -0.7,0 -0.8,0 -1.7,0.1 -2.5,0.1 -22.6,0 -41,-14.1 -41,-31.5 V 445 l -6.7,13.7 c -17.4,35.4 3.3,77.7 41.9,85.7 l 232.9,48.3 c 32.1,6.6 62.8,-16.2 65.7,-48.8 l 11.7,-132.5 c 2.5,-25.5 -13.2,-48.3 -36.6,-55.6 z m -213.2,96.6 0.4,-1.1 c 0.5,12.1 9,23 21.7,25.6 L 604,508.4 c 12.6,2.6 24.7,-3.9 30,-14.9 l -0.1,1.4 c -1.7,15.8 -16.5,26.6 -32.1,23.4 L 448.4,487.1 c -15.8,-3.2 -25.1,-19.5 -19.9,-34.7 z m 227.8,88.2 c -1.2,5.2 -3.1,10.3 -6,15 l -1.1,1.8 -1.2,1.7 c -0.4,0.6 -0.8,1.1 -1.3,1.7 -0.4,0.5 -0.9,1.1 -1.4,1.6 -1.9,2.1 -3.9,4 -6.2,5.7 -2.3,1.7 -4.6,3.2 -7.1,4.5 -2.5,1.3 -5.1,2.4 -7.8,3.2 -10.7,3.4 -22.1,3.5 -32.9,1.5 -1.4,-0.2 -2.6,-0.5 -3.9,-0.8 l -3.8,-0.8 -7.6,-1.6 c -5.1,-1.1 -10.1,-2.2 -15.2,-3.3 -20.2,-4.4 -40.4,-9 -60.5,-13.9 -10,-2.5 -20.1,-5 -30.1,-7.6 -5,-1.3 -10,-2.6 -15,-4 -5,-1.4 -10,-2.8 -15,-4.2 5.2,0.6 10.3,1.3 15.4,2.1 5.1,0.7 10.3,1.5 15.4,2.3 10.3,1.5 20.5,3.3 30.7,5 20.4,3.5 40.8,7.3 61.1,11.3 5.1,1 10.2,2 15.2,3 l 15.1,3.1 c 9.5,1.9 19.4,2 28.6,-0.3 4.6,-1.2 9,-3 13,-5.5 2,-1.3 3.9,-2.7 5.7,-4.3 1.7,-1.6 3.5,-3.3 5,-5.3 6.2,-7.6 9.9,-17.3 12.2,-27.4 0.4,5 -0.1,10.3 -1.3,15.5 z"
   id="path4015"
   style="fill:none;stroke:#f4f4f4;stroke-width:3;stroke-miterlimit:4;stroke-dasharray:none;stroke-opacity:1"
   inkscape:connector-curvature="0" />
	<path
   d="m 414.6,448.8 c 0,0.1 0,0.2 -0.1,0.4 0,0.2 -0.1,0.3 -0.1,0.5 0,-0.3 0.1,-0.6 0.2,-0.9 z"
   id="path4017"
   inkscape:connector-curvature="0" />
	<path
   d="m 413.2,453.1 c -0.1,0.2 -0.2,0.5 -0.3,0.7 v 0 c 0.1,-0.2 0.2,-0.4 0.3,-0.7 z"
   id="path4019"
   inkscape:connector-curvature="0" />
	<polygon
   points=""
   id="polygon4021" />
	<path
   d="m 598.7,394.8 c 0,0.1 -0.1,0.1 -0.2,0.2 -0.1,0.1 -0.2,0.3 -0.3,0.4 0.2,-0.3 0.3,-0.5 0.5,-0.6 z"
   id="path4023"
   inkscape:connector-curvature="0" />
	<path
   d="m 603.6,387.3 c 0,0.1 -0.1,0.2 -0.2,0.3 0,0.1 -0.1,0.1 -0.1,0.2 0.2,-0.2 0.2,-0.4 0.3,-0.5 z"
   id="path4025"
   inkscape:connector-curvature="0" />
	<path
   d="m 574.5,333.2 -1.4,8.1 c 0.9,0.5 1.7,1.1 2.6,1.7 5.5,3.9 9.7,9 12,14.7 1.3,3.2 2,6.6 2,10.1 0,0.3 0,0.6 0,0.8 -0.6,16.8 -17.8,30.2 -38.8,30.1 -21.4,-0.1 -40.7,-15.3 -40.6,-32.5 0,-3.2 0.7,-6.2 1.9,-9.1 1.7,-4 4.5,-7.7 8.1,-10.9 2.5,-2.2 5.3,-4.1 8.5,-5.7 0.8,-0.4 1.6,-0.9 2.5,-1.2 v -4.6 l 0.1,-8.6 0.5,-50.2 c -22.3,-12.1 -37.4,-36 -37.3,-63.5 0.2,-39.5 31.7,-71.4 70.4,-71.2 38.7,0.2 70,32.3 69.8,71.8 -0.2,32.6 -21.6,59.9 -50.8,68.5 z"
   id="path4027"
   style="fill:none;stroke:#f4f4f4;stroke-width:2.9000001;stroke-miterlimit:4;stroke-dasharray:none;stroke-opacity:1"
   inkscape:connector-curvature="0" />
	<path
   d="m 607.2,374.3 -2.6,39.9 c 0,0.7 -0.1,1.3 -0.2,2 0,0.2 0,0.4 -0.1,0.6 -0.1,0.5 -0.1,1 -0.3,1.5 0,0.2 -0.1,0.4 -0.1,0.6 -0.1,0.6 -0.3,1.2 -0.4,1.8 0,0.1 0,0.1 0,0.2 0,0 0,0 0,0 -0.2,0.6 -0.4,1.3 -0.6,1.9 -0.1,0.2 -0.1,0.4 -0.2,0.6 -0.2,0.5 -0.3,0.9 -0.5,1.3 -0.1,0.2 -0.2,0.5 -0.3,0.7 -0.2,0.4 -0.4,0.8 -0.6,1.2 -0.1,0.2 -0.2,0.4 -0.3,0.6 0,0.1 -0.1,0.2 -0.1,0.3 -0.1,0.3 -0.3,0.5 -0.4,0.7 -0.2,0.3 -0.3,0.6 -0.5,0.9 -0.2,0.3 -0.4,0.7 -0.6,1 -0.2,0.3 -0.4,0.6 -0.6,0.9 -0.2,0.3 -0.4,0.6 -0.7,1 -0.2,0.3 -0.4,0.6 -0.6,0.9 -0.2,0.3 -0.5,0.6 -0.7,0.9 -0.2,0.3 -0.5,0.6 -0.7,0.9 0,0.1 -0.1,0.1 -0.2,0.2 -0.1,0.1 -0.2,0.3 -0.3,0.4 -0.5,0.5 -1,1.1 -1.5,1.6 -0.2,0.2 -0.4,0.4 -0.6,0.6 -0.6,0.6 -1.2,1.2 -1.9,1.8 -0.1,0.1 -0.1,0.1 -0.2,0.2 -0.7,0.6 -1.5,1.3 -2.3,1.8 -0.2,0.2 -0.4,0.3 -0.7,0.5 -0.6,0.5 -1.2,0.9 -1.8,1.3 -0.2,0.2 -0.5,0.3 -0.7,0.5 -0.8,0.6 -1.7,1.1 -2.6,1.6 -0.1,0 -0.1,0.1 -0.2,0.1 -0.8,0.5 -1.7,0.9 -2.5,1.4 -0.3,0.1 -0.5,0.3 -0.8,0.4 -0.7,0.4 -1.4,0.7 -2.2,1 -0.3,0.1 -0.5,0.2 -0.8,0.3 -1,0.4 -2,0.8 -3,1.2 -0.2,0.1 -0.4,0.1 -0.5,0.2 -0.8,0.3 -1.7,0.6 -2.6,0.9 -0.3,0.1 -0.6,0.2 -0.9,0.3 -0.8,0.3 -1.7,0.5 -2.5,0.7 -0.2,0.1 -0.5,0.1 -0.7,0.2 -1.1,0.3 -2.2,0.5 -3.3,0.7 -0.3,0.1 -0.5,0.1 -0.8,0.2 -0.9,0.2 -1.8,0.3 -2.6,0.5 -0.3,0 -0.7,0.1 -1,0.1 -1,0.1 -2,0.3 -3,0.4 -0.2,0 -0.3,0 -0.5,0 -1.2,0.1 -2.3,0.2 -3.5,0.2 -0.3,0 -0.6,0 -1,0 -0.9,0 -1.8,0 -2.7,0 -0.3,0 -0.7,0 -1,0 -1.2,0 -2.4,-0.1 -3.7,-0.1 -32.1,-2.1 -56.9,-23.2 -55.4,-47.3 l 2.6,-39.9 c 0,0.7 -0.1,1.3 -0.1,2 v 0.3 c 0,2.2 0.2,4.4 0.7,6.6 0.3,1.4 0.7,2.9 1.2,4.3 1.9,5.6 5.3,10.8 9.7,15.4 10,10.4 25.8,17.6 43.9,18.7 1.2,0.1 2.4,0.1 3.7,0.1 0.3,0 0.7,0 1,0 0.9,0 1.8,0 2.7,0 0.3,0 0.6,0 1,0 1.2,-0.1 2.3,-0.1 3.5,-0.2 0.2,0 0.3,0 0.5,-0.1 1,-0.1 2,-0.2 3,-0.3 0.3,0 0.7,-0.1 1,-0.2 0.9,-0.1 1.8,-0.3 2.6,-0.4 0.3,-0.1 0.5,-0.1 0.8,-0.1 1.1,-0.2 2.2,-0.5 3.3,-0.7 0.2,-0.1 0.5,-0.1 0.7,-0.2 0.9,-0.2 1.7,-0.5 2.5,-0.7 0.3,-0.1 0.6,-0.2 0.9,-0.3 0.9,-0.3 1.7,-0.6 2.5,-0.9 0.2,-0.1 0.4,-0.1 0.5,-0.2 1,-0.4 2,-0.8 3,-1.2 0.3,-0.1 0.5,-0.2 0.8,-0.3 0.7,-0.3 1.5,-0.7 2.2,-1 0.3,-0.1 0.5,-0.3 0.8,-0.4 0.9,-0.4 1.7,-0.9 2.5,-1.4 0.1,0 0.1,-0.1 0.2,-0.1 0.9,-0.5 1.7,-1 2.6,-1.6 0.2,-0.2 0.5,-0.3 0.7,-0.5 0.6,-0.4 1.2,-0.9 1.8,-1.3 0.2,-0.2 0.5,-0.3 0.7,-0.5 0.8,-0.6 1.5,-1.2 2.3,-1.8 0.1,-0.1 0.1,-0.1 0.2,-0.2 0.7,-0.6 1.3,-1.2 1.9,-1.8 0.2,-0.2 0.4,-0.4 0.6,-0.6 0.5,-0.5 1,-1.1 1.5,-1.6 0.1,-0.1 0.2,-0.2 0.3,-0.4 0,-0.1 0.1,-0.1 0.2,-0.2 0.2,-0.3 0.5,-0.6 0.7,-0.9 0.2,-0.3 0.5,-0.6 0.7,-0.9 0.2,-0.3 0.4,-0.6 0.6,-0.9 0.2,-0.3 0.5,-0.6 0.7,-0.9 0.2,-0.3 0.4,-0.6 0.6,-0.9 0.2,-0.3 0.4,-0.7 0.6,-1 0.2,-0.3 0.4,-0.6 0.5,-0.9 0.1,-0.2 0.2,-0.4 0.3,-0.5 0,-0.1 0.1,-0.1 0.1,-0.2 0.1,-0.1 0.1,-0.2 0.2,-0.3 0.1,-0.2 0.2,-0.4 0.3,-0.6 0.2,-0.4 0.4,-0.8 0.6,-1.2 0.1,-0.2 0.2,-0.5 0.3,-0.7 0.2,-0.4 0.3,-0.9 0.5,-1.3 l 0.2,-0.6 c 0.2,-0.6 0.4,-1.3 0.6,-1.9 0,0 0,0 0,0 0,0 0,-0.1 0,-0.2 0.1,-0.6 0.3,-1.2 0.4,-1.8 0,-0.2 0.1,-0.4 0.1,-0.6 0.1,-0.5 0.2,-1 0.3,-1.5 0,-0.2 0.1,-0.4 0.1,-0.6 0.1,-0.9 0.2,-1.6 0.2,-2.2 z"
   id="path4029"
   style="fill:none;stroke:#f4f4f4;stroke-width:3;stroke-miterlimit:4;stroke-dasharray:none;stroke-opacity:1"
   inkscape:connector-curvature="0" />		
	<path
   d="m 333.1,444.4 v 0 -0.7 c 0,0.3 0,0.5 0,0.7 z"
   id="path4031"
   inkscape:connector-curvature="0"
   style="fill:#831308" />
	<path
   d="m 415.1,443.7 v 12.6 c 0,0.5 0,1 0,1.5 0,0.2 0,0.3 0,0.5 0,0.3 -0.1,0.7 -0.1,1 0,0.2 -0.1,0.4 -0.1,0.6 0,0.3 -0.1,0.6 -0.2,0.9 0,0.2 -0.1,0.4 -0.1,0.6 0,0.1 0,0.2 -0.1,0.3 0,0.2 -0.1,0.4 -0.1,0.6 0,0.2 -0.1,0.4 -0.2,0.6 -0.1,0.3 -0.2,0.6 -0.3,0.9 -0.1,0.2 -0.1,0.4 -0.2,0.6 -0.1,0.3 -0.2,0.6 -0.4,1 -0.1,0.2 -0.1,0.3 -0.2,0.5 -0.2,0.5 -0.4,0.9 -0.6,1.4 0,0 0,0 0,0 -0.2,0.5 -0.5,1 -0.8,1.5 -0.1,0.2 -0.2,0.3 -0.3,0.5 -0.2,0.3 -0.4,0.7 -0.6,1 -0.1,0.2 -0.2,0.4 -0.4,0.6 -0.2,0.3 -0.4,0.6 -0.6,0.8 -0.1,0.2 -0.3,0.4 -0.4,0.6 -0.2,0.3 -0.4,0.5 -0.6,0.8 0,0 -0.1,0.1 -0.1,0.1 -0.1,0.1 -0.2,0.2 -0.3,0.3 -0.3,0.4 -0.6,0.8 -1,1.1 -0.2,0.2 -0.3,0.3 -0.4,0.5 -0.3,0.4 -0.7,0.7 -1,1.1 -0.1,0.1 -0.3,0.3 -0.4,0.4 -0.5,0.5 -1,0.9 -1.5,1.3 -0.1,0.1 -0.2,0.2 -0.3,0.2 -0.4,0.4 -0.9,0.7 -1.3,1.1 -0.2,0.1 -0.4,0.3 -0.5,0.4 -0.4,0.3 -0.8,0.6 -1.2,0.9 -0.2,0.1 -0.4,0.2 -0.5,0.3 -0.6,0.4 -1.2,0.8 -1.8,1.1 0,0 0,0 0,0 -0.6,0.4 -1.3,0.7 -1.9,1 -0.2,0.1 -0.4,0.2 -0.6,0.3 -0.5,0.2 -1,0.5 -1.4,0.7 -0.2,0.1 -0.4,0.2 -0.7,0.3 -0.5,0.2 -1.1,0.5 -1.7,0.7 -0.1,0 -0.3,0.1 -0.4,0.2 -0.7,0.3 -1.4,0.5 -2.1,0.7 -0.2,0.1 -0.4,0.1 -0.6,0.2 -0.5,0.2 -1.1,0.3 -1.7,0.5 -0.2,0.1 -0.5,0.1 -0.7,0.2 -0.6,0.1 -1.1,0.3 -1.7,0.4 -0.2,0 -0.4,0.1 -0.6,0.1 -0.8,0.1 -1.5,0.3 -2.3,0.4 -0.2,0 -0.3,0 -0.5,0.1 -0.6,0.1 -1.3,0.2 -2,0.2 -0.3,0 -0.5,0.1 -0.8,0.1 -0.6,0 -1.2,0.1 -1.8,0.1 -0.3,0 -0.5,0 -0.7,0 -0.8,0 -1.7,0.1 -2.5,0.1 -22.6,0 -41,-14.1 -41,-31.5 v -11.8 0 c 0.5,17.1 18.6,30.8 41,30.8 0.8,0 1.7,0 2.5,-0.1 0.3,0 0.5,0 0.7,0 0.6,0 1.2,-0.1 1.8,-0.1 0.3,0 0.5,0 0.8,-0.1 0.7,-0.1 1.3,-0.2 2,-0.3 0.2,0 0.3,0 0.5,-0.1 0.8,-0.1 1.5,-0.3 2.3,-0.4 0.2,0 0.4,-0.1 0.6,-0.1 0.6,-0.1 1.1,-0.3 1.7,-0.4 0.2,-0.1 0.5,-0.1 0.7,-0.2 0.6,-0.1 1.1,-0.3 1.7,-0.5 0.2,-0.1 0.4,-0.1 0.6,-0.2 0.7,-0.2 1.4,-0.5 2.1,-0.7 0.1,0 0.3,-0.1 0.4,-0.2 0.6,-0.2 1.1,-0.4 1.7,-0.7 0.2,-0.1 0.4,-0.2 0.7,-0.3 0.5,-0.2 1,-0.4 1.4,-0.7 0.2,-0.1 0.4,-0.2 0.6,-0.3 0.7,-0.3 1.3,-0.7 1.9,-1 0,0 0,0 0,0 0.6,-0.4 1.2,-0.7 1.8,-1.1 l 0.5,-0.4 c 0.4,-0.3 0.8,-0.6 1.2,-0.9 l 0.5,-0.4 c 0.5,-0.3 0.9,-0.7 1.3,-1 0.1,-0.1 0.2,-0.2 0.3,-0.2 0.5,-0.4 1,-0.9 1.5,-1.3 0.1,-0.1 0.3,-0.3 0.4,-0.4 0.4,-0.3 0.7,-0.7 1,-1 0.2,-0.2 0.3,-0.3 0.4,-0.5 0.3,-0.4 0.7,-0.7 1,-1.1 0.1,-0.1 0.2,-0.3 0.3,-0.4 0.2,-0.3 0.4,-0.5 0.6,-0.8 0.1,-0.2 0.3,-0.4 0.4,-0.6 0.2,-0.3 0.4,-0.6 0.6,-0.8 0.1,-0.2 0.3,-0.4 0.4,-0.5 0.2,-0.3 0.4,-0.7 0.6,-1 0.1,-0.2 0.2,-0.3 0.3,-0.4 0.3,-0.5 0.5,-1 0.8,-1.5 0.1,-0.2 0.2,-0.5 0.3,-0.7 0,0 0,0 0,0 0.1,-0.2 0.2,-0.5 0.3,-0.7 0.1,-0.1 0.1,-0.3 0.2,-0.5 0.1,-0.3 0.3,-0.6 0.4,-1 0.1,-0.2 0.1,-0.4 0.2,-0.6 0.1,-0.3 0.2,-0.6 0.3,-0.9 0.1,-0.2 0.1,-0.4 0.2,-0.6 0,-0.2 0.1,-0.3 0.1,-0.5 0,-0.1 0,-0.2 0.1,-0.4 0,-0.2 0.1,-0.4 0.1,-0.6 0,-0.3 0.1,-0.6 0.2,-0.9 0,-0.2 0.1,-0.4 0.1,-0.5 0,-0.3 0.1,-0.7 0.1,-1 0,-0.2 0,-0.3 0,-0.5 0.1,-0.9 0.1,-1.4 0.1,-1.9 z"
   id="path4033"
   style="fill:none;stroke:#f4f4f4;stroke-width:3;stroke-miterlimit:4;stroke-dasharray:none;stroke-opacity:1"
   inkscape:connector-curvature="0" />
	<path
   d="m 374.6,438.1 c 1.7,0.4 3.4,0.3 5,-0.4 1.6,-0.7 2.7,-1.7 3.2,-3.2 0.6,-1.4 0.5,-2.7 -0.3,-3.9 -0.7,-1.2 -1.9,-2.1 -3.6,-2.5 -2.7,-0.6 -4.1,-1 -6.8,-1.6 -1.9,4 -2.8,5.9 -4.7,9.9 2.9,0.7 4.3,1 7.2,1.7 0,0 0,0 0,0 z"
   id="path4035"
   style="fill:none;stroke:#f4f4f4;stroke-width:3;stroke-miterlimit:4;stroke-dasharray:none;stroke-opacity:1"
   inkscape:connector-curvature="0" />
	<path
   d="m 412.9,453.8 v 0 c 0.1,-0.2 0.2,-0.5 0.3,-0.7 -0.1,0.3 -0.2,0.5 -0.3,0.7 z"
   id="path4037"
   inkscape:connector-curvature="0"
   style="fill:#bf1617" />
	
	<path
   d="m 380.2,454.6 c 1.6,-0.7 2.7,-1.7 3.2,-3 0.5,-1.4 0.4,-2.7 -0.5,-4 -0.8,-1.3 -2.1,-2.1 -3.8,-2.5 -5.7,-1.4 -8.5,-2.1 -14.2,-3.4 -1.8,3.9 -2.7,5.8 -4.6,9.6 5.9,1.5 8.8,2.2 14.7,3.6 1.9,0.5 3.6,0.4 5.2,-0.3 z"
   id="path4041"
   style="fill:none;stroke:#f4f4f4;stroke-width:3;stroke-miterlimit:4;stroke-dasharray:none;stroke-opacity:1"
   inkscape:connector-curvature="0" />

</g>
<path
   inkscape:connector-curvature="0"
   style="fill:none;stroke:#f4f4f4;stroke-width:4.70496082;stroke-miterlimit:4;stroke-dasharray:none;stroke-opacity:1"
   d="m 456.93967,516.94975 c -11.87594,0 -23.10993,2.29892 -32.73908,6.43699 -5.77748,2.45218 -11.07351,5.51741 -15.56711,9.19569 -3.04922,2.45218 -5.77748,5.21089 -8.18476,8.12286 -5.77749,7.2033 -9.14768,15.63269 -9.14768,24.52185 0,0.30653 0,0.76632 0,1.07284 0.80242,26.20772 29.85032,47.20456 65.79912,47.20456 1.28389,0 2.72826,0 4.01214,-0.15327 0.48146,0 0.80243,0 1.12341,0 0.96291,0 1.92582,-0.15325 2.88873,-0.15325 0.48146,0 0.80243,0 1.28389,-0.15327 1.1234,-0.15326 2.08631,-0.30652 3.20971,-0.45978 0.32097,0 0.48146,0 0.80243,-0.15327 1.28389,-0.15325 2.40729,-0.45978 3.69117,-0.61304 0.32097,0 0.64195,-0.15326 0.96291,-0.15326 0.96292,-0.15326 1.76535,-0.45979 2.72826,-0.61304 0.32097,-0.15327 0.80243,-0.15327 1.1234,-0.30653 0.96292,-0.15326 1.76535,-0.45979 2.72825,-0.76631 0.32098,-0.15326 0.64195,-0.15326 0.96292,-0.30652 1.12341,-0.30653 2.2468,-0.7663 3.3702,-1.07283 0.16048,0 0.48146,-0.15326 0.64194,-0.30652 0.96291,-0.30652 1.76535,-0.61305 2.72826,-1.07284 0.32098,-0.15326 0.64194,-0.30652 1.1234,-0.45979 0.80243,-0.30652 1.60485,-0.61304 2.2468,-1.07282 0.32097,-0.15327 0.64194,-0.30652 0.96292,-0.45979 1.1234,-0.45978 2.08631,-1.07283 3.04923,-1.53262 0,0 0,0 0,0 0.96291,-0.61304 1.92583,-1.07282 2.88873,-1.68587 l 0.80243,-0.61304 c 0.64194,-0.45979 1.28389,-0.91957 1.92583,-1.37936 l 0.80243,-0.61305 c 0.80243,-0.45978 1.44437,-1.07282 2.08632,-1.53261 0.16048,-0.15326 0.32096,-0.30653 0.48145,-0.30653 0.80243,-0.61304 1.60486,-1.37935 2.40729,-1.9924 0.16048,-0.15326 0.48145,-0.45978 0.64194,-0.61305 0.64194,-0.45978 1.1234,-1.07282 1.60485,-1.53261 0.32098,-0.30652 0.48146,-0.45978 0.64194,-0.7663 0.48146,-0.61305 1.12341,-1.07284 1.60487,-1.68589 0.16048,-0.15325 0.32096,-0.45977 0.48145,-0.61304 0.32097,-0.45978 0.64195,-0.7663 0.96291,-1.22609 0.16049,-0.30653 0.48146,-0.61305 0.64195,-0.91957 0.32097,-0.45978 0.64194,-0.91957 0.96292,-1.22609 0.16048,-0.30653 0.48145,-0.61305 0.64194,-0.76631 0.32097,-0.45979 0.64194,-1.07283 0.96291,-1.53262 0.16048,-0.30653 0.32097,-0.45978 0.48146,-0.61305 0.48146,-0.7663 0.80242,-1.53261 1.28388,-2.29892 0.16049,-0.30652 0.32097,-0.76631 0.48146,-1.07283 v 0 c 0.16049,-0.30652 0.32097,-0.7663 0.48145,-1.07283 0.1605,-0.15326 0.1605,-0.45979 0.32098,-0.76631 0.16048,-0.45978 0.48146,-0.91957 0.64194,-1.53261 0.16049,-0.30653 0.16049,-0.61305 0.32097,-0.91957 0.16048,-0.45978 0.32098,-0.91957 0.48146,-1.37936 0.16048,-0.30652 0.16048,-0.61305 0.32096,-0.91957 0.1605,-0.45978 0.1605,-0.91957 0.32098,-1.37935 0,-0.30652 0.16048,-0.61304 0.16048,-0.91957 0,-0.45979 0.16049,-0.91957 0.32098,-1.37936 0,-0.30652 0.16048,-0.61304 0.16048,-0.7663 0,-0.45979 0.16049,-1.07283 0.16049,-1.53261 0,-0.30653 0,-0.45979 0,-0.76632 0,-0.7663 0,-1.53261 0,-2.29891 -0.48146,-26.66752 -29.85034,-48.12414 -66.28059,-48.12414 z m 25.99868,62.83724 c -0.80243,2.29893 -2.08631,4.13807 -4.01214,5.82394 -1.92583,1.68588 -4.01214,3.06524 -6.57991,3.98481 -2.56777,0.91957 -5.29603,1.53261 -8.18477,1.68587 -3.04923,0.15326 -6.09846,0 -8.9872,-0.7663 -9.62914,-2.29893 -14.4437,-3.37176 -24.07285,-5.67069 -3.20971,-0.76631 -5.45652,-2.14566 -6.90089,-4.29132 -1.44436,-2.14566 -1.44436,-4.29132 -0.32096,-6.43699 8.02428,-15.01963 12.03642,-22.68271 20.0607,-37.70234 1.28389,-2.29893 3.20971,-3.98481 5.93798,-5.05763 2.72825,-1.07284 5.45651,-1.37936 8.18476,-0.76632 4.17264,1.07284 6.41943,1.53262 10.59205,2.45219 2.72827,0.61305 4.97506,1.53262 6.90089,2.91197 1.92583,1.37936 3.53068,2.91198 4.65409,4.75111 1.1234,1.83914 1.92582,3.83155 2.08631,6.13046 0.16049,2.29893 0,4.44459 -0.96291,6.59025 -1.28389,3.2185 -3.53069,5.82394 -6.57991,7.9696 3.53068,1.99241 6.25893,4.75111 7.86379,8.12286 1.44437,3.2185 1.60486,6.74352 0.32097,10.26853 z"
   id="path5706" /></svg>