<svg height="350.01035" viewBox="0 0 376.44415 175.00517" width="752.88831" xmlns="http://www.w3.org/2000/svg"><g fill="#f4f4f4" fill-opacity=".5" stroke-width=".5"><path d="m307.0847 115.50765q0 .16-.0387.26934-.0573.16266-.184.16266-.084 0-.176-.0387-.11067-.0467-.12134-.11467.0373 0 .088.0133.11734.0307.14667.0307.11334 0 .17067-.11333.0453-.0907.0453-.21734 0-.0893-.0587-.25467-.0573-.16666-.0573-.232 0-.02.0107-.032.012-.0133.032-.0133.052 0 .10133.24.0413.20267.0413.3z"/><path d="m307.59803 115.64365q0 .136-.0787.21334-.0787.0773-.21734.0773-.076 0-.11733-.036-.0413-.036-.0413-.11067 0-.10533.13734-.212.13067-.10133.24133-.10133.0507 0 .0667.0627.009.036.009.10666zm-.0813.0373q0-.016-.004-.0307-.003-.016-.0107-.036-.0213.0147-.0707.072-.0253.0293-.044.0427 0-.0253.005-.0413.0107-.0227.0173-.0387-.0587 0-.12266.0493-.0627.0493-.0627.10667 0 .0387.0427.0387.0813 0 .15734-.04.092-.048.092-.12266z"/><path d="m308.14737 115.69832q0 .0653-.0493.14667-.056.092-.116.092-.0173 0-.0293-.0187-.0107-.02-.0107-.0387 0-.024.0507-.0747.052-.052.052-.0707 0-.012-.004-.024-.004-.012-.005-.016-.1.0227-.204.11467-.10267.092-.156.104-.0107-.0293-.0107-.06 0-.0373.0173-.0787.012-.0293.04-.0707.0467-.0707.0987-.16.0267-.0467.092-.16133.0667-.11467.0973-.16267.016-.024.028-.036.0173-.016.0413-.0213.016.005.0227.02.008.0147.008.0347 0 .0453-.0587.12267-.10667.13867-.10934.144-.06.0907-.06.164l.003.0133q.0733-.036.0867-.0413.0547-.0227.0933-.0227.0427 0 .0627.0293.02.028.02.072z"/><path d="m308.76604 115.61965q0 .0907-.044.19334-.048.11333-.11867.156-.0147-.0173-.0253-.0387-.009-.0213-.009-.0427 0-.0227.0667-.13466.0293-.0493.0267-.0867l-.001-.0173q-.0493.0147-.17067.0893-.12.0733-.24267.14933-.0187 0-.0347-.0133-.0147-.0147-.0147-.032 0-.028.0893-.188.0267-.048.096-.16667.0213.028.028.0627.007.0333.007.08 0 .02 0 .0307.12267-.0733.192-.11067.076-.0413.104-.0413.0187 0 .0347.0427.0173.0427.0173.068z"/><path d="m309.92471 115.87832q0 .024-.0213.0373-.02.012-.0453.012-.0227 0-.0573-.005-.0787-.012-.10133-.012-.04 0-.15734.009-.0667.005-.096.005-.0813 0-.0813-.0813 0-.0773.0507-.22133.028-.0813.10533-.26667.0693-.16667.088-.23467.007-.0213.0107-.028.0107-.016.0267-.016.0253 0 .0427.0373.0173.036.0173.0653 0 .0467-.0547.15733-.0547.10934-.10667.21467-.0573.12534-.0573.19067 0 .0333.028.0467.02.009.0587.009.0293 0 .10134-.007.072-.008.096-.008.06 0 .0987.0173.0547.024.0547.0773z"/><path d="m310.42071 115.64365q0 .136-.0787.21334-.0787.0773-.21734.0773-.076 0-.11733-.036-.0413-.036-.0413-.11067 0-.10533.13733-.212.13067-.10133.24133-.10133.0507 0 .0667.0627.009.036.009.10666zm-.0813.0373q0-.016-.004-.0307-.003-.016-.0107-.036-.0213.0147-.0707.072-.0253.0293-.044.0427 0-.0253.005-.0413.0107-.0227.0173-.0387-.0587 0-.12266.0493-.0627.0493-.0627.10667 0 .0387.0427.0387.0813 0 .15733-.04.092-.048.092-.12266z"/><path d="m310.98205 115.61565q0 .0427-.0227.0907-.0213.048-.0547.08l-.001-.0187q0-.016.004-.0493.004-.0333.004-.0493 0-.0227-.007-.0333-.007-.012-.028-.012-.0627 0-.156.0973-.10134.10666-.20134.212-.008 0-.016-.001-.02-.005-.0267-.007.004-.048.0333-.10667.0787-.15867.0813-.16933.0107-.0427.016-.0627.005-.02.0147-.0413.0107-.0227.024-.04.0147-.0187.0373-.028l.0133.16001q.0573-.0467.088-.072.0587-.0467.10133-.0467.0427 0 .0693.028.0267.028.0267.0693z"/><path d="m311.63672 115.46098q0 .056-.14933.14801-.144.088-.20934.088-.0307 0-.0413-.0213-.009-.0213-.009-.06 0-.0253 0-.036.0893 0 .16266-.0267.0733-.0267.12801-.088-.04-.0147-.0813-.0147-.0973 0-.20667.0747-.12.0813-.12.17334 0 .088.12.12267.0187.005.22534.0373.12133.0187.12133.0653 0 .02-.044.032-.044.0133-.112.0133-.17067 0-.26933-.052-.13067-.0693-.13067-.22267 0-.16.16-.25467.136-.08.30934-.08.052 0 .0947.024.052.0293.052.0773z"/><path d="m312.16739 115.22232q0 .0293-.0707.12266-.0707.0933-.0707.14267 0 .0253.0293.0507.0667.0587.0667.072 0 .0173-.012.0333-.0107.016-.028.016-.0147 0-.0413-.016-.0187-.0107-.072-.052-.02.0387-.0307.0587-.0373.0707-.0507.10267-.02.0613-.04.12266-.0347.0827-.0867.0827l-.001-.0307q0-.0947.0613-.224.012-.024.0667-.124-.10533-.0573-.232-.0573 0-.0493.02-.072.0213-.024.0707-.024.0453 0 .11333.016.0333.008.0667.016.0253-.008.0693-.0867.108-.18933.14667-.21733.0107.0173.0173.0347.008.0173.008.0333z"/><path d="m312.6594 115.69832q0 .0653-.0493.14667-.056.092-.116.092-.0173 0-.0293-.0187-.0107-.02-.0107-.0387 0-.024.0507-.0747.052-.052.052-.0707 0-.012-.004-.024-.004-.012-.005-.016-.10001.0227-.20401.11467-.10266.092-.156.104-.0107-.0293-.0107-.06 0-.0373.0173-.0787.012-.0293.04-.0707.0467-.0707.0987-.16.0267-.0467.092-.16133.0667-.11467.0973-.16267.016-.024.028-.036.0173-.016.0413-.0213.016.005.0227.02.008.0147.008.0347 0 .0453-.0587.12267-.10667.13867-.10934.144-.06.0907-.06.164l.003.0133q.0733-.036.0867-.0413.0547-.0227.0933-.0227.0427 0 .0627.0293.02.028.02.072z"/><path d="m313.75407 115.26365q0 .0627-.0667.168-.0427.0667-.14.192-.0973.124-.12133.16267.004.001.1.032.0973.0293.0973.10667-.04.007-.0787.012l-.0147-.001v-.0107q-.0213-.005-.0347-.005-.0253 0-.08.008-.0547.008-.0827.008-.036 0-.0587-.0133-.0227-.0133-.0227-.048 0-.028.10267-.15867.192-.244.19333-.24667.104-.14133.104-.18933 0-.0187-.0133-.028-.012-.009-.0493-.009-.0253 0-.10534.0493-.0387.024-.0627.024l-.0227-.004q-.008-.005-.0173-.02-.009-.016-.009-.0253 0-.056.108-.10267.092-.04.16-.04.0573 0 .088.0427.0267.0373.0267.0973z"/><path d="m314.55541 115.50365q0 .16134-.17467.28534-.16.11333-.32934.11333-.084 0-.13333-.0427-.0493-.0427-.0493-.124 0-.18133.15866-.31467.15067-.12666.33734-.12666.0947 0 .14267.056.048.056.048.15333zm-.0813.0307q0-.0613-.0693-.092-.052-.0227-.124-.0227-.10534 0-.22.10267-.11467.10267-.11467.20667 0 .0427.0213.0613.0227.0173.068.0173.13067 0 .272-.072.16667-.0853.16667-.20133z"/><path d="m315.16608 115.26365q0 .0627-.0667.168-.0427.0667-.14.192-.0973.124-.12133.16267.004.001.1.032.0973.0293.0973.10667-.04.007-.0787.012l-.0147-.001v-.0107q-.0213-.005-.0347-.005-.0253 0-.08.008-.0547.008-.0827.008-.036 0-.0587-.0133-.0227-.0133-.0227-.048 0-.028.10266-.15867.19201-.244.19334-.24667.104-.14133.104-.18933 0-.0187-.0133-.028-.012-.009-.0493-.009-.0253 0-.10533.0493-.0387.024-.0627.024l-.0227-.004q-.008-.005-.0173-.02-.009-.016-.009-.0253 0-.056.108-.10267.092-.04.16-.04.0573 0 .088.0427.0267.0373.0267.0973z"/><path d="m315.77941 115.26365q0 .0627-.0667.168-.0427.0667-.14.192-.0973.124-.12133.16267.004.001.1.032.0973.0293.0973.10667-.04.007-.0787.012l-.0147-.001v-.0107q-.0213-.005-.0347-.005-.0253 0-.08.008-.0547.008-.0827.008-.036 0-.0587-.0133-.0227-.0133-.0227-.048 0-.028.10267-.15867.192-.244.19333-.24667.104-.14133.104-.18933 0-.0187-.0133-.028-.012-.009-.0493-.009-.0253 0-.10534.0493-.0387.024-.0627.024l-.0227-.004q-.008-.005-.0173-.02-.009-.016-.009-.0253 0-.056.108-.10267.092-.04.16-.04.0573 0 .088.0427.0267.0373.0267.0973z"/></g><g fill="none" transform="translate(-9.562572 -28.745866)"><g><g stroke="#f4f4f4"><rect height="174.20517" rx="1.329697" width="375.64417" x="9.962572" y="29.145866"/><rect height="41.573566" rx=".409591" width="331.52686" x="32.051418" y="33.638088"/><path d="m32.051419 75.201677c-.000001 74.835283-.000001 128.094233-.000001 128.094233"/><path d="m363.57828 75.201677-.00001 128.183633"/></g><g stroke="#fff" stroke-width=".178464" transform="matrix(.86930922 0 0 .8126561 1.302016 8.459194)"><g><path d="m35.328482 47.452132h381.302718"/><path d="m416.81432 40.808832h-381.356827"/><path d="m35.350355 34.35534h381.436525"/><path d="m416.81212 53.620912h-381.565196"/><path d="m35.381496 59.979492h381.257504"/><path d="m416.55816 66.43298h-381.160724"/><path d="m35.351838 72.886472h381.367602l.10712 6.453488h-381.455074"/></g><g><path d="m229.2887 30.969189v51.348767"/><path d="m223.21483 82.138896v-51.112246"/><path d="m216.85624 31.100794v51.16007"/><path d="m210.40275 82.247888v-51.123738"/><path d="m204.04417 30.886889v51.348767"/><path d="m197.9703 82.056596v-51.112246"/><path d="m191.61171 31.018494v51.16007"/><path d="m185.15822 82.165588v-51.123738"/><path d="m178.49972 30.952136v51.348767"/><path d="m172.42585 82.121843v-51.112246"/><path d="m166.06726 31.083741v51.16007"/><path d="m159.61377 82.230835v-51.123738"/><path d="m153.25519 30.869836v51.348767"/><path d="m147.18132 82.039543v-51.112246"/><path d="m140.82273 31.001441v51.16007"/><path d="m134.36924 82.148535v-51.123738"/><path d="m127.6887 30.969189v51.348767"/><path d="m121.61483 82.138896v-51.112246"/><path d="m115.25624 31.100794v51.16007"/><path d="m108.80275 82.247888v-51.123738"/><path d="m102.44417 30.886889v51.348767"/><path d="m96.3703 82.056596v-51.112246"/><path d="m90.01171 31.018494v51.16007"/><path d="m83.55822 82.165588v-51.123738"/><path d="m76.89972 30.952136v51.348767"/><path d="m70.82585 82.121843v-51.112246"/><path d="m64.46726 31.083741v51.16007"/><path d="m58.01377 82.230835v-51.123738"/><path d="m51.65519 30.869836v51.348767"/><path d="m45.58132 82.039543v-51.112246"/><path d="m39.22273 31.001441v51.16007"/><path d="m413.65624 31.100794v51.16007"/><path d="m407.20275 82.247888v-51.123738"/><path d="m400.84417 30.886889v51.348767"/><path d="m394.7703 82.056596v-51.112246"/><path d="m388.41171 31.018494v51.16007"/><path d="m381.95822 82.165588v-51.123738"/><path d="m375.29972 30.952136v51.348767"/><path d="m369.22585 82.121843v-51.112246"/><path d="m362.86726 31.083741v51.16007"/><path d="m356.41377 82.230835v-51.123738"/><path d="m350.05519 30.869836v51.348767"/><path d="m343.98132 82.039543v-51.112246"/><path d="m337.62273 31.001441v51.16007"/><path d="m331.16924 82.148535v-51.123738"/><path d="m324.4887 30.969189v51.348767"/><path d="m318.41483 82.138896v-51.112246"/><path d="m312.05624 31.100794v51.16007"/><path d="m305.60275 82.247888v-51.123738"/><path d="m299.24417 30.886889v51.348767"/><path d="m293.1703 82.056596v-51.112246"/><path d="m286.81171 31.018494v51.16007"/><path d="m280.35822 82.165588v-51.123738"/><path d="m273.69972 30.952136v51.348767"/><path d="m267.62585 82.121843v-51.112246"/><path d="m261.26726 31.083741v51.16007"/><path d="m254.81377 82.230835v-51.123738"/><path d="m248.45519 30.869836v51.348767"/><path d="m242.38132 82.039543v-51.112246"/><path d="m236.02273 31.001441v51.16007"/></g></g><ellipse cx="46.392563" cy="112.67696" rx="1.829027" ry="1.828513" stroke="#f4f4f4" stroke-width=".8"/></g><g stroke="#f4f4f4"><g stroke-width="1.15051"><g transform="matrix(.86930922 0 0 .86905588 -9.162094 24.673821)"><rect height="20" rx=".891828" ry=".892088" width="20" x="209.4991" y="139.23878"/><rect height="20" rx=".891828" ry=".892088" width="20" x="185.4991" y="139.23878"/><rect height="20" rx=".891828" ry=".892088" width="20" x="161.4991" y="139.23878"/><rect height="20" rx=".891828" ry=".892088" width="20" x="137.4991" y="139.23878"/><rect height="20" rx=".891828" ry=".892088" width="20" x="113.49871" y="139.23878"/><rect height="20" rx=".891828" ry=".892088" width="31.962725" x="77.535942" y="139.23878"/><rect height="20" rx=".891828" ry=".892088" width="32" x="353.49789" y="139.23878"/><rect height="20" rx=".891828" ry=".892088" width="20" x="329.49835" y="139.23878"/><rect height="20" rx=".891828" ry=".892088" width="20" x="305.49881" y="139.23878"/><rect height="20" rx=".891828" ry=".892088" width="20" x="281.4989" y="139.23878"/><rect height="20" rx=".891828" ry=".892088" width="20" x="257.49933" y="139.23878"/><rect height="20" rx=".891828" ry=".892088" width="20" x="233.49939" y="139.23878"/><rect height="20" rx=".891828" ry=".892088" width="20" x="389.49744" y="139.23878"/></g><g transform="matrix(.86930922 0 0 .86905588 1.302016 3.81648)"><rect height="20" rx=".891828" ry=".892088" width="20" x="209.4991" y="139.23878"/><rect height="20" rx=".891828" ry=".892088" width="20" x="185.4991" y="139.23878"/><rect height="20" rx=".891828" ry=".892088" width="20" x="161.4991" y="139.23878"/><rect height="20" rx=".891828" ry=".892088" width="20" x="137.4991" y="139.23878"/><rect height="20" rx=".891828" ry=".892088" width="20" x="113.49871" y="139.23878"/><rect height="20" rx=".891828" ry=".892088" width="20" x="89.498665" y="139.23878"/><rect height="20" rx=".891828" ry=".892088" width="20" x="65.498672" y="139.23878"/><rect height="20" rx=".891828" ry=".892088" width="32" x="353.49789" y="139.23878"/><rect height="20" rx=".891828" ry=".892088" width="20" x="329.49835" y="139.23878"/><rect height="20" rx=".891828" ry=".892088" width="20" x="305.49881" y="139.23878"/><rect height="20" rx=".891828" ry=".892088" width="20" x="281.4989" y="139.23878"/><rect height="20" rx=".891828" ry=".892088" width="20" x="257.49933" y="139.23878"/><rect height="20" rx=".891828" ry=".892088" width="20" x="233.49939" y="139.23878"/></g><g transform="matrix(.86930922 0 0 .86905588 -4.030078 -17.040861)"><rect height="20" rx=".891828" ry=".892088" width="20" x="209.4991" y="139.23878"/><rect height="20" rx=".891828" ry=".892088" width="20" x="185.4991" y="139.23878"/><rect height="20" rx=".891828" ry=".892088" width="20" x="161.4991" y="139.23878"/><rect height="20" rx=".891828" ry=".892088" width="20" x="137.4991" y="139.23878"/><rect height="20" rx=".891828" ry=".892088" width="20" x="113.49871" y="139.23878"/><rect height="20" rx=".891828" ry=".892088" width="20" x="89.498665" y="139.23878"/><rect height="20" rx=".891828" ry=".892088" width="20" x="65.498672" y="139.23878"/><rect height="20" rx=".891828" ry=".892088" width="20" x="329.49835" y="139.23878"/><rect height="20" rx=".891828" ry=".892088" width="20" x="305.49881" y="139.23878"/><rect height="20" rx=".891828" ry=".892088" width="20" x="281.4989" y="139.23878"/><rect height="20" rx=".891828" ry=".892088" width="20" x="257.49933" y="139.23878"/><rect height="20" rx=".891828" ry=".892088" width="20" x="233.49939" y="139.23878"/><rect height="20" rx=".891828" ry=".892088" width="20" x="377.49762" y="139.23878"/><rect height="20" rx=".891828" ry=".892088" width="20" x="353.49808" y="139.23878"/></g><g transform="matrix(.86930922 0 0 .86905588 -14.2134 -37.898202)"><rect height="20" rx=".891828" ry=".892088" width="20" x="209.4991" y="139.23878"/><rect height="20" rx=".891828" ry=".892088" width="20" x="185.4991" y="139.23878"/><rect height="20" rx=".891828" ry=".892088" width="20" x="161.4991" y="139.23878"/><rect height="20" rx=".891828" ry=".892088" width="20" x="137.4991" y="139.23878"/><rect height="20" rx=".891828" ry=".892088" width="20" x="113.49871" y="139.23878"/><rect height="20" rx=".891828" ry=".892088" width="20" x="89.498665" y="139.23878"/><rect height="20" rx=".891828" ry=".892088" width="20" x="65.498672" y="139.23878"/><rect height="20" rx=".891828" ry=".892088" width="20" x="329.49835" y="139.23878"/><rect height="20" rx=".891828" ry=".892088" width="20" x="305.49881" y="139.23878"/><rect height="20" rx=".891828" ry=".892088" width="20" x="281.4989" y="139.23878"/><rect height="20" rx=".891828" ry=".892088" width="20" x="257.49933" y="139.23878"/><rect height="20" rx=".891828" ry=".892088" width="20" x="233.49939" y="139.23878"/><rect height="20" rx=".891828" ry=".892088" width="20" x="377.49762" y="139.23878"/><rect height="20" rx=".891828" ry=".892088" width="20" x="353.49808" y="139.23878"/><rect height="20" rx=".891828" ry=".892088" width="20" x="401.49725" y="139.23878"/></g></g><rect height="17.381117" rx=".775275" width="166.89983" x="119.03115" y="166.53761"/></g></g></svg>