<svg height="381.69836" viewBox="0 0 236.16363 154.90465" width="581.92749" xmlns="http://www.w3.org/2000/svg"><g fill="#f4f4f4" fill-opacity=".5" stroke-width=".40583" transform="translate(14.807632 -73.357331)"><path d="m179.26828 216.67238q0 .0974-.0235.16395-.0349.099-.11201.099-.0511 0-.10714-.0235-.0674-.0284-.0739-.0698.0227 0 .0536.008.0714.0187.0893.0187.069 0 .10389-.069.0276-.0552.0276-.1323 0-.0544-.0357-.15503-.0349-.10146-.0349-.14123 0-.0122.006-.0195.007-.008.0195-.008.0316 0 .0617.1461.0252.12337.0252.18262z"/><path d="m179.58077 216.75517q0 .0828-.0479.12986-.0479.0471-.1323.0471-.0463 0-.0714-.0219-.0252-.0219-.0252-.0674 0-.0641.0836-.12906.0795-.0617.14691-.0617.0308 0 .0406.0382.006.0219.006.0649zm-.0495.0227q0-.01-.002-.0187-.002-.01-.006-.0219-.013.009-.043.0438-.0154.0179-.0268.026 0-.0154.003-.0252.006-.0138.0105-.0235-.0357 0-.0747.03-.0382.03-.0382.0649 0 .0235.026.0235.0495 0 .0958-.0244.056-.0292.056-.0747z"/><path d="m179.91518 216.78845q0 .0398-.03.0893-.0341.056-.0706.056-.0105 0-.0178-.0114-.007-.0122-.007-.0235 0-.0146.0309-.0455.0316-.0317.0316-.043 0-.007-.002-.0146-.002-.007-.003-.01-.0609.0138-.12419.0698-.0625.056-.095.0633-.006-.0178-.006-.0365 0-.0227.0105-.0479.007-.0179.0243-.043.0284-.043.0601-.0974.0162-.0284.056-.0982.0406-.0698.0592-.099.01-.0146.017-.0219.0105-.01.0252-.013.01.003.0138.0122.005.009.005.0211 0 .0276-.0357.0747-.0649.0844-.0666.0877-.0365.0552-.0365.0998l.002.008q.0446-.0219.0528-.0252.0333-.0138.0568-.0138.026 0 .0381.0179.0122.017.0122.0438z"/><path d="m180.29179 216.74056q0 .0552-.0268.11769-.0292.069-.0722.095-.009-.0106-.0154-.0235-.006-.013-.006-.026 0-.0138.0406-.082.0178-.03.0162-.0528l-.00081-.0105q-.03.009-.10389.0544-.0731.0446-.14773.0909-.0114 0-.0211-.008-.009-.009-.009-.0195 0-.0171.0544-.11445.0162-.0292.0584-.10146.013.017.017.0382.004.0203.004.0487 0 .0122 0 .0187.0747-.0446.11687-.0674.0463-.0252.0633-.0252.0114 0 .0211.026.0105.026.0105.0414z"/><path d="m180.99712 216.89802q0 .0146-.013.0227-.0122.007-.0276.007-.0138 0-.0349-.003-.0479-.007-.0617-.007-.0243 0-.0958.006-.0406.003-.0584.003-.0495 0-.0495-.0495 0-.0471.0309-.13474.017-.0495.0641-.16233.0422-.10146.0536-.14285.004-.013.006-.0171.006-.01.0162-.01.0154 0 .026.0227.0105.0219.0105.0398 0 .0284-.0333.0958-.0333.0666-.0649.13067-.0349.0763-.0349.11607 0 .0203.017.0284.0122.006.0357.006.0179 0 .0617-.004.0438-.005.0584-.005.0365 0 .0601.0105.0333.0146.0333.0471z"/><path d="m181.29906 216.75517q0 .0828-.0479.12986-.0479.0471-.1323.0471-.0463 0-.0714-.0219-.0252-.0219-.0252-.0674 0-.0641.0836-.12906.0795-.0617.14691-.0617.0308 0 .0406.0382.006.0219.006.0649zm-.0495.0227q0-.01-.002-.0187-.002-.01-.006-.0219-.013.009-.043.0438-.0154.0179-.0268.026 0-.0154.003-.0252.007-.0138.0105-.0235-.0357 0-.0747.03-.0382.03-.0382.0649 0 .0235.026.0235.0495 0 .0958-.0244.056-.0292.056-.0747z"/><path d="m181.64077 216.73812q0 .026-.0138.0552-.013.0292-.0333.0487l-.00081-.0114q0-.01.002-.03.002-.0203.002-.03 0-.0138-.004-.0203-.004-.007-.017-.007-.0382 0-.095.0593-.0617.0649-.12256.12905-.005 0-.01-.00081-.0122-.003-.0162-.004.002-.0292.0203-.0649.0479-.0966.0495-.10308.006-.026.01-.0382.003-.0122.009-.0252.006-.0138.0146-.0243.009-.0114.0227-.0171l.008.0974q.0349-.0284.0536-.0438.0357-.0284.0617-.0284.026 0 .0422.0171.0162.017.0162.0422z"/><path d="m182.03929 216.64397q0 .0341-.0909.0901-.0877.0536-.12743.0536-.0187 0-.0252-.013-.006-.013-.006-.0365 0-.0154 0-.0219.0544 0 .099-.0162.0446-.0162.0779-.0536-.0243-.009-.0495-.009-.0592 0-.1258.0454-.073.0495-.073.10552 0 .0536.073.0747.0114.003.13717.0227.0739.0114.0739.0398 0 .0122-.0268.0195-.0268.008-.0682.008-.10389 0-.16395-.0317-.0795-.0422-.0795-.13555 0-.0974.0974-.15503.0828-.0487.1883-.0487.0317 0 .0576.0146.0316.0178.0316.0471z"/><path d="m182.36233 216.49868q0 .0179-.043.0747-.043.0568-.043.0868 0 .0154.0179.0308.0406.0357.0406.0438 0 .0105-.007.0203-.006.01-.017.01-.009 0-.0252-.01-.0114-.006-.0438-.0317-.0122.0235-.0187.0357-.0227.043-.0308.0625-.0122.0373-.0243.0747-.0211.0503-.0528.0503l-.00081-.0187q0-.0576.0373-.13636.007-.0146.0406-.0755-.0641-.0349-.14123-.0349 0-.03.0122-.0438.013-.0146.043-.0146.0276 0 .069.01.0203.005.0406.01.0154-.005.0422-.0528.0657-.11526.0893-.1323.006.0105.0105.0211.005.0106.005.0203z"/><path d="m182.66184 216.78845q0 .0398-.03.0893-.0341.056-.0706.056-.0106 0-.0179-.0114-.006-.0122-.006-.0235 0-.0146.0308-.0455.0317-.0317.0317-.043 0-.007-.002-.0146-.002-.007-.003-.01-.0609.0138-.12419.0698-.0625.056-.095.0633-.006-.0178-.006-.0365 0-.0227.0105-.0479.007-.0179.0243-.043.0284-.043.0601-.0974.0162-.0284.056-.0982.0406-.0698.0592-.099.01-.0146.017-.0219.0105-.01.0252-.013.01.003.0138.0122.005.009.005.0211 0 .0276-.0357.0747-.0649.0844-.0666.0877-.0365.0552-.0365.0998l.002.008q.0446-.0219.0528-.0252.0333-.0138.0568-.0138.026 0 .0382.0179.0122.017.0122.0438z"/><path d="m183.32821 216.52385q0 .0381-.0406.10226-.026.0406-.0852.11688-.0593.0755-.0739.099.002.00081.0609.0195.0592.0178.0592.0649-.0243.004-.0479.007l-.009-.00081v-.006q-.013-.003-.0211-.003-.0154 0-.0487.005-.0333.005-.0503.005-.0219 0-.0357-.008-.0138-.008-.0138-.0292 0-.0171.0625-.0966.11688-.14854.11769-.15016.0633-.086.0633-.11525 0-.0114-.008-.0171-.007-.006-.03-.006-.0154 0-.0641.03-.0235.0146-.0381.0146l-.0138-.002q-.005-.003-.0105-.0122-.006-.01-.006-.0154 0-.0341.0658-.0625.056-.0244.0974-.0244.0349 0 .0536.026.0162.0227.0162.0593z"/><path d="m183.81602 216.66994q0 .0982-.10633.1737-.0974.069-.20048.069-.0511 0-.0812-.026-.03-.026-.03-.0755 0-.11038.0966-.19155.0917-.0771.20535-.0771.0576 0 .0868.0341.0292.0341.0292.0933zm-.0495.0187q0-.0373-.0422-.056-.0317-.0138-.0755-.0138-.0641 0-.13393.0625-.0698.0625-.0698.12581 0 .026.013.0373.0138.0105.0414.0105.0795 0 .16558-.0438.10146-.0519.10146-.12256z"/><path d="m184.18776 216.52385q0 .0381-.0406.10226-.026.0406-.0852.11688-.0592.0755-.0739.099.002.00081.0609.0195.0592.0178.0592.0649-.0243.004-.0479.007l-.009-.00081v-.006q-.013-.003-.0211-.003-.0154 0-.0487.005-.0333.005-.0503.005-.0219 0-.0357-.008-.0138-.008-.0138-.0292 0-.0171.0625-.0966.11688-.14854.11769-.15016.0633-.086.0633-.11525 0-.0114-.008-.0171-.007-.006-.03-.006-.0154 0-.0641.03-.0235.0146-.0382.0146l-.0138-.002q-.005-.003-.0106-.0122-.006-.01-.006-.0154 0-.0341.0657-.0625.056-.0244.0974-.0244.0349 0 .0536.026.0162.0227.0162.0593z"/><path d="m184.56112 216.52385q0 .0381-.0406.10226-.026.0406-.0852.11688-.0593.0755-.0739.099.002.00081.0609.0195.0593.0178.0593.0649-.0243.004-.0479.007l-.009-.00081v-.006q-.013-.003-.0211-.003-.0154 0-.0487.005-.0333.005-.0503.005-.0219 0-.0357-.008-.0138-.008-.0138-.0292 0-.0171.0625-.0966.11688-.14854.1177-.15016.0633-.086.0633-.11525 0-.0114-.008-.0171-.007-.006-.03-.006-.0154 0-.0641.03-.0235.0146-.0381.0146l-.0138-.002q-.005-.003-.0106-.0122-.006-.01-.006-.0154 0-.0341.0657-.0625.056-.0244.0974-.0244.0349 0 .0536.026.0162.0227.0162.0593z"/></g><g fill="none"><g transform="translate(14.807632 -73.357331)"><path d="m42.677734 260.41406c-6.085152 0-11.195953 4.90293-10.984375 10.98438l11.013672 316.61328c.211566 6.08145 4.899222 10.98437 10.984375 10.98437h417.800784 417.80078c6.08515 0 10.77283-4.90292 10.98437-10.98437l11.01368-316.61328c.21165-6.08145-4.89923-10.98438-10.98438-10.98438h-17.01367-411.34375-.91406-411.343754z" stroke="#f4f4f4" stroke-width="3.06769" transform="matrix(.26458333 0 0 .26458333 -21.231269 69.671761)"/><path d="m214.28564 166.2521h-221.5501546" stroke="#f4f4f4" stroke-width=".40583"/><path d="m103.26276 224.24643h107.58899c.93981 0 1.66897-.757 1.69641-1.69641l4.23333-144.955549c.0274-.939409-.7566-1.696408-1.69641-1.696408h-5.82083-105.77465m.28302 148.348367h-107.5889931c-.9398101 0-1.6689732-.757-1.696408-1.69641l-4.2333333-144.955556c-.027435-.939409.7565979-1.696408 1.696408-1.696408h5.8208333 105.7746531" stroke="#f4f4f4" stroke-width=".40583"/><path d="m103.47067 132.90259h115.02446c.93981 0 1.67867-.75677 1.69641-1.69641l1.05833-56.046601c.0177-.939641-.75659-1.696407-1.6964-1.696407h-3.70416-112.42168m.13708 59.439418h-115.024474c-.93981 0-1.678664-.75677-1.696407-1.69641l-1.058333-56.046608c-.01774-.939641.756597-1.696407 1.696407-1.696407h3.7041663 112.4216807" stroke="#f4f4f4" stroke-width=".81166"/><g stroke-width=".40583"><path d="m102.20617 102.97085h113.7992m.0249-1.57678h-5.08158m-33.66953 0h-75.21466m.67083-20.648253h74.54376m33.66972 0h5.58572m.0249-1.576766h-5.61031m-33.66975 0h-74.68573m.14166 5.280935h74.54375m33.66972 0h5.58573m.0249-1.576766h-5.61032m-33.66974 0h-74.68571m.14166 5.280935h74.54376m33.66972 0h5.58572m.0249-1.576766h-5.61031m-33.66975 0h-74.68573m.14166 5.280935h74.54372m33.66972 0h5.37409m.0249-1.576766h-5.39867m-33.66974 0h-74.68569m.14166 5.280935h74.54373m33.66972 0h5.37409m.0249-1.576766h-5.39867m-33.66974.000001-74.68568-.000001m.14166 5.280935h74.54371m33.6697 0h5.16246m.0249-1.576766-5.18703.000001m-33.66973 0-74.68567-.000001m2.12131 5.280954h-113.7989251m-.024881-1.57678h113.9655461m-.67083-20.648253h-113.7990021m-.024881-1.576766h113.9655431m-.14166 5.280935h-113.7990021m-.0248814-1.576766h113.9655435m-.14166 5.280935h-113.5873354m-.024881-1.576766h113.7538764m-.14166 5.280935h-113.5224407m-.089776-1.576766h113.7538767m-.14166 5.280935h-113.3756687m-.024881-1.576766h113.5422097m-.14166 5.280935h-113.2492757m-.1512748-1.576766h113.5422105" stroke="#f4f4f4"/><rect height="25.669373" rx=".63198" stroke="#f4f4f4" width="33.670177" x="177.27876" y="77.252159"/><rect height="18.868719" rx=".631981" stroke="#f3f4f4" width="26.940966" x="180.43471" y="81.157616"/><circle cx="197.19458" cy="85.834084" r="1.250001" stroke="#f3f4f4"/><path d="m187.48074 92.300987c0-.168156.13541-.299716.30353-.303531l6.29769-.14288h6.5236c.16816 0 .30353.135375.30353.303531v4.57326c0 .168156-.13537.303531-.30353.303531h-6.51518l-6.34519-.137767c-.16811-.0037-.30353-.135375-.30353-.303531z" stroke="#f3f4f4"/><path d="m194.08498 97.033588v-5.138271" stroke="#f3f4f4"/><path d="m17.773489 217.21531h-5.801475c-1.384907 0-2.4998317-1.11493-2.4998317-2.49983v-.5004c0-1.3849 1.1149247-2.49983 2.4998317-2.49983h5.801475z" stroke="#f4f4f4"/><circle cx="12.300724" cy="214.34763" r="1.500001" stroke="#f4f4f4"/><path d="m144.41002 217.21531h5.80151c1.38491 0 2.49984-1.11493 2.49984-2.49983v-.5004c0-1.3849-1.11493-2.49983-2.49984-2.49983h-5.80151z" stroke="#f4f4f4"/><circle cx="-149.88341" cy="214.34763" r="1.500001" stroke="#f4f4f4" transform="scale(-1 1)"/><path d="m166.60169 151.06906h-4.41442c-1.05379 0-1.90215-1.11493-1.90215-2.49983v-.5004c0-1.3849.84836-2.49983 1.90215-2.49983h4.41442z" stroke="#f4f4f4"/><circle cx="163.11276" cy="148.20268" r="1.500001" stroke="#f4f4f4"/></g></g><g stroke="#f4f4f4" stroke-width=".81166"><rect height="7.500001" rx="1.284415" width="81.583405" x="60.129402" y="137.272929"/><rect height="7.500001" rx="1.284415" width="12.791671" x="44.343124" y="137.272929"/><rect height="7.500001" rx="1.284415" width="12.419675" x="144.796105" y="137.272929"/><rect height="7.500001" rx="1.284415" width="7.500001" x="33.671049" y="137.272929"/></g><g stroke="#f4f4f4" stroke-width=".81166"><rect height="7.500001" rx="1.284415" width="7.500001" x="113.046119" y="126.689739"/><rect height="7.500001" rx="1.284415" width="7.500001" x="102.462776" y="126.689739"/><rect height="7.500001" rx="1.284415" width="7.500001" x="91.879432" y="126.689739"/><rect height="7.500001" rx="1.284415" width="7.500001" x="81.296089" y="126.689739"/><rect height="7.500001" rx="1.284415" width="7.500001" x="70.712745" y="126.689739"/><rect height="7.500001" rx="1.284415" width="7.500001" x="60.129402" y="126.689739"/><rect height="7.500001" rx="1.284415" width="7.500001" x="49.546058" y="126.689739"/><rect height="7.500001" rx="1.284415" width="7.500001" x="38.962715" y="126.689739"/><rect height="7.500001" rx="1.284415" width="20.42318" x="15.456196" y="126.689739"/><rect height="7.500001" rx="1.284415" width="20.728922" x="155.379295" y="126.689739"/><rect height="7.500001" rx="1.284415" width="7.500001" x="144.796105" y="126.689739"/><rect height="7.500001" rx="1.284415" width="7.500001" x="134.212795" y="126.689739"/><rect height="7.500001" rx="1.284415" width="7.500001" x="123.629465" y="126.689739"/></g><g stroke="#f4f4f4" stroke-width=".81166" transform="translate(8.986798 -83.411498)"><rect height="7.500001" rx="1.284415" width="7.500001" x="98.767654" y="200.04707"/><rect height="7.500001" rx="1.284415" width="7.500001" x="88.184311" y="200.04707"/><rect height="7.500001" rx="1.284415" width="7.500001" x="77.600967" y="200.04707"/><rect height="7.500001" rx="1.284415" width="7.500001" x="67.017624" y="200.04707"/><rect height="7.500001" rx="1.284415" width="7.500001" x="56.43428" y="200.04707"/><rect height="7.500001" rx="1.284415" width="7.500001" x="45.850937" y="200.04707"/><rect height="7.500001" rx="1.284415" width="7.500001" x="35.267593" y="200.04707"/><rect height="7.500001" rx="1.284415" width="7.500001" x="24.68425" y="200.04707"/><rect height="7.500001" rx="1.284415" width="15.131513" x="6.469399" y="200.04707"/><rect height="7.500001" rx="1.284415" width="7.500001" x="141.10083" y="200.04707"/><rect height="7.500001" rx="1.284415" width="7.500001" x="130.51764" y="200.04707"/><rect height="7.500001" rx="1.284415" width="7.500001" x="119.93433" y="200.04707"/><rect height="7.500001" rx="1.284415" width="7.500001" x="109.351" y="200.04707"/><path d="m167.12142 201.33149v4.93117c0 .71157-.57285 1.28441-1.28442 1.28441h-12.86856c-.71157 0-1.28442-.57284-1.28442-1.28441v-7.577c-.0717-.61109-.32979-1.11799-1.36141-1.19275-.71157 0-1.28442-.57285-1.28442-1.28442v-4.93117c0-.71157.57285-1.28442 1.28442-1.28442h15.51439c.71157 0 1.28442.57285 1.28442 1.28442v4.93117z"/></g><g stroke="#f4f4f4" stroke-width=".81166"><rect height="7.500001" rx="1.284415" width="7.500001" x="105.108619" y="106.581399"/><rect height="7.500001" rx="1.284415" width="7.500001" x="94.525276" y="106.581399"/><rect height="7.500001" rx="1.284415" width="7.500001" x="83.941932" y="106.581399"/><rect height="7.500001" rx="1.284415" width="7.500001" x="73.358589" y="106.581399"/><rect height="7.500001" rx="1.284415" width="7.500001" x="62.775245" y="106.581399"/><rect height="7.500001" rx="1.284415" width="7.500001" x="52.191902" y="106.581399"/><rect height="7.500001" rx="1.284415" width="7.500001" x="41.608558" y="106.581399"/><rect height="7.500001" rx="1.284415" width="7.500001" x="31.025215" y="106.581399"/><rect height="7.500001" rx="1.284415" width="12.485679" x="15.456197" y="106.581399"/><rect height="7.500001" rx="1.284415" width="7.500001" x="147.441795" y="106.581399"/><rect height="7.500001" rx="1.284415" width="7.500001" x="136.858605" y="106.581399"/><rect height="7.500001" rx="1.284415" width="7.500001" x="126.275295" y="106.581399"/><rect height="7.500001" rx="1.284415" width="7.500001" x="115.691965" y="106.581399"/></g><g stroke="#f4f4f4" stroke-width=".81166"><rect height="7.500001" rx="1.284415" width="7.500001" x="100.12294" y="96.527226"/><rect height="7.500001" rx="1.284415" width="7.500001" x="89.539597" y="96.527226"/><rect height="7.500001" rx="1.284415" width="7.500001" x="78.956253" y="96.527226"/><rect height="7.500001" rx="1.284415" width="7.500001" x="68.37291" y="96.527226"/><rect height="7.500001" rx="1.284415" width="7.500001" x="57.789566" y="96.527226"/><rect height="7.500001" rx="1.284415" width="7.500001" x="47.206223" y="96.527226"/><rect height="7.500001" rx="1.284415" width="7.500001" x="36.622879" y="96.527226"/><rect height="7.500001" rx="1.284415" width="7.500001" x="26.039536" y="96.527226"/><rect height="7.500001" rx="1.284415" width="7.500001" x="15.456196" y="96.527226"/><rect height="7.500001" rx="1.284415" width="7.500001" x="142.456116" y="96.527226"/><rect height="7.500001" rx="1.284415" width="7.500001" x="131.872926" y="96.527226"/><rect height="7.500001" rx="1.284415" width="7.500001" x="121.289616" y="96.527226"/><rect height="7.500001" rx="1.284415" width="7.500001" x="110.706286" y="96.527226"/><rect height="7.500001" rx="1.284415" width="7.500001" x="153.039306" y="96.527226"/><rect height="7.500001" rx="1.284415" width="12.485718" x="163.622516" y="96.527226"/></g><g stroke="#f4f4f4" stroke-width=".81166"><rect height="17.554033" rx="1.284415" width="7.500001" x="214.116005" y="126.689739"/><rect height="7.500001" rx="1.284415" width="7.500001" x="203.532815" y="126.689739"/><rect height="7.500001" rx="1.284415" width="7.500001" x="192.949625" y="126.689739"/><rect height="7.500001" rx="1.284415" width="7.500001" x="182.366435" y="126.689739"/><rect height="7.500001" rx="1.284415" width="7.500001" x="203.532815" y="136.743769"/><rect height="7.500001" rx="1.284415" width="18.083191" x="182.366435" y="136.743769"/><rect height="7.500001" rx="1.284415" width="7.500001" x="214.116005" y="116.635709"/><rect height="7.500001" rx="1.284415" width="7.500001" x="203.532815" y="116.635709"/><rect height="7.500001" rx="1.284415" width="7.500001" x="192.949625" y="116.635709"/><rect height="7.500001" rx="1.284415" width="7.500001" x="182.366435" y="116.635709"/><rect height="7.500001" rx="1.284415" width="7.500001" x="214.116005" y="106.581679"/><rect height="7.500001" rx="1.284415" width="7.500001" x="203.532815" y="106.581679"/><rect height="7.500001" rx="1.284415" width="7.500001" x="192.949625" y="106.581679"/><rect height="7.500001" rx="1.284415" width="7.500001" x="182.366435" y="106.581679"/><rect height="7.500001" rx="1.284415" width="7.500001" x="214.116005" y="96.527649"/><rect height="7.500001" rx="1.284415" width="7.500001" x="203.532815" y="96.527649"/><rect height="7.500001" rx="1.284415" width="7.500001" x="192.949625" y="96.527649"/><rect height="7.500001" rx="1.284415" width="7.500001" x="182.366435" y="96.527649"/></g><g stroke="#f4f4f4" stroke-width=".81166"><rect height="7.500001" rx="1.284415" width="17.949205" x="100.122933" y="81.71055"/><rect height="7.500001" rx="1.284415" width="18.083345" x="78.956261" y="81.71055"/><rect height="7.500001" rx="1.284415" width="18.083345" x="57.789566" y="81.71055"/><rect height="7.500001" rx="1.284415" width="18.083345" x="36.622879" y="81.71055"/><rect height="7.500001" rx="1.284415" width="7.500001" x="15.456196" y="81.71055"/><rect height="7.500001" rx="1.284415" width="18.083307" x="121.289626" y="81.71055"/><rect height="7.500001" rx="1.284415" width="7.500001" x="153.039306" y="81.71055"/><rect height="7.500001" rx="1.284415" width="7.500001" x="163.622496" y="81.71055"/><rect height="7.500001" rx="1.284415" width="7.500001" x="153.039306" y="71.65652"/><rect height="7.500001" rx="1.284415" width="7.500001" x="163.622496" y="71.65652"/><rect height="7.500001" rx="1.284415" width="7.500001" x="198.241226" y="81.71055"/><rect height="7.500001" rx="1.284415" width="13.056001" x="182.366436" y="81.71055"/><rect height="7.500001" rx="1.284415" width="13.056001" x="182.366436" y="71.65652"/><rect height="7.500001" rx="1.284415" width="7.500001" x="198.241226" y="71.65652"/><rect height="7.500001" rx="1.284415" width="13.056001" x="208.824416" y="81.71055"/><rect height="7.500001" rx="1.284415" width="13.056001" x="208.601046" y="71.65652"/><rect height="7.500001" rx="1.284415" width="17.949205" x="100.122933" y="71.65652"/><rect height="7.500001" rx="1.284415" width="18.083345" x="78.956261" y="71.65652"/><rect height="7.500001" rx="1.284415" width="18.083345" x="57.789566" y="71.65652"/><rect height="7.500001" rx="1.284415" width="18.083345" x="36.622879" y="71.65652"/><rect height="7.500001" rx="1.284415" width="18.083307" x="121.289626" y="71.65652"/></g></g></svg>