<svg height="384.10022" viewBox="0 0 468.54258 230.46013" width="780.9043" xmlns="http://www.w3.org/2000/svg"><g transform="translate(-7.694397 -8.970435)"><g fill="none" stroke="#f4f4f4"><g stroke-width="1.2"><path d="m241.83067 185.77526c58.86974-.095 107.1223 17.18952 162.19351 36.95454 26.83953 9.16147 41.32382.98109 48.32252-13.95979 6.81707-15.83089 14.98796-32.20175 19.36728-47.06979 11.53222-34.74516-7.07204-55.84773-28.32094-74.516008-59.53874-50.537868-129.87277-75.84493-201.42736-77.2139603m.13501 175.8050183c-46.89161-.0756-87.047 10.87532-129.27774 25.32344-10.78754 3.69068-21.710509 7.60954-32.915762 11.6311-26.839528 9.16147-41.323817.98109-48.32252-13.95979-6.817065-15.83089-14.987958-32.20175-19.367277-47.06979-11.53221625-34.74516 7.072038-55.84774 28.320939-74.516019 59.53874-50.537868 129.87277-75.84493 201.42735-77.2139593" opacity=".98"/><path d="m371.71282 211.25c-86.21208 35.83542-172.42711 36.66758-258.64531 0" opacity=".98"/><rect height="20.247187" opacity=".98" rx="2.376979" width="11.582313" x="236.35046" y="203.55775"/></g><path d="m233.94069 10.259116h16.445896v4.715529h-16.445896z" opacity=".98" stroke-width=".6"/></g><g><g fill="none" stroke="#f4f4f4" stroke-width="1.2"><circle cx="395.08371" cy="125.95601" opacity=".98" r="22"/><circle cx="347.69461" cy="162.83882" opacity=".98" r="22"/><path d="m181.95945 213.59398c-.0135 3.4122 1.74561 5.3803 7.46434 6.5507 11.75668 2.40613 25.6652 2.60129 38.21763 3.16271 2.3036.26865 3.61549-.7989 3.50965-2.64477v-7.05933m-49.19162-.009c-.18572-2.35269 1.34385-4.54788 3.53014-5.3595 3.59586-1.47477 7.52728-1.81082 11.33538-2.40536 10.49136-1.3403 21.08205-1.49229 31.63298-1.98775 1.78785-.16155 3.03175 1.5385 2.69312 3.20712v6.53618" opacity=".98"/><path d="m302.28198 213.59398c.0135 3.4122-1.74561 5.3803-7.46434 6.5507-11.75668 2.40613-25.6652 2.60129-38.21763 3.16271-2.3036.26865-3.61549-.7989-3.50965-2.64477v-7.05933m49.19162-.009c.18572-2.35269-1.34385-4.54788-3.53014-5.3595-3.59586-1.47477-7.52728-1.81082-11.33538-2.40536-10.49136-1.3403-21.08205-1.49229-31.63298-1.98775-1.78785-.16155-3.03175 1.5385-2.69312 3.20712v6.53618" opacity=".98"/><path d="m320.41821-122.87506v-3.79076c0-2.74037 2.20615-4.94652 4.94651-4.94652h55.10699c2.74037 0 4.94651 2.20615 4.94651 4.94652v3.40246" opacity=".98" transform="matrix(.90074666 .43434485 -.43434485 .90074666 0 0)"/><circle cx="118.55859" cy="127.39818" opacity=".98" r="45.5"/><path d="m107.97588 83.971093v27.346587c-.063 5.8383-4.12167 6.53995-9.01116 6.63621h-25.23579m34.24695 53v-27.34658c-.063-5.8383-4.12167-6.53995-9.01116-6.63621h-25.23579m55 33.98279v-27.34658c.063-5.8383 4.12167-6.53995 9.01116-6.63621h25.23579m-34.24695-53.000007v27.346587c.063 5.8383 4.12167 6.53995 9.01116 6.63621h25.23579" opacity=".98"/></g><g fill="#f4f4f4"><path d="m118.48055 88.725401 2.45589 4.253719 2.45588 4.253719-4.91177-.000001h-4.91177l2.45589-4.253718z" opacity=".98" transform="matrix(1.0684272 0 0 1.0684273 -7.852133 -4.60295)"/><path d="m118.48055 88.725401 2.45589 4.253719 2.45588 4.253719-4.91177-.000001h-4.91177l2.45589-4.253718z" opacity=".98" transform="matrix(1.0684272 0 0 -1.0684273 -7.852133 262.0799)"/><path d="m118.48055 88.725401 2.45589 4.253719 2.45588 4.253719-4.91177-.000001h-4.91177l2.45589-4.253718z" opacity=".98" transform="matrix(0 1.0684272 -1.0684273 0 251.49504 1.568541)"/><path d="m118.48055 88.725401 2.45589 4.253719 2.45588 4.253719-4.91177-.000001h-4.91177l2.45589-4.253718z" opacity=".98" transform="matrix(0 1.0684272 1.0684273 0 -13.63003 1.977001)"/></g><ellipse cx="118.50343" cy="127.24286" fill="none" opacity=".98" rx="6.5" ry="6.500001" stroke="#f4f4f4" stroke-width=".6"/></g><g fill="#f4f4f4" fill-opacity=".5"><path d="m255.72136 220.12444q0 .32-.0773.53866-.11467.32534-.368.32534-.168 0-.352-.0773-.22134-.0933-.24267-.22933.0747 0 .176.0267.23467.0613.29333.0613.22667 0 .34134-.22667.0907-.18133.0907-.43466 0-.17867-.11733-.50934-.11467-.33333-.11467-.464 0-.04.0213-.064.024-.0267.064-.0267.104 0 .20266.48.0827.40533.0827.6z"/><path d="m256.74803 220.39644q0 .272-.15733.42666-.15734.15467-.43467.15467-.152 0-.23467-.072-.0827-.072-.0827-.22133 0-.21067.27467-.424.26134-.20267.48267-.20267.10133 0 .13333.12533.0187.072.0187.21334zm-.16267.0747q0-.032-.008-.0613-.005-.032-.0213-.072-.0427.0293-.14133.144-.0507.0587-.088.0853 0-.0507.0107-.0827.0213-.0453.0347-.0773-.11733 0-.24533.0987-.12534.0987-.12534.21333 0 .0773.0853.0773.16266 0 .31466-.08.184-.096.184-.24534z"/><path d="m257.8467 220.50577q0 .13067-.0987.29333-.112.184-.232.184-.0347 0-.0587-.0373-.0213-.04-.0213-.0773 0-.048.10133-.14934.104-.104.104-.14133 0-.024-.008-.048-.008-.024-.0107-.032-.2.0453-.408.22933-.20534.184-.312.208-.0213-.0587-.0213-.12 0-.0747.0347-.15733.024-.0587.08-.14133.0933-.14134.19733-.32.0533-.0933.184-.32267.13334-.22933.19467-.32533.032-.048.056-.072.0347-.032.0827-.0427.032.0107.0453.04.016.0293.016.0693 0 .0907-.11733.24534-.21334.27733-.21867.288-.12.18133-.12.328l.005.0267q.14667-.072.17334-.0827.10933-.0453.18666-.0453.0853 0 .12534.0587.04.056.04.144z"/><path d="m259.08403 220.34844q0 .18133-.088.38666-.096.22667-.23733.312-.0293-.0347-.0507-.0773-.0187-.0427-.0187-.0853 0-.0453.13333-.26934.0587-.0987.0533-.17333l-.003-.0347q-.0987.0293-.34134.17867-.24.14667-.48533.29867-.0373 0-.0693-.0267-.0293-.0293-.0293-.064 0-.056.17867-.376.0533-.096.192-.33333.0427.056.056.12533.0133.0667.0133.16 0 .04 0 .0613.24534-.14666.384-.22133.152-.0827.208-.0827.0373 0 .0693.0853.0347.0853.0347.136z"/><path d="m261.40137 220.86577q0 .048-.0427.0747-.04.024-.0907.024-.0453 0-.11467-.0107-.15733-.024-.20267-.024-.08 0-.31466.0187-.13334.0107-.19201.0107-.16266 0-.16266-.16266 0-.15467.10133-.44267.056-.16267.21067-.53333.13867-.33334.176-.46934.0133-.0427.0213-.056.0213-.032.0533-.032.0507 0 .0853.0747.0347.072.0347.13067 0 .0933-.10934.31466-.10933.21867-.21333.42934-.11467.25066-.11467.38133 0 .0667.056.0933.04.0187.11734.0187.0587 0 .20266-.0133.144-.016.192-.016.12 0 .19734.0347.10933.048.10933.15467z"/><path d="m262.39337 220.39644q0 .272-.15733.42666-.15734.15467-.43467.15467-.152 0-.23467-.072-.0827-.072-.0827-.22133 0-.21067.27466-.424.26134-.20267.48267-.20267.10134 0 .13334.12533.0187.072.0187.21334zm-.16266.0747q0-.032-.008-.0613-.005-.032-.0213-.072-.0427.0293-.14133.144-.0507.0587-.088.0853 0-.0507.0107-.0827.0213-.0453.0347-.0773-.11733 0-.24533.0987-.12534.0987-.12534.21333 0 .0773.0853.0773.16266 0 .31466-.08.18401-.096.18401-.24534z"/><path d="m263.51604 220.34044q0 .0853-.0453.18133-.0427.096-.10934.16l-.003-.0373q0-.032.008-.0987.008-.0667.008-.0987 0-.0453-.0133-.0667-.0133-.024-.056-.024-.12533 0-.312.19466-.20266.21334-.40266.424-.016 0-.032-.003-.04-.0107-.0533-.0133.008-.096.0667-.21333.15733-.31733.16267-.33867.0213-.0853.032-.12533.0107-.04.0293-.0827.0213-.0453.048-.08.0293-.0373.0747-.056l.0267.32q.11467-.0933.176-.144.11734-.0933.20267-.0933.0853 0 .13867.056.0533.056.0533.13867z"/><path d="m264.82538 220.0311q0 .112-.29867.296-.288.176-.41867.176-.0613 0-.0827-.0427-.0187-.0427-.0187-.12 0-.0507 0-.072.17867 0 .32533-.0533.14667-.0533.256-.176-.08-.0293-.16266-.0293-.19467 0-.41334.14933-.24.16267-.24.34667 0 .176.24.24533.0373.0107.45067.0747.24267.0373.24267.13067 0 .04-.088.064-.088.0267-.224.0267-.34134 0-.53867-.104-.26133-.13866-.26133-.44533 0-.32.32-.50933.272-.16.61866-.16.104 0 .18934.048.104.0587.104.15466z"/><path d="m265.88671 219.55377q0 .0587-.14133.24533-.14133.18667-.14133.28534 0 .0507.0587.10133.13334.11733.13334.144 0 .0347-.024.0667-.0213.032-.056.032-.0293 0-.0827-.032-.0373-.0213-.144-.104-.04.0773-.0613.11733-.0747.14133-.10134.20533-.04.12267-.08.24534-.0693.16533-.17333.16533l-.003-.0613q0-.18934.12267-.448.024-.048.13333-.248-.21066-.11467-.464-.11467 0-.0987.04-.144.0427-.048.14134-.048.0907 0 .22666.032.0667.016.13334.032.0507-.016.13866-.17333.216-.37867.29334-.43467.0213.0347.0347.0693.016.0347.016.0667z"/><path d="m266.87072 220.50577q0 .13067-.0987.29333-.112.184-.232.184-.0347 0-.0587-.0373-.0213-.04-.0213-.0773 0-.048.10133-.14934.104-.104.104-.14133 0-.024-.008-.048-.008-.024-.0107-.032-.2.0453-.408.22933-.20534.184-.312.208-.0213-.0587-.0213-.12 0-.0747.0347-.15733.024-.0587.08-.14133.0933-.14134.19733-.32.0533-.0933.184-.32267.13334-.22933.19467-.32533.032-.048.056-.072.0347-.032.0827-.0427.032.0107.0453.04.016.0293.016.0693 0 .0907-.11733.24534-.21334.27733-.21867.288-.12.18133-.12.328l.005.0267q.14667-.072.17334-.0827.10933-.0453.18666-.0453.0853 0 .12534.0587.04.056.04.144z"/><path d="m269.06006 219.63644q0 .12533-.13334.336-.0853.13333-.28.384-.19467.248-.24267.32533.008.003.2.064.19467.0587.19467.21333-.08.0133-.15733.024l-.0293-.003v-.0213q-.0427-.0107-.0693-.0107-.0507 0-.16.016-.10933.016-.16533.016-.072 0-.11734-.0267-.0453-.0267-.0453-.096 0-.056.20533-.31733.384-.488.38667-.49334.208-.28266.208-.37866 0-.0373-.0267-.056-.024-.0187-.0987-.0187-.0507 0-.21067.0987-.0773.048-.12533.048l-.0453-.008q-.016-.0107-.0347-.04-.0187-.032-.0187-.0507 0-.112.216-.20533.184-.08.32-.08.11467 0 .176.0853.0533.0747.0533.19467z"/><path d="m270.66272 220.11644q0 .32266-.34933.57066-.32.22667-.65867.22667-.168 0-.26667-.0853-.0987-.0853-.0987-.248 0-.36267.31733-.62934.30133-.25333.67467-.25333.18933 0 .28533.112.096.112.096.30667zm-.16266.0613q0-.12267-.13867-.184-.104-.0453-.248-.0453-.21067 0-.44.20533-.22934.20533-.22934.41333 0 .0853.0427.12267.0453.0347.136.0347.26133 0 .544-.144.33334-.17067.33334-.40267z"/><path d="m271.88406 219.63644q0 .12533-.13333.336-.0853.13333-.28.384-.19467.248-.24267.32533.008.003.2.064.19467.0587.19467.21333-.08.0133-.15734.024l-.0293-.003v-.0213q-.0427-.0107-.0693-.0107-.0507 0-.16.016-.10934.016-.16534.016-.072 0-.11733-.0267-.0453-.0267-.0453-.096 0-.056.20534-.31733.384-.488.38667-.49334.208-.28266.208-.37866 0-.0373-.0267-.056-.024-.0187-.0987-.0187-.0507 0-.21066.0987-.0773.048-.12534.048l-.0453-.008q-.016-.0107-.0347-.04-.0187-.032-.0187-.0507 0-.112.216-.20533.184-.08.32-.08.11466 0 .176.0853.0533.0747.0533.19467z"/><path d="m273.11073 219.63644q0 .12533-.13334.336-.0853.13333-.28.384-.19467.248-.24267.32533.008.003.2.064.19467.0587.19467.21333-.08.0133-.15733.024l-.0293-.003v-.0213q-.0427-.0107-.0693-.0107-.0507 0-.16.016-.10933.016-.16533.016-.072 0-.11734-.0267-.0453-.0267-.0453-.096 0-.056.20533-.31733.384-.488.38667-.49334.208-.28266.208-.37866 0-.0373-.0267-.056-.024-.0187-.0987-.0187-.0507 0-.21067.0987-.0773.048-.12533.048l-.0453-.008q-.016-.0107-.0347-.04-.0187-.032-.0187-.0507 0-.112.216-.20533.184-.08.32-.08.11467 0 .176.0853.0533.0747.0533.19467z"/></g></g></svg>