<svg height="352.60361" viewBox="0 0 915.71933 528.90541" width="610.47955" xmlns="http://www.w3.org/2000/svg"><g fill="#f4f4f4" fill-opacity=".5" stroke-width="1.5"><path d="m179.59959 191.27566q0 .48-.116.808-.172.488-.552.488-.252 0-.528-.116-.332-.14-.364-.344.112 0 .264.04.352.092.44.092.34 0 .512-.34.136-.272.136-.652 0-.268-.176-.764-.172-.5-.172-.69601 0-.06.032-.096.036-.04.096-.04.156 0 .304.72001.124.608.124.9z"/><path d="m181.1396 191.68366q0 .408-.236.64-.23601.232-.65201.232-.228 0-.352-.108-.124-.108-.124-.332 0-.316.412-.636.392-.304.72401-.304.152 0 .2.188.028.108.028.32zm-.244.112q0-.048-.012-.092-.008-.048-.032-.108-.064.044-.21201.216-.076.088-.132.128 0-.076.016-.124.032-.068.052-.116-.176 0-.368.148-.188.148-.188.32 0 .116.128.116.244 0 .472-.12.27601-.144.27601-.368z"/><path d="m182.7876 191.84766q0 .196-.148.44-.168.276-.348.276-.052 0-.088-.056-.032-.06-.032-.116 0-.072.152-.224.156-.156.156-.212 0-.036-.012-.072-.012-.036-.016-.048-.3.068-.612.344-.308.276-.468.312-.032-.088-.032-.18 0-.112.052-.236.036-.088.12-.212.14-.212.296-.48.08-.14.276-.484.2-.344.292-.488.048-.072.084-.108.052-.048.124-.064.048.016.068.06.024.044.024.104 0 .136-.176.368-.32.416-.328.432-.18.272-.18.492l.008.04q.22-.108.26-.124.164-.068.28-.068.128 0 .188.088.06.084.06.216z"/><path d="m184.64361 191.61166q0 .272-.132.58-.144.34-.356.468-.044-.052-.076-.116-.028-.064-.028-.128 0-.068.2-.404.088-.148.08-.26l-.004-.052q-.148.044-.512.268-.36.22-.72801.448-.056 0-.104-.04-.044-.044-.044-.096 0-.084.268-.564.08-.144.28801-.5.064.084.084.188.02.1.02.24 0 .06 0 .092.368-.22.576-.332.228-.124.312-.124.056 0 .104.128.052.128.052.204z"/><path d="m188.11961 192.38766q0 .072-.064.112-.06.036-.136.036-.068 0-.172-.016-.236-.036-.304-.036-.12 0-.472.028-.2.016-.288.016-.244 0-.244-.244 0-.232.152-.664.084-.244.316-.8.208-.5.264-.704.02-.064.032-.084.032-.048.08-.048.076 0 .128.112.052.108.052.196 0 .14-.164.472-.164.328-.32.644-.172.376-.172.572 0 .1.084.14.06.028.176.028.088 0 .304-.02.216-.024.288-.024.18 0 .296.052.164.072.164.232z"/><path d="m189.60762 191.68366q0 .408-.236.64-.236.232-.652.232-.228 0-.352-.108-.124-.108-.124-.332 0-.316.412-.636.392-.304.724-.304.152 0 .2.188.028.108.028.32zm-.244.112q0-.048-.012-.092-.008-.048-.032-.108-.064.044-.212.216-.076.088-.132.128 0-.076.016-.124.032-.068.052-.116-.176 0-.368.148-.188.148-.188.32 0 .116.128.116.244 0 .472-.12.276-.144.276-.368z"/><path d="m191.29162 191.59966q0 .128-.068.272-.064.144-.164.24l-.004-.056q0-.048.012-.148.012-.1.012-.148 0-.068-.02-.1-.02-.036-.084-.036-.188 0-.468.292-.304.32-.604.636-.024 0-.048-.004-.06-.016-.08-.02.012-.144.1-.32.236-.476.244-.508.032-.128.048-.188.016-.06.044-.124.032-.068.072-.12.044-.056.112-.084l.04.48q.172-.14.264-.216.176-.14.304-.14.128 0 .208.084.08.084.08.208z"/><path d="m193.25563 191.13566q0 .168-.448.444-.432.264-.628.264-.092 0-.124-.064-.028-.064-.028-.18 0-.076 0-.108.268 0 .488-.08.22-.08.384-.264-.12-.044-.244-.044-.292 0-.62.224-.36.244-.36.52 0 .264.36.368.056.016.676.112.364.056.364.196 0 .06-.132.096-.132.04-.336.04-.512 0-.808-.156-.392-.208-.392-.668 0-.48.48-.764.408-.24.928-.24.156 0 .284.072.156.088.156.232z"/><path d="m194.84764 190.41966q0 .088-.212.368-.212.28-.212.428 0 .076.088.152.2.176.2.216 0 .052-.036.1-.032.048-.084.048-.044 0-.124-.048-.056-.032-.216-.156-.06.116-.092.176-.112.212-.152.308-.06.184-.12.368-.10401.248-.26001.248l-.004-.092q0-.284.184-.672.036-.072.20001-.372-.31601-.172-.69601-.172 0-.148.06-.216.064-.072.212-.072.136 0 .34001.048.1.024.2.048.076-.024.208-.26.324-.568.44-.652.032.052.052.104.024.052.024.1z"/><path d="m196.32364 191.84766q0 .196-.148.44-.168.276-.348.276-.052 0-.088-.056-.032-.06-.032-.116 0-.072.152-.224.156-.156.156-.212 0-.036-.012-.072-.012-.036-.016-.048-.3.068-.612.344-.308.276-.468.312-.032-.088-.032-.18 0-.112.052-.236.036-.088.12-.212.14-.212.296-.48.08-.14.276-.484.2-.344.292-.488.048-.072.084-.108.052-.048.124-.064.048.016.068.06.024.044.024.104 0 .136-.176.368-.32.416-.328.432-.18.272-.18.492l.008.04q.22-.108.26-.124.164-.068.28-.068.128 0 .188.088.06.084.06.216z"/><path d="m199.60766 190.54366q0 .188-.2.504-.128.2-.42.576-.29201.372-.36401.488.012.004.30001.096.292.088.292.32-.12.02-.236.036l-.044-.004v-.032q-.064-.016-.104-.016-.076 0-.24001.024-.164.024-.248.024-.108 0-.176-.04-.068-.04-.068-.144 0-.084.308-.476.57601-.732.58001-.74.312-.424.312-.568 0-.056-.04-.084-.036-.028-.148-.028-.076 0-.316.148-.11601.072-.18801.072l-.068-.012q-.024-.016-.052-.06-.028-.048-.028-.076 0-.168.32401-.308.276-.12.48-.12.172 0 .264.128.08.112.08.292z"/><path d="m202.01166 191.26366q0 .484-.524.856-.48.34-.988.34-.252 0-.4-.128-.148-.128-.148-.372 0-.544.476-.944.452-.38 1.012-.38.284 0 .428.168.144.168.144.46zm-.244.092q0-.184-.208-.276-.156-.068-.372-.068-.316 0-.66.308-.344.308-.344.62 0 .128.064.184.068.052.204.052.392 0 .816-.216.5-.256.5-.604z"/><path d="m203.84367 190.54366q0 .188-.2.504-.128.2-.42.576-.292.372-.364.488.012.004.3.096.292.088.292.32-.12.02-.236.036l-.044-.004v-.032q-.064-.016-.104-.016-.076 0-.24.024-.164.024-.248.024-.108 0-.176-.04-.068-.04-.068-.144 0-.084.30801-.476.576-.732.58-.74.312-.424.312-.568 0-.056-.04-.084-.036-.028-.148-.028-.076 0-.316.148-.116.072-.188.072l-.068-.012q-.024-.016-.052-.06-.028-.048-.028-.076 0-.168.324-.308.276-.12.48-.12.172 0 .264.128.08.112.08.292z"/><path d="m205.68367 190.54366q0 .188-.2.504-.128.2-.42.576-.292.372-.364.488.012.004.3.096.292.088.292.32-.12.02-.236.036l-.044-.004v-.032q-.064-.016-.104-.016-.076 0-.24.024-.164.024-.248.024-.108 0-.176-.04-.068-.04-.068-.144 0-.084.308-.476.576-.732.58-.74.312-.424.312-.568 0-.056-.04-.084-.036-.028-.148-.028-.076 0-.316.148-.116.072-.188.072l-.068-.012q-.024-.016-.052-.06-.028-.048-.028-.076 0-.168.324-.308.276-.12.48-.12.172 0 .264.128.08.112.08.292z"/></g><g fill="none" stroke="#f4f4f4" transform="translate(-15.852856 -210.85521)"><g><g stroke-width="3"><path d="m477.80469 211.85547c-62.32336-.0302-124.63485 2.57213-186.9336 7.89844-10.25645.87689-18.58007 8.43729-18.58007 18.91601v3.85547l-117.18487 5.90724c-74.348821 3.74789-121.097551 28.49325-128.993219 134.47611-2.630282 35.30605-7.733577 72.249-8.440047 109.20926-.710011 37.14548-1.856652 80.89749 1.145311 118.79797 3.175088 40.08623 11.313254 74.45899 46.506619 100.75694 28.44117 21.25243 64.402236 27.30791 103.948436 27.08167l311.17421-1.78026 311.17421-1.78026c78.83613-.45103 135.0487-39.69729 136.05507-130.2248 3.77011-56.55416 3.68704-109.9758.74409-165.69572l-3.96909-47.77335c-8.8398-106.39912-39.7459-136.86106-130.42612-142.31756l-110.635-6.65724v-3.85547c.00001-10.47872-8.32189-18.05952-18.58007-18.91601-62.34713-5.20558-124.68251-7.86826-187.00586-7.89844z"/><path d="m477.80469 211.85547c-62.32336-.0302-124.63485 2.57213-186.9336 7.89844-10.25645.87689-18.58007 8.43729-18.58007 18.91601v395.44336c0 10.47871 8.43083 17.19458 18.58007 18.91406 124.90284 21.16098 249.54275 20.60893 373.93946 0 10.15545-1.68246 18.58007-8.43535 18.58007-18.91406v-395.44336c.00001-10.47872-8.32189-18.05952-18.58007-18.91601-62.34713-5.20558-124.68251-7.86826-187.00586-7.89844z"/><path d="m341.86372 273.53751h276.48838c2.46232 0 4.44462 1.9823 4.44462 4.44462v259.10813c0 2.46232-1.9823 4.44462-4.44462 4.44462h-276.48838c-2.46232 0-4.44462-1.9823-4.44462-4.44462v-259.10813c0-2.46232 1.9823-4.44462 4.44462-4.44462z"/></g><g stroke-width="1.02705" transform="matrix(1.460494 0 0 1.460494 -62.930764 -136.95121)"><path d="m142.39511 298.73846a3.7658491 3.7658513 0 0 1 -3.76585 3.76586 3.7658491 3.7658513 0 0 1 -3.76585-3.76586 3.7658491 3.7658513 0 0 1 3.76585-3.76585 3.7658491 3.7658513 0 0 1 3.76585 3.76585z"/><path d="m128.70111 298.73846a3.7658491 3.7658513 0 0 1 -3.76585 3.76586 3.7658491 3.7658513 0 0 1 -3.76585-3.76586 3.7658491 3.7658513 0 0 1 3.76585-3.76585 3.7658491 3.7658513 0 0 1 3.76585 3.76585z"/><path d="m155.62817 298.73508a3.7658491 3.7658513 0 0 1 -3.76585 3.76585 3.7658491 3.7658513 0 0 1 -3.76585-3.76585 3.7658491 3.7658513 0 0 1 3.76585-3.76585 3.7658491 3.7658513 0 0 1 3.76585 3.76585z"/><path d="m168.85493 298.73441a3.7658491 3.7658513 0 0 1 -3.76585 3.76585 3.7658491 3.7658513 0 0 1 -3.76585-3.76585 3.7658491 3.7658513 0 0 1 3.76585-3.76586 3.7658491 3.7658513 0 0 1 3.76585 3.76586z"/><path d="m182.33642 298.67697a3.7658491 3.7658513 0 0 1 -3.76585 3.76585 3.7658491 3.7658513 0 0 1 -3.76585-3.76585 3.7658491 3.7658513 0 0 1 3.76585-3.76585 3.7658491 3.7658513 0 0 1 3.76585 3.76585z"/><path d="m195.86961 298.67224a3.7658491 3.7658513 0 0 1 -3.76585 3.76585 3.7658491 3.7658513 0 0 1 -3.76585-3.76585 3.7658491 3.7658513 0 0 1 3.76585-3.76585 3.7658491 3.7658513 0 0 1 3.76585 3.76585z"/><path d="m142.37886 311.32095a3.7658491 3.7658513 0 0 1 -3.76585 3.76585 3.7658491 3.7658513 0 0 1 -3.76585-3.76585 3.7658491 3.7658513 0 0 1 3.76585-3.76585 3.7658491 3.7658513 0 0 1 3.76585 3.76585z"/><path d="m128.68486 311.32095a3.7658491 3.7658513 0 0 1 -3.76585 3.76585 3.7658491 3.7658513 0 0 1 -3.76585-3.76585 3.7658491 3.7658513 0 0 1 3.76585-3.76585 3.7658491 3.7658513 0 0 1 3.76585 3.76585z"/><path d="m155.61192 311.31757a3.7658491 3.7658513 0 0 1 -3.76585 3.76585 3.7658491 3.7658513 0 0 1 -3.76585-3.76585 3.7658491 3.7658513 0 0 1 3.76585-3.76586 3.7658491 3.7658513 0 0 1 3.76585 3.76586z"/><path d="m168.83868 311.31689a3.7658491 3.7658513 0 0 1 -3.76585 3.76586 3.7658491 3.7658513 0 0 1 -3.76585-3.76586 3.7658491 3.7658513 0 0 1 3.76585-3.76585 3.7658491 3.7658513 0 0 1 3.76585 3.76585z"/><path d="m182.32017 311.25946a3.7658491 3.7658513 0 0 1 -3.76585 3.76585 3.7658491 3.7658513 0 0 1 -3.76585-3.76585 3.7658491 3.7658513 0 0 1 3.76585-3.76585 3.7658491 3.7658513 0 0 1 3.76585 3.76585z"/><path d="m195.85336 311.25473a3.7658491 3.7658513 0 0 1 -3.76585 3.76585 3.7658491 3.7658513 0 0 1 -3.76585-3.76585 3.7658491 3.7658513 0 0 1 3.76585-3.76585 3.7658491 3.7658513 0 0 1 3.76585 3.76585z"/><path d="m142.48303 324.26706a3.7658491 3.7658513 0 0 1 -3.76585 3.76585 3.7658491 3.7658513 0 0 1 -3.76585-3.76585 3.7658491 3.7658513 0 0 1 3.76585-3.76585 3.7658491 3.7658513 0 0 1 3.76585 3.76585z"/><path d="m128.78903 324.26706a3.7658491 3.7658513 0 0 1 -3.76585 3.76585 3.7658491 3.7658513 0 0 1 -3.76585-3.76585 3.7658491 3.7658513 0 0 1 3.76585-3.76585 3.7658491 3.7658513 0 0 1 3.76585 3.76585z"/><path d="m155.71609 324.26367a3.7658491 3.7658513 0 0 1 -3.76585 3.76585 3.7658491 3.7658513 0 0 1 -3.76585-3.76585 3.7658491 3.7658513 0 0 1 3.76585-3.76585 3.7658491 3.7658513 0 0 1 3.76585 3.76585z"/><path d="m168.94285 324.263a3.7658491 3.7658513 0 0 1 -3.76585 3.76585 3.7658491 3.7658513 0 0 1 -3.76585-3.76585 3.7658491 3.7658513 0 0 1 3.76585-3.76585 3.7658491 3.7658513 0 0 1 3.76585 3.76585z"/><path d="m182.42434 324.20557a3.7658491 3.7658513 0 0 1 -3.76585 3.76585 3.7658491 3.7658513 0 0 1 -3.76585-3.76585 3.7658491 3.7658513 0 0 1 3.76585-3.76585 3.7658491 3.7658513 0 0 1 3.76585 3.76585z"/><path d="m195.95753 324.20084a3.7658491 3.7658513 0 0 1 -3.76585 3.76585 3.7658491 3.7658513 0 0 1 -3.76585-3.76585 3.7658491 3.7658513 0 0 1 3.76585-3.76586 3.7658491 3.7658513 0 0 1 3.76585 3.76586z"/><path d="m142.46678 336.84955a3.7658491 3.7658513 0 0 1 -3.76585 3.76585 3.7658491 3.7658513 0 0 1 -3.76585-3.76585 3.7658491 3.7658513 0 0 1 3.76585-3.76585 3.7658491 3.7658513 0 0 1 3.76585 3.76585z"/><path d="m128.77276 336.84955a3.7658491 3.7658513 0 0 1 -3.76585 3.76585 3.7658491 3.7658513 0 0 1 -3.76585-3.76585 3.7658491 3.7658513 0 0 1 3.76585-3.76585 3.7658491 3.7658513 0 0 1 3.76585 3.76585z"/><path d="m155.69984 336.84616a3.7658491 3.7658513 0 0 1 -3.76585 3.76585 3.7658491 3.7658513 0 0 1 -3.76585-3.76585 3.7658491 3.7658513 0 0 1 3.76585-3.76585 3.7658491 3.7658513 0 0 1 3.76585 3.76585z"/><path d="m168.9266 336.84549a3.7658491 3.7658513 0 0 1 -3.76585 3.76585 3.7658491 3.7658513 0 0 1 -3.76585-3.76585 3.7658491 3.7658513 0 0 1 3.76585-3.76585 3.7658491 3.7658513 0 0 1 3.76585 3.76585z"/><path d="m182.40809 336.78806a3.7658491 3.7658513 0 0 1 -3.76585 3.76585 3.7658491 3.7658513 0 0 1 -3.76585-3.76585 3.7658491 3.7658513 0 0 1 3.76585-3.76586 3.7658491 3.7658513 0 0 1 3.76585 3.76586z"/><path d="m195.94128 336.78333a3.7658491 3.7658513 0 0 1 -3.76585 3.76585 3.7658491 3.7658513 0 0 1 -3.76585-3.76585 3.7658491 3.7658513 0 0 1 3.76585-3.76586 3.7658491 3.7658513 0 0 1 3.76585 3.76586z"/><path d="m142.37886 349.66373a3.7658491 3.7658513 0 0 1 -3.76585 3.76585 3.7658491 3.7658513 0 0 1 -3.76585-3.76585 3.7658491 3.7658513 0 0 1 3.76585-3.76585 3.7658491 3.7658513 0 0 1 3.76585 3.76585z"/><path d="m128.68486 349.66373a3.7658491 3.7658513 0 0 1 -3.76585 3.76585 3.7658491 3.7658513 0 0 1 -3.76585-3.76585 3.7658491 3.7658513 0 0 1 3.76585-3.76585 3.7658491 3.7658513 0 0 1 3.76585 3.76585z"/><path d="m155.61192 349.66034a3.7658491 3.7658513 0 0 1 -3.76585 3.76585 3.7658491 3.7658513 0 0 1 -3.76585-3.76585 3.7658491 3.7658513 0 0 1 3.76585-3.76585 3.7658491 3.7658513 0 0 1 3.76585 3.76585z"/><path d="m168.83868 349.65967a3.7658491 3.7658513 0 0 1 -3.76585 3.76585 3.7658491 3.7658513 0 0 1 -3.76585-3.76585 3.7658491 3.7658513 0 0 1 3.76585-3.76585 3.7658491 3.7658513 0 0 1 3.76585 3.76585z"/><path d="m182.32017 349.60223a3.7658491 3.7658513 0 0 1 -3.76585 3.76586 3.7658491 3.7658513 0 0 1 -3.76585-3.76586 3.7658491 3.7658513 0 0 1 3.76585-3.76585 3.7658491 3.7658513 0 0 1 3.76585 3.76585z"/><path d="m195.85336 349.5975a3.7658491 3.7658513 0 0 1 -3.76585 3.76585 3.7658491 3.7658513 0 0 1 -3.76585-3.76585 3.7658491 3.7658513 0 0 1 3.76585-3.76585 3.7658491 3.7658513 0 0 1 3.76585 3.76585z"/><path d="m142.48303 362.60983a3.7658491 3.7658513 0 0 1 -3.76585 3.76585 3.7658491 3.7658513 0 0 1 -3.76585-3.76585 3.7658491 3.7658513 0 0 1 3.76585-3.76585 3.7658491 3.7658513 0 0 1 3.76585 3.76585z"/><path d="m128.78903 362.60983a3.7658491 3.7658513 0 0 1 -3.76585 3.76585 3.7658491 3.7658513 0 0 1 -3.76585-3.76585 3.7658491 3.7658513 0 0 1 3.76585-3.76585 3.7658491 3.7658513 0 0 1 3.76585 3.76585z"/><path d="m155.71609 362.60645a3.7658491 3.7658513 0 0 1 -3.76585 3.76585 3.7658491 3.7658513 0 0 1 -3.76585-3.76585 3.7658491 3.7658513 0 0 1 3.76585-3.76586 3.7658491 3.7658513 0 0 1 3.76585 3.76586z"/><path d="m168.94285 362.60577a3.7658491 3.7658513 0 0 1 -3.76585 3.76586 3.7658491 3.7658513 0 0 1 -3.76585-3.76586 3.7658491 3.7658513 0 0 1 3.76585-3.76585 3.7658491 3.7658513 0 0 1 3.76585 3.76585z"/><path d="m182.42434 362.54834a3.7658491 3.7658513 0 0 1 -3.76585 3.76585 3.7658491 3.7658513 0 0 1 -3.76585-3.76585 3.7658491 3.7658513 0 0 1 3.76585-3.76585 3.7658491 3.7658513 0 0 1 3.76585 3.76585z"/><path d="m195.95753 362.54361a3.7658491 3.7658513 0 0 1 -3.76585 3.76585 3.7658491 3.7658513 0 0 1 -3.76585-3.76585 3.7658491 3.7658513 0 0 1 3.76585-3.76585 3.7658491 3.7658513 0 0 1 3.76585 3.76585z"/><path d="m142.46678 375.19232a3.7658491 3.7658513 0 0 1 -3.76585 3.76585 3.7658491 3.7658513 0 0 1 -3.76585-3.76585 3.7658491 3.7658513 0 0 1 3.76585-3.76585 3.7658491 3.7658513 0 0 1 3.76585 3.76585z"/><path d="m128.77276 375.19232a3.7658491 3.7658513 0 0 1 -3.76585 3.76585 3.7658491 3.7658513 0 0 1 -3.76585-3.76585 3.7658491 3.7658513 0 0 1 3.76585-3.76585 3.7658491 3.7658513 0 0 1 3.76585 3.76585z"/><path d="m155.69984 375.18893a3.7658491 3.7658513 0 0 1 -3.76585 3.76586 3.7658491 3.7658513 0 0 1 -3.76585-3.76586 3.7658491 3.7658513 0 0 1 3.76585-3.76585 3.7658491 3.7658513 0 0 1 3.76585 3.76585z"/><path d="m168.9266 375.18826a3.7658491 3.7658513 0 0 1 -3.76585 3.76585 3.7658491 3.7658513 0 0 1 -3.76585-3.76585 3.7658491 3.7658513 0 0 1 3.76585-3.76585 3.7658491 3.7658513 0 0 1 3.76585 3.76585z"/><path d="m182.40809 375.13083a3.7658491 3.7658513 0 0 1 -3.76585 3.76585 3.7658491 3.7658513 0 0 1 -3.76585-3.76585 3.7658491 3.7658513 0 0 1 3.76585-3.76585 3.7658491 3.7658513 0 0 1 3.76585 3.76585z"/><path d="m195.94128 375.1261a3.7658491 3.7658513 0 0 1 -3.76585 3.76585 3.7658491 3.7658513 0 0 1 -3.76585-3.76585 3.7658491 3.7658513 0 0 1 3.76585-3.76585 3.7658491 3.7658513 0 0 1 3.76585 3.76585z"/></g><g stroke-width="1.5"><path d="m246.28173 524.21545a82.817253 81.939949 0 0 1 -82.81725 81.93995 82.817253 81.939949 0 0 1 -82.817256-81.93995 82.817253 81.939949 0 0 1 82.817256-81.93994 82.817253 81.939949 0 0 1 82.81725 81.93994z"/><g transform="matrix(.70710678 -.70710678 .70710678 .70710678 0 0)"><path d="m149.55292 897.94891h83c20.3279 0 36.69297 16.36507 36.69297 36.69297 0 20.32791-16.36507 36.69297-36.69297 36.69297h-83c-20.32791 0-36.69297-16.36506-36.69297-36.69297 0-20.3279 16.36506-36.69297 36.69297-36.69297z"/><path d="m271.63091 760.13562h32.0275c9.4848 0 17.12057 7.63578 17.12057 17.12058s-7.63577 17.12057-17.12057 17.12057h-32.0275c-9.4848 0-17.12058-7.63577-17.12058-17.12057s7.63578-17.12058 17.12058-17.12058z"/><path d="m327.18671 815.3446h32.0275c9.4848 0 17.12058 7.63578 17.12058 17.12058s-7.63578 17.12058-17.12058 17.12058h-32.0275c-9.4848 0-17.12058-7.63578-17.12058-17.12058s7.63578-17.12058 17.12058-17.12058z"/></g></g></g><g><path d="m792.16364 556.1507a26.958315 26.958313 0 0 1 -26.95832 26.95831 26.958315 26.958313 0 0 1 -26.95831-26.95831 26.958315 26.958313 0 0 1 26.95831-26.95832 26.958315 26.958313 0 0 1 26.95832 26.95832z" stroke-width="3"/><path d="m853.68335 495.68292a26.958315 26.958313 0 0 1 -26.95831 26.95832 26.958315 26.958313 0 0 1 -26.95832-26.95832 26.958315 26.958313 0 0 1 26.95832-26.95831 26.958315 26.958313 0 0 1 26.95831 26.95831z" stroke-width="3"/><path d="m272.69582 772.6051h25.60051c4.75943 0 8.59103 3.8316 8.59103 8.59102v.0329c0 4.75943-3.8316 8.59102-8.59103 8.59102h-25.60051c-4.75943 0-8.59102-3.83159-8.59102-8.59102v-.0329c0-4.75942 3.83159-8.59102 8.59102-8.59102z" stroke-width="3.00009" transform="matrix(.6969991 -.717072 .70928238 .70492447 0 0)"/><path d="m327.68358 828.53906h25.60052c4.75942 0 8.59102 3.8316 8.59102 8.59102v.0329c0 4.75943-3.8316 8.59102-8.59102 8.59102h-25.60052c-4.75942 0-8.59102-3.83159-8.59102-8.59102v-.0329c0-4.75942 3.8316-8.59102 8.59102-8.59102z" stroke-width="3.00009" transform="matrix(.6969991 -.717072 .70928238 .70492447 0 0)"/><g stroke-width="3"><path d="m234.7438 524.28979a71.078423 71.078423 0 0 1 -71.07843 71.07843 71.078423 71.078423 0 0 1 -71.078418-71.07843 71.078423 71.078423 0 0 1 71.078418-71.07842 71.078423 71.078423 0 0 1 71.07843 71.07842z" stroke-width="3"/><path d="m152.875 458.56641c-3.61262 0-6.52148 2.90886-6.52148 6.52148v42.12109h-42.11914c-3.61262 0-6.521489 2.90692-6.521489 6.51954v21.1875c0 3.61261 2.908869 6.52148 6.521489 6.52148h42.11914v42.12109c0 3.61262 2.90886 6.52149 6.52148 6.52149h21.1875c3.61262 0 6.52148-2.90887 6.52148-6.52149v-42.12109h42.11914c3.61262 0 6.52149-2.90887 6.52149-6.52148v-21.1875c0-3.61262-2.90887-6.51954-6.52149-6.51954h-42.11914v-42.12109c0-3.61262-2.90886-6.52148-6.52148-6.52148z" stroke-width="3"/><g stroke-width="6.92604"><path d="m181.25743 497.63287-15.86452-6.91233-15.86452-6.91233 13.91851-10.28291 13.91851-10.28291 1.94601 17.19524z" transform="matrix(.39348175 -.18107851 .18107851 .39348175 9.708722 314.98647)"/><path d="m181.25743 497.63287-15.86452-6.91233-15.86452-6.91233 13.91851-10.28291 13.91851-10.28291 1.94601 17.19524z" transform="matrix(-.39348175 .18107851 -.18107851 -.39348175 317.13974 730.32986)"/><path d="m181.25743 497.63287-15.86452-6.91233-15.86452-6.91233 13.91851-10.28291 13.91851-10.28291 1.94601 17.19524z" transform="matrix(-.18107851 -.39348175 .39348175 -.18107851 -42.954256 678.13645)"/><path d="m181.25743 497.63287-15.86452-6.91233-15.86452-6.91233 13.91851-10.28291 13.91851-10.28291 1.94601 17.19524z" transform="matrix(.18107851 .39348175 -.39348175 .18107851 373.00835 370.78987)"/></g></g></g></g></svg>