<svg height="354.08536" viewBox="0 0 1162.1944 778.98779" width="528.2702" xmlns="http://www.w3.org/2000/svg"><g fill="#f4f4f4" fill-opacity=".5" stroke-width="2.2"><path d="m1086.1605 532.9188q0 .704-.1701 1.18507-.2523.71573-.8096.71573-.3696 0-.7744-.17013-.4869-.20533-.5339-.50454.1643 0 .3872.0587.5163.13494.6454.13494.4986 0 .7509-.49867.1995-.39894.1995-.95627 0-.39307-.2582-1.12053-.2522-.73334-.2522-1.0208 0-.088.047-.1408.053-.0587.1408-.0587.2288 0 .4459 1.056.1818.89173.1818 1.32z"/><path d="m1088.4192 533.5172q0 .5984-.3461.93867-.3462.34027-.9563.34027-.3344 0-.5163-.1584-.1818-.1584-.1818-.48694 0-.46347.6042-.9328.575-.44587 1.0619-.44587.2229 0 .2933.27574.041.1584.041.46933zm-.3579.16427q0-.0704-.018-.13494-.012-.0704-.047-.1584-.094.0645-.3109.3168-.1115.12907-.1936.18774 0-.11147.023-.18187.047-.0997.076-.17013-.2581 0-.5397.21706-.2758.21707-.2758.46934 0 .17013.1878.17013.3578 0 .6922-.176.4048-.2112.4048-.53973z"/><path d="m1090.8363 533.75773q0 .28747-.2171.64534-.2464.4048-.5104.4048-.076 0-.1291-.0821-.047-.088-.047-.17014 0-.1056.2229-.32853.2288-.2288.2288-.31094 0-.0528-.018-.1056-.018-.0528-.023-.0704-.44.0997-.8976.50454-.4518.4048-.6864.4576-.047-.12907-.047-.264 0-.16427.076-.34614.053-.12906.176-.31093.2053-.31093.4341-.704.1174-.20533.4048-.70987.2934-.50453.4283-.71573.07-.1056.1232-.1584.076-.0704.1819-.0939.07.0235.1.088.035.0645.035.15254 0 .19946-.2581.53973-.4694.61013-.4811.6336-.264.39893-.264.7216l.012.0587q.3227-.1584.3814-.18187.2405-.0997.4106-.0997.1878 0 .2758.12906.088.1232.088.3168z"/><path d="m1093.5584 533.4116q0 .39893-.1936.85067-.2112.49867-.5221.6864-.065-.0763-.1115-.17013-.041-.0939-.041-.18774 0-.0997.2934-.59253.129-.21707.1173-.38134l-.01-.0763q-.217.0645-.7509.39306-.528.32267-1.0677.65707-.082 0-.1526-.0587-.065-.0645-.065-.1408 0-.12321.3931-.82721.1173-.2112.4224-.73333.094.1232.1232.27573.029.14667.029.352 0 .088 0 .13494.5397-.32267.8448-.48694.3344-.18186.4576-.18186.082 0 .1525.18773.076.18773.076.2992z"/><path d="m1098.6565 534.54974q0 .1056-.094.16426-.088.0528-.1995.0528-.1 0-.2523-.0235-.3461-.0528-.4458-.0528-.176 0-.6923.0411-.2933.0235-.4224.0235-.3579 0-.3579-.35787 0-.34027.223-.97387.1232-.35786.4634-1.17333.3051-.73333.3872-1.03253.029-.0939.047-.1232.047-.0704.1173-.0704.1115 0 .1877.16426.076.1584.076.28747 0 .20533-.2405.69227-.2406.48106-.4694.94453-.2522.55147-.2522.83893 0 .14667.1232.20534.088.0411.2581.0411.1291 0 .4459-.0293.3168-.0352.4224-.0352.264 0 .4341.0763.2405.1056.2405.34027z"/><path d="m1100.8389 533.5172q0 .5984-.3461.93867-.3461.34027-.9563.34027-.3344 0-.5162-.1584-.1819-.1584-.1819-.48694 0-.46347.6043-.9328.5749-.44587 1.0618-.44587.223 0 .2934.27574.041.1584.041.46933zm-.3578.16427q0-.0704-.018-.13494-.012-.0704-.047-.1584-.094.0645-.3109.3168-.1115.12907-.1936.18774 0-.11147.024-.18187.047-.0997.076-.17013-.2581 0-.5397.21706-.2757.21707-.2757.46934 0 .17013.1877.17013.3579 0 .6923-.176.4048-.2112.4048-.53973z"/><path d="m1103.3088 533.394q0 .18773-.1.39893-.094.2112-.2406.352l-.01-.0821q0-.0704.018-.21707.018-.14666.018-.21706 0-.0997-.029-.14667-.029-.0528-.1232-.0528-.2757 0-.6864.42827-.4458.46933-.8858.9328-.035 0-.07-.006-.088-.0235-.1174-.0293.018-.2112.1467-.46934.3461-.69813.3579-.74506.047-.18774.07-.27574.023-.088.064-.18186.047-.0997.1056-.176.064-.0821.1643-.1232l.059.704q.2523-.20534.3872-.3168.2582-.20534.4459-.20534.1877 0 .3051.1232.1173.1232.1173.30507z"/><path d="m1106.1893 532.71347q0 .2464-.657.6512-.6336.3872-.9211.3872-.1349 0-.1819-.0939-.041-.0939-.041-.264 0-.11147 0-.1584.393 0 .7157-.11733.3227-.11734.5632-.3872-.176-.0645-.3579-.0645-.4282 0-.9093.32854-.528.35786-.528.76266 0 .3872.528.53974.082.0235.9915.16427.5338.0821.5338.28746 0 .088-.1936.1408-.1936.0587-.4928.0587-.7509 0-1.185-.2288-.575-.30507-.575-.97974 0-.704.704-1.12053.5984-.352 1.3611-.352.2288 0 .4165.1056.2288.12907.2288.34027z"/><path d="m1108.5243 531.66333q0 .12907-.311.53974-.3109.41066-.3109.62773 0 .11147.1291.22293.2933.25814.2933.3168 0 .0763-.053.14667-.047.0704-.1232.0704-.064 0-.1819-.0704-.082-.0469-.3168-.2288-.088.17013-.1349.25813-.1643.31094-.2229.45174-.088.26986-.176.53973-.1526.36374-.3814.36374l-.01-.13494q0-.41653.2698-.9856.053-.1056.2934-.5456-.4635-.25227-1.0208-.25227 0-.21706.088-.3168.094-.1056.3109-.1056.1995 0 .4987.0704.1466.0352.2933.0704.1115-.0352.3051-.38133.4752-.83307.6453-.95627.047.0763.076.15254.035.0763.035.14666z"/><path d="m1110.6891 533.75773q0 .28747-.2171.64534-.2464.4048-.5104.4048-.076 0-.129-.0821-.047-.088-.047-.17014 0-.1056.223-.32853.2288-.2288.2288-.31094 0-.0528-.018-.1056-.018-.0528-.024-.0704-.44.0997-.8976.50454-.4517.4048-.6864.4576-.047-.12907-.047-.264 0-.16427.076-.34614.053-.12906.176-.31093.2054-.31093.4342-.704.1173-.20533.4048-.70987.2933-.50453.4282-.71573.07-.1056.1232-.1584.076-.0704.1819-.0939.07.0235.1.088.035.0645.035.15254 0 .19946-.2581.53973-.4693.61013-.4811.6336-.264.39893-.264.7216l.012.0587q.3226-.1584.3813-.18187.2405-.0997.4107-.0997.1877 0 .2757.12906.088.1232.088.3168z"/><path d="m1115.5056 531.8452q0 .27573-.2933.7392-.1877.29333-.616.8448-.4283.5456-.5339.71573.018.006.44.1408.4283.12907.4283.46934-.176.0293-.3461.0528l-.065-.006v-.0469q-.094-.0235-.1525-.0235-.1115 0-.352.0352-.2405.0352-.3637.0352-.1584 0-.2582-.0587-.1-.0587-.1-.2112 0-.1232.4517-.69814.8448-1.0736.8507-1.08533.4576-.62187.4576-.83307 0-.0821-.059-.1232-.053-.0411-.217-.0411-.1115 0-.4635.21707-.1701.1056-.2757.1056l-.1-.0176q-.035-.0235-.076-.088-.041-.0704-.041-.11147 0-.2464.4752-.45173.4048-.176.704-.176.2523 0 .3872.18773.1173.16427.1173.42827z"/><path d="m1119.0315 532.9012q0 .70987-.7685 1.25547-.704.49867-1.4491.49867-.3696 0-.5867-.18774-.217-.18773-.217-.5456 0-.79787.6981-1.38453.6629-.55734 1.4843-.55734.4165 0 .6277.2464.2112.2464.2112.67467zm-.3579.13493q0-.26986-.305-.4048-.2288-.0997-.5456-.0997-.4635 0-.968.45173-.5046.45174-.5046.90934 0 .18773.094.26986.1.0763.2992.0763.5749 0 1.1968-.3168.7333-.37547.7333-.88587z"/><path d="m1121.7184 531.8452q0 .27573-.2933.7392-.1877.29333-.616.8448-.4283.5456-.5339.71573.018.006.44.1408.4283.12907.4283.46934-.176.0293-.3461.0528l-.065-.006v-.0469q-.094-.0235-.1525-.0235-.1115 0-.352.0352-.2405.0352-.3637.0352-.1584 0-.2582-.0587-.1-.0587-.1-.2112 0-.1232.4517-.69814.8448-1.0736.8507-1.08533.4576-.62187.4576-.83307 0-.0821-.059-.1232-.053-.0411-.217-.0411-.1115 0-.4635.21707-.1701.1056-.2757.1056l-.1-.0176q-.035-.0235-.076-.088-.041-.0704-.041-.11147 0-.2464.4752-.45173.4048-.176.704-.176.2523 0 .3872.18773.1173.16427.1173.42827z"/><path d="m1124.4171 531.8452q0 .27573-.2933.7392-.1878.29333-.616.8448-.4283.5456-.5339.71573.018.006.44.1408.4283.12907.4283.46934-.176.0293-.3462.0528l-.065-.006v-.0469q-.094-.0235-.1525-.0235-.1115 0-.352.0352-.2406.0352-.3638.0352-.1584 0-.2581-.0587-.1-.0587-.1-.2112 0-.1232.4517-.69814.8448-1.0736.8507-1.08533.4576-.62187.4576-.83307 0-.0821-.059-.1232-.053-.0411-.2171-.0411-.1114 0-.4634.21707-.1702.1056-.2758.1056l-.1-.0176q-.035-.0235-.076-.088-.041-.0704-.041-.11147 0-.2464.4752-.45173.4048-.176.704-.176.2522 0 .3872.18773.1173.16427.1173.42827z"/></g><g stroke="#f4f4f4"><g stroke-width="4.4"><g fill="none" transform="translate(-24.801579 -76.874275)"><path d="m807.79492 232.04102c-.63834 0-1.25127.0925-1.8457.23242-.37053-.10375-.73413-.22852-1.13867-.22852h-448.1543c-2.37601 0-4.28906 1.91306-4.28906 4.28906v318.53516c0 2.37601 1.91305 4.28906 4.28906 4.28906h448.1543c2.37601 0 4.28906-1.91305 4.28906-4.28906v-80.56055h286.88089c4.4333 0 8.0039-3.57052 8.0039-8.0039v-226.26172c0-4.43338-3.5706-8.00195-8.0039-8.00195z"/><rect height="307.27673" ry="3.950677" width="437.68225" x="361.89041" y="242.76004"/><rect height="284.47925" ry="3.984538" width="330" x="414.41092" y="254.38647"/><path d="m85.190628 432.80569h159.98981v55.625034h-159.98981z"/><path d="m87.644165 508.83838h159.98981v55.625034h-159.98981z"/><path d="m155.8672 441.64117h50.843044v37.328388h-50.843044z"/><path d="m157.73447 517.77887h50.843044v37.328388h-50.843044z"/><path d="m1134.0673 168.24236h51.9287v326.14828h-51.9287zm-1091.145122-90.368085h1125.721422c9.4848 0 17.1206 7.635788 17.1206 17.1206v742.746595c0 9.48481-7.6358 17.1206-17.1206 17.1206h-1125.721422c-9.484812 0-17.120599-7.63579-17.120599-17.1206v-742.746595c0-9.484812 7.635787-17.1206 17.120599-17.1206zm1110.318822 416.818545v103.41404h-1093.684687v-476.14798h1093.684687v46.52489m-757.77903 648.48652v.98866h-335.872985l-.000002-219.81942h335.872987m.29839 220.1017 212.095-202.37976 545.27524-.25186.1104-17.5032"/></g><ellipse cx="162.948591" cy="623.315915" fill="none" rx="94.156258" ry="94.271835"/><g fill="#fff" transform="translate(-24.801579 -76.874275)"><rect height="8.46518" ry="3.03375" width="4.860888" x="184.92496" y="610.97827"/><rect height="8.46518" ry="3.03375" width="4.860888" x="184.92496" y="780.97827"/><rect height="8.46518" ry="3.03375" transform="rotate(90)" width="4.860888" x="697.63141" y="-276.72589"/><rect height="8.46518" ry="3.03375" transform="rotate(90)" width="4.860888" x="697.63141" y="-106.72589"/><rect height="8.46518" ry="3.03375" transform="matrix(-.70710678 .70710678 -.70710678 -.70710678 0 0)" width="4.860888" x="359.98196" y="-548.87469"/><rect height="8.46518" ry="3.03375" transform="matrix(-.70710678 .70710678 -.70710678 -.70710678 0 0)" width="4.860888" x="359.9245" y="-715.44135"/><g transform="matrix(-.70710678 -.70710678 .70710678 -.70710678 0 0)"><rect height="8.46518" ry="3.03375" width="4.860888" x="-630.15485" y="-449.88858"/><rect height="8.46518" ry="3.03375" width="4.860888" x="-630.18756" y="-283.34039"/></g></g></g><g stroke-width="2"><g stroke="#f4f4f4" stroke-width="4.4"><g fill="none"><path d="m1046.130321 456.259455h48.626522v21.613604h-48.626522z"/><path d="m936.130181 456.259455h48.626522v21.613604h-48.626522z"/><path d="m936.343131 565.136655h48.09745v41.097443h-48.09745z"/><path d="m1046.408821 565.136655h48.09745v41.097443h-48.09745z"/><path d="m1046.408821 669.136225h48.09745v41.097443h-48.09745z"/><path d="m936.342041 669.136225h48.09745v41.097443h-48.09745z"/><circle cx="162.508171" cy="623.425165" r="66.162949" stroke="#f4f4f4" stroke-width="4.4"/></g><g fill="#f4f4f4" stroke="none" transform="translate(-24.801579 -76.874275)"><path d="m187.4086 643.22689 2.87945 4.98736 2.87946 4.98737h-5.75891-5.75891l2.87946-4.98737z"/><path d="m-187.4086-656.52653 2.87945 4.98737 2.87946 4.98736h-5.75891-5.75891l2.87946-4.98736z" transform="matrix(-1 0 0 -1 0 100)"/><path d="m-187.4086-656.52653 2.87945 4.98737 2.87946 4.98736h-5.75891-5.75891l2.87946-4.98736z" transform="matrix(0 -1 1 0 787.28531 512.46811)"/><path d="m-187.4086-656.52653 2.87945 4.98737 2.87946 4.98736h-5.75891-5.75891l2.87946-4.98736z" transform="matrix(0 1 -1 0 -412.46811 887.28531)"/></g></g><g fill="#f4f4f4" stroke="none"><rect height="29.043703" ry="3.675512" width="14.573115" x="135.756341" y="369.509175"/><rect height="29.043703" ry="3.675512" width="14.573115" x="163.892011" y="445.061085"/></g></g></g></svg>