<svg height="351.10281" viewBox="0 0 2859.7266 1615.0729" width="621.67969" xmlns="http://www.w3.org/2000/svg"><path d="m2817.05 1041.2452q0 .7206-.7667 1.932-.4906.7666-1.61 2.208-1.1193 1.4259-1.3953 1.8706.046.015 1.15.368 1.1193.3373 1.1193 1.2267-.46.077-.9046.138l-.1687-.015v-.1226q-.2453-.061-.3987-.061-.2913 0-.92.092-.6286.092-.9506.092-.414 0-.6747-.1533-.2607-.1533-.2607-.552 0-.322 1.1807-1.8246 2.208-2.806 2.2233-2.8367 1.196-1.6253 1.196-2.1773 0-.2147-.1533-.322-.138-.1074-.5673-.1074-.2914 0-1.2114.5674-.4446.276-.7206.276l-.2607-.046q-.092-.061-.1993-.23-.1074-.184-.1074-.2914 0-.644 1.242-1.1806 1.058-.46 1.84-.46.6594 0 1.012.4906.3067.4294.3067 1.1194zm-7.0533 0q0 .7206-.7667 1.932-.4907.7666-1.61 2.208-1.1193 1.4259-1.3953 1.8706.046.015 1.15.368 1.1193.3373 1.1193 1.2267-.46.077-.9046.138l-.1687-.015v-.1226q-.2453-.061-.3987-.061-.2913 0-.92.092-.6286.092-.9506.092-.414 0-.6747-.1533-.2607-.1533-.2607-.552 0-.322 1.1807-1.8246 2.208-2.806 2.2233-2.8367 1.196-1.6253 1.196-2.1773 0-.2147-.1533-.322-.138-.1074-.5673-.1074-.2914 0-1.2114.5674-.4446.276-.7206.276l-.2607-.046q-.092-.061-.1993-.23-.1074-.184-.1074-.2914 0-.644 1.242-1.1806 1.058-.46 1.84-.46.6593 0 1.012.4906.3067.4294.3067 1.1194zm-7.0227 2.76q0 1.8553-2.0086 3.2813-1.84 1.3033-3.7874 1.3033-.966 0-1.5333-.4907-.5673-.4906-.5673-1.426 0-2.0853 1.8246-3.6186 1.7327-1.4567 3.8794-1.4567 1.0886 0 1.6406.644.552.644.552 1.7634zm-.9353.3526q0-.7053-.7973-1.058-.598-.2606-1.426-.2606-1.2114 0-2.53 1.1806-1.3187 1.1807-1.3187 2.3767 0 .4906.2453.7053.2607.1993.782.1993 1.5027 0 3.128-.828 1.9167-.9813 1.9167-2.3153zm-8.28-3.1126q0 .7206-.7666 1.932-.4907.7666-1.61 2.208-1.1194 1.4259-1.3954 1.8706.046.015 1.15.368 1.1194.3373 1.1194 1.2267-.46.077-.9047.138l-.1687-.015v-.1226q-.2453-.061-.3986-.061-.2914 0-.92.092-.6287.092-.9507.092-.414 0-.6747-.1533-.2606-.1533-.2606-.552 0-.322 1.1806-1.8246 2.208-2.806 2.2234-2.8367 1.196-1.6253 1.196-2.1773 0-.2147-.1534-.322-.138-.1074-.5673-.1074-.2913 0-1.2113.5674-.4447.276-.7207.276l-.2607-.046q-.092-.061-.1993-.23-.1073-.184-.1073-.2914 0-.644 1.242-1.1806 1.058-.46 1.84-.46.6593 0 1.012.4906.3066.4294.3066 1.1194zm-12.5886 4.9986q0 .7513-.5674 1.6867-.644 1.058-1.334 1.058-.1993 0-.3373-.2147-.1227-.23-.1227-.4447 0-.276.5827-.8586.598-.598.598-.8127 0-.138-.046-.276-.046-.138-.061-.184-1.15.2607-2.346 1.3187-1.1807 1.058-1.794 1.196-.1227-.3374-.1227-.69 0-.4294.1993-.9047.138-.3373.46-.8126.5367-.8127 1.1347-1.84.3067-.5367 1.058-1.8554.7667-1.3186 1.1193-1.8706.184-.276.322-.414.1994-.184.4754-.2454.184.061.2606.23.092.1687.092.3987 0 .5213-.6746 1.4107-1.2267 1.5946-1.2574 1.656-.69 1.0426-.69 1.886l.031.1533q.8433-.414.9967-.4753.6286-.2607 1.0733-.2607.4907 0 .7207.3373.23.322.23.828zm-5.658-5.474q0 .3374-.8127 1.4107-.8127 1.0733-.8127 1.6407 0 .2913.3374.5826.7666.6747.7666.828 0 .1994-.138.3834-.1226.184-.322.184-.1686 0-.4753-.184-.2147-.1227-.828-.598-.23.4446-.3527.6746-.4293.8127-.5826 1.1807-.23.7053-.46 1.4106-.3987.9507-.9967.9507l-.015-.3527q0-1.0886.7053-2.5759.138-.276.7667-1.426-1.2114-.6594-2.668-.6594 0-.5673.23-.828.2453-.276.8126-.276.5214 0 1.3034.184.3833.092.7666.184.2914-.092.7974-.9966 1.242-2.1774 1.6866-2.4994.1227.1994.1994.3987.092.1993.092.3833zm-6.1027 2.7447q0 .644-1.7173 1.702-1.656 1.012-2.4074 1.012-.3526 0-.4753-.2453-.1073-.2454-.1073-.69 0-.2914 0-.414 1.0273 0 1.8706-.3067.8434-.3067 1.472-1.012-.46-.1687-.9353-.1687-1.1193 0-2.3767.8587-1.38.9353-1.38 1.9933 0 1.012 1.38 1.4107.2147.061 2.5914.4293 1.3953.2147 1.3953.7513 0 .23-.506.368-.506.1534-1.288.1534-1.9627 0-3.0973-.598-1.5027-.7974-1.5027-2.5607 0-1.84 1.84-2.9286 1.564-.92 3.5573-.92.598 0 1.0887.276.598.3373.598.8893zm-7.5287 1.7787q0 .4906-.2606 1.0426-.2454.552-.6287.92l-.015-.2147q0-.184.046-.5673.046-.3833.046-.5673 0-.2607-.077-.3833-.077-.138-.322-.138-.7207 0-1.794 1.1193-1.1653 1.2266-2.3153 2.438-.092 0-.184-.015-.23-.061-.3067-.077.046-.552.3833-1.2267.9047-1.8246.9354-1.9473.1226-.4907.184-.7207.061-.23.1686-.4753.1227-.2607.276-.46.1687-.2147.4294-.322l.1533 1.84q.6593-.5367 1.012-.828.6747-.5367 1.1653-.5367.4907 0 .7974.322.3066.322.3066.7974zm-6.4553.322q0 1.5639-.9046 2.4533-.9047.8893-2.4994.8893-.874 0-1.3493-.414-.4753-.414-.4753-1.2727 0-1.2113 1.5793-2.4379 1.5027-1.1654 2.7753-1.1654.5827 0 .7667.7207.1073.414.1073 1.2267zm-.9353.4293q0-.184-.046-.3527-.031-.184-.1227-.414-.2453.1687-.8126.828-.2914.3374-.506.4907 0-.2913.061-.4753.1227-.2607.1993-.4447-.6746 0-1.4106.5673-.7207.5673-.7207 1.2267 0 .4446.4907.4446.9353 0 1.8093-.46 1.058-.552 1.058-1.4106zm-4.7687 2.2693q0 .276-.2453.4293-.23.138-.5213.138-.2607 0-.6594-.061-.9046-.138-1.1653-.138-.46 0-1.8093.1073-.7667.061-1.104.061-.9354 0-.9354-.9354 0-.8893.5827-2.5453.322-.9353 1.2113-3.0666.7974-1.9167 1.012-2.6987.077-.2453.1227-.322.1227-.184.3067-.184.2913 0 .4906.4293.1994.414.1994.7514 0 .5366-.6287 1.8093-.6287 1.2573-1.2267 2.4687-.6593 1.4413-.6593 2.1926 0 .3833.322.5367.23.1073.6747.1073.3373 0 1.1653-.077.828-.092 1.104-.092.69 0 1.1347.1994.6286.276.6286.8893zm-13.3246-2.9746q0 1.0426-.506 2.2233-.552 1.3033-1.3647 1.794-.1686-.1994-.2913-.4447-.1073-.2453-.1073-.4907 0-.2606.7666-1.5486.3374-.5673.3067-.9967l-.015-.1993q-.5674.1687-1.9627 1.0273-1.38.8433-2.7907 1.7173-.2146 0-.3986-.1533-.1687-.1687-.1687-.368 0-.322 1.0273-2.162.3067-.552 1.104-1.9166.2454.322.322.7206.077.3834.077.92 0 .23 0 .3527 1.4107-.8433 2.208-1.2727.874-.4753 1.196-.4753.2147 0 .3987.4907.1993.4906.1993.782zm-7.1147.9046q0 .7513-.5673 1.6867-.644 1.058-1.334 1.058-.1993 0-.3373-.2147-.1227-.23-.1227-.4447 0-.276.5827-.8586.598-.598.598-.8127 0-.138-.046-.276-.046-.138-.061-.184-1.15.2607-2.346 1.3187-1.1806 1.058-1.794 1.196-.1226-.3374-.1226-.69 0-.4294.1993-.9047.138-.3373.46-.8126.5367-.8127 1.1347-1.84.3066-.5367 1.058-1.8554.7666-1.3186 1.1193-1.8706.184-.276.322-.414.1993-.184.4753-.2454.184.061.2607.23.092.1687.092.3987 0 .5213-.6747 1.4107-1.2266 1.5946-1.2573 1.656-.69 1.0426-.69 1.886l.031.1533q.8433-.414.9966-.4753.6287-.2607 1.0734-.2607.4906 0 .7206.3373.23.322.23.828zm-6.3173-.6286q0 1.5639-.9047 2.4533-.9046.8893-2.4993.8893-.874 0-1.3493-.414-.4753-.414-.4753-1.2727 0-1.2113 1.5793-2.4379 1.5027-1.1654 2.7753-1.1654.5827 0 .7667.7207.1073.414.1073 1.2267zm-.9353.4293q0-.184-.046-.3527-.031-.184-.1227-.414-.2453.1687-.8126.828-.2914.3374-.506.4907 0-.2913.061-.4753.1227-.2607.1993-.4447-.6746 0-1.4106.5673-.7207.5673-.7207 1.2267 0 .4446.4907.4446.9353 0 1.8093-.46 1.058-.552 1.058-1.4106zm-4.968-1.9933q0 1.84-.4447 3.0973-.6593 1.8706-2.116 1.8706-.966 0-2.024-.4446-1.2726-.5367-1.3953-1.3187.4293 0 1.012.1533 1.3493.3527 1.6867.3527 1.3033 0 1.9626-1.3033.5214-1.0427.5214-2.4993 0-1.0274-.6747-2.9287-.6593-1.9167-.6593-2.668 0-.23.1226-.368.138-.1533.368-.1533.598 0 1.1653 2.76.4754 2.3306.4754 3.45z" fill="#f4f4f4" fill-opacity=".5" stroke-width="1.008378"/><g transform="translate(-21.884156 -26.360597)"><g><g fill="none" stroke="#f4f4f4"><path d="m1451.473 1640.4337c424.227-7.0789 845.8796-11.5734 1279.3196-27.9012 66.2449-4.446 145.6913-31.6606 145.8076-123.9475l3.4616-418.4458c1.1525-304.74111 5.9282-604.16655-58.8655-893.37198-14.66-51.81399-43.2312-97.796184-135.0815-103.917954-405.3452-22.68591-813.7341-41.67988-1234.6418-45.48871m0 1613.073144c-424.227-7.0789-845.87957-11.5734-1279.31962-27.9012-66.24492-4.446-145.691288-31.6606-145.807583-123.9475l-3.461561-418.4458c5.914526-304.74112 24.727367-604.16656 58.865502-893.37199 14.659936-51.81399 43.231142-97.79618 135.081482-103.917951 405.3452-22.685902 813.73408-41.679873 1234.64178-45.488703" stroke-width="9.2"/><path d="m968.02103 231.25844h966.67697c9.7148 0 17.5358 7.82094 17.5358 17.53574v749.55803c0 9.71479-7.821 17.53579-17.5358 17.53579h-966.67697c-9.7148 0-17.53574-7.821-17.53574-17.53579v-749.55803c0-9.7148 7.82094-17.53574 17.53574-17.53574z" stroke-width="9.2"/><g stroke-width="4.6"><circle cx="569.52429" cy="364.1825" r="9.110235"/><circle cx="580.8219" cy="316.50208" r="9.110235"/><circle cx="591.00061" cy="266.72754" r="9.110235"/><circle cx="548.10657" cy="261.02896" r="9.110235"/><circle cx="507.8667" cy="258.42148" r="9.110235"/><circle cx="464.97266" cy="252.72292" r="9.110235"/><circle cx="421.6337" cy="248.95212" r="9.110235"/><circle cx="375.85318" cy="243.25354" r="9.110235"/><circle cx="334.34207" cy="238.58206" r="9.110235"/><circle cx="536.80786" cy="309.09" r="9.110235"/><circle cx="497.14896" cy="304.02158" r="9.110235"/><circle cx="454.30875" cy="296.6575" r="9.110235"/><circle cx="412.54053" cy="292.0863" r="9.110235"/><circle cx="368.09607" cy="281.83737" r="9.110235"/><circle cx="326.58429" cy="275.44141" r="9.110235"/><circle cx="284.39145" cy="269.16095" r="9.110235"/><circle cx="525.89679" cy="354.82013" r="9.110235"/><circle cx="486.23788" cy="349.75171" r="9.110235"/><circle cx="443.93393" cy="339.65445" r="9.110235"/><circle cx="402.5582" cy="331.94098" r="9.110235"/><circle cx="358.98279" cy="320.68256" r="9.110235"/><circle cx="318.07028" cy="311.61533" r="9.110235"/></g><g stroke-width="4.6"><ellipse cx="611.25653" cy="374.39023" rx="6.555118" ry="6.55512"/><ellipse cx="598.83447" cy="423.97015" rx="6.555118" ry="6.55512"/><ellipse cx="557.46185" cy="412.70129" rx="6.555118" ry="6.55512"/><ellipse cx="623.72949" cy="322.72723" rx="6.555118" ry="6.55512"/><ellipse cx="634.58704" cy="270.37982" rx="6.555118" ry="6.55512"/><ellipse cx="643.72089" cy="220.98785" rx="6.555118" ry="6.55512"/><ellipse cx="599.75439" cy="217.97714" rx="6.555118" ry="6.55512"/><ellipse cx="557.16223" cy="216.47787" rx="6.555118" ry="6.55512"/><ellipse cx="513.86462" cy="214.36165" rx="6.555118" ry="6.55512"/><ellipse cx="470.2851" cy="211.80647" rx="6.555118" ry="6.55512"/><ellipse cx="426.73337" cy="209.46384" rx="6.555118" ry="6.55512"/><ellipse cx="382.76688" cy="206.45312" rx="6.555118" ry="6.55512"/><ellipse cx="340.17471" cy="204.95386" rx="6.555118" ry="6.55512"/><ellipse cx="296.87711" cy="202.83763" rx="6.555118" ry="6.55512"/><ellipse cx="514.0108" cy="399.71869" rx="6.555118" ry="6.55512"/><ellipse cx="474.1153" cy="391.54123" rx="6.555118" ry="6.55512"/><ellipse cx="431.79953" cy="380.41058" rx="6.555118" ry="6.55512"/><ellipse cx="390.10626" cy="369.97314" rx="6.555118" ry="6.55512"/><ellipse cx="350.94287" cy="358.46906" rx="6.555118" ry="6.55512"/><ellipse cx="309.07825" cy="348.4971" rx="6.555118" ry="6.55512"/><ellipse cx="267.76312" cy="336.77271" rx="6.555118" ry="6.55512"/><ellipse cx="275.78467" cy="303.33759" rx="6.555118" ry="6.55512"/><ellipse cx="234.08246" cy="293.99484" rx="6.555118" ry="6.55512"/><ellipse cx="241.41435" cy="262.05441" rx="6.555118" ry="6.55512"/><ellipse cx="249.01363" cy="229.44789" rx="6.555118" ry="6.55512"/><ellipse cx="290.37808" cy="232.53294" rx="6.555118" ry="6.55512"/></g><path d="m1144.0138 1253.3381c-31.064 16.331-52.4318 48.97-52.4318 86.2478 0 37.2561 21.3424 69.8797 52.377 86.2208m34.9659-155.1254h189.5793c38.1734 0 68.905 30.7316 68.905 68.905 0 38.1735-30.7316 68.9051-68.905 68.9051h-189.5793c-38.1735 0-68.9051-30.7316-68.9051-68.9051 0-38.1734 30.7316-68.905 68.9051-68.905zm-578.69499 69.0044c-.60286-4.9003 6.69257-14.5428 10.00121-16.5471 18.8035-11.3907 52.17057-17.6944 65.01872-20.2024 146.73118-28.6425 316.02213-49.3506 482.74006-49.5661 10.4054-.1612 14.6442 9.8609 8.9318 18.1726 209.9466-1.9904 397.7278-4.0895 556.7009 2.9545 190.8547 8.4566 354.2366 15.5435 485.7485 27.8978 56.3321 5.2919 147.3138 8.8436 172.923 13.1882 19.3856 3.2887 25.0731 11.6427 24.6951 24.1025m-1806.75929 0c-.60286 4.9003 6.69257 14.5428 10.00121 16.5471 18.8035 11.3907 52.17057 17.6944 65.01872 20.2024 146.73118 28.6425 316.02213 49.3506 482.74006 49.5661 10.4054.1612 13.8689-9.9095 8.1565-18.2212 209.9466 1.9904 398.5031 4.1381 557.4762-2.9059 190.8547-8.4566 354.2366-15.5435 485.7485-27.8978 56.3321-5.2919 147.3138-8.8436 172.923-13.1882 19.3856-3.2887 25.0731-11.6427 24.6951-24.1025" stroke-width="9.2"/></g><ellipse cx="1240.8812" cy="1331.3536" fill="#f4f4f4" rx="5.5" ry="5.499995"/><ellipse cx="1283.411" cy="1331.8254" fill="#f4f4f4" rx="5.5" ry="5.499995"/><ellipse cx="1326.1328" cy="1331.797" fill="#f4f4f4" rx="5.5" ry="5.499995"/><ellipse cx="1475.6869" cy="1331.6384" fill="#f4f4f4" rx="5.5" ry="5.499995"/><rect fill="#f4f4f4" height="11" rx="9.648508" width="51.683949" x="1717.3112" y="1321.6334"/><g fill="none" stroke="#f4f4f4" stroke-width="4.6"><path d="m791.99199 184.813c457.24511-27.00447 899.08551-26.94529 1325.62231 0 11.5392.72896 20.8704 9.30821 20.8704 20.87041v832.94109c0 11.5622-9.3092 20.7164-20.8704 20.8704-452.2972 6.0246-893.7124 5.7593-1325.62231 0-11.56118-.1542-20.87041-9.3082-20.87041-20.8704v-832.94109c0-11.5622 9.32831-20.18874 20.87041-20.87041z"/><path d="m2842.4107 1048.3076c-198.0549-.5114-390.9013 27.5386-585.5728 62.1843-19.6355 3.4945-36-16.056-36-36s16.5069-31.783 36-36c251.8129-54.47544 413.1599-59.76476 582.2466-65.15846m0 0c19.0718-.63904 41.5115 17.58192 41.6113 37.15846.1016 19.9437-24.19 37.5084-38.2851 37.8157"/><rect height="170" rx="85.000008" ry="85" transform="matrix(.95630476 -.2923717 .2923717 .95630476 0 0)" width="513" x="1880.6637" y="1408.7354"/><rect height="170" rx="85.000008" ry="85" transform="matrix(.95630476 -.2923717 .2923717 .95630476 0 0)" width="513" x="1932.5103" y="1191.6001"/><path d="m22.741752 1087.2485 45.33297-7.3594c34.360768-.5444 71.020038-.1463 93.497188 1.0093 60.62899 2.9407 156.64195 18.9489 235.13482 28.4868l173.91972 25.0797c31.23435 3.8118 57.76277 10.6684 93.73954 11.4208l88.77955 1.3135c485.62296-1.1515 962.92476 4.6702 1456.86896-3.4545 45.2776-.4803 86.3582-6.6411 128.955-10.7498l342.1564-46.5105c46.2145-6.5597 96.2525-9.0375 162.6578-5.9487l36.2325 4.7964"/><path d="m23.494501 1109.1185 44.102066-7.73c17.296966-3.5612 57.312123-1.3406 85.624923-.8374 195.46457 4.634 329.1889 46.3201 491.54637 64.9458 30.57021 2.7835 61.25334 3.5132 89.4695 2.6388l180.1932-2.2381 100.50974-.1897 139.783.02 693.6411.3331 369.3272 1.5921c195.6282-2.9157 319.3827-42.137 479.0741-63.2055 26.5336-3.4559 50.9209-3.3456 76.3286-3.6322l70.4523 1.2423 36.0429 5.0276"/><path d="m1451.473 1552.7025 1303.8502-.8013c41.8515-.7424 92.1944-23.9808 90.9771-92.6804l-2.7537-357.1631m.1842-21.3966c-.1319-11.0596-.6266-21.9981-1.5514-31.6216m-2.4426-75.35859c-16.1486-268.15138-68.8064-518.89705-114.7113-769.29514-13.928-72.43916-43.2345-105.57442-94.3887-113.88435-387.2844-42.14877-783.4263-37.6919-1179.1638-42.66742m0 1504.8685-1303.85028-.8013c-41.85148-.7424-92.194331-23.9808-90.977066-92.6804 3.595762-119.2598 7.537255-238.5098 11.072949-357.7712m.174285-21.3597c7.592553-308.61151 58.118562-592.55515 110.027582-875.70417 13.92796-72.43916 43.23451-105.57442 94.38868-113.884351 387.28446-42.14877 783.42635-37.691905 1179.16385-42.66742"/><path d="m2320.7168 212.69531c-33.6066-.00021-64.184 30.57503-64.1856 64.18164a27.967902 27.967902 0 0 0 0 .002c-.0002 33.60776 30.5778 64.18576 64.1856 64.18554 33.6078.00022 64.1858-30.57778 64.1855-64.18554a27.967902 27.967902 0 0 0 0-.002c0-33.60661-30.5789-64.18185-64.1855-64.18164z"/><path d="m458.00781 547.4043c-55.07707.00028-109.81462 22.67354-148.75976 61.61914-38.94515 38.9456-61.61755 93.68269-61.61719 148.75976.00028 55.07667 22.6721 109.81468 61.61719 148.75977 38.94508 38.94509 93.68309 61.6169 148.75976 61.61719 55.07708.00036 109.81417-22.67204 148.75977-61.61719s61.61886-93.68269 61.61914-148.75977c.00036-55.07748-22.67153-109.81606-61.61719-148.76172s-93.68424-61.61754-148.76172-61.61718z"/><path d="m22.741752 1087.2485 45.33297-7.3594c34.360768-.5444 71.020038-.1463 93.497188 1.0093 60.62899 2.9407 156.64195 18.9489 235.13482 28.4868l173.91972 25.0797c31.23435 3.8118 57.76277 10.6684 93.73954 11.4208l88.77955 1.3135c485.62296-1.1515 962.92476 4.6702 1456.86896-3.4545 45.2776-.4803 86.3582-6.6411 128.955-10.7498l342.1564-46.5105c46.2145-6.5597 96.2525-9.0375 162.6578-5.9487l36.2325 4.7964"/></g></g><g><g fill="none" stroke="#f4f4f4" stroke-width="9.2"><circle cx="2339.7205" cy="621.66028" r="68.720467"/><circle cx="2592.1777" cy="545.42737" r="68.720467"/><circle cx="2355.6169" cy="844.36505" r="68.720467"/><circle cx="2610.6909" cy="765.88678" r="68.720467"/><circle cx="2320.7166" cy="276.87985" r="36.22047"/><rect height="27.440939" rx="13.72047" ry="13.720469" transform="matrix(.99904822 -.04361939 .04361939 .99904822 0 0)" width="167.44096" x="2591.3989" y="1122.2148"/><rect height="27.440939" rx="13.72047" ry="13.720469" transform="matrix(.99357186 -.11320321 .11320321 .99357186 0 0)" width="167.44096" x="2310.0576" y="1301.313"/><rect height="27.440939" rx="13.72047" ry="13.720469" transform="matrix(.9862856 -.16504761 .16504761 .9862856 0 0)" width="167.44096" x="2045.8152" y="1419.9828"/><circle cx="458.00858" cy="757.78278" r="168.11023"/><path d="m433.23242 616.53906c-7.60116 0-13.7207 6.11955-13.7207 13.72071v88.77929h-88.7793c-7.60116 0-13.7207 6.11955-13.7207 13.72071v50.55859c0 7.60116 6.11954 13.7207 13.7207 13.7207h88.7793v88.7793c0 7.60116 6.11954 13.7207 13.7207 13.7207h50.5586c7.60115 0 13.7207-6.11954 13.7207-13.7207v-88.7793h88.7793c7.60115 0 13.7207-6.11954 13.7207-13.7207v-50.55859c0-7.60116-6.11955-13.72071-13.7207-13.72071h-88.7793v-88.77929c0-7.60116-6.11955-13.72071-13.7207-13.72071z"/></g><g fill="#f4f4f4"><path d="m457.40649 644.21854 8.07344 13.9836 8.07344 13.98361h-16.14688l-16.14687-.00001 8.07344-13.9836z" transform="matrix(.18061072 .18061072 -.50566846 .50566846 806.82533 243.92626)"/><path d="m457.40649 644.21854 8.07344 13.9836 8.07344 13.98361h-16.14688l-16.14687-.00001 8.07344-13.9836z" transform="matrix(-.18061072 -.18061072 .50566846 -.50566846 109.35441 1271.8472)"/><path d="m457.40649 644.21854 8.07344 13.9836 8.07344 13.98361h-16.14688l-16.14687-.00001 8.07344-13.9836z" transform="matrix(.18061072 -.18061072 .50566846 .50566846 -57.311575 409.07712)"/><path d="m457.40649 644.21854 8.07344 13.9836 8.07344 13.98361h-16.14688l-16.14687-.00001 8.07344-13.9836z" transform="matrix(-.18061072 .18061072 -.50566846 -.50566846 971.1568 1107.0954)"/></g></g></g></svg>