<svg height="357.06393" viewBox="0 0 747.07222 428.47672" width="622.56018" xmlns="http://www.w3.org/2000/svg"><g transform="translate(-12.328313 -67.20575)"><g fill="none" stroke="#f4f4f4"><g stroke-width="2.4"><rect height="426.47672" rx="6.513011" width="745.0722" x="13.328313" y="68.20575"/><rect height="398.35419" rx="6.513011" ry="6.51301" width="717.12952" x="27.532898" y="81.762627"/><rect height="255.92447" rx="13.928" ry="13.807204" width="380.76865" x="195.99631" y="150.01816"/><rect height="322.05316" rx="6.51301" ry="6.513011" width="430.17401" x="170.1545" y="118.69106"/></g><g stroke-width="1.2"><path d="m315.03596 422.52681h-119.16695c-7.21086 0-13.01599-4.77287-13.01599-10.7015v-264.43599c0-5.92863 5.80513-10.7015 13.01599-10.7015h130.88576m118.78762 0h130.45641c7.21087 0 13.016 4.77287 13.016 10.7015v264.43599c0 5.92863-5.80513 10.7015-13.016 10.7015h-118.46686"/><rect height="74.486839" rx="6.51301" width="88.803947" x="46.171185" y="128.39211"/></g></g><g><g fill="none" stroke="#f4f4f4"><g stroke-width="2.4"><rect height="18.705021" rx="6.513012" width="32.213367" x="645.56104" y="110.11829"/><rect height="18.705021" rx="6.513012" width="32.213367" x="645.56104" y="160.11829"/><rect height="18.705021" rx="6.513012" width="32.213367" x="645.56104" y="212.11829"/></g><ellipse cx="710.88806" cy="145.57681" rx="7.75" ry="6.85" stroke-width="1.2"/><ellipse cx="710.78253" cy="196.54434" rx="7.75" ry="6.85" stroke-width="1.2"/><circle cx="673.03503" cy="374.70261" r="26" stroke-width="2.4"/><circle cx="99.035027" cy="374.70261" r="26" stroke-width="2.4"/></g><text fill="#f4f4f4" fill-opacity=".5" font-family="TrasksHand" font-size="3.2" stroke-width="1.2" x="540.5025" y="404.08655"><tspan fill="#f4f4f4" fill-opacity=".5" stroke-width="1.2" x="540.5025" y="404.08655">John Loreth 2022</tspan></text></g></g></svg>