<?xml version="1.0" encoding="UTF-8" standalone="no"?>
<!-- Generator: Adobe Illustrator 13.0.0, SVG Export Plug-In . SVG Version: 6.00 Build 14948)  -->

<svg
   version="1.2"
   id="Layer_3"
   x="0px"
   y="0px"
   width="598.189px"
   height="350.26px"
   viewBox="0 0 598.189 350.26"
   xml:space="preserve"
   sodipodi:docname="gb2players.svg"
   inkscape:version="1.1.1 (3bf5ae0d25, 2021-09-20)"
   xmlns:inkscape="http://www.inkscape.org/namespaces/inkscape"
   xmlns:sodipodi="http://sodipodi.sourceforge.net/DTD/sodipodi-0.dtd"
   xmlns="http://www.w3.org/2000/svg"
   xmlns:svg="http://www.w3.org/2000/svg"
   xmlns:rdf="http://www.w3.org/1999/02/22-rdf-syntax-ns#"
   xmlns:cc="http://creativecommons.org/ns#"
   xmlns:dc="http://purl.org/dc/elements/1.1/"
   xmlns:ns="&amp;ns_sfw;"><defs
   id="defs43" /><sodipodi:namedview
   id="namedview41"
   pagecolor="#ffffff"
   bordercolor="#666666"
   borderopacity="1.0"
   inkscape:pageshadow="2"
   inkscape:pageopacity="0.0"
   inkscape:pagecheckerboard="0"
   showgrid="false"
   inkscape:zoom="1.7870605"
   inkscape:cx="299.09451"
   inkscape:cy="174.86817"
   inkscape:window-width="1920"
   inkscape:window-height="1017"
   inkscape:window-x="1912"
   inkscape:window-y="-8"
   inkscape:window-maximized="1"
   inkscape:current-layer="Layer_3" />
<metadata
   id="metadata55">
	<rdf:RDF>
		<cc:Work
   rdf:about="">
			<dc:format>image/svg+xml</dc:format>
			<dc:type
   rdf:resource="http://purl.org/dc/dcmitype/StillImage" />
			<dc:title />
		</cc:Work>
	</rdf:RDF>
	<ns:sfw>
		<ns:slices />
		<ns:sliceSourceBounds
   x="867.765"
   y="-7652"
   width="184.796"
   height="16383"
   bottomLeftOrigin="true" />
	</ns:sfw>
</metadata>
<path
   id="path3"
   fill="#f4f4f4"
   d="m 92.737263,186.53488 c -1.735,0 -3.158,1.424 -3.158,3.158 v 11.21 c 0,0.039 0.002,-0.002 0,0.021 h -11.23 c -1.735,0 -3.158,1.423 -3.158,3.158 v 12.066 c 0,1.735 1.423,3.158 3.158,3.158 h 11.23 c 0.004,0.031 0,-0.012 0,0.042 v 11.189 c 0,1.735 1.423,3.158 3.158,3.158 h 12.065997 c 1.734,0 3.159,-1.423 3.159,-3.158 v -11.189 c 0,-0.076 -0.005,-0.016 0,-0.042 h 11.22901 c 1.736,0 3.159,-1.423 3.159,-3.158 v -12.066 c 0,-1.735 -1.423,-3.158 -3.159,-3.158 h -11.20901 c -0.032,0 0,0.003 -0.021,0 v -11.23 c 0,-1.734 -1.424,-3.158 -3.158,-3.158 H 92.737263 Z m 0,1.339 h 12.065997 c 1.011,0 1.82,0.809 1.82,1.819 v 11.272 c 0,0.391 0.163,0.813 0.48,1.046 0.318,0.231 0.634,0.251 0.879,0.251 h 11.20901 c 1.013,0 1.82,0.808 1.82,1.819 v 12.067 c 0,1.012 -0.808,1.819 -1.82,1.819 h -11.22901 c -0.354,-0.001 -0.774,0.074 -1.046,0.397 -0.272,0.323 -0.293,0.679 -0.293,0.983 v 11.188 c 0,1.013 -0.809,1.819 -1.82,1.819 H 92.737263 c -1.011,0 -1.82,-0.807 -1.82,-1.819 v -11.188 c 0,-0.252 0.029,-0.558 -0.209,-0.9 -0.236,-0.341 -0.678,-0.481 -1.065,-0.481 h -11.294 c -1.012,0 -1.819,-0.808 -1.819,-1.819 v -12.067 c 0,-1.012 0.807,-1.819 1.819,-1.819 h 11.293 c 0.297,0 0.656,-0.06 0.941,-0.355 0.285,-0.295 0.335,-0.663 0.335,-1.004 v -11.209 c 0.001,-1.012 0.809,-1.82 1.819,-1.819 z" />
<path
   id="path5"
   fill="#f4f4f4"
   d="m 94.159263,187.96088 c -1.735,0 -3.158,1.423 -3.158,3.158 v 11.209 c 0,0.038 0.002,-0.001 0,0.021 h -11.23 c -1.734,0 -3.158,1.424 -3.158,3.158 v 9.223 c 0,1.734 1.424,3.158 3.158,3.158 h 11.23 c 0.004,0.031 0,-0.012 0,0.042 v 11.188 c 0,1.734 1.423,3.158 3.158,3.158 h 9.242997 c 1.734,0 3.137,-1.424 3.137,-3.158 v -11.188 c 0,-0.077 -0.004,-0.018 0,-0.042 h 11.23001 c 1.735,0 3.159,-1.424 3.159,-3.158 v -9.223 c 0,-1.735 -1.424,-3.158 -3.159,-3.158 h -11.20901 c -0.033,0 -0.001,0.003 -0.021,0 v -11.23 c 0,-1.735 -1.402,-3.158 -3.137,-3.158 z m 0,1.338 h 9.242997 c 1.011,0 1.799,0.808 1.799,1.82 v 11.272 c 0,0.39 0.162,0.813 0.48,1.045 0.319,0.232 0.636,0.252 0.879,0.252 h 11.20901 c 1.012,0 1.82,0.808 1.82,1.819 v 9.223 c 0,1.011 -0.809,1.819 -1.82,1.819 h -11.22901 c -0.354,0 -0.774,0.074 -1.045,0.397 -0.271,0.323 -0.294,0.678 -0.294,0.983 v 11.188 c 0,1.011 -0.788,1.819 -1.799,1.819 h -9.242997 c -1.011,0 -1.82,-0.809 -1.82,-1.819 v -11.188 c 0,-0.252 0.029,-0.558 -0.209,-0.899 -0.238,-0.342 -0.7,-0.481 -1.087,-0.481 h -11.272 c -1.012,0 -1.819,-0.808 -1.819,-1.819 v -9.223 c 0,-1.012 0.808,-1.819 1.819,-1.819 h 11.272 c 0.297,0 0.676,-0.06 0.962,-0.355 0.285,-0.297 0.334,-0.663 0.334,-1.005 v -11.209 c 0,-1.013 0.809,-1.82 1.82,-1.82 z" />
<path
   id="path7"
   fill="#f4f4f4"
   d="m 135.40027,247.47488 c -0.468,0.021 -0.933,0.122 -1.381,0.335 l -15.309,7.302 c -1.787,0.852 -2.547,3.021 -1.694,4.811 0.853,1.785 3.002,2.545 4.789,1.693 l 15.309,-7.299 c 1.786,-0.852 2.566,-3.001 1.716,-4.789 -0.64,-1.34 -2.029,-2.11 -3.431,-2.05 z m 0.063,1.339 c 0.88,-0.041 1.749,0.426 2.154,1.275 0.54,1.135 0.067,2.472 -1.066,3.013 l -15.309,7.298 c -1.135,0.541 -2.471,0.067 -3.013,-1.066 -0.541,-1.135 -0.067,-2.47 1.067,-3.011 l 15.309,-7.3 c 0.283,-0.135 0.565,-0.195 0.858,-0.209 z" />
<path
   id="path9"
   fill="#f4f4f4"
   d="m 135.29927,245.03288 c -0.823,0.017 -1.649,0.188 -2.447,0.544 l -15.037,6.713 c -3.188,1.425 -4.624,5.177 -3.2,8.364 1.425,3.188 5.198,4.626 8.387,3.2 l 15.016,-6.712 c 3.188,-1.426 4.625,-5.178 3.2,-8.366 -1.069,-2.391 -3.45,-3.791 -5.919,-3.743 z m 0.041,1.339 c 1.948,-0.041 3.818,1.054 4.664,2.949 1.13,2.527 -0.002,5.479 -2.53,6.608 l -15.019,6.705 c -2.529,1.13 -5.479,-0.004 -6.608,-2.53 -1.129,-2.528 0.003,-5.479 2.53,-6.608 l 15.016,-6.713 c 0.633,-0.282 1.297,-0.405 1.945,-0.419 z" />
<path
   id="path11"
   fill="#f4f4f4"
   d="m 167.18927,247.47488 c -0.468,0.021 -0.934,0.122 -1.38,0.335 l -15.31,7.299 c -1.786,0.853 -2.546,3.022 -1.693,4.811 0.852,1.785 3.002,2.545 4.788,1.694 l 15.31,-7.299 c 1.787,-0.854 2.545,-3.003 1.694,-4.79 -0.639,-1.34 -2.008,-2.109 -3.409,-2.05 z m 0.063,1.339 c 0.88,-0.041 1.749,0.426 2.154,1.275 0.54,1.134 0.067,2.472 -1.066,3.013 l -15.31,7.298 c -1.134,0.541 -2.471,0.067 -3.011,-1.066 -0.542,-1.135 -0.068,-2.47 1.066,-3.011 l 15.309,-7.3 c 0.283,-0.135 0.565,-0.195 0.858,-0.209 z" />
<path
   id="path13"
   fill="#f4f4f4"
   d="m 167.08927,245.03288 c -0.823,0.017 -1.649,0.188 -2.447,0.544 l -15.038,6.713 c -3.188,1.425 -4.623,5.177 -3.199,8.364 1.425,3.188 5.178,4.626 8.366,3.2 l 15.036,-6.712 c 3.188,-1.426 4.624,-5.178 3.2,-8.366 -1.069,-2.391 -3.45,-3.791 -5.918,-3.743 z m 0.021,1.339 c 1.947,-0.041 3.816,1.054 4.663,2.949 1.13,2.527 0.018,5.479 -2.511,6.608 l -15.037,6.705 c -2.526,1.13 -5.458,-0.004 -6.587,-2.53 -1.13,-2.528 -0.02,-5.479 2.51,-6.608 l 15.036,-6.713 c 0.633,-0.282 1.275,-0.405 1.925,-0.419 z" />
<path
   id="path15"
   fill="#f4f4f4"
   d="m 176.98027,273.57588 c -0.362,0.036 -0.729,0.149 -1.067,0.335 -1.349,0.738 -1.849,2.457 -1.107,3.806 l 12.695,23.11 c 0.739,1.349 2.436,1.848 3.785,1.107 1.349,-0.739 1.849,-2.437 1.107,-3.785 l -12.682,-23.129 c -0.554,-1.013 -1.653,-1.551 -2.74,-1.442 z m 0.691,1.381 c 0.356,0.104 0.683,0.354 0.877,0.711 l 12.676,23.115 c 0.393,0.715 0.148,1.596 -0.564,1.987 -0.715,0.393 -1.595,0.149 -1.986,-0.565 l -12.674,-23.13 c -0.393,-0.713 -0.15,-1.596 0.564,-1.986 0.356,-0.196 0.751,-0.229 1.107,-0.126 z" />
<path
   id="path17"
   fill="#f4f4f4"
   d="m 186.09427,268.58388 c -0.361,0.036 -0.729,0.149 -1.066,0.335 -1.35,0.738 -1.85,2.457 -1.108,3.806 l 12.674,23.109 c 0.74,1.35 2.458,1.87 3.807,1.13 1.35,-0.739 1.849,-2.457 1.108,-3.806 l -12.674,-23.131 c -0.555,-1.012 -1.655,-1.552 -2.741,-1.443 z m 0.692,1.38 c 0.356,0.104 0.682,0.354 0.877,0.711 l 12.674,23.131 c 0.393,0.714 0.129,1.575 -0.585,1.967 -0.715,0.392 -1.596,0.149 -1.987,-0.565 l -12.673,-23.131 c -0.393,-0.713 -0.129,-1.596 0.585,-1.986 0.357,-0.198 0.75,-0.232 1.109,-0.127 z" />
<path
   id="path19"
   fill="#f4f4f4"
   d="m 195.19627,263.60388 c -0.361,0.036 -0.729,0.129 -1.066,0.314 -1.349,0.738 -1.849,2.456 -1.108,3.806 l 12.694,23.131 c 0.737,1.343 2.439,1.835 3.785,1.107 0.01,-0.004 0.013,-0.016 0.021,-0.021 1.33,-0.747 1.845,-2.444 1.108,-3.785 l -12.694,-23.131 c -0.554,-1.01 -1.653,-1.529 -2.74,-1.421 z m 0.69,1.36 c 0.358,0.104 0.683,0.354 0.879,0.711 l 12.674,23.131 c 0.393,0.715 0.15,1.596 -0.565,1.986 -0.713,0.393 -1.596,0.128 -1.986,-0.585 l -12.674,-23.131 c -0.393,-0.714 -0.149,-1.596 0.564,-1.986 0.358,-0.198 0.752,-0.23 1.108,-0.126 z" />
<path
   id="path21"
   fill="#f4f4f4"
   d="m 204.31127,258.60488 c -0.361,0.036 -0.729,0.129 -1.066,0.313 -1.349,0.74 -1.849,2.459 -1.108,3.807 l 12.674,23.131 c 0.739,1.348 2.458,1.849 3.807,1.108 1.351,-0.739 1.849,-2.457 1.109,-3.807 l -12.683,-23.115 c -0.556,-1.013 -1.654,-1.552 -2.74,-1.443 z m 0.691,1.381 c 0.357,0.104 0.683,0.333 0.879,0.689 l 12.674,23.131 c 0.393,0.715 0.129,1.595 -0.585,1.986 -0.715,0.392 -1.596,0.129 -1.987,-0.586 l -12.669,-23.128 c -0.392,-0.714 -0.128,-1.574 0.585,-1.966 0.358,-0.196 0.751,-0.23 1.109,-0.126 z" />
<path
   id="path23"
   fill="#f4f4f4"
   d="m 213.40727,253.60588 c -0.356,0.035 -0.715,0.155 -1.046,0.335 -0.006,0.003 -0.016,-0.004 -0.021,0 v 0.021 c -1.329,0.746 -1.844,2.424 -1.108,3.765 l 12.695,23.13 c 0.739,1.35 2.457,1.849 3.807,1.108 1.348,-0.74 1.848,-2.457 1.108,-3.807 l -12.696,-23.108 c -0.556,-1.012 -1.655,-1.552 -2.739,-1.444 z m 0.711,1.38 c 0.357,0.104 0.661,0.333 0.857,0.69 l 12.674,23.131 c 0.393,0.715 0.15,1.594 -0.564,1.987 -0.715,0.391 -1.596,0.128 -1.987,-0.586 l -12.675,-23.103 c -0.393,-0.715 -0.15,-1.596 0.564,-1.987 0.356,-0.195 0.771,-0.229 1.129,-0.125 z" />
<path
   id="path25"
   fill="#f4f4f4"
   d="m 222.52827,248.60688 c -0.361,0.036 -0.729,0.149 -1.066,0.334 -1.349,0.74 -1.85,2.458 -1.108,3.807 l 12.675,23.109 c 0.738,1.349 2.456,1.849 3.806,1.108 1.349,-0.738 1.85,-2.457 1.108,-3.807 l -12.683,-23.107 c -0.554,-1.014 -1.653,-1.552 -2.739,-1.443 z m 0.689,1.38 c 0.359,0.104 0.684,0.354 0.879,0.712 l 12.676,23.115 c 0.393,0.714 0.129,1.595 -0.585,1.987 -0.716,0.392 -1.597,0.129 -1.987,-0.586 l -12.669,-23.109 c -0.393,-0.713 -0.129,-1.595 0.585,-1.986 0.358,-0.197 0.751,-0.23 1.109,-0.126 z" />
<path
   id="path27"
   fill="#f4f4f4"
   d="m 146.29627,301.66388 c -0.232,0 -0.479,0.077 -0.69,0.251 -0.213,0.175 -0.355,0.471 -0.355,0.753 v 4.058 c 0,0.263 -0.042,0.478 0.063,0.795 0.053,0.159 0.186,0.354 0.377,0.48 0.19,0.127 0.398,0.168 0.564,0.168 h 1.213 c 0.183,0 0.439,-0.073 0.606,-0.23 0.167,-0.156 0.217,-0.344 0.251,-0.481 0.069,-0.274 0.063,-0.477 0.063,-0.731 v -4.058 c 0,-0.183 -0.033,-0.441 -0.229,-0.669 -0.198,-0.228 -0.513,-0.335 -0.773,-0.335 h -1.09 z m 0.293,1.339 h 0.46 v 3.723 c -0.001,0.065 0.002,0.052 0,0.104 h -0.46 c -0.004,-0.056 0,-0.031 0,-0.104 z" />
<path
   id="path29"
   fill="#f4f4f4"
   d="m 150.41827,301.66388 c -0.572,0 -1.024,0.439 -1.024,1.004 v 4.058 c 0,0.295 -0.009,0.516 0.083,0.795 0.046,0.139 0.127,0.304 0.293,0.438 0.167,0.137 0.398,0.21 0.565,0.21 h 1.337 c 0.214,0 0.473,-0.13 0.607,-0.293 0.136,-0.164 0.183,-0.317 0.209,-0.439 0.052,-0.244 0.042,-0.449 0.042,-0.711 v -4.058 c 0,-0.24 -0.087,-0.495 -0.272,-0.689 -0.184,-0.195 -0.452,-0.313 -0.711,-0.313 z m 0.313,1.339 h 0.46 v 3.723 c 0,0.057 0.002,0.057 0,0.104 h -0.46 c -0.003,-0.053 0,-0.035 0,-0.104 z" />
<path
   id="path31"
   fill="#f4f4f4"
   d="m 62.725263,19.392874 c -0.438,0 -0.877,0.272 -1.066,0.607 -0.189,0.333 -0.23,0.681 -0.23,1.004 V 300.86688 c 0,4.022 3.276,7.299 7.299,7.299 h 74.225007 c 0.355,0 0.702,-0.229 0.879,-0.503 0.175,-0.273 0.229,-0.587 0.229,-0.94 v -4.058 c 0,-0.229 -0.073,-0.529 -0.293,-0.731 -0.22,-0.202 -0.51,-0.271 -0.752,-0.271 h -10.625 c -1.91,0 -3.451,-1.521 -3.451,-3.431 0,-1.91 1.541,-3.45 3.451,-3.45 h 21.269 c 1.911,0 3.451,1.541 3.451,3.45 0,1.617 -1.101,2.947 -2.593,3.326 v 0.021 c -0.31,0.081 -0.506,0.325 -0.586,0.522 -0.08,0.197 -0.104,0.377 -0.104,0.564 v 4.058 c 0.001,0.222 -0.023,0.427 0.063,0.732 0.044,0.151 0.129,0.354 0.314,0.502 0.184,0.146 0.419,0.209 0.606,0.209 h 49.439 c 23.18,0 41.975,-18.816 41.975,-41.996 V 20.786874 c 0,-0.325 -0.092,-0.643 -0.313,-0.92 -0.222,-0.278 -0.602,-0.481 -1.004,-0.481 H 62.727263 Z m 0.084,1.339 H 244.86227 c 0.006,0.013 0.021,0.022 0.021,0.063 V 266.17788 c 0,22.456 -18.18,40.657 -40.636,40.657 h -49.085 c -0.002,-0.053 0.001,-0.04 0,-0.104 v -3.995 c 1.901,-0.636 3.284,-2.391 3.284,-4.497 0,-2.632 -2.156,-4.789 -4.79,-4.789 h -21.269 c -2.634,0 -4.789,2.157 -4.789,4.789 0,2.634 2.155,4.769 4.789,4.769 h 10.331 v 3.723 c 0,0.087 -0.011,0.069 -0.021,0.104 H 68.726263 c -3.301,0.007 -5.962,-2.657 -5.962,-5.956 V 21.014874 c 0,-0.153 0.028,-0.229 0.042,-0.272 z" />
<path
   id="circle33"
   fill="#f4f4f4"
   d="m 190.69927,201.94788 c -6.817,0 -12.359,5.542 -12.359,12.359 0,6.818 5.542,12.36 12.359,12.36 6.818,0 12.36,-5.542 12.36,-12.36 0,-6.817 -5.542,-12.359 -12.36,-12.359 z m 0,1.338 c 6.095,0 11.021,4.927 11.021,11.021 0,6.094 -4.927,11.022 -11.021,11.022 -6.094,0 -11.021,-4.927 -11.021,-11.022 -0.001,-6.094 4.926,-11.021 11.021,-11.021 z" />
<path
   id="circle35"
   fill="#f4f4f4"
   d="m 190.69927,202.80488 c -6.344,0 -11.503,5.158 -11.503,11.503 0,6.344 5.158,11.503 11.503,11.503 6.345,0 11.503,-5.159 11.503,-11.503 0,-6.344 -5.158,-11.503 -11.503,-11.503 z m 0,1.337 c 5.621,0 10.164,4.544 10.164,10.165 0,5.62 -4.542,10.164 -10.164,10.164 -5.62,0 -10.164,-4.543 -10.164,-10.164 0,-5.621 4.543,-10.165 10.164,-10.165 z" />
<path
   id="circle37"
   fill="#f4f4f4"
   d="m 221.19027,187.97988 c -6.818,0 -12.36,5.542 -12.36,12.36 0,6.819 5.542,12.36 12.36,12.36 6.818,0 12.36,-5.541 12.36,-12.36 0,-6.818 -5.542,-12.36 -12.36,-12.36 z m 0,1.338 c 6.095,0 11.021,4.928 11.021,11.022 0,6.094 -4.927,11.021 -11.021,11.021 -6.094,0 -11.022,-4.927 -11.022,-11.021 0,-6.093 4.927,-11.022 11.022,-11.022 z" />
<path
   id="circle39"
   fill="#f4f4f4"
   d="m 221.19027,188.83688 c -6.345,0 -11.504,5.159 -11.504,11.504 0,6.344 5.159,11.502 11.504,11.502 6.344,0 11.502,-5.157 11.502,-11.502 0,-6.345 -5.158,-11.504 -11.502,-11.504 z m 0,1.339 c 5.62,0 10.164,4.544 10.164,10.165 0,5.62 -4.544,10.164 -10.164,10.164 -5.621,0 -10.165,-4.544 -10.165,-10.164 0,-5.621 4.544,-10.165 10.165,-10.165 z" />
<path
   id="path41"
   fill="#f4f4f4"
   d="m 82.008263,27.904874 c -3.892,0 -7.048,3.177 -7.048,7.069 V 139.85688 c 0,3.893 3.156,7.068 7.048,7.068 H 208.15927 c 5.978,0 11.936,-3.028 16.418,-7.549 4.484,-4.518 7.509,-10.561 7.509,-16.685 V 34.973874 c 0,-3.893 -3.179,-7.068 -7.066,-7.068 z m 0,1.338 H 225.01827 c 3.169,0 5.73,2.562 5.73,5.73 v 87.710006 c 0,5.682 -2.857,11.436 -7.132,15.748 -4.274,4.312 -9.935,7.153 -15.455,7.153 H 82.010263 c -3.169,0 -5.709,-2.561 -5.709,-5.73 V 34.971874 c 0,-3.169 2.541,-5.731 5.709,-5.731 z" />
<path
   id="path43"
   fill="#f4f4f4"
   d="m 105.57826,41.415874 c -0.95,0 -1.735,0.786 -1.735,1.736 v 88.066006 c 0,0.95 0.785,1.735 1.735,1.735 h 96.83201 c 0.95,0 1.736,-0.786 1.736,-1.735 V 43.151874 c 0,-0.95 -0.786,-1.736 -1.736,-1.736 z m 0,1.338 h 96.83201 c 0.227,0 0.397,0.171 0.397,0.397 v 88.066006 c 0,0.227 -0.171,0.398 -0.397,0.398 h -96.83201 c -0.227,0 -0.397,-0.171 -0.397,-0.398 V 43.151874 c -10e-4,-0.227 0.17,-0.398 0.397,-0.398 z" />
<path
   id="circle45"
   fill="#f4f4f4"
   d="m 87.823263,69.356874 c -1.866,0 -3.388,1.522 -3.388,3.388 0,1.866 1.522,3.388 3.388,3.388 1.865,0 3.388,-1.522 3.388,-3.388 0,-1.866 -1.523,-3.388 -3.388,-3.388 z" />
<path
   id="path47"
   fill="#f4f4f4"
   d="m 89.244263,2.6408743 c -0.221,0 -0.472,0.111 -0.607,0.251 -0.134,0.14 -0.192,0.281 -0.23,0.397 -0.074,0.233 -0.083,0.431 -0.083,0.606 v 2.991 c 0,0.24 0.087,0.495 0.272,0.69 0.185,0.195 0.474,0.293 0.732,0.293 h 1.109 c 0.572,0 1.045,-0.417 1.045,-0.983 v -2.991 c 0,-0.218 -0.001,-0.456 -0.146,-0.732 -0.146,-0.276 -0.549,-0.523 -0.879,-0.523 h -1.213 z m 0.418,1.339 h 0.481 v 2.551 h -0.481 z" />
<path
   id="path49"
   fill="#f4f4f4"
   d="m 93.322263,2.6408743 c -0.206,0 -0.454,0.125 -0.585,0.272 -0.131,0.147 -0.182,0.266 -0.209,0.376 -0.057,0.221 -0.063,0.411 -0.063,0.606 v 2.991 c 0,0.181 0.054,0.42 0.251,0.648 0.197,0.228 0.512,0.335 0.774,0.335 h 1.088 c 0.231,0 0.477,-0.057 0.689,-0.23 0.212,-0.173 0.355,-0.469 0.355,-0.752 v -2.991 c 0,-0.182 -0.013,-0.41 -0.125,-0.669 -0.112,-0.26 -0.484,-0.586 -0.878,-0.586 z m 0.481,1.339 h 0.48 v 2.551 h -0.48 z" />
<path
   id="path51"
   fill="#f4f4f4"
   d="m 78.996263,2.6408743 c -0.446,0 -0.845,0.246 -1.066,0.523 -0.22,0.277 -0.312,0.569 -0.313,0.899 V 17.028874 c 0,0.607 0.501,1.108 1.108,1.108 H 228.82127 c 0.44,0 0.699,-0.34 0.816,-0.606 0.117,-0.266 0.167,-0.542 0.167,-0.899 V 4.1468743 c 0,-0.437 -0.125,-0.866 -0.418,-1.15 -0.287,-0.284 -0.661,-0.355 -0.956,-0.355 H 97.888263 c -0.288,0 -0.703,0.136 -0.9,0.439 -0.196,0.304 -0.187,0.575 -0.187,0.816 v 2.991 c 0,0.228 0.093,0.508 0.313,0.711 0.22,0.203 0.489,0.271 0.731,0.271 h 16.313007 c 1.91,0 3.451,1.541 3.451,3.4509997 0,1.911 -1.541,3.451 -3.451,3.451 H 87.200263 c -1.91,0 -3.45,-1.54 -3.45,-3.451 0,-1.6169997 1.123,-2.9699997 2.614,-3.3459997 0.307,-0.083 0.505,-0.326 0.584,-0.522 0.08,-0.197 0.084,-0.377 0.084,-0.565 v -2.991 c 0,-0.282 -0.067,-0.571 -0.251,-0.816 -0.185,-0.244 -0.517,-0.439 -0.879,-0.439 h -6.901 -0.005 z m 149.469007,1.318 c -0.034,-0.032 0,-0.026 0,0.188 V 16.631874 c 0,0.104 -0.011,0.105 -0.021,0.167 H 78.949263 V 4.0638743 c 0,0.019 0.002,-0.061 0.021,-0.084 0.019,-0.023 0,0 0.021,0 h 6.692 v 2.844 c -1.893,0.639 -3.284,2.396 -3.284,4.4969997 0,2.634 2.156,4.79 4.79,4.79 h 26.958007 c 2.634,0 4.79,-2.155 4.79,-4.79 0,-2.6339997 -2.156,-4.7899997 -4.79,-4.7899997 H 98.127263 v -2.551 H 228.42127 c 0.089,0 0.075,0.012 0.041,-0.021 z" />
<path
   id="path53"
   fill="#f4f4f4"
   d="m 69.648263,2.6408743 c -4.53,0 -8.219,3.689 -8.219,8.2189997 v 6.127 c 0,0.282 0.12,0.653 0.397,0.878 0.278,0.226 0.602,0.272 0.92,0.272 h 12.297 c 0.606,0 1.108,-0.501 1.108,-1.108 V 4.0638743 c 0,-0.346 -0.104,-0.654 -0.313,-0.92 -0.209,-0.266 -0.568,-0.502 -0.984,-0.502 h -5.206 z m 0,1.339 h 5.124 c 0.013,0.024 0.042,0.058 0.042,0.084 V 16.799874 h -12.046 v -5.939 c -10e-4,-3.8069997 3.074,-6.8809997 6.88,-6.8809997 z" />
<path
   id="path55"
   fill="#f4f4f4"
   d="m 232.79527,2.6408743 c -0.415,0 -0.753,0.235 -0.962,0.502 -0.209,0.267 -0.335,0.574 -0.335,0.92 V 17.028874 c 0,0.607 0.522,1.108 1.13,1.108 h 12.297 c 0.318,0 0.642,-0.046 0.92,-0.272 0.278,-0.225 0.377,-0.596 0.377,-0.878 v -6.127 c 0,-4.5299997 -3.667,-8.2199997 -8.191,-8.2199997 h -5.229 z m 0.083,1.339 h 5.146 c 3.807,0 6.859,3.074 6.859,6.8809997 v 5.939 h -12.046 V 4.0638743 c 0,-0.026 0.029,-0.06 0.041,-0.084 z" />
<path
   id="line57"
   fill="#f4f4f4"
   d="m 61.805263,17.427874 v 2.614 h 1.338 v -2.614 z" />
<path
   id="line59"
   fill="#f4f4f4"
   d="m 75.462263,3.6658743 v 1.339 h 2.845 v -1.339 z" />
<path
   id="line61"
   fill="#f4f4f4"
   d="m 86.295263,3.6658743 v 1.339 h 2.845 v -1.339 z" />
<path
   id="line63"
   fill="#f4f4f4"
   d="m 90.750263,3.6658743 v 1.339 h 2.489 v -1.339 z" />
<path
   id="line65"
   fill="#f4f4f4"
   d="m 94.975263,3.6658743 v 1.339 h 2.488 v -1.339 z" />
<path
   id="line67"
   fill="#f4f4f4"
   d="m 229.34727,3.6658743 v 1.339 h 2.845 v -1.339 z" />
<path
   id="line69"
   fill="#f4f4f4"
   d="m 244.25927,17.469874 v 2.488 h 1.337 v -2.488 z" />
<path
   id="polygon71"
   fill="#f4f4f4"
   d="m 89.558263,8.9158743 -0.502,0.271 -3.158,1.7359997 -0.523,0.293 0.523,0.292 3.158,1.736 0.502,0.272 v -0.564 -3.4719997 z" />
<path
   id="polygon73"
   fill="#f4f4f4"
   d="m 112.06127,8.9158743 v 0.564 3.4719997 0.564 l 0.48,-0.272 3.158,-1.736 0.544,-0.293 -0.544,-0.292 -3.158,-1.7359997 z" />
<path
   id="circle75"
   fill="#f4f4f4"
   d="m 98.781263,203.64088 c -3.565,0 -6.483,2.896 -6.483,6.462 0,3.566 2.918,6.483 6.483,6.483 3.564997,0 6.462997,-2.918 6.462997,-6.483 0,-3.565 -2.898,-6.462 -6.462997,-6.462 z m 0,1.338 c 2.841997,0 5.123997,2.282 5.123997,5.124 0,2.843 -2.282,5.145 -5.123997,5.145 -2.842,0 -5.145,-2.302 -5.145,-5.145 0,-2.841 2.303,-5.124 5.145,-5.124 z" /><path
   id="path3-0"
   fill="#f4f4f4"
   d="m 349.64035,225.86369 c -1.735,0 -3.158,1.424 -3.158,3.158 v 11.21 c 0,0.039 0.002,-0.002 0,0.021 h -11.23 c -1.735,0 -3.158,1.423 -3.158,3.158 v 12.066 c 0,1.735 1.423,3.158 3.158,3.158 h 11.23 c 0.004,0.031 0,-0.012 0,0.042 v 11.189 c 0,1.735 1.423,3.158 3.158,3.158 h 12.066 c 1.734,0 3.159,-1.423 3.159,-3.158 v -11.189 c 0,-0.076 -0.005,-0.016 0,-0.042 h 11.229 c 1.736,0 3.159,-1.423 3.159,-3.158 v -12.066 c 0,-1.735 -1.423,-3.158 -3.159,-3.158 h -11.209 c -0.032,0 0,0.003 -0.021,0 v -11.23 c 0,-1.734 -1.424,-3.158 -3.158,-3.158 h -12.066 z m 0,1.339 h 12.066 c 1.011,0 1.82,0.809 1.82,1.819 v 11.272 c 0,0.391 0.163,0.813 0.48,1.046 0.318,0.231 0.634,0.251 0.879,0.251 h 11.209 c 1.013,0 1.82,0.808 1.82,1.819 v 12.067 c 0,1.012 -0.808,1.819 -1.82,1.819 h -11.229 c -0.354,-10e-4 -0.774,0.074 -1.046,0.397 -0.272,0.323 -0.293,0.679 -0.293,0.983 v 11.188 c 0,1.013 -0.809,1.819 -1.82,1.819 h -12.066 c -1.011,0 -1.82,-0.807 -1.82,-1.819 v -11.188 c 0,-0.252 0.029,-0.558 -0.209,-0.9 -0.236,-0.341 -0.678,-0.481 -1.065,-0.481 h -11.294 c -1.012,0 -1.819,-0.808 -1.819,-1.819 v -12.067 c 0,-1.012 0.807,-1.819 1.819,-1.819 h 11.293 c 0.297,0 0.656,-0.06 0.941,-0.355 0.285,-0.295 0.335,-0.663 0.335,-1.004 v -11.209 c 10e-4,-1.012 0.809,-1.82 1.819,-1.819 z" /><path
   id="path5-4"
   fill="#f4f4f4"
   d="m 351.06235,227.28969 c -1.735,0 -3.158,1.423 -3.158,3.158 v 11.209 c 0,0.038 0.002,-0.001 0,0.021 h -11.23 c -1.734,0 -3.158,1.424 -3.158,3.158 v 9.223 c 0,1.734 1.424,3.158 3.158,3.158 h 11.23 c 0.004,0.031 0,-0.012 0,0.042 v 11.188 c 0,1.734 1.423,3.158 3.158,3.158 h 9.243 c 1.734,0 3.137,-1.424 3.137,-3.158 v -11.188 c 0,-0.077 -0.004,-0.018 0,-0.042 h 11.23 c 1.735,0 3.159,-1.424 3.159,-3.158 v -9.223 c 0,-1.735 -1.424,-3.158 -3.159,-3.158 h -11.209 c -0.033,0 -10e-4,0.003 -0.021,0 v -11.23 c 0,-1.735 -1.402,-3.158 -3.137,-3.158 z m 0,1.338 h 9.243 c 1.011,0 1.799,0.808 1.799,1.82 v 11.272 c 0,0.39 0.162,0.813 0.48,1.045 0.319,0.232 0.636,0.252 0.879,0.252 h 11.209 c 1.012,0 1.82,0.808 1.82,1.819 v 9.223 c 0,1.011 -0.809,1.819 -1.82,1.819 h -11.229 c -0.354,0 -0.774,0.074 -1.045,0.397 -0.271,0.323 -0.294,0.678 -0.294,0.983 v 11.188 c 0,1.011 -0.788,1.819 -1.799,1.819 h -9.243 c -1.011,0 -1.82,-0.809 -1.82,-1.819 v -11.188 c 0,-0.252 0.029,-0.558 -0.209,-0.899 -0.238,-0.342 -0.7,-0.481 -1.087,-0.481 h -11.272 c -1.012,0 -1.819,-0.808 -1.819,-1.819 v -9.223 c 0,-1.012 0.808,-1.819 1.819,-1.819 h 11.272 c 0.297,0 0.676,-0.06 0.962,-0.355 0.285,-0.297 0.334,-0.663 0.334,-1.005 v -11.209 c 0,-1.013 0.809,-1.82 1.82,-1.82 z" /><path
   id="path7-2"
   fill="#f4f4f4"
   d="m 392.30335,286.80369 c -0.468,0.021 -0.933,0.122 -1.381,0.335 l -15.309,7.302 c -1.787,0.852 -2.547,3.021 -1.694,4.811 0.853,1.785 3.002,2.545 4.789,1.693 l 15.309,-7.299 c 1.786,-0.852 2.566,-3.001 1.716,-4.789 -0.64,-1.34 -2.029,-2.11 -3.431,-2.05 z m 0.063,1.339 c 0.88,-0.041 1.749,0.426 2.154,1.275 0.54,1.135 0.067,2.472 -1.066,3.013 l -15.309,7.298 c -1.135,0.541 -2.471,0.067 -3.013,-1.066 -0.541,-1.135 -0.067,-2.47 1.067,-3.011 l 15.309,-7.3 c 0.283,-0.135 0.565,-0.195 0.858,-0.209 z" /><path
   id="path9-0"
   fill="#f4f4f4"
   d="m 392.20235,284.36169 c -0.823,0.017 -1.649,0.188 -2.447,0.544 l -15.037,6.713 c -3.188,1.425 -4.624,5.177 -3.2,8.364 1.425,3.188 5.198,4.626 8.387,3.2 l 15.016,-6.712 c 3.188,-1.426 4.625,-5.178 3.2,-8.366 -1.069,-2.391 -3.45,-3.791 -5.919,-3.743 z m 0.041,1.339 c 1.948,-0.041 3.818,1.054 4.664,2.949 1.13,2.527 -0.002,5.479 -2.53,6.608 l -15.019,6.705 c -2.529,1.13 -5.479,-0.004 -6.608,-2.53 -1.129,-2.528 0.003,-5.479 2.53,-6.608 l 15.016,-6.713 c 0.633,-0.282 1.297,-0.405 1.945,-0.419 z" /><path
   id="path11-9"
   fill="#f4f4f4"
   d="m 424.09235,286.80369 c -0.468,0.021 -0.934,0.122 -1.38,0.335 l -15.31,7.299 c -1.786,0.853 -2.546,3.022 -1.693,4.811 0.852,1.785 3.002,2.545 4.788,1.694 l 15.31,-7.299 c 1.787,-0.854 2.545,-3.003 1.694,-4.79 -0.639,-1.34 -2.008,-2.109 -3.409,-2.05 z m 0.063,1.339 c 0.88,-0.041 1.749,0.426 2.154,1.275 0.54,1.134 0.067,2.472 -1.066,3.013 l -15.31,7.298 c -1.134,0.541 -2.471,0.067 -3.011,-1.066 -0.542,-1.135 -0.068,-2.47 1.066,-3.011 l 15.309,-7.3 c 0.283,-0.135 0.565,-0.195 0.858,-0.209 z" /><path
   id="path13-9"
   fill="#f4f4f4"
   d="m 423.99235,284.36169 c -0.823,0.017 -1.649,0.188 -2.447,0.544 l -15.038,6.713 c -3.188,1.425 -4.623,5.177 -3.199,8.364 1.425,3.188 5.178,4.626 8.366,3.2 l 15.036,-6.712 c 3.188,-1.426 4.624,-5.178 3.2,-8.366 -1.069,-2.391 -3.45,-3.791 -5.918,-3.743 z m 0.021,1.339 c 1.947,-0.041 3.816,1.054 4.663,2.949 1.13,2.527 0.018,5.479 -2.511,6.608 l -15.037,6.705 c -2.526,1.13 -5.458,-0.004 -6.587,-2.53 -1.13,-2.528 -0.02,-5.479 2.51,-6.608 l 15.036,-6.713 c 0.633,-0.282 1.275,-0.405 1.925,-0.419 z" /><path
   id="path15-7"
   fill="#f4f4f4"
   d="m 433.88335,312.90469 c -0.362,0.036 -0.729,0.149 -1.067,0.335 -1.349,0.738 -1.849,2.457 -1.107,3.806 l 12.695,23.11 c 0.739,1.349 2.436,1.848 3.785,1.107 1.349,-0.739 1.849,-2.437 1.107,-3.785 l -12.682,-23.129 c -0.554,-1.013 -1.653,-1.551 -2.74,-1.442 z m 0.691,1.381 c 0.356,0.104 0.683,0.354 0.877,0.711 l 12.676,23.115 c 0.393,0.715 0.148,1.596 -0.564,1.987 -0.715,0.393 -1.595,0.149 -1.986,-0.565 l -12.674,-23.13 c -0.393,-0.713 -0.15,-1.596 0.564,-1.986 0.356,-0.196 0.751,-0.229 1.107,-0.126 z" /><path
   id="path17-0"
   fill="#f4f4f4"
   d="m 442.99735,307.91269 c -0.361,0.036 -0.729,0.149 -1.066,0.335 -1.35,0.738 -1.85,2.457 -1.108,3.806 l 12.674,23.109 c 0.74,1.35 2.458,1.87 3.807,1.13 1.35,-0.739 1.849,-2.457 1.108,-3.806 l -12.674,-23.131 c -0.555,-1.012 -1.655,-1.552 -2.741,-1.443 z m 0.692,1.38 c 0.356,0.104 0.682,0.354 0.877,0.711 l 12.674,23.131 c 0.393,0.714 0.129,1.575 -0.585,1.967 -0.715,0.392 -1.596,0.149 -1.987,-0.565 l -12.673,-23.131 c -0.393,-0.713 -0.129,-1.596 0.585,-1.986 0.357,-0.198 0.75,-0.232 1.109,-0.127 z" /><path
   id="path19-9"
   fill="#f4f4f4"
   d="m 452.09935,302.93269 c -0.361,0.036 -0.729,0.129 -1.066,0.314 -1.349,0.738 -1.849,2.456 -1.108,3.806 l 12.694,23.131 c 0.737,1.343 2.439,1.835 3.785,1.107 0.01,-0.004 0.013,-0.016 0.021,-0.021 1.33,-0.747 1.845,-2.444 1.108,-3.785 l -12.694,-23.131 c -0.554,-1.01 -1.653,-1.529 -2.74,-1.421 z m 0.69,1.36 c 0.358,0.104 0.683,0.354 0.879,0.711 l 12.674,23.131 c 0.393,0.715 0.15,1.596 -0.565,1.986 -0.713,0.393 -1.596,0.128 -1.986,-0.585 l -12.674,-23.131 c -0.393,-0.714 -0.149,-1.596 0.564,-1.986 0.358,-0.198 0.752,-0.23 1.108,-0.126 z" /><path
   id="path21-9"
   fill="#f4f4f4"
   d="m 461.21435,297.93369 c -0.361,0.036 -0.729,0.129 -1.066,0.313 -1.349,0.74 -1.849,2.459 -1.108,3.807 l 12.674,23.131 c 0.739,1.348 2.458,1.849 3.807,1.108 1.351,-0.739 1.849,-2.457 1.109,-3.807 l -12.683,-23.115 c -0.556,-1.013 -1.654,-1.552 -2.74,-1.443 z m 0.691,1.381 c 0.357,0.104 0.683,0.333 0.879,0.689 l 12.674,23.131 c 0.393,0.715 0.129,1.595 -0.585,1.986 -0.715,0.392 -1.596,0.129 -1.987,-0.586 l -12.669,-23.128 c -0.392,-0.714 -0.128,-1.574 0.585,-1.966 0.358,-0.196 0.751,-0.23 1.109,-0.126 z" /><path
   id="path23-3"
   fill="#f4f4f4"
   d="m 470.31035,292.93469 c -0.356,0.035 -0.715,0.155 -1.046,0.335 -0.006,0.003 -0.016,-0.004 -0.021,0 v 0.021 c -1.329,0.746 -1.844,2.424 -1.108,3.765 l 12.695,23.13 c 0.739,1.35 2.457,1.849 3.807,1.108 1.348,-0.74 1.848,-2.457 1.108,-3.807 l -12.696,-23.108 c -0.556,-1.012 -1.655,-1.552 -2.739,-1.444 z m 0.711,1.38 c 0.357,0.104 0.661,0.333 0.857,0.69 l 12.674,23.131 c 0.393,0.715 0.15,1.594 -0.564,1.987 -0.715,0.391 -1.596,0.128 -1.987,-0.586 l -12.675,-23.103 c -0.393,-0.715 -0.15,-1.596 0.564,-1.987 0.356,-0.195 0.771,-0.229 1.129,-0.125 z" /><path
   id="path25-7"
   fill="#f4f4f4"
   d="m 479.43135,287.93569 c -0.361,0.036 -0.729,0.149 -1.066,0.334 -1.349,0.74 -1.85,2.458 -1.108,3.807 l 12.675,23.109 c 0.738,1.349 2.456,1.849 3.806,1.108 1.349,-0.738 1.85,-2.457 1.108,-3.807 l -12.683,-23.107 c -0.554,-1.014 -1.653,-1.552 -2.739,-1.443 z m 0.689,1.38 c 0.359,0.104 0.684,0.354 0.879,0.712 l 12.676,23.115 c 0.393,0.714 0.129,1.595 -0.585,1.987 -0.716,0.392 -1.597,0.129 -1.987,-0.586 l -12.669,-23.109 c -0.393,-0.713 -0.129,-1.595 0.585,-1.986 0.358,-0.197 0.751,-0.23 1.109,-0.126 z" /><path
   id="path27-3"
   fill="#f4f4f4"
   d="m 403.19935,340.99269 c -0.232,0 -0.479,0.077 -0.69,0.251 -0.213,0.175 -0.355,0.471 -0.355,0.753 v 4.058 c 0,0.263 -0.042,0.478 0.063,0.795 0.053,0.159 0.186,0.354 0.377,0.48 0.19,0.127 0.398,0.168 0.564,0.168 h 1.213 c 0.183,0 0.439,-0.073 0.606,-0.23 0.167,-0.156 0.217,-0.344 0.251,-0.481 0.069,-0.274 0.063,-0.477 0.063,-0.731 v -4.058 c 0,-0.183 -0.033,-0.441 -0.229,-0.669 -0.198,-0.228 -0.513,-0.335 -0.773,-0.335 h -1.09 z m 0.293,1.339 h 0.46 v 3.723 c -0.001,0.065 0.002,0.052 0,0.104 h -0.46 c -0.004,-0.056 0,-0.031 0,-0.104 z" /><path
   id="path29-3"
   fill="#f4f4f4"
   d="m 407.32135,340.99269 c -0.572,0 -1.024,0.439 -1.024,1.004 v 4.058 c 0,0.295 -0.009,0.516 0.083,0.795 0.046,0.139 0.127,0.304 0.293,0.438 0.167,0.137 0.398,0.21 0.565,0.21 h 1.337 c 0.214,0 0.473,-0.13 0.607,-0.293 0.136,-0.164 0.183,-0.317 0.209,-0.439 0.052,-0.244 0.042,-0.449 0.042,-0.711 v -4.058 c 0,-0.24 -0.087,-0.495 -0.272,-0.689 -0.184,-0.195 -0.452,-0.313 -0.711,-0.313 z m 0.313,1.339 h 0.46 v 3.723 c 0,0.057 0.002,0.057 0,0.104 h -0.46 c -0.003,-0.053 0,-0.035 0,-0.104 z" /><path
   id="path31-6"
   fill="#f4f4f4"
   d="m 319.62835,58.72169 c -0.438,0 -0.877,0.272 -1.066,0.607 -0.189,0.333 -0.23,0.681 -0.23,1.004 v 279.863 c 0,4.022 3.276,7.299 7.299,7.299 h 74.225 c 0.355,0 0.702,-0.229 0.879,-0.503 0.175,-0.273 0.229,-0.587 0.229,-0.94 v -4.058 c 0,-0.229 -0.073,-0.529 -0.293,-0.731 -0.22,-0.202 -0.51,-0.271 -0.752,-0.271 h -10.625 c -1.91,0 -3.451,-1.521 -3.451,-3.431 0,-1.91 1.541,-3.45 3.451,-3.45 h 21.269 c 1.911,0 3.451,1.541 3.451,3.45 0,1.617 -1.101,2.947 -2.593,3.326 v 0.021 c -0.31,0.081 -0.506,0.325 -0.586,0.522 -0.08,0.197 -0.104,0.377 -0.104,0.564 v 4.058 c 10e-4,0.222 -0.023,0.427 0.063,0.732 0.044,0.151 0.129,0.354 0.314,0.502 0.184,0.146 0.419,0.209 0.606,0.209 h 49.439 c 23.18,0 41.975,-18.816 41.975,-41.996 v -245.383 c 0,-0.325 -0.092,-0.643 -0.313,-0.92 -0.222,-0.278 -0.602,-0.481 -1.004,-0.481 h -182.181 z m 0.084,1.339 h 182.053 c 0.006,0.013 0.021,0.022 0.021,0.063 v 245.383 c 0,22.456 -18.18,40.657 -40.636,40.657 h -49.085 c -0.002,-0.053 10e-4,-0.04 0,-0.104 v -3.995 c 1.901,-0.636 3.284,-2.391 3.284,-4.497 0,-2.632 -2.156,-4.789 -4.79,-4.789 h -21.269 c -2.634,0 -4.789,2.157 -4.789,4.789 0,2.634 2.155,4.769 4.789,4.769 h 10.331 v 3.723 c 0,0.087 -0.011,0.069 -0.021,0.104 h -73.971 c -3.301,0.007 -5.962,-2.657 -5.962,-5.956 v -279.864 c 0,-0.153 0.028,-0.229 0.042,-0.272 z" /><path
   id="circle33-8"
   fill="#f4f4f4"
   d="m 447.60235,241.27669 c -6.817,0 -12.359,5.542 -12.359,12.359 0,6.818 5.542,12.36 12.359,12.36 6.818,0 12.36,-5.542 12.36,-12.36 0,-6.817 -5.542,-12.359 -12.36,-12.359 z m 0,1.338 c 6.095,0 11.021,4.927 11.021,11.021 0,6.094 -4.927,11.022 -11.021,11.022 -6.094,0 -11.021,-4.927 -11.021,-11.022 -10e-4,-6.094 4.926,-11.021 11.021,-11.021 z" /><path
   id="circle35-4"
   fill="#f4f4f4"
   d="m 447.60235,242.13369 c -6.344,0 -11.503,5.158 -11.503,11.503 0,6.344 5.158,11.503 11.503,11.503 6.345,0 11.503,-5.159 11.503,-11.503 0,-6.344 -5.158,-11.503 -11.503,-11.503 z m 0,1.337 c 5.621,0 10.164,4.544 10.164,10.165 0,5.62 -4.542,10.164 -10.164,10.164 -5.62,0 -10.164,-4.543 -10.164,-10.164 0,-5.621 4.543,-10.165 10.164,-10.165 z" /><path
   id="circle37-3"
   fill="#f4f4f4"
   d="m 478.09335,227.30869 c -6.818,0 -12.36,5.542 -12.36,12.36 0,6.819 5.542,12.36 12.36,12.36 6.818,0 12.36,-5.541 12.36,-12.36 0,-6.818 -5.542,-12.36 -12.36,-12.36 z m 0,1.338 c 6.095,0 11.021,4.928 11.021,11.022 0,6.094 -4.927,11.021 -11.021,11.021 -6.094,0 -11.022,-4.927 -11.022,-11.021 0,-6.093 4.927,-11.022 11.022,-11.022 z" /><path
   id="circle39-0"
   fill="#f4f4f4"
   d="m 478.09335,228.16569 c -6.345,0 -11.504,5.159 -11.504,11.504 0,6.344 5.159,11.502 11.504,11.502 6.344,0 11.502,-5.157 11.502,-11.502 0,-6.345 -5.158,-11.504 -11.502,-11.504 z m 0,1.339 c 5.62,0 10.164,4.544 10.164,10.165 0,5.62 -4.544,10.164 -10.164,10.164 -5.621,0 -10.165,-4.544 -10.165,-10.164 0,-5.621 4.544,-10.165 10.165,-10.165 z" /><path
   id="path41-7"
   fill="#f4f4f4"
   d="m 338.91135,67.23369 c -3.892,0 -7.048,3.177 -7.048,7.069 v 104.883 c 0,3.893 3.156,7.068 7.048,7.068 h 126.151 c 5.978,0 11.936,-3.028 16.418,-7.549 4.484,-4.518 7.509,-10.561 7.509,-16.685 v -87.717 c 0,-3.893 -3.179,-7.068 -7.066,-7.068 z m 0,1.338 h 143.01 c 3.169,0 5.73,2.562 5.73,5.73 v 87.71 c 0,5.682 -2.857,11.436 -7.132,15.748 -4.274,4.312 -9.935,7.153 -15.455,7.153 h -126.151 c -3.169,0 -5.709,-2.561 -5.709,-5.73 v -104.882 c 0,-3.169 2.541,-5.731 5.709,-5.731 z" /><path
   id="path43-9"
   fill="#f4f4f4"
   d="m 362.48135,80.74469 c -0.95,0 -1.735,0.786 -1.735,1.736 v 88.066 c 0,0.95 0.785,1.735 1.735,1.735 h 96.832 c 0.95,0 1.736,-0.786 1.736,-1.735 v -88.066 c 0,-0.95 -0.786,-1.736 -1.736,-1.736 z m 0,1.338 h 96.832 c 0.227,0 0.397,0.171 0.397,0.397 v 88.066 c 0,0.227 -0.171,0.398 -0.397,0.398 h -96.832 c -0.227,0 -0.397,-0.171 -0.397,-0.398 v -88.065 c -10e-4,-0.227 0.17,-0.398 0.397,-0.398 z" /><path
   id="circle45-8"
   fill="#f4f4f4"
   d="m 344.72635,108.68569 c -1.866,0 -3.388,1.522 -3.388,3.388 0,1.866 1.522,3.388 3.388,3.388 1.865,0 3.388,-1.522 3.388,-3.388 0,-1.866 -1.523,-3.388 -3.388,-3.388 z" /><path
   id="path47-8"
   fill="#f4f4f4"
   d="m 346.14735,41.96969 c -0.221,0 -0.472,0.111 -0.607,0.251 -0.134,0.14 -0.192,0.281 -0.23,0.397 -0.074,0.233 -0.083,0.431 -0.083,0.606 v 2.991 c 0,0.24 0.087,0.495 0.272,0.69 0.185,0.195 0.474,0.293 0.732,0.293 h 1.109 c 0.572,0 1.045,-0.417 1.045,-0.983 v -2.991 c 0,-0.218 -0.001,-0.456 -0.146,-0.732 -0.146,-0.276 -0.549,-0.523 -0.879,-0.523 h -1.213 z m 0.418,1.339 h 0.481 v 2.551 h -0.481 z" /><path
   id="path49-7"
   fill="#f4f4f4"
   d="m 350.22535,41.96969 c -0.206,0 -0.454,0.125 -0.585,0.272 -0.131,0.147 -0.182,0.266 -0.209,0.376 -0.057,0.221 -0.063,0.411 -0.063,0.606 v 2.991 c 0,0.181 0.054,0.42 0.251,0.648 0.197,0.228 0.512,0.335 0.774,0.335 h 1.088 c 0.231,0 0.477,-0.057 0.689,-0.23 0.212,-0.173 0.355,-0.469 0.355,-0.752 v -2.991 c 0,-0.182 -0.013,-0.41 -0.125,-0.669 -0.112,-0.26 -0.484,-0.586 -0.878,-0.586 z m 0.481,1.339 h 0.48 v 2.551 h -0.48 z" /><path
   id="path51-7"
   fill="#f4f4f4"
   d="m 335.89935,41.96969 c -0.446,0 -0.845,0.246 -1.066,0.523 -0.22,0.277 -0.312,0.569 -0.313,0.899 v 12.966 c 0,0.607 0.501,1.108 1.108,1.108 h 150.096 c 0.44,0 0.699,-0.34 0.816,-0.606 0.117,-0.266 0.167,-0.542 0.167,-0.899 v -12.485 c 0,-0.437 -0.125,-0.866 -0.418,-1.15 -0.287,-0.284 -0.661,-0.355 -0.956,-0.355 h -130.542 c -0.288,0 -0.703,0.136 -0.9,0.439 -0.196,0.304 -0.187,0.575 -0.187,0.816 v 2.991 c 0,0.228 0.093,0.508 0.313,0.711 0.22,0.203 0.489,0.271 0.731,0.271 h 16.313 c 1.91,0 3.451,1.541 3.451,3.451 0,1.911 -1.541,3.451 -3.451,3.451 h -26.958 c -1.91,0 -3.45,-1.54 -3.45,-3.451 0,-1.617 1.123,-2.97 2.614,-3.346 0.307,-0.083 0.505,-0.326 0.584,-0.522 0.08,-0.197 0.084,-0.377 0.084,-0.565 v -2.991 c 0,-0.282 -0.067,-0.571 -0.251,-0.816 -0.185,-0.244 -0.517,-0.439 -0.879,-0.439 h -6.901 -0.005 z m 149.469,1.318 c -0.034,-0.032 0,-0.026 0,0.188 v 12.485 c 0,0.104 -0.011,0.105 -0.021,0.167 h -149.495 v -12.735 c 0,0.019 0.002,-0.061 0.021,-0.084 0.019,-0.023 0,0 0.021,0 h 6.692 v 2.844 c -1.893,0.639 -3.284,2.396 -3.284,4.497 0,2.634 2.156,4.79 4.79,4.79 h 26.958 c 2.634,0 4.79,-2.155 4.79,-4.79 0,-2.634 -2.156,-4.79 -4.79,-4.79 h -16.02 v -2.551 h 130.294 c 0.089,0 0.075,0.012 0.041,-0.021 z" /><path
   id="path53-1"
   fill="#f4f4f4"
   d="m 326.55135,41.96969 c -4.53,0 -8.219,3.689 -8.219,8.219 v 6.127 c 0,0.282 0.12,0.653 0.397,0.878 0.278,0.226 0.602,0.272 0.92,0.272 h 12.297 c 0.606,0 1.108,-0.501 1.108,-1.108 v -12.965 c 0,-0.346 -0.104,-0.654 -0.313,-0.92 -0.209,-0.266 -0.568,-0.502 -0.984,-0.502 h -5.206 z m 0,1.339 h 5.124 c 0.013,0.024 0.042,0.058 0.042,0.084 v 12.736 h -12.046 v -5.939 c -0.001,-3.807 3.074,-6.881 6.88,-6.881 z" /><path
   id="path55-8"
   fill="#f4f4f4"
   d="m 489.69835,41.96969 c -0.415,0 -0.753,0.235 -0.962,0.502 -0.209,0.267 -0.335,0.574 -0.335,0.92 v 12.966 c 0,0.607 0.522,1.108 1.13,1.108 h 12.297 c 0.318,0 0.642,-0.046 0.92,-0.272 0.278,-0.225 0.377,-0.596 0.377,-0.878 v -6.127 c 0,-4.53 -3.667,-8.22 -8.191,-8.22 h -5.229 z m 0.083,1.339 h 5.146 c 3.807,0 6.859,3.074 6.859,6.881 v 5.939 h -12.046 v -12.736 c 0,-0.026 0.029,-0.06 0.041,-0.084 z" /><path
   id="line57-6"
   fill="#f4f4f4"
   d="m 318.70835,56.75669 v 2.614 h 1.338 v -2.614 z" /><path
   id="line59-7"
   fill="#f4f4f4"
   d="m 332.36535,42.99469 v 1.339 h 2.845 v -1.339 z" /><path
   id="line61-4"
   fill="#f4f4f4"
   d="m 343.19835,42.99469 v 1.339 h 2.845 v -1.339 z" /><path
   id="line63-0"
   fill="#f4f4f4"
   d="m 347.65335,42.99469 v 1.339 h 2.489 v -1.339 z" /><path
   id="line65-1"
   fill="#f4f4f4"
   d="m 351.87835,42.99469 v 1.339 h 2.488 v -1.339 z" /><path
   id="line67-1"
   fill="#f4f4f4"
   d="m 486.25035,42.99469 v 1.339 h 2.845 v -1.339 z" /><path
   id="line69-2"
   fill="#f4f4f4"
   d="m 501.16235,56.79869 v 2.488 h 1.337 v -2.488 z" /><path
   id="polygon71-8"
   fill="#f4f4f4"
   d="m 346.46135,48.24469 -0.502,0.271 -3.158,1.736 -0.523,0.293 0.523,0.292 3.158,1.736 0.502,0.272 v -0.564 -3.472 z" /><path
   id="polygon73-5"
   fill="#f4f4f4"
   d="m 368.96435,48.24469 v 0.564 3.472 0.564 l 0.48,-0.272 3.158,-1.736 0.544,-0.293 -0.544,-0.292 -3.158,-1.736 z" /><path
   id="circle75-3"
   fill="#f4f4f4"
   d="m 355.68435,242.96969 c -3.565,0 -6.483,2.896 -6.483,6.462 0,3.566 2.918,6.483 6.483,6.483 3.565,0 6.463,-2.918 6.463,-6.483 0,-3.565 -2.898,-6.462 -6.463,-6.462 z m 0,1.338 c 2.842,0 5.124,2.282 5.124,5.124 0,2.843 -2.282,5.145 -5.124,5.145 -2.842,0 -5.145,-2.302 -5.145,-5.145 0,-2.841 2.303,-5.124 5.145,-5.124 z" />
<path
   id="path688"
   fill="#f4f4f4"
   d="m 105.57826,41.415874 c -0.95,0 -1.735,0.786 -1.735,1.736 v 88.066006 c 0,0.95 0.785,1.735 1.735,1.735 h 96.83201 c 0.95,0 1.736,-0.786 1.736,-1.735 V 43.151874 c 0,-0.95 -0.786,-1.736 -1.736,-1.736 z m 0,1.338 h 96.83201 c 0.227,0 0.397,0.171 0.397,0.397 v 88.066006 c 0,0.227 -0.171,0.398 -0.397,0.398 h -96.83201 c -0.227,0 -0.397,-0.171 -0.397,-0.398 V 43.151874 c -10e-4,-0.227 0.17,-0.398 0.397,-0.398 z" /></svg>
