<?xml version="1.0" encoding="UTF-8" standalone="no"?>
<svg
   id="gamecube"
   width="589"
   height="350"
   viewBox="0 0 589 350"
   version="1.1"
   sodipodi:docname="controller.svg"
   inkscape:version="1.1 (c68e22c387, 2021-05-23)"
   xmlns:inkscape="http://www.inkscape.org/namespaces/inkscape"
   xmlns:sodipodi="http://sodipodi.sourceforge.net/DTD/sodipodi-0.dtd"
   xmlns="http://www.w3.org/2000/svg"
   xmlns:svg="http://www.w3.org/2000/svg">
  <defs
     id="defs65" />
  <sodipodi:namedview
     id="namedview63"
     pagecolor="#ffffff"
     bordercolor="#666666"
     borderopacity="1.0"
     inkscape:pageshadow="2"
     inkscape:pageopacity="0.0"
     inkscape:pagecheckerboard="0"
     showgrid="false"
     inkscape:zoom="1.7962649"
     inkscape:cx="294.22164"
     inkscape:cy="175.08553"
     inkscape:window-width="1920"
     inkscape:window-height="1027"
     inkscape:window-x="1912"
     inkscape:window-y="-8"
     inkscape:window-maximized="1"
     inkscape:current-layer="gamecube" />
  <g
     id="g115"
     inkscape:label="gc">
    <g
       id="body">
      <g
         id="back">
        <path
           id="right"
           d="m 477,335 c -17.51,0 -31.22,-23.39 -33.34,-56.89 v -0.88 c -3.07,-28.59 -7.46,-49.45 -13.8,-65.71 l -0.36,-0.92 -0.66,0.75 a 33.32,33.32 0 0 0 -7.51,15.5 c -5,25.88 -28.12,45.4 -53.83,45.4 h -1.12 c -24.93,0 -44.18,-14.14 -51.47,-37.84 -7.5,-24.35 0.69,-50.49 19.91,-63.56 a 32.64,32.64 0 0 0 12.33,-15.8 l 0.25,-0.68 -0.72,-0.12 c -10.61,-1.7 -22.81,-3.14 -39.57,-4.67 h -25.17 c -16.81,1.53 -29,3 -39.62,4.67 l -0.72,0.12 0.25,0.68 a 32.64,32.64 0 0 0 12.33,15.8 c 19.22,13.07 27.41,39.21 19.91,63.56 -7.29,23.7 -26.53,37.84 -51.47,37.84 h -1.12 c -25.71,0 -48.85,-19.52 -53.83,-45.4 a 33.29,33.29 0 0 0 -7.52,-15.5 l -0.65,-0.75 -0.36,0.92 c -6.34,16.26 -10.73,37.13 -13.79,65.65 v 1 C 143.22,311.62 129.51,335 112,335 94.73,335 76.1,312.67 76.1,276.6 76.1,204.5 78.88,151.1 84.38,117.86 85.48,100.75 91.3,85.15 101.22,72.69 112.09,59 127.51,50 145.81,46.42 H 146 c 41.7,-21.59 91.61,-33 144.35,-33 h 8.34 c 37.47,0 73,5.59 105.59,16.6 l 0.53,0.18 1.3,-3.06 a 0.41,0.41 0 0 1 0.38,-0.25 108.85,108.85 0 0 1 66.61,28.26 0.44,0.44 0 0 1 0.11,0.47 l -1.11,2.6 0.4,0.28 c 18.81,12.88 30.5,34.5 32.12,59.31 5.5,33.3 8.28,86.7 8.28,158.8 0,36.07 -18.63,58.39 -35.9,58.39 z"
           style="fill:none;stroke:#f4f4f4;stroke-width:1.5px;stroke-miterlimit:10" />
        <path
           id="left"
           d="m 477,335 c -17.51,0 -31.22,-23.39 -33.34,-56.89 v -0.88 c -3.07,-28.59 -7.46,-49.45 -13.8,-65.71 l -0.36,-0.92 -0.66,0.75 a 33.32,33.32 0 0 0 -7.51,15.5 c -5,25.88 -28.12,45.4 -53.83,45.4 h -1.12 c -24.93,0 -44.18,-14.14 -51.47,-37.84 -7.5,-24.35 0.69,-50.49 19.91,-63.56 a 32.64,32.64 0 0 0 12.33,-15.8 l 0.25,-0.68 -0.72,-0.12 c -10.61,-1.7 -22.81,-3.14 -39.57,-4.67 h -25.17 c -16.81,1.53 -29,3 -39.62,4.67 l -0.72,0.12 0.25,0.68 a 32.64,32.64 0 0 0 12.33,15.8 c 19.22,13.07 27.41,39.21 19.91,63.56 -7.29,23.7 -26.53,37.84 -51.47,37.84 h -1.12 c -25.71,0 -48.85,-19.52 -53.83,-45.4 a 33.29,33.29 0 0 0 -7.52,-15.5 l -0.65,-0.75 -0.36,0.92 c -6.34,16.26 -10.73,37.13 -13.79,65.65 v 1 C 143.22,311.62 129.51,335 112,335 94.73,335 76.1,312.67 76.1,276.6 c 0,-72.1 2.78,-125.5 8.28,-158.74 1.78,-27.71 16.32,-51.45 38.9,-63.56 l 0.25,-0.14 0.06,-0.28 A 33.6,33.6 0 0 1 175.93,32.8 l 0.26,0.18 0.3,-0.11 c 34.82,-13 73.12,-19.53 113.84,-19.53 h 8.34 c 52.74,0 102.65,11.42 144.35,33 h 0.17 c 18.3,3.66 33.72,12.66 44.59,26.36 9.92,12.46 15.74,28.06 16.84,45.11 5.5,33.3 8.28,86.7 8.28,158.8 0,36.07 -18.63,58.39 -35.9,58.39 z"
           style="fill:none;stroke:#f4f4f4;stroke-width:1.5px;stroke-miterlimit:10" />
      </g>
      <g
         id="front">
        <g
           id="left-2">
          <path
             d="m 164.15,44.08 v 1.5 c 21.92,0 42.15,9.72 57,27.36 15.36,18.29 22.2,42.54 18.29,64.86 a 33.85,33.85 0 0 0 14.26,33.79 50.17,50.17 0 0 1 20,28.08 60.93,60.93 0 0 1 -0.4,34.48 53.26,53.26 0 0 1 -17.49,26.27 c -9.11,7.26 -20.26,10.93 -33.12,10.93 H 221.5 A 53,53 0 0 1 186.86,258.21 56,56 0 0 1 168.55,226.68 34.05,34.05 0 0 0 142.72,199.87 70.79,70.79 0 0 1 97.21,167.45 84.71,84.71 0 0 1 85.54,114.62 C 87.41,96.2 95.12,79.38 107.24,67.26 120.93,53.57 139.93,46.08 162.18,45.6 h 2 v -1.5 m 0,0 h -2 C 62.87,46.26 59.27,182.36 142.38,201.35 a 32.44,32.44 0 0 1 24.7,25.65 c 4.84,25.18 27.15,45.89 54.42,45.89 h 1.12 c 58.15,0 72.07,-75.18 31.9,-102.5 A 32.26,32.26 0 0 1 240.89,138.1 c 8,-45.4 -27.53,-94 -76.74,-94 z"
             style="fill:#f4f4f4"
             id="path5" />
        </g>
        <g
           id="right-2">
          <path
             d="m 424.85,45.58 h 2 c 22.24,0.48 41.24,8 54.93,21.66 12.12,12.12 19.83,28.94 21.7,47.36 a 84.71,84.71 0 0 1 -11.67,52.83 70.79,70.79 0 0 1 -45.51,32.42 34.05,34.05 0 0 0 -25.83,26.81 56,56 0 0 1 -18.31,31.53 53,53 0 0 1 -34.64,13.14 h -1.12 c -12.86,0 -24,-3.67 -33.12,-10.93 a 53.26,53.26 0 0 1 -17.49,-26.27 60.93,60.93 0 0 1 -0.4,-34.48 50.2,50.2 0 0 1 20,-28.08 33.85,33.85 0 0 0 14.26,-33.79 c -3.91,-22.33 2.93,-46.58 18.3,-64.87 14.81,-17.63 35,-27.35 57,-27.35 m 0,-1.5 c -49.2,0 -84.69,48.58 -76.74,94 a 32.26,32.26 0 0 1 -13.63,32.29 c -40.17,27.32 -26.25,102.5 31.9,102.5 h 1.12 c 27.27,0 49.58,-20.71 54.42,-45.89 a 32.44,32.44 0 0 1 24.7,-25.62 c 83.11,-19 79.51,-155.09 -19.76,-157.24 h -2 z"
             style="fill:#f4f4f4"
             id="path8" />
        </g>
      </g>
    </g>
    <g
       id="joystick">
      <circle
         id="back-2"
         cx="159.85001"
         cy="118.57"
         r="50.5"
         style="fill:none;stroke:#f4f4f4;stroke-width:1.5px;stroke-miterlimit:10" />
      <g
         id="outside">
        <path
           d="m 160.89,78.7 27.9,12.41 10.94,28.51 -12.42,27.89 -28.5,10.94 L 130.92,146 120,117.53 132.42,89.64 160.92,78.7 m 0.05,-1.63 -29.7,11.39 -12.92,29 11.39,29.66 29,12.92 29.67,-11.38 12.92,-29 L 190,90 161,77.07 Z"
           style="fill:#f4f4f4"
           id="path14" />
      </g>
      <g
         id="inside">
        <path
           d="m 160.75,84.2 24.05,10.7 9.43,24.57 -10.71,24.05 -24.52,9.48 -24,-10.7 -9.44,-24.58 10.71,-24 24.57,-9.43 m 0,-1.63 -25.73,9.88 -11.21,25.18 9.88,25.73 25.22,11.21 25.73,-9.87 11.21,-25.18 L 186,93.78 160.79,82.57 Z"
           style="fill:#f4f4f4"
           id="path17" />
      </g>
      <g
         id="center">
        <g
           id="_5"
           data-name=" 5">
          <path
             d="m 159.85,93.53 a 25,25 0 1 1 -25,25 v 0 a 25.07,25.07 0 0 1 25,-25 m 0,-1.5 a 26.55,26.55 0 1 0 26.54,26.56 v 0 A 26.54,26.54 0 0 0 159.88,92 v 0 z"
             style="fill:#f4f4f4"
             id="path20" />
        </g>
        <g
           id="_4"
           data-name=" 4">
          <path
             d="m 159.85,97.78 a 20.8,20.8 0 1 1 -20.79,20.81 v 0 A 20.82,20.82 0 0 1 159.85,97.8 m 0,-1.5 a 22.3,22.3 0 1 0 22.3,22.3 v 0 A 22.29,22.29 0 0 0 159.86,96.31 Z"
             style="fill:#f4f4f4"
             id="path23" />
        </g>
        <g
           id="_3"
           data-name=" 3">
          <path
             d="m 159.85,102.24 a 16.34,16.34 0 1 1 -16.34,16.34 v 0 a 16.36,16.36 0 0 1 16.34,-16.33 m 0,-1.5 a 17.84,17.84 0 1 0 17.84,17.84 v 0 a 17.83,17.83 0 0 0 -17.83,-17.83 z"
             style="fill:#f4f4f4"
             id="path26" />
        </g>
        <g
           id="_2"
           data-name=" 2">
          <path
             d="M 159.85,106.7 A 11.88,11.88 0 1 1 148,118.61 v 0 a 11.9,11.9 0 0 1 11.88,-11.87 m 0,-1.5 a 13.38,13.38 0 1 0 13.38,13.38 v 0 A 13.38,13.38 0 0 0 159.88,105.2 Z"
             style="fill:#f4f4f4"
             id="path29" />
        </g>
        <g
           id="_1"
           data-name=" 1">
          <path
             d="m 159.85,112.05 a 6.53,6.53 0 1 1 -6.53,6.53 v 0 a 6.54,6.54 0 0 1 6.53,-6.52 m 0,-1.5 a 8,8 0 1 0 8,8 8,8 0 0 0 -8,-8.01 z"
             style="fill:#f4f4f4"
             id="path32" />
        </g>
        <g
           id="_0"
           data-name=" 0">
          <path
             d="m 159.85,116.06 a 2.52,2.52 0 1 1 -2.51,2.53 v 0 a 2.51,2.51 0 0 1 2.51,-2.51 m 0,-1.5 a 4,4 0 1 0 4,4 4,4 0 0 0 -4,-4.02 z"
             style="fill:#f4f4f4"
             id="path35" />
        </g>
      </g>
    </g>
    <g
       id="d-pad">
      <circle
         id="back-3"
         cx="221.45"
         cy="215.21001"
         r="36.639999"
         style="fill:none;stroke:#f4f4f4;stroke-width:1.5px;stroke-miterlimit:10" />
      <path
         id="outside_cross"
         data-name="outside cross"
         d="m 215.63,246.21 a 5.72,5.72 0 0 1 -5.71,-5.72 v -13.75 h -13.76 a 5.72,5.72 0 0 1 -5.71,-5.72 v -11.63 a 5.71,5.71 0 0 1 5.71,-5.71 h 13.76 v -13.76 a 5.71,5.71 0 0 1 5.71,-5.71 h 11.63 a 5.72,5.72 0 0 1 5.72,5.71 v 13.76 h 13.75 a 5.72,5.72 0 0 1 5.72,5.71 V 221 a 5.73,5.73 0 0 1 -5.72,5.72 H 233 v 13.75 a 5.73,5.73 0 0 1 -5.72,5.72 z"
         style="fill:none;stroke:#f4f4f4;stroke-width:1.5px;stroke-miterlimit:10" />
      <path
         id="inside_cross"
         data-name="inside cross"
         d="M 246.16,206.73 H 229.92 V 190.5 a 2.79,2.79 0 0 0 -2.79,-2.79 H 215.76 A 2.8,2.8 0 0 0 213,190.5 v 16.23 h -16.26 a 2.8,2.8 0 0 0 -2.79,2.79 v 11.37 a 2.79,2.79 0 0 0 2.79,2.79 H 213 v 16.24 a 2.8,2.8 0 0 0 2.79,2.79 h 11.37 a 2.8,2.8 0 0 0 2.79,-2.79 v -16.24 h 16.24 a 2.8,2.8 0 0 0 2.79,-2.79 v -11.37 a 2.8,2.8 0 0 0 -2.81,-2.79 z"
         style="fill:none;stroke:#f4f4f4;stroke-width:1.5px;stroke-miterlimit:10" />
      <circle
         id="center-2"
         cx="221.45"
         cy="215.21001"
         r="6.2800002"
         style="fill:none;stroke:#f4f4f4;stroke-width:1.5px;stroke-miterlimit:10" />
      <path
         id="arrows"
         d="m 226.64,200.71 h -10.39 l 5.2,-9 z m 0,29 h -10.39 l 5.2,9 z M 207,210 v 10.4 l -9,-5.19 z m 29,0 v 10.4 l 9,-5.19 z"
         style="fill:none;stroke:#f4f4f4;stroke-width:1.5px;stroke-miterlimit:10" />
    </g>
    <g
       id="c-stick">
      <g
         id="outside-2">
        <path
           d="m 367.09,177.41 26.85,12 10.52,27.43 -11.95,26.84 -27.43,10.53 -26.84,-12 -10.53,-27.43 12,-26.84 27.43,-10.53 m 0.05,-1.63 -28.6,11 -12.45,28 11,28.59 28,12.45 28.59,-11 12.46,-28 -11,-28.59 -28,-12.46 z"
           style="fill:#f4f4f4"
           id="path46" />
      </g>
      <g
         id="inside-2">
        <path
           d="m 367,182.91 23,10.24 9,23.5 -10.23,23 -23.5,9 -23,-10.24 -9,-23.5 10.24,-23 23.5,-9 m 0,-1.63 -24.66,9.47 -10.74,24.13 9.46,24.66 24.13,10.74 24.66,-9.46 10.75,-24.13 L 391.12,192 367,181.28 Z"
           style="fill:#f4f4f4"
           id="path49" />
      </g>
      <circle
         id="C"
         cx="366.09"
         cy="215.78"
         r="19"
         style="fill:none;stroke:#f4f4f4;stroke-width:1.5px;stroke-miterlimit:10" />
    </g>
    <g
       id="start">
      <circle
         id="start-2"
         cx="294.5"
         cy="122.27"
         r="11.72"
         style="fill:none;stroke:#f4f4f4;stroke-width:1.5px;stroke-miterlimit:10" />
    </g>
    <g
       id="buttons">
      <path
         id="all"
         d="m 484.48,125.21 a 11.58,11.58 0 0 1 -8.9,8.57 v 0 A 11.64,11.64 0 0 1 472,134 49,49 0 0 1 390.54,153 16.8,16.8 0 1 1 375.66,128.41 c 0.6,0 1.21,0 1.81,0.1 a 49.06,49.06 0 0 1 12.9,-44 11.64,11.64 0 0 1 -1.22,-2.69 v 0 a 11.58,11.58 0 0 1 3.18,-11.94 37.81,37.81 0 0 1 32.42,-9.91 11.55,11.55 0 0 1 9.35,8.03 v 0 a 11.84,11.84 0 0 1 0.46,2.43 49,49 0 0 1 29.53,17.94 11.66,11.66 0 0 1 13.35,3.63 37.84,37.84 0 0 1 7.04,33.21 z"
         style="fill:none;stroke:#f4f4f4;stroke-width:1.5px;stroke-miterlimit:10" />
      <circle
         id="A"
         cx="425.51999"
         cy="118.57"
         r="26.540001"
         style="fill:none;stroke:#f4f4f4;stroke-width:1.5px;stroke-miterlimit:10" />
      <circle
         id="B"
         cx="375.70001"
         cy="145.12"
         r="16.799999"
         style="fill:none;stroke:#f4f4f4;stroke-width:1.5px;stroke-miterlimit:10" />
      <path
         id="X"
         d="m 461.5,121.85 a 36.46,36.46 0 0 0 -3.7,-17.39 11.7,11.7 0 0 1 5.3,-15.67 11.26,11.26 0 0 1 2.7,-1 v 0 a 11.55,11.55 0 0 1 11.64,4.21 37.84,37.84 0 0 1 7,33.17 11.58,11.58 0 0 1 -8.9,8.57 v 0 a 11.7,11.7 0 0 1 -13.81,-9.11 11.83,11.83 0 0 1 -0.23,-2.78 z"
         style="fill:none;stroke:#f4f4f4;stroke-width:1.5px;stroke-miterlimit:10" />
      <path
         id="Y"
         d="m 423.45,83.06 a 36.4,36.4 0 0 0 -17,5.2 11.68,11.68 0 0 1 -17.26,-6.54 v 0 a 11.58,11.58 0 0 1 3.18,-11.94 37.81,37.81 0 0 1 32.42,-9.91 11.56,11.56 0 0 1 9.31,8.13 v 0 a 11.69,11.69 0 0 1 -7.81,14.57 11.42,11.42 0 0 1 -2.84,0.49 z"
         style="fill:none;stroke:#f4f4f4;stroke-width:1.5px;stroke-miterlimit:10" />
    </g>
  </g>
</svg>
