<svg height="353.57434" viewBox="0 0 2274.5094 1272.8676" width="631.80817" xmlns="http://www.w3.org/2000/svg"><g fill="#f4f4f4" fill-opacity=".5" stroke-width="3.6"><path d="m1454.6696 164.39252q0 1.152-.2784 1.9392-.4128 1.1712-1.3248 1.1712-.6048 0-1.2672-.2784-.7968-.336-.8736-.8256.2688 0 .6336.096.8448.2208 1.056.2208.816 0 1.2288-.816.3264-.6528.3264-1.5648 0-.6432-.4224-1.8336-.4128-1.20001-.4128-1.67041 0-.144.077-.2304.086-.096.2304-.096.3744 0 .7296 1.72801.2976 1.4592.2976 2.16z"/><path d="m1458.3656 165.37172q0 .9792-.5664 1.536-.5664.5568-1.5648.5568-.5472 0-.8448-.2592-.2976-.2592-.2976-.7968 0-.7584.9888-1.5264.9408-.7296 1.7376-.7296.3648 0 .48.4512.067.2592.067.768zm-.5856.2688q0-.1152-.029-.2208-.019-.1152-.077-.2592-.1536.1056-.5088.5184-.1824.2112-.3168.3072 0-.1824.038-.2976.077-.1632.1248-.2784-.4224 0-.8832.3552-.4512.3552-.4512.768 0 .2784.3072.2784.5856 0 1.1328-.288.6624-.3456.6624-.8832z"/><path d="m1462.3208 165.76532q0 .4704-.3552 1.056-.4032.6624-.8352.6624-.1248 0-.2112-.1344-.077-.144-.077-.2784 0-.1728.3648-.5376.3744-.3744.3744-.5088 0-.0864-.029-.1728-.029-.0864-.038-.1152-.72.1632-1.4688.8256-.7392.6624-1.1232.7488-.077-.2112-.077-.432 0-.2688.1248-.5664.086-.2112.288-.5088.336-.5088.7104-1.152.192-.336.6624-1.1616.48-.8256.7008-1.1712.1152-.1728.2016-.2592.1248-.1152.2976-.1536.1152.0384.1632.144.058.1056.058.2496 0 .3264-.4224.8832-.768.9984-.7872 1.0368-.432.6528-.432 1.1808l.019.096q.528-.2592.624-.2976.3936-.1632.672-.1632.3072 0 .4512.2112.144.2016.144.5184z"/><path d="m1466.7752 165.19892q0 .6528-.3168 1.392-.3456.816-.8544 1.1232-.1056-.1248-.1824-.2784-.067-.1536-.067-.3072 0-.1632.48-.9696.2112-.3552.192-.624l-.01-.1248q-.3552.1056-1.2288.6432-.864.528-1.7472 1.0752-.1344 0-.2496-.096-.1056-.1056-.1056-.2304 0-.2016.6432-1.3536.192-.3456.6912-1.2.1536.2016.2016.4512.048.24.048.576 0 .144 0 .2208.8832-.528 1.3824-.7968.5472-.2976.7488-.2976.1344 0 .2496.3072.1248.3072.1248.4896z"/><path d="m1475.1176 167.06132q0 .1728-.1536.2688-.144.0864-.3264.0864-.1632 0-.4128-.0384-.5664-.0864-.7296-.0864-.288 0-1.1328.0672-.48.0384-.6912.0384-.5856 0-.5856-.5856 0-.5568.3648-1.5936.2016-.5856.7584-1.92.4992-1.2.6336-1.6896.048-.15361.077-.20161.077-.1152.192-.1152.1824 0 .3072.2688.1248.25921.1248.47041 0 .336-.3936 1.1328-.3936.7872-.768 1.5456-.4128.9024-.4128 1.3728 0 .24.2016.336.144.0672.4224.0672.2112 0 .7296-.048.5184-.0576.6912-.0576.432 0 .7104.1248.3936.1728.3936.5568z"/><path d="m1478.6888 165.37172q0 .9792-.5664 1.536-.5664.5568-1.5648.5568-.5472 0-.8448-.2592-.2976-.2592-.2976-.7968 0-.7584.9888-1.5264.9408-.7296 1.7376-.7296.3648 0 .48.4512.067.2592.067.768zm-.5856.2688q0-.1152-.029-.2208-.019-.1152-.077-.2592-.1536.1056-.5088.5184-.1824.2112-.3168.3072 0-.1824.038-.2976.077-.1632.1248-.2784-.4224 0-.8832.3552-.4512.3552-.4512.768 0 .2784.3072.2784.5856 0 1.1328-.288.6624-.3456.6624-.8832z"/><path d="m1482.7304 165.17012q0 .3072-.1632.6528-.1536.3456-.3936.576l-.01-.1344q0-.1152.029-.3552.029-.24.029-.3552 0-.1632-.048-.24-.048-.0864-.2016-.0864-.4512 0-1.1232.7008-.7296.768-1.4496 1.5264-.058 0-.1152-.01-.144-.0384-.192-.048.029-.3456.24-.768.5664-1.1424.5856-1.2192.077-.3072.1152-.4512.038-.144.1056-.2976.077-.1632.1728-.288.1056-.1344.2688-.2016l.096 1.152q.4128-.336.6336-.5184.4224-.336.7296-.336.3072 0 .4992.2016.192.2016.192.4992z"/><path d="m1487.444 164.05652q0 .4032-1.0752 1.0656-1.0368.6336-1.5072.6336-.2208 0-.2976-.1536-.067-.1536-.067-.432 0-.1824 0-.2592.6432 0 1.1712-.192.528-.192.9216-.6336-.288-.1056-.5856-.1056-.7008 0-1.488.5376-.864.5856-.864 1.248 0 .6336.864.8832.1344.0384 1.6224.2688.8736.1344.8736.4704 0 .144-.3168.2304-.3168.096-.8064.096-1.2288 0-1.9392-.3744-.9408-.4992-.9408-1.6032 0-1.152 1.152-1.8336.9792-.576 2.2272-.576.3744 0 .6816.1728.3744.2112.3744.5568z"/><path d="m1491.2648 162.33812q0 .2112-.5088.8832-.5088.672-.5088 1.0272 0 .1824.2112.3648.48.4224.48.5184 0 .1248-.086.24-.077.1152-.2016.1152-.1056 0-.2976-.1152-.1344-.0768-.5184-.3744-.144.2784-.2208.4224-.2688.5088-.3648.7392-.144.4416-.288.8832-.2496.5952-.624.5952l-.01-.2208q0-.6816.4416-1.6128.086-.1728.48-.8928-.7584-.4128-1.6704-.4128 0-.3552.144-.5184.1536-.1728.5088-.1728.3264 0 .816.1152.24.0576.48.1152.1824-.0576.4992-.624.7776-1.3632 1.056-1.5648.077.1248.1248.2496.058.1248.058.24z"/><path d="m1494.8072 165.76532q0 .4704-.3552 1.056-.4032.6624-.8352.6624-.1248 0-.2112-.1344-.077-.144-.077-.2784 0-.1728.3648-.5376.3744-.3744.3744-.5088 0-.0864-.029-.1728-.029-.0864-.038-.1152-.72.1632-1.4688.8256-.7392.6624-1.1232.7488-.077-.2112-.077-.432 0-.2688.1248-.5664.086-.2112.288-.5088.336-.5088.7104-1.152.192-.336.6624-1.1616.48-.8256.7008-1.1712.1152-.1728.2016-.2592.1248-.1152.2976-.1536.1152.0384.1632.144.058.1056.058.2496 0 .3264-.4224.8832-.768.9984-.7872 1.0368-.432.6528-.432 1.1808l.019.096q.528-.2592.624-.2976.3936-.1632.672-.1632.3072 0 .4512.2112.144.2016.144.5184z"/><path d="m1502.6889 162.63572q0 .4512-.48 1.2096-.3072.48-1.008 1.3824-.7008.8928-.8736 1.1712.029.01.72.2304.7008.2112.7008.768-.288.048-.5664.0864l-.1056-.01v-.0768q-.1536-.0384-.2496-.0384-.1824 0-.576.0576-.3936.0576-.5952.0576-.2592 0-.4224-.096-.1632-.096-.1632-.3456 0-.2016.7392-1.1424 1.3824-1.7568 1.392-1.776.7488-1.0176.7488-1.3632 0-.1344-.096-.2016-.086-.0672-.3552-.0672-.1824 0-.7584.3552-.2784.1728-.4512.1728l-.1632-.0288q-.058-.0384-.1248-.144-.067-.1152-.067-.1824 0-.4032.7776-.7392.6624-.288 1.152-.288.4128 0 .6336.3072.192.2688.192.7008z"/><path d="m1508.4585 164.36372q0 1.1616-1.2577 2.0544-1.152.816-2.3712.816-.6048 0-.96-.3072-.3552-.3072-.3552-.8928 0-1.3056 1.1424-2.2656 1.0848-.912 2.4288-.912.6816 0 1.0273.4032.3456.4032.3456 1.104zm-.5857.2208q0-.4416-.4992-.6624-.3744-.1632-.8928-.1632-.7584 0-1.584.7392-.8256.7392-.8256 1.488 0 .3072.1536.4416.1632.1248.4896.1248.9408 0 1.9584-.5184 1.2-.6144 1.2-1.4496z"/><path d="m1512.8553 162.63572q0 .4512-.48 1.2096-.3072.48-1.008 1.3824-.7008.8928-.8736 1.1712.029.01.72.2304.7008.2112.7008.768-.288.048-.5664.0864l-.1056-.01v-.0768q-.1536-.0384-.2496-.0384-.1824 0-.576.0576-.3936.0576-.5952.0576-.2592 0-.4224-.096-.1632-.096-.1632-.3456 0-.2016.7392-1.1424 1.3824-1.7568 1.392-1.776.7488-1.0176.7488-1.3632 0-.1344-.096-.2016-.086-.0672-.3552-.0672-.1824 0-.7584.3552-.2784.1728-.4512.1728l-.1632-.0288q-.058-.0384-.1248-.144-.067-.1152-.067-.1824 0-.4032.7776-.7392.6624-.288 1.152-.288.4128 0 .6336.3072.192.2688.192.7008z"/><path d="m1517.2713 162.63572q0 .4512-.48 1.2096-.3072.48-1.008 1.3824-.7008.8928-.8736 1.1712.029.01.72.2304.7008.2112.7008.768-.288.048-.5664.0864l-.1056-.01v-.0768q-.1536-.0384-.2496-.0384-.1824 0-.576.0576-.3936.0576-.5952.0576-.2592 0-.4224-.096-.1632-.096-.1632-.3456 0-.2016.7392-1.1424 1.3824-1.7568 1.392-1.776.7488-1.0176.7488-1.3632 0-.1344-.096-.2016-.086-.0672-.3552-.0672-.1824 0-.7584.3552-.2784.1728-.4512.1728l-.1632-.0288q-.058-.0384-.1248-.144-.067-.1152-.067-.1824 0-.4032.7776-.7392.6624-.288 1.152-.288.4128 0 .6336.3072.192.2688.192.7008z"/></g><g fill="none" stroke="#f4f4f4" transform="translate(-308.7092 -446.14918)"><g><path d="m1146.9482 1344.9041h-28.5001c-3.7316 0-6.7358-3.0042-6.7358-6.7359v-712.21371c0-3.73167 3.0042-6.73586 6.7358-6.73586h712.2137c3.7317 0 6.7359 3.00419 6.7359 6.73586v712.21371c0 3.7317-3.0042 6.7359-6.7359 6.7359h-26.8723" stroke-width="7.2"/><path d="m1145.4022 1372.2471h-32.804c-13.3149 0-24.0341-10.7193-24.0341-24.0342v-724.40668c0-13.3149 10.7192-24.03413 24.0341-24.03413h724.4067c13.3149 0 24.0342 10.71923 24.0342 24.03413v724.40668c0 13.3149-10.7193 24.0342-24.0342 24.0342h-33.2569" stroke-width="7.2"/><g stroke-width="3.6"><path d="m513.86912 760.20728a16.742498 16.7425 0 0 1 -16.7425 16.7425 16.742498 16.7425 0 0 1 -16.7425-16.7425 16.742498 16.7425 0 0 1 16.7425-16.7425 16.742498 16.7425 0 0 1 16.7425 16.7425z"/><path d="m561.86909 760.20728a16.742498 16.7425 0 0 1 -16.7425 16.7425 16.742498 16.7425 0 0 1 -16.7425-16.7425 16.742498 16.7425 0 0 1 16.7425-16.7425 16.742498 16.7425 0 0 1 16.7425 16.7425z"/><path d="m609.86909 760.20728a16.742498 16.7425 0 0 1 -16.7425 16.7425 16.742498 16.7425 0 0 1 -16.7425-16.7425 16.742498 16.7425 0 0 1 16.7425-16.7425 16.742498 16.7425 0 0 1 16.7425 16.7425z"/><path d="m659.86909 760.20728a16.742498 16.7425 0 0 1 -16.7425 16.7425 16.742498 16.7425 0 0 1 -16.7425-16.7425 16.742498 16.7425 0 0 1 16.7425-16.7425 16.742498 16.7425 0 0 1 16.7425 16.7425z"/><path d="m513.86912 810.20728a16.742498 16.7425 0 0 1 -16.7425 16.7425 16.742498 16.7425 0 0 1 -16.7425-16.7425 16.742498 16.7425 0 0 1 16.7425-16.7425 16.742498 16.7425 0 0 1 16.7425 16.7425z"/><path d="m561.86909 810.20728a16.742498 16.7425 0 0 1 -16.7425 16.7425 16.742498 16.7425 0 0 1 -16.7425-16.7425 16.742498 16.7425 0 0 1 16.7425-16.7425 16.742498 16.7425 0 0 1 16.7425 16.7425z"/><path d="m609.86909 810.20728a16.742498 16.7425 0 0 1 -16.7425 16.7425 16.742498 16.7425 0 0 1 -16.7425-16.7425 16.742498 16.7425 0 0 1 16.7425-16.7425 16.742498 16.7425 0 0 1 16.7425 16.7425z"/><path d="m659.86909 810.20728a16.742498 16.7425 0 0 1 -16.7425 16.7425 16.742498 16.7425 0 0 1 -16.7425-16.7425 16.742498 16.7425 0 0 1 16.7425-16.7425 16.742498 16.7425 0 0 1 16.7425 16.7425z"/><path d="m513.86912 860.20728a16.742498 16.7425 0 0 1 -16.7425 16.7425 16.742498 16.7425 0 0 1 -16.7425-16.7425 16.742498 16.7425 0 0 1 16.7425-16.7425 16.742498 16.7425 0 0 1 16.7425 16.7425z"/><path d="m561.86909 860.20728a16.742498 16.7425 0 0 1 -16.7425 16.7425 16.742498 16.7425 0 0 1 -16.7425-16.7425 16.742498 16.7425 0 0 1 16.7425-16.7425 16.742498 16.7425 0 0 1 16.7425 16.7425z"/><path d="m609.86909 860.20728a16.742498 16.7425 0 0 1 -16.7425 16.7425 16.742498 16.7425 0 0 1 -16.7425-16.7425 16.742498 16.7425 0 0 1 16.7425-16.7425 16.742498 16.7425 0 0 1 16.7425 16.7425z"/><path d="m659.86909 860.20728a16.742498 16.7425 0 0 1 -16.7425 16.7425 16.742498 16.7425 0 0 1 -16.7425-16.7425 16.742498 16.7425 0 0 1 16.7425-16.7425 16.742498 16.7425 0 0 1 16.7425 16.7425z"/><path d="m513.86912 908.20728a16.742498 16.7425 0 0 1 -16.7425 16.7425 16.742498 16.7425 0 0 1 -16.7425-16.7425 16.742498 16.7425 0 0 1 16.7425-16.7425 16.742498 16.7425 0 0 1 16.7425 16.7425z"/><path d="m561.86909 908.20728a16.742498 16.7425 0 0 1 -16.7425 16.7425 16.742498 16.7425 0 0 1 -16.7425-16.7425 16.742498 16.7425 0 0 1 16.7425-16.7425 16.742498 16.7425 0 0 1 16.7425 16.7425z"/><path d="m609.86909 908.20728a16.742498 16.7425 0 0 1 -16.7425 16.7425 16.742498 16.7425 0 0 1 -16.7425-16.7425 16.742498 16.7425 0 0 1 16.7425-16.7425 16.742498 16.7425 0 0 1 16.7425 16.7425z"/><path d="m659.86909 908.20728a16.742498 16.7425 0 0 1 -16.7425 16.7425 16.742498 16.7425 0 0 1 -16.7425-16.7425 16.742498 16.7425 0 0 1 16.7425-16.7425 16.742498 16.7425 0 0 1 16.7425 16.7425z"/><path d="m465.86912 810.20728a16.742498 16.7425 0 0 1 -16.7425 16.7425 16.742498 16.7425 0 0 1 -16.7425-16.7425 16.742498 16.7425 0 0 1 16.7425-16.7425 16.742498 16.7425 0 0 1 16.7425 16.7425z"/><path d="m465.86912 860.20728a16.742498 16.7425 0 0 1 -16.7425 16.7425 16.742498 16.7425 0 0 1 -16.7425-16.7425 16.742498 16.7425 0 0 1 16.7425-16.7425 16.742498 16.7425 0 0 1 16.7425 16.7425z"/></g><g stroke-width="7.2"><path d="m1068.4553 520.14221h812.9165c53.9355 0 97.3565 43.42102 97.3565 97.35655v725.00854c0 53.9356-43.421 97.3566-97.3565 97.3566h-812.9165c-53.9355 0-97.35655-43.421-97.35655-97.3566v-725.00854c0-53.93553 43.42105-97.35655 97.35655-97.35655z"/><path d="m1208.6981 706.27319h536.2509v557.04911h-536.2509z"/><path d="m2289.1118 585.4451c-37.3743 9.53908-99.4826 5.89885-153.3082 6.67201-34.1287-1.60273-62.2532 1.82636-62.3297 28.76099v62.23365m-599.4751-235.96265c260.9346 6.98702 520.8924 9.25423 785.6148 34.54376m-186.1397 201.41889.2519 662.17655m0 0c0 102.5496-82.5579 185.1075-185.1075 185.1075h-908.43118c-69.0026-14.0436-127.95596-43.1044-153.26238-122.4453l-162.29023-746.26142m0 0c-13.19402-32.07571-23.60816-68.08197-61.36157-65.4324l-174.7238 12.78988c-13.48479-3.09065-24.32904-12.0737-23.46962-47.1737 3.68307-59.05189 36.25382-50.16605 52.96783-56.57854 118.35268-13.23599 240.12308-24.23653 362.26982-31.98797 218.03093-11.09238 436.52243-23.32686 653.68163-26.15725m815.113 138.296c13.4848-3.09065 24.3291-12.0737 23.4697-47.1737-3.6831-59.05189-36.2539-50.16605-52.9679-56.57854"/><path d="m1940.9738 1686.2311 207.4715-191.9494m116.1147-107.4275 78.412-72.5455m97.4256-90.1366 24.5952-22.7551m-1597.79509 496.8918c-22.8115-109.134-32.71415-220.8216-88.23967-323.4839-62.58947-101.5785-111.91443-115.5065-158.0184-133.8893l-197.14422-72.6099m4.75372-559.27914c-55.79176 277.35396-108.85972 557.29694-118.83979 840.56874.93859 108.7783 89.86022 201.9406 203.33446 219.2747 640.49289 60.7838 1288.11989 72.3361 1927.61139-6.4837 99.8187-26.996 152.2006-126.6975 139.7573-223.0215-29.2027-301.297-76.9266-619.71765-139.655-873.42418-17.8431-57.40419-86.645-48.11144-133.2229-52.59559"/></g></g><g stroke-width="7.2"><path d="m2233.9925 973.98889a31.872421 31.872423 0 0 1 -31.8724 31.87241 31.872421 31.872423 0 0 1 -31.8724-31.87241 31.872421 31.872423 0 0 1 31.8724-31.87242 31.872421 31.872423 0 0 1 31.8724 31.87242z"/><path d="m2380.4654 911.95874a31.872421 31.872423 0 0 1 -31.8724 31.87242 31.872421 31.872423 0 0 1 -31.8724-31.87242 31.872421 31.872423 0 0 1 31.8724-31.87242 31.872421 31.872423 0 0 1 31.8724 31.87242z"/><path d="m572.53711 1251.1504c-4.26102-.011-8.30133 2.4886-10.07617 6.6699l-34.40625 81.0586-81.64649-32.9883c-5.61548-2.2688-11.96362.4256-14.23242 6.041l-24.08203 59.6055c-2.2688 5.6155.42554 11.9636 6.04102 14.2324l80.25195 32.4239-33.82031 79.6738c-2.36646 5.575.21794 11.9675 5.79297 14.334l59.17578 25.1191c5.57502 2.3665 11.96948-.216 14.33593-5.791l34.40625-81.0586 81.64454 32.9863c5.61547 2.2688 11.96362-.4236 14.23242-6.039l24.08203-59.6075c2.2688-5.6154-.42554-11.9616-6.04102-14.2304l-80.25-32.4239 33.81836-79.6738c2.36646-5.575-.21599-11.9675-5.79101-14.334l-59.17774-25.1191c-1.39375-.5916-2.83747-.8754-4.25781-.8789z"/><path d="m587.32571 1392.806a34.975372 35.497246 0 0 1 -34.35367 35.4917 34.975372 35.497246 0 0 1 -35.57497-34.2299 34.975372 35.497246 0 0 1 33.08897-36.7086 34.975372 35.497246 0 0 1 36.7513 32.9249"/><path d="m508.50965 1459.7228-6.11236 14.3999-9.02347-3.8303 5.99787 16.2802 5.99717 16.2783 15.8756-6.9939 15.87618-6.9951-8.89006-3.7737 6.11236-14.3998z"/><path d="m597.22345 1325.1216 6.11236-14.3999 9.02347 3.8303-5.99787-16.2802-5.99717-16.2783-15.8756 6.9939-15.87618 6.9951 8.89006 3.7737-6.11236 14.3998z"/><path d="m482.95995 1351.0929-14.3999-6.1124 3.8303-9.0235-16.2802 5.9979-16.2783 5.9972 6.9939 15.8756 6.9951 15.8762 3.7737-8.8901 14.3998 6.1124z"/><path d="m621.09541 1437.2174 14.3999 6.1124-3.8303 9.0235 16.2802-5.9979 16.2783-5.9972-6.9939-15.8756-6.9951-15.8762-3.7737 8.8901-14.3998-6.1124z"/><g stroke-linecap="round"><circle cx="2420.873" cy="1300.2751" r="79.028999"/><circle cx="2206.2544" cy="1440.793" r="79.028999"/></g></g></g></svg>