<svg height="355.59799" viewBox="0 0 468.68376 391.15779" width="426.07614" xmlns="http://www.w3.org/2000/svg"><g fill="#f4f4f4" fill-opacity=".5" stroke-width="2.75"><path d="m205.96048 304.14335q0 .264-.0638.4444-.0946.2684-.3036.2684-.1386 0-.2904-.0638-.1826-.077-.2002-.1892.0616 0 .1452.022.1936.0506.242.0506.187 0 .2816-.187.0748-.1496.0748-.3586 0-.1474-.0968-.4202-.0946-.275-.0946-.3828 0-.033.0176-.0528.0198-.022.0528-.022.0858 0 .1672.396.0682.3344.0682.495z"/><path d="m206.80748 304.36775q0 .2244-.1298.352-.1298.1276-.3586.1276-.1254 0-.1936-.0594-.0682-.0594-.0682-.1826 0-.1738.2266-.3498.2156-.1672.3982-.1672.0836 0 .11.1034.0154.0594.0154.176zm-.1342.0616q0-.0264-.007-.0506-.004-.0264-.0176-.0594-.0352.0242-.1166.1188-.0418.0484-.0726.0704 0-.0418.009-.0682.0176-.0374.0286-.0638-.0968 0-.2024.0814-.1034.0814-.1034.176 0 .0638.0704.0638.1342 0 .2596-.066.1518-.0792.1518-.2024z"/><path d="m207.71388 304.45795q0 .1078-.0814.242-.0924.1518-.1914.1518-.0286 0-.0484-.0308-.0176-.033-.0176-.0638 0-.0396.0836-.1232.0858-.0858.0858-.1166 0-.0198-.007-.0396-.007-.0198-.009-.0264-.165.0374-.3366.1892-.1694.1518-.2574.1716-.0176-.0484-.0176-.099 0-.0616.0286-.1298.0198-.0484.066-.1166.077-.1166.1628-.264.044-.077.1518-.2662.11-.1892.1606-.2684.0264-.0396.0462-.0594.0286-.0264.0682-.0352.0264.009.0374.033.0132.0242.0132.0572 0 .0748-.0968.2024-.176.2288-.1804.2376-.099.1496-.099.2706l.004.022q.121-.0594.143-.0682.0902-.0374.154-.0374.0704 0 .1034.0484.033.0462.033.1188z"/><path d="m208.73468 304.32815q0 .1496-.0726.319-.0792.187-.1958.2574-.0242-.0286-.0418-.0638-.0154-.0352-.0154-.0704 0-.0374.11-.2222.0484-.0814.044-.143l-.002-.0286q-.0814.0242-.2816.1474-.198.121-.4004.2464-.0308 0-.0572-.022-.0242-.0242-.0242-.0528 0-.0462.1474-.3102.044-.0792.1584-.275.0352.0462.0462.1034.011.055.011.132 0 .033 0 .0506.2024-.121.3168-.1826.1254-.0682.1716-.0682.0308 0 .0572.0704.0286.0704.0286.1122z"/><path d="m210.64648 304.75495q0 .0396-.0352.0616-.033.0198-.0748.0198-.0374 0-.0946-.009-.1298-.0198-.1672-.0198-.066 0-.2596.0154-.11.009-.1584.009-.1342 0-.1342-.1342 0-.1276.0836-.3652.0462-.1342.1738-.44.1144-.275.1452-.3872.011-.0352.0176-.0462.0176-.0264.044-.0264.0418 0 .0704.0616.0286.0594.0286.1078 0 .077-.0902.2596-.0902.1804-.176.3542-.0946.2068-.0946.3146 0 .055.0462.077.033.0154.0968.0154.0484 0 .1672-.011.1188-.0132.1584-.0132.099 0 .1628.0286.0902.0396.0902.1276z"/><path d="m211.46488 304.36775q0 .2244-.1298.352-.1298.1276-.3586.1276-.1254 0-.1936-.0594-.0682-.0594-.0682-.1826 0-.1738.2266-.3498.2156-.1672.3982-.1672.0836 0 .11.1034.0154.0594.0154.176zm-.1342.0616q0-.0264-.007-.0506-.004-.0264-.0176-.0594-.0352.0242-.1166.1188-.0418.0484-.0726.0704 0-.0418.009-.0682.0176-.0374.0286-.0638-.0968 0-.2024.0814-.1034.0814-.1034.176 0 .0638.0704.0638.1342 0 .2596-.066.1518-.0792.1518-.2024z"/><path d="m212.39108 304.32155q0 .0704-.0374.1496-.0352.0792-.0902.132l-.002-.0308q0-.0264.007-.0814.007-.055.007-.0814 0-.0374-.011-.055-.011-.0198-.0462-.0198-.1034 0-.2574.1606-.1672.176-.3322.3498-.0132 0-.0264-.002-.033-.009-.044-.011.007-.0792.055-.176.1298-.2618.1342-.2794.0176-.0704.0264-.1034.009-.033.0242-.0682.0176-.0374.0396-.066.0242-.0308.0616-.0462l.022.264q.0946-.077.1452-.1188.0968-.077.1672-.077.0704 0 .1144.0462.044.0462.044.1144z"/><path d="m213.47128 304.06635q0 .0924-.2464.2442-.2376.1452-.3454.1452-.0506 0-.0682-.0352-.0154-.0352-.0154-.099 0-.0418 0-.0594.1474 0 .2684-.044.121-.044.2112-.1452-.066-.0242-.1342-.0242-.1606 0-.341.1232-.198.1342-.198.286 0 .1452.198.2024.0308.009.3718.0616.2002.0308.2002.1078 0 .033-.0726.0528-.0726.022-.1848.022-.2816 0-.4444-.0858-.2156-.1144-.2156-.3674 0-.264.264-.4202.2244-.132.5104-.132.0858 0 .1562.0396.0858.0484.0858.1276z"/><path d="m214.34688 303.67255q0 .0484-.1166.2024-.1166.154-.1166.2354 0 .0418.0484.0836.11.0968.11.1188 0 .0286-.0198.055-.0176.0264-.0462.0264-.0242 0-.0682-.0264-.0308-.0176-.1188-.0858-.033.0638-.0506.0968-.0616.1166-.0836.1694-.033.1012-.066.2024-.0572.1364-.143.1364l-.002-.0506q0-.1562.1012-.3696.0198-.0396.11-.2046-.1738-.0946-.3828-.0946 0-.0814.033-.1188.0352-.0396.1166-.0396.0748 0 .187.0264.055.0132.11.0264.0418-.0132.1144-.143.1782-.3124.242-.3586.0176.0286.0286.0572.0132.0286.0132.055z"/><path d="m215.15868 304.45795q0 .1078-.0814.242-.0924.1518-.1914.1518-.0286 0-.0484-.0308-.0176-.033-.0176-.0638 0-.0396.0836-.1232.0858-.0858.0858-.1166 0-.0198-.007-.0396-.007-.0198-.009-.0264-.165.0374-.3366.1892-.1694.1518-.2574.1716-.0176-.0484-.0176-.099 0-.0616.0286-.1298.0198-.0484.066-.1166.077-.1166.1628-.264.044-.077.1518-.2662.11-.1892.1606-.2684.0264-.0396.0462-.0594.0286-.0264.0682-.0352.0264.009.0374.033.0132.0242.0132.0572 0 .0748-.0968.2024-.176.2288-.1804.2376-.099.1496-.099.2706l.004.022q.121-.0594.143-.0682.0902-.0374.154-.0374.0704 0 .1034.0484.033.0462.033.1188z"/><path d="m216.96489 303.74075q0 .1034-.11.2772-.0704.11-.231.3168-.1606.2046-.2002.2684.007.002.165.0528.1606.0484.1606.176-.066.011-.1298.0198l-.0242-.002v-.0176q-.0352-.009-.0572-.009-.0418 0-.132.0132-.0902.0132-.1364.0132-.0594 0-.0968-.022-.0374-.022-.0374-.0792 0-.0462.1694-.2618.3168-.4026.319-.407.1716-.2332.1716-.3124 0-.0308-.022-.0462-.0198-.0154-.0814-.0154-.0418 0-.1738.0814-.0638.0396-.1034.0396l-.0374-.007q-.0132-.009-.0286-.033-.0154-.0264-.0154-.0418 0-.0924.1782-.1694.1518-.066.264-.066.0946 0 .1452.0704.044.0616.044.1606z"/><path d="m218.28709 304.13675q0 .2662-.2882.4708-.264.187-.5434.187-.1386 0-.22-.0704-.0814-.0704-.0814-.2046 0-.2992.2618-.5192.2486-.209.5566-.209.1562 0 .2354.0924.0792.0924.0792.253zm-.1342.0506q0-.1012-.1144-.1518-.0858-.0374-.2046-.0374-.1738 0-.363.1694-.1892.1694-.1892.341 0 .0704.0352.1012.0374.0286.1122.0286.2156 0 .4488-.1188.275-.1408.275-.3322z"/><path d="m219.29469 303.74075q0 .1034-.11.2772-.0704.11-.231.3168-.1606.2046-.2002.2684.007.002.165.0528.1606.0484.1606.176-.066.011-.1298.0198l-.0242-.002v-.0176q-.0352-.009-.0572-.009-.0418 0-.132.0132-.0902.0132-.1364.0132-.0594 0-.0968-.022-.0374-.022-.0374-.0792 0-.0462.1694-.2618.3168-.4026.319-.407.1716-.2332.1716-.3124 0-.0308-.022-.0462-.0198-.0154-.0814-.0154-.0418 0-.1738.0814-.0638.0396-.1034.0396l-.0374-.007q-.0132-.009-.0286-.033-.0154-.0264-.0154-.0418 0-.0924.1782-.1694.1518-.066.264-.066.0946 0 .1452.0704.044.0616.044.1606z"/><path d="m220.30669 303.74075q0 .1034-.11.2772-.0704.11-.231.3168-.1606.2046-.2002.2684.007.002.165.0528.1606.0484.1606.176-.066.011-.1298.0198l-.0242-.002v-.0176q-.0352-.009-.0572-.009-.0418 0-.132.0132-.0902.0132-.1364.0132-.0594 0-.0968-.022-.0374-.022-.0374-.0792 0-.0462.1694-.2618.3168-.4026.319-.407.1716-.2332.1716-.3124 0-.0308-.022-.0462-.0198-.0154-.0814-.0154-.0418 0-.1738.0814-.0638.0396-.1034.0396l-.0374-.007q-.0132-.009-.0286-.033-.0154-.0264-.0154-.0418 0-.0924.1782-.1694.1518-.066.264-.066.0946 0 .1452.0704.044.0616.044.1606z"/></g><g fill="none" stroke="#f4f4f4" stroke-linecap="round" stroke-linejoin="round"><g transform="translate(-7.729091 -5.125832)"><path d="m242.07097 300.76439h80.89281c11.19461 2.89158 15.3899-4.17185 16.13806-16.13807v-23.24813l98.49977-56.86887c4.00826-2.6753 6.853-6.27048 6.39546-23.86817v-135.218459c.25475-8.44503-2.53743-12.519778-12.39282-12.392815h-189.53328m0 267.734514h-80.89281c-16.41407 0-15.3899-4.17185-16.13806-16.13807v-23.24813l-98.49977-56.86887c-4.472238-2.61244-6.640315-5.97365-6.39546-23.86817v-135.218459c-.542806-8.887746 2.53743-12.519778 12.39282-12.392815h189.53328" opacity=".98" stroke-width="1.1"/><path d="m242.07097 395.28361 71.34766-.19991c11.82001-1.60524 20.22614-7.94993 28.32437-14.72208l77.22913.28636c19.73725-.46055 50.97558-19.4395 53.82292-58.4034l2.6178-110.84717-12.80858-14.80858v-160.208447c-.62428-18.710413-15.39546-29.4491409-30.24145-30.241455h-190.29185m0 389.144682-71.34766-.19991c-11.82001-1.60524-20.22614-7.94993-28.32437-14.72208l-77.22913.28636c-19.494108-1.22577-50.899266-20.37153-53.82292-58.4034l-2.6178-110.84717 12.80858-14.80858v-160.208447c.045476-17.881375 14.834218-30.7225826 30.24145-30.241455h190.29185" opacity=".98" stroke-width="2.2"/><path d="m242.46543 96.599154h-90.35348c-1.76947 0-3.19399 1.424516-3.19399 3.193996v126.62878c0 1.76947 1.42452 3.19399 3.19399 3.19399h90.28185m-.0716-133.016768h90.35348c1.76947 0 3.19399 1.42452 3.19399 3.193992v126.628786c0 1.76947-1.42452 3.19399-3.19399 3.19399h-90.28188" opacity=".98" stroke-width="2.2"/><g stroke-width="1.1"><circle cx="405.1557" cy="313.05457" opacity=".98" r="52"/><circle cx="-79.062859" cy="313.05457" opacity=".98" r="52" transform="scale(-1 1)"/><path d="m242.21294 311.21075h-61.65382c-18.6911 0-33.73845 15.04735-33.73845 33.73845s15.04735 33.73845 33.73845 33.73845h61.55015m-.10367-67.4769h61.65382c18.6911 0 33.73845 15.04735 33.73845 33.73845s-15.04735 33.73845-33.73845 33.73845h-61.55015" opacity=".98"/><path d="m242.25674 358.54123h-62.73204c-.78519 0-1.4173.63211-1.4173 1.4173 0 .78518.63211 1.4173 1.4173 1.4173h62.94647m-.21443-2.8346h62.73204c.78519 0 1.4173.63211 1.4173 1.4173 0 .78518-.63211 1.4173-1.4173 1.4173h-62.94647" opacity=".98"/></g><path d="m242.25674 369.88129h-62.73204c-.78519 0-1.4173.65182-1.4173 1.46148s.63211 1.46148 1.4173 1.46148h62.94647m-.21443-2.92296h62.73204c.78519 0 1.4173.65182 1.4173 1.46148s-.63211 1.46148-1.4173 1.46148h-62.94647" opacity=".98" stroke-width=".825"/><path d="m242.25674 345.89174h-62.73204c-.78519 0-1.4173.61316-1.4173 1.3748 0 .76163.63211 1.37479 1.4173 1.37479h62.94647m-.21443-2.74959h62.73204c.78519 0 1.4173.61316 1.4173 1.3748 0 .76163-.63211 1.37479-1.4173 1.37479h-62.94647" opacity=".98" stroke-width="1.1"/><path d="m242.25674 332.97866h-62.73204c-.78519 0-1.4173.44543-1.4173.99871 0 .55329.63211.99871 1.4173.99871h62.94647m-.21443-1.99742h62.73204c.78519 0 1.4173.44543 1.4173.99871 0 .55329-.63211.99871-1.4173.99871h-62.94647" opacity=".98" stroke-width=".825"/><path d="m242.25674 322.07135h-62.73204c-.78519 0-1.4173.37823-1.4173.84803 0 .46981.63211.84804 1.4173.84804h62.94647m-.21443-1.69607h62.73204c.78519 0 1.4173.37823 1.4173.84803 0 .46981-.63211.84804-1.4173.84804h-62.94647" opacity=".98" stroke-width=".66"/></g><g stroke-width="2.2"><rect height="11.507239" opacity=".98" rx="5.75362" width="23.214394" x="262.137209" y="271.522728"/><rect height="11.507239" opacity=".98" rx="5.75362" width="23.214394" x="228.137209" y="271.522728"/><rect height="11.507239" opacity=".98" rx="5.75362" width="23.214394" x="194.137209" y="271.522728"/><rect height="11.507239" opacity=".98" rx="5.75362" width="23.214394" x="160.137209" y="271.522728"/></g><circle cx="304.184029" cy="278.011098" opacity=".98" r="3" stroke-width="1.1"/><rect height="18.71026" opacity=".98" rx="10.069575" stroke-width="2.2" width="64.734688" x="366.172369" y="318.935048"/><rect height="18.71026" opacity=".98" rx="10.069575" stroke-width="2.2" width="64.734688" x="366.172369" y="278.935048"/><g stroke-width="2.2" transform="translate(-7.729091 -5.125832)"><ellipse cx="106.78212" cy="312.68784" opacity=".98" rx="10.4335" ry="10.433499"/><ellipse cx="50.78212" cy="312.68784" opacity=".98" rx="10.4335" ry="10.433499"/><path d="m78.400391 274.05664c-5.578559 0-10.070313 4.49175-10.070313 10.07031v18.17383h-18.171875c-5.578559 0-10.070312 4.4898-10.070312 10.06836v.73633c0 5.57856 4.491753 10.07031 10.070312 10.07031h18.171875v18.17383c0 5.57856 4.491754 10.06836 10.070313 10.06836h.736328c5.578558 0 10.070312-4.4898 10.070312-10.06836v-18.17383h18.173829c5.57856 0 10.06836-4.49175 10.06836-10.07031v-.73633c0-5.57856-4.4898-10.06836-10.06836-10.06836h-18.173829v-18.17383c0-5.57856-4.491754-10.07031-10.070312-10.07031z" opacity=".98"/><g transform="rotate(90)"><ellipse cx="284.68784" cy="-78.78212" opacity=".98" rx="10.4335" ry="10.433499"/><ellipse cx="340.68784" cy="-78.78212" opacity=".98" rx="10.4335" ry="10.433499"/></g></g></g></svg>