<svg height="363.69339" viewBox="0 0 949.36816 327.32404" width="1054.8535" xmlns="http://www.w3.org/2000/svg"><g fill="#f4f4f4" fill-opacity=".5" stroke-width=".9"><path d="m845.24246 255.60268q0 .288-.0696.4848-.1032.2928-.3312.2928-.1512 0-.3168-.0696-.1992-.084-.2184-.2064.0672 0 .1584.024.2112.0552.264.0552.204 0 .3072-.204.0816-.1632.0816-.3912 0-.1608-.1056-.4584-.1032-.3-.1032-.4176 0-.036.0192-.0576.0216-.024.0576-.024.0936 0 .1824.432.0744.3648.0744.54z"/><path d="m846.16646 255.84748q0 .2448-.1416.384-.1416.1392-.3912.1392-.1368 0-.2112-.0648-.0744-.0648-.0744-.1992 0-.1896.2472-.3816.2352-.1824.4344-.1824.0912 0 .12.1128.0168.0648.0168.192zm-.1464.0672q0-.0288-.007-.0552-.005-.0288-.0192-.0648-.0384.0264-.1272.1296-.0456.0528-.0792.0768 0-.0456.01-.0744.0192-.0408.0312-.0696-.1056 0-.2208.0888-.1128.0888-.1128.192 0 .0696.0768.0696.1464 0 .2832-.072.1656-.0864.1656-.2208z"/><path d="m847.15526 255.94588q0 .1176-.0888.264-.1008.1656-.2088.1656-.0312 0-.0528-.0336-.0192-.036-.0192-.0696 0-.0432.0912-.1344.0936-.0936.0936-.1272 0-.0216-.007-.0432-.007-.0216-.01-.0288-.18.0408-.3672.2064-.1848.1656-.2808.1872-.0192-.0528-.0192-.108 0-.0672.0312-.1416.0216-.0528.072-.1272.084-.1272.1776-.288.048-.084.1656-.2904.12-.2064.1752-.2928.0288-.0432.0504-.0648.0312-.0288.0744-.0384.0288.01.0408.036.0144.0264.0144.0624 0 .0816-.1056.2208-.192.2496-.1968.2592-.108.1632-.108.2952l.005.024q.132-.0648.156-.0744.0984-.0408.168-.0408.0768 0 .1128.0528.036.0504.036.1296z"/><path d="m848.26887 255.80428q0 .1632-.0792.348-.0864.204-.2136.2808-.0264-.0312-.0456-.0696-.0168-.0384-.0168-.0768 0-.0408.12-.2424.0528-.0888.048-.156l-.002-.0312q-.0888.0264-.3072.1608-.216.132-.4368.2688-.0336 0-.0624-.024-.0264-.0264-.0264-.0576 0-.0504.1608-.3384.048-.0864.1728-.3.0384.0504.0504.1128.012.06.012.144 0 .036 0 .0552.2208-.132.3456-.1992.1368-.0744.1872-.0744.0336 0 .0624.0768.0312.0768.0312.1224z"/><path d="m850.35447 256.26988q0 .0432-.0384.0672-.036.0216-.0816.0216-.0408 0-.1032-.01-.1416-.0216-.1824-.0216-.072 0-.2832.0168-.12.01-.1728.01-.1464 0-.1464-.1464 0-.1392.0912-.3984.0504-.1464.1896-.48.1248-.3.1584-.4224.012-.0384.0192-.0504.0192-.0288.048-.0288.0456 0 .0768.0672.0312.0648.0312.1176 0 .084-.0984.2832-.0984.1968-.192.3864-.1032.2256-.1032.3432 0 .06.0504.084.036.0168.1056.0168.0528 0 .1824-.012.1296-.0144.1728-.0144.108 0 .1776.0312.0984.0432.0984.1392z"/><path d="m851.24727 255.84748q0 .2448-.1416.384-.1416.1392-.3912.1392-.1368 0-.2112-.0648-.0744-.0648-.0744-.1992 0-.1896.2472-.3816.2352-.1824.4344-.1824.0912 0 .12.1128.0168.0648.0168.192zm-.1464.0672q0-.0288-.007-.0552-.005-.0288-.0192-.0648-.0384.0264-.1272.1296-.0456.0528-.0792.0768 0-.0456.01-.0744.0192-.0408.0312-.0696-.1056 0-.2208.0888-.1128.0888-.1128.192 0 .0696.0768.0696.1464 0 .2832-.072.1656-.0864.1656-.2208z"/><path d="m852.25767 255.79708q0 .0768-.0408.1632-.0384.0864-.0984.144l-.002-.0336q0-.0288.007-.0888.007-.06.007-.0888 0-.0408-.012-.06-.012-.0216-.0504-.0216-.1128 0-.2808.1752-.1824.192-.3624.3816-.0144 0-.0288-.002-.036-.01-.048-.012.007-.0864.06-.192.1416-.2856.1464-.3048.0192-.0768.0288-.1128.01-.036.0264-.0744.0192-.0408.0432-.072.0264-.0336.0672-.0504l.024.288q.1032-.084.1584-.1296.1056-.084.1824-.084.0768 0 .1248.0504.048.0504.048.1248z"/><path d="m853.43607 255.51868q0 .1008-.2688.2664-.2592.1584-.3768.1584-.0552 0-.0744-.0384-.0168-.0384-.0168-.108 0-.0456 0-.0648.1608 0 .2928-.048.132-.048.2304-.1584-.072-.0264-.1464-.0264-.1752 0-.372.1344-.216.1464-.216.312 0 .1584.216.2208.0336.01.4056.0672.2184.0336.2184.1176 0 .036-.0792.0576-.0792.024-.2016.024-.3072 0-.4848-.0936-.2352-.1248-.2352-.4008 0-.288.288-.4584.2448-.144.5568-.144.0936 0 .1704.0432.0936.0528.0936.1392z"/><path d="m854.39127 255.08908q0 .0528-.1272.2208-.1272.168-.1272.2568 0 .0456.0528.0912.12.1056.12.1296 0 .0312-.0216.06-.0192.0288-.0504.0288-.0264 0-.0744-.0288-.0336-.0192-.1296-.0936-.036.0696-.0552.1056-.0672.1272-.0912.1848-.036.1104-.072.2208-.0624.1488-.156.1488l-.002-.0552q0-.1704.1104-.4032.0216-.0432.12-.2232-.1896-.1032-.4176-.1032 0-.0888.036-.1296.0384-.0432.1272-.0432.0816 0 .204.0288.06.0144.12.0288.0456-.0144.1248-.156.1944-.3408.264-.3912.0192.0312.0312.0624.0144.0312.0144.06z"/><path d="m855.27687 255.94588q0 .1176-.0888.264-.1008.1656-.2088.1656-.0312 0-.0528-.0336-.0192-.036-.0192-.0696 0-.0432.0912-.1344.0936-.0936.0936-.1272 0-.0216-.007-.0432-.007-.0216-.01-.0288-.18.0408-.3672.2064-.1848.1656-.2808.1872-.0192-.0528-.0192-.108 0-.0672.0312-.1416.0216-.0528.072-.1272.084-.1272.1776-.288.048-.084.1656-.2904.12-.2064.1752-.2928.0288-.0432.0504-.0648.0312-.0288.0744-.0384.0288.01.0408.036.0144.0264.0144.0624 0 .0816-.1056.2208-.192.2496-.1968.2592-.108.1632-.108.2952l.005.024q.132-.0648.156-.0744.0984-.0408.168-.0408.0768 0 .1128.0528.036.0504.036.1296z"/><path d="m857.24727 255.16348q0 .1128-.12.3024-.0768.12-.252.3456-.1752.2232-.2184.2928.007.002.18.0576.1752.0528.1752.192-.072.012-.1416.0216l-.0264-.002v-.0192q-.0384-.01-.0624-.01-.0456 0-.144.0144-.0984.0144-.1488.0144-.0648 0-.1056-.024-.0408-.024-.0408-.0864 0-.0504.1848-.2856.3456-.4392.348-.444.1872-.2544.1872-.3408 0-.0336-.024-.0504-.0216-.0168-.0888-.0168-.0456 0-.1896.0888-.0696.0432-.1128.0432l-.0408-.007q-.0144-.01-.0312-.036-.0168-.0288-.0168-.0456 0-.1008.1944-.1848.1656-.072.288-.072.1032 0 .1584.0768.048.0672.048.1752z"/><path d="m858.68967 255.59548q0 .2904-.3144.5136-.288.204-.5928.204-.1512 0-.24-.0768-.0888-.0768-.0888-.2232 0-.3264.2856-.5664.2712-.228.6072-.228.1704 0 .2568.1008.0864.1008.0864.276zm-.1464.0552q0-.1104-.1248-.1656-.0936-.0408-.2232-.0408-.1896 0-.396.1848-.2064.1848-.2064.372 0 .0768.0384.1104.0408.0312.1224.0312.2352 0 .4896-.1296.3-.1536.3-.3624z"/><path d="m859.78887 255.16348q0 .1128-.12.3024-.0768.12-.252.3456-.1752.2232-.2184.2928.007.002.18.0576.1752.0528.1752.192-.072.012-.1416.0216l-.0264-.002v-.0192q-.0384-.01-.0624-.01-.0456 0-.144.0144-.0984.0144-.1488.0144-.0648 0-.1056-.024-.0408-.024-.0408-.0864 0-.0504.1848-.2856.3456-.4392.348-.444.1872-.2544.1872-.3408 0-.0336-.024-.0504-.0216-.0168-.0888-.0168-.0456 0-.1896.0888-.0696.0432-.1128.0432l-.0408-.007q-.0144-.01-.0312-.036-.0168-.0288-.0168-.0456 0-.1008.1944-.1848.1656-.072.288-.072.1032 0 .1584.0768.048.0672.048.1752z"/><path d="m860.89287 255.16348q0 .1128-.12.3024-.0768.12-.252.3456-.1752.2232-.2184.2928.007.002.18.0576.1752.0528.1752.192-.072.012-.1416.0216l-.0264-.002v-.0192q-.0384-.01-.0624-.01-.0456 0-.144.0144-.0984.0144-.1488.0144-.0648 0-.1056-.024-.0408-.024-.0408-.0864 0-.0504.1848-.2856.3456-.4392.348-.444.1872-.2544.1872-.3408 0-.0336-.024-.0504-.0216-.0168-.0888-.0168-.0456 0-.1896.0888-.0696.0432-.1128.0432l-.0408-.007q-.0144-.01-.0312-.036-.0168-.0288-.0168-.0456 0-.1008.1944-.1848.1656-.072.288-.072.1032 0 .1584.0768.048.0672.048.1752z"/></g><g fill="none"><g stroke="#f4f4f4"><rect height="325.52405" rx="13.252667" ry="13.252669" stroke-linecap="round" stroke-width="1.8" width="768.26965" x=".9" y=".9"/><g stroke-width=".9" transform="translate(-.1 -.1)"><path d="m852.60266 240.33121c.49269.00002 1.08722.10737 1.78357.32207.70291.21472 1.16934.32208 1.39927.32206.29561.00002.77845-.12119 1.44853-.36362.67006-.2424 1.25145-.3636 1.74415-.36362.80802.00002 1.52736.22858 2.15803.68569.35472.2632.70618.61991 1.05437 1.07009-.52555.47099-.90986.89002-1.15291 1.25711-.44016.66492-.66023 1.39909-.66022 2.20253-.00001.87963.2332 1.67266.69965 2.37913.46639.70649.99851 1.15321 1.59632 1.34023-.24965.8519-.6635 1.74192-1.24159 2.67004-.87373 1.39216-1.74088 2.08824-2.60146 2.08824-.3416 0-.8146-.11428-1.41896-.34285-.59783-.22857-1.10366-.34284-1.51752-.34284-.41387 0-.89672.11774-1.44853.35323-.54526.24242-.98869.36364-1.33029.36364-1.03139 0-2.04307-.9212-3.03503-2.76356-.99197-1.82158-1.48795-3.60853-1.48795-5.36086 0-1.62765.37774-2.95402 1.13321-3.97909.76204-1.02506 1.72116-1.5376 2.87736-1.53762m6.20801-4.09337c.0263.0901.0427.1697.0492.23895.007.0693.01.13855.01.20779-.00001.4433-.0985.92813-.29563 1.4545-.19709.5264-.50913 1.0147-.93612 1.46488-.36789.38096-.73248.63722-1.09379.76881-.22994.0762-.57811.13507-1.04452.17661.0132-1.05276.27262-1.96355.77846-2.73237.51239-.76878 1.35656-1.29519 2.53248-1.57917"/><path d="m843.64215 233.35072h23.9v23.9h-23.9z" stroke-linecap="round"/></g></g><g transform="translate(-14.820101 -147.08445)"><path d="m89.212164 391.16784c.721513.00002 1.592151.15724 2.611916.47164 1.02937.31445 1.71242.47167 2.04914.47165.4329.00002 1.13999-.17748 2.12128-.5325.98126-.35499 1.83267-.53248 2.5542-.53251 1.18329.00003 2.23672.33475 3.16029 1.00416.51947.38544 1.03416.90781 1.54406 1.56707-.76964.68974-1.33243 1.30338-1.68837 1.84096-.64458.97373-.96686 2.04888-.96684 3.22546-.00002 1.28816.3415 2.44951 1.02458 3.48409.68301 1.0346 1.46226 1.6888 2.33772 1.96267-.3656 1.24756-.97166 2.55093-1.81824 3.9101-1.27952 2.03873-2.5494 3.05809-3.80966 3.05809-.50026 0-1.19293-.16735-2.07798-.50208-.87548-.33472-1.61624-.50206-2.22231-.50207-.60609.00001-1.31319.17243-2.12127.51729-.7985.35501-1.447877.53252-1.948134.53252-1.510396 0-2.991933-1.34903-4.444599-4.04705-1.452677-2.66758-2.179005-5.28445-2.179005-7.85063 0-2.38359.55317-4.32597 1.65951-5.82712 1.115955-1.50114 2.520525-2.25172 4.213712-2.25174m9.091226-5.99448c.0385.13189.0625.24852.0721.34993.01.10146.0145.20289.0145.30429-.00001.64918-.14432 1.35919-.43292 2.13002-.28863.77089-.74559 1.48596-1.3709 2.14523-.53875.55788-1.07267.93316-1.60178 1.12587-.33673.11159-.84661.1978-1.52963.25863.0194-1.5417.39923-2.87549 1.14-4.00137.75037-1.12584 1.9866-1.89673 3.70865-2.3126" stroke="#f4f4f4" stroke-width=".9"/><g stroke-linecap="round"><path d="m76.09005 380.9454h35v35h-35z" stroke="#f4f4f4" stroke-width=".9"/><rect height="60.673485" rx="5.550788" stroke="#f4f4ec" stroke-width="2" width="85.381287" x="851.1955" y="251.48811"/><rect height="144.13069" rx="4.579447" stroke="#f4f4f4" stroke-width=".9" width="113.47762" x="837.13147" y="270.61908"/><path d="m876.18823 235.1302c-.72311 0-1.30664.58352-1.30664 1.30664 0 .17925.0367.34869.10157.5039h-4.55274c-.72311 0-1.30469.58157-1.30469 1.30469 0 .3429.1329.65231.34766.88477h-30.98828c-7.38322 0-13.32813 5.94491-13.32813 13.32812v179.14063c0 7.38321 5.94491 13.32812 13.32813 13.32812h111.375c7.38321 0 13.32812-5.94491 13.32812-13.32812v-179.14063c0-7.38321-5.94491-13.32812-13.32812-13.32812h-31.0918c.21487-.23248.34961-.54178.34961-.88477 0-.72312-.58352-1.30469-1.30664-1.30469h-4.4375c.0648-.15521.10156-.32465.10156-.5039 0-.72312-.58352-1.30664-1.30664-1.30664z" stroke="#f4f4ec" stroke-width="2"/></g></g><g stroke="#f4f4f4" stroke-linecap="round" stroke-width="1.8"><g><rect height="33" rx="4.254736" width="33" x="394.825469" y="188.92431"/><rect height="33" rx="4.254736" width="33" x="350.825469" y="188.92431"/><rect height="33" rx="4.254736" width="33" x="308.825469" y="188.92431"/><rect height="33" rx="4.254736" width="33" x="264.825469" y="188.92431"/><rect height="33" rx="4.254736" width="33" x="220.825469" y="188.92431"/><rect height="33" rx="4.254736" width="33" x="176.825469" y="188.92431"/><rect height="33" rx="4.254736" width="77" x="90.825469" y="188.92431"/><rect height="33" rx="4.254736" width="90.045403" x="612.825469" y="188.92431"/><rect height="33" rx="4.254736" width="33" x="570.825469" y="188.92431"/><rect height="33" rx="4.254736" width="33" x="526.825469" y="188.92431"/><rect height="33" rx="4.254736" width="33" x="482.825469" y="188.92431"/><rect height="33" rx="4.254736" width="33" x="438.825469" y="188.92431"/></g><g><rect height="33" rx="4.254736" width="33" x="372.825469" y="144.92431"/><rect height="33" rx="4.254736" width="33" x="328.825469" y="144.92431"/><rect height="33" rx="4.254736" width="33" x="286.825469" y="144.92431"/><rect height="33" rx="4.254736" width="33" x="242.825469" y="144.92431"/><rect height="33" rx="4.254736" width="33" x="198.825469" y="144.92431"/><rect height="33" rx="4.254736" width="33" x="154.825469" y="144.92431"/><rect height="33" rx="4.254736" width="55" x="90.825469" y="144.92431"/><rect height="33" rx="4.254736" width="68.045403" x="634.825469" y="144.92431"/><rect height="33" rx="4.254736" width="33" x="590.825469" y="144.92431"/><rect height="33" rx="4.254736" width="33" x="548.825469" y="144.92431"/><rect height="33" rx="4.254736" width="33" x="504.825469" y="144.92431"/><rect height="33" rx="4.254736" width="33" x="460.825469" y="144.92431"/><rect height="33" rx="4.254736" width="33" x="416.825469" y="144.92431"/></g><g><rect height="33" rx="4.254736" width="33" x="363.870875" y="100.92431"/><rect height="33" rx="4.254736" width="33" x="319.870875" y="100.92431"/><rect height="33" rx="4.254736" width="33" x="277.870875" y="100.92431"/><rect height="33" rx="4.254736" width="33" x="233.870875" y="100.92431"/><rect height="33" rx="4.254736" width="33" x="189.870875" y="100.92431"/><rect height="33" rx="4.254736" width="33" x="145.870875" y="100.92431"/><rect height="33" rx="4.254736" width="46.045406" x="90.825465" y="100.92431"/><rect height="33" rx="4.254736" width="33" x="625.870875" y="100.92431"/><rect height="33" rx="4.254736" width="33" x="581.870875" y="100.92431"/><rect height="33" rx="4.254736" width="33" x="539.870875" y="100.92431"/><rect height="33" rx="4.254736" width="33" x="495.870875" y="100.92431"/><rect height="33" rx="4.254736" width="33" x="451.870875" y="100.92431"/><rect height="33" rx="4.254736" width="33" x="407.870875" y="100.92431"/><rect height="33" rx="4.254736" width="33" x="669.870875" y="100.92431"/></g><g><rect height="33" rx="4.254736" width="33" x="352.82547" y="56.92431"/><rect height="33" rx="4.254736" width="33" x="308.82547" y="56.92431"/><rect height="33" rx="4.254736" width="33" x="266.82547" y="56.92431"/><rect height="33" rx="4.254736" width="33" x="222.82547" y="56.92431"/><rect height="33" rx="4.254736" width="33" x="178.82547" y="56.92431"/><rect height="33" rx="4.254736" width="33" x="134.82547" y="56.92431"/><rect height="33" rx="4.254736" width="33" x="614.82547" y="56.92431"/><rect height="33" rx="4.254736" width="33" x="570.82547" y="56.92431"/><rect height="33" rx="4.254736" width="33" x="528.82547" y="56.92431"/><rect height="33" rx="4.254736" width="33" x="484.82547" y="56.92431"/><rect height="33" rx="4.254736" width="33" x="440.82547" y="56.92431"/><rect height="33" rx="4.254736" width="33" x="396.82547" y="56.92431"/><rect height="33" rx="4.254736" width="33" x="90.82547" y="56.92431"/><rect height="33" rx="4.254736" width="44.045399" x="658.82547" y="56.92431"/></g><g><rect height="33" rx="4.254736" width="319.69476" x="228.825469" y="230.92431"/><rect height="33" rx="4.254736" width="33" x="628.825469" y="230.92431"/><rect height="33" rx="4.254736" width="57.000004" x="560.825469" y="230.92431"/><rect height="33" rx="4.254736" width="33" x="116.825469" y="230.92431"/><rect height="33" rx="4.254736" width="57" x="160.825449" y="230.92431"/></g></g></g></svg>