<svg height="350.70172" viewBox="0 0 638.88937 981.96482" width="228.17477" xmlns="http://www.w3.org/2000/svg"><g fill="#f4f4f4" fill-opacity=".5" stroke-width="2.8"><path d="m441.58742 46.281811q0 .896002-.21653 1.50827-.32107.910935-1.0304.910935-.4704 0-.9856-.216534-.61974-.261334-.67947-.642135.20907 0 .4928.07467.65707.171734.82133.171734.63467 0 .95574-.634668.25387-.507734.25387-1.217069 0-.500267-.32854-1.426136-.32106-.933335-.32106-1.299202 0-.112.0597-.1792.0672-.07467.1792-.07467.2912 0 .56747 1.344002.23146 1.134936.23146 1.680003z"/><path d="m444.4621 47.043413q0 .761601-.44053 1.194668-.44054.433068-1.21707.433068-.4256 0-.65707-.2016-.23147-.201601-.23147-.619735 0-.589868.76907-1.187202.73174-.567468 1.35147-.567468.28373 0 .37333.350934.0523.201601.0523.597335zm-.45547.209067q0-.0896-.0224-.171734-.0149-.0896-.0597-.2016-.11947.08213-.39573.4032-.14187.164267-.24641.238934 0-.141867.0299-.231467.0597-.126933.0971-.216534-.32854 0-.68694.276268-.35093.276267-.35093.597334 0 .216534.23893.216534.45547 0 .88107-.224001.5152-.2688.5152-.686934z"/><path d="m447.53837 47.349547q0 .365867-.27626.821334-.31361.515201-.64961.515201-.0971 0-.16426-.104533-.0597-.112-.0597-.216534 0-.1344.28374-.418134.2912-.291201.2912-.395734 0-.0672-.0224-.1344-.0224-.0672-.0299-.0896-.56.126934-1.1424.642135-.57494.515201-.8736.582401-.0597-.164267-.0597-.336001 0-.209067.0971-.440534.0672-.164267.224-.395734.26134-.395734.55254-.896001.14933-.261334.5152-.903469.37333-.642134.54506-.910935.0896-.1344.1568-.2016.0971-.0896.23147-.119467.0896.02987.12694.112.0448.08213.0448.194134 0 .253867-.32854.686935-.59733.776534-.61227.806401-.336.507734-.336.918402l.0149.07467q.41066-.2016.48533-.231467.30613-.126933.52267-.126933.23893 0 .35093.164267.112.1568.112.403201z"/><path d="m451.00292 46.909012q0 .507735-.2464 1.082669-.2688.634668-.66454.873602-.0821-.09707-.14186-.216534-.0523-.119467-.0523-.238934 0-.126933.37333-.754135.16427-.276267.14934-.485334l-.007-.09707q-.27627.08213-.95573.500268-.672.410667-1.35894.836268-.10453 0-.19413-.07467-.0821-.08213-.0821-.1792 0-.1568.50027-1.052802.14933-.2688.5376-.933335.11947.1568.1568.350934.0373.186667.0373.448001 0 .112 0 .171733.68693-.410667 1.0752-.619734.4256-.231467.5824-.231467.10453 0 .19413.238934.0971.238933.0971.3808z"/><path d="m457.49146 48.357548q0 .134401-.11947.209067-.112.0672-.25387.0672-.12693 0-.32106-.02987-.44054-.0672-.56747-.0672-.224 0-.88107.05227-.37333.02987-.5376.02987-.45547 0-.45547-.455467 0-.433068.28374-1.239469.1568-.455468.58986-1.493336.38827-.933335.49281-1.314136.0373-.119467.0597-.1568.0597-.0896.14933-.0896.14187 0 .23894.209067.0971.2016.0971.365867 0 .261334-.30613.881068-.30613.612268-.59733 1.202136-.32107.701868-.32107 1.067735 0 .186667.1568.261334.112.05227.32853.05227.16427 0 .56747-.03733.4032-.0448.5376-.0448.336 0 .55254.09707.30613.1344.30613.433067z"/><path d="m460.26907 47.043413q0 .761601-.44054 1.194668-.44053.433068-1.21707.433068-.4256 0-.65706-.2016-.23147-.201601-.23147-.619735 0-.589868.76907-1.187202.73173-.567468 1.35147-.567468.28373 0 .37333.350934.0523.201601.0523.597335zm-.45547.209067q0-.0896-.0224-.171734-.0149-.0896-.0597-.2016-.11946.08213-.39573.4032-.14187.164267-.2464.238934 0-.141867.0299-.231467.0597-.126933.0971-.216534-.32853 0-.68693.276268-.35093.276267-.35093.597334 0 .216534.23893.216534.45547 0 .88107-.224001.5152-.2688.5152-.686934z"/><path d="m463.41254 46.886612q0 .238934-.12694.507735-.11946.2688-.30613.448l-.007-.104533q0-.0896.0224-.276267.0224-.186667.0224-.276267 0-.126934-.0373-.186667-.0373-.0672-.1568-.0672-.35093 0-.8736.545068-.56747.597334-1.12747 1.187202-.0448 0-.0896-.0075-.112-.02987-.14933-.03733.0224-.2688.18666-.597334.44054-.888535.45547-.948269.0597-.238933.0896-.350934.0299-.112.0821-.231467.0597-.126933.13441-.224.0821-.104534.20906-.1568l.0747.896001q.32107-.261334.4928-.4032.32853-.261334.56747-.261334.23893 0 .38826.1568.14934.1568.14934.388267z"/><path d="m467.07868 46.020477q0 .313601-.83626.828802-.80641.492801-1.17227.492801-.17174 0-.23147-.119467-.0523-.119467-.0523-.336001 0-.141867 0-.2016.50027 0 .91094-.149334.41067-.149333.7168-.4928-.224-.08213-.45547-.08213-.54507 0-1.15733.418134-.672.455468-.672.970669 0 .4928.672.686934.10453.02987 1.26187.209067.67946.104534.67946.365867 0 .112001-.2464.179201-.2464.07467-.6272.07467-.95573 0-1.50827-.291201-.73173-.388267-.73173-1.246936 0-.896001.896-1.426135.7616-.448001 1.73227-.448001.2912 0 .53013.1344.2912.164267.2912.433067z"/><path d="m470.05043 44.683942q0 .164267-.39574.686934-.39573.522668-.39573.798935 0 .141867.16426.283734.37334.328534.37334.403201 0 .09707-.0672.186667-.0597.0896-.1568.0896-.0821 0-.23147-.0896-.10453-.05973-.4032-.291201-.112.216534-.17173.328534-.20907.395734-.28374.574934-.112.343468-.224.686935-.19413.462934-.48533.462934l-.007-.171734q0-.530134.34347-1.254402.0672-.1344.37333-.694401-.58986-.321067-1.2992-.321067 0-.276267.112-.403201.11947-.1344.39574-.1344.25386 0 .63466.0896.18667.0448.37334.0896.14186-.0448.38826-.485334.60481-1.060269.82134-1.217069.0597.09707.0971.194134.0448.09707.0448.186667z"/><path d="m472.80564 47.349547q0 .365867-.27627.821334-.3136.515201-.6496.515201-.0971 0-.16427-.104533-.0597-.112-.0597-.216534 0-.1344.28373-.418134.2912-.291201.2912-.395734 0-.0672-.0224-.1344-.0224-.0672-.0299-.0896-.56001.126934-1.14241.642135-.57493.515201-.8736.582401-.0597-.164267-.0597-.336001 0-.209067.0971-.440534.0672-.164267.224-.395734.26133-.395734.55253-.896001.14933-.261334.5152-.903469.37334-.642134.54507-.910935.0896-.1344.1568-.2016.0971-.0896.23147-.119467.0896.02987.12693.112.0448.08213.0448.194134 0 .253867-.32853.686935-.59734.776534-.61227.806401-.336.507734-.336.918402l.0149.07467q.41067-.2016.48534-.231467.30613-.126933.52266-.126933.23894 0 .35094.164267.112.1568.112.403201z"/><path d="m478.93579 44.915409q0 .350934-.37333.940802-.23894.373334-.78401 1.075201-.54506.694402-.67946.910935.0224.0075.56.179201.54507.164267.54507.597334-.224.03733-.44054.0672l-.0821-.0075v-.05973q-.11947-.02987-.19414-.02987-.14186 0-.448.0448-.30613.0448-.46293.0448-.2016 0-.32853-.07467-.12694-.07467-.12694-.268801 0-.1568.57494-.888535 1.0752-1.366402 1.08266-1.381335.58241-.791469.58241-1.060269 0-.104534-.0747-.1568-.0672-.05227-.27627-.05227-.14186 0-.58987.276267-.21653.1344-.35093.1344l-.12693-.0224q-.0448-.02987-.0971-.112-.0523-.0896-.0523-.141867 0-.3136.6048-.574934.51521-.224001.89601-.224001.32106 0 .4928.238934.14933.209067.14933.545068z"/><path d="m483.42326 46.259411q0 .903469-.97814 1.59787-.896.634668-1.84427.634668-.4704 0-.74667-.238934-.27626-.238934-.27626-.694401 0-1.015469.88853-1.762137.84374-.709335 1.88907-.709335.53014 0 .79894.313601.2688.313601.2688.858668zm-.45547.171734q0-.343467-.38827-.515201-.2912-.126934-.6944-.126934-.58987 0-1.232.574935-.64213.574934-.64213 1.157335 0 .238934.11946.343467.12694.09707.3808.09707.73174 0 1.52321-.4032.93333-.477868.93333-1.127469z"/><path d="m486.84301 44.915409q0 .350934-.37334.940802-.23893.373334-.784 1.075201-.54507.694402-.67947.910935.0224.0075.56.179201.54507.164267.54507.597334-.224.03733-.44053.0672l-.0821-.0075v-.05973q-.11946-.02987-.19413-.02987-.14187 0-.448.0448-.30614.0448-.46294.0448-.2016 0-.32853-.07467-.12693-.07467-.12693-.268801 0-.1568.57493-.888535 1.0752-1.366402 1.08267-1.381335.5824-.791469.5824-1.060269 0-.104534-.0747-.1568-.0672-.05227-.27626-.05227-.14187 0-.58987.276267-.21653.1344-.35093.1344l-.12694-.0224q-.0448-.02987-.0971-.112-.0523-.0896-.0523-.141867 0-.3136.6048-.574934.5152-.224001.896-.224001.32107 0 .4928.238934.14934.209067.14934.545068z"/><path d="m490.27767 44.915409q0 .350934-.37333.940802-.23894.373334-.784 1.075201-.54507.694402-.67947.910935.0224.0075.56.179201.54507.164267.54507.597334-.224.03733-.44054.0672l-.0821-.0075v-.05973q-.11947-.02987-.19413-.02987-.14187 0-.44801.0448-.30613.0448-.46293.0448-.2016 0-.32853-.07467-.12694-.07467-.12694-.268801 0-.1568.57494-.888535 1.0752-1.366402 1.08267-1.381335.5824-.791469.5824-1.060269 0-.104534-.0747-.1568-.0672-.05227-.27627-.05227-.14186 0-.58986.276267-.21654.1344-.35094.1344l-.12693-.0224q-.0448-.02987-.0971-.112-.0523-.0896-.0523-.141867 0-.3136.6048-.574934.51521-.224001.89601-.224001.32106 0 .4928.238934.14933.209067.14933.545068z"/></g><g fill="none" stroke="#f4f4f4" transform="translate(-9.07863 1.100185)"><g><g stroke-width="5.6"><path d="m121.5372 10.474293v24.54882c-2.35318 1.51479-3.76622 4.04669-3.77149 6.75782-.00078 4.51082 3.82602 8.16796 8.54688 8.16797 4.72086-.00001 8.54765-3.65715 8.54687-8.16797-.009-2.936-1.66669-5.64142-4.34179-7.08594v-24.2207m502.333 130.994147h-18.54882c-1.51479-2.35318-4.04669-3.76622-6.75782-3.77149-4.51082-.00078-8.16796 3.82602-8.16797 8.54688.00001 4.72086 3.65715 8.54765 8.16797 8.54687 2.936-.009 5.64142-1.66669 7.08594-4.34179h18.2207m-608.474609.5703h18.54882c1.51479 2.35318 4.04669 3.76622 6.75782 3.77149 4.51082.00078 8.16796-3.82602 8.16797-8.54688-.00001-4.72086-3.65715-8.54765-8.16797-8.54687-2.936.009-5.64142 1.66669-7.08594 4.34179h-18.2207m4.564473 229.88826h18.54882c1.51479 2.35318 4.04669 3.76622 6.75782 3.77149 4.51082.00078 8.16796-3.82602 8.16797-8.54688-.00001-4.72086-3.65715-8.54765-8.16797-8.54687-2.936.009-5.64142 1.66669-7.08594 4.34179h-18.2207m599.367326-.15797h-18.54882c-1.51479-2.35318-4.04669-3.76622-6.75782-3.77149-4.51082-.00078-8.16796 3.82602-8.16797 8.54688.00001 4.72086 3.65715 8.54765 8.16797 8.54687 2.936-.009 5.64142-1.66669 7.08594-4.34179h18.2207m-374.62767 574.62102a8.546895 8.1666269 0 0 0 -8.54687 8.16797 8.546895 8.1666269 0 0 0 4.34179 7.08594v18.2207h8.98047v-18.54882a8.546895 8.1666269 0 0 0 3.77149-6.75782 8.546895 8.1666269 0 0 0 -8.54688-8.16797zm74.84313 32.90545c61.25197.10126 123.30817 2.8368 182.02401-5.36918 69.05377-9.2087 122.9313-37.36949 129.29168-110.58588 6.88088-104.75117 8.26779-212.80983 6.3278-322.87136-1.55438-18.9183-9.34808-37.81783-11.16293-62.40893-10.52544-77.34541-10.19457-152.02576-.84957-224.49329 5.54317-54.67437-.88137-117.8128-10.63143-178.687868-7.2601-46.286495-45.21396-55.486929-60.49775-59.464042-69.11987-11.0180564-155.08795-15.73865436-234.26132-15.5070212-77.34848 1.2046042-165.62243 4.4889648-234.7423 15.5070212-15.28379 3.977113-53.23765 13.177547-60.49775 59.464042-9.75006 60.875068-16.1746 124.013498-10.63143 178.687868 9.345 72.46753 9.67587 147.14788-.84957 224.49329-1.81485 24.5911-9.60855 43.49063-11.16293 62.40893-1.93999 110.06153-.55308 218.12019 6.3278 322.87136 6.36038 73.21639 60.23791 101.37718 129.29168 110.58588 58.71584 8.20598 120.77204 5.47044 182.02401 5.36918"/><path d="m172.20262 137.2751h312.76413c.57497 0 1.03784.46288 1.03784 1.03784v282.50449c0 .57496-.46287 1.03784-1.03784 1.03784h-312.76413c-.57496 0-1.03784-.46288-1.03784-1.03784v-282.50449c0-.57496.46288-1.03784 1.03784-1.03784z"/><path d="m127.59628 87.543403c134.41779-7.09508 269.26145-5.119674 403.49787 4.59083 23.19948 2.999645 32.83037 25.608997 34.02216 46.533957 3.71463 54.10281 3.7012 110.19829 3.05923 165.41779-.67812 42.16137-4.3823 85.58319-20.18533 125.16241-12.69183 29.16769-45.93438 40.04457-75.44153 41.42676-107.74659 12.28402-217.24392 10.84664-324.43858-5.6279-31.58748-6.84251-54.64178-36.62563-55.537479-68.63672-14.724264-93.17177-14.307075-269.54181.175563-281.71918 3.481163-16.120322 19.505016-25.312934 34.848096-27.147947z"/></g><path d="m355.45899 722.41571c-9.86602 2.52757-14.08855 5.07117-16.14869 21.09123.6949 11.15705 5.36769 19.21203 16.74156 22.04134 96.26773-2.88439 166.84329-12.89526 228.55698-25.36422 17.51873-2.47823 20.17283-41.97952-12.02645-38.74245-72.59418 11.12409-139.88136 20.38031-217.1234 20.9741z" stroke-width="2.8"/><g stroke-width="5.6" transform="matrix(.5 -.8660254 .8660254 .5 0 0)"><path d="m-581.25359 811.81451h83.4751c10.37151 0 18.72114 8.34963 18.72114 18.72115 0 10.37151-8.34963 18.72114-18.72114 18.72114h-83.4751c-10.37151 0-18.72114-8.34963-18.72114-18.72114 0-10.37152 8.34963-18.72115 18.72114-18.72115z"/><path d="m-543.04936 864.94373h83.47509c10.37151 0 18.72114 8.34963 18.72114 18.72114s-8.34963 18.72114-18.72114 18.72114h-83.47509c-10.37152 0-18.72115-8.34963-18.72115-18.72114s8.34963-18.72114 18.72115-18.72114z"/><path d="m-615.94109 758.95459h83.4751c10.37151 0 18.72114 8.34963 18.72114 18.72114 0 10.37152-8.34963 18.72115-18.72114 18.72115h-83.4751c-10.37151 0-18.72114-8.34963-18.72114-18.72115 0-10.37151 8.34963-18.72114 18.72114-18.72114z"/><path d="m-507.29243 921.71051h15.23639c8.1411 0 14.69512 6.55402 14.69512 14.69512s-6.55402 14.69512-14.69512 14.69512h-15.23639c-8.14109 0-14.69512-6.55402-14.69512-14.69512s6.55403-14.69512 14.69512-14.69512z"/><path d="m-578.3932 709.06158h15.23639c8.1411 0 14.69512 6.55403 14.69512 14.69513 0 8.14109-6.55402 14.69512-14.69512 14.69512h-15.23639c-8.14109 0-14.69512-6.55403-14.69512-14.69512 0-8.1411 6.55403-14.69513 14.69512-14.69513z"/></g><path d="m160.1983 39.378571h339.67575c3.03727 0 5.48243 2.44516 5.48243 5.482421s-2.44516 5.482421-5.48243 5.482421h-339.67575c-3.03726 0-5.48242-2.44516-5.48242-5.482421s2.44516-5.482421 5.48242-5.482421z" stroke-width="2.8"/><path d="m539.53546 46.43272a6.4941978 6.4941974 0 0 1 -6.4942 6.494198 6.4941978 6.4941974 0 0 1 -6.4942-6.494198 6.4941978 6.4941974 0 0 1 6.4942-6.494197 6.4941978 6.4941974 0 0 1 6.4942 6.494197z" stroke-width="5.6"/></g><g stroke-width="5.6"><path d="m28.5301 307.93577c-7.24568 2.19064-12.98044 30.94736-12.98044 66.10021 0 32.11344 4.78595 58.88899 11.13762 64.94922"/><path d="m628.83906 307.93577c7.24568 2.19064 12.98044 30.94736 12.98044 66.10021 0 32.11344-4.78595 58.88899-11.13762 64.94922"/><path d="m447.64305 602.11121a43.438648 43.438648 0 0 1 -43.43864 43.43864 43.438648 43.438648 0 0 1 -43.43865-43.43864 43.438648 43.438648 0 0 1 43.43865-43.43865 43.438648 43.438648 0 0 1 43.43864 43.43865z"/><path d="m577.48449 586.55914a43.438648 43.438648 0 0 1 -43.43865 43.43865 43.438648 43.438648 0 0 1 -43.43865-43.43865 43.438648 43.438648 0 0 1 43.43865-43.43865 43.438648 43.438648 0 0 1 43.43865 43.43865z"/><path d="m379.74776 786.09235h91.79153c4.32857 0 7.81331 3.48473 7.81331 7.81331 0 4.32857-3.48474 7.81331-7.81331 7.81331h-91.79153c-4.32858 0-7.81331-3.48474-7.81331-7.81331 0-4.32858 3.48473-7.81331 7.81331-7.81331z" transform="matrix(.99026807 -.1391731 .1391731 .99026807 0 0)"/><path d="m318.8293 753.22607h91.79153c4.32858 0 7.81331 3.48474 7.81331 7.81331 0 4.32858-3.48473 7.81332-7.81331 7.81332h-91.79153c-4.32857 0-7.81331-3.48474-7.81331-7.81332 0-4.32857 3.48474-7.81331 7.81331-7.81331z" transform="matrix(.99862953 -.05233596 .05233596 .99862953 0 0)"/><path d="m168.01807 542.45978c9.41804 0 17.00008 7.58203 17.00008 17.00008v31.16319c0 9.41805-7.58204 17.00008-17.00008 17.00008-9.41805 0-17.00008-7.58203-17.00008-17.00008v-31.16319c0-9.41805 7.58203-17.00008 17.00008-17.00008z"/><path d="m168.01807 674.45978c9.41804 0 17.00008 7.58203 17.00008 17.00008v31.16319c0 9.41805-7.58204 17.00008-17.00008 17.00008-9.41805 0-17.00008-7.58203-17.00008-17.00008v-31.16319c0-9.41805 7.58203-17.00008 17.00008-17.00008z"/><path d="m91.03313 625.1271c6.416573-30.03984 29.90349-53.75518 59.81881-60.50409m34.12005-.17887c30.33239 6.506 54.20471 30.41921 60.65102 60.77371m-.17765 33.81037c-6.685 29.91144-30.32533 53.42377-60.30661 59.92259m-34.1203-.10553c-29.82917-6.66139-53.296652-30.18439-59.877354-60.04391"/><g transform="rotate(90)"><path d="m641.86977-265.52771c9.41804 0 17.00008 7.58203 17.00008 17.00008v31.16319c0 9.41805-7.58204 17.00008-17.00008 17.00008-9.41805 0-17.00008-7.58203-17.00008-17.00008v-31.16319c0-9.41805 7.58203-17.00008 17.00008-17.00008z"/><path d="m641.86977-133.52771c9.41804 0 17.00008 7.58203 17.00008 17.00008v31.163195c0 9.418043-7.58204 17.000078-17.00008 17.000078-9.41805 0-17.00008-7.582035-17.00008-17.000078v-31.163195c0-9.41805 7.58203-17.00008 17.00008-17.00008z"/></g></g></g></svg>