<svg height="361.39114" viewBox="0 0 1159.0295 795.06052" width="526.8316" xmlns="http://www.w3.org/2000/svg"><g fill="#f4f4f4" fill-opacity=".5" stroke-width="2.2" transform="translate(-34.98364 -142.71907)"><path d="m832.74463 801.33396q0 .704-.17014 1.18507-.25227.71573-.8096.71573-.3696 0-.7744-.17013-.48693-.20533-.53387-.50453.16427 0 .3872.0587.51627.13494.64534.13494.49866 0 .75093-.49867.19947-.39893.19947-.95627 0-.39306-.25814-1.12053-.25226-.73334-.25226-1.0208 0-.088.0469-.1408.0528-.0587.1408-.0587.2288 0 .44587 1.056.18187.89174.18187 1.32z"/><path d="m835.0033 801.93236q0 .5984-.34614.93867-.34613.34027-.95626.34027-.3344 0-.51627-.1584-.18187-.1584-.18187-.48694 0-.46346.60427-.9328.57493-.44586 1.06187-.44586.22293 0 .29333.27573.0411.1584.0411.46933zm-.35787.16427q0-.0704-.0176-.13493-.0117-.0704-.0469-.1584-.0939.0645-.31094.3168-.11146.12906-.1936.18773 0-.11147.0235-.18187.0469-.0997.0763-.17013-.25814 0-.53974.21707-.27573.21706-.27573.46933 0 .17013.18773.17013.35787 0 .69227-.176.4048-.2112.4048-.53973z"/><path d="m837.42036 802.1729q0 .28746-.21706.64533-.2464.4048-.5104.4048-.0763 0-.12907-.0821-.0469-.088-.0469-.17014 0-.1056.22293-.32853.2288-.2288.2288-.31093 0-.0528-.0176-.1056-.0176-.0528-.0235-.0704-.44.0997-.8976.50453-.45173.4048-.6864.4576-.0469-.12907-.0469-.264 0-.16427.0763-.34613.0528-.12907.176-.31094.20533-.31093.43413-.704.11733-.20533.4048-.70987.29333-.50453.42827-.71573.0704-.1056.1232-.1584.0763-.0704.18186-.0939.0704.0235.0997.088.0352.0645.0352.15254 0 .19946-.25814.53973-.46933.61014-.48106.6336-.264.39894-.264.7216l.0117.0587q.32267-.1584.38133-.18187.24054-.0997.41067-.0997.18773 0 .27573.12907.088.1232.088.3168z"/><path d="m840.14251 801.82676q0 .39894-.19361.85067-.2112.49867-.52213.6864-.0645-.0763-.11147-.17013-.0411-.0939-.0411-.18774 0-.0997.29333-.59253.12907-.21707.11733-.38133l-.006-.0763q-.21707.0645-.75094.39307-.528.32266-1.06773.65706-.0821 0-.15253-.0587-.0645-.0645-.0645-.1408 0-.1232.39307-.8272.11733-.2112.4224-.73334.0939.1232.1232.27574.0293.14666.0293.352 0 .088 0 .13493.53974-.32267.8448-.48693.3344-.18187.4576-.18187.0821 0 .15254.18773.0763.18774.0763.2992z"/><path d="m845.24064 802.9649q0 .1056-.0939.16426-.088.0528-.19947.0528-.0997 0-.25226-.0235-.34614-.0528-.44587-.0528-.176 0-.69227.0411-.29333.0235-.4224.0235-.35786 0-.35786-.35787 0-.34026.22293-.97386.1232-.35787.46347-1.17334.30506-.73333.3872-1.03253.0293-.0939.0469-.1232.0469-.0704.11733-.0704.11147 0 .18774.16426.0763.1584.0763.28747 0 .20533-.24053.69227-.24053.48107-.46933.94453-.25227.55147-.25227.83894 0 .14666.1232.20533.088.0411.25813.0411.12907 0 .44587-.0293.3168-.0352.4224-.0352.264 0 .43413.0763.24054.1056.24054.34027z"/><path d="m847.42304 801.93236q0 .5984-.34613.93867-.34614.34027-.95627.34027-.3344 0-.51627-.1584-.18186-.1584-.18186-.48694 0-.46346.60426-.9328.57494-.44586 1.06187-.44586.22293 0 .29333.27573.0411.1584.0411.46933zm-.35787.16427q0-.0704-.0176-.13493-.0117-.0704-.0469-.1584-.0939.0645-.31093.3168-.11147.12906-.1936.18773 0-.11147.0235-.18187.0469-.0997.0763-.17013-.25813 0-.53973.21707-.27574.21706-.27574.46933 0 .17013.18774.17013.35786 0 .69226-.176.4048-.2112.4048-.53973z"/><path d="m849.89291 801.80916q0 .18774-.0997.39894-.0939.2112-.24054.352l-.006-.0821q0-.0704.0176-.21706.0176-.14667.0176-.21707 0-.0997-.0293-.14667-.0293-.0528-.1232-.0528-.27573 0-.6864.42827-.44587.46933-.88587.9328-.0352 0-.0704-.006-.088-.0235-.11733-.0293.0176-.2112.14667-.46933.34613-.69814.35786-.74507.0469-.18773.0704-.27573.0235-.088.0645-.18187.0469-.0997.1056-.176.0645-.0821.16426-.1232l.0587.704q.25227-.20533.3872-.3168.25814-.20533.44587-.20533.18773 0 .30507.1232.11733.1232.11733.30506z"/><path d="m852.77345 801.12863q0 .2464-.65707.6512-.6336.3872-.92106.3872-.13494 0-.18187-.0939-.0411-.0939-.0411-.264 0-.11146 0-.1584.39307 0 .71574-.11733.32266-.11733.5632-.3872-.176-.0645-.35787-.0645-.42827 0-.90933.32853-.528.35787-.528.76267 0 .3872.528.53973.0821.0235.99146.16427.53387.0821.53387.28746 0 .088-.1936.1408-.1936.0587-.4928.0587-.75093 0-1.18507-.2288-.57493-.30507-.57493-.97973 0-.704.704-1.12054.5984-.352 1.36107-.352.2288 0 .41653.1056.2288.12907.2288.34027z"/><path d="m855.10839 800.07849q0 .12907-.31094.53974-.31093.41067-.31093.62773 0 .11147.12907.22294.29333.25813.29333.3168 0 .0763-.0528.14666-.0469.0704-.1232.0704-.0645 0-.18187-.0704-.0821-.0469-.3168-.2288-.088.17014-.13493.25814-.16427.31093-.22294.45173-.088.26987-.176.53973-.15253.36374-.38133.36374l-.006-.13494q0-.41653.26987-.9856.0528-.1056.29333-.5456-.46346-.25226-1.0208-.25226 0-.21707.088-.3168.0939-.1056.31094-.1056.19946 0 .49866.0704.14667.0352.29334.0704.11147-.0352.30507-.38134.4752-.83307.64533-.95627.0469.0763.0763.15254.0352.0763.0352.14666z"/><path d="m857.27319 802.1729q0 .28746-.21707.64533-.2464.4048-.5104.4048-.0763 0-.12906-.0821-.0469-.088-.0469-.17014 0-.1056.22294-.32853.2288-.2288.2288-.31093 0-.0528-.0176-.1056-.0176-.0528-.0235-.0704-.44.0997-.8976.50453-.45173.4048-.6864.4576-.0469-.12907-.0469-.264 0-.16427.0763-.34613.0528-.12907.176-.31094.20534-.31093.43414-.704.11733-.20533.4048-.70987.29333-.50453.42826-.71573.0704-.1056.1232-.1584.0763-.0704.18187-.0939.0704.0235.0997.088.0352.0645.0352.15254 0 .19946-.25813.53973-.46933.61014-.48107.6336-.264.39894-.264.7216l.0117.0587q.32266-.1584.38133-.18187.24053-.0997.41067-.0997.18773 0 .27573.12907.088.1232.088.3168z"/><path d="m862.08974 800.26036q0 .27573-.29334.7392-.18773.29334-.616.8448-.42826.5456-.53386.71574.0176.006.44.1408.42826.12906.42826.46933-.176.0293-.34613.0528l-.0645-.006v-.0469q-.0939-.0235-.15254-.0235-.11146 0-.352.0352-.24053.0352-.36373.0352-.1584 0-.25814-.0587-.0997-.0587-.0997-.2112 0-.1232.45173-.69814.84481-1.0736.85067-1.08533.4576-.62187.4576-.83307 0-.0821-.0587-.1232-.0528-.0411-.21707-.0411-.11147 0-.46347.21707-.17013.1056-.27573.1056l-.0997-.0176q-.0352-.0235-.0763-.088-.0411-.0704-.0411-.11147 0-.2464.4752-.45173.4048-.176.704-.176.25227 0 .3872.18773.11734.16427.11734.42827z"/><path d="m865.6156 801.31636q0 .70987-.76853 1.25547-.704.49867-1.44907.49867-.3696 0-.58667-.18774-.21707-.18773-.21707-.5456 0-.79786.69814-1.38453.66293-.55734 1.48427-.55734.41653 0 .62773.2464.2112.24641.2112.67467zm-.35787.13494q0-.26987-.30506-.4048-.2288-.0997-.5456-.0997-.46347 0-.968.45174-.50454.45173-.50454.90933 0 .18773.0939.26987.0997.0763.2992.0763.57493 0 1.1968-.3168.73333-.37546.73333-.88586z"/><path d="m868.30254 800.26036q0 .27573-.29333.7392-.18774.29334-.616.8448-.42827.5456-.53387.71574.0176.006.44.1408.42827.12906.42827.46933-.176.0293-.34614.0528l-.0645-.006v-.0469q-.0939-.0235-.15253-.0235-.11147 0-.352.0352-.24054.0352-.36374.0352-.1584 0-.25813-.0587-.0997-.0587-.0997-.2112 0-.1232.45173-.69814.8448-1.0736.85067-1.08533.4576-.62187.4576-.83307 0-.0821-.0587-.1232-.0528-.0411-.21707-.0411-.11146 0-.46346.21707-.17014.1056-.27574.1056l-.0997-.0176q-.0352-.0235-.0763-.088-.0411-.0704-.0411-.11147 0-.2464.4752-.45173.4048-.176.704-.176.25226 0 .3872.18773.11733.16427.11733.42827z"/><path d="m871.0012 800.26036q0 .27573-.29333.7392-.18773.29334-.616.8448-.42827.5456-.53387.71574.0176.006.44.1408.42827.12906.42827.46933-.176.0293-.34613.0528l-.0645-.006v-.0469q-.0939-.0235-.15253-.0235-.11147 0-.352.0352-.24054.0352-.36374.0352-.1584 0-.25813-.0587-.0997-.0587-.0997-.2112 0-.1232.45173-.69814.8448-1.0736.85067-1.08533.4576-.62187.4576-.83307 0-.0821-.0587-.1232-.0528-.0411-.21706-.0411-.11147 0-.46347.21707-.17014.1056-.27574.1056l-.0997-.0176q-.0352-.0235-.0763-.088-.0411-.0704-.0411-.11147 0-.2464.4752-.45173.4048-.176.704-.176.25227 0 .3872.18773.11733.16427.11733.42827z"/></g><g transform="translate(-34.98364 -142.71907)"><g fill="none" stroke="#f4f4f4"><path d="m115.14577 491.94727h-40.992071c-14.6149 0-14.5457-.75448-14.5457 14.5457v415.7409c0 8.05832 6.4874 14.5457 14.5457 14.5457h540.383911m499.49809-444.83233h40.8059c14.6149 0 14.5457-.75448 14.5457 14.5457v415.7409c0 8.05832-6.4874 14.5457-14.5457 14.5457h-540.3839" opacity=".98" stroke-width="4.4"/><path d="m614.45771 519.60943-494.00621-2.59842-9.9109-45.32516 10.6047-58.95788.4714-52.21755c-.4616-10.14635 5.6018-9.90467 11.5703-10.19032l481.27071.85727m.0799 168.43203 494.00619-2.59842 9.9109-45.32516-10.6047-58.95788-.4714-52.21755c.4616-10.14635-5.6018-9.90467-11.5703-10.19032l-481.27069.85727m-493.39231 61.55063 195.53076-.00001m319.11624-.00001 472.0577-.00001m10.6047 58.95788-413.55488.00001m-282.24905.00002h-19.96845m-281.90464-.00002h-10.23708m766.87871-120.5958v-199.24595" opacity=".98" stroke-width="4.4"/><path d="m16.148 158.62233.0055-5.81696m247.44944-148.9533518h-1.80273m-2.75 0h-3.61328m-2.75 0-3.61327.0000001m-2.75 0h-3.61523m-2.74804.0000001h-3.61523m-2.75001-.0000001-3.61327.0000001m-2.74999 0-3.61328.0000001m-2.74999.0000001-3.61329-.0000001m-2.74999.0000001-3.61327.0000001m-2.75 0h-3.61523m-2.75-.0000001-3.61327.0000001m-2.75 0-3.61329-.0000001m-2.74999.0000001h-3.61329m-2.75-.0000001-3.61327.0000001m-2.75-.0000001-3.61523.0000001m-2.74805-.0000001-3.61524-.0000001m-2.74999.0000001-3.61327.0000001m-2.75-.0000001h-3.61328m-2.75001-.0000001-3.61328-.0000001m-2.75.0000001-3.61328-.0000001m-2.74999 0-3.61523.0000001m-2.75-.0000001h-3.61328m-2.75.0000001-3.61327.0000001m-2.75001 0-3.61328-.0000001m-2.74999 0h-3.61329m-2.74999 0-3.61524-.0000002m-2.748043-.0000001-3.615238.0000001m-2.749992 0h-3.613273m-2.750008 0-3.613274-.0000001m-2.750009-.0000001h-3.613274m-2.749991.0000001-3.613287.0000001m-2.749991 0h-3.61524m-2.749993-.0000001-3.613288.0000001m-2.749993-.0000001-3.613272.0000001m-2.750006 0-3.613273.0000001m-2.750006 0-3.613276-.0000001m-2.749991-.0000001-3.61524.0000001m-2.748041-.0000001-3.61524-.0000001m-2.749991.0000002h-3.613289m-2.749992-.0000002-13.3711099.0000001c-1.8871364 0-3.40636364 1.5192409-3.40636364 3.4063637v141.9916081c0 1.88713 1.51922724 3.40637 3.40636364 3.40637h31.0374049m475.779396 5.96597-.005-5.81696m-247.44994-148.9533518h2.1914m2.75 0 3.61329.0000001m2.74999-.0000001 3.61524.0000001m2.75.0000001 3.61329.0000001m2.75 0h3.61328m2.74999 0 3.61329.0000001m2.74999-.0000001 3.61329.0000001m2.75 0h3.61523m2.74805.0000001h3.61523m2.75001.0000001h3.61328m2.75001.0000001 3.61326-.0000001m2.75-.0000001 3.61328.0000001m2.75 0 3.61329.0000001m2.74999-.0000001h3.61523m2.75-.0000001h3.61327m2.74999 0h3.61328m2.75 0h3.61328m2.75.0000001 152.98231-.0000006c1.88713 0 3.40636 1.5192409 3.40636 3.4063637v10.3801551m0 113.328423v18.28303c0 1.88713-1.51923 3.40637-3.40636 3.40637h-31.3096" opacity=".98" stroke-width="2" transform="matrix(2.2 0 0 2.2 34.98364 142.71907)"/><path d="m1193.1481 431.82797h-8.5358c-4.1517 0-7.494-3.38088-7.494-7.58043v-236.13438c0-4.19955 3.3423-7.58043 7.494-7.58043l9.4009-.00001" opacity=".98" stroke-width="4.4"/><path d="m1193.12 441.61003h-45.8411c-4.1517 0-7.494-3.34232-7.494-7.494v-256.06482c0-4.15168 3.3423-7.494 7.494-7.494h45.6316" opacity=".98" stroke-width="2.2"/><g stroke-width="2.2"><rect height="48.2043" opacity=".98" rx="1.354167" width="6.049731" x="814.89581" y="143.21907"/><rect height="48.2043" opacity=".98" rx="1.354167" width="6.049731" x="800.89581" y="143.21907"/><rect height="48.2043" opacity=".98" rx="1.354167" width="6.049731" x="842.89581" y="143.21907"/><rect height="48.2043" opacity=".98" rx="1.354167" width="6.049731" x="828.89581" y="143.21907"/><rect height="48.2043" opacity=".98" rx="1.354167" width="6.049731" x="758.89581" y="143.21907"/><rect height="48.2043" opacity=".98" rx="1.354167" width="6.049731" x="744.89581" y="143.21907"/><rect height="48.2043" opacity=".98" rx="1.354167" width="6.049731" x="786.89581" y="143.21907"/><rect height="48.2043" opacity=".98" rx="1.354167" width="6.049731" x="772.89581" y="143.21907"/><rect height="48.2043" opacity=".98" rx="1.354167" width="6.049731" x="702.89581" y="143.21907"/><rect height="48.2043" opacity=".98" rx="1.354167" width="6.049731" x="688.89581" y="143.21907"/><rect height="48.2043" opacity=".98" rx="1.354167" width="6.049731" x="730.89581" y="143.21907"/><rect height="48.2043" opacity=".98" rx="1.354167" width="6.049731" x="716.89581" y="143.21907"/><rect height="48.2043" opacity=".98" rx="1.354167" width="6.049731" x="646.89581" y="143.21907"/><rect height="48.2043" opacity=".98" rx="1.354167" width="6.049731" x="632.89581" y="143.21907"/><rect height="48.2043" opacity=".98" rx="1.354167" width="6.049731" x="674.89581" y="143.21907"/><rect height="48.2043" opacity=".98" rx="1.354167" width="6.049731" x="660.89581" y="143.21907"/><rect height="48.2043" opacity=".98" rx="1.354167" width="6.049731" x="590.89581" y="143.21907"/><rect height="48.2043" opacity=".98" rx="1.354167" width="6.049731" x="576.89581" y="143.21907"/><rect height="48.2043" opacity=".98" rx="1.354167" width="6.049731" x="618.89581" y="143.21907"/><rect height="48.2043" opacity=".98" rx="1.354167" width="6.049731" x="604.89581" y="143.21907"/><rect height="48.2043" opacity=".98" rx="1.354167" width="6.049731" x="534.89581" y="143.21907"/><rect height="48.2043" opacity=".98" rx="1.354167" width="6.049731" x="520.89581" y="143.21907"/><rect height="48.2043" opacity=".98" rx="1.354167" width="6.049731" x="562.89581" y="143.21907"/><rect height="48.2043" opacity=".98" rx="1.354167" width="6.049731" x="548.89581" y="143.21907"/><rect height="48.2043" opacity=".98" rx="1.354167" width="6.049731" x="478.89581" y="143.21907"/><rect height="48.2043" opacity=".98" rx="1.354167" width="6.049731" x="464.89581" y="143.21907"/><rect height="48.2043" opacity=".98" rx="1.354167" width="6.049731" x="506.89581" y="143.21907"/><rect height="48.2043" opacity=".98" rx="1.354167" width="6.049731" x="492.89581" y="143.21907"/><rect height="48.2043" opacity=".98" rx="1.354167" width="6.049731" x="422.89581" y="143.21907"/><rect height="48.2043" opacity=".98" rx="1.354167" width="6.049731" x="408.89581" y="143.21907"/><rect height="48.2043" opacity=".98" rx="1.354167" width="6.049731" x="450.89581" y="143.21907"/><rect height="48.2043" opacity=".98" rx="1.354167" width="6.049731" x="436.89581" y="143.21907"/><rect height="48.2043" opacity=".98" rx="1.354167" width="6.049731" x="366.89581" y="143.21907"/><rect height="48.2043" opacity=".98" rx="1.354167" width="6.049731" x="352.89581" y="143.21907"/><rect height="48.2043" opacity=".98" rx="1.354167" width="6.049731" x="394.89581" y="143.21907"/><rect height="48.2043" opacity=".98" rx="1.354167" width="6.049731" x="380.89581" y="143.21907"/><rect height="48.2043" opacity=".98" rx="1.354167" width="6.049731" x="310.89581" y="143.21907"/><rect height="48.2043" opacity=".98" rx="1.354167" width="6.049731" x="296.89581" y="143.21907"/><rect height="48.2043" opacity=".98" rx="1.354167" width="6.049731" x="338.89581" y="143.21907"/><rect height="48.2043" opacity=".98" rx="1.354167" width="6.049731" x="324.89581" y="143.21907"/><rect height="48.2043" opacity=".98" rx="1.354167" width="6.049731" x="254.89581" y="143.21907"/><rect height="48.2043" opacity=".98" rx="1.354167" width="6.049731" x="240.89581" y="143.21907"/><rect height="48.2043" opacity=".98" rx="1.354167" width="6.049731" x="282.89581" y="143.21907"/><rect height="48.2043" opacity=".98" rx="1.354167" width="6.049731" x="268.89581" y="143.21907"/><rect height="48.2043" opacity=".98" rx="1.354167" width="6.049731" x="198.89581" y="143.21907"/><rect height="48.2043" opacity=".98" rx="1.354167" width="6.049731" x="184.89581" y="143.21907"/><rect height="48.2043" opacity=".98" rx="1.354167" width="6.049731" x="226.89581" y="143.21907"/><rect height="48.2043" opacity=".98" rx="1.354167" width="6.049731" x="212.89581" y="143.21907"/><rect height="48.2043" opacity=".98" rx="1.354167" width="6.049731" x="142.89581" y="143.21907"/><rect height="48.2043" opacity=".98" rx="1.354167" width="6.049731" x="128.89581" y="143.21907"/><rect height="48.2043" opacity=".98" rx="1.354167" width="6.049731" x="170.89581" y="143.21907"/><rect height="48.2043" opacity=".98" rx="1.354167" width="6.049731" x="156.89581" y="143.21907"/><rect height="48.2043" opacity=".98" rx="1.354167" width="6.049731" x="86.895813" y="143.21907"/><rect height="48.2043" opacity=".98" rx="1.354167" width="6.049731" x="72.895813" y="143.21907"/><rect height="48.2043" opacity=".98" rx="1.354167" width="6.049731" x="114.89581" y="143.21907"/><rect height="48.2043" opacity=".98" rx="1.354167" width="6.049731" x="100.89581" y="143.21907"/></g><g stroke-width="2.2"><rect height="48.938171" opacity=".98" rx="1.354167" width="6.049731" x="304.84607" y="264.4852"/><rect height="48.938171" opacity=".98" rx="1.354167" width="6.049731" x="288.84607" y="264.4852"/><rect height="48.938171" opacity=".98" rx="1.354167" width="6.049731" x="304.84607" y="206.4852"/><rect height="48.938171" opacity=".98" rx="1.354167" width="6.049731" x="288.84607" y="206.4852"/><rect height="48.938171" opacity=".98" rx="1.354167" width="6.049731" x="272.84607" y="264.4852"/><rect height="48.938171" opacity=".98" rx="1.354167" width="6.049731" x="256.84607" y="264.4852"/><rect height="48.938171" opacity=".98" rx="1.354167" width="6.049731" x="272.84607" y="206.4852"/><rect height="48.938171" opacity=".98" rx="1.354167" width="6.049731" x="256.84607" y="206.4852"/><rect height="48.938171" opacity=".98" rx="1.354167" width="6.049731" x="240.84608" y="264.4852"/><rect height="48.938171" opacity=".98" rx="1.354167" width="6.049731" x="224.84608" y="264.4852"/><rect height="48.938171" opacity=".98" rx="1.354167" width="6.049731" x="240.84608" y="206.4852"/><rect height="48.938171" opacity=".98" rx="1.354167" width="6.049731" x="224.84608" y="206.4852"/><rect height="48.938171" opacity=".98" rx="1.354167" width="6.049731" x="208.84608" y="264.4852"/><rect height="48.938171" opacity=".98" rx="1.354167" width="6.049731" x="192.84608" y="264.4852"/><rect height="48.938171" opacity=".98" rx="1.354167" width="6.049731" x="208.84608" y="206.4852"/><rect height="48.938171" opacity=".98" rx="1.354167" width="6.049731" x="192.84608" y="206.4852"/><rect height="48.938171" opacity=".98" rx="1.354167" width="6.049731" x="176.84608" y="264.4852"/><rect height="48.938171" opacity=".98" rx="1.354167" width="6.049731" x="160.84608" y="264.4852"/><rect height="48.938171" opacity=".98" rx="1.354167" width="6.049731" x="176.84608" y="206.4852"/><rect height="48.938171" opacity=".98" rx="1.354167" width="6.049731" x="160.84608" y="206.4852"/><rect height="48.938171" opacity=".98" rx="1.354167" width="6.049731" x="144.84608" y="264.4852"/><rect height="48.938171" opacity=".98" rx="1.354167" width="6.049731" x="128.84608" y="264.4852"/><rect height="48.938171" opacity=".98" rx="1.354167" width="6.049731" x="144.84608" y="206.4852"/><rect height="48.938171" opacity=".98" rx="1.354167" width="6.049731" x="128.84608" y="206.4852"/><rect height="48.938171" opacity=".98" rx="1.354167" width="6.049731" x="112.84608" y="264.4852"/><rect height="48.938171" opacity=".98" rx="1.354167" width="6.049731" x="96.846077" y="264.4852"/><rect height="48.938171" opacity=".98" rx="1.354167" width="6.049731" x="112.84608" y="206.4852"/><rect height="48.938171" opacity=".98" rx="1.354167" width="6.049731" x="96.846077" y="206.4852"/><rect height="48.938171" opacity=".98" rx="1.354167" width="6.049731" x="80.846077" y="264.4852"/><rect height="48.938171" opacity=".98" rx="1.354167" width="6.049731" x="80.846077" y="206.4852"/></g><rect height="53.13306" opacity=".98" rx="2.484543" stroke-width="2.2" width="318.79636" x="316.96902" y="364.10681"/><rect height="28.258062" opacity=".98" rx="2.48454" stroke-width="2.2" width="215.77419" x="371.27417" y="375.52954"/><path d="m405.4239 485.6613-2.77313-13.97545 4.0171-23.04202h-8.45782-273.54218l-4.0171 23.04202 2.77313 13.97545h272.56648z" opacity=".98" stroke-width="2.2"/><path d="m339.13876 485.6613c-1.11172-3.362-2.11132-7.07873-2.10589-13.97545.14746-8.64924 1.49653-15.95978 3.05055-23.04202h-6.4228-207.72547l-3.05053 23.04202 2.10589 13.97545h206.98452z" opacity=".98" stroke-width="2.2"/><g stroke-width="1.65" transform="translate(-302)"><rect height="28.012768" opacity=".98" rx="2.48454" width="4.68" x="438.29099" y="452.38168"/><path d="m458.49392 448.41117v19.99875c0 1.37644-1.04366 2.48454-2.34005 2.48454s-2.34006-1.1081-2.34006-2.48454v-19.94267" opacity=".98"/><path d="m468.49392 448.41117v19.99875c0 1.37644-1.04366 2.48454-2.34005 2.48454s-2.34006-1.1081-2.34006-2.48454v-19.94267" opacity=".98"/><path d="m478.49392 448.41117v19.99875c0 1.37644-1.04366 2.48454-2.34005 2.48454s-2.34006-1.1081-2.34006-2.48454v-19.94267" opacity=".98"/><path d="m488.49392 448.41117v19.99875c0 1.37644-1.04366 2.48454-2.34005 2.48454s-2.34006-1.1081-2.34006-2.48454v-19.94267" opacity=".98"/><path d="m498.49392 448.41117v19.99875c0 1.37644-1.04366 2.48454-2.34005 2.48454s-2.34006-1.1081-2.34006-2.48454v-19.94267" opacity=".98"/><path d="m508.49392 448.41117v19.99875c0 1.37644-1.04366 2.48454-2.34005 2.48454s-2.34006-1.1081-2.34006-2.48454v-19.94267" opacity=".98"/><path d="m518.49392 448.41117v19.99875c0 1.37644-1.04366 2.48454-2.34005 2.48454s-2.34006-1.1081-2.34006-2.48454v-19.94267" opacity=".98"/><path d="m528.49392 448.41117v19.99875c0 1.37644-1.04366 2.48454-2.34005 2.48454s-2.34006-1.1081-2.34006-2.48454v-19.94267" opacity=".98"/><path d="m538.49392 448.41117v19.99875c0 1.37644-1.04366 2.48454-2.34005 2.48454s-2.34006-1.1081-2.34006-2.48454v-19.94267" opacity=".98"/><path d="m548.49392 448.41117v19.99875c0 1.37644-1.04366 2.48454-2.34005 2.48454s-2.34006-1.1081-2.34006-2.48454v-19.94267" opacity=".98"/><path d="m558.49392 448.41117v19.99875c0 1.37644-1.04366 2.48454-2.34005 2.48454s-2.34006-1.1081-2.34006-2.48454v-19.94267" opacity=".98"/><path d="m568.49392 448.41117v19.99875c0 1.37644-1.04366 2.48454-2.34005 2.48454s-2.34006-1.1081-2.34006-2.48454v-19.94267" opacity=".98"/><path d="m578.49392 448.41117v19.99875c0 1.37644-1.04366 2.48454-2.34005 2.48454s-2.34006-1.1081-2.34006-2.48454v-19.94267" opacity=".98"/><path d="m588.49392 448.41117v19.99875c0 1.37644-1.04366 2.48454-2.34005 2.48454s-2.34006-1.1081-2.34006-2.48454v-19.94267" opacity=".98"/><path d="m598.49392 448.41117v19.99875c0 1.37644-1.04366 2.48454-2.34005 2.48454s-2.34006-1.1081-2.34006-2.48454v-19.94267" opacity=".98"/><path d="m608.49392 448.41117v19.99875c0 1.37644-1.04366 2.48454-2.34005 2.48454s-2.34006-1.1081-2.34006-2.48454v-19.94267" opacity=".98"/><path d="m618.49392 448.41117v19.99875c0 1.37644-1.04366 2.48454-2.34005 2.48454s-2.34006-1.1081-2.34006-2.48454v-19.94267" opacity=".98"/><path d="m628.49392 448.41117v19.99875c0 1.37644-1.04366 2.48454-2.34005 2.48454s-2.34006-1.1081-2.34006-2.48454v-19.94267" opacity=".98"/></g><g stroke-width="2.2"><path d="m442.83754 501.50027-2.49904-11.75704" opacity=".98"/><path d="m457.74917 501.50027-2.49904-11.75704" opacity=".98"/><path d="m471.74917 501.50027-2.49904-11.75704" opacity=".98"/><path d="m486.10617 503.17985-2.85604-13.43662" opacity=".98"/><path d="m500.10617 503.17985-2.85604-13.43662" opacity=".98"/><path d="m514.10617 503.17985-2.85604-13.43662" opacity=".98"/><path d="m528.46319 504.85943-3.21306-15.1162" opacity=".98"/><path d="m543.10652 504.89695-3.21306-15.1162" opacity=".98"/><path d="m557.10652 504.89695-3.21306-15.1162" opacity=".98"/><path d="m571.46352 506.57653-3.57006-16.79578" opacity=".98"/><path d="m585.46352 506.57653-3.57006-16.79578" opacity=".98"/></g><path d="m707.4239 485.6613-2.77313-13.97545 4.0171-23.04202h-8.45782-273.54218l-4.0171 23.04202 2.77313 13.97545h272.56648z" opacity=".98" stroke-width="2.2"/><path d="m640.84336 485.6613c-1.1102-3.362-2.10844-7.07873-2.10302-13.97545.14726-8.64924 1.4945-15.95978 3.04639-23.04202h-6.41402-207.44175l-3.04637 23.04202 2.10302 13.97545h206.70181z" opacity=".98" stroke-width="2.2"/><g stroke-width="1.65"><rect height="28.012768" opacity=".98" rx="2.48454" width="4.68" x="438.29099" y="452.38168"/><path d="m458.49392 448.41117v19.99875c0 1.37644-1.04366 2.48454-2.34005 2.48454s-2.34006-1.1081-2.34006-2.48454v-19.94267" opacity=".98"/><path d="m468.49392 448.41117v19.99875c0 1.37644-1.04366 2.48454-2.34005 2.48454s-2.34006-1.1081-2.34006-2.48454v-19.94267" opacity=".98"/><path d="m478.49392 448.41117v19.99875c0 1.37644-1.04366 2.48454-2.34005 2.48454s-2.34006-1.1081-2.34006-2.48454v-19.94267" opacity=".98"/><path d="m488.49392 448.41117v19.99875c0 1.37644-1.04366 2.48454-2.34005 2.48454s-2.34006-1.1081-2.34006-2.48454v-19.94267" opacity=".98"/><path d="m498.49392 448.41117v19.99875c0 1.37644-1.04366 2.48454-2.34005 2.48454s-2.34006-1.1081-2.34006-2.48454v-19.94267" opacity=".98"/><path d="m508.49392 448.41117v19.99875c0 1.37644-1.04366 2.48454-2.34005 2.48454s-2.34006-1.1081-2.34006-2.48454v-19.94267" opacity=".98"/><path d="m518.49392 448.41117v19.99875c0 1.37644-1.04366 2.48454-2.34005 2.48454s-2.34006-1.1081-2.34006-2.48454v-19.94267" opacity=".98"/><path d="m528.49392 448.41117v19.99875c0 1.37644-1.04366 2.48454-2.34005 2.48454s-2.34006-1.1081-2.34006-2.48454v-19.94267" opacity=".98"/><path d="m538.49392 448.41117v19.99875c0 1.37644-1.04366 2.48454-2.34005 2.48454s-2.34006-1.1081-2.34006-2.48454v-19.94267" opacity=".98"/><path d="m548.49392 448.41117v19.99875c0 1.37644-1.04366 2.48454-2.34005 2.48454s-2.34006-1.1081-2.34006-2.48454v-19.94267" opacity=".98"/><path d="m558.49392 448.41117v19.99875c0 1.37644-1.04366 2.48454-2.34005 2.48454s-2.34006-1.1081-2.34006-2.48454v-19.94267" opacity=".98"/><path d="m568.49392 448.41117v19.99875c0 1.37644-1.04366 2.48454-2.34005 2.48454s-2.34006-1.1081-2.34006-2.48454v-19.94267" opacity=".98"/><path d="m578.49392 448.41117v19.99875c0 1.37644-1.04366 2.48454-2.34005 2.48454s-2.34006-1.1081-2.34006-2.48454v-19.94267" opacity=".98"/><path d="m588.49392 448.41117v19.99875c0 1.37644-1.04366 2.48454-2.34005 2.48454s-2.34006-1.1081-2.34006-2.48454v-19.94267" opacity=".98"/><path d="m598.49392 448.41117v19.99875c0 1.37644-1.04366 2.48454-2.34005 2.48454s-2.34006-1.1081-2.34006-2.48454v-19.94267" opacity=".98"/><path d="m608.49392 448.41117v19.99875c0 1.37644-1.04366 2.48454-2.34005 2.48454s-2.34006-1.1081-2.34006-2.48454v-19.94267" opacity=".98"/><path d="m618.49392 448.41117v19.99875c0 1.37644-1.04366 2.48454-2.34005 2.48454s-2.34006-1.1081-2.34006-2.48454v-19.94267" opacity=".98"/><path d="m628.49392 448.41117v19.99875c0 1.37644-1.04366 2.48454-2.34005 2.48454s-2.34006-1.1081-2.34006-2.48454v-19.94267" opacity=".98"/></g><g stroke-width="2.2" transform="translate(-302)"><path d="m442.83754 501.50027-2.49904-11.75704" opacity=".98"/><path d="m457.74917 501.50027-2.49904-11.75704" opacity=".98"/><path d="m471.74917 501.50027-2.49904-11.75704" opacity=".98"/><path d="m486.10617 503.17985-2.85604-13.43662" opacity=".98"/><path d="m500.10617 503.17985-2.85604-13.43662" opacity=".98"/><path d="m514.10617 503.17985-2.85604-13.43662" opacity=".98"/><path d="m528.46319 504.85943-3.21306-15.1162" opacity=".98"/><path d="m543.10652 504.89695-3.21306-15.1162" opacity=".98"/><path d="m557.10652 504.89695-3.21306-15.1162" opacity=".98"/><path d="m571.46352 506.57653-3.57006-16.79578" opacity=".98"/><path d="m585.46352 506.57653-3.57006-16.79578" opacity=".98"/></g><rect height="13.515089" opacity=".98" rx="2.48454" stroke-width="2.2" width="40.823925" x="732.1875" y="489.61191"/></g><path d="m744.64038 493.44824h15.91465v5.366936h-15.91465z" fill="#f4f4f4" opacity=".98"/><rect fill="none" height="13.515089" opacity=".98" rx="2.48454" stroke="#f4f4f4" stroke-width="2.2" width="40.823925" x="786.1875" y="489.61191"/><path d="m798.64038 493.44824h15.91465v5.366936h-15.91465z" fill="#f4f4f4" opacity=".98"/><rect fill="none" height="13.515089" opacity=".98" rx="2.48454" stroke="#f4f4f4" stroke-width="2.2" width="40.823925" x="840.1875" y="489.61191"/><path d="m852.64038 493.44824h15.91465v5.366936h-15.91465z" fill="#f4f4f4" opacity=".98"/><rect fill="none" height="13.515089" opacity=".98" rx="2.48454" stroke="#f4f4f4" stroke-width="2.2" width="40.823925" x="894.1875" y="489.61191"/><path d="m906.64038 493.44824h15.91465v5.366936h-15.91465z" fill="#f4f4f4" opacity=".98"/><rect fill="none" height="13.515089" opacity=".98" rx="2.48454" stroke="#f4f4f4" stroke-width="2.2" width="40.823925" x="948.1875" y="489.61191"/><path d="m960.64038 493.44824h15.91465v5.366936h-15.91465z" fill="#f4f4f4" opacity=".98"/><rect fill="none" height="13.515089" opacity=".98" rx="2.48454" stroke="#f4f4f4" stroke-width="2.2" width="40.823925" x="1002.1875" y="489.61191"/><path d="m1014.6404 493.44824h15.91465v5.366936h-15.91465z" fill="#f4f4f4" opacity=".98"/><rect fill="none" height="13.515089" opacity=".98" rx="2.48454" stroke="#f4f4f4" stroke-width="2.2" width="40.823925" x="1056.1875" y="489.61191"/><path d="m1068.6404 493.44824h15.91465v5.366936h-15.91465z" fill="#f4f4f4" opacity=".98"/><path d="m925.54339 767.98829h203.92631" fill="none" opacity=".98" stroke="#f4f4f4" stroke-linecap="round" stroke-width="2.2"/></g><g fill="none" stroke="#f4f4f4" stroke-width="4.4"><g><path d="m648.43781 620.90581h43v43h-43z" opacity=".98"/><path d="m702.43781 620.90581h43v43h-43z" opacity=".98"/><path d="m756.43781 620.90581h83.788849v43h-83.788849z" opacity=".98"/><path d="m486.43781 620.90581h43v43h-43z" opacity=".98"/><path d="m540.43781 620.90581h43v43h-43z" opacity=".98"/><path d="m594.43781 620.90581h43v43h-43z" opacity=".98"/><path d="m324.43781 620.90581h43v43h-43z" opacity=".98"/><path d="m378.43781 620.90581h43v43h-43z" opacity=".98"/><path d="m432.43781 620.90581h43v43h-43z" opacity=".98"/><path d="m162.43781 620.90581h43v43h-43z" opacity=".98"/><path d="m216.43781 620.90581h43v43h-43z" opacity=".98"/><path d="m270.43781 620.90581h43v43h-43z" opacity=".98"/><path d="m41.226657 620.90581h110.21116v43h-110.21116z" opacity=".98"/></g><g transform="translate(-8.014837 -196.71907)"><path d="m683.42145 763.62488h43v43h-43z" opacity=".98"/><path d="m737.42145 763.62488h43v43h-43z" opacity=".98"/><path d="m521.42145 763.62488h43v43h-43z" opacity=".98"/><path d="m575.42145 763.62488h43v43h-43z" opacity=".98"/><path d="m629.42145 763.62488h43v43h-43z" opacity=".98"/><path d="m359.42145 763.62488h43v43h-43z" opacity=".98"/><path d="m413.42145 763.62488h43v43h-43z" opacity=".98"/><path d="m467.42145 763.62488h43v43h-43z" opacity=".98"/><path d="m197.42145 763.62488h43v43h-43z" opacity=".98"/><path d="m251.42145 763.62488h43v43h-43z" opacity=".98"/><path d="m305.42145 763.62488h43v43h-43z" opacity=".98"/><path d="m143.42145 763.62488h43v43h-43z" opacity=".98"/><path d="m49.241489 763.62488h83.179962v43h-83.179962z" opacity=".98"/><path d="m848.24149 806.62488v-43l-.00003-11v-43h-70.82001v43l2.39098.00001h9.42833 2.1807l-.00001 53.99999h52.42004z" opacity=".98"/></g><g><path d="m661.226652 512.90581h43v43h-43z" opacity=".98"/><path d="m715.226652 512.90581h43v43h-43z" opacity=".98"/><path d="m499.226652 512.90581h43v43h-43z" opacity=".98"/><path d="m553.226652 512.90581h43v43h-43z" opacity=".98"/><path d="m607.226652 512.90581h43v43h-43z" opacity=".98"/><path d="m337.226652 512.90581h43v43h-43z" opacity=".98"/><path d="m391.226652 512.90581h43v43h-43z" opacity=".98"/><path d="m445.226652 512.90581h43v43h-43z" opacity=".98"/><path d="m175.226652 512.90581h43v43h-43z" opacity=".98"/><path d="m229.226652 512.90581h43v43h-43z" opacity=".98"/><path d="m283.226652 512.90581h43v43h-43z" opacity=".98"/><path d="m121.226652 512.90581h43v43h-43z" opacity=".98"/><path d="m41.226646 512.90581h69v43h-69z" opacity=".98"/></g><g><path d="m689.226652 458.90581h43v43h-43z" opacity=".98"/><path d="m743.226652 458.90581h43v43h-43z" opacity=".98"/><path d="m527.226652 458.90581h43v43h-43z" opacity=".98"/><path d="m581.226652 458.90581h43v43h-43z" opacity=".98"/><path d="m635.226652 458.90581h43v43h-43z" opacity=".98"/><path d="m365.226652 458.90581h43v43h-43z" opacity=".98"/><path d="m419.226652 458.90581h43v43h-43z" opacity=".98"/><path d="m473.226652 458.90581h43v43h-43z" opacity=".98"/><path d="m203.226652 458.90581h43v43h-43z" opacity=".98"/><path d="m257.226652 458.90581h43v43h-43z" opacity=".98"/><path d="m311.226652 458.90581h43v43h-43z" opacity=".98"/><path d="m149.226652 458.90581h43v43h-43z" opacity=".98"/><path d="m95.22665 458.90581h43v43h-43z" opacity=".98"/><path d="m797.226652 458.90581h43v43h-43z" opacity=".98"/><path d="m41.22665 458.90581h43v43h-43z" opacity=".98"/></g><g><path d="m622.43781 674.90581h43v43h-43z" opacity=".98"/><path d="m676.43781 674.90581h69.000015v43h-69.000015z" opacity=".98"/><path d="m298.43781 674.90581h313.00003v43h-313.00003z" opacity=".98"/><path d="m136.43781 674.90581h69.000008v43h-69.000008z" opacity=".98"/><path d="m216.43781 674.90581h71v43h-71z" opacity=".98"/></g><g><path d="m1051.22665 458.90581h43v43h-43z" opacity=".98"/><path d="m997.22665 458.90581h43v43h-43z" opacity=".98"/><path d="m943.226648 458.90581h43v43h-43z" opacity=".98"/><path d="m889.226648 458.90581h43v43h-43z" opacity=".98"/><path d="m1051.22665 404.90581h43v43h-43z" opacity=".98"/><path d="m997.22665 404.90581h43v43h-43z" opacity=".98"/><path d="m943.226648 404.90581h43v43h-43z" opacity=".98"/><path d="m889.226648 404.90581h43v43h-43z" opacity=".98"/><path d="m1051.22665 566.90581h43v43h-43z" opacity=".98"/><path d="m997.22665 566.90581h43v43h-43z" opacity=".98"/><path d="m943.226648 566.90581h43v43h-43z" opacity=".98"/><path d="m889.226648 566.90581h43v43h-43z" opacity=".98"/><path d="m1051.22665 512.90581h43v43h-43z" opacity=".98"/><path d="m997.22665 512.90581h43v43h-43z" opacity=".98"/><path d="m943.226648 512.90581h43v43h-43z" opacity=".98"/><path d="m889.226648 512.90581h43v43h-43z" opacity=".98"/></g><g><circle cx="822.13739" cy="423.69646" opacity=".98" r="12.5"/><rect height="16.148514" opacity=".98" rx="8.074257" width="56.484901" x="731.19409" y="415.54729"/><rect height="16.148514" opacity=".98" rx="8.074257" width="56.484901" x="659.19409" y="415.54729"/><rect height="16.148514" opacity=".98" rx="8.074257" width="56.484901" x="573.19409" y="415.54729"/><rect height="16.148514" opacity=".98" rx="8.074257" width="56.484901" x="501.19409" y="415.54729"/><rect height="16.148514" opacity=".98" rx="8.074257" width="56.484901" x="429.19409" y="415.54729"/><rect height="16.148514" opacity=".98" rx="8.074257" width="56.484901" x="341.19409" y="415.54729"/><rect height="16.148514" opacity=".98" rx="8.074257" width="56.484901" x="269.19409" y="415.54729"/><rect height="16.148514" opacity=".98" rx="8.074257" width="56.484901" x="197.19409" y="415.54729"/><rect height="16.148514" opacity=".98" rx="8.074257" width="56.484901" x="125.19409" y="415.54729"/><rect height="16.148514" opacity=".98" rx="8.074257" width="56.484901" x="53.194087" y="415.54729"/></g><g transform="translate(-34.98364 -142.71907)"><g fill="none"><rect height="108.90235" opacity=".98" rx="8.07426" stroke-width="4.4" width="197.59451" x="928.75989" y="784.06421"/><rect height="88.34272" opacity=".98" rx="44.17136" stroke-width="4.4" width="185.14789" x="936.87262" y="794.05804"/><path d="m1092.099 879.62692-29.8213-42.58932 28.3773-40.52706" opacity=".98" stroke-width="4.4"/><path d="m963.70897 878.6711 29.15209-41.6335-27.77428-39.66577" opacity=".98" stroke-width="4.4"/><path d="m992.86105 837.03761 69.41665-.00001" opacity=".98" stroke-width="4.4"/><path d="m1011.9501 819.29639 7.643-6.03446 7.6429-6.03447 7.6429 6.03447 7.643 6.03446" opacity=".98" stroke-width="2.2"/><path d="m1011.9501 856.90835 7.643 6.03446 7.6429 6.03446 7.6429-6.03446 7.643-6.03446" opacity=".98" stroke-width="2.2"/><path d="m1094.813 852.3235 6.0345-7.643 6.0344-7.6429-6.0344-7.6429-6.0345-7.643" opacity=".98" stroke-width="2.2"/><path d="m961.659 852.3235-6.0345-7.643-6.0344-7.6429 6.0344-7.6429 6.0345-7.643" opacity=".98" stroke-width="2.2"/></g><path d="m1090.655 796.51054 8.5459-13.08338" fill="#f4f4f4" opacity=".98" stroke-width="4.4"/><path d="m1092.099 879.62693 8.7344 13.60312" fill="#f4f4f4" opacity=".98" stroke-width="4.4"/><path d="m963.70898 878.6711-9.8067 14.55824" fill="#f4f4f4" opacity=".98" stroke-width="4.4"/><path d="m965.08679 797.37184-9.93046-13.13923" fill="#f4f4f4" opacity=".98" stroke-width="4.4"/></g></g></svg>