<svg height="356.88379" viewBox="0 0 3577.4006 2248.3679" width="567.84137" xmlns="http://www.w3.org/2000/svg"><g fill="#f4f4f4" fill-opacity=".5" stroke-width="6.3" transform="translate(-178.75835 -393.37092)"><path d="m2691.2926 2357.088q0 1.512-.3654 2.5452-.5418 1.5372-1.7388 1.5372-.7938 0-1.6632-.3654-1.0458-.441-1.1466-1.0836.3528 0 .8316.126 1.1088.2898 1.386.2898 1.071 0 1.6128-1.071.4284-.8568.4284-2.0538 0-.8442-.5544-2.4066-.5418-1.575-.5418-2.1924 0-.189.1008-.3024.1134-.126.3024-.126.4914 0 .9576 2.268.3906 1.9152.3906 2.835z"/><path d="m2696.1436 2358.3732q0 1.2852-.7434 2.016-.7434.7308-2.0538.7308-.7182 0-1.1088-.3402-.3906-.3402-.3906-1.0458 0-.9954 1.2978-2.0034 1.2348-.9576 2.2806-.9576.4788 0 .63.5922.088.3402.088 1.008zm-.7686.3528q0-.1512-.038-.2898-.025-.1512-.1008-.3402-.2016.1386-.6678.6804-.2394.2772-.4158.4032 0-.2394.05-.3906.1008-.2142.1638-.3654-.5544 0-1.1592.4662-.5922.4662-.5922 1.008 0 .3654.4032.3654.7686 0 1.4868-.378.8694-.4536.8694-1.1592z"/><path d="m2701.3348 2358.8898q0 .6174-.4662 1.386-.5292.8694-1.0962.8694-.1638 0-.2772-.1764-.1008-.189-.1008-.3654 0-.2268.4788-.7056.4914-.4914.4914-.6678 0-.1134-.038-.2268-.038-.1134-.05-.1512-.945.2142-1.9278 1.0836-.9702.8694-1.4742.9828-.1008-.2772-.1008-.567 0-.3528.1638-.7434.1134-.2772.378-.6678.441-.6678.9324-1.512.252-.441.8694-1.5246.63-1.0836.9198-1.5372.1512-.2268.2646-.3402.1638-.1512.3906-.2016.1512.05.2142.189.076.1386.076.3276 0 .4284-.5544 1.1592-1.008 1.3104-1.0332 1.3608-.567.8568-.567 1.5498l.025.126q.693-.3402.819-.3906.5166-.2142.882-.2142.4032 0 .5922.2772.189.2646.189.6804z"/><path d="m2707.1812 2358.1464q0 .8568-.4158 1.827-.4536 1.071-1.1214 1.4742-.1386-.1638-.2394-.3654-.088-.2016-.088-.4032 0-.2142.63-1.2726.2772-.4662.252-.819l-.013-.1638q-.4662.1386-1.6128.8442-1.134.693-2.2932 1.4112-.1764 0-.3276-.126-.1386-.1386-.1386-.3024 0-.2646.8442-1.7766.252-.4536.9072-1.575.2016.2646.2646.5922.063.315.063.756 0 .189 0 .2898 1.1592-.693 1.8144-1.0458.7182-.3906.9828-.3906.1764 0 .3276.4032.1638.4032.1638.6426z"/><path d="m2718.1306 2360.5908q0 .2268-.2016.3528-.189.1134-.4284.1134-.2142 0-.5418-.05-.7434-.1134-.9576-.1134-.378 0-1.4868.088-.63.05-.9072.05-.7686 0-.7686-.7686 0-.7308.4788-2.0916.2646-.7686.9954-2.52.6552-1.575.8316-2.2176.063-.2016.1008-.2646.1008-.1512.252-.1512.2394 0 .4032.3528.1638.3402.1638.6174 0 .441-.5166 1.4868-.5166 1.0332-1.008 2.0286-.5418 1.1844-.5418 1.8018 0 .315.2646.441.189.088.5544.088.2772 0 .9576-.063.6804-.076.9072-.076.567 0 .9324.1638.5166.2268.5166.7308z"/><path d="m2722.8178 2358.3732q0 1.2852-.7434 2.016-.7434.7308-2.0538.7308-.7182 0-1.1088-.3402-.3906-.3402-.3906-1.0458 0-.9954 1.2978-2.0034 1.2348-.9576 2.2806-.9576.4788 0 .63.5922.088.3402.088 1.008zm-.7686.3528q0-.1512-.038-.2898-.025-.1512-.1008-.3402-.2016.1386-.6678.6804-.2394.2772-.4158.4032 0-.2394.05-.3906.1008-.2142.1638-.3654-.5544 0-1.1592.4662-.5922.4662-.5922 1.008 0 .3654.4032.3654.7686 0 1.4868-.378.8694-.4536.8694-1.1592z"/><path d="m2728.1224 2358.1086q0 .4032-.2142.8568-.2016.4536-.5166.756l-.013-.1764q0-.1512.038-.4662.038-.315.038-.4662 0-.2142-.063-.315-.063-.1134-.2646-.1134-.5922 0-1.4742.9198-.9576 1.008-1.9026 2.0034-.076 0-.1512-.013-.189-.05-.252-.063.038-.4536.315-1.008.7434-1.4994.7686-1.6002.1008-.4032.1512-.5922.05-.189.1386-.3906.1008-.2142.2268-.378.1386-.1764.3528-.2646l.126 1.512q.5418-.441.8316-.6804.5544-.441.9576-.441.4032 0 .6552.2646.252.2646.252.6552z"/><path d="m2734.309 2356.647q0 .5292-1.4112 1.3986-1.3608.8316-1.9782.8316-.2898 0-.3906-.2016-.088-.2016-.088-.567 0-.2394 0-.3402.8442 0 1.5372-.252.693-.252 1.2096-.8316-.378-.1386-.7686-.1386-.9198 0-1.953.7056-1.134.7686-1.134 1.638 0 .8316 1.134 1.1592.1764.05 2.1294.3528 1.1466.1764 1.1466.6174 0 .189-.4158.3024-.4158.126-1.0584.126-1.6128 0-2.5452-.4914-1.2348-.6552-1.2348-2.1042 0-1.512 1.512-2.4066 1.2852-.756 2.9232-.756.4914 0 .8946.2268.4914.2772.4914.7308z"/><path d="m2739.3238 2354.3916q0 .2772-.6678 1.1592-.6678.882-.6678 1.3482 0 .2394.2772.4788.63.5544.63.6804 0 .1638-.1134.315-.1008.1512-.2646.1512-.1386 0-.3906-.1512-.1764-.1008-.6804-.4914-.189.3654-.2898.5544-.3528.6678-.4788.9702-.189.5796-.378 1.1592-.3276.7812-.819.7812l-.013-.2898q0-.8946.5796-2.1168.1134-.2268.63-1.1718-.9954-.5418-2.1924-.5418 0-.4662.189-.6804.2016-.2268.6678-.2268.4284 0 1.071.1512.315.076.63.1512.2394-.076.6552-.819 1.0206-1.7892 1.386-2.0538.1008.1638.1638.3276.076.1638.076.315z"/><path d="m2743.9732 2358.8898q0 .6174-.4662 1.386-.5292.8694-1.0962.8694-.1638 0-.2772-.1764-.1008-.189-.1008-.3654 0-.2268.4788-.7056.4914-.4914.4914-.6678 0-.1134-.038-.2268-.038-.1134-.05-.1512-.945.2142-1.9278 1.0836-.9702.8694-1.4742.9828-.1008-.2772-.1008-.567 0-.3528.1638-.7434.1134-.2772.378-.6678.441-.6678.9324-1.512.252-.441.8694-1.5246.63-1.0836.9198-1.5372.1512-.2268.2646-.3402.1638-.1512.3906-.2016.1512.05.2142.189.076.1386.076.3276 0 .4284-.5544 1.1592-1.008 1.3104-1.0332 1.3608-.567.8568-.567 1.5498l.025.126q.693-.3402.819-.3906.5166-.2142.882-.2142.4032 0 .5922.2772.189.2646.189.6804z"/><path d="m2754.3178 2354.7822q0 .5922-.63 1.5876-.4032.63-1.323 1.8144-.9198 1.1718-1.1466 1.5372.038.013.945.3024.9198.2772.9198 1.008-.378.063-.7434.1134l-.1386-.013v-.1008q-.2016-.05-.3276-.05-.2394 0-.756.076-.5166.076-.7812.076-.3402 0-.5544-.126-.2142-.126-.2142-.4536 0-.2646.9702-1.4994 1.8144-2.3058 1.827-2.331.9828-1.3356.9828-1.7892 0-.1764-.126-.2646-.1134-.088-.4662-.088-.2394 0-.9954.4662-.3654.2268-.5922.2268l-.2142-.038q-.076-.05-.1638-.189-.088-.1512-.088-.2394 0-.5292 1.0206-.9702.8694-.378 1.512-.378.5418 0 .8316.4032.252.3528.252.9198z"/><path d="m2761.8904 2357.0502q0 1.5246-1.6506 2.6964-1.512 1.071-3.1122 1.071-.7938 0-1.26-.4032-.4662-.4032-.4662-1.1718 0-1.7136 1.4994-2.9736 1.4238-1.197 3.1878-1.197.8946 0 1.3482.5292.4536.5292.4536 1.449zm-.7686.2898q0-.5796-.6552-.8694-.4914-.2142-1.1718-.2142-.9954 0-2.079.9702-1.0836.9702-1.0836 1.953 0 .4032.2016.5796.2142.1638.6426.1638 1.2348 0 2.5704-.6804 1.575-.8064 1.575-1.9026z"/><path d="m2767.6612 2354.7822q0 .5922-.63 1.5876-.4032.63-1.323 1.8144-.9198 1.1718-1.1466 1.5372.038.013.945.3024.9198.2772.9198 1.008-.378.063-.7434.1134l-.1386-.013v-.1008q-.2016-.05-.3276-.05-.2394 0-.756.076-.5166.076-.7812.076-.3402 0-.5544-.126-.2142-.126-.2142-.4536 0-.2646.9702-1.4994 1.8144-2.3058 1.827-2.331.9828-1.3356.9828-1.7892 0-.1764-.126-.2646-.1134-.088-.4662-.088-.2394 0-.9954.4662-.3654.2268-.5922.2268l-.2142-.038q-.076-.05-.1638-.189-.088-.1512-.088-.2394 0-.5292 1.0206-.9702.8694-.378 1.512-.378.5418 0 .8316.4032.252.3528.252.9198z"/><path d="m2773.4572 2354.7822q0 .5922-.63 1.5876-.4032.63-1.323 1.8144-.9198 1.1718-1.1466 1.5372.038.013.945.3024.9198.2772.9198 1.008-.378.063-.7434.1134l-.1386-.013v-.1008q-.2016-.05-.3276-.05-.2394 0-.756.076-.5166.076-.7812.076-.3402 0-.5544-.126-.2142-.126-.2142-.4536 0-.2646.9702-1.4994 1.8144-2.3058 1.827-2.331.9828-1.3356.9828-1.7892 0-.1764-.126-.2646-.1134-.088-.4662-.088-.2394 0-.9954.4662-.3654.2268-.5922.2268l-.2142-.038q-.076-.05-.1638-.189-.088-.1512-.088-.2394 0-.5292 1.0206-.9702.8694-.378 1.512-.378.5418 0 .8316.4032.252.3528.252.9198z"/></g><g transform="translate(-178.75835 -393.37092)"><path d="m1967.1997 1333.4065h-1605.0742v389.0283m0-387.9207v1177.2228c0 61.4283 49.4659 109.6259 110.8814 110.8814 497.7117 10.1743 995.6896 15.3252 1493.9396 15.341m.2532-1304.5528h1605.0742v389.0283m0-387.9207v1177.2228c0 61.4283-49.4659 109.6259-110.8814 110.8814-497.7117 10.1743-995.6896 15.3252-1493.9396 15.341" fill="none" opacity=".98" stroke="#f4f4f4" stroke-width="12.6"/><path d="m185.0157 1185.0397 17.9125-242.61158c.7254-8.18269 2.572-19.44892 25.312-20.93378l238.591-9.24141 1500.6275-3.66486m-1604.3648 537.21153-178.0782-260.7599c65.7927-14.8672 148.2773-21.5521 232.1453-27.5589l125.3894.285 1424.9083-11.8042m1782.443 39.0781-17.9125-242.61158c-.7254-8.18269-2.572-19.44892-25.312-20.93378l-238.591-9.24141-1500.6275-3.66486m1604.3648 537.21153 178.0782-260.7599c-65.7927-14.8672-143.6384-22.0564-227.5064-28.0632l-125.3894.285-147.6623-1.7761-275.9803.9101-273.1316-1.1765-136.4812-1.6949-133.6797-1.3526-462.6121-6.2099" fill="none" opacity=".98" stroke="#f4f4f4" stroke-width="12.6"/><path d="m189.3265 1113.0709c46.7474-13.4037 181.077-14.0404 295.4481-17.5865h1481.2788m.8331-130.63607h-1482.1119c-196.3291.74716-232.834 8.49324-284.5739 15.57215m3544.2458 132.65042c-46.7474-13.4037-181.077-14.0404-295.4481-17.5865h-1481.2788m-.8331-130.63607h1482.1119c196.3291.74716 232.834 8.49324 284.5739 15.57215" fill="none" opacity=".98" stroke="#f4f4f4" stroke-width="6.3"/><path d="m326.6908 462.16751h-35.4609c-10.3551 0-18.6916 8.33644-18.6916 18.69157v439.10823m1659.6721-496.62625h-50.1786m-69.8292 0h-50.1663m-69.8293 0h-50.1662m-69.8292 0h-50.1786m-69.8293 0h-50.1662m-69.8292 0h-50.1664m-69.8292 0h-50.1786m-69.8292 0h-50.1662m-69.82937 0h-50.17855m-69.8292 0h-50.16629m-69.8292 0h-50.16639m-69.8292 0h-49.6249m-114.38459 0h-101.96931c-11.3681 0-20.5201 9.68776-20.5201 20.52014v474.29301m3285.7236-455.9867h35.4609c10.3551 0 18.6916 8.33644 18.6916 18.69157v439.10823m-1663.5481-496.62625h50.1663m69.8292 0h50.1787m69.8291 0h50.1664m69.8292 0h50.1663m69.8293 0h50.1786m69.8292 0h50.1663m69.8293 0h50.1662m69.8415 0h50.1664m69.8292 0h50.1664m69.8292 0h50.1786m69.8293 0h50.1663m69.8292 0h50.8676m114.3845 0h104.6024c11.3681 0 20.5201 9.68776 20.5201 20.52014v474.29301" fill="none" opacity=".98" stroke="#f4f4f4" stroke-width="12.6"/><g fill="none" stroke="#f4f4f4" stroke-width="6.3"><path d="m3252.2109 550.45596v-142.16336c0-6.17275 4.9694-11.14215 11.1422-11.14215h47.5454c6.1727 0 11.1421 4.9694 11.1421 11.14215v141.17653" opacity=".98"/><path d="m3132.2109 550.45596v-142.16336c0-6.17275 4.9694-11.14215 11.1422-11.14215h47.5454c6.1727 0 11.1421 4.9694 11.1421 11.14215v141.17653" opacity=".98"/><path d="m3012.2109 550.45596v-142.16336c0-6.17275 4.9694-11.14215 11.1422-11.14215h47.5454c6.1727 0 11.1421 4.9694 11.1421 11.14215v141.17653" opacity=".98"/><path d="m2892.2109 550.45596v-142.16336c0-6.17275 4.9694-11.14215 11.1422-11.14215h47.5454c6.1727 0 11.1421 4.9694 11.1421 11.14215v141.17653" opacity=".98"/><path d="m2772.2109 550.45596v-142.16336c0-6.17275 4.9694-11.14215 11.1422-11.14215h47.5454c6.1727 0 11.1421 4.9694 11.1421 11.14215v141.17653" opacity=".98"/><path d="m2652.2109 550.45596v-142.16336c0-6.17275 4.9694-11.14215 11.1422-11.14215h47.5454c6.1727 0 11.1421 4.9694 11.1421 11.14215v141.17653" opacity=".98"/><path d="m2532.2109 550.45596v-142.16336c0-6.17275 4.9694-11.14215 11.1422-11.14215h47.5454c6.1727 0 11.1421 4.9694 11.1421 11.14215v141.17653" opacity=".98"/><path d="m2412.2109 550.45596v-142.16336c0-6.17275 4.9694-11.14215 11.1422-11.14215h47.5454c6.1727 0 11.1421 4.9694 11.1421 11.14215v141.17653" opacity=".98"/><path d="m2292.2109 550.45596v-142.16336c0-6.17275 4.9694-11.14215 11.1422-11.14215h47.5454c6.1727 0 11.1421 4.9694 11.1421 11.14215v141.17653" opacity=".98"/><path d="m2172.2109 550.45596v-142.16336c0-6.17275 4.9694-11.14215 11.1422-11.14215h47.5454c6.1727 0 11.1421 4.9694 11.1421 11.14215v141.17653" opacity=".98"/><path d="m2052.2109 550.45596v-142.16336c0-6.17275 4.9694-11.14215 11.1422-11.14215h47.5454c6.1727 0 11.1421 4.9694 11.1421 11.14215v141.17653" opacity=".98"/><path d="m1932.2109 550.45596v-142.16336c0-6.17275 4.9694-11.14215 11.1422-11.14215h47.5454c6.1727 0 11.1421 4.9694 11.1421 11.14215v141.17653" opacity=".98"/><path d="m1812.2109 550.45596v-142.16336c0-6.17275 4.9694-11.14215 11.1422-11.14215h47.5454c6.1727 0 11.1421 4.9694 11.1421 11.14215v141.17653" opacity=".98"/><path d="m1692.2109 550.45596v-142.16336c0-6.17275 4.9694-11.14215 11.1422-11.14215h47.5454c6.1727 0 11.1421 4.9694 11.1421 11.14215v141.17653" opacity=".98"/><path d="m1572.2109 550.45596v-142.16336c0-6.17275 4.9694-11.14215 11.1422-11.14215h47.5454c6.1727 0 11.1421 4.9694 11.1421 11.14215v141.17653" opacity=".98"/><path d="m1452.2109 550.45596v-142.16336c0-6.17275 4.9694-11.14215 11.1422-11.14215h47.5454c6.1727 0 11.1421 4.9694 11.1421 11.14215v141.17653" opacity=".98"/><path d="m1332.2109 550.45596v-142.16336c0-6.17275 4.9694-11.14215 11.1422-11.14215h47.5454c6.1727 0 11.1421 4.9694 11.1421 11.14215v141.17653" opacity=".98"/><path d="m1212.2109 550.45596v-142.16336c0-6.17275 4.9694-11.14215 11.1422-11.14215h47.5454c6.1727 0 11.1421 4.9694 11.1421 11.14215v141.17653" opacity=".98"/><path d="m1092.2109 550.45596v-142.16336c0-6.17275 4.9694-11.14215 11.1422-11.14215h47.5454c6.1727 0 11.1421 4.9694 11.1421 11.14215v141.17653" opacity=".98"/><path d="m972.2109 550.45596v-142.16336c0-6.17275 4.9694-11.14215 11.1422-11.14215h47.5454c6.1727 0 11.1421 4.9694 11.1421 11.14215v141.17653" opacity=".98"/><path d="m852.2109 550.45596v-142.16336c0-6.17275 4.9694-11.14215 11.1422-11.14215h47.5454c6.1727 0 11.1421 4.9694 11.1421 11.14215v141.17653" opacity=".98"/><path d="m732.2109 550.45596v-142.16336c0-6.17275 4.9694-11.14215 11.1422-11.14215h47.5454c6.1727 0 11.1421 4.9694 11.1421 11.14215v141.17653" opacity=".98"/><path d="m612.2109 550.45596v-142.16336c0-6.17275 4.9694-11.14215 11.1422-11.14215h47.5454c6.1727 0 11.1421 4.9694 11.1421 11.14215v141.17653" opacity=".98"/><path d="m448.21089 550.45596v-142.16336c0-6.17275 8.14015-11.14215 18.25154-11.14215h77.88202c10.11122 0 18.25138 4.9694 18.25138 11.14215v141.17653" opacity=".98"/><path d="m3372.9065 550.45596v-142.16336c0-6.17275 8.1402-11.14215 18.2516-11.14215h77.882c10.1111 0 18.2513 4.9694 18.2513 11.14215v141.17653" opacity=".98"/></g><path d="m1967.737 549.20355h-1594.63239c-8.494 0-15.3321 6.83812-15.3321 15.3321v352.50712m1609.96449-367.83922h1594.6324c8.494 0 15.3321 6.83812 15.3321 15.3321v352.50712" fill="none" opacity=".98" stroke="#f4f4f4" stroke-width="12.6"/><path d="m2112.182 548.91011v209.54172c0 6.17273-4.9694 11.1421-11.1421 11.1421h-962.4999c-6.1727 0-11.1421-4.96937-11.1421-11.1421v-208.87062" fill="none" opacity=".98" stroke="#f4f4f4" stroke-width="6.3"/><path d="m1701.4894 768.10115v63.68661c0 6.17272-4.9694 11.1421-11.1421 11.1421h-142.0315c-6.1727 0-11.1421-4.96938-11.1421-11.1421v-62.18126" fill="none" opacity=".98" stroke="#f4f4f4" stroke-width="6.3"/><g fill="none" stroke="#f4f4f4" stroke-linecap="round" stroke-width="6.3"><path d="m3523.0688 1098.0437 3.4986 56.3166-14.6373 23.1411" opacity=".98"/><path d="m3386.3536 1096.0714 2.1906 60.8188-12.3534 21.3397" opacity=".98"/><path d="m3247.9982 1095.9443 1.5113 60.596-10.243 22.1133" opacity=".98"/><path d="m3110.057 1098.8487 1.7286 58.6716-10.8786 20.7984" opacity=".98"/><path d="m2972.9317 1098.3034 1.7396 57.6997-9.8795 22.9047" opacity=".98"/><path d="m2835.257 1098.8979 2.1647 55.7002-8.1587 25.3581" opacity=".98"/><path d="m2699.791 1099.0179 1.0843 55.7441-6.5313 25.0394" opacity=".98"/><path d="m2563.7143 1098.0437.9857 51.884-4.4612 28.6482" opacity=".98"/><path d="m2428.2891 1098.0437.017 50.2681-1.9618 31.5959" opacity=".98"/><path d="m2291.7407 1099.418.5161 49.2263-.5779 30.0804" opacity=".98"/><path d="m2156.7298 1099.4644.3305 49.1257-.574 28.6289" opacity=".98"/><path d="m3441.3099 1302.7593 14.5222-26.1811" opacity=".98"/><path d="m3311.1851 1302.3301 12.4816-24.7159" opacity=".98"/><path d="m3180.9624 1301.0194 10.7949-23.1578" opacity=".98"/><path d="m3050.2526 1302.9411 9.2928-24.2198" opacity=".98"/><path d="m2919.8357 1300.0831 8.4865-20.9476" opacity=".98"/><path d="m2790.8618 1300.608 6.4158-20.7727" opacity=".98"/><path d="m2661.5179 1302.4654 6.7123-26.8071" opacity=".98"/><path d="m2534.2621 1299.3901 3.8147-20.107" opacity=".98"/><path d="m2404.1158 1300.243 3.0575-21.2141" opacity=".98"/><path d="m2276.7961 1298.8516 1.5321-21.3986" opacity=".98"/><path d="m2148.7817 1296.9108-.3664-19.149" opacity=".98"/></g><path d="m2413.5832 1253.8566 8.2595-53.3858m254.3146 54.3548 13.6707-53.9092m268.4746 2.139c-4.507 19.4843-11.605 33.0556-16.9865 50.7848m289.0573-52.1734c-7.7508 20.4905-13.9691 34.1312-21.1293 52.0299m-1069.0983-52.4467h1380.049l-26.6882 53.1903h-1353.3608z" fill="none" opacity=".98" stroke="#f4f4f4" stroke-linecap="round" stroke-width="6.3"/><rect fill="#f4f4f4" height="26.21451" opacity=".98" rx=".788641" width="248.66315" x="2153.8928" y="1214.8583"/><g stroke-linecap="round"><path d="m2432.2874 1213.6404 241.7726.8873-7.0142 26.5373-238.5658-.073z" fill="#f4f4f4" opacity=".98" stroke-width="7.55906"/><path d="m2698.9708 1214.1161 243.5224.6819-9.1341 25.9961-241.213-.051z" fill="#f4f4f4" opacity=".98" stroke-width="7.55906"/><path d="m2967.934 1214.1409 245.0095.4555-11.8829 25.9493-242.1372-.1503z" fill="#f4f4f4" opacity=".98" stroke-width="7.55906"/><path d="m3243.2998 1213.5933 254.0078.096-15.758 26.671-250.6444.1586z" fill="#f4f4f4" opacity=".98" stroke-width="7.55906"/><path d="m3158.0111 622.87285 67.4587-.6398.4688 34.27496-20.1161 1.19166.7731 28.88302 20.7734-.1614 1.0902 34.27689-20.2283.0715 2.6327 81.53931-45.3595.20393z" fill="none" opacity=".98" stroke="#f4f4f4" stroke-width="6.3"/><path d="m3240.9875 625.24457 6.6552 173.14249 67.4007-.40398c11.2325-1.75858 18.6774-8.158 20.8333-21.03816l-5.3717-122.3341c-1.2351-13.01778-3.0991-29.65524-29.5923-29.45903z" fill="none" opacity=".98" stroke="#f4f4f4" stroke-width="6.3"/><path d="m3280.2582 653.62599c9.4887-1.29285 15.6793 3.93658 15.9794 8.77727l4.873 96.49979c.5414 6.40699-6.0662 12.19571-16.1331 11.36064z" fill="none" opacity=".98" stroke="#f4f4f4" stroke-width="6.3"/><path d="m3349.5291 624.31192 7.6797 173.48946 67.8346.1817c9.9751-2.2766 18.7459-7.58217 19.6996-21.82873l-6.1072-121.63341c-1.2351-13.01778-3.1822-27.87693-27.5201-30.05051z" fill="none" opacity=".98" stroke="#f4f4f4" stroke-width="6.3"/><path d="m3389.0617 653.17948c7.8687-.83626 13.9856 3.30544 15.3077 9.22378l5.4075 96.49979c.435 5.91409-4.7403 11.16062-15.7813 10.77109z" fill="none" opacity=".98" stroke="#f4f4f4" stroke-width="6.3"/><path d="m3541.1735 708.93614-30.3223 18.90349-30.3224 18.90349-1.2097-35.71168-1.2097-35.71167 31.5321 16.80818z" fill="none" opacity=".98" stroke="#f4f4f4" stroke-width="6.33927" transform="matrix(.83015782 -.02027126 .02003066 1.1892218 577.91615 -61.669466)"/><path d="m924.81354 1170.6924h1004.6374v91.411438h-1004.6374z" fill="none" opacity=".98" stroke="#f4f4f4" stroke-width="6.3"/><path d="m1078.5154 1212.9154h407.39322v49.131027h-407.39322z" fill="none" opacity=".98" stroke="#f4f4f4" stroke-width="6.3"/><path d="m1078.5154 1212.9154h583.93433v49.131027h-583.93433z" fill="none" opacity=".98" stroke="#f4f4f4" stroke-width="6.3"/></g><g fill="#f4f4f4"><ellipse cx="1384.4442" cy="1227.2867" opacity=".98" rx="5.610235" ry="5.61023"/><ellipse cx="1412.4442" cy="1227.2867" opacity=".98" rx="5.610235" ry="5.61023"/><ellipse cx="1436.4442" cy="1227.2867" opacity=".98" rx="5.610235" ry="5.61023"/><ellipse cx="1464.4442" cy="1227.2867" opacity=".98" rx="5.610235" ry="5.61023"/><ellipse cx="1384.4442" cy="1247.2867" opacity=".98" rx="5.610235" ry="5.61023"/><ellipse cx="1412.4442" cy="1247.2867" opacity=".98" rx="5.610235" ry="5.61023"/><ellipse cx="1436.4442" cy="1247.2867" opacity=".98" rx="5.610235" ry="5.61023"/><ellipse cx="1464.4442" cy="1247.2867" opacity=".98" rx="5.610235" ry="5.61023"/></g><g fill="none" stroke="#f4f4f4" stroke-linecap="round" stroke-width="6.3" transform="translate(-6)"><path d="m1122.2325 1186.344 4.813 14.9958" opacity=".98"/><path d="m1139.4816 1186.344 4.813 14.9958" opacity=".98"/><path d="m1156.2325 1186.344 4.813 14.9958" opacity=".98"/><path d="m1173.4816 1186.344 4.813 14.9958" opacity=".98"/><path d="m1190.2325 1186.344 4.813 14.9958" opacity=".98"/><path d="m1207.4816 1186.344 4.813 14.9958" opacity=".98"/><path d="m1224.2325 1186.344 4.813 14.9958" opacity=".98"/><path d="m1241.4816 1186.344 4.813 14.9958" opacity=".98"/><path d="m1257.3762 1186.344 4.813 14.9958" opacity=".98"/><path d="m1274.6253 1186.344 4.813 14.9958" opacity=".98"/></g><circle cx="995.28424" cy="1201.8174" fill="none" opacity=".98" r="11.110235" stroke="#f4f4f4" stroke-linecap="round" stroke-width="6.3"/><path d="m1952.1317 1178.9646h29.495497v74.223961h-29.495497z" fill="none" opacity=".98" stroke="#f4f4f4" stroke-linecap="round" stroke-width="6.3"/><path d="m1722.6793 1212.9154h150.19058v49.659489h-150.19058z" fill="none" opacity=".98" stroke="#f4f4f4" stroke-linecap="round" stroke-width="6.3"/><path d="m1842.9314 1262.3758v-49.4604" fill="none" opacity=".98" stroke="#f4f4f4" stroke-linecap="round" stroke-width="6.3"/><path d="m1745.7248 1252.1225v-31.0461" fill="#f4f4f4" opacity=".98"/><g fill="#f4f4f4"><ellipse cx="1778.4442" cy="1227.2867" opacity=".98" rx="5.610235" ry="5.61023"/><ellipse cx="1804.4442" cy="1227.2867" opacity=".98" rx="5.610235" ry="5.61023"/><ellipse cx="1828.4442" cy="1227.2867" opacity=".98" rx="5.610235" ry="5.61023"/><ellipse cx="1778.4442" cy="1247.2867" opacity=".98" rx="5.610235" ry="5.61023"/><ellipse cx="1804.4442" cy="1247.2867" opacity=".98" rx="5.610235" ry="5.61023"/><ellipse cx="1828.4442" cy="1247.2867" opacity=".98" rx="5.610235" ry="5.61023"/></g><path d="m3667.5638 1303.7764h-3402.83065" fill="none" opacity=".98" stroke="#f4f4f4" stroke-linecap="round" stroke-width="6.3"/></g><g fill="none" stroke="#f4f4f4" stroke-linecap="round" stroke-width="12.6"><g><rect height="116.22047" opacity=".98" rx="13.831994" width="116.22047" x="2854.14885" y="1503.29908"/><rect height="116.22047" opacity=".98" rx="13.831994" width="116.22047" x="2700.14885" y="1503.29908"/><rect height="116.22047" opacity=".98" rx="13.831994" width="116.22047" x="3164.14885" y="1503.29908"/><rect height="116.22047" opacity=".98" rx="13.831994" width="116.22047" x="3010.14885" y="1503.29908"/><rect height="116.22047" opacity=".98" rx="13.831994" width="116.22047" x="2854.14885" y="1349.29908"/><rect height="116.22047" opacity=".98" rx="13.831994" width="116.22047" x="2700.14885" y="1349.29908"/><rect height="116.22047" opacity=".98" rx="13.831994" width="116.22047" x="3164.14885" y="1349.29908"/><rect height="116.22047" opacity=".98" rx="13.831994" width="116.22047" x="3010.14885" y="1349.29908"/><rect height="116.22047" opacity=".98" rx="13.831994" width="116.22047" x="2854.14885" y="1195.29908"/><rect height="116.22047" opacity=".98" rx="13.831994" width="116.22047" x="2700.14885" y="1195.29908"/><rect height="116.22047" opacity=".98" rx="13.831994" width="116.22047" x="3164.14885" y="1195.29908"/><rect height="116.22047" opacity=".98" rx="13.831994" width="116.22047" x="3010.14885" y="1195.29908"/><rect height="116.22047" opacity=".98" rx="13.831994" width="116.22047" x="2854.14885" y="1041.29908"/><rect height="116.22047" opacity=".98" rx="13.831994" width="116.22047" x="2700.14885" y="1041.29908"/><rect height="116.22047" opacity=".98" rx="13.831994" width="116.22047" x="3164.14885" y="1041.29908"/><rect height="116.22047" opacity=".98" rx="13.831994" width="116.22047" x="3010.14885" y="1041.29908"/></g><g><rect height="116.22047" opacity=".98" rx="13.831994" width="116.22047" x="836.14894" y="1861.29908"/><rect height="116.22047" opacity=".98" rx="13.831994" width="116.22047" x="682.14894" y="1861.29908"/><rect height="116.22047" opacity=".98" rx="13.831993" ry="13.831994" width="232.22049" x="2376.14885" y="1861.29908"/><rect height="116.22047" opacity=".98" rx="13.831994" width="116.22047" x="2222.14885" y="1861.29908"/><rect height="116.22047" opacity=".98" rx="13.831994" width="1194.2203" x="990.14895" y="1861.29908"/></g><g><rect height="116.22047" opacity=".98" rx="13.831994" width="116.22047" x="1606.14895" y="1707.29908"/><rect height="116.22047" opacity=".98" rx="13.831994" width="116.22047" x="1452.14895" y="1707.29908"/><rect height="116.22047" opacity=".98" rx="13.831994" width="116.22047" x="1298.14895" y="1707.29908"/><rect height="116.22047" opacity=".98" rx="13.831994" width="116.22047" x="1144.14895" y="1707.29908"/><rect height="116.22047" opacity=".98" rx="13.831994" width="116.22047" x="990.14895" y="1707.29908"/><rect height="116.22047" opacity=".98" rx="13.831994" width="116.22047" x="836.14894" y="1707.29908"/><rect height="116.22047" opacity=".98" rx="13.831994" width="116.22047" x="682.14894" y="1707.29908"/><rect height="116.22047" opacity=".98" rx="13.831995" ry="13.831994" width="310.22046" x="334.14894" y="1707.29908"/><rect height="116.22047" opacity=".98" rx="13.831993" ry="13.831994" width="232.22049" x="2376.14885" y="1707.29908"/><rect height="116.22047" opacity=".98" rx="13.831994" width="116.22047" x="2222.14885" y="1707.29908"/><rect height="116.22047" opacity=".98" rx="13.831994" width="116.22047" x="2068.14885" y="1707.29908"/><rect height="116.22047" opacity=".98" rx="13.831994" width="116.22047" x="1914.14885" y="1707.29908"/><rect height="116.22047" opacity=".98" rx="13.831994" width="116.22047" x="1760.14885" y="1707.29908"/></g><g transform="translate(-178.75835 -393.37092)"><rect height="116.22047" opacity=".98" rx="13.831994" width="116.22047" x="1708.9073" y="1946.67"/><rect height="116.22047" opacity=".98" rx="13.831994" width="116.22047" x="1554.9073" y="1946.67"/><rect height="116.22047" opacity=".98" rx="13.831994" width="116.22047" x="1400.9073" y="1946.67"/><rect height="116.22047" opacity=".98" rx="13.831994" width="116.22047" x="1246.9073" y="1946.67"/><rect height="116.22047" opacity=".98" rx="13.831994" width="116.22047" x="1092.9073" y="1946.67"/><rect height="116.22047" opacity=".98" rx="13.831994" width="116.22047" x="938.90729" y="1946.67"/><rect height="116.22047" opacity=".98" rx="13.831994" width="116.22047" x="784.90729" y="1946.67"/><rect height="116.22047" opacity=".98" rx="13.831994" width="234.22046" x="512.90729" y="1946.67"/><path d="m2787.1277 1960.502v88.5565c0 7.6629-6.1691 13.832-13.832 13.832h-126.5565c-7.6629 0-13.832-6.1691-13.832-13.832v-94.5565l-.4081-47.6115h-21.7596c-7.663 0-13.832-6.1691-13.832-13.832v-88.5565c0-7.6629 6.169-13.832 13.832-13.832h162.5565c7.6629 0 13.832 6.1691 13.832 13.832v88.5565z" opacity=".98"/><rect height="116.22047" opacity=".98" rx="13.831994" width="116.22047" x="2478.9072" y="1946.67"/><rect height="116.22047" opacity=".98" rx="13.831994" width="116.22047" x="2324.9072" y="1946.67"/><rect height="116.22047" opacity=".98" rx="13.831994" width="116.22047" x="2170.9072" y="1946.67"/><rect height="116.22047" opacity=".98" rx="13.831994" width="116.22047" x="2016.9072" y="1946.67"/><rect height="116.22047" opacity=".98" rx="13.831994" width="116.22047" x="1862.9072" y="1946.67"/></g><g><rect height="116.22047" opacity=".98" rx="13.831994" width="116.22047" x="1494.14895" y="1397.29908"/><rect height="116.22047" opacity=".98" rx="13.831994" width="116.22047" x="1340.14895" y="1397.29908"/><rect height="116.22047" opacity=".98" rx="13.831994" width="116.22047" x="1186.14895" y="1397.29908"/><rect height="116.22047" opacity=".98" rx="13.831994" width="116.22047" x="1032.14895" y="1397.29908"/><rect height="116.22047" opacity=".98" rx="13.831994" width="116.22047" x="878.14895" y="1397.29908"/><rect height="116.22047" opacity=".98" rx="13.831994" width="116.22047" x="724.14894" y="1397.29908"/><rect height="116.22047" opacity=".98" rx="13.831994" width="116.22047" x="570.14894" y="1397.29908"/><rect height="116.22047" opacity=".98" rx="13.831993" ry="13.831994" width="198.22047" x="334.14894" y="1397.29908"/><rect height="116.22047" opacity=".98" rx="13.831994" width="116.22047" x="2264.14885" y="1397.29908"/><rect height="116.22047" opacity=".98" rx="13.831994" width="116.22047" x="2110.14885" y="1397.29908"/><rect height="116.22047" opacity=".98" rx="13.831994" width="116.22047" x="1956.14885" y="1397.29908"/><rect height="116.22047" opacity=".98" rx="13.831994" width="116.22047" x="1802.14885" y="1397.29908"/><rect height="116.22047" opacity=".98" rx="13.831994" width="116.22047" x="1648.14885" y="1397.29908"/></g><g><rect height="116.22047" opacity=".98" rx="13.831994" width="116.22047" x="1568.14895" y="1245.29908"/><rect height="116.22047" opacity=".98" rx="13.831994" width="116.22047" x="1414.14895" y="1245.29908"/><rect height="116.22047" opacity=".98" rx="13.831994" width="116.22047" x="1260.14895" y="1245.29908"/><rect height="116.22047" opacity=".98" rx="13.831994" width="116.22047" x="1106.14895" y="1245.29908"/><rect height="116.22047" opacity=".98" rx="13.831994" width="116.22047" x="952.14895" y="1245.29908"/><rect height="116.22047" opacity=".98" rx="13.831994" width="116.22047" x="798.14894" y="1245.29908"/><rect height="116.22047" opacity=".98" rx="13.831994" width="116.22047" x="644.14894" y="1245.29908"/><rect height="116.22047" opacity=".98" rx="13.831994" width="116.22047" x="490.14894" y="1245.29908"/><rect height="116.22047" opacity=".98" rx="13.831994" width="116.22047" x="2338.14885" y="1245.29908"/><rect height="116.22047" opacity=".98" rx="13.831994" width="116.22047" x="2184.14885" y="1245.29908"/><rect height="116.22047" opacity=".98" rx="13.831994" width="116.22047" x="2030.14885" y="1245.29908"/><rect height="116.22047" opacity=".98" rx="13.831994" width="116.22047" x="1876.14885" y="1245.29908"/><rect height="116.22047" opacity=".98" rx="13.831994" width="116.22047" x="1722.14885" y="1245.29908"/><rect height="116.22047" opacity=".98" rx="13.831994" width="116.22047" x="334.14894" y="1245.29908"/><rect height="116.22047" opacity=".98" rx="13.831994" width="116.22047" x="2492.14885" y="1245.29908"/></g><g><path d="m1486.36075 1115.41558h183.68767v62.530739h-183.68767z" opacity=".98"/><path d="m1690.36075 1115.41558h183.68767v62.530739h-183.68767z" opacity=".98"/><path d="m1944.36075 1115.41558h183.68767v62.530739h-183.68767z" opacity=".98"/><path d="m2148.36075 1115.41558h183.68767v62.530739h-183.68767z" opacity=".98"/><path d="m1028.36075 1115.41558h183.68767v62.530739h-183.68767z" opacity=".98"/><path d="m1232.36075 1115.41558h183.68767v62.530739h-183.68767z" opacity=".98"/><path d="m620.36073 1115.41558h183.68767v62.530739h-183.68767z" opacity=".98"/><path d="m824.36075 1115.41558h183.68767v62.530739h-183.68767z" opacity=".98"/><path d="m416.36073 1115.41558h183.68767v62.530739h-183.68767z" opacity=".98"/><path d="m2352.36075 1115.41558h183.68767v62.530739h-183.68767z" opacity=".98"/></g><g transform="translate(-178.75835 -393.37092)"><path d="m3070.6152 2093.9941c-7.6629 0-13.832 6.1691-13.832 13.8321v83.123h-169.5703c-7.6629 0-13.832 6.1691-13.832 13.832v178.0665c0 7.6629 6.1691 13.832 13.832 13.832h169.5703v83.123c0 7.663 6.1691 13.8321 13.832 13.8321h178.0664c7.663 0 13.8321-6.1691 13.8321-13.8321v-83.123h169.5703c7.6629 0 13.832-6.1691 13.832-13.832v-178.0665c0-7.6629-6.1691-13.832-13.832-13.832h-169.5703v-83.123c0-7.663-6.1691-13.8321-13.8321-13.8321z" opacity=".98" stroke-width="12.6"/><g stroke-width="6.3"><path d="m3056.7832 2190.9492v24.3119l70.6657 68.6657h48.2478l86.4205-68.4958.3965-24.4818" opacity=".98"/><path d="m3262.5137 2396.6797v-23.3956l-86.817-75.0958-48.2478.5949-70.819 73.6316.1533 24.2649" opacity=".98"/><path d="m3036.0434 2396.7374v-23.7044l77.82-82.0666-77.82-75.0864v-24.5395" opacity=".98"/><path d="m3283.2651 2190.8197v23.6538l-93.2232 76.4929 93.2232 81.386v24.3522" opacity=".98"/><path d="m3036.4296 2372.8491h-22.1086c-41.8335 0-75.5117-33.6654-75.5117-75.4828v-7.2282c0-41.8175 33.6782-75.4828 75.5117-75.4828h21.7223m246.9672 0h15.9105c41.8336 0 75.5118 33.6653 75.5118 75.4828v7.2282c0 41.8174-33.6782 75.4828-75.5118 75.4828h-14.8724" opacity=".98"/></g><path d="m3140.4162 2180.2368 9.4671-16.3974 9.4671-16.3975 9.4671 16.3975 9.4671 16.3974" opacity=".98" stroke-width="6.5172" transform="matrix(2.5142348 0 0 1.4866671 -4783.9982 -1045.8107)"/><path d="m3111.7455 2397.2602 23.8025 24.3775 23.8025 24.3776 23.8025-24.3776 23.8025-24.3775" opacity=".98" stroke-width="12.6"/><path d="m3383.099 2347.117 24.3775-23.8025 24.3776-23.8025-24.3776-23.8025-24.3775-23.8025" opacity=".98" stroke-width="12.6"/><path d="m2935.6022 2347.117-24.3775-23.8025-24.3776-23.8025 24.3776-23.8025 24.3775-23.8025" opacity=".98" stroke-width="12.6"/></g></g></svg>