<svg height="186.92937" viewBox="0 0 326.2162 224.31524" width="271.84683" xmlns="http://www.w3.org/2000/svg"><g transform="translate(-137.59179 -312.058)"><text fill="#ef00eb" font-family="TrasksHand" font-size="2.4" stroke="#0105ff" stroke-width="3" x="202.27208" y="368.60043"><tspan fill="#fafafa" fill-opacity=".4" font-size="2.4" stroke="none" stroke-width="3" x="202.27208" y="368.60043">John Loreth 2022</tspan></text><g><g fill="#f4f4f4"><path d="m352.23743 410.27237.51243.88756h-1.02487z" transform="matrix(3.9029463 0 0 2.8167089 -1022.5263 -745.6484)"/><path d="m352.23743 410.27237.51243.88756h-1.02487z" transform="matrix(-3.9029463 0 0 -2.8167089 1727.0012 1601.1315)"/><path d="m352.23743 410.27237.51243.88756h-1.02487z" transform="matrix(0 -3.9029463 2.8167089 0 -821.43047 1802.6107)"/><path d="m352.23743 410.27237.51243.88756h-1.02487z" transform="matrix(0 -3.9029463 -2.8167089 0 1526.1713 1802.6107)"/><path d="m352.23743 410.27237.51243.88756h-1.02487z" transform="matrix(2.7597998 -2.7597998 -1.991714 -1.991714 214.25595 2233.9907)"/><path d="m352.23743 410.27237.51243.88756h-1.02487z" transform="matrix(-2.7597998 -2.7597998 -1.991714 1.991714 2158.4655 565.34317)"/><path d="m352.23743 410.27237.51243.88756h-1.02487z" transform="matrix(-2.7597998 2.7597998 1.991714 1.991714 490.43471 -1378.0568)"/><path d="m352.23743 410.27237.51243.88756h-1.02487z" transform="matrix(-2.7597998 -2.7597998 1.991714 -1.991714 490.25765 2233.7386)"/></g><g fill="none" stroke="#f4f4f4"><g stroke-width="1.16667" transform="matrix(1.2 0 0 1.2 137.59179 312.058)"><path d="m161.88548 3.8244361-.00001 27.8375809c0 .585875-.41598 1.057533-.9327 1.057533-.51671 0-.9327-.471658-.9327-1.057533v-27.8375813"/><path d="m166.17884 3.8244361v27.8375809c0 .585875-.41598 1.057533-.9327 1.057533s-.93271-.471658-.93271-1.057533v-27.8375813"/><path d="m170.21881 3.8244361v27.8375809c0 .585875-.41599 1.057533-.9327 1.057533-.51672 0-.9327-.471658-.9327-1.057533v-27.8375813"/><path d="m174.51218 3.8244361-.00001 27.8375809c0 .585875-.41598 1.057533-.9327 1.057533-.51671 0-.9327-.471658-.9327-1.057533v-27.8375813"/><path d="m178.55214 3.8244361v27.8375809c0 .585875-.41598 1.057533-.9327 1.057533s-.9327-.471658-.9327-1.057533v-27.8375813"/><path d="m182.84551 3.8244361v27.8375809c0 .585875-.41599 1.057533-.9327 1.057533-.51672 0-.93271-.471658-.93271-1.057533v-27.8375813"/><path d="m186.88548 3.8244361-.00001 27.8375809c0 .585875-.41598 1.057533-.9327 1.057533-.51671 0-.9327-.471658-.9327-1.057533v-27.8375813"/><path d="m191.17884 3.8244361v27.8375809c0 .585875-.41598 1.057533-.9327 1.057533s-.93271-.471658-.93271-1.057533v-27.8375813"/><path d="m195.21881 3.8244361v27.8375809c0 .585875-.41599 1.057533-.9327 1.057533-.51672 0-.9327-.471658-.9327-1.057533v-27.8375813"/><path d="m199.51218 3.8244361-.00001 27.8375809c0 .585875-.41598 1.057533-.9327 1.057533-.51671 0-.9327-.471658-.9327-1.057533v-27.8375813"/><path d="m203.55214 3.8244361v27.8375809c0 .585875-.41598 1.057533-.9327 1.057533s-.9327-.471658-.9327-1.057533v-27.8375813"/><path d="m207.84551 3.8244361v27.8375809c0 .585875-.41599 1.057533-.9327 1.057533-.51672 0-.93271-.471658-.93271-1.057533v-27.8375813"/></g><path d="m270.85149 316.89744h-126.06692c-3.2092 0-5.79278 2.58358-5.79278 5.79278v146.85727c0 3.2092 2.58358 5.79278 5.79278 5.79278h126.22227m-.0309-158.44284h126.06692c3.2092 0 5.79278 2.58358 5.79278 5.79278v146.85727c0 3.2092-2.58358 5.79278-5.79278 5.79278h-126.22226" stroke-width="2.8"/><path d="m270.93369 320.9777h-125.72717c-1.2752 0-2.30179 1.0266-2.30179 2.30179v145.68809c0 1.2752 1.02659 2.30179 2.30179 2.30179h125.66718m.0201-150.29168h58.60961m57.60456 0h9.513c1.2752 0 2.30179 1.0266 2.30179 2.30179v145.68809c0 1.2752-1.02659 2.30179-2.30179 2.30179h-125.66723" stroke-width="1.4"/><path d="m270.94413 371.71845h-105.16999c-3.41618 0-6.1664 2.75022-6.1664 6.1664v93.54043m111.27557-99.70684h105.16999c3.41618 0 6.1664 2.75022 6.1664 6.1664v93.54043" stroke-width="1.4"/><rect height="68.202759" rx="1.59581" stroke-width="1.4" width="160.26019" x="168.60582" y="379.32507"/><rect height="39.521721" rx="1.59581" stroke-width=".999998" width="40.616634" x="332.39825" y="408.30194"/><rect height="26.131739" rx="1.595813" width="40.133411" x="332.11661" y="378.83948"/></g><path d="m348.55115 393.72363h6.961648v2.093769h-6.961648z" fill="#f4f4f4" fill-opacity=".97709"/><g fill="none" stroke="#f4f4f4"><path d="m402.50268 358.77221c9.08498.54019 18.74045.61777 25.41929 3.10913 4.33381-2.61368 8.68358-5.0566 13.13069-6.4581h3.76972v-10.10996h-4.02901c-4.57562-1.40879-8.40264-3.80146-12.05169-6.42804-5.29079.80409-11.78948 1.62261-25.90604 2.53221z" stroke-width="1.4"/><path d="m444.76367 347.99414v4h6.00195c2.17845.0749 3.56309.4266 4.35938.81641.79629.3898 1.05588.73399 1.2793 1.23632.43279.97309.26948 2.90686.51953 5.17774l2.18359 109.74023c.008.97995-.34156 1.56911-1.01172 2.11524-.67067.54655-1.71555.93285-2.76758.99414-1.05202.0613-2.06294-.2033-2.69531-.64649-.63236-.44318-.99825-.9497-1.02734-2.0625l-1.85938-91.9375-.0117-.0996c-.25088-2.06037-1.4693-3.72971-2.98242-4.71289-1.51311-.98317-3.29744-1.39097-5.05664-1.31836-1.75919.0726-3.53584.63311-4.94922 1.84766-1.41337 1.21455-2.35487 3.15042-2.3164 5.36914v.002l1.81445 91.72266c.0231 1.16502-.28538 1.53289-.83594 1.89844s-1.53884.58728-2.60937.47656-2.17309-.54732-2.85938-1.0957c-.68628-.54838-.94784-1.04053-.91797-1.70117l.004-.0586-1.27344-91.11328c.0127-2.27496-1.00181-4.24202-2.49414-5.44531-1.49233-1.2033-3.36302-1.71801-5.20703-1.65625-1.84401.0618-3.71452.70825-5.17773 2.04297-1.46322 1.33472-2.42764 3.39018-2.4336 5.80078v.0195l1.99414 112.71875c-.0399 2.68385-.67901 4.62446-1.79101 5.89648-1.1117 1.27168-2.79141 2.09023-5.63672 2.19922l-74.86719.16016.008 4 74.96485-.16016.0351-.002c3.62094-.136 6.57902-1.35809 8.50782-3.56445 1.92879-2.20636 2.73385-5.18002 2.78125-8.48047v-.0312l-1.9961-112.7461v-.004c.005-1.42315.46389-2.24494 1.12891-2.85156.66575-.60729 1.6286-.96696 2.61523-1 .98664-.0331 1.94224.26978 2.56446.77148.62221.5017 1.01052 1.12616 1.0039 2.30859v.0215l1.27149 91.11133.002-.11914c-.094 2.07876 1.00231 3.87663 2.41797 5.00781s3.16077 1.76485 4.94336 1.94922c1.78259.18436 3.65332-.0726 5.23242-1.1211 1.5791-1.04846 2.67032-3.02979 2.625-5.3125l-1.81445-91.71875c-.0186-1.15706.33642-1.75667.92187-2.25976.58667-.50414 1.51357-.8456 2.50977-.88672.9962-.0411 2.01854.22461 2.71289.67578.68494.44505 1.06814.96807 1.17969 1.8125l1.85156 91.68164v.006c.0587 2.24421 1.18276 4.14831 2.73242 5.23437 1.54966 1.08607 3.41398 1.47061 5.22266 1.36524 1.80867-.10538 3.60938-.70253 5.0625-1.88672s2.50417-3.0742 2.48437-5.25586v-.01l-2.1875-109.87305-.0117-.0996c-.19084-1.57037.27323-3.99694-.84961-6.52149-.56141-1.26227-1.64536-2.45685-3.17382-3.20507-1.52847-.74822-3.44949-1.13369-5.98047-1.22071l-.0352-.002z" stroke-width="1.4"/><g stroke-width=".7"><path d="m412.76999 340.94896v18.33741"/><path d="m431.75828 341.45074v17.81353"/><path d="m414.76999 340.94896v18.33741"/><path d="m413.83831 340.94896v18.33741"/><path d="m416.76999 340.94896v18.33741"/><path d="m418.76999 340.04291v20.02574"/><path d="m417.83831 340.94896v18.33741"/><path d="m415.85334 340.94896v18.33741"/><path d="m420.76999 340.94896v18.33741"/><path d="m422.76999 340.94896v18.33741"/><path d="m421.83831 340.94896v18.33741"/><path d="m424.76999 340.94896v18.33741"/><path d="m426.76999 340.94896v18.33741"/><path d="m425.83831 340.94896v18.33741"/><path d="m423.85334 340.94896v18.33741"/><path d="m420.76999 340.04291v20.02574"/><path d="m422.76999 340.04291v20.02574"/><path d="m421.83831 340.04291v20.02574"/><path d="m424.76999 339.38968v21.21288"/><path d="m426.76999 339.38967v22.13571"/><path d="m425.83831 339.38968v21.21288"/><path d="m423.85334 339.38968v21.21288"/><path d="m419.72435 340.04291v20.02574"/><path d="m428.76999 338.97246v22.31841"/><path d="m430.76999 340.18406v19.83158"/><path d="m429.83831 340.18406v20.37108"/><path d="m427.85334 339.38967v22.13571"/></g></g><path d="m315.75076 334.34147v19.06521c0 2.57766-2.07516 4.65282-4.65282 4.65282h-78.81789c-2.57767 0-4.65282-2.07516-4.65282-4.65282v-19.12148" fill="none" stroke="#f4f4f4" stroke-width="1.4"/><path d="m227.81558 334.35034h87.882263v19.354656h-87.882263z" fill="none" stroke="#f4f4f4" stroke-width="1.4"/><path d="m227.06969 331.32516h88.77982" fill="none" stroke="#f4f4f4" stroke-width="1.4"/><rect fill="none" height="9.17298" rx="1.59581" stroke="#f4f4f4" stroke-width="2.8" width="26.853037" x="338.41498" y="390.1705"/><path d="m339.29715 414.78714 26.11523 25.51239m-26.11523 0 26.11523-25.51239m-24.41865 0h22.72207c.93991 0 1.69659.75668 1.69659 1.69658v22.11923c0 .9399-.75668 1.69658-1.69659 1.69658h-22.72207c-.9399 0-1.69658-.75668-1.69658-1.69658v-22.11923c0-.9399.75668-1.69658 1.69658-1.69658z" fill="none" stroke="#f4f4f4" stroke-width="2.8"/><g fill="none" stroke="#f4f4f4" stroke-linecap="round" stroke-width="2"><rect height="8.863107" rx=".912146" width="39.88356" x="257.0759" y="427.89508"/><rect height="8.863107" rx=".912146" width="39.88356" x="197.0759" y="427.89508"/><rect height="10.909092" rx=".912146" width="9.544969" x="266.76489" y="390.8638"/><rect height="10.909092" rx=".912146" width="9.544969" x="251.98734" y="390.8638"/><rect height="10.909092" rx=".912146" width="9.544969" x="237.00201" y="390.8638"/><rect height="10.909092" rx=".912146" width="9.544969" x="222.22446" y="390.8638"/><rect height="10.909092" rx=".912146" width="9.544969" x="206.76489" y="390.8638"/><rect height="10.909092" rx=".912146" width="9.544969" x="191.98734" y="390.8638"/><rect height="22" rx=".912146" width="9.544969" x="177.00201" y="390.8638"/><rect height="10.909092" rx=".912146" width="9.544969" x="296.76489" y="390.8638"/><rect height="10.909092" rx=".912146" width="9.544969" x="281.98734" y="390.8638"/><rect height="22" rx=".912146" width="9.544969" x="311.66534" y="390.8638"/><rect height="10.909092" rx=".912146" width="9.544969" x="266.76489" y="406.8638"/><rect height="10.909092" rx=".912146" width="9.544969" x="251.98734" y="406.8638"/><rect height="10.909092" rx=".912146" width="9.544969" x="237.00201" y="406.8638"/><rect height="10.909092" rx=".912146" width="9.544969" x="222.22446" y="406.8638"/><rect height="10.909092" rx=".912146" width="9.544969" x="206.76489" y="406.8638"/><rect height="10.909092" rx=".912146" width="9.544969" x="191.98734" y="406.8638"/><rect height="10.909092" rx=".912146" width="9.544969" x="296.76489" y="406.8638"/><rect height="10.909092" rx=".912146" width="9.544969" x="281.98734" y="406.8638"/></g></g><g fill="none" stroke="#f4f4f4"><rect height="50.448448" rx="10.097357" ry="10.097356" stroke-width="2.8" width="118.96146" x="212.80289" y="484.52478"/><path d="m282.11761 491.55862h36.685841v12.38418h-36.685841z" stroke-width="1.4"/><rect height="42.377064" rx="5.16202" stroke-width="1.4" width="111.6843" x="216.15727" y="488.59171"/><rect height="16.037764" rx="5.16202" stroke-width="1.4" width="10.903246" x="284.51529" y="509.44568"/><rect height="16.037764" rx="5.16202" stroke-width="1.4" width="10.903246" x="304.90033" y="509.44568"/><ellipse cx="241.88638" cy="509.38464" rx="14.499999" ry="14.5" stroke-width="1.4"/><path d="m310.0625 511.60547c-1.70071 0-3.00195 1.30125-3.00195 3.00195v5.71485c0 1.70069 1.30125 3.00195 3.00195 3.00195h.57812c1.70071 0 3.00196-1.30126 3.00196-3.00195v-5.71485c0-1.7007-1.30125-3.00195-3.00196-3.00195z" stroke-width="3.84088" transform="matrix(.729 0 0 .729 84.117557 140.23297)"/><path d="m310.0625 511.60547c-1.70071 0-3.00195 1.30125-3.00195 3.00195v5.71485c0 1.70069 1.30125 3.00195 3.00195 3.00195h.57812c1.70071 0 3.00196-1.30126 3.00196-3.00195v-5.71485c0-1.7007-1.30125-3.00195-3.00196-3.00195z" stroke-width="3.84088" transform="matrix(.729 0 0 .729 63.669183 140.23297)"/><circle cx="241.84207" cy="509.57745" r="5.5" stroke-width="1.4"/><path d="m241.8282 496.56817v5.86821" stroke-linecap="round" stroke-width="1.4"/><path d="m241.8282 516.56817v5.86821" stroke-linecap="round" stroke-width="1.4"/><path d="m254.7623 509.50228h-5.86821" stroke-linecap="round" stroke-width="1.4"/><path d="m234.7623 509.50228h-5.86821" stroke-linecap="round" stroke-width="1.4"/></g></g></svg>