<svg height="350.26" viewBox="0 0 598.189 350.26" width="598.189" xmlns="http://www.w3.org/2000/svg"><g fill="#f4f4f4"><path d="m132.578 118.871-1.493.047c.188 4.141-1.065 14.976-2.543 25.128-1.496 10.275-4.074 43.734 1.983 71.534 3.014 13.837 6.548 27.614 11.176 38.288 4.627 10.673 10.375 18.39 18.059 19.644 7.462 1.219 12.823-1.296 16.705-6.719 3.882-5.422 6.438-13.658 8.913-24.147 4.936-20.932 10.158-44.334 11.246-49.275.493-2.239 2.223-4.853 4.503-6.838 2.28-1.984 5.095-3.331 7.583-3.242l.047-1.471c-3.041-.108-6.128 1.409-8.61 3.57-2.482 2.16-4.375 4.978-4.97 7.676-1.083 4.927-6.336 28.313-11.269 49.229-2.461 10.435-5.013 18.523-8.656 23.612-3.644 5.089-8.212 7.264-15.259 6.113-6.825-1.115-12.388-8.262-16.939-18.76-4.551-10.497-8.076-24.206-11.083-38.007-5.984-27.469-3.424-60.917-1.96-70.974 1.483-10.179 2.774-20.862 2.567-25.408z"/><path d="m224.504 33.524c-.575.016-1.397.154-3.313.351-2.067.212-10.274 1.605-19.389 3.359s-19.028 3.834-24.288 5.437c-5.285 1.61-11.05 4.629-15.632 7.35-2.291 1.359-4.292 2.632-5.763 3.64-.736.504-1.343.942-1.796 1.283s-.71.542-.934.793c-.633.712-.742 1.682-.792 3.103-.052 1.421.017 3.338.116 5.903l1.493-.07c-.098-2.567-.164-4.445-.116-5.763.047-1.317.264-2.017.42-2.193-.027.03.293-.26.723-.583.429-.323 1.005-.743 1.727-1.237 1.443-.988 3.408-2.25 5.669-3.593 4.523-2.684 10.251-5.662 15.329-7.209 5.104-1.555 15.03-3.64 24.125-5.39 9.094-1.75 17.465-3.177 19.248-3.359 1.934-.198 2.834-.317 3.197-.327.181-.004.189.001.187 0-.003-.001.066.051.256.187l.863-1.213c-.155-.111-.269-.217-.513-.327s-.529-.149-.817-.142z"/><path d="m297.741 7.114c-27.119 0-51.562 6.695-68.851 17.476l-.42.256.07.466 9.262 65.351-13.299-49.182-1.423.396 16.425 60.826v.023l.024.07 1.446-.28v-.094l-.023-.093-10.872-76.713c16.968-10.454 40.99-17.009 67.661-17.009h.444c26.664 0 50.694 6.562 67.661 17.009l-10.873 76.807-.023.094 1.471.28 16.448-60.919-1.446-.396-13.321 49.323 9.285-65.492.07-.466-.396-.256c-17.289-10.78-41.755-17.476-68.875-17.476h-.445z"/><path d="m228.494 25.195s-1.992 4.088-3.687 8.773c-.852 2.354-1.309 4.09-2.077 5.296-.767 1.206-1.816 2-4.223 2.612-2.361.603-9.328 1.519-17.545 2.94-8.218 1.421-17.76 3.372-25.618 6.159-26.018 9.229-44.283 34.542-44.283 63.742 0 37.542 30.455 67.094 67.964 67.988 16.527.393 27.768 2.494 35.417 5.53 7.65 3.036 11.708 6.979 14.092 11.175 1.087 1.914 2.283 6.95 3.36 13.533 1.077 6.582 2.118 14.781 3.15 23.354 2.063 17.146 4.12 35.763 6.649 46.126 3.063 12.55 7.081 27.383 12.716 39.15 2.817 5.884 6.051 10.989 9.8 14.676 3.748 3.686 8.058 5.949 12.948 5.949h1.609c4.892 0 9.225-2.264 12.973-5.949 3.747-3.687 6.959-8.792 9.775-14.676 5.636-11.768 9.653-26.601 12.716-39.15 2.531-10.362 4.609-28.98 6.674-46.126 1.031-8.573 2.05-16.771 3.125-23.354 1.078-6.584 2.274-11.619 3.36-13.533 2.386-4.196 6.467-8.139 14.114-11.175 7.65-3.036 18.869-5.137 35.396-5.53 37.509-.894 67.964-30.445 67.964-67.988 0-29.2-18.266-54.513-44.283-63.742-7.857-2.787-17.399-4.738-25.617-6.159s-15.185-2.338-17.546-2.94c-2.407-.612-3.455-1.406-4.224-2.612-.766-1.206-1.2-2.942-2.051-5.296-1.695-4.685-3.688-8.773-3.688-8.773l-1.354.654s1.955 4.016 3.615 8.609c.828 2.284 1.258 4.092 2.218 5.6s2.482 2.598 5.109 3.267c2.673.681 9.48 1.548 17.662 2.963 8.183 1.415 17.68 3.356 25.384 6.09 25.415 9.014 43.281 33.764 43.281 62.341 0 36.735-29.772 65.62-66.52 66.495-16.637.396-28.011 2.49-35.905 5.622-7.896 3.134-12.313 7.342-14.863 11.83-1.379 2.43-2.438 7.394-3.523 14.021-1.083 6.629-2.117 14.848-3.149 23.425-2.063 17.157-4.149 35.797-6.625 45.94-3.057 12.52-7.081 27.295-12.623 38.871-2.771 5.786-5.913 10.778-9.473 14.278-3.558 3.499-7.486 5.505-11.923 5.505h-1.609c-4.436 0-8.363-2.006-11.922-5.505-3.559-3.5-6.701-8.492-9.473-14.278-5.542-11.576-9.566-26.352-12.622-38.871-2.477-10.145-4.562-28.783-6.625-45.94-1.033-8.577-2.066-16.797-3.15-23.425-1.083-6.627-2.143-11.592-3.523-14.021-2.55-4.488-6.967-8.696-14.862-11.83-7.895-3.132-19.27-5.227-35.907-5.622-36.747-.875-66.518-29.76-66.518-66.495 0-28.577 17.865-53.327 43.28-62.341 7.705-2.733 17.202-4.675 25.384-6.09 8.183-1.415 14.989-2.282 17.663-2.963 2.626-.669 4.149-1.758 5.109-3.267.96-1.508 1.39-3.315 2.216-5.6 1.662-4.593 3.616-8.609 3.616-8.609z"/><path d="m463.349 118.871c-.206 4.545 1.084 15.229 2.566 25.408 1.464 10.057 4.024 43.505-1.96 70.974-3.006 13.801-6.531 27.51-11.082 38.007-4.552 10.498-10.114 17.645-16.938 18.76-7.047 1.15-11.592-1.024-15.236-6.113-3.643-5.089-6.218-13.178-8.679-23.612-4.934-20.916-10.161-44.302-11.247-49.229-.593-2.698-2.51-5.516-4.993-7.676-2.481-2.161-5.568-3.679-8.608-3.57l.069 1.471c2.488-.089 5.28 1.258 7.56 3.242 2.281 1.985 4.012 4.599 4.504 6.838 1.087 4.94 6.332 28.344 11.269 49.275 2.475 10.489 5.03 18.726 8.912 24.147 3.884 5.423 9.244 7.938 16.706 6.719 7.684-1.254 13.432-8.971 18.059-19.644 4.628-10.674 8.161-24.451 11.176-38.288 6.056-27.8 3.479-61.259 1.983-71.534-1.479-10.153-2.756-20.988-2.567-25.128z"/><path d="m371.445 33.524c-.287-.007-.572.031-.816.141-.243.109-.382.215-.537.327l.863 1.213c.192-.136.285-.188.281-.187s-.019-.004.162 0c.364.009 1.264.129 3.197.327 1.783.183 10.153 1.609 19.248 3.359s19.045 3.835 24.148 5.39c5.077 1.548 10.783 4.525 15.306 7.209 2.262 1.343 4.227 2.605 5.668 3.593.723.495 1.322.915 1.75 1.237.43.322.728.614.701.583.156.177.396.876.443 2.193.048 1.318-.019 3.196-.117 5.763l1.47.07c.099-2.565.192-4.481.14-5.903-.051-1.421-.183-2.391-.816-3.103-.224-.252-.479-.453-.934-.793-.453-.34-1.059-.779-1.796-1.283-1.472-1.008-3.449-2.28-5.739-3.64-4.582-2.72-10.369-5.739-15.655-7.35-5.261-1.603-15.173-3.682-24.288-5.437-9.114-1.754-17.299-3.147-19.365-3.359-1.916-.196-2.738-.334-3.314-.35z"/><path d="m189.974 79.745c-21.771 0-39.43 17.683-39.43 39.453s17.659 39.43 39.43 39.43 39.43-17.66 39.43-39.43-17.659-39.453-39.43-39.453zm0 1.493c20.964 0 37.937 16.996 37.937 37.96s-16.973 37.938-37.937 37.938-37.937-16.973-37.937-37.938c0-20.964 16.972-37.96 37.937-37.96z"/><path d="m297.975 111.429c-10.215 0-18.525 8.31-18.525 18.525s8.31 18.501 18.525 18.501 18.501-8.286 18.501-18.501c.001-10.216-8.286-18.525-18.501-18.525zm0 1.493c9.408 0 17.007 7.624 17.007 17.032 0 9.407-7.6 17.009-17.007 17.009s-17.032-7.602-17.032-17.009c0-9.409 7.624-17.032 17.032-17.032z"/><path d="m297.975 161.871c-20.899 0-37.867 16.969-37.867 37.867s16.968 37.844 37.867 37.844 37.842-16.945 37.842-37.844-16.943-37.867-37.842-37.867zm0 1.493c20.091 0 36.35 16.282 36.35 36.374s-16.259 36.351-36.35 36.351c-20.092 0-36.374-16.259-36.374-36.351s16.282-36.374 36.374-36.374z"/><path d="m297.975 115.979c-7.708 0-13.976 6.268-13.976 13.976 0 7.707 6.268 13.976 13.976 13.976s13.975-6.269 13.975-13.976c0-7.709-6.266-13.976-13.975-13.976zm0 1.493c6.901 0 12.482 5.582 12.482 12.482s-5.581 12.482-12.482 12.482-12.482-5.581-12.482-12.482 5.581-12.482 12.482-12.482z"/><path d="m370.396 114.112c-8.471 0-15.354 6.881-15.354 15.352s6.883 15.352 15.354 15.352 15.354-6.881 15.354-15.352c-.001-8.471-6.884-15.352-15.354-15.352zm0 1.493c7.664 0 13.859 6.195 13.859 13.859 0 7.663-6.195 13.858-13.859 13.858-7.663 0-13.859-6.195-13.859-13.858-.001-7.664 6.195-13.859 13.859-13.859z"/><path d="m395.664 138.983c-8.472 0-15.354 6.881-15.354 15.352s6.882 15.352 15.354 15.352c8.471 0 15.352-6.881 15.352-15.352s-6.881-15.352-15.352-15.352zm0 1.493c7.664 0 13.858 6.195 13.858 13.859s-6.194 13.859-13.858 13.859-13.859-6.195-13.859-13.859 6.195-13.859 13.859-13.859z"/><path d="m182.274 88.051c-2.803 0-5.086 2.284-5.086 5.086v11.572c0 .687-.091 1.133-.233 1.33-.143.197-.383.374-1.237.374h-11.805c-2.802 0-5.086 2.284-5.086 5.086v15.399c0 2.802 2.284 5.086 5.086 5.086h11.642c.568.001.964.136 1.213.374s.42.611.42 1.259v11.643c0 2.802 2.284 5.086 5.086 5.086h15.398c2.802 0 5.087-2.284 5.087-5.086v-11.666c0-.877.185-1.195.373-1.353.188-.157.573-.257 1.19-.257h11.712c2.802 0 5.086-2.284 5.086-5.086v-15.399c0-2.802-2.284-5.086-5.086-5.086h-11.689c-.897 0-1.586-.574-1.586-1.633v-11.643c0-2.802-2.285-5.086-5.087-5.086zm0 1.492h15.398c1.994 0 3.593 1.599 3.593 3.593v11.643c0 1.803 1.445 3.126 3.08 3.126h11.689c1.995 0 3.593 1.598 3.593 3.593v15.399c0 1.994-1.598 3.593-3.593 3.593h-11.712c-.748 0-1.524.084-2.146.606-.622.521-.91 1.384-.91 2.496v11.666c0 1.994-1.599 3.593-3.593 3.593h-15.398c-1.996 0-3.593-1.599-3.593-3.593v-11.643c0-.946-.304-1.776-.886-2.333-.582-.556-1.394-.793-2.24-.793h-11.642c-1.996 0-3.593-1.6-3.593-3.593v-15.399c0-1.995 1.597-3.593 3.593-3.593h11.805c1.105 0 1.972-.342 2.45-1.003.479-.662.513-1.417.513-2.193v-11.571c-.001-1.995 1.597-3.594 3.592-3.594z"/><path d="m183.301 90.477c-2.486 0-4.527 2.042-4.527 4.527v11.619c0 .59-.084.956-.187 1.096-.102.141-.279.28-1.003.28h-11.806c-2.485 0-4.526 2.018-4.526 4.503v13.369c0 2.485 2.041 4.526 4.526 4.526h11.689c.475 0 .786.118.979.303.194.186.327.46.327 1.004v11.688c0 2.485 2.041 4.503 4.527 4.503h13.345c2.485 0 4.526-2.018 4.526-4.503v-11.712c0-.747.146-.984.281-1.097.134-.112.453-.187.98-.187h11.735c2.486 0 4.526-2.041 4.526-4.526v-13.369c0-2.485-2.041-4.503-4.526-4.503h-11.712c-.731 0-1.284-.437-1.284-1.307v-11.688c0-2.485-2.041-4.527-4.526-4.527h-13.344zm0 1.494h13.345c1.678 0 3.033 1.354 3.033 3.033v11.689c0 1.614 1.309 2.8 2.776 2.8h11.712c1.679 0 3.033 1.332 3.033 3.01v13.369c0 1.678-1.354 3.033-3.033 3.033h-11.735c-.659 0-1.368.061-1.938.537-.568.477-.816 1.26-.816 2.24v11.712c0 1.679-1.355 3.01-3.033 3.01h-13.345c-1.679 0-3.034-1.331-3.034-3.01v-11.688c0-.841-.266-1.573-.793-2.077s-1.253-.724-2.006-.724h-11.689c-1.678 0-3.033-1.355-3.033-3.033v-13.369c0-1.678 1.354-3.01 3.033-3.01h11.806c.975 0 1.779-.304 2.216-.91.438-.606.467-1.28.467-1.959v-11.621c.001-1.678 1.355-3.032 3.034-3.032z"/><path d="m204.439 112.456c-1.167 0-2.124.957-2.124 2.123v9.216c0 1.166.957 2.146 2.124 2.146.419 0 .811-.137 1.144-.35.007-.006.015-.019.023-.024h.023l7.559-4.573h.023c.605-.375 1.003-1.04 1.003-1.796 0-.802-.455-1.505-1.12-1.867l-.023-.023-7.466-4.502c-.006-.004-.017.003-.023 0-.333-.22-.716-.35-1.143-.35zm0 1.492c.134 0 .249.025.35.093v.023h.023l7.513 4.55h.023l.023.023c.202.106.35.309.35.56 0 .233-.125.426-.304.537l-7.605 4.573v.023h-.023c-.1.068-.214.117-.35.117-.359 0-.629-.293-.629-.653v-9.216c0-.359.27-.63.629-.63z"/><path d="m189.974 112.712c-3.565 0-6.463 2.921-6.463 6.486s2.898 6.463 6.463 6.463 6.463-2.898 6.463-6.463-2.898-6.486-6.463-6.486zm0 1.494c2.758 0 4.969 2.234 4.969 4.992s-2.211 4.97-4.969 4.97-4.97-2.212-4.97-4.97 2.211-4.992 4.97-4.992z"/><path d="m189.974 94.957c-.791 0-1.478.447-1.843 1.096-.011.019-.037.027-.047.047l-4.479 7.466-.023-.023c-.008.013.008.034 0 .046-.21.33-.35.725-.35 1.143 0 1.166.956 2.123 2.124 2.123h9.239c1.167 0 2.123-.956 2.123-2.123 0-.43-.15-.83-.374-1.167v-.023l-4.549-7.583h-.023c-.377-.601-1.04-1.002-1.798-1.002zm0 1.493c.233 0 .424.123.537.303l4.572 7.583.023.023v.023c.068.101.117.216.117.35 0 .359-.269.63-.629.63h-9.239c-.361 0-.631-.27-.631-.63 0-.134.049-.248.117-.35v-.023l4.55-7.537v-.022h.023c.105-.203.308-.35.56-.35z"/><path d="m175.508 112.456c-.42 0-.813.113-1.144.326l-.046.023-7.56 4.573h-.024c-.603.375-1.002 1.062-1.002 1.819 0 .804.455 1.506 1.12 1.867l.023.023 7.466 4.479.023.024v-.024c.335.219.718.374 1.144.374 1.166 0 2.146-.98 2.146-2.146v-9.216c.001-1.167-.98-2.122-2.146-2.122zm0 1.492c.359 0 .653.271.653.63v9.216c0 .359-.293.653-.653.653-.136 0-.25-.048-.35-.117l-.023-.023-7.513-4.526-.023-.023h-.023c-.203-.106-.35-.31-.35-.561 0-.233.124-.425.303-.536l7.606-4.597.023-.023c.101-.068.215-.093.35-.093z"/><path d="m185.354 131.517c-1.167 0-2.124.957-2.124 2.124 0 .419.136.833.35 1.166l.023.047 4.549 7.559h.024c.375.605 1.039 1.003 1.796 1.003.792 0 1.478-.448 1.843-1.097h.023c.008-.015.016-.031.024-.047l4.502-7.442v-.024c.219-.334.35-.74.35-1.166 0-1.168-.957-2.124-2.123-2.124h-9.237zm0 1.493h9.239c.359 0 .629.271.629.63 0 .133-.048.271-.117.373v.023l-4.55 7.513v.023l-.023.023c-.106.204-.309.327-.56.327-.234 0-.425-.1-.537-.28l-4.573-7.606-.023-.023c-.067-.1-.117-.239-.117-.373.002-.359.272-.63.632-.63z"/><path d="m296.552 176.407-.21.069-16.728 6.393-.373.14-.093.374-4.457 17.522-.047.232.07.234 6.393 16.729.14.349.373.094 17.544 4.456.21.048.234-.069 16.729-6.395.35-.14.094-.373 4.455-17.521.071-.234-.094-.232-6.393-16.705-.141-.374-.372-.094-17.522-4.455zm.094 1.563 16.915 4.293 6.159 16.146-4.294 16.915-16.145 6.16-16.915-4.293-6.16-16.146 4.293-16.915z"/><path d="m297.975 181.75c-9.925 0-17.989 8.063-17.989 17.988s8.064 17.965 17.989 17.965c9.924 0 17.988-8.04 17.988-17.965s-8.064-17.988-17.988-17.988zm0 1.494c9.118 0 16.495 7.376 16.495 16.494 0 9.117-7.377 16.472-16.495 16.472s-16.495-7.354-16.495-16.472 7.377-16.494 16.495-16.494z"/><path d="m379.682 140.663-1.003 1.073 4.619 4.363 1.026-1.097z"/><path d="m382.947 137.093-1.026 1.097 4.645 4.339 1.025-1.073z"/><path d="m402.872 99.087c-.419 0-.812.114-1.143.326l-.047.024-7.559 4.572h-.023c-.604.376-1.003 1.039-1.003 1.797 0 .803.456 1.505 1.118 1.867l.024.023 7.466 4.503.023.023v-.023c.334.216.718.35 1.143.35 1.167 0 2.147-.957 2.147-2.123v-9.216c.002-1.168-.979-2.123-2.146-2.123zm0 1.493c.361 0 .653.271.653.63v9.216c0 .359-.291.629-.653.629-.132 0-.246-.025-.35-.093v-.023h-.022l-7.514-4.526-.022-.023h-.023c-.201-.106-.351-.332-.351-.583 0-.226.133-.399.304-.513l7.606-4.597h.022v-.023c.104-.07.216-.094.35-.094z"/><path d="m400.237 94.163c-6.428 0-11.644 5.24-11.644 11.666 0 6.427 5.216 11.643 11.644 11.643 6.425 0 11.665-5.216 11.665-11.643 0-6.426-5.24-11.666-11.665-11.666zm0 1.494c5.619 0 10.172 4.553 10.172 10.172 0 5.62-4.553 10.15-10.172 10.15s-10.149-4.53-10.149-10.15 4.53-10.172 10.149-10.172z"/><path d="m441.627 99.087c-1.167 0-2.147.957-2.147 2.123v9.216c0 1.167.98 2.123 2.147 2.123.419 0 .811-.113 1.144-.327.008-.005.016-.018.022-.023h.023l7.559-4.573h.024c.604-.375 1.003-1.039 1.003-1.797 0-.802-.455-1.505-1.12-1.867l-.023-.023-7.466-4.502c-.006-.005-.017.003-.022 0-.335-.219-.717-.35-1.144-.35zm0 1.493c.132 0 .247.024.349.093v.023h.024l7.513 4.527.022.023h.023c.207.107.351.33.351.583 0 .227-.135.401-.304.514l-7.605 4.595-.024.023c-.099.067-.211.093-.349.093-.359 0-.654-.27-.654-.629v-9.216c0-.359.295-.629.654-.629z"/><path d="m444.263 94.163c-6.427 0-11.665 5.24-11.665 11.666 0 6.427 5.238 11.643 11.665 11.643s11.643-5.216 11.643-11.643c-.001-6.426-5.217-11.666-11.643-11.666zm0 1.494c5.619 0 10.15 4.553 10.15 10.172 0 5.62-4.531 10.15-10.15 10.15-5.62 0-10.173-4.53-10.173-10.15s4.553-10.172 10.173-10.172z"/><path d="m422.262 76.665c-.757 0-1.444.4-1.82 1.003v.023l-4.572 7.559c-.005.006.004.018 0 .024l-.024.023c-.211.332-.326.724-.326 1.143 0 1.166.956 2.146 2.123 2.146h9.216c1.167 0 2.147-.979 2.147-2.146 0-.426-.152-.808-.373-1.143v-.023l-4.504-7.467c-.004-.01-.017-.013-.023-.023-.362-.663-1.042-1.119-1.844-1.119zm0 1.493c.251 0 .454.147.56.35v.023l.023.023 4.526 7.513.023.023c.067.1.116.217.116.35 0 .359-.292.654-.653.654h-9.216c-.361 0-.63-.294-.63-.654 0-.136.025-.25.093-.35l.023-.023 4.597-7.606c.115-.171.31-.303.538-.303z"/><path d="m422.262 72.162c-6.427 0-11.666 5.215-11.666 11.642s5.239 11.666 11.666 11.666c6.428 0 11.642-5.239 11.642-11.666-.001-6.427-5.215-11.642-11.642-11.642zm0 1.493c5.619 0 10.148 4.528 10.148 10.149 0 5.62-4.529 10.173-10.148 10.173-5.62 0-10.173-4.553-10.173-10.173s4.553-10.149 10.173-10.149z"/><path d="m417.642 123.048c-1.167 0-2.123.979-2.123 2.146 0 .425.13.809.351 1.143h-.024l.024.024 4.503 7.466.022.023c.362.665 1.064 1.12 1.867 1.12.757 0 1.421-.401 1.796-1.003v-.023l4.574-7.56v-.023c.005-.008.018-.015.021-.024.214-.33.352-.721.352-1.143 0-1.167-.979-2.146-2.147-2.146zm0 1.493h9.216c.361 0 .653.294.653.653 0 .134-.046.248-.116.351l-.023.023-4.597 7.606c-.113.172-.287.304-.513.304-.253 0-.478-.147-.584-.35v-.023l-.023-.023-4.526-7.513-.023-.023c-.065-.099-.093-.215-.093-.351-.001-.361.269-.654.629-.654z"/><path d="m422.262 116.165c-6.427 0-11.666 5.239-11.666 11.666 0 6.426 5.239 11.642 11.666 11.642s11.642-5.216 11.642-11.642c-.001-6.427-5.216-11.666-11.642-11.666zm0 1.493c5.619 0 10.148 4.553 10.148 10.173 0 5.619-4.529 10.149-10.148 10.149-5.62 0-10.173-4.53-10.173-10.149 0-5.62 4.553-10.173 10.173-10.173z"/><path d="m411.226 81.028c-6.164 2.744-11.121 7.704-13.835 13.882l1.376.606c2.564-5.836 7.244-10.544 13.065-13.136z"/><path d="m398.836 116.305-1.352.606c2.729 6.09 7.623 10.978 13.719 13.695l.629-1.353c-5.757-2.566-10.416-7.196-12.996-12.948z"/><path d="m445.639 116.305c-2.563 5.707-7.151 10.304-12.854 12.879l.63 1.376c6.037-2.726 10.888-7.607 13.603-13.649z"/><path d="m433.414 81.075-.63 1.376c5.707 2.577 10.316 7.186 12.879 12.902l1.354-.63c-2.713-6.051-7.562-10.92-13.603-13.648z"/></g></svg>