<svg height="202.19124mm" viewBox="0 0 399.95969 202.19124" width="399.95969mm" xmlns="http://www.w3.org/2000/svg"><g fill="none" stroke="#f4f4f4" stroke-width="2"><g stroke-linecap="round"><g><ellipse cx="283.15248" cy="33.171217" opacity=".98" rx="32.3325" ry="32.332497" stroke-width="1"/><ellipse cx="283.20796" cy="33.391057" opacity=".98" rx="21.886616" ry="21.886621" stroke-width="2"/></g><g><ellipse cx="359.03102" cy="32.832493" opacity=".98" rx="32.3325" ry="32.332497" stroke-width="1"/><ellipse cx="359.0865" cy="33.052333" opacity=".98" rx="21.886616" ry="21.886621" stroke-width="2"/></g><g><ellipse cx="367.12718" cy="112.111551" opacity=".98" rx="32.3325" ry="32.332497" stroke-width="1"/><ellipse cx="367.18266" cy="112.331391" opacity=".98" rx="21.886616" ry="21.886621" stroke-width="2"/></g><g><ellipse cx="292.88691" cy="112.115979" opacity=".98" rx="32.3325" ry="32.332497" stroke-width="1"/><ellipse cx="292.94239" cy="112.335819" opacity=".98" rx="21.886616" ry="21.886621" stroke-width="2"/></g><g><ellipse cx="229.43488" cy="152.91558" opacity=".98" rx="32.3325" ry="32.332497" stroke-width="1"/><ellipse cx="229.49036" cy="153.13542" opacity=".98" rx="21.886616" ry="21.886621" stroke-width="2"/></g><g><ellipse cx="223.01906" cy="73.080839" opacity=".98" rx="32.3325" ry="32.332497" stroke-width="1"/><ellipse cx="223.07454" cy="73.300679" opacity=".98" rx="21.886616" ry="21.886621" stroke-width="2"/></g></g><g stroke-width="1" transform="translate(-17.948883 -75.747487)"><path d="m107.527 129.934 4.526 17.182h-9.052z"/><path d="m65.698 147.231 15.365 8.965-6.371 6.4z"/><path d="m65.583 184.537v9.053l-17.21-4.526z"/><path d="m74.692 215.528 6.371 6.398-15.365 8.966z"/><path d="m103.001 231.002h9.052l-4.526 17.182z"/><path d="m140.39 215.528 8.937 15.335-15.336-8.937z"/><path d="m149.475 184.537 17.239 4.526-17.239 4.526z"/><path d="m149.326 147.26-8.937 15.337-6.4-6.4z"/></g><circle cx="89.499997" cy="112.691233" opacity=".98" r="88.5" stroke-linecap="round" stroke-width="2"/><circle cx="89.576977" cy="113.169243" opacity=".98" r="37" stroke-linecap="round" stroke-width="2"/></g><g fill="#f4f4f4" fill-opacity=".5"><path d="m277.59106 62.939539q0 .24-.058.404-.086.244-.276.244-.126 0-.264-.058-.166-.07-.182-.172.056 0 .132.02.176.046.22.046.17 0 .256-.17.068-.136.068-.326 0-.134-.088-.382-.086-.25-.086-.348 0-.03.016-.048.018-.02.048-.02.078 0 .152.36.062.304.062.45z"/><path d="m278.36106 63.143539q0 .204-.118.32-.118.116-.326.116-.114 0-.176-.054-.062-.054-.062-.166 0-.158.206-.318.196-.152.362-.152.076 0 .1.094.014.054.014.16zm-.122.056q0-.024-.006-.046-.004-.024-.016-.054-.032.022-.106.108-.038.044-.066.064 0-.038.008-.062.016-.034.026-.058-.088 0-.184.074-.094.074-.094.16 0 .058.064.058.122 0 .236-.06.138-.072.138-.184z"/><path d="m279.18506 63.225539q0 .098-.074.22-.084.138-.174.138-.026 0-.044-.028-.016-.03-.016-.058 0-.036.076-.112.078-.078.078-.106 0-.018-.006-.036-.006-.018-.008-.024-.15.034-.306.172-.154.138-.234.156-.016-.044-.016-.09 0-.056.026-.118.018-.044.06-.106.07-.106.148-.24.04-.07.138-.242.1-.172.146-.244.024-.036.042-.054.026-.024.062-.032.024.008.034.03.012.022.012.052 0 .068-.088.184-.16.208-.164.216-.09.136-.09.246l.004.02q.11-.054.13-.062.082-.034.14-.034.064 0 .094.044.03.042.03.108z"/><path d="m280.11306 63.107539q0 .136-.066.29-.072.17-.178.234-.022-.026-.038-.058-.014-.032-.014-.064 0-.034.1-.202.044-.074.04-.13l-.002-.026q-.074.022-.256.134-.18.11-.364.224-.028 0-.052-.02-.022-.022-.022-.048 0-.042.134-.282.04-.072.144-.25.032.042.042.094.01.05.01.12 0 .03 0 .046.184-.11.288-.166.114-.062.156-.062.028 0 .052.064.026.064.026.102z"/><path d="m281.85106 63.495539q0 .036-.032.056-.03.018-.068.018-.034 0-.086-.008-.118-.018-.152-.018-.06 0-.236.014-.1.008-.144.008-.122 0-.122-.122 0-.116.076-.332.042-.122.158-.4.104-.25.132-.352.01-.032.016-.042.016-.024.04-.024.038 0 .064.056.026.054.026.098 0 .07-.082.236-.082.164-.16.322-.086.188-.086.286 0 .05.042.07.03.014.088.014.044 0 .152-.01.108-.012.144-.012.09 0 .148.026.082.036.082.116z"/><path d="m282.59506 63.143539q0 .204-.118.32-.118.116-.326.116-.114 0-.176-.054-.062-.054-.062-.166 0-.158.206-.318.196-.152.362-.152.076 0 .1.094.014.054.014.16zm-.122.056q0-.024-.006-.046-.004-.024-.016-.054-.032.022-.106.108-.038.044-.066.064 0-.038.008-.062.016-.034.026-.058-.088 0-.184.074-.094.074-.094.16 0 .058.064.058.122 0 .236-.06.138-.072.138-.184z"/><path d="m283.43706 63.101539q0 .064-.034.136-.032.072-.082.12l-.002-.028q0-.024.006-.074.006-.05.006-.074 0-.034-.01-.05-.01-.018-.042-.018-.094 0-.234.146-.152.16-.302.318-.012 0-.024-.002-.03-.008-.04-.01.006-.072.05-.16.118-.238.122-.254.016-.064.024-.094.008-.03.022-.062.016-.034.036-.06.022-.028.056-.042l.02.24q.086-.07.132-.108.088-.07.152-.07.064 0 .104.042.04.042.04.104z"/><path d="m284.41906 62.869539q0 .084-.224.222-.216.132-.314.132-.046 0-.062-.032-.014-.032-.014-.09 0-.038 0-.054.134 0 .244-.04.11-.04.192-.132-.06-.022-.122-.022-.146 0-.31.112-.18.122-.18.26 0 .132.18.184.028.008.338.056.182.028.182.098 0 .03-.066.048-.066.02-.168.02-.256 0-.404-.078-.196-.104-.196-.334 0-.24.24-.382.204-.12.464-.12.078 0 .142.036.078.044.078.116z"/><path d="m285.21506 62.511539q0 .044-.106.184-.106.14-.106.214 0 .038.044.076.1.088.1.108 0 .026-.018.05-.016.024-.042.024-.022 0-.062-.024-.028-.016-.108-.078-.03.058-.046.088-.056.106-.076.154-.03.092-.06.184-.052.124-.13.124l-.002-.046q0-.142.092-.336.018-.036.1-.186-.158-.086-.348-.086 0-.074.03-.108.032-.036.106-.036.068 0 .17.024.05.012.1.024.038-.012.104-.13.162-.284.22-.326.016.026.026.052.012.026.012.05z"/><path d="m285.95307 63.225539q0 .098-.074.22-.084.138-.174.138-.026 0-.044-.028-.016-.03-.016-.058 0-.036.076-.112.078-.078.078-.106 0-.018-.006-.036-.006-.018-.008-.024-.15.034-.306.172-.154.138-.234.156-.016-.044-.016-.09 0-.056.026-.118.018-.044.06-.106.07-.106.148-.24.04-.07.138-.242.1-.172.146-.244.024-.036.042-.054.026-.024.062-.032.024.008.034.03.012.022.012.052 0 .068-.088.184-.16.208-.164.216-.09.136-.09.246l.004.02q.11-.054.13-.062.082-.034.14-.034.064 0 .094.044.03.042.03.108z"/><path d="m287.59507 62.573539q0 .094-.1.252-.064.1-.21.288-.146.186-.182.244.006.002.15.048.146.044.146.16-.06.01-.118.018l-.022-.002v-.016q-.032-.008-.052-.008-.038 0-.12.012-.082.012-.124.012-.054 0-.088-.02-.034-.02-.034-.072 0-.042.154-.238.288-.366.29-.37.156-.212.156-.284 0-.028-.02-.042-.018-.014-.074-.014-.038 0-.158.074-.058.036-.094.036l-.034-.006q-.012-.008-.026-.03-.014-.024-.014-.038 0-.084.162-.154.138-.06.24-.06.086 0 .132.064.04.056.04.146z"/><path d="m288.79707 62.933539q0 .242-.262.428-.24.17-.494.17-.126 0-.2-.064-.074-.064-.074-.186 0-.272.238-.472.226-.19.506-.19.142 0 .214.084.072.084.072.23zm-.122.046q0-.092-.104-.138-.078-.034-.186-.034-.158 0-.33.154-.172.154-.172.31 0 .064.032.092.034.026.102.026.196 0 .408-.108.25-.128.25-.302z"/><path d="m289.71307 62.573539q0 .094-.1.252-.064.1-.21.288-.146.186-.182.244.006.002.15.048.146.044.146.16-.06.01-.118.018l-.022-.002v-.016q-.032-.008-.052-.008-.038 0-.12.012-.082.012-.124.012-.054 0-.088-.02-.034-.02-.034-.072 0-.042.154-.238.288-.366.29-.37.156-.212.156-.284 0-.028-.02-.042-.018-.014-.074-.014-.038 0-.158.074-.058.036-.094.036l-.034-.006q-.012-.008-.026-.03-.014-.024-.014-.038 0-.084.162-.154.138-.06.24-.06.086 0 .132.064.04.056.04.146z"/><path d="m290.63307 62.573539q0 .094-.1.252-.064.1-.21.288-.146.186-.182.244.006.002.15.048.146.044.146.16-.06.01-.118.018l-.022-.002v-.016q-.032-.008-.052-.008-.038 0-.12.012-.082.012-.124.012-.054 0-.088-.02-.034-.02-.034-.072 0-.042.154-.238.288-.366.29-.37.156-.212.156-.284 0-.028-.02-.042-.018-.014-.074-.014-.038 0-.158.074-.058.036-.094.036l-.034-.006q-.012-.008-.026-.03-.014-.024-.014-.038 0-.084.162-.154.138-.06.24-.06.086 0 .132.064.04.056.04.146z"/></g></svg>