<?xml version="1.0" encoding="UTF-8" standalone="no"?>
<svg
   version="1.0"
   width="640"
   height="360"
   viewBox="0 0 480 270"
   preserveAspectRatio="xMidYMid meet"
   id="svg44"
   sodipodi:docname="neogeocd.svg"
   inkscape:version="1.1.1 (3bf5ae0d25, 2021-09-20)"
   xmlns:inkscape="http://www.inkscape.org/namespaces/inkscape"
   xmlns:sodipodi="http://sodipodi.sourceforge.net/DTD/sodipodi-0.dtd"
   xmlns="http://www.w3.org/2000/svg"
   xmlns:svg="http://www.w3.org/2000/svg">
  <defs
     id="defs48" />
  <sodipodi:namedview
     id="namedview46"
     pagecolor="#ffffff"
     bordercolor="#666666"
     borderopacity="1.0"
     inkscape:pageshadow="2"
     inkscape:pageopacity="0.0"
     inkscape:pagecheckerboard="0"
     inkscape:document-units="px"
     showgrid="false"
     units="px"
     inkscape:zoom="1.6703125"
     inkscape:cx="297.24977"
     inkscape:cy="230.19645"
     inkscape:window-width="1920"
     inkscape:window-height="1017"
     inkscape:window-x="-8"
     inkscape:window-y="-8"
     inkscape:window-maximized="1"
     inkscape:current-layer="svg44" />
  <g
     transform="matrix(0.02686058,0,0,-0.02688735,-19.22353,280.09159)"
     fill="#000000"
     stroke="none"
     id="g42"
     style="fill:#ffffff">
    <path
       d="m 5025,9425 c -132,-19 -264,-52 -350,-87 -38,-16 -126,-47 -195,-69 -161,-53 -278,-102 -470,-200 -438,-221 -708,-447 -1008,-844 -118,-156 -215,-302 -257,-385 -15,-30 -50,-92 -77,-138 -59,-98 -128,-243 -233,-487 -179,-416 -304,-765 -385,-1075 -28,-107 -62,-224 -76,-260 -13,-36 -24,-86 -24,-110 -1,-44 -22,-143 -55,-250 -10,-30 -21,-91 -25,-135 -5,-44 -14,-105 -20,-135 -30,-143 -43,-649 -19,-755 6,-27 15,-97 18,-155 5,-68 18,-144 38,-215 18,-64 29,-123 26,-141 -3,-21 3,-47 20,-80 13,-27 61,-147 106,-266 102,-271 184,-445 247,-527 27,-35 56,-73 64,-84 84,-125 217,-280 417,-486 73,-75 140,-146 148,-158 9,-13 23,-23 31,-23 9,0 71,-42 138,-94 170,-130 222,-161 477,-285 201,-97 604,-261 643,-261 9,0 55,-11 102,-25 47,-14 98,-25 112,-25 25,0 169,-31 317,-68 98,-24 417,-23 565,1 58,10 142,22 186,27 45,5 151,27 236,49 168,44 605,132 652,131 15,0 74,10 130,24 164,40 275,64 371,81 50,9 131,25 180,35 50,11 110,22 135,25 25,3 119,19 210,35 250,45 476,75 865,115 83,9 157,18 165,20 8,2 222,19 475,36 418,29 504,32 940,32 570,0 857,-15 1375,-74 428,-48 793,-108 1155,-189 319,-71 630,-155 665,-180 14,-9 57,-23 95,-30 39,-6 148,-32 244,-57 96,-24 211,-49 255,-53 45,-5 128,-17 186,-27 148,-24 467,-25 565,-1 148,37 292,68 317,68 14,0 65,11 112,25 47,14 93,25 102,25 39,0 442,164 643,261 255,124 307,155 477,285 67,52 129,94 138,94 8,0 22,10 31,23 8,12 75,83 148,158 200,206 333,361 417,486 8,11 37,49 64,84 63,82 145,256 247,527 45,119 93,239 106,266 17,33 23,59 20,80 -3,18 8,77 26,141 20,71 33,147 38,215 3,58 12,128 18,155 24,106 11,612 -19,755 -6,30 -15,91 -20,135 -4,44 -15,105 -25,135 -33,107 -54,206 -55,250 0,24 -11,74 -24,110 -14,36 -48,153 -76,260 -81,310 -206,659 -385,1075 -105,244 -174,389 -233,487 -27,46 -62,108 -77,138 -42,83 -139,229 -257,385 -237,313 -455,518 -741,697 -115,71 -457,248 -481,248 -8,0 -33,11 -57,24 -130,72 -379,156 -536,181 -281,45 -309,47 -613,42 -162,-3 -335,-10 -385,-17 -126,-15 -343,-50 -385,-60 -19,-6 -118,-32 -220,-60 -496,-134 -1032,-234 -1610,-299 -518,-59 -805,-74 -1375,-74 -436,0 -522,3 -940,32 -253,17 -467,34 -475,36 -8,2 -82,11 -165,20 -389,40 -615,70 -865,115 -91,16 -185,32 -210,35 -25,3 -85,14 -135,25 -49,10 -130,26 -180,35 -49,9 -128,25 -175,35 -47,11 -137,32 -200,46 -63,14 -124,29 -135,34 -53,21 -137,42 -200,50 -38,5 -140,21 -225,35 -133,22 -193,27 -420,30 -194,3 -292,0 -365,-10 z m 755,-80 c 85,-14 187,-30 226,-35 39,-5 90,-15 115,-23 135,-44 267,-75 544,-131 72,-15 173,-35 225,-46 52,-10 115,-21 140,-25 25,-3 119,-19 210,-35 250,-45 476,-75 865,-115 83,-9 157,-18 165,-20 8,-2 222,-19 475,-36 424,-30 500,-32 970,-32 602,0 878,14 1405,74 570,64 1110,164 1595,295 94,25 193,52 220,59 55,15 259,48 400,65 50,6 209,14 355,17 272,5 304,3 583,-42 118,-18 279,-67 407,-122 58,-25 135,-58 171,-73 116,-49 380,-186 496,-258 279,-174 478,-360 707,-661 105,-138 223,-314 261,-391 15,-30 50,-92 77,-138 59,-98 128,-243 233,-487 179,-416 304,-765 385,-1075 28,-107 62,-224 76,-260 13,-36 24,-86 24,-110 1,-44 22,-143 55,-250 10,-30 21,-91 25,-135 5,-44 14,-105 20,-135 29,-139 41,-603 18,-700 -6,-25 -14,-92 -18,-150 -4,-70 -17,-143 -38,-218 -18,-62 -32,-130 -32,-153 0,-22 -8,-56 -19,-77 -10,-20 -55,-135 -100,-254 -102,-271 -184,-445 -247,-527 -27,-35 -56,-73 -64,-84 -39,-59 -152,-201 -214,-271 -91,-102 -351,-366 -361,-366 -4,0 -62,-42 -129,-94 -170,-130 -222,-161 -477,-285 -201,-97 -604,-261 -643,-261 -9,0 -55,-11 -102,-25 -47,-14 -98,-25 -112,-25 -25,0 -169,-31 -317,-68 -96,-23 -359,-23 -505,1 -58,10 -141,22 -186,27 -44,4 -159,29 -255,53 -96,25 -205,51 -244,57 -38,7 -88,22 -110,35 -95,53 -746,206 -1185,280 -334,55 -894,119 -1245,141 -195,12 -412,17 -780,17 -470,0 -546,-2 -970,-32 -253,-17 -467,-34 -475,-36 -8,-2 -82,-11 -165,-20 -389,-40 -615,-70 -865,-115 -91,-16 -185,-32 -210,-35 -25,-3 -85,-14 -135,-25 -49,-10 -130,-26 -180,-35 -100,-18 -217,-44 -375,-82 -58,-15 -114,-26 -125,-25 -39,3 -500,-89 -653,-129 -85,-22 -191,-44 -236,-49 -44,-5 -128,-17 -186,-27 -146,-24 -409,-24 -505,-1 -148,37 -292,68 -317,68 -14,0 -65,11 -112,25 -47,14 -93,25 -102,25 -39,0 -442,164 -643,261 -255,124 -307,155 -477,285 -67,52 -125,94 -129,94 -10,0 -270,264 -361,366 -62,70 -175,212 -214,271 -8,11 -37,49 -64,84 -63,82 -145,256 -247,527 -45,119 -90,234 -100,254 -11,21 -19,55 -19,77 0,23 -14,91 -32,153 -21,75 -34,148 -38,218 -4,58 -12,125 -18,150 -23,97 -11,561 18,700 6,30 15,91 20,135 4,44 15,105 25,135 33,107 54,206 55,250 0,24 11,74 24,110 14,36 48,153 76,260 81,310 206,659 385,1075 105,244 174,389 233,487 27,46 62,108 77,138 38,77 156,253 261,391 288,378 541,589 967,805 193,98 279,135 467,200 85,29 182,64 215,77 79,31 217,64 340,82 161,23 528,13 725,-20 z"
       id="path2"
       style="fill:#ffffff" />
    <path
       d="m 5345,8544 c -370,-29 -744,-147 -1080,-341 -278,-162 -558,-405 -767,-668 -157,-198 -244,-346 -348,-595 -113,-270 -141,-364 -182,-620 -20,-127 -23,-180 -23,-425 0,-310 17,-459 75,-680 29,-112 152,-430 209,-543 46,-91 183,-303 270,-417 169,-222 484,-502 729,-646 273,-161 623,-288 947,-342 112,-18 169,-21 420,-21 251,0 308,3 420,21 336,56 720,196 972,355 255,161 538,415 704,633 94,123 217,316 291,455 102,190 193,476 233,725 53,336 54,560 4,895 -27,179 -40,236 -100,420 -150,465 -467,910 -884,1242 -161,128 -285,205 -500,309 -293,142 -574,218 -906,243 -235,18 -241,18 -484,0 z m 454,-60 c 332,-25 613,-101 906,-243 215,-104 339,-181 500,-309 400,-319 705,-752 854,-1212 60,-184 73,-241 100,-420 48,-325 47,-501 -4,-830 -39,-252 -130,-537 -233,-730 -245,-461 -555,-800 -965,-1058 -253,-159 -637,-299 -972,-355 -189,-31 -591,-31 -780,0 -251,42 -564,143 -787,254 -315,157 -655,436 -859,704 -87,114 -224,326 -270,417 -57,113 -180,431 -209,543 -56,213 -75,372 -75,650 0,261 15,405 65,620 31,132 143,422 232,600 100,197 274,432 457,616 289,289 691,534 1056,642 286,85 373,99 759,126 11,0 112,-6 225,-15 z"
       id="path4"
       style="fill:#ffffff" />
    <path
       d="m 5578,8383 c -14,-16 -54,-98 -88,-183 -34,-85 -76,-189 -92,-230 -17,-41 -33,-93 -35,-116 -4,-36 -1,-44 28,-68 l 32,-27 214,3 215,3 24,28 c 30,36 30,67 -2,142 -14,33 -33,83 -43,110 -10,28 -32,84 -48,125 -17,41 -38,98 -48,125 -22,60 -73,115 -107,115 -14,0 -36,-12 -50,-27 z m 98,-122 c 9,-25 32,-84 51,-131 19,-47 39,-100 44,-118 6,-17 21,-56 34,-85 36,-75 33,-93 -12,-101 -61,-10 -333,-7 -353,4 -18,10 -17,13 10,87 55,147 151,378 167,402 15,23 16,24 29,6 8,-10 21,-39 30,-64 z"
       id="path6"
       style="fill:#ffffff" />
    <path
       d="m 5375,7635 c -44,-7 -143,-31 -220,-53 -321,-93 -598,-269 -826,-525 -138,-154 -219,-285 -298,-481 -48,-116 -64,-170 -93,-312 -20,-95 -23,-139 -23,-339 0,-237 12,-333 61,-502 38,-130 140,-347 217,-463 47,-70 193,-234 276,-311 102,-95 285,-217 423,-284 127,-61 344,-128 488,-150 111,-17 364,-20 477,-5 146,20 393,96 536,166 257,124 512,346 674,584 107,158 209,404 247,591 55,281 55,467 -1,749 -37,186 -140,433 -247,590 -159,235 -432,471 -681,589 -133,63 -393,142 -528,161 -105,14 -383,11 -482,-5 z m 452,-55 c 135,-19 395,-98 528,-161 190,-90 433,-279 557,-434 85,-106 115,-151 176,-265 112,-209 176,-427 202,-690 12,-124 2,-252 -36,-445 -62,-319 -253,-663 -477,-864 -232,-206 -432,-318 -709,-395 -193,-53 -277,-66 -441,-66 -312,0 -647,106 -921,289 -140,94 -226,169 -332,291 -130,149 -206,274 -283,464 -89,217 -116,361 -116,621 0,260 27,404 116,621 76,189 150,310 278,458 212,245 495,425 816,518 77,22 176,46 220,53 100,16 318,18 422,5 z"
       id="path8"
       style="fill:#ffffff" />
    <path
       d="m 5470,6974 c -136,-25 -215,-52 -344,-118 -125,-64 -150,-81 -240,-167 -56,-53 -113,-114 -129,-135 -101,-141 -142,-231 -189,-404 -19,-73 -23,-110 -23,-260 0,-152 3,-187 24,-270 30,-120 69,-216 115,-285 20,-30 52,-80 72,-110 59,-89 246,-251 349,-303 140,-69 242,-101 384,-118 132,-15 150,-15 282,0 196,24 350,83 495,191 276,206 416,451 455,793 17,155 -10,341 -76,516 -56,149 -119,239 -263,378 -76,72 -124,109 -208,156 -128,71 -140,77 -259,109 -75,20 -118,25 -255,28 -91,2 -176,1 -190,-1 z m 415,-87 c 118,-32 131,-38 258,-109 160,-90 324,-254 396,-395 56,-111 102,-270 120,-413 12,-98 -3,-242 -39,-370 -111,-393 -453,-683 -864,-734 -218,-27 -403,8 -621,116 -99,50 -265,191 -318,273 -21,30 -53,80 -73,110 -46,69 -85,165 -115,285 -34,133 -34,345 -1,470 46,173 88,262 189,404 16,21 67,75 114,120 73,69 108,92 225,152 100,52 164,77 229,93 132,30 129,30 275,26 103,-3 157,-10 225,-28 z"
       id="path10"
       style="fill:#ffffff" />
    <path
       d="m 7180,7606 c -81,-30 -348,-167 -354,-182 -18,-47 -6,-67 106,-181 107,-108 114,-113 153,-113 38,0 75,21 75,43 0,4 36,80 80,169 86,173 94,208 59,252 -23,30 -61,34 -119,12 z m 70,-90 c -5,-12 -41,-85 -79,-164 -39,-79 -71,-147 -71,-152 0,-26 -33,-2 -119,84 -51,52 -91,98 -88,103 7,12 264,140 317,159 40,14 54,4 40,-30 z"
       id="path12"
       style="fill:#ffffff" />
    <path
       d="m 3975,7588 c -25,-19 -27,-26 -22,-68 7,-54 169,-395 193,-404 47,-18 67,-6 181,106 108,107 113,114 113,153 0,38 -21,75 -43,75 -4,0 -80,36 -169,80 -174,86 -208,94 -253,58 z m 243,-127 c 79,-39 147,-71 152,-71 26,0 2,-33 -85,-120 -65,-64 -98,-91 -105,-84 -14,14 -151,292 -160,326 -9,30 3,40 35,27 11,-4 84,-40 163,-78 z"
       id="path14"
       style="fill:#ffffff" />
    <path
       d="m 7526,6159 -27,-32 3,-214 3,-215 28,-24 c 36,-30 67,-30 142,2 33,14 83,33 110,43 28,10 84,32 125,48 41,17 98,38 125,48 60,22 115,73 115,107 0,41 -49,73 -210,138 -85,34 -189,76 -230,92 -41,17 -93,33 -116,35 -36,4 -44,1 -68,-28 z m 368,-153 c 88,-36 166,-71 174,-80 13,-13 10,-17 -24,-34 -22,-11 -57,-25 -79,-32 -37,-11 -111,-41 -255,-100 -78,-32 -128,-45 -137,-36 -13,13 -16,361 -4,384 11,20 12,20 88,-8 43,-16 150,-58 237,-94 z"
       id="path16"
       style="fill:#ffffff" />
    <path
       d="m 3595,6124 c -33,-14 -82,-33 -110,-43 -27,-10 -84,-32 -125,-48 -41,-17 -97,-38 -125,-48 -60,-22 -115,-73 -115,-107 0,-41 49,-73 210,-138 85,-34 189,-76 230,-92 41,-17 93,-33 116,-35 36,-4 44,-1 68,28 l 27,32 -3,214 -3,215 -28,24 c -36,30 -67,30 -142,-2 z m 109,-81 c 10,-61 7,-333 -4,-353 -10,-18 -13,-17 -87,10 -168,63 -397,160 -411,174 -13,13 -10,17 24,34 22,10 64,27 94,37 30,10 84,31 118,47 35,15 69,28 75,28 7,0 41,14 77,30 89,41 106,39 114,-7 z"
       id="path18"
       style="fill:#ffffff" />
    <path
       d="m 6963,4608 c -108,-107 -113,-114 -113,-153 0,-38 21,-75 43,-75 4,0 80,-36 169,-80 174,-86 208,-94 253,-58 25,19 27,26 22,68 -7,54 -169,395 -193,404 -47,18 -67,6 -181,-106 z m 229,-119 c 81,-164 92,-195 73,-203 -7,-2 -85,31 -174,75 -89,43 -166,79 -171,79 -25,0 -3,32 82,117 51,51 97,92 103,90 5,-2 44,-73 87,-158 z"
       id="path20"
       style="fill:#ffffff" />
    <path
       d="m 4107,4672 c -10,-10 -17,-22 -17,-25 0,-4 -36,-80 -80,-169 -86,-174 -94,-208 -58,-253 19,-25 26,-27 68,-22 54,7 395,169 404,193 18,47 6,67 -106,181 -107,108 -114,113 -153,113 -28,0 -47,-6 -58,-18 z m 163,-137 c 64,-65 91,-98 84,-105 -14,-14 -292,-151 -326,-160 -18,-6 -28,-4 -31,5 -3,7 30,85 74,174 43,89 79,166 79,171 0,26 33,2 120,-85 z"
       id="path22"
       style="fill:#ffffff" />
    <path
       d="m 5423,4043 c -30,-6 -63,-49 -63,-82 0,-14 12,-53 26,-86 14,-33 33,-82 43,-110 10,-27 32,-84 48,-125 17,-41 38,-97 48,-125 22,-60 73,-115 107,-115 41,0 73,49 138,210 34,85 76,189 92,230 17,41 33,93 35,116 4,36 1,44 -27,67 l -32,27 -196,-1 c -108,-1 -207,-4 -219,-6 z m 397,-63 c 18,-10 17,-13 -10,-87 -63,-168 -160,-397 -174,-411 -13,-13 -17,-10 -34,24 -10,22 -27,64 -37,94 -10,30 -31,84 -47,118 -15,35 -28,68 -28,74 0,5 -13,40 -30,78 -38,87 -39,107 -2,113 58,9 344,7 362,-3 z"
       id="path24"
       style="fill:#ffffff" />
    <path
       d="m 14104,8260 c -121,-25 -187,-57 -332,-160 -95,-68 -217,-246 -256,-374 -18,-60 -21,-97 -21,-231 0,-225 22,-292 164,-492 48,-67 144,-146 251,-205 198,-109 512,-109 710,0 154,85 257,188 342,342 109,198 109,512 0,710 -59,107 -138,203 -205,251 -192,136 -259,160 -467,165 -80,1 -164,-1 -186,-6 z m 367,-78 c 67,-20 149,-65 249,-136 101,-73 204,-235 240,-381 55,-217 8,-424 -140,-621 -116,-155 -350,-267 -555,-267 -203,0 -445,116 -551,263 -130,182 -159,265 -159,455 0,190 29,272 160,455 77,109 256,216 419,250 68,15 262,4 337,-18 z"
       id="path26"
       style="fill:#ffffff" />
    <path
       d="m 8853,8120 c -33,-57 -31,-125 7,-200 l 30,-60 h -30 -30 v -75 -75 h 228 c 231,0 303,8 334,37 17,15 18,14 18,-10 v -27 h 100 100 v 100 c 0,55 2,100 5,100 11,0 123,-96 171,-146 l 51,-54 h 176 177 v 85 c 0,85 0,86 22,74 12,-6 55,-45 95,-85 l 74,-74 h 99 c 97,0 100,1 100,23 0,15 -31,52 -99,117 l -98,95 73,68 c 40,37 86,72 103,78 25,9 31,17 31,40 v 29 h -113 -112 l -50,-43 c -28,-23 -67,-55 -87,-70 l -38,-28 v 70 71 h -175 -174 l -6,-34 c -4,-18 -5,-67 -3,-109 2,-48 -1,-73 -7,-69 -32,18 -107,89 -155,146 l -55,66 h -370 -370 z m 797,-57 c 60,-71 192,-183 217,-183 12,0 14,7 9,33 -12,62 -19,166 -12,191 6,25 10,26 71,26 h 65 v -195 -195 h -70 -70 l -53,54 c -82,85 -188,166 -216,166 -7,0 -11,-39 -11,-110 v -110 h -70 -70 v 39 c 0,81 -25,94 -55,29 -28,-59 -60,-66 -317,-67 l -208,-1 v 45 45 l 213,2 c 209,3 212,3 215,25 3,18 -4,23 -50,33 -31,7 -110,10 -190,8 l -136,-3 -26,53 c -31,64 -33,104 -5,148 l 21,34 346,-1 h 347 z m 510,-23 c 0,-83 2,-90 20,-90 12,0 26,12 35,30 8,16 24,34 34,39 10,6 45,33 77,61 l 59,50 85,-1 c 63,0 79,-3 62,-10 -36,-14 -192,-162 -192,-181 0,-10 3,-18 8,-18 4,0 50,-40 102,-90 l 95,-89 -74,-1 h -73 l -40,44 c -49,57 -161,146 -182,146 -14,0 -16,-14 -16,-95 v -95 h -60 -60 v 195 195 h 60 60 z M 9138,7863 c -38,-2 -98,-2 -135,0 -38,2 -7,3 67,3 74,0 105,-1 68,-3 z"
       id="path28"
       style="fill:#ffffff" />
    <path
       d="m 8980,8015 v -25 h 175 176 l 26,-27 c 14,-16 30,-40 35,-55 6,-17 17,-28 29,-28 17,0 19,8 19,80 v 80 h -230 -230 z m 430,-30 c 0,-14 -2,-25 -4,-25 -2,0 -11,11 -20,25 -16,24 -16,25 4,25 15,0 20,-7 20,-25 z"
       id="path30"
       style="fill:#ffffff" />
    <path
       d="m 12354,7220 c -121,-25 -187,-57 -332,-160 -95,-68 -217,-246 -256,-374 -18,-60 -21,-97 -21,-231 0,-225 22,-292 164,-492 48,-67 144,-146 251,-205 198,-109 512,-109 710,0 154,85 257,188 342,342 109,198 109,512 0,710 -59,107 -138,203 -205,251 -192,136 -259,160 -467,165 -80,1 -164,-1 -186,-6 z m 367,-78 c 67,-20 149,-65 249,-136 101,-73 204,-235 240,-381 55,-217 8,-424 -140,-621 -116,-155 -350,-267 -555,-267 -203,0 -445,116 -551,263 -130,182 -159,265 -159,455 0,190 29,272 160,455 77,109 256,216 419,250 68,15 262,4 337,-18 z"
       id="path32"
       style="fill:#ffffff" />
    <path
       d="m 15124,6450 c -121,-25 -187,-57 -332,-160 -95,-68 -217,-246 -256,-374 -18,-60 -21,-97 -21,-231 0,-225 22,-292 164,-492 48,-67 144,-146 251,-205 198,-109 512,-109 710,0 154,85 257,188 342,342 109,198 109,512 0,710 -59,107 -138,203 -205,251 -192,136 -259,160 -467,165 -80,1 -164,-1 -186,-6 z m 367,-78 c 67,-20 149,-65 249,-136 101,-73 204,-235 240,-381 55,-217 8,-424 -140,-621 -116,-155 -350,-267 -555,-267 -203,0 -445,116 -551,263 -130,182 -159,265 -159,455 0,190 29,272 160,455 77,109 256,216 419,250 68,15 262,4 337,-18 z"
       id="path34"
       style="fill:#ffffff" />
    <path
       d="m 10415,6208 c -44,-16 -107,-39 -140,-50 -84,-27 -310,-139 -372,-185 -29,-21 -85,-61 -125,-90 -136,-96 -288,-263 -288,-315 0,-79 13,-118 48,-144 l 34,-27 102,12 c 247,30 424,105 726,308 54,36 133,106 217,193 l 133,135 v 68 c 0,60 -2,70 -20,74 -11,3 -20,12 -20,19 0,23 -45,34 -133,33 -66,0 -98,-7 -162,-31 z m 246,-59 c 16,-17 29,-41 29,-53 0,-33 -219,-251 -320,-319 -164,-111 -233,-150 -351,-203 -134,-60 -203,-81 -334,-99 -104,-15 -118,-9 -128,52 -5,30 -1,44 24,77 48,67 149,164 227,219 40,29 96,69 125,90 62,46 288,158 372,185 33,11 96,34 140,50 50,19 100,31 133,31 48,1 57,-3 83,-30 z"
       id="path36"
       style="fill:#ffffff" />
    <path
       d="m 13344,5430 c -121,-25 -187,-57 -332,-160 -95,-68 -217,-246 -256,-374 -18,-60 -21,-97 -21,-231 0,-225 22,-292 164,-492 48,-67 144,-146 251,-205 198,-109 512,-109 710,0 154,85 257,188 342,342 109,198 109,512 0,710 -59,107 -138,203 -205,251 -192,136 -259,160 -467,165 -80,1 -164,-1 -186,-6 z m 367,-78 c 67,-20 149,-65 249,-136 101,-73 204,-235 240,-381 55,-217 8,-424 -140,-621 -116,-155 -350,-267 -555,-267 -203,0 -445,116 -551,263 -130,182 -159,265 -159,455 0,190 29,272 160,455 77,109 256,216 419,250 68,15 262,4 337,-18 z"
       id="path38"
       style="fill:#ffffff" />
    <path
       d="m 10479,4411 c -42,-10 -114,-34 -160,-54 -46,-20 -97,-39 -114,-43 -48,-11 -214,-100 -290,-155 -38,-27 -99,-70 -135,-94 -119,-79 -280,-256 -280,-306 0,-80 13,-119 48,-145 l 34,-27 102,12 c 247,30 424,105 726,308 54,36 133,106 217,193 l 133,135 v 68 c 0,60 -2,70 -20,74 -11,3 -20,12 -20,19 0,37 -116,44 -241,15 z m 192,-72 c 16,-17 29,-41 29,-53 0,-33 -219,-251 -320,-319 -164,-111 -233,-150 -351,-203 -133,-60 -203,-80 -334,-99 -103,-15 -118,-9 -129,56 -5,31 -1,41 39,90 80,95 138,150 205,195 36,23 97,66 135,93 76,55 242,144 290,155 17,4 68,23 114,43 83,36 210,70 264,72 20,1 38,-9 58,-30 z"
       id="path40"
       style="fill:#ffffff" />
  </g>
</svg>
