<svg height="373.94009" viewBox="0 0 591.87502 336.54608" width="657.63892" xmlns="http://www.w3.org/2000/svg"><g fill="#f4f4f4" fill-opacity=".5" stroke-width=".9" transform="translate(.437501 .773042)"><path d="m511.24871 77.014775q0 .216-.0522.3636-.0774.2196-.2484.2196-.1134 0-.2376-.0522-.1494-.063-.1638-.1548.0504 0 .1188.018.1584.0414.198.0414.153 0 .2304-.153.0612-.1224.0612-.2934 0-.1206-.0792-.3438-.0774-.225-.0774-.3132 0-.027.0144-.0432.0162-.018.0432-.018.0702 0 .1368.324.0558.2736.0558.405z"/><path d="m511.94171 77.198375q0 .1836-.1062.288-.1062.1044-.2934.1044-.1026 0-.1584-.0486-.0558-.0486-.0558-.1494 0-.1422.1854-.2862.1764-.1368.3258-.1368.0684 0 .09.0846.0126.0486.0126.144zm-.1098.0504q0-.0216-.005-.0414-.004-.0216-.0144-.0486-.0288.0198-.0954.0972-.0342.0396-.0594.0576 0-.0342.007-.0558.0144-.0306.0234-.0522-.0792 0-.1656.0666-.0846.0666-.0846.144 0 .0522.0576.0522.1098 0 .2124-.054.1242-.0648.1242-.1656z"/><path d="m512.68331 77.272175q0 .0882-.0666.198-.0756.1242-.1566.1242-.0234 0-.0396-.0252-.0144-.027-.0144-.0522 0-.0324.0684-.1008.0702-.0702.0702-.0954 0-.0162-.005-.0324-.005-.0162-.007-.0216-.135.0306-.2754.1548-.1386.1242-.2106.1404-.0144-.0396-.0144-.081 0-.0504.0234-.1062.0162-.0396.054-.0954.063-.0954.1332-.216.036-.063.1242-.2178.09-.1548.1314-.2196.0216-.0324.0378-.0486.0234-.0216.0558-.0288.0216.0072.0306.027.0108.0198.0108.0468 0 .0612-.0792.1656-.144.1872-.1476.1944-.081.1224-.081.2214l.004.018q.099-.0486.117-.0558.0738-.0306.126-.0306.0576 0 .0846.0396.027.0378.027.0972z"/><path d="m513.51851 77.165975q0 .1224-.0594.261-.0648.153-.1602.2106-.0198-.0234-.0342-.0522-.0126-.0288-.0126-.0576 0-.0306.09-.1818.0396-.0666.036-.117l-.002-.0234q-.0666.0198-.2304.1206-.162.099-.3276.2016-.0252 0-.0468-.018-.0198-.0198-.0198-.0432 0-.0378.1206-.2538.036-.0648.1296-.225.0288.0378.0378.0846.009.045.009.108 0 .027 0 .0414.1656-.099.2592-.1494.1026-.0558.1404-.0558.0252 0 .0468.0576.0234.0576.0234.0918z"/><path d="m515.08271 77.515175q0 .0324-.0288.0504-.027.0162-.0612.0162-.0306 0-.0774-.0072-.1062-.0162-.1368-.0162-.054 0-.2124.0126-.09.0072-.1296.0072-.1098 0-.1098-.1098 0-.1044.0684-.2988.0378-.1098.1422-.36.0936-.225.1188-.3168.009-.0288.0144-.0378.0144-.0216.036-.0216.0342 0 .0576.0504.0234.0486.0234.0882 0 .063-.0738.2124-.0738.1476-.144.2898-.0774.1692-.0774.2574 0 .045.0378.063.027.0126.0792.0126.0396 0 .1368-.009.0972-.0108.1296-.0108.081 0 .1332.0234.0738.0324.0738.1044z"/><path d="m515.75231 77.198375q0 .1836-.1062.288-.1062.1044-.2934.1044-.1026 0-.1584-.0486-.0558-.0486-.0558-.1494 0-.1422.1854-.2862.1764-.1368.3258-.1368.0684 0 .09.0846.0126.0486.0126.144zm-.1098.0504q0-.0216-.005-.0414-.004-.0216-.0144-.0486-.0288.0198-.0954.0972-.0342.0396-.0594.0576 0-.0342.007-.0558.0144-.0306.0234-.0522-.0792 0-.1656.0666-.0846.0666-.0846.144 0 .0522.0576.0522.1098 0 .2124-.054.1242-.0648.1242-.1656z"/><path d="m516.51011 77.160575q0 .0576-.0306.1224-.0288.0648-.0738.108l-.002-.0252q0-.0216.005-.0666.005-.045.005-.0666 0-.0306-.009-.045-.009-.0162-.0378-.0162-.0846 0-.2106.1314-.1368.144-.2718.2862-.0108 0-.0216-.0018-.027-.0072-.036-.009.005-.0648.045-.144.1062-.2142.1098-.2286.0144-.0576.0216-.0846.007-.027.0198-.0558.0144-.0306.0324-.054.0198-.0252.0504-.0378l.018.216q.0774-.063.1188-.0972.0792-.063.1368-.063.0576 0 .0936.0378.036.0378.036.0936z"/><path d="m517.39391 76.951775q0 .0756-.2016.1998-.1944.1188-.2826.1188-.0414 0-.0558-.0288-.0126-.0288-.0126-.081 0-.0342 0-.0486.1206 0 .2196-.036.099-.036.1728-.1188-.054-.0198-.1098-.0198-.1314 0-.279.1008-.162.1098-.162.234 0 .1188.162.1656.0252.0072.3042.0504.1638.0252.1638.0882 0 .027-.0594.0432-.0594.018-.1512.018-.2304 0-.3636-.0702-.1764-.0936-.1764-.3006 0-.216.216-.3438.1836-.108.4176-.108.0702 0 .1278.0324.0702.0396.0702.1044z"/><path d="m518.11032 76.629575q0 .0396-.0954.1656-.0954.126-.0954.1926 0 .0342.0396.0684.09.0792.09.0972 0 .0234-.0162.045-.0144.0216-.0378.0216-.0198 0-.0558-.0216-.0252-.0144-.0972-.0702-.027.0522-.0414.0792-.0504.0954-.0684.1386-.027.0828-.054.1656-.0468.1116-.117.1116l-.002-.0414q0-.1278.0828-.3024.0162-.0324.09-.1674-.1422-.0774-.3132-.0774 0-.0666.027-.0972.0288-.0324.0954-.0324.0612 0 .153.0216.045.0108.09.0216.0342-.0108.0936-.117.1458-.2556.198-.2934.0144.0234.0234.0468.0108.0234.0108.045z"/><path d="m518.77452 77.272175q0 .0882-.0666.198-.0756.1242-.1566.1242-.0234 0-.0396-.0252-.0144-.027-.0144-.0522 0-.0324.0684-.1008.0702-.0702.0702-.0954 0-.0162-.005-.0324-.005-.0162-.007-.0216-.135.0306-.2754.1548-.1386.1242-.2106.1404-.0144-.0396-.0144-.081 0-.0504.0234-.1062.0162-.0396.054-.0954.063-.0954.1332-.216.036-.063.1242-.2178.09-.1548.1314-.2196.0216-.0324.0378-.0486.0234-.0216.0558-.0288.0216.0072.0306.027.0108.0198.0108.0468 0 .0612-.0792.1656-.144.1872-.1476.1944-.081.1224-.081.2214l.004.018q.099-.0486.117-.0558.0738-.0306.126-.0306.0576 0 .0846.0396.027.0378.027.0972z"/><path d="m520.25232 76.685375q0 .0846-.09.2268-.0576.09-.189.2592-.1314.1674-.1638.2196.005.0018.135.0432.1314.0396.1314.144-.054.009-.1062.0162l-.0198-.0018v-.0144q-.0288-.0072-.0468-.0072-.0342 0-.108.0108-.0738.0108-.1116.0108-.0486 0-.0792-.018-.0306-.018-.0306-.0648 0-.0378.1386-.2142.2592-.3294.261-.333.1404-.1908.1404-.2556 0-.0252-.018-.0378-.0162-.0126-.0666-.0126-.0342 0-.1422.0666-.0522.0324-.0846.0324l-.0306-.0054q-.0108-.0072-.0234-.027-.0126-.0216-.0126-.0342 0-.0756.1458-.1386.1242-.054.216-.054.0774 0 .1188.0576.036.0504.036.1314z"/><path d="m521.33412 77.009375q0 .2178-.2358.3852-.216.153-.4446.153-.1134 0-.18-.0576-.0666-.0576-.0666-.1674 0-.2448.2142-.4248.2034-.171.4554-.171.1278 0 .1926.0756.0648.0756.0648.207zm-.1098.0414q0-.0828-.0936-.1242-.0702-.0306-.1674-.0306-.1422 0-.297.1386-.1548.1386-.1548.279 0 .0576.0288.0828.0306.0234.0918.0234.1764 0 .3672-.0972.225-.1152.225-.2718z"/><path d="m522.15852 76.685375q0 .0846-.09.2268-.0576.09-.189.2592-.1314.1674-.1638.2196.005.0018.135.0432.1314.0396.1314.144-.054.009-.1062.0162l-.0198-.0018v-.0144q-.0288-.0072-.0468-.0072-.0342 0-.108.0108-.0738.0108-.1116.0108-.0486 0-.0792-.018-.0306-.018-.0306-.0648 0-.0378.1386-.2142.2592-.3294.261-.333.1404-.1908.1404-.2556 0-.0252-.018-.0378-.0162-.0126-.0666-.0126-.0342 0-.1422.0666-.0522.0324-.0846.0324l-.0306-.0054q-.0108-.0072-.0234-.027-.0126-.0216-.0126-.0342 0-.0756.1458-.1386.1242-.054.216-.054.0774 0 .1188.0576.036.0504.036.1314z"/><path d="m522.98652 76.685375q0 .0846-.09.2268-.0576.09-.189.2592-.1314.1674-.1638.2196.005.0018.135.0432.1314.0396.1314.144-.054.009-.1062.0162l-.0198-.0018v-.0144q-.0288-.0072-.0468-.0072-.0342 0-.108.0108-.0738.0108-.1116.0108-.0486 0-.0792-.018-.0306-.018-.0306-.0648 0-.0378.1386-.2142.2592-.3294.261-.333.1404-.1908.1404-.2556 0-.0252-.018-.0378-.0162-.0126-.0666-.0126-.0342 0-.1422.0666-.0522.0324-.0846.0324l-.0306-.0054q-.0108-.0072-.0234-.027-.0126-.0216-.0126-.0342 0-.0756.1458-.1386.1242-.054.216-.054.0774 0 .1188.0576.036.0504.036.1314z"/></g><g stroke-linecap="round"><g transform="translate(.437501 .773042)"><path d="m300.07559 34.408287h-267.71559c-4.70985 0-8.50153 3.791685-8.50153 8.501536l-2.08159 86.848037 2.08159 153.2528c.064 4.70942 3.79168 8.50154 8.50153 8.50154h268.03327m-.31768-257.103913h267.71559c4.70985 0 8.50153 3.791685 8.50153 8.501536l2.08159 86.848037-2.08159 153.2528c-.064 4.70942-3.79168 8.50154-8.50153 8.50154h-268.03327m.31768-257.103913h-267.71559c-4.70985 0-8.50153 3.791685-8.50153 8.501536l-2.08159 86.848037 2.08159 153.2528c.064 4.70942 3.79168 8.50154 8.50153 8.50154h268.03327m-.31768-257.103913h267.71559c4.70985 0 8.50153 3.791685 8.50153 8.501536l2.08159 86.848037-2.08159 153.2528c-.064 4.70942-3.79168 8.50154-8.50153 8.50154h-268.03327" fill="none" opacity=".98" stroke="#f4f4f4" stroke-width="1.8"/><path d="m291.98438 42.490007h-259.625005c-.371982-.05407-.442181.474854-.417969.396757.000104.0609-.000562.121805-.002.182693l-2.078125 81.912783 2.080078 144.65574c.0035.24012.07909.33085.15625.40413.07959.0756.07503.096.261719.096h259.326222 16.77929 259.32618c.0933 0 .12185-.011.15429-.024.0325-.013.0659-.0325.10742-.072.0796-.0756.15481-.16825.15821-.40414l2.08008-144.65574-2.07813-81.912781c-.001-.06088-.002-.12179-.002-.182693 0-.176263-.0412-.214235-.11719-.286034-.0392-.037-.0815-.06386-.125-.0812-.0416-.01657-.0846-.02953-.17773-.02953l-259.623.00003z" fill="none" opacity=".98" stroke="#f4f4f4" stroke-width=".9"/><path d="m31.401757 56.276762a.44999999.44999999 0 0 0 -.448243.45.44999999.44999999 0 0 0 .448243.451758h537.241983a.44999999.44999999 0 0 0 .45176-.451758.44999999.44999999 0 0 0 -.45176-.45zm0 3.6a.44999999.44999999 0 0 0 -.448243.451758.44999999.44999999 0 0 0 .448243.448242h422.309183c.34391-.521286.93276-.864844 1.60663-.864844h85.60195c.6739 0 1.26273.343537 1.60665.864844h26.11757a.44999999.44999999 0 0 0 .45176-.448242.44999999.44999999 0 0 0 -.45176-.451758zm0 3.6a.44999999.44999999 0 0 0 -.448243.451758.44999999.44999999 0 0 0 .448243.448242h421.989253v-.9zm511.442573 0v.9h25.79941a.44999999.44999999 0 0 0 .45176-.448242.44999999.44999999 0 0 0 -.45176-.451758zm-511.442573 3.601757a.44999999.44999999 0 0 0 -.448243.448243.44999999.44999999 0 0 0 .448243.45h421.989253v-.898243zm511.442573 0v.898243h25.79941a.44999999.44999999 0 0 0 .45176-.45.44999999.44999999 0 0 0 -.45176-.448243zm-511.442573 3.6a.44999999.44999999 0 0 0 -.448243.448243.44999999.44999999 0 0 0 .448243.451757h421.989253v-.9zm511.442573 0v.9h25.79941a.44999999.44999999 0 0 0 .45176-.451757.44999999.44999999 0 0 0 -.45176-.448243zm-511.442573 3.598243a.44999999.44999999 0 0 0 -.448243.45.44999999.44999999 0 0 0 .448243.451757h423.434183c-.5074-.130217-.9268-.459235-1.18125-.901757zm511.180663 0c-.25445.442658-.67553.771513-1.18301.901757h27.24433a.44999999.44999999 0 0 0 .45176-.451757.44999999.44999999 0 0 0 -.45176-.45zm-511.180663 3.6a.44999999.44999999 0 0 0 -.448243.451757.44999999.44999999 0 0 0 .448243.448243h537.241983a.44999999.44999999 0 0 0 .45176-.448243.44999999.44999999 0 0 0 -.45176-.451757z" fill="#f4f4f4" opacity=".98" stroke-width=".999999"/><rect fill="none" height="15.334811" opacity=".98" rx="1.925883" stroke="#f4f4f4" stroke-width=".9" width="89.45359" x="453.39102" y="59.911591"/></g><g fill="none" stroke="#f4f4f4" stroke-width="1.8"><rect height="16.379999" opacity=".98" rx="1.746132" width="16.379999" x="136.179515" y="230.768062"/><rect height="16.379999" opacity=".98" rx="1.746132" width="16.379999" x="114.579445" y="230.768062"/><rect height="16.379999" opacity=".98" rx="1.746133" ry="1.746132" width="180.17987" x="159.579565" y="230.768062"/><rect height="16.379999" opacity=".98" rx="1.746132" width="16.379999" x="416.978735" y="230.768062"/><rect height="16.379999" opacity=".98" rx="1.746132" width="16.379999" x="393.578895" y="230.768062"/><rect height="16.379999" opacity=".98" rx="1.746132" width="16.379999" x="370.179055" y="230.768062"/></g><g fill="none" stroke="#f4f4f4" stroke-width="1.8"><rect height="16.379999" opacity=".98" rx="1.746132" width="16.379999" x="458.378465" y="230.768072"/><rect height="16.379999" opacity=".98" rx="1.746132" width="16.379999" x="481.778305" y="230.768072"/><rect height="16.379999" opacity=".98" rx="1.746132" width="16.379999" x="505.178145" y="230.768072"/><rect height="16.379999" opacity=".98" rx="1.746132" width="16.379999" x="528.578025" y="230.768072"/><rect height="16.379999" opacity=".98" rx="1.746132" width="16.379999" x="458.378465" y="207.368032"/><rect height="16.379999" opacity=".98" rx="1.746132" width="16.379999" x="481.778305" y="207.368032"/><rect height="16.379999" opacity=".98" rx="1.746132" width="16.379999" x="505.178145" y="207.368032"/><rect height="16.379999" opacity=".98" rx="1.746132" width="16.379999" x="528.578025" y="207.368032"/><rect height="16.379999" opacity=".98" rx="1.746132" width="16.379999" x="458.378465" y="183.967992"/><rect height="16.379999" opacity=".98" rx="1.746132" width="16.379999" x="481.778305" y="183.967992"/><rect height="16.379999" opacity=".98" rx="1.746132" width="16.379999" x="505.178145" y="183.967992"/><rect height="16.379999" opacity=".98" rx="1.746132" width="16.379999" x="528.578025" y="183.967992"/><rect height="16.379999" opacity=".98" rx="1.746132" width="16.379999" x="458.378465" y="160.567952"/><rect height="16.379999" opacity=".98" rx="1.746132" width="16.379999" x="481.778305" y="160.567952"/><rect height="16.379999" opacity=".98" rx="1.746132" width="16.379999" x="505.178145" y="160.567952"/><rect height="16.379999" opacity=".98" rx="1.746132" width="16.379999" x="528.578025" y="160.567952"/><rect height="16.379999" opacity=".98" rx="1.746132" width="16.379999" x="458.378465" y="137.167912"/><rect height="16.379999" opacity=".98" rx="1.746132" width="16.379999" x="481.778305" y="137.167912"/><rect height="16.379999" opacity=".98" rx="1.746132" width="16.379999" x="505.178145" y="137.167912"/><rect height="16.379999" opacity=".98" rx="1.746132" width="16.379999" x="528.578025" y="137.167912"/></g><g fill="none" stroke="#f4f4f4" stroke-width="1.8"><rect height="16.379999" opacity=".98" rx="1.746132" width="16.379999" x="299.979535" y="207.368062"/><rect height="16.379999" opacity=".98" rx="1.746132" width="16.379999" x="276.579685" y="207.368062"/><rect height="16.379999" opacity=".98" rx="1.746132" width="16.379999" x="253.179715" y="207.368062"/><rect height="16.379999" opacity=".98" rx="1.746132" width="16.379999" x="229.779675" y="207.368062"/><rect height="16.379999" opacity=".98" rx="1.746132" width="16.379999" x="206.379635" y="207.368062"/><rect height="16.379999" opacity=".98" rx="1.746132" width="16.379999" x="182.979595" y="207.368062"/><rect height="16.379999" opacity=".98" rx="1.746132" width="16.379999" x="159.579555" y="207.368062"/><rect height="16.379999" opacity=".98" rx="1.746132" width="16.379999" x="136.179515" y="207.368062"/><rect height="16.379999" opacity=".98" rx="1.746132" width="16.379999" x="114.579445" y="207.368062"/><rect height="16.379999" opacity=".98" rx="1.746132" width="51.190346" x="56.369061" y="207.368062"/><rect height="16.379999" opacity=".98" rx="1.746132" width="39.779831" x="370.179055" y="207.368062"/><rect height="16.379999" opacity=".98" rx="1.746132" width="16.379999" x="346.779215" y="207.368062"/><rect height="16.379999" opacity=".98" rx="1.746132" width="16.379999" x="323.379375" y="207.368062"/><rect height="16.379999" opacity=".98" rx="1.746132" width="16.379999" x="416.978735" y="207.368062"/></g><g fill="none" stroke="#f4f4f4" stroke-width="1.8" transform="translate(1.450335 .773042)"><rect height="16.379999" opacity=".98" rx="1.746132" width="16.379999" x="287.11887" y="183.19502"/><rect height="16.379999" opacity=".98" rx="1.746132" width="16.379999" x="263.71902" y="183.19502"/><rect height="16.379999" opacity=".98" rx="1.746132" width="16.379999" x="240.31905" y="183.19502"/><rect height="16.379999" opacity=".98" rx="1.746132" width="16.379999" x="216.91901" y="183.19502"/><rect height="16.379999" opacity=".98" rx="1.746132" width="16.379999" x="193.51897" y="183.19502"/><rect height="16.379999" opacity=".98" rx="1.746132" width="16.379999" x="170.11893" y="183.19502"/><rect height="16.379999" opacity=".98" rx="1.746132" width="16.379999" x="146.71889" y="183.19502"/><rect height="16.379999" opacity=".98" rx="1.746132" width="16.379999" x="123.31885" y="183.19502"/><rect height="16.379999" opacity=".98" rx="1.746132" width="16.379999" x="101.71878" y="183.19502"/><rect height="16.379999" opacity=".98" rx="1.746132" width="16.379999" x="78.318741" y="183.19502"/><rect height="16.379999" opacity=".98" rx="1.746132" width="16.379999" x="54.918724" y="183.19502"/><rect height="16.379999" opacity=".98" rx="1.746132" width="16.379999" x="357.31839" y="183.19502"/><rect height="16.379999" opacity=".98" rx="1.746132" width="16.379999" x="333.91855" y="183.19502"/><rect height="16.379999" opacity=".98" rx="1.746132" width="16.379999" x="310.51871" y="183.19502"/><path d="m378.94492 176.17503h-4.5841c-.96736 0-1.74613-.77878-1.74613-1.74613v-12.88774c0-.96736.77877-1.74613 1.74613-1.74613h32.40157c.96736 0 1.74614.77877 1.74614 1.74613v12.88774 10.51225 12.88774c0 .96736-.77878 1.74613-1.74613 1.74613h-26.09802c-.96736 0-1.74733-.77877-1.74614-1.74613l.0267-21.65386" opacity=".98"/></g><g fill="none" stroke="#f4f4f4" stroke-width="1.8"><rect height="16.379999" opacity=".98" rx="1.746132" width="16.379999" x="282.265647" y="160.568062"/><rect height="16.379999" opacity=".98" rx="1.746132" width="16.379999" x="258.865797" y="160.568062"/><rect height="16.379999" opacity=".98" rx="1.746132" width="16.379999" x="235.465827" y="160.568062"/><rect height="16.379999" opacity=".98" rx="1.746132" width="16.379999" x="212.065787" y="160.568062"/><rect height="16.379999" opacity=".98" rx="1.746132" width="16.379999" x="188.665747" y="160.568062"/><rect height="16.379999" opacity=".98" rx="1.746132" width="16.379999" x="165.265707" y="160.568062"/><rect height="16.379999" opacity=".98" rx="1.746132" width="16.379999" x="141.865667" y="160.568062"/><rect height="16.379999" opacity=".98" rx="1.746132" width="16.379999" x="118.465627" y="160.568062"/><rect height="16.379999" opacity=".98" rx="1.746132" width="16.379999" x="96.865557" y="160.568062"/><rect height="16.379999" opacity=".98" rx="1.746133" ry="1.746132" width="33.476452" x="56.369059" y="160.568062"/><rect height="16.379999" opacity=".98" rx="1.746132" width="16.379999" x="352.465167" y="160.568062"/><rect height="16.379999" opacity=".98" rx="1.746132" width="16.379999" x="329.065327" y="160.568062"/><rect height="16.379999" opacity=".98" rx="1.746132" width="16.379999" x="305.665487" y="160.568062"/></g><g fill="none" stroke="#f4f4f4" stroke-width="1.8"><rect height="16.379999" opacity=".98" rx="1.746132" width="16.379999" x="270.648796" y="137.168062"/><rect height="16.379999" opacity=".98" rx="1.746132" width="16.379999" x="247.248946" y="137.168062"/><rect height="16.379999" opacity=".98" rx="1.746132" width="16.379999" x="223.848976" y="137.168062"/><rect height="16.379999" opacity=".98" rx="1.746132" width="16.379999" x="200.448936" y="137.168062"/><rect height="16.379999" opacity=".98" rx="1.746132" width="16.379999" x="177.048896" y="137.168062"/><rect height="16.379999" opacity=".98" rx="1.746132" width="16.379999" x="153.648856" y="137.168062"/><rect height="16.379999" opacity=".98" rx="1.746132" width="16.379999" x="130.248816" y="137.168062"/><rect height="16.379999" opacity=".98" rx="1.746132" width="16.379999" x="106.848776" y="137.168062"/><rect height="16.379999" opacity=".98" rx="1.746132" width="16.379999" x="85.248706" y="137.168062"/><rect height="16.379999" opacity=".98" rx="1.746132" width="21.859606" x="56.36906" y="137.168062"/><rect height="16.379999" opacity=".98" rx="1.746132" width="16.379999" x="340.848316" y="137.168062"/><rect height="16.379999" opacity=".98" rx="1.746132" width="16.379999" x="317.448476" y="137.168062"/><rect height="16.379999" opacity=".98" rx="1.746132" width="16.379999" x="294.048636" y="137.168062"/><rect height="16.379999" opacity=".98" rx="1.746132" width="22.310867" x="387.647996" y="137.168062"/><rect height="16.379999" opacity=".98" rx="1.746132" width="16.379999" x="364.248156" y="137.168062"/></g><g fill="none" stroke="#f4f4f4" stroke-width="1.8"><rect height="16.379999" opacity=".98" rx="1.746132" width="41.813976" x="257.031966" y="106.568062"/><rect height="16.379999" opacity=".98" rx="1.746132" width="41.814037" x="208.431876" y="106.568062"/><rect height="16.379999" opacity=".98" rx="1.746132" width="41.814037" x="159.831806" y="106.568062"/><rect height="16.379999" opacity=".98" rx="1.746132" width="16.379999" x="370.179036" y="106.568062"/><rect height="16.379999" opacity=".98" rx="1.746132" width="41.813831" x="305.631796" y="106.568062"/><rect height="16.379999" opacity=".98" rx="1.746132" width="16.379999" x="393.578876" y="106.568062"/><rect height="16.379999" opacity=".98" rx="1.746132" width="41.814037" x="111.231685" y="106.568062"/><rect height="16.379999" opacity=".98" rx="1.746132" width="16.379999" x="77.969074" y="106.568062"/><rect height="16.379999" opacity=".98" rx="1.746132" width="17.243998" x="55.937057" y="106.568062"/></g></g></svg>