<svg height="355.8797" viewBox="0 0 365.82324 142.35188" width="914.55811" xmlns="http://www.w3.org/2000/svg"><g fill="none" stroke="#f4f4f4" stroke-linecap="round" stroke-width=".8"><g transform="translate(-7.359859 -47.091206)"><rect height="140.35185" opacity=".98" rx="3.781591" ry="3.78159" stroke-width=".8" width="363.82321" x="8.359874" y="48.091221"/><path d="m252.96321 57.199811v16.16379m-233.860648-15.814014v15.814014m28.398321-16.177955v16.177955m318.809347 0h-352.762677m2.367796-16.039577h347.940991c1.49166 0 2.69252 1.200861 2.69252 2.692512v115.453314c0 1.49165-1.20086 2.69251-2.69252 2.69251h-347.940991c-1.491651 0-2.692512-1.20086-2.692512-2.69251v-115.453314c0-1.491651 1.200861-2.692512 2.692512-2.692512z" opacity=".98" stroke-width=".4"/></g><rect height="11.539902" opacity=".98" rx="1.641925" width="11.80032" x="337.194341" y="81.574654"/><rect height="11.539902" opacity=".98" rx="1.641925" width="11.80032" x="322.194311" y="81.574654"/><rect height="11.539902" opacity=".98" rx="1.641925" width="11.80032" x="307.194341" y="81.574654"/><rect height="11.539902" opacity=".98" rx="1.641925" width="11.80032" x="292.194311" y="81.574654"/><rect height="11.539902" opacity=".98" rx="1.641925" width="11.80032" x="337.194341" y="96.574654"/><rect height="11.539902" opacity=".98" rx="1.641925" width="11.80032" x="322.194311" y="96.574654"/><rect height="11.539902" opacity=".98" rx="1.641925" width="11.80032" x="307.194341" y="96.574654"/><rect height="11.539902" opacity=".98" rx="1.641925" width="11.80032" x="292.194311" y="96.574654"/><rect height="11.539902" opacity=".98" rx="1.641925" width="11.80032" x="337.194341" y="51.574657"/><rect height="11.539902" opacity=".98" rx="1.641925" width="11.80032" x="322.194311" y="51.574657"/><rect height="11.539902" opacity=".98" rx="1.641925" width="11.80032" x="307.194341" y="51.574657"/><rect height="11.539902" opacity=".98" rx="1.641925" width="11.80032" x="292.194311" y="51.574657"/><rect height="11.539902" opacity=".98" rx="1.641925" width="11.80032" x="337.194341" y="66.574654"/><rect height="11.539902" opacity=".98" rx="1.641925" width="11.80032" x="322.194311" y="66.574654"/><rect height="11.539902" opacity=".98" rx="1.641925" width="11.80032" x="307.194341" y="66.574654"/><rect height="11.539902" opacity=".98" rx="1.641925" width="11.80032" x="292.194311" y="66.574654"/><rect height="11.539902" opacity=".98" rx="1.641925" width="11.80032" x="337.194341" y="111.574654"/><rect height="11.539902" opacity=".98" rx="1.641925" width="11.80032" x="322.194311" y="111.574654"/><rect height="11.539902" opacity=".98" rx="1.641925" width="11.80032" x="307.194341" y="111.574654"/><rect height="11.539902" opacity=".98" rx="1.641925" width="11.80032" x="292.194311" y="111.574654"/><rect height="11.539902" opacity=".98" rx="1.641925" width="26.800346" x="258.194311" y="81.574654"/><rect height="11.539902" opacity=".98" rx="1.641925" width="11.80032" x="273.194341" y="96.574654"/><rect height="11.539902" opacity=".98" rx="1.641925" width="11.80032" x="258.194311" y="96.574654"/><rect height="11.539902" opacity=".98" rx="1.641925" width="26.800346" x="258.194311" y="111.574654"/><rect height="11.539902" opacity=".98" rx="1.641925" width="11.80032" x="273.194341" y="51.574657"/><rect height="11.539902" opacity=".98" rx="1.641925" width="11.80032" x="258.194311" y="51.574657"/><rect height="11.539902" opacity=".98" rx="1.641925" width="11.80032" x="273.194341" y="33.574657"/><rect height="11.539902" opacity=".98" rx="1.641925" width="11.80032" x="258.194311" y="33.574657"/><rect height="11.539902" opacity=".98" rx="1.641925" width="116.80032" x="78.768321" y="111.574654"/><rect height="11.539902" opacity=".98" rx="1.641925" width="11.80032" x="63.768336" y="111.574654"/><rect height="11.539902" opacity=".98" rx="1.641925" width="11.80032" x="48.768313" y="111.574654"/><rect height="11.539902" opacity=".98" rx="1.641925" width="18.800289" x="198.76836" y="111.574654"/><rect height="11.539902" opacity=".98" rx="1.641925" width="11.80032" x="160.76834" y="96.574654"/><rect height="11.539902" opacity=".98" rx="1.641925" width="11.80032" x="145.76831" y="96.574654"/><rect height="11.539902" opacity=".98" rx="1.641925" width="11.80032" x="130.76834" y="96.574654"/><rect height="11.539902" opacity=".98" rx="1.641925" width="11.80032" x="115.76831" y="96.574654"/><rect height="11.539902" opacity=".98" rx="1.641925" width="11.80032" x="100.76834" y="96.574654"/><rect height="11.539902" opacity=".98" rx="1.641925" width="11.80032" x="85.76831" y="96.574654"/><rect height="11.539902" opacity=".98" rx="1.641925" width="11.80032" x="70.768336" y="96.574654"/><rect height="11.539902" opacity=".98" rx="1.641925" width="11.80032" x="55.768313" y="96.574654"/><rect height="11.539902" opacity=".98" rx="1.641925" width="34.37434" x="18.194297" y="96.574654"/><rect height="11.539902" opacity=".98" rx="1.641925" width="22.22629" x="220.76831" y="96.574654"/><rect height="11.539902" opacity=".98" rx="1.641925" width="11.80032" x="205.76831" y="96.574654"/><rect height="11.539902" opacity=".98" rx="1.641925" width="11.80032" x="190.76834" y="96.574654"/><rect height="11.539902" opacity=".98" rx="1.641925" width="11.80032" x="175.76831" y="96.574654"/><g transform="translate(-7.359859 -47.091206)"><rect height="11.539902" opacity=".98" rx="1.641925" width="11.80032" x="175.55418" y="128.66586"/><rect height="11.539902" opacity=".98" rx="1.641925" width="11.80032" x="160.55415" y="128.66586"/><rect height="11.539902" opacity=".98" rx="1.641925" width="11.80032" x="145.55418" y="128.66586"/><rect height="11.539902" opacity=".98" rx="1.641925" width="11.80032" x="130.55415" y="128.66586"/><rect height="11.539902" opacity=".98" rx="1.641925" width="11.80032" x="115.55418" y="128.66586"/><rect height="11.539902" opacity=".98" rx="1.641925" width="11.80032" x="100.55415" y="128.66586"/><rect height="11.539902" opacity=".98" rx="1.641925" width="11.80032" x="85.554176" y="128.66586"/><rect height="11.539902" opacity=".98" rx="1.641925" width="11.80032" x="70.554153" y="128.66586"/><rect height="11.539902" opacity=".98" rx="1.641925" width="11.80032" x="55.554153" y="128.66586"/><rect height="11.539902" opacity=".98" rx="1.641925" width="11.80032" x="40.554176" y="128.66586"/><rect height="11.539902" opacity=".98" rx="1.641925" width="11.80032" x="25.554153" y="128.66586"/><rect height="11.539902" opacity=".98" rx="1.641925" width="11.80032" x="220.55415" y="128.66586"/><rect height="11.539902" opacity=".98" rx="1.641925" width="11.80032" x="205.55418" y="128.66586"/><rect height="11.539902" opacity=".98" rx="1.641925" width="11.80032" x="190.55415" y="128.66586"/><path d="m235.57437 125.20576h-2.35807c-.90963 0-1.66215-.73229-1.66215-1.64192v-8.25605c0-.90963.7323-1.64193 1.64193-1.64193h15.51646c.90962 0 1.64192.7323 1.64192 1.64193v8.25605 6.74395 8.25605c0 .90963-.73229 1.64192-1.64192 1.64192h-11.51646c-.90963 0-1.64193-.73229-1.64193-1.64192l.0202-8.25605z" opacity=".98"/></g><rect height="11.539902" opacity=".98" rx="1.641925" width="11.80032" x="164.194321" y="66.574654"/><rect height="11.539902" opacity=".98" rx="1.641925" width="11.80032" x="149.194291" y="66.574654"/><rect height="11.539902" opacity=".98" rx="1.641925" width="11.80032" x="134.194321" y="66.574654"/><rect height="11.539902" opacity=".98" rx="1.641925" width="11.80032" x="119.194291" y="66.574654"/><rect height="11.539902" opacity=".98" rx="1.641925" width="11.80032" x="104.194321" y="66.574654"/><rect height="11.539902" opacity=".98" rx="1.641925" width="11.80032" x="89.194291" y="66.574654"/><rect height="11.539902" opacity=".98" rx="1.641925" width="11.80032" x="74.194317" y="66.574654"/><rect height="11.539902" opacity=".98" rx="1.641925" width="11.80032" x="59.194294" y="66.574654"/><rect height="11.539902" opacity=".98" rx="1.641925" width="11.80032" x="44.194294" y="66.574654"/><rect height="11.539902" opacity=".98" rx="1.641925" width="22.800343" x="18.194293" y="66.574654"/><rect height="11.539902" opacity=".98" rx="1.641925" width="11.80032" x="209.194291" y="66.574654"/><rect height="11.539902" opacity=".98" rx="1.641925" width="11.80032" x="194.194321" y="66.574654"/><rect height="11.539902" opacity=".98" rx="1.641925" width="11.80032" x="179.194291" y="66.574654"/><rect height="11.539902" opacity=".98" rx="1.641925" width="11.80032" x="171.194321" y="51.574654"/><rect height="11.539902" opacity=".98" rx="1.641925" width="11.80032" x="156.194291" y="51.574654"/><rect height="11.539902" opacity=".98" rx="1.641925" width="11.80032" x="141.194321" y="51.574654"/><rect height="11.539902" opacity=".98" rx="1.641925" width="11.80032" x="126.194291" y="51.574654"/><rect height="11.539902" opacity=".98" rx="1.641925" width="11.80032" x="111.194321" y="51.574654"/><rect height="11.539902" opacity=".98" rx="1.641925" width="11.80032" x="96.194291" y="51.574654"/><rect height="11.539902" opacity=".98" rx="1.641925" width="11.80032" x="81.194317" y="51.574654"/><rect height="11.539902" opacity=".98" rx="1.641925" width="11.80032" x="66.194294" y="51.574654"/><rect height="11.539902" opacity=".98" rx="1.641925" width="11.80032" x="51.194294" y="51.574654"/><rect height="11.539902" opacity=".98" rx="1.641925" width="11.80032" x="231.194291" y="51.574654"/><rect height="11.539902" opacity=".98" rx="1.641925" width="11.80032" x="216.194291" y="51.574654"/><rect height="11.539902" opacity=".98" rx="1.641925" width="11.80032" x="201.194321" y="51.574654"/><rect height="11.539902" opacity=".98" rx="1.641925" width="11.80032" x="186.194291" y="51.574654"/><rect height="11.539902" opacity=".98" rx="1.641925" width="11.80032" x="51.194294" y="51.574654"/><rect height="11.539902" opacity=".98" rx="1.641925" width="11.80032" x="36.194294" y="51.574654"/><rect height="11.539902" opacity=".98" rx="1.641925" width="14.800321" x="18.194294" y="51.574654"/><rect height="11.539902" opacity=".98" rx="1.641925" width="11.80032" x="37.194294" y="33.574654"/><rect height="11.539902" opacity=".98" rx="1.641925" width="11.80032" x="18.194294" y="33.574654"/><rect height="11.539902" opacity=".98" rx="1.641925" width="15.500002" x="229.460931" y="33.574654"/><rect height="11.539902" opacity=".98" rx="1.641925" width="15.500002" x="210.460931" y="33.574654"/><rect height="11.539902" opacity=".98" rx="1.641925" width="15.500002" x="191.460931" y="33.574654"/><rect height="11.539902" opacity=".98" rx="1.641925" width="15.500002" x="172.460931" y="33.574654"/><rect height="11.539902" opacity=".98" rx="1.641925" width="15.500002" x="153.460931" y="33.574654"/><rect height="11.539902" opacity=".98" rx="1.641925" width="15.500002" x="131.460931" y="33.574654"/><rect height="11.539902" opacity=".98" rx="1.641925" width="15.500002" x="112.460931" y="33.574654"/><rect height="11.539902" opacity=".98" rx="1.641925" width="15.500002" x="93.460934" y="33.574654"/><rect height="11.539902" opacity=".98" rx="1.641925" width="15.500002" x="74.460934" y="33.574654"/><rect height="11.539902" opacity=".98" rx="1.641925" width="15.500002" x="55.460934" y="33.574654"/></g><g fill="#f4f4f4" fill-opacity=".5" stroke-width=".4" transform="translate(-7.359859 -47.091206)"><path d="m212.52214 157.67223q0 .128-.0309.21547-.0459.13013-.1472.13013-.0672 0-.1408-.0309-.0885-.0373-.0971-.0917.0299 0 .0704.0107.0939.0245.11734.0245.0907 0 .13653-.0907.0363-.0725.0363-.17387 0-.0715-.0469-.20373-.0459-.13334-.0459-.1856 0-.016.009-.0256.01-.0107.0256-.0107.0416 0 .0811.192.0331.16214.0331.24z"/><path d="m212.9328 157.78103q0 .1088-.0629.17067-.0629.0619-.17387.0619-.0608 0-.0939-.0288-.0331-.0288-.0331-.0885 0-.0843.10987-.1696.10453-.0811.19306-.0811.0405 0 .0533.0501.007.0288.007.0853zm-.0651.0299q0-.0128-.003-.0245-.002-.0128-.009-.0288-.0171.0117-.0565.0576-.0203.0235-.0352.0341 0-.0203.004-.0331.009-.0181.0139-.0309-.0469 0-.0981.0395-.0501.0395-.0501.0853 0 .0309.0341.0309.0651 0 .12587-.032.0736-.0384.0736-.0981z"/><path d="m213.37227 157.82477q0 .0523-.0395.11733-.0448.0736-.0928.0736-.0139 0-.0235-.0149-.009-.016-.009-.0309 0-.0192.0405-.0597.0416-.0416.0416-.0565 0-.01-.003-.0192-.003-.01-.004-.0128-.08.0181-.1632.0917-.0821.0736-.1248.0832-.009-.0235-.009-.048 0-.0299.0139-.0629.01-.0235.032-.0565.0373-.0565.0789-.128.0213-.0373.0736-.12906.0533-.0917.0779-.13014.0128-.0192.0224-.0288.0139-.0128.0331-.0171.0128.004.0181.016.006.0117.006.0277 0 .0363-.0469.0981-.0853.11094-.0875.1152-.048.0725-.048.1312l.002.0107q.0587-.0288.0693-.0331.0437-.0181.0747-.0181.0341 0 .0501.0235.016.0224.016.0576z"/><path d="m213.86721 157.76183q0 .0725-.0352.15467-.0384.0907-.0949.1248-.0117-.0139-.0203-.0309-.007-.0171-.007-.0341 0-.0181.0533-.10773.0235-.0395.0213-.0693l-.001-.0139q-.0395.0117-.13653.0715-.096.0587-.19414.11946-.0149 0-.0277-.0107-.0117-.0117-.0117-.0256 0-.0224.0715-.1504.0213-.0384.0768-.13334.0171.0224.0224.0501.005.0267.005.064 0 .016 0 .0245.0981-.0587.1536-.0885.0608-.0331.0832-.0331.0149 0 .0277.0341.0139.0341.0139.0544z"/><path d="m214.79414 157.96877q0 .0192-.0171.0299-.016.01-.0363.01-.0181 0-.0459-.004-.0629-.01-.0811-.01-.032 0-.12587.007-.0533.004-.0768.004-.0651 0-.0651-.0651 0-.0619.0405-.17706.0224-.0651.0843-.21334.0555-.13333.0704-.18773.005-.0171.009-.0224.009-.0128.0213-.0128.0203 0 .0341.0299.0139.0288.0139.0523 0 .0373-.0437.12587-.0437.0875-.0853.17173-.0459.10027-.0459.15254 0 .0267.0224.0373.016.007.0469.007.0235 0 .0811-.005.0576-.006.0768-.006.048 0 .0789.0139.0437.0192.0437.0619z"/><path d="m215.19094 157.78103q0 .1088-.0629.17067-.0629.0619-.17387.0619-.0608 0-.0939-.0288-.0331-.0288-.0331-.0885 0-.0843.10987-.1696.10453-.0811.19306-.0811.0405 0 .0533.0501.007.0288.007.0853zm-.0651.0299q0-.0128-.003-.0245-.002-.0128-.009-.0288-.0171.0117-.0565.0576-.0203.0235-.0352.0341 0-.0203.004-.0331.009-.0181.0139-.0309-.0469 0-.0981.0395-.0501.0395-.0501.0853 0 .0309.0341.0309.0651 0 .12587-.032.0736-.0384.0736-.0981z"/><path d="m215.64001 157.75863q0 .0341-.0181.0725-.0171.0384-.0437.064l-.001-.0149q0-.0128.003-.0395.003-.0267.003-.0395 0-.0181-.005-.0267-.005-.01-.0224-.01-.0501 0-.1248.0779-.0811.0853-.16107.1696-.006 0-.0128-.001-.016-.004-.0213-.005.003-.0384.0267-.0853.0629-.12694.0651-.13547.009-.0341.0128-.0501.004-.016.0117-.0331.009-.0181.0192-.032.0117-.0149.0299-.0224l.0107.128q.0459-.0373.0704-.0576.0469-.0373.0811-.0373.0341 0 .0555.0224.0213.0224.0213.0555z"/><path d="m216.16375 157.6349q0 .0448-.11947.1184-.1152.0704-.16747.0704-.0245 0-.0331-.0171-.007-.0171-.007-.048 0-.0203 0-.0288.0715 0 .13014-.0213.0587-.0213.1024-.0704-.032-.0117-.0651-.0117-.0779 0-.16534.0597-.096.0651-.096.13867 0 .0704.096.0981.0149.004.18027.0299.0971.0149.0971.0523 0 .016-.0352.0256-.0352.0107-.0896.0107-.13654 0-.21547-.0416-.10453-.0555-.10453-.17813 0-.128.128-.20374.1088-.064.24747-.064.0416 0 .0757.0192.0416.0235.0416.0619z"/><path d="m216.58828 157.44396q0 .0235-.0565.0981-.0565.0747-.0565.11413 0 .0203.0235.0405.0533.0469.0533.0576 0 .0139-.01.0267-.009.0128-.0224.0128-.0117 0-.0331-.0128-.0149-.009-.0576-.0416-.016.0309-.0245.0469-.0299.0565-.0405.0821-.016.0491-.032.0981-.0277.0661-.0693.0661l-.001-.0245q0-.0757.0491-.1792.01-.0192.0533-.0992-.0843-.0459-.1856-.0459 0-.0395.016-.0576.0171-.0192.0565-.0192.0363 0 .0907.0128.0267.006.0533.0128.0203-.006.0555-.0693.0864-.15147.11734-.17387.009.0139.0139.0277.006.0139.006.0267z"/><path d="m216.98189 157.82477q0 .0523-.0395.11733-.0448.0736-.0928.0736-.0139 0-.0235-.0149-.009-.016-.009-.0309 0-.0192.0405-.0597.0416-.0416.0416-.0565 0-.01-.003-.0192-.003-.01-.004-.0128-.08.0181-.1632.0917-.0821.0736-.12481.0832-.009-.0235-.009-.048 0-.0299.0139-.0629.01-.0235.032-.0565.0373-.0565.0789-.128.0213-.0373.0736-.12906.0533-.0917.0779-.13014.0128-.0192.0224-.0288.0139-.0128.0331-.0171.0128.004.0181.016.006.0117.006.0277 0 .0363-.0469.0981-.0853.11094-.0875.1152-.048.0725-.048.1312l.002.0107q.0587-.0288.0693-.0331.0437-.0181.0747-.0181.0341 0 .0501.0235.016.0224.016.0576z"/><path d="m217.85762 157.47703q0 .0501-.0533.1344-.0341.0533-.112.1536-.0779.0992-.0971.13014.003.001.08.0256.0779.0235.0779.0853-.032.005-.0629.01l-.0117-.001v-.009q-.0171-.004-.0277-.004-.0203 0-.064.006-.0437.006-.0661.006-.0288 0-.0469-.0107-.0181-.0107-.0181-.0384 0-.0224.0821-.12694.1536-.1952.15467-.19733.0832-.11307.0832-.15147 0-.0149-.0107-.0224-.01-.007-.0395-.007-.0203 0-.0843.0395-.0309.0192-.0501.0192l-.0181-.003q-.006-.004-.0139-.016-.007-.0128-.007-.0203 0-.0448.0864-.0821.0736-.032.128-.032.0459 0 .0704.0341.0213.0299.0213.0779z"/><path d="m218.49869 157.66903q0 .12907-.13973.22827-.128.0907-.26347.0907-.0672 0-.10667-.0341-.0395-.0341-.0395-.0992 0-.14506.12693-.25173.12053-.10134.26987-.10134.0757 0 .11413.0448.0384.0448.0384.12266zm-.0651.0245q0-.0491-.0555-.0736-.0416-.0181-.0992-.0181-.0843 0-.176.0821-.0917.0821-.0917.16533 0 .0341.0171.0491.0181.0139.0544.0139.10453 0 .2176-.0576.13333-.0683.13333-.16106z"/><path d="m218.98723 157.47703q0 .0501-.0533.1344-.0341.0533-.112.1536-.0779.0992-.0971.13014.003.001.08.0256.0779.0235.0779.0853-.032.005-.0629.01l-.0117-.001v-.009q-.0171-.004-.0277-.004-.0203 0-.064.006-.0437.006-.0661.006-.0288 0-.0469-.0107-.0181-.0107-.0181-.0384 0-.0224.0821-.12694.1536-.1952.15466-.19733.0832-.11307.0832-.15147 0-.0149-.0107-.0224-.01-.007-.0395-.007-.0203 0-.0843.0395-.0309.0192-.0501.0192l-.0181-.003q-.006-.004-.0139-.016-.007-.0128-.007-.0203 0-.0448.0864-.0821.0736-.032.128-.032.0459 0 .0704.0341.0213.0299.0213.0779z"/><path d="m219.47789 157.47703q0 .0501-.0533.1344-.0341.0533-.112.1536-.0779.0992-.0971.13014.003.001.08.0256.0779.0235.0779.0853-.032.005-.0629.01l-.0117-.001v-.009q-.0171-.004-.0277-.004-.0203 0-.064.006-.0437.006-.0661.006-.0288 0-.0469-.0107-.0181-.0107-.0181-.0384 0-.0224.0821-.12694.1536-.1952.15467-.19733.0832-.11307.0832-.15147 0-.0149-.0107-.0224-.01-.007-.0395-.007-.0203 0-.0843.0395-.0309.0192-.0501.0192l-.0181-.003q-.006-.004-.0139-.016-.007-.0128-.007-.0203 0-.0448.0864-.0821.0736-.032.128-.032.0459 0 .0704.0341.0213.0299.0213.0779z"/></g></svg>