<svg height="378.00763" viewBox="0 0 335.62739 151.20305" width="839.06848" xmlns="http://www.w3.org/2000/svg"><g transform="translate(-430.35504 -12.868769)"><text fill="#ef00eb" font-family="TrasksHand" font-size=".8" stroke="#0105ff" x="497.20566" y="28.697502"><tspan fill="#fafafa" fill-opacity=".4" font-size=".8" stroke="none" x="497.20566" y="28.697502">John Loreth 2022</tspan></text><g fill="none" stroke="#f4f4f4" stroke-linecap="round" stroke-linejoin="round"><g><rect height="144.36371" rx="3.477823" stroke-width=".8" width="333.62738" x="431.35504" y="18.708107"/><g stroke-width=".4"><rect height="122.4822" rx="3.47782" width="312.34012" x="441.60077" y="29.174017"/><rect height="23.945471" rx="11.972735" width="84.508484" x="545.02112" y="107.2998"/><path d="m553.36599 63.313146h68.69763"/></g></g><g stroke-width=".8"><circle cx="708.97986" cy="119.30692" r="14"/><circle cx="664.97986" cy="119.30692" r="14"/><circle cx="708.97986" cy="75.306923" r="14"/><circle cx="664.97986" cy="75.306923" r="14"/><rect height="6.676852" rx="3.338426" width="11.585259" x="553.73816" y="73.076805"/><rect height="8.212576" rx="3.33843" width="25.198856" x="552.53668" y="115.1946"/><rect height="8.212576" rx="3.33843" width="25.198856" x="595.99445" y="115.1946"/><path d="m479.88477 112.83203v16.58399c0 1.84949 1.4884 3.33789 3.33789 3.33789h13.34375c1.84949 0 3.33789-1.4884 3.33789-3.33789v-16.58399m0 0h16.58398c1.84949 0 3.33789-1.49035 3.33789-3.33984v-13.341799c0-1.849491-1.4884-3.339844-3.33789-3.339844h-16.58398m0 0v-16.583985c0-1.84949-1.4884-3.33789-3.33789-3.33789h-13.34375c-1.84949 0-3.33789 1.4884-3.33789 3.33789v16.583985m0 0h-16.58399c-1.84949 0-3.33984 1.490353-3.33984 3.339844v13.341799c0 1.84949 1.49035 3.33984 3.33984 3.33984h16.58399"/><path d="m431.35504 21.741394v-4.5342c0-1.84949 1.48894-3.33843 3.33843-3.33843h45.88632c1.84949 0 3.33843 1.377908 3.33843 4.93843"/><path d="m764.94608 22.245478v-3.917782c0-3.076481-1.48894-4.458931-3.33843-4.458931h-46.13316c-1.84949 0-3.33843 1.988683-3.33843 4.458931"/></g></g></g></svg>