<svg height="355.87604" viewBox="0 0 795.88359 996.45291" width="284.24414" xmlns="http://www.w3.org/2000/svg"><g fill="none" stroke="#f4f4f4"><g stroke-width="5.6"><g transform="translate(-235.5944 -11.815524)"><ellipse cx="632.71356" cy="351.64468" rx="293.72046" ry="222.87045"/><path d="m449.60459 222.29646h367.6173c7.71613 0 13.92804 6.21191 13.92804 13.92805v231.15392c0 7.71613-6.21191 13.92804-13.92804 13.92804h-367.6173c-7.71614 0-13.92805-6.21191-13.92805-13.92804v-231.15392c0-7.71614 6.21191-13.92805 13.92805-13.92805z"/><path d="m632.7336 931.38117c94.13985.19999 179.9269 43.69878 267.364 72.56513 49.31271 14.7824 97.65112-21.8935 110.2086-68.80427 19.4249-66.76724 14.0619-137.49186 19.9019-206.12397 1.7378-126.27631-5.0922-252.67662-15.4479-378.47728-10.0021-79.10294-21.74-159.61847-51.9434-233.79853-26.40794-60.764978-91.757-93.185736-155.58119-96.008424-57.8388-7.47481-116.25619-9.010259-174.50201-7.265652m0 917.912996c-101.46049-2.9053-206.33582-2.91936-302.81483-37.95924-61.83534-24.60984-92.5576-93.05636-90.81595-156.64388-6.7763-128.74809 1.21557-257.90662 11.60417-386.23727 10.0021-79.10294 21.74001-159.61847 51.94341-233.79853 26.40794-60.764978 91.757-93.185736 155.58119-96.008424 57.8388-7.47481 116.25619-9.010259 174.50201-7.265652"/></g><circle cx="397.47829" cy="691.938446" r="18.72047"/><circle cx="533.47249" cy="754.671966" r="48.72047"/><circle cx="675.67336" cy="647.411406" r="48.72047"/></g><circle cx="397.78701" cy="813.306426" r="11.220469" stroke-width="2.8"/></g><g transform="translate(-235.5944 -11.815524)"><g stroke-width="2"><path d="m418.98633 615.43555c-11.41911 0-20.61328 9.19417-20.61328 20.61328v54.97851h-54.97852c-11.41911 0-20.61133 9.19222-20.61133 20.61133v18.44727c0 11.41911 9.19222 20.61328 20.61133 20.61328h54.97852v54.97851c0 11.41911 9.19417 20.61133 20.61328 20.61133h18.44531c11.41911 0 20.61328-9.19222 20.61328-20.61133v-54.97851h54.97852c11.41911 0 20.61328-9.19417 20.61328-20.61328v-18.44727c0-11.41911-9.19417-20.61133-20.61328-20.61133h-54.97852v-54.97851c0-11.41911-9.19417-20.61328-20.61328-20.61328z" fill="none" stroke="#f4f4f4" stroke-width="5.6"/><g fill="#f4f4f4"><path d="m427.91177 807.69662-8.84508-15.32013-8.84508-15.32014h17.69016 17.69017l-8.84508 15.32014z" transform="matrix(.98 0 0 .85799389 8.558235 114.39146)"/><path d="m427.91177 807.69662-8.84508-15.32013-8.84508-15.32014h17.69016 17.69017l-8.84508 15.32014z" transform="matrix(0 -.98 .85799389 0 -177.47144 1139.1282)"/><path d="m427.91177 807.69662-8.84508-15.32013-8.84508-15.32014h17.69016 17.69017l-8.84508 15.32014z" transform="matrix(0 .98 -.85799389 0 1035.295 300.42118)"/><path d="m427.91177 807.69662-8.84508-15.32013-8.84508-15.32014h17.69016 17.69017l-8.84508 15.32014z" transform="matrix(-.98 0 0 -.85799389 847.26528 1325.1579)"/></g><ellipse cx="428.18338" cy="721.0141" fill="none" rx="19.22047" ry="19.220469" stroke="#f4f4f4" stroke-width="2.8"/></g><g fill="#f4f4f4" fill-opacity=".5" stroke-width="2.8"><path d="m466.62701 743.90105q0 .896-.21654 1.50827-.32107.91093-1.0304.91093-.4704 0-.9856-.21653-.61974-.26134-.67947-.64214.20907 0 .4928.0747.65707.17173.82134.17173.63466 0 .95573-.63466.25387-.50774.25387-1.21707 0-.50027-.32854-1.42614-.32106-.93333-.32106-1.2992 0-.112.0597-.1792.0672-.0747.1792-.0747.2912 0 .56747 1.344.23147 1.13494.23147 1.68001z"/><path d="m469.50168 744.66265q0 .7616-.44053 1.19467-.44054.43306-1.21707.43306-.4256 0-.65707-.2016-.23147-.2016-.23147-.61973 0-.58987.76907-1.1872.73174-.56747 1.35147-.56747.28373 0 .37333.35093.0523.2016.0523.59734zm-.45547.20907q0-.0896-.0224-.17174-.0149-.0896-.0597-.2016-.11947.0821-.39573.4032-.14187.16427-.2464.23894 0-.14187.0299-.23147.0597-.12693.0971-.21653-.32853 0-.68693.27626-.35094.27627-.35094.59734 0 .21653.23893.21653.45547 0 .88107-.224.5152-.2688.5152-.68693z"/><path d="m472.57795 744.96878q0 .36587-.27626.82134-.3136.5152-.6496.5152-.0971 0-.16427-.10454-.0597-.112-.0597-.21653 0-.1344.28373-.41813.2912-.2912.2912-.39574 0-.0672-.0224-.1344-.0224-.0672-.0299-.0896-.56.12694-1.1424.64214-.57493.5152-.8736.5824-.0597-.16427-.0597-.336 0-.20907.0971-.44054.0672-.16426.224-.39573.26134-.39573.55254-.896.14933-.26134.5152-.90347.37333-.64214.54507-.91094.0896-.1344.1568-.2016.0971-.0896.23146-.11946.0896.0299.12694.112.0448.0821.0448.19413 0 .25387-.32854.68694-.59733.77653-.61226.8064-.33601.50773-.33601.9184l.0149.0747q.41067-.2016.48533-.23147.30614-.12694.52267-.12694.23893 0 .35093.16427.112.1568.112.4032z"/><path d="m476.0425 744.52825q0 .50773-.2464 1.08267-.2688.63466-.66453.8736-.0821-.0971-.14187-.21654-.0523-.11946-.0523-.23893 0-.12693.37334-.75413.16426-.27627.14933-.48534l-.007-.0971q-.27626.0821-.95573.50026-.672.41067-1.35894.83627-.10453 0-.19413-.0747-.0821-.0821-.0821-.1792 0-.1568.50027-1.0528.14934-.2688.5376-.93333.11947.1568.1568.35093.0373.18667.0373.448 0 .112 0 .17174.68693-.41067 1.0752-.61974.4256-.23147.5824-.23147.10453 0 .19413.23894.0971.23893.0971.3808z"/><path d="m482.53104 745.97678q0 .1344-.11947.20907-.112.0672-.25386.0672-.12694 0-.32107-.0299-.44054-.0672-.56747-.0672-.224 0-.88107.0523-.37333.0299-.5376.0299-.45547 0-.45547-.45547 0-.43307.28374-1.23947.1568-.45547.58987-1.49333.38826-.93334.4928-1.31414.0373-.11947.0597-.1568.0597-.0896.14933-.0896.14187 0 .23894.20907.0971.2016.0971.36586 0 .26134-.30613.88107-.30613.61227-.59733 1.20214-.32107.70187-.32107 1.06773 0 .18667.1568.26134.112.0523.32853.0523.16427 0 .56747-.0373.4032-.0448.5376-.0448.336 0 .55254.0971.30613.1344.30613.43306z"/><path d="m485.30865 744.66265q0 .7616-.44054 1.19467-.44053.43306-1.21707.43306-.4256 0-.65706-.2016-.23147-.2016-.23147-.61973 0-.58987.76907-1.1872.73173-.56747 1.35147-.56747.28373 0 .37333.35093.0523.2016.0523.59734zm-.45547.20907q0-.0896-.0224-.17174-.0149-.0896-.0597-.2016-.11947.0821-.39574.4032-.14186.16427-.2464.23894 0-.14187.0299-.23147.0597-.12693.0971-.21653-.32854 0-.68694.27626-.35093.27627-.35093.59734 0 .21653.23893.21653.45547 0 .88107-.224.5152-.2688.5152-.68693z"/><path d="m488.45212 744.50585q0 .23893-.12693.50773-.11947.2688-.30614.448l-.007-.10453q0-.0896.0224-.27627.0224-.18666.0224-.27626 0-.12694-.0373-.18667-.0373-.0672-.1568-.0672-.35093 0-.8736.54507-.56747.59733-1.12747 1.1872-.0448 0-.0896-.007-.112-.0299-.14933-.0373.0224-.2688.18667-.59734.44053-.88853.45546-.94826.0597-.23894.0896-.35094.0299-.112.0821-.23147.0597-.12693.1344-.224.0821-.10453.20906-.1568l.0747.89601q.32107-.26134.4928-.40321.32854-.26133.56747-.26133.23893 0 .38827.1568.14933.1568.14933.38827z"/><path d="m492.11827 743.63971q0 .3136-.83627.8288-.8064.49281-1.17227.49281-.17173 0-.23147-.11947-.0523-.11947-.0523-.336 0-.14187 0-.2016.50027 0 .91094-.14934.41067-.14933.7168-.4928-.224-.0821-.45547-.0821-.54506 0-1.15733.41813-.672.45547-.672.97067 0 .4928.672.68694.10453.0299 1.26187.20906.67947.10454.67947.36587 0 .112-.24641.1792-.2464.0747-.6272.0747-.95573 0-1.50827-.2912-.73173-.38827-.73173-1.24694 0-.896.896-1.42613.7616-.448 1.73227-.448.2912 0 .53014.1344.2912.16426.2912.43306z"/><path d="m495.09001 742.30318q0 .16426-.39574.68693-.39573.52267-.39573.79894 0 .14186.16427.28373.37333.32853.37333.4032 0 .0971-.0672.18667-.0597.0896-.1568.0896-.0821 0-.23147-.0896-.10453-.0597-.4032-.2912-.112.21653-.17173.32853-.20907.39574-.28374.57494-.112.34346-.224.68693-.19413.46294-.48533.46294l-.007-.17174q0-.53013.34347-1.2544.0672-.1344.37333-.6944-.58986-.32107-1.2992-.32107 0-.27627.112-.4032.11947-.1344.39574-.1344.25386 0 .63466.0896.18667.0448.37334.0896.14187-.0448.38827-.48533.6048-1.06027.82133-1.21707.0597.0971.0971.19413.0448.0971.0448.18667z"/><path d="m497.84522 744.96878q0 .36587-.27627.82134-.3136.5152-.6496.5152-.0971 0-.16427-.10454-.0597-.112-.0597-.21653 0-.1344.28373-.41813.2912-.2912.2912-.39574 0-.0672-.0224-.1344-.0224-.0672-.0299-.0896-.56.12694-1.1424.64214-.57494.5152-.87361.5824-.0597-.16427-.0597-.336 0-.20907.0971-.44054.0672-.16426.224-.39573.26133-.39573.55253-.896.14934-.26134.5152-.90347.37334-.64214.54507-.91094.0896-.1344.1568-.2016.0971-.0896.23147-.11946.0896.0299.12693.112.0448.0821.0448.19413 0 .25387-.32853.68694-.59734.77653-.61227.8064-.336.50773-.336.9184l.0149.0747q.41067-.2016.48534-.23147.30613-.12694.52266-.12694.23894 0 .35094.16427.112.1568.112.4032z"/><path d="m503.97537 742.53464q0 .35094-.37333.94081-.23894.37333-.784 1.0752-.54507.6944-.67947.91093.0224.007.56.1792.54507.16427.54507.59734-.224.0373-.44054.0672l-.0821-.007v-.0597q-.11947-.0299-.19413-.0299-.14187 0-.44801.0448-.30613.0448-.46293.0448-.2016 0-.32853-.0747-.12694-.0747-.12694-.2688 0-.1568.57494-.88853 1.0752-1.3664 1.08267-1.38134.5824-.79146.5824-1.06027 0-.10453-.0747-.1568-.0672-.0523-.27627-.0523-.14186 0-.58986.27627-.21654.1344-.35094.1344l-.12693-.0224q-.0448-.0299-.0971-.112-.0523-.0896-.0523-.14187 0-.3136.60481-.57494.5152-.224.896-.224.32106 0 .4928.23894.14933.20906.14933.54506z"/><path d="m508.46284 743.87865q0 .90347-.97814 1.59787-.896.63466-1.84427.63466-.4704 0-.74666-.23893-.27627-.23893-.27627-.6944 0-1.01547.88853-1.76214.84374-.70933 1.88907-.70933.53014 0 .79894.3136.2688.3136.2688.85867zm-.45547.17173q0-.34347-.38827-.5152-.2912-.12693-.6944-.12693-.58986 0-1.232.57493-.64213.57494-.64213 1.15734 0 .23893.11946.34346.12694.0971.3808.0971.73174 0 1.52321-.4032.93333-.47787.93333-1.12747z"/><path d="m511.88259 742.53464q0 .35094-.37334.94081-.23893.37333-.784 1.0752-.54507.6944-.67947.91093.0224.007.56.1792.54507.16427.54507.59734-.224.0373-.44053.0672l-.0821-.007v-.0597q-.11946-.0299-.19413-.0299-.14187 0-.448.0448-.30613.0448-.46293.0448-.2016 0-.32854-.0747-.12693-.0747-.12693-.2688 0-.1568.57493-.88853 1.0752-1.3664 1.08267-1.38134.5824-.79146.5824-1.06027 0-.10453-.0747-.1568-.0672-.0523-.27627-.0523-.14187 0-.58987.27627-.21653.1344-.35093.1344l-.12694-.0224q-.0448-.0299-.0971-.112-.0523-.0896-.0523-.14187 0-.3136.6048-.57494.5152-.224.896-.224.32107 0 .4928.23894.14934.20906.14934.54506z"/><path d="m515.31725 742.53464q0 .35094-.37333.94081-.23894.37333-.784 1.0752-.54507.6944-.67947.91093.0224.007.56.1792.54507.16427.54507.59734-.224.0373-.44054.0672l-.0821-.007v-.0597q-.11947-.0299-.19413-.0299-.14187 0-.448.0448-.30614.0448-.46294.0448-.2016 0-.32853-.0747-.12694-.0747-.12694-.2688 0-.1568.57494-.88853 1.0752-1.3664 1.08267-1.38134.5824-.79146.5824-1.06027 0-.10453-.0747-.1568-.0672-.0523-.27627-.0523-.14186 0-.58986.27627-.21654.1344-.35094.1344l-.12693-.0224q-.0448-.0299-.0971-.112-.0523-.0896-.0523-.14187 0-.3136.6048-.57494.5152-.224.896-.224.32107 0 .4928.23894.14933.20906.14933.54506z"/></g></g></svg>