<?xml version="1.0" encoding="UTF-8" standalone="no"?>
<svg
   id="ps2"
   width="589"
   height="350"
   viewBox="0 0 589 350"
   version="1.1"
   sodipodi:docname="controller.svg"
   inkscape:version="1.1 (c68e22c387, 2021-05-23)"
   xmlns:inkscape="http://www.inkscape.org/namespaces/inkscape"
   xmlns:sodipodi="http://sodipodi.sourceforge.net/DTD/sodipodi-0.dtd"
   xmlns="http://www.w3.org/2000/svg"
   xmlns:svg="http://www.w3.org/2000/svg">
  <defs
     id="defs35" />
  <sodipodi:namedview
     id="namedview33"
     pagecolor="#ffffff"
     bordercolor="#666666"
     borderopacity="1.0"
     inkscape:pageshadow="2"
     inkscape:pageopacity="0.0"
     inkscape:pagecheckerboard="0"
     showgrid="false"
     inkscape:zoom="1.7962649"
     inkscape:cx="294.22164"
     inkscape:cy="175.08554"
     inkscape:window-width="1920"
     inkscape:window-height="1027"
     inkscape:window-x="1912"
     inkscape:window-y="-8"
     inkscape:window-maximized="1"
     inkscape:current-layer="ps2" />
  <g
     id="g67"
     inkscape:label="ps2">
    <g
       id="back">
      <path
         id="back-2"
         data-name="back"
         d="m 531.22,117.77 c 0,-0.18 -0.05,-0.36 -0.08,-0.54 l -0.06,-0.42 a 63.88,63.88 0 0 0 -1.44,-7 c -0.14,-0.59 -0.31,-1.18 -0.47,-1.77 l -0.06,-0.2 A 82.15,82.15 0 0 0 406,60.52 h -92.77 a 3.21,3.21 0 0 0 -1.59,0.45 c -8.26,4.85 -26,4.85 -34.28,0 a 3.21,3.21 0 0 0 -1.59,-0.45 H 183 A 82.15,82.15 0 0 0 59.89,107.89 l -0.06,0.2 c -0.16,0.59 -0.33,1.18 -0.47,1.77 a 63.88,63.88 0 0 0 -1.44,7 l -0.06,0.42 c 0,0.18 -0.06,0.36 -0.08,0.54 l -24,164.73 a 55.16,55.16 0 0 0 55,55 c 45.74,4.65 64.72,-57.61 85.47,-86.9 l 0.47,-0.1 c 31.94,31.89 82.78,17.68 101.62,-19.75 h 36.3 c 18.78,37.42 69.78,51.63 101.62,19.75 l 0.47,0.1 c 20.7,29.28 39.85,91.62 85.47,86.9 a 55.16,55.16 0 0 0 55,-55 z"
         style="fill:none;stroke:#f4f4f4;stroke-width:1.5px;stroke-miterlimit:10" />
      <path
         id="middle"
         d="m 531.22,117.77 c 0,-0.18 -0.05,-0.36 -0.08,-0.54 l -0.06,-0.42 a 63.88,63.88 0 0 0 -1.44,-7 c -0.14,-0.59 -0.31,-1.18 -0.47,-1.77 l -0.06,-0.2 A 82.33,82.33 0 0 0 493.2,60.08 l -5.52,-25.51 a 15.16,15.16 0 0 0 -8,-10.27 C 459.11,13.91 438.73,13.76 418.52,24.43 a 14.78,14.78 0 0 0 -7.47,10 l -5.65,26.1 h -92.17 a 3.21,3.21 0 0 0 -1.59,0.45 c -8.26,4.85 -26,4.85 -34.28,0 a 3.21,3.21 0 0 0 -1.59,-0.45 H 183.61 L 178,34.57 A 15.13,15.13 0 0 0 170,24.3 C 149.44,13.91 129.05,13.76 108.85,24.43 a 14.78,14.78 0 0 0 -7.47,10 L 95.8,60.08 a 82.33,82.33 0 0 0 -35.91,47.81 l -0.06,0.2 c -0.16,0.59 -0.33,1.18 -0.47,1.77 a 63.88,63.88 0 0 0 -1.44,7 l -0.06,0.42 c 0,0.18 -0.06,0.36 -0.08,0.54 l -24,164.73 a 55.16,55.16 0 0 0 55,55 c 45.74,4.65 64.72,-57.61 85.47,-86.9 l 0.47,-0.1 c 31.94,31.89 82.78,17.68 101.62,-19.75 h 36.3 c 18.78,37.42 69.78,51.63 101.62,19.75 l 0.47,0.1 c 20.7,29.28 39.85,91.62 85.47,86.9 a 55.16,55.16 0 0 0 55,-55 z"
         style="fill:none;stroke:#f4f4f4;stroke-width:1.5px;stroke-miterlimit:10" />
      <path
         id="front"
         d="m 531.22,117.77 c 0,-0.18 -0.05,-0.36 -0.08,-0.54 l -0.06,-0.42 a 63.88,63.88 0 0 0 -1.44,-7 c -0.14,-0.59 -0.31,-1.18 -0.47,-1.77 l -0.06,-0.2 A 82.33,82.33 0 0 0 493.2,60.08 L 487.68,34.57 A 14.94,14.94 0 0 0 479.91,24.42 C 479.08,24 478.25,23.6 477.43,23.21 l -0.74,-3.39 a 3,3 0 0 0 -1.77,-2.14 c -17.23,-7.12 -34.3,-7.24 -51.19,0 A 3,3 0 0 0 422,19.79 L 421.3,23 c -0.87,0.41 -1.74,0.84 -2.61,1.3 A 15,15 0 0 0 411,34.42 l -5.65,26.1 h -92.12 a 3.21,3.21 0 0 0 -1.59,0.45 c -8.26,4.85 -26,4.85 -34.28,0 a 3.21,3.21 0 0 0 -1.59,-0.45 H 183.61 L 178,34.57 A 14.92,14.92 0 0 0 170.23,24.42 C 169.41,24 168.58,23.6 167.75,23.21 L 167,19.82 a 3,3 0 0 0 -1.77,-2.14 c -17.24,-7.12 -34.31,-7.24 -51.19,0 a 3,3 0 0 0 -1.74,2.12 l -0.7,3.25 c -0.87,0.41 -1.74,0.84 -2.61,1.3 a 14.91,14.91 0 0 0 -7.64,10.08 L 95.8,60.08 a 82.33,82.33 0 0 0 -35.91,47.81 l -0.06,0.2 c -0.16,0.59 -0.33,1.18 -0.47,1.77 a 63.88,63.88 0 0 0 -1.44,7 l -0.06,0.42 c 0,0.18 -0.06,0.36 -0.08,0.54 l -24,164.73 a 55.16,55.16 0 0 0 55,55 c 45.74,4.65 64.72,-57.61 85.47,-86.9 l 0.47,-0.1 c 31.94,31.89 82.78,17.68 101.62,-19.75 h 36.3 c 18.78,37.42 69.78,51.63 101.62,19.75 l 0.47,0.1 c 20.7,29.28 39.85,91.62 85.47,86.9 a 55.16,55.16 0 0 0 55,-55 z"
         style="fill:none;stroke:#f4f4f4;stroke-width:1.5px;stroke-miterlimit:10" />
    </g>
    <g
       id="center">
      <path
         id="center-2"
         data-name="center"
         d="M 221.25,129.94 A 82.39,82.39 0 0 1 218,152.89 c 32.75,-0.43 58.54,30.21 52.69,62.39 h 47.66 c -5.85,-32.18 19.94,-62.82 52.69,-62.39 -9.3,-30 1.69,-65.32 24.7,-84.69 H 193.28 a 82,82 0 0 1 27.97,61.74 z"
         style="fill:none;stroke:#f4f4f4;stroke-width:1.5px;stroke-miterlimit:10" />
      <rect
         id="led"
         x="282.04999"
         y="195.72"
         width="24.9"
         height="8"
         style="fill:none;stroke:#f4f4f4;stroke-width:1.5px;stroke-linejoin:round" />
      <g
         id="analog">
        <rect
           id="back-3"
           data-name="back"
           x="282.04999"
           y="171.22"
           width="24.9"
           height="12"
           style="fill:none;stroke:#f4f4f4;stroke-width:1.5px;stroke-linejoin:round" />
        <rect
           id="button"
           x="275"
           y="167.72"
           width="39"
           height="19"
           rx="3"
           style="fill:none;stroke:#f4f4f4;stroke-width:1.5px;stroke-linejoin:round" />
      </g>
      <g
         id="select">
        <rect
           id="outside"
           x="235.17999"
           y="115.75"
           width="19.860001"
           height="28.440001"
           rx="4"
           transform="rotate(90,245.105,129.975)"
           style="fill:none;stroke:#f4f4f4;stroke-width:1.5px;stroke-linejoin:round" />
        <rect
           id="inside"
           x="233.89"
           y="123.05"
           width="22.440001"
           height="13.86"
           rx="2"
           style="fill:none;stroke:#f4f4f4;stroke-width:1.5px;stroke-linejoin:round" />
      </g>
      <g
         id="start">
        <path
           id="outside-2"
           data-name="outside"
           d="m 328.63,119.81 27.25,7.27 a 3,3 0 0 1 0,5.79 l -27.25,7.27 a 2,2 0 0 1 -2.52,-1.93 v -16.46 a 2,2 0 0 1 2.52,-1.94 z"
           style="fill:none;stroke:#f4f4f4;stroke-width:1.5px;stroke-linejoin:round" />
        <polygon
           id="inside-2"
           data-name="inside"
           points="329.11,123.05 329.11,136.9 355.11,129.97 "
           style="fill:none;stroke:#f4f4f4;stroke-width:1.5px;stroke-linejoin:round" />
      </g>
    </g>
    <g
       id="front-2"
       data-name="front">
      <g
         id="right">
        <path
           id="body"
           d="M 370.89,152.88 H 371 a 82.2,82.2 0 1 1 53.19,55.12 53.33,53.33 0 1 1 -53.3,-55.11 z"
           style="fill:none;stroke:#f4f4f4;stroke-width:1.5px;stroke-linejoin:round" />
        <circle
           id="outside-3"
           data-name="outside"
           cx="370.89001"
           cy="206.22"
           r="40"
           style="fill:none;stroke:#f4f4f4;stroke-width:1.5px;stroke-miterlimit:10" />
        <circle
           id="inside-3"
           data-name="inside"
           cx="370.89001"
           cy="206.22"
           r="35"
           style="fill:none;stroke:#f4f4f4;stroke-width:1.5px;stroke-miterlimit:10" />
        <path
           id="cross"
           d="m 391.2,107.06 h 32.86 a 3,3 0 0 0 3,-3 V 71.2 a 3,3 0 0 1 3,-3 h 39.75 a 3,3 0 0 1 3,3 v 32.86 a 3,3 0 0 0 3,3 h 32.87 a 3,3 0 0 1 3,3 v 39.75 a 3,3 0 0 1 -3,3 h -32.87 a 3,3 0 0 0 -3,3 v 32.87 a 3,3 0 0 1 -3,3 h -39.75 a 3,3 0 0 1 -3,-3 v -32.87 a 3,3 0 0 0 -3,-3 H 391.2 a 3,3 0 0 1 -3,-3 v -39.75 a 3,3 0 0 1 3,-3 z"
           style="fill:none;stroke:#f4f4f4;stroke-width:1.5px;stroke-miterlimit:10" />
        <path
           id="buttons"
           d="m 468.59,167.94 a 18.65,18.65 0 1 1 -18.65,-18.65 18.65,18.65 0 0 1 18.65,18.65 z M 449.94,73.29 a 18.65,18.65 0 1 0 18.65,18.65 18.65,18.65 0 0 0 -18.65,-18.65 z m 38,38 a 18.65,18.65 0 1 1 -18.65,18.65 18.65,18.65 0 0 1 18.65,-18.65 z m -94.65,18.65 a 18.65,18.65 0 1 0 18.65,-18.65 18.65,18.65 0 0 0 -18.65,18.65 z"
           style="fill:none;stroke:#f4f4f4;stroke-width:1.5px;stroke-miterlimit:10" />
      </g>
      <g
         id="left">
        <path
           id="body-2"
           data-name="body"
           d="M 218.11,152.88 H 218 a 82.2,82.2 0 1 0 -53.19,55.12 53.33,53.33 0 1 0 53.3,-55.11 z"
           style="fill:none;stroke:#f4f4f4;stroke-width:1.5px;stroke-linejoin:round" />
        <circle
           id="outside-4"
           data-name="outside"
           cx="218.11"
           cy="206.22"
           r="40"
           style="fill:none;stroke:#f4f4f4;stroke-width:1.5px;stroke-miterlimit:10" />
        <circle
           id="inside-4"
           data-name="inside"
           cx="218.11"
           cy="206.22"
           r="35"
           style="fill:none;stroke:#f4f4f4;stroke-width:1.5px;stroke-miterlimit:10" />
        <path
           id="cross-2"
           data-name="cross"
           d="m 197.8,107.06 h -32.86 a 3,3 0 0 1 -3,-3 V 71.2 a 3,3 0 0 0 -3,-3 h -39.75 a 3,3 0 0 0 -3,3 v 32.86 a 3,3 0 0 1 -3,3 H 80.32 a 3,3 0 0 0 -3,3 v 39.75 a 3,3 0 0 0 3,3 h 32.87 a 3,3 0 0 1 3,3 v 32.87 a 3,3 0 0 0 3,3 h 39.75 a 3,3 0 0 0 3,-3 v -32.87 a 3,3 0 0 1 3,-3 h 32.86 a 3,3 0 0 0 3,-3 v -39.75 a 3,3 0 0 0 -3,-3 z"
           style="fill:none;stroke:#f4f4f4;stroke-width:1.5px;stroke-miterlimit:10" />
        <path
           id="d-pad"
           d="m 155.3,109.8 a 79.4,79.4 0 0 1 -15.19,12.27 2,2 0 0 1 -2.1,0 74.91,74.91 0 0 1 -15.2,-12.28 2,2 0 0 1 -0.55,-1.39 V 86.51 a 2,2 0 0 1 2,-2 h 29.6 a 2,2 0 0 1 2,2 v 21.88 a 2.06,2.06 0 0 1 -0.56,1.41 z m -15.69,7.85 a 75.65,75.65 0 0 0 12,-9.77 1,1 0 0 0 0.29,-0.71 V 89.51 a 1,1 0 0 0 -1,-1 h -23.6 a 1,1 0 0 0 -1,1 v 17.68 a 1,1 0 0 0 0.29,0.71 71.27,71.27 0 0 0 12,9.75 1,1 0 0 0 1.02,0 z m 16.25,33.84 v 21.88 a 2,2 0 0 1 -2,2 h -29.6 a 2,2 0 0 1 -2,-2 v -21.89 a 2.07,2.07 0 0 1 0.55,-1.4 75.2,75.2 0 0 1 15.19,-12.27 2,2 0 0 1 2.1,0 79,79 0 0 1 15.19,12.27 2,2 0 0 1 0.57,1.41 z m -17.36,-9.26 a 70.72,70.72 0 0 0 -12,9.74 1,1 0 0 0 -0.29,0.71 v 17.69 a 1,1 0 0 0 1,1 h 23.6 a 1,1 0 0 0 1,-1 v -17.66 a 1,1 0 0 0 -0.29,-0.71 75.65,75.65 0 0 0 -12,-9.77 1,1 0 0 0 -1.02,0 z M 118.92,113.7 a 79,79 0 0 1 12.27,15.19 2,2 0 0 1 0,2.1 75.2,75.2 0 0 1 -12.27,15.2 2.07,2.07 0 0 1 -1.4,0.55 H 95.63 a 2,2 0 0 1 -2,-2 v -29.6 a 2,2 0 0 1 2,-2 h 21.88 a 2,2 0 0 1 1.41,0.56 z m 7.85,15.69 a 75.65,75.65 0 0 0 -9.77,-12 1,1 0 0 0 -0.71,-0.29 H 98.63 a 1,1 0 0 0 -1,1 v 23.6 a 1,1 0 0 0 1,1 h 17.69 a 1,1 0 0 0 0.71,-0.29 70.72,70.72 0 0 0 9.74,-11.95 1,1 0 0 0 0,-1.07 z m 33.84,-16.25 h 21.88 a 2,2 0 0 1 2,2 v 29.6 a 2,2 0 0 1 -2,2 H 160.6 a 2,2 0 0 1 -1.39,-0.55 74.91,74.91 0 0 1 -12.28,-15.19 2,2 0 0 1 0,-2.1 79.4,79.4 0 0 1 12.27,-15.2 2.06,2.06 0 0 1 1.41,-0.56 z m -9.26,17.36 a 71.27,71.27 0 0 0 9.75,11.95 1,1 0 0 0 0.71,0.29 h 17.68 a 1,1 0 0 0 1,-1 v -23.6 a 1,1 0 0 0 -1,-1 h -17.66 a 1,1 0 0 0 -0.71,0.29 75.65,75.65 0 0 0 -9.77,12 1,1 0 0 0 0,1.07 z"
           style="fill:none;stroke:#f4f4f4;stroke-width:1.5px;stroke-miterlimit:10" />
        <path
           id="arrows"
           d="m 146,79.94 h -13.87 l 6.93,-7.5 z m 0,100 h -13.87 l 6.93,7.5 z M 89.06,123 v 13.86 l -7.5,-6.93 z m 100,0 v 13.86 l 7.5,-6.93 z"
           style="fill:none;stroke:#f4f4f4;stroke-width:1.5px;stroke-linejoin:round" />
      </g>
    </g>
  </g>
</svg>
