<?xml version="1.0" encoding="UTF-8" standalone="no"?>
<svg
   id="ps3"
   width="589"
   height="350"
   viewBox="0 0 589 350"
   version="1.1"
   sodipodi:docname="controller.svg"
   inkscape:version="1.1 (c68e22c387, 2021-05-23)"
   xmlns:inkscape="http://www.inkscape.org/namespaces/inkscape"
   xmlns:sodipodi="http://sodipodi.sourceforge.net/DTD/sodipodi-0.dtd"
   xmlns="http://www.w3.org/2000/svg"
   xmlns:svg="http://www.w3.org/2000/svg">
  <defs
     id="defs46" />
  <sodipodi:namedview
     id="namedview44"
     pagecolor="#ffffff"
     bordercolor="#666666"
     borderopacity="1.0"
     inkscape:pageshadow="2"
     inkscape:pageopacity="0.0"
     inkscape:pagecheckerboard="0"
     showgrid="false"
     inkscape:zoom="1.7962649"
     inkscape:cx="294.22164"
     inkscape:cy="175.08554"
     inkscape:window-width="1920"
     inkscape:window-height="1027"
     inkscape:window-x="1912"
     inkscape:window-y="-8"
     inkscape:window-maximized="1"
     inkscape:current-layer="ps3" />
  <g
     id="ps3-2"
     data-name="ps3">
    <g
       id="back">
      <path
         id="back-2"
         data-name="back"
         d="M406,60.52a82.15,82.15,0,0,1,123.14,47.37l.06.2c.16.59.33,1.18.47,1.77a63.88,63.88,0,0,1,1.44,7l.06.42c0,.18.06.36.08.54l24,164.73a55.16,55.16,0,0,1-55,55c-45.62,4.72-64.77-57.62-85.47-86.9l-.47-.1c-31.84,31.88-82.84,17.67-101.62-19.75h-36.3c-18.84,37.43-69.68,51.64-101.62,19.75l-.47.1c-20.75,29.29-39.73,91.55-85.47,86.9a55.16,55.16,0,0,1-55-55l24-164.73c0-.18,0-.36.08-.54l.06-.42a63.88,63.88,0,0,1,1.44-7c.14-.59.31-1.18.47-1.77l.06-.2A82.15,82.15,0,0,1,183,60.52m.58-3.5h92.16a3.21,3.21,0,0,1,1.59.45c8.26,4.85,26,4.85,34.28,0a3.21,3.21,0,0,1,1.59-.45h92.16"
         style="fill: none;stroke: #f4f4f4;stroke-linecap: round;stroke-miterlimit: 10;stroke-width: 1.5px" />
      <path
         id="middle"
         d="M405.39,60.52,411,34.42a14.78,14.78,0,0,1,7.47-10c20.21-10.67,40.59-10.52,61.16-.13a15.16,15.16,0,0,1,8,10.27l5.52,25.51a82.33,82.33,0,0,1,35.91,47.81l.06.2c.16.59.33,1.18.47,1.77a63.88,63.88,0,0,1,1.44,7l.06.42c0,.18.06.36.08.54l24,164.73a55.16,55.16,0,0,1-55,55c-45.62,4.72-64.77-57.62-85.47-86.9l-.47-.1c-31.84,31.88-82.84,17.67-101.62-19.75h-36.3c-18.84,37.43-69.68,51.64-101.62,19.75l-.47.1c-20.75,29.29-39.73,91.55-85.47,86.9a55.16,55.16,0,0,1-55-55l24-164.73c0-.18,0-.36.08-.54l.06-.42a63.88,63.88,0,0,1,1.44-7c.14-.59.31-1.18.47-1.77l.06-.2A82.33,82.33,0,0,1,95.8,60.08l5.56-25.66a14.78,14.78,0,0,1,7.47-10C129,13.76,149.42,13.91,170,24.3a15.13,15.13,0,0,1,8,10.27l5.62,26m0-3.5h92.16a3.21,3.21,0,0,1,1.59.45c8.26,4.85,26,4.85,34.28,0a3.21,3.21,0,0,1,1.59-.45h92.16"
         style="fill: none;stroke: #f4f4f4;stroke-miterlimit: 10;stroke-width: 1.5px" />
      <path
         id="front"
         d="M405.39,60.52,411,34.42a15,15,0,0,1,7.65-10.08c.87-.46,1.74-.89,2.61-1.3l.7-3.25a3,3,0,0,1,1.73-2.12c16.89-7.23,34-7.11,51.19,0a3,3,0,0,1,1.77,2.14l.74,3.39c.82.39,1.65.79,2.48,1.21a14.94,14.94,0,0,1,7.77,10.15l5.52,25.51a82.33,82.33,0,0,1,35.91,47.81l.06.2c.16.59.33,1.18.47,1.77a63.88,63.88,0,0,1,1.44,7l.06.42c0,.18.06.36.08.54l24,164.73a55.16,55.16,0,0,1-55,55c-45.62,4.72-64.77-57.62-85.47-86.9l-.47-.1c-31.84,31.88-82.84,17.67-101.62-19.75h-36.3c-18.84,37.43-69.68,51.64-101.62,19.75l-.47.1c-20.75,29.29-39.73,91.55-85.47,86.9a55.16,55.16,0,0,1-55-55l24-164.73c0-.18,0-.36.08-.54l.06-.42a63.88,63.88,0,0,1,1.44-7c.14-.59.31-1.18.47-1.77l.06-.2A82.33,82.33,0,0,1,95.8,60.08l5.56-25.66A14.91,14.91,0,0,1,109,24.34c.87-.46,1.74-.89,2.61-1.3l.7-3.25a3,3,0,0,1,1.74-2.12c16.88-7.23,34-7.11,51.19,0A3,3,0,0,1,167,19.82l.73,3.39c.83.39,1.66.79,2.48,1.21A14.92,14.92,0,0,1,178,34.57l5.62,26m0-3.5h92.16a3.21,3.21,0,0,1,1.59.45c8.26,4.85,26,4.85,34.28,0a3.21,3.21,0,0,1,1.59-.45h92.16"
         style="fill: none;stroke: #f4f4f4;stroke-linecap: round;stroke-miterlimit: 10;stroke-width: 1.5px" />
    </g>
    <g
       id="center">
      <path
         id="center-2"
         data-name="center"
         d="M221.25,129.94A82.39,82.39,0,0,1,218,152.89c32.75-.43,58.54,30.21,52.69,62.39h47.66c-5.85-32.18,19.94-62.82,52.69-62.39-9.3-30,1.69-65.32,24.7-84.69H193.28A82,82,0,0,1,221.25,129.94Z"
         style="fill: none;stroke: #f4f4f4;stroke-miterlimit: 10;stroke-width: 1.5px" />
      <circle
         id="home"
         cx="294.5"
         cy="170"
         r="16.5"
         style="fill: none;stroke: #f4f4f4;stroke-miterlimit: 10;stroke-width: 1.5px" />
      <g
         id="select">
        <rect
           id="outside"
           x="235.18"
           y="115.75"
           width="19.86"
           height="28.44"
           rx="4"
           transform="translate(375.08 -115.13) rotate(90)"
           style="fill: none;stroke: #f4f4f4;stroke-linejoin: round;stroke-width: 1.5px" />
        <rect
           id="inside"
           x="233.89"
           y="123.05"
           width="22.44"
           height="13.86"
           rx="2"
           style="fill: none;stroke: #f4f4f4;stroke-linejoin: round;stroke-width: 1.5px" />
      </g>
      <g
         id="start">
        <path
           id="outside-2"
           data-name="outside"
           d="M328.63,119.81l27.25,7.27a3,3,0,0,1,0,5.79l-27.25,7.27a2,2,0,0,1-2.52-1.93V121.75A2,2,0,0,1,328.63,119.81Z"
           style="fill: none;stroke: #f4f4f4;stroke-linejoin: round;stroke-width: 1.5px" />
        <polygon
           id="inside-2"
           data-name="inside"
           points="355.11 129.97 329.11 123.05 329.11 136.9 355.11 129.97"
           style="fill: none;stroke: #f4f4f4;stroke-linejoin: round;stroke-width: 1.5px" />
      </g>
      <g
         id="leds">
        <g
           id="_1"
           data-name="1">
          <polygon
             points="255.73 61.55 250.73 61.55 250.73 63.55 255.73 63.55 255.73 61.55 255.73 61.55"
             style="fill: #f4f4f4"
             id="polygon14" />
        </g>
        <g
           id="_2"
           data-name="2">
          <polygon
             points="239.4 61.55 234.4 61.55 234.4 63.55 239.4 63.55 239.4 61.55 239.4 61.55"
             style="fill: #f4f4f4"
             id="polygon17" />
        </g>
        <g
           id="_3"
           data-name="3">
          <polygon
             points="223.06 61.55 218.06 61.55 218.06 63.55 223.06 63.55 223.06 61.55 223.06 61.55"
             style="fill: #f4f4f4"
             id="polygon20" />
        </g>
        <g
           id="_4"
           data-name="4">
          <polygon
             points="206.73 61.55 201.73 61.55 201.73 63.55 206.73 63.55 206.73 61.55 206.73 61.55"
             style="fill: #f4f4f4"
             id="polygon23" />
        </g>
      </g>
    </g>
    <g
       id="front-2"
       data-name="front">
      <g
         id="right">
        <path
           id="body"
           d="M370.89,152.88H371A82.2,82.2,0,1,1,424.19,208a53.33,53.33,0,1,1-53.3-55.11Z"
           style="fill: none;stroke: #f4f4f4;stroke-linejoin: round;stroke-width: 1.5px" />
        <circle
           id="outside-3"
           data-name="outside"
           cx="370.89"
           cy="206.22"
           r="40"
           style="fill: none;stroke: #f4f4f4;stroke-miterlimit: 10;stroke-width: 1.5px" />
        <circle
           id="inside-3"
           data-name="inside"
           cx="370.89"
           cy="206.22"
           r="35"
           style="fill: none;stroke: #f4f4f4;stroke-miterlimit: 10;stroke-width: 1.5px" />
        <path
           id="cross"
           d="M391.2,107.06h32.86a3,3,0,0,0,3-3V71.2a3,3,0,0,1,3-3h39.75a3,3,0,0,1,3,3v32.86a3,3,0,0,0,3,3h32.87a3,3,0,0,1,3,3v39.75a3,3,0,0,1-3,3H475.81a3,3,0,0,0-3,3v32.87a3,3,0,0,1-3,3H430.06a3,3,0,0,1-3-3V155.81a3,3,0,0,0-3-3H391.2a3,3,0,0,1-3-3V110.06A3,3,0,0,1,391.2,107.06Z"
           style="fill: none;stroke: #f4f4f4;stroke-miterlimit: 10;stroke-width: 1.5px" />
        <path
           id="buttons"
           d="M468.59,167.94a18.65,18.65,0,1,1-18.65-18.65A18.65,18.65,0,0,1,468.59,167.94ZM449.94,73.29a18.65,18.65,0,1,0,18.65,18.65A18.65,18.65,0,0,0,449.94,73.29Zm38,38a18.65,18.65,0,1,1-18.65,18.65A18.65,18.65,0,0,1,487.94,111.29Zm-94.65,18.65a18.65,18.65,0,1,0,18.65-18.65A18.65,18.65,0,0,0,393.29,129.94Z"
           style="fill: none;stroke: #f4f4f4;stroke-miterlimit: 10;stroke-width: 1.5px" />
      </g>
      <g
         id="left">
        <path
           id="body-2"
           data-name="body"
           d="M218.11,152.88H218A82.2,82.2,0,1,0,164.81,208a53.33,53.33,0,1,0,53.3-55.11Z"
           style="fill: none;stroke: #f4f4f4;stroke-linejoin: round;stroke-width: 1.5px" />
        <circle
           id="outside-4"
           data-name="outside"
           cx="218.11"
           cy="206.22"
           r="40"
           style="fill: none;stroke: #f4f4f4;stroke-miterlimit: 10;stroke-width: 1.5px" />
        <circle
           id="inside-4"
           data-name="inside"
           cx="218.11"
           cy="206.22"
           r="35"
           style="fill: none;stroke: #f4f4f4;stroke-miterlimit: 10;stroke-width: 1.5px" />
        <path
           id="cross-2"
           data-name="cross"
           d="M197.8,107.06H164.94a3,3,0,0,1-3-3V71.2a3,3,0,0,0-3-3H119.19a3,3,0,0,0-3,3v32.86a3,3,0,0,1-3,3H80.32a3,3,0,0,0-3,3v39.75a3,3,0,0,0,3,3h32.87a3,3,0,0,1,3,3v32.87a3,3,0,0,0,3,3h39.75a3,3,0,0,0,3-3V155.81a3,3,0,0,1,3-3H197.8a3,3,0,0,0,3-3V110.06A3,3,0,0,0,197.8,107.06Z"
           style="fill: none;stroke: #f4f4f4;stroke-miterlimit: 10;stroke-width: 1.5px" />
        <path
           id="d-pad"
           d="M154,111.07a79.09,79.09,0,0,1-10.37,8.66,8,8,0,0,1-9.15.06A74.13,74.13,0,0,1,124,111.06a6.08,6.08,0,0,1-1.78-4.27V86.49a2,2,0,0,1,2-2h29.64a2,2,0,0,1,2,2v20.27A6,6,0,0,1,154,111.07Zm-12.69,5.41a76.44,76.44,0,0,0,10.23-8.6,1,1,0,0,0,.29-.71V89.49a1,1,0,0,0-1-1H127.24a1,1,0,0,0-1,1V107.2a1,1,0,0,0,.28.7,70.81,70.81,0,0,0,10.22,8.58A4,4,0,0,0,141.34,116.48Zm14.52,36.64v20.26a2,2,0,0,1-2,2H124.24a2,2,0,0,1-2-2V153.09a6,6,0,0,1,1.78-4.27,74.13,74.13,0,0,1,10.47-8.73,8,8,0,0,1,9.15,0A80,80,0,0,1,154,148.81,6,6,0,0,1,155.86,153.12Zm-19.11-9.72A71.27,71.27,0,0,0,126.54,152a1,1,0,0,0-.28.7v17.7a1,1,0,0,0,1,1h23.64a1,1,0,0,0,1-1V152.71a1,1,0,0,0-.29-.71,76.27,76.27,0,0,0-10.22-8.59A4,4,0,0,0,136.75,143.4ZM120.19,115a80,80,0,0,1,8.67,10.37,8,8,0,0,1,0,9.15A74.13,74.13,0,0,1,120.18,145a6,6,0,0,1-4.27,1.78H95.62a2,2,0,0,1-2-2V115.12a2,2,0,0,1,2-2h20.26A6,6,0,0,1,120.19,115Zm5.4,12.68A76.27,76.27,0,0,0,117,117.43a1,1,0,0,0-.71-.29H98.62a1,1,0,0,0-1,1v23.64a1,1,0,0,0,1,1h17.7a1,1,0,0,0,.7-.28,71.27,71.27,0,0,0,8.58-10.21A4,4,0,0,0,125.59,127.65Zm36.65-14.51h20.27a2,2,0,0,1,2,2v29.64a2,2,0,0,1-2,2h-20.3a6.08,6.08,0,0,1-4.27-1.78,74.13,74.13,0,0,1-8.73-10.47,8,8,0,0,1,.06-9.15A79.09,79.09,0,0,1,157.93,115,6,6,0,0,1,162.24,113.14Zm-9.72,19.1a70.81,70.81,0,0,0,8.58,10.22,1,1,0,0,0,.7.28h17.71a1,1,0,0,0,1-1V118.12a1,1,0,0,0-1-1H161.83a1,1,0,0,0-.71.29,76.44,76.44,0,0,0-8.6,10.23A4,4,0,0,0,152.52,132.24Z"
           style="fill: none;stroke: #f4f4f4;stroke-miterlimit: 10;stroke-width: 1.5px" />
        <path
           id="arrows"
           d="M146,79.94H132.13l6.93-7.5Zm0,100H132.13l6.93,7.5ZM89.06,123v13.86l-7.5-6.93Zm100,0v13.86l7.5-6.93Z"
           style="fill: none;stroke: #f4f4f4;stroke-linejoin: round;stroke-width: 1.5px" />
      </g>
    </g>
  </g>
</svg>
