<svg height="359.81073" viewBox="0 0 180 431.77288" width="150" xmlns="http://www.w3.org/2000/svg"><g fill="#f4f4f4" fill-opacity=".5" stroke-width="1.2"><path d="m80.954807 427.15246q0 .384-.0928.6464-.1376.3904-.4416.3904-.2016 0-.4224-.0928-.2656-.112-.2912-.2752.0896 0 .2112.032.2816.0736.352.0736.272 0 .4096-.272.1088-.2176.1088-.5216 0-.2144-.1408-.6112-.1376-.4-.1376-.5568 0-.048.0256-.0768.0288-.032.0768-.032.1248 0 .2432.576.0992.4864.0992.72z"/><path d="m82.186809 427.47886q0 .3264-.1888.512-.1888.1856-.5216.1856-.1824 0-.2816-.0864-.0992-.0864-.0992-.2656 0-.2528.3296-.5088.3136-.2432.5792-.2432.1216 0 .16.1504.0224.0864.0224.256zm-.1952.0896q0-.0384-.0096-.0736-.0064-.0384-.0256-.0864-.0512.0352-.1696.1728-.0608.0704-.1056.1024 0-.0608.0128-.0992.0256-.0544.0416-.0928-.1408 0-.2944.1184-.1504.1184-.1504.256 0 .0928.1024.0928.1952 0 .3776-.096.2208-.1152.2208-.2944z"/><path d="m83.505209 427.61006q0 .1568-.1184.352-.1344.2208-.2784.2208-.0416 0-.0704-.0448-.0256-.048-.0256-.0928 0-.0576.1216-.1792.1248-.1248.1248-.1696 0-.0288-.0096-.0576-.0096-.0288-.0128-.0384-.24.0544-.4896.2752-.2464.2208-.3744.2496-.0256-.0704-.0256-.144 0-.0896.0416-.1888.0288-.0704.096-.1696.112-.1696.2368-.384.064-.112.2208-.3872.16-.2752.2336-.3904.0384-.0576.0672-.0864.0416-.0384.0992-.0512.0384.0128.0544.048.0192.0352.0192.0832 0 .1088-.1408.2944-.256.3328-.2624.3456-.144.2176-.144.3936l.0064.032q.176-.0864.208-.0992.1312-.0544.224-.0544.1024 0 .1504.0704.048.0672.048.1728z"/><path d="m84.990012 427.42126q0 .2176-.1056.464-.1152.272-.2848.3744-.0352-.0416-.0608-.0928-.0224-.0512-.0224-.1024 0-.0544.16-.3232.0704-.1184.064-.208l-.0032-.0416q-.1184.0352-.4096.2144-.288.176-.5824.3584-.0448 0-.0832-.032-.0352-.0352-.0352-.0768 0-.0672.2144-.4512.064-.1152.2304-.4.0512.0672.0672.1504.016.08.016.192 0 .048 0 .0736.2944-.176.4608-.2656.1824-.0992.2496-.0992.0448 0 .0832.1024.0416.1024.0416.1632z"/><path d="m87.77081 428.04206q0 .0576-.0512.0896-.048.0288-.1088.0288-.0544 0-.1376-.0128-.1888-.0288-.2432-.0288-.096 0-.3776.0224-.16.0128-.2304.0128-.1952 0-.1952-.1952 0-.1856.1216-.5312.0672-.1952.2528-.64.1664-.4.2112-.5632.016-.0512.0256-.0672.0256-.0384.064-.0384.0608 0 .1024.0896.0416.0864.0416.1568 0 .112-.1312.3776-.1312.2624-.256.5152-.1376.3008-.1376.4576 0 .08.0672.112.048.0224.1408.0224.0704 0 .2432-.016.1728-.0192.2304-.0192.144 0 .2368.0416.1312.0576.1312.1856z"/><path d="m88.96121 427.47886q0 .3264-.1888.512-.1888.1856-.5216.1856-.1824 0-.2816-.0864-.0992-.0864-.0992-.2656 0-.2528.3296-.5088.3136-.2432.5792-.2432.1216 0 .16.1504.0224.0864.0224.256zm-.1952.0896q0-.0384-.0096-.0736-.0064-.0384-.0256-.0864-.0512.0352-.1696.1728-.0608.0704-.1056.1024 0-.0608.0128-.0992.0256-.0544.0416-.0928-.1408 0-.2944.1184-.1504.1184-.1504.256 0 .0928.1024.0928.1952 0 .3776-.096.2208-.1152.2208-.2944z"/><path d="m90.308411 427.41166q0 .1024-.0544.2176-.0512.1152-.1312.192l-.0032-.0448q0-.0384.0096-.1184.0096-.08.0096-.1184 0-.0544-.016-.08-.016-.0288-.0672-.0288-.1504 0-.3744.2336-.2432.256-.4832.5088-.0192 0-.0384-.003-.048-.0128-.064-.016.0096-.1152.08-.256.1888-.3808.1952-.4064.0256-.1024.0384-.1504.0128-.048.0352-.0992.0256-.0544.0576-.096.0352-.0448.0896-.0672l.032.384q.1376-.112.2112-.1728.1408-.112.2432-.112.1024 0 .1664.0672.064.0672.064.1664z"/><path d="m91.879614 427.04046q0 .1344-.3584.3552-.3456.2112-.5024.2112-.0736 0-.0992-.0512-.0224-.0512-.0224-.144 0-.0608 0-.0864.2144 0 .3904-.064.176-.064.3072-.2112-.096-.0352-.1952-.0352-.2336 0-.496.1792-.288.1952-.288.416 0 .2112.288.2944.0448.0128.5408.0896.2912.0448.2912.1568 0 .048-.1056.0768-.1056.032-.2688.032-.4096 0-.6464-.1248-.3136-.1664-.3136-.5344 0-.384.384-.6112.3264-.192.7424-.192.1248 0 .2272.0576.1248.0704.1248.1856z"/><path d="m93.153215 426.46766q0 .0704-.1696.2944-.1696.224-.1696.3424 0 .0608.0704.1216.16.1408.16.1728 0 .0416-.0288.08-.0256.0384-.0672.0384-.0352 0-.0992-.0384-.0448-.0256-.1728-.1248-.048.0928-.0736.1408-.0896.1696-.1216.2464-.048.1472-.096.2944-.0832.1984-.208.1984l-.0032-.0736q0-.2272.1472-.5376.0288-.0576.16-.2976-.2528-.1376-.5568-.1376 0-.1184.048-.1728.0512-.0576.1696-.0576.1088 0 .272.0384.08.0192.16.0384.0608-.0192.1664-.208.2592-.4544.352-.5216.0256.0416.0416.0832.0192.0416.0192.08z"/><path d="m94.334017 427.61006q0 .1568-.1184.352-.1344.2208-.2784.2208-.0416 0-.0704-.0448-.0256-.048-.0256-.0928 0-.0576.1216-.1792.1248-.1248.1248-.1696 0-.0288-.0096-.0576-.0096-.0288-.0128-.0384-.24.0544-.4896.2752-.2464.2208-.3744.2496-.0256-.0704-.0256-.144 0-.0896.0416-.1888.0288-.0704.096-.1696.112-.1696.2368-.384.064-.112.2208-.3872.16-.2752.2336-.3904.0384-.0576.0672-.0864.0416-.0384.0992-.0512.0384.0128.0544.048.0192.0352.0192.0832 0 .1088-.1408.2944-.256.3328-.2624.3456-.144.2176-.144.3936l.0064.032q.176-.0864.208-.0992.1312-.0544.224-.0544.1024 0 .1504.0704.048.0672.048.1728z"/><path d="m96.961221 426.56686q0 .1504-.16.4032-.1024.16-.336.4608-.2336.2976-.2912.3904.0096.003.24.0768.2336.0704.2336.256-.096.016-.1888.0288l-.0352-.003v-.0256q-.0512-.0128-.0832-.0128-.0608 0-.192.0192-.1312.0192-.1984.0192-.0864 0-.1408-.032-.0544-.032-.0544-.1152 0-.0672.2464-.3808.4608-.5856.464-.592.2496-.3392.2496-.4544 0-.0448-.032-.0672-.0288-.0224-.1184-.0224-.0608 0-.2528.1184-.0928.0576-.1504.0576l-.0544-.01q-.0192-.0128-.0416-.048-.0224-.0384-.0224-.0608 0-.1344.2592-.2464.2208-.096.384-.096.1376 0 .2112.1024.064.0896.064.2336z"/><path d="m98.884419 427.14286q0 .3872-.4192.6848-.384.272-.7904.272-.2016 0-.32-.1024-.1184-.1024-.1184-.2976 0-.4352.3808-.7552.3616-.304.8096-.304.2272 0 .3424.1344.1152.1344.1152.368zm-.1952.0736q0-.1472-.1664-.2208-.1248-.0544-.2976-.0544-.2528 0-.528.2464-.2752.2464-.2752.496 0 .1024.0512.1472.0544.0416.1632.0416.3136 0 .6528-.1728.4-.2048.4-.4832z"/><path d="m100.35002 426.56686q0 .1504-.16.4032-.1024.16-.335997.4608-.2336.2976-.2912.3904.0096.003.24.0768.233597.0704.233597.256-.096.016-.188797.0288l-.0352-.003v-.0256q-.0512-.0128-.0832-.0128-.0608 0-.192.0192-.1312.0192-.1984.0192-.0864 0-.1408-.032-.0544-.032-.0544-.1152 0-.0672.2464-.3808.4608-.5856.464-.592.249597-.3392.249597-.4544 0-.0448-.032-.0672-.0288-.0224-.118397-.0224-.0608 0-.2528.1184-.0928.0576-.1504.0576l-.0544-.01q-.0192-.0128-.0416-.048-.0224-.0384-.0224-.0608 0-.1344.2592-.2464.2208-.096.383997-.096.1376 0 .2112.1024.064.0896.064.2336z"/><path d="m101.82202 426.56686q0 .1504-.16.4032-.1024.16-.336.4608-.2336.2976-.2912.3904.01.003.24.0768.2336.0704.2336.256-.096.016-.1888.0288l-.0352-.003v-.0256q-.0512-.0128-.0832-.0128-.0608 0-.192.0192-.1312.0192-.1984.0192-.0864 0-.1408-.032-.0544-.032-.0544-.1152 0-.0672.2464-.3808.4608-.5856.464-.592.2496-.3392.2496-.4544 0-.0448-.032-.0672-.0288-.0224-.1184-.0224-.0608 0-.2528.1184-.0928.0576-.1504.0576l-.0544-.01q-.0192-.0128-.0416-.048-.0224-.0384-.0224-.0608 0-.1344.2592-.2464.2208-.096.384-.096.1376 0 .2112.1024.064.0896.064.2336z"/></g><g fill="none" stroke="#f4f4f4" transform="translate(-355.01959 -221.10092)"><g><path d="m356.01959 553.04763v-240.67546m0 0v-90.27125h178v90.17593m0 0v240.59961m-178-240.4211v-1.35444m178 0v251.77286c0 49.306-39.694 89-89 89s-89-39.694-89-89v-250.41842" stroke-linecap="round" stroke-width="2.4"/><path d="m445.3125 475.81836c-19.82523 0-39.52832 8.16113-53.54688 22.17969-14.01855 14.01855-22.17968 33.72164-22.17968 53.54687s8.16113 39.52832 22.17968 53.54688c14.01856 14.01855 33.72165 22.17968 53.54688 22.17968s39.52832-8.16113 53.54688-22.17968c14.01855-14.01856 22.17968-33.72165 22.17968-53.54688s-8.16113-39.52832-22.17968-53.54687c-14.01856-14.01856-33.72165-22.17969-53.54688-22.17969z" stroke-linecap="round" transform="translate(0 12)"/><g stroke-width="1.2"><path d="m520.98004 564.90056v-330.73553-11.95663"/><path d="m369.59234 234.24652v330.65404"/><path d="m534.31328 277.07305c-5.90787-1.28047-9.83287-.2779-13.33324 1.07309"/><path d="m534.31328 271.07305c-5.90787-1.28047-9.83287-.2779-13.33324 1.07309"/><path d="m534.31328 299.07305c-5.90787-1.28047-9.83287-.2779-13.33324 1.07309"/><path d="m534.31328 293.07305c-5.90787-1.28047-9.83287-.2779-13.33324 1.07309"/><path d="m534.31328 321.07305c-5.90787-1.28047-9.83287-.2779-13.33324 1.07309"/><path d="m534.31328 315.07305c-5.90787-1.28047-9.83287-.2779-13.33324 1.07309"/><path d="m534.31328 343.07305c-5.90787-1.28047-9.83287-.2779-13.33324 1.07309"/><path d="m534.31328 337.07305c-5.90787-1.28047-9.83287-.2779-13.33324 1.07309"/><path d="m534.31328 367.07305c-5.90787-1.28047-9.83287-.2779-13.33324 1.07309"/><path d="m534.31328 361.07305c-5.90787-1.28047-9.83287-.2779-13.33324 1.07309"/><path d="m534.31328 389.07305c-5.90787-1.28047-9.83287-.2779-13.33324 1.07309"/><path d="m534.31328 383.07305c-5.90787-1.28047-9.83287-.2779-13.33324 1.07309"/><path d="m534.31328 411.07305c-5.90787-1.28047-9.83287-.2779-13.33324 1.07309"/><path d="m534.31328 405.07305c-5.90787-1.28047-9.83287-.2779-13.33324 1.07309"/><path d="m534.31328 433.07305c-5.90787-1.28047-9.83287-.2779-13.33324 1.07309"/><path d="m534.31328 427.07305c-5.90787-1.28047-9.83287-.2779-13.33324 1.07309"/><path d="m534.31328 459.07305c-5.90787-1.28047-9.83287-.2779-13.33324 1.07309"/><path d="m534.31328 453.07305c-5.90787-1.28047-9.83287-.2779-13.33324 1.07309"/><path d="m534.31328 481.07305c-5.90787-1.28047-9.83287-.2779-13.33324 1.07309"/><path d="m534.31328 475.07305c-5.90787-1.28047-9.83287-.2779-13.33324 1.07309"/><path d="m369.6834 277.07305c-5.90787-1.28047-9.83287-.2779-13.33324 1.07309"/><path d="m369.6834 271.07305c-5.90787-1.28047-9.83287-.2779-13.33324 1.07309"/><path d="m369.6834 299.07305c-5.90787-1.28047-9.83287-.2779-13.33324 1.07309"/><path d="m369.6834 293.07305c-5.90787-1.28047-9.83287-.2779-13.33324 1.07309"/><path d="m369.6834 321.07305c-5.90787-1.28047-9.83287-.2779-13.33324 1.07309"/><path d="m369.6834 315.07305c-5.90787-1.28047-9.83287-.2779-13.33324 1.07309"/><path d="m369.6834 343.07305c-5.90787-1.28047-9.83287-.2779-13.33324 1.07309"/><path d="m369.6834 337.07305c-5.90787-1.28047-9.83287-.2779-13.33324 1.07309"/><path d="m369.6834 367.07305c-5.90787-1.28047-9.83287-.2779-13.33324 1.07309"/><path d="m369.6834 361.07305c-5.90787-1.28047-9.83287-.2779-13.33324 1.07309"/><path d="m369.6834 389.07305c-5.90787-1.28047-9.83287-.2779-13.33324 1.07309"/><path d="m369.6834 383.07305c-5.90787-1.28047-9.83287-.2779-13.33324 1.07309"/><path d="m369.6834 411.07305c-5.90787-1.28047-9.83287-.2779-13.33324 1.07309"/><path d="m369.6834 405.07305c-5.90787-1.28047-9.83287-.2779-13.33324 1.07309"/><path d="m369.6834 433.07305c-5.90787-1.28047-9.83287-.2779-13.33324 1.07309"/><path d="m369.6834 427.07305c-5.90787-1.28047-9.83287-.2779-13.33324 1.07309"/><path d="m369.6834 459.07305c-5.90787-1.28047-9.83287-.2779-13.33324 1.07309"/><path d="m369.6834 453.07305c-5.90787-1.28047-9.83287-.2779-13.33324 1.07309"/><path d="m369.6834 481.07305c-5.90787-1.28047-9.83287-.2779-13.33324 1.07309"/><path d="m369.6834 475.07305c-5.90787-1.28047-9.83287-.2779-13.33324 1.07309"/><path d="m369.59234 234.24652-.0299-12.30295"/></g></g><g stroke-linecap="round" stroke-width="2.4"><rect height="38.67075" rx="7.380875" width="129.85158" x="380.08948" y="293.54379"/><circle cx="403.88736" cy="403.98148" r="23"/><circle cx="485.88736" cy="403.98148" r="23"/><circle cx="445.57681" cy="563.55353" r="64"/><path d="m445.77564 506.06726c-19.03859 0-37.5136 10.75373-34.3657 23.70619 5.15869 21.22601 8.96689 42.75455 0 67.14479-4.68018 12.73024 15.32711 23.70619 34.3657 23.70619m0-114.55717c19.03859 0 37.51361 10.75373 34.36571 23.70619-5.1587 21.22601-8.96689 42.75455 0 67.14479 4.68017 12.73024-15.32712 23.70619-34.36571 23.70619"/><circle cx="445.4198" cy="563.39838" r="16.5"/></g></g></svg>