<svg height="355.47903" viewBox="0 0 292.32891 408.80089" width="254.19905" xmlns="http://www.w3.org/2000/svg"><g fill="#f4f4f4" fill-opacity=".5" stroke-width="1.15" transform="translate(-27.86347 -31.068439)"><path d="m284.53316 365.24354q0 .276-.0667.4646-.0989.2806-.3174.2806-.1449 0-.3036-.0667-.1909-.0805-.2093-.1978.0644 0 .1518.023.2024.0529.253.0529.1955 0 .2944-.1955.0782-.1564.0782-.3749 0-.1541-.1012-.4393-.0989-.2875-.0989-.4002 0-.0345.0184-.0552.0207-.023.0552-.023.0897 0 .1748.414.0713.3496.0713.5175z"/><path d="m285.41866 365.47814q0 .2346-.1357.368-.1357.1334-.3749.1334-.1311 0-.2024-.0621-.0713-.0621-.0713-.1909 0-.1817.2369-.3657.2254-.1748.4163-.1748.0874 0 .115.1081.0161.0621.0161.184zm-.1403.0644q0-.0276-.007-.0529-.005-.0276-.0184-.0621-.0368.0253-.1219.1242-.0437.0506-.0759.0736 0-.0437.009-.0713.0184-.0391.0299-.0667-.1012 0-.2116.0851-.1081.0851-.1081.184 0 .0667.0736.0667.1403 0 .2714-.069.1587-.0828.1587-.2116z"/><path d="m286.36626 365.57244q0 .1127-.0851.253-.0966.1587-.2001.1587-.0299 0-.0506-.0322-.0184-.0345-.0184-.0667 0-.0414.0874-.1288.0897-.0897.0897-.1219 0-.0207-.007-.0414-.007-.0207-.009-.0276-.1725.0391-.3519.1978-.1771.1587-.2691.1794-.0184-.0506-.0184-.1035 0-.0644.0299-.1357.0207-.0506.069-.1219.0805-.1219.1702-.276.046-.0805.1587-.2783.115-.1978.1679-.2806.0276-.0414.0483-.0621.0299-.0276.0713-.0368.0276.009.0391.0345.0138.0253.0138.0598 0 .0782-.1012.2116-.184.2392-.1886.2484-.1035.1564-.1035.2829l.005.023q.1265-.0621.1495-.0713.0943-.0391.161-.0391.0736 0 .1081.0506.0345.0483.0345.1242z"/><path d="m287.43346 365.43674q0 .1564-.0759.3335-.0828.1955-.2047.2691-.0253-.0299-.0437-.0667-.0161-.0368-.0161-.0736 0-.0391.115-.2323.0506-.0851.046-.1495l-.002-.0299q-.0851.0253-.2944.1541-.207.1265-.4186.2576-.0322 0-.0598-.023-.0253-.0253-.0253-.0552 0-.0483.1541-.3243.046-.0828.1656-.2875.0368.0483.0483.1081.0115.0575.0115.138 0 .0345 0 .0529.2116-.1265.3312-.1909.1311-.0713.1794-.0713.0322 0 .0598.0736.0299.0736.0299.1173z"/><path d="m289.43216 365.88294q0 .0414-.0368.0644-.0345.0207-.0782.0207-.0391 0-.0989-.009-.1357-.0207-.1748-.0207-.069 0-.2714.0161-.115.009-.1656.009-.1403 0-.1403-.1403 0-.1334.0874-.3818.0483-.1403.1817-.46.1196-.2875.1518-.4048.0115-.0368.0184-.0483.0184-.0276.046-.0276.0437 0 .0736.0644.0299.0621.0299.1127 0 .0805-.0943.2714-.0943.1886-.184.3703-.0989.2162-.0989.3289 0 .0575.0483.0805.0345.0161.1012.0161.0506 0 .1748-.0115.1242-.0138.1656-.0138.1035 0 .1702.0299.0943.0414.0943.1334z"/><path d="m290.28776 365.47814q0 .2346-.1357.368-.1357.1334-.3749.1334-.1311 0-.2024-.0621-.0713-.0621-.0713-.1909 0-.1817.2369-.3657.2254-.1748.4163-.1748.0874 0 .115.1081.0161.0621.0161.184zm-.1403.0644q0-.0276-.007-.0529-.005-.0276-.0184-.0621-.0368.0253-.1219.1242-.0437.0506-.0759.0736 0-.0437.009-.0713.0184-.0391.0299-.0667-.1012 0-.2116.0851-.1081.0851-.1081.184 0 .0667.0736.0667.1403 0 .2714-.069.1587-.0828.1587-.2116z"/><path d="m291.25606 365.42984q0 .0736-.0391.1564-.0368.0828-.0943.138l-.002-.0322q0-.0276.007-.0851.007-.0575.007-.0851 0-.0391-.0115-.0575-.0115-.0207-.0483-.0207-.1081 0-.2691.1679-.1748.184-.3473.3657-.0138 0-.0276-.002-.0345-.009-.046-.0115.007-.0828.0575-.184.1357-.2737.1403-.2921.0184-.0736.0276-.1081.009-.0345.0253-.0713.0184-.0391.0414-.069.0253-.0322.0644-.0483l.023.276q.0989-.0805.1518-.1242.1012-.0805.1748-.0805.0736 0 .1196.0483.046.0483.046.1196z"/><path d="m292.38536 365.16304q0 .0966-.2576.2553-.2484.1518-.3611.1518-.0529 0-.0713-.0368-.0161-.0368-.0161-.1035 0-.0437 0-.0621.1541 0 .2806-.046.1265-.046.2208-.1518-.069-.0253-.1403-.0253-.1679 0-.3565.1288-.207.1403-.207.299 0 .1518.207.2116.0322.009.3887.0644.2093.0322.2093.1127 0 .0345-.0759.0552-.0759.023-.1932.023-.2944 0-.4646-.0897-.2254-.1196-.2254-.3841 0-.276.276-.4393.2346-.138.5336-.138.0897 0 .1633.0414.0897.0506.0897.1334z"/><path d="m293.30076 364.75134q0 .0506-.1219.2116-.1219.161-.1219.2461 0 .0437.0506.0874.115.1012.115.1242 0 .0299-.0207.0575-.0184.0276-.0483.0276-.0253 0-.0713-.0276-.0322-.0184-.1242-.0897-.0345.0667-.0529.1012-.0644.1219-.0874.1771-.0345.1058-.069.2116-.0598.1426-.1495.1426l-.002-.0529q0-.1633.1058-.3864.0207-.0414.115-.2139-.1817-.0989-.4002-.0989 0-.0851.0345-.1242.0368-.0414.1219-.0414.0782 0 .1955.0276.0575.0138.115.0276.0437-.0138.1196-.1495.1863-.3266.253-.3749.0184.0299.0299.0598.0138.0299.0138.0575z"/><path d="m294.14946 365.57244q0 .1127-.0851.253-.0966.1587-.2001.1587-.0299 0-.0506-.0322-.0184-.0345-.0184-.0667 0-.0414.0874-.1288.0897-.0897.0897-.1219 0-.0207-.007-.0414-.007-.0207-.009-.0276-.1725.0391-.3519.1978-.1771.1587-.2691.1794-.0184-.0506-.0184-.1035 0-.0644.0299-.1357.0207-.0506.069-.1219.0805-.1219.1702-.276.046-.0805.1587-.2783.115-.1978.1679-.2806.0276-.0414.0483-.0621.0299-.0276.0713-.0368.0276.009.0391.0345.0138.0253.0138.0598 0 .0782-.1012.2116-.184.2392-.1886.2484-.1035.1564-.1035.2829l.005.023q.1265-.0621.1495-.0713.0943-.0391.161-.0391.0736 0 .1081.0506.0345.0483.0345.1242z"/><path d="m296.03777 364.82264q0 .1081-.115.2898-.0736.115-.2415.3312-.1679.2139-.2093.2806.007.002.1725.0552.1679.0506.1679.184-.069.0115-.1357.0207l-.0253-.002v-.0184q-.0368-.009-.0598-.009-.0437 0-.138.0138-.0943.0138-.1426.0138-.0621 0-.1012-.023-.0391-.023-.0391-.0828 0-.0483.1771-.2737.3312-.4209.3335-.4255.1794-.2438.1794-.3266 0-.0322-.023-.0483-.0207-.0161-.0851-.0161-.0437 0-.1817.0851-.0667.0414-.1081.0414l-.0391-.007q-.0138-.009-.0299-.0345-.0161-.0276-.0161-.0437 0-.0966.1863-.1771.1587-.069.276-.069.0989 0 .1518.0736.046.0644.046.1679z"/><path d="m297.42006 365.23664q0 .2783-.3013.4922-.276.1955-.5681.1955-.1449 0-.23-.0736-.0851-.0736-.0851-.2139 0-.3128.2737-.5428.2599-.2185.5819-.2185.1633 0 .2461.0966.0828.0966.0828.2645zm-.1403.0529q0-.1058-.1196-.1587-.0897-.0391-.2139-.0391-.1817 0-.3795.1771-.1978.1771-.1978.3565 0 .0736.0368.1058.0391.0299.1173.0299.2254 0 .4692-.1242.2875-.1472.2875-.3473z"/><path d="m298.47347 364.82264q0 .1081-.115.2898-.0736.115-.2415.3312-.1679.2139-.2093.2806.007.002.1725.0552.1679.0506.1679.184-.069.0115-.1357.0207l-.0253-.002v-.0184q-.0368-.009-.0598-.009-.0437 0-.138.0138-.0943.0138-.1426.0138-.0621 0-.1012-.023-.0391-.023-.0391-.0828 0-.0483.1771-.2737.3312-.4209.3335-.4255.1794-.2438.1794-.3266 0-.0322-.023-.0483-.0207-.0161-.0851-.0161-.0437 0-.1817.0851-.0667.0414-.1081.0414l-.0391-.007q-.0138-.009-.0299-.0345-.0161-.0276-.0161-.0437 0-.0966.1863-.1771.1587-.069.276-.069.0989 0 .1518.0736.046.0644.046.1679z"/><path d="m299.53146 364.82264q0 .1081-.115.2898-.0736.115-.2415.3312-.1679.2139-.2093.2806.007.002.1725.0552.1679.0506.1679.184-.069.0115-.1357.0207l-.0253-.002v-.0184q-.0368-.009-.0598-.009-.0437 0-.138.0138-.0943.0138-.1426.0138-.0621 0-.1012-.023-.0391-.023-.0391-.0828 0-.0483.1771-.2737.3312-.4209.3335-.4255.1794-.2438.1794-.3266 0-.0322-.023-.0483-.0207-.0161-.0851-.0161-.0437 0-.1817.0851-.0667.0414-.1081.0414l-.0391-.007q-.0138-.009-.0299-.0345-.0161-.0276-.0161-.0437 0-.0966.1863-.1771.1587-.069.276-.069.0989 0 .1518.0736.046.0644.046.1679z"/></g><g transform="translate(-27.86347 -31.068439)"><g fill="none" stroke="#f4f4f4"><path d="m174.14785 32.068439h87.80455m57.23883 101.206461v297.61874c0 4.41854-3.55716 7.9757-7.9757 7.9757h-136.98611m95.00107-402.58591v86.8923c0 2.4647 1.98422 4.44892 4.44892 4.44892h34.23837m-45.96538-95.556211c6.19372.142055 7.16647 1.853132 7.27809 4.214991m38.68729 91.34122c6.9269-.19171 11.23865 2.24067 11.27345 5.65025m-145.04338-101.206461h-87.80455m-57.23883 101.206461v297.61874c0 4.41854 3.55716 7.9757 7.9757 7.9757h136.98611m-95.00107-402.58591v86.8923c0 2.4647-1.98422 4.44892-4.44892 4.44892h-34.23837m45.96538-95.556211c-6.19372.142055-7.16647 1.853132-7.27809 4.214991m-38.68729 91.34122c-8.044955-.59483-11.260301 2.34608-11.27345 5.65025" opacity=".98" stroke-width="2.3"/><g stroke-linecap="round"><path d="m40.41121 127.38197v264.12001c0 1.85056 1.4898 3.34036 3.34036 3.34036h130.38219m133.72255-267.46037v264.12001c0 1.85056-1.4898 3.34036-3.34036 3.34036h-130.38219" opacity=".98" stroke-width="1.15"/><g stroke-width="2.3"><path d="m276.36347 379.45874 32.7573-.0586 8.49988 1.5479" opacity=".98"/><path d="m276.36347 367.45874 32.7573-.0586 8.49988 1.5479" opacity=".98"/><path d="m276.36347 355.45874 32.7573-.0586 8.49988 1.5479" opacity=".98"/><path d="m276.36347 343.45874 32.7573-.0586 8.49988 1.5479" opacity=".98"/><path d="m276.36347 331.45874 32.7573-.0586 8.49988 1.5479" opacity=".98"/><path d="m276.36347 319.45874 32.7573-.0586 8.49988 1.5479" opacity=".98"/><path d="m276.36347 307.45874 32.7573-.0586 8.49988 1.5479" opacity=".98"/><path d="m276.36347 295.45874 32.7573-.0586 8.49988 1.5479" opacity=".98"/><path d="m276.36347 283.45874 32.7573-.0586 8.49988 1.5479" opacity=".98"/><path d="m276.36347 271.45874 32.7573-.0586 8.49988 1.5479" opacity=".98"/><path d="m276.36347 259.45874 32.7573-.0586 8.49988 1.5479" opacity=".98"/><path d="m276.36347 247.45874 32.7573-.0586 8.49988 1.5479" opacity=".98"/><path d="m276.36347 235.45874 32.7573-.0586 8.49988 1.5479" opacity=".98"/><path d="m276.36347 223.45874 32.7573-.0586 8.49988 1.5479" opacity=".98"/><path d="m276.36347 211.45874 32.7573-.0586 8.49988 1.5479" opacity=".98"/></g><g stroke-width="2.3" transform="matrix(-1 0 0 1 347.98412 0)"><path d="m276.36347 379.45874 32.7573-.0586 8.49988 1.5479" opacity=".98"/><path d="m276.36347 367.45874 32.7573-.0586 8.49988 1.5479" opacity=".98"/><path d="m276.36347 355.45874 32.7573-.0586 8.49988 1.5479" opacity=".98"/><path d="m276.36347 343.45874 32.7573-.0586 8.49988 1.5479" opacity=".98"/><path d="m276.36347 331.45874 32.7573-.0586 8.49988 1.5479" opacity=".98"/><path d="m276.36347 319.45874 32.7573-.0586 8.49988 1.5479" opacity=".98"/><path d="m276.36347 307.45874 32.7573-.0586 8.49988 1.5479" opacity=".98"/><path d="m276.36347 295.45874 32.7573-.0586 8.49988 1.5479" opacity=".98"/><path d="m276.36347 283.45874 32.7573-.0586 8.49988 1.5479" opacity=".98"/><path d="m276.36347 271.45874 32.7573-.0586 8.49988 1.5479" opacity=".98"/><path d="m276.36347 259.45874 32.7573-.0586 8.49988 1.5479" opacity=".98"/><path d="m276.36347 247.45874 32.7573-.0586 8.49988 1.5479" opacity=".98"/><path d="m276.36347 235.45874 32.7573-.0586 8.49988 1.5479" opacity=".98"/><path d="m276.36347 223.45874 32.7573-.0586 8.49988 1.5479" opacity=".98"/><path d="m276.36347 211.45874 32.7573-.0586 8.49988 1.5479" opacity=".98"/></g><g stroke-width="1.15"><path d="m78.996229 85.37677h190.485351m13.28819 0h36.45246m.0337 4.741377h-36.62992m-13.45322 0h-190.060325m-13.770436 0h-36.515016m.410376-4.741377h36.315817" opacity=".98"/><path d="m78.996229 95.37677h190.485351m13.28819 0h36.45246m.0337 4.74138h-36.62992m-13.45322 0h-190.060325m-13.770436 0h-36.515016m.410376-4.74138h36.315817" opacity=".98"/><path d="m78.996229 65.37677h190.485351m13.28819 0h36.45246m.0337 4.741377h-36.62992m-13.45322 0h-190.060325m-13.770436 0h-36.515016m.410376-4.741377h36.315817" opacity=".98"/><path d="m78.996229 75.37677h190.485351m13.28819 0h36.45246m.0337 4.74138h-36.62992m-13.45322 0h-190.060325m-13.770436 0h-36.515016m.410376-4.74138h36.315817" opacity=".98"/></g><path d="m174.11912 139.43199h-113.5911c-2.4647 0-4.44892 1.98422-4.44892 4.44892v45.76865c0 2.4647 1.98422 4.44892 4.44892 4.44892h113.62748m.0364-54.66649h113.5911c2.4647 0 4.44892 1.98422 4.44892 4.44892v45.76865c0 2.4647-1.98422 4.44892-4.44892 4.44892h-113.6275" opacity=".98" stroke-width="1.15"/></g></g><g fill="#f4f4f4"><path d="m174.11021 48.264628 2.02787 3.512373 2.02787 3.512373h-4.05574-4.05573l2.02786-3.512373z" opacity=".98" transform="matrix(0 -1.2324869 2.2706537 0 133.49679 263.87925)"/><path d="m174.11021 48.264628 2.02787 3.512373 2.02787 3.512373h-4.05574-4.05573l2.02786-3.512373z" opacity=".98" transform="matrix(0 -1.2324869 -2.2706537 0 214.63207 263.87925)"/></g></g><g fill="none" stroke="#f4f4f4"><circle cx="146.58299" cy="261.588421" opacity=".98" r="70" stroke-width="1.15"/><circle cx="146.25533" cy="261.530801" opacity=".98" r="27" stroke-width="2.3"/><g stroke-linecap="round" transform="translate(-27.86347 -31.068439)"><g stroke-width="5"><path d="m174.11021 352.72546v-19.94929" opacity=".98"/><path d="m174.11021 252.0515v-19.94929" opacity=".98"/><path d="m114.00558 292.79826h19.94928" opacity=".98"/><path d="m214.41438 292.79826h19.94928" opacity=".98"/><path d="m131.48525 335.00798 14.10627-14.10628" opacity=".98"/><path d="m202.67248 263.82074 14.10628-14.10628" opacity=".98"/><path d="m131.35978 250.13266 14.10627 14.10627" opacity=".98"/><path d="m202.35953 321.1324 14.10627 14.10627" opacity=".98"/></g><g stroke-width="2.3"><path d="m315.73412 128.81146v-4.8725m-33.19967-82.734099h-13.0951m45.1665 9.454383c1.6218 1.924811 4.65526 3.937085 4.58538 8.442948m-17.65753-21.515098c-2.89343-2.893431-5.43958-2.606452-7.19511-2.782792m7.19511 2.782792 13.07215 13.07215m4.58538 8.442948v62.290958c0 1.31739-1.06057 2.37796-2.37796 2.37796h-31.84745c-1.31739 0-2.37796-1.06057-2.37796-2.37796v-84.210886c0-1.317391 1.06057-2.377962 2.37796-2.377962h9.37277" opacity=".98"/><path d="m32.42986 128.30545v-4.36649m33.19967-82.734099 13.195175-.026665m-45.266575 9.481048c-1.6218 1.924811-4.65526 3.937085-4.58538 8.442948m17.65753-21.515098c2.89343-2.893431 5.43958-2.606452 7.19511-2.782792m-7.19511 2.782792-13.07215 13.07215m-4.58538 8.442948v62.290958c0 1.31739 1.06057 2.37796 2.37796 2.37796h31.84745c1.31739 0 2.37796-1.06057 2.37796-2.37796v-84.210886c0-1.317391-1.06057-2.377962-2.37796-2.377962h-9.37277" opacity=".98"/></g></g></g></svg>