<svg height="351.75739" shape-rendering="crispEdges" viewBox="0 0 466.62783 140.70295" width="1166.5696" xmlns="http://www.w3.org/2000/svg"><g fill="#f4f4f4" fill-opacity=".5" stroke-width=".4"><path d="m350.81463 129.6278q0 .128-.0309.21547-.0459.13013-.1472.13013-.0672 0-.1408-.0309-.0885-.0373-.0971-.0917.0299 0 .0704.0107.0939.0245.11733.0245.0907 0 .13654-.0907.0363-.0725.0363-.17387 0-.0715-.0469-.20374-.0459-.13333-.0459-.1856 0-.016.009-.0256.01-.0107.0256-.0107.0416 0 .0811.192.0331.16213.0331.24z"/><path d="m351.2253 129.7366q0 .1088-.0629.17067-.0629.0619-.17387.0619-.0608 0-.0939-.0288-.0331-.0288-.0331-.0885 0-.0843.10986-.1696.10454-.0811.19307-.0811.0405 0 .0533.0501.007.0288.007.0853zm-.0651.0299q0-.0128-.003-.0245-.002-.0128-.009-.0288-.0171.0117-.0565.0576-.0203.0235-.0352.0341 0-.0203.004-.0331.009-.0181.0139-.0309-.0469 0-.0981.0395-.0501.0395-.0501.0853 0 .0309.0341.0309.0651 0 .12586-.032.0736-.0384.0736-.0981z"/><path d="m351.66477 129.78033q0 .0523-.0395.11734-.0448.0736-.0928.0736-.0139 0-.0235-.0149-.009-.016-.009-.0309 0-.0192.0405-.0597.0416-.0416.0416-.0565 0-.01-.003-.0192-.003-.01-.004-.0128-.08.0181-.1632.0917-.0821.0736-.1248.0832-.009-.0235-.009-.048 0-.0299.0139-.0629.01-.0235.032-.0565.0373-.0565.0789-.128.0213-.0373.0736-.12907.0533-.0917.0779-.13013.0128-.0192.0224-.0288.0139-.0128.0331-.0171.0128.004.0181.016.006.0117.006.0277 0 .0363-.0469.0981-.0853.11093-.0875.1152-.048.0725-.048.1312l.002.0107q.0587-.0288.0693-.0331.0437-.0181.0747-.0181.0341 0 .0501.0235.016.0224.016.0576z"/><path d="m352.1597 129.7174q0 .0725-.0352.15467-.0384.0907-.0949.1248-.0117-.0139-.0203-.0309-.007-.0171-.007-.0341 0-.0181.0533-.10773.0235-.0395.0213-.0693l-.001-.0139q-.0395.0117-.13654.0715-.096.0587-.19413.11947-.0149 0-.0277-.0107-.0117-.0117-.0117-.0256 0-.0224.0715-.1504.0213-.0384.0768-.13333.0171.0224.0224.0501.005.0267.005.064 0 .016 0 .0245.0981-.0587.1536-.0885.0608-.0331.0832-.0331.0149 0 .0277.0341.0139.0341.0139.0544z"/><path d="m353.08664 129.92433q0 .0192-.0171.0299-.016.01-.0363.01-.0181 0-.0459-.004-.0629-.01-.0811-.01-.032 0-.12587.007-.0533.004-.0768.004-.0651 0-.0651-.0651 0-.0619.0405-.17707.0224-.0651.0843-.21333.0555-.13334.0704-.18774.005-.0171.009-.0224.009-.0128.0213-.0128.0203 0 .0341.0299.0139.0288.0139.0523 0 .0373-.0437.12586-.0437.0875-.0853.17174-.0459.10027-.0459.15253 0 .0267.0224.0373.016.007.0469.007.0235 0 .0811-.005.0576-.006.0768-.006.048 0 .0789.0139.0437.0192.0437.0619z"/><path d="m353.48344 129.7366q0 .1088-.0629.17067-.0629.0619-.17387.0619-.0608 0-.0939-.0288-.0331-.0288-.0331-.0885 0-.0843.10986-.1696.10454-.0811.19307-.0811.0405 0 .0533.0501.007.0288.007.0853zm-.0651.0299q0-.0128-.003-.0245-.002-.0128-.009-.0288-.0171.0117-.0565.0576-.0203.0235-.0352.0341 0-.0203.004-.0331.009-.0181.0139-.0309-.0469 0-.0981.0395-.0501.0395-.0501.0853 0 .0309.0341.0309.0651 0 .12586-.032.0736-.0384.0736-.0981z"/><path d="m353.93251 129.7142q0 .0341-.0181.0725-.0171.0384-.0437.064l-.001-.0149q0-.0128.003-.0395.003-.0267.003-.0395 0-.0181-.005-.0267-.005-.01-.0224-.01-.0501 0-.1248.0779-.0811.0853-.16107.1696-.006 0-.0128-.001-.016-.004-.0213-.005.003-.0384.0267-.0853.0629-.12693.0651-.13546.009-.0341.0128-.0501.004-.016.0117-.0331.009-.0181.0192-.032.0117-.0149.0299-.0224l.0107.128q.0459-.0373.0704-.0576.0469-.0373.0811-.0373.0341 0 .0555.0224.0213.0224.0213.0555z"/><path d="m354.45624 129.59047q0 .0448-.11946.1184-.1152.0704-.16747.0704-.0245 0-.0331-.0171-.007-.0171-.007-.048 0-.0203 0-.0288.0715 0 .13013-.0213.0587-.0213.1024-.0704-.032-.0117-.0651-.0117-.0779 0-.16533.0597-.096.0651-.096.13866 0 .0704.096.0981.0149.004.18027.0299.0971.0149.0971.0523 0 .016-.0352.0256-.0352.0107-.0896.0107-.13653 0-.21546-.0416-.10454-.0555-.10454-.17814 0-.128.128-.20373.1088-.064.24747-.064.0416 0 .0757.0192.0416.0235.0416.0619z"/><path d="m354.88078 129.39953q0 .0235-.0565.0981-.0565.0747-.0565.11414 0 .0203.0235.0405.0533.0469.0533.0576 0 .0139-.01.0267-.009.0128-.0224.0128-.0117 0-.0331-.0128-.0149-.009-.0576-.0416-.016.0309-.0245.0469-.0299.0565-.0405.0821-.016.0491-.032.0981-.0277.0661-.0693.0661l-.001-.0245q0-.0757.0491-.1792.01-.0192.0533-.0992-.0843-.0459-.1856-.0459 0-.0395.016-.0576.0171-.0192.0565-.0192.0363 0 .0907.0128.0267.006.0533.0128.0203-.006.0555-.0693.0864-.15147.11733-.17387.009.0139.0139.0277.006.0139.006.0267z"/><path d="m355.27438 129.78033q0 .0523-.0395.11734-.0448.0736-.0928.0736-.0139 0-.0235-.0149-.009-.016-.009-.0309 0-.0192.0405-.0597.0416-.0416.0416-.0565 0-.01-.003-.0192-.003-.01-.004-.0128-.08.0181-.1632.0917-.0821.0736-.1248.0832-.009-.0235-.009-.048 0-.0299.0139-.0629.01-.0235.032-.0565.0373-.0565.0789-.128.0213-.0373.0736-.12907.0533-.0917.0779-.13013.0128-.0192.0224-.0288.0139-.0128.0331-.0171.0128.004.0181.016.006.0117.006.0277 0 .0363-.0469.0981-.0853.11093-.0875.1152-.048.0725-.048.1312l.002.0107q.0587-.0288.0693-.0331.0437-.0181.0747-.0181.0341 0 .0501.0235.016.0224.016.0576z"/><path d="m356.15012 129.4326q0 .0501-.0533.1344-.0341.0533-.112.1536-.0779.0992-.0971.13013.003.001.08.0256.0779.0235.0779.0853-.032.005-.0629.01l-.0117-.001v-.009q-.0171-.004-.0277-.004-.0203 0-.064.006-.0437.006-.0661.006-.0288 0-.0469-.0107-.0181-.0107-.0181-.0384 0-.0224.0821-.12693.1536-.1952.15467-.19733.0832-.11307.0832-.15147 0-.0149-.0107-.0224-.01-.007-.0395-.007-.0203 0-.0843.0395-.0309.0192-.0501.0192l-.0181-.003q-.006-.004-.0139-.016-.007-.0128-.007-.0203 0-.0448.0864-.0821.0736-.032.128-.032.0459 0 .0704.0341.0213.0299.0213.0779z"/><path d="m356.79119 129.6246q0 .12907-.13974.22827-.128.0907-.26346.0907-.0672 0-.10667-.0341-.0395-.0341-.0395-.0992 0-.14507.12694-.25174.12053-.10133.26986-.10133.0757 0 .11414.0448.0384.0448.0384.12267zm-.0651.0245q0-.0491-.0555-.0736-.0416-.0181-.0992-.0181-.0843 0-.176.0821-.0917.0821-.0917.16534 0 .0341.0171.0491.0181.0139.0544.0139.10453 0 .2176-.0576.13333-.0683.13333-.16107z"/><path d="m357.43012 129.6246q0 .12907-.13973.22827-.128.0907-.26347.0907-.0672 0-.10667-.0341-.0395-.0341-.0395-.0992 0-.14507.12693-.25174.12054-.10133.26987-.10133.0757 0 .11413.0448.0384.0448.0384.12267zm-.0651.0245q0-.0491-.0555-.0736-.0416-.0181-.0992-.0181-.0843 0-.176.0821-.0917.0821-.0917.16534 0 .0341.0171.0491.0181.0139.0544.0139.10454 0 .2176-.0576.13334-.0683.13334-.16107z"/><path d="m357.91866 129.4326q0 .0501-.0533.1344-.0341.0533-.11201.1536-.0779.0992-.0971.13013.003.001.08.0256.0779.0235.0779.0853-.032.005-.0629.01l-.0117-.001v-.009q-.0171-.004-.0277-.004-.0203 0-.064.006-.0437.006-.0661.006-.0288 0-.0469-.0107-.0181-.0107-.0181-.0384 0-.0224.0821-.12693.1536-.1952.15466-.19733.0832-.11307.0832-.15147 0-.0149-.0107-.0224-.01-.007-.0395-.007-.0203 0-.0843.0395-.0309.0192-.0501.0192l-.0181-.003q-.006-.004-.0139-.016-.007-.0128-.007-.0203 0-.0448.0864-.0821.0736-.032.12801-.032.0459 0 .0704.0341.0213.0299.0213.0779z"/></g><g fill="none" stroke="#f4f4f4" stroke-width=".8"><g transform="translate(-29.893306 -154.79964)"><rect height="137.49756" ry="3.915972" width="463.42242" x="31.496006" y="156.40234"/><g><rect height="121.63072" ry="3.935702" stroke-width=".8" width="250.84201" x="140.4706" y="163.83023"/><g stroke-width=".4"><path d="m140.73062 205.11126h251.23633"/><path d="m140.7942 223.24526h251.23633"/><path d="m140.7942 242.44526h251.23633"/><path d="m140.25205 262.03769h251.23633"/></g></g><path d="m132.39049 157.79836-.008 134.75009"/><path d="m398.15991 156.96139-.008 137.1695"/></g><g transform="translate(-29.893306 -154.79964)"><path d="m44.164131 179.0621h76.290419c.92383 0 1.66755.74373 1.66755 1.66756v103.65752c0 .92382-.74372 1.66755-1.66755 1.66755h-76.290419c-.923824 0-1.667553-.74373-1.667553-1.66755v-103.65752c0-.92383.743729-1.66756 1.667553-1.66756z"/><path d="m108.13237 257.61432a8.3961983 8.3961992 0 0 1 -8.396202 8.3962 8.3961983 8.3961992 0 0 1 -8.396198-8.3962 8.3961983 8.3961992 0 0 1 8.396198-8.3962 8.3961983 8.3961992 0 0 1 8.396202 8.3962z"/><path d="m62.206977 199.81967h25.649614c3.282823 0 5.925674 2.64285 5.925674 5.92568v24.14536c0 3.28282-2.642851 5.92567-5.925674 5.92567h-25.649614c-3.282823 0-5.925674-2.64285-5.925674-5.92567v-24.14536c0-3.28283 2.642851-5.92568 5.925674-5.92568z"/><path d="m76.467983 217.76326a1.4862859 1.4862866 0 0 1 -1.486286 1.48629 1.4862859 1.4862866 0 0 1 -1.486286-1.48629 1.4862859 1.4862866 0 0 1 1.486286-1.48629 1.4862859 1.4862866 0 0 1 1.486286 1.48629z"/><path d="m76.5191 206.11365a1.4862859 1.4862866 0 0 1 -1.486286 1.48628 1.4862859 1.4862866 0 0 1 -1.486286-1.48628 1.4862859 1.4862866 0 0 1 1.486286-1.48629 1.4862859 1.4862866 0 0 1 1.486286 1.48629z"/><path d="m88.917591 217.68254a1.4862859 1.4862866 0 0 1 -1.486286 1.48629 1.4862859 1.4862866 0 0 1 -1.486286-1.48629 1.4862859 1.4862866 0 0 1 1.486286-1.48629 1.4862859 1.4862866 0 0 1 1.486286 1.48629z"/><path d="m64.064758 217.74234a1.4862859 1.4862866 0 0 1 -1.486286 1.48629 1.4862859 1.4862866 0 0 1 -1.486286-1.48629 1.4862859 1.4862866 0 0 1 1.486286-1.48629 1.4862859 1.4862866 0 0 1 1.486286 1.48629z"/><path d="m76.5116 229.543a1.4862859 1.4862866 0 0 1 -1.486286 1.48629 1.4862859 1.4862866 0 0 1 -1.486286-1.48629 1.4862859 1.4862866 0 0 1 1.486286-1.48629 1.4862859 1.4862866 0 0 1 1.486286 1.48629z"/></g><g transform="translate(334.106694 -154.79964)"><path d="m44.164131 179.0621h76.290419c.92383 0 1.66755.74373 1.66755 1.66756v103.65752c0 .92382-.74372 1.66755-1.66755 1.66755h-76.290419c-.923824 0-1.667553-.74373-1.667553-1.66755v-103.65752c0-.92383.743729-1.66756 1.667553-1.66756z"/><path d="m75.271183 206.46173a8.3961983 8.3961992 0 0 1 -8.396198 8.3962 8.3961983 8.3961992 0 0 1 -8.396199-8.3962 8.3961983 8.3961992 0 0 1 8.396199-8.3962 8.3961983 8.3961992 0 0 1 8.396198 8.3962z"/><path d="m76.468948 228.19958h25.649612c3.28282 0 5.92568 2.64286 5.92568 5.92568v24.14536c0 3.28282-2.64286 5.92567-5.92568 5.92567h-25.649612c-3.282823 0-5.925674-2.64285-5.925674-5.92567v-24.14536c0-3.28282 2.642851-5.92568 5.925674-5.92568z"/><path d="m90.729954 246.14317a1.4862859 1.4862866 0 0 1 -1.486286 1.48629 1.4862859 1.4862866 0 0 1 -1.486286-1.48629 1.4862859 1.4862866 0 0 1 1.486286-1.48628 1.4862859 1.4862866 0 0 1 1.486286 1.48628z"/><path d="m90.78107 234.49356a1.4862859 1.4862866 0 0 1 -1.486285 1.48629 1.4862859 1.4862866 0 0 1 -1.486286-1.48629 1.4862859 1.4862866 0 0 1 1.486286-1.48629 1.4862859 1.4862866 0 0 1 1.486285 1.48629z"/><path d="m103.17957 246.06245a1.4862859 1.4862866 0 0 1 -1.48629 1.48629 1.4862859 1.4862866 0 0 1 -1.48628-1.48629 1.4862859 1.4862866 0 0 1 1.48628-1.48628 1.4862859 1.4862866 0 0 1 1.48629 1.48628z"/><path d="m78.326732 246.12225a1.4862859 1.4862866 0 0 1 -1.486286 1.48629 1.4862859 1.4862866 0 0 1 -1.486285-1.48629 1.4862859 1.4862866 0 0 1 1.486285-1.48628 1.4862859 1.4862866 0 0 1 1.486286 1.48628z"/><path d="m90.773571 257.92291a1.4862859 1.4862866 0 0 1 -1.486286 1.48629 1.4862859 1.4862866 0 0 1 -1.486286-1.48629 1.4862859 1.4862866 0 0 1 1.486286-1.48628 1.4862859 1.4862866 0 0 1 1.486286 1.48628z"/></g></g><g fill="#f4f4f4" stroke-width="0"><g transform="translate(-29.893306 -154.79964)"><g><path d="m186.35373 232.68533h-3.216l1.548-5.172h.12zm.828 2.676h.876l-2.724-8.688h-1.176l-2.724 8.688h.876l.564-1.836h3.744z"/><path d="m203.36276 231.14537h2.4c1.296 0 1.464.384 1.464 1.62s-.168 1.62-1.464 1.62h-2.4zm0-3.768h2.604c1.068 0 1.092.588 1.092 1.464 0 .888-.18 1.464-1.14 1.464h-2.556zm-.84 7.848h3.42c1.656 0 2.124-.72 2.124-2.28 0-1.416-.12-2.064-1.068-2.292v-.024c.804-.336.9-.936.9-2.028 0-1.404-.336-2.064-1.956-2.064h-3.42z"/><path d="m228.83785 232.28964h-.768v.576c0 1.188-.168 1.572-1.92 1.572-1.98 0-2.232-.264-2.232-2.184v-2.832c0-1.92.252-2.184 2.232-2.184 1.476 0 1.92.132 1.92 1.488v.564h.768v-.624c0-2.016-.768-2.268-2.688-2.268-2.292 0-3.072.432-3.072 2.976v2.928c0 2.544.78 2.976 3.072 2.976 2.1 0 2.688-.444 2.688-2.328z"/><path d="m243.23815 235.29153h3.204c2.64 0 2.784-1.512 2.784-4.692 0-2.532-.12-3.996-2.664-3.996h-3.324zm.84-7.848h2.628c1.416 0 1.68.648 1.68 3.504 0 2.76-.288 3.504-1.68 3.504h-2.628z"/><path d="m264.6601 235.16537h4.632v-.84h-3.792v-3.24h3.624v-.84h-3.624v-2.928h3.816v-.84h-4.656z"/><path d="m284.7533 235.16537h.84v-3.96h3.516v-.84h-3.516v-3.048h3.66v-.84h-4.5z"/><path d="m307.46672 231.67477h2.256v.864c0 1.812-.384 1.824-2.052 1.824-1.968 0-2.22-.264-2.22-2.184v-2.832c0-1.92.252-2.184 2.22-2.184 1.764 0 2.052.18 2.052 1.512v.312h.84v-.876c0-1.644-1.188-1.788-2.892-1.788-2.28 0-3.06.432-3.06 2.976v2.928c0 2.544.78 2.976 3.06 2.976 1.872 0 2.892-.096 2.892-2.424v-1.944h-3.096z"/><path d="m324.94202 235.24283h.84v-4.008h4.188v4.008h.84v-8.688h-.852v3.768h-4.176v-3.768h-.84z"/><path d="m347.84187 235.29279h.84v-8.688h-.84z"/><path d="m175.1408 252.66383c0 .912-.336 1.128-1.428 1.128s-1.428-.216-1.428-1.128v-1.248h-.84v1.272c0 1.584.816 1.944 2.268 1.944s2.268-.36 2.268-1.944v-6.84h-.84z"/><path d="m192.44005 254.51796h.84v-4.08h.732l3.312 4.08h1.08l-3.636-4.488 3.276-4.2h-1.044l-2.94 3.768h-.78v-3.768h-.84z"/><path d="m213.59199 254.46884h4.5v-.912h-3.66v-7.776h-.84z"/><path d="m232.22457 254.54086h.84v-7.776h.024l2.724 7.776h.912l2.724-7.776h.024v7.776h.84v-8.688h-1.404l-2.628 7.668h-.024l-2.628-7.668h-1.404z"/><path d="m253.56463 254.55844h.84v-7.776h.024l3.9 7.776h1.332v-8.688h-.84v7.776h-.024l-3.9-7.776h-1.332z"/><path d="m279.44953 251.60392c0 1.92-.252 2.184-2.22 2.184s-2.22-.264-2.22-2.184v-2.832c0-1.92.252-2.184 2.22-2.184s2.22.264 2.22 2.184zm-5.28.048c0 2.544.78 2.976 3.06 2.976s3.06-.432 3.06-2.976v-2.928c0-2.544-.78-2.976-3.06-2.976s-3.06.432-3.06 2.976z"/><path d="m295.61967 246.77798h2.568c.924 0 1.2.216 1.2 1.812 0 1.476-.324 1.812-1.332 1.812h-2.436zm-.84 7.848h.84v-3.384h2.34c1.356 0 2.268-.336 2.268-2.652 0-1.584-.312-2.652-1.8-2.652h-3.648z"/><path d="m315.13791 248.86598c0-2.052.144-2.184 2.22-2.184s2.22.132 2.22 2.184v2.832c0 .36 0 .66-.036.888l-1.848-1.56-.456.54 2.136 1.812c-.228.456-.78.504-2.016.504-2.076 0-2.22-.132-2.22-2.184zm-.84 2.88c0 2.544.66 2.976 3.06 2.976 1.44 0 2.256-.156 2.664-.804l.432.372.456-.552-.624-.528c.096-.396.132-.876.132-1.464v-2.928c0-2.544-.66-2.976-3.06-2.976s-3.06.432-3.06 2.976z"/><path d="m335.17182 254.52048h.84v-3.492h2.184c1.32 0 1.644.36 1.644 1.512v1.98h.84v-2.376c0-.816-.276-1.332-.96-1.524v-.024c.792-.204 1.104-.804 1.104-2.304 0-1.932-.576-2.46-2.1-2.46h-3.552zm.84-7.848h2.46c1.296 0 1.512.132 1.512 1.764 0 1.2-.372 1.752-1.248 1.752h-2.724z"/><path d="m355.91628 252.52095c0 1.752.708 2.148 2.7 2.148 1.956 0 2.676-.396 2.676-2.448 0-2.112-.468-2.352-2.616-2.496-1.608-.108-1.824-.324-1.824-1.56 0-1.284.132-1.536 1.776-1.536 1.44 0 1.836.276 1.836 1.416v.192h.768c-.048-2.016-.492-2.448-2.604-2.448-1.968 0-2.616.264-2.616 2.376 0 1.656.348 2.172 1.824 2.292l.888.072c1.728.144 1.728.468 1.728 1.572 0 1.644-.216 1.728-1.848 1.728s-1.92-.18-1.92-1.476v-.504h-.768z"/><path d="m204.97485 275.64151h.84v-7.848h2.376v-.84h-5.592v.84h2.376z"/><path d="m223.24112 273.34726c0 1.86.792 2.316 2.82 2.316 2.064 0 2.844-.456 2.844-2.316v-6.468h-.84v6.72c0 .936-.444 1.224-2.004 1.224-1.536 0-1.98-.288-1.98-1.224v-6.72h-.84z"/><path d="m245.74559 275.67807h1.176l2.604-8.688h-.852l-2.328 7.848h-.024l-2.328-7.848h-.852z"/><path d="m268.97659 275.62589h1.224l2.268-8.688h-.816l-2.04 7.848h-.024l-1.92-7.848h-1.272l-1.92 7.848h-.024l-2.04-7.848h-.816l2.268 8.688h1.224l1.932-7.848h.024z"/><path d="m283.88785 275.54886h.972l2.244-3.912 2.244 3.912h.972l-2.628-4.416 2.472-4.272h-.948l-2.112 3.72-2.112-3.72h-.948l2.448 4.272z"/><path d="m307.38451 275.69235h.84v-3.612l2.712-5.076h-.876l-2.256 4.224-2.256-4.224h-.876l2.712 5.076z"/><path d="m325.1288 275.69235h5.616v-.84h-4.656l4.596-7.008v-.84h-5.388v.84h4.428l-4.596 7.008z"/></g><g><g stroke-width="0"><path d="m182.48676 239.48238v.12133c0 .74534.51307.728 1.08853.728.66907 0 1.01574-.0624 1.01574-.79386 0-.66214-.2184-.70374-1.0192-.75227-.50614-.0312-.572-.0416-.572-.36054 0-.27733.0797-.32586.57546-.32586.35014 0 .46454.0104.46454.2912v.0832h.4992v-.0832c0-.68294-.43333-.70027-.96374-.70027-.624 0-1.07466.0208-1.07466.73493 0 .75574.44373.73494 1.00533.76961.38827.0208.58587-.0277.58587.3432 0 .3016-.0624.3848-.51654.3848-.46106 0-.58933-.0208-.58933-.31894v-.12133z"/><path d="m185.71423 238.47011c-.7592 0-.85627.22533-.85627.93254 0 .70373.0971.92906.85627.92906.7592 0 .85627-.22533.85627-.92906 0-.70721-.0971-.93254-.85627-.93254zm0 .3328c.38827 0 .41947.11094.41947.6032 0 .48534-.0312.5928-.41947.5928s-.41947-.10746-.41947-.5928c0-.49226.0312-.6032.41947-.6032z"/><path d="m203.97847 237.72138h-.4992v2.6h1.71254v-.4264h-1.21334z"/><path d="m206.19368 239.50325c.21493 0 .40213.007.40213.26 0 .26-.16987.2808-.40213.2808-.29467 0-.39867-.0243-.39867-.2808 0-.26.1768-.26.39867-.26zm.40213.81813h.4368v-1.14053c0-.61014-.24267-.70027-.82507-.70027-.416 0-.78.0208-.78.5512h.4368c0-.23573.15254-.25307.3432-.25307.364 0 .38827.104.38827.39867v.23573h-.0139c-.104-.20453-.3224-.208-.54426-.208-.45067 0-.67947.12134-.67947.55814 0 .49226.26693.57893.67947.57893.21146 0 .4784-.007.56506-.2496h.0104z"/><path d="m225.86319 238.21763h.76267v-.4264h-2.02454v.4264h.76267v2.17361h.4992z"/><path d="m227.33306 238.57123h-.4368v1.82001h.4368zm0-.78h-.4368v.37094h.4368z"/><path d="m244.13881 240.39124h1.32427c.78693 0 .93946-.47841.93946-1.01921v-.6136c0-.7072-.30506-.9672-1.02266-.9672h-1.24107zm.4992-.42641v-1.7472h.74187c.38133 0 .52346.10747.52346.5408v.6136c0 .2912-.104.5928-.44026.5928z"/><path d="m247.54654 238.55043c-.7592 0-.85626.22534-.85626.93254 0 .70373.0971.92907.85626.92907.7592 0 .85627-.22534.85627-.92907 0-.7072-.0971-.93254-.85627-.93254zm0 .3328c.38827 0 .41947.11094.41947.6032 0 .48534-.0312.59281-.41947.59281-.38826 0-.41946-.10747-.41946-.59281 0-.49226.0312-.6032.41946-.6032z"/><path d="m266.21661 239.52125c.2392.003.32933.156.32933.3744v.48533h.4992v-.48533c0-.36747-.0867-.55814-.44026-.58934v-.0139c.44026-.0659.46106-.34667.46106-.73147 0-.58933-.2184-.76613-.78693-.78h-1.32774v2.6h.4992v-.85973zm-.76614-.4264v-.88747h.69334c.35707 0 .42293.0659.42293.43333 0 .38134-.0901.45414-.4576.45414z"/><path d="m268.63981 239.80205c0 .2704-.16987.26693-.41253.26693-.39174 0-.40214-.1248-.40214-.51653h1.25147c0-.79387-.10053-1.01227-.84933-1.01227-.73494 0-.83894.28427-.83894.936 0 .70373.14214.9256.83894.9256.52 0 .84933-.0277.84933-.59973zm-.81467-.52694c0-.3224.0243-.40213.40214-.40213.35706 0 .41253.0277.41253.40213z"/><path d="m287.65387 238.21496h.0173l-.0416 2.19094h.49921v-2.6h-.81814l-.69333 1.93093h-.0139l-.7072-1.93093h-.8008v2.6h.4992l-.0416-2.18054h.0104l.82507 2.18054h.4472z"/><path d="m288.98507 238.5859h-.4368v1.82h.4368zm0-.78h-.4368v.37093h.4368z"/><path d="m306.33613 238.17772h1.22027v-.4264h-1.71947v2.6h.4992v-1.07467h1.15787v-.40907h-1.15787z"/><path d="m308.638 239.53318c.21494 0 .40214.007.40214.26 0 .26-.16987.2808-.40214.2808-.29466 0-.39866-.0243-.39866-.2808 0-.26.1768-.26.39866-.26zm.40214.81814h.4368v-1.14054c0-.61013-.24267-.70026-.82507-.70026-.416 0-.78.0208-.78.5512h.4368c0-.23574.15253-.25307.3432-.25307.364 0 .38827.104.38827.39867v.23573h-.0139c-.104-.20453-.3224-.208-.54427-.208-.45066 0-.67946.12133-.67946.55813 0 .49227.26693.57894.67946.57894.21147 0 .4784-.007.56507-.2496h.0104z"/><path d="m325.80163 239.50283v.12133c0 .74533.51306.728 1.08853.728.66907 0 1.01573-.0624 1.01573-.79387 0-.66213-.2184-.70373-1.0192-.75226-.50613-.0312-.572-.0416-.572-.36054 0-.27733.0797-.32587.57547-.32587.35013 0 .46453.0104.46453.2912v.0832h.4992v-.0832c0-.68293-.43333-.70026-.96373-.70026-.624 0-1.07467.0208-1.07467.73493 0 .75574.44374.73494 1.00534.7696.38826.0208.58586-.0277.58586.3432 0 .3016-.0624.3848-.51653.3848-.46107 0-.58933-.0208-.58933-.31893v-.12133z"/><path d="m329.0291 238.49056c-.7592 0-.85627.22533-.85627.93253 0 .70374.0971.92907.85627.92907.7592 0 .85626-.22533.85626-.92907 0-.7072-.0971-.93253-.85626-.93253zm0 .3328c.38826 0 .41946.11093.41946.6032 0 .48533-.0312.5928-.41946.5928-.38827 0-.41947-.10747-.41947-.5928 0-.49227.0312-.6032.41947-.6032z"/><path d="m347.04187 237.73157h-.4992v2.6h1.71254v-.4264h-1.21334z"/><path d="m349.25708 239.51344c.21493 0 .40213.007.40213.26 0 .26-.16987.2808-.40213.2808-.29467 0-.39867-.0243-.39867-.2808 0-.26.1768-.26.39867-.26zm.40213.81813h.4368v-1.14053c0-.61013-.24266-.70027-.82507-.70027-.416 0-.78.0208-.78.5512h.4368c0-.23573.15254-.25306.3432-.25306.364 0 .38827.104.38827.39866v.23574h-.0139c-.10401-.20454-.32241-.208-.54427-.208-.45067 0-.67947.12133-.67947.55813 0 .49227.26693.57893.67947.57893.21146 0 .4784-.007.56507-.2496h.0104z"/><path d="m173.59865 257.44566h.76267v-.4264h-2.02454v.4264h.76267v2.1736h.4992z"/><path d="m175.06852 257.79926h-.4368v1.82h.4368zm0-.78h-.4368v.37093h.4368z"/><path d="m193.22404 259.67828h1.32427c.78694 0 .93947-.4784.93947-1.0192v-.6136c0-.7072-.30507-.9672-1.02267-.9672h-1.24107zm.4992-.4264v-1.7472h.74187c.38133 0 .52347.10747.52347.5408v.6136c0 .2912-.104.5928-.44027.5928z"/><path d="m196.63178 257.83748c-.7592 0-.85627.22534-.85627.93254 0 .70373.0971.92906.85627.92906.7592 0 .85627-.22533.85627-.92906 0-.7072-.0971-.93254-.85627-.93254zm0 .3328c.38827 0 .41947.11094.41947.6032 0 .48534-.0312.5928-.41947.5928s-.41947-.10746-.41947-.5928c0-.49226.0312-.6032.41947-.6032z"/></g><path d="m195.39337 256.31433v.26l.084.258h.108l.084-.258v-.26z"/><g stroke-width="0"><path d="m215.00402 258.74464c.2392.003.32934.156.32934.3744v.48533h.4992v-.48533c0-.36747-.0867-.55814-.44027-.58934v-.0139c.44027-.0659.46107-.34667.46107-.73147 0-.58934-.2184-.76614-.78694-.78h-1.32773v2.6h.4992v-.85973zm-.76613-.4264v-.88747h.69333c.35707 0 .42294.0659.42294.43333 0 .38134-.0901.45414-.4576.45414z"/><path d="m217.42723 259.02544c0 .2704-.16987.26693-.41254.26693-.39173 0-.40213-.1248-.40213-.51653h1.25147c0-.79387-.10054-1.01227-.84934-1.01227-.73493 0-.83893.28427-.83893.936 0 .70373.14213.9256.83893.9256.52 0 .84934-.0277.84934-.59973zm-.81467-.52694c0-.3224.0243-.40213.40213-.40213.35707 0 .41254.0277.41254.40213z"/></g><path d="m215.81387 256.30478v.26l.084.258h.108l.084-.258v-.26z"/><g stroke-width="0"><path d="m236.85459 257.40431h.0173l-.0416 2.19094h.4992v-2.60001h-.81813l-.69334 1.93094h-.0139l-.7072-1.93094h-.8008v2.60001h.4992l-.0416-2.18054h.0104l.82507 2.18054h.4472z"/><path d="m238.18579 257.77524h-.4368v1.82001h.4368zm0-.78h-.4368v.37094h.4368z"/></g><path d="m236.11253 256.30487v.26l.084.258h.108l.084-.258v-.26z"/><g stroke-width="0"><path d="m255.35093 257.3874h1.22027v-.4264h-1.71947v2.6h.4992v-1.07466h1.15787v-.40907h-1.15787z"/><path d="m257.6528 258.74287c.21494 0 .40214.007.40214.26 0 .26-.16987.2808-.40214.2808-.29466 0-.39866-.0243-.39866-.2808 0-.26.1768-.26.39866-.26zm.40214.81813h.4368v-1.14053c0-.61013-.24267-.70027-.82507-.70027-.416 0-.78.0208-.78.5512h.4368c0-.23573.15253-.25306.3432-.25306.364 0 .38827.104.38827.39866v.23574h-.0139c-.104-.20454-.3224-.208-.54427-.208-.45066 0-.67946.12133-.67946.55813 0 .49227.26693.57893.67946.57893.21147 0 .4784-.007.56507-.2496h.0104z"/></g><path d="m256.64474 256.26193v.26l.084.258h.108l.084-.258v-.26z"/></g><g><path d="m180.84368 195.71295h3.28534v3.28534h.85067v-3.28534h3.28534v-.85067h-3.28534v-3.28534h-.85067v3.28534h-3.28534z"/><path d="m130.53115 302.17623h4.98113v-1.31321h-4.98113z" transform="scale(1.5437379 .64777836)"/><path d="m208.89146 212.62129h.87737l2.02555-3.53116 2.02555 3.53116h.87737l-2.37216-3.9861 2.23135-3.85612h-.85571l-1.9064 3.35786-1.9064-3.35786h-.85571l2.20969 3.85612z" transform="scale(1.066444 .93769574)"/><path d="m242.52967 195.73743h7.42135v-.85067h-7.42135zm2.83067 2.58133c0 .46934.41067.88001.89467.88001.45467 0 .86533-.44.86533-.88001 0-.46933-.41066-.88-.88-.88-.46933 0-.88.396-.88.88zm0-6.01334c0 .484.396.88.88.88s.88-.396.88-.88-.396-.88-.88-.88-.88.396-.88.88z"/><g stroke-width="0"><path d="m261.00566 194.28385h1.48v-.492h-2.056v3h2.068v-.492h-1.492v-.796h1.404v-.472h-1.404z"/><path d="m264.38566 195.79985c.276.004.38.18.38.432v.56h.576v-.56c0-.424-.1-.644-.508-.68v-.016c.508-.076.532-.4.532-.844 0-.68-.252-.884-.908-.9h-1.532v3h.576v-.992zm-.884-.492v-1.024h.8c.412 0 .488.076.488.5 0 .44-.104.524-.528.524z"/><path d="m267.63766 196.22385.196.568h.584l-1.016-3h-.848l-.996 3h.596l.188-.568zm-.128-.436h-1.036l.512-1.556h.008z"/><path d="m268.53765 195.83585v.14c0 .86.592.84 1.256.84.772 0 1.172-.072 1.172-.916 0-.764-.252-.812-1.176-.868-.584-.036-.66-.048-.66-.416 0-.32.092-.376.664-.376.404 0 .536.012.536.336v.096h.576v-.096c0-.788-.5-.808-1.112-.808-.72 0-1.24.024-1.24.848 0 .872.512.848 1.16.888.448.024.676-.032.676.396 0 .348-.072.444-.596.444-.532 0-.68-.024-.68-.368v-.14z"/><path d="m271.89766 194.28385h1.48v-.492h-2.056v3h2.068v-.492h-1.492v-.796h1.404v-.472h-1.404z"/><path d="m284.5056 193.76562h-.576v1.228h-1.396v-1.228h-.576v3h.576v-1.28h1.396v1.28h.576z"/><path d="m285.5696 194.25762h1.48v-.492h-2.056v3h2.068v-.492h-1.492v-.796h1.404v-.472h-1.404z"/><path d="m288.0856 193.76562h-.576v3h1.976v-.492h-1.4z"/><path d="m289.7296 196.76562h.576v-.972h.752c.784 0 1.068-.148 1.068-.996 0-.84-.264-1.032-1.068-1.032h-1.328zm.576-1.464v-1.044h.752c.432-.004.492.116.492.54 0 .42-.08.496-.492.504z"/><path d="m300.45579 196.19651.196.568h.584l-1.016-3h-.848l-.996 3h.596l.188-.568zm-.128-.436h-1.036l.512-1.556h.008z"/><path d="m303.73979 196.27251h-.016l-1.284-2.508h-.952v3h.576l-.048-2.508h.02l1.276 2.508h.956v-3h-.576z"/><path d="m304.66378 195.80851v.14c0 .86.592.84 1.256.84.772 0 1.172-.072 1.172-.916 0-.764-.252-.812-1.176-.868-.584-.036-.66-.048-.66-.416 0-.32.092-.376.664-.376.404 0 .536.012.536.336v.096h.576v-.096c0-.788-.5-.808-1.112-.808-.72 0-1.24.024-1.24.848 0 .872.512.848 1.16.888.448.024.676-.032.676.396 0 .348-.072.444-.596.444-.532 0-.68-.024-.68-.368v-.14z"/><path d="m310.46379 196.29251h-.012l-.672-2.528h-.664l-.688 2.528h-.016l-.624-2.528h-.576l.78 3h.824l.62-2.288h.016l.6 2.288h.832l.808-3h-.58z"/><path d="m312.47579 194.25651h1.48v-.492h-2.056v3h2.068v-.492h-1.492v-.796h1.404v-.472h-1.404z"/><path d="m315.85579 195.77251c.276.004.38.18.38.432v.56h.576v-.56c0-.424-.1-.644-.508-.68v-.016c.508-.076.532-.4.532-.844 0-.68-.252-.884-.908-.9h-1.532v3h.576v-.992zm-.884-.492v-1.024h.8c.412 0 .488.076.488.5 0 .44-.104.524-.528.524z"/><path d="m324.70169 194.18153h.02l-.048 2.528h.576v-3h-.944l-.8 2.228h-.016l-.816-2.228h-.924v3h.576l-.048-2.516h.012l.952 2.516h.516z"/><path d="m326.31369 194.20153h1.48v-.492h-2.056v3h2.068v-.492h-1.492v-.796h1.404v-.472h-1.404z"/><path d="m330.50569 196.21753h-.016l-1.284-2.508h-.952v3h.576l-.048-2.508h.02l1.276 2.508h.956v-3h-.576z"/><path d="m333.47768 193.70953v2.132c0 .324-.144.4-.676.4-.556 0-.668-.092-.668-.4v-2.132h-.576v2.132c0 .84.54.892 1.244.892.728 0 1.252-.056 1.252-.892v-2.132z"/><path d="m342.36467 194.30271h1.48v-.492h-2.056v3h2.068v-.492h-1.492v-.796h1.404v-.472h-1.404z"/><path d="m346.55666 196.31871h-.016l-1.284-2.508h-.952v3h.576l-.048-2.508h.02l1.276 2.508h.956v-3h-.576z"/><path d="m348.81266 194.30271h.88v-.492h-2.336v.492h.88v2.508h.576z"/><path d="m350.49666 194.30271h1.48v-.492h-2.056v3h2.068v-.492h-1.492v-.796h1.404v-.472h-1.404z"/><path d="m353.87666 195.81871c.276.004.38.18.38.432v.56h.576v-.56c0-.424-.1-.644-.508-.68v-.016c.508-.076.532-.4.532-.844 0-.68-.252-.884-.908-.9h-1.532v3h.576v-.992zm-.884-.492v-1.024h.8c.412 0 .488.076.488.5 0 .44-.104.524-.528.524z"/></g><path d="m136.84621 273.09548h3.82162v-1.00752h-3.82162z" transform="scale(1.1843833 .84432123)"/><path d="m164.2246 236.90533a.60000002.60000002 0 0 1 -.6.6.60000002.60000002 0 0 1 -.6-.6.60000002.60000002 0 0 1 .6-.6.60000002.60000002 0 0 1 .6.6z"/><g stroke-width="0"><g><path d="m271.7257 258.89474h.48v-.80999h.62666c.65334 0 .89-.12334.89-.83 0-.7-.22-.86-.89-.86h-1.10666zm.48-1.21999v-.87h.62666c.36-.003.41.0967.41.45 0 .35-.0667.41333-.41.42z"/><path d="m275.39903 258.42141.16333.47333h.48667l-.84667-2.49999h-.70666l-.83 2.49999h.49667l.15666-.47333zm-.10667-.36333h-.86333l.42667-1.29667h.007z"/><path d="m277.85569 256.39475v1.77666c0 .27-.12.33334-.56333.33334-.46333 0-.55667-.0767-.55667-.33334v-1.77666h-.47999v1.77666c0 .7.44999.74333 1.03666.74333.60667 0 1.04333-.0467 1.04333-.74333v-1.77666z"/><path d="m278.66236 258.09808v.11667c0 .71666.49333.69999 1.04666.69999.64334 0 .97667-.06.97667-.76333 0-.63666-.21-.67666-.98-.72333-.48667-.03-.55-.04-.55-.34667 0-.26666.0767-.31333.55333-.31333.33667 0 .44667.01.44667.28v.08h.48v-.08c0-.65667-.41667-.67333-.92667-.67333-.6 0-1.03333.02-1.03333.70666 0 .72667.42667.70667.96667.74.37333.02.56333-.0267.56333.33 0 .29-.06.37-.49667.37-.44333 0-.56666-.02-.56666-.30666v-.11667z"/><path d="m281.46236 256.80475h1.23333v-.41h-1.71333v2.49999h1.72333v-.40999h-1.24333v-.66334h1.17v-.39333h-1.17z"/></g><g><path d="m293.29455 259.0332h.48v-.81h.62666c.65333 0 .89-.12333.89-.83 0-.69999-.22-.85999-.89-.85999h-1.10666zm.48-1.22v-.86999h.62666c.36-.003.41.0967.41.44999 0 .35-.0667.41334-.41.42z"/><path d="m296.09455 256.53321h-.48v2.49999h1.64666v-.41h-1.16666z"/><path d="m299.00121 258.55987.16333.47333h.48667l-.84667-2.49999h-.70666l-.83 2.49999h.49667l.15666-.47333zm-.10667-.36333h-.86333l.42667-1.29667h.007z"/><path d="m301.69788 256.53321h-.55334l-.60333 1.06666h-.01l-.59333-1.06666h-.54667l.90334 1.53999v.96h.47999v-.96z"/></g><g><path d="m315.35316 258.66846h-.0133l-1.07-2.09h-.79333v2.5h.48l-.04-2.09h.0167l1.06333 2.09h.79666v-2.5h-.48z"/><path d="m316.67983 256.98846h1.23333v-.41h-1.71333v2.5h1.72333v-.41h-1.24333v-.66333h1.17v-.39333h-1.17z"/><path d="m320.77649 258.68513h-.01l-.56-2.10667h-.55333l-.57334 2.10667h-.0133l-.52-2.10667h-.48l.65 2.5h.68667l.51666-1.90666h.0133l.5 1.90666h.69333l.67333-2.5h-.48333z"/></g><g><path d="m341.76484 271.80807v.14c0 .86.592.84 1.256.84.772 0 1.172-.072 1.172-.916 0-.764-.252-.812-1.176-.868-.584-.036-.66-.048-.66-.416 0-.32.092-.376.664-.376.404 0 .536.012.536.336v.096h.576v-.096c0-.788-.5-.808-1.112-.808-.72 0-1.24.024-1.24.848 0 .872.512.848 1.16.888.448.024.676-.032.676.396 0 .348-.072.444-.596.444-.532 0-.68-.024-.68-.368v-.14z"/><path d="m344.54884 272.76407h.576v-.972h.752c.784 0 1.068-.148 1.068-.996 0-.84-.264-1.032-1.068-1.032h-1.328zm.576-1.464v-1.044h.752c.432-.004.492.116.492.54 0 .42-.08.496-.492.504z"/><path d="m348.95685 272.19607.196.568h.584l-1.016-3h-.848l-.996 3h.596l.188-.568zm-.128-.436h-1.036l.512-1.556h.008z"/><path d="m352.34485 270.76807v-.164c-.04-.86-.468-.864-1.216-.864-.884 0-1.256.216-1.256 1.176v.688c.012.876.2 1.224 1.256 1.184.744-.032 1.26 0 1.248-.904v-.196h-.576v.164c0 .428-.208.444-.672.444-.604 0-.676-.116-.68-.716v-.664c0-.588.1-.684.68-.684.504 0 .64.024.64.372v.164z"/><path d="m353.30884 270.25607h1.48v-.492h-2.056v3h2.068v-.492h-1.492v-.796h1.404v-.472h-1.404z"/></g><g><path d="m178.78502 272.54202v.14c0 .86.592.84 1.256.84.772 0 1.172-.072 1.172-.916 0-.764-.252-.812-1.176-.868-.584-.036-.66-.048-.66-.416 0-.32.092-.376.664-.376.404 0 .536.012.536.336v.096h.576v-.096c0-.788-.5-.808-1.112-.808-.72 0-1.24.024-1.24.848 0 .872.512.848 1.16.888.448.024.676-.032.676.396 0 .348-.072.444-.596.444-.532 0-.68-.024-.68-.368v-.14z"/><path d="m184.15702 270.49802h-.576v1.228h-1.396v-1.228h-.576v3h.576v-1.28h1.396v1.28h.576z"/><path d="m185.26101 270.49802h-.576v3h.576z"/><path d="m186.33301 270.99002h1.408v-.492h-1.984v3h.576v-1.24h1.336v-.472h-1.336z"/><path d="m189.31701 270.99002h.88v-.492h-2.336v.492h.88v2.508h.576z"/></g></g></g></g><path d="m173.55661 218.87421h.84v-8.688h-1.116l-2.088 2.592.564.516 1.776-2.268h.024z" transform="translate(-28.890043 -154.768061)"/><g transform="translate(-29.893306 -154.79964)"><path d="m192.63494 218.84776h5.316v-.84h-4.476v-.876c0-1.02.18-1.44 2.052-1.56 2.316-.144 2.484-1.068 2.484-2.964 0-2.124-.648-2.544-2.652-2.544-2.544 0-2.676.912-2.676 2.364v.516h.768v-.42c0-1.38.18-1.62 1.872-1.62 1.644 0 1.848.324 1.848 1.716 0 1.776-.204 1.956-1.812 2.112-2.148.204-2.724.588-2.724 2.58z"/><path d="m215.20918 214.79105c2.184 0 2.436.024 2.436 1.56 0 1.5-.108 1.716-1.944 1.716-1.944 0-1.968-.24-1.968-2.052h-.768v.6c0 1.884.54 2.292 2.82 2.292 2.52 0 2.7-.576 2.7-2.604 0-1.464-.42-1.716-1.08-1.92v-.024c.816-.24 1.032-.876 1.032-1.98 0-1.704-.216-2.352-2.748-2.352-1.512 0-2.532.144-2.532 1.992v.756h.768v-.672c0-1.188.552-1.236 1.86-1.236 1.764 0 1.812.324 1.812 1.464 0 1.632-.3 1.692-2.388 1.692z"/><path d="m237.31527 216.00186h-3.42l3.396-5.04h.024zm0 2.808h.84v-1.968h1.092v-.84h-1.092v-5.88h-1.248l-3.708 5.52v1.2h4.116z"/><path d="m254.00059 214.46586h.72c.252-.696.648-.768 1.764-.768 1.908 0 1.932.564 1.932 2.184 0 1.86-.072 2.184-1.884 2.184-1.8 0-1.932-.276-1.932-1.74h-.768v.648c0 1.668 1.164 1.932 2.628 1.932 2.268 0 2.796-.396 2.796-3.024 0-2.172-.324-3.024-2.532-3.024-.984 0-1.44.084-1.86.672h-.024v-2.64h4.128v-.768h-4.968z"/><path d="m279.74898 212.25786c0-1.836-.588-2.232-2.58-2.232s-2.76.324-2.76 2.7v3.48c0 2.376.768 2.7 2.76 2.7s2.76-.324 2.76-2.7c0-2.232-.48-2.7-2.58-2.7-1.104 0-1.584.06-2.076.768h-.024v-1.692c0-1.596.48-1.716 2.004-1.716 1.572 0 1.656.204 1.728 1.392zm-.66 3.912c0 1.788-.288 1.896-1.92 1.896s-1.92-.108-1.92-1.896c0-1.728.228-1.896 1.92-1.896 1.632 0 1.92.108 1.92 1.896z"/><path d="m295.55599 218.83749h.888l3.636-7.416v-1.272h-5.328v.84h4.632z"/><path d="m315.63832 216.41349c0-1.5.264-1.68 1.92-1.68 1.668 0 1.92.18 1.92 1.68s-.252 1.68-1.92 1.68c-1.656 0-1.92-.18-1.92-1.68zm.048-4.02c0-1.2 0-1.572 1.872-1.572s1.872.372 1.872 1.572 0 1.572-1.872 1.572-1.872-.372-1.872-1.572zm-.888 4.116c0 2.208.756 2.424 2.76 2.424s2.76-.216 2.76-2.424c0-1.248-.108-1.848-1.068-2.172v-.024c.816-.276.948-.9.948-1.932v-.36c0-1.704-.624-1.968-2.64-1.968s-2.64.264-2.64 1.968v.36c0 1.032.132 1.656.948 1.932v.024c-.96.324-1.068.924-1.068 2.172z"/><path d="m335.38137 216.70149c0 1.836.588 2.232 2.58 2.232s2.76-.324 2.76-2.7v-3.48c0-2.376-.768-2.7-2.76-2.7s-2.76.324-2.76 2.7c0 2.232.48 2.7 2.58 2.7 1.104 0 1.584-.06 2.076-.768h.024v1.692c0 1.596-.48 1.716-2.004 1.716-1.572 0-1.656-.204-1.728-1.392zm.66-3.912c0-1.788.288-1.896 1.92-1.896s1.92.108 1.92 1.896c0 1.728-.228 1.896-1.92 1.896-1.632 0-1.92-.108-1.92-1.896z"/><path d="m361.2785 212.58406c0-2.376-.768-2.7-2.76-2.7s-2.76.324-2.76 2.7v3.48c0 2.376.768 2.7 2.76 2.7s2.76-.324 2.76-2.7zm-.84 3.732c0 1.584-.396 1.608-1.92 1.608s-1.92-.024-1.92-1.608v-3.984c0-1.584.396-1.608 1.92-1.608s1.92.024 1.92 1.608z"/></g></g></svg>