<svg height="338.17792" viewBox="0 0 333.57281 169.08896" width="667.14563" xmlns="http://www.w3.org/2000/svg"><g transform="translate(-433.08813 -2.11123)"><text fill="#ef00eb" font-family="TrasksHand" font-size="1" stroke="#0105ff" stroke-width="1.25" x="689.32642" y="6.440028"><tspan fill="#fafafa" fill-opacity=".4" font-size="1" stroke="none" stroke-width="1.25" x="689.32642" y="6.440028">John Loreth 2022</tspan></text><g stroke="#f4f4f4" stroke-linecap="round"><path d="m511.23242 8.1601562c-11.905.080716-22.47037 2.8638258-36.32031 9.6542968-2.87418 1.40918-3.28868-2.235238-4.20899-1.332031-36.9487 31.159625-37.59346 83.479458-36.26171 103.648438 0 55.62543 54.7534 59.22091 97.375 38.22852 29.35582-15.94596 47.76359-17.55781 64.96875-17.0254 17.85879-.53241 36.96449 1.07944 67.43554 17.0254 44.24079 20.99239 101.07422 17.39691 101.07422-38.22852 1.38234-20.16898.71372-72.488813-37.63867-103.648438-.95528-.903207-1.38577 2.741211-4.36914 1.332031-25.55751-12.071948-40.33805-11.4792208-71.31641-5.552734-18.64024 2.17024-36.99955 4.010353-55.18554 3.699219-17.52039.311134-35.20801-1.528979-53.16602-3.699219-13.057-2.5928381-23.12727-4.1643417-32.38672-4.1015628z" fill="none"/><circle cx="685.42236" cy="77.575912" fill="none" r="62.5" stroke-width=".5"/><circle cx="513.15527" cy="78.422928" fill="none" r="59.375" stroke-width=".5"/><g><g><ellipse cx="512.54706" cy="78.211441" fill="none" rx="35.904621" ry="36.247208"/><g stroke-linejoin="round"><path d="m509.86133 48.275391c-3.01573 0-5.44336 2.427633-5.44336 5.443359v16.214844h-16.21485c-3.01572 0-5.44335 2.427633-5.44335 5.443359v5.628906c0 3.015726 2.42763 5.44336 5.44335 5.44336h16.21485v16.214841c0 3.01573 2.42763 5.44336 5.44336 5.44336h5.63086c3.01572 0 5.44336-2.42763 5.44336-5.44336v-16.214841h16.21289c3.01572 0 5.44531-2.427634 5.44531-5.44336v-5.628906c0-3.015726-2.42959-5.443359-5.44531-5.443359h-16.21289v-16.214844c0-3.015726-2.42764-5.443359-5.44336-5.443359z" fill="none"/><path d="m512.61615 31.855036 3.61088 6.254233h-7.22176z" fill="#f4f4f4" stroke-width="5.87736" transform="matrix(.17345042 -.17345042 .33380549 .33380549 394.5379 138.07534)"/><path d="m512.61615 31.855036 3.61088 6.254233h-7.22176z" fill="#f4f4f4" stroke-width="5.87736" transform="matrix(-.17345042 -.17345042 -.33380549 .33380549 630.95448 137.81527)"/><path d="m512.61615 31.855036 3.61088 6.254233h-7.22176z" fill="#f4f4f4" stroke-width="5.87736" transform="matrix(-.17345042 .17345042 -.33380549 -.33380549 630.85781 18.741285)"/><path d="m512.61615 31.855036 3.61088 6.254233h-7.22176z" fill="#f4f4f4" stroke-width="5.87736" transform="matrix(.17345043 .17345043 .3338055 -.3338055 394.08969 19.026105)"/></g></g><g fill="none"><path d="m549.76416 12.680906.57944-5.6319361c-24.97293-4.312095-49.98591-8.1218681-76.42468 5.9515181l-.35145 4.504986" stroke-linejoin="round"/><path d="m647.84892 12.507742-.62366-5.4587721c24.97293-4.312095 49.98591-8.1218681 76.42468 5.9515181l.35145 4.504986" stroke-linejoin="round"/><circle cx="688.43115" cy="90.281158" r="15"/><circle cx="656.59442" cy="107.43164" r="15"/><circle cx="722.76166" cy="80.381653" r="15"/><circle cx="704.84888" cy="48.600113" r="10.5"/><circle cx="675.03461" cy="57.020603" r="10.5"/><circle cx="645.79913" cy="71.457581" r="10.5"/><circle cx="618.4444" cy="112.02426" r="6.5"/><circle cx="578.04193" cy="112.05852" r="6.5"/><circle cx="598.19293" cy="111.93566" r="6.5"/><rect height="11.519106" rx="4.30813" width="28.338821" x="583.9989" y="72.584198"/></g></g></g></g></svg>