<svg height="364.40546" viewBox="0 0 1013.8106 765.25146" width="482.76697" xmlns="http://www.w3.org/2000/svg"><g fill="#f4f4f4" fill-opacity=".5" stroke-width="2.1"><path d="m578.65425 230.66773q0 .672-.1624 1.1312-.2408.6832-.7728.6832-.3528 0-.7392-.1624-.4648-.196-.5096-.4816.1568 0 .3696.056.4928.1288.616.1288.476 0 .7168-.476.1904-.3808.1904-.9128 0-.3752-.2464-1.0696-.2408-.7-.2408-.9744 0-.084.0448-.13441.0504-.056.1344-.056.2184 0 .4256 1.00801.1736.8512.1736 1.26z"/><path d="m580.81026 231.23893q0 .5712-.3304.896-.3304.3248-.9128.3248-.3192 0-.4928-.1512-.1736-.1512-.1736-.4648 0-.4424.5768-.8904.5488-.4256 1.0136-.4256.2128 0 .28.2632.0392.1512.0392.448zm-.3416.1568q0-.0672-.0168-.1288-.0112-.0672-.0448-.1512-.0896.0616-.2968.3024-.1064.1232-.1848.1792 0-.1064.0224-.1736.0448-.0952.0728-.1624-.2464 0-.5152.2072-.2632.2072-.2632.448 0 .1624.1792.1624.3416 0 .6608-.168.3864-.2016.3864-.5152z"/><path d="m583.11746 231.46853q0 .2744-.2072.616-.2352.3864-.4872.3864-.0728 0-.1232-.0784-.0448-.084-.0448-.1624 0-.1008.2128-.3136.2184-.2184.2184-.2968 0-.0504-.0168-.1008-.0168-.0504-.0224-.0672-.42.0952-.8568.4816-.4312.3864-.6552.4368-.0448-.1232-.0448-.252 0-.1568.0728-.3304.0504-.1232.168-.2968.196-.2968.4144-.672.112-.196.3864-.6776.28-.4816.4088-.6832.0672-.1008.1176-.1512.0728-.0672.1736-.0896.0672.0224.0952.084.0336.0616.0336.1456 0 .1904-.2464.5152-.448.5824-.4592.6048-.252.3808-.252.6888l.0112.056q.308-.1512.364-.1736.2296-.0952.392-.0952.1792 0 .2632.1232.084.1176.084.3024z"/><path d="m585.71587 231.13813q0 .3808-.1848.812-.2016.476-.4984.6552-.0616-.0728-.1064-.1624-.0392-.0896-.0392-.1792 0-.0952.28-.5656.1232-.2072.112-.364l-.006-.0728q-.2072.0616-.7168.3752-.504.308-1.0192.6272-.0784 0-.1456-.056-.0616-.0616-.0616-.1344 0-.1176.3752-.7896.112-.2016.4032-.7.0896.1176.1176.2632.028.14.028.336 0 .084 0 .1288.5152-.308.8064-.4648.3192-.1736.4368-.1736.0784 0 .1456.1792.0728.1792.0728.2856z"/><path d="m590.58228 232.22453q0 .1008-.0896.1568-.084.0504-.1904.0504-.0952 0-.2408-.0224-.3304-.0504-.4256-.0504-.168 0-.6608.0392-.28.0224-.40321.0224-.3416 0-.3416-.3416 0-.3248.2128-.9296.1176-.3416.44241-1.12.2912-.7.3696-.9856.028-.0896.0448-.1176.0448-.0672.112-.0672.1064 0 .1792.1568.0728.1512.0728.2744 0 .196-.2296.6608-.2296.4592-.448.9016-.2408.5264-.2408.8008 0 .14.1176.196.084.0392.2464.0392.1232 0 .4256-.028.3024-.0336.4032-.0336.252 0 .4144.0728.2296.1008.2296.3248z"/><path d="m592.66548 231.23893q0 .5712-.3304.896-.3304.3248-.9128.3248-.3192 0-.4928-.1512-.1736-.1512-.1736-.4648 0-.4424.5768-.8904.5488-.4256 1.0136-.4256.2128 0 .28.2632.0392.1512.0392.448zm-.3416.1568q0-.0672-.0168-.1288-.0112-.0672-.0448-.1512-.0896.0616-.2968.3024-.1064.1232-.1848.1792 0-.1064.0224-.1736.0448-.0952.0728-.1624-.2464 0-.5152.2072-.2632.2072-.2632.448 0 .1624.1792.1624.3416 0 .6608-.168.3864-.2016.3864-.5152z"/><path d="m595.02309 231.12133q0 .1792-.0952.3808-.0896.2016-.2296.336l-.006-.0784q0-.0672.0168-.2072.0168-.14.0168-.2072 0-.0952-.028-.14-.028-.0504-.1176-.0504-.2632 0-.6552.4088-.42561.448-.84561.8904-.0336 0-.0672-.006-.084-.0224-.112-.028.0168-.2016.14-.448.3304-.6664.3416-.7112.0448-.1792.0672-.2632.0224-.084.0616-.1736.0448-.0952.1008-.168.0616-.0784.15681-.1176l.056.672q.2408-.196.3696-.3024.2464-.196.4256-.196.1792 0 .2912.1176.112.1176.112.2912z"/><path d="m597.7727 230.47173q0 .2352-.6272.6216-.6048.3696-.87921.3696-.1288 0-.1736-.0896-.0392-.0896-.0392-.252 0-.1064 0-.1512.3752 0 .68321-.112.308-.112.5376-.3696-.168-.0616-.3416-.0616-.4088 0-.86801.3136-.504.3416-.504.728 0 .3696.504.5152.0784.0224.94641.1568.5096.0784.5096.2744 0 .084-.1848.1344-.1848.056-.4704.056-.71681 0-1.13121-.2184-.5488-.2912-.5488-.9352 0-.672.672-1.0696.5712-.336 1.29921-.336.2184 0 .3976.1008.2184.1232.2184.3248z"/><path d="m600.0015 229.46933q0 .1232-.2968.5152-.2968.392-.2968.5992 0 .1064.1232.2128.28.2464.28.3024 0 .0728-.0504.14-.0448.0672-.1176.0672-.0616 0-.1736-.0672-.0784-.0448-.3024-.2184-.084.1624-.1288.2464-.1568.2968-.2128.4312-.084.2576-.168.5152-.1456.3472-.364.3472l-.006-.1288q0-.3976.2576-.9408.0504-.1008.28-.5208-.4424-.2408-.9744-.2408 0-.2072.084-.3024.0896-.1008.2968-.1008.1904 0 .476.0672.14.0336.28.0672.1064-.0336.2912-.364.4536-.7952.616-.9128.0448.0728.0728.1456.0336.0728.0336.14z"/><path d="m602.06791 231.46853q0 .2744-.2072.616-.2352.3864-.4872.3864-.0728 0-.1232-.0784-.0448-.084-.0448-.1624 0-.1008.2128-.3136.2184-.2184.2184-.2968 0-.0504-.0168-.1008-.0168-.0504-.0224-.0672-.42.0952-.8568.4816-.4312.3864-.6552.4368-.0448-.1232-.0448-.252 0-.1568.0728-.3304.0504-.1232.168-.2968.196-.2968.4144-.672.112-.196.3864-.6776.28-.4816.4088-.6832.0672-.1008.1176-.1512.0728-.0672.1736-.0896.0672.0224.0952.084.0336.0616.0336.1456 0 .1904-.2464.5152-.448.5824-.4592.6048-.252.3808-.252.6888l.0112.056q.308-.1512.364-.1736.2296-.0952.392-.0952.1792 0 .2632.1232.084.1176.084.3024z"/><path d="m606.66553 229.64293q0 .2632-.28.7056-.1792.28-.588.8064-.4088.5208-.5096.6832.0168.006.42.1344.4088.1232.4088.448-.168.028-.3304.0504l-.0616-.006v-.0448q-.0896-.0224-.1456-.0224-.1064 0-.336.0336-.22961.0336-.34721.0336-.1512 0-.2464-.056-.0952-.056-.0952-.2016 0-.1176.4312-.6664.80641-1.0248.81201-1.036.4368-.5936.4368-.7952 0-.0784-.056-.1176-.0504-.0392-.2072-.0392-.1064 0-.4424.2072-.1624.1008-.2632.1008l-.0952-.0168q-.0336-.0224-.0728-.084-.0392-.0672-.0392-.1064 0-.2352.45361-.4312.3864-.168.672-.168.2408 0 .3696.1792.112.1568.112.4088z"/><path d="m610.03113 230.65093q0 .6776-.7336 1.1984-.67201.476-1.38321.476-.3528 0-.56-.1792-.2072-.1792-.2072-.5208 0-.7616.6664-1.3216.6328-.532 1.41681-.532.3976 0 .5992.2352.2016.2352.2016.644zm-.3416.1288q0-.2576-.2912-.3864-.2184-.0952-.5208-.0952-.44241 0-.92401.4312-.4816.4312-.4816.868 0 .1792.0896.2576.0952.0728.2856.0728.5488 0 1.14241-.3024.7-.3584.7-.8456z"/><path d="m612.59594 229.64293q0 .2632-.28.7056-.1792.28-.58801.8064-.4088.5208-.5096.6832.0168.006.42.1344.40881.1232.40881.448-.16801.028-.33041.0504l-.0616-.006v-.0448q-.0896-.0224-.1456-.0224-.1064 0-.336.0336-.2296.0336-.3472.0336-.1512 0-.2464-.056-.0952-.056-.0952-.2016 0-.1176.4312-.6664.8064-1.0248.812-1.036.43681-.5936.43681-.7952 0-.0784-.056-.1176-.0504-.0392-.20721-.0392-.1064 0-.4424.2072-.1624.1008-.2632.1008l-.0952-.0168q-.0336-.0224-.0728-.084-.0392-.0672-.0392-.1064 0-.2352.4536-.4312.3864-.168.67201-.168.2408 0 .3696.1792.112.1568.112.4088z"/><path d="m615.17194 229.64293q0 .2632-.28.7056-.1792.28-.58801.8064-.4088.5208-.5096.6832.0168.006.42.1344.40881.1232.40881.448-.168.028-.33041.0504l-.0616-.006v-.0448q-.0896-.0224-.1456-.0224-.1064 0-.336.0336-.2296.0336-.3472.0336-.1512 0-.2464-.056-.0952-.056-.0952-.2016 0-.1176.4312-.6664.8064-1.0248.812-1.036.43681-.5936.43681-.7952 0-.0784-.056-.1176-.0504-.0392-.2072-.0392-.10641 0-.44241.2072-.1624.1008-.2632.1008l-.0952-.0168q-.0336-.0224-.0728-.084-.0392-.0672-.0392-.1064 0-.2352.4536-.4312.38641-.168.67201-.168.2408 0 .3696.1792.112.1568.112.4088z"/></g><g transform="translate(-9.760006 -118.82946)"><g fill="none" stroke="#f4f4f4"><path d="m953.85134 343.30947c17.19303 53.61759 31.59567 110.37266 44.25166 167.35562 9.9417 40.51188 12.3299 83.51881 18.3623 125.30545 3.3396 31.88633 7.3506 65.32701 3.2926 98.22-7.499 53.60272-25.67474 77.81018-44.68833 99.71054-36.11706 31.67794-62.86925 42.45397-86.38637 46.00947-14.06547 2.01331-29.85141 4.29816-43.61651-2.51753m-328.40139-220.84062 147.14975-1.00931c23.10824-.55932 41.32197 7.27312 52.85291 26.5634 35.66234 50.78853 56.97864 117.70646 91.86815 164.93546 9.47419 12.82497 21.99939 22.81546 36.53058 30.35107m108.78465-534.08355c-14.18634-41.30547-32.47073-81.62533-49.95629-123.63893-12.84496-26.6537-31.47014-33.75048-41.94114-36.86483-110.90809-30.66022-227.97942-25.98855-345.28861-27.52356m-437.18602 188.02732c-17.193029 53.61759-31.595666 110.37266-44.251671 167.35562-9.941854 40.51188-12.329822 83.51881-18.362378 125.30545-3.339651 31.88633-7.3503969 65.32701-3.292633 98.22 7.499231 53.60272 25.674871 77.81018 44.688444 99.71054 36.117074 31.67794 62.869268 42.45397 86.386358 46.00947 14.0655 2.01331 29.85141 4.29816 43.61651-2.51753m328.40139-220.84062-147.14972-1.00931c-23.10823-.55932-41.32198 7.27312-52.85291 26.5634-35.66234 50.78853-56.97863 117.70646-91.86816 164.93546-9.47418 12.82497-21.99939 22.81546-36.5306 30.35107m-108.78463-534.08355c14.186344-41.30547 32.47072-81.62533 49.9563-123.63893 12.84495-26.6537 31.47013-33.75048 41.94112-36.86483 110.9081-30.66022 227.97942-25.98855 345.2886-27.52356" stroke-width="4.2"/><path d="m398.16406 425.9375c-20.24843 0-40.37165 8.33649-54.68945 22.6543-14.3178 14.3178-22.6543 34.44102-22.6543 54.68945s8.3365 40.37165 22.6543 54.68945c14.3178 14.31781 34.44102 22.6543 54.68945 22.6543s40.37165-8.33649 54.68946-22.6543c14.3178-14.3178 22.65429-34.44102 22.65429-54.68945s-8.33649-40.37165-22.65429-54.68945c-14.31781-14.31781-34.44103-22.6543-54.68946-22.6543z" stroke-width="1.05"/></g><g><g fill="none" stroke="#f4f4f4" stroke-width="4.2"><circle cx="234.6501" cy="352.13611" r="129"/><path d="m229.41797 249.29492c-7.71273 0-13.92188 8.02734-13.92188 17.99805v67.34375h-67.34375c-9.9707 0-17.99804 6.20914-17.99804 13.92187v7.61914c0 7.71274 8.02734 13.92188 17.99804 13.92188h67.34375v67.34375c0 9.97071 6.20915 17.99609 13.92188 17.99609h7.61914c7.71273 0 13.92187-8.02538 13.92187-17.99609v-67.34375h67.34375c9.97071 0 17.99805-6.20914 17.99805-13.92188v-7.61914c0-7.71273-8.02734-13.92187-17.99805-13.92187h-67.34375v-67.34375c0-9.97071-6.20914-17.99805-13.92187-17.99805z"/><circle cx="398.16403" cy="503.2821" r="58"/><rect height="23.829475" rx="11.914738" width="52.122105" x="405.36209" y="331.56"/><rect height="23.829475" rx="11.914738" width="52.122105" x="579.36206" y="331.56"/><circle cx="516.9787" cy="343.60001" r="42"/></g><path d="m519.79331 335.32122c0 .0493 0 .0986.002.14483l-7.16822 10.41288c-1.16118-.0528-2.32638.15086-3.43123.60597-.48705.19865-.94343.44255-1.37164.72417l-15.74023-6.47975c.00013 0-.36422 5.99195 1.15363 10.45761l11.12749 4.5914c.55871 2.49686 2.27155 4.68695 4.79858 5.74051 4.13452 1.72744 8.90168-.24139 10.62157-4.37766.44757-1.08123.65627-2.21525.6261-3.34675l10.25647-7.32964c.083.002.16847.005.25145.005 6.13778 0 11.12647-5.00376 11.12647-11.1486 0-6.14533-4.98869-11.14457-11.12647-11.14457-6.13528 0-11.12647 4.99924-11.12647 11.14457zm-1.7199 21.10081c-1.33115 3.19588-5.00376 4.7121-8.19612 3.38195-1.47272-.61353-2.58461-1.73749-3.22605-3.0777l3.62208 1.50114c2.35429.98063 5.05531-.13579 6.03394-2.48932.98165-2.35604-.132-5.0616-2.48504-6.04223l-3.74428-1.55142c1.44482-.54815 3.08725-.56827 4.62182.0704 1.54715.6437 2.74755 1.85567 3.38371 3.40457s.63364 3.25874-.0101 4.80261m12.84637-13.67361c-4.086 0-7.41263-3.33165-7.41263-7.4272 0-4.09228 3.32663-7.42494 7.41263-7.42494 4.0885 0 7.41512 3.33266 7.41512 7.42494 0 4.09555-3.32662 7.4272-7.41512 7.4272m-5.55445-7.43851c0-3.08097 2.49435-5.57984 5.56701-5.57984 3.07518 0 5.56953 2.49887 5.56953 5.57984 0 3.08121-2.49435 5.57781-5.56953 5.57781-3.07266 0-5.56701-2.4966-5.56701-5.57781z" fill="#f4f4f4" stroke-width="1.2"/><g fill="none" stroke="#f4f4f4" stroke-width="4.2"><circle cx="800.45007" cy="352.13611" r="129"/><ellipse cx="644.59802" cy="450.62738" rx="30" ry="30.000002"/><ellipse cx="589.82751" cy="505.01474" rx="30" ry="30.000002"/><ellipse cx="695.96222" cy="505.70105" rx="30" ry="30.000002"/><ellipse cx="641.19171" cy="560.08844" rx="30" ry="30.000002"/><path d="m199.17041 155.98878c25.16766-13.3373 49.50988-29.83408 78.08239-34.60067 15.89035-1.56774 32.76033.66012 47.1948 10.10962 3.58402 2.46003 6.85901 4.58782 11.04325 6.93965"/><path d="m131.59859 217.73197c8.97478-25.74855 33.94714-42.93089 55.33807-55.16194 20.0175-11.54668 42.10806-20.13467 65.23939-23.54392 34.34266-5.79671 69.42157-2.7614 103.71178 1.83141 7.54008 1.71901 18.42336 5.79879 17.48348 15.25896"/><path d="m835.17004 155.98878c-25.16766-13.3373-49.50988-29.83408-78.08239-34.60067-15.89035-1.56774-32.76033.66012-47.1948 10.10962-3.58402 2.46003-6.85901 4.58782-11.04325 6.93965"/><path d="m902.74186 217.73197c-8.97478-25.74855-33.94714-42.93089-55.33807-55.16194-20.0175-11.54668-42.10806-20.13467-65.23939-23.54392-34.34266-5.79671-69.42157-2.7614-103.71178 1.83141-7.54008 1.71901-18.42336 5.79879-17.48348 15.25896"/></g></g></g></svg>