<svg height="367.73767" viewBox="0 0 338.25806 551.60651" width="225.50537" xmlns="http://www.w3.org/2000/svg"><g fill="#f4f4f4" fill-opacity=".5"><path d="m248.54063 471.70754q0 .32-.0773.53866-.11467.32534-.368.32534-.168 0-.352-.0773-.22133-.0933-.24267-.22933.0747 0 .176.0267.23467.0613.29334.0613.22666 0 .34133-.22667.0907-.18133.0907-.43466 0-.17867-.11734-.50934-.11466-.33333-.11466-.464 0-.04.0213-.064.024-.0267.064-.0267.104 0 .20267.48.0827.40533.0827.6z"/><path d="m249.5673 471.97954q0 .272-.15733.42666-.15733.15467-.43467.15467-.152 0-.23466-.072-.0827-.072-.0827-.22133 0-.21067.27467-.424.26133-.20267.48266-.20267.10134 0 .13334.12533.0187.072.0187.21334zm-.16266.0747q0-.032-.008-.0613-.005-.032-.0213-.072-.0427.0293-.14133.144-.0507.0587-.088.0853 0-.0507.0107-.0827.0213-.0453.0347-.0773-.11733 0-.24533.0987-.12533.0987-.12533.21333 0 .0773.0853.0773.16267 0 .31467-.08.184-.096.184-.24534z"/><path d="m250.66597 472.08887q0 .13067-.0987.29333-.112.184-.232.184-.0347 0-.0587-.0373-.0213-.04-.0213-.0773 0-.048.10133-.14934.104-.104.104-.14133 0-.024-.008-.048-.008-.024-.0107-.032-.2.0453-.408.22933-.20533.184-.312.208-.0213-.0587-.0213-.12 0-.0747.0347-.15733.024-.0587.08-.14133.0933-.14134.19734-.32.0533-.0933.184-.32267.13333-.22933.19467-.32533.032-.048.056-.072.0347-.032.0827-.0427.032.0107.0453.04.016.0293.016.0693 0 .0907-.11734.24534-.21333.27733-.21866.288-.12001.18133-.12001.328l.005.0267q.14667-.072.17333-.0827.10934-.0453.18667-.0453.0853 0 .12533.0587.04.056.04.144z"/><path d="m251.90331 471.93154q0 .18133-.088.38666-.096.22667-.23733.312-.0293-.0347-.0507-.0773-.0187-.0427-.0187-.0853 0-.0453.13334-.26934.0587-.0987.0533-.17333l-.003-.0347q-.0987.0293-.34133.17867-.24.14667-.48533.29867-.0373 0-.0693-.0267-.0293-.0293-.0293-.064 0-.056.17867-.376.0533-.096.192-.33333.0427.056.056.12533.0133.0667.0133.16 0 .04 0 .0613.24533-.14666.384-.22133.152-.0827.208-.0827.0373 0 .0693.0853.0347.0853.0347.136z"/><path d="m254.22064 472.44887q0 .048-.0427.0747-.04.024-.0907.024-.0453 0-.11467-.0107-.15733-.024-.20266-.024-.08 0-.31467.0187-.13333.0107-.192.0107-.16267 0-.16267-.16266 0-.15467.10134-.44267.056-.16267.21066-.53333.13867-.33334.176-.46934.0133-.0427.0213-.056.0213-.032.0533-.032.0507 0 .0853.0747.0347.072.0347.13067 0 .0933-.10933.31466-.10934.21867-.21334.42934-.11466.25066-.11466.38133 0 .0667.056.0933.04.0187.11733.0187.0587 0 .20267-.0133.144-.016.192-.016.12 0 .19733.0347.10933.048.10933.15467z"/><path d="m255.21265 471.97954q0 .272-.15734.42666-.15733.15467-.43466.15467-.152 0-.23467-.072-.0827-.072-.0827-.22133 0-.21067.27467-.424.26133-.20267.48267-.20267.10133 0 .13333.12533.0187.072.0187.21334zm-.16267.0747q0-.032-.008-.0613-.005-.032-.0213-.072-.0427.0293-.14134.144-.0507.0587-.088.0853 0-.0507.0107-.0827.0213-.0453.0347-.0773-.11734 0-.24534.0987-.12533.0987-.12533.21333 0 .0773.0853.0773.16267 0 .31467-.08.184-.096.184-.24534z"/><path d="m256.33531 471.92354q0 .0853-.0453.18133-.0427.096-.10933.16l-.003-.0373q0-.032.008-.0987.008-.0667.008-.0987 0-.0453-.0133-.0667-.0133-.024-.056-.024-.12534 0-.312.19466-.20267.21334-.40267.424-.016 0-.032-.003-.04-.0107-.0533-.0133.008-.096.0667-.21333.15734-.31733.16267-.33867.0213-.0853.032-.12533.0107-.04.0293-.0827.0213-.0453.048-.08.0293-.0373.0747-.056l.0267.32q.11466-.0933.176-.144.11733-.0933.20266-.0933.0853 0 .13867.056.0533.056.0533.13867z"/><path d="m257.64465 471.6142q0 .112-.29867.296-.288.176-.41866.176-.0613 0-.0827-.0427-.0187-.0427-.0187-.12 0-.0507 0-.072.17867 0 .32534-.0533.14666-.0533.256-.176-.08-.0293-.16267-.0293-.19467 0-.41333.14933-.24.16267-.24.34667 0 .176.24.24533.0373.0107.45066.0747.24267.0373.24267.13067 0 .04-.088.064-.088.0267-.224.0267-.34133 0-.53867-.104-.26133-.13866-.26133-.44533 0-.32.32-.50933.272-.16.61867-.16.104 0 .18933.048.104.0587.104.15466z"/><path d="m258.70599 471.13687q0 .0587-.14134.24533-.14133.18667-.14133.28534 0 .0507.0587.10133.13333.11733.13333.144 0 .0347-.024.0667-.0213.032-.056.032-.0293 0-.0827-.032-.0373-.0213-.144-.104-.04.0773-.0613.11733-.0747.14133-.10133.20533-.04.12267-.08.24534-.0693.16533-.17334.16533l-.003-.0613q0-.18934.12266-.448.024-.048.13334-.248-.21067-.11467-.464-.11467 0-.0987.04-.144.0427-.048.14133-.048.0907 0 .22667.032.0667.016.13333.032.0507-.016.13867-.17333.216-.37867.29333-.43467.0213.0347.0347.0693.016.0347.016.0667z"/><path d="m259.68999 472.08887q0 .13067-.0987.29333-.112.184-.232.184-.0347 0-.0587-.0373-.0213-.04-.0213-.0773 0-.048.10134-.14934.104-.104.104-.14133 0-.024-.008-.048-.008-.024-.0107-.032-.2.0453-.408.22933-.20533.184-.312.208-.0213-.0587-.0213-.12 0-.0747.0347-.15733.024-.0587.08-.14133.0933-.14134.19734-.32.0533-.0933.184-.32267.13333-.22933.19466-.32533.032-.048.056-.072.0347-.032.0827-.0427.032.0107.0453.04.016.0293.016.0693 0 .0907-.11733.24534-.21333.27733-.21867.288-.12.18133-.12.328l.005.0267q.14666-.072.17333-.0827.10933-.0453.18667-.0453.0853 0 .12533.0587.04.056.04.144z"/><path d="m261.87933 471.21954q0 .12533-.13333.336-.0853.13333-.28.384-.19467.248-.24267.32533.008.003.2.064.19467.0587.19467.21333-.08.0133-.15734.024l-.0293-.003v-.0213q-.0427-.0107-.0693-.0107-.0507 0-.16.016-.10934.016-.16534.016-.072 0-.11733-.0267-.0453-.0267-.0453-.096 0-.056.20533-.31733.384-.488.38667-.49334.208-.28266.208-.37866 0-.0373-.0267-.056-.024-.0187-.0987-.0187-.0507 0-.21066.0987-.0773.048-.12534.048l-.0453-.008q-.016-.0107-.0347-.04-.0187-.032-.0187-.0507 0-.112.216-.20533.184-.08.32-.08.11466 0 .176.0853.0533.0747.0533.19467z"/><path d="m263.482 471.69954q0 .32266-.34934.57066-.32.22667-.65866.22667-.168 0-.26667-.0853-.0987-.0853-.0987-.248 0-.36267.31734-.62934.30133-.25333.67466-.25333.18934 0 .28534.112.096.112.096.30667zm-.16267.0613q0-.12267-.13867-.184-.104-.0453-.248-.0453-.21066 0-.44.20533-.22933.20533-.22933.41333 0 .0853.0427.12267.0453.0347.136.0347.26133 0 .544-.144.33333-.17067.33333-.40267z"/><path d="m264.70333 471.21954q0 .12533-.13333.336-.0853.13333-.28.384-.19467.248-.24267.32533.008.003.2.064.19467.0587.19467.21333-.08.0133-.15733.024l-.0293-.003v-.0213q-.0427-.0107-.0693-.0107-.0507 0-.16.016-.10933.016-.16533.016-.072 0-.11734-.0267-.0453-.0267-.0453-.096 0-.056.20533-.31733.384-.488.38667-.49334.208-.28266.208-.37866 0-.0373-.0267-.056-.024-.0187-.0987-.0187-.0507 0-.21067.0987-.0773.048-.12533.048l-.0453-.008q-.016-.0107-.0347-.04-.0187-.032-.0187-.0507 0-.112.216-.20533.184-.08.32-.08.11467 0 .176.0853.0533.0747.0533.19467z"/><path d="m265.93 471.21954q0 .12533-.13333.336-.0853.13333-.28.384-.19467.248-.24267.32533.008.003.2.064.19467.0587.19467.21333-.08.0133-.15734.024l-.0293-.003v-.0213q-.0427-.0107-.0693-.0107-.0507 0-.16.016-.10934.016-.16534.016-.072 0-.11733-.0267-.0453-.0267-.0453-.096 0-.056.20533-.31733.384-.488.38667-.49334.208-.28266.208-.37866 0-.0373-.0267-.056-.024-.0187-.0987-.0187-.0507 0-.21066.0987-.0773.048-.12534.048l-.0453-.008q-.016-.0107-.0347-.04-.0187-.032-.0187-.0507 0-.112.216-.20533.184-.08.32-.08.11466 0 .176.0853.0533.0747.0533.19467z"/></g><g transform="translate(-161.97729 -209.7757)"><g><g fill="none" stroke="#f4f4f4" stroke-width="3"><circle cx="366.20981" cy="638.47919" r="19"/><circle cx="421.87494" cy="606.76135" r="19"/><rect height="8" rx="4.12384" width="33" x="378.83548" y="558.52924"/><rect height="8" rx="4.12384" width="33" x="322.92218" y="559.91602"/><rect height="60" rx="9.175411" transform="matrix(.70710678 -.70710678 .70710678 .70710678 0 0)" width="60" x="-277.97131" y="600.42249"/><path d="m269.2168 582.6543c-3.878 0-7 3.122-7 7v23.31836h-23.31641c-3.878 0-7 3.122-7 7v2.41211c0 3.878 3.122 7 7 7h23.31641v23.3164c0 3.878 3.122 7 7 7h2.41211c3.878 0 7-3.122 7-7v-23.3164h23.31836c3.878 0 7-3.122 7-7v-2.41211c0-3.878-3.122-7-7-7h-23.31836v-23.31836c0-3.878-3.122-7-7-7z"/><circle cx="270.37659" cy="621.17798" r="5.5"/></g><path d="m246.0898 209.7757h8.257625v3.009692h-8.257625z" fill="#f4f4f4"/></g><g><g fill="none"><path d="m477.00919 531.23613v120.54409c0 59.86684-48.21923 106.39759-108.0629 108.06289-25.38483.7064-50.64493.73102-75.76679 0-59.84151-1.74132-108.06289-48.19605-108.06289-108.06289v-120.56264" stroke="#f4f4f4" stroke-width="3"/><path d="m476.30508 591.97077c-6.36782.12755-12.73563.25509-19.10345.38264-.26492 21.24076-.28314 42.49642-.70273 63.72783-2.62887 25.83461-14.06277 51.83257-35.62737 67.27308-25.67692 18.74022-49.48935 19.82491-90.09442 19.14947m-145.52797-150.53302c6.36782.12755 12.73563.25509 19.10345.38264.26492 21.24076.28314 42.49642.70273 63.72783 2.62887 25.83461 14.06277 51.83257 35.62737 67.27308 25.67695 18.74009 60.06903 18.57609 90.09442 19.14947" stroke="#f4f4f4" stroke-width="1.5"/><g stroke-width="3"><path d="m185.10968 530.69938c0-2.89344 2.32938-5.22282 5.22281-5.22282h281.41546c2.89344 0 5.22281 2.32938 5.22281 5.22282v.14397m-291.86108 0v-.14397" stroke="#969696" stroke-linecap="round"/><path d="m476.97076 530.69938v.14397m0 0c0 2.89344-2.32937 5.22282-5.22281 5.22282h-281.41546c-2.89343 0-5.22281-2.32938-5.22281-5.22282v-.14397" stroke="#f4f4f4" stroke-linecap="round"/><rect height="274.48254" rx="24.587172" stroke="#f4f4f4" width="336.25806" x="162.97729" y="212.81743"/></g></g><g fill="#f4f4f4"><rect height="3" rx="1.31575" width="249.11993" x="206.24153" y="491.28687"/><rect height="3" rx="1.31575" width="249.11993" x="206.24153" y="497.28687"/><rect height="3" rx="1.31575" width="249.11993" x="206.24153" y="503.28687"/><rect height="3" rx="1.31575" width="249.11993" x="206.24153" y="509.28687"/><rect height="3" rx="1.31575" width="249.11993" x="206.24153" y="515.28687"/><rect height="3" rx="1.31575" width="249.11993" x="206.24153" y="521.28687"/><rect height="3" rx="1.31575" width="249.11993" x="206.24153" y="527.28687"/></g><g fill="#969696"><rect height="3" rx="1.31575" width="235.41835" x="212.90553" y="518.28876"/><rect height="3" rx="1.31575" width="235.41835" x="212.90553" y="488.28876"/><rect height="3" rx="1.31575" width="235.41835" x="212.90553" y="506.28876"/><rect height="3" rx="1.31575" width="235.41835" x="212.90553" y="494.28876"/><rect height="3" rx="1.31575" width="235.41835" x="212.90553" y="512.28876"/><rect height="3" rx="1.31575" width="235.41835" x="212.90553" y="500.28876"/><rect height="3" rx="1.31575" width="235.41835" x="212.90553" y="530.28876"/><rect height="3" rx="1.31575" width="235.41835" x="212.90553" y="524.28876"/></g><path d="m245.41292 275.33844h171.83113v161.13487h-171.83113z" fill="none" stroke="#f4f4f4" stroke-width="3"/><rect fill="none" height="222.46603" rx="17.662085" ry="16.055515" stroke="#f4f4f4" stroke-width="1.5" width="283.81125" x="189.95888" y="240.15627"/><g fill="#f4f4f4"><rect height="3.287814" rx="1.643907" width="72.882851" x="195.98039" y="252.5636"/><rect height="3.287814" rx="1.643907" width="72.882851" x="393.2851" y="252.5636"/><circle cx="438.59378" cy="362.19495" r="3"/><g><rect height="2.631497" rx="1.315749" width="40.189804" x="397.57944" y="674.02051"/><rect height="2.631497" rx="1.315749" width="40.189804" x="388.93683" y="682.61426"/><rect height="2.631497" rx="1.315749" width="40.189804" x="380.50049" y="691.02527"/></g></g></g></g></svg>