<svg height="355.18509" viewBox="0 0 540.25572 261.13563" width="734.83185" xmlns="http://www.w3.org/2000/svg"><g fill="#f4f4f4" fill-opacity=".5" stroke-width=".73521"><path d="m125.43942 170.87234q0 .23527-.0568.39603-.0843.23919-.27056.23919-.12352 0-.25879-.0569-.16273-.0686-.17842-.1686.0549 0 .1294.0196.17253.0451.21566.0451.16665 0 .25096-.16664.0666-.13332.0666-.31957 0-.13136-.0863-.37447-.0843-.24507-.0843-.34114 0-.0294.0157-.0471.0176-.0196.047-.0196.0765 0 .14901.3529.0608.29801.0608.44113z"/><path d="m126.19424 171.07232q0 .19997-.11567.31369-.11568.11371-.31957.11371-.11176 0-.17253-.0529-.0608-.0529-.0608-.16272 0-.15489.20194-.31173.19213-.14901.35486-.14901.0745 0 .098.0922.0137.0529.0137.15685zm-.11959.0549q0-.0235-.006-.0451-.004-.0235-.0157-.0529-.0314.0216-.10391.10587-.0373.0431-.0647.0627 0-.0373.008-.0608.0157-.0333.0255-.0568-.0863 0-.18037.0725-.0922.0725-.0922.15684 0 .0569.0627.0569.1196 0 .23135-.0588.13528-.0706.13528-.18037z"/><path d="m127.00199 171.1527q0 .0961-.0725.21566-.0823.13528-.17057.13528-.0255 0-.0431-.0274-.0157-.0294-.0157-.0569 0-.0353.0745-.10979.0765-.0765.0765-.10391 0-.0176-.006-.0353-.006-.0176-.008-.0235-.14704.0333-.29996.16861-.15097.13527-.22939.15292-.0157-.0431-.0157-.0882 0-.0549.0255-.11567.0176-.0431.0588-.10391.0686-.10391.14508-.23527.0392-.0686.13528-.23722.098-.16861.14312-.23919.0235-.0353.0412-.0529.0255-.0235.0608-.0314.0235.008.0333.0294.0118.0216.0118.051 0 .0667-.0863.18037-.15684.2039-.16077.21174-.0882.13332-.0882.24115l.004.0196q.10783-.0529.12744-.0608.0804-.0333.13724-.0333.0627 0 .0921.0431.0294.0412.0294.10587z"/><path d="m127.91169 171.03703q0 .13331-.0647.28428-.0706.16664-.17449.22938-.0216-.0255-.0373-.0568-.0137-.0314-.0137-.0627 0-.0333.098-.19802.0431-.0725.0392-.12743l-.002-.0255q-.0725.0216-.25095.13136-.17645.10783-.35683.21958-.0274 0-.051-.0196-.0216-.0216-.0216-.047 0-.0412.13136-.27644.0392-.0706.14116-.24507.0314.0412.0412.0922.01.049.01.11763 0 .0294 0 .0451.18037-.10783.28232-.16272.11175-.0608.15292-.0608.0275 0 .051.0627.0255.0627.0255.1z"/><path d="m129.61542 171.41737q0 .0353-.0314.0549-.0294.0177-.0667.0177-.0333 0-.0843-.008-.11568-.0176-.14901-.0176-.0588 0-.23134.0137-.098.008-.14116.008-.1196 0-.1196-.11959 0-.11371.0745-.32545.0412-.1196.15489-.39212.10195-.24507.1294-.34505.01-.0314.0157-.0412.0157-.0235.0392-.0235.0373 0 .0627.0549.0255.0529.0255.0961 0 .0686-.0804.23135-.0804.16076-.15684.31565-.0843.18429-.0843.28036 0 .049.0412.0686.0294.0137.0863.0137.0431 0 .149-.01.10587-.0118.14116-.0118.0882 0 .14508.0255.0804.0353.0804.11371z"/><path d="m130.34475 171.07232q0 .19997-.11568.31369-.11567.11371-.31957.11371-.11175 0-.17253-.0529-.0608-.0529-.0608-.16272 0-.15489.20193-.31173.19214-.14901.35486-.14901.0745 0 .098.0922.0137.0529.0137.15685zm-.1196.0549q0-.0235-.006-.0451-.004-.0235-.0157-.0529-.0314.0216-.10391.10587-.0373.0431-.0647.0627 0-.0373.008-.0608.0157-.0333.0255-.0568-.0863 0-.18037.0725-.0921.0725-.0921.15684 0 .0569.0627.0569.11959 0 .23134-.0588.13528-.0706.13528-.18037z"/><path d="m131.17014 171.03114q0 .0627-.0333.13332-.0314.0706-.0804.11764l-.002-.0275q0-.0235.006-.0725.006-.049.006-.0725 0-.0333-.01-.049-.01-.0176-.0412-.0176-.0922 0-.22939.14312-.149.15684-.29604.31173-.0118 0-.0235-.002-.0294-.008-.0392-.01.006-.0706.049-.15684.11568-.23331.1196-.24899.0157-.0627.0235-.0922.008-.0294.0216-.0608.0157-.0333.0353-.0588.0216-.0274.0549-.0412l.0196.23526q.0843-.0686.1294-.10587.0863-.0686.149-.0686.0627 0 .10195.0412.0392.0412.0392.10195z"/><path d="m132.13278 170.80372q0 .0823-.21958.21762-.21174.1294-.30781.1294-.0451 0-.0608-.0314-.0137-.0314-.0137-.0882 0-.0373 0-.0529.13135 0 .23919-.0392.10783-.0392.18821-.1294-.0588-.0216-.1196-.0216-.14312 0-.30388.1098-.17645.11959-.17645.25487 0 .1294.17645.18037.0275.008.33133.0549.17841.0274.17841.0961 0 .0294-.0647.0471-.0647.0196-.16469.0196-.25095 0-.39604-.0765-.19213-.10195-.19213-.32741 0-.23527.23527-.37447.19997-.11763.45485-.11763.0765 0 .1392.0353.0765.0431.0765.11371z"/><path d="m132.91308 170.45278q0 .0431-.10391.18037-.10391.13724-.10391.20978 0 .0373.0431.0745.098.0863.098.10587 0 .0255-.0176.049-.0157.0235-.0412.0235-.0216 0-.0608-.0235-.0275-.0157-.10587-.0765-.0294.0569-.0451.0863-.0549.10391-.0745.15096-.0294.0902-.0588.18037-.051.12156-.12744.12156l-.002-.0451q0-.1392.0902-.32938.0176-.0353.098-.18233-.15488-.0843-.34113-.0843 0-.0725.0294-.10587.0314-.0353.10391-.0353.0666 0 .16664.0235.049.0118.098.0235.0373-.0118.10195-.12744.15881-.2784.21566-.31957.0157.0255.0255.051.0118.0255.0118.049z"/><path d="m133.63653 171.1527q0 .0961-.0725.21566-.0823.13528-.17057.13528-.0255 0-.0431-.0274-.0157-.0294-.0157-.0569 0-.0353.0745-.10979.0765-.0765.0765-.10391 0-.0176-.006-.0353-.006-.0176-.008-.0235-.14704.0333-.29996.16861-.15096.13527-.22939.15292-.0157-.0431-.0157-.0882 0-.0549.0255-.11567.0176-.0431.0588-.10391.0686-.10391.14508-.23527.0392-.0686.13528-.23722.098-.16861.14312-.23919.0235-.0353.0412-.0529.0255-.0235.0608-.0314.0235.008.0333.0294.0118.0216.0118.051 0 .0667-.0863.18037-.15684.2039-.16076.21174-.0882.13332-.0882.24115l.004.0196q.10783-.0529.12744-.0608.0804-.0333.13724-.0333.0627 0 .0921.0431.0294.0412.0294.10587z"/><path d="m135.24615 170.51356q0 .0921-.098.24703-.0627.098-.20586.28232-.14312.18233-.17841.23919.006.002.14704.047.14312.0431.14312.15684-.0588.01-.11567.0177l-.0216-.002v-.0157q-.0314-.008-.051-.008-.0373 0-.11763.0118-.0804.0118-.12155.0118-.0529 0-.0863-.0196-.0333-.0196-.0333-.0706 0-.0412.15097-.2333.28232-.35879.28428-.36271.15292-.20782.15292-.2784 0-.0274-.0196-.0412-.0176-.0137-.0725-.0137-.0373 0-.15488.0725-.0569.0353-.0922.0353l-.0333-.006q-.0118-.008-.0255-.0294-.0137-.0235-.0137-.0373 0-.0824.15881-.15097.13528-.0588.23527-.0588.0843 0 .12939.0627.0392.0549.0392.14312z"/><path d="m136.42445 170.86646q0 .23722-.25684.41956-.23526.16664-.48425.16664-.12352 0-.19606-.0627-.0725-.0627-.0725-.18234 0-.26663.23331-.46269.22154-.18625.49602-.18625.1392 0 .20978.0823.0706.0824.0706.22547zm-.1196.0451q0-.0902-.10195-.13528-.0765-.0333-.18233-.0333-.15488 0-.32349.15096-.16861.15097-.16861.30389 0 .0627.0314.0902.0333.0255.1.0255.19213 0 .39995-.10587.24507-.12547.24507-.29604z"/><path d="m137.32239 170.51356q0 .0921-.098.24703-.0627.098-.20586.28232-.14312.18233-.17841.23919.006.002.14704.047.14312.0431.14312.15684-.0588.01-.11567.0177l-.0216-.002v-.0157q-.0314-.008-.051-.008-.0373 0-.11764.0118-.0804.0118-.12155.0118-.0529 0-.0863-.0196-.0333-.0196-.0333-.0706 0-.0412.15096-.2333.28232-.35879.28428-.36271.15292-.20782.15292-.2784 0-.0274-.0196-.0412-.0176-.0137-.0725-.0137-.0373 0-.15489.0725-.0568.0353-.0921.0353l-.0333-.006q-.0118-.008-.0255-.0294-.0137-.0235-.0137-.0373 0-.0824.1588-.15097.13528-.0588.23527-.0588.0843 0 .1294.0627.0392.0549.0392.14312z"/><path d="m138.22424 170.51356q0 .0921-.098.24703-.0627.098-.20586.28232-.14312.18233-.17841.23919.006.002.14705.047.14312.0431.14312.15684-.0588.01-.11568.0177l-.0216-.002v-.0157q-.0314-.008-.051-.008-.0373 0-.11763.0118-.0804.0118-.12156.0118-.0529 0-.0863-.0196-.0333-.0196-.0333-.0706 0-.0412.15096-.2333.28232-.35879.28428-.36271.15293-.20782.15293-.2784 0-.0274-.0196-.0412-.0176-.0137-.0725-.0137-.0373 0-.15488.0725-.0569.0353-.0921.0353l-.0333-.006q-.0118-.008-.0255-.0294-.0137-.0235-.0137-.0373 0-.0824.15881-.15097.13527-.0588.23526-.0588.0843 0 .1294.0627.0392.0549.0392.14312z"/></g><g fill="none" stroke="#f4f4f4"><g transform="translate(-15.233018 -55.35158)"><g stroke-width="1.4"><rect height="9.57699" rx="4.788495" width="29.030125" x="246.00647" y="238.86409"/><ellipse cx="455.9949" cy="177.2397" rx="18.872719" ry="18.872721"/><ellipse cx="410.69873" cy="212.5573" rx="18.872719" ry="18.872721"/><ellipse cx="501.92914" cy="212.09262" rx="18.872719" ry="18.872721"/><ellipse cx="456.99872" cy="248.39818" rx="18.872719" ry="18.872721"/><rect height="9.57699" rx="4.788495" width="29.030125" x="299.98203" y="238.86409"/></g><path d="m406.96289 664.61133c-6.79856 0-12.27344 5.47292-12.27344 12.27148v28.37891a121.01231 121.01231 0 0 0 -61.00976 60.91406h-30.28125c-6.79857 0-12.27149 5.47292-12.27149 12.27149v71.02343c0 6.79857 5.47292 12.27149 12.27149 12.27149h28.78515a121.01231 121.01231 0 0 0 62.50586 64.3457v24.94727c0 6.79856 5.47488 12.27148 12.27344 12.27148h71.02149c6.79855 0 12.27148-5.47292 12.27148-12.27148v-23.59571a121.01231 121.01231 0 0 0 65.60156-65.69726h21.69141c6.79856 0 12.27148-5.47292 12.27148-12.27149v-71.02343c0-6.79857-5.47292-12.27149-12.27148-12.27149h-23.11328a121.01231 121.01231 0 0 0 -64.17969-62.32422v-26.96875c0-6.79856-5.47293-12.27148-12.27148-12.27148z" stroke-width="5.29134" transform="scale(.26458333)"/><path d="m406.96289 664.61133c-6.79856 0-12.27344 5.47292-12.27344 12.27148v89.29297h-91.29101c-6.79857 0-12.27149 5.47292-12.27149 12.27149v71.02343c0 6.79857 5.47292 12.27149 12.27149 12.27149h91.29101v89.29297c0 6.79856 5.47488 12.27148 12.27344 12.27148h71.02149c6.79856 0 12.27148-5.47292 12.27148-12.27148v-89.29297h87.29297c6.79856 0 12.27148-5.47292 12.27148-12.27149v-71.02343c0-6.79857-5.47292-12.27149-12.27148-12.27149h-87.29297v-89.29297c0-6.79856-5.47292-12.27148-12.27148-12.27148z" stroke-width="5.29134" transform="scale(.26458333)"/><circle cx="116.58648" cy="215.40221" r="8.34069" stroke-width="1.4"/><g stroke-width="6.68326"><path d="m440.27973 772.93699-61.44609-25.01183 52.38392-40.70796z" transform="matrix(-.1935558 .08199492 -.08467297 -.19084207 259.83873 347.84389)"/><path d="m440.27973 772.93699-61.44609-25.01183 52.38392-40.70796z" transform="matrix(.08199492 .1935558 -.19084207 .08467297 249.07142 71.950558)"/><path d="m440.27973 772.93699-61.44609-25.01183 52.38392-40.70796z" transform="matrix(-.08199492 -.1935558 .19084207 -.08467297 -15.472757 358.64424)"/><path d="m440.27973 772.93699-61.44609-25.01183 52.38392-40.70796z" transform="matrix(.1935558 -.08199492 .08467297 .19084207 -26.854956 83.332815)"/></g><path d="m135.6463 89.811419c-.72489-2.33942-3.15472-4.38631-5.68725-3.65621-13.92668 3.34112-27.36715 8.57148-39.993092 15.317601-1.6643.91689-4.37008 1.76625-3.86638 4.19289-.0143.93991.683487 2.104 1.052877 2.92049" stroke-width="1.4"/><path d="m434.57865 89.811419c.72489-2.33942 3.15474-4.38631 5.68729-3.65621 13.92675 3.34112 27.36722 8.57148 39.99316 15.317601 1.6643.91689 4.37008 1.76625 3.86638 4.19289.0143.93991-.68348 2.104-1.05287 2.92049" stroke-width="1.4"/></g><path d="m315.41239-68.749416c18.79851.806038 42.53928 9.254153 62.94309 19.03282 44.26136 22.213985 83.62221 68.025904 77.30324 120.342738-5.52171 57.006238-67.03498 103.567288-123.30329 86.589588-32.1153-8.85413-63.77472-20.12414-97.26666-22.66014-16.01814-1.96734-32.10409-2.90002-48.18153-2.89276m128.50515-200.412246c-9.47552-.772983-13.44152.675627-18.28251 3.992838-36.47538-22.443692-73.21197-34.104915-110.22835-34.216515m110.22835 34.216517c-6.11922 6.17502-13.5198 13.756771-23.13578 11.628729-26.57148-14.665233-56.81117-22.734096-87.12583-23.005039m-.0941 23.892022c18.6725.283286 37.31399 4.248813 54.42977 11.697495 6.14483 1.49442 10.06397 8.169475 8.28619 14.240406-1.75323 10.247817-4.81782 20.233425-8.09669 30.0757413-2.38418 5.1828811-9.52186 6.1023625-14.03113 3.3045308-12.96332-5.0007778-26.75433-7.9524078-40.63046-8.5210148m-128.341182-67.3057143c-18.798508.806038-42.539278 9.254153-62.9430943 19.03282-44.2613527 22.213985-83.6222047 68.025903-77.3032327 120.342738 5.521709 57.006242 67.034975 103.567292 123.303287 86.589592 32.115302-8.85413 63.774722-20.12414 97.266662-22.66014 16.01814-1.96734 32.10409-2.90002 48.18153-2.89276m-128.505152-200.41225c9.475525-.772983 13.441521.675627 18.28251 3.992838 36.475382-22.443689 73.211972-34.104911 110.228352-34.216511m-110.228349 34.216513c6.11922 6.17502 13.519803 13.756771 23.13578 11.628729 26.571479-14.665233 56.811169-22.734096 87.125829-23.005039m.0941 23.892022c-18.6725.283286-37.31399 4.248813-54.42977 11.697495-6.14483 1.49442-10.06397 8.169475-8.28619 14.240406 1.75323 10.247817 4.81782 20.2334249 8.09669 30.075741 2.38418 5.1828808 9.52186 6.1023622 14.03113 3.3045305 12.96332-5.0007782 26.75433-7.95240818 40.63046-8.5210144m-121.893224 61.4640609c.000001 26.004945-21.081172 47.086119-47.086117 47.086119-26.0049447 0-47.086117-21.081174-47.086116-47.086119.000001-26.004944 21.0811724-47.086115 47.086116-47.086116 26.004944 0 47.086116 21.081172 47.086117 47.086116z" stroke-width="1.4" transform="translate(83.226333 99.67309)"/></g></svg>