<svg height="353.97079" viewBox="0 0 1421.1408 601.75037" width="835.96521" xmlns="http://www.w3.org/2000/svg"><g transform="translate(-26.174716 -32.119426)"><g fill="#f4f4f4" fill-opacity=".5" stroke-width="1.7"><path d="m1024.2001 627.311q0 .408-.099.6868-.1462.4148-.4692.4148-.2142 0-.4488-.0986-.2822-.119-.3094-.2924.095 0 .2244.034.2992.0782.374.0782.289 0 .4352-.289.1156-.2312.1156-.5542 0-.2278-.1496-.6494-.1462-.425-.1462-.5916 0-.051.027-.0816.031-.034.082-.034.1326 0 .2584.612.1054.5168.1054.765z"/><path d="m1025.5091 627.6578q0 .3468-.2006.544-.2006.1972-.5542.1972-.1938 0-.2992-.0918-.1054-.0918-.1054-.2822 0-.2686.3502-.5406.3332-.2584.6154-.2584.1292 0 .17.1598.024.0918.024.272zm-.2074.0952q0-.0408-.01-.0782-.01-.0408-.027-.0918-.054.0374-.1802.1836-.065.0748-.1122.1088 0-.0646.014-.1054.027-.0578.044-.0986-.1496 0-.3128.1258-.1598.1258-.1598.272 0 .0986.1088.0986.2074 0 .4012-.102.2346-.1224.2346-.3128z"/><path d="m1026.9099 627.7972q0 .1666-.1258.374-.1428.2346-.2958.2346-.044 0-.075-.0476-.027-.051-.027-.0986 0-.0612.1292-.1904.1326-.1326.1326-.1802 0-.0306-.01-.0612-.01-.0306-.014-.0408-.255.0578-.5202.2924-.2618.2346-.3978.2652-.027-.0748-.027-.153 0-.0952.044-.2006.031-.0748.102-.1802.119-.1802.2516-.408.068-.119.2346-.4114.17-.2924.2482-.4148.041-.0612.071-.0918.044-.0408.1054-.0544.041.0136.058.051.02.0374.02.0884 0 .1156-.1496.3128-.272.3536-.2788.3672-.153.2312-.153.4182l.01.034q.187-.0918.221-.1054.1394-.0578.238-.0578.1088 0 .1598.0748.051.0714.051.1836z"/><path d="m1028.4875 627.5966q0 .2312-.1122.493-.1224.289-.3026.3978-.037-.0442-.065-.0986-.024-.0544-.024-.1088 0-.0578.17-.3434.075-.1258.068-.221v-.0442q-.1258.0374-.4352.2278-.306.187-.6188.3808-.048 0-.088-.034-.037-.0374-.037-.0816 0-.0714.2278-.4794.068-.1224.2448-.425.054.0714.071.1598.017.085.017.204 0 .051 0 .0782.3128-.187.4896-.2822.1938-.1054.2652-.1054.048 0 .088.1088.044.1088.044.1734z"/><path d="m1031.4421 628.2562q0 .0612-.054.0952-.051.0306-.1156.0306-.058 0-.1462-.0136-.2006-.0306-.2584-.0306-.102 0-.4012.0238-.17.0136-.2448.0136-.2074 0-.2074-.2074 0-.1972.1292-.5644.071-.2074.2686-.68.1768-.425.2244-.5984.017-.0544.027-.0714.027-.0408.068-.0408.065 0 .1088.0952.044.0918.044.1666 0 .119-.1394.4012-.1394.2788-.272.5474-.1462.3196-.1462.4862 0 .085.071.119.051.0238.1496.0238.075 0 .2584-.017.1836-.0204.2448-.0204.153 0 .2516.0442.1394.0612.1394.1972z"/><path d="m1032.7069 627.6578q0 .3468-.2006.544-.2006.1972-.5542.1972-.1938 0-.2992-.0918-.1054-.0918-.1054-.2822 0-.2686.3502-.5406.3332-.2584.6154-.2584.1292 0 .17.1598.024.0918.024.272zm-.2074.0952q0-.0408-.01-.0782-.01-.0408-.027-.0918-.054.0374-.1802.1836-.065.0748-.1122.1088 0-.0646.014-.1054.027-.0578.044-.0986-.1496 0-.3128.1258-.1598.1258-.1598.272 0 .0986.1088.0986.2074 0 .4012-.102.2346-.1224.2346-.3128z"/><path d="m1034.1383 627.5864q0 .1088-.058.2312-.054.1224-.1394.204v-.0476q0-.0408.01-.1258.01-.085.01-.1258 0-.0578-.017-.085-.017-.0306-.071-.0306-.1598 0-.3978.2482-.2584.272-.5134.5406-.02 0-.041-.003-.051-.0136-.068-.017.01-.1224.085-.272.2006-.4046.2074-.4318.027-.1088.041-.1598.014-.051.037-.1054.027-.0578.061-.102.037-.0476.095-.0714l.034.408q.1462-.119.2244-.1836.1496-.119.2584-.119.1088 0 .1768.0714.068.0714.068.1768z"/><path d="m1035.8077 627.192q0 .1428-.3808.3774-.3672.2244-.5338.2244-.078 0-.1054-.0544-.024-.0544-.024-.153 0-.0646 0-.0918.2278 0 .4148-.068.187-.068.3264-.2244-.102-.0374-.2074-.0374-.2482 0-.527.1904-.306.2074-.306.442 0 .2244.306.3128.048.0136.5746.0952.3094.0476.3094.1666 0 .051-.1122.0816-.1122.034-.2856.034-.4352 0-.6868-.1326-.3332-.1768-.3332-.5678 0-.408.408-.6494.3468-.204.7888-.204.1326 0 .2414.0612.1326.0748.1326.1972z"/><path d="m1037.1609 626.5834q0 .0748-.1802.3128-.1802.238-.1802.3638 0 .0646.075.1292.17.1496.17.1836 0 .0442-.031.085-.027.0408-.071.0408-.037 0-.1054-.0408-.048-.0272-.1836-.1326-.051.0986-.078.1496-.095.1802-.1292.2618-.051.1564-.102.3128-.088.2108-.221.2108v-.0782q0-.2414.1564-.5712.031-.0612.17-.3162-.2686-.1462-.5916-.1462 0-.1258.051-.1836.054-.0612.1802-.0612.1156 0 .289.0408.085.0204.17.0408.065-.0204.1768-.221.2754-.4828.374-.5542.027.0442.044.0884.02.0442.02.085z"/><path d="m1038.4155 627.7972q0 .1666-.1258.374-.1428.2346-.2958.2346-.044 0-.075-.0476-.027-.051-.027-.0986 0-.0612.1292-.1904.1326-.1326.1326-.1802 0-.0306-.01-.0612-.01-.0306-.014-.0408-.255.0578-.5202.2924-.2618.2346-.3978.2652-.027-.0748-.027-.153 0-.0952.044-.2006.031-.0748.102-.1802.119-.1802.2516-.408.068-.119.2346-.4114.17-.2924.2482-.4148.041-.0612.071-.0918.044-.0408.1054-.0544.041.0136.058.051.02.0374.02.0884 0 .1156-.1496.3128-.272.3536-.2788.3672-.153.2312-.153.4182l.01.034q.187-.0918.221-.1054.1394-.0578.238-.0578.1088 0 .1598.0748.051.0714.051.1836z"/><path d="m1041.2069 626.6888q0 .1598-.17.4284-.1088.17-.357.4896-.2482.3162-.3094.4148.01.003.255.0816.2482.0748.2482.272-.102.017-.2006.0306l-.037-.003v-.0272q-.054-.0136-.088-.0136-.065 0-.204.0204-.1394.0204-.2108.0204-.092 0-.1496-.034-.058-.034-.058-.1224 0-.0714.2618-.4046.4896-.6222.493-.629.2652-.3604.2652-.4828 0-.0476-.034-.0714-.031-.0238-.1258-.0238-.065 0-.2686.1258-.099.0612-.1598.0612l-.058-.0102q-.02-.0136-.044-.051-.024-.0408-.024-.0646 0-.1428.2754-.2618.2346-.102.408-.102.1462 0 .2244.1088.068.0952.068.2482z"/><path d="m1043.2503 627.3008q0 .4114-.4454.7276-.408.289-.8398.289-.2142 0-.34-.1088-.1258-.1088-.1258-.3162 0-.4624.4046-.8024.3842-.323.8602-.323.2414 0 .3638.1428.1224.1428.1224.391zm-.2074.0782q0-.1564-.1768-.2346-.1326-.0578-.3162-.0578-.2686 0-.561.2618-.2924.2618-.2924.527 0 .1088.054.1564.058.0442.1734.0442.3332 0 .6936-.1836.425-.2176.425-.5134z"/><path d="m1044.8075 626.6888q0 .1598-.17.4284-.1088.17-.357.4896-.2482.3162-.3094.4148.01.003.255.0816.2482.0748.2482.272-.102.017-.2006.0306l-.037-.003v-.0272q-.054-.0136-.088-.0136-.065 0-.204.0204-.1394.0204-.2108.0204-.092 0-.1496-.034-.058-.034-.058-.1224 0-.0714.2618-.4046.4896-.6222.493-.629.2652-.3604.2652-.4828 0-.0476-.034-.0714-.031-.0238-.1258-.0238-.065 0-.2686.1258-.099.0612-.1598.0612l-.058-.0102q-.02-.0136-.044-.051-.024-.0408-.024-.0646 0-.1428.2754-.2618.2346-.102.408-.102.1462 0 .2244.1088.068.0952.068.2482z"/><path d="m1046.3715 626.6888q0 .1598-.17.4284-.1088.17-.357.4896-.2482.3162-.3094.4148.01.003.255.0816.2482.0748.2482.272-.102.017-.2006.0306l-.037-.003v-.0272q-.054-.0136-.088-.0136-.065 0-.204.0204-.1394.0204-.2108.0204-.092 0-.1496-.034-.058-.034-.058-.1224 0-.0714.2618-.4046.4896-.6222.493-.629.2652-.3604.2652-.4828 0-.0476-.034-.0714-.031-.0238-.1258-.0238-.065 0-.2686.1258-.099.0612-.1598.0612l-.058-.0102q-.02-.0136-.044-.051-.024-.0408-.024-.0646 0-.1428.2754-.2618.2346-.102.408-.102.1462 0 .2244.1088.068.0952.068.2482z"/></g><g fill="none" stroke="#f4f4f4"><rect height="7.65" opacity=".98" rx="2.170336" stroke-width="1.7" width="100.5614" x="1086.7482" y="619.565"/><rect height="7.65" opacity=".98" rx="2.170336" stroke-width="1.7" width="100.5614" x="286.57727" y="618.09503"/><path d="m246.04122 41.552734h982.90828 2.3606c2.894-.01326 3.9201 1.580864 3.9861 3.912049v11.587412c-.1515 7.8989 3.6624 9.642771 9.9356 9.726421 3.435-.04461 7.8143-.412891 7.8143 4.053964v561.35082m3.9874-590.630666h65.171c68.3697 0 123.4111 55.041325 123.4111 123.411046v343.79498c0 68.36972-55.0414 123.41104-123.4111 123.41104h-1170.91874c-68.36972 0-123.411044-55.04132-123.411044-123.41104v-343.79498c0-68.369721 55.041324-123.411046 123.411044-123.411046h65.439c4.64377.03859 7.68797 3.373658 7.65218 7.941813" opacity=".98" stroke-width="3.4"/><rect height="548.25714" opacity=".98" rx="4.584349" ry="4.584348" stroke-width="1.7" width="967.61346" x="253.63777" y="64.596146"/><g stroke-width="3.4"><rect height="509.07635" opacity=".98" rx="4.58435" width="904.76263" x="284.60422" y="84.049591"/><path d="m224.37694 70.682538v-21.187991m-.07171 582.688853v-561.35082c0-4.466855 4.37934-4.098573 7.81431-4.053964 6.27317-.08365 10.08713-1.827521 9.93556-9.726421v-11.587412c.0661-2.331185 1.09212-3.925307 3.98612-3.912049" opacity=".98"/><path d="m1252.9741 70.682538v-25.187991m0 0c0-2.997517 2.7988-3.939932 4.0594-3.941813" opacity=".98"/></g></g><g><g fill="none" stroke="#f4f4f4"><g><circle cx="132.79533" cy="191.64323" opacity=".98" r="44.999996" stroke-width="3.4"/><path d="m132.7928 226.79324v9.61052m34.97844-44.70795h10.07619m-80.244268 0h-9.773813m44.965571-34.99073-.002-9.8594m.002 9.8594c-9.14679 0-18.23732 3.76466-24.70508 10.23242-6.46775 6.46776-10.232419 15.55829-10.232418 24.70508-.000001 9.14679 3.764668 18.23732 10.232418 24.70508 6.46776 6.46775 15.55829 10.23242 24.70508 10.23242s18.23732-3.76467 24.70508-10.23242c6.46776-6.46776 10.23242-15.55829 10.23242-24.70508s-3.76466-18.23732-10.23242-24.70508-15.55829-10.23242-24.70508-10.23242z" opacity=".98" stroke-width="1.7"/></g><rect height="5.900722" opacity=".98" rx=".885837" stroke-width="3.4" width="28.054651" x="178.66801" y="97.283226"/><circle cx="86.667274" cy="355.45605" opacity=".98" r="21.5" stroke-width="3.4"/><circle cx="178.66727" cy="355.45605" opacity=".98" r="21.5" stroke-width="3.4"/><circle cx="132.66727" cy="311.45605" opacity=".98" r="21.5" stroke-width="3.4"/><circle cx="132.66727" cy="399.45605" opacity=".98" r="21.5" stroke-width="3.4"/></g><path d="m132.7928 304.93305 2.72606 4.72167 2.72606 4.72167h-5.45212-5.45211l2.72605-4.72167z" fill="#f4f4f4" opacity=".98" transform="matrix(1.2574092 0 0 1.184448 -34.045502 -57.213916)"/><path d="m132.7928 304.93305 2.72606 4.72167 2.72606 4.72167h-5.45212-5.45211l2.72605-4.72167z" fill="#f4f4f4" opacity=".98" transform="matrix(1.2574092 0 0 -1.184448 -34.18209 767.86155)"/><path d="m132.7928 304.93305 2.72606 4.72167 2.72606 4.72167h-5.45212-5.45211l2.72605-4.72167z" fill="#f4f4f4" opacity=".98" transform="matrix(0 1.2574092 1.184448 0 -281.84132 188.85173)"/><path d="m132.7928 304.93305 2.72606 4.72167 2.72606 4.72167h-5.45212-5.45211l2.72605-4.72167z" fill="#f4f4f4" opacity=".98" transform="matrix(0 1.2574092 -1.184448 0 547.6985 188.85173)"/><g fill="none" stroke="#f4f4f4"><rect height="33.056419" opacity=".98" rx="3.866065" stroke-width="3.4" width="31.584888" x="149.14182" y="450.14127"/><circle cx="165.03796" cy="466.84311" opacity=".98" r="11" stroke-width="1.7"/><g transform="translate(1209.8559 164.13081)"><circle cx="132.79533" cy="191.64323" opacity=".98" r="44.999996" stroke-width="3.4"/><path d="m132.7928 226.79324v9.61052m34.97844-44.70795h10.07619m-80.244268 0h-9.773813m44.965571-34.99073-.002-9.8594m.002 9.8594c-9.14679 0-18.23732 3.76466-24.70508 10.23242-6.46775 6.46776-10.232419 15.55829-10.232418 24.70508-.000001 9.14679 3.764668 18.23732 10.232418 24.70508 6.46776 6.46775 15.55829 10.23242 24.70508 10.23242s18.23732-3.76467 24.70508-10.23242c6.46776-6.46776 10.23242-15.55829 10.23242-24.70508s-3.76466-18.23732-10.23242-24.70508-15.55829-10.23242-24.70508-10.23242z" opacity=".98" stroke-width="1.7"/></g><g stroke-width="3.4"><path d="m1280.6309 86.207031c-.4908 0-.8868.394012-.8868.884766v10.191406h-10.1894c-.4908 0-.8867.395965-.8867.886719v4.128908c0 .49075.3959.88476.8867.88476h10.1894v10.19141c0 .49075.396.88672.8868.88672h4.1289c.4907 0 .8867-.39597.8867-.88672v-10.19141h10.1894c.4908 0 .8868-.39401.8868-.88476v-4.128908c0-.490754-.396-.886719-.8868-.886719h-10.1894v-10.191406c0-.490754-.396-.884766-.8867-.884766z" opacity=".98"/><g><circle cx="1295.995774" cy="191.32524" opacity=".98" r="21.5"/><circle cx="1387.99577" cy="191.32524" opacity=".98" r="21.5"/><circle cx="1341.99577" cy="147.32524" opacity=".98" r="21.5"/><circle cx="1341.99577" cy="235.32524" opacity=".98" r="21.5"/></g><circle cx="1309.9337" cy="466.97919" opacity=".98" r="24"/><path d="m374.88578 41.629954v-5.077536h48.89731v4.917269" opacity=".98"/><path d="m435.42678 41.537436v-4.985018h48.49009v4.917998" opacity=".98"/><path d="m35.7392 118.13723-7.4031-3.98208c7.8177-28.21793 54.1644-79.394587 106.8488-79.821868 20.76562-1.007624 31.55624-1.057494 47.4644-.495998v7.524476" opacity=".98"/><path d="m1436.3455 118.13723 7.4031-3.98208c-7.8177-28.21793-54.1644-79.394587-106.8488-79.821868l-47.4644-.495998v7.524476" opacity=".98"/></g></g></g></g></svg>