<svg height="353.97321" viewBox="0 0 1605.2115 778.74105" width="729.6416" xmlns="http://www.w3.org/2000/svg"><g fill="#f4f4f4" fill-opacity=".5" stroke-width="2.2"><path d="m874.6903 666.16581q0 .704-.17013 1.18507-.25227.71573-.8096.71573-.3696 0-.7744-.17013-.48693-.20534-.53387-.50454.16427 0 .3872.0587.51627.13493.64534.13493.49866 0 .75093-.49866.19947-.39894.19947-.95627 0-.39307-.25814-1.12053-.25226-.73334-.25226-1.0208 0-.088.0469-.1408.0528-.0587.1408-.0587.2288 0 .44587 1.056.18186.89173.18186 1.32z"/><path d="m876.94898 666.76421q0 .5984-.34614.93867-.34613.34026-.95627.34026-.3344 0-.51626-.1584-.18187-.1584-.18187-.48693 0-.46347.60427-.9328.57493-.44587 1.06187-.44587.22293 0 .29333.27574.0411.1584.0411.46933zm-.35787.16427q0-.0704-.0176-.13494-.0117-.0704-.0469-.1584-.0939.0645-.31094.3168-.11146.12907-.1936.18774 0-.11147.0235-.18187.0469-.0997.0763-.17013-.25814 0-.53974.21706-.27573.21707-.27573.46934 0 .17013.18773.17013.35787 0 .69227-.176.4048-.2112.4048-.53973z"/><path d="m879.36604 667.00474q0 .28747-.21706.64534-.2464.4048-.5104.4048-.0763 0-.12907-.0821-.0469-.088-.0469-.17013 0-.1056.22293-.32853.2288-.2288.2288-.31094 0-.0528-.0176-.1056-.0176-.0528-.0235-.0704-.44.0997-.8976.50454-.45173.4048-.6864.4576-.0469-.12907-.0469-.264 0-.16427.0763-.34614.0528-.12906.176-.31093.20533-.31093.43413-.704.11733-.20533.4048-.70987.29333-.50453.42827-.71573.0704-.1056.1232-.1584.0763-.0704.18186-.0939.0704.0235.0997.088.0352.0645.0352.15254 0 .19946-.25814.53973-.46933.61013-.48106.6336-.264.39893-.264.7216l.0117.0587q.32267-.1584.38133-.18187.24054-.0997.41067-.0997.18773 0 .27573.12906.088.1232.088.3168z"/><path d="m882.08818 666.65861q0 .39893-.1936.85067-.2112.49866-.52213.6864-.0645-.0763-.11147-.17014-.0411-.0939-.0411-.18773 0-.0997.29333-.59253.12907-.21707.11733-.38134l-.006-.0763q-.21707.0645-.75094.39306-.528.32267-1.06773.65707-.0821 0-.15253-.0587-.0645-.0645-.0645-.1408 0-.1232.39307-.8272.11733-.2112.4224-.73333.0939.1232.1232.27573.0293.14667.0293.352 0 .088 0 .13494.53974-.32267.8448-.48694.3344-.18186.4576-.18186.0821 0 .15254.18773.0763.18773.0763.2992z"/><path d="m887.18632 667.79674q0 .1056-.0939.16427-.088.0528-.19947.0528-.0997 0-.25226-.0235-.34614-.0528-.44587-.0528-.176 0-.69227.0411-.29333.0235-.4224.0235-.35786 0-.35786-.35787 0-.34027.22293-.97387.1232-.35786.46347-1.17333.30506-.73333.3872-1.03253.0293-.0939.0469-.1232.0469-.0704.11733-.0704.11147 0 .18774.16426.0763.1584.0763.28747 0 .20533-.24053.69227-.24053.48106-.46933.94453-.25227.55147-.25227.83893 0 .14667.1232.20534.088.0411.25813.0411.12907 0 .44587-.0293.3168-.0352.4224-.0352.264 0 .43413.0763.24054.1056.24054.34026z"/><path d="m889.36872 666.76421q0 .5984-.34613.93867-.34614.34026-.95627.34026-.3344 0-.51627-.1584-.18186-.1584-.18186-.48693 0-.46347.60426-.9328.57494-.44587 1.06187-.44587.22293 0 .29333.27574.0411.1584.0411.46933zm-.35787.16427q0-.0704-.0176-.13494-.0117-.0704-.0469-.1584-.0939.0645-.31093.3168-.11147.12907-.1936.18774 0-.11147.0235-.18187.0469-.0997.0763-.17013-.25813 0-.53973.21706-.27574.21707-.27574.46934 0 .17013.18774.17013.35786 0 .69226-.176.4048-.2112.4048-.53973z"/><path d="m891.83859 666.64101q0 .18773-.0997.39893-.0939.2112-.24053.352l-.006-.0821q0-.0704.0176-.21707.0176-.14666.0176-.21706 0-.0997-.0293-.14667-.0293-.0528-.1232-.0528-.27573 0-.6864.42827-.44587.46933-.88587.9328-.0352 0-.0704-.006-.088-.0235-.11733-.0293.0176-.2112.14667-.46934.34613-.69813.35786-.74506.0469-.18774.0704-.27574.0235-.088.0645-.18186.0469-.0997.1056-.176.0645-.0821.16426-.1232l.0587.704q.25227-.20534.3872-.3168.25813-.20534.44587-.20534.18773 0 .30506.1232.11734.1232.11734.30507z"/><path d="m894.71913 665.96048q0 .2464-.65707.6512-.6336.3872-.92106.3872-.13494 0-.18187-.0939-.0411-.0939-.0411-.264 0-.11147 0-.1584.39307 0 .71574-.11733.32266-.11734.5632-.3872-.176-.0645-.35787-.0645-.42827 0-.90934.32854-.528.35786-.528.76266 0 .3872.528.53974.0821.0235.99147.16426.53387.0821.53387.28747 0 .088-.1936.1408-.1936.0587-.4928.0587-.75093 0-1.18507-.2288-.57493-.30507-.57493-.97974 0-.704.704-1.12053.5984-.352 1.36107-.352.2288 0 .41653.1056.2288.12907.2288.34027z"/><path d="m897.05406 664.91034q0 .12907-.31093.53974-.31093.41066-.31093.62773 0 .11147.12906.22293.29334.25814.29334.3168 0 .0763-.0528.14667-.0469.0704-.1232.0704-.0645 0-.18187-.0704-.0821-.0469-.3168-.2288-.088.17013-.13493.25813-.16427.31094-.22294.45174-.088.26986-.176.53973-.15253.36373-.38133.36373l-.006-.13493q0-.41653.26987-.9856.0528-.1056.29333-.5456-.46346-.25227-1.0208-.25227 0-.21706.088-.3168.0939-.1056.31094-.1056.19946 0 .49866.0704.14667.0352.29334.0704.11146-.0352.30506-.38133.4752-.83307.64534-.95627.0469.0763.0763.15254.0352.0763.0352.14666z"/><path d="m899.21887 667.00474q0 .28747-.21707.64534-.2464.4048-.5104.4048-.0763 0-.12906-.0821-.0469-.088-.0469-.17013 0-.1056.22294-.32853.2288-.2288.2288-.31094 0-.0528-.0176-.1056-.0176-.0528-.0235-.0704-.44.0997-.8976.50454-.45173.4048-.6864.4576-.0469-.12907-.0469-.264 0-.16427.0763-.34614.0528-.12906.176-.31093.20534-.31093.43414-.704.11733-.20533.4048-.70987.29333-.50453.42826-.71573.0704-.1056.1232-.1584.0763-.0704.18187-.0939.0704.0235.0997.088.0352.0645.0352.15254 0 .19946-.25813.53973-.46933.61013-.48107.6336-.264.39893-.264.7216l.0117.0587q.32266-.1584.38133-.18187.24053-.0997.41067-.0997.18773 0 .27573.12906.088.1232.088.3168z"/><path d="m904.03541 665.09221q0 .27573-.29333.7392-.18773.29333-.616.8448-.42827.5456-.53387.71573.0176.006.44.1408.42827.12907.42827.46934-.176.0293-.34613.0528l-.0645-.006v-.0469q-.0939-.0235-.15253-.0235-.11147 0-.352.0352-.24053.0352-.36373.0352-.1584 0-.25814-.0587-.0997-.0587-.0997-.2112 0-.1232.45173-.69813.8448-1.0736.85067-1.08533.4576-.62187.4576-.83307 0-.0821-.0587-.1232-.0528-.0411-.21706-.0411-.11147 0-.46347.21707-.17013.1056-.27573.1056l-.0997-.0176q-.0352-.0235-.0763-.088-.0411-.0704-.0411-.11147 0-.2464.4752-.45173.4048-.176.704-.176.25227 0 .3872.18773.11733.16427.11733.42827z"/><path d="m907.56128 666.14821q0 .70987-.76854 1.25547-.704.49866-1.44906.49866-.3696 0-.58667-.18773-.21707-.18773-.21707-.5456 0-.79787.69814-1.38453.66293-.55734 1.48426-.55734.41654 0 .62774.2464.2112.2464.2112.67467zm-.35787.13493q0-.26986-.30506-.4048-.22881-.0997-.54561-.0997-.46346 0-.968.45173-.50453.45174-.50453.90934 0 .18773.0939.26986.0997.0763.2992.0763.57493 0 1.1968-.3168.73333-.37547.73333-.88587z"/><path d="m910.24822 665.09221q0 .27573-.29333.7392-.18774.29333-.616.8448-.42827.5456-.53387.71573.0176.006.44.1408.42827.12907.42827.46934-.176.0293-.34614.0528l-.0645-.006v-.0469q-.0939-.0235-.15253-.0235-.11147 0-.352.0352-.24054.0352-.36374.0352-.1584 0-.25813-.0587-.0997-.0587-.0997-.2112 0-.1232.45174-.69813.8448-1.0736.85067-1.08533.4576-.62187.4576-.83307 0-.0821-.0587-.1232-.0528-.0411-.21707-.0411-.11146 0-.46346.21707-.17014.1056-.27574.1056l-.0997-.0176q-.0352-.0235-.0763-.088-.0411-.0704-.0411-.11147 0-.2464.4752-.45173.4048-.176.704-.176.25226 0 .3872.18773.11733.16427.11733.42827z"/><path d="m912.94688 665.09221q0 .27573-.29333.7392-.18774.29333-.616.8448-.42827.5456-.53387.71573.0176.006.44.1408.42827.12907.42827.46934-.176.0293-.34614.0528l-.0645-.006v-.0469q-.0939-.0235-.15253-.0235-.11147 0-.352.0352-.24054.0352-.36374.0352-.1584 0-.25813-.0587-.0997-.0587-.0997-.2112 0-.1232.45173-.69813.8448-1.0736.85067-1.08533.4576-.62187.4576-.83307 0-.0821-.0587-.1232-.0528-.0411-.21707-.0411-.11146 0-.46346.21707-.17014.1056-.27574.1056l-.0997-.0176q-.0352-.0235-.0763-.088-.0411-.0704-.0411-.11147 0-.2464.4752-.45173.4048-.176.704-.176.25226 0 .3872.18773.11733.16427.11733.42827z"/></g><g transform="translate(-24.225225 -275.74103)"><g fill="none" stroke="#f4f4f4"><path d="m1592.7593 405.3457c0-17.66103-14.5176-32.17773-32.1797-32.17773h-733.74863-733.74861c-17.662133 0-32.179742 14.5167-32.179742 32.17773v259.76587 259.76587c0 17.66103 14.517609 32.17773 32.179742 32.17773h733.74861 733.74863c17.6621 0 32.1797-14.5167 32.1797-32.17773v-259.76587z" stroke-width="4.4"/><path d="m1583.2146 405.34592c0-12.53892-10.0951-22.63343-22.6349-22.63343h-733.74873-733.748766c-12.539702 0-22.63484 10.09451-22.63484 22.63343v259.76565 259.76565c0 12.53892 10.095138 22.63343 22.63484 22.63343h733.748766 733.74873c12.5398 0 22.6349-10.09451 22.6349-22.63343v-259.76565z" stroke-width="4.4"/><g stroke-width="4.39986" transform="matrix(1.0000624 0 0 1 9.99905 -14)"><rect height="50.986897" rx=".337834" ry=".337855" stroke-width="4.39986" width="958.15973" x="83.918167" y="418.9278"/><g stroke-width="2.19993"><rect height="50.897484" rx=".337834" ry=".337855" width="34.25573" x="83.918167" y="418.9278"/><rect height="50.897484" rx=".337834" ry=".337855" width="79.31221" x="373.79025" y="418.9278"/><rect height="50.897484" rx=".337834" ry=".337855" width="79.31221" x="697.79028" y="418.9278"/><rect height="50.897484" rx=".337834" ry=".337855" width="34.25573" x="1007.9182" y="418.9278"/></g></g><g stroke-width="4.4"><rect height="45.864437" rx=".337855" width="339.83954" x="656.93787" y="306.82214"/><path d="m224.54303 287.21527h97.37531c.18718 0 .33788.15068.33788.33786v7.23615c0 .18717-.1507.33785-.33788.33785h-97.37531c-.18718 0-.33788-.15068-.33788-.33785v-7.23615c0-.18718.1507-.33786.33788-.33786zm97.71319-9.75028v3.32429c0 .18717-.1507.33785-.33788.33785h-97.37531c-.18718 0-.33788-.15068-.33788-.33785v-3.32429m.33788 25.75028h97.37531c.18718 0 .33788.15068.33788.33786v7.23615c0 .18717-.1507.33785-.33788.33785h-97.37531c-.18718 0-.33788-.15068-.33788-.33785v-7.23615c0-.18718.1507-.33786.33788-.33786zm0 14h97.37531c.18718 0 .33788.15068.33788.33786v7.23615c0 .18717-.1507.33785-.33788.33785h-97.37531c-.18718 0-.33788-.15068-.33788-.33785v-7.23615c0-.18718.1507-.33786.33788-.33786zm97.65886-41.45413.009 49.02813c.00004.18718-.15069.33786-.33787.33786h-97.33036c-.18718 0-.33783-.15068-.33788-.33786l-.0129-49.02813m.012.97989h-162.710336c-20.092649 0-36.268319 16.17466-36.268319 36.26606v352.10448 352.10443c0 20.0914 16.17567 36.2661 36.268319 36.2661h765.337426 765.33743c20.0926 0 36.2683-16.1746 36.2683-36.2661v-352.10443-352.10448c0-20.0914-16.1757-36.26606-36.2683-36.26606h-157.6415m-109.967 0h-497.72893-504.62724m1106.91517 10.47424h-97.3753c-.1872 0-.3379.15068-.3379.33786v7.23615c0 .18717.1507.33785.3379.33785h97.3753c.1872 0 .3379-.15068.3379-.33785v-7.23615c0-.18718-.1507-.33786-.3379-.33786zm-97.7132-9.75028v3.32429c0 .18717.1507.33785.3379.33785h97.3753c.1872 0 .3379-.15068.3379-.33785v-3.32429m-.3379 25.75028h-97.3753c-.1872 0-.3379.15068-.3379.33786v7.23615c0 .18717.1507.33785.3379.33785h97.3753c.1872 0 .3379-.15068.3379-.33785v-7.23615c0-.18718-.1507-.33786-.3379-.33786zm0 14h-97.3753c-.1872 0-.3379.15068-.3379.33786v7.23615c0 .18717.1507.33785.3379.33785h97.3753c.1872 0 .3379-.15068.3379-.33785v-7.23615c0-.18718-.1507-.33786-.3379-.33786zm-97.6588-41.45413-.01 49.02813c-.0001.18718.1506.33786.3378.33786h97.3304c.1872 0 .3378-.15068.3379-.33786l.013-49.02813m-.012.97989h162.7103c20.0926 0 36.2683 16.17466 36.2683 36.26606v352.10448 352.10443c0 20.0914-16.1757 36.2661-36.2683 36.2661h-765.33651-765.337402c-20.092654 0-36.268363-16.1746-36.268363-36.2661v-352.10443-352.10448c0-20.0914 16.175709-36.26606 36.268363-36.26606h157.606972m109.26355 0h498.46688 504.62721"/></g></g><g><g fill="none" stroke="#f4f4f4" stroke-width="4.39986"><g transform="matrix(1.0000624 0 0 1 -38.003944 76)"><rect height="66" rx="5.669887" ry="5.670241" width="66" x="1294.5272" y="704.69348"/><rect height="66" rx="5.669887" ry="5.670241" width="66" x="1218.5272" y="704.69348"/><rect height="66" rx="5.669887" ry="5.670241" width="66" x="610.52716" y="704.69348"/><rect height="66" rx="5.669887" ry="5.670241" width="66" x="534.52716" y="704.69348"/><rect height="66" rx="5.669887" ry="5.670241" width="66" x="458.52716" y="704.69348"/><rect height="66" rx="5.669887" ry="5.670241" width="66" x="382.52716" y="704.69348"/><rect height="66" rx="5.669887" ry="5.670241" width="66" x="306.52716" y="704.69348"/><rect height="66" rx="5.669887" ry="5.670241" width="75" x="220.52716" y="704.69348"/><rect height="66" rx="5.669887" ry="5.670241" width="66" x="144.52716" y="704.69348"/><rect height="66" rx="5.669887" ry="5.670241" width="66" x="1522.5272" y="704.69348"/><rect height="66" rx="5.669887" ry="5.670241" width="66" x="1446.5272" y="704.69348"/><rect height="66" rx="5.669887" ry="5.670241" width="66" x="1370.5272" y="704.69348"/><rect height="66" rx="5.669887" ry="5.670241" width="66" x="1142.5272" y="704.69348"/><rect height="66" rx="5.669887" ry="5.670241" width="66" x="1066.5272" y="704.69348"/><path d="m974.85692 780.69348c3.14131 0 5.67024 2.52893 5.67024 5.67024v54.65952c0 3.14131-2.52893 5.67024-5.67024 5.67024h-293.32976-293.32976c-3.14131 0-5.67024-2.52893-5.67024-5.67024v-54.65952c0-3.14131 2.52893-5.67024 5.67024-5.67024h293.32976z"/><rect height="66" rx="5.669887" ry="5.670241" width="66" x="990.52716" y="704.69348"/><rect height="66" rx="5.669887" ry="5.670241" width="66" x="914.52716" y="704.69348"/><rect height="66" rx="5.669887" ry="5.670241" width="66" x="838.52716" y="704.69348"/><rect height="66" rx="5.669887" ry="5.670241" width="66" x="762.52716" y="704.69348"/><rect height="66" rx="5.669887" ry="5.670241" width="66" x="686.52716" y="704.69348"/></g><g transform="matrix(1.0000624 0 0 1 -.001574 0)"><rect height="66" rx="5.669887" ry="5.670241" width="66" x="762.52716" y="704.69348"/><rect height="66" rx="5.669887" ry="5.670241" width="66" x="686.52716" y="704.69348"/><rect height="66" rx="5.669887" ry="5.670241" width="66" x="610.52716" y="704.69348"/><rect height="66" rx="5.669887" ry="5.670241" width="66" x="534.52716" y="704.69348"/><rect height="66" rx="5.669887" ry="5.670241" width="66" x="458.52716" y="704.69348"/><rect height="66" rx="5.669887" ry="5.670241" width="66" x="382.52716" y="704.69348"/><rect height="66" rx="5.669887" ry="5.670241" width="66" x="306.52716" y="704.69348"/><rect height="66" rx="5.669887" ry="5.670241" width="66" x="230.52716" y="704.69348"/><rect height="66" rx="5.669887" ry="5.670241" width="114" x="106.52716" y="704.69348"/><rect height="66" rx="5.669887" ry="5.670241" width="66" x="990.52716" y="704.69348"/><rect height="66" rx="5.669887" ry="5.670241" width="66" x="914.52716" y="704.69348"/><rect height="66" rx="5.669887" ry="5.670241" width="66" x="838.52716" y="704.69348"/><path d="m1074.2225 704.745 38.6377.10637c9.0249.006 11.6537-2.66982 11.6737-11.11748l-.01-57.85314c-.028-4.32448 2.6008-7.00086 6.3952-7.00086h33.6832c3.2659 0 5.8952 2.67638 5.8952 6.00086v65.96407 63.84746c0 3.32448-2.6293 6.00086-5.8952 6.00086h-92.1802c-3.2661 0-5.8954 3.32362-5.8954-.00086v-58.89644c0-4.37431 2.6291-7.05084 7.6957-7.05084z"/><rect height="66" rx="5.669887" ry="5.670241" width="66" x="1256.5272" y="704.69348"/><rect height="66" rx="5.669887" ry="5.670241" width="66" x="1180.5272" y="704.69348"/><rect height="66" rx="5.669887" ry="5.670241" width="66" x="1484.5272" y="704.69348"/><rect height="66" rx="5.669887" ry="5.670241" width="66" x="1408.5272" y="704.69348"/><rect height="66" rx="5.669887" ry="5.670241" width="66" x="1332.5272" y="704.69348"/></g><g transform="matrix(1.0000624 0 0 1 -18.002696 -76)"><rect height="66" rx="5.669887" ry="5.670241" width="66" x="762.52716" y="704.69348"/><rect height="66" rx="5.669887" ry="5.670241" width="66" x="686.52716" y="704.69348"/><rect height="66" rx="5.669887" ry="5.670241" width="66" x="610.52716" y="704.69348"/><rect height="66" rx="5.669887" ry="5.670241" width="66" x="534.52716" y="704.69348"/><rect height="66" rx="5.669887" ry="5.670241" width="66" x="458.52716" y="704.69348"/><rect height="66" rx="5.669887" ry="5.670241" width="66" x="382.52716" y="704.69348"/><rect height="66" rx="5.669887" ry="5.670241" width="66" x="306.52716" y="704.69348"/><rect height="66" rx="5.669887" ry="5.670241" width="98" x="200.52716" y="704.69348"/><rect height="66" rx="5.669887" ry="5.670241" width="66" x="124.52716" y="704.69348"/><rect height="66" rx="5.669887" ry="5.670241" width="66" x="990.52716" y="704.69348"/><rect height="66" rx="5.669887" ry="5.670241" width="66" x="914.52716" y="704.69348"/><rect height="66" rx="5.669887" ry="5.670241" width="66" x="838.52716" y="704.69348"/><rect height="66" rx="5.669887" ry="5.670241" width="66" x="1066.5272" y="704.69348"/><rect height="66" rx="5.669887" ry="5.670241" width="66" x="1350.5272" y="704.69348"/><rect height="66" rx="5.669887" ry="5.670241" width="66" x="1274.5272" y="704.69348"/><rect height="66" rx="5.669887" ry="5.670241" width="66" x="1198.5272" y="704.69348"/><rect height="66" rx="5.669887" ry="5.670241" width="66" x="1426.5272" y="704.69348"/><rect height="66" rx="5.669887" ry="5.670241" width="66" x="1502.5272" y="704.69348"/></g><g transform="matrix(1.0000624 0 0 1 -50.004692 -152)"><rect height="66" rx="5.669887" ry="5.670241" width="66" x="762.52716" y="704.69348"/><rect height="66" rx="5.669887" ry="5.670241" width="66" x="686.52716" y="704.69348"/><rect height="66" rx="5.669887" ry="5.670241" width="66" x="610.52716" y="704.69348"/><rect height="66" rx="5.669887" ry="5.670241" width="66" x="534.52716" y="704.69348"/><rect height="66" rx="5.669887" ry="5.670241" width="66" x="458.52716" y="704.69348"/><rect height="66" rx="5.669887" ry="5.670241" width="66" x="382.52716" y="704.69348"/><rect height="66" rx="5.669887" ry="5.670241" width="66" x="306.52716" y="704.69348"/><rect height="66" rx="5.669887" ry="5.670241" width="66" x="230.52716" y="704.69348"/><rect height="66" rx="5.669887" ry="5.670241" width="66" x="154.52716" y="704.69348"/><rect height="66" rx="5.669887" ry="5.670241" width="66" x="990.52716" y="704.69348"/><rect height="66" rx="5.669887" ry="5.670241" width="66" x="914.52716" y="704.69348"/><rect height="66" rx="5.669887" ry="5.670241" width="66" x="838.52716" y="704.69348"/><rect height="66" rx="5.669887" ry="5.670241" width="66" x="1066.5272" y="704.69348"/><rect height="66" rx="5.669887" ry="5.670241" width="77.999985" x="1142.5272" y="704.69348"/><rect height="66" rx="5.669887" ry="5.670241" width="66" x="1382.5272" y="704.69348"/><rect height="66" rx="5.669887" ry="5.670241" width="66" x="1306.5272" y="704.69348"/><rect height="66" rx="5.669887" ry="5.670241" width="66" x="1230.5272" y="704.69348"/><rect height="66" rx="5.669887" ry="5.670241" width="66" x="1458.5272" y="704.69348"/><rect height="66" rx="5.669887" ry="5.670241" width="66" x="1534.5272" y="704.69348"/></g><g transform="matrix(1.0000624 0 0 1 -50.004692 -228)"><rect height="66" rx="5.669887" ry="5.670241" width="66" x="762.52716" y="704.69348"/><rect height="66" rx="5.669887" ry="5.670241" width="66" x="686.52716" y="704.69348"/><rect height="66" rx="5.669887" ry="5.670241" width="66" x="610.52716" y="704.69348"/><rect height="66" rx="5.669887" ry="5.670241" width="66" x="534.52716" y="704.69348"/><rect height="66" rx="5.669887" ry="5.670241" width="66" x="382.52716" y="704.69348"/><rect height="66" rx="5.669887" ry="5.670241" width="66" x="306.52716" y="704.69348"/><rect height="66" rx="5.669887" ry="5.670241" width="66" x="230.52716" y="704.69348"/><rect height="66" rx="5.669887" ry="5.670241" width="66" x="154.52716" y="704.69348"/><rect height="66" rx="5.669887" ry="5.670241" width="66" x="990.52716" y="704.69348"/><rect height="66" rx="5.669887" ry="5.670241" width="66" x="914.52716" y="704.69348"/><rect height="66" rx="5.669887" ry="5.670241" width="66" x="1066.5272" y="704.69348"/><rect height="66" rx="5.669887" ry="5.670241" width="66" x="1142.5272" y="704.69348"/><rect height="66" rx="5.669887" ry="5.670241" width="102.5" x="1420.5272" y="704.69348"/><rect height="66" rx="5.669887" ry="5.670241" width="66" x="1534.5272" y="704.69348"/><rect height="66" rx="5.669887" ry="5.670241" width="102.5" x="1306.5272" y="704.69348"/></g></g><rect fill="#f4f4f4" height="5.877358" rx=".337855" width="23.110218" x="115.34531" y="793.68683"/><rect fill="#f4f4f4" height="5.877358" rx=".337855" width="23.110218" x="1266.1287" y="639.65179"/></g></g></svg>