<svg height="363.08429" viewBox="0 0 266.71151 167.01877" width="579.80762" xmlns="http://www.w3.org/2000/svg"><g><g fill="#f4f4f4" fill-opacity=".5" stroke-width=".46" transform="translate(-.062879 -1.958503)"><path d="m105.49836 37.883063q0 .1104-.0267.18584-.0396.11224-.12696.11224-.058 0-.12144-.02668-.0764-.0322-.0837-.07912.0258 0 .0607.0092.081.02116.1012.02116.0782 0 .11776-.0782.0313-.06256.0313-.14996 0-.06164-.0405-.17572-.0396-.115-.0396-.16008 0-.0138.007-.02208.008-.0092.0221-.0092.0359 0 .0699.1656.0285.13984.0285.207z"/><path d="m105.85256 37.976903q0 .09384-.0543.1472-.0543.05336-.14996.05336-.0524 0-.081-.02484-.0285-.02484-.0285-.07636 0-.07268.0948-.14628.0902-.06992.16652-.06992.035 0 .046.04324.006.02484.006.0736zm-.0561.02576q0-.01104-.003-.02116-.002-.01104-.007-.02484-.0147.01012-.0488.04968-.0175.02024-.0304.02944 0-.01748.004-.02852.007-.01564.012-.02668-.0405 0-.0846.03404-.0432.03404-.0432.0736 0 .02668.0294.02668.0561 0 .10856-.0276.0635-.03312.0635-.08464z"/><path d="m106.2316 38.014623q0 .04508-.034.1012-.0386.06348-.08.06348-.012 0-.0202-.01288-.007-.0138-.007-.02668 0-.01656.035-.05152.0359-.03588.0359-.04876 0-.0083-.003-.01656-.003-.0083-.004-.01104-.069.01564-.14076.07912-.0708.06348-.10764.07176-.007-.02024-.007-.0414 0-.02576.012-.05428.008-.02024.0276-.04876.0322-.04876.0681-.1104.0184-.0322.0635-.11132.046-.07912.0672-.11224.011-.01656.0193-.02484.012-.01104.0285-.01472.011.0037.0156.0138.006.01012.006.02392 0 .03128-.0405.08464-.0736.09568-.0754.09936-.0414.06256-.0414.11316l.002.0092q.0506-.02484.0598-.02852.0377-.01564.0644-.01564.0294 0 .0432.02024.0138.01932.0138.04968z"/><path d="m106.65848 37.960343q0 .06256-.0304.1334-.0331.0782-.0819.10764-.0101-.01196-.0175-.02668-.006-.01472-.006-.02944 0-.01564.046-.09292.0202-.03404.0184-.0598l-.00092-.01196q-.034.01012-.11776.06164-.0828.0506-.16744.10304-.0129 0-.0239-.0092-.0101-.01012-.0101-.02208 0-.01932.0616-.12972.0184-.03312.0662-.115.0147.01932.0193.04324.005.023.005.0552 0 .0138 0 .02116.0846-.0506.13248-.07636.0524-.02852.0718-.02852.0129 0 .0239.02944.012.02944.012.04692z"/><path d="m107.45796 38.138823q0 .01656-.0147.02576-.0138.0083-.0313.0083-.0156 0-.0396-.0037-.0543-.0083-.0699-.0083-.0276 0-.10856.0064-.046.0037-.0662.0037-.0561 0-.0561-.05612 0-.05336.035-.15272.0193-.05612.0727-.184.0478-.115.0607-.16192.005-.01472.007-.01932.007-.01104.0184-.01104.0175 0 .0294.02576.012.02484.012.04508 0 .0322-.0377.10856-.0377.07544-.0736.14812-.0396.08648-.0396.13156 0 .023.0193.0322.0138.0064.0405.0064.0202 0 .0699-.0046.0497-.0055.0662-.0055.0414 0 .0681.01196.0377.01656.0377.05336z"/><path d="m107.8002 37.976903q0 .09384-.0543.1472-.0543.05336-.14996.05336-.0524 0-.081-.02484-.0285-.02484-.0285-.07636 0-.07268.0948-.14628.0902-.06992.16652-.06992.035 0 .046.04324.006.02484.006.0736zm-.0561.02576q0-.01104-.003-.02116-.002-.01104-.007-.02484-.0147.01012-.0488.04968-.0175.02024-.0304.02944 0-.01748.004-.02852.007-.01564.012-.02668-.0405 0-.0846.03404-.0432.03404-.0432.0736 0 .02668.0294.02668.0561 0 .10856-.0276.0635-.03312.0635-.08464z"/><path d="m108.18752 37.957583q0 .02944-.0156.06256-.0147.03312-.0377.0552l-.00092-.01288q0-.01104.003-.03404.003-.023.003-.03404 0-.01564-.005-.023-.005-.0083-.0193-.0083-.0432 0-.10764.06716-.0699.0736-.13892.14628-.006 0-.011-.00092-.0138-.0037-.0184-.0046.003-.03312.023-.0736.0543-.10948.0561-.11684.007-.02944.011-.04324.004-.0138.0101-.02852.007-.01564.0166-.0276.0101-.01288.0258-.01932l.009.1104q.0396-.0322.0607-.04968.0405-.0322.0699-.0322.0294 0 .0478.01932.0184.01932.0184.04784z"/><path d="m108.63924 37.850863q0 .03864-.10304.10212-.0994.06072-.14444.06072-.0212 0-.0285-.01472-.006-.01472-.006-.0414 0-.01748 0-.02484.0616 0 .11224-.0184.0506-.0184.0883-.06072-.0276-.01012-.0561-.01012-.0672 0-.1426.05152-.0828.05612-.0828.1196 0 .06072.0828.08464.0129.0037.15548.02576.0837.01288.0837.04508 0 .0138-.0304.02208-.0304.0092-.0773.0092-.11776 0-.18584-.03588-.0902-.04784-.0902-.15364 0-.1104.1104-.17572.0938-.0552.21344-.0552.0359 0 .0653.01656.0359.02024.0359.05336z"/><path d="m109.0054 37.686183q0 .02024-.0488.08464-.0488.0644-.0488.09844 0 .01748.0202.03496.046.04048.046.04968 0 .01196-.008.023-.007.01104-.0193.01104-.0101 0-.0285-.01104-.0129-.0074-.0497-.03588-.0138.02668-.0212.04048-.0258.04876-.035.07084-.0138.04232-.0276.08464-.0239.05704-.0598.05704l-.00092-.02116q0-.06532.0423-.15456.008-.01656.046-.08556-.0727-.03956-.16008-.03956 0-.03404.0138-.04968.0147-.01656.0488-.01656.0313 0 .0782.01104.023.0055.046.01104.0175-.0055.0478-.0598.0745-.13064.1012-.14996.007.01196.012.02392.006.01196.006.023z"/><path d="m109.34489 38.014623q0 .04508-.034.1012-.0386.06348-.08.06348-.012 0-.0202-.01288-.007-.0138-.007-.02668 0-.01656.035-.05152.0359-.03588.0359-.04876 0-.0083-.003-.01656-.003-.0083-.004-.01104-.069.01564-.14076.07912-.0708.06348-.10764.07176-.007-.02024-.007-.0414 0-.02576.012-.05428.008-.02024.0276-.04876.0322-.04876.0681-.1104.0184-.0322.0635-.11132.046-.07912.0672-.11224.011-.01656.0193-.02484.012-.01104.0285-.01472.011.0037.0156.0138.006.01012.006.02392 0 .03128-.0405.08464-.0736.09568-.0754.09936-.0414.06256-.0414.11316l.002.0092q.0506-.02484.0598-.02852.0377-.01564.0644-.01564.0294 0 .0432.02024.0138.01932.0138.04968z"/><path d="m110.10021 37.714703q0 .04324-.046.11592-.0294.046-.0966.13248-.0672.08556-.0837.11224.003.00092.069.02208.0672.02024.0672.0736-.0276.0046-.0543.0083l-.0101-.00092v-.0074q-.0147-.0037-.0239-.0037-.0175 0-.0552.0055-.0377.0055-.057.0055-.0248 0-.0405-.0092-.0156-.0092-.0156-.03312 0-.01932.0708-.10948.13248-.16836.1334-.1702.0718-.09752.0718-.13064 0-.01288-.009-.01932-.008-.0064-.034-.0064-.0175 0-.0727.03404-.0267.01656-.0432.01656l-.0156-.0028q-.006-.0037-.012-.0138-.006-.01104-.006-.01748 0-.03864.0745-.07084.0635-.0276.1104-.0276.0396 0 .0607.02944.0184.02576.0184.06716z"/><path d="m110.65313 37.880303q0 .11132-.12052.19688-.1104.0782-.22724.0782-.058 0-.092-.02944-.034-.02944-.034-.08556 0-.12512.10948-.21712.10396-.0874.23276-.0874.0653 0 .0984.03864.0331.03864.0331.1058zm-.0561.02116q0-.04232-.0478-.06348-.0359-.01564-.0856-.01564-.0727 0-.1518.07084-.0791.07084-.0791.1426 0 .02944.0147.04232.0156.01196.0469.01196.0902 0 .18768-.04968.115-.05888.115-.13892z"/><path d="m111.07449 37.714703q0 .04324-.046.11592-.0294.046-.0966.13248-.0672.08556-.0837.11224.003.00092.069.02208.0672.02024.0672.0736-.0276.0046-.0543.0083l-.0101-.00092v-.0074q-.0147-.0037-.0239-.0037-.0175 0-.0552.0055-.0377.0055-.057.0055-.0248 0-.0405-.0092-.0156-.0092-.0156-.03312 0-.01932.0708-.10948.13248-.16836.1334-.1702.0718-.09752.0718-.13064 0-.01288-.009-.01932-.008-.0064-.034-.0064-.0175 0-.0727.03404-.0267.01656-.0432.01656l-.0156-.0028q-.006-.0037-.012-.0138-.006-.01104-.006-.01748 0-.03864.0745-.07084.0635-.0276.1104-.0276.0396 0 .0607.02944.0184.02576.0184.06716z"/><path d="m111.49769 37.714703q0 .04324-.046.11592-.0294.046-.0966.13248-.0672.08556-.0837.11224.003.00092.069.02208.0672.02024.0672.0736-.0276.0046-.0543.0083l-.0101-.00092v-.0074q-.0147-.0037-.0239-.0037-.0175 0-.0552.0055-.0377.0055-.057.0055-.0248 0-.0405-.0092-.0156-.0092-.0156-.03312 0-.01932.0708-.10948.13248-.16836.1334-.1702.0718-.09752.0718-.13064 0-.01288-.009-.01932-.008-.0064-.034-.0064-.0175 0-.0727.03404-.0267.01656-.0432.01656l-.0156-.0028q-.006-.0037-.012-.0138-.006-.01104-.006-.01748 0-.03864.0745-.07084.0635-.0276.1104-.0276.0396 0 .0607.02944.0184.02576.0184.06716z"/></g><g fill="none" stroke="#f4f4f4"><g transform="translate(-.062879 -1.958503)"><path d="m133.21563 2.4585028h-125.219149c-2.41072 0-4.14424 1.9496832-4.35148 4.3514781-4.47419 51.8542931-3.08352 104.4214191 1 157.3158191.18556 2.40357 1.94076 4.35148 4.35148 4.35148h124.226889m-.008-166.0187772h125.21915c2.41072 0 4.14424 1.9496832 4.35148 4.3514781 4.47419 51.8542931 3.08352 104.4214091-1 157.3158091-.18556 2.40357-1.94076 4.35148-4.35148 4.35148h-124.22663" opacity=".98" stroke-width=".92"/><path d="m4.2220977 155.85231h258.0492823" opacity=".98" stroke-width=".23"/><path d="m.95586385 59.015119h264.40375615" opacity=".98" stroke-width=".23"/><path d="m571.77821 18.631723-354.82439-.000001c-1.39755 0-2.52265-1.125102-2.52265-2.522648v-2.670459c0-1.397547 1.1251-2.522648 2.52265-2.522648h354.21304m1.78561 22.933144h-355.99865c-1.39755 0-2.52265-1.125102-2.52265-2.52265v-2.670458c0-1.397546 1.1251-2.522648 2.52265-2.522648h355.41662m1.59253 23.106113h-357.00915c-1.39755 0-2.52265-1.125102-2.52265-2.52265v-2.670459c0-1.397546 1.1251-2.522648 2.52265-2.522648h356.50329m2.07001 38.150537-358.5733.000002c-1.39755 0-2.52265-1.125102-2.52265-2.52265v-2.670458c0-1.397546 1.1251-2.522648 2.52265-2.522648h358.24127m-.40113-7.674602-357.84014.000002c-1.39755 0-2.52265-1.1251-2.52265-2.522648v-2.670459c0-1.397545 1.1251-2.522648 2.52265-2.522648h357.43781m-566.6337031-45.652173 28.3007141.000001c1.397545 0 2.522647 1.125101 2.522647 2.522648v2.670459c0 1.397546-1.125102 2.522648-2.522647 2.522648h-28.9120411m-.5943648 7.501634 29.5064029-.000001c1.397546 0 2.522648 1.125102 2.522648 2.522648v2.670458c0 1.397548-1.125102 2.52265-2.522648 2.52265h-30.0884449m-.5016013 7.6746h30.5900462c1.397548 0 2.522648 1.125102 2.522648 2.522648v2.670459c0 1.397548-1.1251 2.52265-2.522648 2.52265h-31.0959081m-.429511 7.328671h31.5254191c1.397548 0 2.52265 1.125103 2.52265 2.522648v2.670459c0 1.397548-1.125102 2.522648-2.52265 2.522648h-31.9297156m-.3999556 7.6746h32.4103712c1.397548 0 2.522648 1.125102 2.522648 2.522648v2.670458c0 1.397548-1.1251 2.52265-2.522648 2.52265h-32.7424041" stroke-linecap="square" stroke-linejoin="round" stroke-width=".993002" transform="matrix(.46 0 0 .46 .062879 1.958503)"/><rect height="23.60401" opacity=".98" rx=".249916" stroke-width=".46" width="51.034172" x="36.411484" y="16.885702"/><path d="m36.366754 28.701777h51.183949" opacity=".98" stroke-width=".23"/><rect height="3.145271" opacity=".98" rx=".249916" stroke-width=".92" width="8.443077" x="20.440849" y="36.982841"/></g><g stroke-width=".92"><rect height="10.779756" opacity=".98" rx="1.710371" width="56.423714" x="93.449809" y="132.771277"/><g><rect height="10.779756" opacity=".98" rx="1.710371" width="10.756737" x="146.873527" y="117.771277"/><rect height="10.779756" opacity=".98" rx="1.710371" width="10.756737" x="131.873527" y="117.771277"/><rect height="10.779756" opacity=".98" rx="1.710371" width="10.756737" x="116.873527" y="117.771277"/><rect height="10.779756" opacity=".98" rx="1.710371" width="10.756737" x="101.873524" y="117.771277"/><rect height="10.779756" opacity=".98" rx="1.710371" width="10.756737" x="86.873524" y="117.771277"/><rect height="10.779756" opacity=".98" rx="1.710371" width="10.756737" x="71.873524" y="117.771277"/><rect height="10.779756" opacity=".98" rx="1.710371" width="10.756737" x="56.873524" y="117.771277"/><rect height="10.779756" opacity=".98" rx="1.710371" width="25.756739" x="19.322428" y="117.771277"/><rect height="10.779756" opacity=".98" rx="1.710371" width="25.756727" x="191.873547" y="117.771277"/><rect height="10.779756" opacity=".98" rx="1.710371" width="10.756737" x="176.873527" y="117.771277"/><rect height="10.779756" opacity=".98" rx="1.710371" width="10.756737" x="161.873527" y="117.771277"/></g><g><rect height="10.779756" opacity=".98" rx="1.710371" width="10.756737" x="139.322431" y="102.771277"/><rect height="10.779756" opacity=".98" rx="1.710371" width="10.756737" x="124.322431" y="102.771277"/><rect height="10.779756" opacity=".98" rx="1.710371" width="10.756737" x="109.322431" y="102.771277"/><rect height="10.779756" opacity=".98" rx="1.710371" width="10.756737" x="94.322428" y="102.771277"/><rect height="10.779756" opacity=".98" rx="1.710371" width="10.756737" x="79.322428" y="102.771277"/><rect height="10.779756" opacity=".98" rx="1.710371" width="10.756737" x="64.322428" y="102.771277"/><rect height="10.779756" opacity=".98" rx="1.710371" width="10.756737" x="49.322428" y="102.771277"/><rect height="10.779756" opacity=".98" rx="1.710371" width="10.756737" x="34.322428" y="102.771277"/><rect height="10.779756" opacity=".98" rx="1.710371" width="10.756737" x="19.322428" y="102.771277"/><rect height="10.779756" opacity=".98" rx="1.710371" width="10.756737" x="184.322431" y="102.771277"/><rect height="10.779756" opacity=".98" rx="1.710371" width="10.756737" x="169.322431" y="102.771277"/><rect height="10.779756" opacity=".98" rx="1.710371" width="10.756737" x="154.322431" y="102.771277"/><rect height="10.779756" opacity=".98" rx="1.710371" width="18.307831" x="199.322431" y="102.771277"/></g><g><rect height="10.779756" opacity=".98" rx="1.710371" width="10.756737" x="146.814388" y="87.771277"/><rect height="10.779756" opacity=".98" rx="1.710371" width="10.756737" x="131.814388" y="87.771277"/><rect height="10.779756" opacity=".98" rx="1.710371" width="10.756737" x="116.814388" y="87.771277"/><rect height="10.779756" opacity=".98" rx="1.710371" width="10.756737" x="101.814385" y="87.771277"/><rect height="10.779756" opacity=".98" rx="1.710371" width="10.756737" x="86.814385" y="87.771277"/><rect height="10.779756" opacity=".98" rx="1.710371" width="10.756737" x="71.814385" y="87.771277"/><rect height="10.779756" opacity=".98" rx="1.710371" width="10.756737" x="56.814385" y="87.771277"/><rect height="10.779756" opacity=".98" rx="1.710371" width="10.756737" x="41.814385" y="87.771277"/><rect height="10.779756" opacity=".98" rx="1.710371" width="10.756737" x="19.322429" y="87.771277"/><rect height="10.779756" opacity=".98" rx="1.710371" width="10.756737" x="191.814388" y="87.771277"/><rect height="10.779756" opacity=".98" rx="1.710371" width="10.756737" x="176.814388" y="87.771277"/><rect height="10.779756" opacity=".98" rx="1.710371" width="10.756737" x="161.814388" y="87.771277"/><rect height="10.779756" opacity=".98" rx="1.710371" width="10.756737" x="206.814388" y="87.771277"/></g><g><rect height="10.779756" opacity=".98" rx="1.710371" width="10.756737" x="154.268353" y="72.771277"/><rect height="10.779756" opacity=".98" rx="1.710371" width="10.756737" x="139.268353" y="72.771277"/><rect height="10.779756" opacity=".98" rx="1.710371" width="10.756737" x="124.268353" y="72.771277"/><rect height="10.779756" opacity=".98" rx="1.710371" width="10.756737" x="109.26835" y="72.771277"/><rect height="10.779756" opacity=".98" rx="1.710371" width="10.756737" x="94.26835" y="72.771277"/><rect height="10.779756" opacity=".98" rx="1.710371" width="10.756737" x="79.26835" y="72.771277"/><rect height="10.779756" opacity=".98" rx="1.710371" width="10.756737" x="64.26835" y="72.771277"/><rect height="10.779756" opacity=".98" rx="1.710371" width="10.756737" x="49.26835" y="72.771277"/><rect height="10.779756" opacity=".98" rx="1.710371" width="10.756737" x="199.268353" y="72.771277"/><rect height="10.779756" opacity=".98" rx="1.710371" width="10.756737" x="184.268353" y="72.771277"/><rect height="10.779756" opacity=".98" rx="1.710371" width="10.756737" x="169.268353" y="72.771277"/><rect height="10.779756" opacity=".98" rx="1.710371" width="10.756737" x="214.268353" y="72.771277"/><rect height="10.779756" opacity=".98" rx="1.710371" width="10.756737" x="34.26835" y="72.771277"/><rect height="10.779756" opacity=".98" rx="1.710371" width="10.756737" x="19.26835" y="72.771277"/></g><g><rect height="10.779756" opacity=".98" rx="1.710371" width="10.756737" x="229.268361" y="72.771279"/><rect height="10.779756" opacity=".98" rx="1.710371" width="10.756737" x="221.814391" y="87.771279"/><rect height="10.779756" opacity=".98" rx="1.710371" width="10.756737" x="236.814391" y="87.771279"/><rect height="10.779756" opacity=".98" rx="1.710371" width="10.756737" x="229.268361" y="102.771277"/><rect height="10.779756" opacity=".98" rx="1.710371" width="10.756737" x="221.814391" y="117.771277"/><rect height="10.779756" opacity=".98" rx="1.710371" width="10.756737" x="236.814391" y="117.771277"/></g></g></g></g></svg>