<svg height="361.44577" viewBox="0 0 328.20207 614.45781" width="193.06004" xmlns="http://www.w3.org/2000/svg"><g fill="none" stroke="#f4f4f4"><g transform="translate(111.33861 203.84766)"><circle cx="53.92907" cy="146.72784" r="123.14381" stroke-width="3.4"/><path d="m-84.517418-202.84766-25.778212 612.45783h326.12062l-23.13734-612.45783m-276.871095 0h276.537135c.18502 0 .33397.14896.33397.33398v585.72231c0 .18502-.14895.33397-.33397.33397h-276.537135c-.185021 0-.333973-.14895-.333973-.33397v-585.72231c0-.18502.148952-.33398.333973-.33398z" stroke-width="3.4"/><g stroke-width=".9996"><path d="m192.30169 383.35699 23.52329 26.25318"/><path d="m-84.451061 383.66765-25.844579 25.94252"/></g></g><g stroke-width="3.4"><rect height="58.862919" ry=".272432" width="103.85003" x="173.995043" y="119.401722"/><rect height="58.862919" ry=".272432" width="103.85003" x="53.995043" y="119.401722"/><circle cx="165.176588" cy="350.5755" r="111.94891"/></g></g><g fill="#f4f4f4" fill-opacity=".5" stroke-width="1.7" transform="translate(111.33861 203.84766)"><path d="m173.46201 403.97009q0 .544-.13147.91574-.19493.55306-.6256.55306-.2856 0-.5984-.13146-.37626-.15867-.41253-.38987.12693 0 .2992.0453.39893.10427.49867.10427.38533 0 .58026-.38533.15414-.30827.15414-.73894 0-.30373-.19947-.86587-.19493-.56666-.19493-.7888 0-.068.0363-.1088.0408-.0453.1088-.0453.1768 0 .34454.816.14053.68907.14053 1.02z"/><path d="m175.20735 404.43249q0 .4624-.26747.72534-.26746.26293-.73893.26293-.2584 0-.39894-.1224-.14053-.1224-.14053-.37627 0-.35813.46694-.7208.44426-.34453.82053-.34453.17227 0 .22667.21306.0317.1224.0317.36267zm-.27653.12694q0-.0544-.0136-.10427-.009-.0544-.0363-.1224-.0725.0499-.24027.2448-.0861.0997-.1496.14507 0-.0861.0181-.14054.0363-.0771.0589-.13147-.19947 0-.41707.16774-.21306.16773-.21306.36267 0 .13146.14506.13146.27654 0 .53494-.136.3128-.1632.3128-.41706z"/><path d="m177.07509 404.61836q0 .22213-.16774.49867-.1904.3128-.3944.3128-.0589 0-.0997-.0635-.0363-.068-.0363-.13147 0-.0816.17227-.25386.1768-.1768.1768-.24027 0-.0408-.0136-.0816-.0136-.0408-.0181-.0544-.34.0771-.69361.38987-.34906.3128-.5304.3536-.0363-.0997-.0363-.204 0-.12694.0589-.26747.0408-.0997.136-.24027.15867-.24027.33547-.544.0907-.15867.3128-.54853.22667-.38987.33093-.55307.0544-.0816.0952-.1224.0589-.0544.14054-.0725.0544.0181.0771.068.0272.0499.0272.11786 0 .15414-.19946.41707-.36267.47147-.37174.4896-.204.30827-.204.5576l.009.0453q.24933-.1224.29467-.14053.18586-.0771.31733-.0771.14507 0 .21307.0997.068.0952.068.2448z"/><path d="m179.17856 404.35089q0 .30827-.1496.65734-.1632.38533-.40347.5304-.0499-.0589-.0861-.13147-.0317-.0725-.0317-.14507 0-.0771.22666-.45786.0997-.16774.0907-.29467l-.005-.0589q-.16774.0499-.58027.30374-.408.24933-.82507.50773-.0635 0-.11787-.0453-.0499-.0499-.0499-.1088 0-.0952.30373-.6392.0907-.1632.3264-.56667.0725.0952.0952.21307.0227.11333.0227.272 0 .068 0 .10426.41707-.24933.6528-.37626.2584-.14054.3536-.14054.0635 0 .11787.14507.0589.14507.0589.2312z"/><path d="m183.11803 405.23036q0 .0816-.0725.12693-.068.0408-.15414.0408-.0771 0-.19493-.0181-.26747-.0408-.34453-.0408-.13601 0-.53494.0317-.22667.0181-.3264.0181-.27653 0-.27653-.27654 0-.26293.17226-.75253.0952-.27654.35814-.90667.23573-.56667.2992-.79787.0227-.0725.0363-.0952.0363-.0544.0907-.0544.0861 0 .14507.12694.0589.1224.0589.22213 0 .15867-.18587.53493-.18586.37174-.36266.72987-.19494.42614-.19494.64827 0 .11333.0952.15867.068.0317.19947.0317.0997 0 .34454-.0227.2448-.0272.3264-.0272.204 0 .33546.0589.18587.0816.18587.26293z"/><path d="m184.80443 404.43249q0 .4624-.26746.72534-.26747.26293-.73894.26293-.2584 0-.39893-.1224-.14054-.1224-.14054-.37627 0-.35813.46694-.7208.44427-.34453.82053-.34453.17227 0 .22667.21306.0317.1224.0317.36267zm-.27653.12694q0-.0544-.0136-.10427-.009-.0544-.0363-.1224-.0725.0499-.24026.2448-.0861.0997-.1496.14507 0-.0861.0181-.14054.0363-.0771.0589-.13147-.19946 0-.41706.16774-.21307.16773-.21307.36267 0 .13146.14507.13146.27653 0 .53493-.136.3128-.1632.3128-.41706z"/><path d="m186.71297 404.33729q0 .14507-.0771.30827-.0725.1632-.18586.272l-.005-.0635q0-.0544.0136-.16773.0136-.11333.0136-.16774 0-.0771-.0227-.11333-.0227-.0408-.0952-.0408-.21307 0-.53041.33094-.34453.36266-.68453.7208-.0272 0-.0544-.005-.068-.0181-.0907-.0227.0136-.1632.11334-.36267.26746-.53947.27653-.57574.0363-.14506.0544-.21306.0181-.068.0499-.14054.0363-.0771.0816-.136.0499-.0635.12693-.0952l.0453.544q.19494-.15866.2992-.2448.19947-.15866.34454-.15866.14507 0 .23573.0952.0907.0952.0907.23573z"/><path d="m188.93884 403.81142q0 .1904-.50773.5032-.4896.29921-.71173.29921-.10427 0-.14054-.0725-.0317-.0725-.0317-.204 0-.0861 0-.1224.30373 0 .55307-.0907.24933-.0907.4352-.2992-.136-.0499-.27654-.0499-.33093 0-.70266.25386-.40801.27654-.40801.58934 0 .2992.40801.41707.0635.0181.76613.12693.41253.0635.41253.22213 0 .068-.1496.1088-.1496.0453-.3808.0453-.58026 0-.91573-.1768-.44427-.23574-.44427-.75707 0-.544.544-.86587.4624-.272 1.05174-.272.1768 0 .32186.0816.1768.0997.1768.26293z"/><path d="m190.74311 402.99996q0 .0997-.24026.41706-.24027.31734-.24027.48507 0 .0861.0997.17227.22667.19946.22667.2448 0 .0589-.0408.11333-.0363.0544-.0952.0544-.0499 0-.14053-.0544-.0635-.0363-.2448-.1768-.068.13147-.10427.19947-.12693.24027-.17227.34907-.068.20853-.136.41706-.11786.28107-.29466.28107l-.005-.10427q0-.32186.20854-.7616.0408-.0816.22666-.4216-.35813-.19493-.7888-.19493 0-.16774.068-.2448.0725-.0816.24027-.0816.15413 0 .38533.0544.11334.0272.22667.0544.0861-.0272.23573-.29467.3672-.64373.49867-.73893.0363.0589.0589.11786.0272.0589.0272.11334z"/><path d="m192.41592 404.61836q0 .22213-.16773.49867-.1904.3128-.3944.3128-.0589 0-.0997-.0635-.0363-.068-.0363-.13147 0-.0816.17226-.25386.1768-.1768.1768-.24027 0-.0408-.0136-.0816-.0136-.0408-.0181-.0544-.34.0771-.6936.38987-.34907.3128-.5304.3536-.0363-.0997-.0363-.204 0-.12694.0589-.26747.0408-.0997.13601-.24027.15866-.24027.33546-.544.0907-.15867.3128-.54853.22667-.38987.33094-.55307.0544-.0816.0952-.1224.0589-.0544.14053-.0725.0544.0181.0771.068.0272.0499.0272.11786 0 .15414-.19947.41707-.36267.47147-.37173.4896-.204.30827-.204.5576l.009.0453q.24934-.1224.29467-.14053.18587-.0771.31733-.0771.14507 0 .21307.0997.068.0952.068.2448z"/><path d="m196.1378 403.14049q0 .21307-.22667.5712-.14507.22667-.476.6528-.33093.4216-.41253.55307.0136.005.34.1088.33093.0997.33093.36267-.136.0227-.26747.0408l-.0499-.005v-.0363q-.0725-.0181-.11787-.0181-.0861 0-.272.0272-.18587.0272-.28107.0272-.1224 0-.19946-.0453-.0771-.0453-.0771-.1632 0-.0952.34907-.53947.6528-.8296.65733-.83867.3536-.48053.3536-.64373 0-.0635-.0453-.0952-.0408-.0317-.16774-.0317-.0861 0-.35813.16773-.13147.0816-.21307.0816l-.0771-.0136q-.0272-.0181-.0589-.068-.0317-.0544-.0317-.0861 0-.1904.3672-.34907.3128-.136.544-.136.19494 0 .2992.14507.0907.12693.0907.33093z"/><path d="m198.86233 403.95649q0 .54853-.59387.97014-.544.38533-1.11973.38533-.2856 0-.45333-.14507-.16774-.14506-.16774-.4216 0-.61653.53947-1.06987.51227-.43066 1.14693-.43066.32187 0 .48507.1904.1632.1904.1632.52133zm-.27653.10427q0-.20854-.23573-.3128-.17681-.0771-.42161-.0771-.35813 0-.748.34907-.38986.34906-.38986.70267 0 .14506.0725.20853.0771.0589.2312.0589.44427 0 .9248-.2448.56667-.29013.56667-.68453z"/><path d="m200.93861 403.14049q0 .21307-.22667.5712-.14507.22667-.476.6528-.33093.4216-.41254.55307.0136.005.34001.1088.33093.0997.33093.36267-.136.0227-.26747.0408l-.0499-.005v-.0363q-.0725-.0181-.11787-.0181-.0861 0-.272.0272-.18587.0272-.28107.0272-.1224 0-.19947-.0453-.0771-.0453-.0771-.1632 0-.0952.34906-.53947.65281-.8296.65734-.83867.3536-.48053.3536-.64373 0-.0635-.0453-.0952-.0408-.0317-.16774-.0317-.0861 0-.35813.16773-.13147.0816-.21307.0816l-.0771-.0136q-.0272-.0181-.0589-.068-.0317-.0544-.0317-.0861 0-.1904.3672-.34907.3128-.136.544-.136.19493 0 .2992.14507.0907.12693.0907.33093z"/><path d="m203.02394 403.14049q0 .21307-.22667.5712-.14507.22667-.476.6528-.33093.4216-.41253.55307.0136.005.34.1088.33093.0997.33093.36267-.136.0227-.26747.0408l-.0499-.005v-.0363q-.0725-.0181-.11787-.0181-.0861 0-.272.0272-.18587.0272-.28107.0272-.1224 0-.19946-.0453-.0771-.0453-.0771-.1632 0-.0952.34907-.53947.6528-.8296.65733-.83867.3536-.48053.3536-.64373 0-.0635-.0453-.0952-.0408-.0317-.16774-.0317-.0861 0-.35813.16773-.13147.0816-.21307.0816l-.0771-.0136q-.0272-.0181-.0589-.068-.0317-.0544-.0317-.0861 0-.1904.3672-.34907.3128-.136.544-.136.19493 0 .2992.14507.0907.12693.0907.33093z"/></g></svg>