<svg height="356.58795" viewBox="0 0 1900.4238 1176.7402" width="575.88599" xmlns="http://www.w3.org/2000/svg"><g fill="#f4f4f4" fill-opacity=".5" stroke-width="9.9"><path d="m544.05285 1019.3016q0 1.056-.2552 1.7776-.3784 1.0736-1.2144 1.0736-.5544 0-1.1616-.2552-.7304-.308-.8008-.7568.2464 0 .5808.088.7744.2024.968.2024.748 0 1.1264-.748.2992-.5984.2992-1.4344 0-.5896-.3872-1.6808-.3784-1.1-.3784-1.5312 0-.132.0704-.2112.0792-.088.2112-.088.3432 0 .6688 1.584.2728 1.3376.2728 1.98z"/><path d="m547.44086 1020.1992q0 .8976-.5192 1.408-.5192.5104-1.4344.5104-.5016 0-.7744-.2376-.2728-.2376-.2728-.7304 0-.6952.9064-1.3992.8624-.6688 1.5928-.6688.3344 0 .44.4136.0616.2376.0616.704zm-.5368.2464q0-.1056-.0264-.2024-.0176-.1056-.0704-.2376-.1408.097-.4664.4752-.1672.1936-.2904.2816 0-.1672.0352-.2728.0704-.1496.1144-.2552-.3872 0-.8096.3256-.4136.3256-.4136.704 0 .2552.2816.2552.5368 0 1.0384-.264.6072-.3168.6072-.8096z"/><path d="m551.06647 1020.56q0 .4312-.3256.968-.3696.6072-.7656.6072-.11441 0-.19361-.1232-.0704-.132-.0704-.2552 0-.1584.33441-.4928.3432-.3432.3432-.4664 0-.079-.0264-.1584-.0264-.079-.0352-.1056-.66001.1496-1.34641.7568-.6776.6072-1.0296.6864-.0704-.1936-.0704-.396 0-.2464.1144-.5192.0792-.1936.264-.4664.308-.4664.6512-1.056.176-.308.6072-1.0648.44001-.7568.64241-1.0736.1056-.1584.1848-.2376.1144-.1056.2728-.1408.1056.035.1496.132.0528.097.0528.2288 0 .2992-.3872.8096-.70401.9152-.72161.9504-.396.5984-.396 1.0824l.0176.088q.484-.2376.57201-.2728.3608-.1496.616-.1496.2816 0 .4136.1936.132.1848.132.4752z"/><path d="m555.14968 1020.0408q0 .5984-.2904 1.276-.3168.748-.7832 1.0296-.0968-.1144-.1672-.2552-.0616-.1408-.0616-.2816 0-.1496.44-.8888.1936-.3256.176-.572l-.009-.1144q-.3256.097-1.1264.5896-.792.484-1.6016.9856-.1232 0-.22881-.088-.0968-.097-.0968-.2112 0-.1848.58961-1.2408.176-.3168.6336-1.1.1408.1848.1848.4136.044.22.044.528 0 .132 0 .2024.8096-.484 1.2672-.7304.5016-.2728.6864-.2728.1232 0 .2288.2816.1144.2816.1144.4488z"/><path d="m562.79688 1021.748q0 .1584-.1408.2464-.132.079-.2992.079-.1496 0-.3784-.035-.5192-.079-.6688-.079-.264 0-1.0384.062-.44.035-.6336.035-.5368 0-.5368-.5368 0-.5104.3344-1.4608.1848-.5368.6952-1.76.4576-1.1.5808-1.5488.044-.1408.0704-.1848.0704-.1056.176-.1056.1672 0 .2816.2464.1144.2376.1144.4312 0 .308-.3608 1.0384-.3608.7216-.704 1.4168-.3784.8272-.3784 1.2584 0 .22.1848.308.132.062.3872.062.1936 0 .6688-.044.4752-.053.6336-.053.396 0 .6512.1144.3608.1584.3608.5104z"/><path d="m566.07049 1020.1992q0 .8976-.5192 1.408-.5192.5104-1.4344.5104-.5016 0-.7744-.2376-.2728-.2376-.2728-.7304 0-.6952.9064-1.3992.8624-.6688 1.5928-.6688.3344 0 .44.4136.0616.2376.0616.704zm-.5368.2464q0-.1056-.0264-.2024-.0176-.1056-.0704-.2376-.1408.097-.4664.4752-.1672.1936-.2904.2816 0-.1672.0352-.2728.0704-.1496.1144-.2552-.3872 0-.8096.3256-.4136.3256-.4136.704 0 .2552.2816.2552.5368 0 1.0384-.264.6072-.3168.6072-.8096z"/><path d="m569.77529 1020.0144q0 .2816-.1496.5984-.1408.3168-.3608.528l-.009-.1232q0-.1056.0264-.3256.0264-.22.0264-.3256 0-.1496-.044-.22-.044-.079-.1848-.079-.4136 0-1.0296.6424-.6688.704-1.3288 1.3992-.0528 0-.1056-.01-.132-.035-.176-.044.0264-.3168.22-.704.5192-1.0472.5368-1.1176.0704-.2816.1056-.4136.0352-.132.0968-.2728.0704-.1496.1584-.264.0968-.1232.2464-.1848l.088 1.056q.3784-.308.5808-.4752.3872-.308.6688-.308.2816 0 .4576.1848.176.1848.176.4576z"/><path d="m574.0961 1018.9936q0 .3696-.9856.9768-.9504.5808-1.3816.5808-.2024 0-.2728-.1408-.0616-.1408-.0616-.396 0-.1672 0-.2376.5896 0 1.0736-.176.484-.176.8448-.5808-.264-.097-.5368-.097-.6424 0-1.364.4928-.792.5368-.792 1.144 0 .5808.792.8096.1232.035 1.4872.2464.8008.1232.8008.4312 0 .132-.2904.2112-.2904.088-.7392.088-1.1264 0-1.7776-.3432-.8624-.4576-.8624-1.4696 0-1.056 1.056-1.6808.8976-.528 2.0416-.528.3432 0 .6248.1584.3432.1936.3432.5104z"/><path d="m577.59851 1017.4184q0 .1936-.4664.8096-.4664.616-.4664.9416 0 .1672.1936.3344.44.3872.44.4752 0 .1144-.0792.22-.0704.1056-.1848.1056-.0968 0-.2728-.1056-.1232-.07-.4752-.3432-.132.2552-.2024.3872-.2464.4664-.3344.6776-.132.4048-.264.8096-.2288.5456-.572.5456l-.009-.2024q0-.6248.4048-1.4784.0792-.1584.44-.8184-.6952-.3784-1.5312-.3784 0-.3256.132-.4752.1408-.1584.4664-.1584.2992 0 .748.1056.22.053.44.1056.1672-.053.4576-.572.7128-1.2496.968-1.4344.0704.1144.1144.2288.0528.1144.0528.22z"/><path d="m580.84572 1020.56q0 .4312-.3256.968-.3696.6072-.7656.6072-.1144 0-.1936-.1232-.0704-.132-.0704-.2552 0-.1584.3344-.4928.3432-.3432.3432-.4664 0-.079-.0264-.1584-.0264-.079-.0352-.1056-.66.1496-1.3464.7568-.6776.6072-1.0296.6864-.0704-.1936-.0704-.396 0-.2464.1144-.5192.0792-.1936.264-.4664.308-.4664.6512-1.056.176-.308.6072-1.0648.44-.7568.6424-1.0736.1056-.1584.1848-.2376.1144-.1056.2728-.1408.1056.035.1496.132.0528.097.0528.2288 0 .2992-.3872.8096-.704.9152-.7216.9504-.396.5984-.396 1.0824l.0176.088q.484-.2376.572-.2728.3608-.1496.616-.1496.2816 0 .4136.1936.132.1848.132.4752z"/><path d="m588.07054 1017.6912q0 .4136-.44 1.1088-.2816.44-.924 1.2672-.6424.8184-.8008 1.0736.0264.01.66.2112.6424.1936.6424.704-.264.044-.5192.079l-.0968-.01v-.07q-.1408-.035-.2288-.035-.1672 0-.528.053-.3608.053-.5456.053-.2376 0-.3872-.088-.1496-.088-.1496-.3168 0-.1848.6776-1.0472 1.2672-1.6104 1.276-1.628.6864-.9328.6864-1.2496 0-.1232-.088-.1848-.0792-.062-.3256-.062-.1672 0-.6952.3256-.2552.1584-.4136.1584l-.1496-.026q-.0528-.035-.1144-.132-.0616-.1056-.0616-.1672 0-.3696.7128-.6776.6072-.264 1.056-.264.3784 0 .5808.2816.176.2464.176.6424z"/><path d="m593.35934 1019.2752q0 1.0648-1.1528 1.8832-1.056.748-2.1736.748-.55441 0-.88001-.2816-.3256-.2816-.3256-.8184 0-1.1968 1.0472-2.0768.99441-.836 2.22641-.836.6248 0 .9416.3696.3168.3696.3168 1.012zm-.5368.2024q0-.4048-.4576-.6072-.3432-.1496-.8184-.1496-.6952 0-1.452.6776-.75681.6776-.75681 1.364 0 .2816.1408.4048.1496.1144.4488.1144.86241 0 1.79521-.4752 1.1-.5632 1.1-1.3288z"/><path d="m597.38975 1017.6912q0 .4136-.44 1.1088-.2816.44-.924 1.2672-.6424.8184-.8008 1.0736.0264.01.66.2112.6424.1936.6424.704-.264.044-.5192.079l-.0968-.01v-.07q-.1408-.035-.2288-.035-.1672 0-.528.053-.3608.053-.5456.053-.2376 0-.3872-.088-.1496-.088-.1496-.3168 0-.1848.6776-1.0472 1.2672-1.6104 1.276-1.628.6864-.9328.6864-1.2496 0-.1232-.088-.1848-.0792-.062-.3256-.062-.1672 0-.6952.3256-.2552.1584-.4136.1584l-.1496-.026q-.0528-.035-.1144-.132-.0616-.1056-.0616-.1672 0-.3696.7128-.6776.6072-.264 1.056-.264.3784 0 .5808.2816.176.2464.176.6424z"/><path d="m601.43775 1017.6912q0 .4136-.44 1.1088-.2816.44-.924 1.2672-.6424.8184-.8008 1.0736.0264.01.66.2112.6424.1936.6424.704-.264.044-.5192.079l-.0968-.01v-.07q-.1408-.035-.2288-.035-.1672 0-.52801.053-.3608.053-.5456.053-.2376 0-.3872-.088-.1496-.088-.1496-.3168 0-.1848.6776-1.0472 1.26721-1.6104 1.27601-1.628.6864-.9328.6864-1.2496 0-.1232-.088-.1848-.0792-.062-.3256-.062-.1672 0-.6952.3256-.2552.1584-.4136.1584l-.14961-.026q-.0528-.035-.1144-.132-.0616-.1056-.0616-.1672 0-.3696.71281-.6776.6072-.264 1.056-.264.3784 0 .5808.2816.176.2464.176.6424z"/></g><g stroke-width="3"><circle cx="1460.47231" cy="658.32173" fill="none" r="329.21426" stroke="#f4f4f4" stroke-width="6.6"/><g fill="#f4f4f4" transform="translate(-120.99609 -632.98047)"><rect height="47.42622" rx="10.185666" width="17.426216" x="1571.8671" y="1476.9761"/><rect height="47.42622" rx="10.185666" width="17.426216" x="1571.8671" y="1058.9761"/><rect height="47.42622" rx="10.185666" transform="rotate(-90)" width="17.426216" x="-1301.4023" y="1348.8671"/><rect height="47.42622" rx="10.185666" transform="rotate(-90)" width="17.426216" x="-1301.4023" y="1764.8671"/><rect height="23.71311" rx="5.092833" transform="matrix(-.70710678 -.70710678 .70710678 -.70710678 0 0)" width="8.713108" x="-2035.5305" y="-18.221037"/><rect height="23.71311" rx="5.092833" transform="matrix(-.70710678 -.70710678 .70710678 -.70710678 0 0)" width="8.713108" x="-2035.437" y="407.9425"/><g transform="matrix(-.70710678 .70710678 -.70710678 -.70710678 0 0)"><rect height="23.71311" rx="5.092833" width="8.713108" x="-207.47876" y="-2256.2495"/><rect height="23.71311" rx="5.092833" width="8.713108" x="-207.38525" y="-1830.0861"/></g></g></g><g transform="translate(-120.99609 -632.98047)"><g fill="none" stroke="#f4f4f4" stroke-width="6.6"><path d="m174.58549 1020.3842c6.0365 4.554 21.07341 10.4191 6.40714 39.9558m-6.40714-39.9558c-32.69802-24.39191-52.57132-63.06869-52.5894-104.80608.00097-72.25583 58.57622-130.8302 130.83203-130.83007 3.44999.00004 6.88096.13596 10.35989.41733 50.55172 2.409 93.85327-28.27664 109.87125-55.92338 22.95809-37.92445 64.55862-63.25576 112.07551-63.25567 15.07686.089 29.60968 2.74261 43.32674 7.6653 10.67775 3.45073 20.5878 5.95137 29.8795 7.75747 58.63215 11.39681 92.64299-4.86131 95.44511-8.39051 23.56053-24.22651 56.43582-39.03805 92.77052-39.03812 43.15896-.00008 81.43701 20.89785 105.33092 53.3024 35.48911 35.23741 75.04901 52.47369 118.0661 56.31917 5.42826-.77022 10.81117-1.14241 16.25337-1.17821 72.25657-.00015 130.83217 58.57542 130.83207 130.83203-.042 45.50355-23.7236 87.71702-62.5352 111.4707 12.6374 16.00124 24.3161 32.73694 34.9746 50.11914 27.1441 42.4533 108.5891 36.2347 138.5137 0 81.9161-113.79552 213.2665-181.61029 353.4766-182.49609 116.4173.00033 228.0663 46.24722 310.3856 128.56687 82.3193 82.31962 128.5657 193.96892 128.5655 310.38622-.0003 116.417-46.2469 228.0657-128.5661 310.385-82.3193 82.3192-193.968 128.5659-310.385 128.5662-139.8476-.909-270.8924-68.4019-352.8418-181.7266-31.073-41.365-103.4091-52.7776-138.9043 0-91.78043 160.61-262.4574 259.861-447.44145 260.1934-136.96149-.0001-268.31336-54.4079-365.15975-151.2543-96.8464-96.8464-151.25419-228.1983-151.25431-365.1598.0296-80.7044 18.97176-160.1309 55.12544-231.9666"/><path d="m997.09709 978.96708c9.76501-5.81536 23.17051-7.68167 34.41531-11.62362m-34.41531 11.62362c-53.97498 30.91672-57.07876 88.98762-37.39504 122.85232m-752.56533-92.2058c77.60434 38.8565 85.04598 150.3192 67.55972 208.5512m766.11406-255.81271c31.0585-19.00858 49.9591-52.69605 49.9961-89.10937-.01-58.03885-46.471-104.52527-104.49804-104.58008-4.33549.0314-8.49102.31916-12.66992.91211-1.9945.2831-4.01498.33552-6.02148.15625-48.52015-4.33796-94.84208-24.74101-134.21286-63.83256-.95369-.94675-1.83324-1.96537-2.63086-3.04688-19.14937-25.97007-49.52593-42.63873-84.2168-42.63867-29.19485.00006-55.16189 11.77455-73.94336 31.07617-3.97418 4.51368-5.86753 4.93132-8.18555 6.27344-2.65007 1.53438-5.3894 2.84011-8.55078 4.13477-6.32275 2.5893-14.24354 5.03097-23.9707 6.88281-19.45432 3.70368-46.02852 4.90354-78.57031-1.42188-10.31087-2.0042-21.2702-4.77313-32.94141-8.54492-.26639-.0856-.5314-.17545-.79492-.26953-10.96708-3.93579-22.46476-6.03969-34.5293-6.12109-38.16608.0231-71.21308 20.27922-89.57031 50.60351l.25586-.43359c-22.07743 38.10523-71.97357 71.92363-133.81641 68.97656-.28935-.0141-.57845-.033-.86718-.0566-2.77759-.22465-5.48617-.332-8.24415-.33203-58.07497-.00011-104.5925 46.51252-104.5996 104.58594 0 .002-.00001.004 0 .006v.006c.0218 40.09351 22.84155 76.5212 58.9082 94.03515m795.92338 206.5585c4.7305 23.7201 7.1625 48.0131 7.1625 72.5568 0 98.3966-39.08789 192.7631-108.66478 262.34s-163.9434 108.6648-262.33999 108.6648-192.76311-39.0879-262.34001-108.6648c-69.57689-69.5769-108.66477-163.9434-108.66478-262.34 0-24.4166 2.35866-48.2822 6.86055-71.3816m727.98651-1.1752c-8.03669-40.2977-22.7075-78.9419-43.35805-114.3527m71.81035-134.47594c3.7671-1.36018 6.3822-3.23114 9.2981-4.99137"/></g><g><g fill="none" stroke="#f4f4f4" stroke-width="6.6"><ellipse cx="1581.4684" cy="1291.3022" rx="172.83749" ry="172.83748"/><circle cx="642.46979" cy="1292.0522" r="287.5"/><ellipse cx="304.48901" cy="1580.7649" rx="38.779182" ry="38.766396"/><ellipse cx="393.45279" cy="1655.7418" rx="38.779182" ry="38.766396"/><path d="m620.77776 1690.2009c60.47504 4.9607 112.78561-7.3714 162.31413-25.5959 9.71674-2.8474 11.02588 2.9501 10.71506 10.4134-17.80055 122.223-142.16008 114.08-183.2479 32.9947-3.17588-9.8736-1.35943-16.7617 10.21871-17.8122z"/><circle cx="988.01465" cy="873.08447" r="81.846893"/><circle cx="746.31158" cy="765.37714" r="81.846893"/><circle cx="485.13718" cy="797.82349" r="81.846893"/><circle cx="251.77037" cy="914.18048" r="81.846893"/></g><path d="m626.6733 1464.2731c7.00268 3.9075 11.45679 9.0687 15.57229 14.3963 15.81519-19.0206 33.43524-31.1507 50.95597-43.6601-22.74963 19.4804-39.22558 38.705-48.69852 57.644-7.07955-8.429-14.40896-16.3833-23.79001-20.4408 3.78484-2.4714 5.2331-5.1704 5.96027-7.9394z" fill="#f4f4f4"/><path d="m642.4707 965.25195c-85.55648 0-170.58641 35.21925-231.08398 95.71685-60.49757 60.4975-95.7168 145.5275-95.7168 231.0839 0 85.5565 35.21923 170.5865 95.7168 231.084 60.49757 60.4976 145.5275 95.7168 231.08398 95.7168s170.58642-35.2192 231.08399-95.7168c60.49757-60.4975 95.71679-145.5275 95.71679-231.084 0-85.5564-35.21922-170.5864-95.71679-231.0839-60.49757-60.4976-145.52751-95.71685-231.08399-95.71685z" fill="none" stroke="#f4f4f4" stroke-width="6.6"/></g></g></svg>