<?xml version="1.0" encoding="UTF-8" standalone="no"?>
<svg
   id="wii"
   width="589"
   height="350"
   viewBox="0 0 589 350"
   version="1.1"
   sodipodi:docname="controller.svg"
   inkscape:version="1.1 (c68e22c387, 2021-05-23)"
   xmlns:inkscape="http://www.inkscape.org/namespaces/inkscape"
   xmlns:sodipodi="http://sodipodi.sourceforge.net/DTD/sodipodi-0.dtd"
   xmlns="http://www.w3.org/2000/svg"
   xmlns:svg="http://www.w3.org/2000/svg">
  <defs
     id="defs80" />
  <sodipodi:namedview
     id="namedview78"
     pagecolor="#ffffff"
     bordercolor="#666666"
     borderopacity="1.0"
     inkscape:pageshadow="2"
     inkscape:pageopacity="0.0"
     inkscape:pagecheckerboard="0"
     showgrid="false"
     inkscape:zoom="1.7962649"
     inkscape:cx="294.22164"
     inkscape:cy="175.08554"
     inkscape:window-width="1920"
     inkscape:window-height="1027"
     inkscape:window-x="1912"
     inkscape:window-y="-8"
     inkscape:window-maximized="1"
     inkscape:current-layer="wii" />
  <g
     id="g1">
    <g
       id="body">
      <g
         id="main">
        <path
           d="M555.67,108.48a18.52,18.52,0,0,1,18.5,18.5v96a18.52,18.52,0,0,1-18.5,18.5H33.33A18.52,18.52,0,0,1,14.83,223V127a18.52,18.52,0,0,1,18.5-18.5H555.67m0-1.5H33.33a20.06,20.06,0,0,0-20,20v96a20.06,20.06,0,0,0,20,20H555.67a20.06,20.06,0,0,0,20-20V127a20.06,20.06,0,0,0-20-20Z"
           style="fill: #f4f4f4"
           id="path2" />
      </g>
      <path
         id="bottom_bevel"
         data-name="bottom bevel"
         d="M294.5,236H33.33a12.93,12.93,0,0,1-9.19-3.82M294.5,236H555.67a12.93,12.93,0,0,0,9.19-3.82"
         style="fill: none;stroke: #f4f4f4;stroke-linecap: round;stroke-linejoin: round;stroke-width: 1.5px" />
      <path
         id="top_bevel"
         data-name="top bevel"
         d="M24.14,118.85A12.92,12.92,0,0,1,33.33,115H294.5m270.36,3.81a12.92,12.92,0,0,0-9.19-3.81H294.5"
         style="fill: none;stroke: #f4f4f4;stroke-linecap: round;stroke-linejoin: round;stroke-width: 1.5px" />
    </g>
    <g
       id="_2"
       data-name="2">
      <circle
         cx="476.48"
         cy="175"
         r="14.5"
         style="fill: none;stroke: #f4f4f4;stroke-miterlimit: 10;stroke-width: 1.5px"
         id="circle8" />
    </g>
    <g
       id="_1"
       data-name="1">
      <circle
         cx="426.48"
         cy="175"
         r="14.5"
         style="fill: none;stroke: #f4f4f4;stroke-miterlimit: 10;stroke-width: 1.5px"
         id="circle11" />
    </g>
    <g
       id="minus">
      <circle
         cx="280.48"
         cy="213.5"
         r="10.5"
         style="fill: none;stroke: #f4f4f4;stroke-miterlimit: 10;stroke-width: 1.5px"
         id="circle14" />
    </g>
    <g
       id="home">
      <g
         id="outside">
        <circle
           cx="280.48"
           cy="175"
           r="14.5"
           style="fill: none;stroke: #f4f4f4;stroke-miterlimit: 10;stroke-width: 1.5px"
           id="circle17" />
      </g>
      <g
         id="center">
        <circle
           cx="280.48"
           cy="175"
           r="10.5"
           style="fill: none;stroke: #f4f4f4;stroke-miterlimit: 10;stroke-width: 1.5px"
           id="circle20" />
      </g>
      <path
         id="icon"
         d="M279,169.06l-4.73,5.83a.18.18,0,0,0,0,.22l4.73,5.83a.17.17,0,0,0,.3-.11v-1.26a.17.17,0,0,1,.17-.17h6.09a.17.17,0,0,0,.17-.17v-8.51a.17.17,0,0,0-.17-.17h-6.09a.17.17,0,0,1-.17-.17v-1.21A.17.17,0,0,0,279,169.06Zm4.35,4.05v3.73a.18.18,0,0,1-.17.17h-2.39a.17.17,0,0,1-.17-.17v-3.73a.17.17,0,0,1,.17-.17h2.39A.18.18,0,0,1,283.35,173.11Z"
         style="fill: #f4f4f4" />
    </g>
    <g
       id="plus">
      <circle
         cx="280.48"
         cy="136.5"
         r="10.5"
         style="fill: none;stroke: #f4f4f4;stroke-miterlimit: 10;stroke-width: 1.5px"
         id="circle25" />
    </g>
    <g
       id="A">
      <circle
         cx="186.98"
         cy="175"
         r="21.06"
         style="fill: none;stroke: #f4f4f4;stroke-miterlimit: 10;stroke-width: 1.5px"
         id="circle28" />
    </g>
    <g
       id="d-pad">
      <path
         id="cross"
         d="M134,163.46H115.36a1,1,0,0,1-1-1V143.79a3,3,0,0,0-3-3H94.29a3,3,0,0,0-3,3v18.67a1,1,0,0,1-1,1H71.62a3,3,0,0,0-3,3v17.08a3,3,0,0,0,3,3H90.29a1,1,0,0,1,1,1v18.67a3,3,0,0,0,3,3h17.07a3,3,0,0,0,3-3V187.54a1,1,0,0,1,1-1H134a3,3,0,0,0,3-3V166.46A3,3,0,0,0,134,163.46Z"
         style="fill: none;stroke: #f4f4f4;stroke-miterlimit: 10;stroke-width: 1.5px" />
      <g
         id="lines">
        <path
           d="M102.83,188.22v13.56m0-53.56v13.56M116.05,175H129.6m-53.55,0H89.6"
           style="fill: none;stroke: #f4f4f4;stroke-miterlimit: 10;stroke-width: 1.5px"
           id="path32" />
      </g>
    </g>
    <g
       id="power">
      <g
         id="outside2">
        <circle
           cx="37.48"
           cy="211.5"
           r="14.5"
           style="fill: none;stroke: #f4f4f4;stroke-miterlimit: 10;stroke-width: 1.5px"
           id="circle36" />
      </g>
      <g
         id="center2">
        <circle
           cx="37.48"
           cy="211.5"
           r="10.5"
           style="fill: none;stroke: #f4f4f4;stroke-miterlimit: 10;stroke-width: 1.5px"
           id="circle39" />
      </g>
      <g
         id="symbol">
        <path
           d="M34,208.63a4.5,4.5,0,1,1,0,5.74m-2.1-2.87h4"
           style="fill: none;stroke: #f4f4f4;stroke-linecap: round;stroke-miterlimit: 10;stroke-width: 1.5px"
           id="path42" />
      </g>
    </g>
    <g
       id="speaker">
      <path
         d="M377,165.36a1.21,1.21,0,1,1,1.21,1.2A1.21,1.21,0,0,1,377,165.36Zm1.21,8.43a1.21,1.21,0,1,0,1.2,1.21A1.21,1.21,0,0,0,378.23,173.79Zm0,9.65a1.21,1.21,0,1,0,1.2,1.2A1.21,1.21,0,0,0,378.23,183.44Zm-9.65-20a1.93,1.93,0,1,0,1.93,1.93A1.93,1.93,0,0,0,368.58,163.43Zm0,19.28a1.93,1.93,0,1,0,1.93,1.93A1.94,1.94,0,0,0,368.58,182.71Zm0-9.64a1.93,1.93,0,1,0,1.93,1.93A1.94,1.94,0,0,0,368.58,173.07Zm-10.6-.72a2.65,2.65,0,1,0,2.65,2.65A2.66,2.66,0,0,0,358,172.35Zm0-9.64a2.65,2.65,0,1,0,2.65,2.65A2.65,2.65,0,0,0,358,162.71ZM358,182a2.65,2.65,0,1,0,2.65,2.65A2.66,2.66,0,0,0,358,182Zm-11.09,0a2.65,2.65,0,1,0,2.65,2.65A2.65,2.65,0,0,0,346.89,182Zm0-19.28a2.65,2.65,0,1,0,2.65,2.65A2.64,2.64,0,0,0,346.89,162.71Zm0,9.64a2.65,2.65,0,1,0,2.65,2.65A2.65,2.65,0,0,0,346.89,172.35Zm-10.61,10.36a1.93,1.93,0,1,0,1.93,1.93A1.94,1.94,0,0,0,336.28,182.71Zm0-19.28a1.93,1.93,0,1,0,1.93,1.93A1.93,1.93,0,0,0,336.28,163.43Zm0,9.64a1.93,1.93,0,1,0,1.93,1.93A1.94,1.94,0,0,0,336.28,173.07Zm-9.64.72a1.21,1.21,0,1,0,1.2,1.21A1.21,1.21,0,0,0,326.64,173.79Zm0-9.64a1.21,1.21,0,1,0,1.2,1.21A1.21,1.21,0,0,0,326.64,164.15Zm0,19.29a1.21,1.21,0,1,0,1.2,1.2A1.21,1.21,0,0,0,326.64,183.44Z"
         style="fill: #f4f4f4"
         id="path46" />
    </g>
    <g
       id="LEDs">
      <g
         id="_1-2"
         data-name="1">
        <rect
           x="511.79"
           y="209.11"
           width="6.79"
           height="6.79"
           style="fill: #f4f4f4"
           id="rect49" />
      </g>
      <g
         id="_2-2"
         data-name="2">
        <rect
           x="511.79"
           y="184.11"
           width="6.79"
           height="6.79"
           style="fill: #f4f4f4"
           id="rect52" />
      </g>
      <g
         id="_3"
         data-name="3">
        <rect
           x="511.79"
           y="159.11"
           width="6.79"
           height="6.79"
           style="fill: #f4f4f4"
           id="rect55" />
      </g>
      <g
         id="_4"
         data-name="4">
        <rect
           x="511.79"
           y="134.11"
           width="6.79"
           height="6.79"
           style="fill: #f4f4f4"
           id="rect58" />
      </g>
    </g>
    <g
       id="LED_dots"
       data-name="LED dots">
      <g
         id="o">
        <circle
           cx="507.39"
           cy="212.5"
           r="1.25"
           style="fill: #f4f4f4"
           id="circle62" />
      </g>
      <g
         id="oo">
        <path
           d="M507.39,191.25a1.25,1.25,0,1,1,1.25-1.25A1.25,1.25,0,0,1,507.39,191.25Zm0-5a1.25,1.25,0,1,1,1.25-1.25A1.25,1.25,0,0,1,507.39,186.25Z"
           style="fill: #f4f4f4"
           id="path65" />
      </g>
      <g
         id="ooo">
        <path
           d="M507.39,168.75a1.25,1.25,0,1,1,1.25-1.25A1.25,1.25,0,0,1,507.39,168.75Zm0-5a1.25,1.25,0,1,1,1.25-1.25A1.25,1.25,0,0,1,507.39,163.75Zm0-5a1.25,1.25,0,1,1,1.25-1.25A1.25,1.25,0,0,1,507.39,158.75Z"
           style="fill: #f4f4f4"
           id="path68" />
      </g>
      <g
         id="oooo">
        <path
           d="M507.39,146.25a1.25,1.25,0,1,1,1.25-1.25A1.25,1.25,0,0,1,507.39,146.25Zm0-5a1.25,1.25,0,1,1,1.25-1.25A1.25,1.25,0,0,1,507.39,141.25Zm0-5a1.25,1.25,0,1,1,1.25-1.25A1.25,1.25,0,0,1,507.39,136.25Zm0-5a1.25,1.25,0,1,1,1.25-1.25A1.25,1.25,0,0,1,507.39,131.25Z"
           style="fill: #f4f4f4"
           id="path71" />
      </g>
    </g>
    <path
       id="logo"
       d="M552.77,188.66a3.28,3.28,0,0,1-1.9,2c-.6.23-3.62,1.09-14.45,4.1l-1.62.45v-2c0-1.12,0-2.05,0-2.07s3-.78,6.56-1.7l6.52-1.66-3-.79c-7.18-1.87-8.34-2.19-8.84-2.43a2.39,2.39,0,0,1-1.32-1.54,4.2,4.2,0,0,1,0-1.5,2.37,2.37,0,0,1,1.49-1.61c.47-.19,2-.6,7.88-2.14l3.7-1c.05,0-2.39-.66-6.46-1.7l-6.54-1.67v-2.07a11.26,11.26,0,0,1,.05-2l3.51,1c9.08,2.52,12.13,3.4,12.66,3.65a3,3,0,0,1,1.77,2,4,4,0,0,1,0,1.46,2.22,2.22,0,0,1-.7,1.17,2.73,2.73,0,0,1-.83.61c-.59.28-1.55.56-8.07,2.34l-2.86.78s1.46.45,3.33,1c4.12,1.13,6.24,1.72,6.82,1.9a3.15,3.15,0,0,1,2.31,2.08A4.2,4.2,0,0,1,552.77,188.66Zm-6.31-21.42h-6.24v-3.89H552.7v3.89Zm0-7.82h-6.24v-3.89H552.7v3.89Zm-8.4,6.42a2.28,2.28,0,0,1-1.82,1.76,2.19,2.19,0,0,1-2.45-1.62,2.69,2.69,0,0,1,.19-1.77,2.87,2.87,0,0,1,.88-.92,2.18,2.18,0,0,1,2.84.7A2.7,2.7,0,0,1,538.06,165.84Zm0-7.82a2.19,2.19,0,0,1-4.27.14,2.69,2.69,0,0,1,.19-1.77,2.77,2.77,0,0,1,.86-.91,2.19,2.19,0,0,1,2.86.69A2.7,2.7,0,0,1,538.06,158Z"
       style="fill: #f4f4f4" />
  </g>
</svg>
