<svg height="351.86826" viewBox="0 0 3757.5637 2814.946" width="469.69547" xmlns="http://www.w3.org/2000/svg"><g fill="#f4f4f4" fill-opacity=".5" stroke-width="8" transform="translate(-385.35875 -136.82036)"><path d="m2887.256 1530.3195q0 2.56-.6187 4.3093-.9173 2.6027-2.944 2.6027-1.344 0-2.816-.6187-1.7707-.7467-1.9413-1.8347.5973 0 1.408.2134 1.8773.4906 2.3467.4906 1.8133 0 2.7306-1.8133.7254-1.4507.7254-3.4773 0-1.4294-.9387-4.0747-.9173-2.6667-.9173-3.712 0-.32.1706-.512.192-.2134.512-.2134.832 0 1.6214 3.84.6613 3.2427.6613 4.8001z"/><path d="m2895.4694 1532.4955q0 2.176-1.2587 3.4133-1.2587 1.2373-3.4773 1.2373-1.216 0-1.8774-.576-.6613-.576-.6613-1.7706 0-1.6854 2.1973-3.392 2.0907-1.6214 3.8614-1.6214.8106 0 1.0666 1.0027.1494.576.1494 1.7067zm-1.3014.5973q0-.256-.064-.4907-.043-.256-.1706-.576-.3414.2347-1.1307 1.152-.4053.4694-.704.6827 0-.4053.085-.6613.1707-.3627.2774-.6187-.9387 0-1.9627.7893-1.0027.7894-1.0027 1.7067 0 .6187.6827.6187 1.3013 0 2.5173-.64 1.472-.768 1.472-1.9627z"/><path d="m2904.2587 1533.3701q0 1.0454-.7893 2.3467-.896 1.472-1.856 1.472-.2773 0-.4693-.2987-.1707-.32-.1707-.6186 0-.384.8107-1.1947.832-.832.832-1.1307 0-.192-.064-.384-.064-.192-.085-.256-1.6.3627-3.264 1.8347-1.6427 1.472-2.496 1.664-.1707-.4693-.1707-.96 0-.5973.2774-1.2587.192-.4693.64-1.1306.7467-1.1307 1.5787-2.56.4266-.7467 1.472-2.5814 1.0666-1.8347 1.5573-2.6027.256-.384.448-.576.2773-.256.6613-.3413.256.085.3627.32.128.2347.128.5547 0 .7253-.9387 1.9627-1.7066 2.2186-1.7493 2.304-.96 1.4506-.96 2.624l.043.2133q1.1733-.576 1.3866-.6613.8747-.3627 1.4934-.3627.6826 0 1.0026.4693.32.448.32 1.152z"/><path d="m2914.1575 1532.1115q0 1.4506-.704 3.0933-.768 1.8133-1.8987 2.496-.2347-.2773-.4054-.6187-.1493-.3413-.1493-.6826 0-.3627 1.0667-2.1547.4693-.7893.4267-1.3867l-.021-.2773q-.7893.2347-2.7307 1.4293-1.92 1.1734-3.8826 2.3894-.2987 0-.5547-.2134-.2347-.2346-.2347-.512 0-.448 1.4294-3.008.4266-.768 1.536-2.6666.3413.448.448 1.0026.1066.5334.1066 1.28 0 .32 0 .4907 1.9627-1.1733 3.072-1.7707 1.2161-.6613 1.6641-.6613.2986 0 .5546.6827.2774.6826.2774 1.088z"/><path d="m2932.6962 1536.2501q0 .384-.3414.5974-.32.192-.7253.192-.3627 0-.9173-.085-1.2587-.192-1.6214-.192-.64 0-2.5173.1494-1.0667.085-1.536.085-1.3014 0-1.3014-1.3013 0-1.2374.8107-3.5414.448-1.3013 1.6853-4.2666 1.1094-2.6667 1.4081-3.7547.1066-.3414.1706-.448.1707-.256.4267-.256.4053 0 .6827.5973.2773.576.2773 1.0453 0 .7467-.8747 2.5174-.8746 1.7493-1.7067 3.4347-.9173 2.0053-.9173 3.0506 0 .5334.448.7467.32.1493.9387.1493.4693 0 1.6213-.1066 1.152-.128 1.536-.128.96 0 1.5787.2773.8747.384.8747 1.2373z"/><path d="m2940.6322 1532.4955q0 2.176-1.2587 3.4133-1.2586 1.2373-3.4773 1.2373-1.216 0-1.8774-.576-.6613-.576-.6613-1.7706 0-1.6854 2.1973-3.392 2.0907-1.6214 3.8614-1.6214.8107 0 1.0667 1.0027.1493.576.1493 1.7067zm-1.3013.5973q0-.256-.064-.4907-.043-.256-.1707-.576-.3413.2347-1.1307 1.152-.4053.4694-.704.6827 0-.4053.085-.6613.1706-.3627.2773-.6187-.9387 0-1.9627.7893-1.0027.7894-1.0027 1.7067 0 .6187.6827.6187 1.3014 0 2.5174-.64 1.472-.768 1.472-1.9627z"/><path d="m2949.6136 1532.0475q0 .6826-.3627 1.4506-.3413.768-.8747 1.28l-.021-.2986q0-.256.064-.7894.064-.5333.064-.7893 0-.3627-.1067-.5333-.1066-.192-.448-.192-1.0026 0-2.496 1.5573-1.6213 1.7067-3.2213 3.392-.128 0-.256-.021-.32-.085-.4267-.1067.064-.768.5333-1.7067 1.2587-2.5386 1.3014-2.7093.1706-.6827.256-1.0027.085-.32.2346-.6613.1707-.3627.384-.64.2347-.2987.5974-.448l.2133 2.56q.9173-.7467 1.408-1.152.9387-.7467 1.6214-.7467.6826 0 1.1093.448.4267.448.4267 1.1094z"/><path d="m2960.0883 1529.5728q0 .896-2.3894 2.368-2.304 1.408-3.3493 1.408-.4907 0-.6613-.3413-.1494-.3414-.1494-.96 0-.4054 0-.576 1.4294 0 2.6027-.4267 1.1733-.4267 2.048-1.408-.64-.2347-1.3013-.2347-1.5574 0-3.3067 1.1947-1.92 1.3013-1.92 2.7733 0 1.408 1.92 1.9627.2987.085 3.6053.5973 1.9414.2987 1.9414 1.0454 0 .32-.704.512-.704.2133-1.792.2133-2.7307 0-4.3094-.832-2.0907-1.1093-2.0907-3.5627 0-2.56 2.5601-4.0746 2.176-1.28 4.9493-1.28.832 0 1.5147.384.832.4693.832 1.2373z"/><path d="m2968.579 1525.7541q0 .4693-1.1307 1.9627-1.1307 1.4933-1.1307 2.2827 0 .4053.4694.8106 1.0666.9387 1.0666 1.152 0 .2774-.192.5334-.1706.256-.448.256-.2346 0-.6613-.256-.2987-.1707-1.152-.832-.32.6186-.4907.9386-.5973 1.1307-.8106 1.6427-.32.9813-.64 1.9627-.5547 1.3226-1.3867 1.3226l-.021-.4906q0-1.5147.9813-3.584.192-.384 1.0667-1.984-1.6854-.9174-3.712-.9174 0-.7893.32-1.152.3413-.384 1.1306-.384.7254 0 1.8134.256.5333.128 1.0666.256.4054-.128 1.1094-1.3866 1.728-3.0294 2.3466-3.4774.1707.2773.2774.5547.128.2773.128.5333z"/><path d="m2976.451 1533.3701q0 1.0454-.7893 2.3467-.896 1.472-1.856 1.472-.2774 0-.4694-.2987-.1706-.32-.1706-.6186 0-.384.8106-1.1947.8321-.832.8321-1.1307 0-.192-.064-.384-.064-.192-.085-.256-1.6.3627-3.264 1.8347-1.6427 1.472-2.496 1.664-.1707-.4693-.1707-.96 0-.5973.2774-1.2587.192-.4693.64-1.1306.7466-1.1307 1.5786-2.56.4267-.7467 1.472-2.5814 1.0667-1.8347 1.5574-2.6027.256-.384.448-.576.2773-.256.6613-.3413.256.085.3627.32.128.2347.128.5547 0 .7253-.9387 1.9627-1.7067 2.2186-1.7493 2.304-.96 1.4506-.96 2.624l.043.2133q1.1734-.576 1.3867-.6613.8747-.3627 1.4934-.3627.6826 0 1.0026.4693.32.448.32 1.152z"/><path d="m2993.9658 1526.4154q0 1.0027-1.0667 2.6881-.6827 1.0666-2.24 3.072-1.5573 1.984-1.9413 2.6026.064.021 1.6.512 1.5573.4694 1.5573 1.7067-.64.1067-1.2587.192l-.2346-.021v-.1707q-.3414-.085-.5547-.085-.4053 0-1.28.128-.8747.128-1.3227.128-.576 0-.9386-.2134-.3627-.2133-.3627-.768 0-.448 1.6427-2.5386 3.072-3.904 3.0933-3.9467 1.664-2.2614 1.664-3.0294 0-.2986-.2133-.448-.192-.1493-.7894-.1493-.4053 0-1.6853.7893-.6187.384-1.0027.384l-.3626-.064q-.128-.085-.2774-.32-.1493-.256-.1493-.4053 0-.896 1.728-1.6427 1.472-.64 2.56-.64.9173 0 1.408.6827.4267.5973.4267 1.5573z"/><path d="m3006.7871 1530.2555q0 2.5813-2.7947 4.5653-2.56 1.8133-5.2693 1.8133-1.344 0-2.1333-.6826-.7894-.6827-.7894-1.984 0-2.9014 2.5387-5.0347 2.4107-2.0267 5.3973-2.0267 1.5147 0 2.2827.896.768.896.768 2.4534zm-1.3013.4906q0-.9813-1.1094-1.472-.832-.3626-1.984-.3626-1.6853 0-3.52 1.6426-1.8346 1.6427-1.8346 3.3067 0 .6827.3413.9813.3627.2774 1.088.2774 2.0907 0 4.352-1.152 2.6667-1.3654 2.6667-3.2214z"/><path d="m3016.5578 1526.4154q0 1.0027-1.0666 2.6881-.6827 1.0666-2.24 3.072-1.5574 1.984-1.9414 2.6026.064.021 1.6.512 1.5574.4694 1.5574 1.7067-.64.1067-1.2587.192l-.2347-.021v-.1707q-.3413-.085-.5546-.085-.4054 0-1.28.128-.8747.128-1.3227.128-.576 0-.9387-.2134-.3626-.2133-.3626-.768 0-.448 1.6426-2.5386 3.072-3.904 3.0934-3.9467 1.664-2.2614 1.664-3.0294 0-.2986-.2134-.448-.192-.1493-.7893-.1493-.4053 0-1.6853.7893-.6187.384-1.0027.384l-.3627-.064q-.128-.085-.2773-.32-.1493-.256-.1493-.4053 0-.896 1.728-1.6427 1.472-.64 2.56-.64.9173 0 1.408.6827.4266.5973.4266 1.5573z"/><path d="m3026.3712 1526.4154q0 1.0027-1.0667 2.6881-.6827 1.0666-2.24 3.072-1.5573 1.984-1.9413 2.6026.064.021 1.6.512 1.5573.4694 1.5573 1.7067-.64.1067-1.2587.192l-.2346-.021v-.1707q-.3414-.085-.5547-.085-.4053 0-1.28.128-.8747.128-1.3227.128-.576 0-.9386-.2134-.3627-.2133-.3627-.768 0-.448 1.6427-2.5386 3.072-3.904 3.0933-3.9467 1.664-2.2614 1.664-3.0294 0-.2986-.2133-.448-.192-.1493-.7894-.1493-.4053 0-1.6853.7893-.6187.384-1.0027.384l-.3626-.064q-.128-.085-.2774-.32-.1493-.256-.1493-.4053 0-.896 1.728-1.6427 1.472-.64 2.56-.64.9173 0 1.408.6827.4267.5973.4267 1.5573z"/></g><g fill="none" stroke="#f4f4f4"><g transform="translate(-385.35875 -136.82036)"><path d="m2263.8117 2947.9869h1850.7875c13.5972 0 24.5438-10.9465 24.5438-24.5438v-2756.93531c0-13.59727-10.9466-24.5438-24.5438-24.5438h-1849.7242m-.4055 2806.02291h-1850.78743c-13.59726 0-24.54379-10.9465-24.54379-24.5438v-2756.93531c0-13.59727 10.94653-24.5438 24.54379-24.5438h1849.72413" stroke-width="16"/><path d="m2263.7808 1171.5924h1703.8702c13.5973 0 24.5438-11.4289 24.5438-25.6255v-1002.49025m-1727.6944 1028.11575h-1703.87017c-13.59727 0-24.5438-11.4289-24.5438-25.6255v-1003.71535" stroke-width="16"/><path d="m2264.2074 2637.3269h1662.0073c17.5585 0 31.6939-14.1355 31.6939-31.6939v-1027.9994c0-17.5584-14.1354-31.6939-31.6939-31.6939h-1662.7791m.6382 1091.3872h-1662.0073c-17.55841 0-31.69388-14.1355-31.69388-31.6939v-1027.9994c0-17.5584 14.13547-31.6939 31.69388-31.6939h1662.7791" stroke-width="8"/><path d="m864.33521 730.50702h1633.17879v138.53697h-1633.17879zm2754.98319-589.90546-2754.98246 1.21485v713.32226c0 7.70304 6.20125 13.90625 13.90429 13.90625h2727.17387c1.6496 0 3.1787-.41092 4.6445-.93359h334.5156v-140.44336h-325.2558z" stroke-width="16"/><rect height="588.54297" rx="13.904374" stroke-width="16" width="1121.8051" x="2497.5139" y="141.96399"/><g stroke-width="8"><rect height="117.6322" rx="13.904401" ry="13.9044" width="633.05664" x="2718.8188" y="346.91382"/><path d="m866.14264 279.43231h2753.1763v244.83492h-2753.1763z"/><path d="m2821.9962 625.08786 454.8-.43313"/><path d="m2821.9962 590.58674 454.8.55689-53.2397-28.86536"/><rect height="51.129669" rx="9.12518" width="191.40082" x="1657.4089" y="1458.4689"/><rect height="51.129669" rx="9.12518" width="191.40082" x="1427.4089" y="1458.4689"/><rect height="51.129669" rx="9.12518" width="191.40082" x="1197.4089" y="1458.4689"/><rect height="51.129669" rx="9.12518" width="191.40082" x="967.40887" y="1458.4689"/><rect height="51.129669" rx="9.12518" width="191.40082" x="737.40887" y="1458.4689"/></g><g stroke-width="16"><rect height="81.061691" rx="9.12518" width="155.62959" x="2591.6848" y="1418.3109"/><rect height="81.061691" rx="9.12518" width="155.62959" x="3075.6848" y="1418.3109"/><rect height="81.061691" rx="9.12518" width="273.10178" x="2774.9485" y="1418.3109"/><rect height="81.061691" rx="9.12518" width="155.62959" x="3393.6848" y="1418.3109"/></g><rect height="107.62632" rx="9.12518" stroke-width="8" width="240.81096" x="644.98285" y="2694.312"/><rect height="62.836807" rx="9.12518" stroke-width="8" width="145.60905" x="3691.8267" y="765.75488"/><rect height="24" opacity=".98" rx="2.79331" stroke-width="8" width="24" x="3871.4021" y="782.9339"/></g><g stroke-width="16"><g><rect height="118.7" opacity=".98" rx="14.431921" ry="14.43192" width="1294.7001" x="951.09735" y="2306.30344"/><rect height="118.7" opacity=".98" rx="14.43192" width="118.7" x="2295.09705" y="2306.30344"/><rect height="118.7" opacity=".98" rx="14.43192" width="118.7" x="783.09705" y="2306.30344"/><rect height="118.7" opacity=".98" rx="14.43192" width="118.7" x="615.09706" y="2306.30344"/></g><g><rect height="118.7" opacity=".98" rx="14.43192" width="118.7" x="1959.09705" y="2138.30344"/><rect height="118.7" opacity=".98" rx="14.43192" width="118.7" x="1791.09705" y="2138.30344"/><rect height="118.7" opacity=".98" rx="14.43192" width="118.7" x="1623.09705" y="2138.30344"/><rect height="118.7" opacity=".98" rx="14.43192" width="118.7" x="1455.09705" y="2138.30344"/><rect height="118.7" opacity=".98" rx="14.43192" width="118.7" x="1287.09705" y="2138.30344"/><rect height="118.7" opacity=".98" rx="14.43192" width="118.7" x="1119.09705" y="2138.30344"/><rect height="118.7" opacity=".98" rx="14.43192" width="118.7" x="951.09705" y="2138.30344"/><rect height="118.7" opacity=".98" rx="14.43192" width="118.7" x="783.09705" y="2138.30344"/><rect height="118.7" opacity=".98" rx="14.43192" width="118.7" x="615.09706" y="2138.30344"/><rect height="118.7" opacity=".98" rx="14.43192" width="322.69998" x="243.09706" y="2138.30344"/><rect height="118.7" opacity=".98" rx="14.43192" width="322.69998" x="2463.09705" y="2138.30344"/><rect height="118.7" opacity=".98" rx="14.43192" width="118.7" x="2295.09705" y="2138.30344"/><rect height="118.7" opacity=".98" rx="14.43192" width="118.7" x="2127.09705" y="2138.30344"/></g><g transform="translate(-281.35875 -304.82036)"><rect height="118.7" opacity=".98" rx="14.43192" width="118.7" x="2330.4558" y="2275.1238"/><rect height="118.7" opacity=".98" rx="14.43192" width="118.7" x="2162.4558" y="2275.1238"/><rect height="118.7" opacity=".98" rx="14.43192" width="118.7" x="1994.4558" y="2275.1238"/><rect height="118.7" opacity=".98" rx="14.43192" width="118.7" x="1826.4558" y="2275.1238"/><rect height="118.7" opacity=".98" rx="14.43192" width="118.7" x="1658.4558" y="2275.1238"/><rect height="118.7" opacity=".98" rx="14.43192" width="118.7" x="1490.4558" y="2275.1238"/><rect height="118.7" opacity=".98" rx="14.43192" width="118.7" x="1322.4558" y="2275.1238"/><rect height="118.7" opacity=".98" rx="14.43192" width="118.7" x="1154.4558" y="2275.1238"/><rect height="118.7" opacity=".98" rx="14.43192" width="118.7" x="986.45581" y="2275.1238"/><rect height="118.7" opacity=".98" rx="14.43192" width="118.7" x="818.45581" y="2275.1238"/><path d="m3067.1559 2379.3919c0 7.9952-6.4367 14.4319-14.4319 14.4319h-203.8363c-7.9953 0-14.4319-6.4367-14.4319-14.4319v-89.8362c0-7.9953 6.4366-14.4319 14.4319-14.4319h111.3621l.206-3.7319v-149.8362c0-7.9953 6.4366-14.4319 14.4319-14.4319h77.8362c7.9953 0 14.4319 6.4366 14.4319 14.4319v89.8362l.0001 78.1638z" opacity=".98"/><rect height="118.7" opacity=".98" rx="14.43192" width="118.7" x="2666.4558" y="2275.1238"/><rect height="118.7" opacity=".98" rx="14.43192" width="118.7" x="2498.4558" y="2275.1238"/><rect height="118.7" opacity=".98" rx="14.43192" width="244.7" x="524.45581" y="2275.1238"/></g><g><rect height="118.7" opacity=".98" rx="14.43192" width="118.7" x="2007.09705" y="1802.30344"/><rect height="118.7" opacity=".98" rx="14.43192" width="118.7" x="1839.09705" y="1802.30344"/><rect height="118.7" opacity=".98" rx="14.43192" width="118.7" x="1671.09705" y="1802.30344"/><rect height="118.7" opacity=".98" rx="14.43192" width="118.7" x="1503.09705" y="1802.30344"/><rect height="118.7" opacity=".98" rx="14.43192" width="118.7" x="1335.09705" y="1802.30344"/><rect height="118.7" opacity=".98" rx="14.43192" width="118.7" x="1167.09705" y="1802.30344"/><rect height="118.7" opacity=".98" rx="14.43192" width="118.7" x="999.09705" y="1802.30344"/><rect height="118.7" opacity=".98" rx="14.43192" width="118.7" x="831.09705" y="1802.30344"/><rect height="118.7" opacity=".98" rx="14.43192" width="118.7" x="663.09706" y="1802.30344"/><rect height="118.7" opacity=".98" rx="14.43192" width="118.7" x="495.09706" y="1802.30344"/><rect height="118.7" opacity=".98" rx="14.43192" width="118.7" x="2511.09705" y="1802.30344"/><rect height="118.7" opacity=".98" rx="14.43192" width="118.7" x="2343.09705" y="1802.30344"/><rect height="118.7" opacity=".98" rx="14.43192" width="118.7" x="2175.09705" y="1802.30344"/><rect height="118.7" opacity=".98" rx="14.431921" ry="14.43192" width="202.7" x="243.09706" y="1802.30344"/></g><g><rect height="118.7" opacity=".98" rx="14.43192" width="118.7" x="2895.09705" y="2138.30344"/><rect height="118.7" opacity=".98" rx="14.43192" width="118.7" x="3063.09705" y="2138.30344"/><rect height="118.7" opacity=".98" rx="14.43192" width="118.7" x="3231.09705" y="2138.30344"/><rect height="118.7" opacity=".98" rx="14.43192" width="118.7" x="3399.09705" y="2138.30344"/><rect height="118.7" opacity=".98" rx="14.43192" width="118.7" x="2895.09705" y="2306.30344"/><rect height="118.7" opacity=".98" rx="14.43192" width="118.7" x="3063.09705" y="2306.30344"/><rect height="118.7" opacity=".98" rx="14.43192" width="118.7" x="3231.09705" y="2306.30344"/><rect height="118.7" opacity=".98" rx="14.43192" width="118.7" x="3399.09705" y="2306.30344"/><rect height="118.7" opacity=".98" rx="14.43192" width="118.7" x="2895.09705" y="1800.30344"/><rect height="118.7" opacity=".98" rx="14.43192" width="118.7" x="3063.09705" y="1800.30344"/><rect height="118.7" opacity=".98" rx="14.43192" width="118.7" x="3231.09705" y="1800.30344"/><rect height="118.7" opacity=".98" rx="14.43192" width="118.7" x="3399.09705" y="1800.30344"/><rect height="118.7" opacity=".98" rx="14.43192" width="118.7" x="2895.09705" y="1968.30344"/><rect height="118.7" opacity=".98" rx="14.43192" width="118.7" x="3063.09705" y="1968.30344"/><rect height="118.7" opacity=".98" rx="14.43192" width="118.7" x="3231.09705" y="1968.30344"/><rect height="118.7" opacity=".98" rx="14.43192" width="118.7" x="3399.09705" y="1968.30344"/><rect height="118.7" opacity=".98" rx="14.43192" width="118.7" x="2895.09705" y="1464.30344"/><rect height="118.7" opacity=".98" rx="14.43192" width="118.7" x="3063.09705" y="1464.30344"/><rect height="118.7" opacity=".98" rx="14.43192" width="118.7" x="3231.09705" y="1464.30344"/><rect height="118.7" opacity=".98" rx="14.43192" width="118.7" x="3399.09705" y="1464.30344"/><rect height="118.7" opacity=".98" rx="14.43192" width="118.7" x="2895.09705" y="1632.30344"/><rect height="118.7" opacity=".98" rx="14.43192" width="118.7" x="3063.09705" y="1632.30344"/><rect height="118.7" opacity=".98" rx="14.43192" width="118.7" x="3231.09705" y="1632.30344"/><rect height="118.7" opacity=".98" rx="14.43192" width="118.7" x="3399.09705" y="1632.30344"/></g><g><rect height="118.7" opacity=".98" rx="14.43192" width="118.7" x="1923.09705" y="1634.30344"/><rect height="118.7" opacity=".98" rx="14.43192" width="118.7" x="1755.09705" y="1634.30344"/><rect height="118.7" opacity=".98" rx="14.43192" width="118.7" x="1587.09705" y="1634.30344"/><rect height="118.7" opacity=".98" rx="14.43192" width="118.7" x="1419.09705" y="1634.30344"/><rect height="118.7" opacity=".98" rx="14.43192" width="118.7" x="1251.09705" y="1634.30344"/><rect height="118.7" opacity=".98" rx="14.43192" width="118.7" x="1083.09705" y="1634.30344"/><rect height="118.7" opacity=".98" rx="14.43192" width="118.7" x="915.09705" y="1634.30344"/><rect height="118.7" opacity=".98" rx="14.43192" width="118.7" x="747.09705" y="1634.30344"/><rect height="118.7" opacity=".98" rx="14.43192" width="118.7" x="579.09706" y="1634.30344"/><rect height="118.7" opacity=".98" rx="14.43192" width="118.7" x="411.09706" y="1634.30344"/><rect height="118.7" opacity=".98" rx="14.43192" width="118.7" x="2427.09705" y="1634.30344"/><rect height="118.7" opacity=".98" rx="14.43192" width="118.7" x="2259.09705" y="1634.30344"/><rect height="118.7" opacity=".98" rx="14.43192" width="118.7" x="2091.09705" y="1634.30344"/><rect height="118.7" opacity=".98" rx="14.43192" width="118.7" x="243.09706" y="1634.30344"/><rect height="118.7" opacity=".98" rx="14.43192" width="190.70007" x="2595.09735" y="1634.30344"/></g><g><rect height="118.7" opacity=".98" rx="14.431921" ry="14.43192" width="226.789" x="517.09706" y="1466.30344"/><rect height="118.7" opacity=".98" rx="14.431918" ry="14.43192" width="226.78899" x="243.09706" y="1466.30344"/><rect height="118.7" opacity=".98" rx="14.431921" ry="14.43192" width="226.789" x="1067.09705" y="1466.30344"/><rect height="118.7" opacity=".98" rx="14.431918" ry="14.43192" width="226.78899" x="793.09705" y="1466.30344"/><rect height="118.7" opacity=".98" rx="14.431921" ry="14.43192" width="226.789" x="1343.09705" y="1466.30344"/></g></g></g></svg>