<svg height="350.11914" viewBox="0 0 598.189 350.11913" width="598.18903" xmlns="http://www.w3.org/2000/svg"><g fill="#f4f4f4" transform="matrix(.45297469 0 0 .45297469 127.82078 205.12649)"><path d="m98.749 320.09c-12.79 0-23.154-10.365-23.156-23.154l.002-99.69c0-12.787 10.364-23.154 23.154-23.154h99.692c12.788 0 23.152 10.367 23.154 23.154v99.69c-.002 12.789-10.367 23.154-23.154 23.154zm-21.154-122.845v99.69c.021 11.685 9.471 21.133 21.154 21.154h99.692c11.681-.021 21.131-9.47 21.152-21.154l.002-99.69c-.023-11.683-9.473-21.133-21.154-21.154h-99.692c-11.683.021-21.133 9.472-21.154 21.154z"/><path d="m112.703 291.706c-8.684-.002-15.723-7.041-15.723-15.726v-71.781c0-8.685 7.039-15.724 15.723-15.726h71.782c8.685.002 15.724 7.041 15.724 15.726v71.781c0 8.685-7.039 15.724-15.724 15.726zm-13.724-87.507v71.781c.015 7.58 6.145 13.71 13.724 13.725h71.782c7.579-.015 13.711-6.145 13.724-13.725v-71.781c-.013-7.58-6.145-13.71-13.724-13.725h-71.782c-7.577.015-13.709 6.148-13.724 13.725z"/></g><g fill="#f4f4f4" transform="matrix(.45297469 0 0 .45297469 127.82078 205.12649)"><path d="m253.748 320.09c-12.787 0-23.154-10.365-23.154-23.154v-99.69c0-12.787 10.367-23.154 23.154-23.154h99.692c12.787 0 23.153 10.367 23.153 23.154v99.69c0 12.789-10.366 23.154-23.153 23.154zm-21.154-122.845v99.69c.021 11.685 9.471 21.133 21.154 21.154h99.692c11.683-.021 21.133-9.47 21.153-21.154v-99.69c-.021-11.683-9.471-21.133-21.153-21.154h-99.692c-11.683.021-21.133 9.472-21.154 21.154z"/><path d="m267.704 291.706c-8.684-.002-15.724-7.041-15.724-15.726l-.002-71.781c.002-8.685 7.042-15.724 15.726-15.726h71.782c8.685.002 15.724 7.041 15.724 15.726v71.781c0 8.685-7.041 15.724-15.724 15.726zm-13.724-87.507v71.781c.012 7.58 6.145 13.71 13.724 13.725h71.782c7.579-.015 13.709-6.145 13.724-13.725v-71.781c-.015-7.58-6.146-13.71-13.724-13.725h-71.782c-7.579.015-13.712 6.148-13.724 13.725z"/></g><g transform="translate(-145.593 670.84315)"><g fill="#f4f4f4" transform="matrix(.45297469 0 0 .45297469 273.59836 -536.75735)"><path d="m98.749 320.09c-12.79 0-23.154-10.365-23.156-23.154l.002-99.69c0-12.787 10.364-23.154 23.154-23.154h99.692c12.788 0 23.152 10.367 23.154 23.154v99.69c-.002 12.789-10.367 23.154-23.154 23.154zm-21.154-122.845v99.69c.021 11.685 9.471 21.133 21.154 21.154h99.692c11.681-.021 21.131-9.47 21.152-21.154l.002-99.69c-.023-11.683-9.473-21.133-21.154-21.154h-99.692c-11.683.021-21.133 9.472-21.154 21.154z"/><path d="m112.703 291.706c-8.684-.002-15.723-7.041-15.723-15.726v-71.781c0-8.685 7.039-15.724 15.723-15.726h71.782c8.685.002 15.724 7.041 15.724 15.726v71.781c0 8.685-7.039 15.724-15.724 15.726zm-13.724-87.507v71.781c.015 7.58 6.145 13.71 13.724 13.725h71.782c7.579-.015 13.711-6.145 13.724-13.725v-71.781c-.013-7.58-6.145-13.71-13.724-13.725h-71.782c-7.577.015-13.709 6.148-13.724 13.725z"/></g><g fill="#f4f4f4" transform="matrix(.45297469 0 0 .45297469 273.59836 -536.75735)"><path d="m253.748 320.09c-12.787 0-23.154-10.365-23.154-23.154v-99.69c0-12.787 10.367-23.154 23.154-23.154h99.692c12.787 0 23.153 10.367 23.153 23.154v99.69c0 12.789-10.366 23.154-23.153 23.154zm-21.154-122.845v99.69c.021 11.685 9.471 21.133 21.154 21.154h99.692c11.683-.021 21.133-9.47 21.153-21.154v-99.69c-.021-11.683-9.471-21.133-21.153-21.154h-99.692c-11.683.021-21.133 9.472-21.154 21.154z"/><path d="m267.704 291.706c-8.684-.002-15.724-7.041-15.724-15.726l-.002-71.781c.002-8.685 7.042-15.724 15.726-15.726h71.782c8.685.002 15.724 7.041 15.724 15.726v71.781c0 8.685-7.041 15.724-15.724 15.726zm-13.724-87.507v71.781c.012 7.58 6.145 13.71 13.724 13.725h71.782c7.579-.015 13.709-6.145 13.724-13.725v-71.781c-.015-7.58-6.146-13.71-13.724-13.725h-71.782c-7.579.015-13.712 6.148-13.724 13.725z"/></g><g fill="#f4f4f4" transform="matrix(.45297469 0 0 .45297469 273.59836 -536.75735)"><path d="m408.749 320.09c-12.789 0-23.154-10.365-23.156-23.154l.002-99.69c0-12.788 10.365-23.153 23.154-23.153h99.69c12.788 0 23.153 10.365 23.153 23.153v99.69c0 12.789-10.365 23.154-23.153 23.154zm-21.154-122.845v99.69c.021 11.684 9.471 21.134 21.154 21.154h99.69c11.683-.021 21.133-9.471 21.153-21.154v-99.69c-.021-11.683-9.471-21.133-21.153-21.153h-99.69c-11.684.02-21.134 9.471-21.154 21.153z"/><path d="m406.979 275.98v-71.78c0-8.687 7.039-15.726 15.726-15.726h71.78c8.687 0 15.723 7.039 15.723 15.726v71.78c0 8.685-7.039 15.724-15.723 15.724l-71.78.002c-8.685-.002-15.726-7.041-15.726-15.726zm1.999-71.78v71.78c.015 7.581 6.146 13.71 13.727 13.725h71.78c7.579-.015 13.711-6.144 13.727-13.725l-.003-71.78c-.013-7.579-6.145-13.711-13.724-13.726h-71.78c-7.58.015-13.713 6.147-13.727 13.726z"/></g><g fill="#f4f4f4" transform="matrix(.45297469 0 0 .45297469 273.50606 -607.23308)"><path d="m98.749 320.09c-12.79 0-23.154-10.365-23.156-23.154l.002-99.69c0-12.787 10.364-23.154 23.154-23.154h99.692c12.788 0 23.152 10.367 23.154 23.154v99.69c-.002 12.789-10.367 23.154-23.154 23.154zm-21.154-122.845v99.69c.021 11.685 9.471 21.133 21.154 21.154h99.692c11.681-.021 21.131-9.47 21.152-21.154l.002-99.69c-.023-11.683-9.473-21.133-21.154-21.154h-99.692c-11.683.021-21.133 9.472-21.154 21.154z"/><path d="m112.703 291.706c-8.684-.002-15.723-7.041-15.723-15.726v-71.781c0-8.685 7.039-15.724 15.723-15.726h71.782c8.685.002 15.724 7.041 15.724 15.726v71.781c0 8.685-7.039 15.724-15.724 15.726zm-13.724-87.507v71.781c.015 7.58 6.145 13.71 13.724 13.725h71.782c7.579-.015 13.711-6.145 13.724-13.725v-71.781c-.013-7.58-6.145-13.71-13.724-13.725h-71.782c-7.577.015-13.709 6.148-13.724 13.725z"/></g><g fill="#f4f4f4" transform="matrix(.45297469 0 0 .45297469 273.50606 -607.23308)"><path d="m253.748 320.09c-12.787 0-23.154-10.365-23.154-23.154v-99.69c0-12.787 10.367-23.154 23.154-23.154h99.692c12.787 0 23.153 10.367 23.153 23.154v99.69c0 12.789-10.366 23.154-23.153 23.154zm-21.154-122.845v99.69c.021 11.685 9.471 21.133 21.154 21.154h99.692c11.683-.021 21.133-9.47 21.153-21.154v-99.69c-.021-11.683-9.471-21.133-21.153-21.154h-99.692c-11.683.021-21.133 9.472-21.154 21.154z"/><path d="m267.704 291.706c-8.684-.002-15.724-7.041-15.724-15.726l-.002-71.781c.002-8.685 7.042-15.724 15.726-15.726h71.782c8.685.002 15.724 7.041 15.724 15.726v71.781c0 8.685-7.041 15.724-15.724 15.726zm-13.724-87.507v71.781c.012 7.58 6.145 13.71 13.724 13.725h71.782c7.579-.015 13.709-6.145 13.724-13.725v-71.781c-.015-7.58-6.146-13.71-13.724-13.725h-71.782c-7.579.015-13.712 6.148-13.724 13.725z"/></g><g fill="#f4f4f4" transform="matrix(.45297469 0 0 .45297469 273.69064 -678.27378)"><path d="m98.749 320.09c-12.79 0-23.154-10.365-23.156-23.154l.002-99.69c0-12.787 10.364-23.154 23.154-23.154h99.692c12.788 0 23.152 10.367 23.154 23.154v99.69c-.002 12.789-10.367 23.154-23.154 23.154zm-21.154-122.845v99.69c.021 11.685 9.471 21.133 21.154 21.154h99.692c11.681-.021 21.131-9.47 21.152-21.154l.002-99.69c-.023-11.683-9.473-21.133-21.154-21.154h-99.692c-11.683.021-21.133 9.472-21.154 21.154z"/><path d="m112.703 291.706c-8.684-.002-15.723-7.041-15.723-15.726v-71.781c0-8.685 7.039-15.724 15.723-15.726h71.782c8.685.002 15.724 7.041 15.724 15.726v71.781c0 8.685-7.039 15.724-15.724 15.726zm-13.724-87.507v71.781c.015 7.58 6.145 13.71 13.724 13.725h71.782c7.579-.015 13.711-6.145 13.724-13.725v-71.781c-.013-7.58-6.145-13.71-13.724-13.725h-71.782c-7.577.015-13.709 6.148-13.724 13.725z"/></g><g fill="#f4f4f4" transform="matrix(.45297469 0 0 .45297469 273.69064 -678.27378)"><path d="m253.748 320.09c-12.787 0-23.154-10.365-23.154-23.154v-99.69c0-12.787 10.367-23.154 23.154-23.154h99.692c12.787 0 23.153 10.367 23.153 23.154v99.69c0 12.789-10.366 23.154-23.153 23.154zm-21.154-122.845v99.69c.021 11.685 9.471 21.133 21.154 21.154h99.692c11.683-.021 21.133-9.47 21.153-21.154v-99.69c-.021-11.683-9.471-21.133-21.153-21.154h-99.692c-11.683.021-21.133 9.472-21.154 21.154z"/><path d="m267.704 291.706c-8.684-.002-15.724-7.041-15.724-15.726l-.002-71.781c.002-8.685 7.042-15.724 15.726-15.726h71.782c8.685.002 15.724 7.041 15.724 15.726v71.781c0 8.685-7.041 15.724-15.724 15.726zm-13.724-87.507v71.781c.012 7.58 6.145 13.71 13.724 13.725h71.782c7.579-.015 13.709-6.145 13.724-13.725v-71.781c-.015-7.58-6.146-13.71-13.724-13.725h-71.782c-7.579.015-13.712 6.148-13.724 13.725z"/></g><g fill="#f4f4f4" transform="matrix(.45297469 0 0 .45297469 273.69064 -678.27378)"><path d="m408.749 320.09c-12.789 0-23.154-10.365-23.156-23.154l.002-99.69c0-12.788 10.365-23.153 23.154-23.153h99.69c12.788 0 23.153 10.365 23.153 23.153v99.69c0 12.789-10.365 23.154-23.153 23.154zm-21.154-122.845v99.69c.021 11.684 9.471 21.134 21.154 21.154h99.69c11.683-.021 21.133-9.471 21.153-21.154v-99.69c-.021-11.683-9.471-21.133-21.153-21.153h-99.69c-11.684.02-21.134 9.471-21.154 21.153z"/><path d="m406.979 275.98v-71.78c0-8.687 7.039-15.726 15.726-15.726h71.78c8.687 0 15.723 7.039 15.723 15.726v71.78c0 8.685-7.039 15.724-15.723 15.724l-71.78.002c-8.685-.002-15.726-7.041-15.726-15.726zm1.999-71.78v71.78c.015 7.581 6.146 13.71 13.727 13.725h71.78c7.579-.015 13.711-6.144 13.727-13.725l-.003-71.78c-.013-7.579-6.145-13.711-13.724-13.726h-71.78c-7.58.015-13.713 6.147-13.727 13.726z"/></g><g fill="#f4f4f4" transform="matrix(.45297469 0 0 .45297469 273.50606 -607.23308)"><path d="m408.749 320.09c-12.789 0-23.154-10.365-23.156-23.154l.002-99.69c0-12.788 10.365-23.153 23.154-23.153h99.69c12.788 0 23.153 10.365 23.153 23.153v99.69c0 12.789-10.365 23.154-23.153 23.154zm-21.154-122.845v99.69c.021 11.684 9.471 21.134 21.154 21.154h99.69c11.683-.021 21.133-9.471 21.153-21.154v-99.69c-.021-11.683-9.471-21.133-21.153-21.153h-99.69c-11.684.02-21.134 9.471-21.154 21.153z"/><path d="m406.979 275.98v-71.78c0-8.687 7.039-15.726 15.726-15.726h71.78c8.687 0 15.723 7.039 15.723 15.726v71.78c0 8.685-7.039 15.724-15.723 15.724l-71.78.002c-8.685-.002-15.726-7.041-15.726-15.726zm1.999-71.78v71.78c.015 7.581 6.146 13.71 13.727 13.725h71.78c7.579-.015 13.711-6.144 13.727-13.725l-.003-71.78c-.013-7.579-6.145-13.711-13.724-13.726h-71.78c-7.58.015-13.713 6.147-13.727 13.726z"/></g><g fill="#e6e6e6" transform="matrix(.45297469 0 0 .45297469 343.85555 -536.85173)"><path d="m408.749 477.41249c-12.789 0-23.154-10.365-23.156-23.154l.002-257.01249c0-12.788 10.365-23.153 23.154-23.153h99.69c12.788 0 23.153 10.365 23.153 23.153v257.01249c0 12.789-10.365 23.154-23.153 23.154zm-21.154-280.16749v257.01249c.021 11.684 9.471 21.134 21.154 21.154h99.69c11.683-.021 21.133-9.471 21.153-21.154v-257.01249c-.021-11.683-9.471-21.133-21.153-21.153h-99.69c-11.684.02-21.134 9.471-21.154 21.153z"/><path d="m406.979 394.57394v-141.59177c0-8.687 7.039-15.726 15.726-15.726h71.78c8.687 0 15.723 7.039 15.723 15.726v141.59177c0 8.685-7.039 15.724-15.723 15.724l-71.78.002c-8.685-.002-15.726-7.041-15.726-15.726zm1.999-141.59177v141.59177c.015 7.581 6.146 13.71 13.727 13.725h71.78c7.579-.015 13.711-6.144 13.727-13.725l-.003-141.59177c-.013-7.579-6.145-13.711-13.724-13.726h-71.78c-7.58.015-13.713 6.147-13.727 13.726z"/></g><g fill="#e6e6e6" transform="matrix(.45297469 0 0 .45297469 343.94782 -678.36817)"><path d="m408.749 320.09c-12.789 0-23.154-10.365-23.156-23.154l.002-99.69c0-12.788 10.365-23.153 23.154-23.153h99.69c12.788 0 23.153 10.365 23.153 23.153v99.69c0 12.789-10.365 23.154-23.153 23.154zm-21.154-122.845v99.69c.021 11.684 9.471 21.134 21.154 21.154h99.69c11.683-.021 21.133-9.471 21.153-21.154v-99.69c-.021-11.683-9.471-21.133-21.153-21.153h-99.69c-11.684.02-21.134 9.471-21.154 21.153z"/><path d="m406.979 275.98v-71.78c0-8.687 7.039-15.726 15.726-15.726h71.78c8.687 0 15.723 7.039 15.723 15.726v71.78c0 8.685-7.039 15.724-15.723 15.724l-71.78.002c-8.685-.002-15.726-7.041-15.726-15.726zm1.999-71.78v71.78c.015 7.581 6.146 13.71 13.727 13.725h71.78c7.579-.015 13.711-6.144 13.727-13.725l-.003-71.78c-.013-7.579-6.145-13.711-13.724-13.726h-71.78c-7.58.015-13.713 6.147-13.727 13.726z"/></g><g fill="#e6e6e6" transform="matrix(.45297469 0 0 .45297469 343.76326 -607.32748)"><path d="m408.749 320.09c-12.789 0-23.154-10.365-23.156-23.154l.002-99.69c0-12.788 10.365-23.153 23.154-23.153h99.69c12.788 0 23.153 10.365 23.153 23.153v99.69c0 12.789-10.365 23.154-23.153 23.154zm-21.154-122.845v99.69c.021 11.684 9.471 21.134 21.154 21.154h99.69c11.683-.021 21.133-9.471 21.153-21.154v-99.69c-.021-11.683-9.471-21.133-21.153-21.153h-99.69c-11.684.02-21.134 9.471-21.154 21.153z"/><path d="m406.979 275.98v-71.78c0-8.687 7.039-15.726 15.726-15.726h71.78c8.687 0 15.723 7.039 15.723 15.726v71.78c0 8.685-7.039 15.724-15.723 15.724l-71.78.002c-8.685-.002-15.726-7.041-15.726-15.726zm1.999-71.78v71.78c.015 7.581 6.146 13.71 13.727 13.725h71.78c7.579-.015 13.711-6.144 13.727-13.725l-.003-71.78c-.013-7.579-6.145-13.711-13.724-13.726h-71.78c-7.58.015-13.713 6.147-13.727 13.726z"/></g><g fill="#e6e6e6" transform="matrix(.45297469 0 0 .45297469 273.80176 -749.60846)"><path d="m253.748 320.09c-12.787 0-23.154-10.365-23.154-23.154v-99.69c0-12.787 10.367-23.154 23.154-23.154h99.692c12.787 0 23.153 10.367 23.153 23.154v99.69c0 12.789-10.366 23.154-23.153 23.154zm-21.154-122.845v99.69c.021 11.685 9.471 21.133 21.154 21.154h99.692c11.683-.021 21.133-9.47 21.153-21.154v-99.69c-.021-11.683-9.471-21.133-21.153-21.154h-99.692c-11.683.021-21.133 9.472-21.154 21.154z"/><path d="m267.704 291.706c-8.684-.002-15.724-7.041-15.724-15.726l-.002-71.781c.002-8.685 7.042-15.724 15.726-15.726h71.782c8.685.002 15.724 7.041 15.724 15.726v71.781c0 8.685-7.041 15.724-15.724 15.726zm-13.724-87.507v71.781c.012 7.58 6.145 13.71 13.724 13.725h71.782c7.579-.015 13.709-6.145 13.724-13.725v-71.781c-.015-7.58-6.146-13.71-13.724-13.725h-71.782c-7.579.015-13.712 6.148-13.724 13.725z"/></g><g fill="#e6e6e6" transform="matrix(.45297469 0 0 .45297469 273.80176 -749.60846)"><path d="m408.749 320.09c-12.789 0-23.154-10.365-23.156-23.154l.002-99.69c0-12.788 10.365-23.153 23.154-23.153h99.69c12.788 0 23.153 10.365 23.153 23.153v99.69c0 12.789-10.365 23.154-23.153 23.154zm-21.154-122.845v99.69c.021 11.684 9.471 21.134 21.154 21.154h99.69c11.683-.021 21.133-9.471 21.153-21.154v-99.69c-.021-11.683-9.471-21.133-21.153-21.153h-99.69c-11.684.02-21.134 9.471-21.154 21.153z"/><path d="m406.979 275.98v-71.78c0-8.687 7.039-15.726 15.726-15.726h71.78c8.687 0 15.723 7.039 15.723 15.726v71.78c0 8.685-7.039 15.724-15.723 15.724l-71.78.002c-8.685-.002-15.726-7.041-15.726-15.726zm1.999-71.78v71.78c.015 7.581 6.146 13.71 13.727 13.725h71.78c7.579-.015 13.711-6.144 13.727-13.725l-.003-71.78c-.013-7.579-6.145-13.711-13.724-13.726h-71.78c-7.58.015-13.713 6.147-13.727 13.726z"/></g><g fill="#e6e6e6" transform="matrix(.45297469 0 0 .45297469 344.05896 -749.70287)"><path d="m408.749 320.09c-12.789 0-23.154-10.365-23.156-23.154l.002-99.69c0-12.788 10.365-23.153 23.154-23.153h99.69c12.788 0 23.153 10.365 23.153 23.153v99.69c0 12.789-10.365 23.154-23.153 23.154zm-21.154-122.845v99.69c.021 11.684 9.471 21.134 21.154 21.154h99.69c11.683-.021 21.133-9.471 21.153-21.154v-99.69c-.021-11.683-9.471-21.133-21.153-21.153h-99.69c-11.684.02-21.134 9.471-21.154 21.153z"/><path d="m406.979 275.98v-71.78c0-8.687 7.039-15.726 15.726-15.726h71.78c8.687 0 15.723 7.039 15.723 15.726v71.78c0 8.685-7.039 15.724-15.723 15.724l-71.78.002c-8.685-.002-15.726-7.041-15.726-15.726zm1.999-71.78v71.78c.015 7.581 6.146 13.71 13.727 13.725h71.78c7.579-.015 13.711-6.144 13.727-13.725l-.003-71.78c-.013-7.579-6.145-13.711-13.724-13.726h-71.78c-7.58.015-13.713 6.147-13.727 13.726z"/></g><g fill="#f4f4f4"><path d="m145.97266 6767.5972q-5.19532 0-7.63672-3.7109-2.44141-3.7109-2.44141-11.582 0-7.8711 2.44141-11.6016 2.46093-3.7305 7.63672-3.7305 5.13671 0 7.59765 3.75 2.46094 3.7305 2.46094 11.543 0 7.8906-2.44141 11.6211-2.4414 3.7109-7.61718 3.7109zm0-27.6367q-3.33985 0-4.84375 2.6563-1.50391 2.6367-1.50391 9.6875 0 6.9921 1.50391 9.6484 1.5039 2.6562 4.84375 2.6562 3.33984 0 4.82421-2.6562 1.50391-2.6563 1.50391-9.6875 0-6.8945-1.48437-9.5898-1.48438-2.7149-4.84375-2.7149z" transform="matrix(.45297469 0 0 .45297469 274.08299 -3415.3915)"/><path d="m231.73047 6775.8316h-15.66406v-2.6953h6.13281v-20.2344h-6.13281v-2.3828q3.59375-.02 5.13671-1.0156 1.54297-1.0156 1.73829-3.2031h2.77343v26.8359h6.01563z" transform="matrix(.45297469 0 0 .45297469 238.89654 -3490.5997)"/><path d="m233.41016 6775.8316h-19.6875v-3.8086q3.125-2.6953 7.01171-6.2695 3.90625-3.5742 5.80079-6.2891 1.89453-2.7148 1.89453-5.4297 0-2.4023-1.60157-3.75-1.58203-1.3476-4.3164-1.3476-4.00391 0-7.8711 2.539h-.19531v-3.8086q3.94531-1.875 8.16406-1.875 4.45313 0 7.01172 2.168 2.5586 2.1484 2.5586 5.8789 0 1.9922-.66407 3.8086-.64453 1.8164-2.03125 3.5352-1.38671 1.7187-3.32031 3.6523-1.93359 1.9336-8.88672 7.8516h16.13282z" transform="matrix(.45297469 0 0 .45297469 309.39973 -3490.6674)"/><path d="m136.5 6765.7613v-3.9258h.3125q3.96484 2.6172 8.20312 2.6172 3.125 0 5-1.6992 1.89454-1.6992 1.89454-4.7266 0-2.8125-1.64063-4.1406-1.64062-1.3281-5.3125-1.3281h-1.71875v-3.0078h1.32813q3.16406 0 4.96093-1.3477 1.79688-1.3477 1.79688-3.7891 0-2.0703-1.58203-3.1836-1.5625-1.1328-4.31641-1.1328-3.96484 0-7.87109 2.5586h-.21485v-3.8476q3.94532-1.8555 8.1836-1.8555 4.55078 0 7.03125 1.9141 2.5 1.8945 2.5 5.1367 0 2.3828-1.66016 4.2578-1.66016 1.875-4.16016 2.3828v.3125q6.42579 1.1523 6.42579 7.4023 0 4.043-2.94922 6.6407-2.94922 2.5976-7.59766 2.5976-4.43359 0-8.61328-1.8359z" transform="matrix(.45297469 0 0 .45297469 414.79697 -3487.033)"/><path d="m234.07422 6767.355h-4.31641v8.4766h-3.51562v-8.4766h-14.16016v-4.1015l14.31641-16.8555h3.35937v18.0664h4.31641zm-7.83203-2.8906v-13.7695l-11.69922 13.7695z" transform="matrix(.45297469 0 0 .45297469 238.05044 -3560.9057)"/><path d="m214.23047 6774.7183v-3.9062h.3125q3.80859 2.4804 7.92969 2.4804 3.16406 0 5.05859-1.7968 1.91406-1.8164 1.91406-5 0-5.7813-7.92969-5.7813-2.26562 0-6.01562.7813v-15.0977h17.48047v3.1641h-13.96485v8.3398q2.57813-.2539 3.47657-.2539 5.2539 0 7.96875 2.2656 2.71484 2.2657 2.71484 6.6016 0 4.375-2.94922 7.1484-2.92969 2.7735-7.67578 2.7735-4.60937 0-8.32031-1.7188z" transform="matrix(.45297469 0 0 .45297469 309.04237 -3561.1113)"/><path d="m153.66797 6737.48v3.4571h-.23438q-1.64062-.8008-3.82812-.8008-4.31641 0-6.89453 2.7539-2.57813 2.7344-3.00782 7.6172 3.69141-2.207 7.1875-2.207 4.27735 0 6.9336 2.3828 2.67578 2.3632 2.67578 6.7968 0 4.4141-2.89063 7.2657-2.89062 2.8515-7.1875 2.8515-4.98046 0-7.7539-3.457-2.75391-3.4766-2.75391-10.0586 0-8.1055 3.69141-12.5781 3.71094-4.4922 10.58594-4.4922 2.07031 0 3.47656.4687zm-13.96485 15.5274q-.0781 1.6015-.0781 1.9336 0 4.6484 1.81641 7.1875 1.8164 2.5195 5.01953 2.5195 2.94922 0 4.6289-1.8359 1.67969-1.8555 1.67969-5.1758 0-2.7539-1.58203-4.5508-1.58203-1.7969-5.25391-1.7969-3.18359 0-6.23047 1.7188z" transform="matrix(.45297469 0 0 .45297469 414.13748 -3556.9205)"/><path d="m233.48828 6750.48-13.20312 25.3516h-3.92579l14.04297-26.2695h-16.8164v-3.1641h19.90234z" transform="matrix(.45297469 0 0 .45297469 239.11129 -3631.762)"/><path d="m218.41016 6760.2261v-.2343q-4.66797-2.5391-4.66797-6.5821 0-3.3398 2.69531-5.5078 2.69531-2.168 6.85547-2.168 4.3164 0 6.93359 2.0508 2.61719 2.0508 2.61719 5.3711 0 2.1485-1.30859 4.043-1.28907 1.875-3.59375 2.9297v.2539q5.68359 2.4414 5.68359 7.3047 0 3.789-2.94922 6.3086-2.94922 2.5-7.38281 2.5-4.70703 0-7.51953-2.4024-2.8125-2.4219-2.8125-6.3281 0-5.0977 5.44922-7.5391zm10.82031-7.0507q0-2.1094-1.6211-3.4571-1.62109-1.3476-4.33593-1.3476-2.57813 0-4.21875 1.2695-1.6211 1.25-1.6211 3.3008 0 2.2656 2.03125 3.7304 2.03125 1.4649 6.17188 2.7344 3.59375-2.3242 3.59375-6.2304zm-8.4375 7.7539q-4.1211 2.3242-4.1211 6.5625 0 2.832 1.875 4.5898 1.875 1.7383 4.78516 1.7383 2.98828 0 4.74609-1.5235 1.75782-1.5429 1.75782-4.2187 0-1.8164-.80078-2.9102-.80079-1.1132-2.34375-1.875-1.52344-.7617-5.89844-2.3632z" transform="matrix(.45297469 0 0 .45297469 309.23938 -3631.8513)"/><path d="m138.27734 6767.1089v-3.457h.23438q1.64062.7813 3.82812.7813 9.02344 0 9.92188-10.4493-3.90625 2.3438-7.1875 2.3438-4.45313 0-7.05078-2.4609-2.57813-2.4805-2.57813-6.7774 0-4.414 2.89063-7.2656 2.89062-2.8516 7.1875-2.8516 4.90234 0 7.69531 3.3789 2.8125 3.3594 2.8125 10.1368 0 8.125-3.69141 12.5976-3.6914 4.4727-10.58593 4.4727-2.03125 0-3.47657-.4493zm13.98438-15.5859.0586-1.7383q0-4.7656-1.75781-7.3047-1.75781-2.5586-5.07813-2.5586-2.91015 0-4.60937 1.875-1.69922 1.8555-1.69922 5.1368 0 2.8125 1.58203 4.6289 1.58203 1.7968 5.23438 1.7968 2.98828 0 6.26953-1.8359z" transform="matrix(.45297469 0 0 .45297469 414.81356 -3628.5546)"/><path d="m215.48047 6770.4996-5.50781 12.5586h-2.61719l3.4375-12.5586z" transform="matrix(.45297469 0 0 .45297469 314.4235 -3426.5623)"/></g><path d="m155.32812 6754.0621h-26.09375v-2.8907h26.09375z" fill="#e6e6e6" transform="matrix(.45297469 0 0 .45297469 486.64326 -3700.775)"/><path d="m235.55859 6764.4058h-10.76172v10.7617h-3.00781v-10.7617h-10.76172v-2.8906h10.76172v-10.7617h3.00781v10.7617h10.76172z" fill="#e6e6e6" transform="matrix(.45297469 0 0 .45297469 449.41684 -3633.6075)"/><path d="m233.58594 6757.6285-7.8711 4.2969 7.85157 4.375-1.34766 2.3828-7.67578-4.6485.17578 8.8867h-2.75391l.17578-8.8867-7.67578 4.6485-1.34765-2.3828 7.85156-4.375-7.87109-4.2969 1.36718-2.3828 7.67578 4.5703-.17578-8.8672h2.75391l-.17578 8.8672 7.67578-4.5703z" fill="#e6e6e6" transform="matrix(.45297469 0 0 .45297469 379.31836 -3704.5197)"/><path d="m665.97247-594.63806 34.0625-28.4375 1.71875 2.03125-34.0625 28.4375z" fill="#e6e6e6" transform="matrix(.45297469 0 0 .45297469 101.38906 -366.96818)"/><path d="m234.875 6760.3043h-23.16406v-2.8907h23.16406zm0 8.2031h-23.16406v-2.8906h23.16406z" fill="#e6e6e6" transform="matrix(.45297469 0 0 .59792658 449.76742 -4542.9146)"/><g fill="#e6e6e6" transform="matrix(.45297469 0 0 .45297469 203.46721 -749.6883)"><path d="m253.748 320.09c-12.787 0-23.154-10.365-23.154-23.154v-99.69c0-12.787 10.367-23.154 23.154-23.154h99.692c12.787 0 23.153 10.367 23.153 23.154v99.69c0 12.789-10.366 23.154-23.153 23.154zm-21.154-122.845v99.69c.021 11.685 9.471 21.133 21.154 21.154h99.692c11.683-.021 21.133-9.47 21.153-21.154v-99.69c-.021-11.683-9.471-21.133-21.153-21.154h-99.692c-11.683.021-21.133 9.472-21.154 21.154z"/><path d="m267.704 291.706c-8.684-.002-15.724-7.041-15.724-15.726l-.002-71.781c.002-8.685 7.042-15.724 15.726-15.726h71.782c8.685.002 15.724 7.041 15.724 15.726v71.781c0 8.685-7.041 15.724-15.724 15.726zm-13.724-87.507v71.781c.012 7.58 6.145 13.71 13.724 13.725h71.782c7.579-.015 13.709-6.145 13.724-13.725v-71.781c-.015-7.58-6.146-13.71-13.724-13.725h-71.782c-7.579.015-13.712 6.148-13.724 13.725z"/></g><path d="m212.49219 6775.8316h-4.4336v-5.332h4.4336z" fill="#f4f4f4" transform="matrix(.45297469 0 0 .45297469 385.20594 -3425.3035)"/><g fill="#e6e6e6" transform="matrix(.67841301 0 0 1 265.48772 -661.81189)"><path d="m394.68628 266.91406h8.06641v1.45263h-6.34034v3.77686h6.07544v1.45264h-6.07544v4.6228h6.49414v1.45264h-8.22021z"/><path d="m405.7605 266.91406h2.32422l5.65674 10.67261v-10.67261h1.6748v12.75757h-2.32422l-5.65674-10.67261v10.67261h-1.6748z"/><path d="m417.08252 266.91406h10.79224v1.45263h-4.52881v11.30494h-1.73462v-11.30494h-4.52881z"/><path d="m429.54956 266.91406h8.06641v1.45263h-6.34034v3.77686h6.07544v1.45264h-6.07544v4.6228h6.49415v1.45264h-8.22022z"/><path d="m446.67358 273.69018q.55542.18799 1.07666.80322.52979.61524 1.05957 1.6919l1.75171 3.48633h-1.85424l-1.63208-3.27271q-.63233-1.28174-1.23047-1.70044-.5896-.4187-1.61499-.4187h-1.87989v5.39185h-1.72607v-12.75757h3.89648q2.1875 0 3.26416.9143 1.07666.91431 1.07666 2.76001 0 1.20484-.56396 1.99952-.55542.79467-1.62354 1.10229zm-4.32373-5.35767v4.52881h2.17041q1.24756 0 1.87989-.57251.64087-.58105.64087-1.70044 0-1.11938-.64087-1.68335-.63233-.57251-1.87989-.57251z"/></g><g fill="#e6e6e6"><path d="m334.20749-646.95203v1.82007q-.87158-.81177-1.86279-1.21338-.98267-.40161-2.09351-.40161-2.1875 0-3.34961 1.34155-1.16211 1.33301-1.16211 3.86231 0 2.52075 1.16211 3.8623 1.16211 1.33301 3.34961 1.33301 1.11084 0 2.09351-.40161.99121-.40161 1.86279-1.21338v1.80298q-.90576.61523-1.92261.92285-1.0083.30762-2.13623.30762-2.89673 0-4.56299-1.7688-1.66626-1.77734-1.66626-4.84497 0-3.07617 1.66626-4.84497 1.66626-1.77735 4.56299-1.77735 1.14502 0 2.15332.30762 1.01685.29907 1.90552.90576z"/><path d="m336.89059-647.93469h1.72608v11.30493h6.21216v1.45264h-7.93824z"/><path d="m352.68161-641.15857q.55542.18799 1.07666.80322.52979.61524 1.05957 1.6919l1.75171 3.48633h-1.85425l-1.63208-3.27271q-.63232-1.28174-1.23047-1.70044-.5896-.4187-1.61499-.4187h-1.87988v5.39185h-1.72607v-12.75757h3.89648q2.1875 0 3.26416.9143 1.07666.91431 1.07666 2.76001 0 1.20484-.56396 1.99952-.55542.79467-1.62354 1.10229zm-4.32373-5.35767v4.52881h2.17041q1.24756 0 1.87988-.57251.64087-.58105.64087-1.70044 0-1.11938-.64087-1.68335-.63232-.57251-1.87988-.57251z"/></g></g><g fill="#f4f4f4" transform="matrix(.45297469 0 0 .45297469 127.82078 205.12649)"><path d="m408.749 320.09c-12.789 0-23.154-10.365-23.156-23.154l.002-99.69c0-12.788 10.365-23.153 23.154-23.153h99.69c12.788 0 23.153 10.365 23.153 23.153v99.69c0 12.789-10.365 23.154-23.153 23.154zm-21.154-122.845v99.69c.021 11.684 9.471 21.134 21.154 21.154h99.69c11.683-.021 21.133-9.471 21.153-21.154v-99.69c-.021-11.683-9.471-21.133-21.153-21.153h-99.69c-11.684.02-21.134 9.471-21.154 21.153z"/><path d="m406.979 275.98v-71.78c0-8.687 7.039-15.726 15.726-15.726h71.78c8.687 0 15.723 7.039 15.723 15.726v71.78c0 8.685-7.039 15.724-15.723 15.724l-71.78.002c-8.685-.002-15.726-7.041-15.726-15.726zm1.999-71.78v71.78c.015 7.581 6.146 13.71 13.727 13.725h71.78c7.579-.015 13.711-6.144 13.727-13.725l-.003-71.78c-.013-7.579-6.145-13.711-13.724-13.726h-71.78c-7.58.015-13.713 6.147-13.727 13.726z"/></g></svg>