<?xml version="1.0" encoding="UTF-8" standalone="no"?>
<svg
   id="xbox"
   width="589"
   height="350"
   viewBox="0 0 589 350"
   version="1.1"
   sodipodi:docname="controller-01.svg"
   inkscape:version="1.1 (c68e22c387, 2021-05-23)"
   xmlns:inkscape="http://www.inkscape.org/namespaces/inkscape"
   xmlns:sodipodi="http://sodipodi.sourceforge.net/DTD/sodipodi-0.dtd"
   xmlns="http://www.w3.org/2000/svg"
   xmlns:svg="http://www.w3.org/2000/svg">
  <defs
     id="defs35" />
  <sodipodi:namedview
     id="namedview33"
     pagecolor="#ffffff"
     bordercolor="#666666"
     borderopacity="1.0"
     inkscape:pageshadow="2"
     inkscape:pageopacity="0.0"
     inkscape:pagecheckerboard="0"
     showgrid="false"
     inkscape:zoom="1.7962649"
     inkscape:cx="294.22164"
     inkscape:cy="175.08554"
     inkscape:window-width="1920"
     inkscape:window-height="1027"
     inkscape:window-x="1912"
     inkscape:window-y="-8"
     inkscape:window-maximized="1"
     inkscape:current-layer="xbox" />
  <g
     id="g67">
    <g
       id="body">
      <path
         id="body-2"
         data-name="body"
         d="M 294.5,309.7 A 194.07,194.07 0 0 1 190.8,279.87 M 157.17,12.64 A 194.68,194.68 0 0 0 254,65 M 157.18,12.64 C 47.72,103.31 86.57,268.8 97.77,300.79 c 11.33,32.39 35.22,40.49 45.34,38.87 10.12,-1.62 47.7,-59.8 47.7,-59.8 m 207.39,0 A 194.07,194.07 0 0 1 294.5,309.7 M 335,65 a 194.69,194.69 0 0 0 96.84,-52.35 m -33.65,267.21 c 0,0 37.58,58.18 47.7,59.8 10.12,1.62 34,-6.48 45.34,-38.87 11.2,-32 50,-197.48 -59.41,-288.15 m -194,198 7.07,-10.42 a 2,2 0 0 0 -0.42,-2.7 A 80.49,80.49 0 0 1 254,65 m 107.81,161.3 -17.67,-26 a 2,2 0 0 1 0.42,-2.7 A 80.49,80.49 0 0 0 335,65 m 63.2,214.87 -9.2,-13.61"
         style="fill:none;stroke:#f4f4f4;stroke-width:1.5px;stroke-miterlimit:10" />
      <path
         id="top"
         d="m 169.53,23.89 13.9,-11.25 q 55.55,29 111.07,29 m 125,-17.71 -13.9,-11.25 q -55.54,29 -111.07,29"
         style="fill:none;stroke:#f4f4f4;stroke-width:1.5px;stroke-linecap:round;stroke-miterlimit:10" />
      <g
         id="top_edge"
         data-name="top edge">
        <path
           id="back"
           d="m 351.83,29.62 q -4.5,1.21 -9,2.23 l -0.16,-0.73 a 2,2 0 0 0 -0.3,-0.71 c 3.06,-0.69 6.11,-1.44 9.17,-2.26 a 1.86,1.86 0 0 0 0.05,0.66 z m 13,-4.85 a 2.05,2.05 0 0 1 -0.1,-0.54 c -3.05,1 -6.11,1.93 -9.18,2.81 a 1.88,1.88 0 0 1 0.3,0.62 l 0.22,0.79 c 3,-0.87 6,-1.78 9.06,-2.78 z M 338.41,32 a 1.89,1.89 0 0 1 0,-0.75 c -3.06,0.63 -6.11,1.21 -9.16,1.71 a 1.94,1.94 0 0 1 0.3,0.79 l 0.1,0.66 c 3,-0.49 6,-1 8.92,-1.67 z m -61.57,3.1 A 2.07,2.07 0 0 1 277,36 l -0.06,0.65 q 4.41,0.36 8.8,0.54 V 36.62 A 2,2 0 0 1 286,35.7 c -3.06,-0.17 -6.11,-0.34 -9.16,-0.6 z M 369,23.36 l 0.3,0.89 q 4.56,-1.61 9.11,-3.38 l -0.39,-1 a 2.5,2.5 0 0 1 -0.12,-0.45 q -4.58,1.8 -9.17,3.39 a 2.26,2.26 0 0 1 0.27,0.55 z m -43.74,11 a 1.92,1.92 0 0 1 0.06,-0.83 q -4.59,0.68 -9.17,1.14 a 2,2 0 0 1 0.3,0.87 l 0.05,0.6 c 2.95,-0.3 5.91,-0.66 8.86,-1.09 z M 312.05,36 a 1.94,1.94 0 0 1 0.12,-0.87 c -3.05,0.26 -6.1,0.43 -9.15,0.56 a 1.9,1.9 0 0 1 0.27,0.92 v 0.57 q 4.41,-0.18 8.8,-0.54 z M 206.89,18.21 a 2.58,2.58 0 0 1 0.19,-0.37 q -3,-1.24 -6.06,-2.57 a 2.73,2.73 0 0 0 -3.4,1 l -1.93,2.91 1.25,0.83 1.93,-2.91 a 1.24,1.24 0 0 1 1.55,-0.45 c 2,0.89 4,1.75 6.06,2.58 z m 56.78,16.89 q 4.44,0.65 8.86,1.09 l 0.06,-0.61 a 1.91,1.91 0 0 1 0.29,-0.86 q -4.58,-0.47 -9.16,-1.14 a 1.88,1.88 0 0 1 0,0.82 z m -43.94,-10.86 0.3,-0.91 a 1.72,1.72 0 0 1 0.26,-0.48 q -4.59,-1.61 -9.17,-3.39 a 1.91,1.91 0 0 1 -0.11,0.41 l -0.4,1 q 4.54,1.78 9.12,3.37 z m 171.65,-8 a 2.73,2.73 0 0 0 -3.4,-1 q -3,1.34 -6.08,2.58 a 1.83,1.83 0 0 1 0.21,0.39 l 0.4,1 c 2,-0.83 4.05,-1.69 6.08,-2.58 a 1.24,1.24 0 0 1 1.54,0.45 l 1.93,2.92 1.25,-0.83 z m -92.51,20.47 a 1.92,1.92 0 0 1 0.21,-0.92 c -1.53,0 -3.06,0.06 -4.58,0.06 -1.52,0 -3,0 -4.57,-0.06 a 1.92,1.92 0 0 1 0.21,0.92 v 0.58 c 1.21,0 2.42,0.05 3.63,0.06 h 1.5 l 3.64,-0.06 z m -39.42,-3 a 2,2 0 0 1 0.3,-0.78 c -3.05,-0.5 -6.1,-1.08 -9.15,-1.71 a 2,2 0 0 1 0,0.73 l -0.16,0.76 c 3,0.62 5.95,1.18 8.92,1.67 z m -26.27,-6.13 a 2.06,2.06 0 0 1 0.28,-0.6 c -3.05,-0.87 -6.11,-1.8 -9.16,-2.8 a 2.28,2.28 0 0 1 -0.09,0.51 l -0.32,0.93 c 3,1 6,1.91 9.06,2.78 z m 13.14,3.48 a 2.07,2.07 0 0 1 0.29,-0.7 q -4.58,-1 -9.15,-2.26 a 1.93,1.93 0 0 1 -0.06,0.63 l -0.23,0.84 c 3,0.81 6,1.55 9,2.23 z"
           style="fill:#f4f4f4" />
        <path
           id="ribs"
           d="m 383.86,22.57 -4.12,1.66 -1.74,-4.32 a 2,2 0 0 1 1.11,-2.61 l 0.41,-0.16 a 2,2 0 0 1 2.6,1.1 z M 369,23.36 a 2,2 0 0 0 -2.51,-1.24 l -0.42,0.14 a 2,2 0 0 0 -1.24,2.51 l 1.48,4.38 4.17,-1.41 z m -13.15,4.3 a 2,2 0 0 0 -2.41,-1.39 l -0.43,0.12 a 2,2 0 0 0 -1.38,2.42 l 1.21,4.43 4.16,-1.15 z m -13.14,3.46 a 2,2 0 0 0 -2.32,-1.51 l -0.43,0.09 a 2,2 0 0 0 -1.55,2.3 l 0.95,4.48 4.27,-0.89 z m -13.13,2.65 a 2,2 0 0 0 -2.23,-1.66 l -0.43,0.07 a 2,2 0 0 0 -1.66,2.23 l 0.67,4.53 4.32,-0.64 z m -13.13,1.82 a 2,2 0 0 0 -2.14,-1.8 h -0.44 A 2,2 0 0 0 312.05,36 l 0.4,4.59 4.37,-0.39 z m -13.13,1 a 2,2 0 0 0 -2.05,-1.93 h -0.44 a 2,2 0 0 0 -1.93,2.05 l 0.13,4.64 4.42,-0.13 z m -13.15,0.13 a 2,2 0 0 0 -1.93,-2.05 h -0.45 a 2,2 0 0 0 -2,1.93 l -0.14,4.64 4.42,0.13 z M 277,36 a 2,2 0 0 0 -1.8,-2.14 h -0.43 a 2,2 0 0 0 -2.14,1.79 l -0.41,4.59 4.37,0.38 z m -13.23,-1.6 a 2,2 0 0 0 -1.65,-2.24 l -0.43,-0.06 a 2,2 0 0 0 -2.24,1.66 l -0.67,4.53 4.32,0.64 z M 250.59,32 a 2,2 0 0 0 -1.52,-2.32 l -0.43,-0.09 a 2,2 0 0 0 -2.32,1.52 l -0.94,4.48 4.27,0.9 z M 237.4,28.78 A 2,2 0 0 0 236,26.37 l -0.42,-0.12 a 2,2 0 0 0 -2.42,1.38 l -1.16,4.43 4.22,1.16 z m -13.19,-4 A 2,2 0 0 0 223,22.23 l -0.41,-0.14 A 2,2 0 0 0 220,23.33 l -1.47,4.38 4.17,1.41 z M 211,19.87 a 2,2 0 0 0 -1.11,-2.6 l -0.41,-0.17 a 2,2 0 0 0 -2.6,1.11 l -1.75,4.32 4.12,1.67 z"
           style="fill:none;stroke:#f4f4f4;stroke-width:1.5px;stroke-miterlimit:10" />
      </g>
    </g>
    <g
       id="d-pad">
      <circle
         id="back-2"
         data-name="back"
         cx="188.48"
         cy="227.73"
         r="52.139999"
         style="fill:none;stroke:#f4f4f4;stroke-width:1.5px;stroke-miterlimit:10" />
      <path
         id="d-pad-2"
         data-name="d-pad"
         d="m 230,227.73 c 0,8.36 -4.06,16.12 -8.45,22.54 A 40.4,40.4 0 0 1 211,260.78 c -6.42,4.39 -14.18,8.45 -22.54,8.45 -8.36,0 -16.12,-4.06 -22.54,-8.45 a 40.4,40.4 0 0 1 -10.51,-10.51 c -4.38,-6.42 -8.45,-14.18 -8.45,-22.54 0,-8.36 4.07,-16.12 8.45,-22.54 a 40.4,40.4 0 0 1 10.51,-10.51 c 6.42,-4.39 14.18,-8.45 22.54,-8.45 8.36,0 16,4 22.37,8.33 a 40.44,40.44 0 0 1 10.68,10.63 c 4.41,6.42 8.49,14.18 8.49,22.54 z"
         style="fill:none;stroke:#f4f4f4;stroke-width:1.5px;stroke-miterlimit:10" />
    </g>
    <g
       id="c-stick">
      <circle
         id="back-3"
         data-name="back"
         cx="404.66"
         cy="226.39999"
         r="42.830002"
         style="fill:none;stroke:#f4f4f4;stroke-width:1.5px;stroke-miterlimit:10" />
      <circle
         id="stick"
         cx="404.66"
         cy="226.39999"
         r="31"
         style="fill:none;stroke:#f4f4f4;stroke-width:1.5px;stroke-miterlimit:10" />
      <path
         id="center"
         d="m 404.66,247.4 v -11 m 0,-20 v -11 m -21,21 h 11 m 20,0 h 11 m -21,-10 a 10,10 0 1 0 10,10 10,10 0 0 0 -10,-10 z"
         style="fill:none;stroke:#f4f4f4;stroke-width:1.5px;stroke-linecap:round;stroke-miterlimit:10" />
    </g>
    <g
       id="home_button"
       data-name="home button">
      <circle
         id="button"
         cx="294.5"
         cy="133.19"
         r="70.290001"
         style="fill:none;stroke:#f4f4f4;stroke-width:1.5px;stroke-linecap:round;stroke-miterlimit:10" />
      <path
         id="logo"
         d="m 335,159.23 h 4 l -9.13,7.4 9.13,7.37 h -4 l -7.15,-5.82 -7.11,5.82 h -4 l 9.18,-7.41 -9.18,-7.4 h 4 l 7.12,5.78 z m -19.48,7.4 c 0,3.27 -0.86,5.76 -2.52,7.41 h -14.62 c -1.73,-1.66 -2.59,-4.1 -2.59,-7.41 0,-3.31 0.87,-5.75 2.59,-7.4 H 313 c 1.65,1.65 2.52,4.1 2.52,7.4 z m -2.45,0 a 9.43,9.43 0 0 0 -1.39,-5 h -12 a 9.35,9.35 0 0 0 -1.4,5 8.7,8.7 0 0 0 0.71,3.45 l 0.69,1.55 h 12 l 0.68,-1.55 a 9.26,9.26 0 0 0 0.72,-3.45 z m -21,0.61 1.07,0.61 a 9.65,9.65 0 0 1 -2.48,6.19 H 276 a 9.39,9.39 0 0 1 -2.48,-6.19 h -2.37 v -2.44 h 2.37 a 9.26,9.26 0 0 1 2.48,-6.18 h 14.63 c 1.41,1.36 2.23,3.45 2.48,6.22 l -1.07,0.57 z m -2.74,-5.57 h -12 a 9.77,9.77 0 0 0 -1.34,3.74 h 14.63 a 10.41,10.41 0 0 0 -1.33,-3.74 z m 1.33,6.19 H 276 a 10,10 0 0 0 1.34,3.78 h 12 a 10.67,10.67 0 0 0 1.33,-3.78 z m -27.52,-1.23 9.12,-7.4 h -4 L 261.11,165 254,159.23 h -4 l 9.09,7.4 L 250,174 h 4 l 7.15,-5.82 7.11,5.82 h 4 z"
         style="fill:#f4f4f4" />
      <path
         id="xbox_X"
         data-name="xbox X"
         d="m 294.39,121.78 a 253.52,253.52 0 0 0 28.66,21.76 c 2.23,1.45 4.63,3 7.16,4.5 a 171.35,171.35 0 0 1 -15.4,-17.25 c -3.05,-3.94 -6.94,-9.38 -11.72,-16.32 q 5.42,-5.09 20,-20.87 a 53.68,53.68 0 0 1 -7.63,4.6 209.5,209.5 0 0 1 -21,9 c -5,-1.92 -8.3,-3.23 -9.84,-3.84 -3.9,-1.55 -7.18,-3 -9.95,-4.41 a 60.19,60.19 0 0 1 -9.53,-5.74 q 2.24,2.7 4.63,5.27 c 2,2.25 4.59,4.83 7.64,7.88 l 8.44,8.16 a 234.16,234.16 0 0 1 -17.3,23.68 106.67,106.67 0 0 1 -9.69,10.26 c 2.58,-1.48 5,-2.91 7.23,-4.31 a 162.35,162.35 0 0 0 28.3,-22.37 z"
         style="fill:#f4f4f4" />
    </g>
    <g
       id="joystick">
      <path
         id="back-4"
         data-name="back"
         d="M 166.83,81.52 A 40,40 0 0 1 166.5,161.3 M 151.16,78.57 A 42.83,42.83 0 1 0 194,121.4 42.83,42.83 0 0 0 151.16,78.57 Z"
         style="fill:none;stroke:#f4f4f4;stroke-width:1.5px;stroke-miterlimit:10" />
      <circle
         id="stick-2"
         data-name="stick"
         cx="151.16"
         cy="121.4"
         r="31"
         style="fill:none;stroke:#f4f4f4;stroke-width:1.5px;stroke-miterlimit:10" />
      <path
         id="center-2"
         data-name="center"
         d="m 151.16,142.9 v -3 m 0,-37 v -3 m -21.5,21.5 h 3 m 37,0 h 3 m -21.5,-18 a 18,18 0 1 0 18,18 18,18 0 0 0 -18,-18 z"
         style="fill:none;stroke:#f4f4f4;stroke-width:1.5px;stroke-linecap:round;stroke-miterlimit:10" />
    </g>
    <g
       id="buttons">
      <ellipse
         id="A"
         cx="448.07999"
         cy="164.28999"
         rx="14.53"
         ry="19.5"
         transform="rotate(-27,448.05707,164.28823)"
         style="fill:none;stroke:#f4f4f4;stroke-width:1.5px;stroke-miterlimit:10" />
      <ellipse
         id="B"
         cx="448.07999"
         cy="119.29"
         rx="14.53"
         ry="19.5"
         transform="rotate(-27,448.04626,119.2847)"
         style="fill:none;stroke:#f4f4f4;stroke-width:1.5px;stroke-miterlimit:10" />
      <ellipse
         id="X"
         cx="412.07999"
         cy="144.78999"
         rx="14.53"
         ry="19.5"
         transform="rotate(-27,412.05553,144.78577)"
         style="fill:none;stroke:#f4f4f4;stroke-width:1.5px;stroke-miterlimit:10" />
      <ellipse
         id="Y"
         cx="412.07999"
         cy="99.790001"
         rx="14.53"
         ry="19.5"
         transform="rotate(-27,412.06554,99.787233)"
         style="fill:none;stroke:#f4f4f4;stroke-width:1.5px;stroke-miterlimit:10" />
      <ellipse
         id="black"
         cx="464.07999"
         cy="82.290001"
         rx="9.8900003"
         ry="15.49"
         transform="rotate(-27,464.06405,82.292369)"
         style="fill:none;stroke:#f4f4f4;stroke-width:1.5px;stroke-miterlimit:10" />
      <ellipse
         id="white"
         cx="428.07999"
         cy="61.290001"
         rx="9.8900003"
         ry="15.49"
         transform="rotate(-27,428.06928,61.293703)"
         style="fill:none;stroke:#f4f4f4;stroke-width:1.5px;stroke-miterlimit:10" />
      <ellipse
         id="back-5"
         data-name="back"
         cx="324.57999"
         cy="261.79001"
         rx="15.49"
         ry="9.8900003"
         style="fill:none;stroke:#f4f4f4;stroke-width:1.5px;stroke-miterlimit:10" />
      <ellipse
         id="start"
         cx="264.42001"
         cy="261.79001"
         rx="15.49"
         ry="9.8900003"
         style="fill:none;stroke:#f4f4f4;stroke-width:1.5px;stroke-miterlimit:10" />
    </g>
  </g>
</svg>
