<svg height="357.25134" viewBox="0 0 749.61955 535.87701" width="499.74637" xmlns="http://www.w3.org/2000/svg"><g transform="translate(-.346486 -260.85225)"><g fill="none" stroke="#f4f4f4"><circle cx="-589.33069" cy="-463.64978" r="25.267321" stroke-linecap="round" stroke-linejoin="round" stroke-width="3" transform="scale(-1)"/><circle cx="-589.33069" cy="-354.28375" r="25.267321" stroke-linecap="round" stroke-linejoin="round" stroke-width="3" transform="scale(-1)"/><circle cx="644.01373" cy="408.96677" r="25.267321" stroke-linecap="round" stroke-linejoin="round" stroke-width="3"/><circle cx="534.64771" cy="408.96677" r="25.267321" stroke-linecap="round" stroke-linejoin="round" stroke-width="3"/></g><g transform="translate(-2 26)"><circle cx="379.2541982055" cy="387.28577497676" fill="none" r="42.67101295469" stroke="#f4f4f4" stroke-linecap="round" stroke-linejoin="round" stroke-width="3.00000050708"/><g fill="#f4f4f4" fill-rule="evenodd"><path d="m344.94011 404.6356c11.61506-28.78785 27.87652-46.26619 54.74832-50.37874l3.08442 2.57034c-21.94963 7.88995-42.83002 29.43216-53.72019 53.46315z"/><path d="m411.22775 403.33198c-10.74234-26.62481-25.78196-42.78988-50.63468-46.59342l-2.85267 2.37721c20.3004 7.29712 39.61189 27.22071 49.68381 49.44608z"/></g></g><path d="m655.50745 318.60794c-.21851-1.09254-4.15168-18.13627-4.58869-20.97689-.43702-2.84062-1.09255-4.37019-4.5887-6.77379-32.81359-22.55933-71.20626-33.45047-109.25465-27.31366-6.77379 1.09254-15.51417 18.13627-15.51417 18.13627z" fill="none" stroke="#f4f4f4" stroke-width="3"/><path d="m97.673659 318.60794c.218509-1.09254 4.151681-18.13627 4.588691-20.97689.43702-2.84062 1.09255-4.37019 4.5887-6.77379 32.81359-22.55933 71.20626-33.45047 109.25465-27.31366 6.77379 1.09254 15.51417 18.13627 15.51417 18.13627z" fill="none" stroke="#f4f4f4" stroke-width="3"/><circle cx="263.90213" cy="527.44983" fill="none" r="60.547413" stroke="#f4f4f4" stroke-linecap="round" stroke-linejoin="round" stroke-width="3"/><path d="m247.60884 582.05516c0 5.37504 32.58658 4.96298 32.58658 0 0-20.05425 16.27567-36.33015 36.32964-36.33015 5.24879 1.15665 7.27598-35.55207 0-36.55035-20.05397 0-36.32964-16.2759-36.32964-36.33015 0-5.39506-32.58658-5.80591-32.58658 0 0 20.05425-16.27567 36.33015-36.32964 36.33015-5.88003-.22498-7.05562 36.34403 0 36.55035 20.05397 0 36.32964 16.2759 36.32964 36.33015z" fill="none" stroke="#f4f4f4" stroke-linecap="round" stroke-linejoin="round" stroke-width="1.5"/><g transform="translate(4 26)"><rect fill="none" height="29.558952" rx="16.450203" ry="16.450199" stroke="#f4f4f4" stroke-linecap="round" stroke-linejoin="round" stroke-width="3" width="37.428303" x="437.39334" y="372.24924"/><path d="m300.92577 381.6729-8.16362 14.13981-8.16363-14.13981z" fill="#f4f4f4" fill-rule="evenodd" transform="matrix(0 1.1259413 1.1259413 0 20.719223 57.395722)"/></g><g transform="matrix(-1 0 0 1 749.22326 26)"><rect fill="none" height="29.558952" rx="16.450203" ry="16.450199" stroke="#f4f4f4" stroke-linecap="round" stroke-linejoin="round" stroke-width="3" width="37.428303" x="437.39334" y="372.24924"/><path d="m300.92577 381.6729-8.16362 14.13981-8.16363-14.13981z" fill="#f4f4f4" fill-rule="evenodd" transform="matrix(0 1.1259413 1.1259413 0 20.719223 57.395722)"/></g><circle cx="161.915421" cy="401.05997" fill="none" r="49.266716" stroke="#f4f4f4" stroke-linecap="round" stroke-linejoin="round" stroke-width="3"/><circle cx="161.91542584673" cy="401.05998087922" fill="none" r="34.99318274717" stroke="#f4f4f4" stroke-linecap="round" stroke-linejoin="round" stroke-width="1.49999855994"/><g fill="#f4f4f4" fill-rule="evenodd" transform="matrix(1.0746269 0 0 1.0746269 -360.095958 -130.142112)"><circle cx="512.46591181584" cy="494.31305801047" r="4.14393285487"/><circle cx="459.05527181584" cy="494.31305801047" r="4.14393285487"/><circle cx="491.28583" cy="494.31305" r="49.266716" transform="matrix(0 .08411222 -.08411222 0 527.33836 479.69524)"/><circle cx="491.28583" cy="494.31305" r="49.266716" transform="matrix(0 .08411222 -.08411222 0 527.33836 426.2846)"/></g><circle cx="483.300154" cy="529.982218" fill="none" r="49.266716" stroke="#f4f4f4" stroke-linecap="round" stroke-linejoin="round" stroke-width="3"/><circle cx="483.30015884673" cy="529.98222887922" fill="none" r="34.99318274717" stroke="#f4f4f4" stroke-linecap="round" stroke-linejoin="round" stroke-width="1.49999855994"/><circle cx="511.99842917033" cy="529.98224515931" fill="#f4f4f4" fill-rule="evenodd" r="4.45318171764"/><circle cx="454.60191868012" cy="529.98224515931" fill="#f4f4f4" fill-rule="evenodd" r="4.45318171764"/><circle cx="491.28583" cy="494.31305" fill="#f4f4f4" fill-rule="evenodd" r="49.266716" transform="matrix(0 .09038925423 -.09038925423 0 527.98076205788 514.27354470596)"/><circle cx="491.28583" cy="494.31305" fill="#f4f4f4" fill-rule="evenodd" r="49.266716" transform="matrix(0 .09038925423 -.09038925423 0 527.98076205788 456.87703421574)"/><path d="m692.40625 795.6875c36.84007 1.09337 52.80772-18.83796 56.40625-117.4375 3.77124-103.33202-63.29854-299.68945-82.96875-349.21875-19.67025-49.52929-118.71329-75.82532-163.65625-47.5-36.98649 23.31075-77.50632 26.375-127.03125 26.375-49.52492 0-90.0135-3.06425-127-26.375-12.6402-7.9665-29.58112-11.63473-47.8125-11.65625-46.59129-.055-101.737011 23.55708-115.875 59.15625-19.670241 49.52929-86.7399917 245.88672-82.96875 349.21875 3.5785642 98.05266 19.406856 118.31763 55.8125 117.45312 84.47581-9.05099 93.14578-56.86454 150.09375-101.60937 52.79739-41.48369 89.78117-45.2585 167.46875-43.75 77.68757-1.50848 114.64011 2.26634 167.4375 43.75 56.94798 44.7448 65.61794 92.54276 150.09375 101.59375z" fill="none" stroke="#f4f4f4" stroke-width="3"/><path d="m377.23104 464.23342c13.87732 0 26.78776-5.24911 35.56399-14.6135 7.82595-8.35043 17.25538-15.30639 24.89822-15.30639h-.58666 30.73864c11.49903 0 20.83156-9.33253 20.83156-20.93433 0-11.60179-9.33253-20.93432-20.83156-20.93432h-30.73864s8.22951 0 .58666 0c-7.64284 0-17.07227-6.95596-24.89822-15.30639-8.77623-9.36439-21.71212-14.6135-35.56399-14.6135-13.85186 0-26.78775 5.24911-35.56398 14.6135-7.82595 8.35043-17.25538 15.30639-24.89822 15.30639-7.64285 0 .58666 0 .58666 0h-30.73864c-11.49903 0-20.83156 9.33253-20.83156 20.93432 0 11.6018 9.33253 20.93433 20.83156 20.93433h30.73864-.58666c7.64284 0 17.07227 6.95596 24.89822 15.30639 8.77623 9.36439 21.68667 14.6135 35.56398 14.6135z" fill="none" stroke="#f4f4f4" stroke-linecap="round" stroke-linejoin="round" stroke-width="1.5"/></g></svg>