<svg height="350.26" viewBox="0 0 598.189 350.26" width="598.189" xmlns="http://www.w3.org/2000/svg"><g fill="#f4f4f4"><path d="m182.867 338.215c-14.245-.002-25.792-11.549-25.794-25.794v-263.901c.002-14.245 11.549-25.792 25.794-25.794h233.782c14.245.002 25.792 11.549 25.792 25.794v263.901c0 14.245-11.547 25.792-25.792 25.794zm-23.793-289.695v263.901c.023 13.141 10.653 23.769 23.793 23.792h233.782c13.141-.023 23.769-10.651 23.792-23.792v-263.901c-.023-13.14-10.651-23.769-23.792-23.792h-233.782c-13.14.023-23.77 10.651-23.793 23.792z"/><path d="m186.237 194.302c-.002-18.663 4.614-36.214 12.452-51.807 1.128-2.507 1.585-4.7 1.585-6.701.006-4.4-2.233-8.056-5.031-11.888-2.818-3.89-8.196-8.733-16.787-19.029-5.747-6.888-9.485-15.64-9.485-25.361.002-21.345 17.305-38.648 38.65-38.65 14.664.002 27.068 8.356 33.937 20.142 5.403 9.333 10.979 18.705 17.652 21.122 3.67 1.366 6.47 1.841 9.08 1.841 2.415 0 4.694-.412 7.348-.967 7.914-1.655 16.112-2.651 24.546-2.651 62.933.002 113.949 51.019 113.949 113.949 0 62.933-51.017 113.949-113.949 113.949-62.931 0-113.947-51.017-113.947-113.949zm14.257-50.946c-7.722 15.35-12.257 32.598-12.257 50.945 0 30.918 12.529 58.898 32.788 79.16 20.263 20.261 48.244 32.788 79.16 32.788 30.918 0 58.898-12.527 79.16-32.788 20.261-20.262 32.788-48.244 32.788-79.16s-12.527-58.896-32.788-79.16c-20.262-20.259-48.244-32.788-79.16-32.788-8.277 0-16.335.976-24.136 2.607-2.677.56-5.11 1.011-7.757 1.011-2.862 0-5.942-.537-9.778-1.968-7.771-2.969-13.216-12.696-18.682-21.989-6.566-11.246-18.331-19.15-32.209-19.147-10.125 0-19.279 4.099-25.915 10.734-6.635 6.635-10.734 15.79-10.734 25.914 0 9.201 3.529 17.495 9.019 24.081 8.535 10.235 13.81 14.944 16.868 19.133 2.825 3.879 5.409 7.941 5.413 13.064.002 2.311-.535 4.803-1.761 7.523l-.911-.41z"/><path d="m205.704 194.271c.002-52.179 42.301-94.479 94.482-94.479s94.479 42.301 94.481 94.479c-.002 52.181-42.301 94.481-94.481 94.483-52.182-.002-94.48-42.303-94.482-94.483zm29.088-65.394c-16.739 16.739-27.087 39.852-27.087 65.393s10.349 48.656 27.087 65.396c16.737 16.736 39.852 27.088 65.394 27.088 25.541 0 48.656-10.352 65.393-27.088 16.737-16.739 27.088-39.854 27.088-65.396 0-25.541-10.351-48.654-27.088-65.393-16.736-16.737-39.852-27.088-65.393-27.088-25.542.001-48.657 10.352-65.394 27.088z"/><path d="m253.271 194.271c0-25.909 21.004-46.912 46.914-46.914 25.911.002 46.915 21.005 46.915 46.914 0 25.911-21.004 46.914-46.915 46.916-25.911-.002-46.914-21.005-46.914-46.916zm15.155-31.759c-8.13 8.132-13.153 19.354-13.155 31.759.002 12.407 5.025 23.629 13.155 31.761 8.13 8.128 19.354 13.153 31.759 13.153s23.627-5.025 31.76-13.153c8.13-8.132 13.155-19.355 13.155-31.761 0-12.405-5.025-23.627-13.155-31.759-8.133-8.128-19.354-13.154-31.76-13.154-12.405 0-23.629 5.026-31.759 13.154z"/><path d="m218.989 194.271c0-44.844 36.353-81.195 81.196-81.197 44.845.002 81.195 36.353 81.197 81.197-.002 44.844-36.353 81.196-81.197 81.196-44.844.001-81.196-36.352-81.196-81.196zm25.197-56c-14.334 14.336-23.197 34.128-23.197 56 0 21.873 8.863 41.664 23.197 55.999 14.333 14.334 34.128 23.197 55.999 23.197 21.873 0 41.665-8.863 56.001-23.197 14.332-14.335 23.194-34.128 23.194-55.999 0-21.873-8.862-41.665-23.194-56-14.336-14.334-34.128-23.197-56.001-23.197s-41.666 8.863-55.999 23.197z"/><path d="m231.354 194.271c.002-38.014 30.817-68.829 68.831-68.832 38.013.002 68.83 30.817 68.83 68.832 0 38.013-30.817 68.83-68.83 68.83-38.014.001-68.829-30.817-68.831-68.83zm21.575-47.256c-12.095 12.098-19.574 28.799-19.574 47.257s7.479 35.158 19.574 47.255c12.097 12.096 28.797 19.574 47.256 19.576 18.458-.002 35.158-7.48 47.256-19.576 12.095-12.097 19.573-28.799 19.575-47.255-.002-18.458-7.48-35.159-19.575-47.257-12.098-12.095-28.8-19.574-47.256-19.574-18.458 0-35.159 7.478-47.256 19.574z"/><path d="m241.394 194.271c.002-32.469 26.322-58.791 58.791-58.791s58.789 26.322 58.789 58.791h.002c-.002 32.469-26.322 58.79-58.791 58.79-32.469.001-58.789-26.321-58.791-58.79zm18.635-40.156c-10.279 10.279-16.634 24.471-16.634 40.156 0 15.686 6.354 29.877 16.634 40.156 10.279 10.278 24.471 16.634 40.156 16.634 15.686 0 29.877-6.355 40.156-16.634s16.634-24.471 16.634-40.156c0-15.686-6.354-29.877-16.634-40.156-10.279-10.279-24.471-16.634-40.156-16.634s-29.877 6.355-40.156 16.634z"/><path d="m179.625 78.292c.002-15.497 12.562-28.057 28.059-28.059 15.498.002 28.059 12.562 28.059 28.059s-12.562 28.059-28.059 28.059c-15.498 0-28.058-12.561-28.059-28.059zm2 0c.025 14.392 11.667 26.033 26.058 26.058 14.392-.024 26.033-11.666 26.06-26.058-.027-14.392-11.668-26.033-26.06-26.058-14.391.025-26.033 11.667-26.058 26.058z"/><path d="m286.464 228.397v-1.001l.708-.708-.708.708v1.001h-.414l-19.99-19.992v-28.271l19.99-19.988h28.269l19.992 19.988v28.272l-19.99 19.99h-27.857zm27.027-2.001 18.819-18.82v-26.61l-18.819-18.818h-26.613l-18.817 18.816v26.612l18.819 18.82z"/><path d="m290.8 194.271c0-5.185 4.2-9.387 9.384-9.387 5.186 0 9.389 4.202 9.389 9.387 0 5.186-4.203 9.386-9.389 9.386-5.184-.001-9.384-4.201-9.384-9.386zm1.999 0c.008 4.08 3.307 7.379 7.385 7.387 4.08-.008 7.381-3.307 7.39-7.387-.009-4.079-3.31-7.38-7.39-7.388-4.078.008-7.377 3.308-7.385 7.388z"/><path d="m267.686 92.312h11.999v6.122h-11.999z" transform="matrix(.9659 -.2588 .2588 .9659 -15.3584 74.0813)"/><path d="m250.915 98.416h12v6.122h-12z" transform="matrix(.9063 -.4227 .4227 .9063 -18.8141 118.0985)"/><path d="m235.459 107.34h11.999v6.122h-11.999z" transform="matrix(.8191 -.5736 .5736 .8191 -19.6545 158.4676)"/><path d="m221.786 118.812h11.999v6.122h-11.999z" transform="matrix(.7071 -.7071 .7071 .7071 -19.4599 196.7648)"/><path d="m210.314 132.484h11.999v6.122h-11.999z" transform="matrix(.5736 -.8191 .8191 .5736 -18.7931 234.987)"/><path d="m201.391 147.94h11.999v6.122h-11.999z" transform="matrix(.4226 -.9063 .9063 .4226 -17.1141 275.1377)"/><path d="m195.287 164.712h11.999v6.122h-11.999z" transform="matrix(.2588 -.9659 .9659 .2588 -12.8661 318.7776)"/><path d="m201.759 179.639-1.046 11.954-11.21-.412 5.652-6.305.506-5.772z"/><path d="m200.713 196.952 1.046 11.954-6.098.534-.58-6.622-5.578-5.515z"/><path d="m195.286 217.712h12v6.122h-12z" transform="matrix(-.2588 -.9659 .9659 -.2588 40.1273 472.3364)"/><path d="m201.391 234.483h11.999v6.122h-11.999z" transform="matrix(-.4226 -.9063 .9063 -.4226 79.7541 525.895)"/><path d="m210.314 249.939h11.999v6.121h-11.999z" transform="matrix(-.5736 -.8191 .8191 -.5736 133.1499 575.3112)"/><path d="m221.787 263.611h11.999v6.122h-11.999z" transform="matrix(-.7071 -.7071 .7071 -.7071 200.2999 616.3083)"/><path d="m235.459 275.084h11.999v6.122h-11.999z" transform="matrix(-.8192 -.5735 .5735 -.8192 279.7355 644.4797)"/><path d="m250.915 284.008h11.999v6.12h-11.999z" transform="matrix(-.9063 -.4226 .4226 -.9063 368.4336 655.8184)"/><path d="m267.686 290.111h12v6.122h-12z" transform="matrix(-.9659 -.2588 .2588 -.9659 462.1759 647.186)"/><path d="m285.553 292.699 11.953 1.046-.136 9.527-6.06-3.924-6.291-.55z"/><path d="m302.866 293.745 11.954-1.046.534 6.099-6.226.544-6.125 3.93z"/><path d="m320.687 290.112h12v6.121h-12z" transform="matrix(-.9659 .2588 -.2588 -.9659 718.1155 491.8113)"/><path d="m337.457 284.007h12v6.122h-12z" transform="matrix(-.9063 .4226 -.4226 -.9063 776.0536 402.0968)"/><path d="m352.914 275.083h12v6.121h-12z" transform="matrix(-.8192 .5736 -.5736 -.8192 812.4548 300.1307)"/><path d="m366.585 263.611h12v6.122h-12z" transform="matrix(-.7071 .7071 -.7071 -.7071 824.6086 191.7797)"/><path d="m378.058 249.939h12v6.122h-12z" transform="matrix(-.5736 .8192 -.8192 -.5736 811.587 83.5046)"/><path d="m386.982 234.483h12v6.122h-12z" transform="matrix(-.4225 .9063 -.9063 -.4225 774.3273 -18.2639)"/><path d="m393.087 217.711h11.999v6.122h-11.999z" transform="matrix(-.2588 .9659 -.9659 -.2588 715.6264 -107.5765)"/><path d="m398.613 208.905 1.046-11.953 10.477.351-4.865 5.734-.56 6.402z"/><path d="m399.659 191.592-1.047-11.953 6.1-.535.485 5.553 5.183 6.647z"/><path d="m393.087 164.711h11.999v6.123h-11.999z" transform="matrix(.2589 .9659 -.9659 .2589 457.8221 -261.1424)"/><path d="m386.982 147.94h11.999v6.122h-11.999z" transform="matrix(.4226 .9063 -.9063 .4226 363.7476 -268.9771)"/><path d="m378.058 132.483h12v6.123h-12z" transform="matrix(.5736 .8192 -.8192 .5736 274.8105 -256.8047)"/><path d="m366.587 118.811h11.999v6.123h-11.999z" transform="matrix(.7071 .7071 -.7071 .7071 195.3046 -227.7625)"/><path d="m352.914 107.339h12.001v6.123h-12.001z" transform="matrix(.8192 .5735 -.5735 .8192 128.2024 -185.8761)"/><path d="m337.457 98.415h11.999v6.122h-11.999z" transform="matrix(.9063 .4226 -.4226 .9063 75.0685 -135.6476)"/><path d="m320.687 92.311h11.999v6.123h-11.999z" transform="matrix(.9659 .2588 -.2588 .9659 35.8154 -81.3024)"/></g></svg>