<svg height="350.26" viewBox="0 0 598.189 350.26" width="598.189" xmlns="http://www.w3.org/2000/svg"><g fill="#f4f4f4"><path d="m19.381 43.455c-4.282 0-7.78 3.499-7.78 7.779v234.245c0 4.282 3.498 7.75 7.78 7.75h559.24c4.282 0 7.751-3.468 7.751-7.75v-234.245c0-4.281-3.47-7.779-7.753-7.779zm0 1.886h559.24c3.264 0 5.865 2.631 5.865 5.893v234.245c0 3.263-2.602 5.864-5.865 5.864h-559.24c-3.264 0-5.894-2.604-5.894-5.865v-234.245c.001-3.262 2.631-5.893 5.894-5.892z"/><path d="m33.526 84.445c-2.666 0-4.833 2.196-4.833 4.863v181.023c0 2.665 2.167 4.862 4.833 4.862h530.452c2.665 0 4.832-2.197 4.832-4.862v-181.023c0-2.667-2.167-4.863-4.832-4.863zm0 1.886h530.452c1.644 0 2.947 1.33 2.947 2.977v181.023c0 1.646-1.304 2.976-2.947 2.976h-530.452c-1.647 0-2.947-1.33-2.947-2.976v-181.023c0-1.647 1.301-2.977 2.947-2.977z"/><path d="m208.363 189.853c-5.901 0-10.698 4.797-10.698 10.696v37.572c0 5.9 4.798 10.727 10.698 10.727h138.117c5.566 0 9.99-4.346 10.489-9.782h.207v-.944-37.572c0-5.899-4.797-10.696-10.696-10.696h-138.117zm0 1.886h138.117c4.882 0 8.81 3.93 8.81 8.81v36.63.942c0 4.88-3.928 8.84-8.81 8.84h-138.117c-4.881 0-8.811-3.96-8.811-8.84v-37.572c0-4.88 3.929-8.81 8.811-8.81z"/><path d="m207.156 196.189c-2.397 0-4.361 1.965-4.361 4.36v37.571c0 2.398 1.965 4.362 4.361 4.362h140.531c2.396 0 4.361-1.965 4.361-4.362v-37.57c0-2.396-1.965-4.36-4.361-4.36h-140.531zm0 1.887h140.531c1.377 0 2.475 1.1 2.475 2.474v37.571c0 1.379-1.098 2.477-2.475 2.477h-140.531c-1.376 0-2.476-1.099-2.476-2.477v-37.571c.001-1.374 1.098-2.474 2.476-2.474z"/><path d="m205.439 154.227c-4.821 0-8.752 3.93-8.752 8.752v11.728c0 4.823 3.931 8.722 8.752 8.722h143.952c4.824 0 8.753-3.899 8.753-8.722v-11.728c0-4.822-3.929-8.752-8.753-8.752zm0 1.886h143.952c3.807 0 6.867 3.063 6.867 6.866v11.728c0 3.802-3.061 6.835-6.867 6.835h-143.952c-3.802 0-6.866-3.034-6.866-6.835v-11.728c0-3.803 3.065-6.866 6.866-6.866z"/><path d="m205.439 119.571c-4.821 0-8.752 3.931-8.752 8.752v11.729c0 4.822 3.931 8.752 8.752 8.752h143.952c4.824 0 8.753-3.931 8.753-8.752v-11.731c0-4.82-3.929-8.751-8.753-8.751h-143.952zm0 1.886h143.952c3.807 0 6.867 3.065 6.867 6.866v11.729c0 3.803-3.061 6.866-6.867 6.866h-143.952c-3.802 0-6.866-3.063-6.866-6.866v-11.729c0-3.801 3.065-6.866 6.866-6.866z"/><path d="m196.688 85.388v17.563c0 4.821 3.932 8.752 8.752 8.752h143.953c4.824 0 8.753-3.932 8.753-8.752v-17.563h-1.886v17.563c0 3.803-3.063 6.866-6.867 6.866h-143.953c-3.801 0-6.866-3.064-6.866-6.866v-17.563z"/><path d="m205.439 258.161c-4.821 0-8.752 3.93-8.752 8.752v7.396h1.886v-7.396c0-3.802 3.065-6.865 6.866-6.865h143.952c3.807 0 6.867 3.063 6.867 6.865v7.338h1.886v-7.338c0-4.821-3.929-8.752-8.753-8.752z"/><path d="m388.055 187.41c-2.934 0-5.333 2.399-5.333 5.332v53.19c0 2.936 2.399 5.335 5.333 5.335h53.19c2.936 0 5.333-2.399 5.333-5.335v-53.19c0-2.933-2.397-5.332-5.333-5.332zm0 1.886h53.19c1.916 0 3.447 1.534 3.447 3.446v53.19c0 1.916-1.531 3.448-3.447 3.448h-53.19c-1.912 0-3.447-1.532-3.447-3.448v-53.19c-.001-1.912 1.535-3.446 3.447-3.446z"/><path d="m414.639 193.276c-14.391 0-26.049 11.689-26.049 26.078 0 14.388 11.658 26.078 26.049 26.078 14.388 0 26.077-11.69 26.077-26.078s-11.69-26.078-26.077-26.078zm0 1.886c13.37 0 24.19 10.822 24.19 24.192s-10.82 24.192-24.19 24.192c-13.369 0-24.163-10.822-24.163-24.192s10.792-24.192 24.163-24.192z"/><path d="m462.229 187.41c-2.935 0-5.334 2.399-5.334 5.332v53.19c0 2.936 2.401 5.335 5.334 5.335h53.19c2.934 0 5.335-2.399 5.335-5.335v-53.19c0-2.933-2.401-5.332-5.335-5.332zm0 1.886h53.19c1.915 0 3.446 1.534 3.446 3.446v53.19c0 1.916-1.531 3.448-3.446 3.448h-53.19c-1.915 0-3.446-1.532-3.446-3.448v-53.19c0-1.912 1.531-3.446 3.446-3.446z"/><path d="m488.832 193.276c-14.39 0-26.079 11.689-26.079 26.078 0 14.388 11.689 26.078 26.079 26.078 14.388 0 26.048-11.69 26.048-26.078s-11.66-26.078-26.048-26.078zm0 1.886c13.369 0 24.161 10.822 24.161 24.192s-10.792 24.192-24.161 24.192c-13.37 0-24.193-10.822-24.193-24.192s10.823-24.192 24.193-24.192z"/><path d="m160.592 46.991v6.041.943h.943 22.13.943v-.943-6.041h-1.886v5.098h-20.245v-5.098z"/><path d="m225.773 229.146h-.004v-.941-.944h.004 28.788c4.553-.01 8.238-3.691 8.247-8.248-.009-4.555-3.693-8.237-8.247-8.247h-28.791c-4.555.01-8.24 3.692-8.249 8.247.008 4.557 3.693 8.238 8.249 8.248v.944.941c-5.597 0-10.133-4.535-10.133-10.134 0-5.598 4.536-10.133 10.133-10.133h28.792c5.596 0 10.131 4.535 10.131 10.133 0 5.599-4.536 10.134-10.131 10.134z"/><path d="m300.273 229.146v-.941-.944h28.792c4.552-.01 8.238-3.691 8.246-8.248-.008-4.555-3.694-8.237-8.246-8.247h-28.792c-4.555.01-8.239 3.692-8.248 8.247.009 4.557 3.695 8.238 8.248 8.248v.944.941c-5.595 0-10.133-4.535-10.133-10.134 0-5.598 4.536-10.133 10.133-10.133h28.792c5.594 0 10.131 4.535 10.131 10.133 0 5.599-4.537 10.134-10.131 10.134z"/><path d="m96.352 132.331c-5.361.002-9.722 4.363-9.724 9.724v23.045h-23.045c-5.361.001-9.722 4.363-9.724 9.724v33.033c.002 5.361 4.363 9.721 9.724 9.723h23.044v23.046c.002 5.361 4.363 9.722 9.724 9.725h33.004c5.361-.002 9.723-4.363 9.724-9.725v-23.046h23.074c5.362-.001 9.722-4.361 9.724-9.723v-33.033c-.002-5.362-4.363-9.722-9.724-9.724h-23.073v-23.045c0-5.358-4.366-9.72-9.722-9.722h-33.004zm0 1.886h33.004c4.344.002 7.836 3.495 7.838 7.838v23.987.942h.943 24.017c4.344.002 7.837 3.494 7.839 7.838v33.034c-.002 4.344-3.496 7.838-7.839 7.839h-24.017-.943v.942 23.987c-.002 4.345-3.496 7.837-7.838 7.839h-33.004c-4.344-.003-7.836-3.495-7.839-7.839v-23.987-.942h-.943-23.987c-4.344-.002-7.836-3.496-7.838-7.839v-33.034c.001-4.344 3.496-7.836 7.838-7.838h23.987.942v-.942-23.987c.003-4.343 3.496-7.836 7.84-7.838zm0 3.949c-2.125.003-3.856 1.766-3.861 3.89v25.489.06.029c-.009.567-.06 1.137-.471 1.857-.339.615-1.274 1.186-1.769 1.296l-.029.03c-.449.119-.822.146-1.238.147h-25.401c-2.124.004-3.886 1.735-3.89 3.86v33.033c.004 2.125 1.766 3.856 3.89 3.86h25.519.03.059c.733 0 1.776.313 2.417 1.032.694.772.856 1.678.854 2.445v25.431c.004 2.125 1.766 3.86 3.89 3.861h33.004c2.125-.003 3.885-1.737 3.89-3.861v-25.431c-.009-.884.358-1.879 1.001-2.505.647-.644 1.588-.978 2.447-.973h25.459c2.124-.004 3.856-1.735 3.86-3.86v-.027-33.006c-.003-2.125-1.736-3.858-3.86-3.86h-25.459c-.583-.006-1.149-.067-1.857-.442-.585-.294-1.261-1.154-1.415-1.709v-.029c-.141-.452-.169-.876-.169-1.311v-25.402c-.004-2.124-1.766-3.888-3.891-3.889h-33.005zm0 1.886h33.004c1.106 0 2.002.896 2.004 2.004v25.401.03c.002.541.059 1.151.265 1.827.002.008-.002.021 0 .03.326 1.148 1.158 2.225 2.328 2.828v.03c.006.004.023-.003.03 0 1.043.542 2.038.641 2.711.648h25.459c1.107.001 1.972.865 1.974 1.974v33.006c-.001 1.107-.865 2-1.974 2.002h-25.459c-1.341-.007-2.71.515-3.743 1.533h-.03c-1.046 1.029-1.576 2.442-1.562 3.831v25.431c-.002 1.107-.898 1.975-2.004 1.976h-33.003c-1.106-.001-2.001-.867-2.004-1.976v-25.431c.003-1.074-.242-2.505-1.326-3.713-1.091-1.227-2.616-1.651-3.831-1.651-.021 0-.055-.001-.088 0h-.03-25.49c-1.11-.002-2.002-.865-2.004-1.974v-33.034c.002-1.108.897-1.972 2.004-1.974h25.402c.49-.001 1.077-.042 1.709-.206.008-.002.021.002.029 0 1.099-.254 2.265-1.001 2.947-2.24.628-1.098.697-2.127.707-2.771v-.028c-.001-.074 0-.06 0-.06v-25.489c.003-1.106.868-2.002 1.975-2.004z"/><path d="m81.058 176.707-1.621 1.621-12.317 12.347-.678.649.678.678 12.317 12.347 1.621 1.593v-2.271-3.152h7.602.943v-.942-16.475-.941h-.943-7.602v-3.184zm-1.887 4.567v1.827.944h.943 7.602v14.585h-7.602-.943v.944 1.797l-10.048-10.051 10.048-10.043z"/><path d="m112.858 179.159c-6.709 0-12.17 5.461-12.17 12.17 0 6.708 5.462 12.17 12.17 12.17s12.17-5.462 12.17-12.17c0-6.709-5.462-12.17-12.17-12.17zm0 1.887c5.689 0 10.284 4.594 10.284 10.283 0 5.688-4.594 10.284-10.284 10.284s-10.284-4.596-10.284-10.284c.001-5.689 4.595-10.283 10.284-10.283z"/><path d="m103.688 214.578v.942 7.602h-3.182-2.269l1.622 1.622 12.347 12.347.648.648.678-.648 12.348-12.347 1.59-1.622h-2.268-3.153v-7.602-.942h-.943-16.474zm1.886 1.885h14.588v7.604.941h.942 1.827l-10.079 10.078-10.079-10.078h1.856.943v-.941z"/><path d="m144.646 176.707v2.27 3.184h-7.604-.942v.941 16.474.942h.943 7.604v3.152 2.271l1.621-1.593 12.347-12.346.648-.678-.648-.649-12.347-12.347zm1.886 4.539 10.079 10.079-10.079 10.077v-1.826-.944h-.943-7.603v-14.586h7.603.943v-.943z"/><path d="m112.858 144.91-.648.678-12.347 12.316-1.621 1.621h2.269 3.183v7.602.943h.942 16.473.943v-.943-7.602h3.154 2.269l-1.591-1.621-12.348-12.316zm0 2.682 10.048 10.049h-1.797-.943v.942 7.603h-14.587v-7.603-.942h-.943-1.827z"/></g></svg>