<svg height="358.12061" viewBox="0 0 709.53784 716.24122" width="354.76892" xmlns="http://www.w3.org/2000/svg"><g fill="#f4f4f4" fill-opacity=".5" stroke-width="2" transform="translate(-376.61597 -108.1805)"><path d="m999.64733 819.28442q0 .48-.116.808-.172.488-.552.488-.252 0-.528-.116-.332-.14-.364-.344.112 0 .264.04.352.092.44.092.34 0 .512-.34.136-.272.136-.652 0-.268-.176-.764-.172-.5-.172-.696 0-.06.032-.096.036-.04.096-.04.156 0 .304.72.124.608.124.9z"/><path d="m1001.1873 819.69242q0 .408-.236.64-.236.232-.652.232-.228 0-.35197-.108-.124-.108-.124-.332 0-.316.41197-.636.392-.304.724-.304.152 0 .2.188.028.108.028.32zm-.244.112q0-.048-.012-.092-.01-.048-.032-.108-.064.044-.212.216-.076.088-.132.128 0-.076.016-.124.032-.068.052-.116-.176 0-.368.148-.188.148-.188.32 0 .116.128.116.244 0 .472-.12.276-.144.276-.368z"/><path d="m1002.8353 819.85642q0 .196-.148.44-.168.276-.348.276-.052 0-.088-.056-.032-.06-.032-.116 0-.072.152-.224.156-.156.156-.212 0-.036-.012-.072-.012-.036-.016-.048-.3.068-.612.344-.308.276-.468.312-.032-.088-.032-.18 0-.112.052-.236.036-.088.12-.212.14-.212.296-.48.08-.14.276-.484.2-.344.292-.488.048-.072.084-.108.052-.048.124-.064.048.016.068.06.024.044.024.104 0 .136-.176.368-.32.416-.328.432-.18.272-.18.492l.01.04q.22-.108.26-.124.164-.068.28-.068.128 0 .188.088.06.084.06.216z"/><path d="m1004.6913 819.62042q0 .272-.132.58-.144.34-.356.468-.044-.052-.076-.116-.028-.064-.028-.128 0-.068.2-.404.088-.148.08-.26v-.052q-.148.044-.512.268-.36.22-.728.448-.056 0-.104-.04-.044-.044-.044-.096 0-.084.268-.564.08-.144.288-.5.064.084.084.188.02.1.02.24 0 .06 0 .092.368-.22.576-.332.228-.124.312-.124.056 0 .104.128.052.128.052.204z"/><path d="m1008.1673 820.39642q0 .072-.064.112-.06.036-.136.036-.068 0-.172-.016-.236-.036-.304-.036-.12 0-.472.028-.2.016-.288.016-.244 0-.244-.244 0-.232.152-.664.084-.244.316-.8.208-.5.264-.704.02-.064.032-.084.032-.048.08-.048.076 0 .128.112.052.108.052.196 0 .14-.164.472-.164.328-.32.644-.172.376-.172.572 0 .1.084.14.06.028.176.028.088 0 .304-.02.216-.024.288-.024.18 0 .296.052.164.072.164.232z"/><path d="m1009.6553 819.69242q0 .408-.236.64-.236.232-.652.232-.228 0-.352-.108-.124-.108-.124-.332 0-.316.412-.636.392-.304.724-.304.152 0 .2.188.028.108.028.32zm-.244.112q0-.048-.012-.092-.01-.048-.032-.108-.064.044-.212.216-.076.088-.132.128 0-.076.016-.124.032-.068.052-.116-.176 0-.368.148-.188.148-.188.32 0 .116.128.116.244 0 .472-.12.276-.144.276-.368z"/><path d="m1011.3393 819.60842q0 .128-.068.272-.064.144-.164.24v-.056q0-.048.012-.148.012-.1.012-.148 0-.068-.02-.1-.02-.036-.084-.036-.188 0-.468.292-.304.32-.604.636-.024 0-.048-.004-.06-.016-.08-.02.012-.144.1-.32.236-.476.244-.508.032-.128.048-.188.016-.06.044-.124.032-.068.072-.12.044-.056.112-.084l.04.48q.172-.14.264-.216.176-.14.304-.14.128 0 .208.084.08.084.08.208z"/><path d="m1013.3033 819.14442q0 .168-.448.444-.432.264-.628.264-.092 0-.124-.064-.028-.064-.028-.18 0-.076 0-.108.268 0 .488-.08.22-.08.384-.264-.12-.044-.244-.044-.292 0-.62.224-.36.244-.36.52 0 .264.36.368.056.016.676.112.364.056.364.196 0 .06-.132.096-.132.04-.336.04-.512 0-.808-.156-.392-.208-.392-.668 0-.48.48-.764.408-.24.928-.24.156 0 .284.072.156.088.156.232z"/><path d="m1014.8953 818.42842q0 .088-.212.368-.212.28-.212.428 0 .076.088.152.2.176.2.216 0 .052-.036.1-.032.048-.084.048-.044 0-.124-.048-.056-.032-.216-.156-.06.116-.092.176-.112.212-.152.308-.06.184-.12.368-.104.248-.26.248v-.092q0-.284.184-.672.036-.072.2-.372-.316-.172-.696-.172 0-.148.06-.216.064-.072.212-.072.136 0 .34.048.1.024.2.048.076-.024.208-.26.324-.568.44-.652.032.052.052.104.024.052.024.1z"/><path d="m1016.3713 819.85642q0 .196-.148.44-.168.276-.348.276-.052 0-.088-.056-.032-.06-.032-.116 0-.072.152-.224.156-.156.156-.212 0-.036-.012-.072-.012-.036-.016-.048-.3.068-.612.344-.308.276-.468.312-.032-.088-.032-.18 0-.112.052-.236.036-.088.12-.212.14-.212.296-.48.08-.14.276-.484.2-.344.292-.488.048-.072.084-.108.052-.048.124-.064.048.016.068.06.024.044.024.104 0 .136-.176.368-.32.416-.328.432-.18.272-.18.492l.01.04q.22-.108.26-.124.164-.068.28-.068.128 0 .188.088.06.084.06.216z"/><path d="m1019.6553 818.55242q0 .188-.2.504-.128.2-.42.576-.292.372-.364.488.012.004.3.096.292.088.292.32-.12.02-.236.036l-.044-.004v-.032q-.064-.016-.104-.016-.076 0-.24.024-.164.024-.248.024-.108 0-.176-.04-.068-.04-.068-.144 0-.084.308-.476.576-.732.58-.74.312-.424.312-.568 0-.056-.04-.084-.036-.028-.148-.028-.076 0-.316.148-.116.072-.188.072l-.068-.012q-.024-.016-.052-.06-.028-.048-.028-.076 0-.168.324-.308.276-.12.48-.12.172 0 .264.128.08.112.08.292z"/><path d="m1022.0593 819.27242q0 .484-.524.856-.48.34-.988.34-.252 0-.4-.128-.148-.128-.148-.372 0-.544.476-.944.452-.38 1.012-.38.284 0 .428.168.144.168.144.46zm-.244.092q0-.184-.208-.276-.156-.068-.372-.068-.316 0-.66.308-.344.308-.344.62 0 .128.064.184.068.052.204.052.392 0 .816-.216.5-.256.5-.604z"/><path d="m1023.8913 818.55242q0 .188-.2.504-.128.2-.42.576-.292.372-.364.488.012.004.3.096.292.088.292.32-.12.02-.236.036l-.044-.004v-.032q-.064-.016-.104-.016-.076 0-.24.024-.164.024-.248.024-.108 0-.176-.04-.068-.04-.068-.144 0-.084.308-.476.576-.732.58-.74.312-.424.312-.568 0-.056-.04-.084-.036-.028-.148-.028-.076 0-.316.148-.116.072-.188.072l-.068-.012q-.024-.016-.052-.06-.028-.048-.028-.076 0-.168.324-.308.276-.12.48-.12.172 0 .264.128.08.112.08.292z"/><path d="m1025.7313 818.55242q0 .188-.2.504-.128.2-.42.576-.292.372-.364.488.012.004.3.096.292.088.292.32-.12.02-.236.036l-.044-.004v-.032q-.064-.016-.104-.016-.076 0-.24.024-.164.024-.248.024-.108 0-.176-.04-.068-.04-.068-.144 0-.084.308-.476.576-.732.58-.74.312-.424.312-.568 0-.056-.04-.084-.036-.028-.148-.028-.076 0-.316.148-.116.072-.188.072l-.068-.012q-.024-.016-.052-.06-.028-.048-.028-.076 0-.168.324-.308.276-.12.48-.12.172 0 .264.128.08.112.08.292z"/></g><g transform="translate(-376.61597 -108.1805)"><g fill="none" stroke="#f4f4f4" stroke-linecap="round"><rect height="323.31674" opacity=".98" rx="12.963135" stroke-width="4" width="707.41998" x="377.61597" y="500.10498"/><rect height="274.37762" opacity=".98" rx="12.470419" ry="12.47042" stroke-width="2" width="670.84857" x="394.54932" y="534.14832"/><path d="m377.77766 540.68801v-422.60933c0-4.92959 3.97059-8.89818 8.90266-8.89818h689.57078c4.9321 0 8.9027 3.96859 8.9027 8.89818v422.60933" opacity=".98" stroke-width="4"/></g><g fill="#f4f4f4" stroke-width="3.73348" transform="matrix(.56651227 0 0 .5065495 411.49329 123.20907)"><path d="m8.9 78.2v-10.6h82.5v-12h-82.5v-33h93.7v10.5h-82.5v12h82.5v33.1z"/><path d="m109.4 78.2v-27.6-27.2h11.2v27.2 27.6z"/><path d="m126.7 78.2v-54.8h93.7v54.8h-11.2v-44.3h-71.3v44.3z"/><path d="m226.4 78.2v-54.8h93.8v10.5h-82.5v33.8h82.5v10.5z"/><path d="m327.7 78.2v-35.7-35.6h11.2v35.7 35.7h-11.2z"/><path d="m445.4 78.2v-27.4-27.4h11.3v27.4 27.4z"/><path d="m463.5 78.2v-54.8h93.7v10.5h-82.5v44.3s-7.5 0-11.2 0z"/><path d="m344.9 23.4v10.5h82.5v12h-82.5v32.3h93.8v-54.8zm82.5 44.2h-71.2v-6-6h71.2v6z"/><path d="m109.4 17.4v-5.3-5.2h11.2v5.3 5.3h-11.2z"/><path d="m445.4 17.4v-5.3-5.2h11.3v5.3 5.3h-11.3z"/></g></g><g fill="none" stroke="#f4f4f4" stroke-linecap="round" stroke-width="2"><rect height="35.724754" opacity=".98" rx="3.610179" width="45.95528" x="361.04016" y="626.95805"/><rect height="35.724754" opacity=".98" rx="3.610179" width="45.95528" x="301.04016" y="626.95805"/><rect height="35.724754" opacity=".98" rx="3.610179" width="45.95528" x="241.04016" y="626.95805"/><rect height="35.724754" opacity=".98" rx="3.610179" width="45.95528" x="181.04016" y="626.95805"/><rect height="35.724754" opacity=".98" rx="3.610179" width="45.95528" x="121.04016" y="626.95805"/><rect height="35.724754" opacity=".98" rx="3.610179" width="45.95528" x="61.04016" y="626.95805"/><rect height="35.724754" opacity=".98" rx="3.610179" width="45.95528" x="601.04016" y="626.95805"/><rect height="35.724754" opacity=".98" rx="3.610179" width="45.95528" x="541.04016" y="626.95805"/><rect height="35.724754" opacity=".98" rx="3.610179" width="45.95528" x="481.04016" y="626.95805"/><rect height="35.724754" opacity=".98" rx="3.610179" width="45.95528" x="421.04016" y="626.95805"/><rect height="35.724754" opacity=".98" rx="3.610179" width="45.95528" x="389.04016" y="568.95805"/><rect height="35.724754" opacity=".98" rx="3.610179" width="45.95528" x="329.04016" y="568.95805"/><rect height="35.724754" opacity=".98" rx="3.610179" width="45.95528" x="269.04016" y="568.95805"/><rect height="35.724754" opacity=".98" rx="3.610179" width="45.95528" x="209.04016" y="568.95805"/><rect height="35.724754" opacity=".98" rx="3.610179" width="45.95528" x="149.04016" y="568.95805"/><rect height="35.724754" opacity=".98" rx="3.610179" width="45.95528" x="89.04016" y="568.95805"/><rect height="35.724754" opacity=".98" rx="3.610179" width="45.95528" x="629.04016" y="568.95805"/><rect height="35.724754" opacity=".98" rx="3.610179" width="45.95528" x="569.04016" y="568.95805"/><rect height="35.724754" opacity=".98" rx="3.610179" width="45.95528" x="509.04016" y="568.95805"/><rect height="35.724754" opacity=".98" rx="3.610179" width="45.95528" x="449.04016" y="568.95805"/><rect height="35.724754" opacity=".98" rx="3.610179" width="45.95528" x="376.000982" y="510.95805"/><rect height="35.724754" opacity=".98" rx="3.610179" width="45.95528" x="316.000982" y="510.95805"/><rect height="35.724754" opacity=".98" rx="3.610179" width="45.95528" x="256.000982" y="510.95805"/><rect height="35.724754" opacity=".98" rx="3.610179" width="45.95528" x="196.000982" y="510.95805"/><rect height="35.724754" opacity=".98" rx="3.610179" width="45.95528" x="136.000982" y="510.95805"/><rect height="35.724754" opacity=".98" rx="3.610179" width="45.95528" x="76.000982" y="510.95805"/><rect height="35.724754" opacity=".98" rx="3.610179" width="45.95528" x="616.000982" y="510.95805"/><rect height="35.724754" opacity=".98" rx="3.610179" width="45.95528" x="556.000982" y="510.95805"/><rect height="35.724754" opacity=".98" rx="3.610179" width="45.95528" x="496.000982" y="510.95805"/><rect height="35.724754" opacity=".98" rx="3.610179" width="45.95528" x="436.000982" y="510.95805"/><rect height="35.724754" opacity=".98" rx="3.610179" width="45.95528" x="402.830046" y="452.95805"/><rect height="35.724754" opacity=".98" rx="3.610179" width="45.95528" x="342.830046" y="452.95805"/><rect height="35.724754" opacity=".98" rx="3.610179" width="45.95528" x="282.830046" y="452.95805"/><rect height="35.724754" opacity=".98" rx="3.610179" width="45.95528" x="222.830046" y="452.95805"/><rect height="35.724754" opacity=".98" rx="3.610179" width="45.95528" x="162.830046" y="452.95805"/><rect height="35.724754" opacity=".98" rx="3.610179" width="45.95528" x="102.830046" y="452.95805"/><rect height="35.724754" opacity=".98" rx="3.610179" width="45.95528" x="582.830046" y="452.95805"/><rect height="35.724754" opacity=".98" rx="3.610179" width="45.95528" x="522.830046" y="452.95805"/><rect height="35.724754" opacity=".98" rx="3.610179" width="45.95528" x="462.830046" y="452.95805"/><rect height="35.724754" opacity=".98" rx="3.610179" width="45.95528" x="42.830046" y="452.95805"/></g></svg>